<?xml version="1.0" encoding="UTF-8" standalone="no"?>
<!DOCTYPE svg PUBLIC "-//W3C//DTD SVG 1.1//EN"
 "http://www.w3.org/Graphics/SVG/1.1/DTD/svg11.dtd">
<!-- Generated by graphviz version 2.38.0 (20140413.2041)
 -->
<!-- Title: ToscaDiagram Pages: 1 -->
<svg width="449pt" height="397pt"
 viewBox="0.00 0.00 449.00 397.00" xmlns="http://www.w3.org/2000/svg" xmlns:xlink="http://www.w3.org/1999/xlink">
<g id="graph0" class="graph" transform="scale(1 1) rotate(0) translate(4 393)">
<title>ToscaDiagram</title>
<polygon fill="white" stroke="none" points="-4,4 -4,-393 445,-393 445,4 -4,4"/>
<g id="clust1" class="cluster"><title>clusterSubstitutionMappings</title>
<polygon fill="none" stroke="black" points="74,-8 74,-381 433,-381 433,-8 74,-8"/>
<text text-anchor="middle" x="253.5" y="-365.8" font-family="Times,serif" font-size="14.00">telephony:PBX</text>
</g>
<g id="clust2" class="cluster"><title>clusterasterisk</title>
<polygon fill="none" stroke="white" points="130,-136 130,-350 425,-350 425,-136 130,-136"/>
</g>
<g id="clust3" class="cluster"><title>clusterdata_plane</title>
<polygon fill="none" stroke="white" points="82,-16 82,-128 275,-128 275,-16 82,-16"/>
</g>
<!-- topology_template_substitution_mappings_capability_trunks -->
<g id="node1" class="node"><title>topology_template_substitution_mappings_capability_trunks</title>
<polygon fill="orange" stroke="black" points="42,-336 0,-336 0,-312 42,-312 54,-324 42,-336"/>
<text text-anchor="middle" x="27" y="-320.3" font-family="Times,serif" font-size="14.00">trunks</text>
</g>
<!-- asterisk_capability_trunks -->
<g id="node2" class="node"><title>asterisk_capability_trunks</title>
<polygon fill="orange" stroke="black" points="193.5,-336 151.5,-336 151.5,-312 193.5,-312 205.5,-324 193.5,-336"/>
<text text-anchor="middle" x="178.5" y="-320.3" font-family="Times,serif" font-size="14.00">trunks</text>
</g>
<!-- topology_template_substitution_mappings_capability_trunks&#45;&#45;asterisk_capability_trunks -->
<g id="edge1" class="edge"><title>topology_template_substitution_mappings_capability_trunks&#45;&#45;asterisk_capability_trunks</title>
<path fill="none" stroke="black" stroke-dasharray="1,5" d="M54.0409,-324C81.3133,-324 123.908,-324 151.256,-324"/>
</g>
<!-- asterisk -->
<g id="node3" class="node"><title>asterisk</title>
<path fill="none" stroke="black" d="M315,-195.5C315,-195.5 405,-195.5 405,-195.5 411,-195.5 417,-201.5 417,-207.5 417,-207.5 417,-278.5 417,-278.5 417,-284.5 411,-290.5 405,-290.5 405,-290.5 315,-290.5 315,-290.5 309,-290.5 303,-284.5 303,-278.5 303,-278.5 303,-207.5 303,-207.5 303,-201.5 309,-195.5 315,-195.5"/>
<text text-anchor="middle" x="360" y="-275.3" font-family="Times,serif" font-size="14.00">asterisk: Asterisk</text>
<polyline fill="none" stroke="black" points="303,-267.5 417,-267.5 "/>
</g>
<!-- asterisk_capability_trunks&#45;&#45;asterisk -->
<g id="edge5" class="edge"><title>asterisk_capability_trunks&#45;&#45;asterisk</title>
<path fill="none" stroke="black" d="M205.765,-318.78C225.371,-314.362 252.537,-307.124 275,-297 284.325,-292.797 293.814,-287.663 302.895,-282.251"/>
</g>
<!-- asterisk_capability_metadata -->
<g id="node4" class="node"><title>asterisk_capability_metadata</title>
<polygon fill="orange" stroke="black" points="199.5,-282 145.5,-282 145.5,-258 199.5,-258 211.5,-270 199.5,-282"/>
<text text-anchor="middle" x="178.5" y="-266.3" font-family="Times,serif" font-size="14.00">metadata</text>
</g>
<!-- asterisk_capability_metadata&#45;&#45;asterisk -->
<g id="edge2" class="edge"><title>asterisk_capability_metadata&#45;&#45;asterisk</title>
<path fill="none" stroke="black" d="M211.591,-265.173C236.902,-261.366 272.823,-255.963 302.869,-251.443"/>
</g>
<!-- asterisk_capability_deployment -->
<g id="node5" class="node"><title>asterisk_capability_deployment</title>
<polygon fill="orange" stroke="black" points="207,-228 138,-228 138,-204 207,-204 219,-216 207,-228"/>
<text text-anchor="middle" x="178.5" y="-212.3" font-family="Times,serif" font-size="14.00">deployment</text>
</g>
<!-- asterisk_capability_deployment&#45;&#45;asterisk -->
<g id="edge3" class="edge"><title>asterisk_capability_deployment&#45;&#45;asterisk</title>
<path fill="none" stroke="black" d="M219.337,-221.992C243.919,-225.69 275.826,-230.489 302.936,-234.567"/>
</g>
<!-- asterisk_capability_udp -->
<g id="node6" class="node"><title>asterisk_capability_udp</title>
<polygon fill="orange" stroke="black" points="193.5,-174 151.5,-174 151.5,-150 193.5,-150 205.5,-162 193.5,-174"/>
<text text-anchor="middle" x="178.5" y="-158.3" font-family="Times,serif" font-size="14.00">udp</text>
</g>
<!-- asterisk_capability_udp&#45;&#45;asterisk -->
<g id="edge4" class="edge"><title>asterisk_capability_udp&#45;&#45;asterisk</title>
<path fill="none" stroke="black" d="M205.765,-167.22C225.371,-171.638 252.537,-178.876 275,-189 284.325,-193.203 293.814,-198.337 302.895,-203.749"/>
</g>
<!-- data_plane -->
<g id="node7" class="node"><title>data_plane</title>
<path fill="none" stroke="black" d="M102,-24.5C102,-24.5 255,-24.5 255,-24.5 261,-24.5 267,-30.5 267,-36.5 267,-36.5 267,-107.5 267,-107.5 267,-113.5 261,-119.5 255,-119.5 255,-119.5 102,-119.5 102,-119.5 96,-119.5 90,-113.5 90,-107.5 90,-107.5 90,-36.5 90,-36.5 90,-30.5 96,-24.5 102,-24.5"/>
<text text-anchor="middle" x="178.5" y="-104.3" font-family="Times,serif" font-size="14.00">data&#45;plane: ns:NetworkPlane</text>
<polyline fill="none" stroke="black" points="90,-96.5 267,-96.5 "/>
</g>
</g>
</svg>
