<?xml version="1.0" encoding="UTF-8" standalone="no"?>
<!DOCTYPE svg PUBLIC "-//W3C//DTD SVG 1.1//EN"
 "http://www.w3.org/Graphics/SVG/1.1/DTD/svg11.dtd">
<!-- Generated by graphviz version 2.38.0 (20140413.2041)
 -->
<!-- Title: ToscaDiagram Pages: 1 -->
<svg width="202pt" height="136pt"
 viewBox="0.00 0.00 202.00 136.00" xmlns="http://www.w3.org/2000/svg" xmlns:xlink="http://www.w3.org/1999/xlink">
<g id="graph0" class="graph" transform="scale(1 1) rotate(0) translate(4 132)">
<title>ToscaDiagram</title>
<polygon fill="white" stroke="none" points="-4,4 -4,-132 198,-132 198,4 -4,4"/>
<g id="clust1" class="cluster"><title>clusterhello_world</title>
<polygon fill="none" stroke="white" points="8,-8 8,-120 186,-120 186,-8 8,-8"/>
</g>
<!-- hello_world -->
<g id="node1" class="node"><title>hello_world</title>
<path fill="none" stroke="black" d="M28,-16.5C28,-16.5 166,-16.5 166,-16.5 172,-16.5 178,-22.5 178,-28.5 178,-28.5 178,-99.5 178,-99.5 178,-105.5 172,-111.5 166,-111.5 166,-111.5 28,-111.5 28,-111.5 22,-111.5 16,-105.5 16,-99.5 16,-99.5 16,-28.5 16,-28.5 16,-22.5 22,-16.5 28,-16.5"/>
<text text-anchor="middle" x="97" y="-96.3" font-family="Times,serif" font-size="14.00">hello&#45;world: helm:Release</text>
<polyline fill="none" stroke="black" points="16,-88.5 178,-88.5 "/>
</g>
</g>
</svg>
