<?xml version="1.0" encoding="UTF-8" standalone="no"?>
<!DOCTYPE svg PUBLIC "-//W3C//DTD SVG 1.1//EN"
 "http://www.w3.org/Graphics/SVG/1.1/DTD/svg11.dtd">
<!-- Generated by graphviz version 2.38.0 (20140413.2041)
 -->
<!-- Title: ToscaDiagram Pages: 1 -->
<svg width="449pt" height="571pt"
 viewBox="0.00 0.00 449.00 571.00" xmlns="http://www.w3.org/2000/svg" xmlns:xlink="http://www.w3.org/1999/xlink">
<g id="graph0" class="graph" transform="scale(1 1) rotate(0) translate(4 567)">
<title>ToscaDiagram</title>
<polygon fill="white" stroke="none" points="-4,4 -4,-567 445,-567 445,4 -4,4"/>
<g id="clust1" class="cluster"><title>clusterSubstitutionMappings</title>
<polygon fill="none" stroke="black" points="74,-8 74,-555 433,-555 433,-8 74,-8"/>
<text text-anchor="middle" x="253.5" y="-539.8" font-family="Times,serif" font-size="14.00">telephony:PBX</text>
</g>
<g id="clust2" class="cluster"><title>clusterasterisk</title>
<polygon fill="none" stroke="white" points="118.5,-256 118.5,-524 425,-524 425,-256 118.5,-256"/>
</g>
<g id="clust3" class="cluster"><title>clusterdb</title>
<polygon fill="none" stroke="white" points="137.5,-136 137.5,-248 422,-248 422,-136 137.5,-136"/>
</g>
<g id="clust4" class="cluster"><title>clusterdata_plane</title>
<polygon fill="none" stroke="white" points="82,-16 82,-128 275,-128 275,-16 82,-16"/>
</g>
<!-- topology_template_substitution_mappings_capability_trunks -->
<g id="node1" class="node"><title>topology_template_substitution_mappings_capability_trunks</title>
<polygon fill="orange" stroke="black" points="42,-510 0,-510 0,-486 42,-486 54,-498 42,-510"/>
<text text-anchor="middle" x="27" y="-494.3" font-family="Times,serif" font-size="14.00">trunks</text>
</g>
<!-- asterisk_capability_trunks -->
<g id="node2" class="node"><title>asterisk_capability_trunks</title>
<polygon fill="orange" stroke="black" points="193.5,-510 151.5,-510 151.5,-486 193.5,-486 205.5,-498 193.5,-510"/>
<text text-anchor="middle" x="178.5" y="-494.3" font-family="Times,serif" font-size="14.00">trunks</text>
</g>
<!-- topology_template_substitution_mappings_capability_trunks&#45;&#45;asterisk_capability_trunks -->
<g id="edge1" class="edge"><title>topology_template_substitution_mappings_capability_trunks&#45;&#45;asterisk_capability_trunks</title>
<path fill="none" stroke="black" stroke-dasharray="1,5" d="M54.0409,-498C81.3133,-498 123.908,-498 151.256,-498"/>
</g>
<!-- asterisk -->
<g id="node3" class="node"><title>asterisk</title>
<path fill="none" stroke="black" d="M315,-342.5C315,-342.5 405,-342.5 405,-342.5 411,-342.5 417,-348.5 417,-354.5 417,-354.5 417,-425.5 417,-425.5 417,-431.5 411,-437.5 405,-437.5 405,-437.5 315,-437.5 315,-437.5 309,-437.5 303,-431.5 303,-425.5 303,-425.5 303,-354.5 303,-354.5 303,-348.5 309,-342.5 315,-342.5"/>
<text text-anchor="middle" x="360" y="-422.3" font-family="Times,serif" font-size="14.00">asterisk: Asterisk</text>
<polyline fill="none" stroke="black" points="303,-414.5 417,-414.5 "/>
</g>
<!-- asterisk_capability_trunks&#45;&#45;asterisk -->
<g id="edge6" class="edge"><title>asterisk_capability_trunks&#45;&#45;asterisk</title>
<path fill="none" stroke="black" d="M205.575,-494.192C225.576,-490.453 253.336,-483.443 275,-471 290.284,-462.221 304.881,-450.054 317.492,-437.816"/>
</g>
<!-- asterisk_capability_metadata -->
<g id="node4" class="node"><title>asterisk_capability_metadata</title>
<polygon fill="orange" stroke="black" points="199.5,-456 145.5,-456 145.5,-432 199.5,-432 211.5,-444 199.5,-456"/>
<text text-anchor="middle" x="178.5" y="-440.3" font-family="Times,serif" font-size="14.00">metadata</text>
</g>
<!-- asterisk_capability_metadata&#45;&#45;asterisk -->
<g id="edge2" class="edge"><title>asterisk_capability_metadata&#45;&#45;asterisk</title>
<path fill="none" stroke="black" d="M211.852,-435.16C230.385,-430.02 254.052,-423.326 275,-417 283.945,-414.299 293.397,-411.352 302.605,-408.43"/>
</g>
<!-- asterisk_capability_virtual_machine -->
<g id="node5" class="node"><title>asterisk_capability_virtual_machine</title>
<polygon fill="orange" stroke="black" points="218.5,-402 126.5,-402 126.5,-378 218.5,-378 230.5,-390 218.5,-402"/>
<text text-anchor="middle" x="178.5" y="-386.3" font-family="Times,serif" font-size="14.00">virtual&#45;machine</text>
</g>
<!-- asterisk_capability_virtual_machine&#45;&#45;asterisk -->
<g id="edge3" class="edge"><title>asterisk_capability_virtual_machine&#45;&#45;asterisk</title>
<path fill="none" stroke="black" d="M230.937,-390C253.418,-390 279.847,-390 302.839,-390"/>
</g>
<!-- asterisk_capability_tcp -->
<g id="node6" class="node"><title>asterisk_capability_tcp</title>
<polygon fill="orange" stroke="black" points="193.5,-348 151.5,-348 151.5,-324 193.5,-324 205.5,-336 193.5,-348"/>
<text text-anchor="middle" x="178.5" y="-332.3" font-family="Times,serif" font-size="14.00">tcp</text>
</g>
<!-- asterisk_capability_tcp&#45;&#45;asterisk -->
<g id="edge4" class="edge"><title>asterisk_capability_tcp&#45;&#45;asterisk</title>
<path fill="none" stroke="black" d="M205.513,-343.086C224.757,-348.394 251.578,-355.927 275,-363 283.945,-365.701 293.397,-368.648 302.605,-371.57"/>
</g>
<!-- asterisk_capability_udp -->
<g id="node7" class="node"><title>asterisk_capability_udp</title>
<polygon fill="orange" stroke="black" points="193.5,-294 151.5,-294 151.5,-270 193.5,-270 205.5,-282 193.5,-294"/>
<text text-anchor="middle" x="178.5" y="-278.3" font-family="Times,serif" font-size="14.00">udp</text>
</g>
<!-- asterisk_capability_udp&#45;&#45;asterisk -->
<g id="edge5" class="edge"><title>asterisk_capability_udp&#45;&#45;asterisk</title>
<path fill="none" stroke="black" d="M205.575,-285.808C225.576,-289.547 253.336,-296.557 275,-309 290.284,-317.779 304.881,-329.946 317.492,-342.184"/>
</g>
<!-- db -->
<g id="node8" class="node"><title>db</title>
<path fill="none" stroke="black" d="M318,-144.5C318,-144.5 402,-144.5 402,-144.5 408,-144.5 414,-150.5 414,-156.5 414,-156.5 414,-227.5 414,-227.5 414,-233.5 408,-239.5 402,-239.5 402,-239.5 318,-239.5 318,-239.5 312,-239.5 306,-233.5 306,-227.5 306,-227.5 306,-156.5 306,-156.5 306,-150.5 312,-144.5 318,-144.5"/>
<text text-anchor="middle" x="360" y="-224.3" font-family="Times,serif" font-size="14.00">db: mariadb:DB</text>
<polyline fill="none" stroke="black" points="306,-216.5 414,-216.5 "/>
</g>
<!-- db_capability_metadata -->
<g id="node9" class="node"><title>db_capability_metadata</title>
<polygon fill="orange" stroke="black" points="199.5,-231 145.5,-231 145.5,-207 199.5,-207 211.5,-219 199.5,-231"/>
<text text-anchor="middle" x="178.5" y="-215.3" font-family="Times,serif" font-size="14.00">metadata</text>
</g>
<!-- db_capability_metadata&#45;&#45;db -->
<g id="edge7" class="edge"><title>db_capability_metadata&#45;&#45;db</title>
<path fill="none" stroke="black" d="M211.591,-214.173C237.709,-210.244 275.124,-204.616 305.723,-200.014"/>
</g>
<!-- db_capability_db -->
<g id="node10" class="node"><title>db_capability_db</title>
<polygon fill="orange" stroke="black" points="193.5,-177 151.5,-177 151.5,-153 193.5,-153 205.5,-165 193.5,-177"/>
<text text-anchor="middle" x="178.5" y="-161.3" font-family="Times,serif" font-size="14.00">db</text>
</g>
<!-- db_capability_db&#45;&#45;db -->
<g id="edge8" class="edge"><title>db_capability_db&#45;&#45;db</title>
<path fill="none" stroke="black" d="M205.601,-168.926C231.757,-172.86 272.772,-179.03 305.813,-184"/>
</g>
<!-- data_plane -->
<g id="node11" class="node"><title>data_plane</title>
<path fill="none" stroke="black" d="M102,-24.5C102,-24.5 255,-24.5 255,-24.5 261,-24.5 267,-30.5 267,-36.5 267,-36.5 267,-107.5 267,-107.5 267,-113.5 261,-119.5 255,-119.5 255,-119.5 102,-119.5 102,-119.5 96,-119.5 90,-113.5 90,-107.5 90,-107.5 90,-36.5 90,-36.5 90,-30.5 96,-24.5 102,-24.5"/>
<text text-anchor="middle" x="178.5" y="-104.3" font-family="Times,serif" font-size="14.00">data&#45;plane: ns:NetworkPlane</text>
<polyline fill="none" stroke="black" points="90,-96.5 267,-96.5 "/>
</g>
</g>
</svg>
