<?xml version="1.0" encoding="UTF-8" standalone="no"?>
<!DOCTYPE svg PUBLIC "-//W3C//DTD SVG 1.1//EN"
 "http://www.w3.org/Graphics/SVG/1.1/DTD/svg11.dtd">
<!-- Generated by graphviz version 2.38.0 (20140413.2041)
 -->
<!-- Title: ToscaDiagram Pages: 1 -->
<svg width="740pt" height="338pt"
 viewBox="0.00 0.00 740.00 338.00" xmlns="http://www.w3.org/2000/svg" xmlns:xlink="http://www.w3.org/1999/xlink">
<g id="graph0" class="graph" transform="scale(1 1) rotate(0) translate(4 334)">
<title>ToscaDiagram</title>
<polygon fill="white" stroke="none" points="-4,4 -4,-334 736,-334 736,4 -4,4"/>
<g id="clust1" class="cluster"><title>clustercentral_pbx</title>
<polygon fill="none" stroke="white" points="8,-210 8,-322 399,-322 399,-210 8,-210"/>
</g>
<g id="clust2" class="cluster"><title>clusteredge_pbx</title>
<polygon fill="none" stroke="white" points="8,-20 8,-132 399,-132 399,-20 8,-20"/>
</g>
<g id="clust3" class="cluster"><title>clusterdata_plane</title>
<polygon fill="none" stroke="white" points="419,-8 419,-120 724,-120 724,-8 419,-8"/>
</g>
<!-- central_pbx -->
<g id="node1" class="node"><title>central_pbx</title>
<path fill="none" stroke="black" d="M118,-218.5C118,-218.5 267,-218.5 267,-218.5 273,-218.5 279,-224.5 279,-230.5 279,-230.5 279,-301.5 279,-301.5 279,-307.5 273,-313.5 267,-313.5 267,-313.5 118,-313.5 118,-313.5 112,-313.5 106,-307.5 106,-301.5 106,-301.5 106,-230.5 106,-230.5 106,-224.5 112,-218.5 118,-218.5"/>
<text text-anchor="middle" x="192.5" y="-298.3" font-family="Times,serif" font-size="14.00">central&#45;pbx: telephony:PBX</text>
<polyline fill="none" stroke="black" points="106,-290.5 279,-290.5 "/>
</g>
<!-- central_pbx_requirement_connection -->
<g id="node3" class="node"><title>central_pbx_requirement_connection</title>
<polygon fill="turquoise" stroke="black" points="379,-302 315,-302 315,-278 379,-278 391,-290 379,-302"/>
<text text-anchor="middle" x="353" y="-286.3" font-family="Times,serif" font-size="14.00">connection</text>
</g>
<!-- central_pbx&#45;&#45;central_pbx_requirement_connection -->
<g id="edge2" class="edge"><title>central_pbx&#45;&#45;central_pbx_requirement_connection</title>
<path fill="none" stroke="black" d="M279.244,-278.983C291.79,-280.883 304.118,-282.75 314.958,-284.391"/>
</g>
<!-- central_pbx_requirement_trunk -->
<g id="node4" class="node"><title>central_pbx_requirement_trunk</title>
<polygon fill="turquoise" stroke="black" points="368,-248 326,-248 326,-224 368,-224 380,-236 368,-248"/>
<text text-anchor="middle" x="353" y="-232.3" font-family="Times,serif" font-size="14.00">trunk</text>
</g>
<!-- central_pbx&#45;&#45;central_pbx_requirement_trunk -->
<g id="edge3" class="edge"><title>central_pbx&#45;&#45;central_pbx_requirement_trunk</title>
<path fill="none" stroke="black" d="M279.244,-249.771C296.167,-246.568 312.692,-243.44 325.705,-240.977"/>
</g>
<!-- central_pbx_capability_trunks -->
<g id="node2" class="node"><title>central_pbx_capability_trunks</title>
<polygon fill="orange" stroke="black" points="58,-263 16,-263 16,-239 58,-239 70,-251 58,-263"/>
<text text-anchor="middle" x="43" y="-247.3" font-family="Times,serif" font-size="14.00">trunks</text>
</g>
<!-- central_pbx_capability_trunks&#45;&#45;central_pbx -->
<g id="edge1" class="edge"><title>central_pbx_capability_trunks&#45;&#45;central_pbx</title>
<path fill="none" stroke="black" d="M70.0305,-253.647C80.3685,-254.698 92.8988,-255.973 105.935,-257.298"/>
</g>
<!-- data_plane_capability_connection -->
<g id="node10" class="node"><title>data_plane_capability_connection</title>
<polygon fill="orange" stroke="black" points="491,-76 427,-76 427,-52 491,-52 503,-64 491,-76"/>
<text text-anchor="middle" x="465" y="-60.3" font-family="Times,serif" font-size="14.00">connection</text>
</g>
<!-- central_pbx_requirement_connection&#45;&#45;data_plane_capability_connection -->
<g id="edge9" class="edge"><title>central_pbx_requirement_connection&#45;&#45;data_plane_capability_connection</title>
<path fill="none" stroke="black" stroke-dasharray="1,5" d="M389.889,-271.918C393.261,-269.248 396.387,-266.277 399,-263 443.52,-207.156 457.991,-119.795 462.313,-82.2028"/>
</g>
<!-- edge_pbx_capability_trunks -->
<g id="node6" class="node"><title>edge_pbx_capability_trunks</title>
<polygon fill="orange" stroke="black" points="58,-103 16,-103 16,-79 58,-79 70,-91 58,-103"/>
<text text-anchor="middle" x="43" y="-87.3" font-family="Times,serif" font-size="14.00">trunks</text>
</g>
<!-- central_pbx_requirement_trunk&#45;&#45;edge_pbx_capability_trunks -->
<g id="edge8" class="edge"><title>central_pbx_requirement_trunk&#45;&#45;edge_pbx_capability_trunks</title>
<path fill="none" stroke="black" stroke-dasharray="1,5" d="M325.633,-225.731C270.795,-204.249 146.213,-154.758 106,-133 93.0789,-126.009 79.4846,-117.006 68.3291,-109.13"/>
</g>
<!-- edge_pbx -->
<g id="node5" class="node"><title>edge_pbx</title>
<path fill="none" stroke="black" d="M124,-28.5C124,-28.5 261,-28.5 261,-28.5 267,-28.5 273,-34.5 273,-40.5 273,-40.5 273,-111.5 273,-111.5 273,-117.5 267,-123.5 261,-123.5 261,-123.5 124,-123.5 124,-123.5 118,-123.5 112,-117.5 112,-111.5 112,-111.5 112,-40.5 112,-40.5 112,-34.5 118,-28.5 124,-28.5"/>
<text text-anchor="middle" x="192.5" y="-108.3" font-family="Times,serif" font-size="14.00">edge&#45;pbx: telephony:PBX</text>
<polyline fill="none" stroke="black" points="112,-100.5 273,-100.5 "/>
</g>
<!-- edge_pbx_requirement_connection -->
<g id="node7" class="node"><title>edge_pbx_requirement_connection</title>
<polygon fill="turquoise" stroke="black" points="379,-64 315,-64 315,-40 379,-40 391,-52 379,-64"/>
<text text-anchor="middle" x="353" y="-48.3" font-family="Times,serif" font-size="14.00">connection</text>
</g>
<!-- edge_pbx&#45;&#45;edge_pbx_requirement_connection -->
<g id="edge5" class="edge"><title>edge_pbx&#45;&#45;edge_pbx_requirement_connection</title>
<path fill="none" stroke="black" d="M273.214,-63.9297C287.707,-61.7352 302.179,-59.5439 314.692,-57.6492"/>
</g>
<!-- edge_pbx_requirement_trunk -->
<g id="node8" class="node"><title>edge_pbx_requirement_trunk</title>
<polygon fill="turquoise" stroke="black" points="368,-118 326,-118 326,-94 368,-94 380,-106 368,-118"/>
<text text-anchor="middle" x="353" y="-102.3" font-family="Times,serif" font-size="14.00">trunk</text>
</g>
<!-- edge_pbx&#45;&#45;edge_pbx_requirement_trunk -->
<g id="edge6" class="edge"><title>edge_pbx&#45;&#45;edge_pbx_requirement_trunk</title>
<path fill="none" stroke="black" d="M273.214,-91.0879C292.178,-94.6773 311.107,-98.2599 325.656,-101.014"/>
</g>
<!-- edge_pbx_capability_trunks&#45;&#45;edge_pbx -->
<g id="edge4" class="edge"><title>edge_pbx_capability_trunks&#45;&#45;edge_pbx</title>
<path fill="none" stroke="black" d="M70.0305,-88.3528C81.9398,-87.1417 96.7586,-85.6347 111.908,-84.0941"/>
</g>
<!-- edge_pbx_requirement_connection&#45;&#45;data_plane_capability_connection -->
<g id="edge11" class="edge"><title>edge_pbx_requirement_connection&#45;&#45;data_plane_capability_connection</title>
<path fill="none" stroke="black" stroke-dasharray="1,5" d="M391.241,-56.0627C402.709,-57.3137 415.332,-58.6907 426.797,-59.9415"/>
</g>
<!-- edge_pbx_requirement_trunk&#45;&#45;central_pbx_capability_trunks -->
<g id="edge10" class="edge"><title>edge_pbx_requirement_trunk&#45;&#45;central_pbx_capability_trunks</title>
<path fill="none" stroke="black" stroke-dasharray="1,5" d="M325.633,-116.269C270.795,-137.751 146.213,-187.242 106,-209 93.0789,-215.991 79.4846,-224.994 68.3291,-232.87"/>
</g>
<!-- data_plane -->
<g id="node9" class="node"><title>data_plane</title>
<path fill="none" stroke="black" d="M551,-16.5C551,-16.5 704,-16.5 704,-16.5 710,-16.5 716,-22.5 716,-28.5 716,-28.5 716,-99.5 716,-99.5 716,-105.5 710,-111.5 704,-111.5 704,-111.5 551,-111.5 551,-111.5 545,-111.5 539,-105.5 539,-99.5 539,-99.5 539,-28.5 539,-28.5 539,-22.5 545,-16.5 551,-16.5"/>
<text text-anchor="middle" x="627.5" y="-96.3" font-family="Times,serif" font-size="14.00">data&#45;plane: ns:NetworkPlane</text>
<polyline fill="none" stroke="black" points="539,-88.5 716,-88.5 "/>
</g>
<!-- data_plane_capability_connection&#45;&#45;data_plane -->
<g id="edge7" class="edge"><title>data_plane_capability_connection&#45;&#45;data_plane</title>
<path fill="none" stroke="black" d="M503.225,-64C514.06,-64 526.38,-64 538.941,-64"/>
</g>
</g>
</svg>
