<?xml version="1.0" encoding="UTF-8" standalone="no"?>
<!DOCTYPE svg PUBLIC "-//W3C//DTD SVG 1.1//EN"
 "http://www.w3.org/Graphics/SVG/1.1/DTD/svg11.dtd">
<!-- Generated by graphviz version 2.38.0 (20140413.2041)
 -->
<!-- Title: ToscaDiagram Pages: 1 -->
<svg width="324pt" height="184pt"
 viewBox="0.00 0.00 324.00 184.00" xmlns="http://www.w3.org/2000/svg" xmlns:xlink="http://www.w3.org/1999/xlink">
<g id="graph0" class="graph" transform="scale(1 1) rotate(0) translate(4 180)">
<title>ToscaDiagram</title>
<polygon fill="white" stroke="none" points="-4,4 -4,-180 320,-180 320,4 -4,4"/>
<g id="clust1" class="cluster"><title>clusterself_contained</title>
<polygon fill="none" stroke="white" points="8,-8 8,-168 308,-168 308,-8 8,-8"/>
</g>
<!-- self_contained -->
<g id="node1" class="node"><title>self_contained</title>
<path fill="none" stroke="black" d="M145,-40.5C145,-40.5 288,-40.5 288,-40.5 294,-40.5 300,-46.5 300,-52.5 300,-52.5 300,-123.5 300,-123.5 300,-129.5 294,-135.5 288,-135.5 288,-135.5 145,-135.5 145,-135.5 139,-135.5 133,-129.5 133,-123.5 133,-123.5 133,-52.5 133,-52.5 133,-46.5 139,-40.5 145,-40.5"/>
<text text-anchor="middle" x="216.5" y="-120.3" font-family="Times,serif" font-size="14.00">self&#45;contained: Application</text>
<polyline fill="none" stroke="black" points="133,-112.5 300,-112.5 "/>
</g>
<!-- self_contained_capability_metadata -->
<g id="node2" class="node"><title>self_contained_capability_metadata</title>
<polygon fill="orange" stroke="black" points="77.5,-154 23.5,-154 23.5,-130 77.5,-130 89.5,-142 77.5,-154"/>
<text text-anchor="middle" x="56.5" y="-138.3" font-family="Times,serif" font-size="14.00">metadata</text>
</g>
<!-- self_contained_capability_metadata&#45;&#45;self_contained -->
<g id="edge1" class="edge"><title>self_contained_capability_metadata&#45;&#45;self_contained</title>
<path fill="none" stroke="black" d="M89.8549,-130.942C102.495,-126.622 117.616,-121.454 132.917,-116.224"/>
</g>
<!-- self_contained_capability_deployment -->
<g id="node3" class="node"><title>self_contained_capability_deployment</title>
<polygon fill="orange" stroke="black" points="85,-100 16,-100 16,-76 85,-76 97,-88 85,-100"/>
<text text-anchor="middle" x="56.5" y="-84.3" font-family="Times,serif" font-size="14.00">deployment</text>
</g>
<!-- self_contained_capability_deployment&#45;&#45;self_contained -->
<g id="edge2" class="edge"><title>self_contained_capability_deployment&#45;&#45;self_contained</title>
<path fill="none" stroke="black" d="M97.3701,-88C108.249,-88 120.452,-88 132.776,-88"/>
</g>
<!-- self_contained_capability_web -->
<g id="node4" class="node"><title>self_contained_capability_web</title>
<polygon fill="orange" stroke="black" points="71.5,-46 29.5,-46 29.5,-22 71.5,-22 83.5,-34 71.5,-46"/>
<text text-anchor="middle" x="56.5" y="-30.3" font-family="Times,serif" font-size="14.00">web</text>
</g>
<!-- self_contained_capability_web&#45;&#45;self_contained -->
<g id="edge3" class="edge"><title>self_contained_capability_web&#45;&#45;self_contained</title>
<path fill="none" stroke="black" d="M83.5905,-42.917C97.2638,-47.5902 114.851,-53.6009 132.697,-59.7002"/>
</g>
</g>
</svg>
