<?xml version="1.0" encoding="UTF-8" standalone="no"?><svg xmlns="http://www.w3.org/2000/svg" xmlns:xlink="http://www.w3.org/1999/xlink" contentScriptType="application/ecmascript" contentStyleType="text/css" height="559px" preserveAspectRatio="none" style="width:2432px;height:559px;background:#FFFFFF;" version="1.1" viewBox="0 0 2432 559" width="2432px" zoomAndPan="magnify"><defs><filter height="300%" id="f136dcg5zmuxsy" width="300%" x="-1" y="-1"><feGaussianBlur result="blurOut" stdDeviation="2.0"/><feColorMatrix in="blurOut" result="blurOut2" type="matrix" values="0 0 0 0 0 0 0 0 0 0 0 0 0 0 0 0 0 0 .4 0"/><feOffset dx="4.0" dy="4.0" in="blurOut2" result="blurOut3"/><feBlend in="SourceGraphic" in2="blurOut3" mode="normal"/></filter></defs><g><!--MD5=[e2e64afa185dc610a81d4d935ee3e9dd]
class tosca_capabilities_Root_CT--><rect codeLine="5" fill="#DDDDDD" filter="url(#f136dcg5zmuxsy)" height="48" id="tosca_capabilities_Root_CT" style="stroke:#A80036;stroke-width:1.5;" width="161" x="886" y="7"/><ellipse cx="901" cy="23" fill="#008000" rx="11" ry="11" style="stroke:#A80036;stroke-width:1.0;"/><path d="M903.9731,28.6431 Q903.3921,28.9419 902.7529,29.0913 Q902.1138,29.2407 901.4082,29.2407 Q898.9014,29.2407 897.5815,27.5889 Q896.2617,25.937 896.2617,22.8159 Q896.2617,19.6865 897.5815,18.0347 Q898.9014,16.3828 901.4082,16.3828 Q902.1138,16.3828 902.7612,16.5322 Q903.4087,16.6816 903.9731,16.9805 L903.9731,19.7031 Q903.3423,19.1221 902.7488,18.8523 Q902.1553,18.5825 901.5244,18.5825 Q900.1797,18.5825 899.4949,19.6492 Q898.8101,20.7158 898.8101,22.8159 Q898.8101,24.9077 899.4949,25.9744 Q900.1797,27.041 901.5244,27.041 Q902.1553,27.041 902.7488,26.7712 Q903.3423,26.5015 903.9731,25.9204 Z " fill="#000000"/><text fill="#000000" font-family="sans-serif" font-size="12" lengthAdjust="spacing" textLength="129" x="915" y="27.5352">tosca.capabilities.Root</text><line style="stroke:#A80036;stroke-width:1.5;" x1="887" x2="1046" y1="39" y2="39"/><line style="stroke:#A80036;stroke-width:1.5;" x1="887" x2="1046" y1="47" y2="47"/><!--MD5=[622cdbabc6602a76480059ea749c6899]
class kubetos_capabilities_Certificate_CT--><rect codeLine="3" fill="#FEFECE" filter="url(#f136dcg5zmuxsy)" height="48" id="kubetos_capabilities_Certificate_CT" style="stroke:#A80036;stroke-width:1.5;" width="209" x="7" y="252"/><ellipse cx="22" cy="268" fill="#008000" rx="11" ry="11" style="stroke:#A80036;stroke-width:1.0;"/><path d="M24.9731,273.6431 Q24.3921,273.9419 23.7529,274.0913 Q23.1138,274.2407 22.4082,274.2407 Q19.9014,274.2407 18.5815,272.5889 Q17.2617,270.937 17.2617,267.8159 Q17.2617,264.6865 18.5815,263.0347 Q19.9014,261.3828 22.4082,261.3828 Q23.1138,261.3828 23.7612,261.5322 Q24.4087,261.6816 24.9731,261.9805 L24.9731,264.7031 Q24.3423,264.1221 23.7488,263.8523 Q23.1553,263.5825 22.5244,263.5825 Q21.1797,263.5825 20.4949,264.6492 Q19.8101,265.7158 19.8101,267.8159 Q19.8101,269.9077 20.4949,270.9744 Q21.1797,272.041 22.5244,272.041 Q23.1553,272.041 23.7488,271.7712 Q24.3423,271.5015 24.9731,270.9204 Z " fill="#000000"/><text fill="#000000" font-family="sans-serif" font-size="12" lengthAdjust="spacing" textLength="177" x="36" y="272.5352">kubetos.capabilities.Certificate</text><line style="stroke:#A80036;stroke-width:1.5;" x1="8" x2="215" y1="284" y2="284"/><line style="stroke:#A80036;stroke-width:1.5;" x1="8" x2="215" y1="292" y2="292"/><!--MD5=[d6a30480a7e56a599bae3ee6c9f339fb]
class kubetos_capabilities_CertificateAuthority_CT--><rect codeLine="6" fill="#FEFECE" filter="url(#f136dcg5zmuxsy)" height="48" id="kubetos_capabilities_CertificateAuthority_CT" style="stroke:#A80036;stroke-width:1.5;" width="260" x="1136.5" y="252"/><ellipse cx="1151.5" cy="268" fill="#008000" rx="11" ry="11" style="stroke:#A80036;stroke-width:1.0;"/><path d="M1154.4731,273.6431 Q1153.8921,273.9419 1153.2529,274.0913 Q1152.6138,274.2407 1151.9082,274.2407 Q1149.4014,274.2407 1148.0815,272.5889 Q1146.7617,270.937 1146.7617,267.8159 Q1146.7617,264.6865 1148.0815,263.0347 Q1149.4014,261.3828 1151.9082,261.3828 Q1152.6138,261.3828 1153.2612,261.5322 Q1153.9087,261.6816 1154.4731,261.9805 L1154.4731,264.7031 Q1153.8423,264.1221 1153.2488,263.8523 Q1152.6553,263.5825 1152.0244,263.5825 Q1150.6797,263.5825 1149.9949,264.6492 Q1149.3101,265.7158 1149.3101,267.8159 Q1149.3101,269.9077 1149.9949,270.9744 Q1150.6797,272.041 1152.0244,272.041 Q1152.6553,272.041 1153.2488,271.7712 Q1153.8423,271.5015 1154.4731,270.9204 Z " fill="#000000"/><text fill="#000000" font-family="sans-serif" font-size="12" lengthAdjust="spacing" textLength="228" x="1165.5" y="272.5352">kubetos.capabilities.CertificateAuthority</text><line style="stroke:#A80036;stroke-width:1.5;" x1="1137.5" x2="1395.5" y1="284" y2="284"/><line style="stroke:#A80036;stroke-width:1.5;" x1="1137.5" x2="1395.5" y1="292" y2="292"/><!--MD5=[27697265338c4c4e774e642814f1268f]
class tosca_nodes_SoftwareComponent_NT--><rect codeLine="8" fill="#DDDDDD" filter="url(#f136dcg5zmuxsy)" height="48" id="tosca_nodes_SoftwareComponent_NT" style="stroke:#A80036;stroke-width:1.5;" width="220" x="2122.5" y="7"/><ellipse cx="2137.5" cy="23" fill="#008000" rx="11" ry="11" style="stroke:#A80036;stroke-width:1.0;"/><path d="M2133.4878,16.6069 L2136.1191,16.6069 L2139.5723,25.6133 L2139.5723,16.6069 L2141.7305,16.6069 L2141.7305,29 L2139.1157,29 L2135.646,19.9937 L2135.646,29 L2133.4878,29 Z " fill="#000000"/><text fill="#000000" font-family="sans-serif" font-size="12" lengthAdjust="spacing" textLength="188" x="2151.5" y="27.5352">tosca.nodes.SoftwareComponent</text><line style="stroke:#A80036;stroke-width:1.5;" x1="2123.5" x2="2341.5" y1="39" y2="39"/><line style="stroke:#A80036;stroke-width:1.5;" x1="2123.5" x2="2341.5" y1="47" y2="47"/><!--MD5=[3681682eae5226ba5bedeac1de8371cf]
class kubetos_nodes_CertificateMirror_NT--><rect codeLine="9" fill="#FEFECE" filter="url(#f136dcg5zmuxsy)" height="232.416" id="kubetos_nodes_CertificateMirror_NT" style="stroke:#A80036;stroke-width:1.5;" width="371" x="2047" y="160"/><ellipse cx="2137.25" cy="176" fill="#008000" rx="11" ry="11" style="stroke:#A80036;stroke-width:1.0;"/><path d="M2133.2378,169.6069 L2135.8691,169.6069 L2139.3223,178.6133 L2139.3223,169.6069 L2141.4805,169.6069 L2141.4805,182 L2138.8657,182 L2135.396,172.9937 L2135.396,182 L2133.2378,182 Z " fill="#000000"/><text fill="#000000" font-family="sans-serif" font-size="12" lengthAdjust="spacing" textLength="182" x="2157.75" y="180.5352">kubetos.nodes.CertificateMirror</text><line style="stroke:#A80036;stroke-width:1.5;" x1="2048" x2="2417" y1="192" y2="192"/><ellipse cx="2058" cy="219.9551" rx="3" ry="3" style="stroke:#038048;stroke-width:1.0;fill:none;"/><text fill="#000000" font-family="sans-serif" font-size="11" font-weight="bold" lengthAdjust="spacing" textLength="95" x="2067" y="223.5898">cert_path : string</text><ellipse cx="2058" cy="232.9102" rx="3" ry="3" style="stroke:#038048;stroke-width:1.0;fill:none;"/><text fill="#000000" font-family="sans-serif" font-size="11" font-weight="bold" lengthAdjust="spacing" textLength="93" x="2067" y="236.5449">key_path : string</text><line style="stroke:#A80036;stroke-width:1.0;stroke-dasharray:1.0,2.0;" x1="2048" x2="2204.5" y1="206.4775" y2="206.4775"/><text fill="#000000" font-family="sans-serif" font-size="11" lengthAdjust="spacing" textLength="56" x="2204.5" y="210.1348">properties</text><line style="stroke:#A80036;stroke-width:1.0;stroke-dasharray:1.0,2.0;" x1="2260.5" x2="2417" y1="206.4775" y2="206.4775"/><ellipse cx="2058" cy="262.8203" rx="3" ry="3" style="stroke:#038048;stroke-width:1.0;fill:none;"/><text fill="#000000" font-family="sans-serif" font-size="11" lengthAdjust="spacing" textLength="53" x="2067" y="266.4551">certificate</text><text fill="#000000" font-family="sans-serif" font-size="11" lengthAdjust="spacing" textLength="222" x="2067" y="279.4102">type : kubetos.capabilities.Certificate[1..*]</text><line style="stroke:#A80036;stroke-width:1.0;stroke-dasharray:1.0,2.0;" x1="2048" x2="2202.5" y1="249.3428" y2="249.3428"/><text fill="#000000" font-family="sans-serif" font-size="11" lengthAdjust="spacing" textLength="60" x="2202.5" y="253">capabilities</text><line style="stroke:#A80036;stroke-width:1.0;stroke-dasharray:1.0,2.0;" x1="2262.5" x2="2417" y1="249.3428" y2="249.3428"/><ellipse cx="2058" cy="305.6855" rx="3" ry="3" style="stroke:#038048;stroke-width:1.0;fill:none;"/><text fill="#000000" font-family="sans-serif" font-size="11" font-weight="bold" lengthAdjust="spacing" textLength="21" x="2067" y="309.3203">cert</text><text fill="#000000" font-family="sans-serif" font-size="11" lengthAdjust="spacing" textLength="239" x="2067" y="322.2754">capability : kubetos.capabilities.Certificate[1]</text><text fill="#000000" font-family="sans-serif" font-size="11" lengthAdjust="spacing" textLength="241" x="2067" y="335.2305">relationship : tosca.relationships.DependsOn</text><line style="stroke:#A80036;stroke-width:1.0;stroke-dasharray:1.0,2.0;" x1="2048" x2="2196.5" y1="292.208" y2="292.208"/><text fill="#000000" font-family="sans-serif" font-size="11" lengthAdjust="spacing" textLength="72" x="2196.5" y="295.8652">requirements</text><line style="stroke:#A80036;stroke-width:1.0;stroke-dasharray:1.0,2.0;" x1="2268.5" x2="2417" y1="292.208" y2="292.208"/><line style="stroke:#A80036;stroke-width:1.0;" x1="2048" x2="2417" y1="341.5508" y2="341.5508"/><ellipse cx="2058" cy="369.5059" fill="#84BE84" rx="3" ry="3" style="stroke:#038048;stroke-width:1.0;"/><text fill="#000000" font-family="sans-serif" font-size="11" lengthAdjust="spacing" textLength="41" x="2067" y="373.1406">create()</text><text fill="#000000" font-family="sans-serif" font-size="11" lengthAdjust="spacing" textLength="345" x="2067" y="386.0957">implementation: {'primary': './ansible/cert-mirror--create.yaml'}</text><line style="stroke:#A80036;stroke-width:1.0;stroke-dasharray:1.0,2.0;" x1="2048" x2="2183.5" y1="356.0283" y2="356.0283"/><text fill="#000000" font-family="sans-serif" font-size="11" lengthAdjust="spacing" textLength="98" x="2183.5" y="359.6855">interface Standard</text><line style="stroke:#A80036;stroke-width:1.0;stroke-dasharray:1.0,2.0;" x1="2281.5" x2="2417" y1="356.0283" y2="356.0283"/><!--MD5=[c91485d2278f9f1bf31fdc35ad2630d3]
class tosca_relationships_DependsOn_RT--><rect codeLine="48" fill="#DDDDDD" filter="url(#f136dcg5zmuxsy)" height="48" id="tosca_relationships_DependsOn_RT" style="stroke:#A80036;stroke-width:1.5;" width="211" x="1334" y="497"/><ellipse cx="1349" cy="513" fill="#008000" rx="11" ry="11" style="stroke:#A80036;stroke-width:1.0;"/><path d="M1350.1987,513.1479 Q1350.564,513.2227 1350.8337,513.4924 Q1351.1035,513.7622 1351.4937,514.5425 L1353.7349,519 L1351.0454,519 L1349.5513,515.8706 Q1349.4849,515.7378 1349.377,515.5054 Q1348.7212,514.1025 1347.833,514.1025 L1347.0527,514.1025 L1347.0527,519 L1344.604,519 L1344.604,506.6069 L1348.1401,506.6069 Q1350.5308,506.6069 1351.5725,507.4536 Q1352.6143,508.3003 1352.6143,510.2095 Q1352.6143,511.4878 1351.9917,512.2432 Q1351.3691,512.9985 1350.1987,513.1479 Z M1347.0527,508.6655 L1347.0527,512.0439 L1348.2065,512.0439 Q1349.2109,512.0439 1349.6467,511.6497 Q1350.0825,511.2554 1350.0825,510.3506 Q1350.0825,509.4458 1349.6509,509.0557 Q1349.2192,508.6655 1348.2065,508.6655 Z " fill="#000000"/><text fill="#000000" font-family="sans-serif" font-size="12" lengthAdjust="spacing" textLength="179" x="1363" y="517.5352">tosca.relationships.DependsOn</text><line style="stroke:#A80036;stroke-width:1.5;" x1="1335" x2="1544" y1="529" y2="529"/><line style="stroke:#A80036;stroke-width:1.5;" x1="1335" x2="1544" y1="537" y2="537"/><!--MD5=[8961be65b4d10f5813b5d4193358a40e]
class tosca_interfaces_node_lifecycle_Standard_IT--><rect codeLine="68" fill="#DDDDDD" filter="url(#f136dcg5zmuxsy)" height="48" id="tosca_interfaces_node_lifecycle_Standard_IT" style="stroke:#A80036;stroke-width:1.5;" width="260" x="1599.5" y="7"/><ellipse cx="1614.5" cy="23" fill="#008000" rx="11" ry="11" style="stroke:#A80036;stroke-width:1.0;"/><path d="M1610.4277,18.7651 L1610.4277,16.6069 L1617.8071,16.6069 L1617.8071,18.7651 L1615.3418,18.7651 L1615.3418,26.8418 L1617.8071,26.8418 L1617.8071,29 L1610.4277,29 L1610.4277,26.8418 L1612.8931,26.8418 L1612.8931,18.7651 Z " fill="#000000"/><text fill="#000000" font-family="sans-serif" font-size="12" lengthAdjust="spacing" textLength="228" x="1628.5" y="27.5352">tosca.interfaces.node.lifecycle.Standard</text><line style="stroke:#A80036;stroke-width:1.5;" x1="1600.5" x2="1858.5" y1="39" y2="39"/><line style="stroke:#A80036;stroke-width:1.5;" x1="1600.5" x2="1858.5" y1="47" y2="47"/><!--MD5=[36be2ed8dba25b6c8068095a5dbfc5a3]
class tosca_nodes_Root_NT--><rect codeLine="50" fill="#DDDDDD" filter="url(#f136dcg5zmuxsy)" height="48" id="tosca_nodes_Root_NT" style="stroke:#A80036;stroke-width:1.5;" width="131" x="1419" y="7"/><ellipse cx="1434" cy="23" fill="#008000" rx="11" ry="11" style="stroke:#A80036;stroke-width:1.0;"/><path d="M1429.9878,16.6069 L1432.6191,16.6069 L1436.0723,25.6133 L1436.0723,16.6069 L1438.2305,16.6069 L1438.2305,29 L1435.6157,29 L1432.146,19.9937 L1432.146,29 L1429.9878,29 Z " fill="#000000"/><text fill="#000000" font-family="sans-serif" font-size="12" lengthAdjust="spacing" textLength="99" x="1448" y="27.5352">tosca.nodes.Root</text><line style="stroke:#A80036;stroke-width:1.5;" x1="1420" x2="1549" y1="39" y2="39"/><line style="stroke:#A80036;stroke-width:1.5;" x1="1420" x2="1549" y1="47" y2="47"/><!--MD5=[b18a4d1c659070dddf50f4acb96c6780]
class kubetos_nodes_Certificate_NT--><rect codeLine="28" fill="#FEFECE" filter="url(#f136dcg5zmuxsy)" height="288.2363" id="kubetos_nodes_Certificate_NT" style="stroke:#A80036;stroke-width:1.5;" width="744" x="276.5" y="132"/><ellipse cx="570.75" cy="148" fill="#008000" rx="11" ry="11" style="stroke:#A80036;stroke-width:1.0;"/><path d="M566.7378,141.6069 L569.3691,141.6069 L572.8223,150.6133 L572.8223,141.6069 L574.9805,141.6069 L574.9805,154 L572.3657,154 L568.896,144.9937 L568.896,154 L566.7378,154 Z " fill="#000000"/><text fill="#000000" font-family="sans-serif" font-size="12" lengthAdjust="spacing" textLength="147" x="591.25" y="152.5352">kubetos.nodes.Certificate</text><line style="stroke:#A80036;stroke-width:1.5;" x1="277.5" x2="1019.5" y1="164" y2="164"/><ellipse cx="287.5" cy="191.9551" rx="3" ry="3" style="stroke:#038048;stroke-width:1.0;fill:none;"/><text fill="#000000" font-family="sans-serif" font-size="11" font-weight="bold" lengthAdjust="spacing" textLength="65" x="296.5" y="195.5898">cert : string</text><ellipse cx="287.5" cy="204.9102" rx="3" ry="3" style="stroke:#038048;stroke-width:1.0;fill:none;"/><text fill="#000000" font-family="sans-serif" font-size="11" font-weight="bold" lengthAdjust="spacing" textLength="63" x="296.5" y="208.5449">key : string</text><line style="stroke:#A80036;stroke-width:1.0;stroke-dasharray:1.0,2.0;" x1="277.5" x2="622.5" y1="178.4775" y2="178.4775"/><text fill="#000000" font-family="sans-serif" font-size="11" lengthAdjust="spacing" textLength="52" x="622.5" y="182.1348">attributes</text><line style="stroke:#A80036;stroke-width:1.0;stroke-dasharray:1.0,2.0;" x1="674.5" x2="1019.5" y1="178.4775" y2="178.4775"/><ellipse cx="287.5" cy="234.8203" rx="3" ry="3" style="stroke:#038048;stroke-width:1.0;fill:none;"/><text fill="#000000" font-family="sans-serif" font-size="11" font-weight="bold" lengthAdjust="spacing" textLength="129" x="296.5" y="238.4551">common_name : string</text><ellipse cx="287.5" cy="247.7754" rx="3" ry="3" style="stroke:#038048;stroke-width:1.0;fill:none;"/><text fill="#000000" font-family="sans-serif" font-size="11" font-weight="bold" lengthAdjust="spacing" textLength="114" x="296.5" y="251.4102">organisation : string</text><ellipse cx="287.5" cy="260.7305" rx="3" ry="3" style="stroke:#038048;stroke-width:1.0;fill:none;"/><text fill="#000000" font-family="sans-serif" font-size="11" font-weight="bold" lengthAdjust="spacing" textLength="165" x="296.5" y="264.3652">hostnames : list&lt;string&gt; = []</text><line style="stroke:#A80036;stroke-width:1.0;stroke-dasharray:1.0,2.0;" x1="277.5" x2="620.5" y1="221.3428" y2="221.3428"/><text fill="#000000" font-family="sans-serif" font-size="11" lengthAdjust="spacing" textLength="56" x="620.5" y="225">properties</text><line style="stroke:#A80036;stroke-width:1.0;stroke-dasharray:1.0,2.0;" x1="676.5" x2="1019.5" y1="221.3428" y2="221.3428"/><ellipse cx="287.5" cy="290.6406" rx="3" ry="3" style="stroke:#038048;stroke-width:1.0;fill:none;"/><text fill="#000000" font-family="sans-serif" font-size="11" lengthAdjust="spacing" textLength="21" x="296.5" y="294.2754">cert</text><text fill="#000000" font-family="sans-serif" font-size="11" lengthAdjust="spacing" textLength="222" x="296.5" y="307.2305">type : kubetos.capabilities.Certificate[1..*]</text><line style="stroke:#A80036;stroke-width:1.0;stroke-dasharray:1.0,2.0;" x1="277.5" x2="618.5" y1="277.1631" y2="277.1631"/><text fill="#000000" font-family="sans-serif" font-size="11" lengthAdjust="spacing" textLength="60" x="618.5" y="280.8203">capabilities</text><line style="stroke:#A80036;stroke-width:1.0;stroke-dasharray:1.0,2.0;" x1="678.5" x2="1019.5" y1="277.1631" y2="277.1631"/><ellipse cx="287.5" cy="333.5059" rx="3" ry="3" style="stroke:#038048;stroke-width:1.0;fill:none;"/><text fill="#000000" font-family="sans-serif" font-size="11" font-weight="bold" lengthAdjust="spacing" textLength="12" x="296.5" y="337.1406">ca</text><text fill="#000000" font-family="sans-serif" font-size="11" lengthAdjust="spacing" textLength="290" x="296.5" y="350.0957">capability : kubetos.capabilities.CertificateAuthority[1]</text><text fill="#000000" font-family="sans-serif" font-size="11" lengthAdjust="spacing" textLength="241" x="296.5" y="363.0508">relationship : tosca.relationships.DependsOn</text><line style="stroke:#A80036;stroke-width:1.0;stroke-dasharray:1.0,2.0;" x1="277.5" x2="612.5" y1="320.0283" y2="320.0283"/><text fill="#000000" font-family="sans-serif" font-size="11" lengthAdjust="spacing" textLength="72" x="612.5" y="323.6855">requirements</text><line style="stroke:#A80036;stroke-width:1.0;stroke-dasharray:1.0,2.0;" x1="684.5" x2="1019.5" y1="320.0283" y2="320.0283"/><line style="stroke:#A80036;stroke-width:1.0;" x1="277.5" x2="1019.5" y1="369.3711" y2="369.3711"/><ellipse cx="287.5" cy="397.3262" fill="#84BE84" rx="3" ry="3" style="stroke:#038048;stroke-width:1.0;"/><text fill="#000000" font-family="sans-serif" font-size="11" lengthAdjust="spacing" textLength="41" x="296.5" y="400.9609">create()</text><text fill="#000000" font-family="sans-serif" font-size="11" lengthAdjust="spacing" textLength="718" x="296.5" y="413.916">implementation: {'primary': './ansible/cert--create.yaml', 'dependencies': ['./ansible/files/csr.json.j2', './ansible/files/ca-config.json']}</text><line style="stroke:#A80036;stroke-width:1.0;stroke-dasharray:1.0,2.0;" x1="277.5" x2="599.5" y1="383.8486" y2="383.8486"/><text fill="#000000" font-family="sans-serif" font-size="11" lengthAdjust="spacing" textLength="98" x="599.5" y="387.5059">interface Standard</text><line style="stroke:#A80036;stroke-width:1.0;stroke-dasharray:1.0,2.0;" x1="697.5" x2="1019.5" y1="383.8486" y2="383.8486"/><!--MD5=[361b3b55bbaf80eb42645e04c3439f09]
class kubetos_nodes_CertificateAuthority_NT--><rect codeLine="51" fill="#FEFECE" filter="url(#f136dcg5zmuxsy)" height="245.3711" id="kubetos_nodes_CertificateAuthority_NT" style="stroke:#A80036;stroke-width:1.5;" width="564" x="1447.5" y="153.5"/><ellipse cx="1626.25" cy="169.5" fill="#008000" rx="11" ry="11" style="stroke:#A80036;stroke-width:1.0;"/><path d="M1622.2378,163.1069 L1624.8691,163.1069 L1628.3223,172.1133 L1628.3223,163.1069 L1630.4805,163.1069 L1630.4805,175.5 L1627.8657,175.5 L1624.396,166.4937 L1624.396,175.5 L1622.2378,175.5 Z " fill="#000000"/><text fill="#000000" font-family="sans-serif" font-size="12" lengthAdjust="spacing" textLength="198" x="1646.75" y="174.0352">kubetos.nodes.CertificateAuthority</text><line style="stroke:#A80036;stroke-width:1.5;" x1="1448.5" x2="2010.5" y1="185.5" y2="185.5"/><ellipse cx="1458.5" cy="213.4551" rx="3" ry="3" style="stroke:#038048;stroke-width:1.0;fill:none;"/><text fill="#000000" font-family="sans-serif" font-size="11" font-weight="bold" lengthAdjust="spacing" textLength="65" x="1467.5" y="217.0898">cert : string</text><ellipse cx="1458.5" cy="226.4102" rx="3" ry="3" style="stroke:#038048;stroke-width:1.0;fill:none;"/><text fill="#000000" font-family="sans-serif" font-size="11" font-weight="bold" lengthAdjust="spacing" textLength="63" x="1467.5" y="230.0449">key : string</text><line style="stroke:#A80036;stroke-width:1.0;stroke-dasharray:1.0,2.0;" x1="1448.5" x2="1703.5" y1="199.9775" y2="199.9775"/><text fill="#000000" font-family="sans-serif" font-size="11" lengthAdjust="spacing" textLength="52" x="1703.5" y="203.6348">attributes</text><line style="stroke:#A80036;stroke-width:1.0;stroke-dasharray:1.0,2.0;" x1="1755.5" x2="2010.5" y1="199.9775" y2="199.9775"/><ellipse cx="1458.5" cy="256.3203" rx="3" ry="3" style="stroke:#038048;stroke-width:1.0;fill:none;"/><text fill="#000000" font-family="sans-serif" font-size="11" font-weight="bold" lengthAdjust="spacing" textLength="129" x="1467.5" y="259.9551">common_name : string</text><ellipse cx="1458.5" cy="269.2754" rx="3" ry="3" style="stroke:#038048;stroke-width:1.0;fill:none;"/><text fill="#000000" font-family="sans-serif" font-size="11" font-weight="bold" lengthAdjust="spacing" textLength="114" x="1467.5" y="272.9102">organisation : string</text><line style="stroke:#A80036;stroke-width:1.0;stroke-dasharray:1.0,2.0;" x1="1448.5" x2="1701.5" y1="242.8428" y2="242.8428"/><text fill="#000000" font-family="sans-serif" font-size="11" lengthAdjust="spacing" textLength="56" x="1701.5" y="246.5">properties</text><line style="stroke:#A80036;stroke-width:1.0;stroke-dasharray:1.0,2.0;" x1="1757.5" x2="2010.5" y1="242.8428" y2="242.8428"/><ellipse cx="1458.5" cy="299.1855" rx="3" ry="3" style="stroke:#038048;stroke-width:1.0;fill:none;"/><text fill="#000000" font-family="sans-serif" font-size="11" lengthAdjust="spacing" textLength="12" x="1467.5" y="302.8203">ca</text><text fill="#000000" font-family="sans-serif" font-size="11" lengthAdjust="spacing" textLength="273" x="1467.5" y="315.7754">type : kubetos.capabilities.CertificateAuthority[1..*]</text><ellipse cx="1458.5" cy="325.0957" rx="3" ry="3" style="stroke:#038048;stroke-width:1.0;fill:none;"/><text fill="#000000" font-family="sans-serif" font-size="11" lengthAdjust="spacing" textLength="21" x="1467.5" y="328.7305">cert</text><text fill="#000000" font-family="sans-serif" font-size="11" lengthAdjust="spacing" textLength="222" x="1467.5" y="341.6855">type : kubetos.capabilities.Certificate[1..*]</text><line style="stroke:#A80036;stroke-width:1.0;stroke-dasharray:1.0,2.0;" x1="1448.5" x2="1699.5" y1="285.708" y2="285.708"/><text fill="#000000" font-family="sans-serif" font-size="11" lengthAdjust="spacing" textLength="60" x="1699.5" y="289.3652">capabilities</text><line style="stroke:#A80036;stroke-width:1.0;stroke-dasharray:1.0,2.0;" x1="1759.5" x2="2010.5" y1="285.708" y2="285.708"/><line style="stroke:#A80036;stroke-width:1.0;" x1="1448.5" x2="2010.5" y1="348.0059" y2="348.0059"/><ellipse cx="1458.5" cy="375.9609" fill="#84BE84" rx="3" ry="3" style="stroke:#038048;stroke-width:1.0;"/><text fill="#000000" font-family="sans-serif" font-size="11" lengthAdjust="spacing" textLength="41" x="1467.5" y="379.5957">create()</text><text fill="#000000" font-family="sans-serif" font-size="11" lengthAdjust="spacing" textLength="538" x="1467.5" y="392.5508">implementation: {'primary': './ansible/ca--create.yaml', 'dependencies': ['./ansible/files/csr.json.j2']}</text><line style="stroke:#A80036;stroke-width:1.0;stroke-dasharray:1.0,2.0;" x1="1448.5" x2="1680.5" y1="362.4834" y2="362.4834"/><text fill="#000000" font-family="sans-serif" font-size="11" lengthAdjust="spacing" textLength="98" x="1680.5" y="366.1406">interface Standard</text><line style="stroke:#A80036;stroke-width:1.0;stroke-dasharray:1.0,2.0;" x1="1778.5" x2="2010.5" y1="362.4834" y2="362.4834"/><!--MD5=[2af93223bf421d14c381a63b76ce5ebc]
reverse link tosca_capabilities_Root_CT to kubetos_capabilities_Certificate_CT--><path codeLine="69" d="M865.6755,37.6356 C696.3843,50.052 363.2339,80.319 258.5,132 C201.4735,160.1398 152.6809,218.7658 128.242,251.8788 " fill="none" id="tosca_capabilities_Root_CT-backto-kubetos_capabilities_Certificate_CT" style="stroke:#A80036;stroke-width:1.0;"/><polygon fill="none" points="865.2775,30.6463,885.7285,36.1923,866.2826,44.6101,865.2775,30.6463" style="stroke:#A80036;stroke-width:1.0;"/><!--MD5=[3ccdc4f4cf49ddd665092014531139f9]
reverse link tosca_capabilities_Root_CT to kubetos_capabilities_CertificateAuthority_CT--><path codeLine="70" d="M1011.9027,68.0789 C1074.0775,118.855 1183.9926,208.619 1236.692,251.6568 " fill="none" id="tosca_capabilities_Root_CT-backto-kubetos_capabilities_CertificateAuthority_CT" style="stroke:#A80036;stroke-width:1.0;"/><polygon fill="none" points="1007.1491,73.2345,996.0862,55.162,1016.0046,62.391,1007.1491,73.2345" style="stroke:#A80036;stroke-width:1.0;"/><!--MD5=[296b690a35ccc1bd69e1896e40f80257]
reverse link tosca_nodes_SoftwareComponent_NT to kubetos_nodes_CertificateMirror_NT--><path codeLine="71" d="M2232.5,75.5422 C2232.5,99.3591 2232.5,129.9025 2232.5,159.9293 " fill="none" id="tosca_nodes_SoftwareComponent_NT-backto-kubetos_nodes_CertificateMirror_NT" style="stroke:#A80036;stroke-width:1.0;"/><polygon fill="none" points="2225.5001,75.3873,2232.5,55.3872,2239.5001,75.3872,2225.5001,75.3873" style="stroke:#A80036;stroke-width:1.0;"/><!--MD5=[d8d6242a4d5e90543924c021fa2e5715]
link kubetos_capabilities_Certificate_CT to kubetos_nodes_CertificateMirror_NT--><path codeLine="72" d="M127.1788,251.7195 C150.8541,217.5455 199.3113,156.6781 258.5,132 C381.7312,80.6201 1326.5016,113.0044 1460,115 C1712.7514,118.7782 1788.7345,51.9374 2028.5,132 C2045.1269,137.5521 2061.5908,144.9428 2077.5284,153.4529 " fill="none" id="kubetos_capabilities_Certificate_CT-to-kubetos_nodes_CertificateMirror_NT" style="stroke:#A80036;stroke-width:1.0;"/><polygon fill="#A80036" points="2089.0353,159.8371,2085.7293,153.4285,2078.5422,154.0153,2081.8481,160.4239,2089.0353,159.8371" style="stroke:#A80036;stroke-width:1.0;"/><text fill="#000000" font-family="sans-serif" font-size="13" lengthAdjust="spacing" textLength="63" x="1396" y="98.5684">certificate</text><text fill="#000000" font-family="sans-serif" font-size="13" lengthAdjust="spacing" textLength="22" x="106.3777" y="241.1839">1..*</text><!--MD5=[faebdc921577b05e0a37548ebb064103]
reverse link kubetos_nodes_CertificateMirror_NT to kubetos_capabilities_Certificate_CT--><path codeLine="73" d="M2077.5284,153.4529 C2061.5908,144.9428 2045.1269,137.5521 2028.5,132 C1788.7345,51.9374 1712.7514,118.7782 1460,115 C1326.5016,113.0044 381.7312,80.6201 258.5,132 C199.3113,156.6781 150.8541,217.5455 127.1788,251.7195 " fill="none" id="kubetos_nodes_CertificateMirror_NT-backto-kubetos_capabilities_Certificate_CT" style="stroke:#A80036;stroke-width:1.0;"/><polygon fill="#A80036" points="2089.0353,159.8371,2085.7293,153.4285,2078.5422,154.0153,2081.8481,160.4239,2089.0353,159.8371" style="stroke:#A80036;stroke-width:1.0;"/><text fill="#000000" font-family="sans-serif" font-size="13" lengthAdjust="spacing" textLength="89" x="1383" y="98.5684">cert.capability</text><text fill="#000000" font-family="sans-serif" font-size="13" lengthAdjust="spacing" textLength="8" x="122.1715" y="241.1839">1</text><!--MD5=[4bc019850de14b8c4d5954525e909e40]
link kubetos_nodes_CertificateMirror_NT to tosca_relationships_DependsOn_RT--><path codeLine="74" d="M2083.3822,392.1625 C2065.5186,402.7405 2047.0273,412.3356 2028.5,420 C1943.9387,454.9814 1696.2314,489.7118 1550.3783,507.9262 " fill="none" id="kubetos_nodes_CertificateMirror_NT-to-tosca_relationships_DependsOn_RT" style="stroke:#A80036;stroke-width:1.0;stroke-dasharray:7.0,7.0;"/><polygon fill="#A80036" points="1545.2332,508.5671,1554.6587,511.4238,1550.1948,507.949,1553.6697,503.4851,1545.2332,508.5671" style="stroke:#A80036;stroke-width:1.0;"/><text fill="#000000" font-family="sans-serif" font-size="13" lengthAdjust="spacing" textLength="103" x="1907.5" y="463.5684">cert.relationship</text><!--MD5=[90760d04db48fc22c59193f9b5108e7d]
reverse link tosca_interfaces_node_lifecycle_Standard_IT to kubetos_nodes_CertificateMirror_NT--><path codeLine="75" d="M1842.5463,60.7591 C1899.857,77.9251 1969.6042,102.0673 2028.5,132 C2044.8282,140.2985 2061.3233,149.7801 2077.4855,159.8282 " fill="none" id="tosca_interfaces_node_lifecycle_Standard_IT-backto-kubetos_nodes_CertificateMirror_NT" style="stroke:#A80036;stroke-width:1.0;stroke-dasharray:7.0,7.0;"/><polygon fill="none" points="1840.4488,67.4389,1823.2269,55.0936,1844.3886,54.0047,1840.4488,67.4389" style="stroke:#A80036;stroke-width:1.0;"/><text fill="#000000" font-family="sans-serif" font-size="13" lengthAdjust="spacing" textLength="55" x="1959.5" y="98.5684">Standard</text><!--MD5=[dc0f895d328cf9791a535976395a81b6]
reverse link tosca_nodes_Root_NT to kubetos_nodes_Certificate_NT--><path codeLine="76" d="M1399.0108,35.0336 C1270.8251,41.8739 1035.3374,57.7306 955.5,85 C920.6011,96.9201 885.5516,113.4284 852.2586,131.7912 " fill="none" id="tosca_nodes_Root_NT-backto-kubetos_nodes_Certificate_NT" style="stroke:#A80036;stroke-width:1.0;"/><polygon fill="none" points="1398.6625,28.0424,1418.9992,33.9938,1399.3899,42.0235,1398.6625,28.0424" style="stroke:#A80036;stroke-width:1.0;"/><!--MD5=[d5ffb787f6c49fa43543faf0450d3f87]
link kubetos_capabilities_Certificate_CT to kubetos_nodes_Certificate_NT--><path codeLine="77" d="M216.3138,276 C230.9451,276 246.625,276 263.0289,276 " fill="none" id="kubetos_capabilities_Certificate_CT-to-kubetos_nodes_Certificate_NT" style="stroke:#A80036;stroke-width:1.0;"/><polygon fill="#A80036" points="276.3336,276,270.3336,272,264.3336,276,270.3336,280,276.3336,276" style="stroke:#A80036;stroke-width:1.0;"/><text fill="#000000" font-family="sans-serif" font-size="13" lengthAdjust="spacing" textLength="24" x="234.25" y="269.5684">cert</text><text fill="#000000" font-family="sans-serif" font-size="13" lengthAdjust="spacing" textLength="22" x="224.095" y="289.0827">1..*</text><!--MD5=[52ddf0680d1ca4fcf928df12c53763bb]
reverse link kubetos_nodes_Certificate_NT to kubetos_capabilities_CertificateAuthority_CT--><path codeLine="78" d="M1034.3439,276 C1070.6102,276 1105.3685,276 1136.4429,276 " fill="none" id="kubetos_nodes_Certificate_NT-backto-kubetos_capabilities_CertificateAuthority_CT" style="stroke:#A80036;stroke-width:1.0;"/><polygon fill="#A80036" points="1020.9184,276,1026.9184,280,1032.9184,276,1026.9184,272,1020.9184,276" style="stroke:#A80036;stroke-width:1.0;"/><text fill="#000000" font-family="sans-serif" font-size="13" lengthAdjust="spacing" textLength="79" x="1039" y="269.5684">ca.capability</text><text fill="#000000" font-family="sans-serif" font-size="13" lengthAdjust="spacing" textLength="8" x="1120.6927" y="273.1437">1</text><!--MD5=[9edff2773f3ab2866730ae2da234d76f]
link kubetos_nodes_Certificate_NT to tosca_relationships_DependsOn_RT--><path codeLine="79" d="M1020.5487,391.2363 C1146.7173,430.3151 1276.0796,470.3831 1357.0344,495.4576 " fill="none" id="kubetos_nodes_Certificate_NT-to-tosca_relationships_DependsOn_RT" style="stroke:#A80036;stroke-width:1.0;stroke-dasharray:7.0,7.0;"/><polygon fill="#A80036" points="1361.8143,496.9381,1354.4008,490.4542,1357.0382,495.4587,1352.0337,498.096,1361.8143,496.9381" style="stroke:#A80036;stroke-width:1.0;"/><text fill="#000000" font-family="sans-serif" font-size="13" lengthAdjust="spacing" textLength="93" x="1249.5" y="463.5684">ca.relationship</text><!--MD5=[b55d3a97ce801ebc50573769911404d2]
reverse link tosca_interfaces_node_lifecycle_Standard_IT to kubetos_nodes_Certificate_NT--><path codeLine="80" d="M1635.561,60.8368 C1586.0462,75.4443 1524.0119,91.997 1467.5,102 C1314.1999,129.1353 1271.3364,102.3646 1118.5,132 C1086.4539,138.2138 1053.4915,145.7855 1020.6021,154.1706 " fill="none" id="tosca_interfaces_node_lifecycle_Standard_IT-backto-kubetos_nodes_Certificate_NT" style="stroke:#A80036;stroke-width:1.0;stroke-dasharray:7.0,7.0;"/><polygon fill="none" points="1633.753,54.0711,1654.9206,55.0374,1637.7706,67.4823,1633.753,54.0711" style="stroke:#A80036;stroke-width:1.0;"/><text fill="#000000" font-family="sans-serif" font-size="13" lengthAdjust="spacing" textLength="55" x="1541.5" y="98.5684">Standard</text><!--MD5=[9225abcedd38223d529273b251b8d908]
reverse link tosca_nodes_Root_NT to kubetos_nodes_CertificateAuthority_NT--><path codeLine="81" d="M1523.0976,69.5976 C1545.9781,92.4781 1576.3753,122.8753 1606.7897,153.2897 " fill="none" id="tosca_nodes_Root_NT-backto-kubetos_nodes_CertificateAuthority_NT" style="stroke:#A80036;stroke-width:1.0;"/><polygon fill="none" points="1518.0796,74.4792,1508.8872,55.3872,1527.9792,64.5796,1518.0796,74.4792" style="stroke:#A80036;stroke-width:1.0;"/><!--MD5=[dae73bd5b34c48addcb21a3d18a93400]
link kubetos_capabilities_CertificateAuthority_CT to kubetos_nodes_CertificateAuthority_NT--><path codeLine="82" d="M1396.7034,276 C1408.7134,276 1421.1764,276 1433.9207,276 " fill="none" id="kubetos_capabilities_CertificateAuthority_CT-to-kubetos_nodes_CertificateAuthority_NT" style="stroke:#A80036;stroke-width:1.0;"/><polygon fill="#A80036" points="1447.2962,276,1441.2962,272,1435.2962,276,1441.2962,280,1447.2962,276" style="stroke:#A80036;stroke-width:1.0;"/><text fill="#000000" font-family="sans-serif" font-size="13" lengthAdjust="spacing" textLength="14" x="1415" y="269.5684">ca</text><text fill="#000000" font-family="sans-serif" font-size="13" lengthAdjust="spacing" textLength="22" x="1404.4255" y="288.987">1..*</text><!--MD5=[8c07558283e2c1202f26ae4b632cdf6d]
link kubetos_capabilities_Certificate_CT to kubetos_nodes_CertificateAuthority_NT--><path codeLine="83" d="M127.2093,251.792 C150.922,217.7072 199.4248,156.9487 258.5,132 C376.7229,82.072 1288.659,102.2649 1413.5,132 C1432.8356,136.6054 1452.4319,142.4129 1471.9011,149.0365 " fill="none" id="kubetos_capabilities_Certificate_CT-to-kubetos_nodes_CertificateAuthority_NT" style="stroke:#A80036;stroke-width:1.0;"/><polygon fill="#A80036" points="1484.3366,153.3819,1479.992,147.6265,1473.0084,149.4233,1477.3529,155.1787,1484.3366,153.3819" style="stroke:#A80036;stroke-width:1.0;"/><text fill="#000000" font-family="sans-serif" font-size="13" lengthAdjust="spacing" textLength="24" x="964.5" y="98.5684">cert</text><text fill="#000000" font-family="sans-serif" font-size="13" lengthAdjust="spacing" textLength="22" x="134.0536" y="241.275">1..*</text><!--MD5=[dfb3fa7f80f9a6f2daf7fc3a6dfdbb29]
reverse link tosca_interfaces_node_lifecycle_Standard_IT to kubetos_nodes_CertificateAuthority_NT--><path codeLine="84" d="M1729.5,75.6718 C1729.5,97.7141 1729.5,125.4947 1729.5,153.2897 " fill="none" id="tosca_interfaces_node_lifecycle_Standard_IT-backto-kubetos_nodes_CertificateAuthority_NT" style="stroke:#A80036;stroke-width:1.0;stroke-dasharray:7.0,7.0;"/><polygon fill="none" points="1722.5001,75.3873,1729.5,55.3872,1736.5001,75.3872,1722.5001,75.3873" style="stroke:#A80036;stroke-width:1.0;"/><text fill="#000000" font-family="sans-serif" font-size="13" lengthAdjust="spacing" textLength="55" x="1730.5" y="98.5684">Standard</text><!--MD5=[58f7952ad6db4e41254f1836edc00efc]
@startuml
set namespaceSeparator none
class "tosca.capabilities.Root" as tosca_capabilities_Root_CT << (C,green) >> #DDDDDD
class "kubetos.capabilities.Certificate" as kubetos_capabilities_Certificate_CT << (C,green) >> {
}
class "tosca.capabilities.Root" as tosca_capabilities_Root_CT << (C,green) >> #DDDDDD
class "kubetos.capabilities.CertificateAuthority" as kubetos_capabilities_CertificateAuthority_CT << (C,green) >> {
}
class "tosca.nodes.SoftwareComponent" as tosca_nodes_SoftwareComponent_NT << (N,green) >> #DDDDDD
class "kubetos.nodes.CertificateMirror" as kubetos_nodes_CertificateMirror_NT << (N,green) >> {
.. properties ..
+<b>cert_path : string
+<b>key_path : string
.. capabilities ..
+certificate
 type : kubetos.capabilities.Certificate[1..*]
.. requirements ..
+<b>cert
 capability : kubetos.capabilities.Certificate[1]
 relationship : tosca.relationships.DependsOn
- -
.. interface Standard ..
+create()
 implementation: {'primary': './ansible/cert-mirror- -create.yaml'}
}
class "tosca.relationships.DependsOn" as tosca_relationships_DependsOn_RT << (R,green) >> #DDDDDD
class "tosca.interfaces.node.lifecycle.Standard" as tosca_interfaces_node_lifecycle_Standard_IT << (I,green) >> #DDDDDD
class "tosca.nodes.Root" as tosca_nodes_Root_NT << (N,green) >> #DDDDDD
class "kubetos.nodes.Certificate" as kubetos_nodes_Certificate_NT << (N,green) >> {
.. attributes ..
+<b>cert : string
+<b>key : string
.. properties ..
+<b>common_name : string
+<b>organisation : string
+<b>hostnames : list<string> = []
.. capabilities ..
+cert
 type : kubetos.capabilities.Certificate[1..*]
.. requirements ..
+<b>ca
 capability : kubetos.capabilities.CertificateAuthority[1]
 relationship : tosca.relationships.DependsOn
- -
.. interface Standard ..
+create()
 implementation: {'primary': './ansible/cert- -create.yaml', 'dependencies': ['./ansible/files/csr.json.j2', './ansible/files/ca-config.json']}
}
class "tosca.relationships.DependsOn" as tosca_relationships_DependsOn_RT << (R,green) >> #DDDDDD
class "tosca.interfaces.node.lifecycle.Standard" as tosca_interfaces_node_lifecycle_Standard_IT << (I,green) >> #DDDDDD
class "tosca.nodes.Root" as tosca_nodes_Root_NT << (N,green) >> #DDDDDD
class "kubetos.nodes.CertificateAuthority" as kubetos_nodes_CertificateAuthority_NT << (N,green) >> {
.. attributes ..
+<b>cert : string
+<b>key : string
.. properties ..
+<b>common_name : string
+<b>organisation : string
.. capabilities ..
+ca
 type : kubetos.capabilities.CertificateAuthority[1..*]
+cert
 type : kubetos.capabilities.Certificate[1..*]
- -
.. interface Standard ..
+create()
 implementation: {'primary': './ansible/ca- -create.yaml', 'dependencies': ['./ansible/files/csr.json.j2']}
}
class "tosca.interfaces.node.lifecycle.Standard" as tosca_interfaces_node_lifecycle_Standard_IT << (I,green) >> #DDDDDD
tosca_capabilities_Root_CT <|- - kubetos_capabilities_Certificate_CT
tosca_capabilities_Root_CT <|- - kubetos_capabilities_CertificateAuthority_CT
tosca_nodes_SoftwareComponent_NT <|- - kubetos_nodes_CertificateMirror_NT
kubetos_capabilities_Certificate_CT "1..*" -* kubetos_nodes_CertificateMirror_NT : certificate
kubetos_nodes_CertificateMirror_NT *- "1" kubetos_capabilities_Certificate_CT : cert.capability
kubetos_nodes_CertificateMirror_NT ..> tosca_relationships_DependsOn_RT : cert.relationship
tosca_interfaces_node_lifecycle_Standard_IT <|.. kubetos_nodes_CertificateMirror_NT : Standard
tosca_nodes_Root_NT <|- - kubetos_nodes_Certificate_NT
kubetos_capabilities_Certificate_CT "1..*" -* kubetos_nodes_Certificate_NT : cert
kubetos_nodes_Certificate_NT *- "1" kubetos_capabilities_CertificateAuthority_CT : ca.capability
kubetos_nodes_Certificate_NT ..> tosca_relationships_DependsOn_RT : ca.relationship
tosca_interfaces_node_lifecycle_Standard_IT <|.. kubetos_nodes_Certificate_NT : Standard
tosca_nodes_Root_NT <|- - kubetos_nodes_CertificateAuthority_NT
kubetos_capabilities_CertificateAuthority_CT "1..*" -* kubetos_nodes_CertificateAuthority_NT : ca
kubetos_capabilities_Certificate_CT "1..*" -* kubetos_nodes_CertificateAuthority_NT : cert
tosca_interfaces_node_lifecycle_Standard_IT <|.. kubetos_nodes_CertificateAuthority_NT : Standard
@enduml

PlantUML version 1.2021.13(Mon Nov 01 12:38:45 CET 2021)
(GPL source distribution)
Java Runtime: Java(TM) SE Runtime Environment
JVM: Java HotSpot(TM) 64-Bit Server VM
Default Encoding: UTF-8
Language: fr
Country: FR
--></g></svg>