<?xml version="1.0" encoding="UTF-8" standalone="no"?><svg xmlns="http://www.w3.org/2000/svg" xmlns:xlink="http://www.w3.org/1999/xlink" contentScriptType="application/ecmascript" contentStyleType="text/css" height="744px" preserveAspectRatio="none" style="width:2050px;height:744px;background:#FFFFFF;" version="1.1" viewBox="0 0 2050 744" width="2050px" zoomAndPan="magnify"><defs><filter height="300%" id="fx7mfh2l7xzlj" width="300%" x="-1" y="-1"><feGaussianBlur result="blurOut" stdDeviation="2.0"/><feColorMatrix in="blurOut" result="blurOut2" type="matrix" values="0 0 0 0 0 0 0 0 0 0 0 0 0 0 0 0 0 0 .4 0"/><feOffset dx="4.0" dy="4.0" in="blurOut2" result="blurOut3"/><feBlend in="SourceGraphic" in2="blurOut3" mode="normal"/></filter></defs><g><!--MD5=[bd814c571e11a2214592d85e7995d8fb]
class tosca_capabilities_Endpoint_CT--><rect codeLine="7" fill="#DDDDDD" filter="url(#fx7mfh2l7xzlj)" height="48" id="tosca_capabilities_Endpoint_CT" style="stroke:#A80036;stroke-width:1.5;" width="186" x="203" y="7"/><ellipse cx="218" cy="23" fill="#008000" rx="11" ry="11" style="stroke:#A80036;stroke-width:1.0;"/><path d="M220.9731,28.6431 Q220.3921,28.9419 219.7529,29.0913 Q219.1138,29.2407 218.4082,29.2407 Q215.9014,29.2407 214.5815,27.5889 Q213.2617,25.937 213.2617,22.8159 Q213.2617,19.6865 214.5815,18.0347 Q215.9014,16.3828 218.4082,16.3828 Q219.1138,16.3828 219.7612,16.5322 Q220.4087,16.6816 220.9731,16.9805 L220.9731,19.7031 Q220.3423,19.1221 219.7488,18.8523 Q219.1553,18.5825 218.5244,18.5825 Q217.1797,18.5825 216.4949,19.6492 Q215.8101,20.7158 215.8101,22.8159 Q215.8101,24.9077 216.4949,25.9744 Q217.1797,27.041 218.5244,27.041 Q219.1553,27.041 219.7488,26.7712 Q220.3423,26.5015 220.9731,25.9204 Z " fill="#000000"/><text fill="#000000" font-family="sans-serif" font-size="12" lengthAdjust="spacing" textLength="154" x="232" y="27.5352">tosca.capabilities.Endpoint</text><line style="stroke:#A80036;stroke-width:1.5;" x1="204" x2="388" y1="39" y2="39"/><line style="stroke:#A80036;stroke-width:1.5;" x1="204" x2="388" y1="47" y2="47"/><!--MD5=[d5fdd52e75fa2c4773fbee8c7c46f6a7]
class kubetos_capabilities_Etcd_Endpoint_Peer_CT--><rect codeLine="3" fill="#FEFECE" filter="url(#fx7mfh2l7xzlj)" height="69.9102" id="kubetos_capabilities_Etcd_Endpoint_Peer_CT" style="stroke:#A80036;stroke-width:1.5;" width="261" x="316.5" y="312.5"/><ellipse cx="331.5" cy="328.5" fill="#008000" rx="11" ry="11" style="stroke:#A80036;stroke-width:1.0;"/><path d="M334.4731,334.1431 Q333.8921,334.4419 333.2529,334.5913 Q332.6138,334.7407 331.9082,334.7407 Q329.4014,334.7407 328.0815,333.0889 Q326.7617,331.437 326.7617,328.3159 Q326.7617,325.1865 328.0815,323.5347 Q329.4014,321.8828 331.9082,321.8828 Q332.6138,321.8828 333.2612,322.0322 Q333.9087,322.1816 334.4731,322.4805 L334.4731,325.2031 Q333.8423,324.6221 333.2488,324.3523 Q332.6553,324.0825 332.0244,324.0825 Q330.6797,324.0825 329.9949,325.1492 Q329.3101,326.2158 329.3101,328.3159 Q329.3101,330.4077 329.9949,331.4744 Q330.6797,332.541 332.0244,332.541 Q332.6553,332.541 333.2488,332.2712 Q333.8423,332.0015 334.4731,331.4204 Z " fill="#000000"/><text fill="#000000" font-family="sans-serif" font-size="12" lengthAdjust="spacing" textLength="229" x="345.5" y="333.0352">kubetos.capabilities.Etcd.Endpoint.Peer</text><line style="stroke:#A80036;stroke-width:1.5;" x1="317.5" x2="576.5" y1="344.5" y2="344.5"/><ellipse cx="327.5" cy="372.4551" rx="3" ry="3" style="stroke:#038048;stroke-width:1.0;fill:none;"/><text fill="#000000" font-family="sans-serif" font-size="11" lengthAdjust="spacing" textLength="113" x="336.5" y="376.0898">port : integer = 2380</text><line style="stroke:#A80036;stroke-width:1.0;stroke-dasharray:1.0,2.0;" x1="317.5" x2="419" y1="358.9775" y2="358.9775"/><text fill="#000000" font-family="sans-serif" font-size="11" lengthAdjust="spacing" textLength="56" x="419" y="362.6348">properties</text><line style="stroke:#A80036;stroke-width:1.0;stroke-dasharray:1.0,2.0;" x1="475" x2="576.5" y1="358.9775" y2="358.9775"/><!--MD5=[341a332e116e785475a12ff5b9875acc]
class kubetos_capabilities_Etcd_Endpoint_Access_CT--><rect codeLine="8" fill="#FEFECE" filter="url(#fx7mfh2l7xzlj)" height="82.8652" id="kubetos_capabilities_Etcd_Endpoint_Access_CT" style="stroke:#A80036;stroke-width:1.5;" width="274" x="7" y="306"/><ellipse cx="22" cy="322" fill="#008000" rx="11" ry="11" style="stroke:#A80036;stroke-width:1.0;"/><path d="M24.9731,327.6431 Q24.3921,327.9419 23.7529,328.0913 Q23.1138,328.2407 22.4082,328.2407 Q19.9014,328.2407 18.5815,326.5889 Q17.2617,324.937 17.2617,321.8159 Q17.2617,318.6865 18.5815,317.0347 Q19.9014,315.3828 22.4082,315.3828 Q23.1138,315.3828 23.7612,315.5322 Q24.4087,315.6816 24.9731,315.9805 L24.9731,318.7031 Q24.3423,318.1221 23.7488,317.8523 Q23.1553,317.5825 22.5244,317.5825 Q21.1797,317.5825 20.4949,318.6492 Q19.8101,319.7158 19.8101,321.8159 Q19.8101,323.9077 20.4949,324.9744 Q21.1797,326.041 22.5244,326.041 Q23.1553,326.041 23.7488,325.7712 Q24.3423,325.5015 24.9731,324.9204 Z " fill="#000000"/><text fill="#000000" font-family="sans-serif" font-size="12" lengthAdjust="spacing" textLength="242" x="36" y="326.5352">kubetos.capabilities.Etcd.Endpoint.Access</text><line style="stroke:#A80036;stroke-width:1.5;" x1="8" x2="280" y1="338" y2="338"/><ellipse cx="18" cy="365.9551" rx="3" ry="3" style="stroke:#038048;stroke-width:1.0;fill:none;"/><text fill="#000000" font-family="sans-serif" font-size="11" lengthAdjust="spacing" textLength="113" x="27" y="369.5898">port : integer = 2379</text><ellipse cx="18" cy="378.9102" rx="3" ry="3" style="stroke:#038048;stroke-width:1.0;fill:none;"/><text fill="#000000" font-family="sans-serif" font-size="11" font-weight="bold" lengthAdjust="spacing" textLength="146" x="27" y="382.5449">api_version : string = 'v2'</text><line style="stroke:#A80036;stroke-width:1.0;stroke-dasharray:1.0,2.0;" x1="8" x2="116" y1="352.4775" y2="352.4775"/><text fill="#000000" font-family="sans-serif" font-size="11" lengthAdjust="spacing" textLength="56" x="116" y="356.1348">properties</text><line style="stroke:#A80036;stroke-width:1.0;stroke-dasharray:1.0,2.0;" x1="172" x2="280" y1="352.4775" y2="352.4775"/><!--MD5=[73ef529cb74862cd16c9ea7608a24b08]
class tosca_relationships_ConnectsTo_RT--><rect codeLine="13" fill="#DDDDDD" filter="url(#fx7mfh2l7xzlj)" height="48" id="tosca_relationships_ConnectsTo_RT" style="stroke:#A80036;stroke-width:1.5;" width="210" x="613" y="323.5"/><ellipse cx="628" cy="339.5" fill="#008000" rx="11" ry="11" style="stroke:#A80036;stroke-width:1.0;"/><path d="M629.1987,339.6479 Q629.564,339.7227 629.8337,339.9924 Q630.1035,340.2622 630.4937,341.0425 L632.7349,345.5 L630.0454,345.5 L628.5513,342.3706 Q628.4849,342.2378 628.377,342.0054 Q627.7212,340.6025 626.833,340.6025 L626.0527,340.6025 L626.0527,345.5 L623.604,345.5 L623.604,333.1069 L627.1401,333.1069 Q629.5308,333.1069 630.5725,333.9536 Q631.6143,334.8003 631.6143,336.7095 Q631.6143,337.9878 630.9917,338.7432 Q630.3691,339.4985 629.1987,339.6479 Z M626.0527,335.1655 L626.0527,338.5439 L627.2065,338.5439 Q628.2109,338.5439 628.6467,338.1497 Q629.0825,337.7554 629.0825,336.8506 Q629.0825,335.9458 628.6509,335.5557 Q628.2192,335.1655 627.2065,335.1655 Z " fill="#000000"/><text fill="#000000" font-family="sans-serif" font-size="12" lengthAdjust="spacing" textLength="178" x="642" y="344.0352">tosca.relationships.ConnectsTo</text><line style="stroke:#A80036;stroke-width:1.5;" x1="614" x2="822" y1="355.5" y2="355.5"/><line style="stroke:#A80036;stroke-width:1.5;" x1="614" x2="822" y1="363.5" y2="363.5"/><!--MD5=[6083e69ecacc9b9260e1e258f56f9ef3]
class kubetos_relationships_EtcdPeer_RT--><rect codeLine="14" fill="#FEFECE" filter="url(#fx7mfh2l7xzlj)" height="90.8652" id="kubetos_relationships_EtcdPeer_RT" style="stroke:#A80036;stroke-width:1.5;" width="238" x="865" y="640"/><ellipse cx="892.6" cy="656" fill="#008000" rx="11" ry="11" style="stroke:#A80036;stroke-width:1.0;"/><path d="M893.7987,656.1479 Q894.164,656.2227 894.4337,656.4924 Q894.7035,656.7622 895.0937,657.5425 L897.3349,662 L894.6454,662 L893.1513,658.8706 Q893.0849,658.7378 892.977,658.5054 Q892.3212,657.1025 891.433,657.1025 L890.6527,657.1025 L890.6527,662 L888.204,662 L888.204,649.6069 L891.7401,649.6069 Q894.1308,649.6069 895.1725,650.4536 Q896.2143,651.3003 896.2143,653.2095 Q896.2143,654.4878 895.5917,655.2432 Q894.9691,655.9985 893.7987,656.1479 Z M890.6527,651.6655 L890.6527,655.0439 L891.8065,655.0439 Q892.8109,655.0439 893.2467,654.6497 Q893.6825,654.2554 893.6825,653.3506 Q893.6825,652.4458 893.2509,652.0557 Q892.8192,651.6655 891.8065,651.6655 Z " fill="#000000"/><text fill="#000000" font-family="sans-serif" font-size="12" lengthAdjust="spacing" textLength="178" x="909.4" y="660.5352">kubetos.relationships.EtcdPeer</text><line style="stroke:#A80036;stroke-width:1.5;" x1="866" x2="1102" y1="672" y2="672"/><line style="stroke:#A80036;stroke-width:1.0;" x1="866" x2="1102" y1="680" y2="680"/><ellipse cx="876" cy="707.9551" fill="#84BE84" rx="3" ry="3" style="stroke:#038048;stroke-width:1.0;"/><text fill="#000000" font-family="sans-serif" font-size="11" lengthAdjust="spacing" textLength="122" x="885" y="711.5898">pre_configure_target()</text><text fill="#000000" font-family="sans-serif" font-size="11" lengthAdjust="spacing" textLength="212" x="885" y="724.5449">implementation: ../../../add-to-list.yaml</text><line style="stroke:#A80036;stroke-width:1.0;stroke-dasharray:1.0,2.0;" x1="866" x2="932" y1="694.4775" y2="694.4775"/><text fill="#000000" font-family="sans-serif" font-size="11" lengthAdjust="spacing" textLength="104" x="932" y="698.1348">interface Configure</text><line style="stroke:#A80036;stroke-width:1.0;stroke-dasharray:1.0,2.0;" x1="1036" x2="1102" y1="694.4775" y2="694.4775"/><!--MD5=[11f41976af16160530e8aee021eb6006]
class tosca_interfaces_relationship_Configure_IT--><rect codeLine="20" fill="#DDDDDD" filter="url(#fx7mfh2l7xzlj)" height="48" id="tosca_interfaces_relationship_Configure_IT" style="stroke:#A80036;stroke-width:1.5;" width="252" x="858" y="323.5"/><ellipse cx="873" cy="339.5" fill="#008000" rx="11" ry="11" style="stroke:#A80036;stroke-width:1.0;"/><path d="M868.9277,335.2651 L868.9277,333.1069 L876.3071,333.1069 L876.3071,335.2651 L873.8418,335.2651 L873.8418,343.3418 L876.3071,343.3418 L876.3071,345.5 L868.9277,345.5 L868.9277,343.3418 L871.3931,343.3418 L871.3931,335.2651 Z " fill="#000000"/><text fill="#000000" font-family="sans-serif" font-size="12" lengthAdjust="spacing" textLength="220" x="887" y="344.0352">tosca.interfaces.relationship.Configure</text><line style="stroke:#A80036;stroke-width:1.5;" x1="859" x2="1109" y1="355.5" y2="355.5"/><line style="stroke:#A80036;stroke-width:1.5;" x1="859" x2="1109" y1="363.5" y2="363.5"/><!--MD5=[36be2ed8dba25b6c8068095a5dbfc5a3]
class tosca_nodes_Root_NT--><rect codeLine="21" fill="#DDDDDD" filter="url(#fx7mfh2l7xzlj)" height="48" id="tosca_nodes_Root_NT" style="stroke:#A80036;stroke-width:1.5;" width="131" x="1703.5" y="323.5"/><ellipse cx="1718.5" cy="339.5" fill="#008000" rx="11" ry="11" style="stroke:#A80036;stroke-width:1.0;"/><path d="M1714.4878,333.1069 L1717.1191,333.1069 L1720.5723,342.1133 L1720.5723,333.1069 L1722.7305,333.1069 L1722.7305,345.5 L1720.1157,345.5 L1716.646,336.4937 L1716.646,345.5 L1714.4878,345.5 Z " fill="#000000"/><text fill="#000000" font-family="sans-serif" font-size="12" lengthAdjust="spacing" textLength="99" x="1732.5" y="344.0352">tosca.nodes.Root</text><line style="stroke:#A80036;stroke-width:1.5;" x1="1704.5" x2="1833.5" y1="355.5" y2="355.5"/><line style="stroke:#A80036;stroke-width:1.5;" x1="1704.5" x2="1833.5" y1="363.5" y2="363.5"/><!--MD5=[5e058b994673c36ef2933f995456d1be]
class kubetos_nodes_Etcd_Cluster_NT--><rect codeLine="22" fill="#FEFECE" filter="url(#fx7mfh2l7xzlj)" height="69.9102" id="kubetos_nodes_Etcd_Cluster_NT" style="stroke:#A80036;stroke-width:1.5;" width="190" x="1553" y="650.5"/><ellipse cx="1568" cy="666.5" fill="#008000" rx="11" ry="11" style="stroke:#A80036;stroke-width:1.0;"/><path d="M1563.9878,660.1069 L1566.6191,660.1069 L1570.0723,669.1133 L1570.0723,660.1069 L1572.2305,660.1069 L1572.2305,672.5 L1569.6157,672.5 L1566.146,663.4937 L1566.146,672.5 L1563.9878,672.5 Z " fill="#000000"/><text fill="#000000" font-family="sans-serif" font-size="12" lengthAdjust="spacing" textLength="158" x="1582" y="671.0352">kubetos.nodes.Etcd.Cluster</text><line style="stroke:#A80036;stroke-width:1.5;" x1="1554" x2="1742" y1="682.5" y2="682.5"/><ellipse cx="1564" cy="710.4551" rx="3" ry="3" style="stroke:#038048;stroke-width:1.0;fill:none;"/><text fill="#000000" font-family="sans-serif" font-size="11" font-weight="bold" lengthAdjust="spacing" textLength="135" x="1573" y="714.0898">peers : list&lt;string&gt; = []</text><line style="stroke:#A80036;stroke-width:1.0;stroke-dasharray:1.0,2.0;" x1="1554" x2="1622" y1="696.9775" y2="696.9775"/><text fill="#000000" font-family="sans-serif" font-size="11" lengthAdjust="spacing" textLength="52" x="1622" y="700.6348">attributes</text><line style="stroke:#A80036;stroke-width:1.0;stroke-dasharray:1.0,2.0;" x1="1674" x2="1742" y1="696.9775" y2="696.9775"/><!--MD5=[27697265338c4c4e774e642814f1268f]
class tosca_nodes_SoftwareComponent_NT--><rect codeLine="26" fill="#DDDDDD" filter="url(#fx7mfh2l7xzlj)" height="48" id="tosca_nodes_SoftwareComponent_NT" style="stroke:#A80036;stroke-width:1.5;" width="220" x="1125" y="7"/><ellipse cx="1140" cy="23" fill="#008000" rx="11" ry="11" style="stroke:#A80036;stroke-width:1.0;"/><path d="M1135.9878,16.6069 L1138.6191,16.6069 L1142.0723,25.6133 L1142.0723,16.6069 L1144.2305,16.6069 L1144.2305,29 L1141.6157,29 L1138.146,19.9937 L1138.146,29 L1135.9878,29 Z " fill="#000000"/><text fill="#000000" font-family="sans-serif" font-size="12" lengthAdjust="spacing" textLength="188" x="1154" y="27.5352">tosca.nodes.SoftwareComponent</text><line style="stroke:#A80036;stroke-width:1.5;" x1="1126" x2="1344" y1="39" y2="39"/><line style="stroke:#A80036;stroke-width:1.5;" x1="1126" x2="1344" y1="47" y2="47"/><!--MD5=[83b3eee63ffeb15e6a5b7f14a212f838]
class kubetos_nodes_Etcd_NT--><rect codeLine="27" fill="#FEFECE" filter="url(#fx7mfh2l7xzlj)" height="430.7422" id="kubetos_nodes_Etcd_NT" style="stroke:#A80036;stroke-width:1.5;" width="523" x="1145.5" y="132"/><ellipse cx="1345.75" cy="148" fill="#008000" rx="11" ry="11" style="stroke:#A80036;stroke-width:1.0;"/><path d="M1341.7378,141.6069 L1344.3691,141.6069 L1347.8223,150.6133 L1347.8223,141.6069 L1349.9805,141.6069 L1349.9805,154 L1347.3657,154 L1343.896,144.9937 L1343.896,154 L1341.7378,154 Z " fill="#000000"/><text fill="#000000" font-family="sans-serif" font-size="12" lengthAdjust="spacing" textLength="114" x="1366.25" y="152.5352">kubetos.nodes.Etcd</text><line style="stroke:#A80036;stroke-width:1.5;" x1="1146.5" x2="1667.5" y1="164" y2="164"/><ellipse cx="1156.5" cy="191.9551" rx="3" ry="3" style="stroke:#038048;stroke-width:1.0;fill:none;"/><text fill="#000000" font-family="sans-serif" font-size="11" font-weight="bold" lengthAdjust="spacing" textLength="280" x="1165.5" y="195.5898">name : string = {'get_attribute': ['SELF', 'tosca_id']}</text><line style="stroke:#A80036;stroke-width:1.0;stroke-dasharray:1.0,2.0;" x1="1146.5" x2="1381" y1="178.4775" y2="178.4775"/><text fill="#000000" font-family="sans-serif" font-size="11" lengthAdjust="spacing" textLength="52" x="1381" y="182.1348">attributes</text><line style="stroke:#A80036;stroke-width:1.0;stroke-dasharray:1.0,2.0;" x1="1433" x2="1667.5" y1="178.4775" y2="178.4775"/><ellipse cx="1156.5" cy="221.8652" rx="3" ry="3" style="stroke:#038048;stroke-width:1.0;fill:none;"/><text fill="#000000" font-family="sans-serif" font-size="11" lengthAdjust="spacing" textLength="142" x="1165.5" y="225.5">version : string = 'v3.4.13'</text><ellipse cx="1156.5" cy="234.8203" rx="3" ry="3" style="stroke:#038048;stroke-width:1.0;fill:none;"/><text fill="#000000" font-family="sans-serif" font-size="11" lengthAdjust="spacing" textLength="206" x="1165.5" y="238.4551">backup_retention_count : integer = -1</text><ellipse cx="1156.5" cy="247.7754" rx="3" ry="3" style="stroke:#038048;stroke-width:1.0;fill:none;"/><text fill="#000000" font-family="sans-serif" font-size="11" lengthAdjust="spacing" textLength="252" x="1165.5" y="251.4102">heartbeat_interval : scalar-unit.time = '250 ms'</text><ellipse cx="1156.5" cy="260.7305" rx="3" ry="3" style="stroke:#038048;stroke-width:1.0;fill:none;"/><text fill="#000000" font-family="sans-serif" font-size="11" lengthAdjust="spacing" textLength="251" x="1165.5" y="264.3652">election_timeout : scalar-unit.time = '5000 ms'</text><ellipse cx="1156.5" cy="273.6855" rx="3" ry="3" style="stroke:#038048;stroke-width:1.0;fill:none;"/><text fill="#000000" font-family="sans-serif" font-size="11" lengthAdjust="spacing" textLength="184" x="1165.5" y="277.3203">snapshot_count : integer = 10000</text><ellipse cx="1156.5" cy="286.6406" rx="3" ry="3" style="stroke:#038048;stroke-width:1.0;fill:none;"/><text fill="#000000" font-family="sans-serif" font-size="11" lengthAdjust="spacing" textLength="309" x="1165.5" y="290.2754">quota_backend_bytes : scalar-unit.size = '2147483648 B'</text><ellipse cx="1156.5" cy="299.5957" rx="3" ry="3" style="stroke:#038048;stroke-width:1.0;fill:none;"/><text fill="#000000" font-family="sans-serif" font-size="11" lengthAdjust="spacing" textLength="154" x="1165.5" y="303.2305">max_snapshots : integer = 0</text><ellipse cx="1156.5" cy="312.5508" rx="3" ry="3" style="stroke:#038048;stroke-width:1.0;fill:none;"/><text fill="#000000" font-family="sans-serif" font-size="11" lengthAdjust="spacing" textLength="121" x="1165.5" y="316.1855">max_wals : integer = 0</text><line style="stroke:#A80036;stroke-width:1.0;stroke-dasharray:1.0,2.0;" x1="1146.5" x2="1379" y1="208.3877" y2="208.3877"/><text fill="#000000" font-family="sans-serif" font-size="11" lengthAdjust="spacing" textLength="56" x="1379" y="212.0449">properties</text><line style="stroke:#A80036;stroke-width:1.0;stroke-dasharray:1.0,2.0;" x1="1435" x2="1667.5" y1="208.3877" y2="208.3877"/><ellipse cx="1156.5" cy="342.4609" rx="3" ry="3" style="stroke:#038048;stroke-width:1.0;fill:none;"/><text fill="#000000" font-family="sans-serif" font-size="11" lengthAdjust="spacing" textLength="85" x="1165.5" y="346.0957">access_address</text><text fill="#000000" font-family="sans-serif" font-size="11" lengthAdjust="spacing" textLength="282" x="1165.5" y="359.0508">type : kubetos.capabilities.Etcd.Endpoint.Access[1..*]</text><ellipse cx="1156.5" cy="368.3711" rx="3" ry="3" style="stroke:#038048;stroke-width:1.0;fill:none;"/><text fill="#000000" font-family="sans-serif" font-size="11" lengthAdjust="spacing" textLength="73" x="1165.5" y="372.0059">peer_address</text><text fill="#000000" font-family="sans-serif" font-size="11" lengthAdjust="spacing" textLength="267" x="1165.5" y="384.9609">type : kubetos.capabilities.Etcd.Endpoint.Peer[1..*]</text><line style="stroke:#A80036;stroke-width:1.0;stroke-dasharray:1.0,2.0;" x1="1146.5" x2="1377" y1="328.9834" y2="328.9834"/><text fill="#000000" font-family="sans-serif" font-size="11" lengthAdjust="spacing" textLength="60" x="1377" y="332.6406">capabilities</text><line style="stroke:#A80036;stroke-width:1.0;stroke-dasharray:1.0,2.0;" x1="1437" x2="1667.5" y1="328.9834" y2="328.9834"/><ellipse cx="1156.5" cy="411.2363" rx="3" ry="3" style="stroke:#038048;stroke-width:1.0;fill:none;"/><text fill="#000000" font-family="sans-serif" font-size="11" font-weight="bold" lengthAdjust="spacing" textLength="38" x="1165.5" y="414.8711">cluster</text><text fill="#000000" font-family="sans-serif" font-size="11" lengthAdjust="spacing" textLength="198" x="1165.5" y="427.8262">capability : tosca.capabilities.Node[1]</text><text fill="#000000" font-family="sans-serif" font-size="11" lengthAdjust="spacing" textLength="238" x="1165.5" y="440.7813">relationship : kubetos.relationships.EtcdPeer</text><text fill="#000000" font-family="sans-serif" font-size="11" lengthAdjust="spacing" textLength="183" x="1165.5" y="453.7363">node : kubetos.nodes.Etcd.Cluster</text><line style="stroke:#A80036;stroke-width:1.0;stroke-dasharray:1.0,2.0;" x1="1146.5" x2="1371" y1="397.7588" y2="397.7588"/><text fill="#000000" font-family="sans-serif" font-size="11" lengthAdjust="spacing" textLength="72" x="1371" y="401.416">requirements</text><line style="stroke:#A80036;stroke-width:1.0;stroke-dasharray:1.0,2.0;" x1="1443" x2="1667.5" y1="397.7588" y2="397.7588"/><line style="stroke:#A80036;stroke-width:1.0;" x1="1146.5" x2="1667.5" y1="460.0566" y2="460.0566"/><ellipse cx="1156.5" cy="488.0117" fill="#84BE84" rx="3" ry="3" style="stroke:#038048;stroke-width:1.0;"/><text fill="#000000" font-family="sans-serif" font-size="11" lengthAdjust="spacing" textLength="41" x="1165.5" y="491.6465">create()</text><text fill="#000000" font-family="sans-serif" font-size="11" lengthAdjust="spacing" textLength="478" x="1165.5" y="504.6016">implementation: {'primary': '../ansible/etcd--create.yaml', 'dependencies': ['../../../roles']}</text><ellipse cx="1156.5" cy="513.9219" fill="#84BE84" rx="3" ry="3" style="stroke:#038048;stroke-width:1.0;"/><text fill="#000000" font-family="sans-serif" font-size="11" lengthAdjust="spacing" textLength="60" x="1165.5" y="517.5566">configure()</text><text fill="#000000" font-family="sans-serif" font-size="11" lengthAdjust="spacing" textLength="497" x="1165.5" y="530.5117">implementation: {'primary': '../ansible/etcd--configure.yaml', 'dependencies': ['../../../roles']}</text><ellipse cx="1156.5" cy="539.832" fill="#84BE84" rx="3" ry="3" style="stroke:#038048;stroke-width:1.0;"/><text fill="#000000" font-family="sans-serif" font-size="11" lengthAdjust="spacing" textLength="33" x="1165.5" y="543.4668">start()</text><text fill="#000000" font-family="sans-serif" font-size="11" lengthAdjust="spacing" textLength="470" x="1165.5" y="556.4219">implementation: {'primary': '../ansible/etcd--start.yaml', 'dependencies': ['../../../roles']}</text><line style="stroke:#A80036;stroke-width:1.0;stroke-dasharray:1.0,2.0;" x1="1146.5" x2="1358" y1="474.5342" y2="474.5342"/><text fill="#000000" font-family="sans-serif" font-size="11" lengthAdjust="spacing" textLength="98" x="1358" y="478.1914">interface Standard</text><line style="stroke:#A80036;stroke-width:1.0;stroke-dasharray:1.0,2.0;" x1="1456" x2="1667.5" y1="474.5342" y2="474.5342"/><!--MD5=[df7bd63c7c6d51823b3f9adbfe87d5ad]
class tosca_capabilities_Node_CT--><rect codeLine="58" fill="#DDDDDD" filter="url(#fx7mfh2l7xzlj)" height="48" id="tosca_capabilities_Node_CT" style="stroke:#A80036;stroke-width:1.5;" width="166" x="1870" y="323.5"/><ellipse cx="1885" cy="339.5" fill="#008000" rx="11" ry="11" style="stroke:#A80036;stroke-width:1.0;"/><path d="M1887.9731,345.1431 Q1887.3921,345.4419 1886.7529,345.5913 Q1886.1138,345.7407 1885.4082,345.7407 Q1882.9014,345.7407 1881.5815,344.0889 Q1880.2617,342.437 1880.2617,339.3159 Q1880.2617,336.1865 1881.5815,334.5347 Q1882.9014,332.8828 1885.4082,332.8828 Q1886.1138,332.8828 1886.7612,333.0322 Q1887.4087,333.1816 1887.9731,333.4805 L1887.9731,336.2031 Q1887.3423,335.6221 1886.7488,335.3523 Q1886.1553,335.0825 1885.5244,335.0825 Q1884.1797,335.0825 1883.4949,336.1492 Q1882.8101,337.2158 1882.8101,339.3159 Q1882.8101,341.4077 1883.4949,342.4744 Q1884.1797,343.541 1885.5244,343.541 Q1886.1553,343.541 1886.7488,343.2712 Q1887.3423,343.0015 1887.9731,342.4204 Z " fill="#000000"/><text fill="#000000" font-family="sans-serif" font-size="12" lengthAdjust="spacing" textLength="134" x="1899" y="344.0352">tosca.capabilities.Node</text><line style="stroke:#A80036;stroke-width:1.5;" x1="1871" x2="2035" y1="355.5" y2="355.5"/><line style="stroke:#A80036;stroke-width:1.5;" x1="1871" x2="2035" y1="363.5" y2="363.5"/><!--MD5=[8961be65b4d10f5813b5d4193358a40e]
class tosca_interfaces_node_lifecycle_Standard_IT--><rect codeLine="59" fill="#DDDDDD" filter="url(#fx7mfh2l7xzlj)" height="48" id="tosca_interfaces_node_lifecycle_Standard_IT" style="stroke:#A80036;stroke-width:1.5;" width="260" x="1380" y="7"/><ellipse cx="1395" cy="23" fill="#008000" rx="11" ry="11" style="stroke:#A80036;stroke-width:1.0;"/><path d="M1390.9277,18.7651 L1390.9277,16.6069 L1398.3071,16.6069 L1398.3071,18.7651 L1395.8418,18.7651 L1395.8418,26.8418 L1398.3071,26.8418 L1398.3071,29 L1390.9277,29 L1390.9277,26.8418 L1393.3931,26.8418 L1393.3931,18.7651 Z " fill="#000000"/><text fill="#000000" font-family="sans-serif" font-size="12" lengthAdjust="spacing" textLength="228" x="1409" y="27.5352">tosca.interfaces.node.lifecycle.Standard</text><line style="stroke:#A80036;stroke-width:1.5;" x1="1381" x2="1639" y1="39" y2="39"/><line style="stroke:#A80036;stroke-width:1.5;" x1="1381" x2="1639" y1="47" y2="47"/><!--MD5=[133862a7f03d77b29332b00f5fe71e64]
reverse link tosca_capabilities_Endpoint_CT to kubetos_capabilities_Etcd_Endpoint_Peer_CT--><path codeLine="60" d="M316.2721,73.4908 C346.3821,136.6023 402.3623,253.9383 430.2752,312.4444 " fill="none" id="tosca_capabilities_Endpoint_CT-backto-kubetos_capabilities_Etcd_Endpoint_Peer_CT" style="stroke:#A80036;stroke-width:1.0;"/><polygon fill="none" points="309.7677,76.1138,307.4735,55.0487,322.4033,70.0854,309.7677,76.1138" style="stroke:#A80036;stroke-width:1.0;"/><!--MD5=[38f91c722b1b9bcd4170eda5e5c6a745]
reverse link tosca_capabilities_Endpoint_CT to kubetos_capabilities_Etcd_Endpoint_Access_CT--><path codeLine="61" d="M275.723,73.2215 C246.5341,133.9997 193.0027,245.4647 163.98,305.897 " fill="none" id="tosca_capabilities_Endpoint_CT-backto-kubetos_capabilities_Etcd_Endpoint_Access_CT" style="stroke:#A80036;stroke-width:1.0;"/><polygon fill="none" points="269.4821,70.047,284.4505,55.0487,282.1022,76.1078,269.4821,70.047" style="stroke:#A80036;stroke-width:1.0;"/><!--MD5=[65da4da1e100708df5dd7fd4a504fda4]
reverse link tosca_relationships_ConnectsTo_RT to kubetos_relationships_EtcdPeer_RT--><path codeLine="62" d="M736.4665,389.7639 C757.5609,435.3111 795.0358,508.5777 840,563 C863.4144,591.3396 893.9037,618.3293 920.7957,639.7259 " fill="none" id="tosca_relationships_ConnectsTo_RT-backto-kubetos_relationships_EtcdPeer_RT" style="stroke:#A80036;stroke-width:1.0;"/><polygon fill="none" points="730.0766,392.6223,728.2066,371.5153,742.831,386.8492,730.0766,392.6223" style="stroke:#A80036;stroke-width:1.0;"/><!--MD5=[bba09ecaae2a6e69cf6a09679ccd7fc2]
reverse link tosca_interfaces_relationship_Configure_IT to kubetos_relationships_EtcdPeer_RT--><path codeLine="63" d="M984,391.8595 C984,456.2163 984,574.8728 984,639.9124 " fill="none" id="tosca_interfaces_relationship_Configure_IT-backto-kubetos_relationships_EtcdPeer_RT" style="stroke:#A80036;stroke-width:1.0;stroke-dasharray:7.0,7.0;"/><polygon fill="none" points="977.0001,391.5372,984,371.5372,991.0001,391.5371,977.0001,391.5372" style="stroke:#A80036;stroke-width:1.0;"/><text fill="#000000" font-family="sans-serif" font-size="13" lengthAdjust="spacing" textLength="62" x="985" y="606.5684">Configure</text><!--MD5=[a64cbf358437e503ad41ebd9ad282e93]
reverse link tosca_nodes_Root_NT to kubetos_nodes_Etcd_Cluster_NT--><path codeLine="64" d="M1753.5038,390.7869 C1729.2835,458.4435 1682.9244,587.9426 1660.6117,650.2707 " fill="none" id="tosca_nodes_Root_NT-backto-kubetos_nodes_Etcd_Cluster_NT" style="stroke:#A80036;stroke-width:1.0;"/><polygon fill="none" points="1747.0636,388.0076,1760.395,371.5372,1760.2445,392.7263,1747.0636,388.0076" style="stroke:#A80036;stroke-width:1.0;"/><!--MD5=[8bc1db45462dcb111e325f226ff1b8bd]
reverse link tosca_nodes_SoftwareComponent_NT to kubetos_nodes_Etcd_NT--><path codeLine="65" d="M1257.6338,72.6488 C1266.6583,89.255 1277.7741,109.7093 1289.8356,131.9039 " fill="none" id="tosca_nodes_SoftwareComponent_NT-backto-kubetos_nodes_Etcd_NT" style="stroke:#A80036;stroke-width:1.0;"/><polygon fill="none" points="1251.4685,75.9639,1248.0691,55.0487,1263.7694,69.279,1251.4685,75.9639" style="stroke:#A80036;stroke-width:1.0;"/><!--MD5=[db90e2de111c61068b8eb42ff7b9741e]
link kubetos_capabilities_Etcd_Endpoint_Access_CT to kubetos_nodes_Etcd_NT--><path codeLine="66" d="M159.9846,305.7852 C182.299,254.1741 228.1905,168.6412 299,132 C445.6447,56.117 876.9564,122.15 1042,127 C1079.8268,128.1116 1091.5476,118.7626 1127,132 C1129.1236,132.7929 1131.2442,133.6078 1133.3614,134.444 " fill="none" id="kubetos_capabilities_Etcd_Endpoint_Access_CT-to-kubetos_nodes_Etcd_NT" style="stroke:#A80036;stroke-width:1.0;"/><polygon fill="#A80036" points="1145.4488,139.4591,1141.4398,133.4651,1134.365,134.8604,1138.374,140.8543,1145.4488,139.4591" style="stroke:#A80036;stroke-width:1.0;"/><text fill="#000000" font-family="sans-serif" font-size="13" lengthAdjust="spacing" textLength="98" x="943" y="98.5684">access_address</text><text fill="#000000" font-family="sans-serif" font-size="13" lengthAdjust="spacing" textLength="22" x="138.8102" y="295.2392">1..*</text><!--MD5=[c59f8b797821ecb7ed10bd93be8fa817]
link kubetos_capabilities_Etcd_Endpoint_Peer_CT to kubetos_nodes_Etcd_NT--><path codeLine="67" d="M459.8254,312.1422 C480.018,262.2043 524.3591,172.5843 595,132 C690.7214,77.0065 964.1254,75.3794 1127,132 C1128.9962,132.694 1130.9894,133.4083 1132.9794,134.1422 " fill="none" id="kubetos_capabilities_Etcd_Endpoint_Peer_CT-to-kubetos_nodes_Etcd_NT" style="stroke:#A80036;stroke-width:1.0;"/><polygon fill="#A80036" points="1145.1592,138.8928,1141.0228,132.986,1133.9795,134.5323,1138.1158,140.4391,1145.1592,138.8928" style="stroke:#A80036;stroke-width:1.0;"/><text fill="#000000" font-family="sans-serif" font-size="13" lengthAdjust="spacing" textLength="83" x="663.5" y="98.5684">peer_address</text><text fill="#000000" font-family="sans-serif" font-size="13" lengthAdjust="spacing" textLength="22" x="438.162" y="301.8456">1..*</text><!--MD5=[d12a3d36b5a42046c5b96605d9e8efe4]
reverse link kubetos_nodes_Etcd_NT to tosca_capabilities_Node_CT--><path codeLine="68" d="M1681.6227,132.2306 C1692.2765,129.7477 1703.0793,127.9674 1714,127 C1775.1342,121.5844 1803.3134,94.6325 1852,132 C1915.0961,180.427 1940.4104,277.8752 1949.0865,323.2391 " fill="none" id="kubetos_nodes_Etcd_NT-backto-tosca_capabilities_Node_CT" style="stroke:#A80036;stroke-width:1.0;"/><polygon fill="#A80036" points="1668.7034,135.6003,1675.5187,137.9565,1680.3149,132.5717,1673.4996,130.2155,1668.7034,135.6003" style="stroke:#A80036;stroke-width:1.0;"/><text fill="#000000" font-family="sans-serif" font-size="13" lengthAdjust="spacing" textLength="108" x="1715" y="98.5684">cluster.capability</text><text fill="#000000" font-family="sans-serif" font-size="13" lengthAdjust="spacing" textLength="8" x="1939.0587" y="312.7085">1</text><!--MD5=[b0eead7647190cf0efe71a76406c0869]
link kubetos_nodes_Etcd_NT to kubetos_relationships_EtcdPeer_RT--><path codeLine="69" d="M1145.4268,556.5112 C1108.1593,586.2899 1073.0926,614.3102 1045.2253,636.5776 " fill="none" id="kubetos_nodes_Etcd_NT-to-kubetos_relationships_EtcdPeer_RT" style="stroke:#A80036;stroke-width:1.0;stroke-dasharray:7.0,7.0;"/><polygon fill="#A80036" points="1041.1666,639.8208,1050.6947,637.3276,1045.0728,636.6996,1045.7008,631.0777,1041.1666,639.8208" style="stroke:#A80036;stroke-width:1.0;"/><text fill="#000000" font-family="sans-serif" font-size="13" lengthAdjust="spacing" textLength="122" x="1099" y="606.5684">cluster.relationship</text><!--MD5=[7fd3b6819e91a3c82598d979d3cdcbec]
link kubetos_nodes_Etcd_NT to kubetos_nodes_Etcd_Cluster_NT--><path codeLine="70" d="M1556.2537,563.3075 C1567.5887,579.169 1578.9246,594.8712 1590,610 C1598.6958,621.8782 1608.361,634.6297 1617.2687,646.2091 " fill="none" id="kubetos_nodes_Etcd_NT-to-kubetos_nodes_Etcd_Cluster_NT" style="stroke:#A80036;stroke-width:1.0;stroke-dasharray:7.0,7.0;"/><polygon fill="#A80036" points="1620.513,650.4184,1618.187,640.8482,1617.4607,646.4582,1611.8506,645.7319,1620.513,650.4184" style="stroke:#A80036;stroke-width:1.0;"/><text fill="#000000" font-family="sans-serif" font-size="13" lengthAdjust="spacing" textLength="78" x="1591" y="606.5684">cluster.node</text><!--MD5=[b98dc733766be2cc4007f5d41773ace8]
reverse link tosca_interfaces_node_lifecycle_Standard_IT to kubetos_nodes_Etcd_NT--><path codeLine="71" d="M1495.9134,74.2856 C1490.6071,90.5908 1484.1498,110.433 1477.1624,131.9039 " fill="none" id="tosca_interfaces_node_lifecycle_Standard_IT-backto-kubetos_nodes_Etcd_NT" style="stroke:#A80036;stroke-width:1.0;stroke-dasharray:7.0,7.0;"/><polygon fill="none" points="1489.3281,71.9007,1502.1737,55.0487,1502.6408,76.2332,1489.3281,71.9007" style="stroke:#A80036;stroke-width:1.0;"/><text fill="#000000" font-family="sans-serif" font-size="13" lengthAdjust="spacing" textLength="55" x="1492" y="98.5684">Standard</text><!--MD5=[2ac119cf7be42103e109ad9a968b8354]
@startuml
set namespaceSeparator none
class "tosca.capabilities.Endpoint" as tosca_capabilities_Endpoint_CT << (C,green) >> #DDDDDD
class "kubetos.capabilities.Etcd.Endpoint.Peer" as kubetos_capabilities_Etcd_Endpoint_Peer_CT << (C,green) >> {
.. properties ..
+port : integer = 2380
}
class "tosca.capabilities.Endpoint" as tosca_capabilities_Endpoint_CT << (C,green) >> #DDDDDD
class "kubetos.capabilities.Etcd.Endpoint.Access" as kubetos_capabilities_Etcd_Endpoint_Access_CT << (C,green) >> {
.. properties ..
+port : integer = 2379
+<b>api_version : string = 'v2'
}
class "tosca.relationships.ConnectsTo" as tosca_relationships_ConnectsTo_RT << (R,green) >> #DDDDDD
class "kubetos.relationships.EtcdPeer" as kubetos_relationships_EtcdPeer_RT << (R,green) >> {
- -
.. interface Configure ..
+pre_configure_target()
 implementation: ../../../add-to-list.yaml
}
class "tosca.interfaces.relationship.Configure" as tosca_interfaces_relationship_Configure_IT << (I,green) >> #DDDDDD
class "tosca.nodes.Root" as tosca_nodes_Root_NT << (N,green) >> #DDDDDD
class "kubetos.nodes.Etcd.Cluster" as kubetos_nodes_Etcd_Cluster_NT << (N,green) >> {
.. attributes ..
+<b>peers : list<string> = []
}
class "tosca.nodes.SoftwareComponent" as tosca_nodes_SoftwareComponent_NT << (N,green) >> #DDDDDD
class "kubetos.nodes.Etcd" as kubetos_nodes_Etcd_NT << (N,green) >> {
.. attributes ..
+<b>name : string = {'get_attribute': ['SELF', 'tosca_id']}
.. properties ..
+version : string = 'v3.4.13'
+backup_retention_count : integer = -1
+heartbeat_interval : scalar-unit.time = '250 ms'
+election_timeout : scalar-unit.time = '5000 ms'
+snapshot_count : integer = 10000
+quota_backend_bytes : scalar-unit.size = '2147483648 B'
+max_snapshots : integer = 0
+max_wals : integer = 0
.. capabilities ..
+access_address
 type : kubetos.capabilities.Etcd.Endpoint.Access[1..*]
+peer_address
 type : kubetos.capabilities.Etcd.Endpoint.Peer[1..*]
.. requirements ..
+<b>cluster
 capability : tosca.capabilities.Node[1]
 relationship : kubetos.relationships.EtcdPeer
 node : kubetos.nodes.Etcd.Cluster
- -
.. interface Standard ..
+create()
 implementation: {'primary': '../ansible/etcd- -create.yaml', 'dependencies': ['../../../roles']}
+configure()
 implementation: {'primary': '../ansible/etcd- -configure.yaml', 'dependencies': ['../../../roles']}
+start()
 implementation: {'primary': '../ansible/etcd- -start.yaml', 'dependencies': ['../../../roles']}
}
class "tosca.capabilities.Node" as tosca_capabilities_Node_CT << (C,green) >> #DDDDDD
class "tosca.interfaces.node.lifecycle.Standard" as tosca_interfaces_node_lifecycle_Standard_IT << (I,green) >> #DDDDDD
tosca_capabilities_Endpoint_CT <|- - kubetos_capabilities_Etcd_Endpoint_Peer_CT
tosca_capabilities_Endpoint_CT <|- - kubetos_capabilities_Etcd_Endpoint_Access_CT
tosca_relationships_ConnectsTo_RT <|- - kubetos_relationships_EtcdPeer_RT
tosca_interfaces_relationship_Configure_IT <|.. kubetos_relationships_EtcdPeer_RT : Configure
tosca_nodes_Root_NT <|- - kubetos_nodes_Etcd_Cluster_NT
tosca_nodes_SoftwareComponent_NT <|- - kubetos_nodes_Etcd_NT
kubetos_capabilities_Etcd_Endpoint_Access_CT "1..*" -* kubetos_nodes_Etcd_NT : access_address
kubetos_capabilities_Etcd_Endpoint_Peer_CT "1..*" -* kubetos_nodes_Etcd_NT : peer_address
kubetos_nodes_Etcd_NT *- "1" tosca_capabilities_Node_CT : cluster.capability
kubetos_nodes_Etcd_NT ..> kubetos_relationships_EtcdPeer_RT : cluster.relationship
kubetos_nodes_Etcd_NT ..> kubetos_nodes_Etcd_Cluster_NT : cluster.node
tosca_interfaces_node_lifecycle_Standard_IT <|.. kubetos_nodes_Etcd_NT : Standard
@enduml

PlantUML version 1.2021.13(Mon Nov 01 12:38:45 CET 2021)
(GPL source distribution)
Java Runtime: Java(TM) SE Runtime Environment
JVM: Java HotSpot(TM) 64-Bit Server VM
Default Encoding: UTF-8
Language: fr
Country: FR
--></g></svg>