<?xml version="1.0" encoding="UTF-8" standalone="no"?><svg xmlns="http://www.w3.org/2000/svg" xmlns:xlink="http://www.w3.org/1999/xlink" contentScriptType="application/ecmascript" contentStyleType="text/css" height="674px" preserveAspectRatio="none" style="width:2353px;height:674px;background:#FFFFFF;" version="1.1" viewBox="0 0 2353 674" width="2353px" zoomAndPan="magnify"><defs><filter height="300%" id="f1lll84171cclx" width="300%" x="-1" y="-1"><feGaussianBlur result="blurOut" stdDeviation="2.0"/><feColorMatrix in="blurOut" result="blurOut2" type="matrix" values="0 0 0 0 0 0 0 0 0 0 0 0 0 0 0 0 0 0 .4 0"/><feOffset dx="4.0" dy="4.0" in="blurOut2" result="blurOut3"/><feBlend in="SourceGraphic" in2="blurOut3" mode="normal"/></filter></defs><g><!--MD5=[df7bd63c7c6d51823b3f9adbfe87d5ad]
class tosca_capabilities_Node_CT--><rect codeLine="2" fill="#DDDDDD" filter="url(#f1lll84171cclx)" height="48" id="tosca_capabilities_Node_CT" style="stroke:#A80036;stroke-width:1.5;" width="166" x="1604.7965" y="168"/><ellipse cx="1619.7965" cy="184" fill="#008000" rx="11" ry="11" style="stroke:#A80036;stroke-width:1.0;"/><path d="M1622.7696,189.6431 Q1622.1886,189.9419 1621.5494,190.0913 Q1620.9103,190.2407 1620.2047,190.2407 Q1617.6979,190.2407 1616.378,188.5889 Q1615.0582,186.937 1615.0582,183.8159 Q1615.0582,180.6865 1616.378,179.0347 Q1617.6979,177.3828 1620.2047,177.3828 Q1620.9103,177.3828 1621.5577,177.5322 Q1622.2052,177.6816 1622.7696,177.9805 L1622.7696,180.7031 Q1622.1388,180.1221 1621.5453,179.8523 Q1620.9518,179.5825 1620.3209,179.5825 Q1618.9762,179.5825 1618.2914,180.6492 Q1617.6066,181.7158 1617.6066,183.8159 Q1617.6066,185.9077 1618.2914,186.9744 Q1618.9762,188.041 1620.3209,188.041 Q1620.9518,188.041 1621.5453,187.7712 Q1622.1388,187.5015 1622.7696,186.9204 Z " fill="#000000"/><text fill="#000000" font-family="sans-serif" font-size="12" lengthAdjust="spacing" textLength="134" x="1633.7965" y="188.5352">tosca.capabilities.Node</text><line style="stroke:#A80036;stroke-width:1.5;" x1="1605.7965" x2="1769.7965" y1="200" y2="200"/><line style="stroke:#A80036;stroke-width:1.5;" x1="1605.7965" x2="1769.7965" y1="208" y2="208"/><!--MD5=[9f3145c75bd29fdb66294345c41270a1]
class kubetos_capabilities_CNI_CT--><rect codeLine="3" fill="#FEFECE" filter="url(#f1lll84171cclx)" height="82.8652" id="kubetos_capabilities_CNI_CT" style="stroke:#A80036;stroke-width:1.5;" width="229" x="1573.2965" y="398.5"/><ellipse cx="1614.3965" cy="414.5" fill="#008000" rx="11" ry="11" style="stroke:#A80036;stroke-width:1.0;"/><path d="M1617.3696,420.1431 Q1616.7886,420.4419 1616.1494,420.5913 Q1615.5103,420.7407 1614.8047,420.7407 Q1612.2979,420.7407 1610.978,419.0889 Q1609.6582,417.437 1609.6582,414.3159 Q1609.6582,411.1865 1610.978,409.5347 Q1612.2979,407.8828 1614.8047,407.8828 Q1615.5103,407.8828 1616.1577,408.0322 Q1616.8052,408.1816 1617.3696,408.4805 L1617.3696,411.2031 Q1616.7388,410.6221 1616.1453,410.3523 Q1615.5518,410.0825 1614.9209,410.0825 Q1613.5762,410.0825 1612.8914,411.1492 Q1612.2066,412.2158 1612.2066,414.3159 Q1612.2066,416.4077 1612.8914,417.4744 Q1613.5762,418.541 1614.9209,418.541 Q1615.5518,418.541 1616.1453,418.2712 Q1616.7388,418.0015 1617.3696,417.4204 Z " fill="#000000"/><text fill="#000000" font-family="sans-serif" font-size="12" lengthAdjust="spacing" textLength="139" x="1634.1965" y="419.0352">kubetos.capabilities.CNI</text><line style="stroke:#A80036;stroke-width:1.5;" x1="1574.2965" x2="1801.2965" y1="430.5" y2="430.5"/><ellipse cx="1584.2965" cy="458.4551" rx="3" ry="3" style="stroke:#038048;stroke-width:1.0;fill:none;"/><text fill="#000000" font-family="sans-serif" font-size="11" font-weight="bold" lengthAdjust="spacing" textLength="195" x="1593.2965" y="462.0898">binary_dir : string = '/opt/cni/bin'</text><ellipse cx="1584.2965" cy="471.4102" rx="3" ry="3" style="stroke:#038048;stroke-width:1.0;fill:none;"/><text fill="#000000" font-family="sans-serif" font-size="11" font-weight="bold" lengthAdjust="spacing" textLength="203" x="1593.2965" y="475.0449">config_dir : string = '/etc/cni/net.d'</text><line style="stroke:#A80036;stroke-width:1.0;stroke-dasharray:1.0,2.0;" x1="1574.2965" x2="1659.7965" y1="444.9775" y2="444.9775"/><text fill="#000000" font-family="sans-serif" font-size="11" lengthAdjust="spacing" textLength="56" x="1659.7965" y="448.6348">properties</text><line style="stroke:#A80036;stroke-width:1.0;stroke-dasharray:1.0,2.0;" x1="1715.7965" x2="1801.2965" y1="444.9775" y2="444.9775"/><!--MD5=[27697265338c4c4e774e642814f1268f]
class tosca_nodes_SoftwareComponent_NT--><rect codeLine="21" fill="#DDDDDD" filter="url(#f1lll84171cclx)" height="48" id="tosca_nodes_SoftwareComponent_NT" style="stroke:#A80036;stroke-width:1.5;" width="220" x="1320.7965" y="7"/><ellipse cx="1335.7965" cy="23" fill="#008000" rx="11" ry="11" style="stroke:#A80036;stroke-width:1.0;"/><path d="M1331.7843,16.6069 L1334.4156,16.6069 L1337.8688,25.6133 L1337.8688,16.6069 L1340.027,16.6069 L1340.027,29 L1337.4122,29 L1333.9425,19.9937 L1333.9425,29 L1331.7843,29 Z " fill="#000000"/><text fill="#000000" font-family="sans-serif" font-size="12" lengthAdjust="spacing" textLength="188" x="1349.7965" y="27.5352">tosca.nodes.SoftwareComponent</text><line style="stroke:#A80036;stroke-width:1.5;" x1="1321.7965" x2="1539.7965" y1="39" y2="39"/><line style="stroke:#A80036;stroke-width:1.5;" x1="1321.7965" x2="1539.7965" y1="47" y2="47"/><!--MD5=[adc1eb72fb384f5b115e1b8d1e5cec9d]
class kubetos_nodes_CNI_NT--><rect codeLine="9" fill="#FEFECE" filter="url(#f1lll84171cclx)" height="163.6406" id="kubetos_nodes_CNI_NT" style="stroke:#A80036;stroke-width:1.5;" width="482" x="1857.7965" y="358"/><ellipse cx="2040.0465" cy="374" fill="#008000" rx="11" ry="11" style="stroke:#A80036;stroke-width:1.0;"/><path d="M2036.0343,367.6069 L2038.6656,367.6069 L2042.1188,376.6133 L2042.1188,367.6069 L2044.277,367.6069 L2044.277,380 L2041.6622,380 L2038.1925,370.9937 L2038.1925,380 L2036.0343,380 Z " fill="#000000"/><text fill="#000000" font-family="sans-serif" font-size="12" lengthAdjust="spacing" textLength="109" x="2060.5465" y="378.5352">kubetos.nodes.CNI</text><line style="stroke:#A80036;stroke-width:1.5;" x1="1858.7965" x2="2338.7965" y1="390" y2="390"/><ellipse cx="1868.7965" cy="417.9551" rx="3" ry="3" style="stroke:#038048;stroke-width:1.0;fill:none;"/><text fill="#000000" font-family="sans-serif" font-size="11" font-weight="bold" lengthAdjust="spacing" textLength="143" x="1877.7965" y="421.5898">version : string = 'v0.9.1'</text><line style="stroke:#A80036;stroke-width:1.0;stroke-dasharray:1.0,2.0;" x1="1858.7965" x2="2070.7965" y1="404.4775" y2="404.4775"/><text fill="#000000" font-family="sans-serif" font-size="11" lengthAdjust="spacing" textLength="56" x="2070.7965" y="408.1348">properties</text><line style="stroke:#A80036;stroke-width:1.0;stroke-dasharray:1.0,2.0;" x1="2126.7965" x2="2338.7965" y1="404.4775" y2="404.4775"/><ellipse cx="1868.7965" cy="447.8652" rx="3" ry="3" style="stroke:#038048;stroke-width:1.0;fill:none;"/><text fill="#000000" font-family="sans-serif" font-size="11" lengthAdjust="spacing" textLength="16" x="1877.7965" y="451.5">cni</text><text fill="#000000" font-family="sans-serif" font-size="11" lengthAdjust="spacing" textLength="186" x="1877.7965" y="464.4551">type : kubetos.capabilities.CNI[1..*]</text><line style="stroke:#A80036;stroke-width:1.0;stroke-dasharray:1.0,2.0;" x1="1858.7965" x2="2068.7965" y1="434.3877" y2="434.3877"/><text fill="#000000" font-family="sans-serif" font-size="11" lengthAdjust="spacing" textLength="60" x="2068.7965" y="438.0449">capabilities</text><line style="stroke:#A80036;stroke-width:1.0;stroke-dasharray:1.0,2.0;" x1="2128.7965" x2="2338.7965" y1="434.3877" y2="434.3877"/><line style="stroke:#A80036;stroke-width:1.0;" x1="1858.7965" x2="2338.7965" y1="470.7754" y2="470.7754"/><ellipse cx="1868.7965" cy="498.7305" fill="#84BE84" rx="3" ry="3" style="stroke:#038048;stroke-width:1.0;"/><text fill="#000000" font-family="sans-serif" font-size="11" lengthAdjust="spacing" textLength="41" x="1877.7965" y="502.3652">create()</text><text fill="#000000" font-family="sans-serif" font-size="11" lengthAdjust="spacing" textLength="456" x="1877.7965" y="515.3203">implementation: {'primary': './ansible/cni--create.yaml', 'dependencies': ['../../roles']}</text><line style="stroke:#A80036;stroke-width:1.0;stroke-dasharray:1.0,2.0;" x1="1858.7965" x2="2049.7965" y1="485.2529" y2="485.2529"/><text fill="#000000" font-family="sans-serif" font-size="11" lengthAdjust="spacing" textLength="98" x="2049.7965" y="488.9102">interface Standard</text><line style="stroke:#A80036;stroke-width:1.0;stroke-dasharray:1.0,2.0;" x1="2147.7965" x2="2338.7965" y1="485.2529" y2="485.2529"/><!--MD5=[8961be65b4d10f5813b5d4193358a40e]
class tosca_interfaces_node_lifecycle_Standard_IT--><rect codeLine="61" fill="#DDDDDD" filter="url(#f1lll84171cclx)" height="48" id="tosca_interfaces_node_lifecycle_Standard_IT" style="stroke:#A80036;stroke-width:1.5;" width="260" x="1099.7965" y="168"/><ellipse cx="1114.7965" cy="184" fill="#008000" rx="11" ry="11" style="stroke:#A80036;stroke-width:1.0;"/><path d="M1110.7242,179.7651 L1110.7242,177.6069 L1118.1036,177.6069 L1118.1036,179.7651 L1115.6383,179.7651 L1115.6383,187.8418 L1118.1036,187.8418 L1118.1036,190 L1110.7242,190 L1110.7242,187.8418 L1113.1896,187.8418 L1113.1896,179.7651 Z " fill="#000000"/><text fill="#000000" font-family="sans-serif" font-size="12" lengthAdjust="spacing" textLength="228" x="1128.7965" y="188.5352">tosca.interfaces.node.lifecycle.Standard</text><line style="stroke:#A80036;stroke-width:1.5;" x1="1100.7965" x2="1358.7965" y1="200" y2="200"/><line style="stroke:#A80036;stroke-width:1.5;" x1="1100.7965" x2="1358.7965" y1="208" y2="208"/><!--MD5=[3121775f371f7ed078d22ac30f887414]
class kubetos_nodes_CNI_Plugin_NT--><rect codeLine="22" fill="#FEFECE" filter="url(#f1lll84171cclx)" height="151.6406" id="kubetos_nodes_CNI_Plugin_NT" style="stroke:#A80036;stroke-width:1.5;" width="267" x="724.2965" y="116"/><ellipse cx="780.0465" cy="132" fill="#008000" rx="11" ry="11" style="stroke:#A80036;stroke-width:1.0;"/><path d="M776.0343,125.6069 L778.6656,125.6069 L782.1188,134.6133 L782.1188,125.6069 L784.277,125.6069 L784.277,138 L781.6622,138 L778.1925,128.9937 L778.1925,138 L776.0343,138 Z " fill="#000000"/><text fill="#000000" font-family="sans-serif" font-size="12" lengthAdjust="spacing" textLength="147" x="800.5465" y="136.5352">kubetos.nodes.CNI.Plugin</text><line style="stroke:#A80036;stroke-width:1.5;" x1="725.2965" x2="990.2965" y1="148" y2="148"/><ellipse cx="735.2965" cy="175.9551" rx="3" ry="3" style="stroke:#038048;stroke-width:1.0;fill:none;"/><text fill="#000000" font-family="sans-serif" font-size="11" font-weight="bold" lengthAdjust="spacing" textLength="109" x="744.2965" y="179.5898">cni_version : string</text><ellipse cx="735.2965" cy="188.9102" rx="3" ry="3" style="stroke:#038048;stroke-width:1.0;fill:none;"/><text fill="#000000" font-family="sans-serif" font-size="11" font-weight="bold" lengthAdjust="spacing" textLength="74" x="744.2965" y="192.5449">name : string</text><ellipse cx="735.2965" cy="201.8652" rx="3" ry="3" style="stroke:#038048;stroke-width:1.0;fill:none;"/><text fill="#000000" font-family="sans-serif" font-size="11" font-weight="bold" lengthAdjust="spacing" textLength="67" x="744.2965" y="205.5">type : string</text><line style="stroke:#A80036;stroke-width:1.0;stroke-dasharray:1.0,2.0;" x1="725.2965" x2="829.7965" y1="162.4775" y2="162.4775"/><text fill="#000000" font-family="sans-serif" font-size="11" lengthAdjust="spacing" textLength="56" x="829.7965" y="166.1348">properties</text><line style="stroke:#A80036;stroke-width:1.0;stroke-dasharray:1.0,2.0;" x1="885.7965" x2="990.2965" y1="162.4775" y2="162.4775"/><ellipse cx="735.2965" cy="231.7754" rx="3" ry="3" style="stroke:#038048;stroke-width:1.0;fill:none;"/><text fill="#000000" font-family="sans-serif" font-size="11" font-weight="bold" lengthAdjust="spacing" textLength="17" x="744.2965" y="235.4102">cni</text><text fill="#000000" font-family="sans-serif" font-size="11" lengthAdjust="spacing" textLength="203" x="744.2965" y="248.3652">capability : kubetos.capabilities.CNI[1]</text><text fill="#000000" font-family="sans-serif" font-size="11" lengthAdjust="spacing" textLength="241" x="744.2965" y="261.3203">relationship : tosca.relationships.DependsOn</text><line style="stroke:#A80036;stroke-width:1.0;stroke-dasharray:1.0,2.0;" x1="725.2965" x2="821.7965" y1="218.2979" y2="218.2979"/><text fill="#000000" font-family="sans-serif" font-size="11" lengthAdjust="spacing" textLength="72" x="821.7965" y="221.9551">requirements</text><line style="stroke:#A80036;stroke-width:1.0;stroke-dasharray:1.0,2.0;" x1="893.7965" x2="990.2965" y1="218.2979" y2="218.2979"/><!--MD5=[c91485d2278f9f1bf31fdc35ad2630d3]
class tosca_relationships_DependsOn_RT--><rect codeLine="60" fill="#DDDDDD" filter="url(#f1lll84171cclx)" height="48" id="tosca_relationships_DependsOn_RT" style="stroke:#A80036;stroke-width:1.5;" width="211" x="375.2965" y="612"/><ellipse cx="390.2965" cy="628" fill="#008000" rx="11" ry="11" style="stroke:#A80036;stroke-width:1.0;"/><path d="M391.4952,628.1479 Q391.8605,628.2227 392.1302,628.4924 Q392.4,628.7622 392.7902,629.5425 L395.0314,634 L392.3419,634 L390.8478,630.8706 Q390.7814,630.7378 390.6735,630.5054 Q390.0177,629.1025 389.1295,629.1025 L388.3492,629.1025 L388.3492,634 L385.9005,634 L385.9005,621.6069 L389.4366,621.6069 Q391.8273,621.6069 392.869,622.4536 Q393.9108,623.3003 393.9108,625.2095 Q393.9108,626.4878 393.2882,627.2432 Q392.6656,627.9985 391.4952,628.1479 Z M388.3492,623.6655 L388.3492,627.0439 L389.503,627.0439 Q390.5074,627.0439 390.9432,626.6497 Q391.379,626.2554 391.379,625.3506 Q391.379,624.4458 390.9474,624.0557 Q390.5157,623.6655 389.503,623.6655 Z " fill="#000000"/><text fill="#000000" font-family="sans-serif" font-size="12" lengthAdjust="spacing" textLength="179" x="404.2965" y="632.5352">tosca.relationships.DependsOn</text><line style="stroke:#A80036;stroke-width:1.5;" x1="376.2965" x2="585.2965" y1="644" y2="644"/><line style="stroke:#A80036;stroke-width:1.5;" x1="376.2965" x2="585.2965" y1="652" y2="652"/><!--MD5=[59f379e4555ee9ed3e255d0f8ee9adcd]
class kubetos_nodes_CNI_Plugin_Bridge_NT--><rect codeLine="33" fill="#FEFECE" filter="url(#f1lll84171cclx)" height="189.5508" id="kubetos_nodes_CNI_Plugin_Bridge_NT" style="stroke:#A80036;stroke-width:1.5;" width="606" x="177.7965" y="345"/><ellipse cx="382.5465" cy="361" fill="#008000" rx="11" ry="11" style="stroke:#A80036;stroke-width:1.0;"/><path d="M378.5343,354.6069 L381.1656,354.6069 L384.6188,363.6133 L384.6188,354.6069 L386.777,354.6069 L386.777,367 L384.1622,367 L380.6925,357.9937 L380.6925,367 L378.5343,367 Z " fill="#000000"/><text fill="#000000" font-family="sans-serif" font-size="12" lengthAdjust="spacing" textLength="188" x="403.0465" y="365.5352">kubetos.nodes.CNI.Plugin.Bridge</text><line style="stroke:#A80036;stroke-width:1.5;" x1="178.7965" x2="782.7965" y1="377" y2="377"/><ellipse cx="188.7965" cy="404.9551" rx="3" ry="3" style="stroke:#038048;stroke-width:1.0;fill:none;"/><text fill="#000000" font-family="sans-serif" font-size="11" lengthAdjust="spacing" textLength="120" x="197.7965" y="408.5898">type : string = 'bridge'</text><ellipse cx="188.7965" cy="417.9102" rx="3" ry="3" style="stroke:#038048;stroke-width:1.0;fill:none;"/><text fill="#000000" font-family="sans-serif" font-size="11" font-weight="bold" lengthAdjust="spacing" textLength="93" x="197.7965" y="421.5449">pod_cidr : string</text><line style="stroke:#A80036;stroke-width:1.0;stroke-dasharray:1.0,2.0;" x1="178.7965" x2="452.7965" y1="391.4775" y2="391.4775"/><text fill="#000000" font-family="sans-serif" font-size="11" lengthAdjust="spacing" textLength="56" x="452.7965" y="395.1348">properties</text><line style="stroke:#A80036;stroke-width:1.0;stroke-dasharray:1.0,2.0;" x1="508.7965" x2="782.7965" y1="391.4775" y2="391.4775"/><ellipse cx="188.7965" cy="447.8203" rx="3" ry="3" style="stroke:#038048;stroke-width:1.0;fill:none;"/><text fill="#000000" font-family="sans-serif" font-size="11" font-weight="bold" lengthAdjust="spacing" textLength="17" x="197.7965" y="451.4551">cni</text><text fill="#000000" font-family="sans-serif" font-size="11" lengthAdjust="spacing" textLength="203" x="197.7965" y="464.4102">capability : kubetos.capabilities.CNI[1]</text><text fill="#000000" font-family="sans-serif" font-size="11" lengthAdjust="spacing" textLength="241" x="197.7965" y="477.3652">relationship : tosca.relationships.DependsOn</text><line style="stroke:#A80036;stroke-width:1.0;stroke-dasharray:1.0,2.0;" x1="178.7965" x2="444.7965" y1="434.3428" y2="434.3428"/><text fill="#000000" font-family="sans-serif" font-size="11" lengthAdjust="spacing" textLength="72" x="444.7965" y="438">requirements</text><line style="stroke:#A80036;stroke-width:1.0;stroke-dasharray:1.0,2.0;" x1="516.7965" x2="782.7965" y1="434.3428" y2="434.3428"/><line style="stroke:#A80036;stroke-width:1.0;" x1="178.7965" x2="782.7965" y1="483.6855" y2="483.6855"/><ellipse cx="188.7965" cy="511.6406" fill="#84BE84" rx="3" ry="3" style="stroke:#038048;stroke-width:1.0;"/><text fill="#000000" font-family="sans-serif" font-size="11" lengthAdjust="spacing" textLength="41" x="197.7965" y="515.2754">create()</text><text fill="#000000" font-family="sans-serif" font-size="11" lengthAdjust="spacing" textLength="580" x="197.7965" y="528.2305">implementation: {'primary': './ansible/bridge--create.yaml', 'dependencies': ['./ansible/files/bridge.conf.j2']}</text><line style="stroke:#A80036;stroke-width:1.0;stroke-dasharray:1.0,2.0;" x1="178.7965" x2="431.7965" y1="498.1631" y2="498.1631"/><text fill="#000000" font-family="sans-serif" font-size="11" lengthAdjust="spacing" textLength="98" x="431.7965" y="501.8203">interface Standard</text><line style="stroke:#A80036;stroke-width:1.0;stroke-dasharray:1.0,2.0;" x1="529.7965" x2="782.7965" y1="498.1631" y2="498.1631"/><!--MD5=[d2b3733b37aa491fd7aaf03f71c06de5]
class kubetos_nodes_CNI_Plugin_Loopback_NT--><rect codeLine="48" fill="#FEFECE" filter="url(#f1lll84171cclx)" height="176.5957" id="kubetos_nodes_CNI_Plugin_Loopback_NT" style="stroke:#A80036;stroke-width:1.5;" width="634" x="818.7965" y="351.5"/><ellipse cx="1028.0465" cy="367.5" fill="#008000" rx="11" ry="11" style="stroke:#A80036;stroke-width:1.0;"/><path d="M1024.0343,361.1069 L1026.6656,361.1069 L1030.1188,370.1133 L1030.1188,361.1069 L1032.277,361.1069 L1032.277,373.5 L1029.6622,373.5 L1026.1925,364.4937 L1026.1925,373.5 L1024.0343,373.5 Z " fill="#000000"/><text fill="#000000" font-family="sans-serif" font-size="12" lengthAdjust="spacing" textLength="207" x="1048.5465" y="372.0352">kubetos.nodes.CNI.Plugin.Loopback</text><line style="stroke:#A80036;stroke-width:1.5;" x1="819.7965" x2="1451.7965" y1="383.5" y2="383.5"/><ellipse cx="829.7965" cy="411.4551" rx="3" ry="3" style="stroke:#038048;stroke-width:1.0;fill:none;"/><text fill="#000000" font-family="sans-serif" font-size="11" lengthAdjust="spacing" textLength="134" x="838.7965" y="415.0898">type : string = 'loopback'</text><line style="stroke:#A80036;stroke-width:1.0;stroke-dasharray:1.0,2.0;" x1="819.7965" x2="1107.7965" y1="397.9775" y2="397.9775"/><text fill="#000000" font-family="sans-serif" font-size="11" lengthAdjust="spacing" textLength="56" x="1107.7965" y="401.6348">properties</text><line style="stroke:#A80036;stroke-width:1.0;stroke-dasharray:1.0,2.0;" x1="1163.7965" x2="1451.7965" y1="397.9775" y2="397.9775"/><ellipse cx="829.7965" cy="441.3652" rx="3" ry="3" style="stroke:#038048;stroke-width:1.0;fill:none;"/><text fill="#000000" font-family="sans-serif" font-size="11" font-weight="bold" lengthAdjust="spacing" textLength="17" x="838.7965" y="445">cni</text><text fill="#000000" font-family="sans-serif" font-size="11" lengthAdjust="spacing" textLength="203" x="838.7965" y="457.9551">capability : kubetos.capabilities.CNI[1]</text><text fill="#000000" font-family="sans-serif" font-size="11" lengthAdjust="spacing" textLength="241" x="838.7965" y="470.9102">relationship : tosca.relationships.DependsOn</text><line style="stroke:#A80036;stroke-width:1.0;stroke-dasharray:1.0,2.0;" x1="819.7965" x2="1099.7965" y1="427.8877" y2="427.8877"/><text fill="#000000" font-family="sans-serif" font-size="11" lengthAdjust="spacing" textLength="72" x="1099.7965" y="431.5449">requirements</text><line style="stroke:#A80036;stroke-width:1.0;stroke-dasharray:1.0,2.0;" x1="1171.7965" x2="1451.7965" y1="427.8877" y2="427.8877"/><line style="stroke:#A80036;stroke-width:1.0;" x1="819.7965" x2="1451.7965" y1="477.2305" y2="477.2305"/><ellipse cx="829.7965" cy="505.1855" fill="#84BE84" rx="3" ry="3" style="stroke:#038048;stroke-width:1.0;"/><text fill="#000000" font-family="sans-serif" font-size="11" lengthAdjust="spacing" textLength="41" x="838.7965" y="508.8203">create()</text><text fill="#000000" font-family="sans-serif" font-size="11" lengthAdjust="spacing" textLength="608" x="838.7965" y="521.7754">implementation: {'primary': './ansible/loopback--create.yaml', 'dependencies': ['./ansible/files/loopback.conf.j2']}</text><line style="stroke:#A80036;stroke-width:1.0;stroke-dasharray:1.0,2.0;" x1="819.7965" x2="1086.7965" y1="491.708" y2="491.708"/><text fill="#000000" font-family="sans-serif" font-size="11" lengthAdjust="spacing" textLength="98" x="1086.7965" y="495.3652">interface Standard</text><line style="stroke:#A80036;stroke-width:1.0;stroke-dasharray:1.0,2.0;" x1="1184.7965" x2="1451.7965" y1="491.708" y2="491.708"/><!--MD5=[a2c0454347686e3fa56a9faa12db85e5]
reverse link tosca_capabilities_Node_CT to kubetos_capabilities_CNI_CT--><path codeLine="62" d="M1687.7965,236.2315 C1687.7965,282.1759 1687.7965,353.5061 1687.7965,398.4369 " fill="none" id="tosca_capabilities_Node_CT-backto-kubetos_capabilities_CNI_CT" style="stroke:#A80036;stroke-width:1.0;"/><polygon fill="none" points="1680.7966,236.2309,1687.7965,216.2308,1694.7966,236.2308,1680.7966,236.2309" style="stroke:#A80036;stroke-width:1.0;"/><!--MD5=[a9824de1fe11ab01ef68027d484bd3b7]
reverse link tosca_nodes_SoftwareComponent_NT to kubetos_nodes_CNI_NT--><path codeLine="63" d="M1560.9548,43.8676 C1631.681,55.186 1718.5726,76.3829 1787.7965,116 C1893.3638,176.4165 1985.7571,283.5139 2041.831,357.9649 " fill="none" id="tosca_nodes_SoftwareComponent_NT-backto-kubetos_nodes_CNI_NT" style="stroke:#A80036;stroke-width:1.0;"/><polygon fill="none" points="1559.7255,50.7616,1540.9899,40.8633,1561.8089,36.9174,1559.7255,50.7616" style="stroke:#A80036;stroke-width:1.0;"/><!--MD5=[fde916aee604f4ee44ca60aff34bd730]
link kubetos_capabilities_CNI_CT to kubetos_nodes_CNI_NT--><path codeLine="64" d="M1802.5561,440 C1815.9211,440 1829.9267,440 1844.2709,440 " fill="none" id="kubetos_capabilities_CNI_CT-to-kubetos_nodes_CNI_NT" style="stroke:#A80036;stroke-width:1.0;"/><polygon fill="#A80036" points="1857.5305,440,1851.5305,436,1845.5305,440,1851.5305,444,1857.5305,440" style="stroke:#A80036;stroke-width:1.0;"/><text fill="#000000" font-family="sans-serif" font-size="13" lengthAdjust="spacing" textLength="19" x="1820.5465" y="433.5684">cni</text><text fill="#000000" font-family="sans-serif" font-size="13" lengthAdjust="spacing" textLength="22" x="1810.2196" y="453.039">1..*</text><!--MD5=[1ed42eca799495730c207c943683ccd9]
reverse link tosca_interfaces_node_lifecycle_Standard_IT to kubetos_nodes_CNI_NT--><path codeLine="65" d="M1351.6945,220.7999 C1471.5135,249.768 1659.24,296.9199 1819.7965,345 C1833.5215,349.1101 1847.5818,353.4575 1861.7398,357.9413 " fill="none" id="tosca_interfaces_node_lifecycle_Standard_IT-backto-kubetos_nodes_CNI_NT" style="stroke:#A80036;stroke-width:1.0;stroke-dasharray:7.0,7.0;"/><polygon fill="none" points="1349.7694,227.5365,1331.9656,216.0462,1353.0489,213.926,1349.7694,227.5365" style="stroke:#A80036;stroke-width:1.0;"/><text fill="#000000" font-family="sans-serif" font-size="13" lengthAdjust="spacing" textLength="55" x="1708.7965" y="311.5684">Standard</text><!--MD5=[2aad398cf2c3660cf21437d62c5a4434]
reverse link tosca_nodes_SoftwareComponent_NT to kubetos_nodes_CNI_Plugin_NT--><path codeLine="66" d="M1301.7274,59.5708 C1235.5924,74.933 1153.9912,95.0054 1081.7965,116 C1052.3205,124.5718 1020.96,134.6175 991.3285,144.5455 " fill="none" id="tosca_nodes_SoftwareComponent_NT-backto-kubetos_nodes_CNI_Plugin_NT" style="stroke:#A80036;stroke-width:1.0;"/><polygon fill="none" points="1300.22,52.7347,1321.2816,55.0608,1303.3664,66.3766,1300.22,52.7347" style="stroke:#A80036;stroke-width:1.0;"/><!--MD5=[7e4632dfa515213262ffe754facbef11]
reverse link kubetos_nodes_CNI_Plugin_NT to kubetos_capabilities_CNI_CT--><path codeLine="67" d="M943.8417,276.4514 C964.0375,291.8451 986.5083,305.8942 1009.7965,315 C1105.2021,352.3041 1370.2459,320.8444 1469.7965,345 C1518.3424,356.7795 1569.6993,378.647 1610.3646,398.4347 " fill="none" id="kubetos_nodes_CNI_Plugin_NT-backto-kubetos_capabilities_CNI_CT" style="stroke:#A80036;stroke-width:1.0;"/><polygon fill="#A80036" points="933.4957,268.298,935.7323,275.1535,942.9207,275.7256,940.6841,268.8701,933.4957,268.298" style="stroke:#A80036;stroke-width:1.0;"/><text fill="#000000" font-family="sans-serif" font-size="13" lengthAdjust="spacing" textLength="84" x="1010.7965" y="311.5684">cni.capability</text><text fill="#000000" font-family="sans-serif" font-size="13" lengthAdjust="spacing" textLength="8" x="1597.7435" y="387.6082">1</text><!--MD5=[95708dc6b09dfe910b4301e682e4e0d1]
link kubetos_nodes_CNI_Plugin_NT to tosca_relationships_DependsOn_RT--><path codeLine="68" d="M723.9716,197.7367 C519.0621,209.6419 142.5307,244.8963 59.7965,345 C6,410.0907 7.512,468.6886 59.7965,535 C97.7627,583.1517 258.3473,610.952 369.8279,624.783 " fill="none" id="kubetos_nodes_CNI_Plugin_NT-to-tosca_relationships_DependsOn_RT" style="stroke:#A80036;stroke-width:1.0;stroke-dasharray:7.0,7.0;"/><polygon fill="#A80036" points="375.0987,625.431,366.6542,620.3624,370.1361,624.8207,365.6778,628.3026,375.0987,625.431" style="stroke:#A80036;stroke-width:1.0;"/><text fill="#000000" font-family="sans-serif" font-size="13" lengthAdjust="spacing" textLength="98" x="60.7965" y="445.0684">cni.relationship</text><!--MD5=[034c08077febe98735d5238a1fae075c]
reverse link kubetos_nodes_CNI_Plugin_NT to kubetos_nodes_CNI_Plugin_Bridge_NT--><path codeLine="69" d="M724.9741,279.3739 C692.6936,300.6088 658.0199,323.418 625.2307,344.9876 " fill="none" id="kubetos_nodes_CNI_Plugin_NT-backto-kubetos_nodes_CNI_Plugin_Bridge_NT" style="stroke:#A80036;stroke-width:1.0;"/><polygon fill="none" points="721.5661,273.237,742.122,268.0936,729.2602,284.9332,721.5661,273.237" style="stroke:#A80036;stroke-width:1.0;"/><!--MD5=[4337d50fdbdcaabe518314815f50fee0]
reverse link kubetos_nodes_CNI_Plugin_Bridge_NT to kubetos_capabilities_CNI_CT--><path codeLine="70" d="M796.8851,345.7421 C798.1911,345.4916 799.4949,345.2442 800.7965,345 C800.7965,345 1469.7965,345 1469.7965,345 C1517.798,357.2572 1568.6985,378.8973 1609.233,398.4306 " fill="none" id="kubetos_nodes_CNI_Plugin_Bridge_NT-backto-kubetos_capabilities_CNI_CT" style="stroke:#A80036;stroke-width:1.0;"/><polygon fill="#A80036" points="784.0239,348.295,790.6879,351.0502,795.7942,345.9586,789.1303,343.2033,784.0239,348.295" style="stroke:#A80036;stroke-width:1.0;"/><text fill="#000000" font-family="sans-serif" font-size="13" lengthAdjust="spacing" textLength="84" x="1104.7965" y="311.5684">cni.capability</text><text fill="#000000" font-family="sans-serif" font-size="13" lengthAdjust="spacing" textLength="8" x="1587.5584" y="387.9087">1</text><!--MD5=[dfa6392891856b0324f4c04e838ca584]
link kubetos_nodes_CNI_Plugin_Bridge_NT to tosca_relationships_DependsOn_RT--><path codeLine="71" d="M480.7965,535.1293 C480.7965,561.162 480.7965,587.4651 480.7965,606.6821 " fill="none" id="kubetos_nodes_CNI_Plugin_Bridge_NT-to-tosca_relationships_DependsOn_RT" style="stroke:#A80036;stroke-width:1.0;stroke-dasharray:7.0,7.0;"/><polygon fill="#A80036" points="480.7965,611.9083,484.7965,602.9083,480.7965,606.9083,476.7965,602.9083,480.7965,611.9083" style="stroke:#A80036;stroke-width:1.0;"/><text fill="#000000" font-family="sans-serif" font-size="13" lengthAdjust="spacing" textLength="98" x="481.7965" y="578.5684">cni.relationship</text><!--MD5=[418fb2e5772fd4f46098e64667d2e8d1]
reverse link tosca_interfaces_node_lifecycle_Standard_IT to kubetos_nodes_CNI_Plugin_Bridge_NT--><path codeLine="72" d="M1142.1214,222.7894 C1101.63,236.8446 1052.8593,253.542 1008.7965,268 C966.323,281.9365 955.3641,284.3536 912.7965,298 C865.9036,313.0331 816.2155,329.1705 767.8781,344.9817 " fill="none" id="tosca_interfaces_node_lifecycle_Standard_IT-backto-kubetos_nodes_CNI_Plugin_Bridge_NT" style="stroke:#A80036;stroke-width:1.0;stroke-dasharray:7.0,7.0;"/><polygon fill="none" points="1140.0874,216.0855,1161.277,216.1232,1144.6888,229.3078,1140.0874,216.0855" style="stroke:#A80036;stroke-width:1.0;"/><text fill="#000000" font-family="sans-serif" font-size="13" lengthAdjust="spacing" textLength="55" x="913.7965" y="311.5684">Standard</text><!--MD5=[10c731d0a955bbdd4a1d4acd3c614470]
reverse link kubetos_nodes_CNI_Plugin_NT to kubetos_nodes_CNI_Plugin_Loopback_NT--><path codeLine="73" d="M865.4416,287.4843 C868.9183,297.3584 873.5829,306.7715 879.7965,315 C889.9303,328.4199 901.888,340.48 915.0062,351.3048 " fill="none" id="kubetos_nodes_CNI_Plugin_NT-backto-kubetos_nodes_CNI_Plugin_Loopback_NT" style="stroke:#A80036;stroke-width:1.0;"/><polygon fill="none" points="858.6694,289.2573,860.125,268.1177,872.1699,285.551,858.6694,289.2573" style="stroke:#A80036;stroke-width:1.0;"/><!--MD5=[6386e36bf65326b896c9f853069315a2]
reverse link kubetos_nodes_CNI_Plugin_Loopback_NT to kubetos_capabilities_CNI_CT--><path codeLine="74" d="M1465.9198,440 C1504.1663,440 1540.9695,440 1573.2339,440 " fill="none" id="kubetos_nodes_CNI_Plugin_Loopback_NT-backto-kubetos_capabilities_CNI_CT" style="stroke:#A80036;stroke-width:1.0;"/><polygon fill="#A80036" points="1452.8984,440,1458.8984,444,1464.8984,440,1458.8984,436,1452.8984,440" style="stroke:#A80036;stroke-width:1.0;"/><text fill="#000000" font-family="sans-serif" font-size="13" lengthAdjust="spacing" textLength="84" x="1471.0465" y="433.5684">cni.capability</text><text fill="#000000" font-family="sans-serif" font-size="13" lengthAdjust="spacing" textLength="8" x="1557.268" y="437.0794">1</text><!--MD5=[f00dabdf798d2394dcff24a2f9081200]
link kubetos_nodes_CNI_Plugin_Loopback_NT to tosca_relationships_DependsOn_RT--><path codeLine="75" d="M839.9153,528.5385 C740.0953,558.4083 636.3207,589.4615 566.1503,610.459 " fill="none" id="kubetos_nodes_CNI_Plugin_Loopback_NT-to-tosca_relationships_DependsOn_RT" style="stroke:#A80036;stroke-width:1.0;stroke-dasharray:7.0,7.0;"/><polygon fill="#A80036" points="561.1566,611.9533,570.9256,613.2052,565.9467,610.5199,568.6321,605.541,561.1566,611.9533" style="stroke:#A80036;stroke-width:1.0;"/><text fill="#000000" font-family="sans-serif" font-size="13" lengthAdjust="spacing" textLength="98" x="712.7965" y="578.5684">cni.relationship</text><!--MD5=[fb0c9ddefdcd8f0662d5c87fb583a39a]
reverse link tosca_interfaces_node_lifecycle_Standard_IT to kubetos_nodes_CNI_Plugin_Loopback_NT--><path codeLine="76" d="M1217.1857,235.7125 C1210.0428,259.3901 1200.594,289.032 1190.7965,315 C1186.3189,326.8678 1181.3107,339.2346 1176.1892,351.3734 " fill="none" id="tosca_interfaces_node_lifecycle_Standard_IT-backto-kubetos_nodes_CNI_Plugin_Loopback_NT" style="stroke:#A80036;stroke-width:1.0;stroke-dasharray:7.0,7.0;"/><polygon fill="none" points="1210.5421,233.4936,1222.9303,216.3025,1223.9665,237.4668,1210.5421,233.4936" style="stroke:#A80036;stroke-width:1.0;"/><text fill="#000000" font-family="sans-serif" font-size="13" lengthAdjust="spacing" textLength="55" x="1198.7965" y="311.5684">Standard</text><!--MD5=[03b6a2acb41deb0105069081aa394d35]
@startuml
set namespaceSeparator none
class "tosca.capabilities.Node" as tosca_capabilities_Node_CT << (C,green) >> #DDDDDD
class "kubetos.capabilities.CNI" as kubetos_capabilities_CNI_CT << (C,green) >> {
.. properties ..
+<b>binary_dir : string = '/opt/cni/bin'
+<b>config_dir : string = '/etc/cni/net.d'
}
class "tosca.nodes.SoftwareComponent" as tosca_nodes_SoftwareComponent_NT << (N,green) >> #DDDDDD
class "kubetos.nodes.CNI" as kubetos_nodes_CNI_NT << (N,green) >> {
.. properties ..
+<b>version : string = 'v0.9.1'
.. capabilities ..
+cni
 type : kubetos.capabilities.CNI[1..*]
- -
.. interface Standard ..
+create()
 implementation: {'primary': './ansible/cni- -create.yaml', 'dependencies': ['../../roles']}
}
class "tosca.interfaces.node.lifecycle.Standard" as tosca_interfaces_node_lifecycle_Standard_IT << (I,green) >> #DDDDDD
class "tosca.nodes.SoftwareComponent" as tosca_nodes_SoftwareComponent_NT << (N,green) >> #DDDDDD
class "kubetos.nodes.CNI.Plugin" as kubetos_nodes_CNI_Plugin_NT << (N,green) >> {
.. properties ..
+<b>cni_version : string
+<b>name : string
+<b>type : string
.. requirements ..
+<b>cni
 capability : kubetos.capabilities.CNI[1]
 relationship : tosca.relationships.DependsOn
}
class "tosca.relationships.DependsOn" as tosca_relationships_DependsOn_RT << (R,green) >> #DDDDDD
class "kubetos.nodes.CNI.Plugin.Bridge" as kubetos_nodes_CNI_Plugin_Bridge_NT << (N,green) >> {
.. properties ..
+type : string = 'bridge'
+<b>pod_cidr : string
.. requirements ..
+<b>cni
 capability : kubetos.capabilities.CNI[1]
 relationship : tosca.relationships.DependsOn
- -
.. interface Standard ..
+create()
 implementation: {'primary': './ansible/bridge- -create.yaml', 'dependencies': ['./ansible/files/bridge.conf.j2']}
}
class "tosca.relationships.DependsOn" as tosca_relationships_DependsOn_RT << (R,green) >> #DDDDDD
class "tosca.interfaces.node.lifecycle.Standard" as tosca_interfaces_node_lifecycle_Standard_IT << (I,green) >> #DDDDDD
class "kubetos.nodes.CNI.Plugin.Loopback" as kubetos_nodes_CNI_Plugin_Loopback_NT << (N,green) >> {
.. properties ..
+type : string = 'loopback'
.. requirements ..
+<b>cni
 capability : kubetos.capabilities.CNI[1]
 relationship : tosca.relationships.DependsOn
- -
.. interface Standard ..
+create()
 implementation: {'primary': './ansible/loopback- -create.yaml', 'dependencies': ['./ansible/files/loopback.conf.j2']}
}
class "tosca.relationships.DependsOn" as tosca_relationships_DependsOn_RT << (R,green) >> #DDDDDD
class "tosca.interfaces.node.lifecycle.Standard" as tosca_interfaces_node_lifecycle_Standard_IT << (I,green) >> #DDDDDD
tosca_capabilities_Node_CT <|- - kubetos_capabilities_CNI_CT
tosca_nodes_SoftwareComponent_NT <|- - kubetos_nodes_CNI_NT
kubetos_capabilities_CNI_CT "1..*" -* kubetos_nodes_CNI_NT : cni
tosca_interfaces_node_lifecycle_Standard_IT <|.. kubetos_nodes_CNI_NT : Standard
tosca_nodes_SoftwareComponent_NT <|- - kubetos_nodes_CNI_Plugin_NT
kubetos_nodes_CNI_Plugin_NT *- "1" kubetos_capabilities_CNI_CT : cni.capability
kubetos_nodes_CNI_Plugin_NT ..> tosca_relationships_DependsOn_RT : cni.relationship
kubetos_nodes_CNI_Plugin_NT <|- - kubetos_nodes_CNI_Plugin_Bridge_NT
kubetos_nodes_CNI_Plugin_Bridge_NT *- "1" kubetos_capabilities_CNI_CT : cni.capability
kubetos_nodes_CNI_Plugin_Bridge_NT ..> tosca_relationships_DependsOn_RT : cni.relationship
tosca_interfaces_node_lifecycle_Standard_IT <|.. kubetos_nodes_CNI_Plugin_Bridge_NT : Standard
kubetos_nodes_CNI_Plugin_NT <|- - kubetos_nodes_CNI_Plugin_Loopback_NT
kubetos_nodes_CNI_Plugin_Loopback_NT *- "1" kubetos_capabilities_CNI_CT : cni.capability
kubetos_nodes_CNI_Plugin_Loopback_NT ..> tosca_relationships_DependsOn_RT : cni.relationship
tosca_interfaces_node_lifecycle_Standard_IT <|.. kubetos_nodes_CNI_Plugin_Loopback_NT : Standard
@enduml

PlantUML version 1.2021.13(Mon Nov 01 12:38:45 CET 2021)
(GPL source distribution)
Java Runtime: Java(TM) SE Runtime Environment
JVM: Java HotSpot(TM) 64-Bit Server VM
Default Encoding: UTF-8
Language: fr
Country: FR
--></g></svg>