<?xml version="1.0" encoding="UTF-8" standalone="no"?><svg xmlns="http://www.w3.org/2000/svg" xmlns:xlink="http://www.w3.org/1999/xlink" contentScriptType="application/ecmascript" contentStyleType="text/css" height="683px" preserveAspectRatio="none" style="width:1404px;height:683px;background:#FFFFFF;" version="1.1" viewBox="0 0 1404 683" width="1404px" zoomAndPan="magnify"><defs><filter height="300%" id="fvsb54nu9sn01" width="300%" x="-1" y="-1"><feGaussianBlur result="blurOut" stdDeviation="2.0"/><feColorMatrix in="blurOut" result="blurOut2" type="matrix" values="0 0 0 0 0 0 0 0 0 0 0 0 0 0 0 0 0 0 .4 0"/><feOffset dx="4.0" dy="4.0" in="blurOut2" result="blurOut3"/><feBlend in="SourceGraphic" in2="blurOut3" mode="normal"/></filter></defs><g><!--MD5=[36be2ed8dba25b6c8068095a5dbfc5a3]
class tosca_nodes_Root_NT--><rect codeLine="15" fill="#DDDDDD" filter="url(#fvsb54nu9sn01)" height="48" id="tosca_nodes_Root_NT" style="stroke:#A80036;stroke-width:1.5;" width="131" x="1037" y="7"/><ellipse cx="1052" cy="23" fill="#008000" rx="11" ry="11" style="stroke:#A80036;stroke-width:1.0;"/><path d="M1047.9878,16.6069 L1050.6191,16.6069 L1054.0723,25.6133 L1054.0723,16.6069 L1056.2305,16.6069 L1056.2305,29 L1053.6157,29 L1050.146,19.9937 L1050.146,29 L1047.9878,29 Z " fill="#000000"/><text fill="#000000" font-family="sans-serif" font-size="12" lengthAdjust="spacing" textLength="99" x="1066" y="27.5352">tosca.nodes.Root</text><line style="stroke:#A80036;stroke-width:1.5;" x1="1038" x2="1167" y1="39" y2="39"/><line style="stroke:#A80036;stroke-width:1.5;" x1="1038" x2="1167" y1="47" y2="47"/><!--MD5=[b305032f0218a32eae323e080df7eacb]
class openstack_nodes_SecurityGroup_NT--><rect codeLine="3" fill="#FEFECE" filter="url(#fvsb54nu9sn01)" height="163.6406" id="openstack_nodes_SecurityGroup_NT" style="stroke:#A80036;stroke-width:1.5;" width="277" x="397" y="506"/><ellipse cx="440.35" cy="522" fill="#008000" rx="11" ry="11" style="stroke:#A80036;stroke-width:1.0;"/><path d="M436.3378,515.6069 L438.9691,515.6069 L442.4223,524.6133 L442.4223,515.6069 L444.5805,515.6069 L444.5805,528 L441.9657,528 L438.496,518.9937 L438.496,528 L436.3378,528 Z " fill="#000000"/><text fill="#000000" font-family="sans-serif" font-size="12" lengthAdjust="spacing" textLength="182" x="460.65" y="526.5352">openstack.nodes.SecurityGroup</text><line style="stroke:#A80036;stroke-width:1.5;" x1="398" x2="673" y1="538" y2="538"/><ellipse cx="408" cy="565.9551" rx="3" ry="3" style="stroke:#038048;stroke-width:1.0;fill:none;"/><text fill="#000000" font-family="sans-serif" font-size="11" font-weight="bold" lengthAdjust="spacing" textLength="55" x="417" y="569.5898">id : string</text><line style="stroke:#A80036;stroke-width:1.0;stroke-dasharray:1.0,2.0;" x1="398" x2="509.5" y1="552.4775" y2="552.4775"/><text fill="#000000" font-family="sans-serif" font-size="11" lengthAdjust="spacing" textLength="52" x="509.5" y="556.1348">attributes</text><line style="stroke:#A80036;stroke-width:1.0;stroke-dasharray:1.0,2.0;" x1="561.5" x2="673" y1="552.4775" y2="552.4775"/><ellipse cx="408" cy="595.8652" rx="3" ry="3" style="stroke:#038048;stroke-width:1.0;fill:none;"/><text fill="#000000" font-family="sans-serif" font-size="11" font-weight="bold" lengthAdjust="spacing" textLength="74" x="417" y="599.5">name : string</text><ellipse cx="408" cy="608.8203" rx="3" ry="3" style="stroke:#038048;stroke-width:1.0;fill:none;"/><text fill="#000000" font-family="sans-serif" font-size="11" lengthAdjust="spacing" textLength="102" x="417" y="612.4551">description : string</text><line style="stroke:#A80036;stroke-width:1.0;stroke-dasharray:1.0,2.0;" x1="398" x2="507.5" y1="582.3877" y2="582.3877"/><text fill="#000000" font-family="sans-serif" font-size="11" lengthAdjust="spacing" textLength="56" x="507.5" y="586.0449">properties</text><line style="stroke:#A80036;stroke-width:1.0;stroke-dasharray:1.0,2.0;" x1="563.5" x2="673" y1="582.3877" y2="582.3877"/><line style="stroke:#A80036;stroke-width:1.0;" x1="398" x2="673" y1="618.7754" y2="618.7754"/><ellipse cx="408" cy="646.7305" fill="#84BE84" rx="3" ry="3" style="stroke:#038048;stroke-width:1.0;"/><text fill="#000000" font-family="sans-serif" font-size="11" lengthAdjust="spacing" textLength="41" x="417" y="650.3652">create()</text><text fill="#000000" font-family="sans-serif" font-size="11" lengthAdjust="spacing" textLength="251" x="417" y="663.3203">implementation: ../ansible/group--create.yaml</text><line style="stroke:#A80036;stroke-width:1.0;stroke-dasharray:1.0,2.0;" x1="398" x2="486.5" y1="633.2529" y2="633.2529"/><text fill="#000000" font-family="sans-serif" font-size="11" lengthAdjust="spacing" textLength="98" x="486.5" y="636.9102">interface Standard</text><line style="stroke:#A80036;stroke-width:1.0;stroke-dasharray:1.0,2.0;" x1="584.5" x2="673" y1="633.2529" y2="633.2529"/><!--MD5=[8961be65b4d10f5813b5d4193358a40e]
class tosca_interfaces_node_lifecycle_Standard_IT--><rect codeLine="59" fill="#DDDDDD" filter="url(#fvsb54nu9sn01)" height="48" id="tosca_interfaces_node_lifecycle_Standard_IT" style="stroke:#A80036;stroke-width:1.5;" width="260" x="405.5" y="7"/><ellipse cx="420.5" cy="23" fill="#008000" rx="11" ry="11" style="stroke:#A80036;stroke-width:1.0;"/><path d="M416.4277,18.7651 L416.4277,16.6069 L423.8071,16.6069 L423.8071,18.7651 L421.3418,18.7651 L421.3418,26.8418 L423.8071,26.8418 L423.8071,29 L416.4277,29 L416.4277,26.8418 L418.8931,26.8418 L418.8931,18.7651 Z " fill="#000000"/><text fill="#000000" font-family="sans-serif" font-size="12" lengthAdjust="spacing" textLength="228" x="434.5" y="27.5352">tosca.interfaces.node.lifecycle.Standard</text><line style="stroke:#A80036;stroke-width:1.5;" x1="406.5" x2="664.5" y1="39" y2="39"/><line style="stroke:#A80036;stroke-width:1.5;" x1="406.5" x2="664.5" y1="47" y2="47"/><!--MD5=[4b3c7a3d9173a258d6cb1df5d9176ebf]
class openstack_nodes_SecurityGroupRule_NT--><rect codeLine="16" fill="#FEFECE" filter="url(#fvsb54nu9sn01)" height="232.416" id="openstack_nodes_SecurityGroupRule_NT" style="stroke:#A80036;stroke-width:1.5;" width="304" x="627.5" y="164.5"/><ellipse cx="671.75" cy="180.5" fill="#008000" rx="11" ry="11" style="stroke:#A80036;stroke-width:1.0;"/><path d="M667.7378,174.1069 L670.3691,174.1069 L673.8223,183.1133 L673.8223,174.1069 L675.9805,174.1069 L675.9805,186.5 L673.3657,186.5 L669.896,177.4937 L669.896,186.5 L667.7378,186.5 Z " fill="#000000"/><text fill="#000000" font-family="sans-serif" font-size="12" lengthAdjust="spacing" textLength="207" x="692.25" y="185.0352">openstack.nodes.SecurityGroupRule</text><line style="stroke:#A80036;stroke-width:1.5;" x1="628.5" x2="930.5" y1="196.5" y2="196.5"/><ellipse cx="638.5" cy="224.4551" rx="3" ry="3" style="stroke:#038048;stroke-width:1.0;fill:none;"/><text fill="#000000" font-family="sans-serif" font-size="11" font-weight="bold" lengthAdjust="spacing" textLength="55" x="647.5" y="228.0898">id : string</text><line style="stroke:#A80036;stroke-width:1.0;stroke-dasharray:1.0,2.0;" x1="628.5" x2="753.5" y1="210.9775" y2="210.9775"/><text fill="#000000" font-family="sans-serif" font-size="11" lengthAdjust="spacing" textLength="52" x="753.5" y="214.6348">attributes</text><line style="stroke:#A80036;stroke-width:1.0;stroke-dasharray:1.0,2.0;" x1="805.5" x2="930.5" y1="210.9775" y2="210.9775"/><ellipse cx="638.5" cy="254.3652" rx="3" ry="3" style="stroke:#038048;stroke-width:1.0;fill:none;"/><text fill="#000000" font-family="sans-serif" font-size="11" font-weight="bold" lengthAdjust="spacing" textLength="91" x="647.5" y="258">protocol : string</text><ellipse cx="638.5" cy="267.3203" rx="3" ry="3" style="stroke:#038048;stroke-width:1.0;fill:none;"/><text fill="#000000" font-family="sans-serif" font-size="11" font-weight="bold" lengthAdjust="spacing" textLength="139" x="647.5" y="270.9551">remote_ip_prefix : string</text><line style="stroke:#A80036;stroke-width:1.0;stroke-dasharray:1.0,2.0;" x1="628.5" x2="751.5" y1="240.8877" y2="240.8877"/><text fill="#000000" font-family="sans-serif" font-size="11" lengthAdjust="spacing" textLength="56" x="751.5" y="244.5449">properties</text><line style="stroke:#A80036;stroke-width:1.0;stroke-dasharray:1.0,2.0;" x1="807.5" x2="930.5" y1="240.8877" y2="240.8877"/><ellipse cx="638.5" cy="297.2305" rx="3" ry="3" style="stroke:#038048;stroke-width:1.0;fill:none;"/><text fill="#000000" font-family="sans-serif" font-size="11" font-weight="bold" lengthAdjust="spacing" textLength="83" x="647.5" y="300.8652">security_group</text><text fill="#000000" font-family="sans-serif" font-size="11" lengthAdjust="spacing" textLength="198" x="647.5" y="313.8203">capability : tosca.capabilities.Node[1]</text><text fill="#000000" font-family="sans-serif" font-size="11" lengthAdjust="spacing" textLength="241" x="647.5" y="326.7754">relationship : tosca.relationships.DependsOn</text><text fill="#000000" font-family="sans-serif" font-size="11" lengthAdjust="spacing" textLength="207" x="647.5" y="339.7305">node : openstack.nodes.SecurityGroup</text><line style="stroke:#A80036;stroke-width:1.0;stroke-dasharray:1.0,2.0;" x1="628.5" x2="743.5" y1="283.7529" y2="283.7529"/><text fill="#000000" font-family="sans-serif" font-size="11" lengthAdjust="spacing" textLength="72" x="743.5" y="287.4102">requirements</text><line style="stroke:#A80036;stroke-width:1.0;stroke-dasharray:1.0,2.0;" x1="815.5" x2="930.5" y1="283.7529" y2="283.7529"/><line style="stroke:#A80036;stroke-width:1.0;" x1="628.5" x2="930.5" y1="346.0508" y2="346.0508"/><ellipse cx="638.5" cy="374.0059" fill="#84BE84" rx="3" ry="3" style="stroke:#038048;stroke-width:1.0;"/><text fill="#000000" font-family="sans-serif" font-size="11" lengthAdjust="spacing" textLength="41" x="647.5" y="377.6406">create()</text><text fill="#000000" font-family="sans-serif" font-size="11" lengthAdjust="spacing" textLength="278" x="647.5" y="390.5957">implementation: ../ansible/group-rule--create.yaml</text><line style="stroke:#A80036;stroke-width:1.0;stroke-dasharray:1.0,2.0;" x1="628.5" x2="730.5" y1="360.5283" y2="360.5283"/><text fill="#000000" font-family="sans-serif" font-size="11" lengthAdjust="spacing" textLength="98" x="730.5" y="364.1855">interface Standard</text><line style="stroke:#A80036;stroke-width:1.0;stroke-dasharray:1.0,2.0;" x1="828.5" x2="930.5" y1="360.5283" y2="360.5283"/><!--MD5=[df7bd63c7c6d51823b3f9adbfe87d5ad]
class tosca_capabilities_Node_CT--><rect codeLine="57" fill="#DDDDDD" filter="url(#fvsb54nu9sn01)" height="48" id="tosca_capabilities_Node_CT" style="stroke:#A80036;stroke-width:1.5;" width="166" x="1127.5" y="256.5"/><ellipse cx="1142.5" cy="272.5" fill="#008000" rx="11" ry="11" style="stroke:#A80036;stroke-width:1.0;"/><path d="M1145.4731,278.1431 Q1144.8921,278.4419 1144.2529,278.5913 Q1143.6138,278.7407 1142.9082,278.7407 Q1140.4014,278.7407 1139.0815,277.0889 Q1137.7617,275.437 1137.7617,272.3159 Q1137.7617,269.1865 1139.0815,267.5347 Q1140.4014,265.8828 1142.9082,265.8828 Q1143.6138,265.8828 1144.2612,266.0322 Q1144.9087,266.1816 1145.4731,266.4805 L1145.4731,269.2031 Q1144.8423,268.6221 1144.2488,268.3523 Q1143.6553,268.0825 1143.0244,268.0825 Q1141.6797,268.0825 1140.9949,269.1492 Q1140.3101,270.2158 1140.3101,272.3159 Q1140.3101,274.4077 1140.9949,275.4744 Q1141.6797,276.541 1143.0244,276.541 Q1143.6553,276.541 1144.2488,276.2712 Q1144.8423,276.0015 1145.4731,275.4204 Z " fill="#000000"/><text fill="#000000" font-family="sans-serif" font-size="12" lengthAdjust="spacing" textLength="134" x="1156.5" y="277.0352">tosca.capabilities.Node</text><line style="stroke:#A80036;stroke-width:1.5;" x1="1128.5" x2="1292.5" y1="288.5" y2="288.5"/><line style="stroke:#A80036;stroke-width:1.5;" x1="1128.5" x2="1292.5" y1="296.5" y2="296.5"/><!--MD5=[c91485d2278f9f1bf31fdc35ad2630d3]
class tosca_relationships_DependsOn_RT--><rect codeLine="33" fill="#DDDDDD" filter="url(#fvsb54nu9sn01)" height="48" id="tosca_relationships_DependsOn_RT" style="stroke:#A80036;stroke-width:1.5;" width="211" x="709" y="564"/><ellipse cx="724" cy="580" fill="#008000" rx="11" ry="11" style="stroke:#A80036;stroke-width:1.0;"/><path d="M725.1987,580.1479 Q725.564,580.2227 725.8337,580.4924 Q726.1035,580.7622 726.4937,581.5425 L728.7349,586 L726.0454,586 L724.5513,582.8706 Q724.4849,582.7378 724.377,582.5054 Q723.7212,581.1025 722.833,581.1025 L722.0527,581.1025 L722.0527,586 L719.604,586 L719.604,573.6069 L723.1401,573.6069 Q725.5308,573.6069 726.5725,574.4536 Q727.6143,575.3003 727.6143,577.2095 Q727.6143,578.4878 726.9917,579.2432 Q726.3691,579.9985 725.1987,580.1479 Z M722.0527,575.6655 L722.0527,579.0439 L723.2065,579.0439 Q724.2109,579.0439 724.6467,578.6497 Q725.0825,578.2554 725.0825,577.3506 Q725.0825,576.4458 724.6509,576.0557 Q724.2192,575.6655 723.2065,575.6655 Z " fill="#000000"/><text fill="#000000" font-family="sans-serif" font-size="12" lengthAdjust="spacing" textLength="179" x="738" y="584.5352">tosca.relationships.DependsOn</text><line style="stroke:#A80036;stroke-width:1.5;" x1="710" x2="919" y1="596" y2="596"/><line style="stroke:#A80036;stroke-width:1.5;" x1="710" x2="919" y1="604" y2="604"/><!--MD5=[c180bde2e15bbfa9a68793161bac0567]
class tosca_nodes_Compute_NT--><rect codeLine="35" fill="#DDDDDD" filter="url(#fvsb54nu9sn01)" height="48" id="tosca_nodes_Compute_NT" style="stroke:#A80036;stroke-width:1.5;" width="157" x="202" y="7"/><ellipse cx="217" cy="23" fill="#008000" rx="11" ry="11" style="stroke:#A80036;stroke-width:1.0;"/><path d="M212.9878,16.6069 L215.6191,16.6069 L219.0723,25.6133 L219.0723,16.6069 L221.2305,16.6069 L221.2305,29 L218.6157,29 L215.146,19.9937 L215.146,29 L212.9878,29 Z " fill="#000000"/><text fill="#000000" font-family="sans-serif" font-size="12" lengthAdjust="spacing" textLength="125" x="231" y="27.5352">tosca.nodes.Compute</text><line style="stroke:#A80036;stroke-width:1.5;" x1="203" x2="358" y1="39" y2="39"/><line style="stroke:#A80036;stroke-width:1.5;" x1="203" x2="358" y1="47" y2="47"/><!--MD5=[eb5ce1d7605a8b0605d1d66e1de8f473]
class openstack_nodes_Compute_NT--><rect codeLine="36" fill="#FEFECE" filter="url(#fvsb54nu9sn01)" height="297.1914" id="openstack_nodes_Compute_NT" style="stroke:#A80036;stroke-width:1.5;" width="370" x="95.5" y="132"/><ellipse cx="199.25" cy="148" fill="#008000" rx="11" ry="11" style="stroke:#A80036;stroke-width:1.0;"/><path d="M195.2378,141.6069 L197.8691,141.6069 L201.3223,150.6133 L201.3223,141.6069 L203.4805,141.6069 L203.4805,154 L200.8657,154 L197.396,144.9937 L197.396,154 L195.2378,154 Z " fill="#000000"/><text fill="#000000" font-family="sans-serif" font-size="12" lengthAdjust="spacing" textLength="154" x="219.75" y="152.5352">openstack.nodes.Compute</text><line style="stroke:#A80036;stroke-width:1.5;" x1="96.5" x2="464.5" y1="164" y2="164"/><ellipse cx="106.5" cy="191.9551" rx="3" ry="3" style="stroke:#038048;stroke-width:1.0;fill:none;"/><text fill="#000000" font-family="sans-serif" font-size="11" font-weight="bold" lengthAdjust="spacing" textLength="55" x="115.5" y="195.5898">id : string</text><ellipse cx="106.5" cy="204.9102" rx="3" ry="3" style="stroke:#038048;stroke-width:1.0;fill:none;"/><text fill="#000000" font-family="sans-serif" font-size="11" font-weight="bold" lengthAdjust="spacing" textLength="194" x="115.5" y="208.5449">security_groups : list&lt;string&gt; = []</text><line style="stroke:#A80036;stroke-width:1.0;stroke-dasharray:1.0,2.0;" x1="96.5" x2="254.5" y1="178.4775" y2="178.4775"/><text fill="#000000" font-family="sans-serif" font-size="11" lengthAdjust="spacing" textLength="52" x="254.5" y="182.1348">attributes</text><line style="stroke:#A80036;stroke-width:1.0;stroke-dasharray:1.0,2.0;" x1="306.5" x2="464.5" y1="178.4775" y2="178.4775"/><ellipse cx="106.5" cy="234.8203" rx="3" ry="3" style="stroke:#038048;stroke-width:1.0;fill:none;"/><text fill="#000000" font-family="sans-serif" font-size="11" font-weight="bold" lengthAdjust="spacing" textLength="74" x="115.5" y="238.4551">name : string</text><ellipse cx="106.5" cy="247.7754" rx="3" ry="3" style="stroke:#038048;stroke-width:1.0;fill:none;"/><text fill="#000000" font-family="sans-serif" font-size="11" font-weight="bold" lengthAdjust="spacing" textLength="78" x="115.5" y="251.4102">image : string</text><ellipse cx="106.5" cy="260.7305" rx="3" ry="3" style="stroke:#038048;stroke-width:1.0;fill:none;"/><text fill="#000000" font-family="sans-serif" font-size="11" font-weight="bold" lengthAdjust="spacing" textLength="78" x="115.5" y="264.3652">flavor : string</text><ellipse cx="106.5" cy="273.6855" rx="3" ry="3" style="stroke:#038048;stroke-width:1.0;fill:none;"/><text fill="#000000" font-family="sans-serif" font-size="11" font-weight="bold" lengthAdjust="spacing" textLength="89" x="115.5" y="277.3203">network : string</text><ellipse cx="106.5" cy="286.6406" rx="3" ry="3" style="stroke:#038048;stroke-width:1.0;fill:none;"/><text fill="#000000" font-family="sans-serif" font-size="11" font-weight="bold" lengthAdjust="spacing" textLength="136" x="115.5" y="290.2754">floating_ip_pool : string</text><ellipse cx="106.5" cy="299.5957" rx="3" ry="3" style="stroke:#038048;stroke-width:1.0;fill:none;"/><text fill="#000000" font-family="sans-serif" font-size="11" font-weight="bold" lengthAdjust="spacing" textLength="99" x="115.5" y="303.2305">key_name : string</text><line style="stroke:#A80036;stroke-width:1.0;stroke-dasharray:1.0,2.0;" x1="96.5" x2="252.5" y1="221.3428" y2="221.3428"/><text fill="#000000" font-family="sans-serif" font-size="11" lengthAdjust="spacing" textLength="56" x="252.5" y="225">properties</text><line style="stroke:#A80036;stroke-width:1.0;stroke-dasharray:1.0,2.0;" x1="308.5" x2="464.5" y1="221.3428" y2="221.3428"/><ellipse cx="106.5" cy="329.5059" rx="3" ry="3" style="stroke:#038048;stroke-width:1.0;fill:none;"/><text fill="#000000" font-family="sans-serif" font-size="11" font-weight="bold" lengthAdjust="spacing" textLength="83" x="115.5" y="333.1406">security_group</text><text fill="#000000" font-family="sans-serif" font-size="11" lengthAdjust="spacing" textLength="209" x="115.5" y="346.0957">capability : tosca.capabilities.Node[1..*]</text><text fill="#000000" font-family="sans-serif" font-size="11" lengthAdjust="spacing" textLength="344" x="115.5" y="359.0508">relationship : openstack.relationships.ComputeToSecurityGroup</text><text fill="#000000" font-family="sans-serif" font-size="11" lengthAdjust="spacing" textLength="207" x="115.5" y="372.0059">node : openstack.nodes.SecurityGroup</text><line style="stroke:#A80036;stroke-width:1.0;stroke-dasharray:1.0,2.0;" x1="96.5" x2="244.5" y1="316.0283" y2="316.0283"/><text fill="#000000" font-family="sans-serif" font-size="11" lengthAdjust="spacing" textLength="72" x="244.5" y="319.6855">requirements</text><line style="stroke:#A80036;stroke-width:1.0;stroke-dasharray:1.0,2.0;" x1="316.5" x2="464.5" y1="316.0283" y2="316.0283"/><line style="stroke:#A80036;stroke-width:1.0;" x1="96.5" x2="464.5" y1="378.3262" y2="378.3262"/><ellipse cx="106.5" cy="406.2813" fill="#84BE84" rx="3" ry="3" style="stroke:#038048;stroke-width:1.0;"/><text fill="#000000" font-family="sans-serif" font-size="11" lengthAdjust="spacing" textLength="41" x="115.5" y="409.916">create()</text><text fill="#000000" font-family="sans-serif" font-size="11" lengthAdjust="spacing" textLength="265" x="115.5" y="422.8711">implementation: ../ansible/compute--create.yaml</text><line style="stroke:#A80036;stroke-width:1.0;stroke-dasharray:1.0,2.0;" x1="96.5" x2="231.5" y1="392.8037" y2="392.8037"/><text fill="#000000" font-family="sans-serif" font-size="11" lengthAdjust="spacing" textLength="98" x="231.5" y="396.4609">interface Standard</text><line style="stroke:#A80036;stroke-width:1.0;stroke-dasharray:1.0,2.0;" x1="329.5" x2="464.5" y1="392.8037" y2="392.8037"/><!--MD5=[f415caa3f1886eac3010b45b0d774fd0]
class openstack_relationships_ComputeToSecurityGroup_RT--><rect codeLine="58" fill="#DDDDDD" filter="url(#fvsb54nu9sn01)" height="48" id="openstack_relationships_ComputeToSecurityGroup_RT" style="stroke:#A80036;stroke-width:1.5;" width="319" x="7" y="564"/><ellipse cx="22" cy="580" fill="#008000" rx="11" ry="11" style="stroke:#A80036;stroke-width:1.0;"/><path d="M23.1987,580.1479 Q23.564,580.2227 23.8337,580.4924 Q24.1035,580.7622 24.4937,581.5425 L26.7349,586 L24.0454,586 L22.5513,582.8706 Q22.4849,582.7378 22.377,582.5054 Q21.7212,581.1025 20.833,581.1025 L20.0527,581.1025 L20.0527,586 L17.604,586 L17.604,573.6069 L21.1401,573.6069 Q23.5308,573.6069 24.5725,574.4536 Q25.6143,575.3003 25.6143,577.2095 Q25.6143,578.4878 24.9917,579.2432 Q24.3691,579.9985 23.1987,580.1479 Z M20.0527,575.6655 L20.0527,579.0439 L21.2065,579.0439 Q22.2109,579.0439 22.6467,578.6497 Q23.0825,578.2554 23.0825,577.3506 Q23.0825,576.4458 22.6509,576.0557 Q22.2192,575.6655 21.2065,575.6655 Z " fill="#000000"/><text fill="#000000" font-family="sans-serif" font-size="12" lengthAdjust="spacing" textLength="287" x="36" y="584.5352">openstack.relationships.ComputeToSecurityGroup</text><line style="stroke:#A80036;stroke-width:1.5;" x1="8" x2="325" y1="596" y2="596"/><line style="stroke:#A80036;stroke-width:1.5;" x1="8" x2="325" y1="604" y2="604"/><!--MD5=[24e8c029f4a3d5d453f99751f26a5d8b]
reverse link tosca_nodes_Root_NT to openstack_nodes_SecurityGroup_NT--><path codeLine="60" d="M1187.2417,48.9825 C1232.45,63.3524 1284.2471,88.5617 1311.5,132 C1381.6521,243.8154 1397.9653,329.2616 1311.5,429 C1220.5566,533.9038 824.4127,465.8786 691.5,506 C685.7882,507.7242 680.0413,509.6615 674.298,511.7694 " fill="none" id="tosca_nodes_Root_NT-backto-openstack_nodes_SecurityGroup_NT" style="stroke:#A80036;stroke-width:1.0;"/><polygon fill="none" points="1185.2727,55.6999,1168.0336,43.3786,1189.1937,42.2602,1185.2727,55.6999" style="stroke:#A80036;stroke-width:1.0;"/><!--MD5=[b59adb8b25a8b31787ebe1ba3d958ff1]
reverse link tosca_interfaces_node_lifecycle_Standard_IT to openstack_nodes_SecurityGroup_NT--><path codeLine="61" d="M535.5,75.4844 C535.5,168.8598 535.5,386.5034 535.5,505.9411 " fill="none" id="tosca_interfaces_node_lifecycle_Standard_IT-backto-openstack_nodes_SecurityGroup_NT" style="stroke:#A80036;stroke-width:1.0;stroke-dasharray:7.0,7.0;"/><polygon fill="none" points="528.5001,75.2918,535.5,55.2918,542.5001,75.2917,528.5001,75.2918" style="stroke:#A80036;stroke-width:1.0;"/><text fill="#000000" font-family="sans-serif" font-size="13" lengthAdjust="spacing" textLength="55" x="536.5" y="285.5684">Standard</text><!--MD5=[0d43ebdf0f727b418578ef82f547d9ae]
reverse link tosca_nodes_Root_NT to openstack_nodes_SecurityGroupRule_NT--><path codeLine="62" d="M1055.1074,67.6082 C1021.8137,93.3258 975.2926,129.2608 929.9401,164.2932 " fill="none" id="tosca_nodes_Root_NT-backto-openstack_nodes_SecurityGroupRule_NT" style="stroke:#A80036;stroke-width:1.0;"/><polygon fill="none" points="1051.1289,61.8363,1071.2359,55.1498,1059.6872,72.9158,1051.1289,61.8363" style="stroke:#A80036;stroke-width:1.0;"/><!--MD5=[f1ebef2a97fbaf42b02b15d3b91dc9b9]
reverse link openstack_nodes_SecurityGroupRule_NT to tosca_capabilities_Node_CT--><path codeLine="63" d="M944.967,280.5 C1007.328,280.5 1075.6057,280.5 1127.3084,280.5 " fill="none" id="openstack_nodes_SecurityGroupRule_NT-backto-tosca_capabilities_Node_CT" style="stroke:#A80036;stroke-width:1.0;"/><polygon fill="#A80036" points="931.7577,280.5,937.7577,284.5,943.7577,280.5,937.7577,276.5,931.7577,280.5" style="stroke:#A80036;stroke-width:1.0;"/><text fill="#000000" font-family="sans-serif" font-size="13" lengthAdjust="spacing" textLength="159" x="950" y="274.0684">security_group.capability</text><text fill="#000000" font-family="sans-serif" font-size="13" lengthAdjust="spacing" textLength="8" x="1111.5429" y="277.4142">1</text><!--MD5=[ff9c61973466872ec440bf38594c510c]
link openstack_nodes_SecurityGroupRule_NT to tosca_relationships_DependsOn_RT--><path codeLine="64" d="M792.732,396.7526 C799.3927,455.2718 806.932,521.5093 811.1608,558.6628 " fill="none" id="openstack_nodes_SecurityGroupRule_NT-to-tosca_relationships_DependsOn_RT" style="stroke:#A80036;stroke-width:1.0;stroke-dasharray:7.0,7.0;"/><polygon fill="#A80036" points="811.7602,563.9291,814.7165,554.5344,811.1946,558.9612,806.7679,555.4393,811.7602,563.9291" style="stroke:#A80036;stroke-width:1.0;"/><text fill="#000000" font-family="sans-serif" font-size="13" lengthAdjust="spacing" textLength="173" x="801.5" y="472.5684">security_group.relationship</text><!--MD5=[f2eed9d87d932555559cf3d011af534f]
link openstack_nodes_SecurityGroupRule_NT to openstack_nodes_SecurityGroup_NT--><path codeLine="65" d="M687.2541,396.7526 C659.6317,431.5636 629.8421,469.1058 604.0324,501.6323 " fill="none" id="openstack_nodes_SecurityGroupRule_NT-to-openstack_nodes_SecurityGroup_NT" style="stroke:#A80036;stroke-width:1.0;stroke-dasharray:7.0,7.0;"/><polygon fill="#A80036" points="600.9051,505.5735,609.6328,501.0098,604.0131,501.6568,603.3661,496.0371,600.9051,505.5735" style="stroke:#A80036;stroke-width:1.0;"/><text fill="#000000" font-family="sans-serif" font-size="13" lengthAdjust="spacing" textLength="129" x="637.5" y="472.5684">security_group.node</text><!--MD5=[9815146603a29dc4079c9d23565fea6e]
reverse link tosca_interfaces_node_lifecycle_Standard_IT to openstack_nodes_SecurityGroupRule_NT--><path codeLine="66" d="M682.2859,60.5223 C705.4573,67.6449 724.6882,75.8728 733.5,85 C754.2064,106.4476 766.2127,135.376 773.0206,164.396 " fill="none" id="tosca_interfaces_node_lifecycle_Standard_IT-backto-openstack_nodes_SecurityGroupRule_NT" style="stroke:#A80036;stroke-width:1.0;stroke-dasharray:7.0,7.0;"/><polygon fill="none" points="680.315,67.2395,662.9818,55.051,684.1327,53.7701,680.315,67.2395" style="stroke:#A80036;stroke-width:1.0;"/><text fill="#000000" font-family="sans-serif" font-size="13" lengthAdjust="spacing" textLength="55" x="747.5" y="98.5684">Standard</text><!--MD5=[ecae3f4280cf5ff4966412b8220aa440]
reverse link tosca_nodes_Compute_NT to openstack_nodes_Compute_NT--><path codeLine="67" d="M280.5,75.5018 C280.5,91.8758 280.5,111.4546 280.5,131.9221 " fill="none" id="tosca_nodes_Compute_NT-backto-openstack_nodes_Compute_NT" style="stroke:#A80036;stroke-width:1.0;"/><polygon fill="none" points="273.5001,75.3774,280.5,55.3774,287.5001,75.3774,273.5001,75.3774" style="stroke:#A80036;stroke-width:1.0;"/><!--MD5=[ba4a4e6152bfd8171d53be2f7221ee18]
reverse link openstack_nodes_Compute_NT to tosca_capabilities_Node_CT--><path codeLine="68" d="M477.4122,139.0227 C482.437,136.5663 487.4702,134.2196 492.5,132 C522.2918,118.8529 531.6334,119.5772 564,116 C734.443,97.1624 785.3878,82.272 949.5,132 C1039.5573,159.2885 1132.372,221.9205 1179.2851,256.4901 " fill="none" id="openstack_nodes_Compute_NT-backto-tosca_capabilities_Node_CT" style="stroke:#A80036;stroke-width:1.0;"/><polygon fill="#A80036" points="465.7084,144.9456,472.8681,145.8054,476.4154,139.5271,469.2558,138.6674,465.7084,144.9456" style="stroke:#A80036;stroke-width:1.0;"/><text fill="#000000" font-family="sans-serif" font-size="13" lengthAdjust="spacing" textLength="159" x="565" y="98.5684">security_group.capability</text><text fill="#000000" font-family="sans-serif" font-size="13" lengthAdjust="spacing" textLength="22" x="1145.9398" y="245.6319">1..*</text><!--MD5=[05d375716c15401923206763a388d1f4]
link openstack_nodes_Compute_NT to openstack_relationships_ComputeToSecurityGroup_RT--><path codeLine="69" d="M174.5695,429.1428 C170.2524,438.9796 166.4943,448.9698 163.5,459 C153.6476,492.0037 156.7117,531.895 160.7312,558.4962 " fill="none" id="openstack_nodes_Compute_NT-to-openstack_relationships_ComputeToSecurityGroup_RT" style="stroke:#A80036;stroke-width:1.0;stroke-dasharray:7.0,7.0;"/><polygon fill="#A80036" points="161.5443,563.6333,164.0877,554.1185,160.7624,558.6948,156.1861,555.3695,161.5443,563.6333" style="stroke:#A80036;stroke-width:1.0;"/><text fill="#000000" font-family="sans-serif" font-size="13" lengthAdjust="spacing" textLength="173" x="164.5" y="472.5684">security_group.relationship</text><!--MD5=[67b4e842c50c4ae3add86f8968755949]
link openstack_nodes_Compute_NT to openstack_nodes_SecurityGroup_NT--><path codeLine="70" d="M345.0706,429.0283 C355.1211,445.6565 366.2796,461.7222 378.5,476 C386.3105,485.1255 395.0151,493.8928 404.2099,502.2232 " fill="none" id="openstack_nodes_Compute_NT-to-openstack_nodes_SecurityGroup_NT" style="stroke:#A80036;stroke-width:1.0;stroke-dasharray:7.0,7.0;"/><polygon fill="#A80036" points="408.1794,505.7663,404.129,496.7889,404.4493,502.4366,398.8016,502.757,408.1794,505.7663" style="stroke:#A80036;stroke-width:1.0;"/><text fill="#000000" font-family="sans-serif" font-size="13" lengthAdjust="spacing" textLength="129" x="379.5" y="472.5684">security_group.node</text><!--MD5=[2e311af3eb5c5ad65beee09736da0b1c]
reverse link tosca_interfaces_node_lifecycle_Standard_IT to openstack_nodes_Compute_NT--><path codeLine="71" d="M476.4479,66.5414 C468.1377,72.3578 459.9117,78.5903 452.5,85 C435.8305,99.4159 419.2724,115.4309 403.3878,131.9132 " fill="none" id="tosca_interfaces_node_lifecycle_Standard_IT-backto-openstack_nodes_Compute_NT" style="stroke:#A80036;stroke-width:1.0;stroke-dasharray:7.0,7.0;"/><polygon fill="none" points="472.8626,60.519,493.3901,55.2633,480.6204,72.173,472.8626,60.519" style="stroke:#A80036;stroke-width:1.0;"/><text fill="#000000" font-family="sans-serif" font-size="13" lengthAdjust="spacing" textLength="55" x="453.5" y="98.5684">Standard</text><!--MD5=[b56aa3639b194191d3d5fc13dc2623a7]
@startuml
set namespaceSeparator none
class "tosca.nodes.Root" as tosca_nodes_Root_NT << (N,green) >> #DDDDDD
class "openstack.nodes.SecurityGroup" as openstack_nodes_SecurityGroup_NT << (N,green) >> {
.. attributes ..
+<b>id : string
.. properties ..
+<b>name : string
+description : string
- -
.. interface Standard ..
+create()
 implementation: ../ansible/group- -create.yaml
}
class "tosca.interfaces.node.lifecycle.Standard" as tosca_interfaces_node_lifecycle_Standard_IT << (I,green) >> #DDDDDD
class "tosca.nodes.Root" as tosca_nodes_Root_NT << (N,green) >> #DDDDDD
class "openstack.nodes.SecurityGroupRule" as openstack_nodes_SecurityGroupRule_NT << (N,green) >> {
.. attributes ..
+<b>id : string
.. properties ..
+<b>protocol : string
+<b>remote_ip_prefix : string
.. requirements ..
+<b>security_group
 capability : tosca.capabilities.Node[1]
 relationship : tosca.relationships.DependsOn
 node : openstack.nodes.SecurityGroup
- -
.. interface Standard ..
+create()
 implementation: ../ansible/group-rule- -create.yaml
}
class "tosca.capabilities.Node" as tosca_capabilities_Node_CT << (C,green) >> #DDDDDD
class "tosca.relationships.DependsOn" as tosca_relationships_DependsOn_RT << (R,green) >> #DDDDDD
class "tosca.interfaces.node.lifecycle.Standard" as tosca_interfaces_node_lifecycle_Standard_IT << (I,green) >> #DDDDDD
class "tosca.nodes.Compute" as tosca_nodes_Compute_NT << (N,green) >> #DDDDDD
class "openstack.nodes.Compute" as openstack_nodes_Compute_NT << (N,green) >> {
.. attributes ..
+<b>id : string
+<b>security_groups : list<string> = []
.. properties ..
+<b>name : string
+<b>image : string
+<b>flavor : string
+<b>network : string
+<b>floating_ip_pool : string
+<b>key_name : string
.. requirements ..
+<b>security_group
 capability : tosca.capabilities.Node[1..*]
 relationship : openstack.relationships.ComputeToSecurityGroup
 node : openstack.nodes.SecurityGroup
- -
.. interface Standard ..
+create()
 implementation: ../ansible/compute- -create.yaml
}
class "tosca.capabilities.Node" as tosca_capabilities_Node_CT << (C,green) >> #DDDDDD
class "openstack.relationships.ComputeToSecurityGroup" as openstack_relationships_ComputeToSecurityGroup_RT << (R,green) >> #DDDDDD
class "tosca.interfaces.node.lifecycle.Standard" as tosca_interfaces_node_lifecycle_Standard_IT << (I,green) >> #DDDDDD
tosca_nodes_Root_NT <|- - openstack_nodes_SecurityGroup_NT
tosca_interfaces_node_lifecycle_Standard_IT <|.. openstack_nodes_SecurityGroup_NT : Standard
tosca_nodes_Root_NT <|- - openstack_nodes_SecurityGroupRule_NT
openstack_nodes_SecurityGroupRule_NT *- "1" tosca_capabilities_Node_CT : security_group.capability
openstack_nodes_SecurityGroupRule_NT ..> tosca_relationships_DependsOn_RT : security_group.relationship
openstack_nodes_SecurityGroupRule_NT ..> openstack_nodes_SecurityGroup_NT : security_group.node
tosca_interfaces_node_lifecycle_Standard_IT <|.. openstack_nodes_SecurityGroupRule_NT : Standard
tosca_nodes_Compute_NT <|- - openstack_nodes_Compute_NT
openstack_nodes_Compute_NT *- "1..*" tosca_capabilities_Node_CT : security_group.capability
openstack_nodes_Compute_NT ..> openstack_relationships_ComputeToSecurityGroup_RT : security_group.relationship
openstack_nodes_Compute_NT ..> openstack_nodes_SecurityGroup_NT : security_group.node
tosca_interfaces_node_lifecycle_Standard_IT <|.. openstack_nodes_Compute_NT : Standard
@enduml

PlantUML version 1.2021.13(Mon Nov 01 12:38:45 CET 2021)
(GPL source distribution)
Java Runtime: Java(TM) SE Runtime Environment
JVM: Java HotSpot(TM) 64-Bit Server VM
Default Encoding: UTF-8
Language: fr
Country: FR
--></g></svg>