<?xml version="1.0" encoding="UTF-8" standalone="no"?><svg xmlns="http://www.w3.org/2000/svg" xmlns:xlink="http://www.w3.org/1999/xlink" contentScriptType="application/ecmascript" contentStyleType="text/css" height="219px" preserveAspectRatio="none" style="width:497px;height:219px;background:#FFFFFF;" version="1.1" viewBox="0 0 497 219" width="497px" zoomAndPan="magnify"><defs><filter height="300%" id="fk82th0mmpsfw" width="300%" x="-1" y="-1"><feGaussianBlur result="blurOut" stdDeviation="2.0"/><feColorMatrix in="blurOut" result="blurOut2" type="matrix" values="0 0 0 0 0 0 0 0 0 0 0 0 0 0 0 0 0 0 .4 0"/><feOffset dx="4.0" dy="4.0" in="blurOut2" result="blurOut3"/><feBlend in="SourceGraphic" in2="blurOut3" mode="normal"/></filter></defs><g><!--MD5=[c91485d2278f9f1bf31fdc35ad2630d3]
class tosca_relationships_DependsOn_RT--><rect codeLine="2" fill="#DDDDDD" filter="url(#fk82th0mmpsfw)" height="48" id="tosca_relationships_DependsOn_RT" style="stroke:#A80036;stroke-width:1.5;" width="211" x="139.5" y="7"/><ellipse cx="154.5" cy="23" fill="#008000" rx="11" ry="11" style="stroke:#A80036;stroke-width:1.0;"/><path d="M155.6987,23.1479 Q156.064,23.2227 156.3337,23.4924 Q156.6035,23.7622 156.9937,24.5425 L159.2349,29 L156.5454,29 L155.0513,25.8706 Q154.9849,25.7378 154.877,25.5054 Q154.2212,24.1025 153.333,24.1025 L152.5527,24.1025 L152.5527,29 L150.104,29 L150.104,16.6069 L153.6401,16.6069 Q156.0308,16.6069 157.0725,17.4536 Q158.1143,18.3003 158.1143,20.2095 Q158.1143,21.4878 157.4917,22.2432 Q156.8691,22.9985 155.6987,23.1479 Z M152.5527,18.6655 L152.5527,22.0439 L153.7065,22.0439 Q154.7109,22.0439 155.1467,21.6497 Q155.5825,21.2554 155.5825,20.3506 Q155.5825,19.4458 155.1509,19.0557 Q154.7192,18.6655 153.7065,18.6655 Z " fill="#000000"/><text fill="#000000" font-family="sans-serif" font-size="12" lengthAdjust="spacing" textLength="179" x="168.5" y="27.5352">tosca.relationships.DependsOn</text><line style="stroke:#A80036;stroke-width:1.5;" x1="140.5" x2="349.5" y1="39" y2="39"/><line style="stroke:#A80036;stroke-width:1.5;" x1="140.5" x2="349.5" y1="47" y2="47"/><!--MD5=[f415caa3f1886eac3010b45b0d774fd0]
class openstack_relationships_ComputeToSecurityGroup_RT--><rect codeLine="3" fill="#FEFECE" filter="url(#fk82th0mmpsfw)" height="90.8652" id="openstack_relationships_ComputeToSecurityGroup_RT" style="stroke:#A80036;stroke-width:1.5;" width="476" x="7" y="115"/><ellipse cx="97.25" cy="131" fill="#008000" rx="11" ry="11" style="stroke:#A80036;stroke-width:1.0;"/><path d="M98.4487,131.1479 Q98.814,131.2227 99.0837,131.4924 Q99.3535,131.7622 99.7437,132.5425 L101.9849,137 L99.2954,137 L97.8013,133.8706 Q97.7349,133.7378 97.627,133.5054 Q96.9712,132.1025 96.083,132.1025 L95.3027,132.1025 L95.3027,137 L92.854,137 L92.854,124.6069 L96.3901,124.6069 Q98.7808,124.6069 99.8225,125.4536 Q100.8643,126.3003 100.8643,128.2095 Q100.8643,129.4878 100.2417,130.2432 Q99.6191,130.9985 98.4487,131.1479 Z M95.3027,126.6655 L95.3027,130.0439 L96.4565,130.0439 Q97.4609,130.0439 97.8967,129.6497 Q98.3325,129.2554 98.3325,128.3506 Q98.3325,127.4458 97.9009,127.0557 Q97.4692,126.6655 96.4565,126.6655 Z " fill="#000000"/><text fill="#000000" font-family="sans-serif" font-size="12" lengthAdjust="spacing" textLength="287" x="117.75" y="135.5352">openstack.relationships.ComputeToSecurityGroup</text><line style="stroke:#A80036;stroke-width:1.5;" x1="8" x2="482" y1="147" y2="147"/><line style="stroke:#A80036;stroke-width:1.0;" x1="8" x2="482" y1="155" y2="155"/><ellipse cx="18" cy="182.9551" fill="#84BE84" rx="3" ry="3" style="stroke:#038048;stroke-width:1.0;"/><text fill="#000000" font-family="sans-serif" font-size="11" lengthAdjust="spacing" textLength="127" x="27" y="186.5898">pre_configure_source()</text><text fill="#000000" font-family="sans-serif" font-size="11" lengthAdjust="spacing" textLength="450" x="27" y="199.5449">implementation: ../ansible/compute-to-security-group--preconfigure-source.yaml</text><line style="stroke:#A80036;stroke-width:1.0;stroke-dasharray:1.0,2.0;" x1="8" x2="193" y1="169.4775" y2="169.4775"/><text fill="#000000" font-family="sans-serif" font-size="11" lengthAdjust="spacing" textLength="104" x="193" y="173.1348">interface Configure</text><line style="stroke:#A80036;stroke-width:1.0;stroke-dasharray:1.0,2.0;" x1="297" x2="482" y1="169.4775" y2="169.4775"/><!--MD5=[654da1b3a0999f9aff59bda8043d1077]
reverse link tosca_relationships_DependsOn_RT to openstack_relationships_ComputeToSecurityGroup_RT--><path codeLine="9" d="M245,75.0716 C245,87.8863 245,101.9083 245,114.8197 " fill="none" id="tosca_relationships_DependsOn_RT-backto-openstack_relationships_ComputeToSecurityGroup_RT" style="stroke:#A80036;stroke-width:1.0;"/><polygon fill="none" points="238.0001,75.0545,245,55.0545,252.0001,75.0544,238.0001,75.0545" style="stroke:#A80036;stroke-width:1.0;"/><!--MD5=[c58b7c99f8c83ce40e9d180276f71044]
@startuml
set namespaceSeparator none
class "tosca.relationships.DependsOn" as tosca_relationships_DependsOn_RT << (R,green) >> #DDDDDD
class "openstack.relationships.ComputeToSecurityGroup" as openstack_relationships_ComputeToSecurityGroup_RT << (R,green) >> {
- -
.. interface Configure ..
+pre_configure_source()
 implementation: ../ansible/compute-to-security-group- -preconfigure-source.yaml
}
tosca_relationships_DependsOn_RT <|- - openstack_relationships_ComputeToSecurityGroup_RT
@enduml

PlantUML version 1.2021.13(Mon Nov 01 12:38:45 CET 2021)
(GPL source distribution)
Java Runtime: Java(TM) SE Runtime Environment
JVM: Java HotSpot(TM) 64-Bit Server VM
Default Encoding: UTF-8
Language: fr
Country: FR
--></g></svg>