<?xml version="1.0" encoding="UTF-8" standalone="no"?><svg xmlns="http://www.w3.org/2000/svg" xmlns:xlink="http://www.w3.org/1999/xlink" contentScriptType="application/ecmascript" contentStyleType="text/css" height="520px" preserveAspectRatio="none" style="width:2333px;height:520px;background:#FFFFFF;" version="1.1" viewBox="0 0 2333 520" width="2333px" zoomAndPan="magnify"><defs><filter height="300%" id="fto7mj31y8w8f" width="300%" x="-1" y="-1"><feGaussianBlur result="blurOut" stdDeviation="2.0"/><feColorMatrix in="blurOut" result="blurOut2" type="matrix" values="0 0 0 0 0 0 0 0 0 0 0 0 0 0 0 0 0 0 .4 0"/><feOffset dx="4.0" dy="4.0" in="blurOut2" result="blurOut3"/><feBlend in="SourceGraphic" in2="blurOut3" mode="normal"/></filter></defs><g><!--MD5=[df7bd63c7c6d51823b3f9adbfe87d5ad]
class tosca_capabilities_Node_CT--><rect codeLine="2" fill="#DDDDDD" filter="url(#fto7mj31y8w8f)" height="48" id="tosca_capabilities_Node_CT" style="stroke:#A80036;stroke-width:1.5;" width="166" x="426.5" y="7"/><ellipse cx="441.5" cy="23" fill="#008000" rx="11" ry="11" style="stroke:#A80036;stroke-width:1.0;"/><path d="M444.4731,28.6431 Q443.8921,28.9419 443.2529,29.0913 Q442.6138,29.2407 441.9082,29.2407 Q439.4014,29.2407 438.0815,27.5889 Q436.7617,25.937 436.7617,22.8159 Q436.7617,19.6865 438.0815,18.0347 Q439.4014,16.3828 441.9082,16.3828 Q442.6138,16.3828 443.2612,16.5322 Q443.9087,16.6816 444.4731,16.9805 L444.4731,19.7031 Q443.8423,19.1221 443.2488,18.8523 Q442.6553,18.5825 442.0244,18.5825 Q440.6797,18.5825 439.9949,19.6492 Q439.3101,20.7158 439.3101,22.8159 Q439.3101,24.9077 439.9949,25.9744 Q440.6797,27.041 442.0244,27.041 Q442.6553,27.041 443.2488,26.7712 Q443.8423,26.5015 444.4731,25.9204 Z " fill="#000000"/><text fill="#000000" font-family="sans-serif" font-size="12" lengthAdjust="spacing" textLength="134" x="455.5" y="27.5352">tosca.capabilities.Node</text><line style="stroke:#A80036;stroke-width:1.5;" x1="427.5" x2="591.5" y1="39" y2="39"/><line style="stroke:#A80036;stroke-width:1.5;" x1="427.5" x2="591.5" y1="47" y2="47"/><!--MD5=[9f3145c75bd29fdb66294345c41270a1]
class kubetos_capabilities_CNI_CT--><rect codeLine="3" fill="#FEFECE" filter="url(#fto7mj31y8w8f)" height="82.8652" id="kubetos_capabilities_CNI_CT" style="stroke:#A80036;stroke-width:1.5;" width="229" x="395" y="172.5"/><ellipse cx="436.1" cy="188.5" fill="#008000" rx="11" ry="11" style="stroke:#A80036;stroke-width:1.0;"/><path d="M439.0731,194.1431 Q438.4921,194.4419 437.8529,194.5913 Q437.2138,194.7407 436.5082,194.7407 Q434.0014,194.7407 432.6815,193.0889 Q431.3617,191.437 431.3617,188.3159 Q431.3617,185.1865 432.6815,183.5347 Q434.0014,181.8828 436.5082,181.8828 Q437.2138,181.8828 437.8612,182.0322 Q438.5087,182.1816 439.0731,182.4805 L439.0731,185.2031 Q438.4423,184.6221 437.8488,184.3523 Q437.2553,184.0825 436.6244,184.0825 Q435.2797,184.0825 434.5949,185.1492 Q433.9101,186.2158 433.9101,188.3159 Q433.9101,190.4077 434.5949,191.4744 Q435.2797,192.541 436.6244,192.541 Q437.2553,192.541 437.8488,192.2712 Q438.4423,192.0015 439.0731,191.4204 Z " fill="#000000"/><text fill="#000000" font-family="sans-serif" font-size="12" lengthAdjust="spacing" textLength="139" x="455.9" y="193.0352">kubetos.capabilities.CNI</text><line style="stroke:#A80036;stroke-width:1.5;" x1="396" x2="623" y1="204.5" y2="204.5"/><ellipse cx="406" cy="232.4551" rx="3" ry="3" style="stroke:#038048;stroke-width:1.0;fill:none;"/><text fill="#000000" font-family="sans-serif" font-size="11" font-weight="bold" lengthAdjust="spacing" textLength="195" x="415" y="236.0898">binary_dir : string = '/opt/cni/bin'</text><ellipse cx="406" cy="245.4102" rx="3" ry="3" style="stroke:#038048;stroke-width:1.0;fill:none;"/><text fill="#000000" font-family="sans-serif" font-size="11" font-weight="bold" lengthAdjust="spacing" textLength="203" x="415" y="249.0449">config_dir : string = '/etc/cni/net.d'</text><line style="stroke:#A80036;stroke-width:1.0;stroke-dasharray:1.0,2.0;" x1="396" x2="481.5" y1="218.9775" y2="218.9775"/><text fill="#000000" font-family="sans-serif" font-size="11" lengthAdjust="spacing" textLength="56" x="481.5" y="222.6348">properties</text><line style="stroke:#A80036;stroke-width:1.0;stroke-dasharray:1.0,2.0;" x1="537.5" x2="623" y1="218.9775" y2="218.9775"/><!--MD5=[27697265338c4c4e774e642814f1268f]
class tosca_nodes_SoftwareComponent_NT--><rect codeLine="21" fill="#DDDDDD" filter="url(#fto7mj31y8w8f)" height="48" id="tosca_nodes_SoftwareComponent_NT" style="stroke:#A80036;stroke-width:1.5;" width="220" x="1014.5" y="7"/><ellipse cx="1029.5" cy="23" fill="#008000" rx="11" ry="11" style="stroke:#A80036;stroke-width:1.0;"/><path d="M1025.4878,16.6069 L1028.1191,16.6069 L1031.5723,25.6133 L1031.5723,16.6069 L1033.7305,16.6069 L1033.7305,29 L1031.1157,29 L1027.646,19.9937 L1027.646,29 L1025.4878,29 Z " fill="#000000"/><text fill="#000000" font-family="sans-serif" font-size="12" lengthAdjust="spacing" textLength="188" x="1043.5" y="27.5352">tosca.nodes.SoftwareComponent</text><line style="stroke:#A80036;stroke-width:1.5;" x1="1015.5" x2="1233.5" y1="39" y2="39"/><line style="stroke:#A80036;stroke-width:1.5;" x1="1015.5" x2="1233.5" y1="47" y2="47"/><!--MD5=[adc1eb72fb384f5b115e1b8d1e5cec9d]
class kubetos_nodes_CNI_NT--><rect codeLine="9" fill="#FEFECE" filter="url(#fto7mj31y8w8f)" height="163.6406" id="kubetos_nodes_CNI_NT" style="stroke:#A80036;stroke-width:1.5;" width="1339" x="680" y="132"/><ellipse cx="1290.75" cy="148" fill="#008000" rx="11" ry="11" style="stroke:#A80036;stroke-width:1.0;"/><path d="M1286.7378,141.6069 L1289.3691,141.6069 L1292.8223,150.6133 L1292.8223,141.6069 L1294.9805,141.6069 L1294.9805,154 L1292.3657,154 L1288.896,144.9937 L1288.896,154 L1286.7378,154 Z " fill="#000000"/><text fill="#000000" font-family="sans-serif" font-size="12" lengthAdjust="spacing" textLength="109" x="1311.25" y="152.5352">kubetos.nodes.CNI</text><line style="stroke:#A80036;stroke-width:1.5;" x1="681" x2="2018" y1="164" y2="164"/><ellipse cx="691" cy="191.9551" rx="3" ry="3" style="stroke:#038048;stroke-width:1.0;fill:none;"/><text fill="#000000" font-family="sans-serif" font-size="11" lengthAdjust="spacing" textLength="204" x="700" y="195.5898">component_version : version = '1.0.1'</text><line style="stroke:#A80036;stroke-width:1.0;stroke-dasharray:1.0,2.0;" x1="681" x2="1321.5" y1="178.4775" y2="178.4775"/><text fill="#000000" font-family="sans-serif" font-size="11" lengthAdjust="spacing" textLength="56" x="1321.5" y="182.1348">properties</text><line style="stroke:#A80036;stroke-width:1.0;stroke-dasharray:1.0,2.0;" x1="1377.5" x2="2018" y1="178.4775" y2="178.4775"/><ellipse cx="691" cy="221.8652" rx="3" ry="3" style="stroke:#038048;stroke-width:1.0;fill:none;"/><text fill="#000000" font-family="sans-serif" font-size="11" lengthAdjust="spacing" textLength="16" x="700" y="225.5">cni</text><text fill="#000000" font-family="sans-serif" font-size="11" lengthAdjust="spacing" textLength="186" x="700" y="238.4551">type : kubetos.capabilities.CNI[1..*]</text><line style="stroke:#A80036;stroke-width:1.0;stroke-dasharray:1.0,2.0;" x1="681" x2="1319.5" y1="208.3877" y2="208.3877"/><text fill="#000000" font-family="sans-serif" font-size="11" lengthAdjust="spacing" textLength="60" x="1319.5" y="212.0449">capabilities</text><line style="stroke:#A80036;stroke-width:1.0;stroke-dasharray:1.0,2.0;" x1="1379.5" x2="2018" y1="208.3877" y2="208.3877"/><line style="stroke:#A80036;stroke-width:1.0;" x1="681" x2="2018" y1="244.7754" y2="244.7754"/><ellipse cx="691" cy="272.7305" fill="#84BE84" rx="3" ry="3" style="stroke:#038048;stroke-width:1.0;"/><text fill="#000000" font-family="sans-serif" font-size="11" lengthAdjust="spacing" textLength="41" x="700" y="276.3652">create()</text><text fill="#000000" font-family="sans-serif" font-size="11" lengthAdjust="spacing" textLength="1313" x="700" y="289.3203">implementation: {'primary': 'ansible/cni--create.yaml', 'dependencies': [{'file': 'ansible/roles/cni', 'type': 'tosca.artifacts.File', 'deploy_path': 'roles/cni'}, {'file': '../../utils/roles/download', 'type': 'tosca.artifacts.File', 'deploy_path': 'roles/download'}]}</text><line style="stroke:#A80036;stroke-width:1.0;stroke-dasharray:1.0,2.0;" x1="681" x2="1300.5" y1="259.2529" y2="259.2529"/><text fill="#000000" font-family="sans-serif" font-size="11" lengthAdjust="spacing" textLength="98" x="1300.5" y="262.9102">interface Standard</text><line style="stroke:#A80036;stroke-width:1.0;stroke-dasharray:1.0,2.0;" x1="1398.5" x2="2018" y1="259.2529" y2="259.2529"/><!--MD5=[8961be65b4d10f5813b5d4193358a40e]
class tosca_interfaces_node_lifecycle_Standard_IT--><rect codeLine="51" fill="#DDDDDD" filter="url(#fto7mj31y8w8f)" height="48" id="tosca_interfaces_node_lifecycle_Standard_IT" style="stroke:#A80036;stroke-width:1.5;" width="260" x="1959.5" y="7"/><ellipse cx="1974.5" cy="23" fill="#008000" rx="11" ry="11" style="stroke:#A80036;stroke-width:1.0;"/><path d="M1970.4277,18.7651 L1970.4277,16.6069 L1977.8071,16.6069 L1977.8071,18.7651 L1975.3418,18.7651 L1975.3418,26.8418 L1977.8071,26.8418 L1977.8071,29 L1970.4277,29 L1970.4277,26.8418 L1972.8931,26.8418 L1972.8931,18.7651 Z " fill="#000000"/><text fill="#000000" font-family="sans-serif" font-size="12" lengthAdjust="spacing" textLength="228" x="1988.5" y="27.5352">tosca.interfaces.node.lifecycle.Standard</text><line style="stroke:#A80036;stroke-width:1.5;" x1="1960.5" x2="2218.5" y1="39" y2="39"/><line style="stroke:#A80036;stroke-width:1.5;" x1="1960.5" x2="2218.5" y1="47" y2="47"/><!--MD5=[3121775f371f7ed078d22ac30f887414]
class kubetos_nodes_CNI_Plugin_NT--><rect codeLine="22" fill="#FEFECE" filter="url(#fto7mj31y8w8f)" height="151.6406" id="kubetos_nodes_CNI_Plugin_NT" style="stroke:#A80036;stroke-width:1.5;" width="267" x="7" y="138"/><ellipse cx="62.75" cy="154" fill="#008000" rx="11" ry="11" style="stroke:#A80036;stroke-width:1.0;"/><path d="M58.7378,147.6069 L61.3691,147.6069 L64.8223,156.6133 L64.8223,147.6069 L66.9805,147.6069 L66.9805,160 L64.3657,160 L60.896,150.9937 L60.896,160 L58.7378,160 Z " fill="#000000"/><text fill="#000000" font-family="sans-serif" font-size="12" lengthAdjust="spacing" textLength="147" x="83.25" y="158.5352">kubetos.nodes.CNI.Plugin</text><line style="stroke:#A80036;stroke-width:1.5;" x1="8" x2="273" y1="170" y2="170"/><ellipse cx="18" cy="197.9551" rx="3" ry="3" style="stroke:#038048;stroke-width:1.0;fill:none;"/><text fill="#000000" font-family="sans-serif" font-size="11" font-weight="bold" lengthAdjust="spacing" textLength="118" x="27" y="201.5898">cni_version : version</text><ellipse cx="18" cy="210.9102" rx="3" ry="3" style="stroke:#038048;stroke-width:1.0;fill:none;"/><text fill="#000000" font-family="sans-serif" font-size="11" font-weight="bold" lengthAdjust="spacing" textLength="74" x="27" y="214.5449">name : string</text><ellipse cx="18" cy="223.8652" rx="3" ry="3" style="stroke:#038048;stroke-width:1.0;fill:none;"/><text fill="#000000" font-family="sans-serif" font-size="11" font-weight="bold" lengthAdjust="spacing" textLength="67" x="27" y="227.5">type : string</text><line style="stroke:#A80036;stroke-width:1.0;stroke-dasharray:1.0,2.0;" x1="8" x2="112.5" y1="184.4775" y2="184.4775"/><text fill="#000000" font-family="sans-serif" font-size="11" lengthAdjust="spacing" textLength="56" x="112.5" y="188.1348">properties</text><line style="stroke:#A80036;stroke-width:1.0;stroke-dasharray:1.0,2.0;" x1="168.5" x2="273" y1="184.4775" y2="184.4775"/><ellipse cx="18" cy="253.7754" rx="3" ry="3" style="stroke:#038048;stroke-width:1.0;fill:none;"/><text fill="#000000" font-family="sans-serif" font-size="11" font-weight="bold" lengthAdjust="spacing" textLength="17" x="27" y="257.4102">cni</text><text fill="#000000" font-family="sans-serif" font-size="11" lengthAdjust="spacing" textLength="203" x="27" y="270.3652">capability : kubetos.capabilities.CNI[1]</text><text fill="#000000" font-family="sans-serif" font-size="11" lengthAdjust="spacing" textLength="241" x="27" y="283.3203">relationship : tosca.relationships.DependsOn</text><line style="stroke:#A80036;stroke-width:1.0;stroke-dasharray:1.0,2.0;" x1="8" x2="104.5" y1="240.2979" y2="240.2979"/><text fill="#000000" font-family="sans-serif" font-size="11" lengthAdjust="spacing" textLength="72" x="104.5" y="243.9551">requirements</text><line style="stroke:#A80036;stroke-width:1.0;stroke-dasharray:1.0,2.0;" x1="176.5" x2="273" y1="240.2979" y2="240.2979"/><!--MD5=[c91485d2278f9f1bf31fdc35ad2630d3]
class tosca_relationships_DependsOn_RT--><rect codeLine="32" fill="#DDDDDD" filter="url(#fto7mj31y8w8f)" height="48" id="tosca_relationships_DependsOn_RT" style="stroke:#A80036;stroke-width:1.5;" width="211" x="35" y="416"/><ellipse cx="50" cy="432" fill="#008000" rx="11" ry="11" style="stroke:#A80036;stroke-width:1.0;"/><path d="M51.1987,432.1479 Q51.564,432.2227 51.8337,432.4924 Q52.1035,432.7622 52.4937,433.5425 L54.7349,438 L52.0454,438 L50.5513,434.8706 Q50.4849,434.7378 50.377,434.5054 Q49.7212,433.1025 48.833,433.1025 L48.0527,433.1025 L48.0527,438 L45.604,438 L45.604,425.6069 L49.1401,425.6069 Q51.5308,425.6069 52.5725,426.4536 Q53.6143,427.3003 53.6143,429.2095 Q53.6143,430.4878 52.9917,431.2432 Q52.3691,431.9985 51.1987,432.1479 Z M48.0527,427.6655 L48.0527,431.0439 L49.2065,431.0439 Q50.2109,431.0439 50.6467,430.6497 Q51.0825,430.2554 51.0825,429.3506 Q51.0825,428.4458 50.6509,428.0557 Q50.2192,427.6655 49.2065,427.6655 Z " fill="#000000"/><text fill="#000000" font-family="sans-serif" font-size="12" lengthAdjust="spacing" textLength="179" x="64" y="436.5352">tosca.relationships.DependsOn</text><line style="stroke:#A80036;stroke-width:1.5;" x1="36" x2="245" y1="448" y2="448"/><line style="stroke:#A80036;stroke-width:1.5;" x1="36" x2="245" y1="456" y2="456"/><!--MD5=[59f379e4555ee9ed3e255d0f8ee9adcd]
class kubetos_nodes_CNI_Plugin_Bridge_NT--><rect codeLine="33" fill="#FEFECE" filter="url(#fto7mj31y8w8f)" height="133.7305" id="kubetos_nodes_CNI_Plugin_Bridge_NT" style="stroke:#A80036;stroke-width:1.5;" width="588" x="1731.5" y="373"/><ellipse cx="1927.25" cy="389" fill="#008000" rx="11" ry="11" style="stroke:#A80036;stroke-width:1.0;"/><path d="M1923.2378,382.6069 L1925.8691,382.6069 L1929.3223,391.6133 L1929.3223,382.6069 L1931.4805,382.6069 L1931.4805,395 L1928.8657,395 L1925.396,385.9937 L1925.396,395 L1923.2378,395 Z " fill="#000000"/><text fill="#000000" font-family="sans-serif" font-size="12" lengthAdjust="spacing" textLength="188" x="1947.75" y="393.5352">kubetos.nodes.CNI.Plugin.Bridge</text><line style="stroke:#A80036;stroke-width:1.5;" x1="1732.5" x2="2318.5" y1="405" y2="405"/><ellipse cx="1742.5" cy="432.9551" rx="3" ry="3" style="stroke:#038048;stroke-width:1.0;fill:none;"/><text fill="#000000" font-family="sans-serif" font-size="11" font-weight="bold" lengthAdjust="spacing" textLength="126" x="1751.5" y="436.5898">type : string = 'bridge'</text><ellipse cx="1742.5" cy="445.9102" rx="3" ry="3" style="stroke:#038048;stroke-width:1.0;fill:none;"/><text fill="#000000" font-family="sans-serif" font-size="11" font-weight="bold" lengthAdjust="spacing" textLength="81" x="1751.5" y="449.5449">subnet : string</text><line style="stroke:#A80036;stroke-width:1.0;stroke-dasharray:1.0,2.0;" x1="1732.5" x2="1997.5" y1="419.4775" y2="419.4775"/><text fill="#000000" font-family="sans-serif" font-size="11" lengthAdjust="spacing" textLength="56" x="1997.5" y="423.1348">properties</text><line style="stroke:#A80036;stroke-width:1.0;stroke-dasharray:1.0,2.0;" x1="2053.5" x2="2318.5" y1="419.4775" y2="419.4775"/><line style="stroke:#A80036;stroke-width:1.0;" x1="1732.5" x2="2318.5" y1="455.8652" y2="455.8652"/><ellipse cx="1742.5" cy="483.8203" fill="#84BE84" rx="3" ry="3" style="stroke:#038048;stroke-width:1.0;"/><text fill="#000000" font-family="sans-serif" font-size="11" lengthAdjust="spacing" textLength="41" x="1751.5" y="487.4551">create()</text><text fill="#000000" font-family="sans-serif" font-size="11" lengthAdjust="spacing" textLength="562" x="1751.5" y="500.4102">implementation: {'primary': 'ansible/bridge--create.yaml', 'dependencies': ['ansible/files/bridge.conf.j2']}</text><line style="stroke:#A80036;stroke-width:1.0;stroke-dasharray:1.0,2.0;" x1="1732.5" x2="1976.5" y1="470.3428" y2="470.3428"/><text fill="#000000" font-family="sans-serif" font-size="11" lengthAdjust="spacing" textLength="98" x="1976.5" y="474">interface Standard</text><line style="stroke:#A80036;stroke-width:1.0;stroke-dasharray:1.0,2.0;" x1="2074.5" x2="2318.5" y1="470.3428" y2="470.3428"/><!--MD5=[d2b3733b37aa491fd7aaf03f71c06de5]
class kubetos_nodes_CNI_Plugin_Loopback_NT--><rect codeLine="43" fill="#FEFECE" filter="url(#fto7mj31y8w8f)" height="120.7754" id="kubetos_nodes_CNI_Plugin_Loopback_NT" style="stroke:#A80036;stroke-width:1.5;" width="616" x="585.5" y="379.5"/><ellipse cx="785.75" cy="395.5" fill="#008000" rx="11" ry="11" style="stroke:#A80036;stroke-width:1.0;"/><path d="M781.7378,389.1069 L784.3691,389.1069 L787.8223,398.1133 L787.8223,389.1069 L789.9805,389.1069 L789.9805,401.5 L787.3657,401.5 L783.896,392.4937 L783.896,401.5 L781.7378,401.5 Z " fill="#000000"/><text fill="#000000" font-family="sans-serif" font-size="12" lengthAdjust="spacing" textLength="207" x="806.25" y="400.0352">kubetos.nodes.CNI.Plugin.Loopback</text><line style="stroke:#A80036;stroke-width:1.5;" x1="586.5" x2="1200.5" y1="411.5" y2="411.5"/><ellipse cx="596.5" cy="439.4551" rx="3" ry="3" style="stroke:#038048;stroke-width:1.0;fill:none;"/><text fill="#000000" font-family="sans-serif" font-size="11" font-weight="bold" lengthAdjust="spacing" textLength="141" x="605.5" y="443.0898">type : string = 'loopback'</text><line style="stroke:#A80036;stroke-width:1.0;stroke-dasharray:1.0,2.0;" x1="586.5" x2="865.5" y1="425.9775" y2="425.9775"/><text fill="#000000" font-family="sans-serif" font-size="11" lengthAdjust="spacing" textLength="56" x="865.5" y="429.6348">properties</text><line style="stroke:#A80036;stroke-width:1.0;stroke-dasharray:1.0,2.0;" x1="921.5" x2="1200.5" y1="425.9775" y2="425.9775"/><line style="stroke:#A80036;stroke-width:1.0;" x1="586.5" x2="1200.5" y1="449.4102" y2="449.4102"/><ellipse cx="596.5" cy="477.3652" fill="#84BE84" rx="3" ry="3" style="stroke:#038048;stroke-width:1.0;"/><text fill="#000000" font-family="sans-serif" font-size="11" lengthAdjust="spacing" textLength="41" x="605.5" y="481">create()</text><text fill="#000000" font-family="sans-serif" font-size="11" lengthAdjust="spacing" textLength="590" x="605.5" y="493.9551">implementation: {'primary': 'ansible/loopback--create.yaml', 'dependencies': ['ansible/files/loopback.conf.j2']}</text><line style="stroke:#A80036;stroke-width:1.0;stroke-dasharray:1.0,2.0;" x1="586.5" x2="844.5" y1="463.8877" y2="463.8877"/><text fill="#000000" font-family="sans-serif" font-size="11" lengthAdjust="spacing" textLength="98" x="844.5" y="467.5449">interface Standard</text><line style="stroke:#A80036;stroke-width:1.0;stroke-dasharray:1.0,2.0;" x1="942.5" x2="1200.5" y1="463.8877" y2="463.8877"/><!--MD5=[a2c0454347686e3fa56a9faa12db85e5]
reverse link tosca_capabilities_Node_CT to kubetos_capabilities_CNI_CT--><path codeLine="52" d="M509.5,75.3852 C509.5,104.9198 509.5,143.4607 509.5,172.4038 " fill="none" id="tosca_capabilities_Node_CT-backto-kubetos_capabilities_CNI_CT" style="stroke:#A80036;stroke-width:1.0;"/><polygon fill="none" points="502.5001,75.301,509.5,55.301,516.5001,75.301,502.5001,75.301" style="stroke:#A80036;stroke-width:1.0;"/><!--MD5=[a9824de1fe11ab01ef68027d484bd3b7]
reverse link tosca_nodes_SoftwareComponent_NT to kubetos_nodes_CNI_NT--><path codeLine="53" d="M1170.1405,68.1209 C1192.8104,86.5591 1221.1649,109.6208 1248.5907,131.9271 " fill="none" id="tosca_nodes_SoftwareComponent_NT-backto-kubetos_nodes_CNI_NT" style="stroke:#A80036;stroke-width:1.0;"/><polygon fill="none" points="1165.4773,73.3513,1154.3783,55.301,1174.3111,62.4901,1165.4773,73.3513" style="stroke:#A80036;stroke-width:1.0;"/><!--MD5=[fde916aee604f4ee44ca60aff34bd730]
link kubetos_capabilities_CNI_CT to kubetos_nodes_CNI_NT--><path codeLine="54" d="M624.0984,214 C637.3802,214 651.549,214 666.458,214 " fill="none" id="kubetos_capabilities_CNI_CT-to-kubetos_nodes_CNI_NT" style="stroke:#A80036;stroke-width:1.0;"/><polygon fill="#A80036" points="679.7466,214,673.7466,210,667.7466,214,673.7466,218,679.7466,214" style="stroke:#A80036;stroke-width:1.0;"/><text fill="#000000" font-family="sans-serif" font-size="13" lengthAdjust="spacing" textLength="19" x="642.5" y="207.5684">cni</text><text fill="#000000" font-family="sans-serif" font-size="13" lengthAdjust="spacing" textLength="22" x="632.1445" y="227.0631">1..*</text><!--MD5=[1ed42eca799495730c207c943683ccd9]
reverse link tosca_interfaces_node_lifecycle_Standard_IT to kubetos_nodes_CNI_NT--><path codeLine="55" d="M1972.7224,59.8788 C1893.8279,79.3892 1785.4095,106.2008 1681.1052,131.9949 " fill="none" id="tosca_interfaces_node_lifecycle_Standard_IT-backto-kubetos_nodes_CNI_NT" style="stroke:#A80036;stroke-width:1.0;stroke-dasharray:7.0,7.0;"/><polygon fill="none" points="1971.2821,53.0242,1992.3777,55.0181,1974.6431,66.6148,1971.2821,53.0242" style="stroke:#A80036;stroke-width:1.0;"/><text fill="#000000" font-family="sans-serif" font-size="13" lengthAdjust="spacing" textLength="55" x="1871.5" y="98.5684">Standard</text><!--MD5=[2aad398cf2c3660cf21437d62c5a4434]
reverse link tosca_nodes_SoftwareComponent_NT to kubetos_nodes_CNI_Plugin_NT--><path codeLine="56" d="M994.3432,40.7069 C844.1534,53.7197 590.4996,81.2852 377.5,132 C343.5101,140.0929 307.5409,151.1699 274.1734,162.5648 " fill="none" id="tosca_nodes_SoftwareComponent_NT-backto-kubetos_nodes_CNI_Plugin_NT" style="stroke:#A80036;stroke-width:1.0;"/><polygon fill="none" points="993.863,33.7225,1014.384,39.0038,995.0485,47.6722,993.863,33.7225" style="stroke:#A80036;stroke-width:1.0;"/><!--MD5=[7e4632dfa515213262ffe754facbef11]
reverse link kubetos_nodes_CNI_Plugin_NT to kubetos_capabilities_CNI_CT--><path codeLine="57" d="M287.3095,214 C323.0569,214 360.7761,214 394.7851,214 " fill="none" id="kubetos_nodes_CNI_Plugin_NT-backto-kubetos_capabilities_CNI_CT" style="stroke:#A80036;stroke-width:1.0;"/><polygon fill="#A80036" points="274.2392,214,280.2392,218,286.2392,214,280.2392,210,274.2392,214" style="stroke:#A80036;stroke-width:1.0;"/><text fill="#000000" font-family="sans-serif" font-size="13" lengthAdjust="spacing" textLength="84" x="292.5" y="207.5684">cni.capability</text><text fill="#000000" font-family="sans-serif" font-size="13" lengthAdjust="spacing" textLength="8" x="379.1799" y="211.1022">1</text><!--MD5=[95708dc6b09dfe910b4301e682e4e0d1]
link kubetos_nodes_CNI_Plugin_NT to tosca_relationships_DependsOn_RT--><path codeLine="58" d="M140.5,290.1982 C140.5,331.6271 140.5,380.4646 140.5,410.8362 " fill="none" id="kubetos_nodes_CNI_Plugin_NT-to-tosca_relationships_DependsOn_RT" style="stroke:#A80036;stroke-width:1.0;stroke-dasharray:7.0,7.0;"/><polygon fill="#A80036" points="140.5,415.9169,144.5,406.9169,140.5,410.9169,136.5,406.9169,140.5,415.9169" style="stroke:#A80036;stroke-width:1.0;"/><text fill="#000000" font-family="sans-serif" font-size="13" lengthAdjust="spacing" textLength="98" x="141.5" y="339.5684">cni.relationship</text><!--MD5=[034c08077febe98735d5238a1fae075c]
reverse link kubetos_nodes_CNI_Plugin_NT to kubetos_nodes_CNI_Plugin_Bridge_NT--><path codeLine="59" d="M293.6006,273.0962 C321.1983,281.9839 349.9552,290.1253 377.5,296 C410.1747,302.9688 1266.4746,375.923 1731.493,415.2295 " fill="none" id="kubetos_nodes_CNI_Plugin_NT-backto-kubetos_nodes_CNI_Plugin_Bridge_NT" style="stroke:#A80036;stroke-width:1.0;"/><polygon fill="none" points="291.013,279.6132,274.2285,266.6795,295.4152,266.3233,291.013,279.6132" style="stroke:#A80036;stroke-width:1.0;"/><!--MD5=[418fb2e5772fd4f46098e64667d2e8d1]
reverse link tosca_interfaces_node_lifecycle_Standard_IT to kubetos_nodes_CNI_Plugin_Bridge_NT--><path codeLine="60" d="M2122.9282,71.2122 C2135.4126,88.7456 2148.1043,110.2439 2154.5,132 C2175.0575,201.9298 2179.2414,227.4387 2154.5,296 C2144.2462,324.4145 2125.2582,350.6479 2104.9446,372.7219 " fill="none" id="tosca_interfaces_node_lifecycle_Standard_IT-backto-kubetos_nodes_CNI_Plugin_Bridge_NT" style="stroke:#A80036;stroke-width:1.0;stroke-dasharray:7.0,7.0;"/><polygon fill="none" points="2117.2488,75.3074,2110.7538,55.1377,2128.4091,66.8548,2117.2488,75.3074" style="stroke:#A80036;stroke-width:1.0;"/><text fill="#000000" font-family="sans-serif" font-size="13" lengthAdjust="spacing" textLength="55" x="2172.5" y="219.0684">Standard</text><!--MD5=[10c731d0a955bbdd4a1d4acd3c614470]
reverse link kubetos_nodes_CNI_Plugin_NT to kubetos_nodes_CNI_Plugin_Loopback_NT--><path codeLine="61" d="M293.2742,268.3884 C321.1959,277.8921 350.148,287.4604 377.5,296 C471.0519,325.208 575.0147,354.769 664.9672,379.4435 " fill="none" id="kubetos_nodes_CNI_Plugin_NT-backto-kubetos_nodes_CNI_Plugin_Loopback_NT" style="stroke:#A80036;stroke-width:1.0;"/><polygon fill="none" points="290.792,274.9375,274.1407,261.8327,295.3299,261.6933,290.792,274.9375" style="stroke:#A80036;stroke-width:1.0;"/><!--MD5=[fb0c9ddefdcd8f0662d5c87fb583a39a]
reverse link tosca_interfaces_node_lifecycle_Standard_IT to kubetos_nodes_CNI_Plugin_Loopback_NT--><path codeLine="62" d="M2086.7535,75.47 C2081.6087,142.9932 2068.0468,266.6487 2036.5,296 C1976.1209,352.1771 1519.0787,395.7411 1201.567,419.6255 " fill="none" id="tosca_interfaces_node_lifecycle_Standard_IT-backto-kubetos_nodes_CNI_Plugin_Loopback_NT" style="stroke:#A80036;stroke-width:1.0;stroke-dasharray:7.0,7.0;"/><polygon fill="none" points="2079.7841,74.7865,2088.1649,55.3246,2093.7499,75.765,2079.7841,74.7865" style="stroke:#A80036;stroke-width:1.0;"/><text fill="#000000" font-family="sans-serif" font-size="13" lengthAdjust="spacing" textLength="55" x="2081.5" y="219.0684">Standard</text><!--MD5=[680a9abe3628cddaa171fa7cb7203e8a]
@startuml
set namespaceSeparator none
class "tosca.capabilities.Node" as tosca_capabilities_Node_CT << (C,green) >> #DDDDDD
class "kubetos.capabilities.CNI" as kubetos_capabilities_CNI_CT << (C,green) >> {
.. properties ..
+<b>binary_dir : string = '/opt/cni/bin'
+<b>config_dir : string = '/etc/cni/net.d'
}
class "tosca.nodes.SoftwareComponent" as tosca_nodes_SoftwareComponent_NT << (N,green) >> #DDDDDD
class "kubetos.nodes.CNI" as kubetos_nodes_CNI_NT << (N,green) >> {
.. properties ..
+component_version : version = '1.0.1'
.. capabilities ..
+cni
 type : kubetos.capabilities.CNI[1..*]
- -
.. interface Standard ..
+create()
 implementation: {'primary': 'ansible/cni- -create.yaml', 'dependencies': [{'file': 'ansible/roles/cni', 'type': 'tosca.artifacts.File', 'deploy_path': 'roles/cni'}, {'file': '../../utils/roles/download', 'type': 'tosca.artifacts.File', 'deploy_path': 'roles/download'}]}
}
class "tosca.interfaces.node.lifecycle.Standard" as tosca_interfaces_node_lifecycle_Standard_IT << (I,green) >> #DDDDDD
class "tosca.nodes.SoftwareComponent" as tosca_nodes_SoftwareComponent_NT << (N,green) >> #DDDDDD
class "kubetos.nodes.CNI.Plugin" as kubetos_nodes_CNI_Plugin_NT << (N,green) >> {
.. properties ..
+<b>cni_version : version
+<b>name : string
+<b>type : string
.. requirements ..
+<b>cni
 capability : kubetos.capabilities.CNI[1]
 relationship : tosca.relationships.DependsOn
}
class "tosca.relationships.DependsOn" as tosca_relationships_DependsOn_RT << (R,green) >> #DDDDDD
class "kubetos.nodes.CNI.Plugin.Bridge" as kubetos_nodes_CNI_Plugin_Bridge_NT << (N,green) >> {
.. properties ..
+<b>type : string = 'bridge'
+<b>subnet : string
- -
.. interface Standard ..
+create()
 implementation: {'primary': 'ansible/bridge- -create.yaml', 'dependencies': ['ansible/files/bridge.conf.j2']}
}
class "tosca.interfaces.node.lifecycle.Standard" as tosca_interfaces_node_lifecycle_Standard_IT << (I,green) >> #DDDDDD
class "kubetos.nodes.CNI.Plugin.Loopback" as kubetos_nodes_CNI_Plugin_Loopback_NT << (N,green) >> {
.. properties ..
+<b>type : string = 'loopback'
- -
.. interface Standard ..
+create()
 implementation: {'primary': 'ansible/loopback- -create.yaml', 'dependencies': ['ansible/files/loopback.conf.j2']}
}
class "tosca.interfaces.node.lifecycle.Standard" as tosca_interfaces_node_lifecycle_Standard_IT << (I,green) >> #DDDDDD
tosca_capabilities_Node_CT <|- - kubetos_capabilities_CNI_CT
tosca_nodes_SoftwareComponent_NT <|- - kubetos_nodes_CNI_NT
kubetos_capabilities_CNI_CT "1..*" -* kubetos_nodes_CNI_NT : cni
tosca_interfaces_node_lifecycle_Standard_IT <|.. kubetos_nodes_CNI_NT : Standard
tosca_nodes_SoftwareComponent_NT <|- - kubetos_nodes_CNI_Plugin_NT
kubetos_nodes_CNI_Plugin_NT *- "1" kubetos_capabilities_CNI_CT : cni.capability
kubetos_nodes_CNI_Plugin_NT ..> tosca_relationships_DependsOn_RT : cni.relationship
kubetos_nodes_CNI_Plugin_NT <|- - kubetos_nodes_CNI_Plugin_Bridge_NT
tosca_interfaces_node_lifecycle_Standard_IT <|.. kubetos_nodes_CNI_Plugin_Bridge_NT : Standard
kubetos_nodes_CNI_Plugin_NT <|- - kubetos_nodes_CNI_Plugin_Loopback_NT
tosca_interfaces_node_lifecycle_Standard_IT <|.. kubetos_nodes_CNI_Plugin_Loopback_NT : Standard
@enduml

PlantUML version 1.2021.13(Mon Nov 01 12:38:45 CET 2021)
(GPL source distribution)
Java Runtime: Java(TM) SE Runtime Environment
JVM: Java HotSpot(TM) 64-Bit Server VM
Default Encoding: UTF-8
Language: fr
Country: FR
--></g></svg>