<?xml version="1.0" encoding="UTF-8" standalone="no"?><svg xmlns="http://www.w3.org/2000/svg" xmlns:xlink="http://www.w3.org/1999/xlink" contentScriptType="application/ecmascript" contentStyleType="text/css" height="219px" preserveAspectRatio="none" style="width:404px;height:219px;background:#FFFFFF;" version="1.1" viewBox="0 0 404 219" width="404px" zoomAndPan="magnify"><defs><filter height="300%" id="f11k8rgv03b2tp" width="300%" x="-1" y="-1"><feGaussianBlur result="blurOut" stdDeviation="2.0"/><feColorMatrix in="blurOut" result="blurOut2" type="matrix" values="0 0 0 0 0 0 0 0 0 0 0 0 0 0 0 0 0 0 .4 0"/><feOffset dx="4.0" dy="4.0" in="blurOut2" result="blurOut3"/><feBlend in="SourceGraphic" in2="blurOut3" mode="normal"/></filter></defs><g><!--MD5=[73ef529cb74862cd16c9ea7608a24b08]
class tosca_relationships_ConnectsTo_RT--><rect codeLine="2" fill="#DDDDDD" filter="url(#f11k8rgv03b2tp)" height="48" id="tosca_relationships_ConnectsTo_RT" style="stroke:#A80036;stroke-width:1.5;" width="210" x="93.5" y="7"/><ellipse cx="108.5" cy="23" fill="#008000" rx="11" ry="11" style="stroke:#A80036;stroke-width:1.0;"/><path d="M109.6987,23.1479 Q110.064,23.2227 110.3337,23.4924 Q110.6035,23.7622 110.9937,24.5425 L113.2349,29 L110.5454,29 L109.0513,25.8706 Q108.9849,25.7378 108.877,25.5054 Q108.2212,24.1025 107.333,24.1025 L106.5527,24.1025 L106.5527,29 L104.104,29 L104.104,16.6069 L107.6401,16.6069 Q110.0308,16.6069 111.0725,17.4536 Q112.1143,18.3003 112.1143,20.2095 Q112.1143,21.4878 111.4917,22.2432 Q110.8691,22.9985 109.6987,23.1479 Z M106.5527,18.6655 L106.5527,22.0439 L107.7065,22.0439 Q108.7109,22.0439 109.1467,21.6497 Q109.5825,21.2554 109.5825,20.3506 Q109.5825,19.4458 109.1509,19.0557 Q108.7192,18.6655 107.7065,18.6655 Z " fill="#000000"/><text fill="#000000" font-family="sans-serif" font-size="12" lengthAdjust="spacing" textLength="178" x="122.5" y="27.5352">tosca.relationships.ConnectsTo</text><line style="stroke:#A80036;stroke-width:1.5;" x1="94.5" x2="302.5" y1="39" y2="39"/><line style="stroke:#A80036;stroke-width:1.5;" x1="94.5" x2="302.5" y1="47" y2="47"/><!--MD5=[eaef24dd7583cd73b2e568f827c60f35]
class etcd_relationships_ConnectsToEtcdCluster_RT--><rect codeLine="3" fill="#FEFECE" filter="url(#f11k8rgv03b2tp)" height="90.8652" id="etcd_relationships_ConnectsToEtcdCluster_RT" style="stroke:#A80036;stroke-width:1.5;" width="383" x="7" y="115"/><ellipse cx="75.25" cy="131" fill="#008000" rx="11" ry="11" style="stroke:#A80036;stroke-width:1.0;"/><path d="M76.4487,131.1479 Q76.814,131.2227 77.0837,131.4924 Q77.3535,131.7622 77.7437,132.5425 L79.9849,137 L77.2954,137 L75.8013,133.8706 Q75.7349,133.7378 75.627,133.5054 Q74.9712,132.1025 74.083,132.1025 L73.3027,132.1025 L73.3027,137 L70.854,137 L70.854,124.6069 L74.3901,124.6069 Q76.7808,124.6069 77.8225,125.4536 Q78.8643,126.3003 78.8643,128.2095 Q78.8643,129.4878 78.2417,130.2432 Q77.6191,130.9985 76.4487,131.1479 Z M73.3027,126.6655 L73.3027,130.0439 L74.4565,130.0439 Q75.4609,130.0439 75.8967,129.6497 Q76.3325,129.2554 76.3325,128.3506 Q76.3325,127.4458 75.9009,127.0557 Q75.4692,126.6655 74.4565,126.6655 Z " fill="#000000"/><text fill="#000000" font-family="sans-serif" font-size="12" lengthAdjust="spacing" textLength="238" x="95.75" y="135.5352">etcd.relationships.ConnectsToEtcdCluster</text><line style="stroke:#A80036;stroke-width:1.5;" x1="8" x2="389" y1="147" y2="147"/><line style="stroke:#A80036;stroke-width:1.0;" x1="8" x2="389" y1="155" y2="155"/><ellipse cx="18" cy="182.9551" fill="#84BE84" rx="3" ry="3" style="stroke:#038048;stroke-width:1.0;"/><text fill="#000000" font-family="sans-serif" font-size="11" lengthAdjust="spacing" textLength="127" x="27" y="186.5898">pre_configure_source()</text><text fill="#000000" font-family="sans-serif" font-size="11" lengthAdjust="spacing" textLength="357" x="27" y="199.5449">implementation: ../ansible/etcd-peer--pre-configure-source.yaml</text><line style="stroke:#A80036;stroke-width:1.0;stroke-dasharray:1.0,2.0;" x1="8" x2="146.5" y1="169.4775" y2="169.4775"/><text fill="#000000" font-family="sans-serif" font-size="11" lengthAdjust="spacing" textLength="104" x="146.5" y="173.1348">interface Configure</text><line style="stroke:#A80036;stroke-width:1.0;stroke-dasharray:1.0,2.0;" x1="250.5" x2="389" y1="169.4775" y2="169.4775"/><!--MD5=[e48696334eac25c528c0b4c8e397a3eb]
reverse link tosca_relationships_ConnectsTo_RT to etcd_relationships_ConnectsToEtcdCluster_RT--><path codeLine="9" d="M198.5,75.0716 C198.5,87.8863 198.5,101.9083 198.5,114.8197 " fill="none" id="tosca_relationships_ConnectsTo_RT-backto-etcd_relationships_ConnectsToEtcdCluster_RT" style="stroke:#A80036;stroke-width:1.0;"/><polygon fill="none" points="191.5001,75.0545,198.5,55.0545,205.5001,75.0544,191.5001,75.0545" style="stroke:#A80036;stroke-width:1.0;"/><!--MD5=[49a48c359d650477b8618d97f1c60ccb]
@startuml
set namespaceSeparator none
class "tosca.relationships.ConnectsTo" as tosca_relationships_ConnectsTo_RT << (R,green) >> #DDDDDD
class "etcd.relationships.ConnectsToEtcdCluster" as etcd_relationships_ConnectsToEtcdCluster_RT << (R,green) >> {
- -
.. interface Configure ..
+pre_configure_source()
 implementation: ../ansible/etcd-peer- -pre-configure-source.yaml
}
tosca_relationships_ConnectsTo_RT <|- - etcd_relationships_ConnectsToEtcdCluster_RT
@enduml

PlantUML version 1.2021.13(Mon Nov 01 12:38:45 CET 2021)
(GPL source distribution)
Java Runtime: Java(TM) SE Runtime Environment
JVM: Java HotSpot(TM) 64-Bit Server VM
Default Encoding: UTF-8
Language: fr
Country: FR
--></g></svg>