<?xml version="1.0" encoding="UTF-8" standalone="no"?><svg xmlns="http://www.w3.org/2000/svg" xmlns:xlink="http://www.w3.org/1999/xlink" contentScriptType="application/ecmascript" contentStyleType="text/css" height="846px" preserveAspectRatio="none" style="width:2223px;height:846px;background:#FFFFFF;" version="1.1" viewBox="0 0 2223 846" width="2223px" zoomAndPan="magnify"><defs><filter height="300%" id="f1j8jocpz5gumr" width="300%" x="-1" y="-1"><feGaussianBlur result="blurOut" stdDeviation="2.0"/><feColorMatrix in="blurOut" result="blurOut2" type="matrix" values="0 0 0 0 0 0 0 0 0 0 0 0 0 0 0 0 0 0 .4 0"/><feOffset dx="4.0" dy="4.0" in="blurOut2" result="blurOut3"/><feBlend in="SourceGraphic" in2="blurOut3" mode="normal"/></filter></defs><g><!--MD5=[00a9b56f88ef614c2376a625344b8c25]
cluster node_front_end_node--><polygon fill="#FFFFFF" filter="url(#f1j8jocpz5gumr)" points="543,182,553,172,888,172,888,289,878,299,543,299,543,182" style="stroke:#000000;stroke-width:1.5;"/><line style="stroke:#000000;stroke-width:1.5;" x1="878" x2="888" y1="182" y2="172"/><line style="stroke:#000000;stroke-width:1.5;" x1="543" x2="878" y1="182" y2="182"/><line style="stroke:#000000;stroke-width:1.5;" x1="878" x2="878" y1="182" y2="299"/><text fill="#000000" font-family="sans-serif" font-size="14" font-weight="bold" lengthAdjust="spacing" textLength="193" x="615" y="198.5352">front-end-node: Container</text><!--MD5=[25ce52c5f689e9540b90f5de9f877c51]
cluster node_front_end_node_artifact_my_image--><rect fill="#FFFFFF" filter="url(#f1j8jocpz5gumr)" height="87" style="stroke:#000000;stroke-width:1.5;" width="141" x="739" y="204"/><polygon fill="#FFFFFF" points="863,209,863,223,875,223,875,215,869,209,863,209" style="stroke:#000000;stroke-width:1.5;"/><line style="stroke:#000000;stroke-width:1.5;" x1="869" x2="869" y1="209" y2="215"/><line style="stroke:#000000;stroke-width:1.5;" x1="875" x2="869" y1="215" y2="215"/><text fill="#000000" font-family="sans-serif" font-size="14" font-style="italic" lengthAdjust="spacing" textLength="62" x="778.5" y="219.5352">«artifact»</text><text fill="#000000" font-family="sans-serif" font-size="14" font-weight="bold" lengthAdjust="spacing" textLength="125" x="747" y="236.0234">my_image: Image</text><!--MD5=[d1835691276b496756d082a7f6c220e7]
cluster node_payment_go--><polygon fill="#FFFFFF" filter="url(#f1j8jocpz5gumr)" points="1406,551,1416,541,1756,541,1756,658,1746,668,1406,668,1406,551" style="stroke:#000000;stroke-width:1.5;"/><line style="stroke:#000000;stroke-width:1.5;" x1="1746" x2="1756" y1="551" y2="541"/><line style="stroke:#000000;stroke-width:1.5;" x1="1406" x2="1746" y1="551" y2="551"/><line style="stroke:#000000;stroke-width:1.5;" x1="1746" x2="1746" y1="551" y2="668"/><text fill="#000000" font-family="sans-serif" font-size="14" font-weight="bold" lengthAdjust="spacing" textLength="167" x="1493.5" y="567.5352">payment-go: Container</text><!--MD5=[8809d6a69d4125ebc4b0bc533a1733b1]
cluster node_payment_go_artifact_my_image--><rect fill="#FFFFFF" filter="url(#f1j8jocpz5gumr)" height="87" style="stroke:#000000;stroke-width:1.5;" width="141" x="1607" y="573"/><polygon fill="#FFFFFF" points="1731,578,1731,592,1743,592,1743,584,1737,578,1731,578" style="stroke:#000000;stroke-width:1.5;"/><line style="stroke:#000000;stroke-width:1.5;" x1="1737" x2="1737" y1="578" y2="584"/><line style="stroke:#000000;stroke-width:1.5;" x1="1743" x2="1737" y1="584" y2="584"/><text fill="#000000" font-family="sans-serif" font-size="14" font-style="italic" lengthAdjust="spacing" textLength="62" x="1646.5" y="588.5352">«artifact»</text><text fill="#000000" font-family="sans-serif" font-size="14" font-weight="bold" lengthAdjust="spacing" textLength="125" x="1615" y="605.0234">my_image: Image</text><!--MD5=[1dbf70921e5a7a09df4994f2cf0d3795]
cluster node_catalogue_go--><polygon fill="#FFFFFF" filter="url(#f1j8jocpz5gumr)" points="89,353,99,343,447,343,447,460,437,470,89,470,89,353" style="stroke:#000000;stroke-width:1.5;"/><line style="stroke:#000000;stroke-width:1.5;" x1="437" x2="447" y1="353" y2="343"/><line style="stroke:#000000;stroke-width:1.5;" x1="89" x2="437" y1="353" y2="353"/><line style="stroke:#000000;stroke-width:1.5;" x1="437" x2="437" y1="353" y2="470"/><text fill="#000000" font-family="sans-serif" font-size="14" font-weight="bold" lengthAdjust="spacing" textLength="174" x="177" y="369.5352">catalogue-go: Container</text><!--MD5=[039b932b9ce1bc3170fce69889d43345]
cluster node_catalogue_go_artifact_my_image--><rect fill="#FFFFFF" filter="url(#f1j8jocpz5gumr)" height="87" style="stroke:#000000;stroke-width:1.5;" width="141" x="298" y="375"/><polygon fill="#FFFFFF" points="422,380,422,394,434,394,434,386,428,380,422,380" style="stroke:#000000;stroke-width:1.5;"/><line style="stroke:#000000;stroke-width:1.5;" x1="428" x2="428" y1="380" y2="386"/><line style="stroke:#000000;stroke-width:1.5;" x1="434" x2="428" y1="386" y2="386"/><text fill="#000000" font-family="sans-serif" font-size="14" font-style="italic" lengthAdjust="spacing" textLength="62" x="337.5" y="390.5352">«artifact»</text><text fill="#000000" font-family="sans-serif" font-size="14" font-weight="bold" lengthAdjust="spacing" textLength="125" x="306" y="407.0234">my_image: Image</text><!--MD5=[91022e3e6a8cdd6189c1ea441964afba]
cluster node_user_go--><polygon fill="#FFFFFF" filter="url(#f1j8jocpz5gumr)" points="364,551,374,541,685,541,685,658,675,668,364,668,364,551" style="stroke:#000000;stroke-width:1.5;"/><line style="stroke:#000000;stroke-width:1.5;" x1="675" x2="685" y1="551" y2="541"/><line style="stroke:#000000;stroke-width:1.5;" x1="364" x2="675" y1="551" y2="551"/><line style="stroke:#000000;stroke-width:1.5;" x1="675" x2="675" y1="551" y2="668"/><text fill="#000000" font-family="sans-serif" font-size="14" font-weight="bold" lengthAdjust="spacing" textLength="136" x="452.5" y="567.5352">user-go: Container</text><!--MD5=[284f642ea72037c631e8486950c73d90]
cluster node_user_go_artifact_my_image--><rect fill="#FFFFFF" filter="url(#f1j8jocpz5gumr)" height="87" style="stroke:#000000;stroke-width:1.5;" width="141" x="536" y="573"/><polygon fill="#FFFFFF" points="660,578,660,592,672,592,672,584,666,578,660,578" style="stroke:#000000;stroke-width:1.5;"/><line style="stroke:#000000;stroke-width:1.5;" x1="666" x2="666" y1="578" y2="584"/><line style="stroke:#000000;stroke-width:1.5;" x1="672" x2="666" y1="584" y2="584"/><text fill="#000000" font-family="sans-serif" font-size="14" font-style="italic" lengthAdjust="spacing" textLength="62" x="575.5" y="588.5352">«artifact»</text><text fill="#000000" font-family="sans-serif" font-size="14" font-weight="bold" lengthAdjust="spacing" textLength="125" x="544" y="605.0234">my_image: Image</text><!--MD5=[b24a3acceaa8829b9a8fcfde6d7fe635]
cluster node_orders_java--><polygon fill="#FFFFFF" filter="url(#f1j8jocpz5gumr)" points="959,353,969,343,1338,343,1338,460,1328,470,959,470,959,353" style="stroke:#000000;stroke-width:1.5;"/><line style="stroke:#000000;stroke-width:1.5;" x1="1328" x2="1338" y1="353" y2="343"/><line style="stroke:#000000;stroke-width:1.5;" x1="959" x2="1328" y1="353" y2="353"/><line style="stroke:#000000;stroke-width:1.5;" x1="1328" x2="1328" y1="353" y2="470"/><text fill="#000000" font-family="sans-serif" font-size="14" font-weight="bold" lengthAdjust="spacing" textLength="162" x="1063.5" y="369.5352">orders-java: Container</text><!--MD5=[df966dba5fe06ef5079c1e7f2374fbb1]
cluster node_orders_java_artifact_my_image--><rect fill="#FFFFFF" filter="url(#f1j8jocpz5gumr)" height="87" style="stroke:#000000;stroke-width:1.5;" width="182" x="1148" y="375"/><polygon fill="#FFFFFF" points="1313,380,1313,394,1325,394,1325,386,1319,380,1313,380" style="stroke:#000000;stroke-width:1.5;"/><line style="stroke:#000000;stroke-width:1.5;" x1="1319" x2="1319" y1="380" y2="386"/><line style="stroke:#000000;stroke-width:1.5;" x1="1325" x2="1319" y1="386" y2="386"/><text fill="#000000" font-family="sans-serif" font-size="14" font-style="italic" lengthAdjust="spacing" textLength="62" x="1208" y="390.5352">«artifact»</text><text fill="#000000" font-family="sans-serif" font-size="14" font-weight="bold" lengthAdjust="spacing" textLength="125" x="1176.5" y="407.0234">my_image: Image</text><!--MD5=[be01be1aed5a707cab92949a292308a5]
cluster node_carts_java--><polygon fill="#FFFFFF" filter="url(#f1j8jocpz5gumr)" points="1764,524,1774,514,2206,514,2206,666,2196,676,1764,676,1764,524" style="stroke:#000000;stroke-width:1.5;"/><line style="stroke:#000000;stroke-width:1.5;" x1="2196" x2="2206" y1="524" y2="514"/><line style="stroke:#000000;stroke-width:1.5;" x1="1764" x2="2196" y1="524" y2="524"/><line style="stroke:#000000;stroke-width:1.5;" x1="2196" x2="2196" y1="524" y2="676"/><text fill="#000000" font-family="sans-serif" font-size="14" font-weight="bold" lengthAdjust="spacing" textLength="151" x="1905.5" y="540.5352">carts-java: Container</text><!--MD5=[552bd6ea8cffa6111563706b93a867ba]
cluster node_carts--><rect fill="#FFFFFF" filter="url(#f1j8jocpz5gumr)" height="122" style="stroke:#000000;stroke-width:1.5;" width="225" x="1973" y="546"/><rect fill="#FFFFFF" height="10" style="stroke:#000000;stroke-width:1.5;" width="15" x="2178" y="551"/><rect fill="#FFFFFF" height="2" style="stroke:#000000;stroke-width:1.5;" width="4" x="2176" y="553"/><rect fill="#FFFFFF" height="2" style="stroke:#000000;stroke-width:1.5;" width="4" x="2176" y="557"/><text fill="#000000" font-family="sans-serif" font-size="14" font-weight="bold" lengthAdjust="spacing" textLength="106" x="2032.5" y="572.5352">carts: Software</text><!--MD5=[25552b971eb6b580d5b9e8f33a48a438]
cluster node_carts_artifact_jar--><rect fill="#FFFFFF" filter="url(#f1j8jocpz5gumr)" height="87" style="stroke:#000000;stroke-width:1.5;" width="182" x="2008" y="573"/><polygon fill="#FFFFFF" points="2173,578,2173,592,2185,592,2185,584,2179,578,2173,578" style="stroke:#000000;stroke-width:1.5;"/><line style="stroke:#000000;stroke-width:1.5;" x1="2179" x2="2179" y1="578" y2="584"/><line style="stroke:#000000;stroke-width:1.5;" x1="2185" x2="2179" y1="584" y2="584"/><text fill="#000000" font-family="sans-serif" font-size="14" font-style="italic" lengthAdjust="spacing" textLength="62" x="2068" y="588.5352">«artifact»</text><text fill="#000000" font-family="sans-serif" font-size="14" font-weight="bold" lengthAdjust="spacing" textLength="81" x="2058.5" y="605.0234">jar: Artifact</text><!--MD5=[205cab3c5360f7941140a965a61a6a69]
cluster node_carts_java_artifact_my_image--><rect fill="#FFFFFF" filter="url(#f1j8jocpz5gumr)" height="87" style="stroke:#000000;stroke-width:1.5;" width="182" x="1772" y="573"/><polygon fill="#FFFFFF" points="1937,578,1937,592,1949,592,1949,584,1943,578,1937,578" style="stroke:#000000;stroke-width:1.5;"/><line style="stroke:#000000;stroke-width:1.5;" x1="1943" x2="1943" y1="578" y2="584"/><line style="stroke:#000000;stroke-width:1.5;" x1="1949" x2="1943" y1="584" y2="584"/><text fill="#000000" font-family="sans-serif" font-size="14" font-style="italic" lengthAdjust="spacing" textLength="62" x="1832" y="588.5352">«artifact»</text><text fill="#000000" font-family="sans-serif" font-size="14" font-weight="bold" lengthAdjust="spacing" textLength="125" x="1800.5" y="605.0234">my_image: Image</text><!--MD5=[3396e7a1b9096b81213a98bba27a8f34]
cluster node_shipping_java--><polygon fill="#FFFFFF" filter="url(#f1j8jocpz5gumr)" points="693,524,703,514,1163,514,1163,666,1153,676,693,676,693,524" style="stroke:#000000;stroke-width:1.5;"/><line style="stroke:#000000;stroke-width:1.5;" x1="1153" x2="1163" y1="524" y2="514"/><line style="stroke:#000000;stroke-width:1.5;" x1="693" x2="1153" y1="524" y2="524"/><line style="stroke:#000000;stroke-width:1.5;" x1="1153" x2="1153" y1="524" y2="676"/><text fill="#000000" font-family="sans-serif" font-size="14" font-weight="bold" lengthAdjust="spacing" textLength="179" x="834.5" y="540.5352">shipping-java: Container</text><!--MD5=[0e46a8eb08be00ff851dbb1640b11869]
cluster node_shipping--><rect fill="#FFFFFF" filter="url(#f1j8jocpz5gumr)" height="122" style="stroke:#000000;stroke-width:1.5;" width="253" x="902" y="546"/><rect fill="#FFFFFF" height="10" style="stroke:#000000;stroke-width:1.5;" width="15" x="1135" y="551"/><rect fill="#FFFFFF" height="2" style="stroke:#000000;stroke-width:1.5;" width="4" x="1133" y="553"/><rect fill="#FFFFFF" height="2" style="stroke:#000000;stroke-width:1.5;" width="4" x="1133" y="557"/><text fill="#000000" font-family="sans-serif" font-size="14" font-weight="bold" lengthAdjust="spacing" textLength="134" x="961.5" y="572.5352">shipping: Software</text><!--MD5=[cab087266ca6cd6621882cd749dee50e]
cluster node_shipping_artifact_jar--><rect fill="#FFFFFF" filter="url(#f1j8jocpz5gumr)" height="87" style="stroke:#000000;stroke-width:1.5;" width="210" x="937" y="573"/><polygon fill="#FFFFFF" points="1130,578,1130,592,1142,592,1142,584,1136,578,1130,578" style="stroke:#000000;stroke-width:1.5;"/><line style="stroke:#000000;stroke-width:1.5;" x1="1136" x2="1136" y1="578" y2="584"/><line style="stroke:#000000;stroke-width:1.5;" x1="1142" x2="1136" y1="584" y2="584"/><text fill="#000000" font-family="sans-serif" font-size="14" font-style="italic" lengthAdjust="spacing" textLength="62" x="1011" y="588.5352">«artifact»</text><text fill="#000000" font-family="sans-serif" font-size="14" font-weight="bold" lengthAdjust="spacing" textLength="81" x="1001.5" y="605.0234">jar: Artifact</text><!--MD5=[a85c6867246ca17f10db3ced94218376]
cluster node_shipping_java_artifact_my_image--><rect fill="#FFFFFF" filter="url(#f1j8jocpz5gumr)" height="87" style="stroke:#000000;stroke-width:1.5;" width="182" x="701" y="573"/><polygon fill="#FFFFFF" points="866,578,866,592,878,592,878,584,872,578,866,578" style="stroke:#000000;stroke-width:1.5;"/><line style="stroke:#000000;stroke-width:1.5;" x1="872" x2="872" y1="578" y2="584"/><line style="stroke:#000000;stroke-width:1.5;" x1="878" x2="872" y1="584" y2="584"/><text fill="#000000" font-family="sans-serif" font-size="14" font-style="italic" lengthAdjust="spacing" textLength="62" x="761" y="588.5352">«artifact»</text><text fill="#000000" font-family="sans-serif" font-size="14" font-weight="bold" lengthAdjust="spacing" textLength="125" x="729.5" y="605.0234">my_image: Image</text><!--MD5=[12587b47b04b373a282184738b47b4fa]
cluster node_orders_db--><polygon fill="#FFFFFF" filter="url(#f1j8jocpz5gumr)" points="1171,551,1181,541,1398,541,1398,658,1388,668,1171,668,1171,551" style="stroke:#000000;stroke-width:1.5;"/><line style="stroke:#000000;stroke-width:1.5;" x1="1388" x2="1398" y1="551" y2="541"/><line style="stroke:#000000;stroke-width:1.5;" x1="1171" x2="1388" y1="551" y2="551"/><line style="stroke:#000000;stroke-width:1.5;" x1="1388" x2="1388" y1="551" y2="668"/><text fill="#000000" font-family="sans-serif" font-size="14" font-weight="bold" lengthAdjust="spacing" textLength="151" x="1205" y="567.5352">orders-db: Container</text><!--MD5=[18ae979d8a02bf76475e74ed938c590e]
cluster node_orders_db_artifact_my_image--><rect fill="#FFFFFF" filter="url(#f1j8jocpz5gumr)" height="87" style="stroke:#000000;stroke-width:1.5;" width="147" x="1200" y="573"/><polygon fill="#FFFFFF" points="1330,578,1330,592,1342,592,1342,584,1336,578,1330,578" style="stroke:#000000;stroke-width:1.5;"/><line style="stroke:#000000;stroke-width:1.5;" x1="1336" x2="1336" y1="578" y2="584"/><line style="stroke:#000000;stroke-width:1.5;" x1="1342" x2="1336" y1="584" y2="584"/><text fill="#000000" font-family="sans-serif" font-size="14" font-style="italic" lengthAdjust="spacing" textLength="62" x="1242.5" y="588.5352">«artifact»</text><text fill="#000000" font-family="sans-serif" font-size="14" font-weight="bold" lengthAdjust="spacing" textLength="131" x="1208" y="605.0234">my_image: Service</text><!--MD5=[ab755e99126ba62157edb192b6a7397f]
cluster node_carts_db--><polygon fill="#FFFFFF" filter="url(#f1j8jocpz5gumr)" points="1951,722,1961,712,2167,712,2167,829,2157,839,1951,839,1951,722" style="stroke:#000000;stroke-width:1.5;"/><line style="stroke:#000000;stroke-width:1.5;" x1="2157" x2="2167" y1="722" y2="712"/><line style="stroke:#000000;stroke-width:1.5;" x1="1951" x2="2157" y1="722" y2="722"/><line style="stroke:#000000;stroke-width:1.5;" x1="2157" x2="2157" y1="722" y2="839"/><text fill="#000000" font-family="sans-serif" font-size="14" font-weight="bold" lengthAdjust="spacing" textLength="140" x="1985" y="738.5352">carts-db: Container</text><!--MD5=[be6626cb8920dcb5cf74f538abe451d7]
cluster node_carts_db_artifact_my_image--><rect fill="#FFFFFF" filter="url(#f1j8jocpz5gumr)" height="87" style="stroke:#000000;stroke-width:1.5;" width="147" x="2000" y="744"/><polygon fill="#FFFFFF" points="2130,749,2130,763,2142,763,2142,755,2136,749,2130,749" style="stroke:#000000;stroke-width:1.5;"/><line style="stroke:#000000;stroke-width:1.5;" x1="2136" x2="2136" y1="749" y2="755"/><line style="stroke:#000000;stroke-width:1.5;" x1="2142" x2="2136" y1="755" y2="755"/><text fill="#000000" font-family="sans-serif" font-size="14" font-style="italic" lengthAdjust="spacing" textLength="62" x="2042.5" y="759.5352">«artifact»</text><text fill="#000000" font-family="sans-serif" font-size="14" font-weight="bold" lengthAdjust="spacing" textLength="131" x="2008" y="776.0234">my_image: Service</text><!--MD5=[c2ae9b11c6a1ffdd42e4dc81c0bac602]
cluster node_user_db--><polygon fill="#FFFFFF" filter="url(#f1j8jocpz5gumr)" points="433,722,443,712,734,712,734,829,724,839,433,839,433,722" style="stroke:#000000;stroke-width:1.5;"/><line style="stroke:#000000;stroke-width:1.5;" x1="724" x2="734" y1="722" y2="712"/><line style="stroke:#000000;stroke-width:1.5;" x1="433" x2="724" y1="722" y2="722"/><line style="stroke:#000000;stroke-width:1.5;" x1="724" x2="724" y1="722" y2="839"/><text fill="#000000" font-family="sans-serif" font-size="14" font-weight="bold" lengthAdjust="spacing" textLength="136" x="511.5" y="738.5352">user-db: Container</text><!--MD5=[bcaf9140bcd35841569bd8bb926a75e3]
cluster node_user_db_artifact_my_image--><rect fill="#FFFFFF" filter="url(#f1j8jocpz5gumr)" height="87" style="stroke:#000000;stroke-width:1.5;" width="258" x="468" y="744"/><polygon fill="#FFFFFF" points="709,749,709,763,721,763,721,755,715,749,709,749" style="stroke:#000000;stroke-width:1.5;"/><line style="stroke:#000000;stroke-width:1.5;" x1="715" x2="715" y1="749" y2="755"/><line style="stroke:#000000;stroke-width:1.5;" x1="721" x2="715" y1="755" y2="755"/><text fill="#000000" font-family="sans-serif" font-size="14" font-style="italic" lengthAdjust="spacing" textLength="62" x="566" y="759.5352">«artifact»</text><text fill="#000000" font-family="sans-serif" font-size="14" font-weight="bold" lengthAdjust="spacing" textLength="131" x="531.5" y="776.0234">my_image: Service</text><!--MD5=[d6fa75fe9658866d52d3fe4f2b234ab1]
cluster node_catalogue_db--><polygon fill="#FFFFFF" filter="url(#f1j8jocpz5gumr)" points="16,551,26,541,353,541,353,658,343,668,16,668,16,551" style="stroke:#000000;stroke-width:1.5;"/><line style="stroke:#000000;stroke-width:1.5;" x1="343" x2="353" y1="551" y2="541"/><line style="stroke:#000000;stroke-width:1.5;" x1="16" x2="343" y1="551" y2="551"/><line style="stroke:#000000;stroke-width:1.5;" x1="343" x2="343" y1="551" y2="668"/><text fill="#000000" font-family="sans-serif" font-size="14" font-weight="bold" lengthAdjust="spacing" textLength="174" x="93.5" y="567.5352">catalogue-db: Container</text><!--MD5=[5e0d44b14a65881a22fd7072813c842f]
cluster node_catalogue_db_artifact_my_image--><rect fill="#FFFFFF" filter="url(#f1j8jocpz5gumr)" height="87" style="stroke:#000000;stroke-width:1.5;" width="294" x="51" y="573"/><polygon fill="#FFFFFF" points="328,578,328,592,340,592,340,584,334,578,328,578" style="stroke:#000000;stroke-width:1.5;"/><line style="stroke:#000000;stroke-width:1.5;" x1="334" x2="334" y1="578" y2="584"/><line style="stroke:#000000;stroke-width:1.5;" x1="340" x2="334" y1="584" y2="584"/><text fill="#000000" font-family="sans-serif" font-size="14" font-style="italic" lengthAdjust="spacing" textLength="62" x="167" y="588.5352">«artifact»</text><text fill="#000000" font-family="sans-serif" font-size="14" font-weight="bold" lengthAdjust="spacing" textLength="131" x="132.5" y="605.0234">my_image: Service</text><!--MD5=[8b79e3ee1f2819994965fb043beaa878]
cluster node_edge_router--><polygon fill="#FFFFFF" filter="url(#f1j8jocpz5gumr)" points="631,16,641,6,1002,6,1002,123,992,133,631,133,631,16" style="stroke:#000000;stroke-width:1.5;"/><line style="stroke:#000000;stroke-width:1.5;" x1="992" x2="1002" y1="16" y2="6"/><line style="stroke:#000000;stroke-width:1.5;" x1="631" x2="992" y1="16" y2="16"/><line style="stroke:#000000;stroke-width:1.5;" x1="992" x2="992" y1="16" y2="133"/><text fill="#000000" font-family="sans-serif" font-size="14" font-weight="bold" lengthAdjust="spacing" textLength="165" x="730" y="32.5352">edge-router: Container</text><!--MD5=[d53351d2b66de6b7872410db2485ded1]
cluster node_edge_router_artifact_my_image--><rect fill="#FFFFFF" filter="url(#f1j8jocpz5gumr)" height="87" style="stroke:#000000;stroke-width:1.5;" width="328" x="666" y="38"/><polygon fill="#FFFFFF" points="977,43,977,57,989,57,989,49,983,43,977,43" style="stroke:#000000;stroke-width:1.5;"/><line style="stroke:#000000;stroke-width:1.5;" x1="983" x2="983" y1="43" y2="49"/><line style="stroke:#000000;stroke-width:1.5;" x1="989" x2="983" y1="49" y2="49"/><text fill="#000000" font-family="sans-serif" font-size="14" font-style="italic" lengthAdjust="spacing" textLength="62" x="799" y="53.5352">«artifact»</text><text fill="#000000" font-family="sans-serif" font-size="14" font-weight="bold" lengthAdjust="spacing" textLength="131" x="764.5" y="70.0234">my_image: Service</text><!--MD5=[dd2b043e6487644f63cacece415444fc]
cluster node_rabbitmq--><polygon fill="#FFFFFF" filter="url(#f1j8jocpz5gumr)" points="898,722,908,712,1118,712,1118,829,1108,839,898,839,898,722" style="stroke:#000000;stroke-width:1.5;"/><line style="stroke:#000000;stroke-width:1.5;" x1="1108" x2="1118" y1="722" y2="712"/><line style="stroke:#000000;stroke-width:1.5;" x1="898" x2="1108" y1="722" y2="722"/><line style="stroke:#000000;stroke-width:1.5;" x1="1108" x2="1108" y1="722" y2="839"/><text fill="#000000" font-family="sans-serif" font-size="14" font-weight="bold" lengthAdjust="spacing" textLength="144" x="932" y="738.5352">rabbitmq: Container</text><!--MD5=[d499ef262363d9baaaeb01f0a8a12ef0]
cluster node_rabbitmq_artifact_my_image--><rect fill="#FFFFFF" filter="url(#f1j8jocpz5gumr)" height="87" style="stroke:#000000;stroke-width:1.5;" width="168" x="939" y="744"/><polygon fill="#FFFFFF" points="1090,749,1090,763,1102,763,1102,755,1096,749,1090,749" style="stroke:#000000;stroke-width:1.5;"/><line style="stroke:#000000;stroke-width:1.5;" x1="1096" x2="1096" y1="749" y2="755"/><line style="stroke:#000000;stroke-width:1.5;" x1="1102" x2="1096" y1="755" y2="755"/><text fill="#000000" font-family="sans-serif" font-size="14" font-style="italic" lengthAdjust="spacing" textLength="62" x="992" y="759.5352">«artifact»</text><text fill="#000000" font-family="sans-serif" font-size="14" font-weight="bold" lengthAdjust="spacing" textLength="131" x="957.5" y="776.0234">my_image: Service</text><!--MD5=[68c008968fc94d9c74e4c43eddbdc660]
entity node_front_end--><rect fill="#FEFECE" filter="url(#f1j8jocpz5gumr)" height="46.4883" style="stroke:#A80036;stroke-width:1.5;" width="176" x="551" y="242"/><rect fill="#FEFECE" height="10" style="stroke:#A80036;stroke-width:1.5;" width="15" x="707" y="247"/><rect fill="#FEFECE" height="2" style="stroke:#A80036;stroke-width:1.5;" width="4" x="705" y="249"/><rect fill="#FEFECE" height="2" style="stroke:#A80036;stroke-width:1.5;" width="4" x="705" y="253"/><text fill="#000000" font-family="sans-serif" font-size="14" lengthAdjust="spacing" textLength="136" x="566" y="275.5352">front-end: Software</text><!--MD5=[35a89288890404fb7fe15ee2e6ddac5c]
entity node_front_end_node_artifact_my_image_label--><text fill="#000000" font-family="sans-serif" font-size="14" lengthAdjust="spacing" textLength="90" x="772" y="270.5352">file: node:4.8</text><!--MD5=[412f063702989e7d93e500b24d2baa0d]
entity node_payment--><rect fill="#FEFECE" filter="url(#f1j8jocpz5gumr)" height="46.4883" style="stroke:#A80036;stroke-width:1.5;" width="167" x="1414.5" y="611"/><rect fill="#FEFECE" height="10" style="stroke:#A80036;stroke-width:1.5;" width="15" x="1561.5" y="616"/><rect fill="#FEFECE" height="2" style="stroke:#A80036;stroke-width:1.5;" width="4" x="1559.5" y="618"/><rect fill="#FEFECE" height="2" style="stroke:#A80036;stroke-width:1.5;" width="4" x="1559.5" y="622"/><text fill="#000000" font-family="sans-serif" font-size="14" lengthAdjust="spacing" textLength="127" x="1429.5" y="644.5352">payment: Software</text><!--MD5=[d7f68e7ebd568fa5e6b7f6fadba0a430]
entity node_payment_go_artifact_my_image_label--><text fill="#000000" font-family="sans-serif" font-size="14" lengthAdjust="spacing" textLength="103" x="1626.5" y="639.5352">file: golang:1.7</text><!--MD5=[73d72da0cb5b7eb3b36b519f604dee64]
entity node_catalogue--><rect fill="#FEFECE" filter="url(#f1j8jocpz5gumr)" height="46.4883" style="stroke:#A80036;stroke-width:1.5;" width="175" x="97.5" y="413"/><rect fill="#FEFECE" height="10" style="stroke:#A80036;stroke-width:1.5;" width="15" x="252.5" y="418"/><rect fill="#FEFECE" height="2" style="stroke:#A80036;stroke-width:1.5;" width="4" x="250.5" y="420"/><rect fill="#FEFECE" height="2" style="stroke:#A80036;stroke-width:1.5;" width="4" x="250.5" y="424"/><text fill="#000000" font-family="sans-serif" font-size="14" lengthAdjust="spacing" textLength="135" x="112.5" y="446.5352">catalogue: Software</text><!--MD5=[1cdfeefd6be96c925b7859bec57e26f3]
entity node_catalogue_go_artifact_my_image_label--><text fill="#000000" font-family="sans-serif" font-size="14" lengthAdjust="spacing" textLength="103" x="317.5" y="441.5352">file: golang:1.7</text><!--MD5=[6c5f140c6fb05f8fb3c5c912d46325d6]
entity node_user--><rect fill="#FEFECE" filter="url(#f1j8jocpz5gumr)" height="46.4883" style="stroke:#A80036;stroke-width:1.5;" width="138" x="372" y="611"/><rect fill="#FEFECE" height="10" style="stroke:#A80036;stroke-width:1.5;" width="15" x="490" y="616"/><rect fill="#FEFECE" height="2" style="stroke:#A80036;stroke-width:1.5;" width="4" x="488" y="618"/><rect fill="#FEFECE" height="2" style="stroke:#A80036;stroke-width:1.5;" width="4" x="488" y="622"/><text fill="#000000" font-family="sans-serif" font-size="14" lengthAdjust="spacing" textLength="98" x="387" y="644.5352">user: Software</text><!--MD5=[6bbe7481cee203dc605c453fc3f8c8a5]
entity node_user_go_artifact_my_image_label--><text fill="#000000" font-family="sans-serif" font-size="14" lengthAdjust="spacing" textLength="103" x="555.5" y="639.5352">file: golang:1.7</text><!--MD5=[cea6f5d2e25c4709451c7ee18b40570c]
entity node_orders--><rect fill="#FEFECE" filter="url(#f1j8jocpz5gumr)" height="46.4883" style="stroke:#A80036;stroke-width:1.5;" width="153" x="967.5" y="413"/><rect fill="#FEFECE" height="10" style="stroke:#A80036;stroke-width:1.5;" width="15" x="1100.5" y="418"/><rect fill="#FEFECE" height="2" style="stroke:#A80036;stroke-width:1.5;" width="4" x="1098.5" y="420"/><rect fill="#FEFECE" height="2" style="stroke:#A80036;stroke-width:1.5;" width="4" x="1098.5" y="424"/><text fill="#000000" font-family="sans-serif" font-size="14" lengthAdjust="spacing" textLength="113" x="982.5" y="446.5352">orders: Software</text><!--MD5=[b74334de95fb7576d84e8ceb5c10eee8]
entity node_orders_java_artifact_my_image_label--><text fill="#000000" font-family="sans-serif" font-size="14" lengthAdjust="spacing" textLength="146" x="1166" y="441.5352">file: maven:3.2-jdk-8</text><!--MD5=[d8f2044a0c5b8ae11b4bd4950c74ff96]
entity node_carts_artifact_jar_label--><text fill="#000000" font-family="sans-serif" font-size="14" lengthAdjust="spacing" textLength="146" x="2026" y="639.5352">file: artifacts/carts.jar</text><!--MD5=[b3b5221d274486a82f4e04a299c6a6e9]
entity node_carts_java_artifact_my_image_label--><text fill="#000000" font-family="sans-serif" font-size="14" lengthAdjust="spacing" textLength="146" x="1790" y="639.5352">file: maven:3.2-jdk-8</text><!--MD5=[6d431d49da4ec62fb302d315972c4a18]
entity node_shipping_artifact_jar_label--><text fill="#000000" font-family="sans-serif" font-size="14" lengthAdjust="spacing" textLength="173" x="955.5" y="639.5352">file: artifacts/shipping.jar</text><!--MD5=[be59625f99e1d47561db468396ac3497]
entity node_shipping_java_artifact_my_image_label--><text fill="#000000" font-family="sans-serif" font-size="14" lengthAdjust="spacing" textLength="146" x="719" y="639.5352">file: maven:3.2-jdk-8</text><!--MD5=[94b287befab947472e2bdde99fadf355]
entity node_orders_db_artifact_my_image_label--><text fill="#000000" font-family="sans-serif" font-size="14" lengthAdjust="spacing" textLength="78" x="1231" y="639.5352">file: mongo</text><!--MD5=[63b3f0fb25794e08c96797ba61312a00]
entity node_carts_db_artifact_my_image_label--><text fill="#000000" font-family="sans-serif" font-size="14" lengthAdjust="spacing" textLength="78" x="2033" y="810.5352">file: mongo</text><!--MD5=[cf44c77ab370250e9fab688385851ac7]
entity node_user_db_artifact_my_image_label--><text fill="#000000" font-family="sans-serif" font-size="14" lengthAdjust="spacing" textLength="221" x="486.5" y="810.5352">file: weaveworksdemos/user-db</text><!--MD5=[433c40e657f93f8612c4189f0dcc8c30]
entity node_catalogue_db_artifact_my_image_label--><text fill="#000000" font-family="sans-serif" font-size="14" lengthAdjust="spacing" textLength="258" x="69" y="639.5352">file: weaveworksdemos/catalogue-db</text><!--MD5=[b5726630d793cba126c66fe4324db015]
entity node_edge_router_artifact_my_image_label--><text fill="#000000" font-family="sans-serif" font-size="14" lengthAdjust="spacing" textLength="291" x="684.5" y="104.5352">file: weaveworksdemos/edge-router:latest</text><!--MD5=[eef2341577e54de10e031f697641a2bb]
entity node_rabbitmq_artifact_my_image_label--><text fill="#000000" font-family="sans-serif" font-size="14" lengthAdjust="spacing" textLength="131" x="957.5" y="810.5352">file: rabbitmq:3.6.8</text><!--MD5=[339c3c772b91bdb55f9874a093bfe90d]
link node_front_end to node_catalogue--><path codeLine="84" d="M550.6878,271.8023 C477.3456,280.4006 372.1164,299.7342 290,343 C258.3607,359.6702 228.4672,387.82 208.729,408.7924 " fill="none" id="node_front_end-to-node_catalogue" style="stroke:#A80036;stroke-width:1.0;stroke-dasharray:7.0,7.0;"/><polygon fill="#A80036" points="205.1634,412.6204,214.2245,408.7608,208.5712,408.9616,208.3704,403.3083,205.1634,412.6204" style="stroke:#A80036;stroke-width:1.0;"/><text fill="#000000" font-family="sans-serif" font-size="13" lengthAdjust="spacing" textLength="89" x="344" y="331.5684">«ConnectsTo»</text><!--MD5=[1a05e5f45974224fd56e78c906617b7a]
link node_front_end to node_user--><path codeLine="85" d="M626.6142,288.0826 C591.82,352.9263 493.2907,536.5491 455.7634,606.4863 " fill="none" id="node_front_end-to-node_user" style="stroke:#A80036;stroke-width:1.0;stroke-dasharray:7.0,7.0;"/><polygon fill="#A80036" points="453.3811,610.9261,461.1611,604.887,455.7452,606.5203,454.1119,601.1044,453.3811,610.9261" style="stroke:#A80036;stroke-width:1.0;"/><text fill="#000000" font-family="sans-serif" font-size="13" lengthAdjust="spacing" textLength="89" x="597" y="441.0684">«ConnectsTo»</text><!--MD5=[32e70f919aa3e5ea8a645beff9d89c06]
link node_front_end to node_carts--><path codeLine="86" d="M693.7084,288.0773 C705.8016,292.3685 718.6845,296.3341 731,299 C863.1813,327.6131 1204.5509,321.0464 1338,343 C1593.0705,384.9613 1655.7333,407.3546 1901,489 C1928.7998,498.2541 1943.8183,491.024 1962,514 C1965.9922,519.0448 1969.3027,524.5909 1972.0375,530.4472 C1973.4049,533.3754 1974.6283,536.381 1975.721,539.4404 C1976.2674,540.9701 1976.781,542.5132 1977.2636,544.0667 C1977.3843,544.4551 1977.503,544.8441 1977.6198,545.2338 C1977.6782,545.4286 1977.7361,545.6236 1977.7936,545.8187 " fill="none" id="node_front_end-to-node_carts" style="stroke:#A80036;stroke-width:1.0;stroke-dasharray:7.0,7.0;"/><polygon fill="#A80036" points="1977.7936,545.8187,1979.0888,536.0554,1976.3814,541.0223,1971.4145,538.3149,1977.7936,545.8187" style="stroke:#A80036;stroke-width:1.0;"/><text fill="#000000" font-family="sans-serif" font-size="13" lengthAdjust="spacing" textLength="89" x="1840" y="441.0684">«ConnectsTo»</text><!--MD5=[43be083010e2968c38e66dbdd66c06b1]
link node_front_end to node_orders--><path codeLine="87" d="M693.6201,288.0618 C769.5132,320.1056 906.3394,377.8766 984.666,410.9479 " fill="none" id="node_front_end-to-node_orders" style="stroke:#A80036;stroke-width:1.0;stroke-dasharray:7.0,7.0;"/><polygon fill="#A80036" points="989.2763,412.8944,982.5411,405.7085,984.6701,410.9494,979.4292,413.0784,989.2763,412.8944" style="stroke:#A80036;stroke-width:1.0;"/><text fill="#000000" font-family="sans-serif" font-size="13" lengthAdjust="spacing" textLength="89" x="794" y="331.5684">«ConnectsTo»</text><!--MD5=[74898ac7da1ad82f251b762e46ed9119]
link node_catalogue to node_catalogue_db--><path codeLine="88" d="M115.0126,459.149 C88.4736,471.3842 60.4709,489.1495 43,514 C39.3,519.2629 36.212,524.975 33.6426,530.9547 C32.3579,533.9446 31.2028,537.0013 30.1658,540.1022 C30.101,540.296 30.0366,540.49 29.9727,540.6841 " fill="none" id="node_catalogue-to-node_catalogue_db" style="stroke:#A80036;stroke-width:1.0;stroke-dasharray:7.0,7.0;"/><polygon fill="#A80036" points="29.9727,540.6841,36.5858,533.3857,31.5358,535.9347,28.9868,530.8847,29.9727,540.6841" style="stroke:#A80036;stroke-width:1.0;"/><text fill="#000000" font-family="sans-serif" font-size="13" lengthAdjust="spacing" textLength="89" x="64" y="502.5684">«ConnectsTo»</text><!--MD5=[9f63244949eea1c74b76f9d4d1780af4]
link node_user to node_user_db--><path codeLine="89" d="M441,657.0618 C441,668.1837 441,682.405 441,697.6171 C441,701.4201 441,705.2851 441,709.179 C441,709.6658 441,710.153 441,710.6405 C441,710.8843 441,711.1282 441,711.3722 " fill="none" id="node_user-to-node_user_db" style="stroke:#A80036;stroke-width:1.0;stroke-dasharray:7.0,7.0;"/><polygon fill="#A80036" points="441,711.3722,445,702.3722,441,706.3722,437,702.3722,441,711.3722" style="stroke:#A80036;stroke-width:1.0;"/><text fill="#000000" font-family="sans-serif" font-size="13" lengthAdjust="spacing" textLength="89" x="442" y="700.5684">«ConnectsTo»</text><!--MD5=[f19f5348b4d76d787784281c47c46bb7]
link node_carts to node_carts_db--><path d="M1981,668.3522 C1981,668.8662 1981,669.3841 1981,669.9058 C1981,671.9926 1981,674.1396 1981,676.3383 C1981,680.7356 1981,685.3394 1981,690.0806 C1981,694.8218 1981,699.7005 1981,704.6476 C1981,705.8844 1981,707.1254 1981,708.3697 C1981,708.9918 1981,709.6148 1981,710.2384 C1981,710.5501 1981,710.8621 1981,711.1742 C1981,711.3303 1981,711.4864 1981,711.6425 C1981,711.7206 1981,711.7986 1981,711.8767 C1981,711.9158 1981,711.9548 1981,711.9938 " fill="none" id="node_carts-to-node_carts_db" style="stroke:#A80036;stroke-width:1.0;stroke-dasharray:7.0,7.0;"/><polygon fill="#A80036" points="1981,711.9938,1985,702.9938,1981,706.9938,1977,702.9938,1981,711.9938" style="stroke:#A80036;stroke-width:1.0;"/><text fill="#000000" font-family="sans-serif" font-size="13" lengthAdjust="spacing" textLength="89" x="1982" y="700.5684">«ConnectsTo»</text><!--MD5=[175072917a338bdeef954457ff810cde]
link node_orders to node_orders_db--><path codeLine="91" d="M1092.4737,459.1002 C1114.8401,472.1729 1139.7553,490.6209 1155,514 C1162.0788,524.856 1167.1468,537.3518 1170.7603,550.0895 C1170.8168,550.2885 1170.8729,550.4876 1170.9287,550.6867 " fill="none" id="node_orders-to-node_orders_db" style="stroke:#A80036;stroke-width:1.0;stroke-dasharray:7.0,7.0;"/><polygon fill="#A80036" points="1170.9287,550.6867,1172.3541,540.9416,1169.5806,545.8719,1164.6503,543.0984,1170.9287,550.6867" style="stroke:#A80036;stroke-width:1.0;"/><text fill="#000000" font-family="sans-serif" font-size="13" lengthAdjust="spacing" textLength="89" x="1149" y="502.5684">«ConnectsTo»</text><!--MD5=[66bdb09110bb623fef63676c7b925095]
link node_orders to node_shipping--><path codeLine="92" d="M992.1962,459.1085 C969.2396,471.9918 944.0697,490.2767 929,514 C925.5505,519.4303 922.6533,525.2701 920.2256,531.3446 C919.0118,534.3818 917.9154,537.4777 916.9261,540.6105 C916.4314,542.1769 915.9636,543.7525 915.5211,545.3346 C915.4658,545.5324 915.4109,545.7303 915.3564,545.9282 " fill="none" id="node_orders-to-node_shipping" style="stroke:#A80036;stroke-width:1.0;stroke-dasharray:7.0,7.0;"/><polygon fill="#A80036" points="915.3564,545.9282,921.6021,538.313,916.6838,541.1076,913.8892,536.1893,915.3564,545.9282" style="stroke:#A80036;stroke-width:1.0;"/><text fill="#000000" font-family="sans-serif" font-size="13" lengthAdjust="spacing" textLength="89" x="949" y="502.5684">«ConnectsTo»</text><!--MD5=[32758b4b6a0263bfb028085767343d3b]
link node_orders to node_payment--><path codeLine="93" d="M1104.2121,459.0254 C1115.9726,463.0379 1128.2895,466.9091 1140,470 C1234.3063,494.8917 1267.7251,470.4526 1355,514 C1402.1815,537.542 1447.1498,579.6284 1473.6616,607.1796 " fill="none" id="node_orders-to-node_payment" style="stroke:#A80036;stroke-width:1.0;stroke-dasharray:7.0,7.0;"/><polygon fill="#A80036" points="1477.1195,610.7997,1473.7953,601.5288,1473.6658,607.1842,1468.0104,607.0547,1477.1195,610.7997" style="stroke:#A80036;stroke-width:1.0;"/><text fill="#000000" font-family="sans-serif" font-size="13" lengthAdjust="spacing" textLength="89" x="1336" y="502.5684">«ConnectsTo»</text><!--MD5=[ad642d94d5379e039bf7d45e52db2b17]
link node_orders to node_carts--><path codeLine="94" d="M1100.6072,459.059 C1113.372,463.408 1126.9962,467.402 1140,470 C1176.3359,477.2595 1768.9973,504.0511 1806,506 C1814.666,506.4564 1955.5478,508.1967 1962,514 C1966.7832,518.3022 1970.6963,523.2825 1973.8789,528.7185 C1975.4701,531.4364 1976.8787,534.2683 1978.1221,537.1862 C1978.7438,538.6451 1979.3242,540.1256 1979.8654,541.6241 C1980.136,542.3733 1980.3969,543.1271 1980.6482,543.8849 C1980.7739,544.2638 1980.8972,544.6437 1981.0181,545.0246 C1981.0786,545.2151 1981.1385,545.4058 1981.1978,545.5967 " fill="none" id="node_orders-to-node_carts" style="stroke:#A80036;stroke-width:1.0;stroke-dasharray:7.0,7.0;"/><polygon fill="#A80036" points="1981.1978,545.5967,1982.348,535.8152,1979.7146,540.8218,1974.7081,538.1884,1981.1978,545.5967" style="stroke:#A80036;stroke-width:1.0;"/><text fill="#000000" font-family="sans-serif" font-size="13" lengthAdjust="spacing" textLength="89" x="1807" y="502.5684">«ConnectsTo»</text><!--MD5=[deabd358413bb42e9bb544eff9e7e155]
link node_orders to node_user--><path codeLine="95" d="M967.2691,440.3626 C842.014,448.6667 600.3139,469.986 528,514 C492.4679,535.6267 467.1203,577.7874 453.2626,605.9272 " fill="none" id="node_orders-to-node_user" style="stroke:#A80036;stroke-width:1.0;stroke-dasharray:7.0,7.0;"/><polygon fill="#A80036" points="450.9731,610.6635,458.4914,604.3015,453.1492,606.1619,451.2888,600.8197,450.9731,610.6635" style="stroke:#A80036;stroke-width:1.0;"/><text fill="#000000" font-family="sans-serif" font-size="13" lengthAdjust="spacing" textLength="89" x="587" y="502.5684">«ConnectsTo»</text><!--MD5=[ac127b97e1c38c5011d27145bfe2682f]
link node_shipping to node_rabbitmq--><path d="M910,668.3522 C910,668.8662 910,669.3841 910,669.9058 C910,671.9926 910,674.1396 910,676.3383 C910,680.7356 910,685.3394 910,690.0806 C910,694.8218 910,699.7005 910,704.6476 C910,705.8844 910,707.1254 910,708.3697 C910,708.9918 910,709.6148 910,710.2384 C910,710.5501 910,710.8621 910,711.1742 C910,711.3303 910,711.4864 910,711.6425 C910,711.7206 910,711.7986 910,711.8767 C910,711.9158 910,711.9548 910,711.9938 " fill="none" id="node_shipping-to-node_rabbitmq" style="stroke:#A80036;stroke-width:1.0;stroke-dasharray:7.0,7.0;"/><polygon fill="#A80036" points="910,711.9938,914,702.9938,910,706.9938,906,702.9938,910,711.9938" style="stroke:#A80036;stroke-width:1.0;"/><text fill="#000000" font-family="sans-serif" font-size="13" lengthAdjust="spacing" textLength="89" x="911" y="700.5684">«ConnectsTo»</text><!--MD5=[83c8e76573563528ce4b67eddaec4fb3]
link node_edge_router to node_front_end--><path codeLine="97" d="M639,133.5198 C639,133.7099 639,133.9005 639,134.0917 C639,140.2088 639,146.8538 639,153.7977 C639,181.5734 639,214.1314 639,236.8127 " fill="none" id="node_edge_router-to-node_front_end" style="stroke:#A80036;stroke-width:1.0;stroke-dasharray:7.0,7.0;"/><polygon fill="#A80036" points="639,241.8748,643,232.8748,639,236.8748,635,232.8748,639,241.8748" style="stroke:#A80036;stroke-width:1.0;"/><text fill="#000000" font-family="sans-serif" font-size="13" lengthAdjust="spacing" textLength="89" x="640" y="160.5684">«ConnectsTo»</text><!--MD5=[7862fec173a1bb88913a90da0f2f9a34]
@startuml
skinparam componentStyle uml2
allowmixing

node "front-end-node: Container" as node_front_end_node {
component "front-end: Software" as node_front_end
artifact "my_image: Image" <<artifact>> as node_front_end_node_artifact_my_image {
label "file: node:4.8" as node_front_end_node_artifact_my_image_label
}
}
node "payment-go: Container" as node_payment_go {
component "payment: Software" as node_payment
artifact "my_image: Image" <<artifact>> as node_payment_go_artifact_my_image {
label "file: golang:1.7" as node_payment_go_artifact_my_image_label
}
}
node "catalogue-go: Container" as node_catalogue_go {
component "catalogue: Software" as node_catalogue
artifact "my_image: Image" <<artifact>> as node_catalogue_go_artifact_my_image {
label "file: golang:1.7" as node_catalogue_go_artifact_my_image_label
}
}
node "user-go: Container" as node_user_go {
component "user: Software" as node_user
artifact "my_image: Image" <<artifact>> as node_user_go_artifact_my_image {
label "file: golang:1.7" as node_user_go_artifact_my_image_label
}
}
node "orders-java: Container" as node_orders_java {
component "orders: Software" as node_orders
artifact "my_image: Image" <<artifact>> as node_orders_java_artifact_my_image {
label "file: maven:3.2-jdk-8" as node_orders_java_artifact_my_image_label
}
}
node "carts-java: Container" as node_carts_java {
component "carts: Software" as node_carts {
artifact "jar: Artifact" <<artifact>> as node_carts_artifact_jar {
label "file: artifacts/carts.jar" as node_carts_artifact_jar_label
}
}
artifact "my_image: Image" <<artifact>> as node_carts_java_artifact_my_image {
label "file: maven:3.2-jdk-8" as node_carts_java_artifact_my_image_label
}
}
node "shipping-java: Container" as node_shipping_java {
component "shipping: Software" as node_shipping {
artifact "jar: Artifact" <<artifact>> as node_shipping_artifact_jar {
label "file: artifacts/shipping.jar" as node_shipping_artifact_jar_label
}
}
artifact "my_image: Image" <<artifact>> as node_shipping_java_artifact_my_image {
label "file: maven:3.2-jdk-8" as node_shipping_java_artifact_my_image_label
}
}
node "orders-db: Container" as node_orders_db {
artifact "my_image: Service" <<artifact>> as node_orders_db_artifact_my_image {
label "file: mongo" as node_orders_db_artifact_my_image_label
}
}
node "carts-db: Container" as node_carts_db {
artifact "my_image: Service" <<artifact>> as node_carts_db_artifact_my_image {
label "file: mongo" as node_carts_db_artifact_my_image_label
}
}
node "user-db: Container" as node_user_db {
artifact "my_image: Service" <<artifact>> as node_user_db_artifact_my_image {
label "file: weaveworksdemos/user-db" as node_user_db_artifact_my_image_label
}
}
node "catalogue-db: Container" as node_catalogue_db {
artifact "my_image: Service" <<artifact>> as node_catalogue_db_artifact_my_image {
label "file: weaveworksdemos/catalogue-db" as node_catalogue_db_artifact_my_image_label
}
}
node "edge-router: Container" as node_edge_router {
artifact "my_image: Service" <<artifact>> as node_edge_router_artifact_my_image {
label "file: weaveworksdemos/edge-router:latest" as node_edge_router_artifact_my_image_label
}
}
node "rabbitmq: Container" as node_rabbitmq {
artifact "my_image: Service" <<artifact>> as node_rabbitmq_artifact_my_image {
label "file: rabbitmq:3.6.8" as node_rabbitmq_artifact_my_image_label
}
}
node_front_end ..> node_catalogue : <<ConnectsTo>>
node_front_end ..> node_user : <<ConnectsTo>>
node_front_end ..> node_carts : <<ConnectsTo>>
node_front_end ..> node_orders : <<ConnectsTo>>
node_catalogue ..> node_catalogue_db : <<ConnectsTo>>
node_user ..> node_user_db : <<ConnectsTo>>
node_carts ..> node_carts_db : <<ConnectsTo>>
node_orders ..> node_orders_db : <<ConnectsTo>>
node_orders ..> node_shipping : <<ConnectsTo>>
node_orders ..> node_payment : <<ConnectsTo>>
node_orders ..> node_carts : <<ConnectsTo>>
node_orders ..> node_user : <<ConnectsTo>>
node_shipping ..> node_rabbitmq : <<ConnectsTo>>
node_edge_router ..> node_front_end : <<ConnectsTo>>
@enduml

PlantUML version 1.2021.13(Mon Nov 01 12:38:45 CET 2021)
(GPL source distribution)
Java Runtime: Java(TM) SE Runtime Environment
JVM: Java HotSpot(TM) 64-Bit Server VM
Default Encoding: UTF-8
Language: fr
Country: FR
--></g></svg>