<?xml version="1.0" encoding="UTF-8" standalone="no"?>
<!DOCTYPE svg PUBLIC "-//W3C//DTD SVG 1.1//EN"
 "http://www.w3.org/Graphics/SVG/1.1/DTD/svg11.dtd">
<!-- Generated by graphviz version 2.38.0 (20140413.2041)
 -->
<!-- Title: ToscaDiagram Pages: 1 -->
<svg width="1232pt" height="316pt"
 viewBox="0.00 0.00 1232.00 316.00" xmlns="http://www.w3.org/2000/svg" xmlns:xlink="http://www.w3.org/1999/xlink">
<g id="graph0" class="graph" transform="scale(1 1) rotate(0) translate(4 312)">
<title>ToscaDiagram</title>
<polygon fill="white" stroke="none" points="-4,4 -4,-312 1228,-312 1228,4 -4,4"/>
<g id="clust1" class="cluster"><title>clusterapi</title>
<polygon fill="none" stroke="white" points="252,-128 252,-240 585,-240 585,-128 252,-128"/>
</g>
<g id="clust2" class="cluster"><title>clustergui</title>
<polygon fill="none" stroke="white" points="8,-69 8,-181 232,-181 232,-69 8,-69"/>
</g>
<g id="clust3" class="cluster"><title>clustermaven</title>
<polygon fill="none" stroke="white" points="610.5,-68 610.5,-180 845.5,-180 845.5,-68 610.5,-68"/>
</g>
<g id="clust4" class="cluster"><title>clusternode_node</title>
<polygon fill="none" stroke="white" points="252.5,-8 252.5,-120 468.5,-120 468.5,-8 252.5,-8"/>
</g>
<g id="clust5" class="cluster"><title>clustermongodb</title>
<polygon fill="none" stroke="white" points="605,-188 605,-300 945,-300 945,-188 605,-188"/>
</g>
<g id="clust6" class="cluster"><title>clusterdbvolume</title>
<polygon fill="none" stroke="white" points="965,-188 965,-300 1216,-300 1216,-188 965,-188"/>
</g>
<!-- api -->
<g id="node1" class="node"><title>api</title>
<path fill="none" stroke="black" d="M363,-136.5C363,-136.5 453,-136.5 453,-136.5 459,-136.5 465,-142.5 465,-148.5 465,-148.5 465,-219.5 465,-219.5 465,-225.5 459,-231.5 453,-231.5 453,-231.5 363,-231.5 363,-231.5 357,-231.5 351,-225.5 351,-219.5 351,-219.5 351,-148.5 351,-148.5 351,-142.5 357,-136.5 363,-136.5"/>
<text text-anchor="middle" x="408" y="-216.3" font-family="Times,serif" font-size="14.00">api: APISoftware</text>
<polyline fill="none" stroke="black" points="351,-208.5 465,-208.5 "/>
</g>
<!-- api_requirement_connection -->
<g id="node3" class="node"><title>api_requirement_connection</title>
<polygon fill="turquoise" stroke="black" points="565,-224 501,-224 501,-200 565,-200 577,-212 565,-224"/>
<text text-anchor="middle" x="539" y="-208.3" font-family="Times,serif" font-size="14.00">connection</text>
</g>
<!-- api&#45;&#45;api_requirement_connection -->
<g id="edge2" class="edge"><title>api&#45;&#45;api_requirement_connection</title>
<path fill="none" stroke="black" d="M465.206,-196.2C477.292,-198.823 489.772,-201.532 500.912,-203.95"/>
</g>
<!-- api_requirement_host -->
<g id="node4" class="node"><title>api_requirement_host</title>
<polygon fill="turquoise" stroke="black" points="554,-169 512,-169 512,-145 554,-145 566,-157 554,-169"/>
<text text-anchor="middle" x="539" y="-153.3" font-family="Times,serif" font-size="14.00">host</text>
</g>
<!-- api&#45;&#45;api_requirement_host -->
<g id="edge3" class="edge"><title>api&#45;&#45;api_requirement_host</title>
<path fill="none" stroke="black" d="M465.206,-172.236C481.501,-168.825 498.514,-165.264 511.992,-162.444"/>
</g>
<!-- api_capability_feature -->
<g id="node2" class="node"><title>api_capability_feature</title>
<polygon fill="orange" stroke="black" points="303,-181 260,-181 260,-157 303,-157 315,-169 303,-181"/>
<text text-anchor="middle" x="287.5" y="-165.3" font-family="Times,serif" font-size="14.00">feature</text>
</g>
<!-- api_capability_feature&#45;&#45;api -->
<g id="edge1" class="edge"><title>api_capability_feature&#45;&#45;api</title>
<path fill="none" stroke="black" d="M315.094,-172.366C325.739,-173.714 338.429,-175.32 350.93,-176.903"/>
</g>
<!-- mongodb_capability_endpoint -->
<g id="node13" class="node"><title>mongodb_capability_endpoint</title>
<polygon fill="orange" stroke="black" points="666,-241 613,-241 613,-217 666,-217 678,-229 666,-241"/>
<text text-anchor="middle" x="645.5" y="-225.3" font-family="Times,serif" font-size="14.00">endpoint</text>
</g>
<!-- api_requirement_connection&#45;&#45;mongodb_capability_endpoint -->
<g id="edge12" class="edge"><title>api_requirement_connection&#45;&#45;mongodb_capability_endpoint</title>
<path fill="none" stroke="black" stroke-dasharray="1,5" d="M577.137,-218.041C588.753,-219.931 601.459,-221.998 612.674,-223.823"/>
</g>
<!-- maven_capability_host -->
<g id="node9" class="node"><title>maven_capability_host</title>
<polygon fill="orange" stroke="black" points="660.5,-151 618.5,-151 618.5,-127 660.5,-127 672.5,-139 660.5,-151"/>
<text text-anchor="middle" x="645.5" y="-135.3" font-family="Times,serif" font-size="14.00">host</text>
</g>
<!-- api_requirement_host&#45;&#45;maven_capability_host -->
<g id="edge11" class="edge"><title>api_requirement_host&#45;&#45;maven_capability_host</title>
<path fill="none" stroke="black" stroke-dasharray="1,5" d="M566.1,-152.504C582.06,-149.755 602.405,-146.251 618.37,-143.501"/>
</g>
<!-- gui -->
<g id="node5" class="node"><title>gui</title>
<path fill="none" stroke="black" d="M28,-77.5C28,-77.5 95,-77.5 95,-77.5 101,-77.5 107,-83.5 107,-89.5 107,-89.5 107,-160.5 107,-160.5 107,-166.5 101,-172.5 95,-172.5 95,-172.5 28,-172.5 28,-172.5 22,-172.5 16,-166.5 16,-160.5 16,-160.5 16,-89.5 16,-89.5 16,-83.5 22,-77.5 28,-77.5"/>
<text text-anchor="middle" x="61.5" y="-157.3" font-family="Times,serif" font-size="14.00">gui: Software</text>
<polyline fill="none" stroke="black" points="16,-149.5 107,-149.5 "/>
</g>
<!-- gui_requirement_dependency -->
<g id="node6" class="node"><title>gui_requirement_dependency</title>
<polygon fill="turquoise" stroke="black" points="212,-166 143,-166 143,-142 212,-142 224,-154 212,-166"/>
<text text-anchor="middle" x="183.5" y="-150.3" font-family="Times,serif" font-size="14.00">dependency</text>
</g>
<!-- gui&#45;&#45;gui_requirement_dependency -->
<g id="edge4" class="edge"><title>gui&#45;&#45;gui_requirement_dependency</title>
<path fill="none" stroke="black" d="M107.184,-135.799C118.912,-138.633 131.476,-141.669 142.917,-144.434"/>
</g>
<!-- gui_requirement_host -->
<g id="node7" class="node"><title>gui_requirement_host</title>
<polygon fill="turquoise" stroke="black" points="198.5,-109 156.5,-109 156.5,-85 198.5,-85 210.5,-97 198.5,-109"/>
<text text-anchor="middle" x="183.5" y="-93.3" font-family="Times,serif" font-size="14.00">host</text>
</g>
<!-- gui&#45;&#45;gui_requirement_host -->
<g id="edge5" class="edge"><title>gui&#45;&#45;gui_requirement_host</title>
<path fill="none" stroke="black" d="M107.184,-114.574C123.709,-110.718 141.896,-106.474 156.258,-103.123"/>
</g>
<!-- gui_requirement_dependency&#45;&#45;api_capability_feature -->
<g id="edge14" class="edge"><title>gui_requirement_dependency&#45;&#45;api_capability_feature</title>
<path fill="none" stroke="black" stroke-dasharray="1,5" d="M224.228,-159.842C236.199,-161.603 249.041,-163.491 259.936,-165.094"/>
</g>
<!-- node_node_capability_host -->
<g id="node11" class="node"><title>node_node_capability_host</title>
<polygon fill="orange" stroke="black" points="302.5,-91 260.5,-91 260.5,-67 302.5,-67 314.5,-79 302.5,-91"/>
<text text-anchor="middle" x="287.5" y="-75.3" font-family="Times,serif" font-size="14.00">host</text>
</g>
<!-- gui_requirement_host&#45;&#45;node_node_capability_host -->
<g id="edge13" class="edge"><title>gui_requirement_host&#45;&#45;node_node_capability_host</title>
<path fill="none" stroke="black" stroke-dasharray="1,5" d="M210.503,-92.4113C225.731,-89.724 244.909,-86.3395 260.19,-83.6429"/>
</g>
<!-- maven -->
<g id="node8" class="node"><title>maven</title>
<path fill="none" stroke="black" d="M733.5,-76.5C733.5,-76.5 825.5,-76.5 825.5,-76.5 831.5,-76.5 837.5,-82.5 837.5,-88.5 837.5,-88.5 837.5,-159.5 837.5,-159.5 837.5,-165.5 831.5,-171.5 825.5,-171.5 825.5,-171.5 733.5,-171.5 733.5,-171.5 727.5,-171.5 721.5,-165.5 721.5,-159.5 721.5,-159.5 721.5,-88.5 721.5,-88.5 721.5,-82.5 727.5,-76.5 733.5,-76.5"/>
<text text-anchor="middle" x="779.5" y="-156.3" font-family="Times,serif" font-size="14.00">maven: Container</text>
<polyline fill="none" stroke="black" points="721.5,-148.5 837.5,-148.5 "/>
</g>
<!-- maven_capability_host&#45;&#45;maven -->
<g id="edge6" class="edge"><title>maven_capability_host&#45;&#45;maven</title>
<path fill="none" stroke="black" d="M672.579,-136.036C686.554,-134.448 704.354,-132.426 721.356,-130.494"/>
</g>
<!-- node_node -->
<g id="node10" class="node"><title>node_node</title>
<path fill="none" stroke="black" d="M367.5,-16.5C367.5,-16.5 448.5,-16.5 448.5,-16.5 454.5,-16.5 460.5,-22.5 460.5,-28.5 460.5,-28.5 460.5,-99.5 460.5,-99.5 460.5,-105.5 454.5,-111.5 448.5,-111.5 448.5,-111.5 367.5,-111.5 367.5,-111.5 361.5,-111.5 355.5,-105.5 355.5,-99.5 355.5,-99.5 355.5,-28.5 355.5,-28.5 355.5,-22.5 361.5,-16.5 367.5,-16.5"/>
<text text-anchor="middle" x="408" y="-96.3" font-family="Times,serif" font-size="14.00">node: Container</text>
<polyline fill="none" stroke="black" points="355.5,-88.5 460.5,-88.5 "/>
</g>
<!-- node_node_capability_host&#45;&#45;node_node -->
<g id="edge7" class="edge"><title>node_node_capability_host&#45;&#45;node_node</title>
<path fill="none" stroke="black" d="M314.505,-75.7082C326.496,-74.1904 341.173,-72.3326 355.272,-70.5479"/>
</g>
<!-- mongodb -->
<g id="node12" class="node"><title>mongodb</title>
<path fill="none" stroke="black" d="M726,-196.5C726,-196.5 833,-196.5 833,-196.5 839,-196.5 845,-202.5 845,-208.5 845,-208.5 845,-279.5 845,-279.5 845,-285.5 839,-291.5 833,-291.5 833,-291.5 726,-291.5 726,-291.5 720,-291.5 714,-285.5 714,-279.5 714,-279.5 714,-208.5 714,-208.5 714,-202.5 720,-196.5 726,-196.5"/>
<text text-anchor="middle" x="779.5" y="-276.3" font-family="Times,serif" font-size="14.00">mongodb: Container</text>
<polyline fill="none" stroke="black" points="714,-268.5 845,-268.5 "/>
</g>
<!-- mongodb_requirement_storage -->
<g id="node14" class="node"><title>mongodb_requirement_storage</title>
<polygon fill="turquoise" stroke="black" points="925,-256 881,-256 881,-232 925,-232 937,-244 925,-256"/>
<text text-anchor="middle" x="909" y="-240.3" font-family="Times,serif" font-size="14.00">storage</text>
</g>
<!-- mongodb&#45;&#45;mongodb_requirement_storage -->
<g id="edge9" class="edge"><title>mongodb&#45;&#45;mongodb_requirement_storage</title>
<path fill="none" stroke="black" d="M845.371,-244C857.92,-244 870.412,-244 880.9,-244"/>
</g>
<!-- mongodb_capability_endpoint&#45;&#45;mongodb -->
<g id="edge8" class="edge"><title>mongodb_capability_endpoint&#45;&#45;mongodb</title>
<path fill="none" stroke="black" d="M678.117,-232.593C688.948,-233.824 701.492,-235.249 713.967,-236.667"/>
</g>
<!-- dbvolume_capability_attachment -->
<g id="node16" class="node"><title>dbvolume_capability_attachment</title>
<polygon fill="orange" stroke="black" points="1038,-256 973,-256 973,-232 1038,-232 1050,-244 1038,-256"/>
<text text-anchor="middle" x="1011.5" y="-240.3" font-family="Times,serif" font-size="14.00">attachment</text>
</g>
<!-- mongodb_requirement_storage&#45;&#45;dbvolume_capability_attachment -->
<g id="edge15" class="edge"><title>mongodb_requirement_storage&#45;&#45;dbvolume_capability_attachment</title>
<path fill="none" stroke="black" stroke-dasharray="1,5" d="M937.197,-244C948.126,-244 960.912,-244 972.718,-244"/>
</g>
<!-- dbvolume -->
<g id="node15" class="node"><title>dbvolume</title>
<path fill="none" stroke="black" d="M1098,-196.5C1098,-196.5 1196,-196.5 1196,-196.5 1202,-196.5 1208,-202.5 1208,-208.5 1208,-208.5 1208,-279.5 1208,-279.5 1208,-285.5 1202,-291.5 1196,-291.5 1196,-291.5 1098,-291.5 1098,-291.5 1092,-291.5 1086,-285.5 1086,-279.5 1086,-279.5 1086,-208.5 1086,-208.5 1086,-202.5 1092,-196.5 1098,-196.5"/>
<text text-anchor="middle" x="1147" y="-276.3" font-family="Times,serif" font-size="14.00">dbvolume: Volume</text>
<polyline fill="none" stroke="black" points="1086,-268.5 1208,-268.5 "/>
</g>
<!-- dbvolume_capability_attachment&#45;&#45;dbvolume -->
<g id="edge10" class="edge"><title>dbvolume_capability_attachment&#45;&#45;dbvolume</title>
<path fill="none" stroke="black" d="M1050.04,-244C1061.15,-244 1073.6,-244 1085.76,-244"/>
</g>
</g>
</svg>
