<?xml version="1.0" encoding="UTF-8" standalone="no"?><svg xmlns="http://www.w3.org/2000/svg" xmlns:xlink="http://www.w3.org/1999/xlink" contentScriptType="application/ecmascript" contentStyleType="text/css" height="2048px" preserveAspectRatio="none" style="width:435px;height:2048px;background:#FFFFFF;" version="1.1" viewBox="0 0 435 2048" width="435px" zoomAndPan="magnify"><defs/><g><rect fill="#006400" height="8" style="stroke:none;stroke-width:1.0;" width="80" x="176.5" y="386"/><ellipse cx="216.5" cy="16" fill="#008000" rx="10" ry="10" style="stroke:none;stroke-width:1.0;"/><rect fill="#FF8C00" height="8" style="stroke:none;stroke-width:1.0;" width="80" x="177.5" y="1954"/><ellipse cx="217.5" cy="2032" rx="10" ry="10" style="stroke:#000000;stroke-width:1.0;fill:none;"/><ellipse cx="218" cy="2032.5" fill="#000000" rx="6" ry="6" style="stroke:none;stroke-width:1.0;"/><rect fill="#FFFFFF" height="240.4883" rx="12.5" ry="12.5" style="stroke:#000000;stroke-width:1.5;" width="156" x="138.5" y="86"/><rect fill="#FFFFFF" height="208" rx="12.5" ry="12.5" style="stroke:#FFFFFF;stroke-width:1.0;" width="150" x="141.5" y="115.4883"/><line style="stroke:#000000;stroke-width:1.5;" x1="138.5" x2="294.5" y1="112.4883" y2="112.4883"/><text fill="#000000" font-family="sans-serif" font-size="14" lengthAdjust="spacing" textLength="63" x="185" y="104.5352">stop_app</text><rect fill="#FFFFFF" height="40" rx="12.5" ry="12.5" style="stroke:#0000FF;stroke-width:1.5;" width="101" x="168" y="124.4883"/><text fill="#000000" font-family="sans-serif" font-size="14" lengthAdjust="spacing" textLength="91" x="173" y="149.7793">app stopping</text><rect fill="#ADD8E6" height="40" rx="12.5" ry="12.5" style="stroke:#0000FF;stroke-width:1.5;" width="136" x="150.5" y="200.4883"/><text fill="#000000" font-family="sans-serif" font-size="14" lengthAdjust="spacing" textLength="126" x="155.5" y="225.7793">app Standard.stop</text><rect fill="#FFFFFF" height="40" rx="12.5" ry="12.5" style="stroke:#0000FF;stroke-width:1.5;" width="96" x="170.5" y="276.4883"/><text fill="#000000" font-family="sans-serif" font-size="14" lengthAdjust="spacing" textLength="86" x="175.5" y="301.7793">app stopped</text><!--MD5=[3fd27f831c5e383d39a99b9273925e19]
link step_parallel_undeploy_stop_app_app_stopping to step_parallel_undeploy_stop_app_app_Standard.stop--><path d="M218.5,164.8549 C218.5,174.2155 218.5,185.4103 218.5,195.2956 " fill="none" id="step_parallel_undeploy_stop_app_app_stopping-to-step_parallel_undeploy_stop_app_app_Standard.stop" style="stroke:#0000FF;stroke-width:1.0;"/><polygon fill="#0000FF" points="218.5,200.329,222.5,191.329,218.5,195.329,214.5,191.329,218.5,200.329" style="stroke:#0000FF;stroke-width:1.0;"/><!--MD5=[f4ad337ec1e825e7f419ecf38e60e813]
link step_parallel_undeploy_stop_app_app_Standard.stop to step_parallel_undeploy_stop_app_app_stopped--><path d="M218.5,240.8549 C218.5,250.2155 218.5,261.4103 218.5,271.2956 " fill="none" id="step_parallel_undeploy_stop_app_app_Standard.stop-to-step_parallel_undeploy_stop_app_app_stopped" style="stroke:#0000FF;stroke-width:1.0;"/><polygon fill="#0000FF" points="218.5,276.329,222.5,267.329,218.5,271.329,214.5,267.329,218.5,276.329" style="stroke:#0000FF;stroke-width:1.0;"/><rect fill="#FFFFFF" height="240.4883" rx="12.5" ry="12.5" style="stroke:#000000;stroke-width:1.5;" width="168" x="64.5" y="454"/><rect fill="#FFFFFF" height="208" rx="12.5" ry="12.5" style="stroke:#FFFFFF;stroke-width:1.0;" width="162" x="67.5" y="483.4883"/><line style="stroke:#000000;stroke-width:1.5;" x1="64.5" x2="232.5" y1="480.4883" y2="480.4883"/><text fill="#000000" font-family="sans-serif" font-size="14" lengthAdjust="spacing" textLength="75" x="111" y="472.5352">delete_app</text><rect fill="#FFFFFF" height="40" rx="12.5" ry="12.5" style="stroke:#0000FF;stroke-width:1.5;" width="96" x="102.5" y="492.4883"/><text fill="#000000" font-family="sans-serif" font-size="14" lengthAdjust="spacing" textLength="86" x="107.5" y="517.7793">app deleting</text><rect fill="#ADD8E6" height="40" rx="12.5" ry="12.5" style="stroke:#0000FF;stroke-width:1.5;" width="148" x="76.5" y="568.4883"/><text fill="#000000" font-family="sans-serif" font-size="14" lengthAdjust="spacing" textLength="138" x="81.5" y="593.7793">app Standard.delete</text><rect fill="#FFFFFF" height="40" rx="12.5" ry="12.5" style="stroke:#0000FF;stroke-width:1.5;" width="78" x="111.5" y="644.4883"/><text fill="#000000" font-family="sans-serif" font-size="14" lengthAdjust="spacing" textLength="68" x="116.5" y="669.7793">app initial</text><!--MD5=[4f6641017e4211bd102a3d466ebab0f7]
link step_parallel_undeploy_delete_app_app_deleting to step_parallel_undeploy_delete_app_app_Standard.delete--><path d="M150.5,532.8549 C150.5,542.2155 150.5,553.4103 150.5,563.2956 " fill="none" id="step_parallel_undeploy_delete_app_app_deleting-to-step_parallel_undeploy_delete_app_app_Standard.delete" style="stroke:#0000FF;stroke-width:1.0;"/><polygon fill="#0000FF" points="150.5,568.329,154.5,559.329,150.5,563.329,146.5,559.329,150.5,568.329" style="stroke:#0000FF;stroke-width:1.0;"/><!--MD5=[21a8f6be9aa3e734ecfc52a25042b48d]
link step_parallel_undeploy_delete_app_app_Standard.delete to step_parallel_undeploy_delete_app_app_initial--><path d="M150.5,608.8549 C150.5,618.2155 150.5,629.4103 150.5,639.2956 " fill="none" id="step_parallel_undeploy_delete_app_app_Standard.delete-to-step_parallel_undeploy_delete_app_app_initial" style="stroke:#0000FF;stroke-width:1.0;"/><polygon fill="#0000FF" points="150.5,644.329,154.5,635.329,150.5,639.329,146.5,635.329,150.5,644.329" style="stroke:#0000FF;stroke-width:1.0;"/><rect fill="#FFFFFF" height="240.4883" rx="12.5" ry="12.5" style="stroke:#000000;stroke-width:1.5;" width="148" x="244.5" y="754"/><rect fill="#FFFFFF" height="208" rx="12.5" ry="12.5" style="stroke:#FFFFFF;stroke-width:1.0;" width="142" x="247.5" y="783.4883"/><line style="stroke:#000000;stroke-width:1.5;" x1="244.5" x2="392.5" y1="780.4883" y2="780.4883"/><text fill="#000000" font-family="sans-serif" font-size="14" lengthAdjust="spacing" textLength="55" x="291" y="772.5352">stop_db</text><rect fill="#FFFFFF" height="40" rx="12.5" ry="12.5" style="stroke:#0000FF;stroke-width:1.5;" width="93" x="274" y="792.4883"/><text fill="#000000" font-family="sans-serif" font-size="14" lengthAdjust="spacing" textLength="83" x="279" y="817.7793">db stopping</text><rect fill="#ADD8E6" height="40" rx="12.5" ry="12.5" style="stroke:#0000FF;stroke-width:1.5;" width="128" x="256.5" y="868.4883"/><text fill="#000000" font-family="sans-serif" font-size="14" lengthAdjust="spacing" textLength="118" x="261.5" y="893.7793">db Standard.stop</text><rect fill="#FFFFFF" height="40" rx="12.5" ry="12.5" style="stroke:#0000FF;stroke-width:1.5;" width="88" x="276.5" y="944.4883"/><text fill="#000000" font-family="sans-serif" font-size="14" lengthAdjust="spacing" textLength="78" x="281.5" y="969.7793">db stopped</text><!--MD5=[eb98d17d2243a01a06d3f39e43fc2cd3]
link step_parallel_undeploy_stop_db_db_stopping to step_parallel_undeploy_stop_db_db_Standard.stop--><path d="M320.5,832.8549 C320.5,842.2155 320.5,853.4103 320.5,863.2956 " fill="none" id="step_parallel_undeploy_stop_db_db_stopping-to-step_parallel_undeploy_stop_db_db_Standard.stop" style="stroke:#0000FF;stroke-width:1.0;"/><polygon fill="#0000FF" points="320.5,868.329,324.5,859.329,320.5,863.329,316.5,859.329,320.5,868.329" style="stroke:#0000FF;stroke-width:1.0;"/><!--MD5=[6d951a2cc27f3b9977f42c308e03a23b]
link step_parallel_undeploy_stop_db_db_Standard.stop to step_parallel_undeploy_stop_db_db_stopped--><path d="M320.5,908.8549 C320.5,918.2155 320.5,929.4103 320.5,939.2956 " fill="none" id="step_parallel_undeploy_stop_db_db_Standard.stop-to-step_parallel_undeploy_stop_db_db_stopped" style="stroke:#0000FF;stroke-width:1.0;"/><polygon fill="#0000FF" points="320.5,944.329,324.5,935.329,320.5,939.329,316.5,935.329,320.5,944.329" style="stroke:#0000FF;stroke-width:1.0;"/><rect fill="#FFFFFF" height="240.4883" rx="12.5" ry="12.5" style="stroke:#000000;stroke-width:1.5;" width="160" x="243.5" y="1054"/><rect fill="#FFFFFF" height="208" rx="12.5" ry="12.5" style="stroke:#FFFFFF;stroke-width:1.0;" width="154" x="246.5" y="1083.4883"/><line style="stroke:#000000;stroke-width:1.5;" x1="243.5" x2="403.5" y1="1080.4883" y2="1080.4883"/><text fill="#000000" font-family="sans-serif" font-size="14" lengthAdjust="spacing" textLength="67" x="290" y="1072.5352">delete_db</text><rect fill="#FFFFFF" height="40" rx="12.5" ry="12.5" style="stroke:#0000FF;stroke-width:1.5;" width="88" x="281.5" y="1092.4883"/><text fill="#000000" font-family="sans-serif" font-size="14" lengthAdjust="spacing" textLength="78" x="286.5" y="1117.7793">db deleting</text><rect fill="#ADD8E6" height="40" rx="12.5" ry="12.5" style="stroke:#0000FF;stroke-width:1.5;" width="140" x="255.5" y="1168.4883"/><text fill="#000000" font-family="sans-serif" font-size="14" lengthAdjust="spacing" textLength="130" x="260.5" y="1193.7793">db Standard.delete</text><rect fill="#FFFFFF" height="40" rx="12.5" ry="12.5" style="stroke:#0000FF;stroke-width:1.5;" width="70" x="290.5" y="1244.4883"/><text fill="#000000" font-family="sans-serif" font-size="14" lengthAdjust="spacing" textLength="60" x="295.5" y="1269.7793">db initial</text><!--MD5=[c4dd7ba936f71370905790bb45b92687]
link step_parallel_undeploy_delete_db_db_deleting to step_parallel_undeploy_delete_db_db_Standard.delete--><path d="M325.5,1132.8549 C325.5,1142.2155 325.5,1153.4103 325.5,1163.2956 " fill="none" id="step_parallel_undeploy_delete_db_db_deleting-to-step_parallel_undeploy_delete_db_db_Standard.delete" style="stroke:#0000FF;stroke-width:1.0;"/><polygon fill="#0000FF" points="325.5,1168.329,329.5,1159.329,325.5,1163.329,321.5,1159.329,325.5,1168.329" style="stroke:#0000FF;stroke-width:1.0;"/><!--MD5=[2f8f354716939e09bdf3d9609ef6cda7]
link step_parallel_undeploy_delete_db_db_Standard.delete to step_parallel_undeploy_delete_db_db_initial--><path d="M325.5,1208.8549 C325.5,1218.2155 325.5,1229.4103 325.5,1239.2956 " fill="none" id="step_parallel_undeploy_delete_db_db_Standard.delete-to-step_parallel_undeploy_delete_db_db_initial" style="stroke:#0000FF;stroke-width:1.0;"/><polygon fill="#0000FF" points="325.5,1244.329,329.5,1235.329,325.5,1239.329,321.5,1235.329,325.5,1244.329" style="stroke:#0000FF;stroke-width:1.0;"/><rect fill="#FFFFFF" height="240.4883" rx="12.5" ry="12.5" style="stroke:#000000;stroke-width:1.5;" width="165" x="39" y="754"/><rect fill="#FFFFFF" height="208" rx="12.5" ry="12.5" style="stroke:#FFFFFF;stroke-width:1.0;" width="159" x="42" y="783.4883"/><line style="stroke:#000000;stroke-width:1.5;" x1="39" x2="204" y1="780.4883" y2="780.4883"/><text fill="#000000" font-family="sans-serif" font-size="14" lengthAdjust="spacing" textLength="72" x="85.5" y="772.5352">stop_node</text><rect fill="#FFFFFF" height="40" rx="12.5" ry="12.5" style="stroke:#0000FF;stroke-width:1.5;" width="110" x="68.5" y="792.4883"/><text fill="#000000" font-family="sans-serif" font-size="14" lengthAdjust="spacing" textLength="100" x="73.5" y="817.7793">node stopping</text><rect fill="#ADD8E6" height="40" rx="12.5" ry="12.5" style="stroke:#0000FF;stroke-width:1.5;" width="145" x="51" y="868.4883"/><text fill="#000000" font-family="sans-serif" font-size="14" lengthAdjust="spacing" textLength="135" x="56" y="893.7793">node Standard.stop</text><rect fill="#FFFFFF" height="40" rx="12.5" ry="12.5" style="stroke:#0000FF;stroke-width:1.5;" width="105" x="71" y="944.4883"/><text fill="#000000" font-family="sans-serif" font-size="14" lengthAdjust="spacing" textLength="95" x="76" y="969.7793">node stopped</text><!--MD5=[6640a0a37fa2d293a2ae4cb8955da274]
link step_parallel_undeploy_stop_node_node_stopping to step_parallel_undeploy_stop_node_node_Standard.stop--><path d="M123.5,832.8549 C123.5,842.2155 123.5,853.4103 123.5,863.2956 " fill="none" id="step_parallel_undeploy_stop_node_node_stopping-to-step_parallel_undeploy_stop_node_node_Standard.stop" style="stroke:#0000FF;stroke-width:1.0;"/><polygon fill="#0000FF" points="123.5,868.329,127.5,859.329,123.5,863.329,119.5,859.329,123.5,868.329" style="stroke:#0000FF;stroke-width:1.0;"/><!--MD5=[0d658201e704a66eb61924f9fa925b8e]
link step_parallel_undeploy_stop_node_node_Standard.stop to step_parallel_undeploy_stop_node_node_stopped--><path d="M123.5,908.8549 C123.5,918.2155 123.5,929.4103 123.5,939.2956 " fill="none" id="step_parallel_undeploy_stop_node_node_Standard.stop-to-step_parallel_undeploy_stop_node_node_stopped" style="stroke:#0000FF;stroke-width:1.0;"/><polygon fill="#0000FF" points="123.5,944.329,127.5,935.329,123.5,939.329,119.5,935.329,123.5,944.329" style="stroke:#0000FF;stroke-width:1.0;"/><rect fill="#FFFFFF" height="240.4883" rx="12.5" ry="12.5" style="stroke:#000000;stroke-width:1.5;" width="177" x="27" y="1054"/><rect fill="#FFFFFF" height="208" rx="12.5" ry="12.5" style="stroke:#FFFFFF;stroke-width:1.0;" width="171" x="30" y="1083.4883"/><line style="stroke:#000000;stroke-width:1.5;" x1="27" x2="204" y1="1080.4883" y2="1080.4883"/><text fill="#000000" font-family="sans-serif" font-size="14" lengthAdjust="spacing" textLength="84" x="73.5" y="1072.5352">delete_node</text><rect fill="#FFFFFF" height="40" rx="12.5" ry="12.5" style="stroke:#0000FF;stroke-width:1.5;" width="105" x="65" y="1092.4883"/><text fill="#000000" font-family="sans-serif" font-size="14" lengthAdjust="spacing" textLength="95" x="70" y="1117.7793">node deleting</text><rect fill="#ADD8E6" height="40" rx="12.5" ry="12.5" style="stroke:#0000FF;stroke-width:1.5;" width="157" x="39" y="1168.4883"/><text fill="#000000" font-family="sans-serif" font-size="14" lengthAdjust="spacing" textLength="147" x="44" y="1193.7793">node Standard.delete</text><rect fill="#FFFFFF" height="40" rx="12.5" ry="12.5" style="stroke:#0000FF;stroke-width:1.5;" width="87" x="74" y="1244.4883"/><text fill="#000000" font-family="sans-serif" font-size="14" lengthAdjust="spacing" textLength="77" x="79" y="1269.7793">node initial</text><!--MD5=[031dfa6d1694c38b58dc00eb6fb39a0e]
link step_parallel_undeploy_delete_node_node_deleting to step_parallel_undeploy_delete_node_node_Standard.delete--><path d="M117.5,1132.8549 C117.5,1142.2155 117.5,1153.4103 117.5,1163.2956 " fill="none" id="step_parallel_undeploy_delete_node_node_deleting-to-step_parallel_undeploy_delete_node_node_Standard.delete" style="stroke:#0000FF;stroke-width:1.0;"/><polygon fill="#0000FF" points="117.5,1168.329,121.5,1159.329,117.5,1163.329,113.5,1159.329,117.5,1168.329" style="stroke:#0000FF;stroke-width:1.0;"/><!--MD5=[92907bac27d3cb74284549f47e3b1aeb]
link step_parallel_undeploy_delete_node_node_Standard.delete to step_parallel_undeploy_delete_node_node_initial--><path d="M117.5,1208.8549 C117.5,1218.2155 117.5,1229.4103 117.5,1239.2956 " fill="none" id="step_parallel_undeploy_delete_node_node_Standard.delete-to-step_parallel_undeploy_delete_node_node_initial" style="stroke:#0000FF;stroke-width:1.0;"/><polygon fill="#0000FF" points="117.5,1244.329,121.5,1235.329,117.5,1239.329,113.5,1235.329,117.5,1244.329" style="stroke:#0000FF;stroke-width:1.0;"/><rect fill="#FFFFFF" height="240.4883" rx="12.5" ry="12.5" style="stroke:#000000;stroke-width:1.5;" width="181" x="19" y="1354"/><rect fill="#FFFFFF" height="208" rx="12.5" ry="12.5" style="stroke:#FFFFFF;stroke-width:1.0;" width="175" x="22" y="1383.4883"/><line style="stroke:#000000;stroke-width:1.5;" x1="19" x2="200" y1="1380.4883" y2="1380.4883"/><text fill="#000000" font-family="sans-serif" font-size="14" lengthAdjust="spacing" textLength="88" x="65.5" y="1372.5352">stop_server1</text><rect fill="#FFFFFF" height="40" rx="12.5" ry="12.5" style="stroke:#0000FF;stroke-width:1.5;" width="126" x="48.5" y="1392.4883"/><text fill="#000000" font-family="sans-serif" font-size="14" lengthAdjust="spacing" textLength="116" x="53.5" y="1417.7793">server1 stopping</text><rect fill="#ADD8E6" height="40" rx="12.5" ry="12.5" style="stroke:#0000FF;stroke-width:1.5;" width="161" x="31" y="1468.4883"/><text fill="#000000" font-family="sans-serif" font-size="14" lengthAdjust="spacing" textLength="151" x="36" y="1493.7793">server1 Standard.stop</text><rect fill="#FFFFFF" height="40" rx="12.5" ry="12.5" style="stroke:#0000FF;stroke-width:1.5;" width="121" x="51" y="1544.4883"/><text fill="#000000" font-family="sans-serif" font-size="14" lengthAdjust="spacing" textLength="111" x="56" y="1569.7793">server1 stopped</text><!--MD5=[d1a34df5fab997dae4011e7b35c3e838]
link step_parallel_undeploy_stop_server1_server1_stopping to step_parallel_undeploy_stop_server1_server1_Standard.stop--><path d="M111.5,1432.8549 C111.5,1442.2155 111.5,1453.4103 111.5,1463.2956 " fill="none" id="step_parallel_undeploy_stop_server1_server1_stopping-to-step_parallel_undeploy_stop_server1_server1_Standard.stop" style="stroke:#0000FF;stroke-width:1.0;"/><polygon fill="#0000FF" points="111.5,1468.329,115.5,1459.329,111.5,1463.329,107.5,1459.329,111.5,1468.329" style="stroke:#0000FF;stroke-width:1.0;"/><!--MD5=[5b186e8666b5843a1f90459d66171118]
link step_parallel_undeploy_stop_server1_server1_Standard.stop to step_parallel_undeploy_stop_server1_server1_stopped--><path d="M111.5,1508.8549 C111.5,1518.2155 111.5,1529.4103 111.5,1539.2956 " fill="none" id="step_parallel_undeploy_stop_server1_server1_Standard.stop-to-step_parallel_undeploy_stop_server1_server1_stopped" style="stroke:#0000FF;stroke-width:1.0;"/><polygon fill="#0000FF" points="111.5,1544.329,115.5,1535.329,111.5,1539.329,107.5,1535.329,111.5,1544.329" style="stroke:#0000FF;stroke-width:1.0;"/><rect fill="#FFFFFF" height="240.4883" rx="12.5" ry="12.5" style="stroke:#000000;stroke-width:1.5;" width="193" x="7" y="1654"/><rect fill="#FFFFFF" height="208" rx="12.5" ry="12.5" style="stroke:#FFFFFF;stroke-width:1.0;" width="187" x="10" y="1683.4883"/><line style="stroke:#000000;stroke-width:1.5;" x1="7" x2="200" y1="1680.4883" y2="1680.4883"/><text fill="#000000" font-family="sans-serif" font-size="14" lengthAdjust="spacing" textLength="100" x="53.5" y="1672.5352">delete_server1</text><rect fill="#FFFFFF" height="40" rx="12.5" ry="12.5" style="stroke:#0000FF;stroke-width:1.5;" width="121" x="45" y="1692.4883"/><text fill="#000000" font-family="sans-serif" font-size="14" lengthAdjust="spacing" textLength="111" x="50" y="1717.7793">server1 deleting</text><rect fill="#ADD8E6" height="40" rx="12.5" ry="12.5" style="stroke:#0000FF;stroke-width:1.5;" width="173" x="19" y="1768.4883"/><text fill="#000000" font-family="sans-serif" font-size="14" lengthAdjust="spacing" textLength="163" x="24" y="1793.7793">server1 Standard.delete</text><rect fill="#FFFFFF" height="40" rx="12.5" ry="12.5" style="stroke:#0000FF;stroke-width:1.5;" width="103" x="54" y="1844.4883"/><text fill="#000000" font-family="sans-serif" font-size="14" lengthAdjust="spacing" textLength="93" x="59" y="1869.7793">server1 initial</text><!--MD5=[fd22c4c4583b2ad8cf16213dd833cf4b]
link step_parallel_undeploy_delete_server1_server1_deleting to step_parallel_undeploy_delete_server1_server1_Standard.delete--><path d="M105.5,1732.8549 C105.5,1742.2155 105.5,1753.4103 105.5,1763.2956 " fill="none" id="step_parallel_undeploy_delete_server1_server1_deleting-to-step_parallel_undeploy_delete_server1_server1_Standard.delete" style="stroke:#0000FF;stroke-width:1.0;"/><polygon fill="#0000FF" points="105.5,1768.329,109.5,1759.329,105.5,1763.329,101.5,1759.329,105.5,1768.329" style="stroke:#0000FF;stroke-width:1.0;"/><!--MD5=[a9bd5dc70c358066e75b4ecf6842ce01]
link step_parallel_undeploy_delete_server1_server1_Standard.delete to step_parallel_undeploy_delete_server1_server1_initial--><path d="M105.5,1808.8549 C105.5,1818.2155 105.5,1829.4103 105.5,1839.2956 " fill="none" id="step_parallel_undeploy_delete_server1_server1_Standard.delete-to-step_parallel_undeploy_delete_server1_server1_initial" style="stroke:#0000FF;stroke-width:1.0;"/><polygon fill="#0000FF" points="105.5,1844.329,109.5,1835.329,105.5,1839.329,101.5,1835.329,105.5,1844.329" style="stroke:#0000FF;stroke-width:1.0;"/><rect fill="#FFFFFF" height="240.4883" rx="12.5" ry="12.5" style="stroke:#000000;stroke-width:1.5;" width="181" x="238" y="1354"/><rect fill="#FFFFFF" height="208" rx="12.5" ry="12.5" style="stroke:#FFFFFF;stroke-width:1.0;" width="175" x="241" y="1383.4883"/><line style="stroke:#000000;stroke-width:1.5;" x1="238" x2="419" y1="1380.4883" y2="1380.4883"/><text fill="#000000" font-family="sans-serif" font-size="14" lengthAdjust="spacing" textLength="88" x="284.5" y="1372.5352">stop_server2</text><rect fill="#FFFFFF" height="40" rx="12.5" ry="12.5" style="stroke:#0000FF;stroke-width:1.5;" width="126" x="267.5" y="1392.4883"/><text fill="#000000" font-family="sans-serif" font-size="14" lengthAdjust="spacing" textLength="116" x="272.5" y="1417.7793">server2 stopping</text><rect fill="#ADD8E6" height="40" rx="12.5" ry="12.5" style="stroke:#0000FF;stroke-width:1.5;" width="161" x="250" y="1468.4883"/><text fill="#000000" font-family="sans-serif" font-size="14" lengthAdjust="spacing" textLength="151" x="255" y="1493.7793">server2 Standard.stop</text><rect fill="#FFFFFF" height="40" rx="12.5" ry="12.5" style="stroke:#0000FF;stroke-width:1.5;" width="121" x="270" y="1544.4883"/><text fill="#000000" font-family="sans-serif" font-size="14" lengthAdjust="spacing" textLength="111" x="275" y="1569.7793">server2 stopped</text><!--MD5=[7458a574c3f273e41564ed8f1514a9a0]
link step_parallel_undeploy_stop_server2_server2_stopping to step_parallel_undeploy_stop_server2_server2_Standard.stop--><path d="M330.5,1432.8549 C330.5,1442.2155 330.5,1453.4103 330.5,1463.2956 " fill="none" id="step_parallel_undeploy_stop_server2_server2_stopping-to-step_parallel_undeploy_stop_server2_server2_Standard.stop" style="stroke:#0000FF;stroke-width:1.0;"/><polygon fill="#0000FF" points="330.5,1468.329,334.5,1459.329,330.5,1463.329,326.5,1459.329,330.5,1468.329" style="stroke:#0000FF;stroke-width:1.0;"/><!--MD5=[2a71cd636f3f231eb7156edce8e4d3ae]
link step_parallel_undeploy_stop_server2_server2_Standard.stop to step_parallel_undeploy_stop_server2_server2_stopped--><path d="M330.5,1508.8549 C330.5,1518.2155 330.5,1529.4103 330.5,1539.2956 " fill="none" id="step_parallel_undeploy_stop_server2_server2_Standard.stop-to-step_parallel_undeploy_stop_server2_server2_stopped" style="stroke:#0000FF;stroke-width:1.0;"/><polygon fill="#0000FF" points="330.5,1544.329,334.5,1535.329,330.5,1539.329,326.5,1535.329,330.5,1544.329" style="stroke:#0000FF;stroke-width:1.0;"/><rect fill="#FFFFFF" height="240.4883" rx="12.5" ry="12.5" style="stroke:#000000;stroke-width:1.5;" width="193" x="235" y="1654"/><rect fill="#FFFFFF" height="208" rx="12.5" ry="12.5" style="stroke:#FFFFFF;stroke-width:1.0;" width="187" x="238" y="1683.4883"/><line style="stroke:#000000;stroke-width:1.5;" x1="235" x2="428" y1="1680.4883" y2="1680.4883"/><text fill="#000000" font-family="sans-serif" font-size="14" lengthAdjust="spacing" textLength="100" x="281.5" y="1672.5352">delete_server2</text><rect fill="#FFFFFF" height="40" rx="12.5" ry="12.5" style="stroke:#0000FF;stroke-width:1.5;" width="121" x="273" y="1692.4883"/><text fill="#000000" font-family="sans-serif" font-size="14" lengthAdjust="spacing" textLength="111" x="278" y="1717.7793">server2 deleting</text><rect fill="#ADD8E6" height="40" rx="12.5" ry="12.5" style="stroke:#0000FF;stroke-width:1.5;" width="173" x="247" y="1768.4883"/><text fill="#000000" font-family="sans-serif" font-size="14" lengthAdjust="spacing" textLength="163" x="252" y="1793.7793">server2 Standard.delete</text><rect fill="#FFFFFF" height="40" rx="12.5" ry="12.5" style="stroke:#0000FF;stroke-width:1.5;" width="103" x="282" y="1844.4883"/><text fill="#000000" font-family="sans-serif" font-size="14" lengthAdjust="spacing" textLength="93" x="287" y="1869.7793">server2 initial</text><!--MD5=[cc5f3054f254e8e7ce4aaf493d70b3a2]
link step_parallel_undeploy_delete_server2_server2_deleting to step_parallel_undeploy_delete_server2_server2_Standard.delete--><path d="M333.5,1732.8549 C333.5,1742.2155 333.5,1753.4103 333.5,1763.2956 " fill="none" id="step_parallel_undeploy_delete_server2_server2_deleting-to-step_parallel_undeploy_delete_server2_server2_Standard.delete" style="stroke:#0000FF;stroke-width:1.0;"/><polygon fill="#0000FF" points="333.5,1768.329,337.5,1759.329,333.5,1763.329,329.5,1759.329,333.5,1768.329" style="stroke:#0000FF;stroke-width:1.0;"/><!--MD5=[0cafa83a9326be0dc2f4587334396719]
link step_parallel_undeploy_delete_server2_server2_Standard.delete to step_parallel_undeploy_delete_server2_server2_initial--><path d="M333.5,1808.8549 C333.5,1818.2155 333.5,1829.4103 333.5,1839.2956 " fill="none" id="step_parallel_undeploy_delete_server2_server2_Standard.delete-to-step_parallel_undeploy_delete_server2_server2_initial" style="stroke:#0000FF;stroke-width:1.0;"/><polygon fill="#0000FF" points="333.5,1844.329,337.5,1835.329,333.5,1839.329,329.5,1835.329,333.5,1844.329" style="stroke:#0000FF;stroke-width:1.0;"/><!--MD5=[5ec35d36b44053829cbd4e56439f9217]
link step_parallel_undeploy_stop_app to step_parallel_undeploy_stop_app_fork--><path d="M216.5,326.1621 C216.5,349.157 216.5,369.5541 216.5,380.8003 " fill="none" id="step_parallel_undeploy_stop_app-to-step_parallel_undeploy_stop_app_fork" style="stroke:#0000FF;stroke-width:1.0;"/><polygon fill="#0000FF" points="216.5,385.8126,220.5,376.8126,216.5,380.8126,212.5,376.8126,216.5,385.8126" style="stroke:#0000FF;stroke-width:1.0;"/><!--MD5=[6fbdcd32817ee59c813590b91dba3ad9]
link step_parallel_undeploy_stop_app_fork to step_parallel_undeploy_delete_app--><path d="M214.952,394.1888 C211.7642,402.8146 203.9931,423.8422 194.8418,448.6045 " fill="none" id="step_parallel_undeploy_stop_app_fork-to-step_parallel_undeploy_delete_app" style="stroke:#0000FF;stroke-width:1.0;"/><polygon fill="#0000FF" points="192.9941,453.6042,199.8662,446.5491,194.7275,448.9143,192.3623,443.7756,192.9941,453.6042" style="stroke:#0000FF;stroke-width:1.0;"/><!--MD5=[25c2f9a9e5f3f587a22628f384ac871f]
link step_parallel_undeploy_stop_app_fork to step_parallel_undeploy_stop_db--><path d="M219.2269,394.1414 C225.6079,404.0379 241.5696,430.0251 249.5,454 C281.3539,550.2996 298.8859,664.0803 308.2964,748.9091 " fill="none" id="step_parallel_undeploy_stop_app_fork-to-step_parallel_undeploy_stop_db" style="stroke:#0000FF;stroke-width:1.0;"/><polygon fill="#0000FF" points="308.8492,753.9437,311.843,744.5609,308.3035,748.9736,303.8908,745.4341,308.8492,753.9437" style="stroke:#0000FF;stroke-width:1.0;"/><!--MD5=[0c0fb70942371b99f96267cd7fb2c37a]
link step_parallel_undeploy_delete_app to step_parallel_undeploy_stop_node--><path d="M137.6736,694.2929 C136.0644,712.1733 134.4024,730.6404 132.784,748.6221 " fill="none" id="step_parallel_undeploy_delete_app-to-step_parallel_undeploy_stop_node" style="stroke:#0000FF;stroke-width:1.0;"/><polygon fill="#0000FF" points="132.3288,753.6801,137.1196,745.075,132.7771,748.7002,129.1518,744.3577,132.3288,753.6801" style="stroke:#0000FF;stroke-width:1.0;"/><!--MD5=[f9bc422e6d6b7ff675c389421cc86b1c]
link step_parallel_undeploy_stop_db to step_parallel_undeploy_delete_db--><path d="M320.5049,994.2929 C320.8029,1012.1733 321.1107,1030.6404 321.4104,1048.6221 " fill="none" id="step_parallel_undeploy_stop_db-to-step_parallel_undeploy_delete_db" style="stroke:#0000FF;stroke-width:1.0;"/><polygon fill="#0000FF" points="321.4947,1053.6801,325.344,1044.6146,321.4113,1048.6808,317.3451,1044.7481,321.4947,1053.6801" style="stroke:#0000FF;stroke-width:1.0;"/><!--MD5=[8d2eec014757b3fb44093e3d9aa81007]
link step_parallel_undeploy_delete_db to step_parallel_undeploy_stop_server2--><path d="M325.5049,1294.2929 C325.8029,1312.1733 326.1107,1330.6404 326.4104,1348.6221 " fill="none" id="step_parallel_undeploy_delete_db-to-step_parallel_undeploy_stop_server2" style="stroke:#0000FF;stroke-width:1.0;"/><polygon fill="#0000FF" points="326.4947,1353.6801,330.344,1344.6146,326.4113,1348.6808,322.3451,1344.7481,326.4947,1353.6801" style="stroke:#0000FF;stroke-width:1.0;"/><!--MD5=[def9cb364b7a1e083fface716610b2c4]
link step_parallel_undeploy_stop_node to step_parallel_undeploy_delete_node--><path d="M119.0941,994.2929 C118.7365,1012.1733 118.3672,1030.6404 118.0076,1048.6221 " fill="none" id="step_parallel_undeploy_stop_node-to-step_parallel_undeploy_delete_node" style="stroke:#0000FF;stroke-width:1.0;"/><polygon fill="#0000FF" points="117.9064,1053.6801,122.0859,1044.762,118.0065,1048.6811,114.0875,1044.6018,117.9064,1053.6801" style="stroke:#0000FF;stroke-width:1.0;"/><!--MD5=[227d065a5914e4b6d52f59bf1cf11b42]
link step_parallel_undeploy_delete_node to step_parallel_undeploy_stop_server1--><path d="M113.0941,1294.2929 C112.7365,1312.1733 112.3672,1330.6404 112.0076,1348.6221 " fill="none" id="step_parallel_undeploy_delete_node-to-step_parallel_undeploy_stop_server1" style="stroke:#0000FF;stroke-width:1.0;"/><polygon fill="#0000FF" points="111.9064,1353.6801,116.0859,1344.762,112.0065,1348.6811,108.0875,1344.6018,111.9064,1353.6801" style="stroke:#0000FF;stroke-width:1.0;"/><!--MD5=[62c93856b95dc4a77a7e332c0373fb77]
link step_parallel_undeploy_stop_server1 to step_parallel_undeploy_delete_server1--><path d="M107.0941,1594.2929 C106.7365,1612.1733 106.3672,1630.6404 106.0076,1648.6221 " fill="none" id="step_parallel_undeploy_stop_server1-to-step_parallel_undeploy_delete_server1" style="stroke:#0000FF;stroke-width:1.0;"/><polygon fill="#0000FF" points="105.9064,1653.6801,110.0859,1644.762,106.0065,1648.6811,102.0875,1644.6018,105.9064,1653.6801" style="stroke:#0000FF;stroke-width:1.0;"/><!--MD5=[55c928b23b10a30576073b6b002155be]
link step_parallel_undeploy_stop_server2 to step_parallel_undeploy_delete_server2--><path d="M329.7029,1594.2929 C329.8817,1612.1733 330.0664,1630.6404 330.2462,1648.6221 " fill="none" id="step_parallel_undeploy_stop_server2-to-step_parallel_undeploy_delete_server2" style="stroke:#0000FF;stroke-width:1.0;"/><polygon fill="#0000FF" points="330.2968,1653.6801,334.2063,1644.6404,330.2467,1648.6804,326.2067,1644.7207,330.2968,1653.6801" style="stroke:#0000FF;stroke-width:1.0;"/><!--MD5=[6db18194911fb33bb470800355e0fae7]
link *start to step_parallel_undeploy_stop_app--><path d="M216.5,26.2152 C216.5,37.7525 216.5,57.9094 216.5,80.6599 " fill="none" id="*start-to-step_parallel_undeploy_stop_app" style="stroke:#0000FF;stroke-width:1.0;"/><polygon fill="#0000FF" points="216.5,85.8637,220.5,76.8637,216.5,80.8637,212.5,76.8637,216.5,85.8637" style="stroke:#0000FF;stroke-width:1.0;"/><!--MD5=[b5726277a51be5274253853891e80363]
link parallel_undeploy_join to *end--><path d="M217.5,1962.4074 C217.5,1972.8066 217.5,1999.2833 217.5,2016.4165 " fill="none" id="parallel_undeploy_join-to-*end" style="stroke:#0000FF;stroke-width:1.0;"/><polygon fill="#0000FF" points="217.5,2021.8319,221.5,2012.8319,217.5,2016.8319,213.5,2012.8319,217.5,2021.8319" style="stroke:#0000FF;stroke-width:1.0;"/><!--MD5=[ea33e97996b7966dd2d67284d3025e6b]
link step_parallel_undeploy_delete_server1 to parallel_undeploy_join--><path d="M177.9483,1894.1621 C192.4565,1917.5789 205.2956,1938.3017 212.178,1949.4101 " fill="none" id="step_parallel_undeploy_delete_server1-to-parallel_undeploy_join" style="stroke:#0000FF;stroke-width:1.0;"/><polygon fill="#0000FF" points="214.9056,1953.8126,213.5657,1944.0553,212.2722,1949.5623,206.7652,1948.2688,214.9056,1953.8126" style="stroke:#0000FF;stroke-width:1.0;"/><!--MD5=[9190507ca424b5ebf2e2772deaa73665]
link step_parallel_undeploy_delete_server2 to parallel_undeploy_join--><path d="M257.0517,1894.1621 C242.5435,1917.5789 229.7044,1938.3017 222.822,1949.4101 " fill="none" id="step_parallel_undeploy_delete_server2-to-parallel_undeploy_join" style="stroke:#0000FF;stroke-width:1.0;"/><polygon fill="#0000FF" points="220.0944,1953.8126,228.2348,1948.2688,222.7278,1949.5623,221.4343,1944.0553,220.0944,1953.8126" style="stroke:#0000FF;stroke-width:1.0;"/><!--MD5=[f5f7d6c740b91c4d8f547d223e031736]
@startuml
hide empty description
skinparam shadowing false
skinparam state {
  ArrowColor blue
  BorderColor blue
  EndColor black
  StartColor green
  BackGroundColor<< step >> white
  BorderColor<< step >> black
  BackGroundColor<< delegate >> lightgrey
  BackGroundColor<< set_state >> white
  BackGroundColor<< call_operation >> lightblue
  BackGroundColor<< inline >> white
}
skinparam ActivityBarColor<<fork>> DarkGreen
skinparam ActivityBarColor<<join>> DarkOrange

state "stop_app" as step_parallel_undeploy_stop_app << step >> {
  state "app stopping" as step_parallel_undeploy_stop_app_app_stopping << set_state >>
  state "app Standard.stop" as step_parallel_undeploy_stop_app_app_Standard.stop << call_operation >>
  state "app stopped" as step_parallel_undeploy_stop_app_app_stopped << set_state >>
  step_parallel_undeploy_stop_app_app_stopping - -> step_parallel_undeploy_stop_app_app_Standard.stop
  step_parallel_undeploy_stop_app_app_Standard.stop - -> step_parallel_undeploy_stop_app_app_stopped
}
state "delete_app" as step_parallel_undeploy_delete_app << step >> {
  state "app deleting" as step_parallel_undeploy_delete_app_app_deleting << set_state >>
  state "app Standard.delete" as step_parallel_undeploy_delete_app_app_Standard.delete << call_operation >>
  state "app initial" as step_parallel_undeploy_delete_app_app_initial << set_state >>
  step_parallel_undeploy_delete_app_app_deleting - -> step_parallel_undeploy_delete_app_app_Standard.delete
  step_parallel_undeploy_delete_app_app_Standard.delete - -> step_parallel_undeploy_delete_app_app_initial
}
state "stop_db" as step_parallel_undeploy_stop_db << step >> {
  state "db stopping" as step_parallel_undeploy_stop_db_db_stopping << set_state >>
  state "db Standard.stop" as step_parallel_undeploy_stop_db_db_Standard.stop << call_operation >>
  state "db stopped" as step_parallel_undeploy_stop_db_db_stopped << set_state >>
  step_parallel_undeploy_stop_db_db_stopping - -> step_parallel_undeploy_stop_db_db_Standard.stop
  step_parallel_undeploy_stop_db_db_Standard.stop - -> step_parallel_undeploy_stop_db_db_stopped
}
state "delete_db" as step_parallel_undeploy_delete_db << step >> {
  state "db deleting" as step_parallel_undeploy_delete_db_db_deleting << set_state >>
  state "db Standard.delete" as step_parallel_undeploy_delete_db_db_Standard.delete << call_operation >>
  state "db initial" as step_parallel_undeploy_delete_db_db_initial << set_state >>
  step_parallel_undeploy_delete_db_db_deleting - -> step_parallel_undeploy_delete_db_db_Standard.delete
  step_parallel_undeploy_delete_db_db_Standard.delete - -> step_parallel_undeploy_delete_db_db_initial
}
state "stop_node" as step_parallel_undeploy_stop_node << step >> {
  state "node stopping" as step_parallel_undeploy_stop_node_node_stopping << set_state >>
  state "node Standard.stop" as step_parallel_undeploy_stop_node_node_Standard.stop << call_operation >>
  state "node stopped" as step_parallel_undeploy_stop_node_node_stopped << set_state >>
  step_parallel_undeploy_stop_node_node_stopping - -> step_parallel_undeploy_stop_node_node_Standard.stop
  step_parallel_undeploy_stop_node_node_Standard.stop - -> step_parallel_undeploy_stop_node_node_stopped
}
state "delete_node" as step_parallel_undeploy_delete_node << step >> {
  state "node deleting" as step_parallel_undeploy_delete_node_node_deleting << set_state >>
  state "node Standard.delete" as step_parallel_undeploy_delete_node_node_Standard.delete << call_operation >>
  state "node initial" as step_parallel_undeploy_delete_node_node_initial << set_state >>
  step_parallel_undeploy_delete_node_node_deleting - -> step_parallel_undeploy_delete_node_node_Standard.delete
  step_parallel_undeploy_delete_node_node_Standard.delete - -> step_parallel_undeploy_delete_node_node_initial
}
state "stop_server1" as step_parallel_undeploy_stop_server1 << step >> {
  state "server1 stopping" as step_parallel_undeploy_stop_server1_server1_stopping << set_state >>
  state "server1 Standard.stop" as step_parallel_undeploy_stop_server1_server1_Standard.stop << call_operation >>
  state "server1 stopped" as step_parallel_undeploy_stop_server1_server1_stopped << set_state >>
  step_parallel_undeploy_stop_server1_server1_stopping - -> step_parallel_undeploy_stop_server1_server1_Standard.stop
  step_parallel_undeploy_stop_server1_server1_Standard.stop - -> step_parallel_undeploy_stop_server1_server1_stopped
}
state "delete_server1" as step_parallel_undeploy_delete_server1 << step >> {
  state "server1 deleting" as step_parallel_undeploy_delete_server1_server1_deleting << set_state >>
  state "server1 Standard.delete" as step_parallel_undeploy_delete_server1_server1_Standard.delete << call_operation >>
  state "server1 initial" as step_parallel_undeploy_delete_server1_server1_initial << set_state >>
  step_parallel_undeploy_delete_server1_server1_deleting - -> step_parallel_undeploy_delete_server1_server1_Standard.delete
  step_parallel_undeploy_delete_server1_server1_Standard.delete - -> step_parallel_undeploy_delete_server1_server1_initial
}
state "stop_server2" as step_parallel_undeploy_stop_server2 << step >> {
  state "server2 stopping" as step_parallel_undeploy_stop_server2_server2_stopping << set_state >>
  state "server2 Standard.stop" as step_parallel_undeploy_stop_server2_server2_Standard.stop << call_operation >>
  state "server2 stopped" as step_parallel_undeploy_stop_server2_server2_stopped << set_state >>
  step_parallel_undeploy_stop_server2_server2_stopping - -> step_parallel_undeploy_stop_server2_server2_Standard.stop
  step_parallel_undeploy_stop_server2_server2_Standard.stop - -> step_parallel_undeploy_stop_server2_server2_stopped
}
state "delete_server2" as step_parallel_undeploy_delete_server2 << step >> {
  state "server2 deleting" as step_parallel_undeploy_delete_server2_server2_deleting << set_state >>
  state "server2 Standard.delete" as step_parallel_undeploy_delete_server2_server2_Standard.delete << call_operation >>
  state "server2 initial" as step_parallel_undeploy_delete_server2_server2_initial << set_state >>
  step_parallel_undeploy_delete_server2_server2_deleting - -> step_parallel_undeploy_delete_server2_server2_Standard.delete
  step_parallel_undeploy_delete_server2_server2_Standard.delete - -> step_parallel_undeploy_delete_server2_server2_initial
}
state step_parallel_undeploy_stop_app_fork <<fork>>
step_parallel_undeploy_stop_app - -> step_parallel_undeploy_stop_app_fork
step_parallel_undeploy_stop_app_fork - -> step_parallel_undeploy_delete_app
step_parallel_undeploy_stop_app_fork - -> step_parallel_undeploy_stop_db
step_parallel_undeploy_delete_app - -> step_parallel_undeploy_stop_node
step_parallel_undeploy_stop_db - -> step_parallel_undeploy_delete_db
step_parallel_undeploy_delete_db - -> step_parallel_undeploy_stop_server2
step_parallel_undeploy_stop_node - -> step_parallel_undeploy_delete_node
step_parallel_undeploy_delete_node - -> step_parallel_undeploy_stop_server1
step_parallel_undeploy_stop_server1 - -> step_parallel_undeploy_delete_server1
step_parallel_undeploy_stop_server2 - -> step_parallel_undeploy_delete_server2
[*] - -> step_parallel_undeploy_stop_app
state parallel_undeploy_join <<join>>
parallel_undeploy_join - -> [*]
step_parallel_undeploy_delete_server1 - -> parallel_undeploy_join
step_parallel_undeploy_delete_server2 - -> parallel_undeploy_join
@enduml

PlantUML version 1.2021.13(Mon Nov 01 12:38:45 CET 2021)
(GPL source distribution)
Java Runtime: Java(TM) SE Runtime Environment
JVM: Java HotSpot(TM) 64-Bit Server VM
Default Encoding: UTF-8
Language: fr
Country: FR
--></g></svg>