<?xml version="1.0" encoding="UTF-8" standalone="no"?><svg xmlns="http://www.w3.org/2000/svg" xmlns:xlink="http://www.w3.org/1999/xlink" contentScriptType="application/ecmascript" contentStyleType="text/css" height="2048px" preserveAspectRatio="none" style="width:435px;height:2048px;background:#FFFFFF;" version="1.1" viewBox="0 0 435 2048" width="435px" zoomAndPan="magnify"><defs/><g><rect fill="#006400" height="8" style="stroke:none;stroke-width:1.0;" width="80" x="177.5" y="686"/><ellipse cx="217.5" cy="16" fill="#008000" rx="10" ry="10" style="stroke:none;stroke-width:1.0;"/><rect fill="#FF8C00" height="8" style="stroke:none;stroke-width:1.0;" width="80" x="177.5" y="1954"/><ellipse cx="217.5" cy="2032" rx="10" ry="10" style="stroke:#000000;stroke-width:1.0;fill:none;"/><ellipse cx="218" cy="2032.5" fill="#000000" rx="6" ry="6" style="stroke:none;stroke-width:1.0;"/><rect fill="#FFFFFF" height="240.4883" rx="12.5" ry="12.5" style="stroke:#000000;stroke-width:1.5;" width="156" x="139.5" y="86"/><rect fill="#FFFFFF" height="208" rx="12.5" ry="12.5" style="stroke:#FFFFFF;stroke-width:1.0;" width="150" x="142.5" y="115.4883"/><line style="stroke:#000000;stroke-width:1.5;" x1="139.5" x2="295.5" y1="112.4883" y2="112.4883"/><text fill="#000000" font-family="sans-serif" font-size="14" lengthAdjust="spacing" textLength="63" x="186" y="104.5352">stop_app</text><rect fill="#FFFFFF" height="40" rx="12.5" ry="12.5" style="stroke:#0000FF;stroke-width:1.5;" width="101" x="169" y="124.4883"/><text fill="#000000" font-family="sans-serif" font-size="14" lengthAdjust="spacing" textLength="91" x="174" y="149.7793">app stopping</text><rect fill="#ADD8E6" height="40" rx="12.5" ry="12.5" style="stroke:#0000FF;stroke-width:1.5;" width="136" x="151.5" y="200.4883"/><text fill="#000000" font-family="sans-serif" font-size="14" lengthAdjust="spacing" textLength="126" x="156.5" y="225.7793">app Standard.stop</text><rect fill="#FFFFFF" height="40" rx="12.5" ry="12.5" style="stroke:#0000FF;stroke-width:1.5;" width="96" x="171.5" y="276.4883"/><text fill="#000000" font-family="sans-serif" font-size="14" lengthAdjust="spacing" textLength="86" x="176.5" y="301.7793">app stopped</text><!--MD5=[e7d2e2d387577229ca924dcab0b7bd0a]
link step_declarative_undeploy_stop_app_app_stopping to step_declarative_undeploy_stop_app_app_Standard.stop--><path d="M219.5,164.8549 C219.5,174.2155 219.5,185.4103 219.5,195.2956 " fill="none" id="step_declarative_undeploy_stop_app_app_stopping-to-step_declarative_undeploy_stop_app_app_Standard.stop" style="stroke:#0000FF;stroke-width:1.0;"/><polygon fill="#0000FF" points="219.5,200.329,223.5,191.329,219.5,195.329,215.5,191.329,219.5,200.329" style="stroke:#0000FF;stroke-width:1.0;"/><!--MD5=[a32564f98011dcec407319c2dea3ca70]
link step_declarative_undeploy_stop_app_app_Standard.stop to step_declarative_undeploy_stop_app_app_stopped--><path d="M219.5,240.8549 C219.5,250.2155 219.5,261.4103 219.5,271.2956 " fill="none" id="step_declarative_undeploy_stop_app_app_Standard.stop-to-step_declarative_undeploy_stop_app_app_stopped" style="stroke:#0000FF;stroke-width:1.0;"/><polygon fill="#0000FF" points="219.5,276.329,223.5,267.329,219.5,271.329,215.5,267.329,219.5,276.329" style="stroke:#0000FF;stroke-width:1.0;"/><rect fill="#FFFFFF" height="240.4883" rx="12.5" ry="12.5" style="stroke:#000000;stroke-width:1.5;" width="168" x="133.5" y="386"/><rect fill="#FFFFFF" height="208" rx="12.5" ry="12.5" style="stroke:#FFFFFF;stroke-width:1.0;" width="162" x="136.5" y="415.4883"/><line style="stroke:#000000;stroke-width:1.5;" x1="133.5" x2="301.5" y1="412.4883" y2="412.4883"/><text fill="#000000" font-family="sans-serif" font-size="14" lengthAdjust="spacing" textLength="75" x="180" y="404.5352">delete_app</text><rect fill="#FFFFFF" height="40" rx="12.5" ry="12.5" style="stroke:#0000FF;stroke-width:1.5;" width="96" x="171.5" y="424.4883"/><text fill="#000000" font-family="sans-serif" font-size="14" lengthAdjust="spacing" textLength="86" x="176.5" y="449.7793">app deleting</text><rect fill="#ADD8E6" height="40" rx="12.5" ry="12.5" style="stroke:#0000FF;stroke-width:1.5;" width="148" x="145.5" y="500.4883"/><text fill="#000000" font-family="sans-serif" font-size="14" lengthAdjust="spacing" textLength="138" x="150.5" y="525.7793">app Standard.delete</text><rect fill="#FFFFFF" height="40" rx="12.5" ry="12.5" style="stroke:#0000FF;stroke-width:1.5;" width="78" x="180.5" y="576.4883"/><text fill="#000000" font-family="sans-serif" font-size="14" lengthAdjust="spacing" textLength="68" x="185.5" y="601.7793">app initial</text><!--MD5=[2bc473b343e4c7c612493c08a0821a1b]
link step_declarative_undeploy_delete_app_app_deleting to step_declarative_undeploy_delete_app_app_Standard.delete--><path d="M219.5,464.8549 C219.5,474.2155 219.5,485.4103 219.5,495.2956 " fill="none" id="step_declarative_undeploy_delete_app_app_deleting-to-step_declarative_undeploy_delete_app_app_Standard.delete" style="stroke:#0000FF;stroke-width:1.0;"/><polygon fill="#0000FF" points="219.5,500.329,223.5,491.329,219.5,495.329,215.5,491.329,219.5,500.329" style="stroke:#0000FF;stroke-width:1.0;"/><!--MD5=[9ba2ef49cfa60c7796f62738eaac6378]
link step_declarative_undeploy_delete_app_app_Standard.delete to step_declarative_undeploy_delete_app_app_initial--><path d="M219.5,540.8549 C219.5,550.2155 219.5,561.4103 219.5,571.2956 " fill="none" id="step_declarative_undeploy_delete_app_app_Standard.delete-to-step_declarative_undeploy_delete_app_app_initial" style="stroke:#0000FF;stroke-width:1.0;"/><polygon fill="#0000FF" points="219.5,576.329,223.5,567.329,219.5,571.329,215.5,567.329,219.5,576.329" style="stroke:#0000FF;stroke-width:1.0;"/><rect fill="#FFFFFF" height="240.4883" rx="12.5" ry="12.5" style="stroke:#000000;stroke-width:1.5;" width="148" x="47.5" y="754"/><rect fill="#FFFFFF" height="208" rx="12.5" ry="12.5" style="stroke:#FFFFFF;stroke-width:1.0;" width="142" x="50.5" y="783.4883"/><line style="stroke:#000000;stroke-width:1.5;" x1="47.5" x2="195.5" y1="780.4883" y2="780.4883"/><text fill="#000000" font-family="sans-serif" font-size="14" lengthAdjust="spacing" textLength="55" x="94" y="772.5352">stop_db</text><rect fill="#FFFFFF" height="40" rx="12.5" ry="12.5" style="stroke:#0000FF;stroke-width:1.5;" width="93" x="77" y="792.4883"/><text fill="#000000" font-family="sans-serif" font-size="14" lengthAdjust="spacing" textLength="83" x="82" y="817.7793">db stopping</text><rect fill="#ADD8E6" height="40" rx="12.5" ry="12.5" style="stroke:#0000FF;stroke-width:1.5;" width="128" x="59.5" y="868.4883"/><text fill="#000000" font-family="sans-serif" font-size="14" lengthAdjust="spacing" textLength="118" x="64.5" y="893.7793">db Standard.stop</text><rect fill="#FFFFFF" height="40" rx="12.5" ry="12.5" style="stroke:#0000FF;stroke-width:1.5;" width="88" x="79.5" y="944.4883"/><text fill="#000000" font-family="sans-serif" font-size="14" lengthAdjust="spacing" textLength="78" x="84.5" y="969.7793">db stopped</text><!--MD5=[1c10a9c0fc3988f01b13c73840c030b9]
link step_declarative_undeploy_stop_db_db_stopping to step_declarative_undeploy_stop_db_db_Standard.stop--><path d="M123.5,832.8549 C123.5,842.2155 123.5,853.4103 123.5,863.2956 " fill="none" id="step_declarative_undeploy_stop_db_db_stopping-to-step_declarative_undeploy_stop_db_db_Standard.stop" style="stroke:#0000FF;stroke-width:1.0;"/><polygon fill="#0000FF" points="123.5,868.329,127.5,859.329,123.5,863.329,119.5,859.329,123.5,868.329" style="stroke:#0000FF;stroke-width:1.0;"/><!--MD5=[6bc2aea57c677b7442572969cfb6602c]
link step_declarative_undeploy_stop_db_db_Standard.stop to step_declarative_undeploy_stop_db_db_stopped--><path d="M123.5,908.8549 C123.5,918.2155 123.5,929.4103 123.5,939.2956 " fill="none" id="step_declarative_undeploy_stop_db_db_Standard.stop-to-step_declarative_undeploy_stop_db_db_stopped" style="stroke:#0000FF;stroke-width:1.0;"/><polygon fill="#0000FF" points="123.5,944.329,127.5,935.329,123.5,939.329,119.5,935.329,123.5,944.329" style="stroke:#0000FF;stroke-width:1.0;"/><rect fill="#FFFFFF" height="240.4883" rx="12.5" ry="12.5" style="stroke:#000000;stroke-width:1.5;" width="160" x="35.5" y="1054"/><rect fill="#FFFFFF" height="208" rx="12.5" ry="12.5" style="stroke:#FFFFFF;stroke-width:1.0;" width="154" x="38.5" y="1083.4883"/><line style="stroke:#000000;stroke-width:1.5;" x1="35.5" x2="195.5" y1="1080.4883" y2="1080.4883"/><text fill="#000000" font-family="sans-serif" font-size="14" lengthAdjust="spacing" textLength="67" x="82" y="1072.5352">delete_db</text><rect fill="#FFFFFF" height="40" rx="12.5" ry="12.5" style="stroke:#0000FF;stroke-width:1.5;" width="88" x="73.5" y="1092.4883"/><text fill="#000000" font-family="sans-serif" font-size="14" lengthAdjust="spacing" textLength="78" x="78.5" y="1117.7793">db deleting</text><rect fill="#ADD8E6" height="40" rx="12.5" ry="12.5" style="stroke:#0000FF;stroke-width:1.5;" width="140" x="47.5" y="1168.4883"/><text fill="#000000" font-family="sans-serif" font-size="14" lengthAdjust="spacing" textLength="130" x="52.5" y="1193.7793">db Standard.delete</text><rect fill="#FFFFFF" height="40" rx="12.5" ry="12.5" style="stroke:#0000FF;stroke-width:1.5;" width="70" x="82.5" y="1244.4883"/><text fill="#000000" font-family="sans-serif" font-size="14" lengthAdjust="spacing" textLength="60" x="87.5" y="1269.7793">db initial</text><!--MD5=[efdc3bb8f530c21c9c678fab76402752]
link step_declarative_undeploy_delete_db_db_deleting to step_declarative_undeploy_delete_db_db_Standard.delete--><path d="M117.5,1132.8549 C117.5,1142.2155 117.5,1153.4103 117.5,1163.2956 " fill="none" id="step_declarative_undeploy_delete_db_db_deleting-to-step_declarative_undeploy_delete_db_db_Standard.delete" style="stroke:#0000FF;stroke-width:1.0;"/><polygon fill="#0000FF" points="117.5,1168.329,121.5,1159.329,117.5,1163.329,113.5,1159.329,117.5,1168.329" style="stroke:#0000FF;stroke-width:1.0;"/><!--MD5=[f8da6a2534c7685605fc4b536189adff]
link step_declarative_undeploy_delete_db_db_Standard.delete to step_declarative_undeploy_delete_db_db_initial--><path d="M117.5,1208.8549 C117.5,1218.2155 117.5,1229.4103 117.5,1239.2956 " fill="none" id="step_declarative_undeploy_delete_db_db_Standard.delete-to-step_declarative_undeploy_delete_db_db_initial" style="stroke:#0000FF;stroke-width:1.0;"/><polygon fill="#0000FF" points="117.5,1244.329,121.5,1235.329,117.5,1239.329,113.5,1235.329,117.5,1244.329" style="stroke:#0000FF;stroke-width:1.0;"/><rect fill="#FFFFFF" height="240.4883" rx="12.5" ry="12.5" style="stroke:#000000;stroke-width:1.5;" width="165" x="236" y="754"/><rect fill="#FFFFFF" height="208" rx="12.5" ry="12.5" style="stroke:#FFFFFF;stroke-width:1.0;" width="159" x="239" y="783.4883"/><line style="stroke:#000000;stroke-width:1.5;" x1="236" x2="401" y1="780.4883" y2="780.4883"/><text fill="#000000" font-family="sans-serif" font-size="14" lengthAdjust="spacing" textLength="72" x="282.5" y="772.5352">stop_node</text><rect fill="#FFFFFF" height="40" rx="12.5" ry="12.5" style="stroke:#0000FF;stroke-width:1.5;" width="110" x="265.5" y="792.4883"/><text fill="#000000" font-family="sans-serif" font-size="14" lengthAdjust="spacing" textLength="100" x="270.5" y="817.7793">node stopping</text><rect fill="#ADD8E6" height="40" rx="12.5" ry="12.5" style="stroke:#0000FF;stroke-width:1.5;" width="145" x="248" y="868.4883"/><text fill="#000000" font-family="sans-serif" font-size="14" lengthAdjust="spacing" textLength="135" x="253" y="893.7793">node Standard.stop</text><rect fill="#FFFFFF" height="40" rx="12.5" ry="12.5" style="stroke:#0000FF;stroke-width:1.5;" width="105" x="268" y="944.4883"/><text fill="#000000" font-family="sans-serif" font-size="14" lengthAdjust="spacing" textLength="95" x="273" y="969.7793">node stopped</text><!--MD5=[3a8dc8485137c8cc04d5ac101361b083]
link step_declarative_undeploy_stop_node_node_stopping to step_declarative_undeploy_stop_node_node_Standard.stop--><path d="M320.5,832.8549 C320.5,842.2155 320.5,853.4103 320.5,863.2956 " fill="none" id="step_declarative_undeploy_stop_node_node_stopping-to-step_declarative_undeploy_stop_node_node_Standard.stop" style="stroke:#0000FF;stroke-width:1.0;"/><polygon fill="#0000FF" points="320.5,868.329,324.5,859.329,320.5,863.329,316.5,859.329,320.5,868.329" style="stroke:#0000FF;stroke-width:1.0;"/><!--MD5=[da05e4e631c606b29123926f65fe7ad7]
link step_declarative_undeploy_stop_node_node_Standard.stop to step_declarative_undeploy_stop_node_node_stopped--><path d="M320.5,908.8549 C320.5,918.2155 320.5,929.4103 320.5,939.2956 " fill="none" id="step_declarative_undeploy_stop_node_node_Standard.stop-to-step_declarative_undeploy_stop_node_node_stopped" style="stroke:#0000FF;stroke-width:1.0;"/><polygon fill="#0000FF" points="320.5,944.329,324.5,935.329,320.5,939.329,316.5,935.329,320.5,944.329" style="stroke:#0000FF;stroke-width:1.0;"/><rect fill="#FFFFFF" height="240.4883" rx="12.5" ry="12.5" style="stroke:#000000;stroke-width:1.5;" width="177" x="235" y="1054"/><rect fill="#FFFFFF" height="208" rx="12.5" ry="12.5" style="stroke:#FFFFFF;stroke-width:1.0;" width="171" x="238" y="1083.4883"/><line style="stroke:#000000;stroke-width:1.5;" x1="235" x2="412" y1="1080.4883" y2="1080.4883"/><text fill="#000000" font-family="sans-serif" font-size="14" lengthAdjust="spacing" textLength="84" x="281.5" y="1072.5352">delete_node</text><rect fill="#FFFFFF" height="40" rx="12.5" ry="12.5" style="stroke:#0000FF;stroke-width:1.5;" width="105" x="273" y="1092.4883"/><text fill="#000000" font-family="sans-serif" font-size="14" lengthAdjust="spacing" textLength="95" x="278" y="1117.7793">node deleting</text><rect fill="#ADD8E6" height="40" rx="12.5" ry="12.5" style="stroke:#0000FF;stroke-width:1.5;" width="157" x="247" y="1168.4883"/><text fill="#000000" font-family="sans-serif" font-size="14" lengthAdjust="spacing" textLength="147" x="252" y="1193.7793">node Standard.delete</text><rect fill="#FFFFFF" height="40" rx="12.5" ry="12.5" style="stroke:#0000FF;stroke-width:1.5;" width="87" x="282" y="1244.4883"/><text fill="#000000" font-family="sans-serif" font-size="14" lengthAdjust="spacing" textLength="77" x="287" y="1269.7793">node initial</text><!--MD5=[df02d23471deddc7daca9c0a801b17f5]
link step_declarative_undeploy_delete_node_node_deleting to step_declarative_undeploy_delete_node_node_Standard.delete--><path d="M325.5,1132.8549 C325.5,1142.2155 325.5,1153.4103 325.5,1163.2956 " fill="none" id="step_declarative_undeploy_delete_node_node_deleting-to-step_declarative_undeploy_delete_node_node_Standard.delete" style="stroke:#0000FF;stroke-width:1.0;"/><polygon fill="#0000FF" points="325.5,1168.329,329.5,1159.329,325.5,1163.329,321.5,1159.329,325.5,1168.329" style="stroke:#0000FF;stroke-width:1.0;"/><!--MD5=[f93c2131372bd803351be0aab2b0c360]
link step_declarative_undeploy_delete_node_node_Standard.delete to step_declarative_undeploy_delete_node_node_initial--><path d="M325.5,1208.8549 C325.5,1218.2155 325.5,1229.4103 325.5,1239.2956 " fill="none" id="step_declarative_undeploy_delete_node_node_Standard.delete-to-step_declarative_undeploy_delete_node_node_initial" style="stroke:#0000FF;stroke-width:1.0;"/><polygon fill="#0000FF" points="325.5,1244.329,329.5,1235.329,325.5,1239.329,321.5,1235.329,325.5,1244.329" style="stroke:#0000FF;stroke-width:1.0;"/><rect fill="#FFFFFF" height="240.4883" rx="12.5" ry="12.5" style="stroke:#000000;stroke-width:1.5;" width="181" x="238" y="1354"/><rect fill="#FFFFFF" height="208" rx="12.5" ry="12.5" style="stroke:#FFFFFF;stroke-width:1.0;" width="175" x="241" y="1383.4883"/><line style="stroke:#000000;stroke-width:1.5;" x1="238" x2="419" y1="1380.4883" y2="1380.4883"/><text fill="#000000" font-family="sans-serif" font-size="14" lengthAdjust="spacing" textLength="88" x="284.5" y="1372.5352">stop_server1</text><rect fill="#FFFFFF" height="40" rx="12.5" ry="12.5" style="stroke:#0000FF;stroke-width:1.5;" width="126" x="267.5" y="1392.4883"/><text fill="#000000" font-family="sans-serif" font-size="14" lengthAdjust="spacing" textLength="116" x="272.5" y="1417.7793">server1 stopping</text><rect fill="#ADD8E6" height="40" rx="12.5" ry="12.5" style="stroke:#0000FF;stroke-width:1.5;" width="161" x="250" y="1468.4883"/><text fill="#000000" font-family="sans-serif" font-size="14" lengthAdjust="spacing" textLength="151" x="255" y="1493.7793">server1 Standard.stop</text><rect fill="#FFFFFF" height="40" rx="12.5" ry="12.5" style="stroke:#0000FF;stroke-width:1.5;" width="121" x="270" y="1544.4883"/><text fill="#000000" font-family="sans-serif" font-size="14" lengthAdjust="spacing" textLength="111" x="275" y="1569.7793">server1 stopped</text><!--MD5=[5532f3fb6b071c79708d628fc7219c35]
link step_declarative_undeploy_stop_server1_server1_stopping to step_declarative_undeploy_stop_server1_server1_Standard.stop--><path d="M330.5,1432.8549 C330.5,1442.2155 330.5,1453.4103 330.5,1463.2956 " fill="none" id="step_declarative_undeploy_stop_server1_server1_stopping-to-step_declarative_undeploy_stop_server1_server1_Standard.stop" style="stroke:#0000FF;stroke-width:1.0;"/><polygon fill="#0000FF" points="330.5,1468.329,334.5,1459.329,330.5,1463.329,326.5,1459.329,330.5,1468.329" style="stroke:#0000FF;stroke-width:1.0;"/><!--MD5=[241a65fee43fcc312b76d61624e261f6]
link step_declarative_undeploy_stop_server1_server1_Standard.stop to step_declarative_undeploy_stop_server1_server1_stopped--><path d="M330.5,1508.8549 C330.5,1518.2155 330.5,1529.4103 330.5,1539.2956 " fill="none" id="step_declarative_undeploy_stop_server1_server1_Standard.stop-to-step_declarative_undeploy_stop_server1_server1_stopped" style="stroke:#0000FF;stroke-width:1.0;"/><polygon fill="#0000FF" points="330.5,1544.329,334.5,1535.329,330.5,1539.329,326.5,1535.329,330.5,1544.329" style="stroke:#0000FF;stroke-width:1.0;"/><rect fill="#FFFFFF" height="240.4883" rx="12.5" ry="12.5" style="stroke:#000000;stroke-width:1.5;" width="193" x="235" y="1654"/><rect fill="#FFFFFF" height="208" rx="12.5" ry="12.5" style="stroke:#FFFFFF;stroke-width:1.0;" width="187" x="238" y="1683.4883"/><line style="stroke:#000000;stroke-width:1.5;" x1="235" x2="428" y1="1680.4883" y2="1680.4883"/><text fill="#000000" font-family="sans-serif" font-size="14" lengthAdjust="spacing" textLength="100" x="281.5" y="1672.5352">delete_server1</text><rect fill="#FFFFFF" height="40" rx="12.5" ry="12.5" style="stroke:#0000FF;stroke-width:1.5;" width="121" x="273" y="1692.4883"/><text fill="#000000" font-family="sans-serif" font-size="14" lengthAdjust="spacing" textLength="111" x="278" y="1717.7793">server1 deleting</text><rect fill="#ADD8E6" height="40" rx="12.5" ry="12.5" style="stroke:#0000FF;stroke-width:1.5;" width="173" x="247" y="1768.4883"/><text fill="#000000" font-family="sans-serif" font-size="14" lengthAdjust="spacing" textLength="163" x="252" y="1793.7793">server1 Standard.delete</text><rect fill="#FFFFFF" height="40" rx="12.5" ry="12.5" style="stroke:#0000FF;stroke-width:1.5;" width="103" x="282" y="1844.4883"/><text fill="#000000" font-family="sans-serif" font-size="14" lengthAdjust="spacing" textLength="93" x="287" y="1869.7793">server1 initial</text><!--MD5=[2458ec204c2207017cffa8b54f69c557]
link step_declarative_undeploy_delete_server1_server1_deleting to step_declarative_undeploy_delete_server1_server1_Standard.delete--><path d="M333.5,1732.8549 C333.5,1742.2155 333.5,1753.4103 333.5,1763.2956 " fill="none" id="step_declarative_undeploy_delete_server1_server1_deleting-to-step_declarative_undeploy_delete_server1_server1_Standard.delete" style="stroke:#0000FF;stroke-width:1.0;"/><polygon fill="#0000FF" points="333.5,1768.329,337.5,1759.329,333.5,1763.329,329.5,1759.329,333.5,1768.329" style="stroke:#0000FF;stroke-width:1.0;"/><!--MD5=[96cfcfcbed28a930131cf63b7bf70f8a]
link step_declarative_undeploy_delete_server1_server1_Standard.delete to step_declarative_undeploy_delete_server1_server1_initial--><path d="M333.5,1808.8549 C333.5,1818.2155 333.5,1829.4103 333.5,1839.2956 " fill="none" id="step_declarative_undeploy_delete_server1_server1_Standard.delete-to-step_declarative_undeploy_delete_server1_server1_initial" style="stroke:#0000FF;stroke-width:1.0;"/><polygon fill="#0000FF" points="333.5,1844.329,337.5,1835.329,333.5,1839.329,329.5,1835.329,333.5,1844.329" style="stroke:#0000FF;stroke-width:1.0;"/><rect fill="#FFFFFF" height="240.4883" rx="12.5" ry="12.5" style="stroke:#000000;stroke-width:1.5;" width="181" x="19" y="1354"/><rect fill="#FFFFFF" height="208" rx="12.5" ry="12.5" style="stroke:#FFFFFF;stroke-width:1.0;" width="175" x="22" y="1383.4883"/><line style="stroke:#000000;stroke-width:1.5;" x1="19" x2="200" y1="1380.4883" y2="1380.4883"/><text fill="#000000" font-family="sans-serif" font-size="14" lengthAdjust="spacing" textLength="88" x="65.5" y="1372.5352">stop_server2</text><rect fill="#FFFFFF" height="40" rx="12.5" ry="12.5" style="stroke:#0000FF;stroke-width:1.5;" width="126" x="48.5" y="1392.4883"/><text fill="#000000" font-family="sans-serif" font-size="14" lengthAdjust="spacing" textLength="116" x="53.5" y="1417.7793">server2 stopping</text><rect fill="#ADD8E6" height="40" rx="12.5" ry="12.5" style="stroke:#0000FF;stroke-width:1.5;" width="161" x="31" y="1468.4883"/><text fill="#000000" font-family="sans-serif" font-size="14" lengthAdjust="spacing" textLength="151" x="36" y="1493.7793">server2 Standard.stop</text><rect fill="#FFFFFF" height="40" rx="12.5" ry="12.5" style="stroke:#0000FF;stroke-width:1.5;" width="121" x="51" y="1544.4883"/><text fill="#000000" font-family="sans-serif" font-size="14" lengthAdjust="spacing" textLength="111" x="56" y="1569.7793">server2 stopped</text><!--MD5=[a17459ab2c03c058b7be8f14e280cb5d]
link step_declarative_undeploy_stop_server2_server2_stopping to step_declarative_undeploy_stop_server2_server2_Standard.stop--><path d="M111.5,1432.8549 C111.5,1442.2155 111.5,1453.4103 111.5,1463.2956 " fill="none" id="step_declarative_undeploy_stop_server2_server2_stopping-to-step_declarative_undeploy_stop_server2_server2_Standard.stop" style="stroke:#0000FF;stroke-width:1.0;"/><polygon fill="#0000FF" points="111.5,1468.329,115.5,1459.329,111.5,1463.329,107.5,1459.329,111.5,1468.329" style="stroke:#0000FF;stroke-width:1.0;"/><!--MD5=[b20702c045f67b047fe5fba347f7b85b]
link step_declarative_undeploy_stop_server2_server2_Standard.stop to step_declarative_undeploy_stop_server2_server2_stopped--><path d="M111.5,1508.8549 C111.5,1518.2155 111.5,1529.4103 111.5,1539.2956 " fill="none" id="step_declarative_undeploy_stop_server2_server2_Standard.stop-to-step_declarative_undeploy_stop_server2_server2_stopped" style="stroke:#0000FF;stroke-width:1.0;"/><polygon fill="#0000FF" points="111.5,1544.329,115.5,1535.329,111.5,1539.329,107.5,1535.329,111.5,1544.329" style="stroke:#0000FF;stroke-width:1.0;"/><rect fill="#FFFFFF" height="240.4883" rx="12.5" ry="12.5" style="stroke:#000000;stroke-width:1.5;" width="193" x="7" y="1654"/><rect fill="#FFFFFF" height="208" rx="12.5" ry="12.5" style="stroke:#FFFFFF;stroke-width:1.0;" width="187" x="10" y="1683.4883"/><line style="stroke:#000000;stroke-width:1.5;" x1="7" x2="200" y1="1680.4883" y2="1680.4883"/><text fill="#000000" font-family="sans-serif" font-size="14" lengthAdjust="spacing" textLength="100" x="53.5" y="1672.5352">delete_server2</text><rect fill="#FFFFFF" height="40" rx="12.5" ry="12.5" style="stroke:#0000FF;stroke-width:1.5;" width="121" x="45" y="1692.4883"/><text fill="#000000" font-family="sans-serif" font-size="14" lengthAdjust="spacing" textLength="111" x="50" y="1717.7793">server2 deleting</text><rect fill="#ADD8E6" height="40" rx="12.5" ry="12.5" style="stroke:#0000FF;stroke-width:1.5;" width="173" x="19" y="1768.4883"/><text fill="#000000" font-family="sans-serif" font-size="14" lengthAdjust="spacing" textLength="163" x="24" y="1793.7793">server2 Standard.delete</text><rect fill="#FFFFFF" height="40" rx="12.5" ry="12.5" style="stroke:#0000FF;stroke-width:1.5;" width="103" x="54" y="1844.4883"/><text fill="#000000" font-family="sans-serif" font-size="14" lengthAdjust="spacing" textLength="93" x="59" y="1869.7793">server2 initial</text><!--MD5=[04dbf16df5ece6479440f4e0048871f8]
link step_declarative_undeploy_delete_server2_server2_deleting to step_declarative_undeploy_delete_server2_server2_Standard.delete--><path d="M105.5,1732.8549 C105.5,1742.2155 105.5,1753.4103 105.5,1763.2956 " fill="none" id="step_declarative_undeploy_delete_server2_server2_deleting-to-step_declarative_undeploy_delete_server2_server2_Standard.delete" style="stroke:#0000FF;stroke-width:1.0;"/><polygon fill="#0000FF" points="105.5,1768.329,109.5,1759.329,105.5,1763.329,101.5,1759.329,105.5,1768.329" style="stroke:#0000FF;stroke-width:1.0;"/><!--MD5=[59e7a8bccc1dd694c962fe3757be5961]
link step_declarative_undeploy_delete_server2_server2_Standard.delete to step_declarative_undeploy_delete_server2_server2_initial--><path d="M105.5,1808.8549 C105.5,1818.2155 105.5,1829.4103 105.5,1839.2956 " fill="none" id="step_declarative_undeploy_delete_server2_server2_Standard.delete-to-step_declarative_undeploy_delete_server2_server2_initial" style="stroke:#0000FF;stroke-width:1.0;"/><polygon fill="#0000FF" points="105.5,1844.329,109.5,1835.329,105.5,1839.329,101.5,1835.329,105.5,1844.329" style="stroke:#0000FF;stroke-width:1.0;"/><!--MD5=[4fb955322be1a3debb7b0d4a9e65a775]
link step_declarative_undeploy_stop_app to step_declarative_undeploy_delete_app--><path d="M217.5,326.2929 C217.5,344.1733 217.5,362.6404 217.5,380.6221 " fill="none" id="step_declarative_undeploy_stop_app-to-step_declarative_undeploy_delete_app" style="stroke:#0000FF;stroke-width:1.0;"/><polygon fill="#0000FF" points="217.5,385.6801,221.5,376.6801,217.5,380.6801,213.5,376.6801,217.5,385.6801" style="stroke:#0000FF;stroke-width:1.0;"/><!--MD5=[78505e3e446c37c0072598b44a4d03c4]
link step_declarative_undeploy_delete_app to step_declarative_undeploy_delete_app_fork--><path d="M217.5,626.1621 C217.5,649.157 217.5,669.5541 217.5,680.8003 " fill="none" id="step_declarative_undeploy_delete_app-to-step_declarative_undeploy_delete_app_fork" style="stroke:#0000FF;stroke-width:1.0;"/><polygon fill="#0000FF" points="217.5,685.8126,221.5,676.8126,217.5,680.8126,213.5,676.8126,217.5,685.8126" style="stroke:#0000FF;stroke-width:1.0;"/><!--MD5=[81418f1c2c75285f7f8477a87d49bc4e]
link step_declarative_undeploy_delete_app_fork to step_declarative_undeploy_stop_node--><path d="M219.7993,694.1888 C224.5538,702.8505 236.1728,724.0177 249.8388,748.9142 " fill="none" id="step_declarative_undeploy_delete_app_fork-to-step_declarative_undeploy_stop_node" style="stroke:#0000FF;stroke-width:1.0;"/><polygon fill="#0000FF" points="252.4132,753.6042,251.5889,743.7899,250.0072,749.2211,244.576,747.6394,252.4132,753.6042" style="stroke:#0000FF;stroke-width:1.0;"/><!--MD5=[dc11e54379df88a33a5a7f1b08900009]
link step_declarative_undeploy_delete_app_fork to step_declarative_undeploy_stop_db--><path d="M215.3145,694.1888 C210.7954,702.8505 199.7516,724.0177 186.7621,748.9142 " fill="none" id="step_declarative_undeploy_delete_app_fork-to-step_declarative_undeploy_stop_db" style="stroke:#0000FF;stroke-width:1.0;"/><polygon fill="#0000FF" points="184.3152,753.6042,192.0249,747.4755,186.6282,749.1714,184.9323,743.7747,184.3152,753.6042" style="stroke:#0000FF;stroke-width:1.0;"/><!--MD5=[27ddbf5c6828c664542439f273e5bd7a]
link step_declarative_undeploy_stop_db to step_declarative_undeploy_delete_db--><path d="M119.0941,994.2929 C118.7365,1012.1733 118.3672,1030.6404 118.0076,1048.6221 " fill="none" id="step_declarative_undeploy_stop_db-to-step_declarative_undeploy_delete_db" style="stroke:#0000FF;stroke-width:1.0;"/><polygon fill="#0000FF" points="117.9064,1053.6801,122.0859,1044.762,118.0065,1048.6811,114.0875,1044.6018,117.9064,1053.6801" style="stroke:#0000FF;stroke-width:1.0;"/><!--MD5=[ce567aa62353a0dcd074754e0c2a5af1]
link step_declarative_undeploy_delete_db to step_declarative_undeploy_stop_server2--><path d="M113.0941,1294.2929 C112.7365,1312.1733 112.3672,1330.6404 112.0076,1348.6221 " fill="none" id="step_declarative_undeploy_delete_db-to-step_declarative_undeploy_stop_server2" style="stroke:#0000FF;stroke-width:1.0;"/><polygon fill="#0000FF" points="111.9064,1353.6801,116.0859,1344.762,112.0065,1348.6811,108.0875,1344.6018,111.9064,1353.6801" style="stroke:#0000FF;stroke-width:1.0;"/><!--MD5=[4353f4f7a9f22b9ef0436c1a35153a65]
link step_declarative_undeploy_stop_node to step_declarative_undeploy_delete_node--><path d="M320.5049,994.2929 C320.8029,1012.1733 321.1107,1030.6404 321.4104,1048.6221 " fill="none" id="step_declarative_undeploy_stop_node-to-step_declarative_undeploy_delete_node" style="stroke:#0000FF;stroke-width:1.0;"/><polygon fill="#0000FF" points="321.4947,1053.6801,325.344,1044.6146,321.4113,1048.6808,317.3451,1044.7481,321.4947,1053.6801" style="stroke:#0000FF;stroke-width:1.0;"/><!--MD5=[6edc7d251059dae9c0981cadc0981f5e]
link step_declarative_undeploy_delete_node to step_declarative_undeploy_stop_server1--><path d="M325.5049,1294.2929 C325.8029,1312.1733 326.1107,1330.6404 326.4104,1348.6221 " fill="none" id="step_declarative_undeploy_delete_node-to-step_declarative_undeploy_stop_server1" style="stroke:#0000FF;stroke-width:1.0;"/><polygon fill="#0000FF" points="326.4947,1353.6801,330.344,1344.6146,326.4113,1348.6808,322.3451,1344.7481,326.4947,1353.6801" style="stroke:#0000FF;stroke-width:1.0;"/><!--MD5=[f400678c66349bcd4ce076eb7dc024b5]
link step_declarative_undeploy_stop_server1 to step_declarative_undeploy_delete_server1--><path d="M329.7029,1594.2929 C329.8817,1612.1733 330.0664,1630.6404 330.2462,1648.6221 " fill="none" id="step_declarative_undeploy_stop_server1-to-step_declarative_undeploy_delete_server1" style="stroke:#0000FF;stroke-width:1.0;"/><polygon fill="#0000FF" points="330.2968,1653.6801,334.2063,1644.6404,330.2467,1648.6804,326.2067,1644.7207,330.2968,1653.6801" style="stroke:#0000FF;stroke-width:1.0;"/><!--MD5=[991eae2b49f33b458c2b95cb19b8f8cc]
link step_declarative_undeploy_stop_server2 to step_declarative_undeploy_delete_server2--><path d="M107.0941,1594.2929 C106.7365,1612.1733 106.3672,1630.6404 106.0076,1648.6221 " fill="none" id="step_declarative_undeploy_stop_server2-to-step_declarative_undeploy_delete_server2" style="stroke:#0000FF;stroke-width:1.0;"/><polygon fill="#0000FF" points="105.9064,1653.6801,110.0859,1644.762,106.0065,1648.6811,102.0875,1644.6018,105.9064,1653.6801" style="stroke:#0000FF;stroke-width:1.0;"/><!--MD5=[5b631d820ffc6a27920dd89c743eb194]
link *start to step_declarative_undeploy_stop_app--><path d="M217.5,26.2152 C217.5,37.7525 217.5,57.9094 217.5,80.6599 " fill="none" id="*start-to-step_declarative_undeploy_stop_app" style="stroke:#0000FF;stroke-width:1.0;"/><polygon fill="#0000FF" points="217.5,85.8637,221.5,76.8637,217.5,80.8637,213.5,76.8637,217.5,85.8637" style="stroke:#0000FF;stroke-width:1.0;"/><!--MD5=[d304f95394e26b0967c056ac947717c1]
link declarative_undeploy_join to *end--><path d="M217.5,1962.4074 C217.5,1972.8066 217.5,1999.2833 217.5,2016.4165 " fill="none" id="declarative_undeploy_join-to-*end" style="stroke:#0000FF;stroke-width:1.0;"/><polygon fill="#0000FF" points="217.5,2021.8319,221.5,2012.8319,217.5,2016.8319,213.5,2012.8319,217.5,2021.8319" style="stroke:#0000FF;stroke-width:1.0;"/><!--MD5=[853987151ac481d0b097917bd12038c3]
link step_declarative_undeploy_delete_server1 to declarative_undeploy_join--><path d="M257.0517,1894.1621 C242.5435,1917.5789 229.7044,1938.3017 222.822,1949.4101 " fill="none" id="step_declarative_undeploy_delete_server1-to-declarative_undeploy_join" style="stroke:#0000FF;stroke-width:1.0;"/><polygon fill="#0000FF" points="220.0944,1953.8126,228.2348,1948.2688,222.7278,1949.5623,221.4343,1944.0553,220.0944,1953.8126" style="stroke:#0000FF;stroke-width:1.0;"/><!--MD5=[d4b6e0dfad19bec4c3b758a4511baff4]
link step_declarative_undeploy_delete_server2 to declarative_undeploy_join--><path d="M177.9483,1894.1621 C192.4565,1917.5789 205.2956,1938.3017 212.178,1949.4101 " fill="none" id="step_declarative_undeploy_delete_server2-to-declarative_undeploy_join" style="stroke:#0000FF;stroke-width:1.0;"/><polygon fill="#0000FF" points="214.9056,1953.8126,213.5657,1944.0553,212.2722,1949.5623,206.7652,1948.2688,214.9056,1953.8126" style="stroke:#0000FF;stroke-width:1.0;"/><!--MD5=[022a9ceb660e16ece8a1e66ee3ed6a85]
@startuml
hide empty description
skinparam shadowing false
skinparam state {
  ArrowColor blue
  BorderColor blue
  EndColor black
  StartColor green
  BackGroundColor<< step >> white
  BorderColor<< step >> black
  BackGroundColor<< delegate >> lightgrey
  BackGroundColor<< set_state >> white
  BackGroundColor<< call_operation >> lightblue
  BackGroundColor<< inline >> white
}
skinparam ActivityBarColor<<fork>> DarkGreen
skinparam ActivityBarColor<<join>> DarkOrange

state "stop_app" as step_declarative_undeploy_stop_app << step >> {
  state "app stopping" as step_declarative_undeploy_stop_app_app_stopping << set_state >>
  state "app Standard.stop" as step_declarative_undeploy_stop_app_app_Standard.stop << call_operation >>
  state "app stopped" as step_declarative_undeploy_stop_app_app_stopped << set_state >>
  step_declarative_undeploy_stop_app_app_stopping - -> step_declarative_undeploy_stop_app_app_Standard.stop
  step_declarative_undeploy_stop_app_app_Standard.stop - -> step_declarative_undeploy_stop_app_app_stopped
}
state "delete_app" as step_declarative_undeploy_delete_app << step >> {
  state "app deleting" as step_declarative_undeploy_delete_app_app_deleting << set_state >>
  state "app Standard.delete" as step_declarative_undeploy_delete_app_app_Standard.delete << call_operation >>
  state "app initial" as step_declarative_undeploy_delete_app_app_initial << set_state >>
  step_declarative_undeploy_delete_app_app_deleting - -> step_declarative_undeploy_delete_app_app_Standard.delete
  step_declarative_undeploy_delete_app_app_Standard.delete - -> step_declarative_undeploy_delete_app_app_initial
}
state "stop_db" as step_declarative_undeploy_stop_db << step >> {
  state "db stopping" as step_declarative_undeploy_stop_db_db_stopping << set_state >>
  state "db Standard.stop" as step_declarative_undeploy_stop_db_db_Standard.stop << call_operation >>
  state "db stopped" as step_declarative_undeploy_stop_db_db_stopped << set_state >>
  step_declarative_undeploy_stop_db_db_stopping - -> step_declarative_undeploy_stop_db_db_Standard.stop
  step_declarative_undeploy_stop_db_db_Standard.stop - -> step_declarative_undeploy_stop_db_db_stopped
}
state "delete_db" as step_declarative_undeploy_delete_db << step >> {
  state "db deleting" as step_declarative_undeploy_delete_db_db_deleting << set_state >>
  state "db Standard.delete" as step_declarative_undeploy_delete_db_db_Standard.delete << call_operation >>
  state "db initial" as step_declarative_undeploy_delete_db_db_initial << set_state >>
  step_declarative_undeploy_delete_db_db_deleting - -> step_declarative_undeploy_delete_db_db_Standard.delete
  step_declarative_undeploy_delete_db_db_Standard.delete - -> step_declarative_undeploy_delete_db_db_initial
}
state "stop_node" as step_declarative_undeploy_stop_node << step >> {
  state "node stopping" as step_declarative_undeploy_stop_node_node_stopping << set_state >>
  state "node Standard.stop" as step_declarative_undeploy_stop_node_node_Standard.stop << call_operation >>
  state "node stopped" as step_declarative_undeploy_stop_node_node_stopped << set_state >>
  step_declarative_undeploy_stop_node_node_stopping - -> step_declarative_undeploy_stop_node_node_Standard.stop
  step_declarative_undeploy_stop_node_node_Standard.stop - -> step_declarative_undeploy_stop_node_node_stopped
}
state "delete_node" as step_declarative_undeploy_delete_node << step >> {
  state "node deleting" as step_declarative_undeploy_delete_node_node_deleting << set_state >>
  state "node Standard.delete" as step_declarative_undeploy_delete_node_node_Standard.delete << call_operation >>
  state "node initial" as step_declarative_undeploy_delete_node_node_initial << set_state >>
  step_declarative_undeploy_delete_node_node_deleting - -> step_declarative_undeploy_delete_node_node_Standard.delete
  step_declarative_undeploy_delete_node_node_Standard.delete - -> step_declarative_undeploy_delete_node_node_initial
}
state "stop_server1" as step_declarative_undeploy_stop_server1 << step >> {
  state "server1 stopping" as step_declarative_undeploy_stop_server1_server1_stopping << set_state >>
  state "server1 Standard.stop" as step_declarative_undeploy_stop_server1_server1_Standard.stop << call_operation >>
  state "server1 stopped" as step_declarative_undeploy_stop_server1_server1_stopped << set_state >>
  step_declarative_undeploy_stop_server1_server1_stopping - -> step_declarative_undeploy_stop_server1_server1_Standard.stop
  step_declarative_undeploy_stop_server1_server1_Standard.stop - -> step_declarative_undeploy_stop_server1_server1_stopped
}
state "delete_server1" as step_declarative_undeploy_delete_server1 << step >> {
  state "server1 deleting" as step_declarative_undeploy_delete_server1_server1_deleting << set_state >>
  state "server1 Standard.delete" as step_declarative_undeploy_delete_server1_server1_Standard.delete << call_operation >>
  state "server1 initial" as step_declarative_undeploy_delete_server1_server1_initial << set_state >>
  step_declarative_undeploy_delete_server1_server1_deleting - -> step_declarative_undeploy_delete_server1_server1_Standard.delete
  step_declarative_undeploy_delete_server1_server1_Standard.delete - -> step_declarative_undeploy_delete_server1_server1_initial
}
state "stop_server2" as step_declarative_undeploy_stop_server2 << step >> {
  state "server2 stopping" as step_declarative_undeploy_stop_server2_server2_stopping << set_state >>
  state "server2 Standard.stop" as step_declarative_undeploy_stop_server2_server2_Standard.stop << call_operation >>
  state "server2 stopped" as step_declarative_undeploy_stop_server2_server2_stopped << set_state >>
  step_declarative_undeploy_stop_server2_server2_stopping - -> step_declarative_undeploy_stop_server2_server2_Standard.stop
  step_declarative_undeploy_stop_server2_server2_Standard.stop - -> step_declarative_undeploy_stop_server2_server2_stopped
}
state "delete_server2" as step_declarative_undeploy_delete_server2 << step >> {
  state "server2 deleting" as step_declarative_undeploy_delete_server2_server2_deleting << set_state >>
  state "server2 Standard.delete" as step_declarative_undeploy_delete_server2_server2_Standard.delete << call_operation >>
  state "server2 initial" as step_declarative_undeploy_delete_server2_server2_initial << set_state >>
  step_declarative_undeploy_delete_server2_server2_deleting - -> step_declarative_undeploy_delete_server2_server2_Standard.delete
  step_declarative_undeploy_delete_server2_server2_Standard.delete - -> step_declarative_undeploy_delete_server2_server2_initial
}
step_declarative_undeploy_stop_app - -> step_declarative_undeploy_delete_app
state step_declarative_undeploy_delete_app_fork <<fork>>
step_declarative_undeploy_delete_app - -> step_declarative_undeploy_delete_app_fork
step_declarative_undeploy_delete_app_fork - -> step_declarative_undeploy_stop_node
step_declarative_undeploy_delete_app_fork - -> step_declarative_undeploy_stop_db
step_declarative_undeploy_stop_db - -> step_declarative_undeploy_delete_db
step_declarative_undeploy_delete_db - -> step_declarative_undeploy_stop_server2
step_declarative_undeploy_stop_node - -> step_declarative_undeploy_delete_node
step_declarative_undeploy_delete_node - -> step_declarative_undeploy_stop_server1
step_declarative_undeploy_stop_server1 - -> step_declarative_undeploy_delete_server1
step_declarative_undeploy_stop_server2 - -> step_declarative_undeploy_delete_server2
[*] - -> step_declarative_undeploy_stop_app
state declarative_undeploy_join <<join>>
declarative_undeploy_join - -> [*]
step_declarative_undeploy_delete_server1 - -> declarative_undeploy_join
step_declarative_undeploy_delete_server2 - -> declarative_undeploy_join
@enduml

PlantUML version 1.2021.13(Mon Nov 01 12:38:45 CET 2021)
(GPL source distribution)
Java Runtime: Java(TM) SE Runtime Environment
JVM: Java HotSpot(TM) 64-Bit Server VM
Default Encoding: UTF-8
Language: fr
Country: FR
--></g></svg>