<?xml version="1.0" encoding="UTF-8" standalone="no"?>
<!DOCTYPE svg PUBLIC "-//W3C//DTD SVG 1.1//EN"
 "http://www.w3.org/Graphics/SVG/1.1/DTD/svg11.dtd">
<!-- Generated by graphviz version 2.38.0 (20140413.2041)
 -->
<!-- Title: ToscaDiagram Pages: 1 -->
<svg width="716pt" height="292pt"
 viewBox="0.00 0.00 716.00 292.00" xmlns="http://www.w3.org/2000/svg" xmlns:xlink="http://www.w3.org/1999/xlink">
<g id="graph0" class="graph" transform="scale(1 1) rotate(0) translate(4 288)">
<title>ToscaDiagram</title>
<polygon fill="white" stroke="none" points="-4,4 -4,-288 712,-288 712,4 -4,4"/>
<g id="clust1" class="cluster"><title>clustermy_server</title>
<polygon fill="none" stroke="white" points="8,-8 8,-276 387,-276 387,-8 8,-8"/>
</g>
<g id="clust2" class="cluster"><title>clustermy_storage</title>
<polygon fill="none" stroke="white" points="407,-86 407,-198 700,-198 700,-86 407,-86"/>
</g>
<!-- my_server -->
<g id="node1" class="node"><title>my_server</title>
<path fill="none" stroke="black" d="M129,-94.5C129,-94.5 241,-94.5 241,-94.5 247,-94.5 253,-100.5 253,-106.5 253,-106.5 253,-177.5 253,-177.5 253,-183.5 247,-189.5 241,-189.5 241,-189.5 129,-189.5 129,-189.5 123,-189.5 117,-183.5 117,-177.5 117,-177.5 117,-106.5 117,-106.5 117,-100.5 123,-94.5 129,-94.5"/>
<text text-anchor="middle" x="185" y="-174.3" font-family="Times,serif" font-size="14.00">my_server: Compute</text>
<polyline fill="none" stroke="black" points="117,-166.5 253,-166.5 "/>
</g>
<!-- my_server_requirement_local_storage -->
<g id="node7" class="node"><title>my_server_requirement_local_storage</title>
<polygon fill="turquoise" stroke="black" points="367,-154 289,-154 289,-130 367,-130 379,-142 367,-154"/>
<text text-anchor="middle" x="334" y="-138.3" font-family="Times,serif" font-size="14.00">local_storage</text>
</g>
<!-- my_server&#45;&#45;my_server_requirement_local_storage -->
<g id="edge6" class="edge"><title>my_server&#45;&#45;my_server_requirement_local_storage</title>
<path fill="none" stroke="black" d="M253.047,-142C265.163,-142 277.514,-142 288.771,-142"/>
</g>
<!-- my_server_capability_host -->
<g id="node2" class="node"><title>my_server_capability_host</title>
<polygon fill="orange" stroke="black" points="63.5,-262 21.5,-262 21.5,-238 63.5,-238 75.5,-250 63.5,-262"/>
<text text-anchor="middle" x="48.5" y="-246.3" font-family="Times,serif" font-size="14.00">host</text>
</g>
<!-- my_server_capability_host&#45;&#45;my_server -->
<g id="edge1" class="edge"><title>my_server_capability_host&#45;&#45;my_server</title>
<path fill="none" stroke="black" d="M72.0123,-231.923C86.4454,-220.334 105.91,-204.704 124.562,-189.727"/>
</g>
<!-- my_server_capability_endpoint -->
<g id="node3" class="node"><title>my_server_capability_endpoint</title>
<polygon fill="orange" stroke="black" points="69,-208 16,-208 16,-184 69,-184 81,-196 69,-208"/>
<text text-anchor="middle" x="48.5" y="-192.3" font-family="Times,serif" font-size="14.00">endpoint</text>
</g>
<!-- my_server_capability_endpoint&#45;&#45;my_server -->
<g id="edge2" class="edge"><title>my_server_capability_endpoint&#45;&#45;my_server</title>
<path fill="none" stroke="black" d="M81.0343,-183.339C91.8269,-179.006 104.348,-173.979 116.865,-168.954"/>
</g>
<!-- my_server_capability_os -->
<g id="node4" class="node"><title>my_server_capability_os</title>
<polygon fill="orange" stroke="black" points="63.5,-154 21.5,-154 21.5,-130 63.5,-130 75.5,-142 63.5,-154"/>
<text text-anchor="middle" x="48.5" y="-138.3" font-family="Times,serif" font-size="14.00">os</text>
</g>
<!-- my_server_capability_os&#45;&#45;my_server -->
<g id="edge3" class="edge"><title>my_server_capability_os&#45;&#45;my_server</title>
<path fill="none" stroke="black" d="M75.7522,-142C87.6019,-142 102.198,-142 116.791,-142"/>
</g>
<!-- my_server_capability_scalable -->
<g id="node5" class="node"><title>my_server_capability_scalable</title>
<polygon fill="orange" stroke="black" points="67,-100 18,-100 18,-76 67,-76 79,-88 67,-100"/>
<text text-anchor="middle" x="48.5" y="-84.3" font-family="Times,serif" font-size="14.00">scalable</text>
</g>
<!-- my_server_capability_scalable&#45;&#45;my_server -->
<g id="edge4" class="edge"><title>my_server_capability_scalable&#45;&#45;my_server</title>
<path fill="none" stroke="black" d="M79.0166,-99.8505C90.2293,-104.352 103.511,-109.685 116.791,-115.016"/>
</g>
<!-- my_server_capability_binding -->
<g id="node6" class="node"><title>my_server_capability_binding</title>
<polygon fill="orange" stroke="black" points="66,-46 19,-46 19,-22 66,-22 78,-34 66,-46"/>
<text text-anchor="middle" x="48.5" y="-30.3" font-family="Times,serif" font-size="14.00">binding</text>
</g>
<!-- my_server_capability_binding&#45;&#45;my_server -->
<g id="edge5" class="edge"><title>my_server_capability_binding&#45;&#45;my_server</title>
<path fill="none" stroke="black" d="M72.0123,-52.0768C86.4454,-63.6662 105.91,-79.2958 124.562,-94.2729"/>
</g>
<!-- my_storage_capability_attachment -->
<g id="node9" class="node"><title>my_storage_capability_attachment</title>
<polygon fill="orange" stroke="black" points="480,-154 415,-154 415,-130 480,-130 492,-142 480,-154"/>
<text text-anchor="middle" x="453.5" y="-138.3" font-family="Times,serif" font-size="14.00">attachment</text>
</g>
<!-- my_server_requirement_local_storage&#45;&#45;my_storage_capability_attachment -->
<g id="edge8" class="edge"><title>my_server_requirement_local_storage&#45;&#45;my_storage_capability_attachment</title>
<path fill="none" stroke="black" stroke-dasharray="1,5" d="M379.087,-142C390.808,-142 403.362,-142 414.713,-142"/>
</g>
<!-- my_storage -->
<g id="node8" class="node"><title>my_storage</title>
<path fill="none" stroke="black" d="M540,-94.5C540,-94.5 680,-94.5 680,-94.5 686,-94.5 692,-100.5 692,-106.5 692,-106.5 692,-177.5 692,-177.5 692,-183.5 686,-189.5 680,-189.5 680,-189.5 540,-189.5 540,-189.5 534,-189.5 528,-183.5 528,-177.5 528,-177.5 528,-106.5 528,-106.5 528,-100.5 534,-94.5 540,-94.5"/>
<text text-anchor="middle" x="610" y="-174.3" font-family="Times,serif" font-size="14.00">my_storage: BlockStorage</text>
<polyline fill="none" stroke="black" points="528,-166.5 692,-166.5 "/>
</g>
<!-- my_storage_capability_attachment&#45;&#45;my_storage -->
<g id="edge7" class="edge"><title>my_storage_capability_attachment&#45;&#45;my_storage</title>
<path fill="none" stroke="black" d="M492.295,-142C503.194,-142 515.525,-142 527.987,-142"/>
</g>
</g>
</svg>
