<?xml version="1.0" encoding="UTF-8" standalone="no"?>
<!DOCTYPE svg PUBLIC "-//W3C//DTD SVG 1.1//EN"
 "http://www.w3.org/Graphics/SVG/1.1/DTD/svg11.dtd">
<!-- Generated by graphviz version 2.38.0 (20140413.2041)
 -->
<!-- Title: ToscaDiagram Pages: 1 -->
<svg width="731pt" height="568pt"
 viewBox="0.00 0.00 731.00 568.00" xmlns="http://www.w3.org/2000/svg" xmlns:xlink="http://www.w3.org/1999/xlink">
<g id="graph0" class="graph" transform="scale(1 1) rotate(0) translate(4 564)">
<title>ToscaDiagram</title>
<polygon fill="white" stroke="none" points="-4,4 -4,-564 727,-564 727,4 -4,4"/>
<g id="clust1" class="cluster"><title>clustermy_server</title>
<polygon fill="none" stroke="white" points="8,-8 8,-276 394,-276 394,-8 8,-8"/>
</g>
<g id="clust2" class="cluster"><title>clustermy_storage</title>
<polygon fill="none" stroke="white" points="414,-86 414,-198 711,-198 711,-86 414,-86"/>
</g>
<g id="clust3" class="cluster"><title>clustermy_server2</title>
<polygon fill="none" stroke="white" points="8,-284 8,-552 394,-552 394,-284 8,-284"/>
</g>
<g id="clust4" class="cluster"><title>clustermy_storage2</title>
<polygon fill="none" stroke="white" points="414,-362 414,-474 715,-474 715,-362 414,-362"/>
</g>
<!-- my_server -->
<g id="node1" class="node"><title>my_server</title>
<path fill="none" stroke="black" d="M132.5,-94.5C132.5,-94.5 244.5,-94.5 244.5,-94.5 250.5,-94.5 256.5,-100.5 256.5,-106.5 256.5,-106.5 256.5,-177.5 256.5,-177.5 256.5,-183.5 250.5,-189.5 244.5,-189.5 244.5,-189.5 132.5,-189.5 132.5,-189.5 126.5,-189.5 120.5,-183.5 120.5,-177.5 120.5,-177.5 120.5,-106.5 120.5,-106.5 120.5,-100.5 126.5,-94.5 132.5,-94.5"/>
<text text-anchor="middle" x="188.5" y="-174.3" font-family="Times,serif" font-size="14.00">my_server: Compute</text>
<polyline fill="none" stroke="black" points="120.5,-166.5 256.5,-166.5 "/>
</g>
<!-- my_server_requirement_local_storage -->
<g id="node7" class="node"><title>my_server_requirement_local_storage</title>
<polygon fill="turquoise" stroke="black" points="374,-154 296,-154 296,-130 374,-130 386,-142 374,-154"/>
<text text-anchor="middle" x="341" y="-138.3" font-family="Times,serif" font-size="14.00">local_storage</text>
</g>
<!-- my_server&#45;&#45;my_server_requirement_local_storage -->
<g id="edge6" class="edge"><title>my_server&#45;&#45;my_server_requirement_local_storage</title>
<path fill="none" stroke="black" d="M256.827,-142C269.975,-142 283.45,-142 295.621,-142"/>
</g>
<!-- my_server_capability_host -->
<g id="node2" class="node"><title>my_server_capability_host</title>
<polygon fill="orange" stroke="black" points="63.5,-262 21.5,-262 21.5,-238 63.5,-238 75.5,-250 63.5,-262"/>
<text text-anchor="middle" x="48.5" y="-246.3" font-family="Times,serif" font-size="14.00">host</text>
</g>
<!-- my_server_capability_host&#45;&#45;my_server -->
<g id="edge1" class="edge"><title>my_server_capability_host&#45;&#45;my_server</title>
<path fill="none" stroke="black" d="M72.5981,-231.923C87.4068,-220.334 107.378,-204.704 126.515,-189.727"/>
</g>
<!-- my_server_capability_endpoint -->
<g id="node3" class="node"><title>my_server_capability_endpoint</title>
<polygon fill="orange" stroke="black" points="69,-208 16,-208 16,-184 69,-184 81,-196 69,-208"/>
<text text-anchor="middle" x="48.5" y="-192.3" font-family="Times,serif" font-size="14.00">endpoint</text>
</g>
<!-- my_server_capability_endpoint&#45;&#45;my_server -->
<g id="edge2" class="edge"><title>my_server_capability_endpoint&#45;&#45;my_server</title>
<path fill="none" stroke="black" d="M81.16,-183.611C92.8575,-179.034 106.604,-173.655 120.258,-168.312"/>
</g>
<!-- my_server_capability_os -->
<g id="node4" class="node"><title>my_server_capability_os</title>
<polygon fill="orange" stroke="black" points="63.5,-154 21.5,-154 21.5,-130 63.5,-130 75.5,-142 63.5,-154"/>
<text text-anchor="middle" x="48.5" y="-138.3" font-family="Times,serif" font-size="14.00">os</text>
</g>
<!-- my_server_capability_os&#45;&#45;my_server -->
<g id="edge3" class="edge"><title>my_server_capability_os&#45;&#45;my_server</title>
<path fill="none" stroke="black" d="M75.7816,-142C88.5285,-142 104.482,-142 120.309,-142"/>
</g>
<!-- my_server_capability_scalable -->
<g id="node5" class="node"><title>my_server_capability_scalable</title>
<polygon fill="orange" stroke="black" points="67,-100 18,-100 18,-76 67,-76 79,-88 67,-100"/>
<text text-anchor="middle" x="48.5" y="-84.3" font-family="Times,serif" font-size="14.00">scalable</text>
</g>
<!-- my_server_capability_scalable&#45;&#45;my_server -->
<g id="edge4" class="edge"><title>my_server_capability_scalable&#45;&#45;my_server</title>
<path fill="none" stroke="black" d="M79.1045,-99.5844C91.2216,-104.326 105.776,-110.021 120.23,-115.677"/>
</g>
<!-- my_server_capability_binding -->
<g id="node6" class="node"><title>my_server_capability_binding</title>
<polygon fill="orange" stroke="black" points="66,-46 19,-46 19,-22 66,-22 78,-34 66,-46"/>
<text text-anchor="middle" x="48.5" y="-30.3" font-family="Times,serif" font-size="14.00">binding</text>
</g>
<!-- my_server_capability_binding&#45;&#45;my_server -->
<g id="edge5" class="edge"><title>my_server_capability_binding&#45;&#45;my_server</title>
<path fill="none" stroke="black" d="M72.5981,-52.0768C87.4068,-63.6662 107.378,-79.2958 126.515,-94.2729"/>
</g>
<!-- my_storage_capability_attachment -->
<g id="node9" class="node"><title>my_storage_capability_attachment</title>
<polygon fill="orange" stroke="black" points="487,-154 422,-154 422,-130 487,-130 499,-142 487,-154"/>
<text text-anchor="middle" x="460.5" y="-138.3" font-family="Times,serif" font-size="14.00">attachment</text>
</g>
<!-- my_server_requirement_local_storage&#45;&#45;my_storage_capability_attachment -->
<g id="edge15" class="edge"><title>my_server_requirement_local_storage&#45;&#45;my_storage_capability_attachment</title>
<path fill="none" stroke="black" stroke-dasharray="1,5" d="M386.087,-142C397.808,-142 410.362,-142 421.713,-142"/>
</g>
<!-- my_storage -->
<g id="node8" class="node"><title>my_storage</title>
<path fill="none" stroke="black" d="M551,-94.5C551,-94.5 691,-94.5 691,-94.5 697,-94.5 703,-100.5 703,-106.5 703,-106.5 703,-177.5 703,-177.5 703,-183.5 697,-189.5 691,-189.5 691,-189.5 551,-189.5 551,-189.5 545,-189.5 539,-183.5 539,-177.5 539,-177.5 539,-106.5 539,-106.5 539,-100.5 545,-94.5 551,-94.5"/>
<text text-anchor="middle" x="621" y="-174.3" font-family="Times,serif" font-size="14.00">my_storage: BlockStorage</text>
<polyline fill="none" stroke="black" points="539,-166.5 703,-166.5 "/>
</g>
<!-- my_storage_capability_attachment&#45;&#45;my_storage -->
<g id="edge7" class="edge"><title>my_storage_capability_attachment&#45;&#45;my_storage</title>
<path fill="none" stroke="black" d="M499.062,-142C511.055,-142 524.827,-142 538.684,-142"/>
</g>
<!-- my_server2 -->
<g id="node10" class="node"><title>my_server2</title>
<path fill="none" stroke="black" d="M129,-370.5C129,-370.5 248,-370.5 248,-370.5 254,-370.5 260,-376.5 260,-382.5 260,-382.5 260,-453.5 260,-453.5 260,-459.5 254,-465.5 248,-465.5 248,-465.5 129,-465.5 129,-465.5 123,-465.5 117,-459.5 117,-453.5 117,-453.5 117,-382.5 117,-382.5 117,-376.5 123,-370.5 129,-370.5"/>
<text text-anchor="middle" x="188.5" y="-450.3" font-family="Times,serif" font-size="14.00">my_server2: Compute</text>
<polyline fill="none" stroke="black" points="117,-442.5 260,-442.5 "/>
</g>
<!-- my_server2_requirement_local_storage -->
<g id="node16" class="node"><title>my_server2_requirement_local_storage</title>
<polygon fill="turquoise" stroke="black" points="374,-430 296,-430 296,-406 374,-406 386,-418 374,-430"/>
<text text-anchor="middle" x="341" y="-414.3" font-family="Times,serif" font-size="14.00">local_storage</text>
</g>
<!-- my_server2&#45;&#45;my_server2_requirement_local_storage -->
<g id="edge13" class="edge"><title>my_server2&#45;&#45;my_server2_requirement_local_storage</title>
<path fill="none" stroke="black" d="M260.343,-418C272.389,-418 284.586,-418 295.694,-418"/>
</g>
<!-- my_server2_capability_host -->
<g id="node11" class="node"><title>my_server2_capability_host</title>
<polygon fill="orange" stroke="black" points="63.5,-538 21.5,-538 21.5,-514 63.5,-514 75.5,-526 63.5,-538"/>
<text text-anchor="middle" x="48.5" y="-522.3" font-family="Times,serif" font-size="14.00">host</text>
</g>
<!-- my_server2_capability_host&#45;&#45;my_server2 -->
<g id="edge8" class="edge"><title>my_server2_capability_host&#45;&#45;my_server2</title>
<path fill="none" stroke="black" d="M72.5981,-507.923C87.4068,-496.334 107.378,-480.704 126.515,-465.727"/>
</g>
<!-- my_server2_capability_endpoint -->
<g id="node12" class="node"><title>my_server2_capability_endpoint</title>
<polygon fill="orange" stroke="black" points="69,-484 16,-484 16,-460 69,-460 81,-472 69,-484"/>
<text text-anchor="middle" x="48.5" y="-468.3" font-family="Times,serif" font-size="14.00">endpoint</text>
</g>
<!-- my_server2_capability_endpoint&#45;&#45;my_server2 -->
<g id="edge9" class="edge"><title>my_server2_capability_endpoint&#45;&#45;my_server2</title>
<path fill="none" stroke="black" d="M81.16,-459.611C91.9026,-455.408 104.373,-450.528 116.914,-445.621"/>
</g>
<!-- my_server2_capability_os -->
<g id="node13" class="node"><title>my_server2_capability_os</title>
<polygon fill="orange" stroke="black" points="63.5,-430 21.5,-430 21.5,-406 63.5,-406 75.5,-418 63.5,-430"/>
<text text-anchor="middle" x="48.5" y="-414.3" font-family="Times,serif" font-size="14.00">os</text>
</g>
<!-- my_server2_capability_os&#45;&#45;my_server2 -->
<g id="edge10" class="edge"><title>my_server2_capability_os&#45;&#45;my_server2</title>
<path fill="none" stroke="black" d="M75.7816,-418C87.5901,-418 102.151,-418 116.813,-418"/>
</g>
<!-- my_server2_capability_scalable -->
<g id="node14" class="node"><title>my_server2_capability_scalable</title>
<polygon fill="orange" stroke="black" points="67,-376 18,-376 18,-352 67,-352 79,-364 67,-376"/>
<text text-anchor="middle" x="48.5" y="-360.3" font-family="Times,serif" font-size="14.00">scalable</text>
</g>
<!-- my_server2_capability_scalable&#45;&#45;my_server2 -->
<g id="edge11" class="edge"><title>my_server2_capability_scalable&#45;&#45;my_server2</title>
<path fill="none" stroke="black" d="M79.1045,-375.584C90.2713,-379.954 103.508,-385.134 116.828,-390.346"/>
</g>
<!-- my_server2_capability_binding -->
<g id="node15" class="node"><title>my_server2_capability_binding</title>
<polygon fill="orange" stroke="black" points="66,-322 19,-322 19,-298 66,-298 78,-310 66,-322"/>
<text text-anchor="middle" x="48.5" y="-306.3" font-family="Times,serif" font-size="14.00">binding</text>
</g>
<!-- my_server2_capability_binding&#45;&#45;my_server2 -->
<g id="edge12" class="edge"><title>my_server2_capability_binding&#45;&#45;my_server2</title>
<path fill="none" stroke="black" d="M72.5981,-328.077C87.4068,-339.666 107.378,-355.296 126.515,-370.273"/>
</g>
<!-- my_storage2_capability_attachment -->
<g id="node18" class="node"><title>my_storage2_capability_attachment</title>
<polygon fill="orange" stroke="black" points="487,-430 422,-430 422,-406 487,-406 499,-418 487,-430"/>
<text text-anchor="middle" x="460.5" y="-414.3" font-family="Times,serif" font-size="14.00">attachment</text>
</g>
<!-- my_server2_requirement_local_storage&#45;&#45;my_storage2_capability_attachment -->
<g id="edge16" class="edge"><title>my_server2_requirement_local_storage&#45;&#45;my_storage2_capability_attachment</title>
<path fill="none" stroke="black" stroke-dasharray="1,5" d="M386.087,-418C397.808,-418 410.362,-418 421.713,-418"/>
</g>
<!-- my_storage2 -->
<g id="node17" class="node"><title>my_storage2</title>
<path fill="none" stroke="black" d="M547,-370.5C547,-370.5 695,-370.5 695,-370.5 701,-370.5 707,-376.5 707,-382.5 707,-382.5 707,-453.5 707,-453.5 707,-459.5 701,-465.5 695,-465.5 695,-465.5 547,-465.5 547,-465.5 541,-465.5 535,-459.5 535,-453.5 535,-453.5 535,-382.5 535,-382.5 535,-376.5 541,-370.5 547,-370.5"/>
<text text-anchor="middle" x="621" y="-450.3" font-family="Times,serif" font-size="14.00">my_storage2: BlockStorage</text>
<polyline fill="none" stroke="black" points="535,-442.5 707,-442.5 "/>
</g>
<!-- my_storage2_capability_attachment&#45;&#45;my_storage2 -->
<g id="edge14" class="edge"><title>my_storage2_capability_attachment&#45;&#45;my_storage2</title>
<path fill="none" stroke="black" d="M499.062,-418C509.956,-418 522.319,-418 534.88,-418"/>
</g>
</g>
</svg>
