<?xml version="1.0" encoding="UTF-8" standalone="no"?>
<!DOCTYPE svg PUBLIC "-//W3C//DTD SVG 1.1//EN"
 "http://www.w3.org/Graphics/SVG/1.1/DTD/svg11.dtd">
<!-- Generated by graphviz version 2.38.0 (20140413.2041)
 -->
<!-- Title: ToscaDiagram Pages: 1 -->
<svg width="720pt" height="256pt"
 viewBox="0.00 0.00 720.00 256.00" xmlns="http://www.w3.org/2000/svg" xmlns:xlink="http://www.w3.org/1999/xlink">
<g id="graph0" class="graph" transform="scale(1 1) rotate(0) translate(4 252)">
<title>ToscaDiagram</title>
<polygon fill="white" stroke="none" points="-4,4 -4,-252 716,-252 716,4 -4,4"/>
<g id="clust1" class="cluster"><title>clustermy_server</title>
<polygon fill="none" stroke="white" points="8,-8 8,-120 383,-120 383,-8 8,-8"/>
</g>
<g id="clust2" class="cluster"><title>clustermy_storage</title>
<polygon fill="none" stroke="white" points="403,-8 403,-120 700,-120 700,-8 403,-8"/>
</g>
<g id="clust3" class="cluster"><title>clustermy_server2</title>
<polygon fill="none" stroke="white" points="8,-128 8,-240 383,-240 383,-128 8,-128"/>
</g>
<g id="clust4" class="cluster"><title>clustermy_storage2</title>
<polygon fill="none" stroke="white" points="403,-128 403,-240 704,-240 704,-128 403,-128"/>
</g>
<!-- my_server -->
<g id="node1" class="node"><title>my_server</title>
<path fill="none" stroke="black" d="M121.5,-16.5C121.5,-16.5 233.5,-16.5 233.5,-16.5 239.5,-16.5 245.5,-22.5 245.5,-28.5 245.5,-28.5 245.5,-99.5 245.5,-99.5 245.5,-105.5 239.5,-111.5 233.5,-111.5 233.5,-111.5 121.5,-111.5 121.5,-111.5 115.5,-111.5 109.5,-105.5 109.5,-99.5 109.5,-99.5 109.5,-28.5 109.5,-28.5 109.5,-22.5 115.5,-16.5 121.5,-16.5"/>
<text text-anchor="middle" x="177.5" y="-96.3" font-family="Times,serif" font-size="14.00">my_server: Compute</text>
<polyline fill="none" stroke="black" points="109.5,-88.5 245.5,-88.5 "/>
</g>
<!-- my_server_requirement_local_storage -->
<g id="node4" class="node"><title>my_server_requirement_local_storage</title>
<polygon fill="turquoise" stroke="black" points="363,-76 285,-76 285,-52 363,-52 375,-64 363,-76"/>
<text text-anchor="middle" x="330" y="-60.3" font-family="Times,serif" font-size="14.00">local_storage</text>
</g>
<!-- my_server&#45;&#45;my_server_requirement_local_storage -->
<g id="edge3" class="edge"><title>my_server&#45;&#45;my_server_requirement_local_storage</title>
<path fill="none" stroke="black" d="M245.827,-64C258.975,-64 272.45,-64 284.621,-64"/>
</g>
<!-- my_server_capability_host -->
<g id="node2" class="node"><title>my_server_capability_host</title>
<polygon fill="orange" stroke="black" points="58,-103 16,-103 16,-79 58,-79 70,-91 58,-103"/>
<text text-anchor="middle" x="43" y="-87.3" font-family="Times,serif" font-size="14.00">host</text>
</g>
<!-- my_server_capability_host&#45;&#45;my_server -->
<g id="edge1" class="edge"><title>my_server_capability_host&#45;&#45;my_server</title>
<path fill="none" stroke="black" d="M70.1777,-85.6657C81.566,-83.345 95.4848,-80.5088 109.451,-77.6628"/>
</g>
<!-- my_server_capability_os -->
<g id="node3" class="node"><title>my_server_capability_os</title>
<polygon fill="orange" stroke="black" points="58,-49 16,-49 16,-25 58,-25 70,-37 58,-49"/>
<text text-anchor="middle" x="43" y="-33.3" font-family="Times,serif" font-size="14.00">os</text>
</g>
<!-- my_server_capability_os&#45;&#45;my_server -->
<g id="edge2" class="edge"><title>my_server_capability_os&#45;&#45;my_server</title>
<path fill="none" stroke="black" d="M70.1777,-42.3343C81.566,-44.655 95.4848,-47.4912 109.451,-50.3372"/>
</g>
<!-- my_storage_capability_attachment -->
<g id="node6" class="node"><title>my_storage_capability_attachment</title>
<polygon fill="orange" stroke="black" points="476,-76 411,-76 411,-52 476,-52 488,-64 476,-76"/>
<text text-anchor="middle" x="449.5" y="-60.3" font-family="Times,serif" font-size="14.00">attachment</text>
</g>
<!-- my_server_requirement_local_storage&#45;&#45;my_storage_capability_attachment -->
<g id="edge9" class="edge"><title>my_server_requirement_local_storage&#45;&#45;my_storage_capability_attachment</title>
<path fill="none" stroke="black" stroke-dasharray="1,5" d="M375.087,-64C386.808,-64 399.362,-64 410.713,-64"/>
</g>
<!-- my_storage -->
<g id="node5" class="node"><title>my_storage</title>
<path fill="none" stroke="black" d="M540,-16.5C540,-16.5 680,-16.5 680,-16.5 686,-16.5 692,-22.5 692,-28.5 692,-28.5 692,-99.5 692,-99.5 692,-105.5 686,-111.5 680,-111.5 680,-111.5 540,-111.5 540,-111.5 534,-111.5 528,-105.5 528,-99.5 528,-99.5 528,-28.5 528,-28.5 528,-22.5 534,-16.5 540,-16.5"/>
<text text-anchor="middle" x="610" y="-96.3" font-family="Times,serif" font-size="14.00">my_storage: BlockStorage</text>
<polyline fill="none" stroke="black" points="528,-88.5 692,-88.5 "/>
</g>
<!-- my_storage_capability_attachment&#45;&#45;my_storage -->
<g id="edge4" class="edge"><title>my_storage_capability_attachment&#45;&#45;my_storage</title>
<path fill="none" stroke="black" d="M488.062,-64C500.055,-64 513.827,-64 527.684,-64"/>
</g>
<!-- my_server2 -->
<g id="node7" class="node"><title>my_server2</title>
<path fill="none" stroke="black" d="M118,-136.5C118,-136.5 237,-136.5 237,-136.5 243,-136.5 249,-142.5 249,-148.5 249,-148.5 249,-219.5 249,-219.5 249,-225.5 243,-231.5 237,-231.5 237,-231.5 118,-231.5 118,-231.5 112,-231.5 106,-225.5 106,-219.5 106,-219.5 106,-148.5 106,-148.5 106,-142.5 112,-136.5 118,-136.5"/>
<text text-anchor="middle" x="177.5" y="-216.3" font-family="Times,serif" font-size="14.00">my_server2: Compute</text>
<polyline fill="none" stroke="black" points="106,-208.5 249,-208.5 "/>
</g>
<!-- my_server2_requirement_local_storage -->
<g id="node10" class="node"><title>my_server2_requirement_local_storage</title>
<polygon fill="turquoise" stroke="black" points="363,-196 285,-196 285,-172 363,-172 375,-184 363,-196"/>
<text text-anchor="middle" x="330" y="-180.3" font-family="Times,serif" font-size="14.00">local_storage</text>
</g>
<!-- my_server2&#45;&#45;my_server2_requirement_local_storage -->
<g id="edge7" class="edge"><title>my_server2&#45;&#45;my_server2_requirement_local_storage</title>
<path fill="none" stroke="black" d="M249.343,-184C261.389,-184 273.586,-184 284.694,-184"/>
</g>
<!-- my_server2_capability_host -->
<g id="node8" class="node"><title>my_server2_capability_host</title>
<polygon fill="orange" stroke="black" points="58,-223 16,-223 16,-199 58,-199 70,-211 58,-223"/>
<text text-anchor="middle" x="43" y="-207.3" font-family="Times,serif" font-size="14.00">host</text>
</g>
<!-- my_server2_capability_host&#45;&#45;my_server2 -->
<g id="edge5" class="edge"><title>my_server2_capability_host&#45;&#45;my_server2</title>
<path fill="none" stroke="black" d="M70.1777,-205.666C80.5856,-203.545 93.1069,-200.993 105.846,-198.397"/>
</g>
<!-- my_server2_capability_os -->
<g id="node9" class="node"><title>my_server2_capability_os</title>
<polygon fill="orange" stroke="black" points="58,-169 16,-169 16,-145 58,-145 70,-157 58,-169"/>
<text text-anchor="middle" x="43" y="-153.3" font-family="Times,serif" font-size="14.00">os</text>
</g>
<!-- my_server2_capability_os&#45;&#45;my_server2 -->
<g id="edge6" class="edge"><title>my_server2_capability_os&#45;&#45;my_server2</title>
<path fill="none" stroke="black" d="M70.1777,-162.334C80.5856,-164.455 93.1069,-167.007 105.846,-169.603"/>
</g>
<!-- my_storage2_capability_attachment -->
<g id="node12" class="node"><title>my_storage2_capability_attachment</title>
<polygon fill="orange" stroke="black" points="476,-196 411,-196 411,-172 476,-172 488,-184 476,-196"/>
<text text-anchor="middle" x="449.5" y="-180.3" font-family="Times,serif" font-size="14.00">attachment</text>
</g>
<!-- my_server2_requirement_local_storage&#45;&#45;my_storage2_capability_attachment -->
<g id="edge10" class="edge"><title>my_server2_requirement_local_storage&#45;&#45;my_storage2_capability_attachment</title>
<path fill="none" stroke="black" stroke-dasharray="1,5" d="M375.087,-184C386.808,-184 399.362,-184 410.713,-184"/>
</g>
<!-- my_storage2 -->
<g id="node11" class="node"><title>my_storage2</title>
<path fill="none" stroke="black" d="M536,-136.5C536,-136.5 684,-136.5 684,-136.5 690,-136.5 696,-142.5 696,-148.5 696,-148.5 696,-219.5 696,-219.5 696,-225.5 690,-231.5 684,-231.5 684,-231.5 536,-231.5 536,-231.5 530,-231.5 524,-225.5 524,-219.5 524,-219.5 524,-148.5 524,-148.5 524,-142.5 530,-136.5 536,-136.5"/>
<text text-anchor="middle" x="610" y="-216.3" font-family="Times,serif" font-size="14.00">my_storage2: BlockStorage</text>
<polyline fill="none" stroke="black" points="524,-208.5 696,-208.5 "/>
</g>
<!-- my_storage2_capability_attachment&#45;&#45;my_storage2 -->
<g id="edge8" class="edge"><title>my_storage2_capability_attachment&#45;&#45;my_storage2</title>
<path fill="none" stroke="black" d="M488.062,-184C498.956,-184 511.319,-184 523.88,-184"/>
</g>
</g>
</svg>
