<?xml version="1.0" encoding="UTF-8" standalone="no"?>
<!DOCTYPE svg PUBLIC "-//W3C//DTD SVG 1.1//EN"
 "http://www.w3.org/Graphics/SVG/1.1/DTD/svg11.dtd">
<!-- Generated by graphviz version 2.38.0 (20140413.2041)
 -->
<!-- Title: ToscaDiagram Pages: 1 -->
<svg width="763pt" height="256pt"
 viewBox="0.00 0.00 763.00 256.00" xmlns="http://www.w3.org/2000/svg" xmlns:xlink="http://www.w3.org/1999/xlink">
<g id="graph0" class="graph" transform="scale(1 1) rotate(0) translate(4 252)">
<title>ToscaDiagram</title>
<polygon fill="white" stroke="none" points="-4,4 -4,-252 759,-252 759,4 -4,4"/>
<g id="clust1" class="cluster"><title>clustermy_web_app_tier_1</title>
<polygon fill="none" stroke="white" points="8,-8 8,-120 434,-120 434,-8 8,-8"/>
</g>
<g id="clust2" class="cluster"><title>clustermy_web_app_tier_2</title>
<polygon fill="none" stroke="white" points="8,-128 8,-240 434,-240 434,-128 8,-128"/>
</g>
<g id="clust3" class="cluster"><title>clustermy_storage</title>
<polygon fill="none" stroke="white" points="454,-8 454,-120 747,-120 747,-8 454,-8"/>
</g>
<!-- my_web_app_tier_1 -->
<g id="node1" class="node"><title>my_web_app_tier_1</title>
<path fill="none" stroke="black" d="M118,-16.5C118,-16.5 288,-16.5 288,-16.5 294,-16.5 300,-22.5 300,-28.5 300,-28.5 300,-99.5 300,-99.5 300,-105.5 294,-111.5 288,-111.5 288,-111.5 118,-111.5 118,-111.5 112,-111.5 106,-105.5 106,-99.5 106,-99.5 106,-28.5 106,-28.5 106,-22.5 112,-16.5 118,-16.5"/>
<text text-anchor="middle" x="203" y="-96.3" font-family="Times,serif" font-size="14.00">my_web_app_tier_1: Compute</text>
<polyline fill="none" stroke="black" points="106,-88.5 300,-88.5 "/>
</g>
<!-- my_web_app_tier_1_requirement_local_storage -->
<g id="node4" class="node"><title>my_web_app_tier_1_requirement_local_storage</title>
<polygon fill="turquoise" stroke="black" points="414,-76 336,-76 336,-52 414,-52 426,-64 414,-76"/>
<text text-anchor="middle" x="381" y="-60.3" font-family="Times,serif" font-size="14.00">local_storage</text>
</g>
<!-- my_web_app_tier_1&#45;&#45;my_web_app_tier_1_requirement_local_storage -->
<g id="edge3" class="edge"><title>my_web_app_tier_1&#45;&#45;my_web_app_tier_1_requirement_local_storage</title>
<path fill="none" stroke="black" d="M300.239,-64C312.598,-64 324.738,-64 335.673,-64"/>
</g>
<!-- my_web_app_tier_1_capability_host -->
<g id="node2" class="node"><title>my_web_app_tier_1_capability_host</title>
<polygon fill="orange" stroke="black" points="58,-103 16,-103 16,-79 58,-79 70,-91 58,-103"/>
<text text-anchor="middle" x="43" y="-87.3" font-family="Times,serif" font-size="14.00">host</text>
</g>
<!-- my_web_app_tier_1_capability_host&#45;&#45;my_web_app_tier_1 -->
<g id="edge1" class="edge"><title>my_web_app_tier_1_capability_host&#45;&#45;my_web_app_tier_1</title>
<path fill="none" stroke="black" d="M70.0905,-86.5415C80.3455,-84.7891 92.8018,-82.6604 105.918,-80.4191"/>
</g>
<!-- my_web_app_tier_1_capability_os -->
<g id="node3" class="node"><title>my_web_app_tier_1_capability_os</title>
<polygon fill="orange" stroke="black" points="58,-49 16,-49 16,-25 58,-25 70,-37 58,-49"/>
<text text-anchor="middle" x="43" y="-33.3" font-family="Times,serif" font-size="14.00">os</text>
</g>
<!-- my_web_app_tier_1_capability_os&#45;&#45;my_web_app_tier_1 -->
<g id="edge2" class="edge"><title>my_web_app_tier_1_capability_os&#45;&#45;my_web_app_tier_1</title>
<path fill="none" stroke="black" d="M70.0905,-41.4585C80.3455,-43.2109 92.8018,-45.3396 105.918,-47.5809"/>
</g>
<!-- my_storage_capability_attachment -->
<g id="node10" class="node"><title>my_storage_capability_attachment</title>
<polygon fill="orange" stroke="black" points="527,-76 462,-76 462,-52 527,-52 539,-64 527,-76"/>
<text text-anchor="middle" x="500.5" y="-60.3" font-family="Times,serif" font-size="14.00">attachment</text>
</g>
<!-- my_web_app_tier_1_requirement_local_storage&#45;&#45;my_storage_capability_attachment -->
<g id="edge8" class="edge"><title>my_web_app_tier_1_requirement_local_storage&#45;&#45;my_storage_capability_attachment</title>
<path fill="none" stroke="black" stroke-dasharray="1,5" d="M426.087,-64C437.808,-64 450.362,-64 461.713,-64"/>
</g>
<!-- my_web_app_tier_2 -->
<g id="node5" class="node"><title>my_web_app_tier_2</title>
<path fill="none" stroke="black" d="M118,-136.5C118,-136.5 288,-136.5 288,-136.5 294,-136.5 300,-142.5 300,-148.5 300,-148.5 300,-219.5 300,-219.5 300,-225.5 294,-231.5 288,-231.5 288,-231.5 118,-231.5 118,-231.5 112,-231.5 106,-225.5 106,-219.5 106,-219.5 106,-148.5 106,-148.5 106,-142.5 112,-136.5 118,-136.5"/>
<text text-anchor="middle" x="203" y="-216.3" font-family="Times,serif" font-size="14.00">my_web_app_tier_2: Compute</text>
<polyline fill="none" stroke="black" points="106,-208.5 300,-208.5 "/>
</g>
<!-- my_web_app_tier_2_requirement_local_storage -->
<g id="node8" class="node"><title>my_web_app_tier_2_requirement_local_storage</title>
<polygon fill="turquoise" stroke="black" points="414,-181 336,-181 336,-157 414,-157 426,-169 414,-181"/>
<text text-anchor="middle" x="381" y="-165.3" font-family="Times,serif" font-size="14.00">local_storage</text>
</g>
<!-- my_web_app_tier_2&#45;&#45;my_web_app_tier_2_requirement_local_storage -->
<g id="edge6" class="edge"><title>my_web_app_tier_2&#45;&#45;my_web_app_tier_2_requirement_local_storage</title>
<path fill="none" stroke="black" d="M300.239,-175.798C312.598,-174.744 324.738,-173.71 335.673,-172.778"/>
</g>
<!-- my_web_app_tier_2_capability_host -->
<g id="node6" class="node"><title>my_web_app_tier_2_capability_host</title>
<polygon fill="orange" stroke="black" points="58,-223 16,-223 16,-199 58,-199 70,-211 58,-223"/>
<text text-anchor="middle" x="43" y="-207.3" font-family="Times,serif" font-size="14.00">host</text>
</g>
<!-- my_web_app_tier_2_capability_host&#45;&#45;my_web_app_tier_2 -->
<g id="edge4" class="edge"><title>my_web_app_tier_2_capability_host&#45;&#45;my_web_app_tier_2</title>
<path fill="none" stroke="black" d="M70.0905,-206.541C80.3455,-204.789 92.8018,-202.66 105.918,-200.419"/>
</g>
<!-- my_web_app_tier_2_capability_os -->
<g id="node7" class="node"><title>my_web_app_tier_2_capability_os</title>
<polygon fill="orange" stroke="black" points="58,-169 16,-169 16,-145 58,-145 70,-157 58,-169"/>
<text text-anchor="middle" x="43" y="-153.3" font-family="Times,serif" font-size="14.00">os</text>
</g>
<!-- my_web_app_tier_2_capability_os&#45;&#45;my_web_app_tier_2 -->
<g id="edge5" class="edge"><title>my_web_app_tier_2_capability_os&#45;&#45;my_web_app_tier_2</title>
<path fill="none" stroke="black" d="M70.0905,-161.459C80.3455,-163.211 92.8018,-165.34 105.918,-167.581"/>
</g>
<!-- my_web_app_tier_2_requirement_local_storage&#45;&#45;my_storage_capability_attachment -->
<g id="edge9" class="edge"><title>my_web_app_tier_2_requirement_local_storage&#45;&#45;my_storage_capability_attachment</title>
<path fill="none" stroke="black" stroke-dasharray="1,5" d="M403.118,-150.961C412.612,-142.79 423.924,-132.971 434,-124 449.549,-110.156 466.913,-94.2273 479.855,-82.2629"/>
</g>
<!-- my_storage -->
<g id="node9" class="node"><title>my_storage</title>
<path fill="none" stroke="black" d="M587,-16.5C587,-16.5 727,-16.5 727,-16.5 733,-16.5 739,-22.5 739,-28.5 739,-28.5 739,-99.5 739,-99.5 739,-105.5 733,-111.5 727,-111.5 727,-111.5 587,-111.5 587,-111.5 581,-111.5 575,-105.5 575,-99.5 575,-99.5 575,-28.5 575,-28.5 575,-22.5 581,-16.5 587,-16.5"/>
<text text-anchor="middle" x="657" y="-96.3" font-family="Times,serif" font-size="14.00">my_storage: BlockStorage</text>
<polyline fill="none" stroke="black" points="575,-88.5 739,-88.5 "/>
</g>
<!-- my_storage_capability_attachment&#45;&#45;my_storage -->
<g id="edge7" class="edge"><title>my_storage_capability_attachment&#45;&#45;my_storage</title>
<path fill="none" stroke="black" d="M539.295,-64C550.194,-64 562.525,-64 574.987,-64"/>
</g>
</g>
</svg>
