<?xml version="1.0" encoding="UTF-8" standalone="no"?>
<!DOCTYPE svg PUBLIC "-//W3C//DTD SVG 1.1//EN"
 "http://www.w3.org/Graphics/SVG/1.1/DTD/svg11.dtd">
<!-- Generated by graphviz version 2.38.0 (20140413.2041)
 -->
<!-- Title: ToscaDiagram Pages: 1 -->
<svg width="774pt" height="568pt"
 viewBox="0.00 0.00 774.00 568.00" xmlns="http://www.w3.org/2000/svg" xmlns:xlink="http://www.w3.org/1999/xlink">
<g id="graph0" class="graph" transform="scale(1 1) rotate(0) translate(4 564)">
<title>ToscaDiagram</title>
<polygon fill="white" stroke="none" points="-4,4 -4,-564 770,-564 770,4 -4,4"/>
<g id="clust1" class="cluster"><title>clustermy_web_app_tier_1</title>
<polygon fill="none" stroke="white" points="8,-8 8,-276 445,-276 445,-8 8,-8"/>
</g>
<g id="clust2" class="cluster"><title>clustermy_web_app_tier_2</title>
<polygon fill="none" stroke="white" points="8,-284 8,-552 445,-552 445,-284 8,-284"/>
</g>
<g id="clust3" class="cluster"><title>clustermy_storage</title>
<polygon fill="none" stroke="white" points="465,-243 465,-355 758,-355 758,-243 465,-243"/>
</g>
<!-- my_web_app_tier_1 -->
<g id="node1" class="node"><title>my_web_app_tier_1</title>
<path fill="none" stroke="black" d="M129,-121.5C129,-121.5 299,-121.5 299,-121.5 305,-121.5 311,-127.5 311,-133.5 311,-133.5 311,-204.5 311,-204.5 311,-210.5 305,-216.5 299,-216.5 299,-216.5 129,-216.5 129,-216.5 123,-216.5 117,-210.5 117,-204.5 117,-204.5 117,-133.5 117,-133.5 117,-127.5 123,-121.5 129,-121.5"/>
<text text-anchor="middle" x="214" y="-201.3" font-family="Times,serif" font-size="14.00">my_web_app_tier_1: Compute</text>
<polyline fill="none" stroke="black" points="117,-193.5 311,-193.5 "/>
</g>
<!-- my_web_app_tier_1_requirement_local_storage -->
<g id="node7" class="node"><title>my_web_app_tier_1_requirement_local_storage</title>
<polygon fill="turquoise" stroke="black" points="425,-221 347,-221 347,-197 425,-197 437,-209 425,-221"/>
<text text-anchor="middle" x="392" y="-205.3" font-family="Times,serif" font-size="14.00">local_storage</text>
</g>
<!-- my_web_app_tier_1&#45;&#45;my_web_app_tier_1_requirement_local_storage -->
<g id="edge6" class="edge"><title>my_web_app_tier_1&#45;&#45;my_web_app_tier_1_requirement_local_storage</title>
<path fill="none" stroke="black" d="M311.239,-190.873C323.598,-193.681 335.738,-196.44 346.673,-198.926"/>
</g>
<!-- my_web_app_tier_1_capability_host -->
<g id="node2" class="node"><title>my_web_app_tier_1_capability_host</title>
<polygon fill="orange" stroke="black" points="63.5,-262 21.5,-262 21.5,-238 63.5,-238 75.5,-250 63.5,-262"/>
<text text-anchor="middle" x="48.5" y="-246.3" font-family="Times,serif" font-size="14.00">host</text>
</g>
<!-- my_web_app_tier_1_capability_host&#45;&#45;my_web_app_tier_1 -->
<g id="edge1" class="edge"><title>my_web_app_tier_1_capability_host&#45;&#45;my_web_app_tier_1</title>
<path fill="none" stroke="black" d="M75.7691,-236.986C87.4138,-231.217 101.902,-224.039 117.062,-216.529"/>
</g>
<!-- my_web_app_tier_1_capability_endpoint -->
<g id="node3" class="node"><title>my_web_app_tier_1_capability_endpoint</title>
<polygon fill="orange" stroke="black" points="69,-208 16,-208 16,-184 69,-184 81,-196 69,-208"/>
<text text-anchor="middle" x="48.5" y="-192.3" font-family="Times,serif" font-size="14.00">endpoint</text>
</g>
<!-- my_web_app_tier_1_capability_endpoint&#45;&#45;my_web_app_tier_1 -->
<g id="edge2" class="edge"><title>my_web_app_tier_1_capability_endpoint&#45;&#45;my_web_app_tier_1</title>
<path fill="none" stroke="black" d="M81.0244,-190.794C91.6031,-189.047 104.014,-186.998 116.916,-184.867"/>
</g>
<!-- my_web_app_tier_1_capability_os -->
<g id="node4" class="node"><title>my_web_app_tier_1_capability_os</title>
<polygon fill="orange" stroke="black" points="63.5,-154 21.5,-154 21.5,-130 63.5,-130 75.5,-142 63.5,-154"/>
<text text-anchor="middle" x="48.5" y="-138.3" font-family="Times,serif" font-size="14.00">os</text>
</g>
<!-- my_web_app_tier_1_capability_os&#45;&#45;my_web_app_tier_1 -->
<g id="edge3" class="edge"><title>my_web_app_tier_1_capability_os&#45;&#45;my_web_app_tier_1</title>
<path fill="none" stroke="black" d="M75.7691,-146.338C87.3235,-148.246 101.678,-150.616 116.71,-153.099"/>
</g>
<!-- my_web_app_tier_1_capability_scalable -->
<g id="node5" class="node"><title>my_web_app_tier_1_capability_scalable</title>
<polygon fill="orange" stroke="black" points="67,-100 18,-100 18,-76 67,-76 79,-88 67,-100"/>
<text text-anchor="middle" x="48.5" y="-84.3" font-family="Times,serif" font-size="14.00">scalable</text>
</g>
<!-- my_web_app_tier_1_capability_scalable&#45;&#45;my_web_app_tier_1 -->
<g id="edge4" class="edge"><title>my_web_app_tier_1_capability_scalable&#45;&#45;my_web_app_tier_1</title>
<path fill="none" stroke="black" d="M79.1086,-102.668C90.0595,-108.094 103.153,-114.58 116.801,-121.342"/>
</g>
<!-- my_web_app_tier_1_capability_binding -->
<g id="node6" class="node"><title>my_web_app_tier_1_capability_binding</title>
<polygon fill="orange" stroke="black" points="66,-46 19,-46 19,-22 66,-22 78,-34 66,-46"/>
<text text-anchor="middle" x="48.5" y="-30.3" font-family="Times,serif" font-size="14.00">binding</text>
</g>
<!-- my_web_app_tier_1_capability_binding&#45;&#45;my_web_app_tier_1 -->
<g id="edge5" class="edge"><title>my_web_app_tier_1_capability_binding&#45;&#45;my_web_app_tier_1</title>
<path fill="none" stroke="black" d="M71.5503,-52.2067C92.9058,-69.8396 126.212,-97.3403 155.142,-121.227"/>
</g>
<!-- my_storage_capability_attachment -->
<g id="node16" class="node"><title>my_storage_capability_attachment</title>
<polygon fill="orange" stroke="black" points="538,-311 473,-311 473,-287 538,-287 550,-299 538,-311"/>
<text text-anchor="middle" x="511.5" y="-295.3" font-family="Times,serif" font-size="14.00">attachment</text>
</g>
<!-- my_web_app_tier_1_requirement_local_storage&#45;&#45;my_storage_capability_attachment -->
<g id="edge14" class="edge"><title>my_web_app_tier_1_requirement_local_storage&#45;&#45;my_storage_capability_attachment</title>
<path fill="none" stroke="black" stroke-dasharray="1,5" d="M416.778,-227.213C437.164,-242.827 466.382,-265.207 486.757,-280.814"/>
</g>
<!-- my_web_app_tier_2 -->
<g id="node8" class="node"><title>my_web_app_tier_2</title>
<path fill="none" stroke="black" d="M129,-343.5C129,-343.5 299,-343.5 299,-343.5 305,-343.5 311,-349.5 311,-355.5 311,-355.5 311,-426.5 311,-426.5 311,-432.5 305,-438.5 299,-438.5 299,-438.5 129,-438.5 129,-438.5 123,-438.5 117,-432.5 117,-426.5 117,-426.5 117,-355.5 117,-355.5 117,-349.5 123,-343.5 129,-343.5"/>
<text text-anchor="middle" x="214" y="-423.3" font-family="Times,serif" font-size="14.00">my_web_app_tier_2: Compute</text>
<polyline fill="none" stroke="black" points="117,-415.5 311,-415.5 "/>
</g>
<!-- my_web_app_tier_2_requirement_local_storage -->
<g id="node14" class="node"><title>my_web_app_tier_2_requirement_local_storage</title>
<polygon fill="turquoise" stroke="black" points="425,-362 347,-362 347,-338 425,-338 437,-350 425,-362"/>
<text text-anchor="middle" x="392" y="-346.3" font-family="Times,serif" font-size="14.00">local_storage</text>
</g>
<!-- my_web_app_tier_2&#45;&#45;my_web_app_tier_2_requirement_local_storage -->
<g id="edge12" class="edge"><title>my_web_app_tier_2&#45;&#45;my_web_app_tier_2_requirement_local_storage</title>
<path fill="none" stroke="black" d="M311.239,-368.581C323.598,-365.702 335.738,-362.874 346.673,-360.326"/>
</g>
<!-- my_web_app_tier_2_capability_host -->
<g id="node9" class="node"><title>my_web_app_tier_2_capability_host</title>
<polygon fill="orange" stroke="black" points="63.5,-538 21.5,-538 21.5,-514 63.5,-514 75.5,-526 63.5,-538"/>
<text text-anchor="middle" x="48.5" y="-522.3" font-family="Times,serif" font-size="14.00">host</text>
</g>
<!-- my_web_app_tier_2_capability_host&#45;&#45;my_web_app_tier_2 -->
<g id="edge7" class="edge"><title>my_web_app_tier_2_capability_host&#45;&#45;my_web_app_tier_2</title>
<path fill="none" stroke="black" d="M71.5503,-507.793C92.9058,-490.16 126.212,-462.66 155.142,-438.773"/>
</g>
<!-- my_web_app_tier_2_capability_endpoint -->
<g id="node10" class="node"><title>my_web_app_tier_2_capability_endpoint</title>
<polygon fill="orange" stroke="black" points="69,-484 16,-484 16,-460 69,-460 81,-472 69,-484"/>
<text text-anchor="middle" x="48.5" y="-468.3" font-family="Times,serif" font-size="14.00">endpoint</text>
</g>
<!-- my_web_app_tier_2_capability_endpoint&#45;&#45;my_web_app_tier_2 -->
<g id="edge8" class="edge"><title>my_web_app_tier_2_capability_endpoint&#45;&#45;my_web_app_tier_2</title>
<path fill="none" stroke="black" d="M81.0244,-456.382C91.6031,-451.142 104.014,-444.993 116.916,-438.601"/>
</g>
<!-- my_web_app_tier_2_capability_os -->
<g id="node11" class="node"><title>my_web_app_tier_2_capability_os</title>
<polygon fill="orange" stroke="black" points="63.5,-430 21.5,-430 21.5,-406 63.5,-406 75.5,-418 63.5,-430"/>
<text text-anchor="middle" x="48.5" y="-414.3" font-family="Times,serif" font-size="14.00">os</text>
</g>
<!-- my_web_app_tier_2_capability_os&#45;&#45;my_web_app_tier_2 -->
<g id="edge9" class="edge"><title>my_web_app_tier_2_capability_os&#45;&#45;my_web_app_tier_2</title>
<path fill="none" stroke="black" d="M75.7691,-413.662C87.3235,-411.754 101.678,-409.384 116.71,-406.901"/>
</g>
<!-- my_web_app_tier_2_capability_scalable -->
<g id="node12" class="node"><title>my_web_app_tier_2_capability_scalable</title>
<polygon fill="orange" stroke="black" points="67,-376 18,-376 18,-352 67,-352 79,-364 67,-376"/>
<text text-anchor="middle" x="48.5" y="-360.3" font-family="Times,serif" font-size="14.00">scalable</text>
</g>
<!-- my_web_app_tier_2_capability_scalable&#45;&#45;my_web_app_tier_2 -->
<g id="edge10" class="edge"><title>my_web_app_tier_2_capability_scalable&#45;&#45;my_web_app_tier_2</title>
<path fill="none" stroke="black" d="M79.1086,-368.889C90.0595,-370.698 103.153,-372.86 116.801,-375.114"/>
</g>
<!-- my_web_app_tier_2_capability_binding -->
<g id="node13" class="node"><title>my_web_app_tier_2_capability_binding</title>
<polygon fill="orange" stroke="black" points="66,-322 19,-322 19,-298 66,-298 78,-310 66,-322"/>
<text text-anchor="middle" x="48.5" y="-306.3" font-family="Times,serif" font-size="14.00">binding</text>
</g>
<!-- my_web_app_tier_2_capability_binding&#45;&#45;my_web_app_tier_2 -->
<g id="edge11" class="edge"><title>my_web_app_tier_2_capability_binding&#45;&#45;my_web_app_tier_2</title>
<path fill="none" stroke="black" d="M78.3542,-324.295C89.5385,-329.836 103.038,-336.523 117.114,-343.497"/>
</g>
<!-- my_web_app_tier_2_requirement_local_storage&#45;&#45;my_storage_capability_attachment -->
<g id="edge15" class="edge"><title>my_web_app_tier_2_requirement_local_storage&#45;&#45;my_storage_capability_attachment</title>
<path fill="none" stroke="black" stroke-dasharray="1,5" d="M434.757,-331.876C447.158,-326.493 460.664,-320.631 472.792,-315.367"/>
</g>
<!-- my_storage -->
<g id="node15" class="node"><title>my_storage</title>
<path fill="none" stroke="black" d="M598,-251.5C598,-251.5 738,-251.5 738,-251.5 744,-251.5 750,-257.5 750,-263.5 750,-263.5 750,-334.5 750,-334.5 750,-340.5 744,-346.5 738,-346.5 738,-346.5 598,-346.5 598,-346.5 592,-346.5 586,-340.5 586,-334.5 586,-334.5 586,-263.5 586,-263.5 586,-257.5 592,-251.5 598,-251.5"/>
<text text-anchor="middle" x="668" y="-331.3" font-family="Times,serif" font-size="14.00">my_storage: BlockStorage</text>
<polyline fill="none" stroke="black" points="586,-323.5 750,-323.5 "/>
</g>
<!-- my_storage_capability_attachment&#45;&#45;my_storage -->
<g id="edge13" class="edge"><title>my_storage_capability_attachment&#45;&#45;my_storage</title>
<path fill="none" stroke="black" d="M550.295,-299C561.194,-299 573.525,-299 585.987,-299"/>
</g>
</g>
</svg>
