<?xml version="1.0" encoding="UTF-8" standalone="no"?>
<!DOCTYPE svg PUBLIC "-//W3C//DTD SVG 1.1//EN"
 "http://www.w3.org/Graphics/SVG/1.1/DTD/svg11.dtd">
<!-- Generated by graphviz version 2.38.0 (20140413.2041)
 -->
<!-- Title: ToscaDiagram Pages: 1 -->
<svg width="266pt" height="136pt"
 viewBox="0.00 0.00 266.00 136.00" xmlns="http://www.w3.org/2000/svg" xmlns:xlink="http://www.w3.org/1999/xlink">
<g id="graph0" class="graph" transform="scale(1 1) rotate(0) translate(4 132)">
<title>ToscaDiagram</title>
<polygon fill="white" stroke="none" points="-4,4 -4,-132 262,-132 262,4 -4,4"/>
<g id="clust1" class="cluster"><title>clustermy_server</title>
<polygon fill="none" stroke="white" points="8,-8 8,-120 250,-120 250,-8 8,-8"/>
</g>
<!-- my_server -->
<g id="node1" class="node"><title>my_server</title>
<path fill="none" stroke="black" d="M118,-16.5C118,-16.5 230,-16.5 230,-16.5 236,-16.5 242,-22.5 242,-28.5 242,-28.5 242,-99.5 242,-99.5 242,-105.5 236,-111.5 230,-111.5 230,-111.5 118,-111.5 118,-111.5 112,-111.5 106,-105.5 106,-99.5 106,-99.5 106,-28.5 106,-28.5 106,-22.5 112,-16.5 118,-16.5"/>
<text text-anchor="middle" x="174" y="-96.3" font-family="Times,serif" font-size="14.00">my_server: Compute</text>
<polyline fill="none" stroke="black" points="106,-88.5 242,-88.5 "/>
</g>
<!-- my_server_capability_host -->
<g id="node2" class="node"><title>my_server_capability_host</title>
<polygon fill="orange" stroke="black" points="58,-103 16,-103 16,-79 58,-79 70,-91 58,-103"/>
<text text-anchor="middle" x="43" y="-87.3" font-family="Times,serif" font-size="14.00">host</text>
</g>
<!-- my_server_capability_host&#45;&#45;my_server -->
<g id="edge1" class="edge"><title>my_server_capability_host&#45;&#45;my_server</title>
<path fill="none" stroke="black" d="M70.1051,-85.5361C80.5593,-83.348 93.1294,-80.7171 105.837,-78.0573"/>
</g>
<!-- my_server_capability_os -->
<g id="node3" class="node"><title>my_server_capability_os</title>
<polygon fill="orange" stroke="black" points="58,-49 16,-49 16,-25 58,-25 70,-37 58,-49"/>
<text text-anchor="middle" x="43" y="-33.3" font-family="Times,serif" font-size="14.00">os</text>
</g>
<!-- my_server_capability_os&#45;&#45;my_server -->
<g id="edge2" class="edge"><title>my_server_capability_os&#45;&#45;my_server</title>
<path fill="none" stroke="black" d="M70.1051,-42.4639C80.5593,-44.652 93.1294,-47.2829 105.837,-49.9427"/>
</g>
</g>
</svg>
