<?xml version="1.0" encoding="UTF-8" standalone="no"?>
<!DOCTYPE svg PUBLIC "-//W3C//DTD SVG 1.1//EN"
 "http://www.w3.org/Graphics/SVG/1.1/DTD/svg11.dtd">
<!-- Generated by graphviz version 2.38.0 (20140413.2041)
 -->
<!-- Title: ToscaDiagram Pages: 1 -->
<svg width="854pt" height="163pt"
 viewBox="0.00 0.00 854.00 163.00" xmlns="http://www.w3.org/2000/svg" xmlns:xlink="http://www.w3.org/1999/xlink">
<g id="graph0" class="graph" transform="scale(1 1) rotate(0) translate(4 159)">
<title>ToscaDiagram</title>
<polygon fill="white" stroke="none" points="-4,4 -4,-159 850,-159 850,4 -4,4"/>
<g id="clust1" class="cluster"><title>clustermysql_container</title>
<polygon fill="none" stroke="white" points="445,-35 445,-147 838,-147 838,-35 445,-35"/>
</g>
<g id="clust2" class="cluster"><title>clusterwordpress_container</title>
<polygon fill="none" stroke="white" points="8,-8 8,-120 425,-120 425,-8 8,-8"/>
</g>
<!-- mysql_container -->
<g id="node1" class="node"><title>mysql_container</title>
<path fill="none" stroke="black" d="M555,-43.5C555,-43.5 689,-43.5 689,-43.5 695,-43.5 701,-49.5 701,-55.5 701,-55.5 701,-126.5 701,-126.5 701,-132.5 695,-138.5 689,-138.5 689,-138.5 555,-138.5 555,-138.5 549,-138.5 543,-132.5 543,-126.5 543,-126.5 543,-55.5 543,-55.5 543,-49.5 549,-43.5 555,-43.5"/>
<text text-anchor="middle" x="622" y="-123.3" font-family="Times,serif" font-size="14.00">mysql_container: Docker</text>
<polyline fill="none" stroke="black" points="543,-115.5 701,-115.5 "/>
</g>
<!-- mysql_container_requirement_host -->
<g id="node3" class="node"><title>mysql_container_requirement_host</title>
<polygon fill="turquoise" stroke="black" points="798.5,-76 756.5,-76 756.5,-52 798.5,-52 810.5,-64 798.5,-76"/>
<text text-anchor="middle" x="783.5" y="-60.3" font-family="Times,serif" font-size="14.00">host</text>
</g>
<!-- mysql_container&#45;&#45;mysql_container_requirement_host -->
<g id="edge2" class="edge"><title>mysql_container&#45;&#45;mysql_container_requirement_host</title>
<path fill="none" stroke="black" d="M701.348,-77.7373C721.201,-74.3766 741.171,-70.9962 756.332,-68.4297"/>
</g>
<!-- mysql_container_requirement_database_link -->
<g id="node4" class="node"><title>mysql_container_requirement_database_link</title>
<polygon fill="turquoise" stroke="black" points="818,-130 737,-130 737,-106 818,-106 830,-118 818,-130"/>
<text text-anchor="middle" x="783.5" y="-114.3" font-family="Times,serif" font-size="14.00">database_link</text>
</g>
<!-- mysql_container&#45;&#45;mysql_container_requirement_database_link -->
<g id="edge3" class="edge"><title>mysql_container&#45;&#45;mysql_container_requirement_database_link</title>
<path fill="none" stroke="black" d="M701.348,-104.263C713.481,-106.316 725.657,-108.378 736.752,-110.256"/>
</g>
<!-- mysql_container_capability_link -->
<g id="node2" class="node"><title>mysql_container_capability_link</title>
<polygon fill="orange" stroke="black" points="495,-103 453,-103 453,-79 495,-79 507,-91 495,-103"/>
<text text-anchor="middle" x="480" y="-87.3" font-family="Times,serif" font-size="14.00">link</text>
</g>
<!-- mysql_container_capability_link&#45;&#45;mysql_container -->
<g id="edge1" class="edge"><title>mysql_container_capability_link&#45;&#45;mysql_container</title>
<path fill="none" stroke="black" d="M507.005,-91C517.364,-91 529.884,-91 542.783,-91"/>
</g>
<!-- wordpress_container -->
<g id="node5" class="node"><title>wordpress_container</title>
<path fill="none" stroke="black" d="M118,-16.5C118,-16.5 276,-16.5 276,-16.5 282,-16.5 288,-22.5 288,-28.5 288,-28.5 288,-99.5 288,-99.5 288,-105.5 282,-111.5 276,-111.5 276,-111.5 118,-111.5 118,-111.5 112,-111.5 106,-105.5 106,-99.5 106,-99.5 106,-28.5 106,-28.5 106,-22.5 112,-16.5 118,-16.5"/>
<text text-anchor="middle" x="197" y="-96.3" font-family="Times,serif" font-size="14.00">wordpress_container: Docker</text>
<polyline fill="none" stroke="black" points="106,-88.5 288,-88.5 "/>
</g>
<!-- wordpress_container_requirement_host -->
<g id="node7" class="node"><title>wordpress_container_requirement_host</title>
<polygon fill="turquoise" stroke="black" points="385.5,-49 343.5,-49 343.5,-25 385.5,-25 397.5,-37 385.5,-49"/>
<text text-anchor="middle" x="370.5" y="-33.3" font-family="Times,serif" font-size="14.00">host</text>
</g>
<!-- wordpress_container&#45;&#45;wordpress_container_requirement_host -->
<g id="edge5" class="edge"><title>wordpress_container&#45;&#45;wordpress_container_requirement_host</title>
<path fill="none" stroke="black" d="M288.019,-49.8279C308.237,-46.6449 328.137,-43.5119 343.21,-41.139"/>
</g>
<!-- wordpress_container_requirement_database_link -->
<g id="node8" class="node"><title>wordpress_container_requirement_database_link</title>
<polygon fill="turquoise" stroke="black" points="405,-103 324,-103 324,-79 405,-79 417,-91 405,-103"/>
<text text-anchor="middle" x="370.5" y="-87.3" font-family="Times,serif" font-size="14.00">database_link</text>
</g>
<!-- wordpress_container&#45;&#45;wordpress_container_requirement_database_link -->
<g id="edge6" class="edge"><title>wordpress_container&#45;&#45;wordpress_container_requirement_database_link</title>
<path fill="none" stroke="black" d="M288.019,-78.1721C300.473,-80.1328 312.807,-82.0746 323.966,-83.8314"/>
</g>
<!-- wordpress_container_capability_link -->
<g id="node6" class="node"><title>wordpress_container_capability_link</title>
<polygon fill="orange" stroke="black" points="58,-76 16,-76 16,-52 58,-52 70,-64 58,-76"/>
<text text-anchor="middle" x="43" y="-60.3" font-family="Times,serif" font-size="14.00">link</text>
</g>
<!-- wordpress_container_capability_link&#45;&#45;wordpress_container -->
<g id="edge4" class="edge"><title>wordpress_container_capability_link&#45;&#45;wordpress_container</title>
<path fill="none" stroke="black" d="M70.1297,-64C80.4003,-64 92.8464,-64 105.866,-64"/>
</g>
<!-- wordpress_container_requirement_database_link&#45;&#45;mysql_container_capability_link -->
<g id="edge7" class="edge"><title>wordpress_container_requirement_database_link&#45;&#45;mysql_container_capability_link</title>
<path fill="none" stroke="black" stroke-dasharray="1,5" d="M417.09,-91C429.336,-91 442.161,-91 452.941,-91"/>
</g>
</g>
</svg>
