<?xml version="1.0" encoding="UTF-8" standalone="no"?>
<!DOCTYPE svg PUBLIC "-//W3C//DTD SVG 1.1//EN"
 "http://www.w3.org/Graphics/SVG/1.1/DTD/svg11.dtd">
<!-- Generated by graphviz version 2.38.0 (20140413.2041)
 -->
<!-- Title: ToscaDiagram Pages: 1 -->
<svg width="725pt" height="256pt"
 viewBox="0.00 0.00 725.00 256.00" xmlns="http://www.w3.org/2000/svg" xmlns:xlink="http://www.w3.org/1999/xlink">
<g id="graph0" class="graph" transform="scale(1 1) rotate(0) translate(4 252)">
<title>ToscaDiagram</title>
<polygon fill="white" stroke="none" points="-4,4 -4,-252 721,-252 721,4 -4,4"/>
<g id="clust1" class="cluster"><title>clustermysql_container</title>
<polygon fill="none" stroke="white" points="355,-35 355,-147 709,-147 709,-35 355,-35"/>
</g>
<g id="clust2" class="cluster"><title>clusterwordpress_container</title>
<polygon fill="none" stroke="white" points="8,-8 8,-120 335,-120 335,-8 8,-8"/>
</g>
<g id="clust3" class="cluster"><title>clusternode_filter_0</title>
<polygon fill="none" stroke="white" points="63,-128 63,-240 151,-240 151,-128 63,-128"/>
</g>
<!-- mysql_container -->
<g id="node1" class="node"><title>mysql_container</title>
<path fill="none" stroke="black" d="M465,-43.5C465,-43.5 599,-43.5 599,-43.5 605,-43.5 611,-49.5 611,-55.5 611,-55.5 611,-126.5 611,-126.5 611,-132.5 605,-138.5 599,-138.5 599,-138.5 465,-138.5 465,-138.5 459,-138.5 453,-132.5 453,-126.5 453,-126.5 453,-55.5 453,-55.5 453,-49.5 459,-43.5 465,-43.5"/>
<text text-anchor="middle" x="532" y="-123.3" font-family="Times,serif" font-size="14.00">mysql_container: Docker</text>
<polyline fill="none" stroke="black" points="453,-115.5 611,-115.5 "/>
</g>
<!-- mysql_container_requirement_host -->
<g id="node3" class="node"><title>mysql_container_requirement_host</title>
<polygon fill="turquoise" stroke="black" points="689,-103 647,-103 647,-79 689,-79 701,-91 689,-103"/>
<text text-anchor="middle" x="674" y="-87.3" font-family="Times,serif" font-size="14.00">host</text>
</g>
<!-- mysql_container&#45;&#45;mysql_container_requirement_host -->
<g id="edge2" class="edge"><title>mysql_container&#45;&#45;mysql_container_requirement_host</title>
<path fill="none" stroke="black" d="M611.186,-91C624.089,-91 636.616,-91 646.98,-91"/>
</g>
<!-- mysql_container_capability_link -->
<g id="node2" class="node"><title>mysql_container_capability_link</title>
<polygon fill="orange" stroke="black" points="405,-103 363,-103 363,-79 405,-79 417,-91 405,-103"/>
<text text-anchor="middle" x="390" y="-87.3" font-family="Times,serif" font-size="14.00">link</text>
</g>
<!-- mysql_container_capability_link&#45;&#45;mysql_container -->
<g id="edge1" class="edge"><title>mysql_container_capability_link&#45;&#45;mysql_container</title>
<path fill="none" stroke="black" d="M417.005,-91C427.364,-91 439.884,-91 452.783,-91"/>
</g>
<!-- wordpress_container -->
<g id="node4" class="node"><title>wordpress_container</title>
<path fill="none" stroke="black" d="M28,-16.5C28,-16.5 186,-16.5 186,-16.5 192,-16.5 198,-22.5 198,-28.5 198,-28.5 198,-99.5 198,-99.5 198,-105.5 192,-111.5 186,-111.5 186,-111.5 28,-111.5 28,-111.5 22,-111.5 16,-105.5 16,-99.5 16,-99.5 16,-28.5 16,-28.5 16,-22.5 22,-16.5 28,-16.5"/>
<text text-anchor="middle" x="107" y="-96.3" font-family="Times,serif" font-size="14.00">wordpress_container: Docker</text>
<polyline fill="none" stroke="black" points="16,-88.5 198,-88.5 "/>
</g>
<!-- wordpress_container_requirement_host -->
<g id="node5" class="node"><title>wordpress_container_requirement_host</title>
<polygon fill="turquoise" stroke="black" points="295.5,-49 253.5,-49 253.5,-25 295.5,-25 307.5,-37 295.5,-49"/>
<text text-anchor="middle" x="280.5" y="-33.3" font-family="Times,serif" font-size="14.00">host</text>
</g>
<!-- wordpress_container&#45;&#45;wordpress_container_requirement_host -->
<g id="edge3" class="edge"><title>wordpress_container&#45;&#45;wordpress_container_requirement_host</title>
<path fill="none" stroke="black" d="M198.019,-49.8279C218.237,-46.6449 238.137,-43.5119 253.21,-41.139"/>
</g>
<!-- wordpress_container_requirement_database_link -->
<g id="node6" class="node"><title>wordpress_container_requirement_database_link</title>
<polygon fill="turquoise" stroke="black" points="315,-103 234,-103 234,-79 315,-79 327,-91 315,-103"/>
<text text-anchor="middle" x="280.5" y="-87.3" font-family="Times,serif" font-size="14.00">database_link</text>
</g>
<!-- wordpress_container&#45;&#45;wordpress_container_requirement_database_link -->
<g id="edge4" class="edge"><title>wordpress_container&#45;&#45;wordpress_container_requirement_database_link</title>
<path fill="none" stroke="black" d="M198.019,-78.1721C210.473,-80.1328 222.807,-82.0746 233.966,-83.8314"/>
</g>
<!-- wordpress_container_requirement_database_link&#45;&#45;mysql_container_capability_link -->
<g id="edge5" class="edge"><title>wordpress_container_requirement_database_link&#45;&#45;mysql_container_capability_link</title>
<path fill="none" stroke="black" stroke-dasharray="1,5" d="M327.09,-91C339.336,-91 352.161,-91 362.941,-91"/>
</g>
<!-- node_filter_0 -->
<g id="node7" class="node"><title>node_filter_0</title>
<path fill="lightgrey" stroke="black" d="M83,-136.5C83,-136.5 131,-136.5 131,-136.5 137,-136.5 143,-142.5 143,-148.5 143,-148.5 143,-219.5 143,-219.5 143,-225.5 137,-231.5 131,-231.5 131,-231.5 83,-231.5 83,-231.5 77,-231.5 71,-225.5 71,-219.5 71,-219.5 71,-148.5 71,-148.5 71,-142.5 77,-136.5 83,-136.5"/>
<text text-anchor="middle" x="107" y="-216.3" font-family="Times,serif" font-size="14.00">: Runtime</text>
<polyline fill="none" stroke="black" points="71,-208.5 143,-208.5 "/>
</g>
</g>
</svg>
