<?xml version="1.0" encoding="UTF-8" standalone="no"?>
<!DOCTYPE svg PUBLIC "-//W3C//DTD SVG 1.1//EN"
 "http://www.w3.org/Graphics/SVG/1.1/DTD/svg11.dtd">
<!-- Generated by graphviz version 2.38.0 (20140413.2041)
 -->
<!-- Title: ToscaDiagram Pages: 1 -->
<svg width="326pt" height="136pt"
 viewBox="0.00 0.00 326.00 136.00" xmlns="http://www.w3.org/2000/svg" xmlns:xlink="http://www.w3.org/1999/xlink">
<g id="graph0" class="graph" transform="scale(1 1) rotate(0) translate(4 132)">
<title>ToscaDiagram</title>
<polygon fill="white" stroke="none" points="-4,4 -4,-132 322,-132 322,4 -4,4"/>
<g id="clust1" class="cluster"><title>clusterhello_world</title>
<polygon fill="none" stroke="white" points="8,-8 8,-120 310,-120 310,-8 8,-8"/>
</g>
<!-- hello_world -->
<g id="node1" class="node"><title>hello_world</title>
<path fill="none" stroke="black" d="M157,-16.5C157,-16.5 290,-16.5 290,-16.5 296,-16.5 302,-22.5 302,-28.5 302,-28.5 302,-99.5 302,-99.5 302,-105.5 296,-111.5 290,-111.5 290,-111.5 157,-111.5 157,-111.5 151,-111.5 145,-105.5 145,-99.5 145,-99.5 145,-28.5 145,-28.5 145,-22.5 151,-16.5 157,-16.5"/>
<text text-anchor="middle" x="223.5" y="-96.3" font-family="Times,serif" font-size="14.00">hello_world: HelloWorld</text>
<polyline fill="none" stroke="black" points="145,-88.5 302,-88.5 "/>
</g>
<!-- hello_world_capability_app_endpoint -->
<g id="node2" class="node"><title>hello_world_capability_app_endpoint</title>
<polygon fill="orange" stroke="black" points="97,-76 16,-76 16,-52 97,-52 109,-64 97,-76"/>
<text text-anchor="middle" x="62.5" y="-60.3" font-family="Times,serif" font-size="14.00">app_endpoint</text>
</g>
<!-- hello_world_capability_app_endpoint&#45;&#45;hello_world -->
<g id="edge1" class="edge"><title>hello_world_capability_app_endpoint&#45;&#45;hello_world</title>
<path fill="none" stroke="black" d="M109.063,-64C120.258,-64 132.559,-64 144.803,-64"/>
</g>
</g>
</svg>
