<?xml version="1.0" encoding="UTF-8" standalone="no"?>
<!DOCTYPE svg PUBLIC "-//W3C//DTD SVG 1.1//EN"
 "http://www.w3.org/Graphics/SVG/1.1/DTD/svg11.dtd">
<!-- Generated by graphviz version 2.38.0 (20140413.2041)
 -->
<!-- Title: ToscaDiagram Pages: 1 -->
<svg width="2345pt" height="964pt"
 viewBox="0.00 0.00 2345.00 964.00" xmlns="http://www.w3.org/2000/svg" xmlns:xlink="http://www.w3.org/1999/xlink">
<g id="graph0" class="graph" transform="scale(1 1) rotate(0) translate(4 960)">
<title>ToscaDiagram</title>
<polygon fill="white" stroke="none" points="-4,4 -4,-960 2341,-960 2341,4 -4,4"/>
<g id="clust1" class="cluster"><title>clusterpaypal_pizzastore</title>
<polygon fill="none" stroke="white" points="8,-737 8,-849 544,-849 544,-737 8,-737"/>
</g>
<g id="clust2" class="cluster"><title>clusternodejs</title>
<polygon fill="none" stroke="white" points="570,-787 570,-947 997.5,-947 997.5,-787 570,-787"/>
</g>
<g id="clust3" class="cluster"><title>clustermongo_db</title>
<polygon fill="none" stroke="white" points="564,-349 564,-461 997.5,-461 997.5,-349 564,-349"/>
</g>
<g id="clust4" class="cluster"><title>clustermongo_dbms</title>
<polygon fill="none" stroke="white" points="1053.5,-179 1053.5,-291 1421.5,-291 1421.5,-179 1053.5,-179"/>
</g>
<g id="clust5" class="cluster"><title>clusterelasticsearch</title>
<polygon fill="none" stroke="white" points="1473.5,-560 1473.5,-672 1860,-672 1860,-560 1473.5,-560"/>
</g>
<g id="clust6" class="cluster"><title>clusterlogstash</title>
<polygon fill="none" stroke="white" points="1053.5,-557 1053.5,-669 1448,-669 1448,-557 1053.5,-557"/>
</g>
<g id="clust7" class="cluster"><title>clusterkibana</title>
<polygon fill="none" stroke="white" points="1053.5,-413 1053.5,-525 1448,-525 1448,-413 1053.5,-413"/>
</g>
<g id="clust8" class="cluster"><title>clusterapp_collectd</title>
<polygon fill="none" stroke="white" points="719,-667 719,-779 1028,-779 1028,-667 719,-667"/>
</g>
<g id="clust9" class="cluster"><title>clusterapp_rsyslog</title>
<polygon fill="none" stroke="white" points="721.5,-547 721.5,-659 1026.5,-659 1026.5,-547 721.5,-547"/>
</g>
<g id="clust10" class="cluster"><title>clusterapp_server</title>
<polygon fill="none" stroke="white" points="1048,-677 1048,-945 1439.5,-945 1439.5,-677 1048,-677"/>
</g>
<g id="clust11" class="cluster"><title>clustermongo_server</title>
<polygon fill="none" stroke="white" points="1468,-8 1468,-276 1878,-276 1878,-8 1468,-8"/>
</g>
<g id="clust12" class="cluster"><title>clusterelasticsearch_server</title>
<polygon fill="none" stroke="white" points="1898,-374 1898,-642 2329,-642 2329,-374 1898,-374"/>
</g>
<g id="clust13" class="cluster"><title>clusterlogstash_server</title>
<polygon fill="none" stroke="white" points="1468,-680 1468,-948 1878,-948 1878,-680 1468,-680"/>
</g>
<g id="clust14" class="cluster"><title>clusterkibana_server</title>
<polygon fill="none" stroke="white" points="1468,-284 1468,-552 1878,-552 1878,-284 1468,-284"/>
</g>
<!-- paypal_pizzastore -->
<g id="node1" class="node"><title>paypal_pizzastore</title>
<path fill="none" stroke="black" d="M157,-745.5C157,-745.5 357,-745.5 357,-745.5 363,-745.5 369,-751.5 369,-757.5 369,-757.5 369,-828.5 369,-828.5 369,-834.5 363,-840.5 357,-840.5 357,-840.5 157,-840.5 157,-840.5 151,-840.5 145,-834.5 145,-828.5 145,-828.5 145,-757.5 145,-757.5 145,-751.5 151,-745.5 157,-745.5"/>
<text text-anchor="middle" x="257" y="-825.3" font-family="Times,serif" font-size="14.00">paypal_pizzastore: PayPalPizzaStore</text>
<polyline fill="none" stroke="black" points="145,-817.5 369,-817.5 "/>
</g>
<!-- paypal_pizzastore_requirement_host -->
<g id="node3" class="node"><title>paypal_pizzastore_requirement_host</title>
<polygon fill="turquoise" stroke="black" points="485.5,-833 443.5,-833 443.5,-809 485.5,-809 497.5,-821 485.5,-833"/>
<text text-anchor="middle" x="470.5" y="-817.3" font-family="Times,serif" font-size="14.00">host</text>
</g>
<!-- paypal_pizzastore&#45;&#45;paypal_pizzastore_requirement_host -->
<g id="edge2" class="edge"><title>paypal_pizzastore&#45;&#45;paypal_pizzastore_requirement_host</title>
<path fill="none" stroke="black" d="M369.015,-807.697C396.741,-811.368 423.982,-814.974 443.092,-817.504"/>
</g>
<!-- paypal_pizzastore_requirement_database_connection -->
<g id="node4" class="node"><title>paypal_pizzastore_requirement_database_connection</title>
<polygon fill="turquoise" stroke="black" points="524,-778 405,-778 405,-754 524,-754 536,-766 524,-778"/>
<text text-anchor="middle" x="470.5" y="-762.3" font-family="Times,serif" font-size="14.00">database_connection</text>
</g>
<!-- paypal_pizzastore&#45;&#45;paypal_pizzastore_requirement_database_connection -->
<g id="edge3" class="edge"><title>paypal_pizzastore&#45;&#45;paypal_pizzastore_requirement_database_connection</title>
<path fill="none" stroke="black" d="M369.015,-778.828C381.282,-777.262 393.454,-775.708 404.87,-774.251"/>
</g>
<!-- paypal_pizzastore_capability_app_endpoint -->
<g id="node2" class="node"><title>paypal_pizzastore_capability_app_endpoint</title>
<polygon fill="orange" stroke="black" points="97,-805 16,-805 16,-781 97,-781 109,-793 97,-805"/>
<text text-anchor="middle" x="62.5" y="-789.3" font-family="Times,serif" font-size="14.00">app_endpoint</text>
</g>
<!-- paypal_pizzastore_capability_app_endpoint&#45;&#45;paypal_pizzastore -->
<g id="edge1" class="edge"><title>paypal_pizzastore_capability_app_endpoint&#45;&#45;paypal_pizzastore</title>
<path fill="none" stroke="black" d="M109.12,-793C120.127,-793 132.369,-793 144.956,-793"/>
</g>
<!-- nodejs_capability_host -->
<g id="node8" class="node"><title>nodejs_capability_host</title>
<polygon fill="orange" stroke="black" points="646.5,-933 604.5,-933 604.5,-909 646.5,-909 658.5,-921 646.5,-933"/>
<text text-anchor="middle" x="631.5" y="-917.3" font-family="Times,serif" font-size="14.00">host</text>
</g>
<!-- paypal_pizzastore_requirement_host&#45;&#45;nodejs_capability_host -->
<g id="edge55" class="edge"><title>paypal_pizzastore_requirement_host&#45;&#45;nodejs_capability_host</title>
<path fill="none" stroke="black" stroke-dasharray="1,5" d="M491.234,-839.299C509.189,-855.26 536.945,-878.261 564,-894 576.709,-901.394 591.831,-907.708 604.441,-912.367"/>
</g>
<!-- mongo_db_capability_feature -->
<g id="node11" class="node"><title>mongo_db_capability_feature</title>
<polygon fill="orange" stroke="black" points="647,-447 604,-447 604,-423 647,-423 659,-435 647,-447"/>
<text text-anchor="middle" x="631.5" y="-431.3" font-family="Times,serif" font-size="14.00">feature</text>
</g>
<!-- paypal_pizzastore_requirement_database_connection&#45;&#45;mongo_db_capability_feature -->
<g id="edge56" class="edge"><title>paypal_pizzastore_requirement_database_connection&#45;&#45;mongo_db_capability_feature</title>
<path fill="none" stroke="black" stroke-dasharray="1,5" d="M480.275,-747.733C508.074,-689.862 593.991,-511.003 621.752,-453.211"/>
</g>
<!-- nodejs -->
<g id="node5" class="node"><title>nodejs</title>
<path fill="none" stroke="black" d="M761,-818.5C761,-818.5 835,-818.5 835,-818.5 841,-818.5 847,-824.5 847,-830.5 847,-830.5 847,-901.5 847,-901.5 847,-907.5 841,-913.5 835,-913.5 835,-913.5 761,-913.5 761,-913.5 755,-913.5 749,-907.5 749,-901.5 749,-901.5 749,-830.5 749,-830.5 749,-824.5 755,-818.5 761,-818.5"/>
<text text-anchor="middle" x="798" y="-898.3" font-family="Times,serif" font-size="14.00">nodejs: Nodejs</text>
<polyline fill="none" stroke="black" points="749,-890.5 847,-890.5 "/>
</g>
<!-- nodejs_requirement_host -->
<g id="node9" class="node"><title>nodejs_requirement_host</title>
<polygon fill="turquoise" stroke="black" points="977.5,-877 935.5,-877 935.5,-853 977.5,-853 989.5,-865 977.5,-877"/>
<text text-anchor="middle" x="962.5" y="-861.3" font-family="Times,serif" font-size="14.00">host</text>
</g>
<!-- nodejs&#45;&#45;nodejs_requirement_host -->
<g id="edge7" class="edge"><title>nodejs&#45;&#45;nodejs_requirement_host</title>
<path fill="none" stroke="black" d="M847.315,-865.703C876.131,-865.525 911.598,-865.307 935.287,-865.161"/>
</g>
<!-- nodejs_capability_data_endpoint -->
<g id="node6" class="node"><title>nodejs_capability_data_endpoint</title>
<polygon fill="orange" stroke="black" points="667,-879 584,-879 584,-855 667,-855 679,-867 667,-879"/>
<text text-anchor="middle" x="631.5" y="-863.3" font-family="Times,serif" font-size="14.00">data_endpoint</text>
</g>
<!-- nodejs_capability_data_endpoint&#45;&#45;nodejs -->
<g id="edge4" class="edge"><title>nodejs_capability_data_endpoint&#45;&#45;nodejs</title>
<path fill="none" stroke="black" d="M679.199,-866.716C700.951,-866.584 726.811,-866.427 748.753,-866.293"/>
</g>
<!-- nodejs_capability_admin_endpoint -->
<g id="node7" class="node"><title>nodejs_capability_admin_endpoint</title>
<polygon fill="orange" stroke="black" points="673,-825 578,-825 578,-801 673,-801 685,-813 673,-825"/>
<text text-anchor="middle" x="631.5" y="-809.3" font-family="Times,serif" font-size="14.00">admin_endpoint</text>
</g>
<!-- nodejs_capability_admin_endpoint&#45;&#45;nodejs -->
<g id="edge5" class="edge"><title>nodejs_capability_admin_endpoint&#45;&#45;nodejs</title>
<path fill="none" stroke="black" d="M685.001,-829.915C705.499,-836.519 728.846,-844.042 748.9,-850.503"/>
</g>
<!-- nodejs_capability_host&#45;&#45;nodejs -->
<g id="edge6" class="edge"><title>nodejs_capability_host&#45;&#45;nodejs</title>
<path fill="none" stroke="black" d="M658.566,-912.285C682.754,-904.198 719.362,-891.958 748.857,-882.096"/>
</g>
<!-- app_server_capability_host -->
<g id="node35" class="node"><title>app_server_capability_host</title>
<polygon fill="orange" stroke="black" points="1103.5,-877 1061.5,-877 1061.5,-853 1103.5,-853 1115.5,-865 1103.5,-877"/>
<text text-anchor="middle" x="1088.5" y="-861.3" font-family="Times,serif" font-size="14.00">host</text>
</g>
<!-- nodejs_requirement_host&#45;&#45;app_server_capability_host -->
<g id="edge57" class="edge"><title>nodejs_requirement_host&#45;&#45;app_server_capability_host</title>
<path fill="none" stroke="black" stroke-dasharray="1,5" d="M989.797,-865C1010.84,-865 1040.21,-865 1061.24,-865"/>
</g>
<!-- mongo_db -->
<g id="node10" class="node"><title>mongo_db</title>
<path fill="none" stroke="black" d="M742.5,-357.5C742.5,-357.5 853.5,-357.5 853.5,-357.5 859.5,-357.5 865.5,-363.5 865.5,-369.5 865.5,-369.5 865.5,-440.5 865.5,-440.5 865.5,-446.5 859.5,-452.5 853.5,-452.5 853.5,-452.5 742.5,-452.5 742.5,-452.5 736.5,-452.5 730.5,-446.5 730.5,-440.5 730.5,-440.5 730.5,-369.5 730.5,-369.5 730.5,-363.5 736.5,-357.5 742.5,-357.5"/>
<text text-anchor="middle" x="798" y="-437.3" font-family="Times,serif" font-size="14.00">mongo_db: Database</text>
<polyline fill="none" stroke="black" points="730.5,-429.5 865.5,-429.5 "/>
</g>
<!-- mongo_db_requirement_host -->
<g id="node13" class="node"><title>mongo_db_requirement_host</title>
<polygon fill="turquoise" stroke="black" points="977.5,-402 935.5,-402 935.5,-378 977.5,-378 989.5,-390 977.5,-402"/>
<text text-anchor="middle" x="962.5" y="-386.3" font-family="Times,serif" font-size="14.00">host</text>
</g>
<!-- mongo_db&#45;&#45;mongo_db_requirement_host -->
<g id="edge10" class="edge"><title>mongo_db&#45;&#45;mongo_db_requirement_host</title>
<path fill="none" stroke="black" d="M865.564,-398.856C890.106,-396.59 916.497,-394.154 935.375,-392.412"/>
</g>
<!-- mongo_db_capability_feature&#45;&#45;mongo_db -->
<g id="edge8" class="edge"><title>mongo_db_capability_feature&#45;&#45;mongo_db</title>
<path fill="none" stroke="black" d="M659.296,-430.113C678.597,-426.593 705.523,-421.683 730.451,-417.137"/>
</g>
<!-- mongo_db_capability_database_endpoint -->
<g id="node12" class="node"><title>mongo_db_capability_database_endpoint</title>
<polygon fill="orange" stroke="black" points="679,-393 572,-393 572,-369 679,-369 691,-381 679,-393"/>
<text text-anchor="middle" x="631.5" y="-377.3" font-family="Times,serif" font-size="14.00">database_endpoint</text>
</g>
<!-- mongo_db_capability_database_endpoint&#45;&#45;mongo_db -->
<g id="edge9" class="edge"><title>mongo_db_capability_database_endpoint&#45;&#45;mongo_db</title>
<path fill="none" stroke="black" d="M691.424,-389.597C704.054,-391.439 717.484,-393.399 730.381,-395.281"/>
</g>
<!-- mongo_dbms_capability_host -->
<g id="node15" class="node"><title>mongo_dbms_capability_host</title>
<polygon fill="orange" stroke="black" points="1103.5,-262 1061.5,-262 1061.5,-238 1103.5,-238 1115.5,-250 1103.5,-262"/>
<text text-anchor="middle" x="1088.5" y="-246.3" font-family="Times,serif" font-size="14.00">host</text>
</g>
<!-- mongo_db_requirement_host&#45;&#45;mongo_dbms_capability_host -->
<g id="edge58" class="edge"><title>mongo_db_requirement_host&#45;&#45;mongo_dbms_capability_host</title>
<path fill="none" stroke="black" stroke-dasharray="1,5" d="M979.457,-371.984C1003.14,-345.25 1047.34,-295.341 1071.21,-268.391"/>
</g>
<!-- mongo_dbms -->
<g id="node14" class="node"><title>mongo_dbms</title>
<path fill="none" stroke="black" d="M1169,-187.5C1169,-187.5 1285,-187.5 1285,-187.5 1291,-187.5 1297,-193.5 1297,-199.5 1297,-199.5 1297,-270.5 1297,-270.5 1297,-276.5 1291,-282.5 1285,-282.5 1285,-282.5 1169,-282.5 1169,-282.5 1163,-282.5 1157,-276.5 1157,-270.5 1157,-270.5 1157,-199.5 1157,-199.5 1157,-193.5 1163,-187.5 1169,-187.5"/>
<text text-anchor="middle" x="1227" y="-267.3" font-family="Times,serif" font-size="14.00">mongo_dbms: DBMS</text>
<polyline fill="none" stroke="black" points="1157,-259.5 1297,-259.5 "/>
</g>
<!-- mongo_dbms_requirement_host -->
<g id="node16" class="node"><title>mongo_dbms_requirement_host</title>
<polygon fill="turquoise" stroke="black" points="1401.5,-232 1359.5,-232 1359.5,-208 1401.5,-208 1413.5,-220 1401.5,-232"/>
<text text-anchor="middle" x="1386.5" y="-216.3" font-family="Times,serif" font-size="14.00">host</text>
</g>
<!-- mongo_dbms&#45;&#45;mongo_dbms_requirement_host -->
<g id="edge12" class="edge"><title>mongo_dbms&#45;&#45;mongo_dbms_requirement_host</title>
<path fill="none" stroke="black" d="M1297.08,-228.421C1319.23,-226.311 1342.42,-224.103 1359.49,-222.477"/>
</g>
<!-- mongo_dbms_capability_host&#45;&#45;mongo_dbms -->
<g id="edge11" class="edge"><title>mongo_dbms_capability_host&#45;&#45;mongo_dbms</title>
<path fill="none" stroke="black" d="M1115.82,-247.108C1127.67,-245.805 1142.28,-244.2 1156.94,-242.589"/>
</g>
<!-- mongo_server_capability_host -->
<g id="node42" class="node"><title>mongo_server_capability_host</title>
<polygon fill="orange" stroke="black" points="1523.5,-154 1481.5,-154 1481.5,-130 1523.5,-130 1535.5,-142 1523.5,-154"/>
<text text-anchor="middle" x="1508.5" y="-138.3" font-family="Times,serif" font-size="14.00">host</text>
</g>
<!-- mongo_dbms_requirement_host&#45;&#45;mongo_server_capability_host -->
<g id="edge59" class="edge"><title>mongo_dbms_requirement_host&#45;&#45;mongo_server_capability_host</title>
<path fill="none" stroke="black" stroke-dasharray="1,5" d="M1413.54,-203.075C1433.53,-190.082 1461.02,-172.213 1481.1,-159.161"/>
</g>
<!-- elasticsearch -->
<g id="node17" class="node"><title>elasticsearch</title>
<path fill="none" stroke="black" d="M1589,-568.5C1589,-568.5 1732,-568.5 1732,-568.5 1738,-568.5 1744,-574.5 1744,-580.5 1744,-580.5 1744,-651.5 1744,-651.5 1744,-657.5 1738,-663.5 1732,-663.5 1732,-663.5 1589,-663.5 1589,-663.5 1583,-663.5 1577,-657.5 1577,-651.5 1577,-651.5 1577,-580.5 1577,-580.5 1577,-574.5 1583,-568.5 1589,-568.5"/>
<text text-anchor="middle" x="1660.5" y="-648.3" font-family="Times,serif" font-size="14.00">elasticsearch: Elasticsearch</text>
<polyline fill="none" stroke="black" points="1577,-640.5 1744,-640.5 "/>
</g>
<!-- elasticsearch_requirement_host -->
<g id="node19" class="node"><title>elasticsearch_requirement_host</title>
<polygon fill="turquoise" stroke="black" points="1840,-628 1798,-628 1798,-604 1840,-604 1852,-616 1840,-628"/>
<text text-anchor="middle" x="1825" y="-612.3" font-family="Times,serif" font-size="14.00">host</text>
</g>
<!-- elasticsearch&#45;&#45;elasticsearch_requirement_host -->
<g id="edge14" class="edge"><title>elasticsearch&#45;&#45;elasticsearch_requirement_host</title>
<path fill="none" stroke="black" d="M1744.18,-616C1763.62,-616 1782.96,-616 1797.73,-616"/>
</g>
<!-- elasticsearch_capability_app -->
<g id="node18" class="node"><title>elasticsearch_capability_app</title>
<polygon fill="orange" stroke="black" points="1523.5,-601 1481.5,-601 1481.5,-577 1523.5,-577 1535.5,-589 1523.5,-601"/>
<text text-anchor="middle" x="1508.5" y="-585.3" font-family="Times,serif" font-size="14.00">app</text>
</g>
<!-- elasticsearch_capability_app&#45;&#45;elasticsearch -->
<g id="edge13" class="edge"><title>elasticsearch_capability_app&#45;&#45;elasticsearch</title>
<path fill="none" stroke="black" d="M1535.63,-593.703C1547.38,-595.818 1561.97,-598.444 1576.96,-601.142"/>
</g>
<!-- elasticsearch_server_capability_host -->
<g id="node49" class="node"><title>elasticsearch_server_capability_host</title>
<polygon fill="orange" stroke="black" points="1953.5,-628 1911.5,-628 1911.5,-604 1953.5,-604 1965.5,-616 1953.5,-628"/>
<text text-anchor="middle" x="1938.5" y="-612.3" font-family="Times,serif" font-size="14.00">host</text>
</g>
<!-- elasticsearch_requirement_host&#45;&#45;elasticsearch_server_capability_host -->
<g id="edge60" class="edge"><title>elasticsearch_requirement_host&#45;&#45;elasticsearch_server_capability_host</title>
<path fill="none" stroke="black" stroke-dasharray="1,5" d="M1852.14,-616C1869.91,-616 1893.32,-616 1911.14,-616"/>
</g>
<!-- logstash -->
<g id="node20" class="node"><title>logstash</title>
<path fill="none" stroke="black" d="M1180,-565.5C1180,-565.5 1274,-565.5 1274,-565.5 1280,-565.5 1286,-571.5 1286,-577.5 1286,-577.5 1286,-648.5 1286,-648.5 1286,-654.5 1280,-660.5 1274,-660.5 1274,-660.5 1180,-660.5 1180,-660.5 1174,-660.5 1168,-654.5 1168,-648.5 1168,-648.5 1168,-577.5 1168,-577.5 1168,-571.5 1174,-565.5 1180,-565.5"/>
<text text-anchor="middle" x="1227" y="-645.3" font-family="Times,serif" font-size="14.00">logstash: Logstash</text>
<polyline fill="none" stroke="black" points="1168,-637.5 1286,-637.5 "/>
</g>
<!-- logstash_requirement_host -->
<g id="node22" class="node"><title>logstash_requirement_host</title>
<polygon fill="turquoise" stroke="black" points="1401.5,-655 1359.5,-655 1359.5,-631 1401.5,-631 1413.5,-643 1401.5,-655"/>
<text text-anchor="middle" x="1386.5" y="-639.3" font-family="Times,serif" font-size="14.00">host</text>
</g>
<!-- logstash&#45;&#45;logstash_requirement_host -->
<g id="edge16" class="edge"><title>logstash&#45;&#45;logstash_requirement_host</title>
<path fill="none" stroke="black" d="M1286.2,-624.086C1311.26,-628.859 1339.31,-634.202 1359.19,-637.988"/>
</g>
<!-- logstash_requirement_search_endpoint -->
<g id="node23" class="node"><title>logstash_requirement_search_endpoint</title>
<polygon fill="turquoise" stroke="black" points="1428,-601 1333,-601 1333,-577 1428,-577 1440,-589 1428,-601"/>
<text text-anchor="middle" x="1386.5" y="-585.3" font-family="Times,serif" font-size="14.00">search_endpoint</text>
</g>
<!-- logstash&#45;&#45;logstash_requirement_search_endpoint -->
<g id="edge17" class="edge"><title>logstash&#45;&#45;logstash_requirement_search_endpoint</title>
<path fill="none" stroke="black" d="M1286.2,-604.131C1301.45,-601.808 1317.8,-599.316 1332.75,-597.039"/>
</g>
<!-- logstash_capability_app -->
<g id="node21" class="node"><title>logstash_capability_app</title>
<polygon fill="orange" stroke="black" points="1103.5,-625 1061.5,-625 1061.5,-601 1103.5,-601 1115.5,-613 1103.5,-625"/>
<text text-anchor="middle" x="1088.5" y="-609.3" font-family="Times,serif" font-size="14.00">app</text>
</g>
<!-- logstash_capability_app&#45;&#45;logstash -->
<g id="edge15" class="edge"><title>logstash_capability_app&#45;&#45;logstash</title>
<path fill="none" stroke="black" d="M1115.82,-613C1130.62,-613 1149.71,-613 1167.83,-613"/>
</g>
<!-- logstash_server_capability_host -->
<g id="node56" class="node"><title>logstash_server_capability_host</title>
<polygon fill="orange" stroke="black" points="1523.5,-826 1481.5,-826 1481.5,-802 1523.5,-802 1535.5,-814 1523.5,-826"/>
<text text-anchor="middle" x="1508.5" y="-810.3" font-family="Times,serif" font-size="14.00">host</text>
</g>
<!-- logstash_requirement_host&#45;&#45;logstash_server_capability_host -->
<g id="edge61" class="edge"><title>logstash_requirement_host&#45;&#45;logstash_server_capability_host</title>
<path fill="none" stroke="black" stroke-dasharray="1,5" d="M1413.76,-649.98C1425.98,-654.559 1439.65,-661.827 1448,-673 1478.81,-714.197 1440.14,-743.76 1468,-787 1471.42,-792.307 1476.29,-796.842 1481.45,-800.597"/>
</g>
<!-- logstash_requirement_search_endpoint&#45;&#45;elasticsearch_capability_app -->
<g id="edge62" class="edge"><title>logstash_requirement_search_endpoint&#45;&#45;elasticsearch_capability_app</title>
<path fill="none" stroke="black" stroke-dasharray="1,5" d="M1440.13,-589C1454.37,-589 1469.16,-589 1481.25,-589"/>
</g>
<!-- kibana -->
<g id="node24" class="node"><title>kibana</title>
<path fill="none" stroke="black" d="M1188.5,-421.5C1188.5,-421.5 1265.5,-421.5 1265.5,-421.5 1271.5,-421.5 1277.5,-427.5 1277.5,-433.5 1277.5,-433.5 1277.5,-504.5 1277.5,-504.5 1277.5,-510.5 1271.5,-516.5 1265.5,-516.5 1265.5,-516.5 1188.5,-516.5 1188.5,-516.5 1182.5,-516.5 1176.5,-510.5 1176.5,-504.5 1176.5,-504.5 1176.5,-433.5 1176.5,-433.5 1176.5,-427.5 1182.5,-421.5 1188.5,-421.5"/>
<text text-anchor="middle" x="1227" y="-501.3" font-family="Times,serif" font-size="14.00">kibana: Kibana</text>
<polyline fill="none" stroke="black" points="1176.5,-493.5 1277.5,-493.5 "/>
</g>
<!-- kibana_requirement_host -->
<g id="node26" class="node"><title>kibana_requirement_host</title>
<polygon fill="turquoise" stroke="black" points="1401.5,-454 1359.5,-454 1359.5,-430 1401.5,-430 1413.5,-442 1401.5,-454"/>
<text text-anchor="middle" x="1386.5" y="-438.3" font-family="Times,serif" font-size="14.00">host</text>
</g>
<!-- kibana&#45;&#45;kibana_requirement_host -->
<g id="edge19" class="edge"><title>kibana&#45;&#45;kibana_requirement_host</title>
<path fill="none" stroke="black" d="M1277.83,-460.457C1304.87,-455.822 1337.19,-450.282 1359.32,-446.489"/>
</g>
<!-- kibana_requirement_search_endpoint -->
<g id="node27" class="node"><title>kibana_requirement_search_endpoint</title>
<polygon fill="turquoise" stroke="black" points="1428,-509 1333,-509 1333,-485 1428,-485 1440,-497 1428,-509"/>
<text text-anchor="middle" x="1386.5" y="-493.3" font-family="Times,serif" font-size="14.00">search_endpoint</text>
</g>
<!-- kibana&#45;&#45;kibana_requirement_search_endpoint -->
<g id="edge20" class="edge"><title>kibana&#45;&#45;kibana_requirement_search_endpoint</title>
<path fill="none" stroke="black" d="M1277.83,-477.859C1295.32,-480.968 1315.01,-484.468 1332.73,-487.618"/>
</g>
<!-- kibana_capability_app -->
<g id="node25" class="node"><title>kibana_capability_app</title>
<polygon fill="orange" stroke="black" points="1103.5,-481 1061.5,-481 1061.5,-457 1103.5,-457 1115.5,-469 1103.5,-481"/>
<text text-anchor="middle" x="1088.5" y="-465.3" font-family="Times,serif" font-size="14.00">app</text>
</g>
<!-- kibana_capability_app&#45;&#45;kibana -->
<g id="edge18" class="edge"><title>kibana_capability_app&#45;&#45;kibana</title>
<path fill="none" stroke="black" d="M1115.82,-469C1132.94,-469 1155.81,-469 1176.27,-469"/>
</g>
<!-- kibana_server_capability_host -->
<g id="node63" class="node"><title>kibana_server_capability_host</title>
<polygon fill="orange" stroke="black" points="1523.5,-430 1481.5,-430 1481.5,-406 1523.5,-406 1535.5,-418 1523.5,-430"/>
<text text-anchor="middle" x="1508.5" y="-414.3" font-family="Times,serif" font-size="14.00">host</text>
</g>
<!-- kibana_requirement_host&#45;&#45;kibana_server_capability_host -->
<g id="edge63" class="edge"><title>kibana_requirement_host&#45;&#45;kibana_server_capability_host</title>
<path fill="none" stroke="black" stroke-dasharray="1,5" d="M1413.54,-436.792C1433.53,-432.794 1461.02,-427.296 1481.1,-423.28"/>
</g>
<!-- kibana_requirement_search_endpoint&#45;&#45;elasticsearch_capability_app -->
<g id="edge64" class="edge"><title>kibana_requirement_search_endpoint&#45;&#45;elasticsearch_capability_app</title>
<path fill="none" stroke="black" stroke-dasharray="1,5" d="M1411.21,-515.176C1432.25,-531.305 1462.82,-554.744 1483.84,-570.862"/>
</g>
<!-- app_collectd -->
<g id="node28" class="node"><title>app_collectd</title>
<path fill="none" stroke="black" d="M739,-675.5C739,-675.5 857,-675.5 857,-675.5 863,-675.5 869,-681.5 869,-687.5 869,-687.5 869,-758.5 869,-758.5 869,-764.5 863,-770.5 857,-770.5 857,-770.5 739,-770.5 739,-770.5 733,-770.5 727,-764.5 727,-758.5 727,-758.5 727,-687.5 727,-687.5 727,-681.5 733,-675.5 739,-675.5"/>
<text text-anchor="middle" x="798" y="-755.3" font-family="Times,serif" font-size="14.00">app_collectd: Collectd</text>
<polyline fill="none" stroke="black" points="727,-747.5 869,-747.5 "/>
</g>
<!-- app_collectd_requirement_host -->
<g id="node29" class="node"><title>app_collectd_requirement_host</title>
<polygon fill="turquoise" stroke="black" points="977.5,-763 935.5,-763 935.5,-739 977.5,-739 989.5,-751 977.5,-763"/>
<text text-anchor="middle" x="962.5" y="-747.3" font-family="Times,serif" font-size="14.00">host</text>
</g>
<!-- app_collectd&#45;&#45;app_collectd_requirement_host -->
<g id="edge21" class="edge"><title>app_collectd&#45;&#45;app_collectd_requirement_host</title>
<path fill="none" stroke="black" d="M869.33,-735.118C892.661,-739.138 917.216,-743.369 935.109,-746.453"/>
</g>
<!-- app_collectd_requirement_collectd_endpoint -->
<g id="node30" class="node"><title>app_collectd_requirement_collectd_endpoint</title>
<polygon fill="turquoise" stroke="black" points="1008,-708 905,-708 905,-684 1008,-684 1020,-696 1008,-708"/>
<text text-anchor="middle" x="962.5" y="-692.3" font-family="Times,serif" font-size="14.00">collectd_endpoint</text>
</g>
<!-- app_collectd&#45;&#45;app_collectd_requirement_collectd_endpoint -->
<g id="edge22" class="edge"><title>app_collectd&#45;&#45;app_collectd_requirement_collectd_endpoint</title>
<path fill="none" stroke="black" d="M869.33,-711.314C881.167,-709.348 893.319,-707.329 904.756,-705.428"/>
</g>
<!-- app_collectd_requirement_host&#45;&#45;app_server_capability_host -->
<g id="edge65" class="edge"><title>app_collectd_requirement_host&#45;&#45;app_server_capability_host</title>
<path fill="none" stroke="black" stroke-dasharray="1,5" d="M989.661,-758.779C1002.71,-763.83 1017.84,-771.631 1028,-783 1045.34,-802.391 1032.05,-817.452 1048,-838 1051.67,-842.725 1056.4,-846.928 1061.3,-850.528"/>
</g>
<!-- app_collectd_requirement_collectd_endpoint&#45;&#45;logstash_capability_app -->
<g id="edge66" class="edge"><title>app_collectd_requirement_collectd_endpoint&#45;&#45;logstash_capability_app</title>
<path fill="none" stroke="black" stroke-dasharray="1,5" d="M1002.51,-677.838C1011.11,-673.342 1020.03,-668.286 1028,-663 1042.28,-653.525 1057.03,-641.145 1068.28,-631.075"/>
</g>
<!-- app_rsyslog -->
<g id="node31" class="node"><title>app_rsyslog</title>
<path fill="none" stroke="black" d="M741.5,-555.5C741.5,-555.5 854.5,-555.5 854.5,-555.5 860.5,-555.5 866.5,-561.5 866.5,-567.5 866.5,-567.5 866.5,-638.5 866.5,-638.5 866.5,-644.5 860.5,-650.5 854.5,-650.5 854.5,-650.5 741.5,-650.5 741.5,-650.5 735.5,-650.5 729.5,-644.5 729.5,-638.5 729.5,-638.5 729.5,-567.5 729.5,-567.5 729.5,-561.5 735.5,-555.5 741.5,-555.5"/>
<text text-anchor="middle" x="798" y="-635.3" font-family="Times,serif" font-size="14.00">app_rsyslog: Rsyslog</text>
<polyline fill="none" stroke="black" points="729.5,-627.5 866.5,-627.5 "/>
</g>
<!-- app_rsyslog_requirement_host -->
<g id="node32" class="node"><title>app_rsyslog_requirement_host</title>
<polygon fill="turquoise" stroke="black" points="977.5,-645 935.5,-645 935.5,-621 977.5,-621 989.5,-633 977.5,-645"/>
<text text-anchor="middle" x="962.5" y="-629.3" font-family="Times,serif" font-size="14.00">host</text>
</g>
<!-- app_rsyslog&#45;&#45;app_rsyslog_requirement_host -->
<g id="edge23" class="edge"><title>app_rsyslog&#45;&#45;app_rsyslog_requirement_host</title>
<path fill="none" stroke="black" d="M866.503,-615.462C890.745,-619.937 916.668,-624.723 935.3,-628.163"/>
</g>
<!-- app_rsyslog_requirement_rsyslog_endpoint -->
<g id="node33" class="node"><title>app_rsyslog_requirement_rsyslog_endpoint</title>
<polygon fill="turquoise" stroke="black" points="1006.5,-591 906.5,-591 906.5,-567 1006.5,-567 1018.5,-579 1006.5,-591"/>
<text text-anchor="middle" x="962.5" y="-575.3" font-family="Times,serif" font-size="14.00">rsyslog_endpoint</text>
</g>
<!-- app_rsyslog&#45;&#45;app_rsyslog_requirement_rsyslog_endpoint -->
<g id="edge24" class="edge"><title>app_rsyslog&#45;&#45;app_rsyslog_requirement_rsyslog_endpoint</title>
<path fill="none" stroke="black" d="M866.503,-593.03C879.757,-591.073 893.515,-589.041 906.308,-587.151"/>
</g>
<!-- app_rsyslog_requirement_host&#45;&#45;app_server_capability_host -->
<g id="edge67" class="edge"><title>app_rsyslog_requirement_host&#45;&#45;app_server_capability_host</title>
<path fill="none" stroke="black" stroke-dasharray="1,5" d="M989.792,-638.69C1003.38,-643.031 1018.97,-650.477 1028,-663 1073.78,-726.503 1007.58,-770.956 1048,-838 1051.26,-843.407 1056.06,-847.983 1061.21,-851.745"/>
</g>
<!-- app_rsyslog_requirement_rsyslog_endpoint&#45;&#45;logstash_capability_app -->
<g id="edge68" class="edge"><title>app_rsyslog_requirement_rsyslog_endpoint&#45;&#45;logstash_capability_app</title>
<path fill="none" stroke="black" stroke-dasharray="1,5" d="M1018.61,-594.111C1033.49,-598.19 1048.9,-602.416 1061.36,-605.834"/>
</g>
<!-- app_server -->
<g id="node34" class="node"><title>app_server</title>
<path fill="none" stroke="black" d="M1169.5,-763.5C1169.5,-763.5 1284.5,-763.5 1284.5,-763.5 1290.5,-763.5 1296.5,-769.5 1296.5,-775.5 1296.5,-775.5 1296.5,-846.5 1296.5,-846.5 1296.5,-852.5 1290.5,-858.5 1284.5,-858.5 1284.5,-858.5 1169.5,-858.5 1169.5,-858.5 1163.5,-858.5 1157.5,-852.5 1157.5,-846.5 1157.5,-846.5 1157.5,-775.5 1157.5,-775.5 1157.5,-769.5 1163.5,-763.5 1169.5,-763.5"/>
<text text-anchor="middle" x="1227" y="-843.3" font-family="Times,serif" font-size="14.00">app_server: Compute</text>
<polyline fill="none" stroke="black" points="1157.5,-835.5 1296.5,-835.5 "/>
</g>
<!-- app_server_requirement_local_storage -->
<g id="node40" class="node"><title>app_server_requirement_local_storage</title>
<polygon fill="turquoise" stroke="black" points="1419.5,-823 1341.5,-823 1341.5,-799 1419.5,-799 1431.5,-811 1419.5,-823"/>
<text text-anchor="middle" x="1386.5" y="-807.3" font-family="Times,serif" font-size="14.00">local_storage</text>
</g>
<!-- app_server&#45;&#45;app_server_requirement_local_storage -->
<g id="edge30" class="edge"><title>app_server&#45;&#45;app_server_requirement_local_storage</title>
<path fill="none" stroke="black" d="M1296.62,-811C1311.71,-811 1327.3,-811 1341.13,-811"/>
</g>
<!-- app_server_capability_host&#45;&#45;app_server -->
<g id="edge25" class="edge"><title>app_server_capability_host&#45;&#45;app_server</title>
<path fill="none" stroke="black" d="M1115.82,-854.588C1127.75,-849.868 1142.47,-844.045 1157.23,-838.208"/>
</g>
<!-- app_server_capability_endpoint -->
<g id="node36" class="node"><title>app_server_capability_endpoint</title>
<polygon fill="orange" stroke="black" points="1109,-823 1056,-823 1056,-799 1109,-799 1121,-811 1109,-823"/>
<text text-anchor="middle" x="1088.5" y="-807.3" font-family="Times,serif" font-size="14.00">endpoint</text>
</g>
<!-- app_server_capability_endpoint&#45;&#45;app_server -->
<g id="edge26" class="edge"><title>app_server_capability_endpoint&#45;&#45;app_server</title>
<path fill="none" stroke="black" d="M1121.16,-811C1132.03,-811 1144.65,-811 1157.3,-811"/>
</g>
<!-- app_server_capability_os -->
<g id="node37" class="node"><title>app_server_capability_os</title>
<polygon fill="orange" stroke="black" points="1103.5,-769 1061.5,-769 1061.5,-745 1103.5,-745 1115.5,-757 1103.5,-769"/>
<text text-anchor="middle" x="1088.5" y="-753.3" font-family="Times,serif" font-size="14.00">os</text>
</g>
<!-- app_server_capability_os&#45;&#45;app_server -->
<g id="edge27" class="edge"><title>app_server_capability_os&#45;&#45;app_server</title>
<path fill="none" stroke="black" d="M1115.82,-767.412C1127.75,-772.132 1142.47,-777.955 1157.23,-783.792"/>
</g>
<!-- app_server_capability_scalable -->
<g id="node38" class="node"><title>app_server_capability_scalable</title>
<polygon fill="orange" stroke="black" points="1107,-715 1058,-715 1058,-691 1107,-691 1119,-703 1107,-715"/>
<text text-anchor="middle" x="1088.5" y="-699.3" font-family="Times,serif" font-size="14.00">scalable</text>
</g>
<!-- app_server_capability_scalable&#45;&#45;app_server -->
<g id="edge28" class="edge"><title>app_server_capability_scalable&#45;&#45;app_server</title>
<path fill="none" stroke="black" d="M1112.35,-721.077C1126.99,-732.666 1146.75,-748.296 1165.68,-763.273"/>
</g>
<!-- app_server_capability_binding -->
<g id="node39" class="node"><title>app_server_capability_binding</title>
<polygon fill="orange" stroke="black" points="1106,-931 1059,-931 1059,-907 1106,-907 1118,-919 1106,-931"/>
<text text-anchor="middle" x="1088.5" y="-915.3" font-family="Times,serif" font-size="14.00">binding</text>
</g>
<!-- app_server_capability_binding&#45;&#45;app_server -->
<g id="edge29" class="edge"><title>app_server_capability_binding&#45;&#45;app_server</title>
<path fill="none" stroke="black" d="M1112.35,-900.923C1126.99,-889.334 1146.75,-873.704 1165.68,-858.727"/>
</g>
<!-- mongo_server -->
<g id="node41" class="node"><title>mongo_server</title>
<path fill="none" stroke="black" d="M1594.5,-94.5C1594.5,-94.5 1726.5,-94.5 1726.5,-94.5 1732.5,-94.5 1738.5,-100.5 1738.5,-106.5 1738.5,-106.5 1738.5,-177.5 1738.5,-177.5 1738.5,-183.5 1732.5,-189.5 1726.5,-189.5 1726.5,-189.5 1594.5,-189.5 1594.5,-189.5 1588.5,-189.5 1582.5,-183.5 1582.5,-177.5 1582.5,-177.5 1582.5,-106.5 1582.5,-106.5 1582.5,-100.5 1588.5,-94.5 1594.5,-94.5"/>
<text text-anchor="middle" x="1660.5" y="-174.3" font-family="Times,serif" font-size="14.00">mongo_server: Compute</text>
<polyline fill="none" stroke="black" points="1582.5,-166.5 1738.5,-166.5 "/>
</g>
<!-- mongo_server_requirement_local_storage -->
<g id="node47" class="node"><title>mongo_server_requirement_local_storage</title>
<polygon fill="turquoise" stroke="black" points="1858,-154 1780,-154 1780,-130 1858,-130 1870,-142 1858,-154"/>
<text text-anchor="middle" x="1825" y="-138.3" font-family="Times,serif" font-size="14.00">local_storage</text>
</g>
<!-- mongo_server&#45;&#45;mongo_server_requirement_local_storage -->
<g id="edge36" class="edge"><title>mongo_server&#45;&#45;mongo_server_requirement_local_storage</title>
<path fill="none" stroke="black" d="M1738.94,-142C1753,-142 1767.22,-142 1779.89,-142"/>
</g>
<!-- mongo_server_capability_host&#45;&#45;mongo_server -->
<g id="edge31" class="edge"><title>mongo_server_capability_host&#45;&#45;mongo_server</title>
<path fill="none" stroke="black" d="M1535.63,-142C1548.81,-142 1565.55,-142 1582.43,-142"/>
</g>
<!-- mongo_server_capability_endpoint -->
<g id="node43" class="node"><title>mongo_server_capability_endpoint</title>
<polygon fill="orange" stroke="black" points="1529,-100 1476,-100 1476,-76 1529,-76 1541,-88 1529,-100"/>
<text text-anchor="middle" x="1508.5" y="-84.3" font-family="Times,serif" font-size="14.00">endpoint</text>
</g>
<!-- mongo_server_capability_endpoint&#45;&#45;mongo_server -->
<g id="edge32" class="edge"><title>mongo_server_capability_endpoint&#45;&#45;mongo_server</title>
<path fill="none" stroke="black" d="M1541.31,-99.452C1553.44,-103.817 1567.85,-109.005 1582.36,-114.231"/>
</g>
<!-- mongo_server_capability_os -->
<g id="node44" class="node"><title>mongo_server_capability_os</title>
<polygon fill="orange" stroke="black" points="1523.5,-46 1481.5,-46 1481.5,-22 1523.5,-22 1535.5,-34 1523.5,-46"/>
<text text-anchor="middle" x="1508.5" y="-30.3" font-family="Times,serif" font-size="14.00">os</text>
</g>
<!-- mongo_server_capability_os&#45;&#45;mongo_server -->
<g id="edge33" class="edge"><title>mongo_server_capability_os&#45;&#45;mongo_server</title>
<path fill="none" stroke="black" d="M1534.61,-52.0768C1550.7,-63.6662 1572.41,-79.2958 1593.21,-94.2729"/>
</g>
<!-- mongo_server_capability_scalable -->
<g id="node45" class="node"><title>mongo_server_capability_scalable</title>
<polygon fill="orange" stroke="black" points="1527,-262 1478,-262 1478,-238 1527,-238 1539,-250 1527,-262"/>
<text text-anchor="middle" x="1508.5" y="-246.3" font-family="Times,serif" font-size="14.00">scalable</text>
</g>
<!-- mongo_server_capability_scalable&#45;&#45;mongo_server -->
<g id="edge34" class="edge"><title>mongo_server_capability_scalable&#45;&#45;mongo_server</title>
<path fill="none" stroke="black" d="M1534.61,-231.923C1550.7,-220.334 1572.41,-204.704 1593.21,-189.727"/>
</g>
<!-- mongo_server_capability_binding -->
<g id="node46" class="node"><title>mongo_server_capability_binding</title>
<polygon fill="orange" stroke="black" points="1526,-208 1479,-208 1479,-184 1526,-184 1538,-196 1526,-208"/>
<text text-anchor="middle" x="1508.5" y="-192.3" font-family="Times,serif" font-size="14.00">binding</text>
</g>
<!-- mongo_server_capability_binding&#45;&#45;mongo_server -->
<g id="edge35" class="edge"><title>mongo_server_capability_binding&#45;&#45;mongo_server</title>
<path fill="none" stroke="black" d="M1538.07,-185.716C1550.82,-181.126 1566.52,-175.473 1582.35,-169.774"/>
</g>
<!-- elasticsearch_server -->
<g id="node48" class="node"><title>elasticsearch_server</title>
<path fill="none" stroke="black" d="M2019,-460.5C2019,-460.5 2183,-460.5 2183,-460.5 2189,-460.5 2195,-466.5 2195,-472.5 2195,-472.5 2195,-543.5 2195,-543.5 2195,-549.5 2189,-555.5 2183,-555.5 2183,-555.5 2019,-555.5 2019,-555.5 2013,-555.5 2007,-549.5 2007,-543.5 2007,-543.5 2007,-472.5 2007,-472.5 2007,-466.5 2013,-460.5 2019,-460.5"/>
<text text-anchor="middle" x="2101" y="-540.3" font-family="Times,serif" font-size="14.00">elasticsearch_server: Compute</text>
<polyline fill="none" stroke="black" points="2007,-532.5 2195,-532.5 "/>
</g>
<!-- elasticsearch_server_requirement_local_storage -->
<g id="node54" class="node"><title>elasticsearch_server_requirement_local_storage</title>
<polygon fill="turquoise" stroke="black" points="2309,-520 2231,-520 2231,-496 2309,-496 2321,-508 2309,-520"/>
<text text-anchor="middle" x="2276" y="-504.3" font-family="Times,serif" font-size="14.00">local_storage</text>
</g>
<!-- elasticsearch_server&#45;&#45;elasticsearch_server_requirement_local_storage -->
<g id="edge42" class="edge"><title>elasticsearch_server&#45;&#45;elasticsearch_server_requirement_local_storage</title>
<path fill="none" stroke="black" d="M2195.08,-508C2207.56,-508 2219.85,-508 2230.91,-508"/>
</g>
<!-- elasticsearch_server_capability_host&#45;&#45;elasticsearch_server -->
<g id="edge37" class="edge"><title>elasticsearch_server_capability_host&#45;&#45;elasticsearch_server</title>
<path fill="none" stroke="black" d="M1965.64,-598.408C1982.97,-586.752 2006.58,-570.861 2029.19,-555.651"/>
</g>
<!-- elasticsearch_server_capability_endpoint -->
<g id="node50" class="node"><title>elasticsearch_server_capability_endpoint</title>
<polygon fill="orange" stroke="black" points="1959,-574 1906,-574 1906,-550 1959,-550 1971,-562 1959,-574"/>
<text text-anchor="middle" x="1938.5" y="-558.3" font-family="Times,serif" font-size="14.00">endpoint</text>
</g>
<!-- elasticsearch_server_capability_endpoint&#45;&#45;elasticsearch_server -->
<g id="edge38" class="edge"><title>elasticsearch_server_capability_endpoint&#45;&#45;elasticsearch_server</title>
<path fill="none" stroke="black" d="M1971.21,-551.331C1981.72,-547.797 1994,-543.664 2006.73,-539.38"/>
</g>
<!-- elasticsearch_server_capability_os -->
<g id="node51" class="node"><title>elasticsearch_server_capability_os</title>
<polygon fill="orange" stroke="black" points="1953.5,-520 1911.5,-520 1911.5,-496 1953.5,-496 1965.5,-508 1953.5,-520"/>
<text text-anchor="middle" x="1938.5" y="-504.3" font-family="Times,serif" font-size="14.00">os</text>
</g>
<!-- elasticsearch_server_capability_os&#45;&#45;elasticsearch_server -->
<g id="edge39" class="edge"><title>elasticsearch_server_capability_os&#45;&#45;elasticsearch_server</title>
<path fill="none" stroke="black" d="M1965.64,-508C1977.28,-508 1991.76,-508 2006.86,-508"/>
</g>
<!-- elasticsearch_server_capability_scalable -->
<g id="node52" class="node"><title>elasticsearch_server_capability_scalable</title>
<polygon fill="orange" stroke="black" points="1957,-466 1908,-466 1908,-442 1957,-442 1969,-454 1957,-466"/>
<text text-anchor="middle" x="1938.5" y="-450.3" font-family="Times,serif" font-size="14.00">scalable</text>
</g>
<!-- elasticsearch_server_capability_scalable&#45;&#45;elasticsearch_server -->
<g id="edge40" class="edge"><title>elasticsearch_server_capability_scalable&#45;&#45;elasticsearch_server</title>
<path fill="none" stroke="black" d="M1969.31,-464.03C1980.28,-467.721 1993.37,-472.123 2006.95,-476.694"/>
</g>
<!-- elasticsearch_server_capability_binding -->
<g id="node53" class="node"><title>elasticsearch_server_capability_binding</title>
<polygon fill="orange" stroke="black" points="1956,-412 1909,-412 1909,-388 1956,-388 1968,-400 1956,-412"/>
<text text-anchor="middle" x="1938.5" y="-396.3" font-family="Times,serif" font-size="14.00">binding</text>
</g>
<!-- elasticsearch_server_capability_binding&#45;&#45;elasticsearch_server -->
<g id="edge41" class="edge"><title>elasticsearch_server_capability_binding&#45;&#45;elasticsearch_server</title>
<path fill="none" stroke="black" d="M1966.36,-418.077C1983.59,-429.666 2006.81,-445.296 2029.07,-460.273"/>
</g>
<!-- logstash_server -->
<g id="node55" class="node"><title>logstash_server</title>
<path fill="none" stroke="black" d="M1591.5,-766.5C1591.5,-766.5 1729.5,-766.5 1729.5,-766.5 1735.5,-766.5 1741.5,-772.5 1741.5,-778.5 1741.5,-778.5 1741.5,-849.5 1741.5,-849.5 1741.5,-855.5 1735.5,-861.5 1729.5,-861.5 1729.5,-861.5 1591.5,-861.5 1591.5,-861.5 1585.5,-861.5 1579.5,-855.5 1579.5,-849.5 1579.5,-849.5 1579.5,-778.5 1579.5,-778.5 1579.5,-772.5 1585.5,-766.5 1591.5,-766.5"/>
<text text-anchor="middle" x="1660.5" y="-846.3" font-family="Times,serif" font-size="14.00">logstash_server: Compute</text>
<polyline fill="none" stroke="black" points="1579.5,-838.5 1741.5,-838.5 "/>
</g>
<!-- logstash_server_requirement_local_storage -->
<g id="node61" class="node"><title>logstash_server_requirement_local_storage</title>
<polygon fill="turquoise" stroke="black" points="1858,-826 1780,-826 1780,-802 1858,-802 1870,-814 1858,-826"/>
<text text-anchor="middle" x="1825" y="-810.3" font-family="Times,serif" font-size="14.00">local_storage</text>
</g>
<!-- logstash_server&#45;&#45;logstash_server_requirement_local_storage -->
<g id="edge48" class="edge"><title>logstash_server&#45;&#45;logstash_server_requirement_local_storage</title>
<path fill="none" stroke="black" d="M1741.8,-814C1754.91,-814 1768.06,-814 1779.87,-814"/>
</g>
<!-- logstash_server_capability_host&#45;&#45;logstash_server -->
<g id="edge43" class="edge"><title>logstash_server_capability_host&#45;&#45;logstash_server</title>
<path fill="none" stroke="black" d="M1535.63,-814C1547.97,-814 1563.43,-814 1579.21,-814"/>
</g>
<!-- logstash_server_capability_endpoint -->
<g id="node57" class="node"><title>logstash_server_capability_endpoint</title>
<polygon fill="orange" stroke="black" points="1529,-772 1476,-772 1476,-748 1529,-748 1541,-760 1529,-772"/>
<text text-anchor="middle" x="1508.5" y="-756.3" font-family="Times,serif" font-size="14.00">endpoint</text>
</g>
<!-- logstash_server_capability_endpoint&#45;&#45;logstash_server -->
<g id="edge44" class="edge"><title>logstash_server_capability_endpoint&#45;&#45;logstash_server</title>
<path fill="none" stroke="black" d="M1541.31,-771.452C1552.58,-775.508 1565.81,-780.273 1579.28,-785.12"/>
</g>
<!-- logstash_server_capability_os -->
<g id="node58" class="node"><title>logstash_server_capability_os</title>
<polygon fill="orange" stroke="black" points="1523.5,-718 1481.5,-718 1481.5,-694 1523.5,-694 1535.5,-706 1523.5,-718"/>
<text text-anchor="middle" x="1508.5" y="-702.3" font-family="Times,serif" font-size="14.00">os</text>
</g>
<!-- logstash_server_capability_os&#45;&#45;logstash_server -->
<g id="edge45" class="edge"><title>logstash_server_capability_os&#45;&#45;logstash_server</title>
<path fill="none" stroke="black" d="M1534.61,-724.077C1550.7,-735.666 1572.41,-751.296 1593.21,-766.273"/>
</g>
<!-- logstash_server_capability_scalable -->
<g id="node59" class="node"><title>logstash_server_capability_scalable</title>
<polygon fill="orange" stroke="black" points="1527,-934 1478,-934 1478,-910 1527,-910 1539,-922 1527,-934"/>
<text text-anchor="middle" x="1508.5" y="-918.3" font-family="Times,serif" font-size="14.00">scalable</text>
</g>
<!-- logstash_server_capability_scalable&#45;&#45;logstash_server -->
<g id="edge46" class="edge"><title>logstash_server_capability_scalable&#45;&#45;logstash_server</title>
<path fill="none" stroke="black" d="M1534.61,-903.923C1550.7,-892.334 1572.41,-876.704 1593.21,-861.727"/>
</g>
<!-- logstash_server_capability_binding -->
<g id="node60" class="node"><title>logstash_server_capability_binding</title>
<polygon fill="orange" stroke="black" points="1526,-880 1479,-880 1479,-856 1526,-856 1538,-868 1526,-880"/>
<text text-anchor="middle" x="1508.5" y="-864.3" font-family="Times,serif" font-size="14.00">binding</text>
</g>
<!-- logstash_server_capability_binding&#45;&#45;logstash_server -->
<g id="edge47" class="edge"><title>logstash_server_capability_binding&#45;&#45;logstash_server</title>
<path fill="none" stroke="black" d="M1538.07,-857.716C1549.97,-853.432 1564.44,-848.222 1579.19,-842.913"/>
</g>
<!-- kibana_server -->
<g id="node62" class="node"><title>kibana_server</title>
<path fill="none" stroke="black" d="M1595,-370.5C1595,-370.5 1726,-370.5 1726,-370.5 1732,-370.5 1738,-376.5 1738,-382.5 1738,-382.5 1738,-453.5 1738,-453.5 1738,-459.5 1732,-465.5 1726,-465.5 1726,-465.5 1595,-465.5 1595,-465.5 1589,-465.5 1583,-459.5 1583,-453.5 1583,-453.5 1583,-382.5 1583,-382.5 1583,-376.5 1589,-370.5 1595,-370.5"/>
<text text-anchor="middle" x="1660.5" y="-450.3" font-family="Times,serif" font-size="14.00">kibana_server: Compute</text>
<polyline fill="none" stroke="black" points="1583,-442.5 1738,-442.5 "/>
</g>
<!-- kibana_server_requirement_local_storage -->
<g id="node68" class="node"><title>kibana_server_requirement_local_storage</title>
<polygon fill="turquoise" stroke="black" points="1858,-430 1780,-430 1780,-406 1858,-406 1870,-418 1858,-430"/>
<text text-anchor="middle" x="1825" y="-414.3" font-family="Times,serif" font-size="14.00">local_storage</text>
</g>
<!-- kibana_server&#45;&#45;kibana_server_requirement_local_storage -->
<g id="edge54" class="edge"><title>kibana_server&#45;&#45;kibana_server_requirement_local_storage</title>
<path fill="none" stroke="black" d="M1738.47,-418C1752.58,-418 1766.86,-418 1779.61,-418"/>
</g>
<!-- kibana_server_capability_host&#45;&#45;kibana_server -->
<g id="edge49" class="edge"><title>kibana_server_capability_host&#45;&#45;kibana_server</title>
<path fill="none" stroke="black" d="M1535.63,-418C1548.89,-418 1565.76,-418 1582.76,-418"/>
</g>
<!-- kibana_server_capability_endpoint -->
<g id="node64" class="node"><title>kibana_server_capability_endpoint</title>
<polygon fill="orange" stroke="black" points="1529,-376 1476,-376 1476,-352 1529,-352 1541,-364 1529,-376"/>
<text text-anchor="middle" x="1508.5" y="-360.3" font-family="Times,serif" font-size="14.00">endpoint</text>
</g>
<!-- kibana_server_capability_endpoint&#45;&#45;kibana_server -->
<g id="edge50" class="edge"><title>kibana_server_capability_endpoint&#45;&#45;kibana_server</title>
<path fill="none" stroke="black" d="M1541.31,-375.452C1553.61,-379.879 1568.26,-385.152 1582.98,-390.454"/>
</g>
<!-- kibana_server_capability_os -->
<g id="node65" class="node"><title>kibana_server_capability_os</title>
<polygon fill="orange" stroke="black" points="1523.5,-322 1481.5,-322 1481.5,-298 1523.5,-298 1535.5,-310 1523.5,-322"/>
<text text-anchor="middle" x="1508.5" y="-306.3" font-family="Times,serif" font-size="14.00">os</text>
</g>
<!-- kibana_server_capability_os&#45;&#45;kibana_server -->
<g id="edge51" class="edge"><title>kibana_server_capability_os&#45;&#45;kibana_server</title>
<path fill="none" stroke="black" d="M1534.61,-328.077C1550.7,-339.666 1572.41,-355.296 1593.21,-370.273"/>
</g>
<!-- kibana_server_capability_scalable -->
<g id="node66" class="node"><title>kibana_server_capability_scalable</title>
<polygon fill="orange" stroke="black" points="1527,-538 1478,-538 1478,-514 1527,-514 1539,-526 1527,-538"/>
<text text-anchor="middle" x="1508.5" y="-522.3" font-family="Times,serif" font-size="14.00">scalable</text>
</g>
<!-- kibana_server_capability_scalable&#45;&#45;kibana_server -->
<g id="edge52" class="edge"><title>kibana_server_capability_scalable&#45;&#45;kibana_server</title>
<path fill="none" stroke="black" d="M1534.61,-507.923C1550.7,-496.334 1572.41,-480.704 1593.21,-465.727"/>
</g>
<!-- kibana_server_capability_binding -->
<g id="node67" class="node"><title>kibana_server_capability_binding</title>
<polygon fill="orange" stroke="black" points="1526,-484 1479,-484 1479,-460 1526,-460 1538,-472 1526,-484"/>
<text text-anchor="middle" x="1508.5" y="-468.3" font-family="Times,serif" font-size="14.00">binding</text>
</g>
<!-- kibana_server_capability_binding&#45;&#45;kibana_server -->
<g id="edge53" class="edge"><title>kibana_server_capability_binding&#45;&#45;kibana_server</title>
<path fill="none" stroke="black" d="M1538.07,-461.716C1550.99,-457.065 1566.94,-451.322 1582.98,-445.546"/>
</g>
</g>
</svg>
