<?xml version="1.0" encoding="UTF-8" standalone="no"?>
<!DOCTYPE svg PUBLIC "-//W3C//DTD SVG 1.1//EN"
 "http://www.w3.org/Graphics/SVG/1.1/DTD/svg11.dtd">
<!-- Generated by graphviz version 2.38.0 (20140413.2041)
 -->
<!-- Title: ToscaDiagram Pages: 1 -->
<svg width="2021pt" height="590pt"
 viewBox="0.00 0.00 2021.00 590.00" xmlns="http://www.w3.org/2000/svg" xmlns:xlink="http://www.w3.org/1999/xlink">
<g id="graph0" class="graph" transform="scale(1 1) rotate(0) translate(4 586)">
<title>ToscaDiagram</title>
<polygon fill="white" stroke="none" points="-4,4 -4,-586 2017,-586 2017,4 -4,4"/>
<g id="clust1" class="cluster"><title>clusterpaypal_pizzastore</title>
<polygon fill="none" stroke="white" points="8,-276 8,-388 415,-388 415,-276 8,-276"/>
</g>
<g id="clust2" class="cluster"><title>clusternodejs</title>
<polygon fill="none" stroke="white" points="467.5,-462 467.5,-574 868.5,-574 868.5,-462 467.5,-462"/>
</g>
<g id="clust3" class="cluster"><title>clustermongo_db</title>
<polygon fill="none" stroke="white" points="435,-83 435,-195 868.5,-195 868.5,-83 435,-83"/>
</g>
<g id="clust4" class="cluster"><title>clustermongo_dbms</title>
<polygon fill="none" stroke="white" points="919,-47 919,-159 1281.5,-159 1281.5,-47 919,-47"/>
</g>
<g id="clust5" class="cluster"><title>clusterelasticsearch</title>
<polygon fill="none" stroke="white" points="1328,-248 1328,-360 1691,-360 1691,-248 1328,-248"/>
</g>
<g id="clust6" class="cluster"><title>clusterlogstash</title>
<polygon fill="none" stroke="white" points="919,-299 919,-411 1308,-411 1308,-299 919,-299"/>
</g>
<g id="clust7" class="cluster"><title>clusterkibana</title>
<polygon fill="none" stroke="white" points="1028.5,-179 1028.5,-291 1308,-291 1308,-179 1028.5,-179"/>
</g>
<g id="clust8" class="cluster"><title>clusterapp_collectd</title>
<polygon fill="none" stroke="white" points="590,-342 590,-454 899,-454 899,-342 590,-342"/>
</g>
<g id="clust9" class="cluster"><title>clusterapp_rsyslog</title>
<polygon fill="none" stroke="white" points="592.5,-222 592.5,-334 897.5,-334 897.5,-222 592.5,-222"/>
</g>
<g id="clust10" class="cluster"><title>clusterapp_server</title>
<polygon fill="none" stroke="white" points="919,-419 919,-531 1164.5,-531 1164.5,-419 919,-419"/>
</g>
<g id="clust11" class="cluster"><title>clustermongo_server</title>
<polygon fill="none" stroke="white" points="1328,-8 1328,-120 1595.5,-120 1595.5,-8 1328,-8"/>
</g>
<g id="clust12" class="cluster"><title>clusterelasticsearch_server</title>
<polygon fill="none" stroke="white" points="1711,-221 1711,-333 2005,-333 2005,-221 1711,-221"/>
</g>
<g id="clust13" class="cluster"><title>clusterlogstash_server</title>
<polygon fill="none" stroke="white" points="1328,-368 1328,-480 1598.5,-480 1598.5,-368 1328,-368"/>
</g>
<g id="clust14" class="cluster"><title>clusterkibana_server</title>
<polygon fill="none" stroke="white" points="1328,-128 1328,-240 1595,-240 1595,-128 1328,-128"/>
</g>
<!-- paypal_pizzastore -->
<g id="node1" class="node"><title>paypal_pizzastore</title>
<path fill="none" stroke="black" d="M28,-284.5C28,-284.5 228,-284.5 228,-284.5 234,-284.5 240,-290.5 240,-296.5 240,-296.5 240,-367.5 240,-367.5 240,-373.5 234,-379.5 228,-379.5 228,-379.5 28,-379.5 28,-379.5 22,-379.5 16,-373.5 16,-367.5 16,-367.5 16,-296.5 16,-296.5 16,-290.5 22,-284.5 28,-284.5"/>
<text text-anchor="middle" x="128" y="-364.3" font-family="Times,serif" font-size="14.00">paypal_pizzastore: PayPalPizzaStore</text>
<polyline fill="none" stroke="black" points="16,-356.5 240,-356.5 "/>
</g>
<!-- paypal_pizzastore_requirement_host -->
<g id="node2" class="node"><title>paypal_pizzastore_requirement_host</title>
<polygon fill="turquoise" stroke="black" points="356.5,-372 314.5,-372 314.5,-348 356.5,-348 368.5,-360 356.5,-372"/>
<text text-anchor="middle" x="341.5" y="-356.3" font-family="Times,serif" font-size="14.00">host</text>
</g>
<!-- paypal_pizzastore&#45;&#45;paypal_pizzastore_requirement_host -->
<g id="edge1" class="edge"><title>paypal_pizzastore&#45;&#45;paypal_pizzastore_requirement_host</title>
<path fill="none" stroke="black" d="M240.015,-346.697C267.741,-350.368 294.982,-353.974 314.092,-356.504"/>
</g>
<!-- paypal_pizzastore_requirement_database_connection -->
<g id="node3" class="node"><title>paypal_pizzastore_requirement_database_connection</title>
<polygon fill="turquoise" stroke="black" points="395,-317 276,-317 276,-293 395,-293 407,-305 395,-317"/>
<text text-anchor="middle" x="341.5" y="-301.3" font-family="Times,serif" font-size="14.00">database_connection</text>
</g>
<!-- paypal_pizzastore&#45;&#45;paypal_pizzastore_requirement_database_connection -->
<g id="edge2" class="edge"><title>paypal_pizzastore&#45;&#45;paypal_pizzastore_requirement_database_connection</title>
<path fill="none" stroke="black" d="M240.015,-317.828C252.282,-316.262 264.454,-314.708 275.87,-313.251"/>
</g>
<!-- nodejs_capability_host -->
<g id="node5" class="node"><title>nodejs_capability_host</title>
<polygon fill="orange" stroke="black" points="517.5,-515 475.5,-515 475.5,-491 517.5,-491 529.5,-503 517.5,-515"/>
<text text-anchor="middle" x="502.5" y="-499.3" font-family="Times,serif" font-size="14.00">host</text>
</g>
<!-- paypal_pizzastore_requirement_host&#45;&#45;nodejs_capability_host -->
<g id="edge30" class="edge"><title>paypal_pizzastore_requirement_host&#45;&#45;nodejs_capability_host</title>
<path fill="none" stroke="black" stroke-dasharray="1,5" d="M362.637,-378.111C393.138,-405.543 450.723,-457.333 481.276,-484.811"/>
</g>
<!-- mongo_db_capability_database_endpoint -->
<g id="node8" class="node"><title>mongo_db_capability_database_endpoint</title>
<polygon fill="orange" stroke="black" points="550,-166 443,-166 443,-142 550,-142 562,-154 550,-166"/>
<text text-anchor="middle" x="502.5" y="-150.3" font-family="Times,serif" font-size="14.00">database_endpoint</text>
</g>
<!-- paypal_pizzastore_requirement_database_connection&#45;&#45;mongo_db_capability_database_endpoint -->
<g id="edge31" class="edge"><title>paypal_pizzastore_requirement_database_connection&#45;&#45;mongo_db_capability_database_endpoint</title>
<path fill="none" stroke="black" stroke-dasharray="1,5" d="M361.679,-286.786C392.24,-257.763 451.65,-201.342 482.253,-172.279"/>
</g>
<!-- nodejs -->
<g id="node4" class="node"><title>nodejs</title>
<path fill="none" stroke="black" d="M632,-470.5C632,-470.5 706,-470.5 706,-470.5 712,-470.5 718,-476.5 718,-482.5 718,-482.5 718,-553.5 718,-553.5 718,-559.5 712,-565.5 706,-565.5 706,-565.5 632,-565.5 632,-565.5 626,-565.5 620,-559.5 620,-553.5 620,-553.5 620,-482.5 620,-482.5 620,-476.5 626,-470.5 632,-470.5"/>
<text text-anchor="middle" x="669" y="-550.3" font-family="Times,serif" font-size="14.00">nodejs: Nodejs</text>
<polyline fill="none" stroke="black" points="620,-542.5 718,-542.5 "/>
</g>
<!-- nodejs_requirement_host -->
<g id="node6" class="node"><title>nodejs_requirement_host</title>
<polygon fill="turquoise" stroke="black" points="848.5,-514 806.5,-514 806.5,-490 848.5,-490 860.5,-502 848.5,-514"/>
<text text-anchor="middle" x="833.5" y="-498.3" font-family="Times,serif" font-size="14.00">host</text>
</g>
<!-- nodejs&#45;&#45;nodejs_requirement_host -->
<g id="edge4" class="edge"><title>nodejs&#45;&#45;nodejs_requirement_host</title>
<path fill="none" stroke="black" d="M718.315,-513.243C747.131,-510.406 782.598,-506.913 806.287,-504.581"/>
</g>
<!-- nodejs_capability_host&#45;&#45;nodejs -->
<g id="edge3" class="edge"><title>nodejs_capability_host&#45;&#45;nodejs</title>
<path fill="none" stroke="black" d="M529.566,-505.377C553.754,-507.582 590.362,-510.921 619.857,-513.61"/>
</g>
<!-- app_server_capability_host -->
<g id="node30" class="node"><title>app_server_capability_host</title>
<polygon fill="orange" stroke="black" points="969,-511 927,-511 927,-487 969,-487 981,-499 969,-511"/>
<text text-anchor="middle" x="954" y="-495.3" font-family="Times,serif" font-size="14.00">host</text>
</g>
<!-- nodejs_requirement_host&#45;&#45;app_server_capability_host -->
<g id="edge32" class="edge"><title>nodejs_requirement_host&#45;&#45;app_server_capability_host</title>
<path fill="none" stroke="black" stroke-dasharray="1,5" d="M860.505,-501.342C880.127,-500.845 906.94,-500.166 926.646,-499.667"/>
</g>
<!-- mongo_db -->
<g id="node7" class="node"><title>mongo_db</title>
<path fill="none" stroke="black" d="M613.5,-91.5C613.5,-91.5 724.5,-91.5 724.5,-91.5 730.5,-91.5 736.5,-97.5 736.5,-103.5 736.5,-103.5 736.5,-174.5 736.5,-174.5 736.5,-180.5 730.5,-186.5 724.5,-186.5 724.5,-186.5 613.5,-186.5 613.5,-186.5 607.5,-186.5 601.5,-180.5 601.5,-174.5 601.5,-174.5 601.5,-103.5 601.5,-103.5 601.5,-97.5 607.5,-91.5 613.5,-91.5"/>
<text text-anchor="middle" x="669" y="-171.3" font-family="Times,serif" font-size="14.00">mongo_db: Database</text>
<polyline fill="none" stroke="black" points="601.5,-163.5 736.5,-163.5 "/>
</g>
<!-- mongo_db_requirement_host -->
<g id="node9" class="node"><title>mongo_db_requirement_host</title>
<polygon fill="turquoise" stroke="black" points="848.5,-136 806.5,-136 806.5,-112 848.5,-112 860.5,-124 848.5,-136"/>
<text text-anchor="middle" x="833.5" y="-120.3" font-family="Times,serif" font-size="14.00">host</text>
</g>
<!-- mongo_db&#45;&#45;mongo_db_requirement_host -->
<g id="edge6" class="edge"><title>mongo_db&#45;&#45;mongo_db_requirement_host</title>
<path fill="none" stroke="black" d="M736.564,-132.856C761.106,-130.59 787.497,-128.154 806.375,-126.412"/>
</g>
<!-- mongo_db_capability_database_endpoint&#45;&#45;mongo_db -->
<g id="edge5" class="edge"><title>mongo_db_capability_database_endpoint&#45;&#45;mongo_db</title>
<path fill="none" stroke="black" d="M562.424,-148.627C575.054,-147.475 588.484,-146.251 601.381,-145.075"/>
</g>
<!-- mongo_dbms_capability_host -->
<g id="node11" class="node"><title>mongo_dbms_capability_host</title>
<polygon fill="orange" stroke="black" points="969,-122 927,-122 927,-98 969,-98 981,-110 969,-122"/>
<text text-anchor="middle" x="954" y="-106.3" font-family="Times,serif" font-size="14.00">host</text>
</g>
<!-- mongo_db_requirement_host&#45;&#45;mongo_dbms_capability_host -->
<g id="edge33" class="edge"><title>mongo_db_requirement_host&#45;&#45;mongo_dbms_capability_host</title>
<path fill="none" stroke="black" stroke-dasharray="1,5" d="M860.505,-120.928C880.127,-118.61 906.94,-115.442 926.646,-113.114"/>
</g>
<!-- mongo_dbms -->
<g id="node10" class="node"><title>mongo_dbms</title>
<path fill="none" stroke="black" d="M1029,-55.5C1029,-55.5 1145,-55.5 1145,-55.5 1151,-55.5 1157,-61.5 1157,-67.5 1157,-67.5 1157,-138.5 1157,-138.5 1157,-144.5 1151,-150.5 1145,-150.5 1145,-150.5 1029,-150.5 1029,-150.5 1023,-150.5 1017,-144.5 1017,-138.5 1017,-138.5 1017,-67.5 1017,-67.5 1017,-61.5 1023,-55.5 1029,-55.5"/>
<text text-anchor="middle" x="1087" y="-135.3" font-family="Times,serif" font-size="14.00">mongo_dbms: DBMS</text>
<polyline fill="none" stroke="black" points="1017,-127.5 1157,-127.5 "/>
</g>
<!-- mongo_dbms_requirement_host -->
<g id="node12" class="node"><title>mongo_dbms_requirement_host</title>
<polygon fill="turquoise" stroke="black" points="1261.5,-110 1219.5,-110 1219.5,-86 1261.5,-86 1273.5,-98 1261.5,-110"/>
<text text-anchor="middle" x="1246.5" y="-94.3" font-family="Times,serif" font-size="14.00">host</text>
</g>
<!-- mongo_dbms&#45;&#45;mongo_dbms_requirement_host -->
<g id="edge8" class="edge"><title>mongo_dbms&#45;&#45;mongo_dbms_requirement_host</title>
<path fill="none" stroke="black" d="M1157.08,-100.807C1179.23,-100.104 1202.42,-99.3676 1219.49,-98.8257"/>
</g>
<!-- mongo_dbms_capability_host&#45;&#45;mongo_dbms -->
<g id="edge7" class="edge"><title>mongo_dbms_capability_host&#45;&#45;mongo_dbms</title>
<path fill="none" stroke="black" d="M981.195,-108.6C991.648,-108.042 1004.22,-107.37 1016.97,-106.688"/>
</g>
<!-- mongo_server_capability_host -->
<g id="node33" class="node"><title>mongo_server_capability_host</title>
<polygon fill="orange" stroke="black" points="1378,-106 1336,-106 1336,-82 1378,-82 1390,-94 1378,-106"/>
<text text-anchor="middle" x="1363" y="-90.3" font-family="Times,serif" font-size="14.00">host</text>
</g>
<!-- mongo_dbms_requirement_host&#45;&#45;mongo_server_capability_host -->
<g id="edge34" class="edge"><title>mongo_dbms_requirement_host&#45;&#45;mongo_server_capability_host</title>
<path fill="none" stroke="black" stroke-dasharray="1,5" d="M1273.77,-97.0823C1292.39,-96.4319 1317.26,-95.5629 1335.85,-94.9134"/>
</g>
<!-- elasticsearch -->
<g id="node13" class="node"><title>elasticsearch</title>
<path fill="none" stroke="black" d="M1438,-256.5C1438,-256.5 1581,-256.5 1581,-256.5 1587,-256.5 1593,-262.5 1593,-268.5 1593,-268.5 1593,-339.5 1593,-339.5 1593,-345.5 1587,-351.5 1581,-351.5 1581,-351.5 1438,-351.5 1438,-351.5 1432,-351.5 1426,-345.5 1426,-339.5 1426,-339.5 1426,-268.5 1426,-268.5 1426,-262.5 1432,-256.5 1438,-256.5"/>
<text text-anchor="middle" x="1509.5" y="-336.3" font-family="Times,serif" font-size="14.00">elasticsearch: Elasticsearch</text>
<polyline fill="none" stroke="black" points="1426,-328.5 1593,-328.5 "/>
</g>
<!-- elasticsearch_requirement_host -->
<g id="node15" class="node"><title>elasticsearch_requirement_host</title>
<polygon fill="turquoise" stroke="black" points="1671,-316 1629,-316 1629,-292 1671,-292 1683,-304 1671,-316"/>
<text text-anchor="middle" x="1656" y="-300.3" font-family="Times,serif" font-size="14.00">host</text>
</g>
<!-- elasticsearch&#45;&#45;elasticsearch_requirement_host -->
<g id="edge10" class="edge"><title>elasticsearch&#45;&#45;elasticsearch_requirement_host</title>
<path fill="none" stroke="black" d="M1593.3,-304C1606.16,-304 1618.57,-304 1628.85,-304"/>
</g>
<!-- elasticsearch_capability_app -->
<g id="node14" class="node"><title>elasticsearch_capability_app</title>
<polygon fill="orange" stroke="black" points="1378,-316 1336,-316 1336,-292 1378,-292 1390,-304 1378,-316"/>
<text text-anchor="middle" x="1363" y="-300.3" font-family="Times,serif" font-size="14.00">app</text>
</g>
<!-- elasticsearch_capability_app&#45;&#45;elasticsearch -->
<g id="edge9" class="edge"><title>elasticsearch_capability_app&#45;&#45;elasticsearch</title>
<path fill="none" stroke="black" d="M1390.17,-304C1400.5,-304 1412.98,-304 1425.92,-304"/>
</g>
<!-- elasticsearch_server_capability_host -->
<g id="node36" class="node"><title>elasticsearch_server_capability_host</title>
<polygon fill="orange" stroke="black" points="1761,-316 1719,-316 1719,-292 1761,-292 1773,-304 1761,-316"/>
<text text-anchor="middle" x="1746" y="-300.3" font-family="Times,serif" font-size="14.00">host</text>
</g>
<!-- elasticsearch_requirement_host&#45;&#45;elasticsearch_server_capability_host -->
<g id="edge35" class="edge"><title>elasticsearch_requirement_host&#45;&#45;elasticsearch_server_capability_host</title>
<path fill="none" stroke="black" stroke-dasharray="1,5" d="M1683.4,-304C1694.64,-304 1707.72,-304 1718.92,-304"/>
</g>
<!-- logstash -->
<g id="node16" class="node"><title>logstash</title>
<path fill="none" stroke="black" d="M1040,-307.5C1040,-307.5 1134,-307.5 1134,-307.5 1140,-307.5 1146,-313.5 1146,-319.5 1146,-319.5 1146,-390.5 1146,-390.5 1146,-396.5 1140,-402.5 1134,-402.5 1134,-402.5 1040,-402.5 1040,-402.5 1034,-402.5 1028,-396.5 1028,-390.5 1028,-390.5 1028,-319.5 1028,-319.5 1028,-313.5 1034,-307.5 1040,-307.5"/>
<text text-anchor="middle" x="1087" y="-387.3" font-family="Times,serif" font-size="14.00">logstash: Logstash</text>
<polyline fill="none" stroke="black" points="1028,-379.5 1146,-379.5 "/>
</g>
<!-- logstash_requirement_host -->
<g id="node18" class="node"><title>logstash_requirement_host</title>
<polygon fill="turquoise" stroke="black" points="1261.5,-395 1219.5,-395 1219.5,-371 1261.5,-371 1273.5,-383 1261.5,-395"/>
<text text-anchor="middle" x="1246.5" y="-379.3" font-family="Times,serif" font-size="14.00">host</text>
</g>
<!-- logstash&#45;&#45;logstash_requirement_host -->
<g id="edge12" class="edge"><title>logstash&#45;&#45;logstash_requirement_host</title>
<path fill="none" stroke="black" d="M1146.2,-365.347C1171.26,-369.802 1199.31,-374.788 1219.19,-378.322"/>
</g>
<!-- logstash_requirement_search_endpoint -->
<g id="node19" class="node"><title>logstash_requirement_search_endpoint</title>
<polygon fill="turquoise" stroke="black" points="1288,-340 1193,-340 1193,-316 1288,-316 1300,-328 1288,-340"/>
<text text-anchor="middle" x="1246.5" y="-324.3" font-family="Times,serif" font-size="14.00">search_endpoint</text>
</g>
<!-- logstash&#45;&#45;logstash_requirement_search_endpoint -->
<g id="edge13" class="edge"><title>logstash&#45;&#45;logstash_requirement_search_endpoint</title>
<path fill="none" stroke="black" d="M1146.2,-345.023C1161.45,-342.409 1177.8,-339.606 1192.75,-337.044"/>
</g>
<!-- logstash_capability_app -->
<g id="node17" class="node"><title>logstash_capability_app</title>
<polygon fill="orange" stroke="black" points="969,-367 927,-367 927,-343 969,-343 981,-355 969,-367"/>
<text text-anchor="middle" x="954" y="-351.3" font-family="Times,serif" font-size="14.00">app</text>
</g>
<!-- logstash_capability_app&#45;&#45;logstash -->
<g id="edge11" class="edge"><title>logstash_capability_app&#45;&#45;logstash</title>
<path fill="none" stroke="black" d="M981.195,-355C994.635,-355 1011.58,-355 1027.9,-355"/>
</g>
<!-- logstash_server_capability_host -->
<g id="node39" class="node"><title>logstash_server_capability_host</title>
<polygon fill="orange" stroke="black" points="1378,-460 1336,-460 1336,-436 1378,-436 1390,-448 1378,-460"/>
<text text-anchor="middle" x="1363" y="-444.3" font-family="Times,serif" font-size="14.00">host</text>
</g>
<!-- logstash_requirement_host&#45;&#45;logstash_server_capability_host -->
<g id="edge36" class="edge"><title>logstash_requirement_host&#45;&#45;logstash_server_capability_host</title>
<path fill="none" stroke="black" stroke-dasharray="1,5" d="M1273.77,-397.912C1292.39,-408.482 1317.26,-422.603 1335.85,-433.157"/>
</g>
<!-- logstash_requirement_search_endpoint&#45;&#45;elasticsearch_capability_app -->
<g id="edge37" class="edge"><title>logstash_requirement_search_endpoint&#45;&#45;elasticsearch_capability_app</title>
<path fill="none" stroke="black" stroke-dasharray="1,5" d="M1300.06,-316.983C1312.52,-314.371 1325.28,-311.696 1335.96,-309.458"/>
</g>
<!-- kibana -->
<g id="node20" class="node"><title>kibana</title>
<path fill="none" stroke="black" d="M1048.5,-187.5C1048.5,-187.5 1125.5,-187.5 1125.5,-187.5 1131.5,-187.5 1137.5,-193.5 1137.5,-199.5 1137.5,-199.5 1137.5,-270.5 1137.5,-270.5 1137.5,-276.5 1131.5,-282.5 1125.5,-282.5 1125.5,-282.5 1048.5,-282.5 1048.5,-282.5 1042.5,-282.5 1036.5,-276.5 1036.5,-270.5 1036.5,-270.5 1036.5,-199.5 1036.5,-199.5 1036.5,-193.5 1042.5,-187.5 1048.5,-187.5"/>
<text text-anchor="middle" x="1087" y="-267.3" font-family="Times,serif" font-size="14.00">kibana: Kibana</text>
<polyline fill="none" stroke="black" points="1036.5,-259.5 1137.5,-259.5 "/>
</g>
<!-- kibana_requirement_host -->
<g id="node21" class="node"><title>kibana_requirement_host</title>
<polygon fill="turquoise" stroke="black" points="1261.5,-223 1219.5,-223 1219.5,-199 1261.5,-199 1273.5,-211 1261.5,-223"/>
<text text-anchor="middle" x="1246.5" y="-207.3" font-family="Times,serif" font-size="14.00">host</text>
</g>
<!-- kibana&#45;&#45;kibana_requirement_host -->
<g id="edge14" class="edge"><title>kibana&#45;&#45;kibana_requirement_host</title>
<path fill="none" stroke="black" d="M1137.83,-227.406C1164.87,-223.286 1197.19,-218.362 1219.32,-214.99"/>
</g>
<!-- kibana_requirement_search_endpoint -->
<g id="node22" class="node"><title>kibana_requirement_search_endpoint</title>
<polygon fill="turquoise" stroke="black" points="1288,-277 1193,-277 1193,-253 1288,-253 1300,-265 1288,-277"/>
<text text-anchor="middle" x="1246.5" y="-261.3" font-family="Times,serif" font-size="14.00">search_endpoint</text>
</g>
<!-- kibana&#45;&#45;kibana_requirement_search_endpoint -->
<g id="edge15" class="edge"><title>kibana&#45;&#45;kibana_requirement_search_endpoint</title>
<path fill="none" stroke="black" d="M1137.83,-244.492C1155.32,-247.822 1175.01,-251.573 1192.73,-254.948"/>
</g>
<!-- kibana_server_capability_host -->
<g id="node42" class="node"><title>kibana_server_capability_host</title>
<polygon fill="orange" stroke="black" points="1378,-223 1336,-223 1336,-199 1378,-199 1390,-211 1378,-223"/>
<text text-anchor="middle" x="1363" y="-207.3" font-family="Times,serif" font-size="14.00">host</text>
</g>
<!-- kibana_requirement_host&#45;&#45;kibana_server_capability_host -->
<g id="edge38" class="edge"><title>kibana_requirement_host&#45;&#45;kibana_server_capability_host</title>
<path fill="none" stroke="black" stroke-dasharray="1,5" d="M1273.77,-211C1292.39,-211 1317.26,-211 1335.85,-211"/>
</g>
<!-- kibana_requirement_search_endpoint&#45;&#45;elasticsearch_capability_app -->
<g id="edge39" class="edge"><title>kibana_requirement_search_endpoint&#45;&#45;elasticsearch_capability_app</title>
<path fill="none" stroke="black" stroke-dasharray="1,5" d="M1300.06,-282.902C1312.52,-287.147 1325.28,-291.494 1335.96,-295.13"/>
</g>
<!-- app_collectd -->
<g id="node23" class="node"><title>app_collectd</title>
<path fill="none" stroke="black" d="M610,-350.5C610,-350.5 728,-350.5 728,-350.5 734,-350.5 740,-356.5 740,-362.5 740,-362.5 740,-433.5 740,-433.5 740,-439.5 734,-445.5 728,-445.5 728,-445.5 610,-445.5 610,-445.5 604,-445.5 598,-439.5 598,-433.5 598,-433.5 598,-362.5 598,-362.5 598,-356.5 604,-350.5 610,-350.5"/>
<text text-anchor="middle" x="669" y="-430.3" font-family="Times,serif" font-size="14.00">app_collectd: Collectd</text>
<polyline fill="none" stroke="black" points="598,-422.5 740,-422.5 "/>
</g>
<!-- app_collectd_requirement_host -->
<g id="node24" class="node"><title>app_collectd_requirement_host</title>
<polygon fill="turquoise" stroke="black" points="848.5,-437 806.5,-437 806.5,-413 848.5,-413 860.5,-425 848.5,-437"/>
<text text-anchor="middle" x="833.5" y="-421.3" font-family="Times,serif" font-size="14.00">host</text>
</g>
<!-- app_collectd&#45;&#45;app_collectd_requirement_host -->
<g id="edge16" class="edge"><title>app_collectd&#45;&#45;app_collectd_requirement_host</title>
<path fill="none" stroke="black" d="M740.33,-409.686C763.661,-413.562 788.216,-417.642 806.109,-420.615"/>
</g>
<!-- app_collectd_requirement_collectd_endpoint -->
<g id="node25" class="node"><title>app_collectd_requirement_collectd_endpoint</title>
<polygon fill="turquoise" stroke="black" points="879,-380 776,-380 776,-356 879,-356 891,-368 879,-380"/>
<text text-anchor="middle" x="833.5" y="-364.3" font-family="Times,serif" font-size="14.00">collectd_endpoint</text>
</g>
<!-- app_collectd&#45;&#45;app_collectd_requirement_collectd_endpoint -->
<g id="edge17" class="edge"><title>app_collectd&#45;&#45;app_collectd_requirement_collectd_endpoint</title>
<path fill="none" stroke="black" d="M740.33,-385.016C752.167,-382.831 764.319,-380.587 775.756,-378.476"/>
</g>
<!-- app_collectd_requirement_host&#45;&#45;app_server_capability_host -->
<g id="edge40" class="edge"><title>app_collectd_requirement_host&#45;&#45;app_server_capability_host</title>
<path fill="none" stroke="black" stroke-dasharray="1,5" d="M860.501,-436.999C872.493,-442.861 886.753,-450.302 899,-458 905.229,-461.915 918.249,-471.782 929.944,-480.855"/>
</g>
<!-- app_collectd_requirement_collectd_endpoint&#45;&#45;logstash_capability_app -->
<g id="edge41" class="edge"><title>app_collectd_requirement_collectd_endpoint&#45;&#45;logstash_capability_app</title>
<path fill="none" stroke="black" stroke-dasharray="1,5" d="M891.32,-361.767C903.794,-360.398 916.412,-359.014 926.957,-357.857"/>
</g>
<!-- app_rsyslog -->
<g id="node26" class="node"><title>app_rsyslog</title>
<path fill="none" stroke="black" d="M612.5,-230.5C612.5,-230.5 725.5,-230.5 725.5,-230.5 731.5,-230.5 737.5,-236.5 737.5,-242.5 737.5,-242.5 737.5,-313.5 737.5,-313.5 737.5,-319.5 731.5,-325.5 725.5,-325.5 725.5,-325.5 612.5,-325.5 612.5,-325.5 606.5,-325.5 600.5,-319.5 600.5,-313.5 600.5,-313.5 600.5,-242.5 600.5,-242.5 600.5,-236.5 606.5,-230.5 612.5,-230.5"/>
<text text-anchor="middle" x="669" y="-310.3" font-family="Times,serif" font-size="14.00">app_rsyslog: Rsyslog</text>
<polyline fill="none" stroke="black" points="600.5,-302.5 737.5,-302.5 "/>
</g>
<!-- app_rsyslog_requirement_host -->
<g id="node27" class="node"><title>app_rsyslog_requirement_host</title>
<polygon fill="turquoise" stroke="black" points="848.5,-320 806.5,-320 806.5,-296 848.5,-296 860.5,-308 848.5,-320"/>
<text text-anchor="middle" x="833.5" y="-304.3" font-family="Times,serif" font-size="14.00">host</text>
</g>
<!-- app_rsyslog&#45;&#45;app_rsyslog_requirement_host -->
<g id="edge18" class="edge"><title>app_rsyslog&#45;&#45;app_rsyslog_requirement_host</title>
<path fill="none" stroke="black" d="M737.503,-290.462C761.745,-294.937 787.668,-299.723 806.3,-303.163"/>
</g>
<!-- app_rsyslog_requirement_rsyslog_endpoint -->
<g id="node28" class="node"><title>app_rsyslog_requirement_rsyslog_endpoint</title>
<polygon fill="turquoise" stroke="black" points="877.5,-266 777.5,-266 777.5,-242 877.5,-242 889.5,-254 877.5,-266"/>
<text text-anchor="middle" x="833.5" y="-250.3" font-family="Times,serif" font-size="14.00">rsyslog_endpoint</text>
</g>
<!-- app_rsyslog&#45;&#45;app_rsyslog_requirement_rsyslog_endpoint -->
<g id="edge19" class="edge"><title>app_rsyslog&#45;&#45;app_rsyslog_requirement_rsyslog_endpoint</title>
<path fill="none" stroke="black" d="M737.503,-268.03C750.757,-266.073 764.515,-264.041 777.308,-262.151"/>
</g>
<!-- app_rsyslog_requirement_host&#45;&#45;app_server_capability_host -->
<g id="edge42" class="edge"><title>app_rsyslog_requirement_host&#45;&#45;app_server_capability_host</title>
<path fill="none" stroke="black" stroke-dasharray="1,5" d="M860.624,-313.813C874.164,-318.192 889.759,-325.634 899,-338 935.047,-386.234 888.876,-419.861 919,-472 921.036,-475.524 923.726,-478.763 926.704,-481.68"/>
</g>
<!-- app_rsyslog_requirement_rsyslog_endpoint&#45;&#45;logstash_capability_app -->
<g id="edge43" class="edge"><title>app_rsyslog_requirement_rsyslog_endpoint&#45;&#45;logstash_capability_app</title>
<path fill="none" stroke="black" stroke-dasharray="1,5" d="M885.314,-272.071C890.152,-274.72 894.808,-277.69 899,-281 918.471,-296.376 934.264,-320.492 943.631,-336.986"/>
</g>
<!-- app_server -->
<g id="node29" class="node"><title>app_server</title>
<path fill="none" stroke="black" d="M1029.5,-427.5C1029.5,-427.5 1144.5,-427.5 1144.5,-427.5 1150.5,-427.5 1156.5,-433.5 1156.5,-439.5 1156.5,-439.5 1156.5,-510.5 1156.5,-510.5 1156.5,-516.5 1150.5,-522.5 1144.5,-522.5 1144.5,-522.5 1029.5,-522.5 1029.5,-522.5 1023.5,-522.5 1017.5,-516.5 1017.5,-510.5 1017.5,-510.5 1017.5,-439.5 1017.5,-439.5 1017.5,-433.5 1023.5,-427.5 1029.5,-427.5"/>
<text text-anchor="middle" x="1087" y="-507.3" font-family="Times,serif" font-size="14.00">app_server: Compute</text>
<polyline fill="none" stroke="black" points="1017.5,-499.5 1156.5,-499.5 "/>
</g>
<!-- app_server_capability_host&#45;&#45;app_server -->
<g id="edge20" class="edge"><title>app_server_capability_host&#45;&#45;app_server</title>
<path fill="none" stroke="black" d="M981.195,-494.201C991.723,-492.272 1004.4,-489.949 1017.25,-487.596"/>
</g>
<!-- app_server_capability_os -->
<g id="node31" class="node"><title>app_server_capability_os</title>
<polygon fill="orange" stroke="black" points="969,-457 927,-457 927,-433 969,-433 981,-445 969,-457"/>
<text text-anchor="middle" x="954" y="-441.3" font-family="Times,serif" font-size="14.00">os</text>
</g>
<!-- app_server_capability_os&#45;&#45;app_server -->
<g id="edge21" class="edge"><title>app_server_capability_os&#45;&#45;app_server</title>
<path fill="none" stroke="black" d="M981.195,-450.999C991.723,-453.41 1004.4,-456.313 1017.25,-459.255"/>
</g>
<!-- mongo_server -->
<g id="node32" class="node"><title>mongo_server</title>
<path fill="none" stroke="black" d="M1443.5,-16.5C1443.5,-16.5 1575.5,-16.5 1575.5,-16.5 1581.5,-16.5 1587.5,-22.5 1587.5,-28.5 1587.5,-28.5 1587.5,-99.5 1587.5,-99.5 1587.5,-105.5 1581.5,-111.5 1575.5,-111.5 1575.5,-111.5 1443.5,-111.5 1443.5,-111.5 1437.5,-111.5 1431.5,-105.5 1431.5,-99.5 1431.5,-99.5 1431.5,-28.5 1431.5,-28.5 1431.5,-22.5 1437.5,-16.5 1443.5,-16.5"/>
<text text-anchor="middle" x="1509.5" y="-96.3" font-family="Times,serif" font-size="14.00">mongo_server: Compute</text>
<polyline fill="none" stroke="black" points="1431.5,-88.5 1587.5,-88.5 "/>
</g>
<!-- mongo_server_capability_host&#45;&#45;mongo_server -->
<g id="edge22" class="edge"><title>mongo_server_capability_host&#45;&#45;mongo_server</title>
<path fill="none" stroke="black" d="M1390.17,-88.5672C1401.96,-86.1189 1416.56,-83.0869 1431.44,-79.9982"/>
</g>
<!-- mongo_server_capability_os -->
<g id="node34" class="node"><title>mongo_server_capability_os</title>
<polygon fill="orange" stroke="black" points="1378,-52 1336,-52 1336,-28 1378,-28 1390,-40 1378,-52"/>
<text text-anchor="middle" x="1363" y="-36.3" font-family="Times,serif" font-size="14.00">os</text>
</g>
<!-- mongo_server_capability_os&#45;&#45;mongo_server -->
<g id="edge23" class="edge"><title>mongo_server_capability_os&#45;&#45;mongo_server</title>
<path fill="none" stroke="black" d="M1390.17,-44.3462C1401.96,-46.3049 1416.56,-48.7305 1431.44,-51.2014"/>
</g>
<!-- elasticsearch_server -->
<g id="node35" class="node"><title>elasticsearch_server</title>
<path fill="none" stroke="black" d="M1821,-229.5C1821,-229.5 1985,-229.5 1985,-229.5 1991,-229.5 1997,-235.5 1997,-241.5 1997,-241.5 1997,-312.5 1997,-312.5 1997,-318.5 1991,-324.5 1985,-324.5 1985,-324.5 1821,-324.5 1821,-324.5 1815,-324.5 1809,-318.5 1809,-312.5 1809,-312.5 1809,-241.5 1809,-241.5 1809,-235.5 1815,-229.5 1821,-229.5"/>
<text text-anchor="middle" x="1903" y="-309.3" font-family="Times,serif" font-size="14.00">elasticsearch_server: Compute</text>
<polyline fill="none" stroke="black" points="1809,-301.5 1997,-301.5 "/>
</g>
<!-- elasticsearch_server_capability_host&#45;&#45;elasticsearch_server -->
<g id="edge24" class="edge"><title>elasticsearch_server_capability_host&#45;&#45;elasticsearch_server</title>
<path fill="none" stroke="black" d="M1773.29,-299.42C1783.49,-297.644 1795.82,-295.497 1808.76,-293.242"/>
</g>
<!-- elasticsearch_server_capability_os -->
<g id="node37" class="node"><title>elasticsearch_server_capability_os</title>
<polygon fill="orange" stroke="black" points="1761,-262 1719,-262 1719,-238 1761,-238 1773,-250 1761,-262"/>
<text text-anchor="middle" x="1746" y="-246.3" font-family="Times,serif" font-size="14.00">os</text>
</g>
<!-- elasticsearch_server_capability_os&#45;&#45;elasticsearch_server -->
<g id="edge25" class="edge"><title>elasticsearch_server_capability_os&#45;&#45;elasticsearch_server</title>
<path fill="none" stroke="black" d="M1773.29,-254.58C1783.49,-256.356 1795.82,-258.503 1808.76,-260.758"/>
</g>
<!-- logstash_server -->
<g id="node38" class="node"><title>logstash_server</title>
<path fill="none" stroke="black" d="M1440.5,-376.5C1440.5,-376.5 1578.5,-376.5 1578.5,-376.5 1584.5,-376.5 1590.5,-382.5 1590.5,-388.5 1590.5,-388.5 1590.5,-459.5 1590.5,-459.5 1590.5,-465.5 1584.5,-471.5 1578.5,-471.5 1578.5,-471.5 1440.5,-471.5 1440.5,-471.5 1434.5,-471.5 1428.5,-465.5 1428.5,-459.5 1428.5,-459.5 1428.5,-388.5 1428.5,-388.5 1428.5,-382.5 1434.5,-376.5 1440.5,-376.5"/>
<text text-anchor="middle" x="1509.5" y="-456.3" font-family="Times,serif" font-size="14.00">logstash_server: Compute</text>
<polyline fill="none" stroke="black" points="1428.5,-448.5 1590.5,-448.5 "/>
</g>
<!-- logstash_server_capability_host&#45;&#45;logstash_server -->
<g id="edge26" class="edge"><title>logstash_server_capability_host&#45;&#45;logstash_server</title>
<path fill="none" stroke="black" d="M1390.17,-443.654C1401.15,-441.83 1414.56,-439.602 1428.37,-437.309"/>
</g>
<!-- logstash_server_capability_os -->
<g id="node40" class="node"><title>logstash_server_capability_os</title>
<polygon fill="orange" stroke="black" points="1378,-406 1336,-406 1336,-382 1378,-382 1390,-394 1378,-406"/>
<text text-anchor="middle" x="1363" y="-390.3" font-family="Times,serif" font-size="14.00">os</text>
</g>
<!-- logstash_server_capability_os&#45;&#45;logstash_server -->
<g id="edge27" class="edge"><title>logstash_server_capability_os&#45;&#45;logstash_server</title>
<path fill="none" stroke="black" d="M1390.17,-399.433C1401.15,-401.712 1414.56,-404.498 1428.37,-407.364"/>
</g>
<!-- kibana_server -->
<g id="node41" class="node"><title>kibana_server</title>
<path fill="none" stroke="black" d="M1444,-136.5C1444,-136.5 1575,-136.5 1575,-136.5 1581,-136.5 1587,-142.5 1587,-148.5 1587,-148.5 1587,-219.5 1587,-219.5 1587,-225.5 1581,-231.5 1575,-231.5 1575,-231.5 1444,-231.5 1444,-231.5 1438,-231.5 1432,-225.5 1432,-219.5 1432,-219.5 1432,-148.5 1432,-148.5 1432,-142.5 1438,-136.5 1444,-136.5"/>
<text text-anchor="middle" x="1509.5" y="-216.3" font-family="Times,serif" font-size="14.00">kibana_server: Compute</text>
<polyline fill="none" stroke="black" points="1432,-208.5 1587,-208.5 "/>
</g>
<!-- kibana_server_capability_host&#45;&#45;kibana_server -->
<g id="edge28" class="edge"><title>kibana_server_capability_host&#45;&#45;kibana_server</title>
<path fill="none" stroke="black" d="M1390.17,-206.111C1402.04,-203.892 1416.77,-201.141 1431.75,-198.341"/>
</g>
<!-- kibana_server_capability_os -->
<g id="node43" class="node"><title>kibana_server_capability_os</title>
<polygon fill="orange" stroke="black" points="1378,-169 1336,-169 1336,-145 1378,-145 1390,-157 1378,-169"/>
<text text-anchor="middle" x="1363" y="-153.3" font-family="Times,serif" font-size="14.00">os</text>
</g>
<!-- kibana_server_capability_os&#45;&#45;kibana_server -->
<g id="edge29" class="edge"><title>kibana_server_capability_os&#45;&#45;kibana_server</title>
<path fill="none" stroke="black" d="M1390.17,-161.889C1402.04,-164.108 1416.77,-166.859 1431.75,-169.659"/>
</g>
</g>
</svg>
