<?xml version="1.0" encoding="UTF-8" standalone="no"?>
<!DOCTYPE svg PUBLIC "-//W3C//DTD SVG 1.1//EN"
 "http://www.w3.org/Graphics/SVG/1.1/DTD/svg11.dtd">
<!-- Generated by graphviz version 2.38.0 (20140413.2041)
 -->
<!-- Title: ToscaDiagram Pages: 1 -->
<svg width="507pt" height="304pt"
 viewBox="0.00 0.00 507.00 304.00" xmlns="http://www.w3.org/2000/svg" xmlns:xlink="http://www.w3.org/1999/xlink">
<g id="graph0" class="graph" transform="scale(1 1) rotate(0) translate(4 300)">
<title>ToscaDiagram</title>
<polygon fill="white" stroke="none" points="-4,4 -4,-300 503,-300 503,4 -4,4"/>
<g id="clust1" class="cluster"><title>clustermy_server</title>
<polygon fill="none" stroke="white" points="235,-8 235,-168 486.5,-168 486.5,-8 235,-8"/>
</g>
<g id="clust2" class="cluster"><title>clustermy_network</title>
<polygon fill="none" stroke="white" points="237.5,-176 237.5,-288 491,-288 491,-176 237.5,-176"/>
</g>
<g id="clust3" class="cluster"><title>clustermy_port</title>
<polygon fill="none" stroke="white" points="8,-39 8,-151 215,-151 215,-39 8,-39"/>
</g>
<!-- my_server -->
<g id="node1" class="node"><title>my_server</title>
<path fill="none" stroke="black" d="M354.5,-40.5C354.5,-40.5 466.5,-40.5 466.5,-40.5 472.5,-40.5 478.5,-46.5 478.5,-52.5 478.5,-52.5 478.5,-123.5 478.5,-123.5 478.5,-129.5 472.5,-135.5 466.5,-135.5 466.5,-135.5 354.5,-135.5 354.5,-135.5 348.5,-135.5 342.5,-129.5 342.5,-123.5 342.5,-123.5 342.5,-52.5 342.5,-52.5 342.5,-46.5 348.5,-40.5 354.5,-40.5"/>
<text text-anchor="middle" x="410.5" y="-120.3" font-family="Times,serif" font-size="14.00">my_server: Compute</text>
<polyline fill="none" stroke="black" points="342.5,-112.5 478.5,-112.5 "/>
</g>
<!-- my_server_capability_host -->
<g id="node2" class="node"><title>my_server_capability_host</title>
<polygon fill="orange" stroke="black" points="287.5,-154 245.5,-154 245.5,-130 287.5,-130 299.5,-142 287.5,-154"/>
<text text-anchor="middle" x="272.5" y="-138.3" font-family="Times,serif" font-size="14.00">host</text>
</g>
<!-- my_server_capability_host&#45;&#45;my_server -->
<g id="edge1" class="edge"><title>my_server_capability_host&#45;&#45;my_server</title>
<path fill="none" stroke="black" d="M299.722,-131.588C311.995,-126.715 327.232,-120.665 342.409,-114.639"/>
</g>
<!-- my_server_capability_os -->
<g id="node3" class="node"><title>my_server_capability_os</title>
<polygon fill="orange" stroke="black" points="287.5,-100 245.5,-100 245.5,-76 287.5,-76 299.5,-88 287.5,-100"/>
<text text-anchor="middle" x="272.5" y="-84.3" font-family="Times,serif" font-size="14.00">os</text>
</g>
<!-- my_server_capability_os&#45;&#45;my_server -->
<g id="edge2" class="edge"><title>my_server_capability_os&#45;&#45;my_server</title>
<path fill="none" stroke="black" d="M299.722,-88C311.995,-88 327.232,-88 342.409,-88"/>
</g>
<!-- my_server_capability_binding -->
<g id="node4" class="node"><title>my_server_capability_binding</title>
<polygon fill="orange" stroke="black" points="290,-46 243,-46 243,-22 290,-22 302,-34 290,-46"/>
<text text-anchor="middle" x="272.5" y="-30.3" font-family="Times,serif" font-size="14.00">binding</text>
</g>
<!-- my_server_capability_binding&#45;&#45;my_server -->
<g id="edge3" class="edge"><title>my_server_capability_binding&#45;&#45;my_server</title>
<path fill="none" stroke="black" d="M302.01,-45.3202C313.849,-50.021 328.133,-55.6924 342.365,-61.3436"/>
</g>
<!-- my_network -->
<g id="node5" class="node"><title>my_network</title>
<path fill="none" stroke="black" d="M350,-184.5C350,-184.5 471,-184.5 471,-184.5 477,-184.5 483,-190.5 483,-196.5 483,-196.5 483,-267.5 483,-267.5 483,-273.5 477,-279.5 471,-279.5 471,-279.5 350,-279.5 350,-279.5 344,-279.5 338,-273.5 338,-267.5 338,-267.5 338,-196.5 338,-196.5 338,-190.5 344,-184.5 350,-184.5"/>
<text text-anchor="middle" x="410.5" y="-264.3" font-family="Times,serif" font-size="14.00">my_network: Network</text>
<polyline fill="none" stroke="black" points="338,-256.5 483,-256.5 "/>
</g>
<!-- my_network_capability_link -->
<g id="node6" class="node"><title>my_network_capability_link</title>
<polygon fill="orange" stroke="black" points="287.5,-229 245.5,-229 245.5,-205 287.5,-205 299.5,-217 287.5,-229"/>
<text text-anchor="middle" x="272.5" y="-213.3" font-family="Times,serif" font-size="14.00">link</text>
</g>
<!-- my_network_capability_link&#45;&#45;my_network -->
<g id="edge4" class="edge"><title>my_network_capability_link&#45;&#45;my_network</title>
<path fill="none" stroke="black" d="M299.722,-219.892C310.76,-221.11 324.196,-222.591 337.828,-224.095"/>
</g>
<!-- my_port -->
<g id="node7" class="node"><title>my_port</title>
<path fill="none" stroke="black" d="M28,-47.5C28,-47.5 100,-47.5 100,-47.5 106,-47.5 112,-53.5 112,-59.5 112,-59.5 112,-130.5 112,-130.5 112,-136.5 106,-142.5 100,-142.5 100,-142.5 28,-142.5 28,-142.5 22,-142.5 16,-136.5 16,-130.5 16,-130.5 16,-59.5 16,-59.5 16,-53.5 22,-47.5 28,-47.5"/>
<text text-anchor="middle" x="64" y="-127.3" font-family="Times,serif" font-size="14.00">my_port: Port</text>
<polyline fill="none" stroke="black" points="16,-119.5 112,-119.5 "/>
</g>
<!-- my_port_requirement_link -->
<g id="node8" class="node"><title>my_port_requirement_link</title>
<polygon fill="turquoise" stroke="black" points="192.5,-135 150.5,-135 150.5,-111 192.5,-111 204.5,-123 192.5,-135"/>
<text text-anchor="middle" x="177.5" y="-119.3" font-family="Times,serif" font-size="14.00">link</text>
</g>
<!-- my_port&#45;&#45;my_port_requirement_link -->
<g id="edge5" class="edge"><title>my_port&#45;&#45;my_port_requirement_link</title>
<path fill="none" stroke="black" d="M112.286,-106.875C125.344,-110.154 139.036,-113.592 150.407,-116.447"/>
</g>
<!-- my_port_requirement_binding -->
<g id="node9" class="node"><title>my_port_requirement_binding</title>
<polygon fill="turquoise" stroke="black" points="195,-78 148,-78 148,-54 195,-54 207,-66 195,-78"/>
<text text-anchor="middle" x="177.5" y="-62.3" font-family="Times,serif" font-size="14.00">binding</text>
</g>
<!-- my_port&#45;&#45;my_port_requirement_binding -->
<g id="edge6" class="edge"><title>my_port&#45;&#45;my_port_requirement_binding</title>
<path fill="none" stroke="black" d="M112.286,-82.7014C124.394,-79.5522 137.048,-76.2611 147.89,-73.4411"/>
</g>
<!-- my_port_requirement_link&#45;&#45;my_network_capability_link -->
<g id="edge8" class="edge"><title>my_port_requirement_link&#45;&#45;my_network_capability_link</title>
<path fill="none" stroke="black" stroke-dasharray="1,5" d="M196.431,-141.124C212.9,-157.769 237.173,-182.304 253.624,-198.931"/>
</g>
<!-- my_port_requirement_binding&#45;&#45;my_server_capability_binding -->
<g id="edge7" class="edge"><title>my_port_requirement_binding&#45;&#45;my_server_capability_binding</title>
<path fill="none" stroke="black" stroke-dasharray="1,5" d="M207.162,-56.1378C218.476,-52.2447 231.452,-47.78 242.773,-43.8847"/>
</g>
</g>
</svg>
