<?xml version="1.0" encoding="UTF-8" standalone="no"?>
<!DOCTYPE svg PUBLIC "-//W3C//DTD SVG 1.1//EN"
 "http://www.w3.org/Graphics/SVG/1.1/DTD/svg11.dtd">
<!-- Generated by graphviz version 2.38.0 (20140413.2041)
 -->
<!-- Title: ToscaDiagram Pages: 1 -->
<svg width="654pt" height="652pt"
 viewBox="0.00 0.00 654.00 652.00" xmlns="http://www.w3.org/2000/svg" xmlns:xlink="http://www.w3.org/1999/xlink">
<g id="graph0" class="graph" transform="scale(1 1) rotate(0) translate(4 648)">
<title>ToscaDiagram</title>
<polygon fill="white" stroke="none" points="-4,4 -4,-648 650,-648 650,4 -4,4"/>
<g id="clust1" class="cluster"><title>clustermy_server</title>
<polygon fill="none" stroke="white" points="243,-128 243,-396 638,-396 638,-128 243,-128"/>
</g>
<g id="clust2" class="cluster"><title>clustermy_network1</title>
<polygon fill="none" stroke="white" points="248.5,-524 248.5,-636 512,-636 512,-524 248.5,-524"/>
</g>
<g id="clust3" class="cluster"><title>clustermy_network2</title>
<polygon fill="none" stroke="white" points="248.5,-404 248.5,-516 512,-516 512,-404 248.5,-404"/>
</g>
<g id="clust4" class="cluster"><title>clustermy_network3</title>
<polygon fill="none" stroke="white" points="248.5,-8 248.5,-120 512,-120 512,-8 248.5,-8"/>
</g>
<g id="clust5" class="cluster"><title>clustermy_port1</title>
<polygon fill="none" stroke="white" points="8,-476 8,-588 223,-588 223,-476 8,-476"/>
</g>
<g id="clust6" class="cluster"><title>clustermy_port2</title>
<polygon fill="none" stroke="white" points="8,-346 8,-458 223,-458 223,-346 8,-346"/>
</g>
<g id="clust7" class="cluster"><title>clustermy_port3</title>
<polygon fill="none" stroke="white" points="8,-133 8,-245 223,-245 223,-133 8,-133"/>
</g>
<!-- my_server -->
<g id="node1" class="node"><title>my_server</title>
<path fill="none" stroke="black" d="M372,-214.5C372,-214.5 484,-214.5 484,-214.5 490,-214.5 496,-220.5 496,-226.5 496,-226.5 496,-297.5 496,-297.5 496,-303.5 490,-309.5 484,-309.5 484,-309.5 372,-309.5 372,-309.5 366,-309.5 360,-303.5 360,-297.5 360,-297.5 360,-226.5 360,-226.5 360,-220.5 366,-214.5 372,-214.5"/>
<text text-anchor="middle" x="428" y="-294.3" font-family="Times,serif" font-size="14.00">my_server: Compute</text>
<polyline fill="none" stroke="black" points="360,-286.5 496,-286.5 "/>
</g>
<!-- my_server_requirement_local_storage -->
<g id="node7" class="node"><title>my_server_requirement_local_storage</title>
<polygon fill="turquoise" stroke="black" points="618,-274 540,-274 540,-250 618,-250 630,-262 618,-274"/>
<text text-anchor="middle" x="585" y="-258.3" font-family="Times,serif" font-size="14.00">local_storage</text>
</g>
<!-- my_server&#45;&#45;my_server_requirement_local_storage -->
<g id="edge6" class="edge"><title>my_server&#45;&#45;my_server_requirement_local_storage</title>
<path fill="none" stroke="black" d="M496.084,-262C510.811,-262 526.049,-262 539.619,-262"/>
</g>
<!-- my_server_capability_host -->
<g id="node2" class="node"><title>my_server_capability_host</title>
<polygon fill="orange" stroke="black" points="298.5,-328 256.5,-328 256.5,-304 298.5,-304 310.5,-316 298.5,-328"/>
<text text-anchor="middle" x="283.5" y="-312.3" font-family="Times,serif" font-size="14.00">host</text>
</g>
<!-- my_server_capability_host&#45;&#45;my_server -->
<g id="edge1" class="edge"><title>my_server_capability_host&#45;&#45;my_server</title>
<path fill="none" stroke="black" d="M310.637,-306.096C324.537,-300.828 342.329,-294.086 359.796,-287.467"/>
</g>
<!-- my_server_capability_endpoint -->
<g id="node3" class="node"><title>my_server_capability_endpoint</title>
<polygon fill="orange" stroke="black" points="304,-274 251,-274 251,-250 304,-250 316,-262 304,-274"/>
<text text-anchor="middle" x="283.5" y="-258.3" font-family="Times,serif" font-size="14.00">endpoint</text>
</g>
<!-- my_server_capability_endpoint&#45;&#45;my_server -->
<g id="edge2" class="edge"><title>my_server_capability_endpoint&#45;&#45;my_server</title>
<path fill="none" stroke="black" d="M316.125,-262C329.081,-262 344.599,-262 359.864,-262"/>
</g>
<!-- my_server_capability_os -->
<g id="node4" class="node"><title>my_server_capability_os</title>
<polygon fill="orange" stroke="black" points="298.5,-220 256.5,-220 256.5,-196 298.5,-196 310.5,-208 298.5,-220"/>
<text text-anchor="middle" x="283.5" y="-204.3" font-family="Times,serif" font-size="14.00">os</text>
</g>
<!-- my_server_capability_os&#45;&#45;my_server -->
<g id="edge3" class="edge"><title>my_server_capability_os&#45;&#45;my_server</title>
<path fill="none" stroke="black" d="M310.637,-217.904C324.537,-223.172 342.329,-229.914 359.796,-236.533"/>
</g>
<!-- my_server_capability_scalable -->
<g id="node5" class="node"><title>my_server_capability_scalable</title>
<polygon fill="orange" stroke="black" points="302,-166 253,-166 253,-142 302,-142 314,-154 302,-166"/>
<text text-anchor="middle" x="283.5" y="-150.3" font-family="Times,serif" font-size="14.00">scalable</text>
</g>
<!-- my_server_capability_scalable&#45;&#45;my_server -->
<g id="edge4" class="edge"><title>my_server_capability_scalable&#45;&#45;my_server</title>
<path fill="none" stroke="black" d="M308.351,-172.077C323.643,-183.666 344.265,-199.296 364.027,-214.273"/>
</g>
<!-- my_server_capability_binding -->
<g id="node6" class="node"><title>my_server_capability_binding</title>
<polygon fill="orange" stroke="black" points="301,-382 254,-382 254,-358 301,-358 313,-370 301,-382"/>
<text text-anchor="middle" x="283.5" y="-366.3" font-family="Times,serif" font-size="14.00">binding</text>
</g>
<!-- my_server_capability_binding&#45;&#45;my_server -->
<g id="edge5" class="edge"><title>my_server_capability_binding&#45;&#45;my_server</title>
<path fill="none" stroke="black" d="M308.351,-351.923C323.643,-340.334 344.265,-324.704 364.027,-309.727"/>
</g>
<!-- my_network1 -->
<g id="node8" class="node"><title>my_network1</title>
<path fill="none" stroke="black" d="M364,-532.5C364,-532.5 492,-532.5 492,-532.5 498,-532.5 504,-538.5 504,-544.5 504,-544.5 504,-615.5 504,-615.5 504,-621.5 498,-627.5 492,-627.5 492,-627.5 364,-627.5 364,-627.5 358,-627.5 352,-621.5 352,-615.5 352,-615.5 352,-544.5 352,-544.5 352,-538.5 358,-532.5 364,-532.5"/>
<text text-anchor="middle" x="428" y="-612.3" font-family="Times,serif" font-size="14.00">my_network1: Network</text>
<polyline fill="none" stroke="black" points="352,-604.5 504,-604.5 "/>
</g>
<!-- my_network1_capability_link -->
<g id="node9" class="node"><title>my_network1_capability_link</title>
<polygon fill="orange" stroke="black" points="298.5,-577 256.5,-577 256.5,-553 298.5,-553 310.5,-565 298.5,-577"/>
<text text-anchor="middle" x="283.5" y="-561.3" font-family="Times,serif" font-size="14.00">link</text>
</g>
<!-- my_network1_capability_link&#45;&#45;my_network1 -->
<g id="edge7" class="edge"><title>my_network1_capability_link&#45;&#45;my_network1</title>
<path fill="none" stroke="black" d="M310.637,-567.751C322.448,-568.995 337.069,-570.534 351.913,-572.096"/>
</g>
<!-- my_network2 -->
<g id="node10" class="node"><title>my_network2</title>
<path fill="none" stroke="black" d="M364,-412.5C364,-412.5 492,-412.5 492,-412.5 498,-412.5 504,-418.5 504,-424.5 504,-424.5 504,-495.5 504,-495.5 504,-501.5 498,-507.5 492,-507.5 492,-507.5 364,-507.5 364,-507.5 358,-507.5 352,-501.5 352,-495.5 352,-495.5 352,-424.5 352,-424.5 352,-418.5 358,-412.5 364,-412.5"/>
<text text-anchor="middle" x="428" y="-492.3" font-family="Times,serif" font-size="14.00">my_network2: Network</text>
<polyline fill="none" stroke="black" points="352,-484.5 504,-484.5 "/>
</g>
<!-- my_network2_capability_link -->
<g id="node11" class="node"><title>my_network2_capability_link</title>
<polygon fill="orange" stroke="black" points="298.5,-457 256.5,-457 256.5,-433 298.5,-433 310.5,-445 298.5,-457"/>
<text text-anchor="middle" x="283.5" y="-441.3" font-family="Times,serif" font-size="14.00">link</text>
</g>
<!-- my_network2_capability_link&#45;&#45;my_network2 -->
<g id="edge8" class="edge"><title>my_network2_capability_link&#45;&#45;my_network2</title>
<path fill="none" stroke="black" d="M310.637,-447.751C322.448,-448.995 337.069,-450.534 351.913,-452.096"/>
</g>
<!-- my_network3 -->
<g id="node12" class="node"><title>my_network3</title>
<path fill="none" stroke="black" d="M364,-16.5C364,-16.5 492,-16.5 492,-16.5 498,-16.5 504,-22.5 504,-28.5 504,-28.5 504,-99.5 504,-99.5 504,-105.5 498,-111.5 492,-111.5 492,-111.5 364,-111.5 364,-111.5 358,-111.5 352,-105.5 352,-99.5 352,-99.5 352,-28.5 352,-28.5 352,-22.5 358,-16.5 364,-16.5"/>
<text text-anchor="middle" x="428" y="-96.3" font-family="Times,serif" font-size="14.00">my_network3: Network</text>
<polyline fill="none" stroke="black" points="352,-88.5 504,-88.5 "/>
</g>
<!-- my_network3_capability_link -->
<g id="node13" class="node"><title>my_network3_capability_link</title>
<polygon fill="orange" stroke="black" points="298.5,-91 256.5,-91 256.5,-67 298.5,-67 310.5,-79 298.5,-91"/>
<text text-anchor="middle" x="283.5" y="-75.3" font-family="Times,serif" font-size="14.00">link</text>
</g>
<!-- my_network3_capability_link&#45;&#45;my_network3 -->
<g id="edge9" class="edge"><title>my_network3_capability_link&#45;&#45;my_network3</title>
<path fill="none" stroke="black" d="M310.637,-76.2488C322.448,-75.0055 337.069,-73.4664 351.913,-71.9039"/>
</g>
<!-- my_port1 -->
<g id="node14" class="node"><title>my_port1</title>
<path fill="none" stroke="black" d="M28,-484.5C28,-484.5 108,-484.5 108,-484.5 114,-484.5 120,-490.5 120,-496.5 120,-496.5 120,-567.5 120,-567.5 120,-573.5 114,-579.5 108,-579.5 108,-579.5 28,-579.5 28,-579.5 22,-579.5 16,-573.5 16,-567.5 16,-567.5 16,-496.5 16,-496.5 16,-490.5 22,-484.5 28,-484.5"/>
<text text-anchor="middle" x="68" y="-564.3" font-family="Times,serif" font-size="14.00">my_port1: Port</text>
<polyline fill="none" stroke="black" points="16,-556.5 120,-556.5 "/>
</g>
<!-- my_port1_requirement_link -->
<g id="node15" class="node"><title>my_port1_requirement_link</title>
<polygon fill="turquoise" stroke="black" points="200.5,-572 158.5,-572 158.5,-548 200.5,-548 212.5,-560 200.5,-572"/>
<text text-anchor="middle" x="185.5" y="-556.3" font-family="Times,serif" font-size="14.00">link</text>
</g>
<!-- my_port1&#45;&#45;my_port1_requirement_link -->
<g id="edge10" class="edge"><title>my_port1&#45;&#45;my_port1_requirement_link</title>
<path fill="none" stroke="black" d="M120.333,-544.444C133.467,-547.628 147.049,-550.921 158.317,-553.653"/>
</g>
<!-- my_port1_requirement_binding -->
<g id="node16" class="node"><title>my_port1_requirement_binding</title>
<polygon fill="turquoise" stroke="black" points="203,-517 156,-517 156,-493 203,-493 215,-505 203,-517"/>
<text text-anchor="middle" x="185.5" y="-501.3" font-family="Times,serif" font-size="14.00">binding</text>
</g>
<!-- my_port1&#45;&#45;my_port1_requirement_binding -->
<g id="edge11" class="edge"><title>my_port1&#45;&#45;my_port1_requirement_binding</title>
<path fill="none" stroke="black" d="M120.333,-520C132.503,-517.155 145.058,-514.22 155.8,-511.709"/>
</g>
<!-- my_port1_requirement_link&#45;&#45;my_network1_capability_link -->
<g id="edge17" class="edge"><title>my_port1_requirement_link&#45;&#45;my_network1_capability_link</title>
<path fill="none" stroke="black" stroke-dasharray="1,5" d="M212.732,-561.366C226.278,-562.072 242.758,-562.93 256.299,-563.635"/>
</g>
<!-- my_port1_requirement_binding&#45;&#45;my_server_capability_binding -->
<g id="edge16" class="edge"><title>my_port1_requirement_binding&#45;&#45;my_server_capability_binding</title>
<path fill="none" stroke="black" stroke-dasharray="1,5" d="M204.584,-486.935C211.094,-479.663 218.047,-470.898 223,-462 237.082,-436.702 226.256,-423.621 243,-400 246.088,-395.644 249.996,-391.639 254.148,-388.069"/>
</g>
<!-- my_port2 -->
<g id="node17" class="node"><title>my_port2</title>
<path fill="none" stroke="black" d="M28,-354.5C28,-354.5 108,-354.5 108,-354.5 114,-354.5 120,-360.5 120,-366.5 120,-366.5 120,-437.5 120,-437.5 120,-443.5 114,-449.5 108,-449.5 108,-449.5 28,-449.5 28,-449.5 22,-449.5 16,-443.5 16,-437.5 16,-437.5 16,-366.5 16,-366.5 16,-360.5 22,-354.5 28,-354.5"/>
<text text-anchor="middle" x="68" y="-434.3" font-family="Times,serif" font-size="14.00">my_port2: Port</text>
<polyline fill="none" stroke="black" points="16,-426.5 120,-426.5 "/>
</g>
<!-- my_port2_requirement_link -->
<g id="node18" class="node"><title>my_port2_requirement_link</title>
<polygon fill="turquoise" stroke="black" points="200.5,-442 158.5,-442 158.5,-418 200.5,-418 212.5,-430 200.5,-442"/>
<text text-anchor="middle" x="185.5" y="-426.3" font-family="Times,serif" font-size="14.00">link</text>
</g>
<!-- my_port2&#45;&#45;my_port2_requirement_link -->
<g id="edge12" class="edge"><title>my_port2&#45;&#45;my_port2_requirement_link</title>
<path fill="none" stroke="black" d="M120.333,-414.444C133.467,-417.628 147.049,-420.921 158.317,-423.653"/>
</g>
<!-- my_port2_requirement_binding -->
<g id="node19" class="node"><title>my_port2_requirement_binding</title>
<polygon fill="turquoise" stroke="black" points="203,-387 156,-387 156,-363 203,-363 215,-375 203,-387"/>
<text text-anchor="middle" x="185.5" y="-371.3" font-family="Times,serif" font-size="14.00">binding</text>
</g>
<!-- my_port2&#45;&#45;my_port2_requirement_binding -->
<g id="edge13" class="edge"><title>my_port2&#45;&#45;my_port2_requirement_binding</title>
<path fill="none" stroke="black" d="M120.333,-390C132.503,-387.155 145.058,-384.22 155.8,-381.709"/>
</g>
<!-- my_port2_requirement_link&#45;&#45;my_network2_capability_link -->
<g id="edge19" class="edge"><title>my_port2_requirement_link&#45;&#45;my_network2_capability_link</title>
<path fill="none" stroke="black" stroke-dasharray="1,5" d="M212.732,-434.099C226.278,-436.215 242.758,-438.79 256.299,-440.906"/>
</g>
<!-- my_port2_requirement_binding&#45;&#45;my_server_capability_binding -->
<g id="edge18" class="edge"><title>my_port2_requirement_binding&#45;&#45;my_server_capability_binding</title>
<path fill="none" stroke="black" stroke-dasharray="1,5" d="M215.043,-373.513C227.313,-372.874 241.625,-372.129 253.901,-371.49"/>
</g>
<!-- my_port3 -->
<g id="node20" class="node"><title>my_port3</title>
<path fill="none" stroke="black" d="M28,-141.5C28,-141.5 108,-141.5 108,-141.5 114,-141.5 120,-147.5 120,-153.5 120,-153.5 120,-224.5 120,-224.5 120,-230.5 114,-236.5 108,-236.5 108,-236.5 28,-236.5 28,-236.5 22,-236.5 16,-230.5 16,-224.5 16,-224.5 16,-153.5 16,-153.5 16,-147.5 22,-141.5 28,-141.5"/>
<text text-anchor="middle" x="68" y="-221.3" font-family="Times,serif" font-size="14.00">my_port3: Port</text>
<polyline fill="none" stroke="black" points="16,-213.5 120,-213.5 "/>
</g>
<!-- my_port3_requirement_link -->
<g id="node21" class="node"><title>my_port3_requirement_link</title>
<polygon fill="turquoise" stroke="black" points="200.5,-172 158.5,-172 158.5,-148 200.5,-148 212.5,-160 200.5,-172"/>
<text text-anchor="middle" x="185.5" y="-156.3" font-family="Times,serif" font-size="14.00">link</text>
</g>
<!-- my_port3&#45;&#45;my_port3_requirement_link -->
<g id="edge14" class="edge"><title>my_port3&#45;&#45;my_port3_requirement_link</title>
<path fill="none" stroke="black" d="M120.333,-176.111C133.467,-172.814 147.049,-169.403 158.317,-166.574"/>
</g>
<!-- my_port3_requirement_binding -->
<g id="node22" class="node"><title>my_port3_requirement_binding</title>
<polygon fill="turquoise" stroke="black" points="203,-229 156,-229 156,-205 203,-205 215,-217 203,-229"/>
<text text-anchor="middle" x="185.5" y="-213.3" font-family="Times,serif" font-size="14.00">binding</text>
</g>
<!-- my_port3&#45;&#45;my_port3_requirement_binding -->
<g id="edge15" class="edge"><title>my_port3&#45;&#45;my_port3_requirement_binding</title>
<path fill="none" stroke="black" d="M120.333,-201.444C132.503,-204.395 145.058,-207.438 155.8,-210.042"/>
</g>
<!-- my_port3_requirement_link&#45;&#45;my_network3_capability_link -->
<g id="edge21" class="edge"><title>my_port3_requirement_link&#45;&#45;my_network3_capability_link</title>
<path fill="none" stroke="black" stroke-dasharray="1,5" d="M208.284,-141.62C224.106,-128.27 245.409,-110.296 261.133,-97.0284"/>
</g>
<!-- my_port3_requirement_binding&#45;&#45;my_server_capability_binding -->
<g id="edge20" class="edge"><title>my_port3_requirement_binding&#45;&#45;my_server_capability_binding</title>
<path fill="none" stroke="black" stroke-dasharray="1,5" d="M191.289,-235.405C198.818,-261.593 215.474,-310.078 243,-343 246.09,-346.696 249.808,-350.103 253.71,-353.163"/>
</g>
</g>
</svg>
