<?xml version="1.0" encoding="UTF-8" standalone="no"?>
<!DOCTYPE svg PUBLIC "-//W3C//DTD SVG 1.1//EN"
 "http://www.w3.org/Graphics/SVG/1.1/DTD/svg11.dtd">
<!-- Generated by graphviz version 2.38.0 (20140413.2041)
 -->
<!-- Title: ToscaDiagram Pages: 1 -->
<svg width="515pt" height="472pt"
 viewBox="0.00 0.00 515.00 472.00" xmlns="http://www.w3.org/2000/svg" xmlns:xlink="http://www.w3.org/1999/xlink">
<g id="graph0" class="graph" transform="scale(1 1) rotate(0) translate(4 468)">
<title>ToscaDiagram</title>
<polygon fill="white" stroke="none" points="-4,4 -4,-468 511,-468 511,4 -4,4"/>
<g id="clust1" class="cluster"><title>clustermy_server</title>
<polygon fill="none" stroke="white" points="243,-8 243,-168 494.5,-168 494.5,-8 243,-8"/>
</g>
<g id="clust2" class="cluster"><title>clustermy_server2</title>
<polygon fill="none" stroke="white" points="243,-296 243,-456 498,-456 498,-296 243,-296"/>
</g>
<g id="clust3" class="cluster"><title>clustermy_network</title>
<polygon fill="none" stroke="white" points="245.5,-176 245.5,-288 499,-288 499,-176 245.5,-176"/>
</g>
<g id="clust4" class="cluster"><title>clustermy_port</title>
<polygon fill="none" stroke="white" points="12,-31 12,-143 223,-143 223,-31 12,-31"/>
</g>
<g id="clust5" class="cluster"><title>clustermy_port2</title>
<polygon fill="none" stroke="white" points="8,-220 8,-332 223,-332 223,-220 8,-220"/>
</g>
<!-- my_server -->
<g id="node1" class="node"><title>my_server</title>
<path fill="none" stroke="black" d="M362.5,-40.5C362.5,-40.5 474.5,-40.5 474.5,-40.5 480.5,-40.5 486.5,-46.5 486.5,-52.5 486.5,-52.5 486.5,-123.5 486.5,-123.5 486.5,-129.5 480.5,-135.5 474.5,-135.5 474.5,-135.5 362.5,-135.5 362.5,-135.5 356.5,-135.5 350.5,-129.5 350.5,-123.5 350.5,-123.5 350.5,-52.5 350.5,-52.5 350.5,-46.5 356.5,-40.5 362.5,-40.5"/>
<text text-anchor="middle" x="418.5" y="-120.3" font-family="Times,serif" font-size="14.00">my_server: Compute</text>
<polyline fill="none" stroke="black" points="350.5,-112.5 486.5,-112.5 "/>
</g>
<!-- my_server_capability_host -->
<g id="node2" class="node"><title>my_server_capability_host</title>
<polygon fill="orange" stroke="black" points="295.5,-154 253.5,-154 253.5,-130 295.5,-130 307.5,-142 295.5,-154"/>
<text text-anchor="middle" x="280.5" y="-138.3" font-family="Times,serif" font-size="14.00">host</text>
</g>
<!-- my_server_capability_host&#45;&#45;my_server -->
<g id="edge1" class="edge"><title>my_server_capability_host&#45;&#45;my_server</title>
<path fill="none" stroke="black" d="M307.722,-131.588C319.995,-126.715 335.232,-120.665 350.409,-114.639"/>
</g>
<!-- my_server_capability_os -->
<g id="node3" class="node"><title>my_server_capability_os</title>
<polygon fill="orange" stroke="black" points="295.5,-100 253.5,-100 253.5,-76 295.5,-76 307.5,-88 295.5,-100"/>
<text text-anchor="middle" x="280.5" y="-84.3" font-family="Times,serif" font-size="14.00">os</text>
</g>
<!-- my_server_capability_os&#45;&#45;my_server -->
<g id="edge2" class="edge"><title>my_server_capability_os&#45;&#45;my_server</title>
<path fill="none" stroke="black" d="M307.722,-88C319.995,-88 335.232,-88 350.409,-88"/>
</g>
<!-- my_server_capability_binding -->
<g id="node4" class="node"><title>my_server_capability_binding</title>
<polygon fill="orange" stroke="black" points="298,-46 251,-46 251,-22 298,-22 310,-34 298,-46"/>
<text text-anchor="middle" x="280.5" y="-30.3" font-family="Times,serif" font-size="14.00">binding</text>
</g>
<!-- my_server_capability_binding&#45;&#45;my_server -->
<g id="edge3" class="edge"><title>my_server_capability_binding&#45;&#45;my_server</title>
<path fill="none" stroke="black" d="M310.01,-45.3202C321.849,-50.021 336.133,-55.6924 350.365,-61.3436"/>
</g>
<!-- my_server2 -->
<g id="node5" class="node"><title>my_server2</title>
<path fill="none" stroke="black" d="M359,-328.5C359,-328.5 478,-328.5 478,-328.5 484,-328.5 490,-334.5 490,-340.5 490,-340.5 490,-411.5 490,-411.5 490,-417.5 484,-423.5 478,-423.5 478,-423.5 359,-423.5 359,-423.5 353,-423.5 347,-417.5 347,-411.5 347,-411.5 347,-340.5 347,-340.5 347,-334.5 353,-328.5 359,-328.5"/>
<text text-anchor="middle" x="418.5" y="-408.3" font-family="Times,serif" font-size="14.00">my_server2: Compute</text>
<polyline fill="none" stroke="black" points="347,-400.5 490,-400.5 "/>
</g>
<!-- my_server2_capability_host -->
<g id="node6" class="node"><title>my_server2_capability_host</title>
<polygon fill="orange" stroke="black" points="295.5,-442 253.5,-442 253.5,-418 295.5,-418 307.5,-430 295.5,-442"/>
<text text-anchor="middle" x="280.5" y="-426.3" font-family="Times,serif" font-size="14.00">host</text>
</g>
<!-- my_server2_capability_host&#45;&#45;my_server2 -->
<g id="edge4" class="edge"><title>my_server2_capability_host&#45;&#45;my_server2</title>
<path fill="none" stroke="black" d="M307.722,-419.588C319.069,-415.083 332.949,-409.572 346.973,-404.003"/>
</g>
<!-- my_server2_capability_os -->
<g id="node7" class="node"><title>my_server2_capability_os</title>
<polygon fill="orange" stroke="black" points="295.5,-388 253.5,-388 253.5,-364 295.5,-364 307.5,-376 295.5,-388"/>
<text text-anchor="middle" x="280.5" y="-372.3" font-family="Times,serif" font-size="14.00">os</text>
</g>
<!-- my_server2_capability_os&#45;&#45;my_server2 -->
<g id="edge5" class="edge"><title>my_server2_capability_os&#45;&#45;my_server2</title>
<path fill="none" stroke="black" d="M307.722,-376C319.069,-376 332.949,-376 346.973,-376"/>
</g>
<!-- my_server2_capability_binding -->
<g id="node8" class="node"><title>my_server2_capability_binding</title>
<polygon fill="orange" stroke="black" points="298,-334 251,-334 251,-310 298,-310 310,-322 298,-334"/>
<text text-anchor="middle" x="280.5" y="-318.3" font-family="Times,serif" font-size="14.00">binding</text>
</g>
<!-- my_server2_capability_binding&#45;&#45;my_server2 -->
<g id="edge6" class="edge"><title>my_server2_capability_binding&#45;&#45;my_server2</title>
<path fill="none" stroke="black" d="M310.01,-333.32C320.915,-337.65 333.893,-342.803 346.995,-348.005"/>
</g>
<!-- my_network -->
<g id="node9" class="node"><title>my_network</title>
<path fill="none" stroke="black" d="M358,-184.5C358,-184.5 479,-184.5 479,-184.5 485,-184.5 491,-190.5 491,-196.5 491,-196.5 491,-267.5 491,-267.5 491,-273.5 485,-279.5 479,-279.5 479,-279.5 358,-279.5 358,-279.5 352,-279.5 346,-273.5 346,-267.5 346,-267.5 346,-196.5 346,-196.5 346,-190.5 352,-184.5 358,-184.5"/>
<text text-anchor="middle" x="418.5" y="-264.3" font-family="Times,serif" font-size="14.00">my_network: Network</text>
<polyline fill="none" stroke="black" points="346,-256.5 491,-256.5 "/>
</g>
<!-- my_network_capability_link -->
<g id="node10" class="node"><title>my_network_capability_link</title>
<polygon fill="orange" stroke="black" points="295.5,-244 253.5,-244 253.5,-220 295.5,-220 307.5,-232 295.5,-244"/>
<text text-anchor="middle" x="280.5" y="-228.3" font-family="Times,serif" font-size="14.00">link</text>
</g>
<!-- my_network_capability_link&#45;&#45;my_network -->
<g id="edge7" class="edge"><title>my_network_capability_link&#45;&#45;my_network</title>
<path fill="none" stroke="black" d="M307.722,-232C318.76,-232 332.196,-232 345.828,-232"/>
</g>
<!-- my_port -->
<g id="node11" class="node"><title>my_port</title>
<path fill="none" stroke="black" d="M32,-39.5C32,-39.5 104,-39.5 104,-39.5 110,-39.5 116,-45.5 116,-51.5 116,-51.5 116,-122.5 116,-122.5 116,-128.5 110,-134.5 104,-134.5 104,-134.5 32,-134.5 32,-134.5 26,-134.5 20,-128.5 20,-122.5 20,-122.5 20,-51.5 20,-51.5 20,-45.5 26,-39.5 32,-39.5"/>
<text text-anchor="middle" x="68" y="-119.3" font-family="Times,serif" font-size="14.00">my_port: Port</text>
<polyline fill="none" stroke="black" points="20,-111.5 116,-111.5 "/>
</g>
<!-- my_port_requirement_link -->
<g id="node12" class="node"><title>my_port_requirement_link</title>
<polygon fill="turquoise" stroke="black" points="200.5,-127 158.5,-127 158.5,-103 200.5,-103 212.5,-115 200.5,-127"/>
<text text-anchor="middle" x="185.5" y="-111.3" font-family="Times,serif" font-size="14.00">link</text>
</g>
<!-- my_port&#45;&#45;my_port_requirement_link -->
<g id="edge8" class="edge"><title>my_port&#45;&#45;my_port_requirement_link</title>
<path fill="none" stroke="black" d="M116.312,-98.4695C130.64,-101.943 145.856,-105.632 158.27,-108.641"/>
</g>
<!-- my_port_requirement_binding -->
<g id="node13" class="node"><title>my_port_requirement_binding</title>
<polygon fill="turquoise" stroke="black" points="203,-70 156,-70 156,-46 203,-46 215,-58 203,-70"/>
<text text-anchor="middle" x="185.5" y="-54.3" font-family="Times,serif" font-size="14.00">binding</text>
</g>
<!-- my_port&#45;&#45;my_port_requirement_binding -->
<g id="edge9" class="edge"><title>my_port&#45;&#45;my_port_requirement_binding</title>
<path fill="none" stroke="black" d="M116.312,-75.1209C129.768,-71.7422 144.007,-68.1672 155.973,-65.1627"/>
</g>
<!-- my_port_requirement_link&#45;&#45;my_network_capability_link -->
<g id="edge13" class="edge"><title>my_port_requirement_link&#45;&#45;my_network_capability_link</title>
<path fill="none" stroke="black" stroke-dasharray="1,5" d="M200.827,-133.025C218.253,-154.947 247.501,-191.744 265.003,-213.762"/>
</g>
<!-- my_port_requirement_binding&#45;&#45;my_server_capability_binding -->
<g id="edge12" class="edge"><title>my_port_requirement_binding&#45;&#45;my_server_capability_binding</title>
<path fill="none" stroke="black" stroke-dasharray="1,5" d="M215.162,-50.6034C226.476,-47.6835 239.452,-44.335 250.773,-41.4135"/>
</g>
<!-- my_port2 -->
<g id="node14" class="node"><title>my_port2</title>
<path fill="none" stroke="black" d="M28,-228.5C28,-228.5 108,-228.5 108,-228.5 114,-228.5 120,-234.5 120,-240.5 120,-240.5 120,-311.5 120,-311.5 120,-317.5 114,-323.5 108,-323.5 108,-323.5 28,-323.5 28,-323.5 22,-323.5 16,-317.5 16,-311.5 16,-311.5 16,-240.5 16,-240.5 16,-234.5 22,-228.5 28,-228.5"/>
<text text-anchor="middle" x="68" y="-308.3" font-family="Times,serif" font-size="14.00">my_port2: Port</text>
<polyline fill="none" stroke="black" points="16,-300.5 120,-300.5 "/>
</g>
<!-- my_port2_requirement_link -->
<g id="node15" class="node"><title>my_port2_requirement_link</title>
<polygon fill="turquoise" stroke="black" points="200.5,-261 158.5,-261 158.5,-237 200.5,-237 212.5,-249 200.5,-261"/>
<text text-anchor="middle" x="185.5" y="-245.3" font-family="Times,serif" font-size="14.00">link</text>
</g>
<!-- my_port2&#45;&#45;my_port2_requirement_link -->
<g id="edge10" class="edge"><title>my_port2&#45;&#45;my_port2_requirement_link</title>
<path fill="none" stroke="black" d="M120.333,-264C133.467,-260.93 147.049,-257.755 158.317,-255.121"/>
</g>
<!-- my_port2_requirement_binding -->
<g id="node16" class="node"><title>my_port2_requirement_binding</title>
<polygon fill="turquoise" stroke="black" points="203,-316 156,-316 156,-292 203,-292 215,-304 203,-316"/>
<text text-anchor="middle" x="185.5" y="-300.3" font-family="Times,serif" font-size="14.00">binding</text>
</g>
<!-- my_port2&#45;&#45;my_port2_requirement_binding -->
<g id="edge11" class="edge"><title>my_port2&#45;&#45;my_port2_requirement_binding</title>
<path fill="none" stroke="black" d="M120.333,-288.444C132.503,-291.395 145.058,-294.438 155.8,-297.042"/>
</g>
<!-- my_port2_requirement_link&#45;&#45;my_network_capability_link -->
<g id="edge15" class="edge"><title>my_port2_requirement_link&#45;&#45;my_network_capability_link</title>
<path fill="none" stroke="black" stroke-dasharray="1,5" d="M212.901,-244.174C225.575,-241.857 240.715,-239.09 253.355,-236.779"/>
</g>
<!-- my_port2_requirement_binding&#45;&#45;my_server2_capability_binding -->
<g id="edge14" class="edge"><title>my_port2_requirement_binding&#45;&#45;my_server2_capability_binding</title>
<path fill="none" stroke="black" stroke-dasharray="1,5" d="M215.162,-309.547C226.476,-311.737 239.452,-314.249 250.773,-316.44"/>
</g>
</g>
</svg>
