<?xml version="1.0" encoding="UTF-8" standalone="no"?>
<!DOCTYPE svg PUBLIC "-//W3C//DTD SVG 1.1//EN"
 "http://www.w3.org/Graphics/SVG/1.1/DTD/svg11.dtd">
<!-- Generated by graphviz version 2.38.0 (20140413.2041)
 -->
<!-- Title: ToscaDiagram Pages: 1 -->
<svg width="647pt" height="688pt"
 viewBox="0.00 0.00 647.00 688.00" xmlns="http://www.w3.org/2000/svg" xmlns:xlink="http://www.w3.org/1999/xlink">
<g id="graph0" class="graph" transform="scale(1 1) rotate(0) translate(4 684)">
<title>ToscaDiagram</title>
<polygon fill="white" stroke="none" points="-4,4 -4,-684 643,-684 643,4 -4,4"/>
<g id="clust1" class="cluster"><title>clustermy_server</title>
<polygon fill="none" stroke="white" points="243,-8 243,-276 631,-276 631,-8 243,-8"/>
</g>
<g id="clust2" class="cluster"><title>clustermy_server2</title>
<polygon fill="none" stroke="white" points="243,-404 243,-672 631,-672 631,-404 243,-404"/>
</g>
<g id="clust3" class="cluster"><title>clustermy_network</title>
<polygon fill="none" stroke="white" points="248.5,-284 248.5,-396 505,-396 505,-284 248.5,-284"/>
</g>
<g id="clust4" class="cluster"><title>clustermy_port</title>
<polygon fill="none" stroke="white" points="12,-58 12,-170 223,-170 223,-58 12,-58"/>
</g>
<g id="clust5" class="cluster"><title>clustermy_port2</title>
<polygon fill="none" stroke="white" points="8,-328 8,-440 223,-440 223,-328 8,-328"/>
</g>
<!-- my_server -->
<g id="node1" class="node"><title>my_server</title>
<path fill="none" stroke="black" d="M368.5,-94.5C368.5,-94.5 480.5,-94.5 480.5,-94.5 486.5,-94.5 492.5,-100.5 492.5,-106.5 492.5,-106.5 492.5,-177.5 492.5,-177.5 492.5,-183.5 486.5,-189.5 480.5,-189.5 480.5,-189.5 368.5,-189.5 368.5,-189.5 362.5,-189.5 356.5,-183.5 356.5,-177.5 356.5,-177.5 356.5,-106.5 356.5,-106.5 356.5,-100.5 362.5,-94.5 368.5,-94.5"/>
<text text-anchor="middle" x="424.5" y="-174.3" font-family="Times,serif" font-size="14.00">my_server: Compute</text>
<polyline fill="none" stroke="black" points="356.5,-166.5 492.5,-166.5 "/>
</g>
<!-- my_server_requirement_local_storage -->
<g id="node7" class="node"><title>my_server_requirement_local_storage</title>
<polygon fill="turquoise" stroke="black" points="611,-154 533,-154 533,-130 611,-130 623,-142 611,-154"/>
<text text-anchor="middle" x="578" y="-138.3" font-family="Times,serif" font-size="14.00">local_storage</text>
</g>
<!-- my_server&#45;&#45;my_server_requirement_local_storage -->
<g id="edge6" class="edge"><title>my_server&#45;&#45;my_server_requirement_local_storage</title>
<path fill="none" stroke="black" d="M492.832,-142C506.425,-142 520.384,-142 532.929,-142"/>
</g>
<!-- my_server_capability_host -->
<g id="node2" class="node"><title>my_server_capability_host</title>
<polygon fill="orange" stroke="black" points="298.5,-262 256.5,-262 256.5,-238 298.5,-238 310.5,-250 298.5,-262"/>
<text text-anchor="middle" x="283.5" y="-246.3" font-family="Times,serif" font-size="14.00">host</text>
</g>
<!-- my_server_capability_host&#45;&#45;my_server -->
<g id="edge1" class="edge"><title>my_server_capability_host&#45;&#45;my_server</title>
<path fill="none" stroke="black" d="M307.765,-231.923C322.681,-220.334 342.797,-204.704 362.073,-189.727"/>
</g>
<!-- my_server_capability_endpoint -->
<g id="node3" class="node"><title>my_server_capability_endpoint</title>
<polygon fill="orange" stroke="black" points="304,-208 251,-208 251,-184 304,-184 316,-196 304,-208"/>
<text text-anchor="middle" x="283.5" y="-192.3" font-family="Times,serif" font-size="14.00">endpoint</text>
</g>
<!-- my_server_capability_endpoint&#45;&#45;my_server -->
<g id="edge2" class="edge"><title>my_server_capability_endpoint&#45;&#45;my_server</title>
<path fill="none" stroke="black" d="M316.041,-183.747C328.056,-179.079 342.254,-173.563 356.325,-168.097"/>
</g>
<!-- my_server_capability_os -->
<g id="node4" class="node"><title>my_server_capability_os</title>
<polygon fill="orange" stroke="black" points="298.5,-154 256.5,-154 256.5,-130 298.5,-130 310.5,-142 298.5,-154"/>
<text text-anchor="middle" x="283.5" y="-138.3" font-family="Times,serif" font-size="14.00">os</text>
</g>
<!-- my_server_capability_os&#45;&#45;my_server -->
<g id="edge3" class="edge"><title>my_server_capability_os&#45;&#45;my_server</title>
<path fill="none" stroke="black" d="M310.645,-142C323.699,-142 340.152,-142 356.427,-142"/>
</g>
<!-- my_server_capability_scalable -->
<g id="node5" class="node"><title>my_server_capability_scalable</title>
<polygon fill="orange" stroke="black" points="302,-100 253,-100 253,-76 302,-76 314,-88 302,-100"/>
<text text-anchor="middle" x="283.5" y="-84.3" font-family="Times,serif" font-size="14.00">scalable</text>
</g>
<!-- my_server_capability_scalable&#45;&#45;my_server -->
<g id="edge4" class="edge"><title>my_server_capability_scalable&#45;&#45;my_server</title>
<path fill="none" stroke="black" d="M314.319,-99.5844C326.683,-104.388 341.568,-110.17 356.313,-115.899"/>
</g>
<!-- my_server_capability_binding -->
<g id="node6" class="node"><title>my_server_capability_binding</title>
<polygon fill="orange" stroke="black" points="301,-46 254,-46 254,-22 301,-22 313,-34 301,-46"/>
<text text-anchor="middle" x="283.5" y="-30.3" font-family="Times,serif" font-size="14.00">binding</text>
</g>
<!-- my_server_capability_binding&#45;&#45;my_server -->
<g id="edge5" class="edge"><title>my_server_capability_binding&#45;&#45;my_server</title>
<path fill="none" stroke="black" d="M307.765,-52.0768C322.681,-63.6662 342.797,-79.2958 362.073,-94.2729"/>
</g>
<!-- my_server2 -->
<g id="node8" class="node"><title>my_server2</title>
<path fill="none" stroke="black" d="M365,-490.5C365,-490.5 484,-490.5 484,-490.5 490,-490.5 496,-496.5 496,-502.5 496,-502.5 496,-573.5 496,-573.5 496,-579.5 490,-585.5 484,-585.5 484,-585.5 365,-585.5 365,-585.5 359,-585.5 353,-579.5 353,-573.5 353,-573.5 353,-502.5 353,-502.5 353,-496.5 359,-490.5 365,-490.5"/>
<text text-anchor="middle" x="424.5" y="-570.3" font-family="Times,serif" font-size="14.00">my_server2: Compute</text>
<polyline fill="none" stroke="black" points="353,-562.5 496,-562.5 "/>
</g>
<!-- my_server2_requirement_local_storage -->
<g id="node14" class="node"><title>my_server2_requirement_local_storage</title>
<polygon fill="turquoise" stroke="black" points="611,-550 533,-550 533,-526 611,-526 623,-538 611,-550"/>
<text text-anchor="middle" x="578" y="-534.3" font-family="Times,serif" font-size="14.00">local_storage</text>
</g>
<!-- my_server2&#45;&#45;my_server2_requirement_local_storage -->
<g id="edge12" class="edge"><title>my_server2&#45;&#45;my_server2_requirement_local_storage</title>
<path fill="none" stroke="black" d="M496.371,-538C508.846,-538 521.499,-538 532.968,-538"/>
</g>
<!-- my_server2_capability_host -->
<g id="node9" class="node"><title>my_server2_capability_host</title>
<polygon fill="orange" stroke="black" points="298.5,-658 256.5,-658 256.5,-634 298.5,-634 310.5,-646 298.5,-658"/>
<text text-anchor="middle" x="283.5" y="-642.3" font-family="Times,serif" font-size="14.00">host</text>
</g>
<!-- my_server2_capability_host&#45;&#45;my_server2 -->
<g id="edge7" class="edge"><title>my_server2_capability_host&#45;&#45;my_server2</title>
<path fill="none" stroke="black" d="M307.765,-627.923C322.681,-616.334 342.797,-600.704 362.073,-585.727"/>
</g>
<!-- my_server2_capability_endpoint -->
<g id="node10" class="node"><title>my_server2_capability_endpoint</title>
<polygon fill="orange" stroke="black" points="304,-604 251,-604 251,-580 304,-580 316,-592 304,-604"/>
<text text-anchor="middle" x="283.5" y="-588.3" font-family="Times,serif" font-size="14.00">endpoint</text>
</g>
<!-- my_server2_capability_endpoint&#45;&#45;my_server2 -->
<g id="edge8" class="edge"><title>my_server2_capability_endpoint&#45;&#45;my_server2</title>
<path fill="none" stroke="black" d="M316.041,-579.747C327.095,-575.452 339.997,-570.44 352.947,-565.409"/>
</g>
<!-- my_server2_capability_os -->
<g id="node11" class="node"><title>my_server2_capability_os</title>
<polygon fill="orange" stroke="black" points="298.5,-550 256.5,-550 256.5,-526 298.5,-526 310.5,-538 298.5,-550"/>
<text text-anchor="middle" x="283.5" y="-534.3" font-family="Times,serif" font-size="14.00">os</text>
</g>
<!-- my_server2_capability_os&#45;&#45;my_server2 -->
<g id="edge9" class="edge"><title>my_server2_capability_os&#45;&#45;my_server2</title>
<path fill="none" stroke="black" d="M310.645,-538C322.756,-538 337.791,-538 352.896,-538"/>
</g>
<!-- my_server2_capability_scalable -->
<g id="node12" class="node"><title>my_server2_capability_scalable</title>
<polygon fill="orange" stroke="black" points="302,-496 253,-496 253,-472 302,-472 314,-484 302,-496"/>
<text text-anchor="middle" x="283.5" y="-480.3" font-family="Times,serif" font-size="14.00">scalable</text>
</g>
<!-- my_server2_capability_scalable&#45;&#45;my_server2 -->
<g id="edge10" class="edge"><title>my_server2_capability_scalable&#45;&#45;my_server2</title>
<path fill="none" stroke="black" d="M314.319,-495.584C325.726,-500.016 339.278,-505.281 352.887,-510.568"/>
</g>
<!-- my_server2_capability_binding -->
<g id="node13" class="node"><title>my_server2_capability_binding</title>
<polygon fill="orange" stroke="black" points="301,-442 254,-442 254,-418 301,-418 313,-430 301,-442"/>
<text text-anchor="middle" x="283.5" y="-426.3" font-family="Times,serif" font-size="14.00">binding</text>
</g>
<!-- my_server2_capability_binding&#45;&#45;my_server2 -->
<g id="edge11" class="edge"><title>my_server2_capability_binding&#45;&#45;my_server2</title>
<path fill="none" stroke="black" d="M307.765,-448.077C322.681,-459.666 342.797,-475.296 362.073,-490.273"/>
</g>
<!-- my_network -->
<g id="node15" class="node"><title>my_network</title>
<path fill="none" stroke="black" d="M364,-292.5C364,-292.5 485,-292.5 485,-292.5 491,-292.5 497,-298.5 497,-304.5 497,-304.5 497,-375.5 497,-375.5 497,-381.5 491,-387.5 485,-387.5 485,-387.5 364,-387.5 364,-387.5 358,-387.5 352,-381.5 352,-375.5 352,-375.5 352,-304.5 352,-304.5 352,-298.5 358,-292.5 364,-292.5"/>
<text text-anchor="middle" x="424.5" y="-372.3" font-family="Times,serif" font-size="14.00">my_network: Network</text>
<polyline fill="none" stroke="black" points="352,-364.5 497,-364.5 "/>
</g>
<!-- my_network_capability_link -->
<g id="node16" class="node"><title>my_network_capability_link</title>
<polygon fill="orange" stroke="black" points="298.5,-352 256.5,-352 256.5,-328 298.5,-328 310.5,-340 298.5,-352"/>
<text text-anchor="middle" x="283.5" y="-336.3" font-family="Times,serif" font-size="14.00">link</text>
</g>
<!-- my_network_capability_link&#45;&#45;my_network -->
<g id="edge13" class="edge"><title>my_network_capability_link&#45;&#45;my_network</title>
<path fill="none" stroke="black" d="M310.645,-340C322.441,-340 337.012,-340 351.719,-340"/>
</g>
<!-- my_port -->
<g id="node17" class="node"><title>my_port</title>
<path fill="none" stroke="black" d="M32,-66.5C32,-66.5 104,-66.5 104,-66.5 110,-66.5 116,-72.5 116,-78.5 116,-78.5 116,-149.5 116,-149.5 116,-155.5 110,-161.5 104,-161.5 104,-161.5 32,-161.5 32,-161.5 26,-161.5 20,-155.5 20,-149.5 20,-149.5 20,-78.5 20,-78.5 20,-72.5 26,-66.5 32,-66.5"/>
<text text-anchor="middle" x="68" y="-146.3" font-family="Times,serif" font-size="14.00">my_port: Port</text>
<polyline fill="none" stroke="black" points="20,-138.5 116,-138.5 "/>
</g>
<!-- my_port_requirement_link -->
<g id="node18" class="node"><title>my_port_requirement_link</title>
<polygon fill="turquoise" stroke="black" points="200.5,-154 158.5,-154 158.5,-130 200.5,-130 212.5,-142 200.5,-154"/>
<text text-anchor="middle" x="185.5" y="-138.3" font-family="Times,serif" font-size="14.00">link</text>
</g>
<!-- my_port&#45;&#45;my_port_requirement_link -->
<g id="edge14" class="edge"><title>my_port&#45;&#45;my_port_requirement_link</title>
<path fill="none" stroke="black" d="M116.312,-125.469C130.64,-128.943 145.856,-132.632 158.27,-135.641"/>
</g>
<!-- my_port_requirement_binding -->
<g id="node19" class="node"><title>my_port_requirement_binding</title>
<polygon fill="turquoise" stroke="black" points="203,-97 156,-97 156,-73 203,-73 215,-85 203,-97"/>
<text text-anchor="middle" x="185.5" y="-81.3" font-family="Times,serif" font-size="14.00">binding</text>
</g>
<!-- my_port&#45;&#45;my_port_requirement_binding -->
<g id="edge15" class="edge"><title>my_port&#45;&#45;my_port_requirement_binding</title>
<path fill="none" stroke="black" d="M116.312,-102.121C129.768,-98.7422 144.007,-95.1672 155.973,-92.1627"/>
</g>
<!-- my_port_requirement_link&#45;&#45;my_network_capability_link -->
<g id="edge19" class="edge"><title>my_port_requirement_link&#45;&#45;my_network_capability_link</title>
<path fill="none" stroke="black" stroke-dasharray="1,5" d="M192.734,-160.368C202.158,-187.303 221.258,-238.783 243,-280 250.739,-294.671 261.098,-310.293 269.266,-321.917"/>
</g>
<!-- my_port_requirement_binding&#45;&#45;my_server_capability_binding -->
<g id="edge18" class="edge"><title>my_port_requirement_binding&#45;&#45;my_server_capability_binding</title>
<path fill="none" stroke="black" stroke-dasharray="1,5" d="M215.043,-69.8364C227.313,-63.318 241.625,-55.7149 253.901,-49.1932"/>
</g>
<!-- my_port2 -->
<g id="node20" class="node"><title>my_port2</title>
<path fill="none" stroke="black" d="M28,-336.5C28,-336.5 108,-336.5 108,-336.5 114,-336.5 120,-342.5 120,-348.5 120,-348.5 120,-419.5 120,-419.5 120,-425.5 114,-431.5 108,-431.5 108,-431.5 28,-431.5 28,-431.5 22,-431.5 16,-425.5 16,-419.5 16,-419.5 16,-348.5 16,-348.5 16,-342.5 22,-336.5 28,-336.5"/>
<text text-anchor="middle" x="68" y="-416.3" font-family="Times,serif" font-size="14.00">my_port2: Port</text>
<polyline fill="none" stroke="black" points="16,-408.5 120,-408.5 "/>
</g>
<!-- my_port2_requirement_link -->
<g id="node21" class="node"><title>my_port2_requirement_link</title>
<polygon fill="turquoise" stroke="black" points="200.5,-369 158.5,-369 158.5,-345 200.5,-345 212.5,-357 200.5,-369"/>
<text text-anchor="middle" x="185.5" y="-353.3" font-family="Times,serif" font-size="14.00">link</text>
</g>
<!-- my_port2&#45;&#45;my_port2_requirement_link -->
<g id="edge16" class="edge"><title>my_port2&#45;&#45;my_port2_requirement_link</title>
<path fill="none" stroke="black" d="M120.333,-372C133.467,-368.93 147.049,-365.755 158.317,-363.121"/>
</g>
<!-- my_port2_requirement_binding -->
<g id="node22" class="node"><title>my_port2_requirement_binding</title>
<polygon fill="turquoise" stroke="black" points="203,-424 156,-424 156,-400 203,-400 215,-412 203,-424"/>
<text text-anchor="middle" x="185.5" y="-408.3" font-family="Times,serif" font-size="14.00">binding</text>
</g>
<!-- my_port2&#45;&#45;my_port2_requirement_binding -->
<g id="edge17" class="edge"><title>my_port2&#45;&#45;my_port2_requirement_binding</title>
<path fill="none" stroke="black" d="M120.333,-396.444C132.503,-399.395 145.058,-402.438 155.8,-405.042"/>
</g>
<!-- my_port2_requirement_link&#45;&#45;my_network_capability_link -->
<g id="edge21" class="edge"><title>my_port2_requirement_link&#45;&#45;my_network_capability_link</title>
<path fill="none" stroke="black" stroke-dasharray="1,5" d="M212.732,-352.355C226.278,-349.956 242.758,-347.038 256.299,-344.64"/>
</g>
<!-- my_port2_requirement_binding&#45;&#45;my_server2_capability_binding -->
<g id="edge20" class="edge"><title>my_port2_requirement_binding&#45;&#45;my_server2_capability_binding</title>
<path fill="none" stroke="black" stroke-dasharray="1,5" d="M215.043,-417.352C227.313,-419.652 241.625,-422.336 253.901,-424.638"/>
</g>
</g>
</svg>
