<?xml version="1.0" encoding="UTF-8" standalone="no"?>
<!DOCTYPE svg PUBLIC "-//W3C//DTD SVG 1.1//EN"
 "http://www.w3.org/Graphics/SVG/1.1/DTD/svg11.dtd">
<!-- Generated by graphviz version 2.38.0 (20140413.2041)
 -->
<!-- Title: ToscaDiagram Pages: 1 -->
<svg width="522pt" height="544pt"
 viewBox="0.00 0.00 522.00 544.00" xmlns="http://www.w3.org/2000/svg" xmlns:xlink="http://www.w3.org/1999/xlink">
<g id="graph0" class="graph" transform="scale(1 1) rotate(0) translate(4 540)">
<title>ToscaDiagram</title>
<polygon fill="white" stroke="none" points="-4,4 -4,-540 518,-540 518,4 -4,4"/>
<g id="clust1" class="cluster"><title>clustermy_server</title>
<polygon fill="none" stroke="white" points="243,-128 243,-288 498,-288 498,-128 243,-128"/>
</g>
<g id="clust2" class="cluster"><title>clustermy_network1</title>
<polygon fill="none" stroke="white" points="245.5,-416 245.5,-528 506,-528 506,-416 245.5,-416"/>
</g>
<g id="clust3" class="cluster"><title>clustermy_network2</title>
<polygon fill="none" stroke="white" points="245.5,-296 245.5,-408 506,-408 506,-296 245.5,-296"/>
</g>
<g id="clust4" class="cluster"><title>clustermy_network3</title>
<polygon fill="none" stroke="white" points="245.5,-8 245.5,-120 506,-120 506,-8 245.5,-8"/>
</g>
<g id="clust5" class="cluster"><title>clustermy_port1</title>
<polygon fill="none" stroke="white" points="8,-366 8,-478 223,-478 223,-366 8,-366"/>
</g>
<g id="clust6" class="cluster"><title>clustermy_port2</title>
<polygon fill="none" stroke="white" points="8,-197 8,-309 223,-309 223,-197 8,-197"/>
</g>
<g id="clust7" class="cluster"><title>clustermy_port3</title>
<polygon fill="none" stroke="white" points="8,-54 8,-166 223,-166 223,-54 8,-54"/>
</g>
<!-- my_server -->
<g id="node1" class="node"><title>my_server</title>
<path fill="none" stroke="black" d="M366,-160.5C366,-160.5 478,-160.5 478,-160.5 484,-160.5 490,-166.5 490,-172.5 490,-172.5 490,-243.5 490,-243.5 490,-249.5 484,-255.5 478,-255.5 478,-255.5 366,-255.5 366,-255.5 360,-255.5 354,-249.5 354,-243.5 354,-243.5 354,-172.5 354,-172.5 354,-166.5 360,-160.5 366,-160.5"/>
<text text-anchor="middle" x="422" y="-240.3" font-family="Times,serif" font-size="14.00">my_server: Compute</text>
<polyline fill="none" stroke="black" points="354,-232.5 490,-232.5 "/>
</g>
<!-- my_server_capability_host -->
<g id="node2" class="node"><title>my_server_capability_host</title>
<polygon fill="orange" stroke="black" points="295.5,-274 253.5,-274 253.5,-250 295.5,-250 307.5,-262 295.5,-274"/>
<text text-anchor="middle" x="280.5" y="-258.3" font-family="Times,serif" font-size="14.00">host</text>
</g>
<!-- my_server_capability_host&#45;&#45;my_server -->
<g id="edge1" class="edge"><title>my_server_capability_host&#45;&#45;my_server</title>
<path fill="none" stroke="black" d="M307.739,-251.843C320.919,-246.741 337.551,-240.303 353.981,-233.943"/>
</g>
<!-- my_server_capability_os -->
<g id="node3" class="node"><title>my_server_capability_os</title>
<polygon fill="orange" stroke="black" points="295.5,-220 253.5,-220 253.5,-196 295.5,-196 307.5,-208 295.5,-220"/>
<text text-anchor="middle" x="280.5" y="-204.3" font-family="Times,serif" font-size="14.00">os</text>
</g>
<!-- my_server_capability_os&#45;&#45;my_server -->
<g id="edge2" class="edge"><title>my_server_capability_os&#45;&#45;my_server</title>
<path fill="none" stroke="black" d="M307.739,-208C320.919,-208 337.551,-208 353.981,-208"/>
</g>
<!-- my_server_capability_binding -->
<g id="node4" class="node"><title>my_server_capability_binding</title>
<polygon fill="orange" stroke="black" points="298,-166 251,-166 251,-142 298,-142 310,-154 298,-166"/>
<text text-anchor="middle" x="280.5" y="-150.3" font-family="Times,serif" font-size="14.00">binding</text>
</g>
<!-- my_server_capability_binding&#45;&#45;my_server -->
<g id="edge3" class="edge"><title>my_server_capability_binding&#45;&#45;my_server</title>
<path fill="none" stroke="black" d="M310.067,-165.058C322.82,-169.995 338.437,-176.04 353.88,-182.018"/>
</g>
<!-- my_network1 -->
<g id="node5" class="node"><title>my_network1</title>
<path fill="none" stroke="black" d="M358,-424.5C358,-424.5 486,-424.5 486,-424.5 492,-424.5 498,-430.5 498,-436.5 498,-436.5 498,-507.5 498,-507.5 498,-513.5 492,-519.5 486,-519.5 486,-519.5 358,-519.5 358,-519.5 352,-519.5 346,-513.5 346,-507.5 346,-507.5 346,-436.5 346,-436.5 346,-430.5 352,-424.5 358,-424.5"/>
<text text-anchor="middle" x="422" y="-504.3" font-family="Times,serif" font-size="14.00">my_network1: Network</text>
<polyline fill="none" stroke="black" points="346,-496.5 498,-496.5 "/>
</g>
<!-- my_network1_capability_link -->
<g id="node6" class="node"><title>my_network1_capability_link</title>
<polygon fill="orange" stroke="black" points="295.5,-469 253.5,-469 253.5,-445 295.5,-445 307.5,-457 295.5,-469"/>
<text text-anchor="middle" x="280.5" y="-453.3" font-family="Times,serif" font-size="14.00">link</text>
</g>
<!-- my_network1_capability_link&#45;&#45;my_network1 -->
<g id="edge4" class="edge"><title>my_network1_capability_link&#45;&#45;my_network1</title>
<path fill="none" stroke="black" d="M307.739,-459.821C318.709,-461.001 332.071,-462.438 345.717,-463.905"/>
</g>
<!-- my_network2 -->
<g id="node7" class="node"><title>my_network2</title>
<path fill="none" stroke="black" d="M358,-304.5C358,-304.5 486,-304.5 486,-304.5 492,-304.5 498,-310.5 498,-316.5 498,-316.5 498,-387.5 498,-387.5 498,-393.5 492,-399.5 486,-399.5 486,-399.5 358,-399.5 358,-399.5 352,-399.5 346,-393.5 346,-387.5 346,-387.5 346,-316.5 346,-316.5 346,-310.5 352,-304.5 358,-304.5"/>
<text text-anchor="middle" x="422" y="-384.3" font-family="Times,serif" font-size="14.00">my_network2: Network</text>
<polyline fill="none" stroke="black" points="346,-376.5 498,-376.5 "/>
</g>
<!-- my_network2_capability_link -->
<g id="node8" class="node"><title>my_network2_capability_link</title>
<polygon fill="orange" stroke="black" points="295.5,-349 253.5,-349 253.5,-325 295.5,-325 307.5,-337 295.5,-349"/>
<text text-anchor="middle" x="280.5" y="-333.3" font-family="Times,serif" font-size="14.00">link</text>
</g>
<!-- my_network2_capability_link&#45;&#45;my_network2 -->
<g id="edge5" class="edge"><title>my_network2_capability_link&#45;&#45;my_network2</title>
<path fill="none" stroke="black" d="M307.739,-339.821C318.709,-341.001 332.071,-342.438 345.717,-343.905"/>
</g>
<!-- my_network3 -->
<g id="node9" class="node"><title>my_network3</title>
<path fill="none" stroke="black" d="M358,-16.5C358,-16.5 486,-16.5 486,-16.5 492,-16.5 498,-22.5 498,-28.5 498,-28.5 498,-99.5 498,-99.5 498,-105.5 492,-111.5 486,-111.5 486,-111.5 358,-111.5 358,-111.5 352,-111.5 346,-105.5 346,-99.5 346,-99.5 346,-28.5 346,-28.5 346,-22.5 352,-16.5 358,-16.5"/>
<text text-anchor="middle" x="422" y="-96.3" font-family="Times,serif" font-size="14.00">my_network3: Network</text>
<polyline fill="none" stroke="black" points="346,-88.5 498,-88.5 "/>
</g>
<!-- my_network3_capability_link -->
<g id="node10" class="node"><title>my_network3_capability_link</title>
<polygon fill="orange" stroke="black" points="295.5,-82 253.5,-82 253.5,-58 295.5,-58 307.5,-70 295.5,-82"/>
<text text-anchor="middle" x="280.5" y="-66.3" font-family="Times,serif" font-size="14.00">link</text>
</g>
<!-- my_network3_capability_link&#45;&#45;my_network3 -->
<g id="edge6" class="edge"><title>my_network3_capability_link&#45;&#45;my_network3</title>
<path fill="none" stroke="black" d="M307.739,-68.8714C318.709,-68.3996 332.071,-67.8249 345.717,-67.238"/>
</g>
<!-- my_port1 -->
<g id="node11" class="node"><title>my_port1</title>
<path fill="none" stroke="black" d="M28,-374.5C28,-374.5 108,-374.5 108,-374.5 114,-374.5 120,-380.5 120,-386.5 120,-386.5 120,-457.5 120,-457.5 120,-463.5 114,-469.5 108,-469.5 108,-469.5 28,-469.5 28,-469.5 22,-469.5 16,-463.5 16,-457.5 16,-457.5 16,-386.5 16,-386.5 16,-380.5 22,-374.5 28,-374.5"/>
<text text-anchor="middle" x="68" y="-454.3" font-family="Times,serif" font-size="14.00">my_port1: Port</text>
<polyline fill="none" stroke="black" points="16,-446.5 120,-446.5 "/>
</g>
<!-- my_port1_requirement_link -->
<g id="node12" class="node"><title>my_port1_requirement_link</title>
<polygon fill="turquoise" stroke="black" points="200.5,-462 158.5,-462 158.5,-438 200.5,-438 212.5,-450 200.5,-462"/>
<text text-anchor="middle" x="185.5" y="-446.3" font-family="Times,serif" font-size="14.00">link</text>
</g>
<!-- my_port1&#45;&#45;my_port1_requirement_link -->
<g id="edge7" class="edge"><title>my_port1&#45;&#45;my_port1_requirement_link</title>
<path fill="none" stroke="black" d="M120.333,-434.444C133.467,-437.628 147.049,-440.921 158.317,-443.653"/>
</g>
<!-- my_port1_requirement_binding -->
<g id="node13" class="node"><title>my_port1_requirement_binding</title>
<polygon fill="turquoise" stroke="black" points="203,-407 156,-407 156,-383 203,-383 215,-395 203,-407"/>
<text text-anchor="middle" x="185.5" y="-391.3" font-family="Times,serif" font-size="14.00">binding</text>
</g>
<!-- my_port1&#45;&#45;my_port1_requirement_binding -->
<g id="edge8" class="edge"><title>my_port1&#45;&#45;my_port1_requirement_binding</title>
<path fill="none" stroke="black" d="M120.333,-410C132.503,-407.155 145.058,-404.22 155.8,-401.709"/>
</g>
<!-- my_port1_requirement_link&#45;&#45;my_network1_capability_link -->
<g id="edge14" class="edge"><title>my_port1_requirement_link&#45;&#45;my_network1_capability_link</title>
<path fill="none" stroke="black" stroke-dasharray="1,5" d="M212.901,-451.987C225.575,-452.941 240.715,-454.081 253.355,-455.032"/>
</g>
<!-- my_port1_requirement_binding&#45;&#45;my_server_capability_binding -->
<g id="edge13" class="edge"><title>my_port1_requirement_binding&#45;&#45;my_server_capability_binding</title>
<path fill="none" stroke="black" stroke-dasharray="1,5" d="M196.221,-376.972C204.576,-360.703 216.306,-335.883 223,-313 239.659,-256.05 212.384,-231.828 243,-181 245.115,-177.489 247.876,-174.29 250.935,-171.422"/>
</g>
<!-- my_port2 -->
<g id="node14" class="node"><title>my_port2</title>
<path fill="none" stroke="black" d="M28,-205.5C28,-205.5 108,-205.5 108,-205.5 114,-205.5 120,-211.5 120,-217.5 120,-217.5 120,-288.5 120,-288.5 120,-294.5 114,-300.5 108,-300.5 108,-300.5 28,-300.5 28,-300.5 22,-300.5 16,-294.5 16,-288.5 16,-288.5 16,-217.5 16,-217.5 16,-211.5 22,-205.5 28,-205.5"/>
<text text-anchor="middle" x="68" y="-285.3" font-family="Times,serif" font-size="14.00">my_port2: Port</text>
<polyline fill="none" stroke="black" points="16,-277.5 120,-277.5 "/>
</g>
<!-- my_port2_requirement_link -->
<g id="node15" class="node"><title>my_port2_requirement_link</title>
<polygon fill="turquoise" stroke="black" points="200.5,-293 158.5,-293 158.5,-269 200.5,-269 212.5,-281 200.5,-293"/>
<text text-anchor="middle" x="185.5" y="-277.3" font-family="Times,serif" font-size="14.00">link</text>
</g>
<!-- my_port2&#45;&#45;my_port2_requirement_link -->
<g id="edge9" class="edge"><title>my_port2&#45;&#45;my_port2_requirement_link</title>
<path fill="none" stroke="black" d="M120.333,-265.444C133.467,-268.628 147.049,-271.921 158.317,-274.653"/>
</g>
<!-- my_port2_requirement_binding -->
<g id="node16" class="node"><title>my_port2_requirement_binding</title>
<polygon fill="turquoise" stroke="black" points="203,-236 156,-236 156,-212 203,-212 215,-224 203,-236"/>
<text text-anchor="middle" x="185.5" y="-220.3" font-family="Times,serif" font-size="14.00">binding</text>
</g>
<!-- my_port2&#45;&#45;my_port2_requirement_binding -->
<g id="edge10" class="edge"><title>my_port2&#45;&#45;my_port2_requirement_binding</title>
<path fill="none" stroke="black" d="M120.333,-240.111C132.503,-237.056 145.058,-233.903 155.8,-231.206"/>
</g>
<!-- my_port2_requirement_link&#45;&#45;my_network2_capability_link -->
<g id="edge16" class="edge"><title>my_port2_requirement_link&#45;&#45;my_network2_capability_link</title>
<path fill="none" stroke="black" stroke-dasharray="1,5" d="M212.901,-296.898C225.575,-304.529 240.715,-313.645 253.355,-321.257"/>
</g>
<!-- my_port2_requirement_binding&#45;&#45;my_server_capability_binding -->
<g id="edge15" class="edge"><title>my_port2_requirement_binding&#45;&#45;my_server_capability_binding</title>
<path fill="none" stroke="black" stroke-dasharray="1,5" d="M210.087,-205.936C220.197,-198.222 232.154,-189.138 243,-181 246.783,-178.162 250.797,-175.171 254.727,-172.254"/>
</g>
<!-- my_port3 -->
<g id="node17" class="node"><title>my_port3</title>
<path fill="none" stroke="black" d="M28,-62.5C28,-62.5 108,-62.5 108,-62.5 114,-62.5 120,-68.5 120,-74.5 120,-74.5 120,-145.5 120,-145.5 120,-151.5 114,-157.5 108,-157.5 108,-157.5 28,-157.5 28,-157.5 22,-157.5 16,-151.5 16,-145.5 16,-145.5 16,-74.5 16,-74.5 16,-68.5 22,-62.5 28,-62.5"/>
<text text-anchor="middle" x="68" y="-142.3" font-family="Times,serif" font-size="14.00">my_port3: Port</text>
<polyline fill="none" stroke="black" points="16,-134.5 120,-134.5 "/>
</g>
<!-- my_port3_requirement_link -->
<g id="node18" class="node"><title>my_port3_requirement_link</title>
<polygon fill="turquoise" stroke="black" points="200.5,-95 158.5,-95 158.5,-71 200.5,-71 212.5,-83 200.5,-95"/>
<text text-anchor="middle" x="185.5" y="-79.3" font-family="Times,serif" font-size="14.00">link</text>
</g>
<!-- my_port3&#45;&#45;my_port3_requirement_link -->
<g id="edge11" class="edge"><title>my_port3&#45;&#45;my_port3_requirement_link</title>
<path fill="none" stroke="black" d="M120.333,-98.0002C133.467,-94.9298 147.049,-91.7547 158.317,-89.1207"/>
</g>
<!-- my_port3_requirement_binding -->
<g id="node19" class="node"><title>my_port3_requirement_binding</title>
<polygon fill="turquoise" stroke="black" points="203,-150 156,-150 156,-126 203,-126 215,-138 203,-150"/>
<text text-anchor="middle" x="185.5" y="-134.3" font-family="Times,serif" font-size="14.00">binding</text>
</g>
<!-- my_port3&#45;&#45;my_port3_requirement_binding -->
<g id="edge12" class="edge"><title>my_port3&#45;&#45;my_port3_requirement_binding</title>
<path fill="none" stroke="black" d="M120.333,-122.444C132.503,-125.395 145.058,-128.438 155.8,-131.042"/>
</g>
<!-- my_port3_requirement_link&#45;&#45;my_network3_capability_link -->
<g id="edge18" class="edge"><title>my_port3_requirement_link&#45;&#45;my_network3_capability_link</title>
<path fill="none" stroke="black" stroke-dasharray="1,5" d="M212.901,-79.3095C225.575,-77.5379 240.715,-75.4216 253.355,-73.6547"/>
</g>
<!-- my_port3_requirement_binding&#45;&#45;my_server_capability_binding -->
<g id="edge17" class="edge"><title>my_port3_requirement_binding&#45;&#45;my_server_capability_binding</title>
<path fill="none" stroke="black" stroke-dasharray="1,5" d="M215.162,-142.931C226.476,-144.878 239.452,-147.11 250.773,-149.058"/>
</g>
</g>
</svg>
