<?xml version="1.0" encoding="UTF-8" standalone="no"?>
<!DOCTYPE svg PUBLIC "-//W3C//DTD SVG 1.1//EN"
 "http://www.w3.org/Graphics/SVG/1.1/DTD/svg11.dtd">
<!-- Generated by graphviz version 2.38.0 (20140413.2041)
 -->
<!-- Title: ToscaDiagram Pages: 1 -->
<svg width="639pt" height="412pt"
 viewBox="0.00 0.00 639.00 412.00" xmlns="http://www.w3.org/2000/svg" xmlns:xlink="http://www.w3.org/1999/xlink">
<g id="graph0" class="graph" transform="scale(1 1) rotate(0) translate(4 408)">
<title>ToscaDiagram</title>
<polygon fill="white" stroke="none" points="-4,4 -4,-408 635,-408 635,4 -4,4"/>
<g id="clust1" class="cluster"><title>clustermy_server</title>
<polygon fill="none" stroke="white" points="235,-8 235,-276 623,-276 623,-8 235,-8"/>
</g>
<g id="clust2" class="cluster"><title>clustermy_network</title>
<polygon fill="none" stroke="white" points="240.5,-284 240.5,-396 497,-396 497,-284 240.5,-284"/>
</g>
<g id="clust3" class="cluster"><title>clustermy_port</title>
<polygon fill="none" stroke="white" points="8,-66 8,-178 215,-178 215,-66 8,-66"/>
</g>
<!-- my_server -->
<g id="node1" class="node"><title>my_server</title>
<path fill="none" stroke="black" d="M360.5,-94.5C360.5,-94.5 472.5,-94.5 472.5,-94.5 478.5,-94.5 484.5,-100.5 484.5,-106.5 484.5,-106.5 484.5,-177.5 484.5,-177.5 484.5,-183.5 478.5,-189.5 472.5,-189.5 472.5,-189.5 360.5,-189.5 360.5,-189.5 354.5,-189.5 348.5,-183.5 348.5,-177.5 348.5,-177.5 348.5,-106.5 348.5,-106.5 348.5,-100.5 354.5,-94.5 360.5,-94.5"/>
<text text-anchor="middle" x="416.5" y="-174.3" font-family="Times,serif" font-size="14.00">my_server: Compute</text>
<polyline fill="none" stroke="black" points="348.5,-166.5 484.5,-166.5 "/>
</g>
<!-- my_server_requirement_local_storage -->
<g id="node7" class="node"><title>my_server_requirement_local_storage</title>
<polygon fill="turquoise" stroke="black" points="603,-154 525,-154 525,-130 603,-130 615,-142 603,-154"/>
<text text-anchor="middle" x="570" y="-138.3" font-family="Times,serif" font-size="14.00">local_storage</text>
</g>
<!-- my_server&#45;&#45;my_server_requirement_local_storage -->
<g id="edge6" class="edge"><title>my_server&#45;&#45;my_server_requirement_local_storage</title>
<path fill="none" stroke="black" d="M484.832,-142C498.425,-142 512.384,-142 524.929,-142"/>
</g>
<!-- my_server_capability_host -->
<g id="node2" class="node"><title>my_server_capability_host</title>
<polygon fill="orange" stroke="black" points="290.5,-262 248.5,-262 248.5,-238 290.5,-238 302.5,-250 290.5,-262"/>
<text text-anchor="middle" x="275.5" y="-246.3" font-family="Times,serif" font-size="14.00">host</text>
</g>
<!-- my_server_capability_host&#45;&#45;my_server -->
<g id="edge1" class="edge"><title>my_server_capability_host&#45;&#45;my_server</title>
<path fill="none" stroke="black" d="M299.765,-231.923C314.681,-220.334 334.797,-204.704 354.073,-189.727"/>
</g>
<!-- my_server_capability_endpoint -->
<g id="node3" class="node"><title>my_server_capability_endpoint</title>
<polygon fill="orange" stroke="black" points="296,-208 243,-208 243,-184 296,-184 308,-196 296,-208"/>
<text text-anchor="middle" x="275.5" y="-192.3" font-family="Times,serif" font-size="14.00">endpoint</text>
</g>
<!-- my_server_capability_endpoint&#45;&#45;my_server -->
<g id="edge2" class="edge"><title>my_server_capability_endpoint&#45;&#45;my_server</title>
<path fill="none" stroke="black" d="M308.041,-183.747C320.056,-179.079 334.254,-173.563 348.325,-168.097"/>
</g>
<!-- my_server_capability_os -->
<g id="node4" class="node"><title>my_server_capability_os</title>
<polygon fill="orange" stroke="black" points="290.5,-154 248.5,-154 248.5,-130 290.5,-130 302.5,-142 290.5,-154"/>
<text text-anchor="middle" x="275.5" y="-138.3" font-family="Times,serif" font-size="14.00">os</text>
</g>
<!-- my_server_capability_os&#45;&#45;my_server -->
<g id="edge3" class="edge"><title>my_server_capability_os&#45;&#45;my_server</title>
<path fill="none" stroke="black" d="M302.645,-142C315.699,-142 332.152,-142 348.427,-142"/>
</g>
<!-- my_server_capability_scalable -->
<g id="node5" class="node"><title>my_server_capability_scalable</title>
<polygon fill="orange" stroke="black" points="294,-100 245,-100 245,-76 294,-76 306,-88 294,-100"/>
<text text-anchor="middle" x="275.5" y="-84.3" font-family="Times,serif" font-size="14.00">scalable</text>
</g>
<!-- my_server_capability_scalable&#45;&#45;my_server -->
<g id="edge4" class="edge"><title>my_server_capability_scalable&#45;&#45;my_server</title>
<path fill="none" stroke="black" d="M306.319,-99.5844C318.683,-104.388 333.568,-110.17 348.313,-115.899"/>
</g>
<!-- my_server_capability_binding -->
<g id="node6" class="node"><title>my_server_capability_binding</title>
<polygon fill="orange" stroke="black" points="293,-46 246,-46 246,-22 293,-22 305,-34 293,-46"/>
<text text-anchor="middle" x="275.5" y="-30.3" font-family="Times,serif" font-size="14.00">binding</text>
</g>
<!-- my_server_capability_binding&#45;&#45;my_server -->
<g id="edge5" class="edge"><title>my_server_capability_binding&#45;&#45;my_server</title>
<path fill="none" stroke="black" d="M299.765,-52.0768C314.681,-63.6662 334.797,-79.2958 354.073,-94.2729"/>
</g>
<!-- my_network -->
<g id="node8" class="node"><title>my_network</title>
<path fill="none" stroke="black" d="M356,-292.5C356,-292.5 477,-292.5 477,-292.5 483,-292.5 489,-298.5 489,-304.5 489,-304.5 489,-375.5 489,-375.5 489,-381.5 483,-387.5 477,-387.5 477,-387.5 356,-387.5 356,-387.5 350,-387.5 344,-381.5 344,-375.5 344,-375.5 344,-304.5 344,-304.5 344,-298.5 350,-292.5 356,-292.5"/>
<text text-anchor="middle" x="416.5" y="-372.3" font-family="Times,serif" font-size="14.00">my_network: Network</text>
<polyline fill="none" stroke="black" points="344,-364.5 489,-364.5 "/>
</g>
<!-- my_network_capability_link -->
<g id="node9" class="node"><title>my_network_capability_link</title>
<polygon fill="orange" stroke="black" points="290.5,-337 248.5,-337 248.5,-313 290.5,-313 302.5,-325 290.5,-337"/>
<text text-anchor="middle" x="275.5" y="-321.3" font-family="Times,serif" font-size="14.00">link</text>
</g>
<!-- my_network_capability_link&#45;&#45;my_network -->
<g id="edge7" class="edge"><title>my_network_capability_link&#45;&#45;my_network</title>
<path fill="none" stroke="black" d="M302.645,-327.821C314.441,-329.094 329.012,-330.667 343.719,-332.254"/>
</g>
<!-- my_port -->
<g id="node10" class="node"><title>my_port</title>
<path fill="none" stroke="black" d="M28,-74.5C28,-74.5 100,-74.5 100,-74.5 106,-74.5 112,-80.5 112,-86.5 112,-86.5 112,-157.5 112,-157.5 112,-163.5 106,-169.5 100,-169.5 100,-169.5 28,-169.5 28,-169.5 22,-169.5 16,-163.5 16,-157.5 16,-157.5 16,-86.5 16,-86.5 16,-80.5 22,-74.5 28,-74.5"/>
<text text-anchor="middle" x="64" y="-154.3" font-family="Times,serif" font-size="14.00">my_port: Port</text>
<polyline fill="none" stroke="black" points="16,-146.5 112,-146.5 "/>
</g>
<!-- my_port_requirement_link -->
<g id="node11" class="node"><title>my_port_requirement_link</title>
<polygon fill="turquoise" stroke="black" points="192.5,-162 150.5,-162 150.5,-138 192.5,-138 204.5,-150 192.5,-162"/>
<text text-anchor="middle" x="177.5" y="-146.3" font-family="Times,serif" font-size="14.00">link</text>
</g>
<!-- my_port&#45;&#45;my_port_requirement_link -->
<g id="edge8" class="edge"><title>my_port&#45;&#45;my_port_requirement_link</title>
<path fill="none" stroke="black" d="M112.286,-133.875C125.344,-137.154 139.036,-140.592 150.407,-143.447"/>
</g>
<!-- my_port_requirement_binding -->
<g id="node12" class="node"><title>my_port_requirement_binding</title>
<polygon fill="turquoise" stroke="black" points="195,-105 148,-105 148,-81 195,-81 207,-93 195,-105"/>
<text text-anchor="middle" x="177.5" y="-89.3" font-family="Times,serif" font-size="14.00">binding</text>
</g>
<!-- my_port&#45;&#45;my_port_requirement_binding -->
<g id="edge9" class="edge"><title>my_port&#45;&#45;my_port_requirement_binding</title>
<path fill="none" stroke="black" d="M112.286,-109.701C124.394,-106.552 137.048,-103.261 147.89,-100.441"/>
</g>
<!-- my_port_requirement_link&#45;&#45;my_network_capability_link -->
<g id="edge11" class="edge"><title>my_port_requirement_link&#45;&#45;my_network_capability_link</title>
<path fill="none" stroke="black" stroke-dasharray="1,5" d="M184.357,-168.112C193.185,-194.064 211.408,-242.801 235,-280 241.013,-289.481 248.983,-298.971 256.188,-306.776"/>
</g>
<!-- my_port_requirement_binding&#45;&#45;my_server_capability_binding -->
<g id="edge10" class="edge"><title>my_port_requirement_binding&#45;&#45;my_server_capability_binding</title>
<path fill="none" stroke="black" stroke-dasharray="1,5" d="M207.043,-75.4578C219.313,-67.9169 233.625,-59.1212 245.901,-51.5765"/>
</g>
</g>
</svg>
