<?xml version="1.0" encoding="UTF-8" standalone="no"?>
<!DOCTYPE svg PUBLIC "-//W3C//DTD SVG 1.1//EN"
 "http://www.w3.org/Graphics/SVG/1.1/DTD/svg11.dtd">
<!-- Generated by graphviz version 2.38.0 (20140413.2041)
 -->
<!-- Title: ToscaDiagram Pages: 1 -->
<svg width="238pt" height="136pt"
 viewBox="0.00 0.00 238.00 136.00" xmlns="http://www.w3.org/2000/svg" xmlns:xlink="http://www.w3.org/1999/xlink">
<g id="graph0" class="graph" transform="scale(1 1) rotate(0) translate(4 132)">
<title>ToscaDiagram</title>
<polygon fill="white" stroke="none" points="-4,4 -4,-132 234,-132 234,4 -4,4"/>
<g id="clust1" class="cluster"><title>clusterobj_store_server</title>
<polygon fill="none" stroke="white" points="8,-8 8,-120 222,-120 222,-8 8,-8"/>
</g>
<!-- obj_store_server -->
<g id="node1" class="node"><title>obj_store_server</title>
<path fill="none" stroke="black" d="M28,-16.5C28,-16.5 202,-16.5 202,-16.5 208,-16.5 214,-22.5 214,-28.5 214,-28.5 214,-99.5 214,-99.5 214,-105.5 208,-111.5 202,-111.5 202,-111.5 28,-111.5 28,-111.5 22,-111.5 16,-105.5 16,-99.5 16,-99.5 16,-28.5 16,-28.5 16,-22.5 22,-16.5 28,-16.5"/>
<text text-anchor="middle" x="115" y="-96.3" font-family="Times,serif" font-size="14.00">obj_store_server: ObjectStorage</text>
<polyline fill="none" stroke="black" points="16,-88.5 214,-88.5 "/>
</g>
</g>
</svg>
