<?xml version="1.0" encoding="UTF-8" standalone="no"?>
<!DOCTYPE svg PUBLIC "-//W3C//DTD SVG 1.1//EN"
 "http://www.w3.org/Graphics/SVG/1.1/DTD/svg11.dtd">
<!-- Generated by graphviz version 2.38.0 (20140413.2041)
 -->
<!-- Title: ToscaDiagram Pages: 1 -->
<svg width="386pt" height="136pt"
 viewBox="0.00 0.00 386.00 136.00" xmlns="http://www.w3.org/2000/svg" xmlns:xlink="http://www.w3.org/1999/xlink">
<g id="graph0" class="graph" transform="scale(1 1) rotate(0) translate(4 132)">
<title>ToscaDiagram</title>
<polygon fill="white" stroke="none" points="-4,4 -4,-132 382,-132 382,4 -4,4"/>
<g id="clust1" class="cluster"><title>clusterobj_store_server</title>
<polygon fill="none" stroke="white" points="8,-8 8,-120 370,-120 370,-8 8,-8"/>
</g>
<!-- obj_store_server -->
<g id="node1" class="node"><title>obj_store_server</title>
<path fill="none" stroke="black" d="M176,-16.5C176,-16.5 350,-16.5 350,-16.5 356,-16.5 362,-22.5 362,-28.5 362,-28.5 362,-99.5 362,-99.5 362,-105.5 356,-111.5 350,-111.5 350,-111.5 176,-111.5 176,-111.5 170,-111.5 164,-105.5 164,-99.5 164,-99.5 164,-28.5 164,-28.5 164,-22.5 170,-16.5 176,-16.5"/>
<text text-anchor="middle" x="263" y="-96.3" font-family="Times,serif" font-size="14.00">obj_store_server: ObjectStorage</text>
<polyline fill="none" stroke="black" points="164,-88.5 362,-88.5 "/>
</g>
<!-- obj_store_server_capability_storage_endpoint -->
<g id="node2" class="node"><title>obj_store_server_capability_storage_endpoint</title>
<polygon fill="orange" stroke="black" points="116,-76 16,-76 16,-52 116,-52 128,-64 116,-76"/>
<text text-anchor="middle" x="72" y="-60.3" font-family="Times,serif" font-size="14.00">storage_endpoint</text>
</g>
<!-- obj_store_server_capability_storage_endpoint&#45;&#45;obj_store_server -->
<g id="edge1" class="edge"><title>obj_store_server_capability_storage_endpoint&#45;&#45;obj_store_server</title>
<path fill="none" stroke="black" d="M128.175,-64C139.397,-64 151.52,-64 163.728,-64"/>
</g>
</g>
</svg>
