<?xml version="1.0" encoding="UTF-8" standalone="no"?>
<!DOCTYPE svg PUBLIC "-//W3C//DTD SVG 1.1//EN"
 "http://www.w3.org/Graphics/SVG/1.1/DTD/svg11.dtd">
<!-- Generated by graphviz version 2.38.0 (20140413.2041)
 -->
<!-- Title: ToscaDiagram Pages: 1 -->
<svg width="646pt" height="136pt"
 viewBox="0.00 0.00 646.00 136.00" xmlns="http://www.w3.org/2000/svg" xmlns:xlink="http://www.w3.org/1999/xlink">
<g id="graph0" class="graph" transform="scale(1 1) rotate(0) translate(4 132)">
<title>ToscaDiagram</title>
<polygon fill="white" stroke="none" points="-4,4 -4,-132 642,-132 642,4 -4,4"/>
<g id="clust1" class="cluster"><title>clustermy_virtual_machine</title>
<polygon fill="none" stroke="white" points="8,-8 8,-120 368,-120 368,-8 8,-8"/>
</g>
<g id="clust2" class="cluster"><title>clustermy_server</title>
<polygon fill="none" stroke="white" points="388,-8 388,-120 630,-120 630,-8 388,-8"/>
</g>
<!-- my_virtual_machine -->
<g id="node1" class="node"><title>my_virtual_machine</title>
<path fill="none" stroke="black" d="M28,-16.5C28,-16.5 258,-16.5 258,-16.5 264,-16.5 270,-22.5 270,-28.5 270,-28.5 270,-99.5 270,-99.5 270,-105.5 264,-111.5 258,-111.5 258,-111.5 28,-111.5 28,-111.5 22,-111.5 16,-105.5 16,-99.5 16,-99.5 16,-28.5 16,-28.5 16,-22.5 22,-16.5 28,-16.5"/>
<text text-anchor="middle" x="143" y="-96.3" font-family="Times,serif" font-size="14.00">my_virtual_machine: SoftwareComponent</text>
<polyline fill="none" stroke="black" points="16,-88.5 270,-88.5 "/>
</g>
<!-- my_virtual_machine_requirement_host -->
<g id="node2" class="node"><title>my_virtual_machine_requirement_host</title>
<polygon fill="turquoise" stroke="black" points="348,-76 306,-76 306,-52 348,-52 360,-64 348,-76"/>
<text text-anchor="middle" x="333" y="-60.3" font-family="Times,serif" font-size="14.00">host</text>
</g>
<!-- my_virtual_machine&#45;&#45;my_virtual_machine_requirement_host -->
<g id="edge1" class="edge"><title>my_virtual_machine&#45;&#45;my_virtual_machine_requirement_host</title>
<path fill="none" stroke="black" d="M270.181,-64C283.512,-64 295.861,-64 305.961,-64"/>
</g>
<!-- my_server_capability_host -->
<g id="node4" class="node"><title>my_server_capability_host</title>
<polygon fill="orange" stroke="black" points="438,-76 396,-76 396,-52 438,-52 450,-64 438,-76"/>
<text text-anchor="middle" x="423" y="-60.3" font-family="Times,serif" font-size="14.00">host</text>
</g>
<!-- my_virtual_machine_requirement_host&#45;&#45;my_server_capability_host -->
<g id="edge3" class="edge"><title>my_virtual_machine_requirement_host&#45;&#45;my_server_capability_host</title>
<path fill="none" stroke="black" stroke-dasharray="1,5" d="M360.403,-64C371.642,-64 384.715,-64 395.919,-64"/>
</g>
<!-- my_server -->
<g id="node3" class="node"><title>my_server</title>
<path fill="none" stroke="black" d="M498,-16.5C498,-16.5 610,-16.5 610,-16.5 616,-16.5 622,-22.5 622,-28.5 622,-28.5 622,-99.5 622,-99.5 622,-105.5 616,-111.5 610,-111.5 610,-111.5 498,-111.5 498,-111.5 492,-111.5 486,-105.5 486,-99.5 486,-99.5 486,-28.5 486,-28.5 486,-22.5 492,-16.5 498,-16.5"/>
<text text-anchor="middle" x="554" y="-96.3" font-family="Times,serif" font-size="14.00">my_server: Compute</text>
<polyline fill="none" stroke="black" points="486,-88.5 622,-88.5 "/>
</g>
<!-- my_server_capability_host&#45;&#45;my_server -->
<g id="edge2" class="edge"><title>my_server_capability_host&#45;&#45;my_server</title>
<path fill="none" stroke="black" d="M450.105,-64C460.559,-64 473.129,-64 485.837,-64"/>
</g>
</g>
</svg>
