<?xml version="1.0" encoding="UTF-8" standalone="no"?>
<!DOCTYPE svg PUBLIC "-//W3C//DTD SVG 1.1//EN"
 "http://www.w3.org/Graphics/SVG/1.1/DTD/svg11.dtd">
<!-- Generated by graphviz version 2.38.0 (20140413.2041)
 -->
<!-- Title: ToscaDiagram Pages: 1 -->
<svg width="783pt" height="322pt"
 viewBox="0.00 0.00 783.00 322.00" xmlns="http://www.w3.org/2000/svg" xmlns:xlink="http://www.w3.org/1999/xlink">
<g id="graph0" class="graph" transform="scale(1 1) rotate(0) translate(4 318)">
<title>ToscaDiagram</title>
<polygon fill="white" stroke="none" points="-4,4 -4,-318 779,-318 779,4 -4,4"/>
<g id="clust1" class="cluster"><title>clustermy_virtual_machine</title>
<polygon fill="none" stroke="white" points="8,-194 8,-306 368,-306 368,-194 8,-194"/>
</g>
<g id="clust2" class="cluster"><title>clustermy_server</title>
<polygon fill="none" stroke="white" points="388,-8 388,-276 767,-276 767,-8 388,-8"/>
</g>
<!-- my_virtual_machine -->
<g id="node1" class="node"><title>my_virtual_machine</title>
<path fill="none" stroke="black" d="M28,-202.5C28,-202.5 258,-202.5 258,-202.5 264,-202.5 270,-208.5 270,-214.5 270,-214.5 270,-285.5 270,-285.5 270,-291.5 264,-297.5 258,-297.5 258,-297.5 28,-297.5 28,-297.5 22,-297.5 16,-291.5 16,-285.5 16,-285.5 16,-214.5 16,-214.5 16,-208.5 22,-202.5 28,-202.5"/>
<text text-anchor="middle" x="143" y="-282.3" font-family="Times,serif" font-size="14.00">my_virtual_machine: SoftwareComponent</text>
<polyline fill="none" stroke="black" points="16,-274.5 270,-274.5 "/>
</g>
<!-- my_virtual_machine_requirement_host -->
<g id="node2" class="node"><title>my_virtual_machine_requirement_host</title>
<polygon fill="turquoise" stroke="black" points="348,-262 306,-262 306,-238 348,-238 360,-250 348,-262"/>
<text text-anchor="middle" x="333" y="-246.3" font-family="Times,serif" font-size="14.00">host</text>
</g>
<!-- my_virtual_machine&#45;&#45;my_virtual_machine_requirement_host -->
<g id="edge1" class="edge"><title>my_virtual_machine&#45;&#45;my_virtual_machine_requirement_host</title>
<path fill="none" stroke="black" d="M270.181,-250C283.512,-250 295.861,-250 305.961,-250"/>
</g>
<!-- my_server_capability_host -->
<g id="node4" class="node"><title>my_server_capability_host</title>
<polygon fill="orange" stroke="black" points="443.5,-262 401.5,-262 401.5,-238 443.5,-238 455.5,-250 443.5,-262"/>
<text text-anchor="middle" x="428.5" y="-246.3" font-family="Times,serif" font-size="14.00">host</text>
</g>
<!-- my_virtual_machine_requirement_host&#45;&#45;my_server_capability_host -->
<g id="edge8" class="edge"><title>my_virtual_machine_requirement_host&#45;&#45;my_server_capability_host</title>
<path fill="none" stroke="black" stroke-dasharray="1,5" d="M360.045,-250C372.905,-250 388.385,-250 401.27,-250"/>
</g>
<!-- my_server -->
<g id="node3" class="node"><title>my_server</title>
<path fill="none" stroke="black" d="M509,-94.5C509,-94.5 621,-94.5 621,-94.5 627,-94.5 633,-100.5 633,-106.5 633,-106.5 633,-177.5 633,-177.5 633,-183.5 627,-189.5 621,-189.5 621,-189.5 509,-189.5 509,-189.5 503,-189.5 497,-183.5 497,-177.5 497,-177.5 497,-106.5 497,-106.5 497,-100.5 503,-94.5 509,-94.5"/>
<text text-anchor="middle" x="565" y="-174.3" font-family="Times,serif" font-size="14.00">my_server: Compute</text>
<polyline fill="none" stroke="black" points="497,-166.5 633,-166.5 "/>
</g>
<!-- my_server_requirement_local_storage -->
<g id="node9" class="node"><title>my_server_requirement_local_storage</title>
<polygon fill="turquoise" stroke="black" points="747,-154 669,-154 669,-130 747,-130 759,-142 747,-154"/>
<text text-anchor="middle" x="714" y="-138.3" font-family="Times,serif" font-size="14.00">local_storage</text>
</g>
<!-- my_server&#45;&#45;my_server_requirement_local_storage -->
<g id="edge7" class="edge"><title>my_server&#45;&#45;my_server_requirement_local_storage</title>
<path fill="none" stroke="black" d="M633.047,-142C645.163,-142 657.514,-142 668.771,-142"/>
</g>
<!-- my_server_capability_host&#45;&#45;my_server -->
<g id="edge2" class="edge"><title>my_server_capability_host&#45;&#45;my_server</title>
<path fill="none" stroke="black" d="M452.012,-231.923C466.445,-220.334 485.91,-204.704 504.562,-189.727"/>
</g>
<!-- my_server_capability_endpoint -->
<g id="node5" class="node"><title>my_server_capability_endpoint</title>
<polygon fill="orange" stroke="black" points="449,-208 396,-208 396,-184 449,-184 461,-196 449,-208"/>
<text text-anchor="middle" x="428.5" y="-192.3" font-family="Times,serif" font-size="14.00">endpoint</text>
</g>
<!-- my_server_capability_endpoint&#45;&#45;my_server -->
<g id="edge3" class="edge"><title>my_server_capability_endpoint&#45;&#45;my_server</title>
<path fill="none" stroke="black" d="M461.034,-183.339C471.827,-179.006 484.348,-173.979 496.865,-168.954"/>
</g>
<!-- my_server_capability_os -->
<g id="node6" class="node"><title>my_server_capability_os</title>
<polygon fill="orange" stroke="black" points="443.5,-154 401.5,-154 401.5,-130 443.5,-130 455.5,-142 443.5,-154"/>
<text text-anchor="middle" x="428.5" y="-138.3" font-family="Times,serif" font-size="14.00">os</text>
</g>
<!-- my_server_capability_os&#45;&#45;my_server -->
<g id="edge4" class="edge"><title>my_server_capability_os&#45;&#45;my_server</title>
<path fill="none" stroke="black" d="M455.752,-142C467.602,-142 482.198,-142 496.791,-142"/>
</g>
<!-- my_server_capability_scalable -->
<g id="node7" class="node"><title>my_server_capability_scalable</title>
<polygon fill="orange" stroke="black" points="447,-100 398,-100 398,-76 447,-76 459,-88 447,-100"/>
<text text-anchor="middle" x="428.5" y="-84.3" font-family="Times,serif" font-size="14.00">scalable</text>
</g>
<!-- my_server_capability_scalable&#45;&#45;my_server -->
<g id="edge5" class="edge"><title>my_server_capability_scalable&#45;&#45;my_server</title>
<path fill="none" stroke="black" d="M459.017,-99.8505C470.229,-104.352 483.511,-109.685 496.791,-115.016"/>
</g>
<!-- my_server_capability_binding -->
<g id="node8" class="node"><title>my_server_capability_binding</title>
<polygon fill="orange" stroke="black" points="446,-46 399,-46 399,-22 446,-22 458,-34 446,-46"/>
<text text-anchor="middle" x="428.5" y="-30.3" font-family="Times,serif" font-size="14.00">binding</text>
</g>
<!-- my_server_capability_binding&#45;&#45;my_server -->
<g id="edge6" class="edge"><title>my_server_capability_binding&#45;&#45;my_server</title>
<path fill="none" stroke="black" d="M452.012,-52.0768C466.445,-63.6662 485.91,-79.2958 504.562,-94.2729"/>
</g>
</g>
</svg>
