<?xml version="1.0" encoding="UTF-8" standalone="no"?>
<!DOCTYPE svg PUBLIC "-//W3C//DTD SVG 1.1//EN"
 "http://www.w3.org/Graphics/SVG/1.1/DTD/svg11.dtd">
<!-- Generated by graphviz version 2.38.0 (20140413.2041)
 -->
<!-- Title: ToscaDiagram Pages: 1 -->
<svg width="1380pt" height="256pt"
 viewBox="0.00 0.00 1380.00 256.00" xmlns="http://www.w3.org/2000/svg" xmlns:xlink="http://www.w3.org/1999/xlink">
<g id="graph0" class="graph" transform="scale(1 1) rotate(0) translate(4 252)">
<title>ToscaDiagram</title>
<polygon fill="white" stroke="none" points="-4,4 -4,-252 1376,-252 1376,4 -4,4"/>
<g id="clust1" class="cluster"><title>clusterwordpress</title>
<polygon fill="none" stroke="white" points="8,-53 8,-165 322,-165 322,-53 8,-53"/>
</g>
<g id="clust2" class="cluster"><title>clustermysql_database</title>
<polygon fill="none" stroke="white" points="342,-105 342,-217 767,-217 767,-105 342,-105"/>
</g>
<g id="clust3" class="cluster"><title>clustermysql_dbms</title>
<polygon fill="none" stroke="white" points="787,-128 787,-240 1128,-240 1128,-128 787,-128"/>
</g>
<g id="clust4" class="cluster"><title>clusterwebserver</title>
<polygon fill="none" stroke="white" points="787,-8 787,-120 1128,-120 1128,-8 787,-8"/>
</g>
<g id="clust5" class="cluster"><title>clusterserver</title>
<polygon fill="none" stroke="white" points="1148,-45 1148,-157 1364,-157 1364,-45 1148,-45"/>
</g>
<!-- wordpress -->
<g id="node1" class="node"><title>wordpress</title>
<path fill="none" stroke="black" d="M28,-61.5C28,-61.5 147,-61.5 147,-61.5 153,-61.5 159,-67.5 159,-73.5 159,-73.5 159,-144.5 159,-144.5 159,-150.5 153,-156.5 147,-156.5 147,-156.5 28,-156.5 28,-156.5 22,-156.5 16,-150.5 16,-144.5 16,-144.5 16,-73.5 16,-73.5 16,-67.5 22,-61.5 28,-61.5"/>
<text text-anchor="middle" x="87.5" y="-141.3" font-family="Times,serif" font-size="14.00">wordpress: WordPress</text>
<polyline fill="none" stroke="black" points="16,-133.5 159,-133.5 "/>
</g>
<!-- wordpress_requirement_host -->
<g id="node2" class="node"><title>wordpress_requirement_host</title>
<polygon fill="turquoise" stroke="black" points="269.5,-94 227.5,-94 227.5,-70 269.5,-70 281.5,-82 269.5,-94"/>
<text text-anchor="middle" x="254.5" y="-78.3" font-family="Times,serif" font-size="14.00">host</text>
</g>
<!-- wordpress&#45;&#45;wordpress_requirement_host -->
<g id="edge1" class="edge"><title>wordpress&#45;&#45;wordpress_requirement_host</title>
<path fill="none" stroke="black" d="M159.432,-97.3929C183.54,-93.4481 208.991,-89.2833 227.332,-86.282"/>
</g>
<!-- wordpress_requirement_database_endpoint -->
<g id="node3" class="node"><title>wordpress_requirement_database_endpoint</title>
<polygon fill="turquoise" stroke="black" points="302,-149 195,-149 195,-125 302,-125 314,-137 302,-149"/>
<text text-anchor="middle" x="254.5" y="-133.3" font-family="Times,serif" font-size="14.00">database_endpoint</text>
</g>
<!-- wordpress&#45;&#45;wordpress_requirement_database_endpoint -->
<g id="edge2" class="edge"><title>wordpress&#45;&#45;wordpress_requirement_database_endpoint</title>
<path fill="none" stroke="black" d="M159.432,-121.037C171.224,-123.038 183.337,-125.094 194.783,-127.036"/>
</g>
<!-- webserver_capability_host -->
<g id="node11" class="node"><title>webserver_capability_host</title>
<polygon fill="orange" stroke="black" points="837,-86 795,-86 795,-62 837,-62 849,-74 837,-86"/>
<text text-anchor="middle" x="822" y="-70.3" font-family="Times,serif" font-size="14.00">host</text>
</g>
<!-- wordpress_requirement_host&#45;&#45;webserver_capability_host -->
<g id="edge11" class="edge"><title>wordpress_requirement_host&#45;&#45;webserver_capability_host</title>
<path fill="none" stroke="black" stroke-dasharray="1,5" d="M281.641,-81.6302C376.24,-80.2919 700.134,-75.7099 794.811,-74.3705"/>
</g>
<!-- mysql_database_capability_database_endpoint -->
<g id="node5" class="node"><title>mysql_database_capability_database_endpoint</title>
<polygon fill="orange" stroke="black" points="457,-151 350,-151 350,-127 457,-127 469,-139 457,-151"/>
<text text-anchor="middle" x="409.5" y="-135.3" font-family="Times,serif" font-size="14.00">database_endpoint</text>
</g>
<!-- wordpress_requirement_database_endpoint&#45;&#45;mysql_database_capability_database_endpoint -->
<g id="edge12" class="edge"><title>wordpress_requirement_database_endpoint&#45;&#45;mysql_database_capability_database_endpoint</title>
<path fill="none" stroke="black" stroke-dasharray="1,5" d="M314.216,-137.768C325.93,-137.921 338.232,-138.081 349.941,-138.235"/>
</g>
<!-- mysql_database -->
<g id="node4" class="node"><title>mysql_database</title>
<path fill="none" stroke="black" d="M517,-113.5C517,-113.5 657,-113.5 657,-113.5 663,-113.5 669,-119.5 669,-125.5 669,-125.5 669,-196.5 669,-196.5 669,-202.5 663,-208.5 657,-208.5 657,-208.5 517,-208.5 517,-208.5 511,-208.5 505,-202.5 505,-196.5 505,-196.5 505,-125.5 505,-125.5 505,-119.5 511,-113.5 517,-113.5"/>
<text text-anchor="middle" x="587" y="-193.3" font-family="Times,serif" font-size="14.00">mysql_database: Database</text>
<polyline fill="none" stroke="black" points="505,-185.5 669,-185.5 "/>
</g>
<!-- mysql_database_requirement_host -->
<g id="node6" class="node"><title>mysql_database_requirement_host</title>
<polygon fill="turquoise" stroke="black" points="747,-178 705,-178 705,-154 747,-154 759,-166 747,-178"/>
<text text-anchor="middle" x="732" y="-162.3" font-family="Times,serif" font-size="14.00">host</text>
</g>
<!-- mysql_database&#45;&#45;mysql_database_requirement_host -->
<g id="edge4" class="edge"><title>mysql_database&#45;&#45;mysql_database_requirement_host</title>
<path fill="none" stroke="black" d="M669.11,-163.836C681.97,-164.286 694.407,-164.721 704.717,-165.081"/>
</g>
<!-- mysql_database_capability_database_endpoint&#45;&#45;mysql_database -->
<g id="edge3" class="edge"><title>mysql_database_capability_database_endpoint&#45;&#45;mysql_database</title>
<path fill="none" stroke="black" d="M469.427,-146.387C480.779,-147.81 492.855,-149.324 504.77,-150.817"/>
</g>
<!-- mysql_dbms_capability_host -->
<g id="node8" class="node"><title>mysql_dbms_capability_host</title>
<polygon fill="orange" stroke="black" points="837,-181 795,-181 795,-157 837,-157 849,-169 837,-181"/>
<text text-anchor="middle" x="822" y="-165.3" font-family="Times,serif" font-size="14.00">host</text>
</g>
<!-- mysql_database_requirement_host&#45;&#45;mysql_dbms_capability_host -->
<g id="edge13" class="edge"><title>mysql_database_requirement_host&#45;&#45;mysql_dbms_capability_host</title>
<path fill="none" stroke="black" stroke-dasharray="1,5" d="M759.403,-166.9C770.642,-167.283 783.715,-167.729 794.919,-168.111"/>
</g>
<!-- mysql_dbms -->
<g id="node7" class="node"><title>mysql_dbms</title>
<path fill="none" stroke="black" d="M901.5,-136.5C901.5,-136.5 1013.5,-136.5 1013.5,-136.5 1019.5,-136.5 1025.5,-142.5 1025.5,-148.5 1025.5,-148.5 1025.5,-219.5 1025.5,-219.5 1025.5,-225.5 1019.5,-231.5 1013.5,-231.5 1013.5,-231.5 901.5,-231.5 901.5,-231.5 895.5,-231.5 889.5,-225.5 889.5,-219.5 889.5,-219.5 889.5,-148.5 889.5,-148.5 889.5,-142.5 895.5,-136.5 901.5,-136.5"/>
<text text-anchor="middle" x="957.5" y="-216.3" font-family="Times,serif" font-size="14.00">mysql_dbms: DBMS</text>
<polyline fill="none" stroke="black" points="889.5,-208.5 1025.5,-208.5 "/>
</g>
<!-- mysql_dbms_requirement_host -->
<g id="node9" class="node"><title>mysql_dbms_requirement_host</title>
<polygon fill="turquoise" stroke="black" points="1108,-181 1066,-181 1066,-157 1108,-157 1120,-169 1108,-181"/>
<text text-anchor="middle" x="1093" y="-165.3" font-family="Times,serif" font-size="14.00">host</text>
</g>
<!-- mysql_dbms&#45;&#45;mysql_dbms_requirement_host -->
<g id="edge6" class="edge"><title>mysql_dbms&#45;&#45;mysql_dbms_requirement_host</title>
<path fill="none" stroke="black" d="M1025.64,-176.456C1039.93,-174.851 1054.19,-173.249 1065.81,-171.943"/>
</g>
<!-- mysql_dbms_capability_host&#45;&#45;mysql_dbms -->
<g id="edge5" class="edge"><title>mysql_dbms_capability_host&#45;&#45;mysql_dbms</title>
<path fill="none" stroke="black" d="M849.057,-171.928C860.667,-173.232 874.932,-174.835 889.23,-176.442"/>
</g>
<!-- server_capability_host -->
<g id="node14" class="node"><title>server_capability_host</title>
<polygon fill="orange" stroke="black" points="1198,-140 1156,-140 1156,-116 1198,-116 1210,-128 1198,-140"/>
<text text-anchor="middle" x="1183" y="-124.3" font-family="Times,serif" font-size="14.00">host</text>
</g>
<!-- mysql_dbms_requirement_host&#45;&#45;server_capability_host -->
<g id="edge14" class="edge"><title>mysql_dbms_requirement_host&#45;&#45;server_capability_host</title>
<path fill="none" stroke="black" stroke-dasharray="1,5" d="M1120.4,-156.699C1131.64,-151.462 1144.72,-145.371 1155.92,-140.151"/>
</g>
<!-- webserver -->
<g id="node10" class="node"><title>webserver</title>
<path fill="none" stroke="black" d="M897,-16.5C897,-16.5 1018,-16.5 1018,-16.5 1024,-16.5 1030,-22.5 1030,-28.5 1030,-28.5 1030,-99.5 1030,-99.5 1030,-105.5 1024,-111.5 1018,-111.5 1018,-111.5 897,-111.5 897,-111.5 891,-111.5 885,-105.5 885,-99.5 885,-99.5 885,-28.5 885,-28.5 885,-22.5 891,-16.5 897,-16.5"/>
<text text-anchor="middle" x="957.5" y="-96.3" font-family="Times,serif" font-size="14.00">webserver: WebServer</text>
<polyline fill="none" stroke="black" points="885,-88.5 1030,-88.5 "/>
</g>
<!-- webserver_requirement_host -->
<g id="node12" class="node"><title>webserver_requirement_host</title>
<polygon fill="turquoise" stroke="black" points="1108,-88 1066,-88 1066,-64 1108,-64 1120,-76 1108,-88"/>
<text text-anchor="middle" x="1093" y="-72.3" font-family="Times,serif" font-size="14.00">host</text>
</g>
<!-- webserver&#45;&#45;webserver_requirement_host -->
<g id="edge8" class="edge"><title>webserver&#45;&#45;webserver_requirement_host</title>
<path fill="none" stroke="black" d="M1030.33,-70.4566C1043.04,-71.5994 1055.51,-72.72 1065.87,-73.6512"/>
</g>
<!-- webserver_capability_host&#45;&#45;webserver -->
<g id="edge7" class="edge"><title>webserver_capability_host&#45;&#45;webserver</title>
<path fill="none" stroke="black" d="M849.057,-72.0482C859.453,-71.2695 871.978,-70.3313 884.748,-69.3747"/>
</g>
<!-- webserver_requirement_host&#45;&#45;server_capability_host -->
<g id="edge15" class="edge"><title>webserver_requirement_host&#45;&#45;server_capability_host</title>
<path fill="none" stroke="black" stroke-dasharray="1,5" d="M1120.4,-91.6017C1131.64,-98.243 1144.72,-105.968 1155.92,-112.588"/>
</g>
<!-- server -->
<g id="node13" class="node"><title>server</title>
<path fill="none" stroke="black" d="M1258,-53.5C1258,-53.5 1344,-53.5 1344,-53.5 1350,-53.5 1356,-59.5 1356,-65.5 1356,-65.5 1356,-136.5 1356,-136.5 1356,-142.5 1350,-148.5 1344,-148.5 1344,-148.5 1258,-148.5 1258,-148.5 1252,-148.5 1246,-142.5 1246,-136.5 1246,-136.5 1246,-65.5 1246,-65.5 1246,-59.5 1252,-53.5 1258,-53.5"/>
<text text-anchor="middle" x="1301" y="-133.3" font-family="Times,serif" font-size="14.00">server: Compute</text>
<polyline fill="none" stroke="black" points="1246,-125.5 1356,-125.5 "/>
</g>
<!-- server_capability_host&#45;&#45;server -->
<g id="edge9" class="edge"><title>server_capability_host&#45;&#45;server</title>
<path fill="none" stroke="black" d="M1210.03,-121.941C1220.59,-119.484 1233.19,-116.55 1245.58,-113.666"/>
</g>
<!-- server_capability_os -->
<g id="node15" class="node"><title>server_capability_os</title>
<polygon fill="orange" stroke="black" points="1198,-86 1156,-86 1156,-62 1198,-62 1210,-74 1198,-86"/>
<text text-anchor="middle" x="1183" y="-70.3" font-family="Times,serif" font-size="14.00">os</text>
</g>
<!-- server_capability_os&#45;&#45;server -->
<g id="edge10" class="edge"><title>server_capability_os&#45;&#45;server</title>
<path fill="none" stroke="black" d="M1210.03,-80.0593C1220.59,-82.5159 1233.19,-85.4505 1245.58,-88.3341"/>
</g>
</g>
</svg>
