<?xml version="1.0" encoding="UTF-8" standalone="no"?>
<!DOCTYPE svg PUBLIC "-//W3C//DTD SVG 1.1//EN"
 "http://www.w3.org/Graphics/SVG/1.1/DTD/svg11.dtd">
<!-- Generated by graphviz version 2.38.0 (20140413.2041)
 -->
<!-- Title: ToscaDiagram Pages: 1 -->
<svg width="1798pt" height="598pt"
 viewBox="0.00 0.00 1798.00 598.00" xmlns="http://www.w3.org/2000/svg" xmlns:xlink="http://www.w3.org/1999/xlink">
<g id="graph0" class="graph" transform="scale(1 1) rotate(0) translate(4 594)">
<title>ToscaDiagram</title>
<polygon fill="white" stroke="none" points="-4,4 -4,-594 1794,-594 1794,4 -4,4"/>
<g id="clust1" class="cluster"><title>clusterpaypal_pizzastore</title>
<polygon fill="none" stroke="white" points="8,-332 8,-444 544,-444 544,-332 8,-332"/>
</g>
<g id="clust2" class="cluster"><title>clusternodejs</title>
<polygon fill="none" stroke="white" points="570,-402 570,-562 960,-562 960,-402 570,-402"/>
</g>
<g id="clust3" class="cluster"><title>clustermongo_db</title>
<polygon fill="none" stroke="white" points="564,-263 564,-375 960,-375 960,-263 564,-263"/>
</g>
<g id="clust4" class="cluster"><title>clustermongo_dbms</title>
<polygon fill="none" stroke="white" points="985.5,-194 985.5,-306 1345,-306 1345,-194 985.5,-194"/>
</g>
<g id="clust5" class="cluster"><title>clustermongo_server</title>
<polygon fill="none" stroke="white" points="1383,-8 1383,-276 1782,-276 1782,-8 1383,-8"/>
</g>
<g id="clust6" class="cluster"><title>clusterapp_server</title>
<polygon fill="none" stroke="white" points="980,-314 980,-582 1363,-582 1363,-314 980,-314"/>
</g>
<!-- paypal_pizzastore -->
<g id="node1" class="node"><title>paypal_pizzastore</title>
<path fill="none" stroke="black" d="M157,-340.5C157,-340.5 357,-340.5 357,-340.5 363,-340.5 369,-346.5 369,-352.5 369,-352.5 369,-423.5 369,-423.5 369,-429.5 363,-435.5 357,-435.5 357,-435.5 157,-435.5 157,-435.5 151,-435.5 145,-429.5 145,-423.5 145,-423.5 145,-352.5 145,-352.5 145,-346.5 151,-340.5 157,-340.5"/>
<text text-anchor="middle" x="257" y="-420.3" font-family="Times,serif" font-size="14.00">paypal_pizzastore: PayPalPizzaStore</text>
<polyline fill="none" stroke="black" points="145,-412.5 369,-412.5 "/>
</g>
<!-- paypal_pizzastore_requirement_host -->
<g id="node3" class="node"><title>paypal_pizzastore_requirement_host</title>
<polygon fill="turquoise" stroke="black" points="485.5,-428 443.5,-428 443.5,-404 485.5,-404 497.5,-416 485.5,-428"/>
<text text-anchor="middle" x="470.5" y="-412.3" font-family="Times,serif" font-size="14.00">host</text>
</g>
<!-- paypal_pizzastore&#45;&#45;paypal_pizzastore_requirement_host -->
<g id="edge2" class="edge"><title>paypal_pizzastore&#45;&#45;paypal_pizzastore_requirement_host</title>
<path fill="none" stroke="black" d="M369.015,-402.697C396.741,-406.368 423.982,-409.974 443.092,-412.504"/>
</g>
<!-- paypal_pizzastore_requirement_database_connection -->
<g id="node4" class="node"><title>paypal_pizzastore_requirement_database_connection</title>
<polygon fill="turquoise" stroke="black" points="524,-373 405,-373 405,-349 524,-349 536,-361 524,-373"/>
<text text-anchor="middle" x="470.5" y="-357.3" font-family="Times,serif" font-size="14.00">database_connection</text>
</g>
<!-- paypal_pizzastore&#45;&#45;paypal_pizzastore_requirement_database_connection -->
<g id="edge3" class="edge"><title>paypal_pizzastore&#45;&#45;paypal_pizzastore_requirement_database_connection</title>
<path fill="none" stroke="black" d="M369.015,-373.828C381.282,-372.262 393.454,-370.708 404.87,-369.251"/>
</g>
<!-- paypal_pizzastore_capability_app_endpoint -->
<g id="node2" class="node"><title>paypal_pizzastore_capability_app_endpoint</title>
<polygon fill="orange" stroke="black" points="97,-400 16,-400 16,-376 97,-376 109,-388 97,-400"/>
<text text-anchor="middle" x="62.5" y="-384.3" font-family="Times,serif" font-size="14.00">app_endpoint</text>
</g>
<!-- paypal_pizzastore_capability_app_endpoint&#45;&#45;paypal_pizzastore -->
<g id="edge1" class="edge"><title>paypal_pizzastore_capability_app_endpoint&#45;&#45;paypal_pizzastore</title>
<path fill="none" stroke="black" d="M109.12,-388C120.127,-388 132.369,-388 144.956,-388"/>
</g>
<!-- nodejs_capability_host -->
<g id="node8" class="node"><title>nodejs_capability_host</title>
<polygon fill="orange" stroke="black" points="646.5,-440 604.5,-440 604.5,-416 646.5,-416 658.5,-428 646.5,-440"/>
<text text-anchor="middle" x="631.5" y="-424.3" font-family="Times,serif" font-size="14.00">host</text>
</g>
<!-- paypal_pizzastore_requirement_host&#45;&#45;nodejs_capability_host -->
<g id="edge25" class="edge"><title>paypal_pizzastore_requirement_host&#45;&#45;nodejs_capability_host</title>
<path fill="none" stroke="black" stroke-dasharray="1,5" d="M497.756,-417.982C527.304,-420.212 575.014,-423.812 604.47,-426.035"/>
</g>
<!-- mongo_db_capability_feature -->
<g id="node11" class="node"><title>mongo_db_capability_feature</title>
<polygon fill="orange" stroke="black" points="647,-361 604,-361 604,-337 647,-337 659,-349 647,-361"/>
<text text-anchor="middle" x="631.5" y="-345.3" font-family="Times,serif" font-size="14.00">feature</text>
</g>
<!-- paypal_pizzastore_requirement_database_connection&#45;&#45;mongo_db_capability_feature -->
<g id="edge26" class="edge"><title>paypal_pizzastore_requirement_database_connection&#45;&#45;mongo_db_capability_feature</title>
<path fill="none" stroke="black" stroke-dasharray="1,5" d="M536.171,-356.119C559.901,-354.328 585.458,-352.399 603.976,-351.002"/>
</g>
<!-- nodejs -->
<g id="node5" class="node"><title>nodejs</title>
<path fill="none" stroke="black" d="M757.5,-446.5C757.5,-446.5 831.5,-446.5 831.5,-446.5 837.5,-446.5 843.5,-452.5 843.5,-458.5 843.5,-458.5 843.5,-529.5 843.5,-529.5 843.5,-535.5 837.5,-541.5 831.5,-541.5 831.5,-541.5 757.5,-541.5 757.5,-541.5 751.5,-541.5 745.5,-535.5 745.5,-529.5 745.5,-529.5 745.5,-458.5 745.5,-458.5 745.5,-452.5 751.5,-446.5 757.5,-446.5"/>
<text text-anchor="middle" x="794.5" y="-526.3" font-family="Times,serif" font-size="14.00">nodejs: Nodejs</text>
<polyline fill="none" stroke="black" points="745.5,-518.5 843.5,-518.5 "/>
</g>
<!-- nodejs_requirement_host -->
<g id="node9" class="node"><title>nodejs_requirement_host</title>
<polygon fill="turquoise" stroke="black" points="940,-527 898,-527 898,-503 940,-503 952,-515 940,-527"/>
<text text-anchor="middle" x="925" y="-511.3" font-family="Times,serif" font-size="14.00">host</text>
</g>
<!-- nodejs&#45;&#45;nodejs_requirement_host -->
<g id="edge7" class="edge"><title>nodejs&#45;&#45;nodejs_requirement_host</title>
<path fill="none" stroke="black" d="M843.714,-501.879C862.088,-504.882 882.331,-508.19 897.893,-510.734"/>
</g>
<!-- nodejs_capability_data_endpoint -->
<g id="node6" class="node"><title>nodejs_capability_data_endpoint</title>
<polygon fill="orange" stroke="black" points="667,-548 584,-548 584,-524 667,-524 679,-536 667,-548"/>
<text text-anchor="middle" x="631.5" y="-532.3" font-family="Times,serif" font-size="14.00">data_endpoint</text>
</g>
<!-- nodejs_capability_data_endpoint&#45;&#45;nodejs -->
<g id="edge4" class="edge"><title>nodejs_capability_data_endpoint&#45;&#45;nodejs</title>
<path fill="none" stroke="black" d="M679.068,-523.852C699.871,-518.425 724.374,-512.033 745.358,-506.559"/>
</g>
<!-- nodejs_capability_admin_endpoint -->
<g id="node7" class="node"><title>nodejs_capability_admin_endpoint</title>
<polygon fill="orange" stroke="black" points="673,-494 578,-494 578,-470 673,-470 685,-482 673,-494"/>
<text text-anchor="middle" x="631.5" y="-478.3" font-family="Times,serif" font-size="14.00">admin_endpoint</text>
</g>
<!-- nodejs_capability_admin_endpoint&#45;&#45;nodejs -->
<g id="edge5" class="edge"><title>nodejs_capability_admin_endpoint&#45;&#45;nodejs</title>
<path fill="none" stroke="black" d="M685.217,-485.929C704.568,-487.372 726.359,-488.996 745.294,-490.407"/>
</g>
<!-- nodejs_capability_host&#45;&#45;nodejs -->
<g id="edge6" class="edge"><title>nodejs_capability_host&#45;&#45;nodejs</title>
<path fill="none" stroke="black" d="M658.726,-438.751C682.071,-448.321 716.815,-462.564 745.179,-474.192"/>
</g>
<!-- app_server_capability_host -->
<g id="node25" class="node"><title>app_server_capability_host</title>
<polygon fill="orange" stroke="black" points="1035.5,-568 993.5,-568 993.5,-544 1035.5,-544 1047.5,-556 1035.5,-568"/>
<text text-anchor="middle" x="1020.5" y="-552.3" font-family="Times,serif" font-size="14.00">host</text>
</g>
<!-- nodejs_requirement_host&#45;&#45;app_server_capability_host -->
<g id="edge27" class="edge"><title>nodejs_requirement_host&#45;&#45;app_server_capability_host</title>
<path fill="none" stroke="black" stroke-dasharray="1,5" d="M952.045,-526.421C964.905,-532.06 980.385,-538.848 993.27,-544.498"/>
</g>
<!-- mongo_db -->
<g id="node10" class="node"><title>mongo_db</title>
<path fill="none" stroke="black" d="M739,-271.5C739,-271.5 850,-271.5 850,-271.5 856,-271.5 862,-277.5 862,-283.5 862,-283.5 862,-354.5 862,-354.5 862,-360.5 856,-366.5 850,-366.5 850,-366.5 739,-366.5 739,-366.5 733,-366.5 727,-360.5 727,-354.5 727,-354.5 727,-283.5 727,-283.5 727,-277.5 733,-271.5 739,-271.5"/>
<text text-anchor="middle" x="794.5" y="-351.3" font-family="Times,serif" font-size="14.00">mongo_db: Database</text>
<polyline fill="none" stroke="black" points="727,-343.5 862,-343.5 "/>
</g>
<!-- mongo_db_requirement_host -->
<g id="node13" class="node"><title>mongo_db_requirement_host</title>
<polygon fill="turquoise" stroke="black" points="940,-316 898,-316 898,-292 940,-292 952,-304 940,-316"/>
<text text-anchor="middle" x="925" y="-300.3" font-family="Times,serif" font-size="14.00">host</text>
</g>
<!-- mongo_db&#45;&#45;mongo_db_requirement_host -->
<g id="edge10" class="edge"><title>mongo_db&#45;&#45;mongo_db_requirement_host</title>
<path fill="none" stroke="black" d="M862.008,-311.236C874.746,-309.749 887.366,-308.276 897.861,-307.051"/>
</g>
<!-- mongo_db_capability_feature&#45;&#45;mongo_db -->
<g id="edge8" class="edge"><title>mongo_db_capability_feature&#45;&#45;mongo_db</title>
<path fill="none" stroke="black" d="M659.086,-344.046C677.574,-340.601 703.083,-335.848 726.915,-331.407"/>
</g>
<!-- mongo_db_capability_database_endpoint -->
<g id="node12" class="node"><title>mongo_db_capability_database_endpoint</title>
<polygon fill="orange" stroke="black" points="679,-307 572,-307 572,-283 679,-283 691,-295 679,-307"/>
<text text-anchor="middle" x="631.5" y="-291.3" font-family="Times,serif" font-size="14.00">database_endpoint</text>
</g>
<!-- mongo_db_capability_database_endpoint&#45;&#45;mongo_db -->
<g id="edge9" class="edge"><title>mongo_db_capability_database_endpoint&#45;&#45;mongo_db</title>
<path fill="none" stroke="black" d="M691.08,-303.732C702.679,-305.461 714.934,-307.288 726.779,-309.054"/>
</g>
<!-- mongo_dbms_capability_host -->
<g id="node15" class="node"><title>mongo_dbms_capability_host</title>
<polygon fill="orange" stroke="black" points="1035.5,-277 993.5,-277 993.5,-253 1035.5,-253 1047.5,-265 1035.5,-277"/>
<text text-anchor="middle" x="1020.5" y="-261.3" font-family="Times,serif" font-size="14.00">host</text>
</g>
<!-- mongo_db_requirement_host&#45;&#45;mongo_dbms_capability_host -->
<g id="edge28" class="edge"><title>mongo_db_requirement_host&#45;&#45;mongo_dbms_capability_host</title>
<path fill="none" stroke="black" stroke-dasharray="1,5" d="M952.045,-293.136C964.905,-287.772 980.385,-281.315 993.27,-275.941"/>
</g>
<!-- mongo_dbms -->
<g id="node14" class="node"><title>mongo_dbms</title>
<path fill="none" stroke="black" d="M1101,-202.5C1101,-202.5 1217,-202.5 1217,-202.5 1223,-202.5 1229,-208.5 1229,-214.5 1229,-214.5 1229,-285.5 1229,-285.5 1229,-291.5 1223,-297.5 1217,-297.5 1217,-297.5 1101,-297.5 1101,-297.5 1095,-297.5 1089,-291.5 1089,-285.5 1089,-285.5 1089,-214.5 1089,-214.5 1089,-208.5 1095,-202.5 1101,-202.5"/>
<text text-anchor="middle" x="1159" y="-282.3" font-family="Times,serif" font-size="14.00">mongo_dbms: DBMS</text>
<polyline fill="none" stroke="black" points="1089,-274.5 1229,-274.5 "/>
</g>
<!-- mongo_dbms_requirement_host -->
<g id="node16" class="node"><title>mongo_dbms_requirement_host</title>
<polygon fill="turquoise" stroke="black" points="1325,-262 1283,-262 1283,-238 1325,-238 1337,-250 1325,-262"/>
<text text-anchor="middle" x="1310" y="-246.3" font-family="Times,serif" font-size="14.00">host</text>
</g>
<!-- mongo_dbms&#45;&#45;mongo_dbms_requirement_host -->
<g id="edge12" class="edge"><title>mongo_dbms&#45;&#45;mongo_dbms_requirement_host</title>
<path fill="none" stroke="black" d="M1229.27,-250C1248.26,-250 1267.72,-250 1282.66,-250"/>
</g>
<!-- mongo_dbms_capability_host&#45;&#45;mongo_dbms -->
<g id="edge11" class="edge"><title>mongo_dbms_capability_host&#45;&#45;mongo_dbms</title>
<path fill="none" stroke="black" d="M1047.82,-262.108C1059.67,-260.805 1074.28,-259.2 1088.94,-257.589"/>
</g>
<!-- mongo_server_capability_host -->
<g id="node18" class="node"><title>mongo_server_capability_host</title>
<polygon fill="orange" stroke="black" points="1438.5,-262 1396.5,-262 1396.5,-238 1438.5,-238 1450.5,-250 1438.5,-262"/>
<text text-anchor="middle" x="1423.5" y="-246.3" font-family="Times,serif" font-size="14.00">host</text>
</g>
<!-- mongo_dbms_requirement_host&#45;&#45;mongo_server_capability_host -->
<g id="edge29" class="edge"><title>mongo_dbms_requirement_host&#45;&#45;mongo_server_capability_host</title>
<path fill="none" stroke="black" stroke-dasharray="1,5" d="M1337.14,-250C1354.91,-250 1378.32,-250 1396.14,-250"/>
</g>
<!-- mongo_server -->
<g id="node17" class="node"><title>mongo_server</title>
<path fill="none" stroke="black" d="M1504,-94.5C1504,-94.5 1636,-94.5 1636,-94.5 1642,-94.5 1648,-100.5 1648,-106.5 1648,-106.5 1648,-177.5 1648,-177.5 1648,-183.5 1642,-189.5 1636,-189.5 1636,-189.5 1504,-189.5 1504,-189.5 1498,-189.5 1492,-183.5 1492,-177.5 1492,-177.5 1492,-106.5 1492,-106.5 1492,-100.5 1498,-94.5 1504,-94.5"/>
<text text-anchor="middle" x="1570" y="-174.3" font-family="Times,serif" font-size="14.00">mongo_server: Compute</text>
<polyline fill="none" stroke="black" points="1492,-166.5 1648,-166.5 "/>
</g>
<!-- mongo_server_requirement_local_storage -->
<g id="node23" class="node"><title>mongo_server_requirement_local_storage</title>
<polygon fill="turquoise" stroke="black" points="1762,-154 1684,-154 1684,-130 1762,-130 1774,-142 1762,-154"/>
<text text-anchor="middle" x="1729" y="-138.3" font-family="Times,serif" font-size="14.00">local_storage</text>
</g>
<!-- mongo_server&#45;&#45;mongo_server_requirement_local_storage -->
<g id="edge18" class="edge"><title>mongo_server&#45;&#45;mongo_server_requirement_local_storage</title>
<path fill="none" stroke="black" d="M1648.12,-142C1660.37,-142 1672.67,-142 1683.82,-142"/>
</g>
<!-- mongo_server_capability_host&#45;&#45;mongo_server -->
<g id="edge13" class="edge"><title>mongo_server_capability_host&#45;&#45;mongo_server</title>
<path fill="none" stroke="black" d="M1448.69,-231.923C1464.19,-220.334 1485.1,-204.704 1505.14,-189.727"/>
</g>
<!-- mongo_server_capability_endpoint -->
<g id="node19" class="node"><title>mongo_server_capability_endpoint</title>
<polygon fill="orange" stroke="black" points="1444,-208 1391,-208 1391,-184 1444,-184 1456,-196 1444,-208"/>
<text text-anchor="middle" x="1423.5" y="-192.3" font-family="Times,serif" font-size="14.00">endpoint</text>
</g>
<!-- mongo_server_capability_endpoint&#45;&#45;mongo_server -->
<g id="edge14" class="edge"><title>mongo_server_capability_endpoint&#45;&#45;mongo_server</title>
<path fill="none" stroke="black" d="M1456.21,-184.149C1466.85,-180.176 1479.21,-175.554 1491.78,-170.858"/>
</g>
<!-- mongo_server_capability_os -->
<g id="node20" class="node"><title>mongo_server_capability_os</title>
<polygon fill="orange" stroke="black" points="1438.5,-154 1396.5,-154 1396.5,-130 1438.5,-130 1450.5,-142 1438.5,-154"/>
<text text-anchor="middle" x="1423.5" y="-138.3" font-family="Times,serif" font-size="14.00">os</text>
</g>
<!-- mongo_server_capability_os&#45;&#45;mongo_server -->
<g id="edge15" class="edge"><title>mongo_server_capability_os&#45;&#45;mongo_server</title>
<path fill="none" stroke="black" d="M1450.67,-142C1462.46,-142 1477.06,-142 1491.94,-142"/>
</g>
<!-- mongo_server_capability_scalable -->
<g id="node21" class="node"><title>mongo_server_capability_scalable</title>
<polygon fill="orange" stroke="black" points="1442,-100 1393,-100 1393,-76 1442,-76 1454,-88 1442,-100"/>
<text text-anchor="middle" x="1423.5" y="-84.3" font-family="Times,serif" font-size="14.00">scalable</text>
</g>
<!-- mongo_server_capability_scalable&#45;&#45;mongo_server -->
<g id="edge16" class="edge"><title>mongo_server_capability_scalable&#45;&#45;mongo_server</title>
<path fill="none" stroke="black" d="M1454.09,-99.058C1465.24,-103.224 1478.49,-108.178 1491.97,-113.216"/>
</g>
<!-- mongo_server_capability_binding -->
<g id="node22" class="node"><title>mongo_server_capability_binding</title>
<polygon fill="orange" stroke="black" points="1441,-46 1394,-46 1394,-22 1441,-22 1453,-34 1441,-46"/>
<text text-anchor="middle" x="1423.5" y="-30.3" font-family="Times,serif" font-size="14.00">binding</text>
</g>
<!-- mongo_server_capability_binding&#45;&#45;mongo_server -->
<g id="edge17" class="edge"><title>mongo_server_capability_binding&#45;&#45;mongo_server</title>
<path fill="none" stroke="black" d="M1448.69,-52.0768C1464.19,-63.6662 1485.1,-79.2958 1505.14,-94.2729"/>
</g>
<!-- app_server -->
<g id="node24" class="node"><title>app_server</title>
<path fill="none" stroke="black" d="M1101.5,-400.5C1101.5,-400.5 1216.5,-400.5 1216.5,-400.5 1222.5,-400.5 1228.5,-406.5 1228.5,-412.5 1228.5,-412.5 1228.5,-483.5 1228.5,-483.5 1228.5,-489.5 1222.5,-495.5 1216.5,-495.5 1216.5,-495.5 1101.5,-495.5 1101.5,-495.5 1095.5,-495.5 1089.5,-489.5 1089.5,-483.5 1089.5,-483.5 1089.5,-412.5 1089.5,-412.5 1089.5,-406.5 1095.5,-400.5 1101.5,-400.5"/>
<text text-anchor="middle" x="1159" y="-480.3" font-family="Times,serif" font-size="14.00">app_server: Compute</text>
<polyline fill="none" stroke="black" points="1089.5,-472.5 1228.5,-472.5 "/>
</g>
<!-- app_server_requirement_local_storage -->
<g id="node30" class="node"><title>app_server_requirement_local_storage</title>
<polygon fill="turquoise" stroke="black" points="1343,-460 1265,-460 1265,-436 1343,-436 1355,-448 1343,-460"/>
<text text-anchor="middle" x="1310" y="-444.3" font-family="Times,serif" font-size="14.00">local_storage</text>
</g>
<!-- app_server&#45;&#45;app_server_requirement_local_storage -->
<g id="edge24" class="edge"><title>app_server&#45;&#45;app_server_requirement_local_storage</title>
<path fill="none" stroke="black" d="M1228.83,-448C1241.03,-448 1253.43,-448 1264.72,-448"/>
</g>
<!-- app_server_capability_host&#45;&#45;app_server -->
<g id="edge19" class="edge"><title>app_server_capability_host&#45;&#45;app_server</title>
<path fill="none" stroke="black" d="M1044.35,-537.923C1058.99,-526.334 1078.75,-510.704 1097.68,-495.727"/>
</g>
<!-- app_server_capability_endpoint -->
<g id="node26" class="node"><title>app_server_capability_endpoint</title>
<polygon fill="orange" stroke="black" points="1041,-514 988,-514 988,-490 1041,-490 1053,-502 1041,-514"/>
<text text-anchor="middle" x="1020.5" y="-498.3" font-family="Times,serif" font-size="14.00">endpoint</text>
</g>
<!-- app_server_capability_endpoint&#45;&#45;app_server -->
<g id="edge20" class="edge"><title>app_server_capability_endpoint&#45;&#45;app_server</title>
<path fill="none" stroke="black" d="M1053.16,-489.476C1064.03,-485.176 1076.65,-480.181 1089.3,-475.178"/>
</g>
<!-- app_server_capability_os -->
<g id="node27" class="node"><title>app_server_capability_os</title>
<polygon fill="orange" stroke="black" points="1035.5,-460 993.5,-460 993.5,-436 1035.5,-436 1047.5,-448 1035.5,-460"/>
<text text-anchor="middle" x="1020.5" y="-444.3" font-family="Times,serif" font-size="14.00">os</text>
</g>
<!-- app_server_capability_os&#45;&#45;app_server -->
<g id="edge21" class="edge"><title>app_server_capability_os&#45;&#45;app_server</title>
<path fill="none" stroke="black" d="M1047.82,-448C1059.75,-448 1074.47,-448 1089.23,-448"/>
</g>
<!-- app_server_capability_scalable -->
<g id="node28" class="node"><title>app_server_capability_scalable</title>
<polygon fill="orange" stroke="black" points="1039,-406 990,-406 990,-382 1039,-382 1051,-394 1039,-406"/>
<text text-anchor="middle" x="1020.5" y="-390.3" font-family="Times,serif" font-size="14.00">scalable</text>
</g>
<!-- app_server_capability_scalable&#45;&#45;app_server -->
<g id="edge22" class="edge"><title>app_server_capability_scalable&#45;&#45;app_server</title>
<path fill="none" stroke="black" d="M1051.12,-405.717C1062.41,-410.184 1075.8,-415.483 1089.23,-420.792"/>
</g>
<!-- app_server_capability_binding -->
<g id="node29" class="node"><title>app_server_capability_binding</title>
<polygon fill="orange" stroke="black" points="1038,-352 991,-352 991,-328 1038,-328 1050,-340 1038,-352"/>
<text text-anchor="middle" x="1020.5" y="-336.3" font-family="Times,serif" font-size="14.00">binding</text>
</g>
<!-- app_server_capability_binding&#45;&#45;app_server -->
<g id="edge23" class="edge"><title>app_server_capability_binding&#45;&#45;app_server</title>
<path fill="none" stroke="black" d="M1044.35,-358.077C1058.99,-369.666 1078.75,-385.296 1097.68,-400.273"/>
</g>
</g>
</svg>
