<?xml version="1.0" encoding="UTF-8" standalone="no"?>
<!DOCTYPE svg PUBLIC "-//W3C//DTD SVG 1.1//EN"
 "http://www.w3.org/Graphics/SVG/1.1/DTD/svg11.dtd">
<!-- Generated by graphviz version 2.38.0 (20140413.2041)
 -->
<!-- Title: ToscaDiagram Pages: 1 -->
<svg width="1485pt" height="283pt"
 viewBox="0.00 0.00 1485.00 283.00" xmlns="http://www.w3.org/2000/svg" xmlns:xlink="http://www.w3.org/1999/xlink">
<g id="graph0" class="graph" transform="scale(1 1) rotate(0) translate(4 279)">
<title>ToscaDiagram</title>
<polygon fill="white" stroke="none" points="-4,4 -4,-279 1481,-279 1481,4 -4,4"/>
<g id="clust1" class="cluster"><title>clusterpaypal_pizzastore</title>
<polygon fill="none" stroke="white" points="8,-96 8,-208 415,-208 415,-96 8,-96"/>
</g>
<g id="clust2" class="cluster"><title>clusternodejs</title>
<polygon fill="none" stroke="white" points="467.5,-155 467.5,-267 831,-267 831,-155 467.5,-155"/>
</g>
<g id="clust3" class="cluster"><title>clustermongo_db</title>
<polygon fill="none" stroke="white" points="435,-35 435,-147 831,-147 831,-35 435,-35"/>
</g>
<g id="clust4" class="cluster"><title>clustermongo_dbms</title>
<polygon fill="none" stroke="white" points="851,-35 851,-147 1187,-147 1187,-35 851,-35"/>
</g>
<g id="clust5" class="cluster"><title>clustermongo_server</title>
<polygon fill="none" stroke="white" points="1207,-8 1207,-120 1469,-120 1469,-8 1207,-8"/>
</g>
<g id="clust6" class="cluster"><title>clusterapp_server</title>
<polygon fill="none" stroke="white" points="851,-155 851,-267 1096.5,-267 1096.5,-155 851,-155"/>
</g>
<!-- paypal_pizzastore -->
<g id="node1" class="node"><title>paypal_pizzastore</title>
<path fill="none" stroke="black" d="M28,-104.5C28,-104.5 228,-104.5 228,-104.5 234,-104.5 240,-110.5 240,-116.5 240,-116.5 240,-187.5 240,-187.5 240,-193.5 234,-199.5 228,-199.5 228,-199.5 28,-199.5 28,-199.5 22,-199.5 16,-193.5 16,-187.5 16,-187.5 16,-116.5 16,-116.5 16,-110.5 22,-104.5 28,-104.5"/>
<text text-anchor="middle" x="128" y="-184.3" font-family="Times,serif" font-size="14.00">paypal_pizzastore: PayPalPizzaStore</text>
<polyline fill="none" stroke="black" points="16,-176.5 240,-176.5 "/>
</g>
<!-- paypal_pizzastore_requirement_host -->
<g id="node2" class="node"><title>paypal_pizzastore_requirement_host</title>
<polygon fill="turquoise" stroke="black" points="356.5,-193 314.5,-193 314.5,-169 356.5,-169 368.5,-181 356.5,-193"/>
<text text-anchor="middle" x="341.5" y="-177.3" font-family="Times,serif" font-size="14.00">host</text>
</g>
<!-- paypal_pizzastore&#45;&#45;paypal_pizzastore_requirement_host -->
<g id="edge1" class="edge"><title>paypal_pizzastore&#45;&#45;paypal_pizzastore_requirement_host</title>
<path fill="none" stroke="black" d="M240.015,-167.222C267.741,-171.024 294.982,-174.759 314.092,-177.379"/>
</g>
<!-- paypal_pizzastore_requirement_database_connection -->
<g id="node3" class="node"><title>paypal_pizzastore_requirement_database_connection</title>
<polygon fill="turquoise" stroke="black" points="395,-136 276,-136 276,-112 395,-112 407,-124 395,-136"/>
<text text-anchor="middle" x="341.5" y="-120.3" font-family="Times,serif" font-size="14.00">database_connection</text>
</g>
<!-- paypal_pizzastore&#45;&#45;paypal_pizzastore_requirement_database_connection -->
<g id="edge2" class="edge"><title>paypal_pizzastore&#45;&#45;paypal_pizzastore_requirement_database_connection</title>
<path fill="none" stroke="black" d="M240.015,-137.303C252.282,-135.679 264.454,-134.068 275.87,-132.556"/>
</g>
<!-- nodejs_capability_host -->
<g id="node5" class="node"><title>nodejs_capability_host</title>
<polygon fill="orange" stroke="black" points="517.5,-208 475.5,-208 475.5,-184 517.5,-184 529.5,-196 517.5,-208"/>
<text text-anchor="middle" x="502.5" y="-192.3" font-family="Times,serif" font-size="14.00">host</text>
</g>
<!-- paypal_pizzastore_requirement_host&#45;&#45;nodejs_capability_host -->
<g id="edge13" class="edge"><title>paypal_pizzastore_requirement_host&#45;&#45;nodejs_capability_host</title>
<path fill="none" stroke="black" stroke-dasharray="1,5" d="M368.756,-183.477C398.304,-186.265 446.014,-190.765 475.47,-193.544"/>
</g>
<!-- mongo_db_capability_database_endpoint -->
<g id="node8" class="node"><title>mongo_db_capability_database_endpoint</title>
<polygon fill="orange" stroke="black" points="550,-118 443,-118 443,-94 550,-94 562,-106 550,-118"/>
<text text-anchor="middle" x="502.5" y="-102.3" font-family="Times,serif" font-size="14.00">database_endpoint</text>
</g>
<!-- paypal_pizzastore_requirement_database_connection&#45;&#45;mongo_db_capability_database_endpoint -->
<g id="edge14" class="edge"><title>paypal_pizzastore_requirement_database_connection&#45;&#45;mongo_db_capability_database_endpoint</title>
<path fill="none" stroke="black" stroke-dasharray="1,5" d="M407.171,-116.679C418.95,-115.345 431.179,-113.961 442.774,-112.648"/>
</g>
<!-- nodejs -->
<g id="node4" class="node"><title>nodejs</title>
<path fill="none" stroke="black" d="M628.5,-163.5C628.5,-163.5 702.5,-163.5 702.5,-163.5 708.5,-163.5 714.5,-169.5 714.5,-175.5 714.5,-175.5 714.5,-246.5 714.5,-246.5 714.5,-252.5 708.5,-258.5 702.5,-258.5 702.5,-258.5 628.5,-258.5 628.5,-258.5 622.5,-258.5 616.5,-252.5 616.5,-246.5 616.5,-246.5 616.5,-175.5 616.5,-175.5 616.5,-169.5 622.5,-163.5 628.5,-163.5"/>
<text text-anchor="middle" x="665.5" y="-243.3" font-family="Times,serif" font-size="14.00">nodejs: Nodejs</text>
<polyline fill="none" stroke="black" points="616.5,-235.5 714.5,-235.5 "/>
</g>
<!-- nodejs_requirement_host -->
<g id="node6" class="node"><title>nodejs_requirement_host</title>
<polygon fill="turquoise" stroke="black" points="811,-235 769,-235 769,-211 811,-211 823,-223 811,-235"/>
<text text-anchor="middle" x="796" y="-219.3" font-family="Times,serif" font-size="14.00">host</text>
</g>
<!-- nodejs&#45;&#45;nodejs_requirement_host -->
<g id="edge4" class="edge"><title>nodejs&#45;&#45;nodejs_requirement_host</title>
<path fill="none" stroke="black" d="M714.714,-215.502C733.088,-217.218 753.331,-219.109 768.893,-220.562"/>
</g>
<!-- nodejs_capability_host&#45;&#45;nodejs -->
<g id="edge3" class="edge"><title>nodejs_capability_host&#45;&#45;nodejs</title>
<path fill="none" stroke="black" d="M529.726,-198.443C553.071,-200.618 587.815,-203.855 616.179,-206.498"/>
</g>
<!-- app_server_capability_host -->
<g id="node17" class="node"><title>app_server_capability_host</title>
<polygon fill="orange" stroke="black" points="901,-247 859,-247 859,-223 901,-223 913,-235 901,-247"/>
<text text-anchor="middle" x="886" y="-231.3" font-family="Times,serif" font-size="14.00">host</text>
</g>
<!-- nodejs_requirement_host&#45;&#45;app_server_capability_host -->
<g id="edge15" class="edge"><title>nodejs_requirement_host&#45;&#45;app_server_capability_host</title>
<path fill="none" stroke="black" stroke-dasharray="1,5" d="M823.403,-226.6C834.642,-228.133 847.715,-229.916 858.919,-231.443"/>
</g>
<!-- mongo_db -->
<g id="node7" class="node"><title>mongo_db</title>
<path fill="none" stroke="black" d="M610,-43.5C610,-43.5 721,-43.5 721,-43.5 727,-43.5 733,-49.5 733,-55.5 733,-55.5 733,-126.5 733,-126.5 733,-132.5 727,-138.5 721,-138.5 721,-138.5 610,-138.5 610,-138.5 604,-138.5 598,-132.5 598,-126.5 598,-126.5 598,-55.5 598,-55.5 598,-49.5 604,-43.5 610,-43.5"/>
<text text-anchor="middle" x="665.5" y="-123.3" font-family="Times,serif" font-size="14.00">mongo_db: Database</text>
<polyline fill="none" stroke="black" points="598,-115.5 733,-115.5 "/>
</g>
<!-- mongo_db_requirement_host -->
<g id="node9" class="node"><title>mongo_db_requirement_host</title>
<polygon fill="turquoise" stroke="black" points="811,-103 769,-103 769,-79 811,-79 823,-91 811,-103"/>
<text text-anchor="middle" x="796" y="-87.3" font-family="Times,serif" font-size="14.00">host</text>
</g>
<!-- mongo_db&#45;&#45;mongo_db_requirement_host -->
<g id="edge6" class="edge"><title>mongo_db&#45;&#45;mongo_db_requirement_host</title>
<path fill="none" stroke="black" d="M733.008,-91C745.746,-91 758.366,-91 768.861,-91"/>
</g>
<!-- mongo_db_capability_database_endpoint&#45;&#45;mongo_db -->
<g id="edge5" class="edge"><title>mongo_db_capability_database_endpoint&#45;&#45;mongo_db</title>
<path fill="none" stroke="black" d="M562.08,-100.542C573.679,-99.4616 585.934,-98.3198 597.779,-97.2162"/>
</g>
<!-- mongo_dbms_capability_host -->
<g id="node11" class="node"><title>mongo_dbms_capability_host</title>
<polygon fill="orange" stroke="black" points="901,-103 859,-103 859,-79 901,-79 913,-91 901,-103"/>
<text text-anchor="middle" x="886" y="-87.3" font-family="Times,serif" font-size="14.00">host</text>
</g>
<!-- mongo_db_requirement_host&#45;&#45;mongo_dbms_capability_host -->
<g id="edge16" class="edge"><title>mongo_db_requirement_host&#45;&#45;mongo_dbms_capability_host</title>
<path fill="none" stroke="black" stroke-dasharray="1,5" d="M823.403,-91C834.642,-91 847.715,-91 858.919,-91"/>
</g>
<!-- mongo_dbms -->
<g id="node10" class="node"><title>mongo_dbms</title>
<path fill="none" stroke="black" d="M961,-43.5C961,-43.5 1077,-43.5 1077,-43.5 1083,-43.5 1089,-49.5 1089,-55.5 1089,-55.5 1089,-126.5 1089,-126.5 1089,-132.5 1083,-138.5 1077,-138.5 1077,-138.5 961,-138.5 961,-138.5 955,-138.5 949,-132.5 949,-126.5 949,-126.5 949,-55.5 949,-55.5 949,-49.5 955,-43.5 961,-43.5"/>
<text text-anchor="middle" x="1019" y="-123.3" font-family="Times,serif" font-size="14.00">mongo_dbms: DBMS</text>
<polyline fill="none" stroke="black" points="949,-115.5 1089,-115.5 "/>
</g>
<!-- mongo_dbms_requirement_host -->
<g id="node12" class="node"><title>mongo_dbms_requirement_host</title>
<polygon fill="turquoise" stroke="black" points="1167,-103 1125,-103 1125,-79 1167,-79 1179,-91 1167,-103"/>
<text text-anchor="middle" x="1152" y="-87.3" font-family="Times,serif" font-size="14.00">host</text>
</g>
<!-- mongo_dbms&#45;&#45;mongo_dbms_requirement_host -->
<g id="edge8" class="edge"><title>mongo_dbms&#45;&#45;mongo_dbms_requirement_host</title>
<path fill="none" stroke="black" d="M1089.34,-91C1101.98,-91 1114.43,-91 1124.8,-91"/>
</g>
<!-- mongo_dbms_capability_host&#45;&#45;mongo_dbms -->
<g id="edge7" class="edge"><title>mongo_dbms_capability_host&#45;&#45;mongo_dbms</title>
<path fill="none" stroke="black" d="M913.195,-91C923.648,-91 936.221,-91 948.972,-91"/>
</g>
<!-- mongo_server_capability_host -->
<g id="node14" class="node"><title>mongo_server_capability_host</title>
<polygon fill="orange" stroke="black" points="1257,-103 1215,-103 1215,-79 1257,-79 1269,-91 1257,-103"/>
<text text-anchor="middle" x="1242" y="-87.3" font-family="Times,serif" font-size="14.00">host</text>
</g>
<!-- mongo_dbms_requirement_host&#45;&#45;mongo_server_capability_host -->
<g id="edge17" class="edge"><title>mongo_dbms_requirement_host&#45;&#45;mongo_server_capability_host</title>
<path fill="none" stroke="black" stroke-dasharray="1,5" d="M1179.4,-91C1190.64,-91 1203.72,-91 1214.92,-91"/>
</g>
<!-- mongo_server -->
<g id="node13" class="node"><title>mongo_server</title>
<path fill="none" stroke="black" d="M1317,-16.5C1317,-16.5 1449,-16.5 1449,-16.5 1455,-16.5 1461,-22.5 1461,-28.5 1461,-28.5 1461,-99.5 1461,-99.5 1461,-105.5 1455,-111.5 1449,-111.5 1449,-111.5 1317,-111.5 1317,-111.5 1311,-111.5 1305,-105.5 1305,-99.5 1305,-99.5 1305,-28.5 1305,-28.5 1305,-22.5 1311,-16.5 1317,-16.5"/>
<text text-anchor="middle" x="1383" y="-96.3" font-family="Times,serif" font-size="14.00">mongo_server: Compute</text>
<polyline fill="none" stroke="black" points="1305,-88.5 1461,-88.5 "/>
</g>
<!-- mongo_server_capability_host&#45;&#45;mongo_server -->
<g id="edge9" class="edge"><title>mongo_server_capability_host&#45;&#45;mongo_server</title>
<path fill="none" stroke="black" d="M1269.14,-85.9215C1279.53,-83.9051 1292.06,-81.4713 1304.94,-78.9694"/>
</g>
<!-- mongo_server_capability_os -->
<g id="node15" class="node"><title>mongo_server_capability_os</title>
<polygon fill="orange" stroke="black" points="1257,-49 1215,-49 1215,-25 1257,-25 1269,-37 1257,-49"/>
<text text-anchor="middle" x="1242" y="-33.3" font-family="Times,serif" font-size="14.00">os</text>
</g>
<!-- mongo_server_capability_os&#45;&#45;mongo_server -->
<g id="edge10" class="edge"><title>mongo_server_capability_os&#45;&#45;mongo_server</title>
<path fill="none" stroke="black" d="M1269.14,-42.0785C1279.53,-44.0949 1292.06,-46.5287 1304.94,-49.0306"/>
</g>
<!-- app_server -->
<g id="node16" class="node"><title>app_server</title>
<path fill="none" stroke="black" d="M961.5,-163.5C961.5,-163.5 1076.5,-163.5 1076.5,-163.5 1082.5,-163.5 1088.5,-169.5 1088.5,-175.5 1088.5,-175.5 1088.5,-246.5 1088.5,-246.5 1088.5,-252.5 1082.5,-258.5 1076.5,-258.5 1076.5,-258.5 961.5,-258.5 961.5,-258.5 955.5,-258.5 949.5,-252.5 949.5,-246.5 949.5,-246.5 949.5,-175.5 949.5,-175.5 949.5,-169.5 955.5,-163.5 961.5,-163.5"/>
<text text-anchor="middle" x="1019" y="-243.3" font-family="Times,serif" font-size="14.00">app_server: Compute</text>
<polyline fill="none" stroke="black" points="949.5,-235.5 1088.5,-235.5 "/>
</g>
<!-- app_server_capability_host&#45;&#45;app_server -->
<g id="edge11" class="edge"><title>app_server_capability_host&#45;&#45;app_server</title>
<path fill="none" stroke="black" d="M913.195,-230.201C923.723,-228.272 936.401,-225.949 949.246,-223.596"/>
</g>
<!-- app_server_capability_os -->
<g id="node18" class="node"><title>app_server_capability_os</title>
<polygon fill="orange" stroke="black" points="901,-193 859,-193 859,-169 901,-169 913,-181 901,-193"/>
<text text-anchor="middle" x="886" y="-177.3" font-family="Times,serif" font-size="14.00">os</text>
</g>
<!-- app_server_capability_os&#45;&#45;app_server -->
<g id="edge12" class="edge"><title>app_server_capability_os&#45;&#45;app_server</title>
<path fill="none" stroke="black" d="M913.195,-186.999C923.723,-189.41 936.401,-192.313 949.246,-195.255"/>
</g>
</g>
</svg>
