<?xml version="1.0" encoding="UTF-8" standalone="no"?>
<!DOCTYPE svg PUBLIC "-//W3C//DTD SVG 1.1//EN"
 "http://www.w3.org/Graphics/SVG/1.1/DTD/svg11.dtd">
<!-- Generated by graphviz version 2.38.0 (20140413.2041)
 -->
<!-- Title: ToscaDiagram Pages: 1 -->
<svg width="1699pt" height="401pt"
 viewBox="0.00 0.00 1699.00 401.00" xmlns="http://www.w3.org/2000/svg" xmlns:xlink="http://www.w3.org/1999/xlink">
<g id="graph0" class="graph" transform="scale(1 1) rotate(0) translate(4 397)">
<title>ToscaDiagram</title>
<polygon fill="white" stroke="none" points="-4,4 -4,-397 1695,-397 1695,4 -4,4"/>
<g id="clust1" class="cluster"><title>clusterwordpress</title>
<polygon fill="none" stroke="white" points="8,-163 8,-275 451,-275 451,-163 8,-163"/>
</g>
<g id="clust2" class="cluster"><title>clustermysql_database</title>
<polygon fill="none" stroke="white" points="471,-230 471,-342 896,-342 896,-230 471,-230"/>
</g>
<g id="clust3" class="cluster"><title>clustermysql_dbms</title>
<polygon fill="none" stroke="white" points="942.5,-273 942.5,-385 1310,-385 1310,-273 942.5,-273"/>
</g>
<g id="clust4" class="cluster"><title>clusterwebserver</title>
<polygon fill="none" stroke="white" points="916,-105 916,-265 1310,-265 1310,-105 916,-105"/>
</g>
<g id="clust5" class="cluster"><title>clusterserver</title>
<polygon fill="none" stroke="white" points="1330,-8 1330,-276 1683,-276 1683,-8 1330,-8"/>
</g>
<!-- wordpress -->
<g id="node1" class="node"><title>wordpress</title>
<path fill="none" stroke="black" d="M157,-171.5C157,-171.5 276,-171.5 276,-171.5 282,-171.5 288,-177.5 288,-183.5 288,-183.5 288,-254.5 288,-254.5 288,-260.5 282,-266.5 276,-266.5 276,-266.5 157,-266.5 157,-266.5 151,-266.5 145,-260.5 145,-254.5 145,-254.5 145,-183.5 145,-183.5 145,-177.5 151,-171.5 157,-171.5"/>
<text text-anchor="middle" x="216.5" y="-251.3" font-family="Times,serif" font-size="14.00">wordpress: WordPress</text>
<polyline fill="none" stroke="black" points="145,-243.5 288,-243.5 "/>
</g>
<!-- wordpress_requirement_host -->
<g id="node3" class="node"><title>wordpress_requirement_host</title>
<polygon fill="turquoise" stroke="black" points="398.5,-204 356.5,-204 356.5,-180 398.5,-180 410.5,-192 398.5,-204"/>
<text text-anchor="middle" x="383.5" y="-188.3" font-family="Times,serif" font-size="14.00">host</text>
</g>
<!-- wordpress&#45;&#45;wordpress_requirement_host -->
<g id="edge2" class="edge"><title>wordpress&#45;&#45;wordpress_requirement_host</title>
<path fill="none" stroke="black" d="M288.432,-207.393C312.54,-203.448 337.991,-199.283 356.332,-196.282"/>
</g>
<!-- wordpress_requirement_database_endpoint -->
<g id="node4" class="node"><title>wordpress_requirement_database_endpoint</title>
<polygon fill="turquoise" stroke="black" points="431,-259 324,-259 324,-235 431,-235 443,-247 431,-259"/>
<text text-anchor="middle" x="383.5" y="-243.3" font-family="Times,serif" font-size="14.00">database_endpoint</text>
</g>
<!-- wordpress&#45;&#45;wordpress_requirement_database_endpoint -->
<g id="edge3" class="edge"><title>wordpress&#45;&#45;wordpress_requirement_database_endpoint</title>
<path fill="none" stroke="black" d="M288.432,-231.037C300.224,-233.038 312.337,-235.094 323.783,-237.036"/>
</g>
<!-- wordpress_capability_app_endpoint -->
<g id="node2" class="node"><title>wordpress_capability_app_endpoint</title>
<polygon fill="orange" stroke="black" points="97,-231 16,-231 16,-207 97,-207 109,-219 97,-231"/>
<text text-anchor="middle" x="62.5" y="-215.3" font-family="Times,serif" font-size="14.00">app_endpoint</text>
</g>
<!-- wordpress_capability_app_endpoint&#45;&#45;wordpress -->
<g id="edge1" class="edge"><title>wordpress_capability_app_endpoint&#45;&#45;wordpress</title>
<path fill="none" stroke="black" d="M109.105,-219C120.386,-219 132.736,-219 144.901,-219"/>
</g>
<!-- webserver_capability_host -->
<g id="node14" class="node"><title>webserver_capability_host</title>
<polygon fill="orange" stroke="black" points="992.5,-143 950.5,-143 950.5,-119 992.5,-119 1004.5,-131 992.5,-143"/>
<text text-anchor="middle" x="977.5" y="-127.3" font-family="Times,serif" font-size="14.00">host</text>
</g>
<!-- wordpress_requirement_host&#45;&#45;webserver_capability_host -->
<g id="edge18" class="edge"><title>wordpress_requirement_host&#45;&#45;webserver_capability_host</title>
<path fill="none" stroke="black" stroke-dasharray="1,5" d="M410.701,-189.3C508.6,-179.213 852.313,-143.796 950.266,-133.703"/>
</g>
<!-- mysql_database_capability_database_endpoint -->
<g id="node6" class="node"><title>mysql_database_capability_database_endpoint</title>
<polygon fill="orange" stroke="black" points="586,-283 479,-283 479,-259 586,-259 598,-271 586,-283"/>
<text text-anchor="middle" x="538.5" y="-267.3" font-family="Times,serif" font-size="14.00">database_endpoint</text>
</g>
<!-- wordpress_requirement_database_endpoint&#45;&#45;mysql_database_capability_database_endpoint -->
<g id="edge19" class="edge"><title>wordpress_requirement_database_endpoint&#45;&#45;mysql_database_capability_database_endpoint</title>
<path fill="none" stroke="black" stroke-dasharray="1,5" d="M443.216,-256.21C454.93,-258.048 467.232,-259.978 478.941,-261.814"/>
</g>
<!-- mysql_database -->
<g id="node5" class="node"><title>mysql_database</title>
<path fill="none" stroke="black" d="M646,-238.5C646,-238.5 786,-238.5 786,-238.5 792,-238.5 798,-244.5 798,-250.5 798,-250.5 798,-321.5 798,-321.5 798,-327.5 792,-333.5 786,-333.5 786,-333.5 646,-333.5 646,-333.5 640,-333.5 634,-327.5 634,-321.5 634,-321.5 634,-250.5 634,-250.5 634,-244.5 640,-238.5 646,-238.5"/>
<text text-anchor="middle" x="716" y="-318.3" font-family="Times,serif" font-size="14.00">mysql_database: Database</text>
<polyline fill="none" stroke="black" points="634,-310.5 798,-310.5 "/>
</g>
<!-- mysql_database_requirement_host -->
<g id="node7" class="node"><title>mysql_database_requirement_host</title>
<polygon fill="turquoise" stroke="black" points="876,-313 834,-313 834,-289 876,-289 888,-301 876,-313"/>
<text text-anchor="middle" x="861" y="-297.3" font-family="Times,serif" font-size="14.00">host</text>
</g>
<!-- mysql_database&#45;&#45;mysql_database_requirement_host -->
<g id="edge5" class="edge"><title>mysql_database&#45;&#45;mysql_database_requirement_host</title>
<path fill="none" stroke="black" d="M798.11,-294.508C810.97,-295.857 823.407,-297.162 833.717,-298.243"/>
</g>
<!-- mysql_database_capability_database_endpoint&#45;&#45;mysql_database -->
<g id="edge4" class="edge"><title>mysql_database_capability_database_endpoint&#45;&#45;mysql_database</title>
<path fill="none" stroke="black" d="M598.427,-276.037C609.779,-277.007 621.855,-278.039 633.77,-279.057"/>
</g>
<!-- mysql_dbms_capability_host -->
<g id="node9" class="node"><title>mysql_dbms_capability_host</title>
<polygon fill="orange" stroke="black" points="992.5,-326 950.5,-326 950.5,-302 992.5,-302 1004.5,-314 992.5,-326"/>
<text text-anchor="middle" x="977.5" y="-310.3" font-family="Times,serif" font-size="14.00">host</text>
</g>
<!-- mysql_database_requirement_host&#45;&#45;mysql_dbms_capability_host -->
<g id="edge20" class="edge"><title>mysql_database_requirement_host&#45;&#45;mysql_dbms_capability_host</title>
<path fill="none" stroke="black" stroke-dasharray="1,5" d="M888.269,-303.982C906.887,-306.096 931.762,-308.921 950.354,-311.031"/>
</g>
<!-- mysql_dbms -->
<g id="node8" class="node"><title>mysql_dbms</title>
<path fill="none" stroke="black" d="M1083.5,-281.5C1083.5,-281.5 1195.5,-281.5 1195.5,-281.5 1201.5,-281.5 1207.5,-287.5 1207.5,-293.5 1207.5,-293.5 1207.5,-364.5 1207.5,-364.5 1207.5,-370.5 1201.5,-376.5 1195.5,-376.5 1195.5,-376.5 1083.5,-376.5 1083.5,-376.5 1077.5,-376.5 1071.5,-370.5 1071.5,-364.5 1071.5,-364.5 1071.5,-293.5 1071.5,-293.5 1071.5,-287.5 1077.5,-281.5 1083.5,-281.5"/>
<text text-anchor="middle" x="1139.5" y="-361.3" font-family="Times,serif" font-size="14.00">mysql_dbms: DBMS</text>
<polyline fill="none" stroke="black" points="1071.5,-353.5 1207.5,-353.5 "/>
</g>
<!-- mysql_dbms_requirement_host -->
<g id="node10" class="node"><title>mysql_dbms_requirement_host</title>
<polygon fill="turquoise" stroke="black" points="1290,-326 1248,-326 1248,-302 1290,-302 1302,-314 1290,-326"/>
<text text-anchor="middle" x="1275" y="-310.3" font-family="Times,serif" font-size="14.00">host</text>
</g>
<!-- mysql_dbms&#45;&#45;mysql_dbms_requirement_host -->
<g id="edge7" class="edge"><title>mysql_dbms&#45;&#45;mysql_dbms_requirement_host</title>
<path fill="none" stroke="black" d="M1207.64,-321.456C1221.93,-319.851 1236.19,-318.249 1247.81,-316.943"/>
</g>
<!-- mysql_dbms_capability_host&#45;&#45;mysql_dbms -->
<g id="edge6" class="edge"><title>mysql_dbms_capability_host&#45;&#45;mysql_dbms</title>
<path fill="none" stroke="black" d="M1004.56,-316.443C1022.72,-318.145 1047.8,-320.497 1071.36,-322.706"/>
</g>
<!-- server_capability_host -->
<g id="node17" class="node"><title>server_capability_host</title>
<polygon fill="orange" stroke="black" points="1385.5,-262 1343.5,-262 1343.5,-238 1385.5,-238 1397.5,-250 1385.5,-262"/>
<text text-anchor="middle" x="1370.5" y="-246.3" font-family="Times,serif" font-size="14.00">host</text>
</g>
<!-- mysql_dbms_requirement_host&#45;&#45;server_capability_host -->
<g id="edge21" class="edge"><title>mysql_dbms_requirement_host&#45;&#45;server_capability_host</title>
<path fill="none" stroke="black" stroke-dasharray="1,5" d="M1302.04,-296.172C1314.91,-287.37 1330.39,-276.774 1343.27,-267.954"/>
</g>
<!-- webserver -->
<g id="node11" class="node"><title>webserver</title>
<path fill="none" stroke="black" d="M1079,-149.5C1079,-149.5 1200,-149.5 1200,-149.5 1206,-149.5 1212,-155.5 1212,-161.5 1212,-161.5 1212,-232.5 1212,-232.5 1212,-238.5 1206,-244.5 1200,-244.5 1200,-244.5 1079,-244.5 1079,-244.5 1073,-244.5 1067,-238.5 1067,-232.5 1067,-232.5 1067,-161.5 1067,-161.5 1067,-155.5 1073,-149.5 1079,-149.5"/>
<text text-anchor="middle" x="1139.5" y="-229.3" font-family="Times,serif" font-size="14.00">webserver: WebServer</text>
<polyline fill="none" stroke="black" points="1067,-221.5 1212,-221.5 "/>
</g>
<!-- webserver_requirement_host -->
<g id="node15" class="node"><title>webserver_requirement_host</title>
<polygon fill="turquoise" stroke="black" points="1290,-230 1248,-230 1248,-206 1290,-206 1302,-218 1290,-230"/>
<text text-anchor="middle" x="1275" y="-214.3" font-family="Times,serif" font-size="14.00">host</text>
</g>
<!-- webserver&#45;&#45;webserver_requirement_host -->
<g id="edge11" class="edge"><title>webserver&#45;&#45;webserver_requirement_host</title>
<path fill="none" stroke="black" d="M1212.33,-208.299C1225.04,-210.299 1237.51,-212.26 1247.87,-213.89"/>
</g>
<!-- webserver_capability_data_endpoint -->
<g id="node12" class="node"><title>webserver_capability_data_endpoint</title>
<polygon fill="orange" stroke="black" points="1013,-251 930,-251 930,-227 1013,-227 1025,-239 1013,-251"/>
<text text-anchor="middle" x="977.5" y="-235.3" font-family="Times,serif" font-size="14.00">data_endpoint</text>
</g>
<!-- webserver_capability_data_endpoint&#45;&#45;webserver -->
<g id="edge8" class="edge"><title>webserver_capability_data_endpoint&#45;&#45;webserver</title>
<path fill="none" stroke="black" d="M1025.21,-226.739C1038.21,-223.325 1052.65,-219.536 1066.74,-215.837"/>
</g>
<!-- webserver_capability_admin_endpoint -->
<g id="node13" class="node"><title>webserver_capability_admin_endpoint</title>
<polygon fill="orange" stroke="black" points="1019,-197 924,-197 924,-173 1019,-173 1031,-185 1019,-197"/>
<text text-anchor="middle" x="977.5" y="-181.3" font-family="Times,serif" font-size="14.00">admin_endpoint</text>
</g>
<!-- webserver_capability_admin_endpoint&#45;&#45;webserver -->
<g id="edge9" class="edge"><title>webserver_capability_admin_endpoint&#45;&#45;webserver</title>
<path fill="none" stroke="black" d="M1031.33,-188.963C1042.71,-189.816 1054.92,-190.732 1066.88,-191.628"/>
</g>
<!-- webserver_capability_host&#45;&#45;webserver -->
<g id="edge10" class="edge"><title>webserver_capability_host&#45;&#45;webserver</title>
<path fill="none" stroke="black" d="M1004.56,-141.751C1021.56,-148.764 1044.65,-158.287 1066.87,-167.451"/>
</g>
<!-- webserver_requirement_host&#45;&#45;server_capability_host -->
<g id="edge22" class="edge"><title>webserver_requirement_host&#45;&#45;server_capability_host</title>
<path fill="none" stroke="black" stroke-dasharray="1,5" d="M1302.04,-226.914C1314.91,-231.315 1330.39,-236.613 1343.27,-241.023"/>
</g>
<!-- server -->
<g id="node16" class="node"><title>server</title>
<path fill="none" stroke="black" d="M1451,-94.5C1451,-94.5 1537,-94.5 1537,-94.5 1543,-94.5 1549,-100.5 1549,-106.5 1549,-106.5 1549,-177.5 1549,-177.5 1549,-183.5 1543,-189.5 1537,-189.5 1537,-189.5 1451,-189.5 1451,-189.5 1445,-189.5 1439,-183.5 1439,-177.5 1439,-177.5 1439,-106.5 1439,-106.5 1439,-100.5 1445,-94.5 1451,-94.5"/>
<text text-anchor="middle" x="1494" y="-174.3" font-family="Times,serif" font-size="14.00">server: Compute</text>
<polyline fill="none" stroke="black" points="1439,-166.5 1549,-166.5 "/>
</g>
<!-- server_requirement_local_storage -->
<g id="node22" class="node"><title>server_requirement_local_storage</title>
<polygon fill="turquoise" stroke="black" points="1663,-154 1585,-154 1585,-130 1663,-130 1675,-142 1663,-154"/>
<text text-anchor="middle" x="1630" y="-138.3" font-family="Times,serif" font-size="14.00">local_storage</text>
</g>
<!-- server&#45;&#45;server_requirement_local_storage -->
<g id="edge17" class="edge"><title>server&#45;&#45;server_requirement_local_storage</title>
<path fill="none" stroke="black" d="M1549.12,-142C1561.03,-142 1573.51,-142 1584.96,-142"/>
</g>
<!-- server_capability_host&#45;&#45;server -->
<g id="edge12" class="edge"><title>server_capability_host&#45;&#45;server</title>
<path fill="none" stroke="black" d="M1392.91,-231.77C1396.3,-228.85 1399.75,-225.852 1403,-223 1415.16,-212.318 1428.15,-200.734 1440.37,-189.757"/>
</g>
<!-- server_capability_endpoint -->
<g id="node18" class="node"><title>server_capability_endpoint</title>
<polygon fill="orange" stroke="black" points="1391,-208 1338,-208 1338,-184 1391,-184 1403,-196 1391,-208"/>
<text text-anchor="middle" x="1370.5" y="-192.3" font-family="Times,serif" font-size="14.00">endpoint</text>
</g>
<!-- server_capability_endpoint&#45;&#45;server -->
<g id="edge13" class="edge"><title>server_capability_endpoint&#45;&#45;server</title>
<path fill="none" stroke="black" d="M1403.11,-181.953C1414.07,-177.078 1426.7,-171.465 1438.96,-166.016"/>
</g>
<!-- server_capability_os -->
<g id="node19" class="node"><title>server_capability_os</title>
<polygon fill="orange" stroke="black" points="1385.5,-154 1343.5,-154 1343.5,-130 1385.5,-130 1397.5,-142 1385.5,-154"/>
<text text-anchor="middle" x="1370.5" y="-138.3" font-family="Times,serif" font-size="14.00">os</text>
</g>
<!-- server_capability_os&#45;&#45;server -->
<g id="edge14" class="edge"><title>server_capability_os&#45;&#45;server</title>
<path fill="none" stroke="black" d="M1397.56,-142C1409.56,-142 1424.26,-142 1438.51,-142"/>
</g>
<!-- server_capability_scalable -->
<g id="node20" class="node"><title>server_capability_scalable</title>
<polygon fill="orange" stroke="black" points="1389,-100 1340,-100 1340,-76 1389,-76 1401,-88 1389,-100"/>
<text text-anchor="middle" x="1370.5" y="-84.3" font-family="Times,serif" font-size="14.00">scalable</text>
</g>
<!-- server_capability_scalable&#45;&#45;server -->
<g id="edge15" class="edge"><title>server_capability_scalable&#45;&#45;server</title>
<path fill="none" stroke="black" d="M1401.22,-101.21C1412.6,-106.268 1425.97,-112.209 1438.93,-117.968"/>
</g>
<!-- server_capability_binding -->
<g id="node21" class="node"><title>server_capability_binding</title>
<polygon fill="orange" stroke="black" points="1388,-46 1341,-46 1341,-22 1388,-22 1400,-34 1388,-46"/>
<text text-anchor="middle" x="1370.5" y="-30.3" font-family="Times,serif" font-size="14.00">binding</text>
</g>
<!-- server_capability_binding&#45;&#45;server -->
<g id="edge16" class="edge"><title>server_capability_binding&#45;&#45;server</title>
<path fill="none" stroke="black" d="M1392.91,-52.2304C1396.3,-55.1498 1399.75,-58.148 1403,-61 1415.16,-71.6818 1428.15,-83.2659 1440.37,-94.243"/>
</g>
</g>
</svg>
