<?xml version="1.0" encoding="UTF-8" standalone="no"?><svg xmlns="http://www.w3.org/2000/svg" xmlns:xlink="http://www.w3.org/1999/xlink" contentScriptType="application/ecmascript" contentStyleType="text/css" height="176px" preserveAspectRatio="none" style="width:422px;height:176px;background:#FFFFFF;" version="1.1" viewBox="0 0 422 176" width="422px" zoomAndPan="magnify"><defs><filter height="300%" id="fxppy6ctzcko1" width="300%" x="-1" y="-1"><feGaussianBlur result="blurOut" stdDeviation="2.0"/><feColorMatrix in="blurOut" result="blurOut2" type="matrix" values="0 0 0 0 0 0 0 0 0 0 0 0 0 0 0 0 0 0 .4 0"/><feOffset dx="4.0" dy="4.0" in="blurOut2" result="blurOut3"/><feBlend in="SourceGraphic" in2="blurOut3" mode="normal"/></filter></defs><g><!--MD5=[4c60124fd401ae02c90beef6ed500d66]
class DB_NT--><rect codeLine="2" fill="#FEFECE" filter="url(#fxppy6ctzcko1)" height="108.7754" id="DB_NT" style="stroke:#A80036;stroke-width:1.5;" width="154" x="254.5" y="53.2422"/><ellipse cx="319.25" cy="69.2422" fill="#008000" rx="11" ry="11" style="stroke:#A80036;stroke-width:1.0;"/><path d="M315.2378,62.8491 L317.8691,62.8491 L321.3223,71.8555 L321.3223,62.8491 L323.4805,62.8491 L323.4805,75.2422 L320.8657,75.2422 L317.396,66.2358 L317.396,75.2422 L315.2378,75.2422 Z " fill="#000000"/><text fill="#000000" font-family="sans-serif" font-size="12" lengthAdjust="spacing" textLength="16" x="339.75" y="73.7773">DB</text><line style="stroke:#A80036;stroke-width:1.5;" x1="255.5" x2="407.5" y1="85.2422" y2="85.2422"/><ellipse cx="265.5" cy="113.1973" rx="3" ry="3" style="stroke:#038048;stroke-width:1.0;fill:none;"/><text fill="#000000" font-family="sans-serif" font-size="11" lengthAdjust="spacing" textLength="49" x="274.5" y="116.832">metadata</text><text fill="#000000" font-family="sans-serif" font-size="11" lengthAdjust="spacing" textLength="128" x="274.5" y="129.7871">type : k8s:Metadata[1..*]</text><ellipse cx="265.5" cy="139.1074" rx="3" ry="3" style="stroke:#038048;stroke-width:1.0;fill:none;"/><text fill="#000000" font-family="sans-serif" font-size="11" lengthAdjust="spacing" textLength="14" x="274.5" y="142.7422">db</text><text fill="#000000" font-family="sans-serif" font-size="11" lengthAdjust="spacing" textLength="72" x="274.5" y="155.6973">type : DB[1..*]</text><line style="stroke:#A80036;stroke-width:1.0;stroke-dasharray:1.0,2.0;" x1="255.5" x2="301.5" y1="99.7197" y2="99.7197"/><text fill="#000000" font-family="sans-serif" font-size="11" lengthAdjust="spacing" textLength="60" x="301.5" y="103.377">capabilities</text><line style="stroke:#A80036;stroke-width:1.0;stroke-dasharray:1.0,2.0;" x1="361.5" x2="407.5" y1="99.7197" y2="99.7197"/><!--MD5=[ed8bf85a20ea1a66882e76ec6d11dcef]
class k8s_Metadata_CT--><rect codeLine="9" fill="#DDDDDD" filter="url(#fxppy6ctzcko1)" height="48" id="k8s_Metadata_CT" style="stroke:#A80036;stroke-width:1.5;" width="111" x="7" y="83.7422"/><ellipse cx="22" cy="99.7422" fill="#008000" rx="11" ry="11" style="stroke:#A80036;stroke-width:1.0;"/><path d="M24.9731,105.3853 Q24.3921,105.6841 23.7529,105.8335 Q23.1138,105.9829 22.4082,105.9829 Q19.9014,105.9829 18.5815,104.3311 Q17.2617,102.6792 17.2617,99.5581 Q17.2617,96.4287 18.5815,94.7769 Q19.9014,93.125 22.4082,93.125 Q23.1138,93.125 23.7612,93.2744 Q24.4087,93.4238 24.9731,93.7227 L24.9731,96.4453 Q24.3423,95.8643 23.7488,95.5945 Q23.1553,95.3247 22.5244,95.3247 Q21.1797,95.3247 20.4949,96.3914 Q19.8101,97.458 19.8101,99.5581 Q19.8101,101.6499 20.4949,102.7166 Q21.1797,103.7832 22.5244,103.7832 Q23.1553,103.7832 23.7488,103.5134 Q24.3423,103.2437 24.9731,102.6626 Z " fill="#000000"/><text fill="#000000" font-family="sans-serif" font-size="12" lengthAdjust="spacing" textLength="79" x="36" y="104.2773">k8s:Metadata</text><line style="stroke:#A80036;stroke-width:1.5;" x1="8" x2="117" y1="115.7422" y2="115.7422"/><line style="stroke:#A80036;stroke-width:1.5;" x1="8" x2="117" y1="123.7422" y2="123.7422"/><!--MD5=[6d4eef146319d4420d1fbfbe97a6dd70]
class DB_CT--><rect codeLine="10" fill="#DDDDDD" filter="url(#fxppy6ctzcko1)" height="48" id="DB_CT" style="stroke:#A80036;stroke-width:1.5;" width="48" x="153.5" y="83.7422"/><ellipse cx="168.5" cy="99.7422" fill="#008000" rx="11" ry="11" style="stroke:#A80036;stroke-width:1.0;"/><path d="M171.4731,105.3853 Q170.8921,105.6841 170.2529,105.8335 Q169.6138,105.9829 168.9082,105.9829 Q166.4014,105.9829 165.0815,104.3311 Q163.7617,102.6792 163.7617,99.5581 Q163.7617,96.4287 165.0815,94.7769 Q166.4014,93.125 168.9082,93.125 Q169.6138,93.125 170.2612,93.2744 Q170.9087,93.4238 171.4731,93.7227 L171.4731,96.4453 Q170.8423,95.8643 170.2488,95.5945 Q169.6553,95.3247 169.0244,95.3247 Q167.6797,95.3247 166.9949,96.3914 Q166.3101,97.458 166.3101,99.5581 Q166.3101,101.6499 166.9949,102.7166 Q167.6797,103.7832 169.0244,103.7832 Q169.6553,103.7832 170.2488,103.5134 Q170.8423,103.2437 171.4731,102.6626 Z " fill="#000000"/><text fill="#000000" font-family="sans-serif" font-size="12" lengthAdjust="spacing" textLength="16" x="182.5" y="104.2773">DB</text><line style="stroke:#A80036;stroke-width:1.5;" x1="154.5" x2="200.5" y1="115.7422" y2="115.7422"/><line style="stroke:#A80036;stroke-width:1.5;" x1="154.5" x2="200.5" y1="123.7422" y2="123.7422"/><!--MD5=[f214dfc05997dae2dd777455bdb5134e]
link k8s_Metadata_CT to DB_NT--><path codeLine="11" d="M79.976,83.4062 C96.6622,62.4458 123.8976,33.6672 155.5,21.2422 C180.3174,11.4848 190.1901,12.8444 215.5,21.2422 C231.9352,26.6954 247.9297,35.4831 262.5293,45.4144 " fill="none" id="k8s_Metadata_CT-to-DB_NT" style="stroke:#A80036;stroke-width:1.0;"/><polygon fill="#A80036" points="273.4061,53.1955,270.8536,46.4513,263.6464,46.2135,266.1989,52.9577,273.4061,53.1955" style="stroke:#A80036;stroke-width:1.0;"/><text fill="#000000" font-family="sans-serif" font-size="13" lengthAdjust="spacing" textLength="58" x="156.5" y="19.8105">metadata</text><text fill="#000000" font-family="sans-serif" font-size="13" lengthAdjust="spacing" textLength="22" x="59.6355" y="72.8564">1..*</text><!--MD5=[fd9d6fd1a4935e7d3f10c7cbdc586ac6]
link DB_CT to DB_NT--><path codeLine="12" d="M201.5625,107.7422 C212.573,107.7422 226.3826,107.7422 240.8565,107.7422 " fill="none" id="DB_CT-to-DB_NT" style="stroke:#A80036;stroke-width:1.0;"/><polygon fill="#A80036" points="254.2744,107.7422,248.2744,103.7422,242.2744,107.7422,248.2744,111.7422,254.2744,107.7422" style="stroke:#A80036;stroke-width:1.0;"/><text fill="#000000" font-family="sans-serif" font-size="13" lengthAdjust="spacing" textLength="16" x="220" y="101.3105">db</text><text fill="#000000" font-family="sans-serif" font-size="13" lengthAdjust="spacing" textLength="22" x="209.6707" y="122.0808">1..*</text><!--MD5=[b6c8d819b3404ce11fc027c08ff61269]
@startuml
set namespaceSeparator none
class "DB" as DB_NT << (N,green) >> {
.. capabilities ..
+metadata
 type : k8s:Metadata[1..*]
+db
 type : DB[1..*]
}
class "k8s:Metadata" as k8s_Metadata_CT << (C,green) >> #DDDDDD
class "DB" as DB_CT << (C,green) >> #DDDDDD
k8s_Metadata_CT "1..*" -* DB_NT : metadata
DB_CT "1..*" -* DB_NT : db
@enduml

PlantUML version 1.2021.13(Mon Nov 01 12:38:45 CET 2021)
(GPL source distribution)
Java Runtime: Java(TM) SE Runtime Environment
JVM: Java HotSpot(TM) 64-Bit Server VM
Default Encoding: UTF-8
Language: fr
Country: FR
--></g></svg>