<?xml version="1.0" encoding="UTF-8" standalone="no"?><svg xmlns="http://www.w3.org/2000/svg" xmlns:xlink="http://www.w3.org/1999/xlink" contentScriptType="application/ecmascript" contentStyleType="text/css" height="176px" preserveAspectRatio="none" style="width:961px;height:176px;background:#FFFFFF;" version="1.1" viewBox="0 0 961 176" width="961px" zoomAndPan="magnify"><defs><filter height="300%" id="f14ka3543jw8t5" width="300%" x="-1" y="-1"><feGaussianBlur result="blurOut" stdDeviation="2.0"/><feColorMatrix in="blurOut" result="blurOut2" type="matrix" values="0 0 0 0 0 0 0 0 0 0 0 0 0 0 0 0 0 0 .4 0"/><feOffset dx="4.0" dy="4.0" in="blurOut2" result="blurOut3"/><feBlend in="SourceGraphic" in2="blurOut3" mode="normal"/></filter></defs><g><!--MD5=[7649bf01ca508de597a3e091a1014ab3]
class NetworkAttachmentDefinition_NT--><rect codeLine="2" fill="#FEFECE" filter="url(#f14ka3543jw8t5)" height="108.7754" id="NetworkAttachmentDefinition_NT" style="stroke:#A80036;stroke-width:1.5;" width="298" x="649.5" y="53.2422"/><ellipse cx="710.75" cy="69.2422" fill="#008000" rx="11" ry="11" style="stroke:#A80036;stroke-width:1.0;"/><path d="M706.7378,62.8491 L709.3691,62.8491 L712.8223,71.8555 L712.8223,62.8491 L714.9805,62.8491 L714.9805,75.2422 L712.3657,75.2422 L708.896,66.2358 L708.896,75.2422 L706.7378,75.2422 Z " fill="#000000"/><text fill="#000000" font-family="sans-serif" font-size="12" lengthAdjust="spacing" textLength="167" x="731.25" y="73.7773">NetworkAttachmentDefinition</text><line style="stroke:#A80036;stroke-width:1.5;" x1="650.5" x2="946.5" y1="85.2422" y2="85.2422"/><ellipse cx="660.5" cy="113.1973" rx="3" ry="3" style="stroke:#038048;stroke-width:1.0;fill:none;"/><text fill="#000000" font-family="sans-serif" font-size="11" lengthAdjust="spacing" textLength="49" x="669.5" y="116.832">metadata</text><text fill="#000000" font-family="sans-serif" font-size="11" lengthAdjust="spacing" textLength="128" x="669.5" y="129.7871">type : k8s:Metadata[1..*]</text><ellipse cx="660.5" cy="139.1074" rx="3" ry="3" style="stroke:#038048;stroke-width:1.0;fill:none;"/><text fill="#000000" font-family="sans-serif" font-size="11" lengthAdjust="spacing" textLength="166" x="669.5" y="142.7422">network-attachment-definition</text><text fill="#000000" font-family="sans-serif" font-size="11" lengthAdjust="spacing" textLength="272" x="669.5" y="155.6973">type : k8s:BridgeNetworkAttachmentDefinition[1..*]</text><line style="stroke:#A80036;stroke-width:1.0;stroke-dasharray:1.0,2.0;" x1="650.5" x2="768.5" y1="99.7197" y2="99.7197"/><text fill="#000000" font-family="sans-serif" font-size="11" lengthAdjust="spacing" textLength="60" x="768.5" y="103.377">capabilities</text><line style="stroke:#A80036;stroke-width:1.0;stroke-dasharray:1.0,2.0;" x1="828.5" x2="946.5" y1="99.7197" y2="99.7197"/><!--MD5=[ed8bf85a20ea1a66882e76ec6d11dcef]
class k8s_Metadata_CT--><rect codeLine="9" fill="#DDDDDD" filter="url(#f14ka3543jw8t5)" height="48" id="k8s_Metadata_CT" style="stroke:#A80036;stroke-width:1.5;" width="111" x="7" y="83.7422"/><ellipse cx="22" cy="99.7422" fill="#008000" rx="11" ry="11" style="stroke:#A80036;stroke-width:1.0;"/><path d="M24.9731,105.3853 Q24.3921,105.6841 23.7529,105.8335 Q23.1138,105.9829 22.4082,105.9829 Q19.9014,105.9829 18.5815,104.3311 Q17.2617,102.6792 17.2617,99.5581 Q17.2617,96.4287 18.5815,94.7769 Q19.9014,93.125 22.4082,93.125 Q23.1138,93.125 23.7612,93.2744 Q24.4087,93.4238 24.9731,93.7227 L24.9731,96.4453 Q24.3423,95.8643 23.7488,95.5945 Q23.1553,95.3247 22.5244,95.3247 Q21.1797,95.3247 20.4949,96.3914 Q19.8101,97.458 19.8101,99.5581 Q19.8101,101.6499 20.4949,102.7166 Q21.1797,103.7832 22.5244,103.7832 Q23.1553,103.7832 23.7488,103.5134 Q24.3423,103.2437 24.9731,102.6626 Z " fill="#000000"/><text fill="#000000" font-family="sans-serif" font-size="12" lengthAdjust="spacing" textLength="79" x="36" y="104.2773">k8s:Metadata</text><line style="stroke:#A80036;stroke-width:1.5;" x1="8" x2="117" y1="115.7422" y2="115.7422"/><line style="stroke:#A80036;stroke-width:1.5;" x1="8" x2="117" y1="123.7422" y2="123.7422"/><!--MD5=[8c8053d42e70bde0f90d01e7cb27e143]
class k8s_BridgeNetworkAttachmentDefinition_CT--><rect codeLine="10" fill="#DDDDDD" filter="url(#f14ka3543jw8t5)" height="48" id="k8s_BridgeNetworkAttachmentDefinition_CT" style="stroke:#A80036;stroke-width:1.5;" width="261" x="153" y="83.7422"/><ellipse cx="168" cy="99.7422" fill="#008000" rx="11" ry="11" style="stroke:#A80036;stroke-width:1.0;"/><path d="M170.9731,105.3853 Q170.3921,105.6841 169.7529,105.8335 Q169.1138,105.9829 168.4082,105.9829 Q165.9014,105.9829 164.5815,104.3311 Q163.2617,102.6792 163.2617,99.5581 Q163.2617,96.4287 164.5815,94.7769 Q165.9014,93.125 168.4082,93.125 Q169.1138,93.125 169.7612,93.2744 Q170.4087,93.4238 170.9731,93.7227 L170.9731,96.4453 Q170.3423,95.8643 169.7488,95.5945 Q169.1553,95.3247 168.5244,95.3247 Q167.1797,95.3247 166.4949,96.3914 Q165.8101,97.458 165.8101,99.5581 Q165.8101,101.6499 166.4949,102.7166 Q167.1797,103.7832 168.5244,103.7832 Q169.1553,103.7832 169.7488,103.5134 Q170.3423,103.2437 170.9731,102.6626 Z " fill="#000000"/><text fill="#000000" font-family="sans-serif" font-size="12" lengthAdjust="spacing" textLength="229" x="182" y="104.2773">k8s:BridgeNetworkAttachmentDefinition</text><line style="stroke:#A80036;stroke-width:1.5;" x1="154" x2="413" y1="115.7422" y2="115.7422"/><line style="stroke:#A80036;stroke-width:1.5;" x1="154" x2="413" y1="123.7422" y2="123.7422"/><!--MD5=[4881129a9fa8025166f63b6675612865]
link k8s_Metadata_CT to NetworkAttachmentDefinition_NT--><path codeLine="11" d="M88.2426,83.5439 C101.4072,72.5368 118.2637,60.3985 135.5,53.2422 C225.9418,15.6922 255.8328,28.3722 353.5,21.2422 C448.3199,14.32 552.7389,33.1908 636.5851,55.054 " fill="none" id="k8s_Metadata_CT-to-NetworkAttachmentDefinition_NT" style="stroke:#A80036;stroke-width:1.0;"/><polygon fill="#A80036" points="649.331,58.4416,644.5598,53.0346,637.7336,55.3592,642.5049,60.7662,649.331,58.4416" style="stroke:#A80036;stroke-width:1.0;"/><text fill="#000000" font-family="sans-serif" font-size="13" lengthAdjust="spacing" textLength="58" x="354.5" y="19.8105">metadata</text><text fill="#000000" font-family="sans-serif" font-size="13" lengthAdjust="spacing" textLength="22" x="70.0204" y="73.0293">1..*</text><!--MD5=[ca8ca0760a439c81be8c06f64ef639b7]
link k8s_BridgeNetworkAttachmentDefinition_CT to NetworkAttachmentDefinition_NT--><path codeLine="12" d="M414.122,107.7422 C481.5908,107.7422 564.5525,107.7422 636.112,107.7422 " fill="none" id="k8s_BridgeNetworkAttachmentDefinition_CT-to-NetworkAttachmentDefinition_NT" style="stroke:#A80036;stroke-width:1.0;"/><polygon fill="#A80036" points="649.3347,107.7422,643.3347,103.7422,637.3347,107.7422,643.3347,111.7422,649.3347,107.7422" style="stroke:#A80036;stroke-width:1.0;"/><text fill="#000000" font-family="sans-serif" font-size="13" lengthAdjust="spacing" textLength="199" x="432.25" y="101.3105">network-attachment-definition</text><text fill="#000000" font-family="sans-serif" font-size="13" lengthAdjust="spacing" textLength="22" x="421.867" y="120.7292">1..*</text><!--MD5=[809b3f5f81963b3647ec6388af3793fc]
@startuml
set namespaceSeparator none
class "NetworkAttachmentDefinition" as NetworkAttachmentDefinition_NT << (N,green) >> {
.. capabilities ..
+metadata
 type : k8s:Metadata[1..*]
+network-attachment-definition
 type : k8s:BridgeNetworkAttachmentDefinition[1..*]
}
class "k8s:Metadata" as k8s_Metadata_CT << (C,green) >> #DDDDDD
class "k8s:BridgeNetworkAttachmentDefinition" as k8s_BridgeNetworkAttachmentDefinition_CT << (C,green) >> #DDDDDD
k8s_Metadata_CT "1..*" -* NetworkAttachmentDefinition_NT : metadata
k8s_BridgeNetworkAttachmentDefinition_CT "1..*" -* NetworkAttachmentDefinition_NT : network-attachment-definition
@enduml

PlantUML version 1.2021.13(Mon Nov 01 12:38:45 CET 2021)
(GPL source distribution)
Java Runtime: Java(TM) SE Runtime Environment
JVM: Java HotSpot(TM) 64-Bit Server VM
Default Encoding: UTF-8
Language: fr
Country: FR
--></g></svg>