<?xml version="1.0" encoding="UTF-8" standalone="no"?><svg xmlns="http://www.w3.org/2000/svg" xmlns:xlink="http://www.w3.org/1999/xlink" contentScriptType="application/ecmascript" contentStyleType="text/css" height="396px" preserveAspectRatio="none" style="width:338px;height:396px;background:#FFFFFF;" version="1.1" viewBox="0 0 338 396" width="338px" zoomAndPan="magnify"><defs/><g><rect fill="#006400" height="8" style="stroke:none;stroke-width:1.0;" width="80" x="123.5" y="86"/><ellipse cx="163.5" cy="16" fill="#008000" rx="10" ry="10" style="stroke:none;stroke-width:1.0;"/><rect fill="#FF8C00" height="8" style="stroke:none;stroke-width:1.0;" width="80" x="123.5" y="302"/><ellipse cx="163.5" cy="380" rx="10" ry="10" style="stroke:#000000;stroke-width:1.0;fill:none;"/><ellipse cx="164" cy="380.5" fill="#000000" rx="6" ry="6" style="stroke:none;stroke-width:1.0;"/><rect fill="#FFFFFF" height="88.4883" rx="12.5" ry="12.5" style="stroke:#000000;stroke-width:1.5;" width="133" x="7" y="154"/><rect fill="#FFFFFF" height="56" rx="12.5" ry="12.5" style="stroke:#FFFFFF;stroke-width:1.0;" width="127" x="10" y="183.4883"/><line style="stroke:#000000;stroke-width:1.5;" x1="7" x2="140" y1="180.4883" y2="180.4883"/><text fill="#000000" font-family="sans-serif" font-size="14" lengthAdjust="spacing" textLength="106" x="20.5" y="172.5352">deploy_asterisk</text><rect fill="#D3D3D3" height="40" rx="12.5" ry="12.5" style="stroke:#0000FF;stroke-width:1.5;" width="113" x="19" y="192.4883"/><text fill="#000000" font-family="sans-serif" font-size="14" lengthAdjust="spacing" textLength="103" x="24" y="217.7793">asterisk deploy</text><rect fill="#FFFFFF" height="88.4883" rx="12.5" ry="12.5" style="stroke:#000000;stroke-width:1.5;" width="156" x="175.5" y="154"/><rect fill="#FFFFFF" height="56" rx="12.5" ry="12.5" style="stroke:#FFFFFF;stroke-width:1.0;" width="150" x="178.5" y="183.4883"/><line style="stroke:#000000;stroke-width:1.5;" x1="175.5" x2="331.5" y1="180.4883" y2="180.4883"/><text fill="#000000" font-family="sans-serif" font-size="14" lengthAdjust="spacing" textLength="128" x="189.5" y="172.5352">deploy_data_plane</text><rect fill="#D3D3D3" height="40" rx="12.5" ry="12.5" style="stroke:#0000FF;stroke-width:1.5;" width="136" x="187.5" y="192.4883"/><text fill="#000000" font-family="sans-serif" font-size="14" lengthAdjust="spacing" textLength="126" x="192.5" y="217.7793">data-plane deploy</text><!--MD5=[269479dbfff9de025be372388bab6db6]
link *start to declarative_deploy_fork--><path d="M163.5,26.2894 C163.5,40.745 163.5,66.8479 163.5,80.7308 " fill="none" id="*start-to-declarative_deploy_fork" style="stroke:#0000FF;stroke-width:1.0;"/><polygon fill="#0000FF" points="163.5,85.8629,167.5,76.8629,163.5,80.8629,159.5,76.8629,163.5,85.8629" style="stroke:#0000FF;stroke-width:1.0;"/><!--MD5=[9b986e7afa8b30743a49a9bdbd60a9dd]
link declarative_deploy_fork to step_declarative_deploy_deploy_asterisk--><path d="M160.0818,94.1018 C152.2508,103.499 132.2343,127.5189 113.4182,150.0981 " fill="none" id="declarative_deploy_fork-to-step_declarative_deploy_deploy_asterisk" style="stroke:#0000FF;stroke-width:1.0;"/><polygon fill="#0000FF" points="110.1673,153.9993,119.0019,149.6461,113.3683,150.1582,112.8561,144.5246,110.1673,153.9993" style="stroke:#0000FF;stroke-width:1.0;"/><!--MD5=[04898ee40dffe52151cc13ce434ac678]
link declarative_deploy_fork to step_declarative_deploy_deploy_data_plane--><path d="M166.9182,94.1018 C174.7492,103.499 194.7657,127.5189 213.5818,150.0981 " fill="none" id="declarative_deploy_fork-to-step_declarative_deploy_deploy_data_plane" style="stroke:#0000FF;stroke-width:1.0;"/><polygon fill="#0000FF" points="216.8327,153.9993,214.1439,144.5246,213.6317,150.1582,207.9981,149.6461,216.8327,153.9993" style="stroke:#0000FF;stroke-width:1.0;"/><!--MD5=[6405e0537ceac305b1a70ff32fab17c5]
link declarative_deploy_join to *end--><path d="M163.5,310.4074 C163.5,320.8066 163.5,347.2833 163.5,364.4165 " fill="none" id="declarative_deploy_join-to-*end" style="stroke:#0000FF;stroke-width:1.0;"/><polygon fill="#0000FF" points="163.5,369.8319,167.5,360.8319,163.5,364.8319,159.5,360.8319,163.5,369.8319" style="stroke:#0000FF;stroke-width:1.0;"/><!--MD5=[62045cc113ba5e899c23382c2e63c47f]
link step_declarative_deploy_deploy_asterisk to declarative_deploy_join--><path d="M110.3661,242.2393 C127.6798,263.0157 146.6551,285.7861 156.5758,297.6909 " fill="none" id="step_declarative_deploy_deploy_asterisk-to-declarative_deploy_join" style="stroke:#0000FF;stroke-width:1.0;"/><polygon fill="#0000FF" points="160.0227,301.8273,157.3339,292.3526,156.8217,297.9862,151.1881,297.4741,160.0227,301.8273" style="stroke:#0000FF;stroke-width:1.0;"/><!--MD5=[d31a87a5fec3e0b561c6e9c91418f94a]
link step_declarative_deploy_deploy_data_plane to declarative_deploy_join--><path d="M216.6339,242.2393 C199.3202,263.0157 180.3449,285.7861 170.4242,297.6909 " fill="none" id="step_declarative_deploy_deploy_data_plane-to-declarative_deploy_join" style="stroke:#0000FF;stroke-width:1.0;"/><polygon fill="#0000FF" points="166.9773,301.8273,175.8119,297.4741,170.1783,297.9862,169.6661,292.3526,166.9773,301.8273" style="stroke:#0000FF;stroke-width:1.0;"/><!--MD5=[b715c2b9503d6be04db422745c80bc87]
@startuml
hide empty description
skinparam shadowing false
skinparam state {
  ArrowColor blue
  BorderColor blue
  EndColor black
  StartColor green
  BackGroundColor<< step >> white
  BorderColor<< step >> black
  BackGroundColor<< delegate >> lightgrey
  BackGroundColor<< set_state >> white
  BackGroundColor<< call_operation >> lightblue
  BackGroundColor<< inline >> white
}
skinparam ActivityBarColor<<fork>> DarkGreen
skinparam ActivityBarColor<<join>> DarkOrange

state "deploy_asterisk" as step_declarative_deploy_deploy_asterisk << step >> {
  state "asterisk deploy" as step_declarative_deploy_deploy_asterisk_asterisk_deploy << delegate >>
}
state "deploy_data_plane" as step_declarative_deploy_deploy_data_plane << step >> {
  state "data-plane deploy" as step_declarative_deploy_deploy_data_plane_data_plane_deploy << delegate >>
}
state declarative_deploy_fork <<fork>>
[*] - -> declarative_deploy_fork
declarative_deploy_fork - -> step_declarative_deploy_deploy_asterisk
declarative_deploy_fork - -> step_declarative_deploy_deploy_data_plane
state declarative_deploy_join <<join>>
declarative_deploy_join - -> [*]
step_declarative_deploy_deploy_asterisk - -> declarative_deploy_join
step_declarative_deploy_deploy_data_plane - -> declarative_deploy_join
@enduml

PlantUML version 1.2021.13(Mon Nov 01 12:38:45 CET 2021)
(GPL source distribution)
Java Runtime: Java(TM) SE Runtime Environment
JVM: Java HotSpot(TM) 64-Bit Server VM
Default Encoding: UTF-8
Language: fr
Country: FR
--></g></svg>