<?xml version="1.0" encoding="UTF-8" standalone="no"?><svg xmlns="http://www.w3.org/2000/svg" xmlns:xlink="http://www.w3.org/1999/xlink" contentScriptType="application/ecmascript" contentStyleType="text/css" height="285px" preserveAspectRatio="none" style="width:314px;height:285px;background:#FFFFFF;" version="1.1" viewBox="0 0 314 285" width="314px" zoomAndPan="magnify"><defs><filter height="300%" id="fk8ef45hxo87b" width="300%" x="-1" y="-1"><feGaussianBlur result="blurOut" stdDeviation="2.0"/><feColorMatrix in="blurOut" result="blurOut2" type="matrix" values="0 0 0 0 0 0 0 0 0 0 0 0 0 0 0 0 0 0 .4 0"/><feOffset dx="4.0" dy="4.0" in="blurOut2" result="blurOut3"/><feBlend in="SourceGraphic" in2="blurOut3" mode="normal"/></filter></defs><g><!--MD5=[c716ff1d95f64e76c622e3e2c997c0cd]
class o11n_Execution_IT--><rect codeLine="2" fill="#DDDDDD" filter="url(#fk8ef45hxo87b)" height="48" id="o11n_Execution_IT" style="stroke:#A80036;stroke-width:1.5;" width="121" x="101.5" y="7"/><ellipse cx="116.5" cy="23" fill="#008000" rx="11" ry="11" style="stroke:#A80036;stroke-width:1.0;"/><path d="M112.4277,18.7651 L112.4277,16.6069 L119.8071,16.6069 L119.8071,18.7651 L117.3418,18.7651 L117.3418,26.8418 L119.8071,26.8418 L119.8071,29 L112.4277,29 L112.4277,26.8418 L114.8931,26.8418 L114.8931,18.7651 Z " fill="#000000"/><text fill="#000000" font-family="sans-serif" font-size="12" lengthAdjust="spacing" textLength="89" x="130.5" y="27.5352">o11n:Execution</text><line style="stroke:#A80036;stroke-width:1.5;" x1="102.5" x2="221.5" y1="39" y2="39"/><line style="stroke:#A80036;stroke-width:1.5;" x1="102.5" x2="221.5" y1="47" y2="47"/><!--MD5=[3ad7d7072e32dba884dc750250de697b]
class Command_IT--><rect codeLine="3" fill="#FEFECE" filter="url(#fk8ef45hxo87b)" height="48" id="Command_IT" style="stroke:#A80036;stroke-width:1.5;" width="91" x="116.5" y="115"/><ellipse cx="131.5" cy="131" fill="#008000" rx="11" ry="11" style="stroke:#A80036;stroke-width:1.0;"/><path d="M127.4277,126.7651 L127.4277,124.6069 L134.8071,124.6069 L134.8071,126.7651 L132.3418,126.7651 L132.3418,134.8418 L134.8071,134.8418 L134.8071,137 L127.4277,137 L127.4277,134.8418 L129.8931,134.8418 L129.8931,126.7651 Z " fill="#000000"/><text fill="#000000" font-family="sans-serif" font-size="12" lengthAdjust="spacing" textLength="59" x="145.5" y="135.5352">Command</text><line style="stroke:#A80036;stroke-width:1.5;" x1="117.5" x2="206.5" y1="147" y2="147"/><line style="stroke:#A80036;stroke-width:1.5;" x1="117.5" x2="206.5" y1="155" y2="155"/><!--MD5=[c9e1bc42806126698d872112d3124b5f]
class ContainerCommand_IT--><rect codeLine="5" fill="#FEFECE" filter="url(#fk8ef45hxo87b)" height="48" id="ContainerCommand_IT" style="stroke:#A80036;stroke-width:1.5;" width="146" x="7" y="223"/><ellipse cx="22" cy="239" fill="#008000" rx="11" ry="11" style="stroke:#A80036;stroke-width:1.0;"/><path d="M17.9277,234.7651 L17.9277,232.6069 L25.3071,232.6069 L25.3071,234.7651 L22.8418,234.7651 L22.8418,242.8418 L25.3071,242.8418 L25.3071,245 L17.9277,245 L17.9277,242.8418 L20.3931,242.8418 L20.3931,234.7651 Z " fill="#000000"/><text fill="#000000" font-family="sans-serif" font-size="12" lengthAdjust="spacing" textLength="114" x="36" y="243.5352">ContainerCommand</text><line style="stroke:#A80036;stroke-width:1.5;" x1="8" x2="152" y1="255" y2="255"/><line style="stroke:#A80036;stroke-width:1.5;" x1="8" x2="152" y1="263" y2="263"/><!--MD5=[5bc9c8b8e494c0a6cb021a46f0dd7f99]
class SSHCommand_IT--><rect codeLine="7" fill="#FEFECE" filter="url(#fk8ef45hxo87b)" height="48" id="SSHCommand_IT" style="stroke:#A80036;stroke-width:1.5;" width="112" x="188" y="223"/><ellipse cx="203" cy="239" fill="#008000" rx="11" ry="11" style="stroke:#A80036;stroke-width:1.0;"/><path d="M198.9277,234.7651 L198.9277,232.6069 L206.3071,232.6069 L206.3071,234.7651 L203.8418,234.7651 L203.8418,242.8418 L206.3071,242.8418 L206.3071,245 L198.9277,245 L198.9277,242.8418 L201.3931,242.8418 L201.3931,234.7651 Z " fill="#000000"/><text fill="#000000" font-family="sans-serif" font-size="12" lengthAdjust="spacing" textLength="80" x="217" y="243.5352">SSHCommand</text><line style="stroke:#A80036;stroke-width:1.5;" x1="189" x2="299" y1="255" y2="255"/><line style="stroke:#A80036;stroke-width:1.5;" x1="189" x2="299" y1="263" y2="263"/><!--MD5=[ae1f6d762e9115873b2706db17f86817]
reverse link o11n_Execution_IT to Command_IT--><path codeLine="9" d="M162,75.2911 C162,88.8171 162,103.1835 162,114.8436 " fill="none" id="o11n_Execution_IT-backto-Command_IT" style="stroke:#A80036;stroke-width:1.0;"/><polygon fill="none" points="155.0001,75.2373,162,55.2373,169.0001,75.2373,155.0001,75.2373" style="stroke:#A80036;stroke-width:1.0;"/><!--MD5=[077063309df7c801dc2c3e0d848513e1]
reverse link Command_IT to ContainerCommand_IT--><path codeLine="10" d="M131.2861,179.4524 C120.1981,194.0561 108.0371,210.073 98.341,222.8436 " fill="none" id="Command_IT-backto-ContainerCommand_IT" style="stroke:#A80036;stroke-width:1.0;"/><polygon fill="none" points="125.9282,174.9333,143.5976,163.2373,137.0785,183.3992,125.9282,174.9333" style="stroke:#A80036;stroke-width:1.0;"/><!--MD5=[336b3a6dcf0db6b619e2c8949d79ac46]
reverse link Command_IT to SSHCommand_IT--><path codeLine="11" d="M192.7139,179.4524 C203.8019,194.0561 215.9629,210.073 225.659,222.8436 " fill="none" id="Command_IT-backto-SSHCommand_IT" style="stroke:#A80036;stroke-width:1.0;"/><polygon fill="none" points="186.9215,183.3992,180.4024,163.2373,198.0718,174.9333,186.9215,183.3992" style="stroke:#A80036;stroke-width:1.0;"/><!--MD5=[461d0e5f1c25de4d9ac345603bc5e73a]
@startuml
set namespaceSeparator none
class "o11n:Execution" as o11n_Execution_IT << (I,green) >> #DDDDDD
class "Command" as Command_IT << (I,green) >> {
}
class "ContainerCommand" as ContainerCommand_IT << (I,green) >> {
}
class "SSHCommand" as SSHCommand_IT << (I,green) >> {
}
o11n_Execution_IT <|- - Command_IT
Command_IT <|- - ContainerCommand_IT
Command_IT <|- - SSHCommand_IT
@enduml

PlantUML version 1.2021.13(Mon Nov 01 12:38:45 CET 2021)
(GPL source distribution)
Java Runtime: Java(TM) SE Runtime Environment
JVM: Java HotSpot(TM) 64-Bit Server VM
Default Encoding: UTF-8
Language: fr
Country: FR
--></g></svg>