<?xml version="1.0" encoding="UTF-8" standalone="no"?><svg xmlns="http://www.w3.org/2000/svg" xmlns:xlink="http://www.w3.org/1999/xlink" contentScriptType="application/ecmascript" contentStyleType="text/css" height="515px" preserveAspectRatio="none" style="width:1192px;height:515px;background:#FFFFFF;" version="1.1" viewBox="0 0 1192 515" width="1192px" zoomAndPan="magnify"><defs><filter height="300%" id="ffs9surwc8cr" width="300%" x="-1" y="-1"><feGaussianBlur result="blurOut" stdDeviation="2.0"/><feColorMatrix in="blurOut" result="blurOut2" type="matrix" values="0 0 0 0 0 0 0 0 0 0 0 0 0 0 0 0 0 0 .4 0"/><feOffset dx="4.0" dy="4.0" in="blurOut2" result="blurOut3"/><feBlend in="SourceGraphic" in2="blurOut3" mode="normal"/></filter></defs><g><!--MD5=[2640b3574a0a12bbdb93ecb3bbfbc2d7]
class Asterisk_NT--><rect codeLine="2" fill="#FEFECE" filter="url(#ffs9surwc8cr)" height="243.8486" id="Asterisk_NT" style="stroke:#A80036;stroke-width:1.5;" width="195" x="693" y="132"/><ellipse cx="763.25" cy="148" fill="#008000" rx="11" ry="11" style="stroke:#A80036;stroke-width:1.0;"/><path d="M759.2378,141.6069 L761.8691,141.6069 L765.3223,150.6133 L765.3223,141.6069 L767.4805,141.6069 L767.4805,154 L764.8657,154 L761.396,144.9937 L761.396,154 L759.2378,154 Z " fill="#000000"/><text fill="#000000" font-family="sans-serif" font-size="12" lengthAdjust="spacing" textLength="46" x="783.75" y="152.5352">Asterisk</text><line style="stroke:#A80036;stroke-width:1.5;" x1="694" x2="887" y1="164" y2="164"/><ellipse cx="704" cy="191.9551" rx="3" ry="3" style="stroke:#038048;stroke-width:1.0;fill:none;"/><text fill="#000000" font-family="sans-serif" font-size="11" lengthAdjust="spacing" textLength="49" x="713" y="195.5898">metadata</text><text fill="#000000" font-family="sans-serif" font-size="11" lengthAdjust="spacing" textLength="128" x="713" y="208.5449">type : k8s:Metadata[1..*]</text><ellipse cx="704" cy="217.8652" rx="3" ry="3" style="stroke:#038048;stroke-width:1.0;fill:none;"/><text fill="#000000" font-family="sans-serif" font-size="11" lengthAdjust="spacing" textLength="63" x="713" y="221.5">deployment</text><text fill="#000000" font-family="sans-serif" font-size="11" lengthAdjust="spacing" textLength="144" x="713" y="234.4551">type : k8s:Deployment[1..*]</text><ellipse cx="704" cy="243.7754" rx="3" ry="3" style="stroke:#038048;stroke-width:1.0;fill:none;"/><text fill="#000000" font-family="sans-serif" font-size="11" lengthAdjust="spacing" textLength="21" x="713" y="247.4102">udp</text><text fill="#000000" font-family="sans-serif" font-size="11" lengthAdjust="spacing" textLength="151" x="713" y="260.3652">type : k8s:LoadBalancer[1..*]</text><ellipse cx="704" cy="269.6855" rx="3" ry="3" style="stroke:#038048;stroke-width:1.0;fill:none;"/><text fill="#000000" font-family="sans-serif" font-size="11" lengthAdjust="spacing" textLength="35" x="713" y="273.3203">trunks</text><text fill="#000000" font-family="sans-serif" font-size="11" lengthAdjust="spacing" textLength="152" x="713" y="286.2754">type : telephony:Trunks[1..*]</text><line style="stroke:#A80036;stroke-width:1.0;stroke-dasharray:1.0,2.0;" x1="694" x2="760.5" y1="178.4775" y2="178.4775"/><text fill="#000000" font-family="sans-serif" font-size="11" lengthAdjust="spacing" textLength="60" x="760.5" y="182.1348">capabilities</text><line style="stroke:#A80036;stroke-width:1.0;stroke-dasharray:1.0,2.0;" x1="820.5" x2="887" y1="178.4775" y2="178.4775"/><ellipse cx="704" cy="312.5508" rx="3" ry="3" style="stroke:#038048;stroke-width:1.0;fill:none;"/><text fill="#000000" font-family="sans-serif" font-size="11" lengthAdjust="spacing" textLength="58" x="713" y="316.1855">data-plane</text><text fill="#000000" font-family="sans-serif" font-size="11" lengthAdjust="spacing" textLength="169" x="713" y="329.1406">capability : ns:Connectable[0..*]</text><text fill="#000000" font-family="sans-serif" font-size="11" lengthAdjust="spacing" textLength="124" x="713" y="342.0957">node : ns:NetworkPlane</text><line style="stroke:#A80036;stroke-width:1.0;stroke-dasharray:1.0,2.0;" x1="694" x2="754.5" y1="299.0732" y2="299.0732"/><text fill="#000000" font-family="sans-serif" font-size="11" lengthAdjust="spacing" textLength="72" x="754.5" y="302.7305">requirements</text><line style="stroke:#A80036;stroke-width:1.0;stroke-dasharray:1.0,2.0;" x1="826.5" x2="887" y1="299.0732" y2="299.0732"/><line style="stroke:#A80036;stroke-width:1.0;" x1="694" x2="887" y1="348.416" y2="348.416"/><line style="stroke:#A80036;stroke-width:1.0;stroke-dasharray:1.0,2.0;" x1="694" x2="746.5" y1="362.8936" y2="362.8936"/><text fill="#000000" font-family="sans-serif" font-size="11" lengthAdjust="spacing" textLength="88" x="746.5" y="366.5508">interface normal</text><line style="stroke:#A80036;stroke-width:1.0;stroke-dasharray:1.0,2.0;" x1="834.5" x2="887" y1="362.8936" y2="362.8936"/><!--MD5=[ed8bf85a20ea1a66882e76ec6d11dcef]
class k8s_Metadata_CT--><rect codeLine="19" fill="#DDDDDD" filter="url(#ffs9surwc8cr)" height="48" id="k8s_Metadata_CT" style="stroke:#A80036;stroke-width:1.5;" width="111" x="7" y="230"/><ellipse cx="22" cy="246" fill="#008000" rx="11" ry="11" style="stroke:#A80036;stroke-width:1.0;"/><path d="M24.9731,251.6431 Q24.3921,251.9419 23.7529,252.0913 Q23.1138,252.2407 22.4082,252.2407 Q19.9014,252.2407 18.5815,250.5889 Q17.2617,248.937 17.2617,245.8159 Q17.2617,242.6865 18.5815,241.0347 Q19.9014,239.3828 22.4082,239.3828 Q23.1138,239.3828 23.7612,239.5322 Q24.4087,239.6816 24.9731,239.9805 L24.9731,242.7031 Q24.3423,242.1221 23.7488,241.8523 Q23.1553,241.5825 22.5244,241.5825 Q21.1797,241.5825 20.4949,242.6492 Q19.8101,243.7158 19.8101,245.8159 Q19.8101,247.9077 20.4949,248.9744 Q21.1797,250.041 22.5244,250.041 Q23.1553,250.041 23.7488,249.7712 Q24.3423,249.5015 24.9731,248.9204 Z " fill="#000000"/><text fill="#000000" font-family="sans-serif" font-size="12" lengthAdjust="spacing" textLength="79" x="36" y="250.5352">k8s:Metadata</text><line style="stroke:#A80036;stroke-width:1.5;" x1="8" x2="117" y1="262" y2="262"/><line style="stroke:#A80036;stroke-width:1.5;" x1="8" x2="117" y1="270" y2="270"/><!--MD5=[0c28f1c4ac2fe27054cd5e411c7602be]
class k8s_Deployment_CT--><rect codeLine="20" fill="#DDDDDD" filter="url(#ffs9surwc8cr)" height="48" id="k8s_Deployment_CT" style="stroke:#A80036;stroke-width:1.5;" width="126" x="153.5" y="230"/><ellipse cx="168.5" cy="246" fill="#008000" rx="11" ry="11" style="stroke:#A80036;stroke-width:1.0;"/><path d="M171.4731,251.6431 Q170.8921,251.9419 170.2529,252.0913 Q169.6138,252.2407 168.9082,252.2407 Q166.4014,252.2407 165.0815,250.5889 Q163.7617,248.937 163.7617,245.8159 Q163.7617,242.6865 165.0815,241.0347 Q166.4014,239.3828 168.9082,239.3828 Q169.6138,239.3828 170.2612,239.5322 Q170.9087,239.6816 171.4731,239.9805 L171.4731,242.7031 Q170.8423,242.1221 170.2488,241.8523 Q169.6553,241.5825 169.0244,241.5825 Q167.6797,241.5825 166.9949,242.6492 Q166.3101,243.7158 166.3101,245.8159 Q166.3101,247.9077 166.9949,248.9744 Q167.6797,250.041 169.0244,250.041 Q169.6553,250.041 170.2488,249.7712 Q170.8423,249.5015 171.4731,248.9204 Z " fill="#000000"/><text fill="#000000" font-family="sans-serif" font-size="12" lengthAdjust="spacing" textLength="94" x="182.5" y="250.5352">k8s:Deployment</text><line style="stroke:#A80036;stroke-width:1.5;" x1="154.5" x2="278.5" y1="262" y2="262"/><line style="stroke:#A80036;stroke-width:1.5;" x1="154.5" x2="278.5" y1="270" y2="270"/><!--MD5=[25966695fa3e946ac168ce6de1c91011]
class k8s_LoadBalancer_CT--><rect codeLine="21" fill="#DDDDDD" filter="url(#ffs9surwc8cr)" height="48" id="k8s_LoadBalancer_CT" style="stroke:#A80036;stroke-width:1.5;" width="134" x="314.5" y="230"/><ellipse cx="329.5" cy="246" fill="#008000" rx="11" ry="11" style="stroke:#A80036;stroke-width:1.0;"/><path d="M332.4731,251.6431 Q331.8921,251.9419 331.2529,252.0913 Q330.6138,252.2407 329.9082,252.2407 Q327.4014,252.2407 326.0815,250.5889 Q324.7617,248.937 324.7617,245.8159 Q324.7617,242.6865 326.0815,241.0347 Q327.4014,239.3828 329.9082,239.3828 Q330.6138,239.3828 331.2612,239.5322 Q331.9087,239.6816 332.4731,239.9805 L332.4731,242.7031 Q331.8423,242.1221 331.2488,241.8523 Q330.6553,241.5825 330.0244,241.5825 Q328.6797,241.5825 327.9949,242.6492 Q327.3101,243.7158 327.3101,245.8159 Q327.3101,247.9077 327.9949,248.9744 Q328.6797,250.041 330.0244,250.041 Q330.6553,250.041 331.2488,249.7712 Q331.8423,249.5015 332.4731,248.9204 Z " fill="#000000"/><text fill="#000000" font-family="sans-serif" font-size="12" lengthAdjust="spacing" textLength="102" x="343.5" y="250.5352">k8s:LoadBalancer</text><line style="stroke:#A80036;stroke-width:1.5;" x1="315.5" x2="447.5" y1="262" y2="262"/><line style="stroke:#A80036;stroke-width:1.5;" x1="315.5" x2="447.5" y1="270" y2="270"/><!--MD5=[a20517d8ed75aa7d9fa0cf3c9a583b0c]
class telephony_Trunks_CT--><rect codeLine="22" fill="#DDDDDD" filter="url(#ffs9surwc8cr)" height="48" id="telephony_Trunks_CT" style="stroke:#A80036;stroke-width:1.5;" width="132" x="483.5" y="230"/><ellipse cx="498.5" cy="246" fill="#008000" rx="11" ry="11" style="stroke:#A80036;stroke-width:1.0;"/><path d="M501.4731,251.6431 Q500.8921,251.9419 500.2529,252.0913 Q499.6138,252.2407 498.9082,252.2407 Q496.4014,252.2407 495.0815,250.5889 Q493.7617,248.937 493.7617,245.8159 Q493.7617,242.6865 495.0815,241.0347 Q496.4014,239.3828 498.9082,239.3828 Q499.6138,239.3828 500.2612,239.5322 Q500.9087,239.6816 501.4731,239.9805 L501.4731,242.7031 Q500.8423,242.1221 500.2488,241.8523 Q499.6553,241.5825 499.0244,241.5825 Q497.6797,241.5825 496.9949,242.6492 Q496.3101,243.7158 496.3101,245.8159 Q496.3101,247.9077 496.9949,248.9744 Q497.6797,250.041 499.0244,250.041 Q499.6553,250.041 500.2488,249.7712 Q500.8423,249.5015 501.4731,248.9204 Z " fill="#000000"/><text fill="#000000" font-family="sans-serif" font-size="12" lengthAdjust="spacing" textLength="100" x="512.5" y="250.5352">telephony:Trunks</text><line style="stroke:#A80036;stroke-width:1.5;" x1="484.5" x2="614.5" y1="262" y2="262"/><line style="stroke:#A80036;stroke-width:1.5;" x1="484.5" x2="614.5" y1="270" y2="270"/><!--MD5=[06186ad21af20a40a9101477aae0361f]
class ns_Connectable_CT--><rect codeLine="23" fill="#DDDDDD" filter="url(#ffs9surwc8cr)" height="48" id="ns_Connectable_CT" style="stroke:#A80036;stroke-width:1.5;" width="120" x="1058.5" y="230"/><ellipse cx="1073.5" cy="246" fill="#008000" rx="11" ry="11" style="stroke:#A80036;stroke-width:1.0;"/><path d="M1076.4731,251.6431 Q1075.8921,251.9419 1075.2529,252.0913 Q1074.6138,252.2407 1073.9082,252.2407 Q1071.4014,252.2407 1070.0815,250.5889 Q1068.7617,248.937 1068.7617,245.8159 Q1068.7617,242.6865 1070.0815,241.0347 Q1071.4014,239.3828 1073.9082,239.3828 Q1074.6138,239.3828 1075.2612,239.5322 Q1075.9087,239.6816 1076.4731,239.9805 L1076.4731,242.7031 Q1075.8423,242.1221 1075.2488,241.8523 Q1074.6553,241.5825 1074.0244,241.5825 Q1072.6797,241.5825 1071.9949,242.6492 Q1071.3101,243.7158 1071.3101,245.8159 Q1071.3101,247.9077 1071.9949,248.9744 Q1072.6797,250.041 1074.0244,250.041 Q1074.6553,250.041 1075.2488,249.7712 Q1075.8423,249.5015 1076.4731,248.9204 Z " fill="#000000"/><text fill="#000000" font-family="sans-serif" font-size="12" lengthAdjust="spacing" textLength="88" x="1087.5" y="250.5352">ns:Connectable</text><line style="stroke:#A80036;stroke-width:1.5;" x1="1059.5" x2="1177.5" y1="262" y2="262"/><line style="stroke:#A80036;stroke-width:1.5;" x1="1059.5" x2="1177.5" y1="270" y2="270"/><!--MD5=[a5996a452741cd40506ec2be69bb7993]
class ns_NetworkPlane_NT--><rect codeLine="24" fill="#DDDDDD" filter="url(#ffs9surwc8cr)" height="48" id="ns_NetworkPlane_NT" style="stroke:#A80036;stroke-width:1.5;" width="128" x="726.5" y="453"/><ellipse cx="741.5" cy="469" fill="#008000" rx="11" ry="11" style="stroke:#A80036;stroke-width:1.0;"/><path d="M737.4878,462.6069 L740.1191,462.6069 L743.5723,471.6133 L743.5723,462.6069 L745.7305,462.6069 L745.7305,475 L743.1157,475 L739.646,465.9937 L739.646,475 L737.4878,475 Z " fill="#000000"/><text fill="#000000" font-family="sans-serif" font-size="12" lengthAdjust="spacing" textLength="96" x="755.5" y="473.5352">ns:NetworkPlane</text><line style="stroke:#A80036;stroke-width:1.5;" x1="727.5" x2="853.5" y1="485" y2="485"/><line style="stroke:#A80036;stroke-width:1.5;" x1="727.5" x2="853.5" y1="493" y2="493"/><!--MD5=[c3b05e878c4c5ad51cc39e1950897d6e]
class k8s_ContainerCommand_IT--><rect codeLine="25" fill="#DDDDDD" filter="url(#ffs9surwc8cr)" height="48" id="k8s_ContainerCommand_IT" style="stroke:#A80036;stroke-width:1.5;" width="171" x="705" y="7"/><ellipse cx="720" cy="23" fill="#008000" rx="11" ry="11" style="stroke:#A80036;stroke-width:1.0;"/><path d="M715.9277,18.7651 L715.9277,16.6069 L723.3071,16.6069 L723.3071,18.7651 L720.8418,18.7651 L720.8418,26.8418 L723.3071,26.8418 L723.3071,29 L715.9277,29 L715.9277,26.8418 L718.3931,26.8418 L718.3931,18.7651 Z " fill="#000000"/><text fill="#000000" font-family="sans-serif" font-size="12" lengthAdjust="spacing" textLength="139" x="734" y="27.5352">k8s:ContainerCommand</text><line style="stroke:#A80036;stroke-width:1.5;" x1="706" x2="875" y1="39" y2="39"/><line style="stroke:#A80036;stroke-width:1.5;" x1="706" x2="875" y1="47" y2="47"/><!--MD5=[3956dd6f3602c34bbb1fda9ac286adea]
link k8s_Metadata_CT to Asterisk_NT--><path codeLine="26" d="M69.2319,229.9944 C78.7478,201.0847 99.1599,153.7094 135.5,132 C223.728,79.2929 494.7538,113.3339 597.5,111 C624.1598,110.3944 633.052,100.3507 657.5,111 C665.9508,114.6811 674.1068,119.1932 681.9351,124.3182 " fill="none" id="k8s_Metadata_CT-to-Asterisk_NT" style="stroke:#A80036;stroke-width:1.0;"/><polygon fill="#A80036" points="692.7811,131.9496,690.1758,125.2256,682.967,125.0442,685.5723,131.7683,692.7811,131.9496" style="stroke:#A80036;stroke-width:1.0;"/><text fill="#000000" font-family="sans-serif" font-size="13" lengthAdjust="spacing" textLength="58" x="598.5" y="98.5684">metadata</text><text fill="#000000" font-family="sans-serif" font-size="13" lengthAdjust="spacing" textLength="22" x="46.0848" y="219.1374">1..*</text><!--MD5=[757c7d6ffdc3829a7725516a9885955d]
link k8s_Deployment_CT to Asterisk_NT--><path codeLine="27" d="M224.9676,229.7808 C236.3768,201.1198 259.6164,154.4612 296.5,132 C402.3285,67.553 452.4568,89.5862 574.5,111 C612.8053,117.7211 649.8785,136.2183 682.1812,157.7689 " fill="none" id="k8s_Deployment_CT-to-Asterisk_NT" style="stroke:#A80036;stroke-width:1.0;"/><polygon fill="#A80036" points="692.948,165.1818,690.2744,158.4846,683.0641,158.3768,685.7377,165.0739,692.948,165.1818" style="stroke:#A80036;stroke-width:1.0;"/><text fill="#000000" font-family="sans-serif" font-size="13" lengthAdjust="spacing" textLength="74" x="499.5" y="98.5684">deployment</text><text fill="#000000" font-family="sans-serif" font-size="13" lengthAdjust="spacing" textLength="22" x="202.3187" y="219.2609">1..*</text><!--MD5=[de7f2a618f01f021cb99d7a9bee1c245]
link k8s_LoadBalancer_CT to Asterisk_NT--><path codeLine="28" d="M386.3519,229.7257 C394.5065,196.1757 414.4855,136.8512 457.5,111 C528.7813,68.1608 615.2285,107.6816 682.1778,155.9342 " fill="none" id="k8s_LoadBalancer_CT-to-Asterisk_NT" style="stroke:#A80036;stroke-width:1.0;"/><polygon fill="#A80036" points="692.75,163.7422,690.2999,156.9601,683.0971,156.6133,685.5472,163.3954,692.75,163.7422" style="stroke:#A80036;stroke-width:1.0;"/><text fill="#000000" font-family="sans-serif" font-size="13" lengthAdjust="spacing" textLength="24" x="458.5" y="98.5684">udp</text><text fill="#000000" font-family="sans-serif" font-size="13" lengthAdjust="spacing" textLength="22" x="362.7764" y="219.1917">1..*</text><!--MD5=[fd2beeda067f37c3caee4e5930909bc8]
link telephony_Trunks_CT to Asterisk_NT--><path codeLine="29" d="M615.6731,254 C635.499,254 657.8064,254 679.6852,254 " fill="none" id="telephony_Trunks_CT-to-Asterisk_NT" style="stroke:#A80036;stroke-width:1.0;"/><polygon fill="#A80036" points="692.8595,254,686.8595,250,680.8595,254,686.8595,258,692.8595,254" style="stroke:#A80036;stroke-width:1.0;"/><text fill="#000000" font-family="sans-serif" font-size="13" lengthAdjust="spacing" textLength="41" x="633.75" y="247.5684">trunks</text><text fill="#000000" font-family="sans-serif" font-size="13" lengthAdjust="spacing" textLength="22" x="623.6316" y="267.3578">1..*</text><!--MD5=[8b11f9dea2407fe67df33a3cb8dff14e]
reverse link Asterisk_NT to ns_Connectable_CT--><path codeLine="30" d="M901.1979,254 C953.7752,254 1014.5533,254 1058.4396,254 " fill="none" id="Asterisk_NT-backto-ns_Connectable_CT" style="stroke:#A80036;stroke-width:1.0;"/><polygon fill="#A80036" points="888.0228,254,894.0228,258,900.0228,254,894.0228,250,888.0228,254" style="stroke:#A80036;stroke-width:1.0;"/><text fill="#000000" font-family="sans-serif" font-size="13" lengthAdjust="spacing" textLength="134" x="906.25" y="247.5684">data-plane.capability</text><text fill="#000000" font-family="sans-serif" font-size="13" lengthAdjust="spacing" textLength="22" x="1028.6674" y="267.4057">0..*</text><!--MD5=[4a927f174da7c22e03b98f1f77c67a56]
link Asterisk_NT to ns_NetworkPlane_NT--><path codeLine="31" d="M790.5,376.2649 C790.5,402.9704 790.5,428.8445 790.5,447.6822 " fill="none" id="Asterisk_NT-to-ns_NetworkPlane_NT" style="stroke:#A80036;stroke-width:1.0;stroke-dasharray:7.0,7.0;"/><polygon fill="#A80036" points="790.5,452.8037,794.5,443.8037,790.5,447.8037,786.5,443.8037,790.5,452.8037" style="stroke:#A80036;stroke-width:1.0;"/><text fill="#000000" font-family="sans-serif" font-size="13" lengthAdjust="spacing" textLength="104" x="791.5" y="419.5684">data-plane.node</text><!--MD5=[6f1a2c72863046f3b982069fe28c0ab2]
reverse link k8s_ContainerCommand_IT to Asterisk_NT--><path codeLine="32" d="M790.5,75.3668 C790.5,91.9481 790.5,111.685 790.5,131.8908 " fill="none" id="k8s_ContainerCommand_IT-backto-Asterisk_NT" style="stroke:#A80036;stroke-width:1.0;stroke-dasharray:7.0,7.0;"/><polygon fill="none" points="783.5001,75.2895,790.5,55.2894,797.5001,75.2894,783.5001,75.2895" style="stroke:#A80036;stroke-width:1.0;"/><text fill="#000000" font-family="sans-serif" font-size="13" lengthAdjust="spacing" textLength="44" x="791.5" y="98.5684">normal</text><!--MD5=[566f06cb47f7efc33f969fb77d2bfbb6]
@startuml
set namespaceSeparator none
class "Asterisk" as Asterisk_NT << (N,green) >> {
.. capabilities ..
+metadata
 type : k8s:Metadata[1..*]
+deployment
 type : k8s:Deployment[1..*]
+udp
 type : k8s:LoadBalancer[1..*]
+trunks
 type : telephony:Trunks[1..*]
.. requirements ..
+data-plane
 capability : ns:Connectable[0..*]
 node : ns:NetworkPlane
- -
.. interface normal ..
}
class "k8s:Metadata" as k8s_Metadata_CT << (C,green) >> #DDDDDD
class "k8s:Deployment" as k8s_Deployment_CT << (C,green) >> #DDDDDD
class "k8s:LoadBalancer" as k8s_LoadBalancer_CT << (C,green) >> #DDDDDD
class "telephony:Trunks" as telephony_Trunks_CT << (C,green) >> #DDDDDD
class "ns:Connectable" as ns_Connectable_CT << (C,green) >> #DDDDDD
class "ns:NetworkPlane" as ns_NetworkPlane_NT << (N,green) >> #DDDDDD
class "k8s:ContainerCommand" as k8s_ContainerCommand_IT << (I,green) >> #DDDDDD
k8s_Metadata_CT "1..*" -* Asterisk_NT : metadata
k8s_Deployment_CT "1..*" -* Asterisk_NT : deployment
k8s_LoadBalancer_CT "1..*" -* Asterisk_NT : udp
telephony_Trunks_CT "1..*" -* Asterisk_NT : trunks
Asterisk_NT *- "0..*" ns_Connectable_CT : data-plane.capability
Asterisk_NT ..> ns_NetworkPlane_NT : data-plane.node
k8s_ContainerCommand_IT <|.. Asterisk_NT : normal
@enduml

PlantUML version 1.2021.13(Mon Nov 01 12:38:45 CET 2021)
(GPL source distribution)
Java Runtime: Java(TM) SE Runtime Environment
JVM: Java HotSpot(TM) 64-Bit Server VM
Default Encoding: UTF-8
Language: fr
Country: FR
--></g></svg>