<?xml version="1.0" encoding="UTF-8" standalone="no"?><svg xmlns="http://www.w3.org/2000/svg" xmlns:xlink="http://www.w3.org/1999/xlink" contentScriptType="application/ecmascript" contentStyleType="text/css" height="327px" preserveAspectRatio="none" style="width:820px;height:327px;background:#FFFFFF;" version="1.1" viewBox="0 0 820 327" width="820px" zoomAndPan="magnify"><defs><filter height="300%" id="f2xubofkp8fpe" width="300%" x="-1" y="-1"><feGaussianBlur result="blurOut" stdDeviation="2.0"/><feColorMatrix in="blurOut" result="blurOut2" type="matrix" values="0 0 0 0 0 0 0 0 0 0 0 0 0 0 0 0 0 0 .4 0"/><feOffset dx="4.0" dy="4.0" in="blurOut2" result="blurOut3"/><feBlend in="SourceGraphic" in2="blurOut3" mode="normal"/></filter></defs><g><!--MD5=[b118a858e2fc057f23664c79069392e2]
class Application_NT--><rect codeLine="2" fill="#FEFECE" filter="url(#f2xubofkp8fpe)" height="181.5508" id="Application_NT" style="stroke:#A80036;stroke-width:1.5;" width="177" x="510" y="132"/><ellipse cx="562.25" cy="148" fill="#008000" rx="11" ry="11" style="stroke:#A80036;stroke-width:1.0;"/><path d="M558.2378,141.6069 L560.8691,141.6069 L564.3223,150.6133 L564.3223,141.6069 L566.4805,141.6069 L566.4805,154 L563.8657,154 L560.396,144.9937 L560.396,154 L558.2378,154 Z " fill="#000000"/><text fill="#000000" font-family="sans-serif" font-size="12" lengthAdjust="spacing" textLength="64" x="582.75" y="152.5352">Application</text><line style="stroke:#A80036;stroke-width:1.5;" x1="511" x2="686" y1="164" y2="164"/><ellipse cx="521" cy="191.9551" rx="3" ry="3" style="stroke:#038048;stroke-width:1.0;fill:none;"/><text fill="#000000" font-family="sans-serif" font-size="11" lengthAdjust="spacing" textLength="49" x="530" y="195.5898">metadata</text><text fill="#000000" font-family="sans-serif" font-size="11" lengthAdjust="spacing" textLength="128" x="530" y="208.5449">type : k8s:Metadata[1..*]</text><ellipse cx="521" cy="217.8652" rx="3" ry="3" style="stroke:#038048;stroke-width:1.0;fill:none;"/><text fill="#000000" font-family="sans-serif" font-size="11" lengthAdjust="spacing" textLength="63" x="530" y="221.5">deployment</text><text fill="#000000" font-family="sans-serif" font-size="11" lengthAdjust="spacing" textLength="144" x="530" y="234.4551">type : k8s:Deployment[1..*]</text><ellipse cx="521" cy="243.7754" rx="3" ry="3" style="stroke:#038048;stroke-width:1.0;fill:none;"/><text fill="#000000" font-family="sans-serif" font-size="11" lengthAdjust="spacing" textLength="21" x="530" y="247.4102">web</text><text fill="#000000" font-family="sans-serif" font-size="11" lengthAdjust="spacing" textLength="151" x="530" y="260.3652">type : k8s:LoadBalancer[1..*]</text><line style="stroke:#A80036;stroke-width:1.0;stroke-dasharray:1.0,2.0;" x1="511" x2="568.5" y1="178.4775" y2="178.4775"/><text fill="#000000" font-family="sans-serif" font-size="11" lengthAdjust="spacing" textLength="60" x="568.5" y="182.1348">capabilities</text><line style="stroke:#A80036;stroke-width:1.0;stroke-dasharray:1.0,2.0;" x1="628.5" x2="686" y1="178.4775" y2="178.4775"/><line style="stroke:#A80036;stroke-width:1.0;" x1="511" x2="686" y1="266.6855" y2="266.6855"/><line style="stroke:#A80036;stroke-width:1.0;stroke-dasharray:1.0,2.0;" x1="511" x2="549.5" y1="281.1631" y2="281.1631"/><text fill="#000000" font-family="sans-serif" font-size="11" lengthAdjust="spacing" textLength="98" x="549.5" y="284.8203">interface normal.1</text><line style="stroke:#A80036;stroke-width:1.0;stroke-dasharray:1.0,2.0;" x1="647.5" x2="686" y1="281.1631" y2="281.1631"/><line style="stroke:#A80036;stroke-width:1.0;stroke-dasharray:1.0,2.0;" x1="511" x2="549.5" y1="300.5957" y2="300.5957"/><text fill="#000000" font-family="sans-serif" font-size="11" lengthAdjust="spacing" textLength="98" x="549.5" y="304.2529">interface normal.2</text><line style="stroke:#A80036;stroke-width:1.0;stroke-dasharray:1.0,2.0;" x1="647.5" x2="686" y1="300.5957" y2="300.5957"/><!--MD5=[ed8bf85a20ea1a66882e76ec6d11dcef]
class k8s_Metadata_CT--><rect codeLine="14" fill="#DDDDDD" filter="url(#f2xubofkp8fpe)" height="48" id="k8s_Metadata_CT" style="stroke:#A80036;stroke-width:1.5;" width="111" x="7" y="199"/><ellipse cx="22" cy="215" fill="#008000" rx="11" ry="11" style="stroke:#A80036;stroke-width:1.0;"/><path d="M24.9731,220.6431 Q24.3921,220.9419 23.7529,221.0913 Q23.1138,221.2407 22.4082,221.2407 Q19.9014,221.2407 18.5815,219.5889 Q17.2617,217.937 17.2617,214.8159 Q17.2617,211.6865 18.5815,210.0347 Q19.9014,208.3828 22.4082,208.3828 Q23.1138,208.3828 23.7612,208.5322 Q24.4087,208.6816 24.9731,208.9805 L24.9731,211.7031 Q24.3423,211.1221 23.7488,210.8523 Q23.1553,210.5825 22.5244,210.5825 Q21.1797,210.5825 20.4949,211.6492 Q19.8101,212.7158 19.8101,214.8159 Q19.8101,216.9077 20.4949,217.9744 Q21.1797,219.041 22.5244,219.041 Q23.1553,219.041 23.7488,218.7712 Q24.3423,218.5015 24.9731,217.9204 Z " fill="#000000"/><text fill="#000000" font-family="sans-serif" font-size="12" lengthAdjust="spacing" textLength="79" x="36" y="219.5352">k8s:Metadata</text><line style="stroke:#A80036;stroke-width:1.5;" x1="8" x2="117" y1="231" y2="231"/><line style="stroke:#A80036;stroke-width:1.5;" x1="8" x2="117" y1="239" y2="239"/><!--MD5=[0c28f1c4ac2fe27054cd5e411c7602be]
class k8s_Deployment_CT--><rect codeLine="15" fill="#DDDDDD" filter="url(#f2xubofkp8fpe)" height="48" id="k8s_Deployment_CT" style="stroke:#A80036;stroke-width:1.5;" width="126" x="153.5" y="199"/><ellipse cx="168.5" cy="215" fill="#008000" rx="11" ry="11" style="stroke:#A80036;stroke-width:1.0;"/><path d="M171.4731,220.6431 Q170.8921,220.9419 170.2529,221.0913 Q169.6138,221.2407 168.9082,221.2407 Q166.4014,221.2407 165.0815,219.5889 Q163.7617,217.937 163.7617,214.8159 Q163.7617,211.6865 165.0815,210.0347 Q166.4014,208.3828 168.9082,208.3828 Q169.6138,208.3828 170.2612,208.5322 Q170.9087,208.6816 171.4731,208.9805 L171.4731,211.7031 Q170.8423,211.1221 170.2488,210.8523 Q169.6553,210.5825 169.0244,210.5825 Q167.6797,210.5825 166.9949,211.6492 Q166.3101,212.7158 166.3101,214.8159 Q166.3101,216.9077 166.9949,217.9744 Q167.6797,219.041 169.0244,219.041 Q169.6553,219.041 170.2488,218.7712 Q170.8423,218.5015 171.4731,217.9204 Z " fill="#000000"/><text fill="#000000" font-family="sans-serif" font-size="12" lengthAdjust="spacing" textLength="94" x="182.5" y="219.5352">k8s:Deployment</text><line style="stroke:#A80036;stroke-width:1.5;" x1="154.5" x2="278.5" y1="231" y2="231"/><line style="stroke:#A80036;stroke-width:1.5;" x1="154.5" x2="278.5" y1="239" y2="239"/><!--MD5=[25966695fa3e946ac168ce6de1c91011]
class k8s_LoadBalancer_CT--><rect codeLine="16" fill="#DDDDDD" filter="url(#f2xubofkp8fpe)" height="48" id="k8s_LoadBalancer_CT" style="stroke:#A80036;stroke-width:1.5;" width="134" x="314.5" y="199"/><ellipse cx="329.5" cy="215" fill="#008000" rx="11" ry="11" style="stroke:#A80036;stroke-width:1.0;"/><path d="M332.4731,220.6431 Q331.8921,220.9419 331.2529,221.0913 Q330.6138,221.2407 329.9082,221.2407 Q327.4014,221.2407 326.0815,219.5889 Q324.7617,217.937 324.7617,214.8159 Q324.7617,211.6865 326.0815,210.0347 Q327.4014,208.3828 329.9082,208.3828 Q330.6138,208.3828 331.2612,208.5322 Q331.9087,208.6816 332.4731,208.9805 L332.4731,211.7031 Q331.8423,211.1221 331.2488,210.8523 Q330.6553,210.5825 330.0244,210.5825 Q328.6797,210.5825 327.9949,211.6492 Q327.3101,212.7158 327.3101,214.8159 Q327.3101,216.9077 327.9949,217.9744 Q328.6797,219.041 330.0244,219.041 Q330.6553,219.041 331.2488,218.7712 Q331.8423,218.5015 332.4731,217.9204 Z " fill="#000000"/><text fill="#000000" font-family="sans-serif" font-size="12" lengthAdjust="spacing" textLength="102" x="343.5" y="219.5352">k8s:LoadBalancer</text><line style="stroke:#A80036;stroke-width:1.5;" x1="315.5" x2="447.5" y1="231" y2="231"/><line style="stroke:#A80036;stroke-width:1.5;" x1="315.5" x2="447.5" y1="239" y2="239"/><!--MD5=[c3b05e878c4c5ad51cc39e1950897d6e]
class k8s_ContainerCommand_IT--><rect codeLine="17" fill="#DDDDDD" filter="url(#f2xubofkp8fpe)" height="48" id="k8s_ContainerCommand_IT" style="stroke:#A80036;stroke-width:1.5;" width="171" x="488" y="7"/><ellipse cx="503" cy="23" fill="#008000" rx="11" ry="11" style="stroke:#A80036;stroke-width:1.0;"/><path d="M498.9277,18.7651 L498.9277,16.6069 L506.3071,16.6069 L506.3071,18.7651 L503.8418,18.7651 L503.8418,26.8418 L506.3071,26.8418 L506.3071,29 L498.9277,29 L498.9277,26.8418 L501.3931,26.8418 L501.3931,18.7651 Z " fill="#000000"/><text fill="#000000" font-family="sans-serif" font-size="12" lengthAdjust="spacing" textLength="139" x="517" y="27.5352">k8s:ContainerCommand</text><line style="stroke:#A80036;stroke-width:1.5;" x1="489" x2="658" y1="39" y2="39"/><line style="stroke:#A80036;stroke-width:1.5;" x1="489" x2="658" y1="47" y2="47"/><!--MD5=[99c91ae8f54fff746abc6e83bf44ad8a]
class o11n_Scriptlet_IT--><rect codeLine="18" fill="#DDDDDD" filter="url(#f2xubofkp8fpe)" height="48" id="o11n_Scriptlet_IT" style="stroke:#A80036;stroke-width:1.5;" width="112" x="694.5" y="7"/><ellipse cx="709.5" cy="23" fill="#008000" rx="11" ry="11" style="stroke:#A80036;stroke-width:1.0;"/><path d="M705.4277,18.7651 L705.4277,16.6069 L712.8071,16.6069 L712.8071,18.7651 L710.3418,18.7651 L710.3418,26.8418 L712.8071,26.8418 L712.8071,29 L705.4277,29 L705.4277,26.8418 L707.8931,26.8418 L707.8931,18.7651 Z " fill="#000000"/><text fill="#000000" font-family="sans-serif" font-size="12" lengthAdjust="spacing" textLength="80" x="723.5" y="27.5352">o11n:Scriptlet</text><line style="stroke:#A80036;stroke-width:1.5;" x1="695.5" x2="805.5" y1="39" y2="39"/><line style="stroke:#A80036;stroke-width:1.5;" x1="695.5" x2="805.5" y1="47" y2="47"/><!--MD5=[3bdf1331c4847e5a2c413e852ba8c537]
link k8s_Metadata_CT to Application_NT--><path codeLine="19" d="M74.7,198.6049 C86.9028,177.0564 107.8266,146.8233 135.5,132 C204.6409,94.9644 415.4363,75.0335 487.5,106 C498.0602,110.5378 508.0879,116.6289 517.4823,123.6582 " fill="none" id="k8s_Metadata_CT-to-Application_NT" style="stroke:#A80036;stroke-width:1.0;"/><polygon fill="#A80036" points="527.8144,131.9606,525.6428,125.0842,518.4602,124.444,520.6318,131.3204,527.8144,131.9606" style="stroke:#A80036;stroke-width:1.0;"/><text fill="#000000" font-family="sans-serif" font-size="13" lengthAdjust="spacing" textLength="58" x="428.5" y="98.5684">metadata</text><text fill="#000000" font-family="sans-serif" font-size="13" lengthAdjust="spacing" textLength="22" x="52.9925" y="188.4367">1..*</text><!--MD5=[cae5f015b3a007d21f19ad188f7be492]
link k8s_Deployment_CT to Application_NT--><path codeLine="20" d="M225.9573,198.8202 C238.4656,170.614 263.4703,125.3778 301.5,106 C331.596,90.6647 344.0701,101.1648 377.5,106 C417.8625,111.8379 428.6659,114.494 465.5,132 C476.5651,137.2589 487.7362,143.3812 498.6532,149.9177 " fill="none" id="k8s_Deployment_CT-to-Application_NT" style="stroke:#A80036;stroke-width:1.0;"/><polygon fill="#A80036" points="509.9229,156.8606,506.9126,150.3079,499.7061,150.5663,502.7164,157.1191,509.9229,156.8606" style="stroke:#A80036;stroke-width:1.0;"/><text fill="#000000" font-family="sans-serif" font-size="13" lengthAdjust="spacing" textLength="74" x="302.5" y="98.5684">deployment</text><text fill="#000000" font-family="sans-serif" font-size="13" lengthAdjust="spacing" textLength="22" x="203.562" y="188.3104">1..*</text><!--MD5=[fea4f4fdf55f511322d00a04a18557e6]
link k8s_LoadBalancer_CT to Application_NT--><path codeLine="21" d="M448.6741,223 C463.7471,223 480.0711,223 496.2113,223 " fill="none" id="k8s_LoadBalancer_CT-to-Application_NT" style="stroke:#A80036;stroke-width:1.0;"/><polygon fill="#A80036" points="509.6943,223,503.6943,219,497.6943,223,503.6943,227,509.6943,223" style="stroke:#A80036;stroke-width:1.0;"/><text fill="#000000" font-family="sans-serif" font-size="13" lengthAdjust="spacing" textLength="25" x="466.75" y="216.5684">web</text><text fill="#000000" font-family="sans-serif" font-size="13" lengthAdjust="spacing" textLength="22" x="456.7358" y="236.3578">1..*</text><!--MD5=[1dddec4bc5e45116b84982633d1786a2]
reverse link k8s_ContainerCommand_IT to Application_NT--><path codeLine="22" d="M579.2581,75.2218 C581.4655,92.1753 584.0733,112.203 586.6446,131.9507 " fill="none" id="k8s_ContainerCommand_IT-backto-Application_NT" style="stroke:#A80036;stroke-width:1.0;stroke-dasharray:7.0,7.0;"/><polygon fill="none" points="572.3073,76.0534,576.6663,55.3169,586.1901,74.2457,572.3073,76.0534" style="stroke:#A80036;stroke-width:1.0;"/><text fill="#000000" font-family="sans-serif" font-size="13" lengthAdjust="spacing" textLength="56" x="583.5" y="98.5684">normal.1</text><!--MD5=[aa90c0e2fdd8bf3864f2c3c62fec5213]
reverse link o11n_Scriptlet_IT to Application_NT--><path codeLine="23" d="M718.8123,71.0265 C704.7284,88.8168 687.5243,110.5482 670.5807,131.9507 " fill="none" id="o11n_Scriptlet_IT-backto-Application_NT" style="stroke:#A80036;stroke-width:1.0;stroke-dasharray:7.0,7.0;"/><polygon fill="none" points="713.3467,66.6529,731.2491,55.3169,724.3233,75.3428,713.3467,66.6529" style="stroke:#A80036;stroke-width:1.0;"/><text fill="#000000" font-family="sans-serif" font-size="13" lengthAdjust="spacing" textLength="56" x="707.5" y="98.5684">normal.2</text><!--MD5=[a0c525ba1c0a50d5cec223f329449970]
@startuml
set namespaceSeparator none
class "Application" as Application_NT << (N,green) >> {
.. capabilities ..
+metadata
 type : k8s:Metadata[1..*]
+deployment
 type : k8s:Deployment[1..*]
+web
 type : k8s:LoadBalancer[1..*]
- -
.. interface normal.1 ..
.. interface normal.2 ..
}
class "k8s:Metadata" as k8s_Metadata_CT << (C,green) >> #DDDDDD
class "k8s:Deployment" as k8s_Deployment_CT << (C,green) >> #DDDDDD
class "k8s:LoadBalancer" as k8s_LoadBalancer_CT << (C,green) >> #DDDDDD
class "k8s:ContainerCommand" as k8s_ContainerCommand_IT << (I,green) >> #DDDDDD
class "o11n:Scriptlet" as o11n_Scriptlet_IT << (I,green) >> #DDDDDD
k8s_Metadata_CT "1..*" -* Application_NT : metadata
k8s_Deployment_CT "1..*" -* Application_NT : deployment
k8s_LoadBalancer_CT "1..*" -* Application_NT : web
k8s_ContainerCommand_IT <|.. Application_NT : normal.1
o11n_Scriptlet_IT <|.. Application_NT : normal.2
@enduml

PlantUML version 1.2021.13(Mon Nov 01 12:38:45 CET 2021)
(GPL source distribution)
Java Runtime: Java(TM) SE Runtime Environment
JVM: Java HotSpot(TM) 64-Bit Server VM
Default Encoding: UTF-8
Language: fr
Country: FR
--></g></svg>