<?xml version="1.0" encoding="UTF-8" standalone="no"?><svg xmlns="http://www.w3.org/2000/svg" xmlns:xlink="http://www.w3.org/1999/xlink" contentScriptType="application/ecmascript" contentStyleType="text/css" height="293px" preserveAspectRatio="none" style="width:262px;height:293px;background:#FFFFFF;" version="1.1" viewBox="0 0 262 293" width="262px" zoomAndPan="magnify"><defs><filter height="300%" id="fjjacsuv8fwa5" width="300%" x="-1" y="-1"><feGaussianBlur result="blurOut" stdDeviation="2.0"/><feColorMatrix in="blurOut" result="blurOut2" type="matrix" values="0 0 0 0 0 0 0 0 0 0 0 0 0 0 0 0 0 0 .4 0"/><feOffset dx="4.0" dy="4.0" in="blurOut2" result="blurOut3"/><feBlend in="SourceGraphic" in2="blurOut3" mode="normal"/></filter></defs><g><!--MD5=[5c1d0718c6a743b5bc8bb2f26e29bd6f]
class Connectable_CT--><rect codeLine="2" fill="#FEFECE" filter="url(#fjjacsuv8fwa5)" height="48" id="Connectable_CT" style="stroke:#A80036;stroke-width:1.5;" width="103" x="76" y="7"/><ellipse cx="91" cy="23" fill="#008000" rx="11" ry="11" style="stroke:#A80036;stroke-width:1.0;"/><path d="M93.9731,28.6431 Q93.3921,28.9419 92.7529,29.0913 Q92.1138,29.2407 91.4082,29.2407 Q88.9014,29.2407 87.5815,27.5889 Q86.2617,25.937 86.2617,22.8159 Q86.2617,19.6865 87.5815,18.0347 Q88.9014,16.3828 91.4082,16.3828 Q92.1138,16.3828 92.7612,16.5322 Q93.4087,16.6816 93.9731,16.9805 L93.9731,19.7031 Q93.3423,19.1221 92.7488,18.8523 Q92.1553,18.5825 91.5244,18.5825 Q90.1797,18.5825 89.4949,19.6492 Q88.8101,20.7158 88.8101,22.8159 Q88.8101,24.9077 89.4949,25.9744 Q90.1797,27.041 91.5244,27.041 Q92.1553,27.041 92.7488,26.7712 Q93.3423,26.5015 93.9731,25.9204 Z " fill="#000000"/><text fill="#000000" font-family="sans-serif" font-size="12" lengthAdjust="spacing" textLength="71" x="105" y="27.5352">Connectable</text><line style="stroke:#A80036;stroke-width:1.5;" x1="77" x2="178" y1="39" y2="39"/><line style="stroke:#A80036;stroke-width:1.5;" x1="77" x2="178" y1="47" y2="47"/><!--MD5=[6d4eef146319d4420d1fbfbe97a6dd70]
class DB_CT--><rect codeLine="4" fill="#FEFECE" filter="url(#fjjacsuv8fwa5)" height="164.5957" id="DB_CT" style="stroke:#A80036;stroke-width:1.5;" width="241" x="7" y="115"/><ellipse cx="115.25" cy="131" fill="#008000" rx="11" ry="11" style="stroke:#A80036;stroke-width:1.0;"/><path d="M118.2231,136.6431 Q117.6421,136.9419 117.0029,137.0913 Q116.3638,137.2407 115.6582,137.2407 Q113.1514,137.2407 111.8315,135.5889 Q110.5117,133.937 110.5117,130.8159 Q110.5117,127.6865 111.8315,126.0347 Q113.1514,124.3828 115.6582,124.3828 Q116.3638,124.3828 117.0112,124.5322 Q117.6587,124.6816 118.2231,124.9805 L118.2231,127.7031 Q117.5923,127.1221 116.9988,126.8523 Q116.4053,126.5825 115.7744,126.5825 Q114.4297,126.5825 113.7449,127.6492 Q113.0601,128.7158 113.0601,130.8159 Q113.0601,132.9077 113.7449,133.9744 Q114.4297,135.041 115.7744,135.041 Q116.4053,135.041 116.9988,134.7712 Q117.5923,134.5015 118.2231,133.9204 Z " fill="#000000"/><text fill="#000000" font-family="sans-serif" font-size="12" lengthAdjust="spacing" textLength="16" x="135.75" y="135.5352">DB</text><line style="stroke:#A80036;stroke-width:1.5;" x1="8" x2="247" y1="147" y2="147"/><ellipse cx="18" cy="174.9551" rx="3" ry="3" style="stroke:#038048;stroke-width:1.0;fill:none;"/><text fill="#000000" font-family="sans-serif" font-size="11" font-weight="bold" lengthAdjust="spacing" textLength="113" x="27" y="178.5898">nodes : list&lt;string&gt;</text><line style="stroke:#A80036;stroke-width:1.0;stroke-dasharray:1.0,2.0;" x1="8" x2="101.5" y1="161.4775" y2="161.4775"/><text fill="#000000" font-family="sans-serif" font-size="11" lengthAdjust="spacing" textLength="52" x="101.5" y="165.1348">attributes</text><line style="stroke:#A80036;stroke-width:1.0;stroke-dasharray:1.0,2.0;" x1="153.5" x2="247" y1="161.4775" y2="161.4775"/><ellipse cx="18" cy="204.8652" rx="3" ry="3" style="stroke:#038048;stroke-width:1.0;fill:none;"/><text fill="#000000" font-family="sans-serif" font-size="11" font-weight="bold" lengthAdjust="spacing" textLength="92" x="27" y="208.5">database : string</text><ellipse cx="18" cy="217.8203" rx="3" ry="3" style="stroke:#038048;stroke-width:1.0;fill:none;"/><text fill="#000000" font-family="sans-serif" font-size="11" font-weight="bold" lengthAdjust="spacing" textLength="98" x="27" y="221.4551">username : string</text><ellipse cx="18" cy="230.7754" rx="3" ry="3" style="stroke:#038048;stroke-width:1.0;fill:none;"/><text fill="#000000" font-family="sans-serif" font-size="11" font-weight="bold" lengthAdjust="spacing" textLength="97" x="27" y="234.4102">password : string</text><ellipse cx="18" cy="243.7305" rx="3" ry="3" style="stroke:#038048;stroke-width:1.0;fill:none;"/><text fill="#000000" font-family="sans-serif" font-size="11" font-weight="bold" lengthAdjust="spacing" textLength="90" x="27" y="247.3652">rootpwd : string</text><ellipse cx="18" cy="256.6855" rx="3" ry="3" style="stroke:#038048;stroke-width:1.0;fill:none;"/><text fill="#000000" font-family="sans-serif" font-size="11" font-weight="bold" lengthAdjust="spacing" textLength="215" x="27" y="260.3203">image : string = 'mariadb/server:10.3'</text><ellipse cx="18" cy="269.6406" rx="3" ry="3" style="stroke:#038048;stroke-width:1.0;fill:none;"/><text fill="#000000" font-family="sans-serif" font-size="11" font-weight="bold" lengthAdjust="spacing" textLength="96" x="27" y="273.2754">size : integer = 1</text><line style="stroke:#A80036;stroke-width:1.0;stroke-dasharray:1.0,2.0;" x1="8" x2="99.5" y1="191.3877" y2="191.3877"/><text fill="#000000" font-family="sans-serif" font-size="11" lengthAdjust="spacing" textLength="56" x="99.5" y="195.0449">properties</text><line style="stroke:#A80036;stroke-width:1.0;stroke-dasharray:1.0,2.0;" x1="155.5" x2="247" y1="191.3877" y2="191.3877"/><!--MD5=[198fba3ae6c68019f2e77c2d16d9bdd1]
reverse link Connectable_CT to DB_CT--><path codeLine="15" d="M127.5,75.3694 C127.5,87.6138 127.5,101.3055 127.5,114.9712 " fill="none" id="Connectable_CT-backto-DB_CT" style="stroke:#A80036;stroke-width:1.0;"/><polygon fill="none" points="120.5001,75.2106,127.5,55.2105,134.5001,75.2105,120.5001,75.2106" style="stroke:#A80036;stroke-width:1.0;"/><!--MD5=[d1ddcffc0ff202cdd062bb83e00d888a]
@startuml
set namespaceSeparator none
class "Connectable" as Connectable_CT << (C,green) >> {
}
class "DB" as DB_CT << (C,green) >> {
.. attributes ..
+<b>nodes : list<string>
.. properties ..
+<b>database : string
+<b>username : string
+<b>password : string
+<b>rootpwd : string
+<b>image : string = 'mariadb/server:10.3'
+<b>size : integer = 1
}
Connectable_CT <|- - DB_CT
@enduml

PlantUML version 1.2021.13(Mon Nov 01 12:38:45 CET 2021)
(GPL source distribution)
Java Runtime: Java(TM) SE Runtime Environment
JVM: Java HotSpot(TM) 64-Bit Server VM
Default Encoding: UTF-8
Language: fr
Country: FR
--></g></svg>