<?xml version="1.0" encoding="UTF-8" standalone="no"?><svg xmlns="http://www.w3.org/2000/svg" xmlns:xlink="http://www.w3.org/1999/xlink" contentScriptType="application/ecmascript" contentStyleType="text/css" height="177px" preserveAspectRatio="none" style="width:108px;height:177px;background:#FFFFFF;" version="1.1" viewBox="0 0 108 177" width="108px" zoomAndPan="magnify"><defs><filter height="300%" id="ffjm811r5n3es" width="300%" x="-1" y="-1"><feGaussianBlur result="blurOut" stdDeviation="2.0"/><feColorMatrix in="blurOut" result="blurOut2" type="matrix" values="0 0 0 0 0 0 0 0 0 0 0 0 0 0 0 0 0 0 .4 0"/><feOffset dx="4.0" dy="4.0" in="blurOut2" result="blurOut3"/><feBlend in="SourceGraphic" in2="blurOut3" mode="normal"/></filter></defs><g><!--MD5=[60d7857dbde4d343ceb00320f3d54991]
class Execution_IT--><rect codeLine="2" fill="#FEFECE" filter="url(#ffjm811r5n3es)" height="48" id="Execution_IT" style="stroke:#A80036;stroke-width:1.5;" width="87" x="7" y="7"/><ellipse cx="22" cy="23" fill="#008000" rx="11" ry="11" style="stroke:#A80036;stroke-width:1.0;"/><path d="M17.9277,18.7651 L17.9277,16.6069 L25.3071,16.6069 L25.3071,18.7651 L22.8418,18.7651 L22.8418,26.8418 L25.3071,26.8418 L25.3071,29 L17.9277,29 L17.9277,26.8418 L20.3931,26.8418 L20.3931,18.7651 Z " fill="#000000"/><text fill="#000000" font-family="sans-serif" font-size="12" lengthAdjust="spacing" textLength="55" x="36" y="27.5352">Execution</text><line style="stroke:#A80036;stroke-width:1.5;" x1="8" x2="93" y1="39" y2="39"/><line style="stroke:#A80036;stroke-width:1.5;" x1="8" x2="93" y1="47" y2="47"/><!--MD5=[b072f0be78860aca8e5044c9c22c4752]
class Scriptlet_IT--><rect codeLine="4" fill="#FEFECE" filter="url(#ffjm811r5n3es)" height="48" id="Scriptlet_IT" style="stroke:#A80036;stroke-width:1.5;" width="78" x="11.5" y="115"/><ellipse cx="26.5" cy="131" fill="#008000" rx="11" ry="11" style="stroke:#A80036;stroke-width:1.0;"/><path d="M22.4277,126.7651 L22.4277,124.6069 L29.8071,124.6069 L29.8071,126.7651 L27.3418,126.7651 L27.3418,134.8418 L29.8071,134.8418 L29.8071,137 L22.4277,137 L22.4277,134.8418 L24.8931,134.8418 L24.8931,126.7651 Z " fill="#000000"/><text fill="#000000" font-family="sans-serif" font-size="12" lengthAdjust="spacing" textLength="46" x="40.5" y="135.5352">Scriptlet</text><line style="stroke:#A80036;stroke-width:1.5;" x1="12.5" x2="88.5" y1="147" y2="147"/><line style="stroke:#A80036;stroke-width:1.5;" x1="12.5" x2="88.5" y1="155" y2="155"/><!--MD5=[e1c9e162487311121747874a45f626cf]
reverse link Execution_IT to Scriptlet_IT--><path codeLine="6" d="M50.5,75.2911 C50.5,88.8171 50.5,103.1835 50.5,114.8436 " fill="none" id="Execution_IT-backto-Scriptlet_IT" style="stroke:#A80036;stroke-width:1.0;"/><polygon fill="none" points="43.5001,75.2373,50.5,55.2373,57.5001,75.2373,43.5001,75.2373" style="stroke:#A80036;stroke-width:1.0;"/><!--MD5=[360a30eaf75aea28edfa2e77f11419b4]
@startuml
set namespaceSeparator none
class "Execution" as Execution_IT << (I,green) >> {
}
class "Scriptlet" as Scriptlet_IT << (I,green) >> {
}
Execution_IT <|- - Scriptlet_IT
@enduml

PlantUML version 1.2021.13(Mon Nov 01 12:38:45 CET 2021)
(GPL source distribution)
Java Runtime: Java(TM) SE Runtime Environment
JVM: Java HotSpot(TM) 64-Bit Server VM
Default Encoding: UTF-8
Language: fr
Country: FR
--></g></svg>