<?xml version="1.0" encoding="UTF-8" standalone="no"?><svg xmlns="http://www.w3.org/2000/svg" xmlns:xlink="http://www.w3.org/1999/xlink" contentScriptType="application/ecmascript" contentStyleType="text/css" height="194px" preserveAspectRatio="none" style="width:167px;height:194px;background:#FFFFFF;" version="1.1" viewBox="0 0 167 194" width="167px" zoomAndPan="magnify"><defs><filter height="300%" id="fmg8yecf8ikn9" width="300%" x="-1" y="-1"><feGaussianBlur result="blurOut" stdDeviation="2.0"/><feColorMatrix in="blurOut" result="blurOut2" type="matrix" values="0 0 0 0 0 0 0 0 0 0 0 0 0 0 0 0 0 0 .4 0"/><feOffset dx="4.0" dy="4.0" in="blurOut2" result="blurOut3"/><feBlend in="SourceGraphic" in2="blurOut3" mode="normal"/></filter></defs><g><!--MD5=[256d9cee56cf3e07f2144fd27d7c9018]
class Route_RT--><rect codeLine="2" fill="#FEFECE" filter="url(#fmg8yecf8ikn9)" height="48" id="Route_RT" style="stroke:#A80036;stroke-width:1.5;" width="65" x="10.5" y="7"/><ellipse cx="25.5" cy="23" fill="#008000" rx="11" ry="11" style="stroke:#A80036;stroke-width:1.0;"/><path d="M26.6987,23.1479 Q27.064,23.2227 27.3337,23.4924 Q27.6035,23.7622 27.9937,24.5425 L30.2349,29 L27.5454,29 L26.0513,25.8706 Q25.9849,25.7378 25.877,25.5054 Q25.2212,24.1025 24.333,24.1025 L23.5527,24.1025 L23.5527,29 L21.104,29 L21.104,16.6069 L24.6401,16.6069 Q27.0308,16.6069 28.0725,17.4536 Q29.1143,18.3003 29.1143,20.2095 Q29.1143,21.4878 28.4917,22.2432 Q27.8691,22.9985 26.6987,23.1479 Z M23.5527,18.6655 L23.5527,22.0439 L24.7065,22.0439 Q25.7109,22.0439 26.1467,21.6497 Q26.5825,21.2554 26.5825,20.3506 Q26.5825,19.4458 26.1509,19.0557 Q25.7192,18.6655 24.7065,18.6655 Z " fill="#000000"/><text fill="#000000" font-family="sans-serif" font-size="12" lengthAdjust="spacing" textLength="33" x="39.5" y="27.5352">Route</text><line style="stroke:#A80036;stroke-width:1.5;" x1="11.5" x2="74.5" y1="39" y2="39"/><line style="stroke:#A80036;stroke-width:1.5;" x1="11.5" x2="74.5" y1="47" y2="47"/><!--MD5=[c502390f11f5fc6d50fa76c2011203ba]
class Service_CT--><rect codeLine="4" fill="#DDDDDD" filter="url(#fmg8yecf8ikn9)" height="48" id="Service_CT" style="stroke:#A80036;stroke-width:1.5;" width="72" x="7" y="132"/><ellipse cx="22" cy="148" fill="#008000" rx="11" ry="11" style="stroke:#A80036;stroke-width:1.0;"/><path d="M24.9731,153.6431 Q24.3921,153.9419 23.7529,154.0913 Q23.1138,154.2407 22.4082,154.2407 Q19.9014,154.2407 18.5815,152.5889 Q17.2617,150.937 17.2617,147.8159 Q17.2617,144.6865 18.5815,143.0347 Q19.9014,141.3828 22.4082,141.3828 Q23.1138,141.3828 23.7612,141.5322 Q24.4087,141.6816 24.9731,141.9805 L24.9731,144.7031 Q24.3423,144.1221 23.7488,143.8523 Q23.1553,143.5825 22.5244,143.5825 Q21.1797,143.5825 20.4949,144.6492 Q19.8101,145.7158 19.8101,147.8159 Q19.8101,149.9077 20.4949,150.9744 Q21.1797,152.041 22.5244,152.041 Q23.1553,152.041 23.7488,151.7712 Q24.3423,151.5015 24.9731,150.9204 Z " fill="#000000"/><text fill="#000000" font-family="sans-serif" font-size="12" lengthAdjust="spacing" textLength="40" x="36" y="152.5352">Service</text><line style="stroke:#A80036;stroke-width:1.5;" x1="8" x2="78" y1="164" y2="164"/><line style="stroke:#A80036;stroke-width:1.5;" x1="8" x2="78" y1="172" y2="172"/><!--MD5=[31cd0edbe72a5f16d4d463606c41a663]
link Route_RT to Service_CT--><path codeLine="5" d="M43,55.1013 C43,75.5931 43,105.0764 43,126.8844 " fill="none" id="Route_RT-to-Service_CT" style="stroke:#A80036;stroke-width:1.0;stroke-dasharray:7.0,7.0;"/><polygon fill="#A80036" points="43,131.9727,47,122.9727,43,126.9727,39,122.9727,43,131.9727" style="stroke:#A80036;stroke-width:1.0;"/><text fill="#000000" font-family="sans-serif" font-size="13" lengthAdjust="spacing" textLength="115" x="44" y="98.5684">valid_target_types</text><!--MD5=[3928db904dd9d1840e726252852b4d4f]
@startuml
set namespaceSeparator none
class "Route" as Route_RT << (R,green) >> {
}
class "Service" as Service_CT << (C,green) >> #DDDDDD
Route_RT ..> Service_CT : valid_target_types
@enduml

PlantUML version 1.2021.13(Mon Nov 01 12:38:45 CET 2021)
(GPL source distribution)
Java Runtime: Java(TM) SE Runtime Environment
JVM: Java HotSpot(TM) 64-Bit Server VM
Default Encoding: UTF-8
Language: fr
Country: FR
--></g></svg>