<?xml version="1.0" encoding="UTF-8" standalone="no"?><svg xmlns="http://www.w3.org/2000/svg" xmlns:xlink="http://www.w3.org/1999/xlink" contentScriptType="application/ecmascript" contentStyleType="text/css" height="69px" preserveAspectRatio="none" style="width:122px;height:69px;background:#FFFFFF;" version="1.1" viewBox="0 0 122 69" width="122px" zoomAndPan="magnify"><defs><filter height="300%" id="foksu6ku4xjva" width="300%" x="-1" y="-1"><feGaussianBlur result="blurOut" stdDeviation="2.0"/><feColorMatrix in="blurOut" result="blurOut2" type="matrix" values="0 0 0 0 0 0 0 0 0 0 0 0 0 0 0 0 0 0 .4 0"/><feOffset dx="4.0" dy="4.0" in="blurOut2" result="blurOut3"/><feBlend in="SourceGraphic" in2="blurOut3" mode="normal"/></filter></defs><g><!--MD5=[1371263133720e77a2c617228d99a3d8]
class TrafficPolicy_PT--><rect codeLine="2" fill="#FEFECE" filter="url(#foksu6ku4xjva)" height="48" id="TrafficPolicy_PT" style="stroke:#A80036;stroke-width:1.5;" width="101" x="7" y="7"/><ellipse cx="22" cy="23" fill="#008000" rx="11" ry="11" style="stroke:#A80036;stroke-width:1.0;"/><path d="M21.7935,18.6655 L21.7935,22.3013 L22.7979,22.3013 Q24.0015,22.3013 24.4871,21.8945 Q24.9727,21.4878 24.9727,20.4834 Q24.9727,19.479 24.4871,19.0723 Q24.0015,18.6655 22.7979,18.6655 Z M19.3447,16.6069 L22.7065,16.6069 Q25.2715,16.6069 26.3962,17.52 Q27.521,18.4331 27.521,20.4834 Q27.521,22.5337 26.3962,23.4468 Q25.2715,24.3599 22.7065,24.3599 L21.7935,24.3599 L21.7935,29 L19.3447,29 Z " fill="#000000"/><text fill="#000000" font-family="sans-serif" font-size="12" lengthAdjust="spacing" textLength="69" x="36" y="27.5352">TrafficPolicy</text><line style="stroke:#A80036;stroke-width:1.5;" x1="8" x2="107" y1="39" y2="39"/><line style="stroke:#A80036;stroke-width:1.5;" x1="8" x2="107" y1="47" y2="47"/><!--MD5=[a59801b53cb2723c2a7f6bd3b5f0d4e5]
@startuml
set namespaceSeparator none
class "TrafficPolicy" as TrafficPolicy_PT << (P,green) >> {
}
@enduml

PlantUML version 1.2021.13(Mon Nov 01 12:38:45 CET 2021)
(GPL source distribution)
Java Runtime: Java(TM) SE Runtime Environment
JVM: Java HotSpot(TM) 64-Bit Server VM
Default Encoding: UTF-8
Language: fr
Country: FR
--></g></svg>