<?xml version="1.0" encoding="UTF-8" standalone="no"?><svg xmlns="http://www.w3.org/2000/svg" xmlns:xlink="http://www.w3.org/1999/xlink" contentScriptType="application/ecmascript" contentStyleType="text/css" height="224px" preserveAspectRatio="none" style="width:407px;height:224px;background:#FFFFFF;" version="1.1" viewBox="0 0 407 224" width="407px" zoomAndPan="magnify"><defs><filter height="300%" id="f1imoak5h4ec39" width="300%" x="-1" y="-1"><feGaussianBlur result="blurOut" stdDeviation="2.0"/><feColorMatrix in="blurOut" result="blurOut2" type="matrix" values="0 0 0 0 0 0 0 0 0 0 0 0 0 0 0 0 0 0 .4 0"/><feOffset dx="4.0" dy="4.0" in="blurOut2" result="blurOut3"/><feBlend in="SourceGraphic" in2="blurOut3" mode="normal"/></filter></defs><g><!--MD5=[176ac6c5e56a9b6dcaf7943b85008017]
class Manifest_AT--><rect codeLine="2" fill="#FEFECE" filter="url(#f1imoak5h4ec39)" height="60.9551" id="Manifest_AT" style="stroke:#A80036;stroke-width:1.5;" width="176" x="7" y="18"/><ellipse cx="66.75" cy="34" fill="#008000" rx="11" ry="11" style="stroke:#A80036;stroke-width:1.0;"/><path d="M66.8633,29.3481 L65.7095,34.4199 L68.0254,34.4199 Z M65.3691,27.1069 L68.3657,27.1069 L71.7109,39.5 L69.2622,39.5 L68.4985,36.437 L65.2197,36.437 L64.4727,39.5 L62.0239,39.5 Z " fill="#000000"/><text fill="#000000" font-family="sans-serif" font-size="12" lengthAdjust="spacing" textLength="48" x="87.25" y="38.5352">Manifest</text><line style="stroke:#A80036;stroke-width:1.5;" x1="8" x2="182" y1="50" y2="50"/><ellipse cx="18" cy="61" rx="3" ry="3" style="stroke:#038048;stroke-width:1.0;fill:none;"/><text fill="#000000" font-family="sans-serif" font-size="11" lengthAdjust="spacing" textLength="150" x="27" y="64.6348">file_ext: ['yaml', 'yml', 'json']</text><line style="stroke:#A80036;stroke-width:1.5;" x1="8" x2="182" y1="70.9551" y2="70.9551"/><!--MD5=[9d88ff50cea55a26d06be6adde2d5215]
class Registry_AT--><rect codeLine="5" fill="#FEFECE" filter="url(#f1imoak5h4ec39)" height="82.8652" id="Registry_AT" style="stroke:#A80036;stroke-width:1.5;" width="175" x="218.5" y="7"/><ellipse cx="278.75" cy="23" fill="#008000" rx="11" ry="11" style="stroke:#A80036;stroke-width:1.0;"/><path d="M278.8633,18.3481 L277.7095,23.4199 L280.0254,23.4199 Z M277.3691,16.1069 L280.3657,16.1069 L283.7109,28.5 L281.2622,28.5 L280.4985,25.437 L277.2197,25.437 L276.4727,28.5 L274.0239,28.5 Z " fill="#000000"/><text fill="#000000" font-family="sans-serif" font-size="12" lengthAdjust="spacing" textLength="46" x="299.25" y="27.5352">Registry</text><line style="stroke:#A80036;stroke-width:1.5;" x1="219.5" x2="392.5" y1="39" y2="39"/><ellipse cx="229.5" cy="66.9551" rx="3" ry="3" style="stroke:#038048;stroke-width:1.0;fill:none;"/><text fill="#000000" font-family="sans-serif" font-size="11" font-weight="bold" lengthAdjust="spacing" textLength="74" x="238.5" y="70.5898">name : string</text><ellipse cx="229.5" cy="79.9102" rx="3" ry="3" style="stroke:#038048;stroke-width:1.0;fill:none;"/><text fill="#000000" font-family="sans-serif" font-size="11" font-weight="bold" lengthAdjust="spacing" textLength="149" x="238.5" y="83.5449">registry : string = 'default'</text><line style="stroke:#A80036;stroke-width:1.0;stroke-dasharray:1.0,2.0;" x1="219.5" x2="278" y1="53.4775" y2="53.4775"/><text fill="#000000" font-family="sans-serif" font-size="11" lengthAdjust="spacing" textLength="56" x="278" y="57.1348">properties</text><line style="stroke:#A80036;stroke-width:1.0;stroke-dasharray:1.0,2.0;" x1="334" x2="392.5" y1="53.4775" y2="53.4775"/><!--MD5=[3178c710823164ad23bc5b6108e43bae]
class ContainerImage_AT--><rect codeLine="10" fill="#FEFECE" filter="url(#f1imoak5h4ec39)" height="60.9551" id="ContainerImage_AT" style="stroke:#A80036;stroke-width:1.5;" width="172" x="220" y="150"/><ellipse cx="257.5" cy="166" fill="#008000" rx="11" ry="11" style="stroke:#A80036;stroke-width:1.0;"/><path d="M257.6133,161.3481 L256.4595,166.4199 L258.7754,166.4199 Z M256.1191,159.1069 L259.1157,159.1069 L262.4609,171.5 L260.0122,171.5 L259.2485,168.437 L255.9697,168.437 L255.2227,171.5 L252.7739,171.5 Z " fill="#000000"/><text fill="#000000" font-family="sans-serif" font-size="12" lengthAdjust="spacing" textLength="90" x="276.5" y="170.5352">ContainerImage</text><line style="stroke:#A80036;stroke-width:1.5;" x1="221" x2="391" y1="182" y2="182"/><ellipse cx="231" cy="193" rx="3" ry="3" style="stroke:#038048;stroke-width:1.0;fill:none;"/><text fill="#000000" font-family="sans-serif" font-size="11" lengthAdjust="spacing" textLength="146" x="240" y="196.6348">file_ext: ['tar', 'tar.gz', 'tgz']</text><line style="stroke:#A80036;stroke-width:1.5;" x1="221" x2="391" y1="202.9551" y2="202.9551"/><!--MD5=[1301cad3299d53e2253bb73c20fbad1d]
reverse link Registry_AT to ContainerImage_AT--><path codeLine="13" d="M306,110.5383 C306,124.2126 306,138.1145 306,149.8848 " fill="none" id="Registry_AT-backto-ContainerImage_AT" style="stroke:#A80036;stroke-width:1.0;"/><polygon fill="none" points="299.0001,110.2657,306,90.2656,313.0001,110.2656,299.0001,110.2657" style="stroke:#A80036;stroke-width:1.0;"/><!--MD5=[e78293a53bb517774591829c32ec0e31]
@startuml
set namespaceSeparator none
class "Manifest" as Manifest_AT << (A,green) >> {
+file_ext: ['yaml', 'yml', 'json']
}
class "Registry" as Registry_AT << (A,green) >> {
.. properties ..
+<b>name : string
+<b>registry : string = 'default'
}
class "ContainerImage" as ContainerImage_AT << (A,green) >> {
+file_ext: ['tar', 'tar.gz', 'tgz']
}
Registry_AT <|- - ContainerImage_AT
@enduml

PlantUML version 1.2021.13(Mon Nov 01 12:38:45 CET 2021)
(GPL source distribution)
Java Runtime: Java(TM) SE Runtime Environment
JVM: Java HotSpot(TM) 64-Bit Server VM
Default Encoding: UTF-8
Language: fr
Country: FR
--></g></svg>