<?xml version="1.0" encoding="UTF-8" standalone="no"?><svg xmlns="http://www.w3.org/2000/svg" xmlns:xlink="http://www.w3.org/1999/xlink" contentScriptType="application/ecmascript" contentStyleType="text/css" height="155px" preserveAspectRatio="none" style="width:228px;height:155px;background:#FFFFFF;" version="1.1" viewBox="0 0 228 155" width="228px" zoomAndPan="magnify"><defs><filter height="300%" id="f1o95okztfu8qt" width="300%" x="-1" y="-1"><feGaussianBlur result="blurOut" stdDeviation="2.0"/><feColorMatrix in="blurOut" result="blurOut2" type="matrix" values="0 0 0 0 0 0 0 0 0 0 0 0 0 0 0 0 0 0 .4 0"/><feOffset dx="4.0" dy="4.0" in="blurOut2" result="blurOut3"/><feBlend in="SourceGraphic" in2="blurOut3" mode="normal"/></filter></defs><g><!--MD5=[ee82935d0f66c76c2ab36bd04a3c543c]
class Provisioning_PT--><rect codeLine="2" fill="#FEFECE" filter="url(#f1o95okztfu8qt)" height="134.6855" id="Provisioning_PT" style="stroke:#A80036;stroke-width:1.5;" width="207" x="7" y="7"/><ellipse cx="72.25" cy="23" fill="#008000" rx="11" ry="11" style="stroke:#A80036;stroke-width:1.0;"/><path d="M72.0435,18.6655 L72.0435,22.3013 L73.0479,22.3013 Q74.2515,22.3013 74.7371,21.8945 Q75.2227,21.4878 75.2227,20.4834 Q75.2227,19.479 74.7371,19.0723 Q74.2515,18.6655 73.0479,18.6655 Z M69.5947,16.6069 L72.9565,16.6069 Q75.5215,16.6069 76.6462,17.52 Q77.771,18.4331 77.771,20.4834 Q77.771,22.5337 76.6462,23.4468 Q75.5215,24.3599 72.9565,24.3599 L72.0435,24.3599 L72.0435,29 L69.5947,29 Z " fill="#000000"/><text fill="#000000" font-family="sans-serif" font-size="12" lengthAdjust="spacing" textLength="68" x="92.75" y="27.5352">Provisioning</text><line style="stroke:#A80036;stroke-width:1.5;" x1="8" x2="213" y1="39" y2="39"/><ellipse cx="18" cy="66.9551" rx="3" ry="3" style="stroke:#038048;stroke-width:1.0;fill:none;"/><text fill="#000000" font-family="sans-serif" font-size="11" lengthAdjust="spacing" textLength="100" x="27" y="70.5898">sites : list&lt;string&gt;</text><ellipse cx="18" cy="79.9102" rx="3" ry="3" style="stroke:#038048;stroke-width:1.0;fill:none;"/><text fill="#000000" font-family="sans-serif" font-size="11" lengthAdjust="spacing" textLength="145" x="27" y="83.5449">profile : ProvisioningProfile</text><ellipse cx="18" cy="92.8652" rx="3" ry="3" style="stroke:#038048;stroke-width:1.0;fill:none;"/><text fill="#000000" font-family="sans-serif" font-size="11" font-weight="bold" lengthAdjust="spacing" textLength="170" x="27" y="96.5">substitutable : boolean = True</text><ellipse cx="18" cy="105.8203" rx="3" ry="3" style="stroke:#038048;stroke-width:1.0;fill:none;"/><text fill="#000000" font-family="sans-serif" font-size="11" font-weight="bold" lengthAdjust="spacing" textLength="163" x="27" y="109.4551">instantiable : boolean = True</text><ellipse cx="18" cy="118.7754" rx="3" ry="3" style="stroke:#038048;stroke-width:1.0;fill:none;"/><text fill="#000000" font-family="sans-serif" font-size="11" font-weight="bold" lengthAdjust="spacing" textLength="168" x="27" y="122.4102">virtualizable : boolean = True</text><ellipse cx="18" cy="131.7305" rx="3" ry="3" style="stroke:#038048;stroke-width:1.0;fill:none;"/><text fill="#000000" font-family="sans-serif" font-size="11" lengthAdjust="spacing" textLength="181" x="27" y="135.3652">substitutionInputs : map&lt;string&gt;</text><line style="stroke:#A80036;stroke-width:1.0;stroke-dasharray:1.0,2.0;" x1="8" x2="82.5" y1="53.4775" y2="53.4775"/><text fill="#000000" font-family="sans-serif" font-size="11" lengthAdjust="spacing" textLength="56" x="82.5" y="57.1348">properties</text><line style="stroke:#A80036;stroke-width:1.0;stroke-dasharray:1.0,2.0;" x1="138.5" x2="213" y1="53.4775" y2="53.4775"/><!--MD5=[aee486def69ae77c63c4421e226f5275]
@startuml
set namespaceSeparator none
class "Provisioning" as Provisioning_PT << (P,green) >> {
.. properties ..
+sites : list<string>
+profile : ProvisioningProfile
+<b>substitutable : boolean = True
+<b>instantiable : boolean = True
+<b>virtualizable : boolean = True
+substitutionInputs : map<string>
}
@enduml

PlantUML version 1.2021.13(Mon Nov 01 12:38:45 CET 2021)
(GPL source distribution)
Java Runtime: Java(TM) SE Runtime Environment
JVM: Java HotSpot(TM) 64-Bit Server VM
Default Encoding: UTF-8
Language: fr
Country: FR
--></g></svg>