<?xml version="1.0" encoding="UTF-8" standalone="no"?><svg xmlns="http://www.w3.org/2000/svg" xmlns:xlink="http://www.w3.org/1999/xlink" contentScriptType="application/ecmascript" contentStyleType="text/css" height="440px" preserveAspectRatio="none" style="width:910px;height:440px;background:#FFFFFF;" version="1.1" viewBox="0 0 910 440" width="910px" zoomAndPan="magnify"><defs><filter height="300%" id="f1ksn7o9522eds" width="300%" x="-1" y="-1"><feGaussianBlur result="blurOut" stdDeviation="2.0"/><feColorMatrix in="blurOut" result="blurOut2" type="matrix" values="0 0 0 0 0 0 0 0 0 0 0 0 0 0 0 0 0 0 .4 0"/><feOffset dx="4.0" dy="4.0" in="blurOut2" result="blurOut3"/><feBlend in="SourceGraphic" in2="blurOut3" mode="normal"/></filter></defs><g><!--MD5=[b5b34600ce3d9ccc11cb5a4c9c96a3a1]
class KubeVirt_CT--><rect codeLine="2" fill="#FEFECE" filter="url(#f1ksn7o9522eds)" height="99.8203" id="KubeVirt_CT" style="stroke:#A80036;stroke-width:1.5;" width="152" x="74.5" y="7"/><ellipse cx="121.25" cy="23" fill="#008000" rx="11" ry="11" style="stroke:#A80036;stroke-width:1.0;"/><path d="M124.2231,28.6431 Q123.6421,28.9419 123.0029,29.0913 Q122.3638,29.2407 121.6582,29.2407 Q119.1514,29.2407 117.8315,27.5889 Q116.5117,25.937 116.5117,22.8159 Q116.5117,19.6865 117.8315,18.0347 Q119.1514,16.3828 121.6582,16.3828 Q122.3638,16.3828 123.0112,16.5322 Q123.6587,16.6816 124.2231,16.9805 L124.2231,19.7031 Q123.5923,19.1221 122.9988,18.8523 Q122.4053,18.5825 121.7744,18.5825 Q120.4297,18.5825 119.7449,19.6492 Q119.0601,20.7158 119.0601,22.8159 Q119.0601,24.9077 119.7449,25.9744 Q120.4297,27.041 121.7744,27.041 Q122.4053,27.041 122.9988,26.7712 Q123.5923,26.5015 124.2231,25.9204 Z " fill="#000000"/><text fill="#000000" font-family="sans-serif" font-size="12" lengthAdjust="spacing" textLength="50" x="141.75" y="27.5352">KubeVirt</text><line style="stroke:#A80036;stroke-width:1.5;" x1="75.5" x2="225.5" y1="39" y2="39"/><ellipse cx="85.5" cy="66.9551" rx="3" ry="3" style="stroke:#038048;stroke-width:1.0;fill:none;"/><text fill="#000000" font-family="sans-serif" font-size="11" font-weight="bold" lengthAdjust="spacing" textLength="126" x="94.5" y="70.5898">status : KubeVirtStatus</text><line style="stroke:#A80036;stroke-width:1.0;stroke-dasharray:1.0,2.0;" x1="75.5" x2="124.5" y1="53.4775" y2="53.4775"/><text fill="#000000" font-family="sans-serif" font-size="11" lengthAdjust="spacing" textLength="52" x="124.5" y="57.1348">attributes</text><line style="stroke:#A80036;stroke-width:1.0;stroke-dasharray:1.0,2.0;" x1="176.5" x2="225.5" y1="53.4775" y2="53.4775"/><ellipse cx="85.5" cy="96.8652" rx="3" ry="3" style="stroke:#038048;stroke-width:1.0;fill:none;"/><text fill="#000000" font-family="sans-serif" font-size="11" font-weight="bold" lengthAdjust="spacing" textLength="110" x="94.5" y="100.5">spec : KubeVirtSpec</text><line style="stroke:#A80036;stroke-width:1.0;stroke-dasharray:1.0,2.0;" x1="75.5" x2="122.5" y1="83.3877" y2="83.3877"/><text fill="#000000" font-family="sans-serif" font-size="11" lengthAdjust="spacing" textLength="56" x="122.5" y="87.0449">properties</text><line style="stroke:#A80036;stroke-width:1.0;stroke-dasharray:1.0,2.0;" x1="178.5" x2="225.5" y1="83.3877" y2="83.3877"/><!--MD5=[df33a53dd4ec8618ff94105a8a4033fa]
class VirtualMachine_CT--><rect codeLine="8" fill="#FEFECE" filter="url(#f1ksn7o9522eds)" height="99.8203" id="VirtualMachine_CT" style="stroke:#A80036;stroke-width:1.5;" width="187" x="262" y="7"/><ellipse cx="309.25" cy="23" fill="#008000" rx="11" ry="11" style="stroke:#A80036;stroke-width:1.0;"/><path d="M312.2231,28.6431 Q311.6421,28.9419 311.0029,29.0913 Q310.3638,29.2407 309.6582,29.2407 Q307.1514,29.2407 305.8315,27.5889 Q304.5117,25.937 304.5117,22.8159 Q304.5117,19.6865 305.8315,18.0347 Q307.1514,16.3828 309.6582,16.3828 Q310.3638,16.3828 311.0112,16.5322 Q311.6587,16.6816 312.2231,16.9805 L312.2231,19.7031 Q311.5923,19.1221 310.9988,18.8523 Q310.4053,18.5825 309.7744,18.5825 Q308.4297,18.5825 307.7449,19.6492 Q307.0601,20.7158 307.0601,22.8159 Q307.0601,24.9077 307.7449,25.9744 Q308.4297,27.041 309.7744,27.041 Q310.4053,27.041 310.9988,26.7712 Q311.5923,26.5015 312.2231,25.9204 Z " fill="#000000"/><text fill="#000000" font-family="sans-serif" font-size="12" lengthAdjust="spacing" textLength="84" x="329.75" y="27.5352">VirtualMachine</text><line style="stroke:#A80036;stroke-width:1.5;" x1="263" x2="448" y1="39" y2="39"/><ellipse cx="273" cy="66.9551" rx="3" ry="3" style="stroke:#038048;stroke-width:1.0;fill:none;"/><text fill="#000000" font-family="sans-serif" font-size="11" font-weight="bold" lengthAdjust="spacing" textLength="161" x="282" y="70.5898">status : VirtualMachineStatus</text><line style="stroke:#A80036;stroke-width:1.0;stroke-dasharray:1.0,2.0;" x1="263" x2="329.5" y1="53.4775" y2="53.4775"/><text fill="#000000" font-family="sans-serif" font-size="11" lengthAdjust="spacing" textLength="52" x="329.5" y="57.1348">attributes</text><line style="stroke:#A80036;stroke-width:1.0;stroke-dasharray:1.0,2.0;" x1="381.5" x2="448" y1="53.4775" y2="53.4775"/><ellipse cx="273" cy="96.8652" rx="3" ry="3" style="stroke:#038048;stroke-width:1.0;fill:none;"/><text fill="#000000" font-family="sans-serif" font-size="11" font-weight="bold" lengthAdjust="spacing" textLength="145" x="282" y="100.5">spec : VirtualMachineSpec</text><line style="stroke:#A80036;stroke-width:1.0;stroke-dasharray:1.0,2.0;" x1="263" x2="327.5" y1="83.3877" y2="83.3877"/><text fill="#000000" font-family="sans-serif" font-size="11" lengthAdjust="spacing" textLength="56" x="327.5" y="87.0449">properties</text><line style="stroke:#A80036;stroke-width:1.0;stroke-dasharray:1.0,2.0;" x1="383.5" x2="448" y1="83.3877" y2="83.3877"/><!--MD5=[17c4c54f8279098d461aad16c4885eec]
class VirtualMachineInstance_CT--><rect codeLine="14" fill="#FEFECE" filter="url(#f1ksn7o9522eds)" height="99.8203" id="VirtualMachineInstance_CT" style="stroke:#A80036;stroke-width:1.5;" width="233" x="484" y="7"/><ellipse cx="530.75" cy="23" fill="#008000" rx="11" ry="11" style="stroke:#A80036;stroke-width:1.0;"/><path d="M533.7231,28.6431 Q533.1421,28.9419 532.5029,29.0913 Q531.8638,29.2407 531.1582,29.2407 Q528.6514,29.2407 527.3315,27.5889 Q526.0117,25.937 526.0117,22.8159 Q526.0117,19.6865 527.3315,18.0347 Q528.6514,16.3828 531.1582,16.3828 Q531.8638,16.3828 532.5112,16.5322 Q533.1587,16.6816 533.7231,16.9805 L533.7231,19.7031 Q533.0923,19.1221 532.4988,18.8523 Q531.9053,18.5825 531.2744,18.5825 Q529.9297,18.5825 529.2449,19.6492 Q528.5601,20.7158 528.5601,22.8159 Q528.5601,24.9077 529.2449,25.9744 Q529.9297,27.041 531.2744,27.041 Q531.9053,27.041 532.4988,26.7712 Q533.0923,26.5015 533.7231,25.9204 Z " fill="#000000"/><text fill="#000000" font-family="sans-serif" font-size="12" lengthAdjust="spacing" textLength="131" x="551.25" y="27.5352">VirtualMachineInstance</text><line style="stroke:#A80036;stroke-width:1.5;" x1="485" x2="716" y1="39" y2="39"/><ellipse cx="495" cy="66.9551" rx="3" ry="3" style="stroke:#038048;stroke-width:1.0;fill:none;"/><text fill="#000000" font-family="sans-serif" font-size="11" font-weight="bold" lengthAdjust="spacing" textLength="207" x="504" y="70.5898">status : VirtualMachineInstanceStatus</text><line style="stroke:#A80036;stroke-width:1.0;stroke-dasharray:1.0,2.0;" x1="485" x2="574.5" y1="53.4775" y2="53.4775"/><text fill="#000000" font-family="sans-serif" font-size="11" lengthAdjust="spacing" textLength="52" x="574.5" y="57.1348">attributes</text><line style="stroke:#A80036;stroke-width:1.0;stroke-dasharray:1.0,2.0;" x1="626.5" x2="716" y1="53.4775" y2="53.4775"/><ellipse cx="495" cy="96.8652" rx="3" ry="3" style="stroke:#038048;stroke-width:1.0;fill:none;"/><text fill="#000000" font-family="sans-serif" font-size="11" font-weight="bold" lengthAdjust="spacing" textLength="191" x="504" y="100.5">spec : VirtualMachineInstanceSpec</text><line style="stroke:#A80036;stroke-width:1.0;stroke-dasharray:1.0,2.0;" x1="485" x2="572.5" y1="83.3877" y2="83.3877"/><text fill="#000000" font-family="sans-serif" font-size="11" lengthAdjust="spacing" textLength="56" x="572.5" y="87.0449">properties</text><line style="stroke:#A80036;stroke-width:1.0;stroke-dasharray:1.0,2.0;" x1="628.5" x2="716" y1="83.3877" y2="83.3877"/><!--MD5=[758cd7c2cf08c395960239b9d3fac199]
class VirtualMachineInstanceMigration_CT--><rect codeLine="20" fill="#FEFECE" filter="url(#f1ksn7o9522eds)" height="99.8203" id="VirtualMachineInstanceMigration_CT" style="stroke:#A80036;stroke-width:1.5;" width="287" x="7" y="167"/><ellipse cx="54.25" cy="183" fill="#008000" rx="11" ry="11" style="stroke:#A80036;stroke-width:1.0;"/><path d="M57.2231,188.6431 Q56.6421,188.9419 56.0029,189.0913 Q55.3638,189.2407 54.6582,189.2407 Q52.1514,189.2407 50.8315,187.5889 Q49.5117,185.937 49.5117,182.8159 Q49.5117,179.6865 50.8315,178.0347 Q52.1514,176.3828 54.6582,176.3828 Q55.3638,176.3828 56.0112,176.5322 Q56.6587,176.6816 57.2231,176.9805 L57.2231,179.7031 Q56.5923,179.1221 55.9988,178.8523 Q55.4053,178.5825 54.7744,178.5825 Q53.4297,178.5825 52.7449,179.6492 Q52.0601,180.7158 52.0601,182.8159 Q52.0601,184.9077 52.7449,185.9744 Q53.4297,187.041 54.7744,187.041 Q55.4053,187.041 55.9988,186.7712 Q56.5923,186.5015 57.2231,185.9204 Z " fill="#000000"/><text fill="#000000" font-family="sans-serif" font-size="12" lengthAdjust="spacing" textLength="184" x="74.75" y="187.5352">VirtualMachineInstanceMigration</text><line style="stroke:#A80036;stroke-width:1.5;" x1="8" x2="293" y1="199" y2="199"/><ellipse cx="18" cy="226.9551" rx="3" ry="3" style="stroke:#038048;stroke-width:1.0;fill:none;"/><text fill="#000000" font-family="sans-serif" font-size="11" font-weight="bold" lengthAdjust="spacing" textLength="261" x="27" y="230.5898">status : VirtualMachineInstanceMigrationStatus</text><line style="stroke:#A80036;stroke-width:1.0;stroke-dasharray:1.0,2.0;" x1="8" x2="124.5" y1="213.4775" y2="213.4775"/><text fill="#000000" font-family="sans-serif" font-size="11" lengthAdjust="spacing" textLength="52" x="124.5" y="217.1348">attributes</text><line style="stroke:#A80036;stroke-width:1.0;stroke-dasharray:1.0,2.0;" x1="176.5" x2="293" y1="213.4775" y2="213.4775"/><ellipse cx="18" cy="256.8652" rx="3" ry="3" style="stroke:#038048;stroke-width:1.0;fill:none;"/><text fill="#000000" font-family="sans-serif" font-size="11" font-weight="bold" lengthAdjust="spacing" textLength="245" x="27" y="260.5">spec : VirtualMachineInstanceMigrationSpec</text><line style="stroke:#A80036;stroke-width:1.0;stroke-dasharray:1.0,2.0;" x1="8" x2="122.5" y1="243.3877" y2="243.3877"/><text fill="#000000" font-family="sans-serif" font-size="11" lengthAdjust="spacing" textLength="56" x="122.5" y="247.0449">properties</text><line style="stroke:#A80036;stroke-width:1.0;stroke-dasharray:1.0,2.0;" x1="178.5" x2="293" y1="243.3877" y2="243.3877"/><!--MD5=[57f296d5e45e360f6d1e1ee57a071db0]
class VirtualMachineInstancePreset_CT--><rect codeLine="26" fill="#FEFECE" filter="url(#f1ksn7o9522eds)" height="69.9102" id="VirtualMachineInstancePreset_CT" style="stroke:#A80036;stroke-width:1.5;" width="242" x="329.5" y="182"/><ellipse cx="363.85" cy="198" fill="#008000" rx="11" ry="11" style="stroke:#A80036;stroke-width:1.0;"/><path d="M366.8231,203.6431 Q366.2421,203.9419 365.6029,204.0913 Q364.9638,204.2407 364.2582,204.2407 Q361.7514,204.2407 360.4315,202.5889 Q359.1117,200.937 359.1117,197.8159 Q359.1117,194.6865 360.4315,193.0347 Q361.7514,191.3828 364.2582,191.3828 Q364.9638,191.3828 365.6112,191.5322 Q366.2587,191.6816 366.8231,191.9805 L366.8231,194.7031 Q366.1923,194.1221 365.5988,193.8523 Q365.0053,193.5825 364.3744,193.5825 Q363.0297,193.5825 362.3449,194.6492 Q361.6601,195.7158 361.6601,197.8159 Q361.6601,199.9077 362.3449,200.9744 Q363.0297,202.041 364.3744,202.041 Q365.0053,202.041 365.5988,201.7712 Q366.1923,201.5015 366.8231,200.9204 Z " fill="#000000"/><text fill="#000000" font-family="sans-serif" font-size="12" lengthAdjust="spacing" textLength="167" x="382.15" y="202.5352">VirtualMachineInstancePreset</text><line style="stroke:#A80036;stroke-width:1.5;" x1="330.5" x2="570.5" y1="214" y2="214"/><ellipse cx="340.5" cy="241.9551" rx="3" ry="3" style="stroke:#038048;stroke-width:1.0;fill:none;"/><text fill="#000000" font-family="sans-serif" font-size="11" lengthAdjust="spacing" textLength="216" x="349.5" y="245.5898">spec : VirtualMachineInstancePresetSpec</text><line style="stroke:#A80036;stroke-width:1.0;stroke-dasharray:1.0,2.0;" x1="330.5" x2="422.5" y1="228.4775" y2="228.4775"/><text fill="#000000" font-family="sans-serif" font-size="11" lengthAdjust="spacing" textLength="56" x="422.5" y="232.1348">properties</text><line style="stroke:#A80036;stroke-width:1.0;stroke-dasharray:1.0,2.0;" x1="478.5" x2="570.5" y1="228.4775" y2="228.4775"/><!--MD5=[bd37f5864f73b9cce3ac552516f3d835]
class VirtualMachineInstanceReplicaSet_CT--><rect codeLine="30" fill="#FEFECE" filter="url(#f1ksn7o9522eds)" height="99.8203" id="VirtualMachineInstanceReplicaSet_CT" style="stroke:#A80036;stroke-width:1.5;" width="290" x="606.5" y="167"/><ellipse cx="652.25" cy="183" fill="#008000" rx="11" ry="11" style="stroke:#A80036;stroke-width:1.0;"/><path d="M655.2231,188.6431 Q654.6421,188.9419 654.0029,189.0913 Q653.3638,189.2407 652.6582,189.2407 Q650.1514,189.2407 648.8315,187.5889 Q647.5117,185.937 647.5117,182.8159 Q647.5117,179.6865 648.8315,178.0347 Q650.1514,176.3828 652.6582,176.3828 Q653.3638,176.3828 654.0112,176.5322 Q654.6587,176.6816 655.2231,176.9805 L655.2231,179.7031 Q654.5923,179.1221 653.9988,178.8523 Q653.4053,178.5825 652.7744,178.5825 Q651.4297,178.5825 650.7449,179.6492 Q650.0601,180.7158 650.0601,182.8159 Q650.0601,184.9077 650.7449,185.9744 Q651.4297,187.041 652.7744,187.041 Q653.4053,187.041 653.9988,186.7712 Q654.5923,186.5015 655.2231,185.9204 Z " fill="#000000"/><text fill="#000000" font-family="sans-serif" font-size="12" lengthAdjust="spacing" textLength="190" x="672.75" y="187.5352">VirtualMachineInstanceReplicaSet</text><line style="stroke:#A80036;stroke-width:1.5;" x1="607.5" x2="895.5" y1="199" y2="199"/><ellipse cx="617.5" cy="226.9551" rx="3" ry="3" style="stroke:#038048;stroke-width:1.0;fill:none;"/><text fill="#000000" font-family="sans-serif" font-size="11" font-weight="bold" lengthAdjust="spacing" textLength="264" x="626.5" y="230.5898">status : VirtualMachineInstanceReplicaSetStatus</text><line style="stroke:#A80036;stroke-width:1.0;stroke-dasharray:1.0,2.0;" x1="607.5" x2="725.5" y1="213.4775" y2="213.4775"/><text fill="#000000" font-family="sans-serif" font-size="11" lengthAdjust="spacing" textLength="52" x="725.5" y="217.1348">attributes</text><line style="stroke:#A80036;stroke-width:1.0;stroke-dasharray:1.0,2.0;" x1="777.5" x2="895.5" y1="213.4775" y2="213.4775"/><ellipse cx="617.5" cy="256.8652" rx="3" ry="3" style="stroke:#038048;stroke-width:1.0;fill:none;"/><text fill="#000000" font-family="sans-serif" font-size="11" font-weight="bold" lengthAdjust="spacing" textLength="248" x="626.5" y="260.5">spec : VirtualMachineInstanceReplicaSetSpec</text><line style="stroke:#A80036;stroke-width:1.0;stroke-dasharray:1.0,2.0;" x1="607.5" x2="723.5" y1="243.3877" y2="243.3877"/><text fill="#000000" font-family="sans-serif" font-size="11" lengthAdjust="spacing" textLength="56" x="723.5" y="247.0449">properties</text><line style="stroke:#A80036;stroke-width:1.0;stroke-dasharray:1.0,2.0;" x1="779.5" x2="895.5" y1="243.3877" y2="243.3877"/><!--MD5=[0b0c7379499c7461decd1b8b3d3a1ffb]
class VirtualMachineRestore_CT--><rect codeLine="36" fill="#FEFECE" filter="url(#f1ksn7o9522eds)" height="99.8203" id="VirtualMachineRestore_CT" style="stroke:#A80036;stroke-width:1.5;" width="229" x="36" y="327"/><ellipse cx="82.25" cy="343" fill="#008000" rx="11" ry="11" style="stroke:#A80036;stroke-width:1.0;"/><path d="M85.2231,348.6431 Q84.6421,348.9419 84.0029,349.0913 Q83.3638,349.2407 82.6582,349.2407 Q80.1514,349.2407 78.8315,347.5889 Q77.5117,345.937 77.5117,342.8159 Q77.5117,339.6865 78.8315,338.0347 Q80.1514,336.3828 82.6582,336.3828 Q83.3638,336.3828 84.0112,336.5322 Q84.6587,336.6816 85.2231,336.9805 L85.2231,339.7031 Q84.5923,339.1221 83.9988,338.8523 Q83.4053,338.5825 82.7744,338.5825 Q81.4297,338.5825 80.7449,339.6492 Q80.0601,340.7158 80.0601,342.8159 Q80.0601,344.9077 80.7449,345.9744 Q81.4297,347.041 82.7744,347.041 Q83.4053,347.041 83.9988,346.7712 Q84.5923,346.5015 85.2231,345.9204 Z " fill="#000000"/><text fill="#000000" font-family="sans-serif" font-size="12" lengthAdjust="spacing" textLength="128" x="102.75" y="347.5352">VirtualMachineRestore</text><line style="stroke:#A80036;stroke-width:1.5;" x1="37" x2="264" y1="359" y2="359"/><ellipse cx="47" cy="386.9551" rx="3" ry="3" style="stroke:#038048;stroke-width:1.0;fill:none;"/><text fill="#000000" font-family="sans-serif" font-size="11" font-weight="bold" lengthAdjust="spacing" textLength="203" x="56" y="390.5898">status : VirtualMachineRestoreStatus</text><line style="stroke:#A80036;stroke-width:1.0;stroke-dasharray:1.0,2.0;" x1="37" x2="124.5" y1="373.4775" y2="373.4775"/><text fill="#000000" font-family="sans-serif" font-size="11" lengthAdjust="spacing" textLength="52" x="124.5" y="377.1348">attributes</text><line style="stroke:#A80036;stroke-width:1.0;stroke-dasharray:1.0,2.0;" x1="176.5" x2="264" y1="373.4775" y2="373.4775"/><ellipse cx="47" cy="416.8652" rx="3" ry="3" style="stroke:#038048;stroke-width:1.0;fill:none;"/><text fill="#000000" font-family="sans-serif" font-size="11" font-weight="bold" lengthAdjust="spacing" textLength="187" x="56" y="420.5">spec : VirtualMachineRestoreSpec</text><line style="stroke:#A80036;stroke-width:1.0;stroke-dasharray:1.0,2.0;" x1="37" x2="122.5" y1="403.3877" y2="403.3877"/><text fill="#000000" font-family="sans-serif" font-size="11" lengthAdjust="spacing" textLength="56" x="122.5" y="407.0449">properties</text><line style="stroke:#A80036;stroke-width:1.0;stroke-dasharray:1.0,2.0;" x1="178.5" x2="264" y1="403.3877" y2="403.3877"/><!--MD5=[050cdea485c1f769bd577de537110baf]
class VirtualMachineSnapshot_CT--><rect codeLine="42" fill="#FEFECE" filter="url(#f1ksn7o9522eds)" height="99.8203" id="VirtualMachineSnapshot_CT" style="stroke:#A80036;stroke-width:1.5;" width="237" x="300" y="327"/><ellipse cx="346.25" cy="343" fill="#008000" rx="11" ry="11" style="stroke:#A80036;stroke-width:1.0;"/><path d="M349.2231,348.6431 Q348.6421,348.9419 348.0029,349.0913 Q347.3638,349.2407 346.6582,349.2407 Q344.1514,349.2407 342.8315,347.5889 Q341.5117,345.937 341.5117,342.8159 Q341.5117,339.6865 342.8315,338.0347 Q344.1514,336.3828 346.6582,336.3828 Q347.3638,336.3828 348.0112,336.5322 Q348.6587,336.6816 349.2231,336.9805 L349.2231,339.7031 Q348.5923,339.1221 347.9988,338.8523 Q347.4053,338.5825 346.7744,338.5825 Q345.4297,338.5825 344.7449,339.6492 Q344.0601,340.7158 344.0601,342.8159 Q344.0601,344.9077 344.7449,345.9744 Q345.4297,347.041 346.7744,347.041 Q347.4053,347.041 347.9988,346.7712 Q348.5923,346.5015 349.2231,345.9204 Z " fill="#000000"/><text fill="#000000" font-family="sans-serif" font-size="12" lengthAdjust="spacing" textLength="136" x="366.75" y="347.5352">VirtualMachineSnapshot</text><line style="stroke:#A80036;stroke-width:1.5;" x1="301" x2="536" y1="359" y2="359"/><ellipse cx="311" cy="386.9551" rx="3" ry="3" style="stroke:#038048;stroke-width:1.0;fill:none;"/><text fill="#000000" font-family="sans-serif" font-size="11" font-weight="bold" lengthAdjust="spacing" textLength="211" x="320" y="390.5898">status : VirtualMachineSnapshotStatus</text><line style="stroke:#A80036;stroke-width:1.0;stroke-dasharray:1.0,2.0;" x1="301" x2="392.5" y1="373.4775" y2="373.4775"/><text fill="#000000" font-family="sans-serif" font-size="11" lengthAdjust="spacing" textLength="52" x="392.5" y="377.1348">attributes</text><line style="stroke:#A80036;stroke-width:1.0;stroke-dasharray:1.0,2.0;" x1="444.5" x2="536" y1="373.4775" y2="373.4775"/><ellipse cx="311" cy="416.8652" rx="3" ry="3" style="stroke:#038048;stroke-width:1.0;fill:none;"/><text fill="#000000" font-family="sans-serif" font-size="11" font-weight="bold" lengthAdjust="spacing" textLength="195" x="320" y="420.5">spec : VirtualMachineSnapshotSpec</text><line style="stroke:#A80036;stroke-width:1.0;stroke-dasharray:1.0,2.0;" x1="301" x2="390.5" y1="403.3877" y2="403.3877"/><text fill="#000000" font-family="sans-serif" font-size="11" lengthAdjust="spacing" textLength="56" x="390.5" y="407.0449">properties</text><line style="stroke:#A80036;stroke-width:1.0;stroke-dasharray:1.0,2.0;" x1="446.5" x2="536" y1="403.3877" y2="403.3877"/><!--MD5=[1a709c142bf411ce98bd847077b6c32b]
class VirtualMachineSnapshotContent_CT--><rect codeLine="48" fill="#FEFECE" filter="url(#f1ksn7o9522eds)" height="99.8203" id="VirtualMachineSnapshotContent_CT" style="stroke:#A80036;stroke-width:1.5;" width="280" x="572.5" y="327"/><ellipse cx="618.25" cy="343" fill="#008000" rx="11" ry="11" style="stroke:#A80036;stroke-width:1.0;"/><path d="M621.2231,348.6431 Q620.6421,348.9419 620.0029,349.0913 Q619.3638,349.2407 618.6582,349.2407 Q616.1514,349.2407 614.8315,347.5889 Q613.5117,345.937 613.5117,342.8159 Q613.5117,339.6865 614.8315,338.0347 Q616.1514,336.3828 618.6582,336.3828 Q619.3638,336.3828 620.0112,336.5322 Q620.6587,336.6816 621.2231,336.9805 L621.2231,339.7031 Q620.5923,339.1221 619.9988,338.8523 Q619.4053,338.5825 618.7744,338.5825 Q617.4297,338.5825 616.7449,339.6492 Q616.0601,340.7158 616.0601,342.8159 Q616.0601,344.9077 616.7449,345.9744 Q617.4297,347.041 618.7744,347.041 Q619.4053,347.041 619.9988,346.7712 Q620.5923,346.5015 621.2231,345.9204 Z " fill="#000000"/><text fill="#000000" font-family="sans-serif" font-size="12" lengthAdjust="spacing" textLength="180" x="638.75" y="347.5352">VirtualMachineSnapshotContent</text><line style="stroke:#A80036;stroke-width:1.5;" x1="573.5" x2="851.5" y1="359" y2="359"/><ellipse cx="583.5" cy="386.9551" rx="3" ry="3" style="stroke:#038048;stroke-width:1.0;fill:none;"/><text fill="#000000" font-family="sans-serif" font-size="11" font-weight="bold" lengthAdjust="spacing" textLength="254" x="592.5" y="390.5898">status : VirtualMachineSnapshotContentStatus</text><line style="stroke:#A80036;stroke-width:1.0;stroke-dasharray:1.0,2.0;" x1="573.5" x2="686.5" y1="373.4775" y2="373.4775"/><text fill="#000000" font-family="sans-serif" font-size="11" lengthAdjust="spacing" textLength="52" x="686.5" y="377.1348">attributes</text><line style="stroke:#A80036;stroke-width:1.0;stroke-dasharray:1.0,2.0;" x1="738.5" x2="851.5" y1="373.4775" y2="373.4775"/><ellipse cx="583.5" cy="416.8652" rx="3" ry="3" style="stroke:#038048;stroke-width:1.0;fill:none;"/><text fill="#000000" font-family="sans-serif" font-size="11" font-weight="bold" lengthAdjust="spacing" textLength="238" x="592.5" y="420.5">spec : VirtualMachineSnapshotContentSpec</text><line style="stroke:#A80036;stroke-width:1.0;stroke-dasharray:1.0,2.0;" x1="573.5" x2="684.5" y1="403.3877" y2="403.3877"/><text fill="#000000" font-family="sans-serif" font-size="11" lengthAdjust="spacing" textLength="56" x="684.5" y="407.0449">properties</text><line style="stroke:#A80036;stroke-width:1.0;stroke-dasharray:1.0,2.0;" x1="740.5" x2="851.5" y1="403.3877" y2="403.3877"/><!--MD5=[060c13cfa42fab15f8dd5baee88a6323]
link KubeVirt_CT to VirtualMachine_CT--><!--MD5=[da5c3ca12f3456d90a8c0daab72a219c]
link VirtualMachine_CT to VirtualMachineInstance_CT--><!--MD5=[ea0e83e1247b772edc0044de4f03a22d]
link KubeVirt_CT to VirtualMachineInstanceMigration_CT--><!--MD5=[f59e19e972a6a622bb6bb694681eda63]
link VirtualMachineInstanceMigration_CT to VirtualMachineInstancePreset_CT--><!--MD5=[7fbff5ee45352711d939d11a4869ddfb]
link VirtualMachineInstancePreset_CT to VirtualMachineInstanceReplicaSet_CT--><!--MD5=[699387adb00c07171ee27a5dec20ad77]
link VirtualMachineInstanceMigration_CT to VirtualMachineRestore_CT--><!--MD5=[1a239d9691cc58a1169573e3b50ab4bd]
link VirtualMachineRestore_CT to VirtualMachineSnapshot_CT--><!--MD5=[93887a121558c66274632888697cbdbb]
link VirtualMachineSnapshot_CT to VirtualMachineSnapshotContent_CT--><!--MD5=[43c6c5f3472ce3e235f0be4cbf6ec6f3]
@startuml
set namespaceSeparator none
class "KubeVirt" as KubeVirt_CT << (C,green) >> {
.. attributes ..
+<b>status : KubeVirtStatus
.. properties ..
+<b>spec : KubeVirtSpec
}
class "VirtualMachine" as VirtualMachine_CT << (C,green) >> {
.. attributes ..
+<b>status : VirtualMachineStatus
.. properties ..
+<b>spec : VirtualMachineSpec
}
class "VirtualMachineInstance" as VirtualMachineInstance_CT << (C,green) >> {
.. attributes ..
+<b>status : VirtualMachineInstanceStatus
.. properties ..
+<b>spec : VirtualMachineInstanceSpec
}
class "VirtualMachineInstanceMigration" as VirtualMachineInstanceMigration_CT << (C,green) >> {
.. attributes ..
+<b>status : VirtualMachineInstanceMigrationStatus
.. properties ..
+<b>spec : VirtualMachineInstanceMigrationSpec
}
class "VirtualMachineInstancePreset" as VirtualMachineInstancePreset_CT << (C,green) >> {
.. properties ..
+spec : VirtualMachineInstancePresetSpec
}
class "VirtualMachineInstanceReplicaSet" as VirtualMachineInstanceReplicaSet_CT << (C,green) >> {
.. attributes ..
+<b>status : VirtualMachineInstanceReplicaSetStatus
.. properties ..
+<b>spec : VirtualMachineInstanceReplicaSetSpec
}
class "VirtualMachineRestore" as VirtualMachineRestore_CT << (C,green) >> {
.. attributes ..
+<b>status : VirtualMachineRestoreStatus
.. properties ..
+<b>spec : VirtualMachineRestoreSpec
}
class "VirtualMachineSnapshot" as VirtualMachineSnapshot_CT << (C,green) >> {
.. attributes ..
+<b>status : VirtualMachineSnapshotStatus
.. properties ..
+<b>spec : VirtualMachineSnapshotSpec
}
class "VirtualMachineSnapshotContent" as VirtualMachineSnapshotContent_CT << (C,green) >> {
.. attributes ..
+<b>status : VirtualMachineSnapshotContentStatus
.. properties ..
+<b>spec : VirtualMachineSnapshotContentSpec
}
@enduml

PlantUML version 1.2021.13(Mon Nov 01 12:38:45 CET 2021)
(GPL source distribution)
Java Runtime: Java(TM) SE Runtime Environment
JVM: Java HotSpot(TM) 64-Bit Server VM
Default Encoding: UTF-8
Language: fr
Country: FR
--></g></svg>