<?xml version="1.0" encoding="UTF-8" standalone="no"?><svg xmlns="http://www.w3.org/2000/svg" xmlns:xlink="http://www.w3.org/1999/xlink" contentScriptType="application/ecmascript" contentStyleType="text/css" height="396px" preserveAspectRatio="none" style="width:525px;height:396px;background:#FFFFFF;" version="1.1" viewBox="0 0 525 396" width="525px" zoomAndPan="magnify"><defs/><g><rect fill="#006400" height="8" style="stroke:none;stroke-width:1.0;" width="80" x="211.5" y="86"/><ellipse cx="251.5" cy="16" fill="#008000" rx="10" ry="10" style="stroke:none;stroke-width:1.0;"/><rect fill="#FF8C00" height="8" style="stroke:none;stroke-width:1.0;" width="80" x="211.5" y="302"/><ellipse cx="251.5" cy="380" rx="10" ry="10" style="stroke:#000000;stroke-width:1.0;fill:none;"/><ellipse cx="252" cy="380.5" fill="#000000" rx="6" ry="6" style="stroke:none;stroke-width:1.0;"/><rect fill="#FFFFFF" height="88.4883" rx="12.5" ry="12.5" style="stroke:#000000;stroke-width:1.5;" width="151" x="7" y="154"/><rect fill="#FFFFFF" height="56" rx="12.5" ry="12.5" style="stroke:#FFFFFF;stroke-width:1.0;" width="145" x="10" y="183.4883"/><line style="stroke:#000000;stroke-width:1.5;" x1="7" x2="158" y1="180.4883" y2="180.4883"/><text fill="#000000" font-family="sans-serif" font-size="14" lengthAdjust="spacing" textLength="124" x="20.5" y="172.5352">undeploy_asterisk</text><rect fill="#D3D3D3" height="40" rx="12.5" ry="12.5" style="stroke:#0000FF;stroke-width:1.5;" width="131" x="19" y="192.4883"/><text fill="#000000" font-family="sans-serif" font-size="14" lengthAdjust="spacing" textLength="121" x="24" y="217.7793">asterisk undeploy</text><rect fill="#FFFFFF" height="88.4883" rx="12.5" ry="12.5" style="stroke:#000000;stroke-width:1.5;" width="116" x="193.5" y="154"/><rect fill="#FFFFFF" height="56" rx="12.5" ry="12.5" style="stroke:#FFFFFF;stroke-width:1.0;" width="110" x="196.5" y="183.4883"/><line style="stroke:#000000;stroke-width:1.5;" x1="193.5" x2="309.5" y1="180.4883" y2="180.4883"/><text fill="#000000" font-family="sans-serif" font-size="14" lengthAdjust="spacing" textLength="89" x="207" y="172.5352">undeploy_db</text><rect fill="#D3D3D3" height="40" rx="12.5" ry="12.5" style="stroke:#0000FF;stroke-width:1.5;" width="96" x="205.5" y="192.4883"/><text fill="#000000" font-family="sans-serif" font-size="14" lengthAdjust="spacing" textLength="86" x="210.5" y="217.7793">db undeploy</text><rect fill="#FFFFFF" height="88.4883" rx="12.5" ry="12.5" style="stroke:#000000;stroke-width:1.5;" width="174" x="344.5" y="154"/><rect fill="#FFFFFF" height="56" rx="12.5" ry="12.5" style="stroke:#FFFFFF;stroke-width:1.0;" width="168" x="347.5" y="183.4883"/><line style="stroke:#000000;stroke-width:1.5;" x1="344.5" x2="518.5" y1="180.4883" y2="180.4883"/><text fill="#000000" font-family="sans-serif" font-size="14" lengthAdjust="spacing" textLength="146" x="358.5" y="172.5352">undeploy_data_plane</text><rect fill="#D3D3D3" height="40" rx="12.5" ry="12.5" style="stroke:#0000FF;stroke-width:1.5;" width="154" x="356.5" y="192.4883"/><text fill="#000000" font-family="sans-serif" font-size="14" lengthAdjust="spacing" textLength="144" x="361.5" y="217.7793">data-plane undeploy</text><!--MD5=[3a0d9b5105bbcb2aa6b5ac8ae9c39a55]
link *start to declarative_undeploy_fork--><path d="M251.5,26.2894 C251.5,40.745 251.5,66.8479 251.5,80.7308 " fill="none" id="*start-to-declarative_undeploy_fork" style="stroke:#0000FF;stroke-width:1.0;"/><polygon fill="#0000FF" points="251.5,85.8629,255.5,76.8629,251.5,80.8629,247.5,76.8629,251.5,85.8629" style="stroke:#0000FF;stroke-width:1.0;"/><!--MD5=[4ea99bfb24e641df18397244a1789f2c]
link declarative_undeploy_fork to step_declarative_undeploy_undeploy_asterisk--><path d="M245.0814,94.1018 C230.1335,103.6543 191.5411,128.3169 155.7075,151.2165 " fill="none" id="declarative_undeploy_fork-to-step_declarative_undeploy_undeploy_asterisk" style="stroke:#0000FF;stroke-width:1.0;"/><polygon fill="#0000FF" points="151.353,153.9993,161.0906,152.5232,155.5661,151.3068,156.7825,145.7822,151.353,153.9993" style="stroke:#0000FF;stroke-width:1.0;"/><!--MD5=[7ec21db0c165837223f730de57be74e0]
link declarative_undeploy_fork to step_declarative_undeploy_undeploy_db--><path d="M251.5,94.1018 C251.5,103.3437 251.5,126.7288 251.5,148.9774 " fill="none" id="declarative_undeploy_fork-to-step_declarative_undeploy_undeploy_db" style="stroke:#0000FF;stroke-width:1.0;"/><polygon fill="#0000FF" points="251.5,153.9993,255.5,144.9993,251.5,148.9993,247.5,144.9993,251.5,153.9993" style="stroke:#0000FF;stroke-width:1.0;"/><!--MD5=[58ee9c6a6cc7f4fcc8dd36b5947d2f65]
link declarative_undeploy_fork to step_declarative_undeploy_undeploy_data_plane--><path d="M258.3364,94.1018 C274.2572,103.6543 315.3615,128.3169 353.5275,151.2165 " fill="none" id="declarative_undeploy_fork-to-step_declarative_undeploy_undeploy_data_plane" style="stroke:#0000FF;stroke-width:1.0;"/><polygon fill="#0000FF" points="358.1654,153.9993,352.5058,145.939,353.8779,151.4269,348.39,152.799,358.1654,153.9993" style="stroke:#0000FF;stroke-width:1.0;"/><!--MD5=[d304f95394e26b0967c056ac947717c1]
link declarative_undeploy_join to *end--><path d="M251.5,310.4074 C251.5,320.8066 251.5,347.2833 251.5,364.4165 " fill="none" id="declarative_undeploy_join-to-*end" style="stroke:#0000FF;stroke-width:1.0;"/><polygon fill="#0000FF" points="251.5,369.8319,255.5,360.8319,251.5,364.8319,247.5,360.8319,251.5,369.8319" style="stroke:#0000FF;stroke-width:1.0;"/><!--MD5=[09ded29138a153991c49c78508e5ec69]
link step_declarative_undeploy_undeploy_asterisk to declarative_undeploy_join--><path d="M151.7264,242.2393 C185.3884,263.7512 222.3956,287.4007 240.4113,298.9137 " fill="none" id="step_declarative_undeploy_undeploy_asterisk-to-declarative_undeploy_join" style="stroke:#0000FF;stroke-width:1.0;"/><polygon fill="#0000FF" points="244.9705,301.8273,239.541,293.6102,240.7574,299.1348,235.2329,300.3512,244.9705,301.8273" style="stroke:#0000FF;stroke-width:1.0;"/><!--MD5=[f0e2a067d6b785f1bc466cfe0f11b479]
link step_declarative_undeploy_undeploy_db to declarative_undeploy_join--><path d="M251.5,242.2393 C251.5,262.4642 251.5,284.5785 251.5,296.72 " fill="none" id="step_declarative_undeploy_undeploy_db-to-declarative_undeploy_join" style="stroke:#0000FF;stroke-width:1.0;"/><polygon fill="#0000FF" points="251.5,301.8273,255.5,292.8273,251.5,296.8273,247.5,292.8273,251.5,301.8273" style="stroke:#0000FF;stroke-width:1.0;"/><!--MD5=[ba62bf03ed8424eb05cdef52de280259]
link step_declarative_undeploy_undeploy_data_plane to declarative_undeploy_join--><path d="M358.0275,242.0835 C321.8225,263.8065 281.9223,287.7466 262.8601,299.1839 " fill="none" id="step_declarative_undeploy_undeploy_data_plane-to-declarative_undeploy_join" style="stroke:#0000FF;stroke-width:1.0;"/><polygon fill="#0000FF" points="258.4777,301.8134,268.2531,300.6129,262.7652,299.2409,264.1371,293.7529,258.4777,301.8134" style="stroke:#0000FF;stroke-width:1.0;"/><!--MD5=[159f090843c40ad482ccaf698e67d3c2]
@startuml
hide empty description
skinparam shadowing false
skinparam state {
  ArrowColor blue
  BorderColor blue
  EndColor black
  StartColor green
  BackGroundColor<< step >> white
  BorderColor<< step >> black
  BackGroundColor<< delegate >> lightgrey
  BackGroundColor<< set_state >> white
  BackGroundColor<< call_operation >> lightblue
  BackGroundColor<< inline >> white
}
skinparam ActivityBarColor<<fork>> DarkGreen
skinparam ActivityBarColor<<join>> DarkOrange

state "undeploy_asterisk" as step_declarative_undeploy_undeploy_asterisk << step >> {
  state "asterisk undeploy" as step_declarative_undeploy_undeploy_asterisk_asterisk_undeploy << delegate >>
}
state "undeploy_db" as step_declarative_undeploy_undeploy_db << step >> {
  state "db undeploy" as step_declarative_undeploy_undeploy_db_db_undeploy << delegate >>
}
state "undeploy_data_plane" as step_declarative_undeploy_undeploy_data_plane << step >> {
  state "data-plane undeploy" as step_declarative_undeploy_undeploy_data_plane_data_plane_undeploy << delegate >>
}
state declarative_undeploy_fork <<fork>>
[*] - -> declarative_undeploy_fork
declarative_undeploy_fork - -> step_declarative_undeploy_undeploy_asterisk
declarative_undeploy_fork - -> step_declarative_undeploy_undeploy_db
declarative_undeploy_fork - -> step_declarative_undeploy_undeploy_data_plane
state declarative_undeploy_join <<join>>
declarative_undeploy_join - -> [*]
step_declarative_undeploy_undeploy_asterisk - -> declarative_undeploy_join
step_declarative_undeploy_undeploy_db - -> declarative_undeploy_join
step_declarative_undeploy_undeploy_data_plane - -> declarative_undeploy_join
@enduml

PlantUML version 1.2021.13(Mon Nov 01 12:38:45 CET 2021)
(GPL source distribution)
Java Runtime: Java(TM) SE Runtime Environment
JVM: Java HotSpot(TM) 64-Bit Server VM
Default Encoding: UTF-8
Language: fr
Country: FR
--></g></svg>