<?xml version="1.0" encoding="UTF-8" standalone="no"?><svg xmlns="http://www.w3.org/2000/svg" xmlns:xlink="http://www.w3.org/1999/xlink" contentScriptType="application/ecmascript" contentStyleType="text/css" height="212px" preserveAspectRatio="none" style="width:510px;height:212px;background:#FFFFFF;" version="1.1" viewBox="0 0 510 212" width="510px" zoomAndPan="magnify"><defs><filter height="300%" id="f1ctqrkprqn1fy" width="300%" x="-1" y="-1"><feGaussianBlur result="blurOut" stdDeviation="2.0"/><feColorMatrix in="blurOut" result="blurOut2" type="matrix" values="0 0 0 0 0 0 0 0 0 0 0 0 0 0 0 0 0 0 .4 0"/><feOffset dx="4.0" dy="4.0" in="blurOut2" result="blurOut3"/><feBlend in="SourceGraphic" in2="blurOut3" mode="normal"/></filter></defs><g><!--MD5=[0a19d90a3eb6db3bf1368ba799d75e58]
class ProvisioningProfile_DT--><rect codeLine="2" fill="#FEFECE" filter="url(#f1ctqrkprqn1fy)" height="82.8652" id="ProvisioningProfile_DT" style="stroke:#A80036;stroke-width:1.5;" width="156" x="7" y="7"/><ellipse cx="31" cy="23" fill="#008000" rx="11" ry="11" style="stroke:#A80036;stroke-width:1.0;"/><path d="M30.5859,18.8149 L30.5859,26.792 L31.25,26.792 Q32.6943,26.792 33.3086,25.8831 Q33.9229,24.9741 33.9229,22.791 Q33.9229,20.6245 33.3086,19.7197 Q32.6943,18.8149 31.25,18.8149 Z M28.1372,16.6069 L30.7603,16.6069 Q33.7983,16.6069 35.1348,18.0554 Q36.4712,19.5039 36.4712,22.791 Q36.4712,26.0864 35.1348,27.5432 Q33.7983,29 30.7603,29 L28.1372,29 Z " fill="#000000"/><text fill="#000000" font-family="sans-serif" font-size="12" lengthAdjust="spacing" textLength="104" x="47" y="27.5352">ProvisioningProfile</text><line style="stroke:#A80036;stroke-width:1.5;" x1="8" x2="162" y1="39" y2="39"/><ellipse cx="18" cy="66.9551" rx="3" ry="3" style="stroke:#038048;stroke-width:1.0;fill:none;"/><text fill="#000000" font-family="sans-serif" font-size="11" font-weight="bold" lengthAdjust="spacing" textLength="74" x="27" y="70.5898">name : string</text><ellipse cx="18" cy="79.9102" rx="3" ry="3" style="stroke:#038048;stroke-width:1.0;fill:none;"/><text fill="#000000" font-family="sans-serif" font-size="11" lengthAdjust="spacing" textLength="130" x="27" y="83.5449">variables : map&lt;string&gt;</text><line style="stroke:#A80036;stroke-width:1.0;stroke-dasharray:1.0,2.0;" x1="8" x2="57" y1="53.4775" y2="53.4775"/><text fill="#000000" font-family="sans-serif" font-size="11" lengthAdjust="spacing" textLength="56" x="57" y="57.1348">properties</text><line style="stroke:#A80036;stroke-width:1.0;stroke-dasharray:1.0,2.0;" x1="113" x2="162" y1="53.4775" y2="53.4775"/><!--MD5=[432ac183314951b9a9421ba6a2e7ae24]
class ExecutionRequirements_DT--><rect codeLine="7" fill="#FEFECE" filter="url(#f1ctqrkprqn1fy)" height="48" id="ExecutionRequirements_DT" style="stroke:#A80036;stroke-width:1.5;" width="167" x="198.5" y="24.5"/><ellipse cx="213.5" cy="40.5" fill="#008000" rx="11" ry="11" style="stroke:#A80036;stroke-width:1.0;"/><path d="M213.0859,36.3149 L213.0859,44.292 L213.75,44.292 Q215.1943,44.292 215.8086,43.3831 Q216.4229,42.4741 216.4229,40.291 Q216.4229,38.1245 215.8086,37.2197 Q215.1943,36.3149 213.75,36.3149 Z M210.6372,34.1069 L213.2603,34.1069 Q216.2983,34.1069 217.6348,35.5554 Q218.9712,37.0039 218.9712,40.291 Q218.9712,43.5864 217.6348,45.0432 Q216.2983,46.5 213.2603,46.5 L210.6372,46.5 Z " fill="#000000"/><text fill="#000000" font-family="sans-serif" font-size="12" lengthAdjust="spacing" textLength="135" x="227.5" y="45.0352">ExecutionRequirements</text><line style="stroke:#A80036;stroke-width:1.5;" x1="199.5" x2="364.5" y1="56.5" y2="56.5"/><line style="stroke:#A80036;stroke-width:1.5;" x1="199.5" x2="364.5" y1="64.5" y2="64.5"/><!--MD5=[41f0fda68ce78c06dec3488c65209e06]
class integer_DT--><rect codeLine="9" fill="#DDDDDD" filter="url(#f1ctqrkprqn1fy)" height="48" id="integer_DT" style="stroke:#A80036;stroke-width:1.5;" width="72" x="401" y="24.5"/><ellipse cx="416" cy="40.5" fill="#008000" rx="11" ry="11" style="stroke:#A80036;stroke-width:1.0;"/><path d="M415.5859,36.3149 L415.5859,44.292 L416.25,44.292 Q417.6943,44.292 418.3086,43.3831 Q418.9229,42.4741 418.9229,40.291 Q418.9229,38.1245 418.3086,37.2197 Q417.6943,36.3149 416.25,36.3149 Z M413.1372,34.1069 L415.7603,34.1069 Q418.7983,34.1069 420.1348,35.5554 Q421.4712,37.0039 421.4712,40.291 Q421.4712,43.5864 420.1348,45.0432 Q418.7983,46.5 415.7603,46.5 L413.1372,46.5 Z " fill="#000000"/><text fill="#000000" font-family="sans-serif" font-size="12" lengthAdjust="spacing" textLength="40" x="430" y="45.0352">integer</text><line style="stroke:#A80036;stroke-width:1.5;" x1="402" x2="472" y1="56.5" y2="56.5"/><line style="stroke:#A80036;stroke-width:1.5;" x1="402" x2="472" y1="64.5" y2="64.5"/><!--MD5=[6c58f0075386a553094d7627c35f40a7]
class FilePermissions_DT--><rect codeLine="10" fill="#FEFECE" filter="url(#f1ctqrkprqn1fy)" height="48" id="FilePermissions_DT" style="stroke:#A80036;stroke-width:1.5;" width="119" x="377.5" y="150"/><ellipse cx="392.5" cy="166" fill="#008000" rx="11" ry="11" style="stroke:#A80036;stroke-width:1.0;"/><path d="M392.0859,161.8149 L392.0859,169.792 L392.75,169.792 Q394.1943,169.792 394.8086,168.8831 Q395.4229,167.9741 395.4229,165.791 Q395.4229,163.6245 394.8086,162.7197 Q394.1943,161.8149 392.75,161.8149 Z M389.6372,159.6069 L392.2603,159.6069 Q395.2983,159.6069 396.6348,161.0554 Q397.9712,162.5039 397.9712,165.791 Q397.9712,169.0864 396.6348,170.5432 Q395.2983,172 392.2603,172 L389.6372,172 Z " fill="#000000"/><text fill="#000000" font-family="sans-serif" font-size="12" lengthAdjust="spacing" textLength="87" x="406.5" y="170.5352">FilePermissions</text><line style="stroke:#A80036;stroke-width:1.5;" x1="378.5" x2="495.5" y1="182" y2="182"/><line style="stroke:#A80036;stroke-width:1.5;" x1="378.5" x2="495.5" y1="190" y2="190"/><!--MD5=[900aa407449ae9abfd6b53abde0b0436]
reverse link integer_DT to FilePermissions_DT--><path codeLine="12" d="M437,92.859 C437,112.0451 437,133.7472 437,149.8766 " fill="none" id="integer_DT-backto-FilePermissions_DT" style="stroke:#A80036;stroke-width:1.0;"/><polygon fill="none" points="430.0001,92.6977,437,72.6977,444.0001,92.6976,430.0001,92.6977" style="stroke:#A80036;stroke-width:1.0;"/><!--MD5=[b811d2fd9c296316bdcb9053628e3f3c]
@startuml
set namespaceSeparator none
class "ProvisioningProfile" as ProvisioningProfile_DT << (D,green) >> {
.. properties ..
+<b>name : string
+variables : map<string>
}
class "ExecutionRequirements" as ExecutionRequirements_DT << (D,green) >> {
}
class "integer" as integer_DT << (D,green) >> #DDDDDD
class "FilePermissions" as FilePermissions_DT << (D,green) >> {
}
integer_DT <|- - FilePermissions_DT
@enduml

PlantUML version 1.2021.13(Mon Nov 01 12:38:45 CET 2021)
(GPL source distribution)
Java Runtime: Java(TM) SE Runtime Environment
JVM: Java HotSpot(TM) 64-Bit Server VM
Default Encoding: UTF-8
Language: fr
Country: FR
--></g></svg>