<?xml version="1.0" encoding="UTF-8" standalone="no"?><svg xmlns="http://www.w3.org/2000/svg" xmlns:xlink="http://www.w3.org/1999/xlink" contentScriptType="application/ecmascript" contentStyleType="text/css" height="567px" preserveAspectRatio="none" style="width:1422px;height:567px;background:#FFFFFF;" version="1.1" viewBox="0 0 1422 567" width="1422px" zoomAndPan="magnify"><defs><filter height="300%" id="f15w3s4o95t1o6" width="300%" x="-1" y="-1"><feGaussianBlur result="blurOut" stdDeviation="2.0"/><feColorMatrix in="blurOut" result="blurOut2" type="matrix" values="0 0 0 0 0 0 0 0 0 0 0 0 0 0 0 0 0 0 .4 0"/><feOffset dx="4.0" dy="4.0" in="blurOut2" result="blurOut3"/><feBlend in="SourceGraphic" in2="blurOut3" mode="normal"/></filter></defs><g><!--MD5=[2640b3574a0a12bbdb93ecb3bbfbc2d7]
class Asterisk_NT--><rect codeLine="2" fill="#FEFECE" filter="url(#f15w3s4o95t1o6)" height="295.6689" id="Asterisk_NT" style="stroke:#A80036;stroke-width:1.5;" width="226" x="700.5" y="132"/><ellipse cx="786.25" cy="148" fill="#008000" rx="11" ry="11" style="stroke:#A80036;stroke-width:1.0;"/><path d="M782.2378,141.6069 L784.8691,141.6069 L788.3223,150.6133 L788.3223,141.6069 L790.4805,141.6069 L790.4805,154 L787.8657,154 L784.396,144.9937 L784.396,154 L782.2378,154 Z " fill="#000000"/><text fill="#000000" font-family="sans-serif" font-size="12" lengthAdjust="spacing" textLength="46" x="806.75" y="152.5352">Asterisk</text><line style="stroke:#A80036;stroke-width:1.5;" x1="701.5" x2="925.5" y1="164" y2="164"/><ellipse cx="711.5" cy="191.9551" rx="3" ry="3" style="stroke:#038048;stroke-width:1.0;fill:none;"/><text fill="#000000" font-family="sans-serif" font-size="11" lengthAdjust="spacing" textLength="49" x="720.5" y="195.5898">metadata</text><text fill="#000000" font-family="sans-serif" font-size="11" lengthAdjust="spacing" textLength="128" x="720.5" y="208.5449">type : k8s:Metadata[1..*]</text><ellipse cx="711.5" cy="217.8652" rx="3" ry="3" style="stroke:#038048;stroke-width:1.0;fill:none;"/><text fill="#000000" font-family="sans-serif" font-size="11" lengthAdjust="spacing" textLength="85" x="720.5" y="221.5">virtual-machine</text><text fill="#000000" font-family="sans-serif" font-size="11" lengthAdjust="spacing" textLength="152" x="720.5" y="234.4551">type : kv:VirtualMachine[1..*]</text><ellipse cx="711.5" cy="243.7754" rx="3" ry="3" style="stroke:#038048;stroke-width:1.0;fill:none;"/><text fill="#000000" font-family="sans-serif" font-size="11" lengthAdjust="spacing" textLength="17" x="720.5" y="247.4102">tcp</text><text fill="#000000" font-family="sans-serif" font-size="11" lengthAdjust="spacing" textLength="151" x="720.5" y="260.3652">type : k8s:LoadBalancer[1..*]</text><ellipse cx="711.5" cy="269.6855" rx="3" ry="3" style="stroke:#038048;stroke-width:1.0;fill:none;"/><text fill="#000000" font-family="sans-serif" font-size="11" lengthAdjust="spacing" textLength="21" x="720.5" y="273.3203">udp</text><text fill="#000000" font-family="sans-serif" font-size="11" lengthAdjust="spacing" textLength="151" x="720.5" y="286.2754">type : k8s:LoadBalancer[1..*]</text><ellipse cx="711.5" cy="295.5957" rx="3" ry="3" style="stroke:#038048;stroke-width:1.0;fill:none;"/><text fill="#000000" font-family="sans-serif" font-size="11" lengthAdjust="spacing" textLength="35" x="720.5" y="299.2305">trunks</text><text fill="#000000" font-family="sans-serif" font-size="11" lengthAdjust="spacing" textLength="152" x="720.5" y="312.1855">type : telephony:Trunks[1..*]</text><line style="stroke:#A80036;stroke-width:1.0;stroke-dasharray:1.0,2.0;" x1="701.5" x2="783.5" y1="178.4775" y2="178.4775"/><text fill="#000000" font-family="sans-serif" font-size="11" lengthAdjust="spacing" textLength="60" x="783.5" y="182.1348">capabilities</text><line style="stroke:#A80036;stroke-width:1.0;stroke-dasharray:1.0,2.0;" x1="843.5" x2="925.5" y1="178.4775" y2="178.4775"/><ellipse cx="711.5" cy="338.4609" rx="3" ry="3" style="stroke:#038048;stroke-width:1.0;fill:none;"/><text fill="#000000" font-family="sans-serif" font-size="11" lengthAdjust="spacing" textLength="14" x="720.5" y="342.0957">db</text><text fill="#000000" font-family="sans-serif" font-size="11" lengthAdjust="spacing" textLength="200" x="720.5" y="355.0508">capability : mariadb:Connectable[0..*]</text><ellipse cx="711.5" cy="364.3711" rx="3" ry="3" style="stroke:#038048;stroke-width:1.0;fill:none;"/><text fill="#000000" font-family="sans-serif" font-size="11" lengthAdjust="spacing" textLength="58" x="720.5" y="368.0059">data-plane</text><text fill="#000000" font-family="sans-serif" font-size="11" lengthAdjust="spacing" textLength="169" x="720.5" y="380.9609">capability : ns:Connectable[0..*]</text><text fill="#000000" font-family="sans-serif" font-size="11" lengthAdjust="spacing" textLength="124" x="720.5" y="393.916">node : ns:NetworkPlane</text><line style="stroke:#A80036;stroke-width:1.0;stroke-dasharray:1.0,2.0;" x1="701.5" x2="777.5" y1="324.9834" y2="324.9834"/><text fill="#000000" font-family="sans-serif" font-size="11" lengthAdjust="spacing" textLength="72" x="777.5" y="328.6406">requirements</text><line style="stroke:#A80036;stroke-width:1.0;stroke-dasharray:1.0,2.0;" x1="849.5" x2="925.5" y1="324.9834" y2="324.9834"/><line style="stroke:#A80036;stroke-width:1.0;" x1="701.5" x2="925.5" y1="400.2363" y2="400.2363"/><line style="stroke:#A80036;stroke-width:1.0;stroke-dasharray:1.0,2.0;" x1="701.5" x2="769.5" y1="414.7139" y2="414.7139"/><text fill="#000000" font-family="sans-serif" font-size="11" lengthAdjust="spacing" textLength="88" x="769.5" y="418.3711">interface normal</text><line style="stroke:#A80036;stroke-width:1.0;stroke-dasharray:1.0,2.0;" x1="857.5" x2="925.5" y1="414.7139" y2="414.7139"/><!--MD5=[ed8bf85a20ea1a66882e76ec6d11dcef]
class k8s_Metadata_CT--><rect codeLine="23" fill="#DDDDDD" filter="url(#f15w3s4o95t1o6)" height="48" id="k8s_Metadata_CT" style="stroke:#A80036;stroke-width:1.5;" width="111" x="7" y="256"/><ellipse cx="22" cy="272" fill="#008000" rx="11" ry="11" style="stroke:#A80036;stroke-width:1.0;"/><path d="M24.9731,277.6431 Q24.3921,277.9419 23.7529,278.0913 Q23.1138,278.2407 22.4082,278.2407 Q19.9014,278.2407 18.5815,276.5889 Q17.2617,274.937 17.2617,271.8159 Q17.2617,268.6865 18.5815,267.0347 Q19.9014,265.3828 22.4082,265.3828 Q23.1138,265.3828 23.7612,265.5322 Q24.4087,265.6816 24.9731,265.9805 L24.9731,268.7031 Q24.3423,268.1221 23.7488,267.8523 Q23.1553,267.5825 22.5244,267.5825 Q21.1797,267.5825 20.4949,268.6492 Q19.8101,269.7158 19.8101,271.8159 Q19.8101,273.9077 20.4949,274.9744 Q21.1797,276.041 22.5244,276.041 Q23.1553,276.041 23.7488,275.7712 Q24.3423,275.5015 24.9731,274.9204 Z " fill="#000000"/><text fill="#000000" font-family="sans-serif" font-size="12" lengthAdjust="spacing" textLength="79" x="36" y="276.5352">k8s:Metadata</text><line style="stroke:#A80036;stroke-width:1.5;" x1="8" x2="117" y1="288" y2="288"/><line style="stroke:#A80036;stroke-width:1.5;" x1="8" x2="117" y1="296" y2="296"/><!--MD5=[18d95a0774162c36b23d0387afec74f7]
class kv_VirtualMachine_CT--><rect codeLine="24" fill="#DDDDDD" filter="url(#f15w3s4o95t1o6)" height="48" id="kv_VirtualMachine_CT" style="stroke:#A80036;stroke-width:1.5;" width="133" x="153" y="256"/><ellipse cx="168" cy="272" fill="#008000" rx="11" ry="11" style="stroke:#A80036;stroke-width:1.0;"/><path d="M170.9731,277.6431 Q170.3921,277.9419 169.7529,278.0913 Q169.1138,278.2407 168.4082,278.2407 Q165.9014,278.2407 164.5815,276.5889 Q163.2617,274.937 163.2617,271.8159 Q163.2617,268.6865 164.5815,267.0347 Q165.9014,265.3828 168.4082,265.3828 Q169.1138,265.3828 169.7612,265.5322 Q170.4087,265.6816 170.9731,265.9805 L170.9731,268.7031 Q170.3423,268.1221 169.7488,267.8523 Q169.1553,267.5825 168.5244,267.5825 Q167.1797,267.5825 166.4949,268.6492 Q165.8101,269.7158 165.8101,271.8159 Q165.8101,273.9077 166.4949,274.9744 Q167.1797,276.041 168.5244,276.041 Q169.1553,276.041 169.7488,275.7712 Q170.3423,275.5015 170.9731,274.9204 Z " fill="#000000"/><text fill="#000000" font-family="sans-serif" font-size="12" lengthAdjust="spacing" textLength="101" x="182" y="276.5352">kv:VirtualMachine</text><line style="stroke:#A80036;stroke-width:1.5;" x1="154" x2="285" y1="288" y2="288"/><line style="stroke:#A80036;stroke-width:1.5;" x1="154" x2="285" y1="296" y2="296"/><!--MD5=[25966695fa3e946ac168ce6de1c91011]
class k8s_LoadBalancer_CT--><rect codeLine="26" fill="#DDDDDD" filter="url(#f15w3s4o95t1o6)" height="48" id="k8s_LoadBalancer_CT" style="stroke:#A80036;stroke-width:1.5;" width="134" x="321.5" y="256"/><ellipse cx="336.5" cy="272" fill="#008000" rx="11" ry="11" style="stroke:#A80036;stroke-width:1.0;"/><path d="M339.4731,277.6431 Q338.8921,277.9419 338.2529,278.0913 Q337.6138,278.2407 336.9082,278.2407 Q334.4014,278.2407 333.0815,276.5889 Q331.7617,274.937 331.7617,271.8159 Q331.7617,268.6865 333.0815,267.0347 Q334.4014,265.3828 336.9082,265.3828 Q337.6138,265.3828 338.2612,265.5322 Q338.9087,265.6816 339.4731,265.9805 L339.4731,268.7031 Q338.8423,268.1221 338.2488,267.8523 Q337.6553,267.5825 337.0244,267.5825 Q335.6797,267.5825 334.9949,268.6492 Q334.3101,269.7158 334.3101,271.8159 Q334.3101,273.9077 334.9949,274.9744 Q335.6797,276.041 337.0244,276.041 Q337.6553,276.041 338.2488,275.7712 Q338.8423,275.5015 339.4731,274.9204 Z " fill="#000000"/><text fill="#000000" font-family="sans-serif" font-size="12" lengthAdjust="spacing" textLength="102" x="350.5" y="276.5352">k8s:LoadBalancer</text><line style="stroke:#A80036;stroke-width:1.5;" x1="322.5" x2="454.5" y1="288" y2="288"/><line style="stroke:#A80036;stroke-width:1.5;" x1="322.5" x2="454.5" y1="296" y2="296"/><!--MD5=[a20517d8ed75aa7d9fa0cf3c9a583b0c]
class telephony_Trunks_CT--><rect codeLine="27" fill="#DDDDDD" filter="url(#f15w3s4o95t1o6)" height="48" id="telephony_Trunks_CT" style="stroke:#A80036;stroke-width:1.5;" width="132" x="490.5" y="256"/><ellipse cx="505.5" cy="272" fill="#008000" rx="11" ry="11" style="stroke:#A80036;stroke-width:1.0;"/><path d="M508.4731,277.6431 Q507.8921,277.9419 507.2529,278.0913 Q506.6138,278.2407 505.9082,278.2407 Q503.4014,278.2407 502.0815,276.5889 Q500.7617,274.937 500.7617,271.8159 Q500.7617,268.6865 502.0815,267.0347 Q503.4014,265.3828 505.9082,265.3828 Q506.6138,265.3828 507.2612,265.5322 Q507.9087,265.6816 508.4731,265.9805 L508.4731,268.7031 Q507.8423,268.1221 507.2488,267.8523 Q506.6553,267.5825 506.0244,267.5825 Q504.6797,267.5825 503.9949,268.6492 Q503.3101,269.7158 503.3101,271.8159 Q503.3101,273.9077 503.9949,274.9744 Q504.6797,276.041 506.0244,276.041 Q506.6553,276.041 507.2488,275.7712 Q507.8423,275.5015 508.4731,274.9204 Z " fill="#000000"/><text fill="#000000" font-family="sans-serif" font-size="12" lengthAdjust="spacing" textLength="100" x="519.5" y="276.5352">telephony:Trunks</text><line style="stroke:#A80036;stroke-width:1.5;" x1="491.5" x2="621.5" y1="288" y2="288"/><line style="stroke:#A80036;stroke-width:1.5;" x1="491.5" x2="621.5" y1="296" y2="296"/><!--MD5=[5bed44012fa7e5a01be494136ce3b886]
class mariadb_Connectable_CT--><rect codeLine="28" fill="#DDDDDD" filter="url(#f15w3s4o95t1o6)" height="48" id="mariadb_Connectable_CT" style="stroke:#A80036;stroke-width:1.5;" width="156" x="1252.5" y="256"/><ellipse cx="1267.5" cy="272" fill="#008000" rx="11" ry="11" style="stroke:#A80036;stroke-width:1.0;"/><path d="M1270.4731,277.6431 Q1269.8921,277.9419 1269.2529,278.0913 Q1268.6138,278.2407 1267.9082,278.2407 Q1265.4014,278.2407 1264.0815,276.5889 Q1262.7617,274.937 1262.7617,271.8159 Q1262.7617,268.6865 1264.0815,267.0347 Q1265.4014,265.3828 1267.9082,265.3828 Q1268.6138,265.3828 1269.2612,265.5322 Q1269.9087,265.6816 1270.4731,265.9805 L1270.4731,268.7031 Q1269.8423,268.1221 1269.2488,267.8523 Q1268.6553,267.5825 1268.0244,267.5825 Q1266.6797,267.5825 1265.9949,268.6492 Q1265.3101,269.7158 1265.3101,271.8159 Q1265.3101,273.9077 1265.9949,274.9744 Q1266.6797,276.041 1268.0244,276.041 Q1268.6553,276.041 1269.2488,275.7712 Q1269.8423,275.5015 1270.4731,274.9204 Z " fill="#000000"/><text fill="#000000" font-family="sans-serif" font-size="12" lengthAdjust="spacing" textLength="124" x="1281.5" y="276.5352">mariadb:Connectable</text><line style="stroke:#A80036;stroke-width:1.5;" x1="1253.5" x2="1407.5" y1="288" y2="288"/><line style="stroke:#A80036;stroke-width:1.5;" x1="1253.5" x2="1407.5" y1="296" y2="296"/><!--MD5=[06186ad21af20a40a9101477aae0361f]
class ns_Connectable_CT--><rect codeLine="29" fill="#DDDDDD" filter="url(#f15w3s4o95t1o6)" height="48" id="ns_Connectable_CT" style="stroke:#A80036;stroke-width:1.5;" width="120" x="1097.5" y="256"/><ellipse cx="1112.5" cy="272" fill="#008000" rx="11" ry="11" style="stroke:#A80036;stroke-width:1.0;"/><path d="M1115.4731,277.6431 Q1114.8921,277.9419 1114.2529,278.0913 Q1113.6138,278.2407 1112.9082,278.2407 Q1110.4014,278.2407 1109.0815,276.5889 Q1107.7617,274.937 1107.7617,271.8159 Q1107.7617,268.6865 1109.0815,267.0347 Q1110.4014,265.3828 1112.9082,265.3828 Q1113.6138,265.3828 1114.2612,265.5322 Q1114.9087,265.6816 1115.4731,265.9805 L1115.4731,268.7031 Q1114.8423,268.1221 1114.2488,267.8523 Q1113.6553,267.5825 1113.0244,267.5825 Q1111.6797,267.5825 1110.9949,268.6492 Q1110.3101,269.7158 1110.3101,271.8159 Q1110.3101,273.9077 1110.9949,274.9744 Q1111.6797,276.041 1113.0244,276.041 Q1113.6553,276.041 1114.2488,275.7712 Q1114.8423,275.5015 1115.4731,274.9204 Z " fill="#000000"/><text fill="#000000" font-family="sans-serif" font-size="12" lengthAdjust="spacing" textLength="88" x="1126.5" y="276.5352">ns:Connectable</text><line style="stroke:#A80036;stroke-width:1.5;" x1="1098.5" x2="1216.5" y1="288" y2="288"/><line style="stroke:#A80036;stroke-width:1.5;" x1="1098.5" x2="1216.5" y1="296" y2="296"/><!--MD5=[a5996a452741cd40506ec2be69bb7993]
class ns_NetworkPlane_NT--><rect codeLine="30" fill="#DDDDDD" filter="url(#f15w3s4o95t1o6)" height="48" id="ns_NetworkPlane_NT" style="stroke:#A80036;stroke-width:1.5;" width="128" x="749.5" y="505"/><ellipse cx="764.5" cy="521" fill="#008000" rx="11" ry="11" style="stroke:#A80036;stroke-width:1.0;"/><path d="M760.4878,514.6069 L763.1191,514.6069 L766.5723,523.6133 L766.5723,514.6069 L768.7305,514.6069 L768.7305,527 L766.1157,527 L762.646,517.9937 L762.646,527 L760.4878,527 Z " fill="#000000"/><text fill="#000000" font-family="sans-serif" font-size="12" lengthAdjust="spacing" textLength="96" x="778.5" y="525.5352">ns:NetworkPlane</text><line style="stroke:#A80036;stroke-width:1.5;" x1="750.5" x2="876.5" y1="537" y2="537"/><line style="stroke:#A80036;stroke-width:1.5;" x1="750.5" x2="876.5" y1="545" y2="545"/><!--MD5=[30e74d893d4940406000fc0e89c03fe2]
class k8s_SSHCommand_IT--><rect codeLine="31" fill="#DDDDDD" filter="url(#f15w3s4o95t1o6)" height="48" id="k8s_SSHCommand_IT" style="stroke:#A80036;stroke-width:1.5;" width="137" x="745" y="7"/><ellipse cx="760" cy="23" fill="#008000" rx="11" ry="11" style="stroke:#A80036;stroke-width:1.0;"/><path d="M755.9277,18.7651 L755.9277,16.6069 L763.3071,16.6069 L763.3071,18.7651 L760.8418,18.7651 L760.8418,26.8418 L763.3071,26.8418 L763.3071,29 L755.9277,29 L755.9277,26.8418 L758.3931,26.8418 L758.3931,18.7651 Z " fill="#000000"/><text fill="#000000" font-family="sans-serif" font-size="12" lengthAdjust="spacing" textLength="105" x="774" y="27.5352">k8s:SSHCommand</text><line style="stroke:#A80036;stroke-width:1.5;" x1="746" x2="881" y1="39" y2="39"/><line style="stroke:#A80036;stroke-width:1.5;" x1="746" x2="881" y1="47" y2="47"/><!--MD5=[3956dd6f3602c34bbb1fda9ac286adea]
link k8s_Metadata_CT to Asterisk_NT--><path codeLine="32" d="M66.5196,255.9987 C73.671,221.7544 92.1502,159.9333 135.5,132 C228.2009,72.2662 521.2348,117.778 631.5,116 C658.1632,115.5701 667.672,104.0277 691.5,116 C696.2687,118.396 700.8982,121.0765 705.3883,123.9998 " fill="none" id="k8s_Metadata_CT-to-Asterisk_NT" style="stroke:#A80036;stroke-width:1.0;"/><polygon fill="#A80036" points="716.2624,131.7426,713.6949,125.0041,706.4872,124.7823,709.0547,131.5208,716.2624,131.7426" style="stroke:#A80036;stroke-width:1.0;"/><text fill="#000000" font-family="sans-serif" font-size="13" lengthAdjust="spacing" textLength="58" x="632.5" y="98.5684">metadata</text><text fill="#000000" font-family="sans-serif" font-size="13" lengthAdjust="spacing" textLength="22" x="42.6436" y="245.1428">1..*</text><!--MD5=[9ac08e91372f0a273152d13c896d6ec4]
link kv_VirtualMachine_CT to Asterisk_NT--><path codeLine="33" d="M225.5133,255.845 C235.4157,221.7063 258.681,160.3495 303.5,132 C363.7666,93.8794 557.1776,91.0998 624,116 C647.0878,124.6033 669.234,137.4253 689.7253,152.1786 " fill="none" id="kv_VirtualMachine_CT-to-Asterisk_NT" style="stroke:#A80036;stroke-width:1.0;"/><polygon fill="#A80036" points="700.2863,160.0575,697.8691,153.2636,690.6681,152.8819,693.0853,159.6758,700.2863,160.0575" style="stroke:#A80036;stroke-width:1.0;"/><text fill="#000000" font-family="sans-serif" font-size="13" lengthAdjust="spacing" textLength="101" x="522" y="98.5684">virtual-machine</text><text fill="#000000" font-family="sans-serif" font-size="13" lengthAdjust="spacing" textLength="22" x="202.2355" y="245.3416">1..*</text><!--MD5=[de7f2a618f01f021cb99d7a9bee1c245]
link k8s_LoadBalancer_CT to Asterisk_NT--><path codeLine="34" d="M390.4195,255.8543 C394.8428,218.4414 409.3386,147.5 456.5,116 C529.21,67.4356 618.6217,108.6349 689.7748,161.8754 " fill="none" id="k8s_LoadBalancer_CT-to-Asterisk_NT" style="stroke:#A80036;stroke-width:1.0;"/><polygon fill="#A80036" points="700.1361,169.8087,697.8039,162.9852,690.6082,162.5136,692.9404,169.3371,700.1361,169.8087" style="stroke:#A80036;stroke-width:1.0;"/><text fill="#000000" font-family="sans-serif" font-size="13" lengthAdjust="spacing" textLength="20" x="457.5" y="98.5684">tcp</text><text fill="#000000" font-family="sans-serif" font-size="13" lengthAdjust="spacing" textLength="22" x="366.0926" y="245.3532">1..*</text><!--MD5=[de7f2a618f01f021cb99d7a9bee1c245]
link k8s_LoadBalancer_CT to Asterisk_NT--><path codeLine="35" d="M390.4195,255.8543 C394.8428,218.4414 409.3386,147.5 456.5,116 C529.21,67.4356 618.6217,108.6349 689.7748,161.8754 " fill="none" id="k8s_LoadBalancer_CT-to-Asterisk_NT-1" style="stroke:#A80036;stroke-width:1.0;"/><polygon fill="#A80036" points="700.1361,169.8087,697.8039,162.9852,690.6082,162.5136,692.9404,169.3371,700.1361,169.8087" style="stroke:#A80036;stroke-width:1.0;"/><text fill="#000000" font-family="sans-serif" font-size="13" lengthAdjust="spacing" textLength="24" x="455.5" y="98.5684">udp</text><text fill="#000000" font-family="sans-serif" font-size="13" lengthAdjust="spacing" textLength="22" x="393.7301" y="245.3532">1..*</text><!--MD5=[fd2beeda067f37c3caee4e5930909bc8]
link telephony_Trunks_CT to Asterisk_NT--><path codeLine="36" d="M622.6839,280 C642.4515,280 664.8152,280 687.0949,280 " fill="none" id="telephony_Trunks_CT-to-Asterisk_NT" style="stroke:#A80036;stroke-width:1.0;"/><polygon fill="#A80036" points="700.1829,280,694.1829,276,688.1829,280,694.1829,284,700.1829,280" style="stroke:#A80036;stroke-width:1.0;"/><text fill="#000000" font-family="sans-serif" font-size="13" lengthAdjust="spacing" textLength="41" x="641" y="273.5684">trunks</text><text fill="#000000" font-family="sans-serif" font-size="13" lengthAdjust="spacing" textLength="22" x="630.6435" y="293.3578">1..*</text><!--MD5=[a9bd6c1dfd6f9594429303f4f28168e8]
reverse link Asterisk_NT to mariadb_Connectable_CT--><path codeLine="37" d="M937.5216,172.5669 C971.2249,149.4057 1009.1975,128.2223 1048,116 C1127.7724,90.8728 1165.3603,86.443 1235.5,132 C1281.3335,161.7697 1309.5179,222.2665 1322.326,255.9659 " fill="none" id="Asterisk_NT-backto-mariadb_Connectable_CT" style="stroke:#A80036;stroke-width:1.0;"/><polygon fill="#A80036" points="926.7333,180.1474,933.9422,179.9707,936.5518,173.2483,929.3429,173.425,926.7333,180.1474" style="stroke:#A80036;stroke-width:1.0;"/><text fill="#000000" font-family="sans-serif" font-size="13" lengthAdjust="spacing" textLength="81" x="1049" y="98.5684">db.capability</text><text fill="#000000" font-family="sans-serif" font-size="13" lengthAdjust="spacing" textLength="22" x="1295.173" y="245.1012">0..*</text><!--MD5=[8b11f9dea2407fe67df33a3cb8dff14e]
reverse link Asterisk_NT to ns_Connectable_CT--><path codeLine="38" d="M939.7946,280 C993.661,280 1053.976,280 1097.4361,280 " fill="none" id="Asterisk_NT-backto-ns_Connectable_CT" style="stroke:#A80036;stroke-width:1.0;"/><polygon fill="#A80036" points="926.6149,280,932.6149,284,938.6149,280,932.6149,276,926.6149,280" style="stroke:#A80036;stroke-width:1.0;"/><text fill="#000000" font-family="sans-serif" font-size="13" lengthAdjust="spacing" textLength="134" x="945" y="273.5684">data-plane.capability</text><text fill="#000000" font-family="sans-serif" font-size="13" lengthAdjust="spacing" textLength="22" x="1067.6635" y="293.4057">0..*</text><!--MD5=[4a927f174da7c22e03b98f1f77c67a56]
link Asterisk_NT to ns_NetworkPlane_NT--><path codeLine="39" d="M813.5,428.0811 C813.5,455.383 813.5,481.1145 813.5,499.7616 " fill="none" id="Asterisk_NT-to-ns_NetworkPlane_NT" style="stroke:#A80036;stroke-width:1.0;stroke-dasharray:7.0,7.0;"/><polygon fill="#A80036" points="813.5,504.8286,817.5,495.8286,813.5,499.8286,809.5,495.8286,813.5,504.8286" style="stroke:#A80036;stroke-width:1.0;"/><text fill="#000000" font-family="sans-serif" font-size="13" lengthAdjust="spacing" textLength="104" x="814.5" y="471.5684">data-plane.node</text><!--MD5=[024a0a5ef567a36c03b9899fb2a3ddde]
reverse link k8s_SSHCommand_IT to Asterisk_NT--><path codeLine="40" d="M813.5,75.4126 C813.5,91.7538 813.5,111.2933 813.5,131.7198 " fill="none" id="k8s_SSHCommand_IT-backto-Asterisk_NT" style="stroke:#A80036;stroke-width:1.0;stroke-dasharray:7.0,7.0;"/><polygon fill="none" points="806.5001,75.3286,813.5,55.3285,820.5001,75.3285,806.5001,75.3286" style="stroke:#A80036;stroke-width:1.0;"/><text fill="#000000" font-family="sans-serif" font-size="13" lengthAdjust="spacing" textLength="44" x="814.5" y="98.5684">normal</text><!--MD5=[3d9427b19c464c0d6273a9d939295307]
@startuml
set namespaceSeparator none
class "Asterisk" as Asterisk_NT << (N,green) >> {
.. capabilities ..
+metadata
 type : k8s:Metadata[1..*]
+virtual-machine
 type : kv:VirtualMachine[1..*]
+tcp
 type : k8s:LoadBalancer[1..*]
+udp
 type : k8s:LoadBalancer[1..*]
+trunks
 type : telephony:Trunks[1..*]
.. requirements ..
+db
 capability : mariadb:Connectable[0..*]
+data-plane
 capability : ns:Connectable[0..*]
 node : ns:NetworkPlane
- -
.. interface normal ..
}
class "k8s:Metadata" as k8s_Metadata_CT << (C,green) >> #DDDDDD
class "kv:VirtualMachine" as kv_VirtualMachine_CT << (C,green) >> #DDDDDD
class "k8s:LoadBalancer" as k8s_LoadBalancer_CT << (C,green) >> #DDDDDD
class "k8s:LoadBalancer" as k8s_LoadBalancer_CT << (C,green) >> #DDDDDD
class "telephony:Trunks" as telephony_Trunks_CT << (C,green) >> #DDDDDD
class "mariadb:Connectable" as mariadb_Connectable_CT << (C,green) >> #DDDDDD
class "ns:Connectable" as ns_Connectable_CT << (C,green) >> #DDDDDD
class "ns:NetworkPlane" as ns_NetworkPlane_NT << (N,green) >> #DDDDDD
class "k8s:SSHCommand" as k8s_SSHCommand_IT << (I,green) >> #DDDDDD
k8s_Metadata_CT "1..*" -* Asterisk_NT : metadata
kv_VirtualMachine_CT "1..*" -* Asterisk_NT : virtual-machine
k8s_LoadBalancer_CT "1..*" -* Asterisk_NT : tcp
k8s_LoadBalancer_CT "1..*" -* Asterisk_NT : udp
telephony_Trunks_CT "1..*" -* Asterisk_NT : trunks
Asterisk_NT *- "0..*" mariadb_Connectable_CT : db.capability
Asterisk_NT *- "0..*" ns_Connectable_CT : data-plane.capability
Asterisk_NT ..> ns_NetworkPlane_NT : data-plane.node
k8s_SSHCommand_IT <|.. Asterisk_NT : normal
@enduml

PlantUML version 1.2021.13(Mon Nov 01 12:38:45 CET 2021)
(GPL source distribution)
Java Runtime: Java(TM) SE Runtime Environment
JVM: Java HotSpot(TM) 64-Bit Server VM
Default Encoding: UTF-8
Language: fr
Country: FR
--></g></svg>