<?xml version="1.0" encoding="UTF-8" standalone="no"?>
<!DOCTYPE svg PUBLIC "-//W3C//DTD SVG 1.1//EN"
 "http://www.w3.org/Graphics/SVG/1.1/DTD/svg11.dtd">
<!-- Generated by graphviz version 2.38.0 (20140413.2041)
 -->
<!-- Title: ToscaDiagram Pages: 1 -->
<svg width="153pt" height="136pt"
 viewBox="0.00 0.00 153.00 136.00" xmlns="http://www.w3.org/2000/svg" xmlns:xlink="http://www.w3.org/1999/xlink">
<g id="graph0" class="graph" transform="scale(1 1) rotate(0) translate(4 132)">
<title>ToscaDiagram</title>
<polygon fill="white" stroke="none" points="-4,4 -4,-132 149,-132 149,4 -4,4"/>
<g id="clust1" class="cluster"><title>clusterserver</title>
<polygon fill="none" stroke="white" points="8,-8 8,-120 137,-120 137,-8 8,-8"/>
</g>
<!-- server -->
<g id="node1" class="node"><title>server</title>
<path fill="none" stroke="black" d="M28,-16.5C28,-16.5 117,-16.5 117,-16.5 123,-16.5 129,-22.5 129,-28.5 129,-28.5 129,-99.5 129,-99.5 129,-105.5 123,-111.5 117,-111.5 117,-111.5 28,-111.5 28,-111.5 22,-111.5 16,-105.5 16,-99.5 16,-99.5 16,-28.5 16,-28.5 16,-22.5 22,-16.5 28,-16.5"/>
<text text-anchor="middle" x="72.5" y="-96.3" font-family="Times,serif" font-size="14.00">server: Container</text>
<polyline fill="none" stroke="black" points="16,-88.5 129,-88.5 "/>
</g>
</g>
</svg>
