<?xml version="1.0" encoding="UTF-8" standalone="no"?>
<!DOCTYPE svg PUBLIC "-//W3C//DTD SVG 1.1//EN"
 "http://www.w3.org/Graphics/SVG/1.1/DTD/svg11.dtd">
<!-- Generated by graphviz version 2.38.0 (20140413.2041)
 -->
<!-- Title: ToscaDiagram Pages: 1 -->
<svg width="473pt" height="136pt"
 viewBox="0.00 0.00 473.00 136.00" xmlns="http://www.w3.org/2000/svg" xmlns:xlink="http://www.w3.org/1999/xlink">
<g id="graph0" class="graph" transform="scale(1 1) rotate(0) translate(4 132)">
<title>ToscaDiagram</title>
<polygon fill="white" stroke="none" points="-4,4 -4,-132 469,-132 469,4 -4,4"/>
<g id="clust1" class="cluster"><title>clusternginx</title>
<polygon fill="none" stroke="white" points="8,-8 8,-120 218,-120 218,-8 8,-8"/>
</g>
<g id="clust2" class="cluster"><title>clusterserver</title>
<polygon fill="none" stroke="white" points="238,-8 238,-120 457,-120 457,-8 238,-8"/>
</g>
<!-- nginx -->
<g id="node1" class="node"><title>nginx</title>
<path fill="none" stroke="black" d="M28,-16.5C28,-16.5 108,-16.5 108,-16.5 114,-16.5 120,-22.5 120,-28.5 120,-28.5 120,-99.5 120,-99.5 120,-105.5 114,-111.5 108,-111.5 108,-111.5 28,-111.5 28,-111.5 22,-111.5 16,-105.5 16,-99.5 16,-99.5 16,-28.5 16,-28.5 16,-22.5 22,-16.5 28,-16.5"/>
<text text-anchor="middle" x="68" y="-96.3" font-family="Times,serif" font-size="14.00">nginx: Software</text>
<polyline fill="none" stroke="black" points="16,-88.5 120,-88.5 "/>
</g>
<!-- nginx_requirement_host -->
<g id="node2" class="node"><title>nginx_requirement_host</title>
<polygon fill="turquoise" stroke="black" points="198,-76 156,-76 156,-52 198,-52 210,-64 198,-76"/>
<text text-anchor="middle" x="183" y="-60.3" font-family="Times,serif" font-size="14.00">host</text>
</g>
<!-- nginx&#45;&#45;nginx_requirement_host -->
<g id="edge1" class="edge"><title>nginx&#45;&#45;nginx_requirement_host</title>
<path fill="none" stroke="black" d="M120.21,-64C132.59,-64 145.311,-64 155.969,-64"/>
</g>
<!-- server_capability_host -->
<g id="node4" class="node"><title>server_capability_host</title>
<polygon fill="orange" stroke="black" points="288,-76 246,-76 246,-52 288,-52 300,-64 288,-76"/>
<text text-anchor="middle" x="273" y="-60.3" font-family="Times,serif" font-size="14.00">host</text>
</g>
<!-- nginx_requirement_host&#45;&#45;server_capability_host -->
<g id="edge3" class="edge"><title>nginx_requirement_host&#45;&#45;server_capability_host</title>
<path fill="none" stroke="black" stroke-dasharray="1,5" d="M210.403,-64C221.642,-64 234.715,-64 245.919,-64"/>
</g>
<!-- server -->
<g id="node3" class="node"><title>server</title>
<path fill="none" stroke="black" d="M348,-16.5C348,-16.5 437,-16.5 437,-16.5 443,-16.5 449,-22.5 449,-28.5 449,-28.5 449,-99.5 449,-99.5 449,-105.5 443,-111.5 437,-111.5 437,-111.5 348,-111.5 348,-111.5 342,-111.5 336,-105.5 336,-99.5 336,-99.5 336,-28.5 336,-28.5 336,-22.5 342,-16.5 348,-16.5"/>
<text text-anchor="middle" x="392.5" y="-96.3" font-family="Times,serif" font-size="14.00">server: Container</text>
<polyline fill="none" stroke="black" points="336,-88.5 449,-88.5 "/>
</g>
<!-- server_capability_host&#45;&#45;server -->
<g id="edge2" class="edge"><title>server_capability_host&#45;&#45;server</title>
<path fill="none" stroke="black" d="M300.077,-64C310.624,-64 323.231,-64 335.664,-64"/>
</g>
</g>
</svg>
