<?xml version="1.0" encoding="UTF-8" standalone="no"?>
<!DOCTYPE svg PUBLIC "-//W3C//DTD SVG 1.1//EN"
 "http://www.w3.org/Graphics/SVG/1.1/DTD/svg11.dtd">
<!-- Generated by graphviz version 2.38.0 (20140413.2041)
 -->
<!-- Title: ToscaDiagram Pages: 1 -->
<svg width="821pt" height="256pt"
 viewBox="0.00 0.00 821.00 256.00" xmlns="http://www.w3.org/2000/svg" xmlns:xlink="http://www.w3.org/1999/xlink">
<g id="graph0" class="graph" transform="scale(1 1) rotate(0) translate(4 252)">
<title>ToscaDiagram</title>
<polygon fill="white" stroke="none" points="-4,4 -4,-252 817,-252 817,4 -4,4"/>
<g id="clust1" class="cluster"><title>clusterapp</title>
<polygon fill="none" stroke="white" points="8,-69 8,-181 231,-181 231,-69 8,-69"/>
</g>
<g id="clust2" class="cluster"><title>clusterdb</title>
<polygon fill="none" stroke="white" points="251,-128 251,-240 558,-240 558,-128 251,-128"/>
</g>
<g id="clust3" class="cluster"><title>clusternode_node</title>
<polygon fill="none" stroke="white" points="256.5,-8 256.5,-120 558,-120 558,-8 256.5,-8"/>
</g>
<g id="clust4" class="cluster"><title>clusterserver1</title>
<polygon fill="none" stroke="white" points="578,-8 578,-120 805,-120 805,-8 578,-8"/>
</g>
<g id="clust5" class="cluster"><title>clusterserver2</title>
<polygon fill="none" stroke="white" points="578,-128 578,-240 805,-240 805,-128 578,-128"/>
</g>
<!-- app -->
<g id="node1" class="node"><title>app</title>
<path fill="none" stroke="black" d="M28,-77.5C28,-77.5 99,-77.5 99,-77.5 105,-77.5 111,-83.5 111,-89.5 111,-89.5 111,-160.5 111,-160.5 111,-166.5 105,-172.5 99,-172.5 99,-172.5 28,-172.5 28,-172.5 22,-172.5 16,-166.5 16,-160.5 16,-160.5 16,-89.5 16,-89.5 16,-83.5 22,-77.5 28,-77.5"/>
<text text-anchor="middle" x="63.5" y="-157.3" font-family="Times,serif" font-size="14.00">app: Software</text>
<polyline fill="none" stroke="black" points="16,-149.5 111,-149.5 "/>
</g>
<!-- app_requirement_connection -->
<g id="node2" class="node"><title>app_requirement_connection</title>
<polygon fill="turquoise" stroke="black" points="211,-166 147,-166 147,-142 211,-142 223,-154 211,-166"/>
<text text-anchor="middle" x="185" y="-150.3" font-family="Times,serif" font-size="14.00">connection</text>
</g>
<!-- app&#45;&#45;app_requirement_connection -->
<g id="edge1" class="edge"><title>app&#45;&#45;app_requirement_connection</title>
<path fill="none" stroke="black" d="M111.044,-136.295C122.84,-139.158 135.359,-142.196 146.635,-144.932"/>
</g>
<!-- app_requirement_host -->
<g id="node3" class="node"><title>app_requirement_host</title>
<polygon fill="turquoise" stroke="black" points="200,-109 158,-109 158,-85 200,-85 212,-97 200,-109"/>
<text text-anchor="middle" x="185" y="-93.3" font-family="Times,serif" font-size="14.00">host</text>
</g>
<!-- app&#45;&#45;app_requirement_host -->
<g id="edge2" class="edge"><title>app&#45;&#45;app_requirement_host</title>
<path fill="none" stroke="black" d="M111.044,-114.094C126.903,-110.378 144.069,-106.356 157.764,-103.147"/>
</g>
<!-- db_capability_endpoint -->
<g id="node5" class="node"><title>db_capability_endpoint</title>
<polygon fill="orange" stroke="black" points="312,-181 259,-181 259,-157 312,-157 324,-169 312,-181"/>
<text text-anchor="middle" x="291.5" y="-165.3" font-family="Times,serif" font-size="14.00">endpoint</text>
</g>
<!-- app_requirement_connection&#45;&#45;db_capability_endpoint -->
<g id="edge10" class="edge"><title>app_requirement_connection&#45;&#45;db_capability_endpoint</title>
<path fill="none" stroke="black" stroke-dasharray="1,5" d="M223.137,-159.331C234.753,-160.998 247.459,-162.822 258.674,-164.432"/>
</g>
<!-- node_node_capability_host -->
<g id="node8" class="node"><title>node_node_capability_host</title>
<polygon fill="orange" stroke="black" points="306.5,-91 264.5,-91 264.5,-67 306.5,-67 318.5,-79 306.5,-91"/>
<text text-anchor="middle" x="291.5" y="-75.3" font-family="Times,serif" font-size="14.00">host</text>
</g>
<!-- app_requirement_host&#45;&#45;node_node_capability_host -->
<g id="edge9" class="edge"><title>app_requirement_host&#45;&#45;node_node_capability_host</title>
<path fill="none" stroke="black" stroke-dasharray="1,5" d="M212.1,-92.5043C228.06,-89.7552 248.405,-86.2508 264.37,-83.5008"/>
</g>
<!-- db -->
<g id="node4" class="node"><title>db</title>
<path fill="none" stroke="black" d="M378,-136.5C378,-136.5 442,-136.5 442,-136.5 448,-136.5 454,-142.5 454,-148.5 454,-148.5 454,-219.5 454,-219.5 454,-225.5 448,-231.5 442,-231.5 442,-231.5 378,-231.5 378,-231.5 372,-231.5 366,-225.5 366,-219.5 366,-219.5 366,-148.5 366,-148.5 366,-142.5 372,-136.5 378,-136.5"/>
<text text-anchor="middle" x="410" y="-216.3" font-family="Times,serif" font-size="14.00">db: Software</text>
<polyline fill="none" stroke="black" points="366,-208.5 454,-208.5 "/>
</g>
<!-- db_requirement_host -->
<g id="node6" class="node"><title>db_requirement_host</title>
<polygon fill="turquoise" stroke="black" points="538,-196 496,-196 496,-172 538,-172 550,-184 538,-196"/>
<text text-anchor="middle" x="523" y="-180.3" font-family="Times,serif" font-size="14.00">host</text>
</g>
<!-- db&#45;&#45;db_requirement_host -->
<g id="edge4" class="edge"><title>db&#45;&#45;db_requirement_host</title>
<path fill="none" stroke="black" d="M454.233,-184C468.234,-184 483.331,-184 495.714,-184"/>
</g>
<!-- db_capability_endpoint&#45;&#45;db -->
<g id="edge3" class="edge"><title>db_capability_endpoint&#45;&#45;db</title>
<path fill="none" stroke="black" d="M324.027,-173.059C336.83,-174.708 351.833,-176.639 365.639,-178.417"/>
</g>
<!-- server2_capability_host -->
<g id="node13" class="node"><title>server2_capability_host</title>
<polygon fill="orange" stroke="black" points="628,-196 586,-196 586,-172 628,-172 640,-184 628,-196"/>
<text text-anchor="middle" x="613" y="-180.3" font-family="Times,serif" font-size="14.00">host</text>
</g>
<!-- db_requirement_host&#45;&#45;server2_capability_host -->
<g id="edge11" class="edge"><title>db_requirement_host&#45;&#45;server2_capability_host</title>
<path fill="none" stroke="black" stroke-dasharray="1,5" d="M550.403,-184C561.642,-184 574.715,-184 585.919,-184"/>
</g>
<!-- node_node -->
<g id="node7" class="node"><title>node_node</title>
<path fill="none" stroke="black" d="M372,-16.5C372,-16.5 448,-16.5 448,-16.5 454,-16.5 460,-22.5 460,-28.5 460,-28.5 460,-99.5 460,-99.5 460,-105.5 454,-111.5 448,-111.5 448,-111.5 372,-111.5 372,-111.5 366,-111.5 360,-105.5 360,-99.5 360,-99.5 360,-28.5 360,-28.5 360,-22.5 366,-16.5 372,-16.5"/>
<text text-anchor="middle" x="410" y="-96.3" font-family="Times,serif" font-size="14.00">node: Software</text>
<polyline fill="none" stroke="black" points="360,-88.5 460,-88.5 "/>
</g>
<!-- node_node_requirement_host -->
<g id="node9" class="node"><title>node_node_requirement_host</title>
<polygon fill="turquoise" stroke="black" points="538,-76 496,-76 496,-52 538,-52 550,-64 538,-76"/>
<text text-anchor="middle" x="523" y="-60.3" font-family="Times,serif" font-size="14.00">host</text>
</g>
<!-- node_node&#45;&#45;node_node_requirement_host -->
<g id="edge6" class="edge"><title>node_node&#45;&#45;node_node_requirement_host</title>
<path fill="none" stroke="black" d="M460.009,-64C472.322,-64 485.066,-64 495.774,-64"/>
</g>
<!-- node_node_capability_host&#45;&#45;node_node -->
<g id="edge5" class="edge"><title>node_node_capability_host&#45;&#45;node_node</title>
<path fill="none" stroke="black" d="M318.645,-75.6337C330.855,-74.0616 345.801,-72.1372 359.996,-70.3096"/>
</g>
<!-- server1_capability_host -->
<g id="node11" class="node"><title>server1_capability_host</title>
<polygon fill="orange" stroke="black" points="628,-76 586,-76 586,-52 628,-52 640,-64 628,-76"/>
<text text-anchor="middle" x="613" y="-60.3" font-family="Times,serif" font-size="14.00">host</text>
</g>
<!-- node_node_requirement_host&#45;&#45;server1_capability_host -->
<g id="edge12" class="edge"><title>node_node_requirement_host&#45;&#45;server1_capability_host</title>
<path fill="none" stroke="black" stroke-dasharray="1,5" d="M550.403,-64C561.642,-64 574.715,-64 585.919,-64"/>
</g>
<!-- server1 -->
<g id="node10" class="node"><title>server1</title>
<path fill="none" stroke="black" d="M688,-16.5C688,-16.5 785,-16.5 785,-16.5 791,-16.5 797,-22.5 797,-28.5 797,-28.5 797,-99.5 797,-99.5 797,-105.5 791,-111.5 785,-111.5 785,-111.5 688,-111.5 688,-111.5 682,-111.5 676,-105.5 676,-99.5 676,-99.5 676,-28.5 676,-28.5 676,-22.5 682,-16.5 688,-16.5"/>
<text text-anchor="middle" x="736.5" y="-96.3" font-family="Times,serif" font-size="14.00">server1: Container</text>
<polyline fill="none" stroke="black" points="676,-88.5 797,-88.5 "/>
</g>
<!-- server1_capability_host&#45;&#45;server1 -->
<g id="edge7" class="edge"><title>server1_capability_host&#45;&#45;server1</title>
<path fill="none" stroke="black" d="M640.065,-64C650.524,-64 663.046,-64 675.524,-64"/>
</g>
<!-- server2 -->
<g id="node12" class="node"><title>server2</title>
<path fill="none" stroke="black" d="M688,-136.5C688,-136.5 785,-136.5 785,-136.5 791,-136.5 797,-142.5 797,-148.5 797,-148.5 797,-219.5 797,-219.5 797,-225.5 791,-231.5 785,-231.5 785,-231.5 688,-231.5 688,-231.5 682,-231.5 676,-225.5 676,-219.5 676,-219.5 676,-148.5 676,-148.5 676,-142.5 682,-136.5 688,-136.5"/>
<text text-anchor="middle" x="736.5" y="-216.3" font-family="Times,serif" font-size="14.00">server2: Container</text>
<polyline fill="none" stroke="black" points="676,-208.5 797,-208.5 "/>
</g>
<!-- server2_capability_host&#45;&#45;server2 -->
<g id="edge8" class="edge"><title>server2_capability_host&#45;&#45;server2</title>
<path fill="none" stroke="black" d="M640.065,-184C650.524,-184 663.046,-184 675.524,-184"/>
</g>
</g>
</svg>
