<?xml version="1.0" encoding="UTF-8" standalone="no"?>
<!DOCTYPE svg PUBLIC "-//W3C//DTD SVG 1.1//EN"
 "http://www.w3.org/Graphics/SVG/1.1/DTD/svg11.dtd">
<!-- Generated by graphviz version 2.38.0 (20140413.2041)
 -->
<!-- Title: ToscaDiagram Pages: 1 -->
<svg width="872pt" height="136pt"
 viewBox="0.00 0.00 872.00 136.00" xmlns="http://www.w3.org/2000/svg" xmlns:xlink="http://www.w3.org/1999/xlink">
<g id="graph0" class="graph" transform="scale(1 1) rotate(0) translate(4 132)">
<title>ToscaDiagram</title>
<polygon fill="white" stroke="none" points="-4,4 -4,-132 868,-132 868,4 -4,4"/>
<g id="clust1" class="cluster"><title>clusterdb</title>
<polygon fill="none" stroke="white" points="314,-8 314,-120 609,-120 609,-8 314,-8"/>
</g>
<g id="clust2" class="cluster"><title>clusterapp_container</title>
<polygon fill="none" stroke="white" points="8,-8 8,-120 294,-120 294,-8 8,-8"/>
</g>
<g id="clust3" class="cluster"><title>clusterserver2</title>
<polygon fill="none" stroke="white" points="629,-8 629,-120 856,-120 856,-8 629,-8"/>
</g>
<!-- db -->
<g id="node1" class="node"><title>db</title>
<path fill="none" stroke="black" d="M435,-16.5C435,-16.5 499,-16.5 499,-16.5 505,-16.5 511,-22.5 511,-28.5 511,-28.5 511,-99.5 511,-99.5 511,-105.5 505,-111.5 499,-111.5 499,-111.5 435,-111.5 435,-111.5 429,-111.5 423,-105.5 423,-99.5 423,-99.5 423,-28.5 423,-28.5 423,-22.5 429,-16.5 435,-16.5"/>
<text text-anchor="middle" x="467" y="-96.3" font-family="Times,serif" font-size="14.00">db: Software</text>
<polyline fill="none" stroke="black" points="423,-88.5 511,-88.5 "/>
</g>
<!-- db_requirement_host -->
<g id="node3" class="node"><title>db_requirement_host</title>
<polygon fill="turquoise" stroke="black" points="589,-76 547,-76 547,-52 589,-52 601,-64 589,-76"/>
<text text-anchor="middle" x="574" y="-60.3" font-family="Times,serif" font-size="14.00">host</text>
</g>
<!-- db&#45;&#45;db_requirement_host -->
<g id="edge2" class="edge"><title>db&#45;&#45;db_requirement_host</title>
<path fill="none" stroke="black" d="M511.01,-64C523.13,-64 535.948,-64 546.763,-64"/>
</g>
<!-- db_capability_endpoint -->
<g id="node2" class="node"><title>db_capability_endpoint</title>
<polygon fill="orange" stroke="black" points="375,-76 322,-76 322,-52 375,-52 387,-64 375,-76"/>
<text text-anchor="middle" x="354.5" y="-60.3" font-family="Times,serif" font-size="14.00">endpoint</text>
</g>
<!-- db_capability_endpoint&#45;&#45;db -->
<g id="edge1" class="edge"><title>db_capability_endpoint&#45;&#45;db</title>
<path fill="none" stroke="black" d="M387.165,-64C398.262,-64 410.921,-64 422.799,-64"/>
</g>
<!-- server2_capability_host -->
<g id="node7" class="node"><title>server2_capability_host</title>
<polygon fill="orange" stroke="black" points="679,-76 637,-76 637,-52 679,-52 691,-64 679,-76"/>
<text text-anchor="middle" x="664" y="-60.3" font-family="Times,serif" font-size="14.00">host</text>
</g>
<!-- db_requirement_host&#45;&#45;server2_capability_host -->
<g id="edge5" class="edge"><title>db_requirement_host&#45;&#45;server2_capability_host</title>
<path fill="none" stroke="black" stroke-dasharray="1,5" d="M601.403,-64C612.642,-64 625.715,-64 636.919,-64"/>
</g>
<!-- app_container -->
<g id="node4" class="node"><title>app_container</title>
<path fill="none" stroke="black" d="M28,-16.5C28,-16.5 162,-16.5 162,-16.5 168,-16.5 174,-22.5 174,-28.5 174,-28.5 174,-99.5 174,-99.5 174,-105.5 168,-111.5 162,-111.5 162,-111.5 28,-111.5 28,-111.5 22,-111.5 16,-105.5 16,-99.5 16,-99.5 16,-28.5 16,-28.5 16,-22.5 22,-16.5 28,-16.5"/>
<text text-anchor="middle" x="95" y="-96.3" font-family="Times,serif" font-size="14.00">app_container: Container</text>
<polyline fill="none" stroke="black" points="16,-88.5 174,-88.5 "/>
</g>
<!-- app_container_requirement_connection -->
<g id="node5" class="node"><title>app_container_requirement_connection</title>
<polygon fill="turquoise" stroke="black" points="274,-76 210,-76 210,-52 274,-52 286,-64 274,-76"/>
<text text-anchor="middle" x="248" y="-60.3" font-family="Times,serif" font-size="14.00">connection</text>
</g>
<!-- app_container&#45;&#45;app_container_requirement_connection -->
<g id="edge3" class="edge"><title>app_container&#45;&#45;app_container_requirement_connection</title>
<path fill="none" stroke="black" d="M174.154,-64C186.531,-64 198.814,-64 209.668,-64"/>
</g>
<!-- app_container_requirement_connection&#45;&#45;db_capability_endpoint -->
<g id="edge6" class="edge"><title>app_container_requirement_connection&#45;&#45;db_capability_endpoint</title>
<path fill="none" stroke="black" stroke-dasharray="1,5" d="M286.137,-64C297.753,-64 310.459,-64 321.674,-64"/>
</g>
<!-- server2 -->
<g id="node6" class="node"><title>server2</title>
<path fill="none" stroke="black" d="M739,-16.5C739,-16.5 836,-16.5 836,-16.5 842,-16.5 848,-22.5 848,-28.5 848,-28.5 848,-99.5 848,-99.5 848,-105.5 842,-111.5 836,-111.5 836,-111.5 739,-111.5 739,-111.5 733,-111.5 727,-105.5 727,-99.5 727,-99.5 727,-28.5 727,-28.5 727,-22.5 733,-16.5 739,-16.5"/>
<text text-anchor="middle" x="787.5" y="-96.3" font-family="Times,serif" font-size="14.00">server2: Container</text>
<polyline fill="none" stroke="black" points="727,-88.5 848,-88.5 "/>
</g>
<!-- server2_capability_host&#45;&#45;server2 -->
<g id="edge4" class="edge"><title>server2_capability_host&#45;&#45;server2</title>
<path fill="none" stroke="black" d="M691.065,-64C701.524,-64 714.046,-64 726.524,-64"/>
</g>
</g>
</svg>
