<?xml version="1.0" encoding="UTF-8" standalone="no"?>
<!DOCTYPE svg PUBLIC "-//W3C//DTD SVG 1.1//EN"
 "http://www.w3.org/Graphics/SVG/1.1/DTD/svg11.dtd">
<!-- Generated by graphviz version 2.38.0 (20140413.2041)
 -->
<!-- Title: ToscaDiagram Pages: 1 -->
<svg width="919pt" height="256pt"
 viewBox="0.00 0.00 919.00 256.00" xmlns="http://www.w3.org/2000/svg" xmlns:xlink="http://www.w3.org/1999/xlink">
<g id="graph0" class="graph" transform="scale(1 1) rotate(0) translate(4 252)">
<title>ToscaDiagram</title>
<polygon fill="white" stroke="none" points="-4,4 -4,-252 915,-252 915,4 -4,4"/>
<g id="clust1" class="cluster"><title>clusterapp</title>
<polygon fill="none" stroke="white" points="8,-69 8,-181 278,-181 278,-69 8,-69"/>
</g>
<g id="clust2" class="cluster"><title>clusternode_node</title>
<polygon fill="none" stroke="white" points="303.5,-128 303.5,-240 635,-240 635,-128 303.5,-128"/>
</g>
<g id="clust3" class="cluster"><title>clusterdb</title>
<polygon fill="none" stroke="white" points="298,-8 298,-120 635,-120 635,-8 298,-8"/>
</g>
<g id="clust4" class="cluster"><title>clusterserver_app</title>
<polygon fill="none" stroke="white" points="655,-128 655,-240 903,-240 903,-128 655,-128"/>
</g>
<g id="clust5" class="cluster"><title>clusterserver_db</title>
<polygon fill="none" stroke="white" points="655,-8 655,-120 899.5,-120 899.5,-8 655,-8"/>
</g>
<!-- app -->
<g id="node1" class="node"><title>app</title>
<path fill="none" stroke="black" d="M28,-77.5C28,-77.5 124,-77.5 124,-77.5 130,-77.5 136,-83.5 136,-89.5 136,-89.5 136,-160.5 136,-160.5 136,-166.5 130,-172.5 124,-172.5 124,-172.5 28,-172.5 28,-172.5 22,-172.5 16,-166.5 16,-160.5 16,-160.5 16,-89.5 16,-89.5 16,-83.5 22,-77.5 28,-77.5"/>
<text text-anchor="middle" x="76" y="-157.3" font-family="Times,serif" font-size="14.00">app: AppSoftware</text>
<polyline fill="none" stroke="black" points="16,-149.5 136,-149.5 "/>
</g>
<!-- app_requirement_host -->
<g id="node2" class="node"><title>app_requirement_host</title>
<polygon fill="turquoise" stroke="black" points="236,-166 194,-166 194,-142 236,-142 248,-154 236,-166"/>
<text text-anchor="middle" x="221" y="-150.3" font-family="Times,serif" font-size="14.00">host</text>
</g>
<!-- app&#45;&#45;app_requirement_host -->
<g id="edge1" class="edge"><title>app&#45;&#45;app_requirement_host</title>
<path fill="none" stroke="black" d="M136.403,-137.047C156.354,-141.093 177.6,-145.401 193.681,-148.662"/>
</g>
<!-- app_requirement_db_connection -->
<g id="node3" class="node"><title>app_requirement_db_connection</title>
<polygon fill="turquoise" stroke="black" points="258,-109 172,-109 172,-85 258,-85 270,-97 258,-109"/>
<text text-anchor="middle" x="221" y="-93.3" font-family="Times,serif" font-size="14.00">db_connection</text>
</g>
<!-- app&#45;&#45;app_requirement_db_connection -->
<g id="edge2" class="edge"><title>app&#45;&#45;app_requirement_db_connection</title>
<path fill="none" stroke="black" d="M136.403,-113.369C148.22,-111.055 160.491,-108.652 171.875,-106.423"/>
</g>
<!-- node_node_capability_host -->
<g id="node5" class="node"><title>node_node_capability_host</title>
<polygon fill="orange" stroke="black" points="353.5,-181 311.5,-181 311.5,-157 353.5,-157 365.5,-169 353.5,-181"/>
<text text-anchor="middle" x="338.5" y="-165.3" font-family="Times,serif" font-size="14.00">host</text>
</g>
<!-- app_requirement_host&#45;&#45;node_node_capability_host -->
<g id="edge9" class="edge"><title>app_requirement_host&#45;&#45;node_node_capability_host</title>
<path fill="none" stroke="black" stroke-dasharray="1,5" d="M248.209,-157.404C267.111,-159.859 292.517,-163.158 311.395,-165.61"/>
</g>
<!-- db_capability_endpoint -->
<g id="node8" class="node"><title>db_capability_endpoint</title>
<polygon fill="orange" stroke="black" points="359,-91 306,-91 306,-67 359,-67 371,-79 359,-91"/>
<text text-anchor="middle" x="338.5" y="-75.3" font-family="Times,serif" font-size="14.00">endpoint</text>
</g>
<!-- app_requirement_db_connection&#45;&#45;db_capability_endpoint -->
<g id="edge10" class="edge"><title>app_requirement_db_connection&#45;&#45;db_capability_endpoint</title>
<path fill="none" stroke="black" stroke-dasharray="1,5" d="M270.313,-89.4707C282.306,-87.6017 294.856,-85.6458 305.82,-83.9372"/>
</g>
<!-- node_node -->
<g id="node4" class="node"><title>node_node</title>
<path fill="none" stroke="black" d="M419,-136.5C419,-136.5 525,-136.5 525,-136.5 531,-136.5 537,-142.5 537,-148.5 537,-148.5 537,-219.5 537,-219.5 537,-225.5 531,-231.5 525,-231.5 525,-231.5 419,-231.5 419,-231.5 413,-231.5 407,-225.5 407,-219.5 407,-219.5 407,-148.5 407,-148.5 407,-142.5 413,-136.5 419,-136.5"/>
<text text-anchor="middle" x="472" y="-216.3" font-family="Times,serif" font-size="14.00">node: NodeSoftware</text>
<polyline fill="none" stroke="black" points="407,-208.5 537,-208.5 "/>
</g>
<!-- node_node_requirement_host -->
<g id="node6" class="node"><title>node_node_requirement_host</title>
<polygon fill="turquoise" stroke="black" points="615,-196 573,-196 573,-172 615,-172 627,-184 615,-196"/>
<text text-anchor="middle" x="600" y="-180.3" font-family="Times,serif" font-size="14.00">host</text>
</g>
<!-- node_node&#45;&#45;node_node_requirement_host -->
<g id="edge4" class="edge"><title>node_node&#45;&#45;node_node_requirement_host</title>
<path fill="none" stroke="black" d="M537.107,-184C549.753,-184 562.338,-184 572.826,-184"/>
</g>
<!-- node_node_capability_host&#45;&#45;node_node -->
<g id="edge3" class="edge"><title>node_node_capability_host&#45;&#45;node_node</title>
<path fill="none" stroke="black" d="M365.795,-171.999C377.712,-173.359 392.374,-175.031 406.926,-176.691"/>
</g>
<!-- server_app_capability_host -->
<g id="node11" class="node"><title>server_app_capability_host</title>
<polygon fill="orange" stroke="black" points="705,-196 663,-196 663,-172 705,-172 717,-184 705,-196"/>
<text text-anchor="middle" x="690" y="-180.3" font-family="Times,serif" font-size="14.00">host</text>
</g>
<!-- node_node_requirement_host&#45;&#45;server_app_capability_host -->
<g id="edge11" class="edge"><title>node_node_requirement_host&#45;&#45;server_app_capability_host</title>
<path fill="none" stroke="black" stroke-dasharray="1,5" d="M627.403,-184C638.642,-184 651.715,-184 662.919,-184"/>
</g>
<!-- db -->
<g id="node7" class="node"><title>db</title>
<path fill="none" stroke="black" d="M440,-16.5C440,-16.5 504,-16.5 504,-16.5 510,-16.5 516,-22.5 516,-28.5 516,-28.5 516,-99.5 516,-99.5 516,-105.5 510,-111.5 504,-111.5 504,-111.5 440,-111.5 440,-111.5 434,-111.5 428,-105.5 428,-99.5 428,-99.5 428,-28.5 428,-28.5 428,-22.5 434,-16.5 440,-16.5"/>
<text text-anchor="middle" x="472" y="-96.3" font-family="Times,serif" font-size="14.00">db: Software</text>
<polyline fill="none" stroke="black" points="428,-88.5 516,-88.5 "/>
</g>
<!-- db_requirement_host -->
<g id="node9" class="node"><title>db_requirement_host</title>
<polygon fill="turquoise" stroke="black" points="615,-76 573,-76 573,-52 615,-52 627,-64 615,-76"/>
<text text-anchor="middle" x="600" y="-60.3" font-family="Times,serif" font-size="14.00">host</text>
</g>
<!-- db&#45;&#45;db_requirement_host -->
<g id="edge6" class="edge"><title>db&#45;&#45;db_requirement_host</title>
<path fill="none" stroke="black" d="M516.01,-64C534.831,-64 556.307,-64 572.697,-64"/>
</g>
<!-- db_capability_endpoint&#45;&#45;db -->
<g id="edge5" class="edge"><title>db_capability_endpoint&#45;&#45;db</title>
<path fill="none" stroke="black" d="M371.332,-75.3689C388.207,-73.4441 409.186,-71.051 427.538,-68.9577"/>
</g>
<!-- server_db_capability_host -->
<g id="node13" class="node"><title>server_db_capability_host</title>
<polygon fill="orange" stroke="black" points="705,-76 663,-76 663,-52 705,-52 717,-64 705,-76"/>
<text text-anchor="middle" x="690" y="-60.3" font-family="Times,serif" font-size="14.00">host</text>
</g>
<!-- db_requirement_host&#45;&#45;server_db_capability_host -->
<g id="edge12" class="edge"><title>db_requirement_host&#45;&#45;server_db_capability_host</title>
<path fill="none" stroke="black" stroke-dasharray="1,5" d="M627.403,-64C638.642,-64 651.715,-64 662.919,-64"/>
</g>
<!-- server_app -->
<g id="node10" class="node"><title>server_app</title>
<path fill="none" stroke="black" d="M765,-136.5C765,-136.5 883,-136.5 883,-136.5 889,-136.5 895,-142.5 895,-148.5 895,-148.5 895,-219.5 895,-219.5 895,-225.5 889,-231.5 883,-231.5 883,-231.5 765,-231.5 765,-231.5 759,-231.5 753,-225.5 753,-219.5 753,-219.5 753,-148.5 753,-148.5 753,-142.5 759,-136.5 765,-136.5"/>
<text text-anchor="middle" x="824" y="-216.3" font-family="Times,serif" font-size="14.00">server_app: Container</text>
<polyline fill="none" stroke="black" points="753,-208.5 895,-208.5 "/>
</g>
<!-- server_app_capability_host&#45;&#45;server_app -->
<g id="edge7" class="edge"><title>server_app_capability_host&#45;&#45;server_app</title>
<path fill="none" stroke="black" d="M717.079,-184C727.523,-184 740.103,-184 752.889,-184"/>
</g>
<!-- server_db -->
<g id="node12" class="node"><title>server_db</title>
<path fill="none" stroke="black" d="M768.5,-16.5C768.5,-16.5 879.5,-16.5 879.5,-16.5 885.5,-16.5 891.5,-22.5 891.5,-28.5 891.5,-28.5 891.5,-99.5 891.5,-99.5 891.5,-105.5 885.5,-111.5 879.5,-111.5 879.5,-111.5 768.5,-111.5 768.5,-111.5 762.5,-111.5 756.5,-105.5 756.5,-99.5 756.5,-99.5 756.5,-28.5 756.5,-28.5 756.5,-22.5 762.5,-16.5 768.5,-16.5"/>
<text text-anchor="middle" x="824" y="-96.3" font-family="Times,serif" font-size="14.00">server_db: Container</text>
<polyline fill="none" stroke="black" points="756.5,-88.5 891.5,-88.5 "/>
</g>
<!-- server_db_capability_host&#45;&#45;server_db -->
<g id="edge8" class="edge"><title>server_db_capability_host&#45;&#45;server_db</title>
<path fill="none" stroke="black" d="M717.079,-64C728.499,-64 742.474,-64 756.48,-64"/>
</g>
</g>
</svg>
