<?xml version="1.0" encoding="UTF-8" standalone="no"?>
<!DOCTYPE svg PUBLIC "-//W3C//DTD SVG 1.1//EN"
 "http://www.w3.org/Graphics/SVG/1.1/DTD/svg11.dtd">
<!-- Generated by graphviz version 2.38.0 (20140413.2041)
 -->
<!-- Title: ToscaDiagram Pages: 1 -->
<svg width="215pt" height="256pt"
 viewBox="0.00 0.00 215.00 256.00" xmlns="http://www.w3.org/2000/svg" xmlns:xlink="http://www.w3.org/1999/xlink">
<g id="graph0" class="graph" transform="scale(1 1) rotate(0) translate(4 252)">
<title>ToscaDiagram</title>
<polygon fill="white" stroke="none" points="-4,4 -4,-252 211,-252 211,4 -4,4"/>
<g id="clust1" class="cluster"><title>clusterdocker_container</title>
<polygon fill="none" stroke="white" points="8,-8 8,-120 199,-120 199,-8 8,-8"/>
</g>
<g id="clust2" class="cluster"><title>clustershare_folder</title>
<polygon fill="none" stroke="white" points="21,-128 21,-240 186,-240 186,-128 21,-128"/>
</g>
<!-- docker_container -->
<g id="node1" class="node"><title>docker_container</title>
<path fill="none" stroke="black" d="M28,-16.5C28,-16.5 179,-16.5 179,-16.5 185,-16.5 191,-22.5 191,-28.5 191,-28.5 191,-99.5 191,-99.5 191,-105.5 185,-111.5 179,-111.5 179,-111.5 28,-111.5 28,-111.5 22,-111.5 16,-105.5 16,-99.5 16,-99.5 16,-28.5 16,-28.5 16,-22.5 22,-16.5 28,-16.5"/>
<text text-anchor="middle" x="103.5" y="-96.3" font-family="Times,serif" font-size="14.00">docker_container: Container</text>
<polyline fill="none" stroke="black" points="16,-88.5 191,-88.5 "/>
</g>
<!-- share_folder -->
<g id="node2" class="node"><title>share_folder</title>
<path fill="none" stroke="black" d="M41,-136.5C41,-136.5 166,-136.5 166,-136.5 172,-136.5 178,-142.5 178,-148.5 178,-148.5 178,-219.5 178,-219.5 178,-225.5 172,-231.5 166,-231.5 166,-231.5 41,-231.5 41,-231.5 35,-231.5 29,-225.5 29,-219.5 29,-219.5 29,-148.5 29,-148.5 29,-142.5 35,-136.5 41,-136.5"/>
<text text-anchor="middle" x="103.5" y="-216.3" font-family="Times,serif" font-size="14.00">share_folder: Container</text>
<polyline fill="none" stroke="black" points="29,-208.5 178,-208.5 "/>
</g>
</g>
</svg>
