<?xml version="1.0" encoding="UTF-8" standalone="no"?>
<!DOCTYPE svg PUBLIC "-//W3C//DTD SVG 1.1//EN"
 "http://www.w3.org/Graphics/SVG/1.1/DTD/svg11.dtd">
<!-- Generated by graphviz version 2.38.0 (20140413.2041)
 -->
<!-- Title: ToscaDiagram Pages: 1 -->
<svg width="1769pt" height="1081pt"
 viewBox="0.00 0.00 1769.00 1081.00" xmlns="http://www.w3.org/2000/svg" xmlns:xlink="http://www.w3.org/1999/xlink">
<g id="graph0" class="graph" transform="scale(1 1) rotate(0) translate(4 1077)">
<title>ToscaDiagram</title>
<polygon fill="white" stroke="none" points="-4,4 -4,-1077 1765,-1077 1765,4 -4,4"/>
<g id="clust1" class="cluster"><title>clusterfront_end</title>
<polygon fill="none" stroke="white" points="299,-253 299,-365 653,-365 653,-253 299,-253"/>
</g>
<g id="clust2" class="cluster"><title>clustercatalogue</title>
<polygon fill="none" stroke="white" points="673,-857 673,-969 1063,-969 1063,-857 673,-857"/>
</g>
<g id="clust3" class="cluster"><title>clusteruser</title>
<polygon fill="none" stroke="white" points="1083,-233 1083,-345 1461,-345 1461,-233 1083,-233"/>
</g>
<g id="clust4" class="cluster"><title>clustercarts</title>
<polygon fill="none" stroke="white" points="1083,-111 1083,-223 1461,-223 1461,-111 1083,-111"/>
</g>
<g id="clust5" class="cluster"><title>clusterorders</title>
<polygon fill="none" stroke="white" points="673,-377 673,-489 1063,-489 1063,-377 673,-377"/>
</g>
<g id="clust6" class="cluster"><title>clusterpayment</title>
<polygon fill="none" stroke="white" points="1083,-713 1083,-825 1450,-825 1450,-713 1083,-713"/>
</g>
<g id="clust7" class="cluster"><title>clustershipping</title>
<polygon fill="none" stroke="white" points="1083,-593 1083,-705 1461,-705 1461,-593 1083,-593"/>
</g>
<g id="clust8" class="cluster"><title>clusterfront_end_node</title>
<polygon fill="none" stroke="white" points="678.5,-168 678.5,-280 951,-280 951,-168 678.5,-168"/>
</g>
<g id="clust9" class="cluster"><title>clusterpayment_go</title>
<polygon fill="none" stroke="white" points="1486.5,-737 1486.5,-849 1748,-849 1748,-737 1486.5,-737"/>
</g>
<g id="clust10" class="cluster"><title>clustercatalogue_go</title>
<polygon fill="none" stroke="white" points="1088.5,-833 1088.5,-945 1349,-945 1349,-833 1088.5,-833"/>
</g>
<g id="clust11" class="cluster"><title>clusteruser_go</title>
<polygon fill="none" stroke="white" points="1486.5,-248 1486.5,-360 1735.5,-360 1735.5,-248 1486.5,-248"/>
</g>
<g id="clust12" class="cluster"><title>clusterorders_java</title>
<polygon fill="none" stroke="white" points="1088.5,-353 1088.5,-465 1346,-465 1346,-353 1088.5,-353"/>
</g>
<g id="clust13" class="cluster"><title>clustercarts_java</title>
<polygon fill="none" stroke="white" points="1486.5,-8 1486.5,-120 1742.5,-120 1742.5,-8 1486.5,-8"/>
</g>
<g id="clust14" class="cluster"><title>clustershipping_java</title>
<polygon fill="none" stroke="white" points="1486.5,-617 1486.5,-729 1753,-729 1753,-617 1486.5,-617"/>
</g>
<g id="clust15" class="cluster"><title>clusterorders_db</title>
<polygon fill="none" stroke="white" points="1083,-473 1083,-585 1341,-585 1341,-473 1083,-473"/>
</g>
<g id="clust16" class="cluster"><title>clustercarts_db</title>
<polygon fill="none" stroke="white" points="1481,-128 1481,-240 1737.5,-240 1737.5,-128 1481,-128"/>
</g>
<g id="clust17" class="cluster"><title>clusteruser_db</title>
<polygon fill="none" stroke="white" points="1481,-368 1481,-480 1736,-480 1736,-368 1481,-368"/>
</g>
<g id="clust18" class="cluster"><title>clustercatalogue_db</title>
<polygon fill="none" stroke="white" points="1083,-953 1083,-1065 1349,-1065 1349,-953 1083,-953"/>
</g>
<g id="clust19" class="cluster"><title>clusteredge_router</title>
<polygon fill="none" stroke="white" points="8,-253 8,-365 279,-365 279,-253 8,-253"/>
</g>
<g id="clust20" class="cluster"><title>clusterrabbitmq</title>
<polygon fill="none" stroke="white" points="1481,-497 1481,-609 1741,-609 1741,-497 1481,-497"/>
</g>
<!-- front_end -->
<g id="node1" class="node"><title>front_end</title>
<path fill="none" stroke="black" d="M420,-261.5C420,-261.5 521,-261.5 521,-261.5 527,-261.5 533,-267.5 533,-273.5 533,-273.5 533,-344.5 533,-344.5 533,-350.5 527,-356.5 521,-356.5 521,-356.5 420,-356.5 420,-356.5 414,-356.5 408,-350.5 408,-344.5 408,-344.5 408,-273.5 408,-273.5 408,-267.5 414,-261.5 420,-261.5"/>
<text text-anchor="middle" x="470.5" y="-341.3" font-family="Times,serif" font-size="14.00">front&#45;end: Software</text>
<polyline fill="none" stroke="black" points="408,-333.5 533,-333.5 "/>
</g>
<!-- front_end_requirement_connection -->
<g id="node3" class="node"><title>front_end_requirement_connection</title>
<polygon fill="turquoise" stroke="black" points="633,-350 569,-350 569,-326 633,-326 645,-338 633,-350"/>
<text text-anchor="middle" x="607" y="-334.3" font-family="Times,serif" font-size="14.00">connection</text>
</g>
<!-- front_end&#45;&#45;front_end_requirement_connection -->
<g id="edge2" class="edge"><title>front_end&#45;&#45;front_end_requirement_connection</title>
<path fill="none" stroke="black" d="M533.239,-322.312C545.393,-324.932 557.789,-327.605 568.824,-329.984"/>
</g>
<!-- front_end_requirement_host -->
<g id="node4" class="node"><title>front_end_requirement_host</title>
<polygon fill="turquoise" stroke="black" points="622,-294 580,-294 580,-270 622,-270 634,-282 622,-294"/>
<text text-anchor="middle" x="607" y="-278.3" font-family="Times,serif" font-size="14.00">host</text>
</g>
<!-- front_end&#45;&#45;front_end_requirement_host -->
<g id="edge3" class="edge"><title>front_end&#45;&#45;front_end_requirement_host</title>
<path fill="none" stroke="black" d="M533.239,-296.606C549.675,-293.307 566.553,-289.919 579.91,-287.237"/>
</g>
<!-- front_end_capability_endpoint -->
<g id="node2" class="node"><title>front_end_capability_endpoint</title>
<polygon fill="orange" stroke="black" points="360,-321 307,-321 307,-297 360,-297 372,-309 360,-321"/>
<text text-anchor="middle" x="339.5" y="-305.3" font-family="Times,serif" font-size="14.00">endpoint</text>
</g>
<!-- front_end_capability_endpoint&#45;&#45;front_end -->
<g id="edge1" class="edge"><title>front_end_capability_endpoint&#45;&#45;front_end</title>
<path fill="none" stroke="black" d="M372.057,-309C382.873,-309 395.377,-309 407.747,-309"/>
</g>
<!-- catalogue_capability_endpoint -->
<g id="node6" class="node"><title>catalogue_capability_endpoint</title>
<polygon fill="orange" stroke="black" points="734,-910 681,-910 681,-886 734,-886 746,-898 734,-910"/>
<text text-anchor="middle" x="713.5" y="-894.3" font-family="Times,serif" font-size="14.00">endpoint</text>
</g>
<!-- front_end_requirement_connection&#45;&#45;catalogue_capability_endpoint -->
<g id="edge35" class="edge"><title>front_end_requirement_connection&#45;&#45;catalogue_capability_endpoint</title>
<path fill="none" stroke="black" stroke-dasharray="1,5" d="M611.417,-356.314C627.246,-441.139 693.335,-795.297 709.109,-879.826"/>
</g>
<!-- user_capability_endpoint -->
<g id="node10" class="node"><title>user_capability_endpoint</title>
<polygon fill="orange" stroke="black" points="1144,-331 1091,-331 1091,-307 1144,-307 1156,-319 1144,-331"/>
<text text-anchor="middle" x="1123.5" y="-315.3" font-family="Times,serif" font-size="14.00">endpoint</text>
</g>
<!-- front_end_requirement_connection&#45;&#45;user_capability_endpoint -->
<g id="edge36" class="edge"><title>front_end_requirement_connection&#45;&#45;user_capability_endpoint</title>
<path fill="none" stroke="black" stroke-dasharray="1,5" d="M645.002,-336.634C741.659,-333.064 1000.48,-323.506 1090.84,-320.169"/>
</g>
<!-- carts_capability_endpoint -->
<g id="node14" class="node"><title>carts_capability_endpoint</title>
<polygon fill="orange" stroke="black" points="1144,-209 1091,-209 1091,-185 1144,-185 1156,-197 1144,-209"/>
<text text-anchor="middle" x="1123.5" y="-193.3" font-family="Times,serif" font-size="14.00">endpoint</text>
</g>
<!-- front_end_requirement_connection&#45;&#45;carts_capability_endpoint -->
<g id="edge37" class="edge"><title>front_end_requirement_connection&#45;&#45;carts_capability_endpoint</title>
<path fill="none" stroke="black" stroke-dasharray="1,5" d="M645.011,-332.841C727.651,-321.225 922.214,-293.31 951,-284 1004.05,-266.842 1060.87,-235.047 1093.96,-215.013"/>
</g>
<!-- orders_capability_endpoint -->
<g id="node18" class="node"><title>orders_capability_endpoint</title>
<polygon fill="orange" stroke="black" points="734,-415 681,-415 681,-391 734,-391 746,-403 734,-415"/>
<text text-anchor="middle" x="713.5" y="-399.3" font-family="Times,serif" font-size="14.00">endpoint</text>
</g>
<!-- front_end_requirement_connection&#45;&#45;orders_capability_endpoint -->
<g id="edge38" class="edge"><title>front_end_requirement_connection&#45;&#45;orders_capability_endpoint</title>
<path fill="none" stroke="black" stroke-dasharray="1,5" d="M637.109,-356.106C651.603,-365.122 669.074,-375.989 683.547,-384.991"/>
</g>
<!-- front_end_node_capability_host -->
<g id="node29" class="node"><title>front_end_node_capability_host</title>
<polygon fill="orange" stroke="black" points="728.5,-251 686.5,-251 686.5,-227 728.5,-227 740.5,-239 728.5,-251"/>
<text text-anchor="middle" x="713.5" y="-235.3" font-family="Times,serif" font-size="14.00">host</text>
</g>
<!-- front_end_requirement_host&#45;&#45;front_end_node_capability_host -->
<g id="edge34" class="edge"><title>front_end_requirement_host&#45;&#45;front_end_node_capability_host</title>
<path fill="none" stroke="black" stroke-dasharray="1,5" d="M634.1,-271.26C650.06,-264.693 670.405,-256.321 686.37,-249.752"/>
</g>
<!-- catalogue -->
<g id="node5" class="node"><title>catalogue</title>
<path fill="none" stroke="black" d="M812,-865.5C812,-865.5 913,-865.5 913,-865.5 919,-865.5 925,-871.5 925,-877.5 925,-877.5 925,-948.5 925,-948.5 925,-954.5 919,-960.5 913,-960.5 913,-960.5 812,-960.5 812,-960.5 806,-960.5 800,-954.5 800,-948.5 800,-948.5 800,-877.5 800,-877.5 800,-871.5 806,-865.5 812,-865.5"/>
<text text-anchor="middle" x="862.5" y="-945.3" font-family="Times,serif" font-size="14.00">catalogue: Software</text>
<polyline fill="none" stroke="black" points="800,-937.5 925,-937.5 "/>
</g>
<!-- catalogue_requirement_connection -->
<g id="node7" class="node"><title>catalogue_requirement_connection</title>
<polygon fill="turquoise" stroke="black" points="1043,-955 979,-955 979,-931 1043,-931 1055,-943 1043,-955"/>
<text text-anchor="middle" x="1017" y="-939.3" font-family="Times,serif" font-size="14.00">connection</text>
</g>
<!-- catalogue&#45;&#45;catalogue_requirement_connection -->
<g id="edge5" class="edge"><title>catalogue&#45;&#45;catalogue_requirement_connection</title>
<path fill="none" stroke="black" d="M925.088,-925.116C943.274,-928.693 962.617,-932.498 978.764,-935.675"/>
</g>
<!-- catalogue_requirement_host -->
<g id="node8" class="node"><title>catalogue_requirement_host</title>
<polygon fill="turquoise" stroke="black" points="1032,-901 990,-901 990,-877 1032,-877 1044,-889 1032,-901"/>
<text text-anchor="middle" x="1017" y="-885.3" font-family="Times,serif" font-size="14.00">host</text>
</g>
<!-- catalogue&#45;&#45;catalogue_requirement_host -->
<g id="edge6" class="edge"><title>catalogue&#45;&#45;catalogue_requirement_host</title>
<path fill="none" stroke="black" d="M925.088,-903.307C947.573,-899.769 971.825,-895.952 989.621,-893.151"/>
</g>
<!-- catalogue_capability_endpoint&#45;&#45;catalogue -->
<g id="edge4" class="edge"><title>catalogue_capability_endpoint&#45;&#45;catalogue</title>
<path fill="none" stroke="black" d="M746.035,-901.218C761.727,-902.819 781.255,-904.812 799.763,-906.7"/>
</g>
<!-- catalogue_db_capability_endpoint -->
<g id="node49" class="node"><title>catalogue_db_capability_endpoint</title>
<polygon fill="orange" stroke="black" points="1144,-1006 1091,-1006 1091,-982 1144,-982 1156,-994 1144,-1006"/>
<text text-anchor="middle" x="1123.5" y="-990.3" font-family="Times,serif" font-size="14.00">endpoint</text>
</g>
<!-- catalogue_requirement_connection&#45;&#45;catalogue_db_capability_endpoint -->
<g id="edge40" class="edge"><title>catalogue_requirement_connection&#45;&#45;catalogue_db_capability_endpoint</title>
<path fill="none" stroke="black" stroke-dasharray="1,5" d="M1055.14,-961.124C1066.75,-966.793 1079.46,-972.994 1090.67,-978.468"/>
</g>
<!-- catalogue_go_capability_host -->
<g id="node33" class="node"><title>catalogue_go_capability_host</title>
<polygon fill="orange" stroke="black" points="1138.5,-901 1096.5,-901 1096.5,-877 1138.5,-877 1150.5,-889 1138.5,-901"/>
<text text-anchor="middle" x="1123.5" y="-885.3" font-family="Times,serif" font-size="14.00">host</text>
</g>
<!-- catalogue_requirement_host&#45;&#45;catalogue_go_capability_host -->
<g id="edge39" class="edge"><title>catalogue_requirement_host&#45;&#45;catalogue_go_capability_host</title>
<path fill="none" stroke="black" stroke-dasharray="1,5" d="M1044.1,-889C1060.06,-889 1080.41,-889 1096.37,-889"/>
</g>
<!-- user -->
<g id="node9" class="node"><title>user</title>
<path fill="none" stroke="black" d="M1230,-241.5C1230,-241.5 1303,-241.5 1303,-241.5 1309,-241.5 1315,-247.5 1315,-253.5 1315,-253.5 1315,-324.5 1315,-324.5 1315,-330.5 1309,-336.5 1303,-336.5 1303,-336.5 1230,-336.5 1230,-336.5 1224,-336.5 1218,-330.5 1218,-324.5 1218,-324.5 1218,-253.5 1218,-253.5 1218,-247.5 1224,-241.5 1230,-241.5"/>
<text text-anchor="middle" x="1266.5" y="-321.3" font-family="Times,serif" font-size="14.00">user: Software</text>
<polyline fill="none" stroke="black" points="1218,-313.5 1315,-313.5 "/>
</g>
<!-- user_requirement_connection -->
<g id="node11" class="node"><title>user_requirement_connection</title>
<polygon fill="turquoise" stroke="black" points="1441,-331 1377,-331 1377,-307 1441,-307 1453,-319 1441,-331"/>
<text text-anchor="middle" x="1415" y="-315.3" font-family="Times,serif" font-size="14.00">connection</text>
</g>
<!-- user&#45;&#45;user_requirement_connection -->
<g id="edge8" class="edge"><title>user&#45;&#45;user_requirement_connection</title>
<path fill="none" stroke="black" d="M1315.06,-298.74C1335.12,-302.846 1358.11,-307.555 1376.88,-311.398"/>
</g>
<!-- user_requirement_host -->
<g id="node12" class="node"><title>user_requirement_host</title>
<polygon fill="turquoise" stroke="black" points="1430,-277 1388,-277 1388,-253 1430,-253 1442,-265 1430,-277"/>
<text text-anchor="middle" x="1415" y="-261.3" font-family="Times,serif" font-size="14.00">host</text>
</g>
<!-- user&#45;&#45;user_requirement_host -->
<g id="edge9" class="edge"><title>user&#45;&#45;user_requirement_host</title>
<path fill="none" stroke="black" d="M1315.06,-281.208C1339.29,-277.239 1367.82,-272.566 1387.99,-269.26"/>
</g>
<!-- user_capability_endpoint&#45;&#45;user -->
<g id="edge7" class="edge"><title>user_capability_endpoint&#45;&#45;user</title>
<path fill="none" stroke="black" d="M1156.14,-312.267C1174.33,-308.398 1197.54,-303.46 1217.89,-299.13"/>
</g>
<!-- user_db_capability_endpoint -->
<g id="node47" class="node"><title>user_db_capability_endpoint</title>
<polygon fill="orange" stroke="black" points="1542,-421 1489,-421 1489,-397 1542,-397 1554,-409 1542,-421"/>
<text text-anchor="middle" x="1521.5" y="-405.3" font-family="Times,serif" font-size="14.00">endpoint</text>
</g>
<!-- user_requirement_connection&#45;&#45;user_db_capability_endpoint -->
<g id="edge42" class="edge"><title>user_requirement_connection&#45;&#45;user_db_capability_endpoint</title>
<path fill="none" stroke="black" stroke-dasharray="1,5" d="M1437.15,-337.213C1455.28,-352.827 1481.26,-375.207 1499.38,-390.814"/>
</g>
<!-- user_go_capability_host -->
<g id="node35" class="node"><title>user_go_capability_host</title>
<polygon fill="orange" stroke="black" points="1536.5,-301 1494.5,-301 1494.5,-277 1536.5,-277 1548.5,-289 1536.5,-301"/>
<text text-anchor="middle" x="1521.5" y="-285.3" font-family="Times,serif" font-size="14.00">host</text>
</g>
<!-- user_requirement_host&#45;&#45;user_go_capability_host -->
<g id="edge41" class="edge"><title>user_requirement_host&#45;&#45;user_go_capability_host</title>
<path fill="none" stroke="black" stroke-dasharray="1,5" d="M1442.1,-270.994C1458.06,-274.66 1478.41,-279.332 1494.37,-282.999"/>
</g>
<!-- carts -->
<g id="node13" class="node"><title>carts</title>
<path fill="none" stroke="black" d="M1228.5,-119.5C1228.5,-119.5 1304.5,-119.5 1304.5,-119.5 1310.5,-119.5 1316.5,-125.5 1316.5,-131.5 1316.5,-131.5 1316.5,-202.5 1316.5,-202.5 1316.5,-208.5 1310.5,-214.5 1304.5,-214.5 1304.5,-214.5 1228.5,-214.5 1228.5,-214.5 1222.5,-214.5 1216.5,-208.5 1216.5,-202.5 1216.5,-202.5 1216.5,-131.5 1216.5,-131.5 1216.5,-125.5 1222.5,-119.5 1228.5,-119.5"/>
<text text-anchor="middle" x="1266.5" y="-199.3" font-family="Times,serif" font-size="14.00">carts: Software</text>
<polyline fill="none" stroke="black" points="1216.5,-191.5 1316.5,-191.5 "/>
</g>
<!-- carts_requirement_connection -->
<g id="node15" class="node"><title>carts_requirement_connection</title>
<polygon fill="turquoise" stroke="black" points="1441,-203 1377,-203 1377,-179 1441,-179 1453,-191 1441,-203"/>
<text text-anchor="middle" x="1415" y="-187.3" font-family="Times,serif" font-size="14.00">connection</text>
</g>
<!-- carts&#45;&#45;carts_requirement_connection -->
<g id="edge11" class="edge"><title>carts&#45;&#45;carts_requirement_connection</title>
<path fill="none" stroke="black" d="M1316.69,-175.058C1336.31,-178.272 1358.51,-181.91 1376.76,-184.899"/>
</g>
<!-- carts_requirement_host -->
<g id="node16" class="node"><title>carts_requirement_host</title>
<polygon fill="turquoise" stroke="black" points="1430,-149 1388,-149 1388,-125 1430,-125 1442,-137 1430,-149"/>
<text text-anchor="middle" x="1415" y="-133.3" font-family="Times,serif" font-size="14.00">host</text>
</g>
<!-- carts&#45;&#45;carts_requirement_host -->
<g id="edge12" class="edge"><title>carts&#45;&#45;carts_requirement_host</title>
<path fill="none" stroke="black" d="M1316.69,-156.927C1340.46,-152.059 1368.04,-146.411 1387.75,-142.374"/>
</g>
<!-- carts_capability_endpoint&#45;&#45;carts -->
<g id="edge10" class="edge"><title>carts_capability_endpoint&#45;&#45;carts</title>
<path fill="none" stroke="black" d="M1156.14,-190.267C1173.84,-186.501 1196.3,-181.724 1216.25,-177.48"/>
</g>
<!-- carts_db_capability_endpoint -->
<g id="node45" class="node"><title>carts_db_capability_endpoint</title>
<polygon fill="orange" stroke="black" points="1542,-199 1489,-199 1489,-175 1542,-175 1554,-187 1542,-199"/>
<text text-anchor="middle" x="1521.5" y="-183.3" font-family="Times,serif" font-size="14.00">endpoint</text>
</g>
<!-- carts_requirement_connection&#45;&#45;carts_db_capability_endpoint -->
<g id="edge44" class="edge"><title>carts_requirement_connection&#45;&#45;carts_db_capability_endpoint</title>
<path fill="none" stroke="black" stroke-dasharray="1,5" d="M1453.14,-189.578C1464.75,-189.134 1477.46,-188.648 1488.67,-188.218"/>
</g>
<!-- carts_java_capability_host -->
<g id="node39" class="node"><title>carts_java_capability_host</title>
<polygon fill="orange" stroke="black" points="1536.5,-91 1494.5,-91 1494.5,-67 1536.5,-67 1548.5,-79 1536.5,-91"/>
<text text-anchor="middle" x="1521.5" y="-75.3" font-family="Times,serif" font-size="14.00">host</text>
</g>
<!-- carts_requirement_host&#45;&#45;carts_java_capability_host -->
<g id="edge43" class="edge"><title>carts_requirement_host&#45;&#45;carts_java_capability_host</title>
<path fill="none" stroke="black" stroke-dasharray="1,5" d="M1442.1,-122.514C1458.06,-113.656 1478.41,-102.364 1494.37,-93.5026"/>
</g>
<!-- orders -->
<g id="node17" class="node"><title>orders</title>
<path fill="none" stroke="black" d="M820,-385.5C820,-385.5 905,-385.5 905,-385.5 911,-385.5 917,-391.5 917,-397.5 917,-397.5 917,-468.5 917,-468.5 917,-474.5 911,-480.5 905,-480.5 905,-480.5 820,-480.5 820,-480.5 814,-480.5 808,-474.5 808,-468.5 808,-468.5 808,-397.5 808,-397.5 808,-391.5 814,-385.5 820,-385.5"/>
<text text-anchor="middle" x="862.5" y="-465.3" font-family="Times,serif" font-size="14.00">orders: Software</text>
<polyline fill="none" stroke="black" points="808,-457.5 917,-457.5 "/>
</g>
<!-- orders_requirement_connection -->
<g id="node19" class="node"><title>orders_requirement_connection</title>
<polygon fill="turquoise" stroke="black" points="1043,-475 979,-475 979,-451 1043,-451 1055,-463 1043,-475"/>
<text text-anchor="middle" x="1017" y="-459.3" font-family="Times,serif" font-size="14.00">connection</text>
</g>
<!-- orders&#45;&#45;orders_requirement_connection -->
<g id="edge14" class="edge"><title>orders&#45;&#45;orders_requirement_connection</title>
<path fill="none" stroke="black" d="M917.266,-443.577C937.675,-447.592 960.445,-452.071 978.97,-455.715"/>
</g>
<!-- orders_requirement_host -->
<g id="node20" class="node"><title>orders_requirement_host</title>
<polygon fill="turquoise" stroke="black" points="1032,-421 990,-421 990,-397 1032,-397 1044,-409 1032,-421"/>
<text text-anchor="middle" x="1017" y="-405.3" font-family="Times,serif" font-size="14.00">host</text>
</g>
<!-- orders&#45;&#45;orders_requirement_host -->
<g id="edge15" class="edge"><title>orders&#45;&#45;orders_requirement_host</title>
<path fill="none" stroke="black" d="M917.266,-424.538C941.791,-420.679 969.725,-416.283 989.607,-413.154"/>
</g>
<!-- orders_capability_endpoint&#45;&#45;orders -->
<g id="edge13" class="edge"><title>orders_capability_endpoint&#45;&#45;orders</title>
<path fill="none" stroke="black" d="M746.035,-409.436C764.004,-413.103 787.006,-417.797 807.743,-422.029"/>
</g>
<!-- orders_requirement_connection&#45;&#45;user_capability_endpoint -->
<g id="edge50" class="edge"><title>orders_requirement_connection&#45;&#45;user_capability_endpoint</title>
<path fill="none" stroke="black" stroke-dasharray="1,5" d="M1054.62,-444.792C1057.77,-442.17 1060.64,-439.244 1063,-436 1086.32,-403.899 1061.47,-382.325 1083,-349 1085.8,-344.66 1089.46,-340.707 1093.42,-337.197"/>
</g>
<!-- orders_requirement_connection&#45;&#45;carts_capability_endpoint -->
<g id="edge49" class="edge"><title>orders_requirement_connection&#45;&#45;carts_capability_endpoint</title>
<path fill="none" stroke="black" stroke-dasharray="1,5" d="M1055.06,-445.092C1058.13,-442.411 1060.86,-439.389 1063,-436 1112.36,-357.854 1039.25,-310.417 1083,-229 1085.76,-223.869 1089.72,-219.257 1094.08,-215.237"/>
</g>
<!-- payment_capability_endpoint -->
<g id="node22" class="node"><title>payment_capability_endpoint</title>
<polygon fill="orange" stroke="black" points="1144,-766 1091,-766 1091,-742 1144,-742 1156,-754 1144,-766"/>
<text text-anchor="middle" x="1123.5" y="-750.3" font-family="Times,serif" font-size="14.00">endpoint</text>
</g>
<!-- orders_requirement_connection&#45;&#45;payment_capability_endpoint -->
<g id="edge48" class="edge"><title>orders_requirement_connection&#45;&#45;payment_capability_endpoint</title>
<path fill="none" stroke="black" stroke-dasharray="1,5" d="M1019.89,-481.019C1024.91,-523.142 1041.16,-630.436 1083,-709 1088.18,-718.726 1095.84,-728.113 1103.04,-735.774"/>
</g>
<!-- shipping_capability_endpoint -->
<g id="node25" class="node"><title>shipping_capability_endpoint</title>
<polygon fill="orange" stroke="black" points="1144,-646 1091,-646 1091,-622 1144,-622 1156,-634 1144,-646"/>
<text text-anchor="middle" x="1123.5" y="-630.3" font-family="Times,serif" font-size="14.00">endpoint</text>
</g>
<!-- orders_requirement_connection&#45;&#45;shipping_capability_endpoint -->
<g id="edge47" class="edge"><title>orders_requirement_connection&#45;&#45;shipping_capability_endpoint</title>
<path fill="none" stroke="black" stroke-dasharray="1,5" d="M1025.74,-481.307C1036.78,-506.549 1058.46,-553.001 1083,-589 1089.32,-598.277 1097.34,-607.735 1104.5,-615.571"/>
</g>
<!-- orders_db_capability_endpoint -->
<g id="node43" class="node"><title>orders_db_capability_endpoint</title>
<polygon fill="orange" stroke="black" points="1144,-526 1091,-526 1091,-502 1144,-502 1156,-514 1144,-526"/>
<text text-anchor="middle" x="1123.5" y="-510.3" font-family="Times,serif" font-size="14.00">endpoint</text>
</g>
<!-- orders_requirement_connection&#45;&#45;orders_db_capability_endpoint -->
<g id="edge46" class="edge"><title>orders_requirement_connection&#45;&#45;orders_db_capability_endpoint</title>
<path fill="none" stroke="black" stroke-dasharray="1,5" d="M1055.14,-481.124C1066.75,-486.793 1079.46,-492.994 1090.67,-498.468"/>
</g>
<!-- orders_java_capability_host -->
<g id="node37" class="node"><title>orders_java_capability_host</title>
<polygon fill="orange" stroke="black" points="1138.5,-421 1096.5,-421 1096.5,-397 1138.5,-397 1150.5,-409 1138.5,-421"/>
<text text-anchor="middle" x="1123.5" y="-405.3" font-family="Times,serif" font-size="14.00">host</text>
</g>
<!-- orders_requirement_host&#45;&#45;orders_java_capability_host -->
<g id="edge45" class="edge"><title>orders_requirement_host&#45;&#45;orders_java_capability_host</title>
<path fill="none" stroke="black" stroke-dasharray="1,5" d="M1044.1,-409C1060.06,-409 1080.41,-409 1096.37,-409"/>
</g>
<!-- payment -->
<g id="node21" class="node"><title>payment</title>
<path fill="none" stroke="black" d="M1217.5,-721.5C1217.5,-721.5 1315.5,-721.5 1315.5,-721.5 1321.5,-721.5 1327.5,-727.5 1327.5,-733.5 1327.5,-733.5 1327.5,-804.5 1327.5,-804.5 1327.5,-810.5 1321.5,-816.5 1315.5,-816.5 1315.5,-816.5 1217.5,-816.5 1217.5,-816.5 1211.5,-816.5 1205.5,-810.5 1205.5,-804.5 1205.5,-804.5 1205.5,-733.5 1205.5,-733.5 1205.5,-727.5 1211.5,-721.5 1217.5,-721.5"/>
<text text-anchor="middle" x="1266.5" y="-801.3" font-family="Times,serif" font-size="14.00">payment: Software</text>
<polyline fill="none" stroke="black" points="1205.5,-793.5 1327.5,-793.5 "/>
</g>
<!-- payment_requirement_host -->
<g id="node23" class="node"><title>payment_requirement_host</title>
<polygon fill="turquoise" stroke="black" points="1430,-787 1388,-787 1388,-763 1430,-763 1442,-775 1430,-787"/>
<text text-anchor="middle" x="1415" y="-771.3" font-family="Times,serif" font-size="14.00">host</text>
</g>
<!-- payment&#45;&#45;payment_requirement_host -->
<g id="edge17" class="edge"><title>payment&#45;&#45;payment_requirement_host</title>
<path fill="none" stroke="black" d="M1327.51,-771.458C1348.53,-772.319 1371.05,-773.241 1387.84,-773.929"/>
</g>
<!-- payment_capability_endpoint&#45;&#45;payment -->
<g id="edge16" class="edge"><title>payment_capability_endpoint&#45;&#45;payment</title>
<path fill="none" stroke="black" d="M1156.14,-757.366C1170.68,-758.912 1188.41,-760.799 1205.34,-762.6"/>
</g>
<!-- payment_go_capability_host -->
<g id="node31" class="node"><title>payment_go_capability_host</title>
<polygon fill="orange" stroke="black" points="1536.5,-799 1494.5,-799 1494.5,-775 1536.5,-775 1548.5,-787 1536.5,-799"/>
<text text-anchor="middle" x="1521.5" y="-783.3" font-family="Times,serif" font-size="14.00">host</text>
</g>
<!-- payment_requirement_host&#45;&#45;payment_go_capability_host -->
<g id="edge51" class="edge"><title>payment_requirement_host&#45;&#45;payment_go_capability_host</title>
<path fill="none" stroke="black" stroke-dasharray="1,5" d="M1442.1,-777.997C1458.06,-779.83 1478.41,-782.166 1494.37,-783.999"/>
</g>
<!-- shipping -->
<g id="node24" class="node"><title>shipping</title>
<path fill="none" stroke="black" d="M1217.5,-601.5C1217.5,-601.5 1315.5,-601.5 1315.5,-601.5 1321.5,-601.5 1327.5,-607.5 1327.5,-613.5 1327.5,-613.5 1327.5,-684.5 1327.5,-684.5 1327.5,-690.5 1321.5,-696.5 1315.5,-696.5 1315.5,-696.5 1217.5,-696.5 1217.5,-696.5 1211.5,-696.5 1205.5,-690.5 1205.5,-684.5 1205.5,-684.5 1205.5,-613.5 1205.5,-613.5 1205.5,-607.5 1211.5,-601.5 1217.5,-601.5"/>
<text text-anchor="middle" x="1266.5" y="-681.3" font-family="Times,serif" font-size="14.00">shipping: Software</text>
<polyline fill="none" stroke="black" points="1205.5,-673.5 1327.5,-673.5 "/>
</g>
<!-- shipping_requirement_connection -->
<g id="node26" class="node"><title>shipping_requirement_connection</title>
<polygon fill="turquoise" stroke="black" points="1441,-631 1377,-631 1377,-607 1441,-607 1453,-619 1441,-631"/>
<text text-anchor="middle" x="1415" y="-615.3" font-family="Times,serif" font-size="14.00">connection</text>
</g>
<!-- shipping&#45;&#45;shipping_requirement_connection -->
<g id="edge19" class="edge"><title>shipping&#45;&#45;shipping_requirement_connection</title>
<path fill="none" stroke="black" d="M1327.51,-636.711C1344.26,-633.281 1361.97,-629.655 1376.97,-626.583"/>
</g>
<!-- shipping_requirement_host -->
<g id="node27" class="node"><title>shipping_requirement_host</title>
<polygon fill="turquoise" stroke="black" points="1430,-685 1388,-685 1388,-661 1430,-661 1442,-673 1430,-685"/>
<text text-anchor="middle" x="1415" y="-669.3" font-family="Times,serif" font-size="14.00">host</text>
</g>
<!-- shipping&#45;&#45;shipping_requirement_host -->
<g id="edge20" class="edge"><title>shipping&#45;&#45;shipping_requirement_host</title>
<path fill="none" stroke="black" d="M1327.51,-658.831C1348.53,-662.274 1371.05,-665.964 1387.84,-668.715"/>
</g>
<!-- shipping_capability_endpoint&#45;&#45;shipping -->
<g id="edge18" class="edge"><title>shipping_capability_endpoint&#45;&#45;shipping</title>
<path fill="none" stroke="black" d="M1156.14,-637.366C1170.68,-638.912 1188.41,-640.799 1205.34,-642.6"/>
</g>
<!-- rabbitmq_capability_endpoint -->
<g id="node53" class="node"><title>rabbitmq_capability_endpoint</title>
<polygon fill="orange" stroke="black" points="1542,-580 1489,-580 1489,-556 1542,-556 1554,-568 1542,-580"/>
<text text-anchor="middle" x="1521.5" y="-564.3" font-family="Times,serif" font-size="14.00">endpoint</text>
</g>
<!-- shipping_requirement_connection&#45;&#45;rabbitmq_capability_endpoint -->
<g id="edge53" class="edge"><title>shipping_requirement_connection&#45;&#45;rabbitmq_capability_endpoint</title>
<path fill="none" stroke="black" stroke-dasharray="1,5" d="M1453.14,-600.876C1464.75,-595.207 1477.46,-589.006 1488.67,-583.532"/>
</g>
<!-- shipping_java_capability_host -->
<g id="node41" class="node"><title>shipping_java_capability_host</title>
<polygon fill="orange" stroke="black" points="1536.5,-685 1494.5,-685 1494.5,-661 1536.5,-661 1548.5,-673 1536.5,-685"/>
<text text-anchor="middle" x="1521.5" y="-669.3" font-family="Times,serif" font-size="14.00">host</text>
</g>
<!-- shipping_requirement_host&#45;&#45;shipping_java_capability_host -->
<g id="edge52" class="edge"><title>shipping_requirement_host&#45;&#45;shipping_java_capability_host</title>
<path fill="none" stroke="black" stroke-dasharray="1,5" d="M1442.1,-673C1458.06,-673 1478.41,-673 1494.37,-673"/>
</g>
<!-- front_end_node -->
<g id="node28" class="node"><title>front_end_node</title>
<path fill="none" stroke="black" d="M794,-176.5C794,-176.5 931,-176.5 931,-176.5 937,-176.5 943,-182.5 943,-188.5 943,-188.5 943,-259.5 943,-259.5 943,-265.5 937,-271.5 931,-271.5 931,-271.5 794,-271.5 794,-271.5 788,-271.5 782,-265.5 782,-259.5 782,-259.5 782,-188.5 782,-188.5 782,-182.5 788,-176.5 794,-176.5"/>
<text text-anchor="middle" x="862.5" y="-256.3" font-family="Times,serif" font-size="14.00">front&#45;end&#45;node: Container</text>
<polyline fill="none" stroke="black" points="782,-248.5 943,-248.5 "/>
</g>
<!-- front_end_node_capability_host&#45;&#45;front_end_node -->
<g id="edge21" class="edge"><title>front_end_node_capability_host&#45;&#45;front_end_node</title>
<path fill="none" stroke="black" d="M740.781,-236.318C752.507,-235.122 767.015,-233.641 781.859,-232.127"/>
</g>
<!-- payment_go -->
<g id="node30" class="node"><title>payment_go</title>
<path fill="none" stroke="black" d="M1607,-745.5C1607,-745.5 1728,-745.5 1728,-745.5 1734,-745.5 1740,-751.5 1740,-757.5 1740,-757.5 1740,-828.5 1740,-828.5 1740,-834.5 1734,-840.5 1728,-840.5 1728,-840.5 1607,-840.5 1607,-840.5 1601,-840.5 1595,-834.5 1595,-828.5 1595,-828.5 1595,-757.5 1595,-757.5 1595,-751.5 1601,-745.5 1607,-745.5"/>
<text text-anchor="middle" x="1667.5" y="-825.3" font-family="Times,serif" font-size="14.00">payment&#45;go: Container</text>
<polyline fill="none" stroke="black" points="1595,-817.5 1740,-817.5 "/>
</g>
<!-- payment_go_capability_host&#45;&#45;payment_go -->
<g id="edge22" class="edge"><title>payment_go_capability_host&#45;&#45;payment_go</title>
<path fill="none" stroke="black" d="M1548.58,-788.087C1561.71,-788.634 1578.33,-789.326 1594.93,-790.018"/>
</g>
<!-- catalogue_go -->
<g id="node32" class="node"><title>catalogue_go</title>
<path fill="none" stroke="black" d="M1204,-841.5C1204,-841.5 1329,-841.5 1329,-841.5 1335,-841.5 1341,-847.5 1341,-853.5 1341,-853.5 1341,-924.5 1341,-924.5 1341,-930.5 1335,-936.5 1329,-936.5 1329,-936.5 1204,-936.5 1204,-936.5 1198,-936.5 1192,-930.5 1192,-924.5 1192,-924.5 1192,-853.5 1192,-853.5 1192,-847.5 1198,-841.5 1204,-841.5"/>
<text text-anchor="middle" x="1266.5" y="-921.3" font-family="Times,serif" font-size="14.00">catalogue&#45;go: Container</text>
<polyline fill="none" stroke="black" points="1192,-913.5 1341,-913.5 "/>
</g>
<!-- catalogue_go_capability_host&#45;&#45;catalogue_go -->
<g id="edge23" class="edge"><title>catalogue_go_capability_host&#45;&#45;catalogue_go</title>
<path fill="none" stroke="black" d="M1150.69,-889C1162.48,-889 1177.04,-889 1191.8,-889"/>
</g>
<!-- user_go -->
<g id="node34" class="node"><title>user_go</title>
<path fill="none" stroke="black" d="M1619.5,-256.5C1619.5,-256.5 1715.5,-256.5 1715.5,-256.5 1721.5,-256.5 1727.5,-262.5 1727.5,-268.5 1727.5,-268.5 1727.5,-339.5 1727.5,-339.5 1727.5,-345.5 1721.5,-351.5 1715.5,-351.5 1715.5,-351.5 1619.5,-351.5 1619.5,-351.5 1613.5,-351.5 1607.5,-345.5 1607.5,-339.5 1607.5,-339.5 1607.5,-268.5 1607.5,-268.5 1607.5,-262.5 1613.5,-256.5 1619.5,-256.5"/>
<text text-anchor="middle" x="1667.5" y="-336.3" font-family="Times,serif" font-size="14.00">user&#45;go: Container</text>
<polyline fill="none" stroke="black" points="1607.5,-328.5 1727.5,-328.5 "/>
</g>
<!-- user_go_capability_host&#45;&#45;user_go -->
<g id="edge24" class="edge"><title>user_go_capability_host&#45;&#45;user_go</title>
<path fill="none" stroke="black" d="M1548.58,-291.716C1565.03,-293.43 1586.97,-295.716 1607.47,-297.851"/>
</g>
<!-- orders_java -->
<g id="node36" class="node"><title>orders_java</title>
<path fill="none" stroke="black" d="M1207,-361.5C1207,-361.5 1326,-361.5 1326,-361.5 1332,-361.5 1338,-367.5 1338,-373.5 1338,-373.5 1338,-444.5 1338,-444.5 1338,-450.5 1332,-456.5 1326,-456.5 1326,-456.5 1207,-456.5 1207,-456.5 1201,-456.5 1195,-450.5 1195,-444.5 1195,-444.5 1195,-373.5 1195,-373.5 1195,-367.5 1201,-361.5 1207,-361.5"/>
<text text-anchor="middle" x="1266.5" y="-441.3" font-family="Times,serif" font-size="14.00">orders&#45;java: Container</text>
<polyline fill="none" stroke="black" points="1195,-433.5 1338,-433.5 "/>
</g>
<!-- orders_java_capability_host&#45;&#45;orders_java -->
<g id="edge25" class="edge"><title>orders_java_capability_host&#45;&#45;orders_java</title>
<path fill="none" stroke="black" d="M1150.69,-409C1163.27,-409 1179.02,-409 1194.79,-409"/>
</g>
<!-- carts_java -->
<g id="node38" class="node"><title>carts_java</title>
<path fill="none" stroke="black" d="M1612.5,-16.5C1612.5,-16.5 1722.5,-16.5 1722.5,-16.5 1728.5,-16.5 1734.5,-22.5 1734.5,-28.5 1734.5,-28.5 1734.5,-99.5 1734.5,-99.5 1734.5,-105.5 1728.5,-111.5 1722.5,-111.5 1722.5,-111.5 1612.5,-111.5 1612.5,-111.5 1606.5,-111.5 1600.5,-105.5 1600.5,-99.5 1600.5,-99.5 1600.5,-28.5 1600.5,-28.5 1600.5,-22.5 1606.5,-16.5 1612.5,-16.5"/>
<text text-anchor="middle" x="1667.5" y="-96.3" font-family="Times,serif" font-size="14.00">carts&#45;java: Container</text>
<polyline fill="none" stroke="black" points="1600.5,-88.5 1734.5,-88.5 "/>
</g>
<!-- carts_java_capability_host&#45;&#45;carts_java -->
<g id="edge26" class="edge"><title>carts_java_capability_host&#45;&#45;carts_java</title>
<path fill="none" stroke="black" d="M1548.58,-76.2836C1563.17,-74.764 1582.07,-72.7946 1600.46,-70.8796"/>
</g>
<!-- shipping_java -->
<g id="node40" class="node"><title>shipping_java</title>
<path fill="none" stroke="black" d="M1602,-625.5C1602,-625.5 1733,-625.5 1733,-625.5 1739,-625.5 1745,-631.5 1745,-637.5 1745,-637.5 1745,-708.5 1745,-708.5 1745,-714.5 1739,-720.5 1733,-720.5 1733,-720.5 1602,-720.5 1602,-720.5 1596,-720.5 1590,-714.5 1590,-708.5 1590,-708.5 1590,-637.5 1590,-637.5 1590,-631.5 1596,-625.5 1602,-625.5"/>
<text text-anchor="middle" x="1667.5" y="-705.3" font-family="Times,serif" font-size="14.00">shipping&#45;java: Container</text>
<polyline fill="none" stroke="black" points="1590,-697.5 1745,-697.5 "/>
</g>
<!-- shipping_java_capability_host&#45;&#45;shipping_java -->
<g id="edge27" class="edge"><title>shipping_java_capability_host&#45;&#45;shipping_java</title>
<path fill="none" stroke="black" d="M1548.58,-673C1560.33,-673 1574.88,-673 1589.71,-673"/>
</g>
<!-- orders_db -->
<g id="node42" class="node"><title>orders_db</title>
<path fill="none" stroke="black" d="M1212,-481.5C1212,-481.5 1321,-481.5 1321,-481.5 1327,-481.5 1333,-487.5 1333,-493.5 1333,-493.5 1333,-564.5 1333,-564.5 1333,-570.5 1327,-576.5 1321,-576.5 1321,-576.5 1212,-576.5 1212,-576.5 1206,-576.5 1200,-570.5 1200,-564.5 1200,-564.5 1200,-493.5 1200,-493.5 1200,-487.5 1206,-481.5 1212,-481.5"/>
<text text-anchor="middle" x="1266.5" y="-561.3" font-family="Times,serif" font-size="14.00">orders&#45;db: Container</text>
<polyline fill="none" stroke="black" points="1200,-553.5 1333,-553.5 "/>
</g>
<!-- orders_db_capability_endpoint&#45;&#45;orders_db -->
<g id="edge28" class="edge"><title>orders_db_capability_endpoint&#45;&#45;orders_db</title>
<path fill="none" stroke="black" d="M1156.14,-517.366C1169.13,-518.748 1184.69,-520.403 1199.93,-522.024"/>
</g>
<!-- carts_db -->
<g id="node44" class="node"><title>carts_db</title>
<path fill="none" stroke="black" d="M1617.5,-136.5C1617.5,-136.5 1717.5,-136.5 1717.5,-136.5 1723.5,-136.5 1729.5,-142.5 1729.5,-148.5 1729.5,-148.5 1729.5,-219.5 1729.5,-219.5 1729.5,-225.5 1723.5,-231.5 1717.5,-231.5 1717.5,-231.5 1617.5,-231.5 1617.5,-231.5 1611.5,-231.5 1605.5,-225.5 1605.5,-219.5 1605.5,-219.5 1605.5,-148.5 1605.5,-148.5 1605.5,-142.5 1611.5,-136.5 1617.5,-136.5"/>
<text text-anchor="middle" x="1667.5" y="-216.3" font-family="Times,serif" font-size="14.00">carts&#45;db: Container</text>
<polyline fill="none" stroke="black" points="1605.5,-208.5 1729.5,-208.5 "/>
</g>
<!-- carts_db_capability_endpoint&#45;&#45;carts_db -->
<g id="edge29" class="edge"><title>carts_db_capability_endpoint&#45;&#45;carts_db</title>
<path fill="none" stroke="black" d="M1554.1,-186.342C1569.17,-186.028 1587.73,-185.641 1605.39,-185.273"/>
</g>
<!-- user_db -->
<g id="node46" class="node"><title>user_db</title>
<path fill="none" stroke="black" d="M1619,-376.5C1619,-376.5 1716,-376.5 1716,-376.5 1722,-376.5 1728,-382.5 1728,-388.5 1728,-388.5 1728,-459.5 1728,-459.5 1728,-465.5 1722,-471.5 1716,-471.5 1716,-471.5 1619,-471.5 1619,-471.5 1613,-471.5 1607,-465.5 1607,-459.5 1607,-459.5 1607,-388.5 1607,-388.5 1607,-382.5 1613,-376.5 1619,-376.5"/>
<text text-anchor="middle" x="1667.5" y="-456.3" font-family="Times,serif" font-size="14.00">user&#45;db: Container</text>
<polyline fill="none" stroke="black" points="1607,-448.5 1728,-448.5 "/>
</g>
<!-- user_db_capability_endpoint&#45;&#45;user_db -->
<g id="edge30" class="edge"><title>user_db_capability_endpoint&#45;&#45;user_db</title>
<path fill="none" stroke="black" d="M1554.1,-412.292C1569.58,-413.905 1588.75,-415.901 1606.84,-417.786"/>
</g>
<!-- catalogue_db -->
<g id="node48" class="node"><title>catalogue_db</title>
<path fill="none" stroke="black" d="M1204,-961.5C1204,-961.5 1329,-961.5 1329,-961.5 1335,-961.5 1341,-967.5 1341,-973.5 1341,-973.5 1341,-1044.5 1341,-1044.5 1341,-1050.5 1335,-1056.5 1329,-1056.5 1329,-1056.5 1204,-1056.5 1204,-1056.5 1198,-1056.5 1192,-1050.5 1192,-1044.5 1192,-1044.5 1192,-973.5 1192,-973.5 1192,-967.5 1198,-961.5 1204,-961.5"/>
<text text-anchor="middle" x="1266.5" y="-1041.3" font-family="Times,serif" font-size="14.00">catalogue&#45;db: Container</text>
<polyline fill="none" stroke="black" points="1192,-1033.5 1341,-1033.5 "/>
</g>
<!-- catalogue_db_capability_endpoint&#45;&#45;catalogue_db -->
<g id="edge31" class="edge"><title>catalogue_db_capability_endpoint&#45;&#45;catalogue_db</title>
<path fill="none" stroke="black" d="M1156.14,-997.366C1166.86,-998.506 1179.32,-999.832 1191.91,-1001.17"/>
</g>
<!-- edge_router -->
<g id="node50" class="node"><title>edge_router</title>
<path fill="none" stroke="black" d="M28,-261.5C28,-261.5 147,-261.5 147,-261.5 153,-261.5 159,-267.5 159,-273.5 159,-273.5 159,-344.5 159,-344.5 159,-350.5 153,-356.5 147,-356.5 147,-356.5 28,-356.5 28,-356.5 22,-356.5 16,-350.5 16,-344.5 16,-344.5 16,-273.5 16,-273.5 16,-267.5 22,-261.5 28,-261.5"/>
<text text-anchor="middle" x="87.5" y="-341.3" font-family="Times,serif" font-size="14.00">edge&#45;router: Container</text>
<polyline fill="none" stroke="black" points="16,-333.5 159,-333.5 "/>
</g>
<!-- edge_router_requirement_connection -->
<g id="node51" class="node"><title>edge_router_requirement_connection</title>
<polygon fill="turquoise" stroke="black" points="259,-321 195,-321 195,-297 259,-297 271,-309 259,-321"/>
<text text-anchor="middle" x="233" y="-305.3" font-family="Times,serif" font-size="14.00">connection</text>
</g>
<!-- edge_router&#45;&#45;edge_router_requirement_connection -->
<g id="edge32" class="edge"><title>edge_router&#45;&#45;edge_router_requirement_connection</title>
<path fill="none" stroke="black" d="M159.409,-309C171.696,-309 184.015,-309 194.926,-309"/>
</g>
<!-- edge_router_requirement_connection&#45;&#45;front_end_capability_endpoint -->
<g id="edge54" class="edge"><title>edge_router_requirement_connection&#45;&#45;front_end_capability_endpoint</title>
<path fill="none" stroke="black" stroke-dasharray="1,5" d="M271.137,-309C282.753,-309 295.459,-309 306.674,-309"/>
</g>
<!-- rabbitmq -->
<g id="node52" class="node"><title>rabbitmq</title>
<path fill="none" stroke="black" d="M1614,-505.5C1614,-505.5 1721,-505.5 1721,-505.5 1727,-505.5 1733,-511.5 1733,-517.5 1733,-517.5 1733,-588.5 1733,-588.5 1733,-594.5 1727,-600.5 1721,-600.5 1721,-600.5 1614,-600.5 1614,-600.5 1608,-600.5 1602,-594.5 1602,-588.5 1602,-588.5 1602,-517.5 1602,-517.5 1602,-511.5 1608,-505.5 1614,-505.5"/>
<text text-anchor="middle" x="1667.5" y="-585.3" font-family="Times,serif" font-size="14.00">rabbitmq: Container</text>
<polyline fill="none" stroke="black" points="1602,-577.5 1733,-577.5 "/>
</g>
<!-- rabbitmq_capability_endpoint&#45;&#45;rabbitmq -->
<g id="edge33" class="edge"><title>rabbitmq_capability_endpoint&#45;&#45;rabbitmq</title>
<path fill="none" stroke="black" d="M1554.1,-564.708C1568.18,-563.242 1585.3,-561.459 1601.89,-559.731"/>
</g>
</g>
</svg>
