<?xml version="1.0" encoding="UTF-8" standalone="no"?>
<!DOCTYPE svg PUBLIC "-//W3C//DTD SVG 1.1//EN"
 "http://www.w3.org/Graphics/SVG/1.1/DTD/svg11.dtd">
<!-- Generated by graphviz version 2.38.0 (20140413.2041)
 -->
<!-- Title: ToscaDiagram Pages: 1 -->
<svg width="865pt" height="376pt"
 viewBox="0.00 0.00 865.00 376.00" xmlns="http://www.w3.org/2000/svg" xmlns:xlink="http://www.w3.org/1999/xlink">
<g id="graph0" class="graph" transform="scale(1 1) rotate(0) translate(4 372)">
<title>ToscaDiagram</title>
<polygon fill="white" stroke="none" points="-4,4 -4,-372 861,-372 861,4 -4,4"/>
<g id="clust1" class="cluster"><title>clusterserver1</title>
<polygon fill="none" stroke="white" points="272,-248 272,-360 601,-360 601,-248 272,-248"/>
</g>
<g id="clust2" class="cluster"><title>clusterserver2</title>
<polygon fill="none" stroke="white" points="272,-128 272,-240 601,-240 601,-128 272,-128"/>
</g>
<g id="clust3" class="cluster"><title>clusterserver3</title>
<polygon fill="none" stroke="white" points="8,-99 8,-211 252,-211 252,-99 8,-99"/>
</g>
<g id="clust4" class="cluster"><title>clusternodejs1</title>
<polygon fill="none" stroke="white" points="621,-248 621,-360 849,-360 849,-248 621,-248"/>
</g>
<g id="clust5" class="cluster"><title>clusternodejs2</title>
<polygon fill="none" stroke="white" points="621,-128 621,-240 849,-240 849,-128 621,-128"/>
</g>
<g id="clust6" class="cluster"><title>clusternodejs3</title>
<polygon fill="none" stroke="white" points="277.5,-8 277.5,-120 511,-120 511,-8 277.5,-8"/>
</g>
<!-- server1 -->
<g id="node1" class="node"><title>server1</title>
<path fill="none" stroke="black" d="M396,-256.5C396,-256.5 488,-256.5 488,-256.5 494,-256.5 500,-262.5 500,-268.5 500,-268.5 500,-339.5 500,-339.5 500,-345.5 494,-351.5 488,-351.5 488,-351.5 396,-351.5 396,-351.5 390,-351.5 384,-345.5 384,-339.5 384,-339.5 384,-268.5 384,-268.5 384,-262.5 390,-256.5 396,-256.5"/>
<text text-anchor="middle" x="442" y="-336.3" font-family="Times,serif" font-size="14.00">server1: Software</text>
<polyline fill="none" stroke="black" points="384,-328.5 500,-328.5 "/>
</g>
<!-- server1_requirement_host -->
<g id="node3" class="node"><title>server1_requirement_host</title>
<polygon fill="turquoise" stroke="black" points="581,-316 539,-316 539,-292 581,-292 593,-304 581,-316"/>
<text text-anchor="middle" x="566" y="-300.3" font-family="Times,serif" font-size="14.00">host</text>
</g>
<!-- server1&#45;&#45;server1_requirement_host -->
<g id="edge2" class="edge"><title>server1&#45;&#45;server1_requirement_host</title>
<path fill="none" stroke="black" d="M500.071,-304C513.59,-304 527.368,-304 538.733,-304"/>
</g>
<!-- server1_capability_endpoint -->
<g id="node2" class="node"><title>server1_capability_endpoint</title>
<polygon fill="orange" stroke="black" points="333,-301 280,-301 280,-277 333,-277 345,-289 333,-301"/>
<text text-anchor="middle" x="312.5" y="-285.3" font-family="Times,serif" font-size="14.00">endpoint</text>
</g>
<!-- server1_capability_endpoint&#45;&#45;server1 -->
<g id="edge1" class="edge"><title>server1_capability_endpoint&#45;&#45;server1</title>
<path fill="none" stroke="black" d="M345.017,-292.708C356.742,-294.087 370.441,-295.699 383.758,-297.266"/>
</g>
<!-- nodejs1_capability_host -->
<g id="node11" class="node"><title>nodejs1_capability_host</title>
<polygon fill="orange" stroke="black" points="671,-316 629,-316 629,-292 671,-292 683,-304 671,-316"/>
<text text-anchor="middle" x="656" y="-300.3" font-family="Times,serif" font-size="14.00">host</text>
</g>
<!-- server1_requirement_host&#45;&#45;nodejs1_capability_host -->
<g id="edge10" class="edge"><title>server1_requirement_host&#45;&#45;nodejs1_capability_host</title>
<path fill="none" stroke="black" stroke-dasharray="1,5" d="M593.403,-304C604.642,-304 617.715,-304 628.919,-304"/>
</g>
<!-- server2 -->
<g id="node4" class="node"><title>server2</title>
<path fill="none" stroke="black" d="M396,-136.5C396,-136.5 488,-136.5 488,-136.5 494,-136.5 500,-142.5 500,-148.5 500,-148.5 500,-219.5 500,-219.5 500,-225.5 494,-231.5 488,-231.5 488,-231.5 396,-231.5 396,-231.5 390,-231.5 384,-225.5 384,-219.5 384,-219.5 384,-148.5 384,-148.5 384,-142.5 390,-136.5 396,-136.5"/>
<text text-anchor="middle" x="442" y="-216.3" font-family="Times,serif" font-size="14.00">server2: Software</text>
<polyline fill="none" stroke="black" points="384,-208.5 500,-208.5 "/>
</g>
<!-- server2_requirement_host -->
<g id="node6" class="node"><title>server2_requirement_host</title>
<polygon fill="turquoise" stroke="black" points="581,-196 539,-196 539,-172 581,-172 593,-184 581,-196"/>
<text text-anchor="middle" x="566" y="-180.3" font-family="Times,serif" font-size="14.00">host</text>
</g>
<!-- server2&#45;&#45;server2_requirement_host -->
<g id="edge4" class="edge"><title>server2&#45;&#45;server2_requirement_host</title>
<path fill="none" stroke="black" d="M500.071,-184C513.59,-184 527.368,-184 538.733,-184"/>
</g>
<!-- server2_capability_endpoint -->
<g id="node5" class="node"><title>server2_capability_endpoint</title>
<polygon fill="orange" stroke="black" points="333,-196 280,-196 280,-172 333,-172 345,-184 333,-196"/>
<text text-anchor="middle" x="312.5" y="-180.3" font-family="Times,serif" font-size="14.00">endpoint</text>
</g>
<!-- server2_capability_endpoint&#45;&#45;server2 -->
<g id="edge3" class="edge"><title>server2_capability_endpoint&#45;&#45;server2</title>
<path fill="none" stroke="black" d="M345.017,-184C356.742,-184 370.441,-184 383.758,-184"/>
</g>
<!-- nodejs2_capability_host -->
<g id="node13" class="node"><title>nodejs2_capability_host</title>
<polygon fill="orange" stroke="black" points="671,-196 629,-196 629,-172 671,-172 683,-184 671,-196"/>
<text text-anchor="middle" x="656" y="-180.3" font-family="Times,serif" font-size="14.00">host</text>
</g>
<!-- server2_requirement_host&#45;&#45;nodejs2_capability_host -->
<g id="edge11" class="edge"><title>server2_requirement_host&#45;&#45;nodejs2_capability_host</title>
<path fill="none" stroke="black" stroke-dasharray="1,5" d="M593.403,-184C604.642,-184 617.715,-184 628.919,-184"/>
</g>
<!-- server3 -->
<g id="node7" class="node"><title>server3</title>
<path fill="none" stroke="black" d="M28,-107.5C28,-107.5 120,-107.5 120,-107.5 126,-107.5 132,-113.5 132,-119.5 132,-119.5 132,-190.5 132,-190.5 132,-196.5 126,-202.5 120,-202.5 120,-202.5 28,-202.5 28,-202.5 22,-202.5 16,-196.5 16,-190.5 16,-190.5 16,-119.5 16,-119.5 16,-113.5 22,-107.5 28,-107.5"/>
<text text-anchor="middle" x="74" y="-187.3" font-family="Times,serif" font-size="14.00">server3: Software</text>
<polyline fill="none" stroke="black" points="16,-179.5 132,-179.5 "/>
</g>
<!-- server3_requirement_connection -->
<g id="node8" class="node"><title>server3_requirement_connection</title>
<polygon fill="turquoise" stroke="black" points="232,-196 168,-196 168,-172 232,-172 244,-184 232,-196"/>
<text text-anchor="middle" x="206" y="-180.3" font-family="Times,serif" font-size="14.00">connection</text>
</g>
<!-- server3&#45;&#45;server3_requirement_connection -->
<g id="edge5" class="edge"><title>server3&#45;&#45;server3_requirement_connection</title>
<path fill="none" stroke="black" d="M132.02,-167.72C144.163,-170.429 156.684,-173.222 167.852,-175.713"/>
</g>
<!-- server3_requirement_host -->
<g id="node9" class="node"><title>server3_requirement_host</title>
<polygon fill="turquoise" stroke="black" points="221,-139 179,-139 179,-115 221,-115 233,-127 221,-139"/>
<text text-anchor="middle" x="206" y="-123.3" font-family="Times,serif" font-size="14.00">host</text>
</g>
<!-- server3&#45;&#45;server3_requirement_host -->
<g id="edge6" class="edge"><title>server3&#45;&#45;server3_requirement_host</title>
<path fill="none" stroke="black" d="M132.02,-142.719C148.393,-139.192 165.452,-135.518 178.956,-132.609"/>
</g>
<!-- server3_requirement_connection&#45;&#45;server1_capability_endpoint -->
<g id="edge13" class="edge"><title>server3_requirement_connection&#45;&#45;server1_capability_endpoint</title>
<path fill="none" stroke="black" stroke-dasharray="1,5" d="M225.203,-202.29C244.383,-221.562 274.405,-251.727 293.506,-270.92"/>
</g>
<!-- server3_requirement_connection&#45;&#45;server2_capability_endpoint -->
<g id="edge14" class="edge"><title>server3_requirement_connection&#45;&#45;server2_capability_endpoint</title>
<path fill="none" stroke="black" stroke-dasharray="1,5" d="M244.137,-184C255.753,-184 268.459,-184 279.674,-184"/>
</g>
<!-- nodejs3_capability_host -->
<g id="node15" class="node"><title>nodejs3_capability_host</title>
<polygon fill="orange" stroke="black" points="327.5,-91 285.5,-91 285.5,-67 327.5,-67 339.5,-79 327.5,-91"/>
<text text-anchor="middle" x="312.5" y="-75.3" font-family="Times,serif" font-size="14.00">host</text>
</g>
<!-- server3_requirement_host&#45;&#45;nodejs3_capability_host -->
<g id="edge12" class="edge"><title>server3_requirement_host&#45;&#45;nodejs3_capability_host</title>
<path fill="none" stroke="black" stroke-dasharray="1,5" d="M233.1,-115.011C249.06,-107.681 269.405,-98.3354 285.37,-91.0021"/>
</g>
<!-- nodejs1 -->
<g id="node10" class="node"><title>nodejs1</title>
<path fill="none" stroke="black" d="M731,-256.5C731,-256.5 829,-256.5 829,-256.5 835,-256.5 841,-262.5 841,-268.5 841,-268.5 841,-339.5 841,-339.5 841,-345.5 835,-351.5 829,-351.5 829,-351.5 731,-351.5 731,-351.5 725,-351.5 719,-345.5 719,-339.5 719,-339.5 719,-268.5 719,-268.5 719,-262.5 725,-256.5 731,-256.5"/>
<text text-anchor="middle" x="780" y="-336.3" font-family="Times,serif" font-size="14.00">nodejs1: Container</text>
<polyline fill="none" stroke="black" points="719,-328.5 841,-328.5 "/>
</g>
<!-- nodejs1_capability_host&#45;&#45;nodejs1 -->
<g id="edge7" class="edge"><title>nodejs1_capability_host&#45;&#45;nodejs1</title>
<path fill="none" stroke="black" d="M683.172,-304C693.674,-304 706.248,-304 718.778,-304"/>
</g>
<!-- nodejs2 -->
<g id="node12" class="node"><title>nodejs2</title>
<path fill="none" stroke="black" d="M731,-136.5C731,-136.5 829,-136.5 829,-136.5 835,-136.5 841,-142.5 841,-148.5 841,-148.5 841,-219.5 841,-219.5 841,-225.5 835,-231.5 829,-231.5 829,-231.5 731,-231.5 731,-231.5 725,-231.5 719,-225.5 719,-219.5 719,-219.5 719,-148.5 719,-148.5 719,-142.5 725,-136.5 731,-136.5"/>
<text text-anchor="middle" x="780" y="-216.3" font-family="Times,serif" font-size="14.00">nodejs2: Container</text>
<polyline fill="none" stroke="black" points="719,-208.5 841,-208.5 "/>
</g>
<!-- nodejs2_capability_host&#45;&#45;nodejs2 -->
<g id="edge8" class="edge"><title>nodejs2_capability_host&#45;&#45;nodejs2</title>
<path fill="none" stroke="black" d="M683.172,-184C693.674,-184 706.248,-184 718.778,-184"/>
</g>
<!-- nodejs3 -->
<g id="node14" class="node"><title>nodejs3</title>
<path fill="none" stroke="black" d="M393,-16.5C393,-16.5 491,-16.5 491,-16.5 497,-16.5 503,-22.5 503,-28.5 503,-28.5 503,-99.5 503,-99.5 503,-105.5 497,-111.5 491,-111.5 491,-111.5 393,-111.5 393,-111.5 387,-111.5 381,-105.5 381,-99.5 381,-99.5 381,-28.5 381,-28.5 381,-22.5 387,-16.5 393,-16.5"/>
<text text-anchor="middle" x="442" y="-96.3" font-family="Times,serif" font-size="14.00">nodejs3: Container</text>
<polyline fill="none" stroke="black" points="381,-88.5 503,-88.5 "/>
</g>
<!-- nodejs3_capability_host&#45;&#45;nodejs3 -->
<g id="edge9" class="edge"><title>nodejs3_capability_host&#45;&#45;nodejs3</title>
<path fill="none" stroke="black" d="M339.609,-75.9283C351.63,-74.5141 366.433,-72.7725 380.977,-71.0615"/>
</g>
</g>
</svg>
