<?xml version="1.0" encoding="UTF-8" standalone="no"?>
<!DOCTYPE svg PUBLIC "-//W3C//DTD SVG 1.1//EN"
 "http://www.w3.org/Graphics/SVG/1.1/DTD/svg11.dtd">
<!-- Generated by graphviz version 2.38.0 (20140413.2041)
 -->
<!-- Title: ToscaDiagram Pages: 1 -->
<svg width="1006pt" height="136pt"
 viewBox="0.00 0.00 1006.00 136.00" xmlns="http://www.w3.org/2000/svg" xmlns:xlink="http://www.w3.org/1999/xlink">
<g id="graph0" class="graph" transform="scale(1 1) rotate(0) translate(4 132)">
<title>ToscaDiagram</title>
<polygon fill="white" stroke="none" points="-4,4 -4,-132 1002,-132 1002,4 -4,4"/>
<g id="clust1" class="cluster"><title>clusterwp_container</title>
<polygon fill="none" stroke="white" points="8,-8 8,-120 291,-120 291,-8 8,-8"/>
</g>
<g id="clust2" class="cluster"><title>clustermysql_container</title>
<polygon fill="none" stroke="white" points="311,-8 311,-120 691,-120 691,-8 311,-8"/>
</g>
<g id="clust3" class="cluster"><title>clustermysql_volume</title>
<polygon fill="none" stroke="white" points="711,-8 711,-120 990,-120 990,-8 711,-8"/>
</g>
<!-- wp_container -->
<g id="node1" class="node"><title>wp_container</title>
<path fill="none" stroke="black" d="M28,-16.5C28,-16.5 159,-16.5 159,-16.5 165,-16.5 171,-22.5 171,-28.5 171,-28.5 171,-99.5 171,-99.5 171,-105.5 165,-111.5 159,-111.5 159,-111.5 28,-111.5 28,-111.5 22,-111.5 16,-105.5 16,-99.5 16,-99.5 16,-28.5 16,-28.5 16,-22.5 22,-16.5 28,-16.5"/>
<text text-anchor="middle" x="93.5" y="-96.3" font-family="Times,serif" font-size="14.00">wp_container: Container</text>
<polyline fill="none" stroke="black" points="16,-88.5 171,-88.5 "/>
</g>
<!-- wp_container_requirement_connection -->
<g id="node2" class="node"><title>wp_container_requirement_connection</title>
<polygon fill="turquoise" stroke="black" points="271,-76 207,-76 207,-52 271,-52 283,-64 271,-76"/>
<text text-anchor="middle" x="245" y="-60.3" font-family="Times,serif" font-size="14.00">connection</text>
</g>
<!-- wp_container&#45;&#45;wp_container_requirement_connection -->
<g id="edge1" class="edge"><title>wp_container&#45;&#45;wp_container_requirement_connection</title>
<path fill="none" stroke="black" d="M171.002,-64C183.502,-64 195.937,-64 206.907,-64"/>
</g>
<!-- mysql_container_capability_endpoint -->
<g id="node4" class="node"><title>mysql_container_capability_endpoint</title>
<polygon fill="orange" stroke="black" points="372,-76 319,-76 319,-52 372,-52 384,-64 372,-76"/>
<text text-anchor="middle" x="351.5" y="-60.3" font-family="Times,serif" font-size="14.00">endpoint</text>
</g>
<!-- wp_container_requirement_connection&#45;&#45;mysql_container_capability_endpoint -->
<g id="edge5" class="edge"><title>wp_container_requirement_connection&#45;&#45;mysql_container_capability_endpoint</title>
<path fill="none" stroke="black" stroke-dasharray="1,5" d="M283.137,-64C294.753,-64 307.459,-64 318.674,-64"/>
</g>
<!-- mysql_container -->
<g id="node3" class="node"><title>mysql_container</title>
<path fill="none" stroke="black" d="M432,-16.5C432,-16.5 579,-16.5 579,-16.5 585,-16.5 591,-22.5 591,-28.5 591,-28.5 591,-99.5 591,-99.5 591,-105.5 585,-111.5 579,-111.5 579,-111.5 432,-111.5 432,-111.5 426,-111.5 420,-105.5 420,-99.5 420,-99.5 420,-28.5 420,-28.5 420,-22.5 426,-16.5 432,-16.5"/>
<text text-anchor="middle" x="505.5" y="-96.3" font-family="Times,serif" font-size="14.00">mysql_container: Container</text>
<polyline fill="none" stroke="black" points="420,-88.5 591,-88.5 "/>
</g>
<!-- mysql_container_requirement_storage -->
<g id="node5" class="node"><title>mysql_container_requirement_storage</title>
<polygon fill="turquoise" stroke="black" points="671,-76 627,-76 627,-52 671,-52 683,-64 671,-76"/>
<text text-anchor="middle" x="655" y="-60.3" font-family="Times,serif" font-size="14.00">storage</text>
</g>
<!-- mysql_container&#45;&#45;mysql_container_requirement_storage -->
<g id="edge3" class="edge"><title>mysql_container&#45;&#45;mysql_container_requirement_storage</title>
<path fill="none" stroke="black" d="M591.019,-64C604.021,-64 616.567,-64 626.993,-64"/>
</g>
<!-- mysql_container_capability_endpoint&#45;&#45;mysql_container -->
<g id="edge2" class="edge"><title>mysql_container_capability_endpoint&#45;&#45;mysql_container</title>
<path fill="none" stroke="black" d="M384.364,-64C394.898,-64 407.162,-64 419.751,-64"/>
</g>
<!-- mysql_volume_capability_attachment -->
<g id="node7" class="node"><title>mysql_volume_capability_attachment</title>
<polygon fill="orange" stroke="black" points="784,-76 719,-76 719,-52 784,-52 796,-64 784,-76"/>
<text text-anchor="middle" x="757.5" y="-60.3" font-family="Times,serif" font-size="14.00">attachment</text>
</g>
<!-- mysql_container_requirement_storage&#45;&#45;mysql_volume_capability_attachment -->
<g id="edge6" class="edge"><title>mysql_container_requirement_storage&#45;&#45;mysql_volume_capability_attachment</title>
<path fill="none" stroke="black" stroke-dasharray="1,5" d="M683.197,-64C694.126,-64 706.912,-64 718.718,-64"/>
</g>
<!-- mysql_volume -->
<g id="node6" class="node"><title>mysql_volume</title>
<path fill="none" stroke="black" d="M844,-16.5C844,-16.5 970,-16.5 970,-16.5 976,-16.5 982,-22.5 982,-28.5 982,-28.5 982,-99.5 982,-99.5 982,-105.5 976,-111.5 970,-111.5 970,-111.5 844,-111.5 844,-111.5 838,-111.5 832,-105.5 832,-99.5 832,-99.5 832,-28.5 832,-28.5 832,-22.5 838,-16.5 844,-16.5"/>
<text text-anchor="middle" x="907" y="-96.3" font-family="Times,serif" font-size="14.00">mysql_volume: Volume</text>
<polyline fill="none" stroke="black" points="832,-88.5 982,-88.5 "/>
</g>
<!-- mysql_volume_capability_attachment&#45;&#45;mysql_volume -->
<g id="edge4" class="edge"><title>mysql_volume_capability_attachment&#45;&#45;mysql_volume</title>
<path fill="none" stroke="black" d="M796.102,-64C807.113,-64 819.551,-64 831.999,-64"/>
</g>
</g>
</svg>
