<?xml version="1.0" encoding="UTF-8" standalone="no"?><svg xmlns="http://www.w3.org/2000/svg" xmlns:xlink="http://www.w3.org/1999/xlink" contentScriptType="application/ecmascript" contentStyleType="text/css" height="69px" preserveAspectRatio="none" style="width:280px;height:69px;background:#FFFFFF;" version="1.1" viewBox="0 0 280 69" width="280px" zoomAndPan="magnify"><defs><filter height="300%" id="ft9ji7vxlnvoj" width="300%" x="-1" y="-1"><feGaussianBlur result="blurOut" stdDeviation="2.0"/><feColorMatrix in="blurOut" result="blurOut2" type="matrix" values="0 0 0 0 0 0 0 0 0 0 0 0 0 0 0 0 0 0 .4 0"/><feOffset dx="4.0" dy="4.0" in="blurOut2" result="blurOut3"/><feBlend in="SourceGraphic" in2="blurOut3" mode="normal"/></filter></defs><g><!--MD5=[3178c710823164ad23bc5b6108e43bae]
class ContainerImage_AT--><rect codeLine="2" fill="#FEFECE" filter="url(#ft9ji7vxlnvoj)" height="48" id="ContainerImage_AT" style="stroke:#A80036;stroke-width:1.5;" width="122" x="7" y="7"/><ellipse cx="22" cy="23" fill="#008000" rx="11" ry="11" style="stroke:#A80036;stroke-width:1.0;"/><path d="M22.1133,18.3481 L20.9595,23.4199 L23.2754,23.4199 Z M20.6191,16.1069 L23.6157,16.1069 L26.9609,28.5 L24.5122,28.5 L23.7485,25.437 L20.4697,25.437 L19.7227,28.5 L17.2739,28.5 Z " fill="#000000"/><text fill="#000000" font-family="sans-serif" font-size="12" lengthAdjust="spacing" textLength="90" x="36" y="27.5352">ContainerImage</text><line style="stroke:#A80036;stroke-width:1.5;" x1="8" x2="128" y1="39" y2="39"/><line style="stroke:#A80036;stroke-width:1.5;" x1="8" x2="128" y1="47" y2="47"/><!--MD5=[08cf4ae3c88ed8257da3b025f308fc1d]
class SystemdUnit_AT--><rect codeLine="4" fill="#FEFECE" filter="url(#ft9ji7vxlnvoj)" height="48" id="SystemdUnit_AT" style="stroke:#A80036;stroke-width:1.5;" width="102" x="164" y="7"/><ellipse cx="179" cy="23" fill="#008000" rx="11" ry="11" style="stroke:#A80036;stroke-width:1.0;"/><path d="M179.1133,18.3481 L177.9595,23.4199 L180.2754,23.4199 Z M177.6191,16.1069 L180.6157,16.1069 L183.9609,28.5 L181.5122,28.5 L180.7485,25.437 L177.4697,25.437 L176.7227,28.5 L174.2739,28.5 Z " fill="#000000"/><text fill="#000000" font-family="sans-serif" font-size="12" lengthAdjust="spacing" textLength="70" x="193" y="27.5352">SystemdUnit</text><line style="stroke:#A80036;stroke-width:1.5;" x1="165" x2="265" y1="39" y2="39"/><line style="stroke:#A80036;stroke-width:1.5;" x1="165" x2="265" y1="47" y2="47"/><!--MD5=[a28f098347656b7742588f92faec3c01]
@startuml
set namespaceSeparator none
class "ContainerImage" as ContainerImage_AT << (A,green) >> {
}
class "SystemdUnit" as SystemdUnit_AT << (A,green) >> {
}
@enduml

PlantUML version 1.2021.13(Mon Nov 01 12:38:45 CET 2021)
(GPL source distribution)
Java Runtime: Java(TM) SE Runtime Environment
JVM: Java HotSpot(TM) 64-Bit Server VM
Default Encoding: UTF-8
Language: fr
Country: FR
--></g></svg>