<?xml version="1.0" encoding="UTF-8" standalone="no"?><svg xmlns="http://www.w3.org/2000/svg" xmlns:xlink="http://www.w3.org/1999/xlink" contentScriptType="application/ecmascript" contentStyleType="text/css" height="497px" preserveAspectRatio="none" style="width:1268px;height:497px;background:#FFFFFF;" version="1.1" viewBox="0 0 1268 497" width="1268px" zoomAndPan="magnify"><defs><filter height="300%" id="f12rigm055bn4l" width="300%" x="-1" y="-1"><feGaussianBlur result="blurOut" stdDeviation="2.0"/><feColorMatrix in="blurOut" result="blurOut2" type="matrix" values="0 0 0 0 0 0 0 0 0 0 0 0 0 0 0 0 0 0 .4 0"/><feOffset dx="4.0" dy="4.0" in="blurOut2" result="blurOut3"/><feBlend in="SourceGraphic" in2="blurOut3" mode="normal"/></filter></defs><g><!--MD5=[06f04b6e631bdb69101cb18443b62756]
class Runnable_CT--><rect codeLine="2" fill="#FEFECE" filter="url(#f12rigm055bn4l)" height="177.5508" id="Runnable_CT" style="stroke:#A80036;stroke-width:1.5;" width="228" x="309.5" y="7"/><ellipse cx="392.25" cy="23" fill="#008000" rx="11" ry="11" style="stroke:#A80036;stroke-width:1.0;"/><path d="M395.2231,28.6431 Q394.6421,28.9419 394.0029,29.0913 Q393.3638,29.2407 392.6582,29.2407 Q390.1514,29.2407 388.8315,27.5889 Q387.5117,25.937 387.5117,22.8159 Q387.5117,19.6865 388.8315,18.0347 Q390.1514,16.3828 392.6582,16.3828 Q393.3638,16.3828 394.0112,16.5322 Q394.6587,16.6816 395.2231,16.9805 L395.2231,19.7031 Q394.5923,19.1221 393.9988,18.8523 Q393.4053,18.5825 392.7744,18.5825 Q391.4297,18.5825 390.7449,19.6492 Q390.0601,20.7158 390.0601,22.8159 Q390.0601,24.9077 390.7449,25.9744 Q391.4297,27.041 392.7744,27.041 Q393.4053,27.041 393.9988,26.7712 Q394.5923,26.5015 395.2231,25.9204 Z " fill="#000000"/><text fill="#000000" font-family="sans-serif" font-size="12" lengthAdjust="spacing" textLength="54" x="412.75" y="27.5352">Runnable</text><line style="stroke:#A80036;stroke-width:1.5;" x1="310.5" x2="536.5" y1="39" y2="39"/><ellipse cx="320.5" cy="66.9551" rx="3" ry="3" style="stroke:#038048;stroke-width:1.0;fill:none;"/><text fill="#000000" font-family="sans-serif" font-size="11" font-weight="bold" lengthAdjust="spacing" textLength="68" x="329.5" y="70.5898">host : string</text><line style="stroke:#A80036;stroke-width:1.0;stroke-dasharray:1.0,2.0;" x1="310.5" x2="397.5" y1="53.4775" y2="53.4775"/><text fill="#000000" font-family="sans-serif" font-size="11" lengthAdjust="spacing" textLength="52" x="397.5" y="57.1348">attributes</text><line style="stroke:#A80036;stroke-width:1.0;stroke-dasharray:1.0,2.0;" x1="449.5" x2="536.5" y1="53.4775" y2="53.4775"/><ellipse cx="320.5" cy="96.8652" rx="3" ry="3" style="stroke:#038048;stroke-width:1.0;fill:none;"/><text fill="#000000" font-family="sans-serif" font-size="11" lengthAdjust="spacing" textLength="78" x="329.5" y="100.5">runner : string</text><ellipse cx="320.5" cy="109.8203" rx="3" ry="3" style="stroke:#038048;stroke-width:1.0;fill:none;"/><text fill="#000000" font-family="sans-serif" font-size="11" font-weight="bold" lengthAdjust="spacing" textLength="195" x="329.5" y="113.4551">temporality : string = 'Continuous'</text><ellipse cx="320.5" cy="122.7754" rx="3" ry="3" style="stroke:#038048;stroke-width:1.0;fill:none;"/><text fill="#000000" font-family="sans-serif" font-size="11" lengthAdjust="spacing" textLength="173" x="329.5" y="126.4102">specific-temporality : timestamp</text><ellipse cx="320.5" cy="135.7305" rx="3" ry="3" style="stroke:#038048;stroke-width:1.0;fill:none;"/><text fill="#000000" font-family="sans-serif" font-size="11" lengthAdjust="spacing" textLength="202" x="329.5" y="139.3652">delayed-temporality : scalar-unit.time</text><ellipse cx="320.5" cy="148.6855" rx="3" ry="3" style="stroke:#038048;stroke-width:1.0;fill:none;"/><text fill="#000000" font-family="sans-serif" font-size="11" lengthAdjust="spacing" textLength="175" x="329.5" y="152.3203">recurring-temporality : Schedule</text><ellipse cx="320.5" cy="161.6406" rx="3" ry="3" style="stroke:#038048;stroke-width:1.0;fill:none;"/><text fill="#000000" font-family="sans-serif" font-size="11" lengthAdjust="spacing" textLength="65" x="329.5" y="165.2754">user : string</text><ellipse cx="320.5" cy="174.5957" rx="3" ry="3" style="stroke:#038048;stroke-width:1.0;fill:none;"/><text fill="#000000" font-family="sans-serif" font-size="11" font-weight="bold" lengthAdjust="spacing" textLength="144" x="329.5" y="178.2305">systemd : boolean = True</text><line style="stroke:#A80036;stroke-width:1.0;stroke-dasharray:1.0,2.0;" x1="310.5" x2="395.5" y1="83.3877" y2="83.3877"/><text fill="#000000" font-family="sans-serif" font-size="11" lengthAdjust="spacing" textLength="56" x="395.5" y="87.0449">properties</text><line style="stroke:#A80036;stroke-width:1.0;stroke-dasharray:1.0,2.0;" x1="451.5" x2="536.5" y1="83.3877" y2="83.3877"/><!--MD5=[5c1d0718c6a743b5bc8bb2f26e29bd6f]
class Connectable_CT--><rect codeLine="14" fill="#FEFECE" filter="url(#f12rigm055bn4l)" height="69.9102" id="Connectable_CT" style="stroke:#A80036;stroke-width:1.5;" width="169" x="865" y="61"/><ellipse cx="909.75" cy="77" fill="#008000" rx="11" ry="11" style="stroke:#A80036;stroke-width:1.0;"/><path d="M912.7231,82.6431 Q912.1421,82.9419 911.5029,83.0913 Q910.8638,83.2407 910.1582,83.2407 Q907.6514,83.2407 906.3315,81.5889 Q905.0117,79.937 905.0117,76.8159 Q905.0117,73.6865 906.3315,72.0347 Q907.6514,70.3828 910.1582,70.3828 Q910.8638,70.3828 911.5112,70.5322 Q912.1587,70.6816 912.7231,70.9805 L912.7231,73.7031 Q912.0923,73.1221 911.4988,72.8523 Q910.9053,72.5825 910.2744,72.5825 Q908.9297,72.5825 908.2449,73.6492 Q907.5601,74.7158 907.5601,76.8159 Q907.5601,78.9077 908.2449,79.9744 Q908.9297,81.041 910.2744,81.041 Q910.9053,81.041 911.4988,80.7712 Q912.0923,80.5015 912.7231,79.9204 Z " fill="#000000"/><text fill="#000000" font-family="sans-serif" font-size="12" lengthAdjust="spacing" textLength="71" x="930.25" y="81.5352">Connectable</text><line style="stroke:#A80036;stroke-width:1.5;" x1="866" x2="1033" y1="93" y2="93"/><ellipse cx="876" cy="120.9551" rx="3" ry="3" style="stroke:#038048;stroke-width:1.0;fill:none;"/><text fill="#000000" font-family="sans-serif" font-size="11" font-weight="bold" lengthAdjust="spacing" textLength="143" x="885" y="124.5898">standby : boolean = False</text><line style="stroke:#A80036;stroke-width:1.0;stroke-dasharray:1.0,2.0;" x1="866" x2="921.5" y1="107.4775" y2="107.4775"/><text fill="#000000" font-family="sans-serif" font-size="11" lengthAdjust="spacing" textLength="56" x="921.5" y="111.1348">properties</text><line style="stroke:#A80036;stroke-width:1.0;stroke-dasharray:1.0,2.0;" x1="977.5" x2="1033" y1="107.4775" y2="107.4775"/><!--MD5=[f1d3f434f571668a038b25da07bf18bd]
class Storage_CT--><rect codeLine="18" fill="#FEFECE" filter="url(#f12rigm055bn4l)" height="48" id="Storage_CT" style="stroke:#A80036;stroke-width:1.5;" width="75" x="1125" y="72"/><ellipse cx="1140" cy="88" fill="#008000" rx="11" ry="11" style="stroke:#A80036;stroke-width:1.0;"/><path d="M1142.9731,93.6431 Q1142.3921,93.9419 1141.7529,94.0913 Q1141.1138,94.2407 1140.4082,94.2407 Q1137.9014,94.2407 1136.5815,92.5889 Q1135.2617,90.937 1135.2617,87.8159 Q1135.2617,84.6865 1136.5815,83.0347 Q1137.9014,81.3828 1140.4082,81.3828 Q1141.1138,81.3828 1141.7612,81.5322 Q1142.4087,81.6816 1142.9731,81.9805 L1142.9731,84.7031 Q1142.3423,84.1221 1141.7488,83.8523 Q1141.1553,83.5825 1140.5244,83.5825 Q1139.1797,83.5825 1138.4949,84.6492 Q1137.8101,85.7158 1137.8101,87.8159 Q1137.8101,89.9077 1138.4949,90.9744 Q1139.1797,92.041 1140.5244,92.041 Q1141.1553,92.041 1141.7488,91.7712 Q1142.3423,91.5015 1142.9731,90.9204 Z " fill="#000000"/><text fill="#000000" font-family="sans-serif" font-size="12" lengthAdjust="spacing" textLength="43" x="1154" y="92.5352">Storage</text><line style="stroke:#A80036;stroke-width:1.5;" x1="1126" x2="1199" y1="104" y2="104"/><line style="stroke:#A80036;stroke-width:1.5;" x1="1126" x2="1199" y1="112" y2="112"/><!--MD5=[a6a18bf96af6a50f68a3f94aaf01dc1f]
class Process_CT--><rect codeLine="20" fill="#FEFECE" filter="url(#f12rigm055bn4l)" height="82.8652" id="Process_CT" style="stroke:#A80036;stroke-width:1.5;" width="149" x="7" y="258"/><ellipse cx="55.25" cy="274" fill="#008000" rx="11" ry="11" style="stroke:#A80036;stroke-width:1.0;"/><path d="M58.2231,279.6431 Q57.6421,279.9419 57.0029,280.0913 Q56.3638,280.2407 55.6582,280.2407 Q53.1514,280.2407 51.8315,278.5889 Q50.5117,276.937 50.5117,273.8159 Q50.5117,270.6865 51.8315,269.0347 Q53.1514,267.3828 55.6582,267.3828 Q56.3638,267.3828 57.0112,267.5322 Q57.6587,267.6816 58.2231,267.9805 L58.2231,270.7031 Q57.5923,270.1221 56.9988,269.8523 Q56.4053,269.5825 55.7744,269.5825 Q54.4297,269.5825 53.7449,270.6492 Q53.0601,271.7158 53.0601,273.8159 Q53.0601,275.9077 53.7449,276.9744 Q54.4297,278.041 55.7744,278.041 Q56.4053,278.041 56.9988,277.7712 Q57.5923,277.5015 58.2231,276.9204 Z " fill="#000000"/><text fill="#000000" font-family="sans-serif" font-size="12" lengthAdjust="spacing" textLength="44" x="75.75" y="278.5352">Process</text><line style="stroke:#A80036;stroke-width:1.5;" x1="8" x2="155" y1="290" y2="290"/><ellipse cx="18" cy="317.9551" rx="3" ry="3" style="stroke:#038048;stroke-width:1.0;fill:none;"/><text fill="#000000" font-family="sans-serif" font-size="11" lengthAdjust="spacing" textLength="83" x="27" y="321.5898">runner = 'shell'</text><ellipse cx="18" cy="330.9102" rx="3" ry="3" style="stroke:#038048;stroke-width:1.0;fill:none;"/><text fill="#000000" font-family="sans-serif" font-size="11" font-weight="bold" lengthAdjust="spacing" textLength="123" x="27" y="334.5449">command : Command</text><line style="stroke:#A80036;stroke-width:1.0;stroke-dasharray:1.0,2.0;" x1="8" x2="53.5" y1="304.4775" y2="304.4775"/><text fill="#000000" font-family="sans-serif" font-size="11" lengthAdjust="spacing" textLength="56" x="53.5" y="308.1348">properties</text><line style="stroke:#A80036;stroke-width:1.0;stroke-dasharray:1.0,2.0;" x1="109.5" x2="155" y1="304.4775" y2="304.4775"/><!--MD5=[380ab49f735fa8cf23e84c2cf2d2f925]
class Container_CT--><rect codeLine="26" fill="#FEFECE" filter="url(#f12rigm055bn4l)" height="108.7754" id="Container_CT" style="stroke:#A80036;stroke-width:1.5;" width="205" x="191" y="245"/><ellipse cx="261.75" cy="261" fill="#008000" rx="11" ry="11" style="stroke:#A80036;stroke-width:1.0;"/><path d="M264.7231,266.6431 Q264.1421,266.9419 263.5029,267.0913 Q262.8638,267.2407 262.1582,267.2407 Q259.6514,267.2407 258.3315,265.5889 Q257.0117,263.937 257.0117,260.8159 Q257.0117,257.6865 258.3315,256.0347 Q259.6514,254.3828 262.1582,254.3828 Q262.8638,254.3828 263.5112,254.5322 Q264.1587,254.6816 264.7231,254.9805 L264.7231,257.7031 Q264.0923,257.1221 263.4988,256.8523 Q262.9053,256.5825 262.2744,256.5825 Q260.9297,256.5825 260.2449,257.6492 Q259.5601,258.7158 259.5601,260.8159 Q259.5601,262.9077 260.2449,263.9744 Q260.9297,265.041 262.2744,265.041 Q262.9053,265.041 263.4988,264.7712 Q264.0923,264.5015 264.7231,263.9204 Z " fill="#000000"/><text fill="#000000" font-family="sans-serif" font-size="12" lengthAdjust="spacing" textLength="55" x="282.25" y="265.5352">Container</text><line style="stroke:#A80036;stroke-width:1.5;" x1="192" x2="395" y1="277" y2="277"/><ellipse cx="202" cy="304.9551" rx="3" ry="3" style="stroke:#038048;stroke-width:1.0;fill:none;"/><text fill="#000000" font-family="sans-serif" font-size="11" lengthAdjust="spacing" textLength="102" x="211" y="308.5898">runner = 'podman'</text><ellipse cx="202" cy="317.9102" rx="3" ry="3" style="stroke:#038048;stroke-width:1.0;fill:none;"/><text fill="#000000" font-family="sans-serif" font-size="11" lengthAdjust="spacing" textLength="70" x="211" y="321.5449">name : string</text><ellipse cx="202" cy="330.8652" rx="3" ry="3" style="stroke:#038048;stroke-width:1.0;fill:none;"/><text fill="#000000" font-family="sans-serif" font-size="11" lengthAdjust="spacing" textLength="179" x="211" y="334.5">image : ContainerImageReference</text><ellipse cx="202" cy="343.8203" rx="3" ry="3" style="stroke:#038048;stroke-width:1.0;fill:none;"/><text fill="#000000" font-family="sans-serif" font-size="11" lengthAdjust="spacing" textLength="172" x="211" y="347.4551">create-arguments : list&lt;string&gt;</text><line style="stroke:#A80036;stroke-width:1.0;stroke-dasharray:1.0,2.0;" x1="192" x2="265.5" y1="291.4775" y2="291.4775"/><text fill="#000000" font-family="sans-serif" font-size="11" lengthAdjust="spacing" textLength="56" x="265.5" y="295.1348">properties</text><line style="stroke:#A80036;stroke-width:1.0;stroke-dasharray:1.0,2.0;" x1="321.5" x2="395" y1="291.4775" y2="291.4775"/><!--MD5=[ee45b0e6d113af41c81e2e169bb1069a]
class PristineContainer_CT--><rect codeLine="34" fill="#FEFECE" filter="url(#f12rigm055bn4l)" height="69.9102" id="PristineContainer_CT" style="stroke:#A80036;stroke-width:1.5;" width="137" x="129" y="414"/><ellipse cx="147.6" cy="430" fill="#008000" rx="11" ry="11" style="stroke:#A80036;stroke-width:1.0;"/><path d="M150.5731,435.6431 Q149.9921,435.9419 149.3529,436.0913 Q148.7138,436.2407 148.0082,436.2407 Q145.5014,436.2407 144.1815,434.5889 Q142.8617,432.937 142.8617,429.8159 Q142.8617,426.6865 144.1815,425.0347 Q145.5014,423.3828 148.0082,423.3828 Q148.7138,423.3828 149.3612,423.5322 Q150.0087,423.6816 150.5731,423.9805 L150.5731,426.7031 Q149.9423,426.1221 149.3488,425.8523 Q148.7553,425.5825 148.1244,425.5825 Q146.7797,425.5825 146.0949,426.6492 Q145.4101,427.7158 145.4101,429.8159 Q145.4101,431.9077 146.0949,432.9744 Q146.7797,434.041 148.1244,434.041 Q148.7553,434.041 149.3488,433.7712 Q149.9423,433.5015 150.5731,432.9204 Z " fill="#000000"/><text fill="#000000" font-family="sans-serif" font-size="12" lengthAdjust="spacing" textLength="97" x="162.4" y="434.5352">PristineContainer</text><line style="stroke:#A80036;stroke-width:1.5;" x1="130" x2="265" y1="446" y2="446"/><ellipse cx="140" cy="473.9551" rx="3" ry="3" style="stroke:#038048;stroke-width:1.0;fill:none;"/><text fill="#000000" font-family="sans-serif" font-size="11" lengthAdjust="spacing" textLength="111" x="149" y="477.5898">runner = 'distrobox'</text><line style="stroke:#A80036;stroke-width:1.0;stroke-dasharray:1.0,2.0;" x1="130" x2="169.5" y1="460.4775" y2="460.4775"/><text fill="#000000" font-family="sans-serif" font-size="11" lengthAdjust="spacing" textLength="56" x="169.5" y="464.1348">properties</text><line style="stroke:#A80036;stroke-width:1.0;stroke-dasharray:1.0,2.0;" x1="225.5" x2="265" y1="460.4775" y2="460.4775"/><!--MD5=[901e1529c6936e43c4dfe6e9bf9ec8fb]
class SystemContainer_CT--><rect codeLine="39" fill="#FEFECE" filter="url(#f12rigm055bn4l)" height="69.9102" id="SystemContainer_CT" style="stroke:#A80036;stroke-width:1.5;" width="176" x="301.5" y="414"/><ellipse cx="338.55" cy="430" fill="#008000" rx="11" ry="11" style="stroke:#A80036;stroke-width:1.0;"/><path d="M341.5231,435.6431 Q340.9421,435.9419 340.3029,436.0913 Q339.6638,436.2407 338.9582,436.2407 Q336.4514,436.2407 335.1315,434.5889 Q333.8117,432.937 333.8117,429.8159 Q333.8117,426.6865 335.1315,425.0347 Q336.4514,423.3828 338.9582,423.3828 Q339.6638,423.3828 340.3112,423.5322 Q340.9587,423.6816 341.5231,423.9805 L341.5231,426.7031 Q340.8923,426.1221 340.2988,425.8523 Q339.7053,425.5825 339.0744,425.5825 Q337.7297,425.5825 337.0449,426.6492 Q336.3601,427.7158 336.3601,429.8159 Q336.3601,431.9077 337.0449,432.9744 Q337.7297,434.041 339.0744,434.041 Q339.7053,434.041 340.2988,433.7712 Q340.8923,433.5015 341.5231,432.9204 Z " fill="#000000"/><text fill="#000000" font-family="sans-serif" font-size="12" lengthAdjust="spacing" textLength="95" x="357.45" y="434.5352">SystemContainer</text><line style="stroke:#A80036;stroke-width:1.5;" x1="302.5" x2="476.5" y1="446" y2="446"/><ellipse cx="312.5" cy="473.9551" rx="3" ry="3" style="stroke:#038048;stroke-width:1.0;fill:none;"/><text fill="#000000" font-family="sans-serif" font-size="11" lengthAdjust="spacing" textLength="150" x="321.5" y="477.5898">runner = 'systemd-nspawn'</text><line style="stroke:#A80036;stroke-width:1.0;stroke-dasharray:1.0,2.0;" x1="302.5" x2="361.5" y1="460.4775" y2="460.4775"/><text fill="#000000" font-family="sans-serif" font-size="11" lengthAdjust="spacing" textLength="56" x="361.5" y="464.1348">properties</text><line style="stroke:#A80036;stroke-width:1.0;stroke-dasharray:1.0,2.0;" x1="417.5" x2="476.5" y1="460.4775" y2="460.4775"/><!--MD5=[090e9c8b1e5ce69f15dc4a881ecc3e4c]
class Pod_CT--><rect codeLine="44" fill="#FEFECE" filter="url(#f12rigm055bn4l)" height="82.8652" id="Pod_CT" style="stroke:#A80036;stroke-width:1.5;" width="245" x="431" y="258"/><ellipse cx="538.25" cy="274" fill="#008000" rx="11" ry="11" style="stroke:#A80036;stroke-width:1.0;"/><path d="M541.2231,279.6431 Q540.6421,279.9419 540.0029,280.0913 Q539.3638,280.2407 538.6582,280.2407 Q536.1514,280.2407 534.8315,278.5889 Q533.5117,276.937 533.5117,273.8159 Q533.5117,270.6865 534.8315,269.0347 Q536.1514,267.3828 538.6582,267.3828 Q539.3638,267.3828 540.0112,267.5322 Q540.6587,267.6816 541.2231,267.9805 L541.2231,270.7031 Q540.5923,270.1221 539.9988,269.8523 Q539.4053,269.5825 538.7744,269.5825 Q537.4297,269.5825 536.7449,270.6492 Q536.0601,271.7158 536.0601,273.8159 Q536.0601,275.9077 536.7449,276.9744 Q537.4297,278.041 538.7744,278.041 Q539.4053,278.041 539.9988,277.7712 Q540.5923,277.5015 541.2231,276.9204 Z " fill="#000000"/><text fill="#000000" font-family="sans-serif" font-size="12" lengthAdjust="spacing" textLength="22" x="558.75" y="278.5352">Pod</text><line style="stroke:#A80036;stroke-width:1.5;" x1="432" x2="675" y1="290" y2="290"/><ellipse cx="442" cy="317.9551" rx="3" ry="3" style="stroke:#038048;stroke-width:1.0;fill:none;"/><text fill="#000000" font-family="sans-serif" font-size="11" lengthAdjust="spacing" textLength="102" x="451" y="321.5898">runner = 'podman'</text><ellipse cx="442" cy="330.9102" rx="3" ry="3" style="stroke:#038048;stroke-width:1.0;fill:none;"/><text fill="#000000" font-family="sans-serif" font-size="11" lengthAdjust="spacing" textLength="219" x="451" y="334.5449">images : list&lt;ContainerImageReference&gt;</text><line style="stroke:#A80036;stroke-width:1.0;stroke-dasharray:1.0,2.0;" x1="432" x2="525.5" y1="304.4775" y2="304.4775"/><text fill="#000000" font-family="sans-serif" font-size="11" lengthAdjust="spacing" textLength="56" x="525.5" y="308.1348">properties</text><line style="stroke:#A80036;stroke-width:1.0;stroke-dasharray:1.0,2.0;" x1="581.5" x2="675" y1="304.4775" y2="304.4775"/><!--MD5=[df33a53dd4ec8618ff94105a8a4033fa]
class VirtualMachine_CT--><rect codeLine="50" fill="#FEFECE" filter="url(#f12rigm055bn4l)" height="48" id="VirtualMachine_CT" style="stroke:#A80036;stroke-width:1.5;" width="116" x="711.5" y="275.5"/><ellipse cx="726.5" cy="291.5" fill="#008000" rx="11" ry="11" style="stroke:#A80036;stroke-width:1.0;"/><path d="M729.4731,297.1431 Q728.8921,297.4419 728.2529,297.5913 Q727.6138,297.7407 726.9082,297.7407 Q724.4014,297.7407 723.0815,296.0889 Q721.7617,294.437 721.7617,291.3159 Q721.7617,288.1865 723.0815,286.5347 Q724.4014,284.8828 726.9082,284.8828 Q727.6138,284.8828 728.2612,285.0322 Q728.9087,285.1816 729.4731,285.4805 L729.4731,288.2031 Q728.8423,287.6221 728.2488,287.3523 Q727.6553,287.0825 727.0244,287.0825 Q725.6797,287.0825 724.9949,288.1492 Q724.3101,289.2158 724.3101,291.3159 Q724.3101,293.4077 724.9949,294.4744 Q725.6797,295.541 727.0244,295.541 Q727.6553,295.541 728.2488,295.2712 Q728.8423,295.0015 729.4731,294.4204 Z " fill="#000000"/><text fill="#000000" font-family="sans-serif" font-size="12" lengthAdjust="spacing" textLength="84" x="740.5" y="296.0352">VirtualMachine</text><line style="stroke:#A80036;stroke-width:1.5;" x1="712.5" x2="826.5" y1="307.5" y2="307.5"/><line style="stroke:#A80036;stroke-width:1.5;" x1="712.5" x2="826.5" y1="315.5" y2="315.5"/><!--MD5=[d8a53694d79e1c14f2bee499931dcdbf]
class ContainerConnectable_CT--><rect codeLine="53" fill="#FEFECE" filter="url(#f12rigm055bn4l)" height="69.9102" id="ContainerConnectable_CT" style="stroke:#A80036;stroke-width:1.5;" width="173" x="863" y="264.5"/><ellipse cx="884.75" cy="280.5" fill="#008000" rx="11" ry="11" style="stroke:#A80036;stroke-width:1.0;"/><path d="M887.7231,286.1431 Q887.1421,286.4419 886.5029,286.5913 Q885.8638,286.7407 885.1582,286.7407 Q882.6514,286.7407 881.3315,285.0889 Q880.0117,283.437 880.0117,280.3159 Q880.0117,277.1865 881.3315,275.5347 Q882.6514,273.8828 885.1582,273.8828 Q885.8638,273.8828 886.5112,274.0322 Q887.1587,274.1816 887.7231,274.4805 L887.7231,277.2031 Q887.0923,276.6221 886.4988,276.3523 Q885.9053,276.0825 885.2744,276.0825 Q883.9297,276.0825 883.2449,277.1492 Q882.5601,278.2158 882.5601,280.3159 Q882.5601,282.4077 883.2449,283.4744 Q883.9297,284.541 885.2744,284.541 Q885.9053,284.541 886.4988,284.2712 Q887.0923,284.0015 887.7231,283.4204 Z " fill="#000000"/><text fill="#000000" font-family="sans-serif" font-size="12" lengthAdjust="spacing" textLength="126" x="900.25" y="285.0352">ContainerConnectable</text><line style="stroke:#A80036;stroke-width:1.5;" x1="864" x2="1035" y1="296.5" y2="296.5"/><ellipse cx="874" cy="324.4551" rx="3" ry="3" style="stroke:#038048;stroke-width:1.0;fill:none;"/><text fill="#000000" font-family="sans-serif" font-size="11" lengthAdjust="spacing" textLength="147" x="883" y="328.0898">ports : list&lt;ContainerPort&gt;</text><line style="stroke:#A80036;stroke-width:1.0;stroke-dasharray:1.0,2.0;" x1="864" x2="921.5" y1="310.9775" y2="310.9775"/><text fill="#000000" font-family="sans-serif" font-size="11" lengthAdjust="spacing" textLength="56" x="921.5" y="314.6348">properties</text><line style="stroke:#A80036;stroke-width:1.0;stroke-dasharray:1.0,2.0;" x1="977.5" x2="1035" y1="310.9775" y2="310.9775"/><!--MD5=[37cfa7e35971ef6ba6b5b1be3043be37]
class LocalDirectory_CT--><rect codeLine="58" fill="#FEFECE" filter="url(#f12rigm055bn4l)" height="82.8652" id="LocalDirectory_CT" style="stroke:#A80036;stroke-width:1.5;" width="183" x="1071" y="258"/><ellipse cx="1117.75" cy="274" fill="#008000" rx="11" ry="11" style="stroke:#A80036;stroke-width:1.0;"/><path d="M1120.7231,279.6431 Q1120.1421,279.9419 1119.5029,280.0913 Q1118.8638,280.2407 1118.1582,280.2407 Q1115.6514,280.2407 1114.3315,278.5889 Q1113.0117,276.937 1113.0117,273.8159 Q1113.0117,270.6865 1114.3315,269.0347 Q1115.6514,267.3828 1118.1582,267.3828 Q1118.8638,267.3828 1119.5112,267.5322 Q1120.1587,267.6816 1120.7231,267.9805 L1120.7231,270.7031 Q1120.0923,270.1221 1119.4988,269.8523 Q1118.9053,269.5825 1118.2744,269.5825 Q1116.9297,269.5825 1116.2449,270.6492 Q1115.5601,271.7158 1115.5601,273.8159 Q1115.5601,275.9077 1116.2449,276.9744 Q1116.9297,278.041 1118.2744,278.041 Q1118.9053,278.041 1119.4988,277.7712 Q1120.0923,277.5015 1120.7231,276.9204 Z " fill="#000000"/><text fill="#000000" font-family="sans-serif" font-size="12" lengthAdjust="spacing" textLength="81" x="1138.25" y="278.5352">LocalDirectory</text><line style="stroke:#A80036;stroke-width:1.5;" x1="1072" x2="1253" y1="290" y2="290"/><ellipse cx="1082" cy="317.9551" rx="3" ry="3" style="stroke:#038048;stroke-width:1.0;fill:none;"/><text fill="#000000" font-family="sans-serif" font-size="11" lengthAdjust="spacing" textLength="65" x="1091" y="321.5898">path : string</text><ellipse cx="1082" cy="330.9102" rx="3" ry="3" style="stroke:#038048;stroke-width:1.0;fill:none;"/><text fill="#000000" font-family="sans-serif" font-size="11" font-weight="bold" lengthAdjust="spacing" textLength="157" x="1091" y="334.5449">temporary : boolean = False</text><line style="stroke:#A80036;stroke-width:1.0;stroke-dasharray:1.0,2.0;" x1="1072" x2="1134.5" y1="304.4775" y2="304.4775"/><text fill="#000000" font-family="sans-serif" font-size="11" lengthAdjust="spacing" textLength="56" x="1134.5" y="308.1348">properties</text><line style="stroke:#A80036;stroke-width:1.0;stroke-dasharray:1.0,2.0;" x1="1190.5" x2="1253" y1="304.4775" y2="304.4775"/><!--MD5=[d624f3b0029c35e82192751a9d0dc4da]
reverse link Runnable_CT to Process_CT--><path codeLine="25" d="M291.7483,174.3961 C243.92,202.8553 191.7616,233.8911 151.3605,257.9309 " fill="none" id="Runnable_CT-backto-Process_CT" style="stroke:#A80036;stroke-width:1.0;"/><polygon fill="none" points="288.3765,168.2569,309.1435,164.0455,295.5355,180.2882,288.3765,168.2569" style="stroke:#A80036;stroke-width:1.0;"/><!--MD5=[e0f03c27fdccfc9d0960bd880d6d7099]
reverse link Runnable_CT to Container_CT--><path codeLine="33" d="M355.4882,202.4647 C346.1175,217.1334 336.8305,231.6711 328.4084,244.8549 " fill="none" id="Runnable_CT-backto-Container_CT" style="stroke:#A80036;stroke-width:1.0;"/><polygon fill="none" points="349.814,198.3441,366.4801,185.2581,361.6122,205.881,349.814,198.3441" style="stroke:#A80036;stroke-width:1.0;"/><!--MD5=[b63f4b67a6ccde940d215b29edbed1f8]
reverse link Container_CT to PristineContainer_CT--><path codeLine="38" d="M247.3326,371.3961 C237.8793,386.1176 228.3312,400.9869 220.1576,413.7156 " fill="none" id="Container_CT-backto-PristineContainer_CT" style="stroke:#A80036;stroke-width:1.0;"/><polygon fill="none" points="241.6014,367.3661,258.2983,354.3194,253.3818,374.9308,241.6014,367.3661" style="stroke:#A80036;stroke-width:1.0;"/><!--MD5=[56fdc77bd3914a6ae6bc66c211d9162f]
reverse link Container_CT to SystemContainer_CT--><path codeLine="43" d="M339.6674,371.3961 C349.1207,386.1176 358.6688,400.9869 366.8424,413.7156 " fill="none" id="Container_CT-backto-SystemContainer_CT" style="stroke:#A80036;stroke-width:1.0;"/><polygon fill="none" points="333.6182,374.9308,328.7017,354.3194,345.3986,367.3661,333.6182,374.9308" style="stroke:#A80036;stroke-width:1.0;"/><!--MD5=[df446c69bb00c8f0bc49471110a79ead]
reverse link Runnable_CT to Pod_CT--><path codeLine="49" d="M491.3743,202.2494 C504.0169,222.04 516.5143,241.6031 526.9482,257.9362 " fill="none" id="Runnable_CT-backto-Pod_CT" style="stroke:#A80036;stroke-width:1.0;"/><polygon fill="none" points="485.3878,205.881,480.5199,185.2581,497.186,198.3441,485.3878,205.881" style="stroke:#A80036;stroke-width:1.0;"/><!--MD5=[580dd0eb7cd71377fb3a0d313c3768b1]
reverse link Runnable_CT to VirtualMachine_CT--><path codeLine="52" d="M555.3058,164.6978 C599.8478,188.9729 649.4362,217.1781 693.5,245 C708.3271,254.3618 724.1702,265.5244 737.5331,275.3022 " fill="none" id="Runnable_CT-backto-VirtualMachine_CT" style="stroke:#A80036;stroke-width:1.0;"/><polygon fill="none" points="551.7886,170.7537,537.5353,155.0742,558.4555,158.443,551.7886,170.7537" style="stroke:#A80036;stroke-width:1.0;"/><!--MD5=[e5e1f13c4371c7c1b0b299f9f077fcd1]
reverse link Connectable_CT to ContainerConnectable_CT--><path codeLine="57" d="M949.5,151.6014 C949.5,187.6238 949.5,233.4374 949.5,264.4592 " fill="none" id="Connectable_CT-backto-ContainerConnectable_CT" style="stroke:#A80036;stroke-width:1.0;"/><polygon fill="none" points="942.5001,151.447,949.5,131.447,956.5001,151.447,942.5001,151.447" style="stroke:#A80036;stroke-width:1.0;"/><!--MD5=[5baff5abc57f451996dcf7bd30add695]
reverse link Storage_CT to LocalDirectory_CT--><path codeLine="63" d="M1162.5,140.3779 C1162.5,175.2718 1162.5,223.5381 1162.5,257.7392 " fill="none" id="Storage_CT-backto-LocalDirectory_CT" style="stroke:#A80036;stroke-width:1.0;"/><polygon fill="none" points="1155.5001,140.1433,1162.5,120.1433,1169.5001,140.1432,1155.5001,140.1433" style="stroke:#A80036;stroke-width:1.0;"/><!--MD5=[7f553757cca9bd5ab8c572646c48babc]
@startuml
set namespaceSeparator none
class "Runnable" as Runnable_CT << (C,green) >> {
.. attributes ..
+<b>host : string
.. properties ..
+runner : string
+<b>temporality : string = 'Continuous'
+specific-temporality : timestamp
+delayed-temporality : scalar-unit.time
+recurring-temporality : Schedule
+user : string
+<b>systemd : boolean = True
}
class "Connectable" as Connectable_CT << (C,green) >> {
.. properties ..
+<b>standby : boolean = False
}
class "Storage" as Storage_CT << (C,green) >> {
}
class "Process" as Process_CT << (C,green) >> {
.. properties ..
+runner = 'shell'
+<b>command : Command
}
Runnable_CT <|- - Process_CT
class "Container" as Container_CT << (C,green) >> {
.. properties ..
+runner = 'podman'
+name : string
+image : ContainerImageReference
+create-arguments : list<string>
}
Runnable_CT <|- - Container_CT
class "PristineContainer" as PristineContainer_CT << (C,green) >> {
.. properties ..
+runner = 'distrobox'
}
Container_CT <|- - PristineContainer_CT
class "SystemContainer" as SystemContainer_CT << (C,green) >> {
.. properties ..
+runner = 'systemd-nspawn'
}
Container_CT <|- - SystemContainer_CT
class "Pod" as Pod_CT << (C,green) >> {
.. properties ..
+runner = 'podman'
+images : list<ContainerImageReference>
}
Runnable_CT <|- - Pod_CT
class "VirtualMachine" as VirtualMachine_CT << (C,green) >> {
}
Runnable_CT <|- - VirtualMachine_CT
class "ContainerConnectable" as ContainerConnectable_CT << (C,green) >> {
.. properties ..
+ports : list<ContainerPort>
}
Connectable_CT <|- - ContainerConnectable_CT
class "LocalDirectory" as LocalDirectory_CT << (C,green) >> {
.. properties ..
+path : string
+<b>temporary : boolean = False
}
Storage_CT <|- - LocalDirectory_CT
@enduml

PlantUML version 1.2021.13(Mon Nov 01 12:38:45 CET 2021)
(GPL source distribution)
Java Runtime: Java(TM) SE Runtime Environment
JVM: Java HotSpot(TM) 64-Bit Server VM
Default Encoding: UTF-8
Language: fr
Country: FR
--></g></svg>