<?xml version="1.0" encoding="UTF-8" standalone="no"?><svg xmlns="http://www.w3.org/2000/svg" xmlns:xlink="http://www.w3.org/1999/xlink" contentScriptType="application/ecmascript" contentStyleType="text/css" height="510px" preserveAspectRatio="none" style="width:1259px;height:510px;background:#FFFFFF;" version="1.1" viewBox="0 0 1259 510" width="1259px" zoomAndPan="magnify"><defs><filter height="300%" id="f1d0su5uck5zk6" width="300%" x="-1" y="-1"><feGaussianBlur result="blurOut" stdDeviation="2.0"/><feColorMatrix in="blurOut" result="blurOut2" type="matrix" values="0 0 0 0 0 0 0 0 0 0 0 0 0 0 0 0 0 0 .4 0"/><feOffset dx="4.0" dy="4.0" in="blurOut2" result="blurOut3"/><feBlend in="SourceGraphic" in2="blurOut3" mode="normal"/></filter></defs><g><!--MD5=[06f04b6e631bdb69101cb18443b62756]
class Runnable_CT--><rect codeLine="2" fill="#FEFECE" filter="url(#f1d0su5uck5zk6)" height="177.5508" id="Runnable_CT" style="stroke:#A80036;stroke-width:1.5;" width="228" x="309.5" y="7"/><ellipse cx="392.25" cy="23" fill="#008000" rx="11" ry="11" style="stroke:#A80036;stroke-width:1.0;"/><path d="M395.2231,28.6431 Q394.6421,28.9419 394.0029,29.0913 Q393.3638,29.2407 392.6582,29.2407 Q390.1514,29.2407 388.8315,27.5889 Q387.5117,25.937 387.5117,22.8159 Q387.5117,19.6865 388.8315,18.0347 Q390.1514,16.3828 392.6582,16.3828 Q393.3638,16.3828 394.0112,16.5322 Q394.6587,16.6816 395.2231,16.9805 L395.2231,19.7031 Q394.5923,19.1221 393.9988,18.8523 Q393.4053,18.5825 392.7744,18.5825 Q391.4297,18.5825 390.7449,19.6492 Q390.0601,20.7158 390.0601,22.8159 Q390.0601,24.9077 390.7449,25.9744 Q391.4297,27.041 392.7744,27.041 Q393.4053,27.041 393.9988,26.7712 Q394.5923,26.5015 395.2231,25.9204 Z " fill="#000000"/><text fill="#000000" font-family="sans-serif" font-size="12" lengthAdjust="spacing" textLength="54" x="412.75" y="27.5352">Runnable</text><line style="stroke:#A80036;stroke-width:1.5;" x1="310.5" x2="536.5" y1="39" y2="39"/><ellipse cx="320.5" cy="66.9551" rx="3" ry="3" style="stroke:#038048;stroke-width:1.0;fill:none;"/><text fill="#000000" font-family="sans-serif" font-size="11" font-weight="bold" lengthAdjust="spacing" textLength="68" x="329.5" y="70.5898">host : string</text><line style="stroke:#A80036;stroke-width:1.0;stroke-dasharray:1.0,2.0;" x1="310.5" x2="397.5" y1="53.4775" y2="53.4775"/><text fill="#000000" font-family="sans-serif" font-size="11" lengthAdjust="spacing" textLength="52" x="397.5" y="57.1348">attributes</text><line style="stroke:#A80036;stroke-width:1.0;stroke-dasharray:1.0,2.0;" x1="449.5" x2="536.5" y1="53.4775" y2="53.4775"/><ellipse cx="320.5" cy="96.8652" rx="3" ry="3" style="stroke:#038048;stroke-width:1.0;fill:none;"/><text fill="#000000" font-family="sans-serif" font-size="11" lengthAdjust="spacing" textLength="78" x="329.5" y="100.5">runner : string</text><ellipse cx="320.5" cy="109.8203" rx="3" ry="3" style="stroke:#038048;stroke-width:1.0;fill:none;"/><text fill="#000000" font-family="sans-serif" font-size="11" font-weight="bold" lengthAdjust="spacing" textLength="195" x="329.5" y="113.4551">temporality : string = 'Continuous'</text><ellipse cx="320.5" cy="122.7754" rx="3" ry="3" style="stroke:#038048;stroke-width:1.0;fill:none;"/><text fill="#000000" font-family="sans-serif" font-size="11" lengthAdjust="spacing" textLength="173" x="329.5" y="126.4102">specific-temporality : timestamp</text><ellipse cx="320.5" cy="135.7305" rx="3" ry="3" style="stroke:#038048;stroke-width:1.0;fill:none;"/><text fill="#000000" font-family="sans-serif" font-size="11" lengthAdjust="spacing" textLength="202" x="329.5" y="139.3652">delayed-temporality : scalar-unit.time</text><ellipse cx="320.5" cy="148.6855" rx="3" ry="3" style="stroke:#038048;stroke-width:1.0;fill:none;"/><text fill="#000000" font-family="sans-serif" font-size="11" lengthAdjust="spacing" textLength="175" x="329.5" y="152.3203">recurring-temporality : Schedule</text><ellipse cx="320.5" cy="161.6406" rx="3" ry="3" style="stroke:#038048;stroke-width:1.0;fill:none;"/><text fill="#000000" font-family="sans-serif" font-size="11" lengthAdjust="spacing" textLength="65" x="329.5" y="165.2754">user : string</text><ellipse cx="320.5" cy="174.5957" rx="3" ry="3" style="stroke:#038048;stroke-width:1.0;fill:none;"/><text fill="#000000" font-family="sans-serif" font-size="11" font-weight="bold" lengthAdjust="spacing" textLength="144" x="329.5" y="178.2305">systemd : boolean = True</text><line style="stroke:#A80036;stroke-width:1.0;stroke-dasharray:1.0,2.0;" x1="310.5" x2="395.5" y1="83.3877" y2="83.3877"/><text fill="#000000" font-family="sans-serif" font-size="11" lengthAdjust="spacing" textLength="56" x="395.5" y="87.0449">properties</text><line style="stroke:#A80036;stroke-width:1.0;stroke-dasharray:1.0,2.0;" x1="451.5" x2="536.5" y1="83.3877" y2="83.3877"/><!--MD5=[31c8c1c66eca08a592894fe24cd020a8]
class Connectible_CT--><rect codeLine="14" fill="#FEFECE" filter="url(#f1d0su5uck5zk6)" height="48" id="Connectible_CT" style="stroke:#A80036;stroke-width:1.5;" width="99" x="895" y="72"/><ellipse cx="910" cy="88" fill="#008000" rx="11" ry="11" style="stroke:#A80036;stroke-width:1.0;"/><path d="M912.9731,93.6431 Q912.3921,93.9419 911.7529,94.0913 Q911.1138,94.2407 910.4082,94.2407 Q907.9014,94.2407 906.5815,92.5889 Q905.2617,90.937 905.2617,87.8159 Q905.2617,84.6865 906.5815,83.0347 Q907.9014,81.3828 910.4082,81.3828 Q911.1138,81.3828 911.7612,81.5322 Q912.4087,81.6816 912.9731,81.9805 L912.9731,84.7031 Q912.3423,84.1221 911.7488,83.8523 Q911.1553,83.5825 910.5244,83.5825 Q909.1797,83.5825 908.4949,84.6492 Q907.8101,85.7158 907.8101,87.8159 Q907.8101,89.9077 908.4949,90.9744 Q909.1797,92.041 910.5244,92.041 Q911.1553,92.041 911.7488,91.7712 Q912.3423,91.5015 912.9731,90.9204 Z " fill="#000000"/><text fill="#000000" font-family="sans-serif" font-size="12" lengthAdjust="spacing" textLength="67" x="924" y="92.5352">Connectible</text><line style="stroke:#A80036;stroke-width:1.5;" x1="896" x2="993" y1="104" y2="104"/><line style="stroke:#A80036;stroke-width:1.5;" x1="896" x2="993" y1="112" y2="112"/><!--MD5=[f1d3f434f571668a038b25da07bf18bd]
class Storage_CT--><rect codeLine="16" fill="#FEFECE" filter="url(#f1d0su5uck5zk6)" height="48" id="Storage_CT" style="stroke:#A80036;stroke-width:1.5;" width="75" x="1116" y="72"/><ellipse cx="1131" cy="88" fill="#008000" rx="11" ry="11" style="stroke:#A80036;stroke-width:1.0;"/><path d="M1133.9731,93.6431 Q1133.3921,93.9419 1132.7529,94.0913 Q1132.1138,94.2407 1131.4082,94.2407 Q1128.9014,94.2407 1127.5815,92.5889 Q1126.2617,90.937 1126.2617,87.8159 Q1126.2617,84.6865 1127.5815,83.0347 Q1128.9014,81.3828 1131.4082,81.3828 Q1132.1138,81.3828 1132.7612,81.5322 Q1133.4087,81.6816 1133.9731,81.9805 L1133.9731,84.7031 Q1133.3423,84.1221 1132.7488,83.8523 Q1132.1553,83.5825 1131.5244,83.5825 Q1130.1797,83.5825 1129.4949,84.6492 Q1128.8101,85.7158 1128.8101,87.8159 Q1128.8101,89.9077 1129.4949,90.9744 Q1130.1797,92.041 1131.5244,92.041 Q1132.1553,92.041 1132.7488,91.7712 Q1133.3423,91.5015 1133.9731,90.9204 Z " fill="#000000"/><text fill="#000000" font-family="sans-serif" font-size="12" lengthAdjust="spacing" textLength="43" x="1145" y="92.5352">Storage</text><line style="stroke:#A80036;stroke-width:1.5;" x1="1117" x2="1190" y1="104" y2="104"/><line style="stroke:#A80036;stroke-width:1.5;" x1="1117" x2="1190" y1="112" y2="112"/><!--MD5=[a6a18bf96af6a50f68a3f94aaf01dc1f]
class Process_CT--><rect codeLine="18" fill="#FEFECE" filter="url(#f1d0su5uck5zk6)" height="82.8652" id="Process_CT" style="stroke:#A80036;stroke-width:1.5;" width="149" x="7" y="264.5"/><ellipse cx="55.25" cy="280.5" fill="#008000" rx="11" ry="11" style="stroke:#A80036;stroke-width:1.0;"/><path d="M58.2231,286.1431 Q57.6421,286.4419 57.0029,286.5913 Q56.3638,286.7407 55.6582,286.7407 Q53.1514,286.7407 51.8315,285.0889 Q50.5117,283.437 50.5117,280.3159 Q50.5117,277.1865 51.8315,275.5347 Q53.1514,273.8828 55.6582,273.8828 Q56.3638,273.8828 57.0112,274.0322 Q57.6587,274.1816 58.2231,274.4805 L58.2231,277.2031 Q57.5923,276.6221 56.9988,276.3523 Q56.4053,276.0825 55.7744,276.0825 Q54.4297,276.0825 53.7449,277.1492 Q53.0601,278.2158 53.0601,280.3159 Q53.0601,282.4077 53.7449,283.4744 Q54.4297,284.541 55.7744,284.541 Q56.4053,284.541 56.9988,284.2712 Q57.5923,284.0015 58.2231,283.4204 Z " fill="#000000"/><text fill="#000000" font-family="sans-serif" font-size="12" lengthAdjust="spacing" textLength="44" x="75.75" y="285.0352">Process</text><line style="stroke:#A80036;stroke-width:1.5;" x1="8" x2="155" y1="296.5" y2="296.5"/><ellipse cx="18" cy="324.4551" rx="3" ry="3" style="stroke:#038048;stroke-width:1.0;fill:none;"/><text fill="#000000" font-family="sans-serif" font-size="11" lengthAdjust="spacing" textLength="83" x="27" y="328.0898">runner = 'shell'</text><ellipse cx="18" cy="337.4102" rx="3" ry="3" style="stroke:#038048;stroke-width:1.0;fill:none;"/><text fill="#000000" font-family="sans-serif" font-size="11" font-weight="bold" lengthAdjust="spacing" textLength="123" x="27" y="341.0449">command : Command</text><line style="stroke:#A80036;stroke-width:1.0;stroke-dasharray:1.0,2.0;" x1="8" x2="53.5" y1="310.9775" y2="310.9775"/><text fill="#000000" font-family="sans-serif" font-size="11" lengthAdjust="spacing" textLength="56" x="53.5" y="314.6348">properties</text><line style="stroke:#A80036;stroke-width:1.0;stroke-dasharray:1.0,2.0;" x1="109.5" x2="155" y1="310.9775" y2="310.9775"/><!--MD5=[380ab49f735fa8cf23e84c2cf2d2f925]
class Container_CT--><rect codeLine="24" fill="#FEFECE" filter="url(#f1d0su5uck5zk6)" height="121.7305" id="Container_CT" style="stroke:#A80036;stroke-width:1.5;" width="205" x="191" y="245"/><ellipse cx="261.75" cy="261" fill="#008000" rx="11" ry="11" style="stroke:#A80036;stroke-width:1.0;"/><path d="M264.7231,266.6431 Q264.1421,266.9419 263.5029,267.0913 Q262.8638,267.2407 262.1582,267.2407 Q259.6514,267.2407 258.3315,265.5889 Q257.0117,263.937 257.0117,260.8159 Q257.0117,257.6865 258.3315,256.0347 Q259.6514,254.3828 262.1582,254.3828 Q262.8638,254.3828 263.5112,254.5322 Q264.1587,254.6816 264.7231,254.9805 L264.7231,257.7031 Q264.0923,257.1221 263.4988,256.8523 Q262.9053,256.5825 262.2744,256.5825 Q260.9297,256.5825 260.2449,257.6492 Q259.5601,258.7158 259.5601,260.8159 Q259.5601,262.9077 260.2449,263.9744 Q260.9297,265.041 262.2744,265.041 Q262.9053,265.041 263.4988,264.7712 Q264.0923,264.5015 264.7231,263.9204 Z " fill="#000000"/><text fill="#000000" font-family="sans-serif" font-size="12" lengthAdjust="spacing" textLength="55" x="282.25" y="265.5352">Container</text><line style="stroke:#A80036;stroke-width:1.5;" x1="192" x2="395" y1="277" y2="277"/><ellipse cx="202" cy="304.9551" rx="3" ry="3" style="stroke:#038048;stroke-width:1.0;fill:none;"/><text fill="#000000" font-family="sans-serif" font-size="11" lengthAdjust="spacing" textLength="102" x="211" y="308.5898">runner = 'podman'</text><ellipse cx="202" cy="317.9102" rx="3" ry="3" style="stroke:#038048;stroke-width:1.0;fill:none;"/><text fill="#000000" font-family="sans-serif" font-size="11" lengthAdjust="spacing" textLength="70" x="211" y="321.5449">name : string</text><ellipse cx="202" cy="330.8652" rx="3" ry="3" style="stroke:#038048;stroke-width:1.0;fill:none;"/><text fill="#000000" font-family="sans-serif" font-size="11" lengthAdjust="spacing" textLength="179" x="211" y="334.5">image : ContainerImageReference</text><ellipse cx="202" cy="343.8203" rx="3" ry="3" style="stroke:#038048;stroke-width:1.0;fill:none;"/><text fill="#000000" font-family="sans-serif" font-size="11" lengthAdjust="spacing" textLength="172" x="211" y="347.4551">create-arguments : list&lt;string&gt;</text><ellipse cx="202" cy="356.7754" rx="3" ry="3" style="stroke:#038048;stroke-width:1.0;fill:none;"/><text fill="#000000" font-family="sans-serif" font-size="11" lengthAdjust="spacing" textLength="147" x="211" y="360.4102">ports : list&lt;ContainerPort&gt;</text><line style="stroke:#A80036;stroke-width:1.0;stroke-dasharray:1.0,2.0;" x1="192" x2="265.5" y1="291.4775" y2="291.4775"/><text fill="#000000" font-family="sans-serif" font-size="11" lengthAdjust="spacing" textLength="56" x="265.5" y="295.1348">properties</text><line style="stroke:#A80036;stroke-width:1.0;stroke-dasharray:1.0,2.0;" x1="321.5" x2="395" y1="291.4775" y2="291.4775"/><!--MD5=[ee45b0e6d113af41c81e2e169bb1069a]
class PristineContainer_CT--><rect codeLine="33" fill="#FEFECE" filter="url(#f1d0su5uck5zk6)" height="69.9102" id="PristineContainer_CT" style="stroke:#A80036;stroke-width:1.5;" width="137" x="129" y="427"/><ellipse cx="147.6" cy="443" fill="#008000" rx="11" ry="11" style="stroke:#A80036;stroke-width:1.0;"/><path d="M150.5731,448.6431 Q149.9921,448.9419 149.3529,449.0913 Q148.7138,449.2407 148.0082,449.2407 Q145.5014,449.2407 144.1815,447.5889 Q142.8617,445.937 142.8617,442.8159 Q142.8617,439.6865 144.1815,438.0347 Q145.5014,436.3828 148.0082,436.3828 Q148.7138,436.3828 149.3612,436.5322 Q150.0087,436.6816 150.5731,436.9805 L150.5731,439.7031 Q149.9423,439.1221 149.3488,438.8523 Q148.7553,438.5825 148.1244,438.5825 Q146.7797,438.5825 146.0949,439.6492 Q145.4101,440.7158 145.4101,442.8159 Q145.4101,444.9077 146.0949,445.9744 Q146.7797,447.041 148.1244,447.041 Q148.7553,447.041 149.3488,446.7712 Q149.9423,446.5015 150.5731,445.9204 Z " fill="#000000"/><text fill="#000000" font-family="sans-serif" font-size="12" lengthAdjust="spacing" textLength="97" x="162.4" y="447.5352">PristineContainer</text><line style="stroke:#A80036;stroke-width:1.5;" x1="130" x2="265" y1="459" y2="459"/><ellipse cx="140" cy="486.9551" rx="3" ry="3" style="stroke:#038048;stroke-width:1.0;fill:none;"/><text fill="#000000" font-family="sans-serif" font-size="11" lengthAdjust="spacing" textLength="111" x="149" y="490.5898">runner = 'distrobox'</text><line style="stroke:#A80036;stroke-width:1.0;stroke-dasharray:1.0,2.0;" x1="130" x2="169.5" y1="473.4775" y2="473.4775"/><text fill="#000000" font-family="sans-serif" font-size="11" lengthAdjust="spacing" textLength="56" x="169.5" y="477.1348">properties</text><line style="stroke:#A80036;stroke-width:1.0;stroke-dasharray:1.0,2.0;" x1="225.5" x2="265" y1="473.4775" y2="473.4775"/><!--MD5=[901e1529c6936e43c4dfe6e9bf9ec8fb]
class SystemContainer_CT--><rect codeLine="38" fill="#FEFECE" filter="url(#f1d0su5uck5zk6)" height="69.9102" id="SystemContainer_CT" style="stroke:#A80036;stroke-width:1.5;" width="176" x="301.5" y="427"/><ellipse cx="338.55" cy="443" fill="#008000" rx="11" ry="11" style="stroke:#A80036;stroke-width:1.0;"/><path d="M341.5231,448.6431 Q340.9421,448.9419 340.3029,449.0913 Q339.6638,449.2407 338.9582,449.2407 Q336.4514,449.2407 335.1315,447.5889 Q333.8117,445.937 333.8117,442.8159 Q333.8117,439.6865 335.1315,438.0347 Q336.4514,436.3828 338.9582,436.3828 Q339.6638,436.3828 340.3112,436.5322 Q340.9587,436.6816 341.5231,436.9805 L341.5231,439.7031 Q340.8923,439.1221 340.2988,438.8523 Q339.7053,438.5825 339.0744,438.5825 Q337.7297,438.5825 337.0449,439.6492 Q336.3601,440.7158 336.3601,442.8159 Q336.3601,444.9077 337.0449,445.9744 Q337.7297,447.041 339.0744,447.041 Q339.7053,447.041 340.2988,446.7712 Q340.8923,446.5015 341.5231,445.9204 Z " fill="#000000"/><text fill="#000000" font-family="sans-serif" font-size="12" lengthAdjust="spacing" textLength="95" x="357.45" y="447.5352">SystemContainer</text><line style="stroke:#A80036;stroke-width:1.5;" x1="302.5" x2="476.5" y1="459" y2="459"/><ellipse cx="312.5" cy="486.9551" rx="3" ry="3" style="stroke:#038048;stroke-width:1.0;fill:none;"/><text fill="#000000" font-family="sans-serif" font-size="11" lengthAdjust="spacing" textLength="150" x="321.5" y="490.5898">runner = 'systemd-nspawn'</text><line style="stroke:#A80036;stroke-width:1.0;stroke-dasharray:1.0,2.0;" x1="302.5" x2="361.5" y1="473.4775" y2="473.4775"/><text fill="#000000" font-family="sans-serif" font-size="11" lengthAdjust="spacing" textLength="56" x="361.5" y="477.1348">properties</text><line style="stroke:#A80036;stroke-width:1.0;stroke-dasharray:1.0,2.0;" x1="417.5" x2="476.5" y1="473.4775" y2="473.4775"/><!--MD5=[090e9c8b1e5ce69f15dc4a881ecc3e4c]
class Pod_CT--><rect codeLine="43" fill="#FEFECE" filter="url(#f1d0su5uck5zk6)" height="82.8652" id="Pod_CT" style="stroke:#A80036;stroke-width:1.5;" width="245" x="431" y="264.5"/><ellipse cx="538.25" cy="280.5" fill="#008000" rx="11" ry="11" style="stroke:#A80036;stroke-width:1.0;"/><path d="M541.2231,286.1431 Q540.6421,286.4419 540.0029,286.5913 Q539.3638,286.7407 538.6582,286.7407 Q536.1514,286.7407 534.8315,285.0889 Q533.5117,283.437 533.5117,280.3159 Q533.5117,277.1865 534.8315,275.5347 Q536.1514,273.8828 538.6582,273.8828 Q539.3638,273.8828 540.0112,274.0322 Q540.6587,274.1816 541.2231,274.4805 L541.2231,277.2031 Q540.5923,276.6221 539.9988,276.3523 Q539.4053,276.0825 538.7744,276.0825 Q537.4297,276.0825 536.7449,277.1492 Q536.0601,278.2158 536.0601,280.3159 Q536.0601,282.4077 536.7449,283.4744 Q537.4297,284.541 538.7744,284.541 Q539.4053,284.541 539.9988,284.2712 Q540.5923,284.0015 541.2231,283.4204 Z " fill="#000000"/><text fill="#000000" font-family="sans-serif" font-size="12" lengthAdjust="spacing" textLength="22" x="558.75" y="285.0352">Pod</text><line style="stroke:#A80036;stroke-width:1.5;" x1="432" x2="675" y1="296.5" y2="296.5"/><ellipse cx="442" cy="324.4551" rx="3" ry="3" style="stroke:#038048;stroke-width:1.0;fill:none;"/><text fill="#000000" font-family="sans-serif" font-size="11" lengthAdjust="spacing" textLength="102" x="451" y="328.0898">runner = 'podman'</text><ellipse cx="442" cy="337.4102" rx="3" ry="3" style="stroke:#038048;stroke-width:1.0;fill:none;"/><text fill="#000000" font-family="sans-serif" font-size="11" lengthAdjust="spacing" textLength="219" x="451" y="341.0449">images : list&lt;ContainerImageReference&gt;</text><line style="stroke:#A80036;stroke-width:1.0;stroke-dasharray:1.0,2.0;" x1="432" x2="525.5" y1="310.9775" y2="310.9775"/><text fill="#000000" font-family="sans-serif" font-size="11" lengthAdjust="spacing" textLength="56" x="525.5" y="314.6348">properties</text><line style="stroke:#A80036;stroke-width:1.0;stroke-dasharray:1.0,2.0;" x1="581.5" x2="675" y1="310.9775" y2="310.9775"/><!--MD5=[df33a53dd4ec8618ff94105a8a4033fa]
class VirtualMachine_CT--><rect codeLine="49" fill="#FEFECE" filter="url(#f1d0su5uck5zk6)" height="48" id="VirtualMachine_CT" style="stroke:#A80036;stroke-width:1.5;" width="116" x="711.5" y="282"/><ellipse cx="726.5" cy="298" fill="#008000" rx="11" ry="11" style="stroke:#A80036;stroke-width:1.0;"/><path d="M729.4731,303.6431 Q728.8921,303.9419 728.2529,304.0913 Q727.6138,304.2407 726.9082,304.2407 Q724.4014,304.2407 723.0815,302.5889 Q721.7617,300.937 721.7617,297.8159 Q721.7617,294.6865 723.0815,293.0347 Q724.4014,291.3828 726.9082,291.3828 Q727.6138,291.3828 728.2612,291.5322 Q728.9087,291.6816 729.4731,291.9805 L729.4731,294.7031 Q728.8423,294.1221 728.2488,293.8523 Q727.6553,293.5825 727.0244,293.5825 Q725.6797,293.5825 724.9949,294.6492 Q724.3101,295.7158 724.3101,297.8159 Q724.3101,299.9077 724.9949,300.9744 Q725.6797,302.041 727.0244,302.041 Q727.6553,302.041 728.2488,301.7712 Q728.8423,301.5015 729.4731,300.9204 Z " fill="#000000"/><text fill="#000000" font-family="sans-serif" font-size="12" lengthAdjust="spacing" textLength="84" x="740.5" y="302.5352">VirtualMachine</text><line style="stroke:#A80036;stroke-width:1.5;" x1="712.5" x2="826.5" y1="314" y2="314"/><line style="stroke:#A80036;stroke-width:1.5;" x1="712.5" x2="826.5" y1="322" y2="322"/><!--MD5=[ff7a463cdd9527fc7172d908ced33623]
class Exposable_CT--><rect codeLine="52" fill="#FEFECE" filter="url(#f1d0su5uck5zk6)" height="69.9102" id="Exposable_CT" style="stroke:#A80036;stroke-width:1.5;" width="164" x="862.5" y="271"/><ellipse cx="910.25" cy="287" fill="#008000" rx="11" ry="11" style="stroke:#A80036;stroke-width:1.0;"/><path d="M913.2231,292.6431 Q912.6421,292.9419 912.0029,293.0913 Q911.3638,293.2407 910.6582,293.2407 Q908.1514,293.2407 906.8315,291.5889 Q905.5117,289.937 905.5117,286.8159 Q905.5117,283.6865 906.8315,282.0347 Q908.1514,280.3828 910.6582,280.3828 Q911.3638,280.3828 912.0112,280.5322 Q912.6587,280.6816 913.2231,280.9805 L913.2231,283.7031 Q912.5923,283.1221 911.9988,282.8523 Q911.4053,282.5825 910.7744,282.5825 Q909.4297,282.5825 908.7449,283.6492 Q908.0601,284.7158 908.0601,286.8159 Q908.0601,288.9077 908.7449,289.9744 Q909.4297,291.041 910.7744,291.041 Q911.4053,291.041 911.9988,290.7712 Q912.5923,290.5015 913.2231,289.9204 Z " fill="#000000"/><text fill="#000000" font-family="sans-serif" font-size="12" lengthAdjust="spacing" textLength="60" x="930.75" y="291.5352">Exposable</text><line style="stroke:#A80036;stroke-width:1.5;" x1="863.5" x2="1025.5" y1="303" y2="303"/><ellipse cx="873.5" cy="330.9551" rx="3" ry="3" style="stroke:#038048;stroke-width:1.0;fill:none;"/><text fill="#000000" font-family="sans-serif" font-size="11" font-weight="bold" lengthAdjust="spacing" textLength="138" x="882.5" y="334.5898">expose : boolean = False</text><line style="stroke:#A80036;stroke-width:1.0;stroke-dasharray:1.0,2.0;" x1="863.5" x2="916.5" y1="317.4775" y2="317.4775"/><text fill="#000000" font-family="sans-serif" font-size="11" lengthAdjust="spacing" textLength="56" x="916.5" y="321.1348">properties</text><line style="stroke:#A80036;stroke-width:1.0;stroke-dasharray:1.0,2.0;" x1="972.5" x2="1025.5" y1="317.4775" y2="317.4775"/><!--MD5=[37cfa7e35971ef6ba6b5b1be3043be37]
class LocalDirectory_CT--><rect codeLine="57" fill="#FEFECE" filter="url(#f1d0su5uck5zk6)" height="82.8652" id="LocalDirectory_CT" style="stroke:#A80036;stroke-width:1.5;" width="183" x="1062" y="264.5"/><ellipse cx="1108.75" cy="280.5" fill="#008000" rx="11" ry="11" style="stroke:#A80036;stroke-width:1.0;"/><path d="M1111.7231,286.1431 Q1111.1421,286.4419 1110.5029,286.5913 Q1109.8638,286.7407 1109.1582,286.7407 Q1106.6514,286.7407 1105.3315,285.0889 Q1104.0117,283.437 1104.0117,280.3159 Q1104.0117,277.1865 1105.3315,275.5347 Q1106.6514,273.8828 1109.1582,273.8828 Q1109.8638,273.8828 1110.5112,274.0322 Q1111.1587,274.1816 1111.7231,274.4805 L1111.7231,277.2031 Q1111.0923,276.6221 1110.4988,276.3523 Q1109.9053,276.0825 1109.2744,276.0825 Q1107.9297,276.0825 1107.2449,277.1492 Q1106.5601,278.2158 1106.5601,280.3159 Q1106.5601,282.4077 1107.2449,283.4744 Q1107.9297,284.541 1109.2744,284.541 Q1109.9053,284.541 1110.4988,284.2712 Q1111.0923,284.0015 1111.7231,283.4204 Z " fill="#000000"/><text fill="#000000" font-family="sans-serif" font-size="12" lengthAdjust="spacing" textLength="81" x="1129.25" y="285.0352">LocalDirectory</text><line style="stroke:#A80036;stroke-width:1.5;" x1="1063" x2="1244" y1="296.5" y2="296.5"/><ellipse cx="1073" cy="324.4551" rx="3" ry="3" style="stroke:#038048;stroke-width:1.0;fill:none;"/><text fill="#000000" font-family="sans-serif" font-size="11" lengthAdjust="spacing" textLength="65" x="1082" y="328.0898">path : string</text><ellipse cx="1073" cy="337.4102" rx="3" ry="3" style="stroke:#038048;stroke-width:1.0;fill:none;"/><text fill="#000000" font-family="sans-serif" font-size="11" font-weight="bold" lengthAdjust="spacing" textLength="157" x="1082" y="341.0449">temporary : boolean = False</text><line style="stroke:#A80036;stroke-width:1.0;stroke-dasharray:1.0,2.0;" x1="1063" x2="1125.5" y1="310.9775" y2="310.9775"/><text fill="#000000" font-family="sans-serif" font-size="11" lengthAdjust="spacing" textLength="56" x="1125.5" y="314.6348">properties</text><line style="stroke:#A80036;stroke-width:1.0;stroke-dasharray:1.0,2.0;" x1="1181.5" x2="1244" y1="310.9775" y2="310.9775"/><!--MD5=[d624f3b0029c35e82192751a9d0dc4da]
reverse link Runnable_CT to Process_CT--><path codeLine="23" d="M291.8683,172.8482 C253.476,195.6938 211.6089,221.0289 173.5,245 C163.7669,251.1223 153.5425,257.7256 143.5917,264.2481 " fill="none" id="Runnable_CT-backto-Process_CT" style="stroke:#A80036;stroke-width:1.0;"/><polygon fill="none" points="288.4656,166.7277,309.2375,162.5406,295.6104,178.7673,288.4656,166.7277" style="stroke:#A80036;stroke-width:1.0;"/><!--MD5=[e0f03c27fdccfc9d0960bd880d6d7099]
reverse link Runnable_CT to Container_CT--><path codeLine="32" d="M357.7827,202.1587 C348.7369,216.7712 339.7096,231.3538 331.4017,244.7742 " fill="none" id="Runnable_CT-backto-Container_CT" style="stroke:#A80036;stroke-width:1.0;"/><polygon fill="none" points="351.8893,198.3797,368.3683,185.0589,363.793,205.7487,351.8893,198.3797" style="stroke:#A80036;stroke-width:1.0;"/><!--MD5=[b63f4b67a6ccde940d215b29edbed1f8]
reverse link Container_CT to PristineContainer_CT--><path codeLine="37" d="M245.2232,384.4498 C236.123,399.2377 227.036,414.004 219.2708,426.6225 " fill="none" id="Container_CT-backto-PristineContainer_CT" style="stroke:#A80036;stroke-width:1.0;"/><polygon fill="none" points="239.3902,380.5721,255.8338,367.2076,251.3134,387.9095,239.3902,380.5721" style="stroke:#A80036;stroke-width:1.0;"/><!--MD5=[56fdc77bd3914a6ae6bc66c211d9162f]
reverse link Container_CT to SystemContainer_CT--><path codeLine="42" d="M341.7768,384.4498 C350.877,399.2377 359.964,414.004 367.7292,426.6225 " fill="none" id="Container_CT-backto-SystemContainer_CT" style="stroke:#A80036;stroke-width:1.0;"/><polygon fill="none" points="335.6866,387.9095,331.1662,367.2076,347.6098,380.5721,335.6866,387.9095" style="stroke:#A80036;stroke-width:1.0;"/><!--MD5=[df446c69bb00c8f0bc49471110a79ead]
reverse link Runnable_CT to Pod_CT--><path codeLine="48" d="M489.2812,202.2619 C502.9203,224.2943 516.5135,246.2526 527.6583,264.2558 " fill="none" id="Runnable_CT-backto-Pod_CT" style="stroke:#A80036;stroke-width:1.0;"/><polygon fill="none" points="483.207,205.7487,478.6317,185.0589,495.1107,198.3797,483.207,205.7487" style="stroke:#A80036;stroke-width:1.0;"/><!--MD5=[580dd0eb7cd71377fb3a0d313c3768b1]
reverse link Runnable_CT to VirtualMachine_CT--><path codeLine="51" d="M555.5884,163.0051 C600.3556,187.2469 650.0108,215.8624 693.5,245 C710.2263,256.2065 727.8244,270.1754 741.8696,281.9169 " fill="none" id="Runnable_CT-backto-VirtualMachine_CT" style="stroke:#A80036;stroke-width:1.0;"/><polygon fill="none" points="552.0336,169.0417,537.7191,153.4181,558.6522,156.705,552.0336,169.0417" style="stroke:#A80036;stroke-width:1.0;"/><!--MD5=[01e12d2590680e7da3cf47b0d8aa1691]
reverse link Connectible_CT to Exposable_CT--><path codeLine="56" d="M944.5,140.2001 C944.5,179.0245 944.5,234.7691 944.5,270.6842 " fill="none" id="Connectible_CT-backto-Exposable_CT" style="stroke:#A80036;stroke-width:1.0;"/><polygon fill="none" points="937.5001,140.0897,944.5,120.0897,951.5001,140.0896,937.5001,140.0897" style="stroke:#A80036;stroke-width:1.0;"/><!--MD5=[5baff5abc57f451996dcf7bd30add695]
reverse link Storage_CT to LocalDirectory_CT--><path codeLine="62" d="M1153.5,140.129 C1153.5,176.6665 1153.5,228.2253 1153.5,264.1261 " fill="none" id="Storage_CT-backto-LocalDirectory_CT" style="stroke:#A80036;stroke-width:1.0;"/><polygon fill="none" points="1146.5001,140.0897,1153.5,120.0897,1160.5001,140.0896,1146.5001,140.0897" style="stroke:#A80036;stroke-width:1.0;"/><!--MD5=[816b8afa33a5e4332384511b2407be85]
@startuml
set namespaceSeparator none
class "Runnable" as Runnable_CT << (C,green) >> {
.. attributes ..
+<b>host : string
.. properties ..
+runner : string
+<b>temporality : string = 'Continuous'
+specific-temporality : timestamp
+delayed-temporality : scalar-unit.time
+recurring-temporality : Schedule
+user : string
+<b>systemd : boolean = True
}
class "Connectible" as Connectible_CT << (C,green) >> {
}
class "Storage" as Storage_CT << (C,green) >> {
}
class "Process" as Process_CT << (C,green) >> {
.. properties ..
+runner = 'shell'
+<b>command : Command
}
Runnable_CT <|- - Process_CT
class "Container" as Container_CT << (C,green) >> {
.. properties ..
+runner = 'podman'
+name : string
+image : ContainerImageReference
+create-arguments : list<string>
+ports : list<ContainerPort>
}
Runnable_CT <|- - Container_CT
class "PristineContainer" as PristineContainer_CT << (C,green) >> {
.. properties ..
+runner = 'distrobox'
}
Container_CT <|- - PristineContainer_CT
class "SystemContainer" as SystemContainer_CT << (C,green) >> {
.. properties ..
+runner = 'systemd-nspawn'
}
Container_CT <|- - SystemContainer_CT
class "Pod" as Pod_CT << (C,green) >> {
.. properties ..
+runner = 'podman'
+images : list<ContainerImageReference>
}
Runnable_CT <|- - Pod_CT
class "VirtualMachine" as VirtualMachine_CT << (C,green) >> {
}
Runnable_CT <|- - VirtualMachine_CT
class "Exposable" as Exposable_CT << (C,green) >> {
.. properties ..
+<b>expose : boolean = False
}
Connectible_CT <|- - Exposable_CT
class "LocalDirectory" as LocalDirectory_CT << (C,green) >> {
.. properties ..
+path : string
+<b>temporary : boolean = False
}
Storage_CT <|- - LocalDirectory_CT
@enduml

PlantUML version 1.2021.13(Mon Nov 01 12:38:45 CET 2021)
(GPL source distribution)
Java Runtime: Java(TM) SE Runtime Environment
JVM: Java HotSpot(TM) 64-Bit Server VM
Default Encoding: UTF-8
Language: fr
Country: FR
--></g></svg>