<?xml version="1.0" encoding="UTF-8" standalone="no"?><svg xmlns="http://www.w3.org/2000/svg" xmlns:xlink="http://www.w3.org/1999/xlink" contentScriptType="application/ecmascript" contentStyleType="text/css" height="384px" preserveAspectRatio="none" style="width:1274px;height:384px;background:#FFFFFF;" version="1.1" viewBox="0 0 1274 384" width="1274px" zoomAndPan="magnify"><defs><filter height="300%" id="fndc722p1pn69" width="300%" x="-1" y="-1"><feGaussianBlur result="blurOut" stdDeviation="2.0"/><feColorMatrix in="blurOut" result="blurOut2" type="matrix" values="0 0 0 0 0 0 0 0 0 0 0 0 0 0 0 0 0 0 .4 0"/><feOffset dx="4.0" dy="4.0" in="blurOut2" result="blurOut3"/><feBlend in="SourceGraphic" in2="blurOut3" mode="normal"/></filter></defs><g><!--MD5=[06f04b6e631bdb69101cb18443b62756]
class Runnable_CT--><rect codeLine="2" fill="#FEFECE" filter="url(#fndc722p1pn69)" height="177.5508" id="Runnable_CT" style="stroke:#A80036;stroke-width:1.5;" width="228" x="309.5" y="7"/><ellipse cx="392.25" cy="23" fill="#008000" rx="11" ry="11" style="stroke:#A80036;stroke-width:1.0;"/><path d="M395.2231,28.6431 Q394.6421,28.9419 394.0029,29.0913 Q393.3638,29.2407 392.6582,29.2407 Q390.1514,29.2407 388.8315,27.5889 Q387.5117,25.937 387.5117,22.8159 Q387.5117,19.6865 388.8315,18.0347 Q390.1514,16.3828 392.6582,16.3828 Q393.3638,16.3828 394.0112,16.5322 Q394.6587,16.6816 395.2231,16.9805 L395.2231,19.7031 Q394.5923,19.1221 393.9988,18.8523 Q393.4053,18.5825 392.7744,18.5825 Q391.4297,18.5825 390.7449,19.6492 Q390.0601,20.7158 390.0601,22.8159 Q390.0601,24.9077 390.7449,25.9744 Q391.4297,27.041 392.7744,27.041 Q393.4053,27.041 393.9988,26.7712 Q394.5923,26.5015 395.2231,25.9204 Z " fill="#000000"/><text fill="#000000" font-family="sans-serif" font-size="12" lengthAdjust="spacing" textLength="54" x="412.75" y="27.5352">Runnable</text><line style="stroke:#A80036;stroke-width:1.5;" x1="310.5" x2="536.5" y1="39" y2="39"/><ellipse cx="320.5" cy="66.9551" rx="3" ry="3" style="stroke:#038048;stroke-width:1.0;fill:none;"/><text fill="#000000" font-family="sans-serif" font-size="11" font-weight="bold" lengthAdjust="spacing" textLength="90" x="329.5" y="70.5898">delegate : string</text><ellipse cx="320.5" cy="79.9102" rx="3" ry="3" style="stroke:#038048;stroke-width:1.0;fill:none;"/><text fill="#000000" font-family="sans-serif" font-size="11" font-weight="bold" lengthAdjust="spacing" textLength="68" x="329.5" y="83.5449">host : string</text><line style="stroke:#A80036;stroke-width:1.0;stroke-dasharray:1.0,2.0;" x1="310.5" x2="397.5" y1="53.4775" y2="53.4775"/><text fill="#000000" font-family="sans-serif" font-size="11" lengthAdjust="spacing" textLength="52" x="397.5" y="57.1348">attributes</text><line style="stroke:#A80036;stroke-width:1.0;stroke-dasharray:1.0,2.0;" x1="449.5" x2="536.5" y1="53.4775" y2="53.4775"/><ellipse cx="320.5" cy="109.8203" rx="3" ry="3" style="stroke:#038048;stroke-width:1.0;fill:none;"/><text fill="#000000" font-family="sans-serif" font-size="11" font-weight="bold" lengthAdjust="spacing" textLength="195" x="329.5" y="113.4551">temporality : string = 'Continuous'</text><ellipse cx="320.5" cy="122.7754" rx="3" ry="3" style="stroke:#038048;stroke-width:1.0;fill:none;"/><text fill="#000000" font-family="sans-serif" font-size="11" lengthAdjust="spacing" textLength="173" x="329.5" y="126.4102">specific-temporality : timestamp</text><ellipse cx="320.5" cy="135.7305" rx="3" ry="3" style="stroke:#038048;stroke-width:1.0;fill:none;"/><text fill="#000000" font-family="sans-serif" font-size="11" lengthAdjust="spacing" textLength="202" x="329.5" y="139.3652">delayed-temporality : scalar-unit.time</text><ellipse cx="320.5" cy="148.6855" rx="3" ry="3" style="stroke:#038048;stroke-width:1.0;fill:none;"/><text fill="#000000" font-family="sans-serif" font-size="11" lengthAdjust="spacing" textLength="175" x="329.5" y="152.3203">recurring-temporality : Schedule</text><ellipse cx="320.5" cy="161.6406" rx="3" ry="3" style="stroke:#038048;stroke-width:1.0;fill:none;"/><text fill="#000000" font-family="sans-serif" font-size="11" lengthAdjust="spacing" textLength="65" x="329.5" y="165.2754">user : string</text><ellipse cx="320.5" cy="174.5957" rx="3" ry="3" style="stroke:#038048;stroke-width:1.0;fill:none;"/><text fill="#000000" font-family="sans-serif" font-size="11" font-weight="bold" lengthAdjust="spacing" textLength="144" x="329.5" y="178.2305">systemd : boolean = True</text><line style="stroke:#A80036;stroke-width:1.0;stroke-dasharray:1.0,2.0;" x1="310.5" x2="395.5" y1="96.3428" y2="96.3428"/><text fill="#000000" font-family="sans-serif" font-size="11" lengthAdjust="spacing" textLength="56" x="395.5" y="100">properties</text><line style="stroke:#A80036;stroke-width:1.0;stroke-dasharray:1.0,2.0;" x1="451.5" x2="536.5" y1="96.3428" y2="96.3428"/><!--MD5=[5c1d0718c6a743b5bc8bb2f26e29bd6f]
class Connectable_CT--><rect codeLine="14" fill="#FEFECE" filter="url(#fndc722p1pn69)" height="69.9102" id="Connectable_CT" style="stroke:#A80036;stroke-width:1.5;" width="169" x="868" y="61"/><ellipse cx="912.75" cy="77" fill="#008000" rx="11" ry="11" style="stroke:#A80036;stroke-width:1.0;"/><path d="M915.7231,82.6431 Q915.1421,82.9419 914.5029,83.0913 Q913.8638,83.2407 913.1582,83.2407 Q910.6514,83.2407 909.3315,81.5889 Q908.0117,79.937 908.0117,76.8159 Q908.0117,73.6865 909.3315,72.0347 Q910.6514,70.3828 913.1582,70.3828 Q913.8638,70.3828 914.5112,70.5322 Q915.1587,70.6816 915.7231,70.9805 L915.7231,73.7031 Q915.0923,73.1221 914.4988,72.8523 Q913.9053,72.5825 913.2744,72.5825 Q911.9297,72.5825 911.2449,73.6492 Q910.5601,74.7158 910.5601,76.8159 Q910.5601,78.9077 911.2449,79.9744 Q911.9297,81.041 913.2744,81.041 Q913.9053,81.041 914.4988,80.7712 Q915.0923,80.5015 915.7231,79.9204 Z " fill="#000000"/><text fill="#000000" font-family="sans-serif" font-size="12" lengthAdjust="spacing" textLength="71" x="933.25" y="81.5352">Connectable</text><line style="stroke:#A80036;stroke-width:1.5;" x1="869" x2="1036" y1="93" y2="93"/><ellipse cx="879" cy="120.9551" rx="3" ry="3" style="stroke:#038048;stroke-width:1.0;fill:none;"/><text fill="#000000" font-family="sans-serif" font-size="11" font-weight="bold" lengthAdjust="spacing" textLength="143" x="888" y="124.5898">standby : boolean = False</text><line style="stroke:#A80036;stroke-width:1.0;stroke-dasharray:1.0,2.0;" x1="869" x2="924.5" y1="107.4775" y2="107.4775"/><text fill="#000000" font-family="sans-serif" font-size="11" lengthAdjust="spacing" textLength="56" x="924.5" y="111.1348">properties</text><line style="stroke:#A80036;stroke-width:1.0;stroke-dasharray:1.0,2.0;" x1="980.5" x2="1036" y1="107.4775" y2="107.4775"/><!--MD5=[f1d3f434f571668a038b25da07bf18bd]
class Storage_CT--><rect codeLine="18" fill="#FEFECE" filter="url(#fndc722p1pn69)" height="48" id="Storage_CT" style="stroke:#A80036;stroke-width:1.5;" width="75" x="1131" y="72"/><ellipse cx="1146" cy="88" fill="#008000" rx="11" ry="11" style="stroke:#A80036;stroke-width:1.0;"/><path d="M1148.9731,93.6431 Q1148.3921,93.9419 1147.7529,94.0913 Q1147.1138,94.2407 1146.4082,94.2407 Q1143.9014,94.2407 1142.5815,92.5889 Q1141.2617,90.937 1141.2617,87.8159 Q1141.2617,84.6865 1142.5815,83.0347 Q1143.9014,81.3828 1146.4082,81.3828 Q1147.1138,81.3828 1147.7612,81.5322 Q1148.4087,81.6816 1148.9731,81.9805 L1148.9731,84.7031 Q1148.3423,84.1221 1147.7488,83.8523 Q1147.1553,83.5825 1146.5244,83.5825 Q1145.1797,83.5825 1144.4949,84.6492 Q1143.8101,85.7158 1143.8101,87.8159 Q1143.8101,89.9077 1144.4949,90.9744 Q1145.1797,92.041 1146.5244,92.041 Q1147.1553,92.041 1147.7488,91.7712 Q1148.3423,91.5015 1148.9731,90.9204 Z " fill="#000000"/><text fill="#000000" font-family="sans-serif" font-size="12" lengthAdjust="spacing" textLength="43" x="1160" y="92.5352">Storage</text><line style="stroke:#A80036;stroke-width:1.5;" x1="1132" x2="1205" y1="104" y2="104"/><line style="stroke:#A80036;stroke-width:1.5;" x1="1132" x2="1205" y1="112" y2="112"/><!--MD5=[a6a18bf96af6a50f68a3f94aaf01dc1f]
class Process_CT--><rect codeLine="20" fill="#FEFECE" filter="url(#fndc722p1pn69)" height="99.8203" id="Process_CT" style="stroke:#A80036;stroke-width:1.5;" width="149" x="7" y="258"/><ellipse cx="55.25" cy="274" fill="#008000" rx="11" ry="11" style="stroke:#A80036;stroke-width:1.0;"/><path d="M58.2231,279.6431 Q57.6421,279.9419 57.0029,280.0913 Q56.3638,280.2407 55.6582,280.2407 Q53.1514,280.2407 51.8315,278.5889 Q50.5117,276.937 50.5117,273.8159 Q50.5117,270.6865 51.8315,269.0347 Q53.1514,267.3828 55.6582,267.3828 Q56.3638,267.3828 57.0112,267.5322 Q57.6587,267.6816 58.2231,267.9805 L58.2231,270.7031 Q57.5923,270.1221 56.9988,269.8523 Q56.4053,269.5825 55.7744,269.5825 Q54.4297,269.5825 53.7449,270.6492 Q53.0601,271.7158 53.0601,273.8159 Q53.0601,275.9077 53.7449,276.9744 Q54.4297,278.041 55.7744,278.041 Q56.4053,278.041 56.9988,277.7712 Q57.5923,277.5015 58.2231,276.9204 Z " fill="#000000"/><text fill="#000000" font-family="sans-serif" font-size="12" lengthAdjust="spacing" textLength="44" x="75.75" y="278.5352">Process</text><line style="stroke:#A80036;stroke-width:1.5;" x1="8" x2="155" y1="290" y2="290"/><ellipse cx="18" cy="317.9551" rx="3" ry="3" style="stroke:#038048;stroke-width:1.0;fill:none;"/><text fill="#000000" font-family="sans-serif" font-size="11" font-weight="bold" lengthAdjust="spacing" textLength="93" x="27" y="321.5898">delegate = 'bare'</text><line style="stroke:#A80036;stroke-width:1.0;stroke-dasharray:1.0,2.0;" x1="8" x2="55.5" y1="304.4775" y2="304.4775"/><text fill="#000000" font-family="sans-serif" font-size="11" lengthAdjust="spacing" textLength="52" x="55.5" y="308.1348">attributes</text><line style="stroke:#A80036;stroke-width:1.0;stroke-dasharray:1.0,2.0;" x1="107.5" x2="155" y1="304.4775" y2="304.4775"/><ellipse cx="18" cy="347.8652" rx="3" ry="3" style="stroke:#038048;stroke-width:1.0;fill:none;"/><text fill="#000000" font-family="sans-serif" font-size="11" font-weight="bold" lengthAdjust="spacing" textLength="123" x="27" y="351.5">command : Command</text><line style="stroke:#A80036;stroke-width:1.0;stroke-dasharray:1.0,2.0;" x1="8" x2="53.5" y1="334.3877" y2="334.3877"/><text fill="#000000" font-family="sans-serif" font-size="11" lengthAdjust="spacing" textLength="56" x="53.5" y="338.0449">properties</text><line style="stroke:#A80036;stroke-width:1.0;stroke-dasharray:1.0,2.0;" x1="109.5" x2="155" y1="334.3877" y2="334.3877"/><!--MD5=[380ab49f735fa8cf23e84c2cf2d2f925]
class Container_CT--><rect codeLine="26" fill="#FEFECE" filter="url(#fndc722p1pn69)" height="125.7305" id="Container_CT" style="stroke:#A80036;stroke-width:1.5;" width="205" x="191" y="245"/><ellipse cx="261.75" cy="261" fill="#008000" rx="11" ry="11" style="stroke:#A80036;stroke-width:1.0;"/><path d="M264.7231,266.6431 Q264.1421,266.9419 263.5029,267.0913 Q262.8638,267.2407 262.1582,267.2407 Q259.6514,267.2407 258.3315,265.5889 Q257.0117,263.937 257.0117,260.8159 Q257.0117,257.6865 258.3315,256.0347 Q259.6514,254.3828 262.1582,254.3828 Q262.8638,254.3828 263.5112,254.5322 Q264.1587,254.6816 264.7231,254.9805 L264.7231,257.7031 Q264.0923,257.1221 263.4988,256.8523 Q262.9053,256.5825 262.2744,256.5825 Q260.9297,256.5825 260.2449,257.6492 Q259.5601,258.7158 259.5601,260.8159 Q259.5601,262.9077 260.2449,263.9744 Q260.9297,265.041 262.2744,265.041 Q262.9053,265.041 263.4988,264.7712 Q264.0923,264.5015 264.7231,263.9204 Z " fill="#000000"/><text fill="#000000" font-family="sans-serif" font-size="12" lengthAdjust="spacing" textLength="55" x="282.25" y="265.5352">Container</text><line style="stroke:#A80036;stroke-width:1.5;" x1="192" x2="395" y1="277" y2="277"/><ellipse cx="202" cy="304.9551" rx="3" ry="3" style="stroke:#038048;stroke-width:1.0;fill:none;"/><text fill="#000000" font-family="sans-serif" font-size="11" font-weight="bold" lengthAdjust="spacing" textLength="114" x="211" y="308.5898">delegate = 'podman'</text><line style="stroke:#A80036;stroke-width:1.0;stroke-dasharray:1.0,2.0;" x1="192" x2="267.5" y1="291.4775" y2="291.4775"/><text fill="#000000" font-family="sans-serif" font-size="11" lengthAdjust="spacing" textLength="52" x="267.5" y="295.1348">attributes</text><line style="stroke:#A80036;stroke-width:1.0;stroke-dasharray:1.0,2.0;" x1="319.5" x2="395" y1="291.4775" y2="291.4775"/><ellipse cx="202" cy="334.8652" rx="3" ry="3" style="stroke:#038048;stroke-width:1.0;fill:none;"/><text fill="#000000" font-family="sans-serif" font-size="11" lengthAdjust="spacing" textLength="70" x="211" y="338.5">name : string</text><ellipse cx="202" cy="347.8203" rx="3" ry="3" style="stroke:#038048;stroke-width:1.0;fill:none;"/><text fill="#000000" font-family="sans-serif" font-size="11" lengthAdjust="spacing" textLength="179" x="211" y="351.4551">image : ContainerImageReference</text><ellipse cx="202" cy="360.7754" rx="3" ry="3" style="stroke:#038048;stroke-width:1.0;fill:none;"/><text fill="#000000" font-family="sans-serif" font-size="11" lengthAdjust="spacing" textLength="172" x="211" y="364.4102">create-arguments : list&lt;string&gt;</text><line style="stroke:#A80036;stroke-width:1.0;stroke-dasharray:1.0,2.0;" x1="192" x2="265.5" y1="321.3877" y2="321.3877"/><text fill="#000000" font-family="sans-serif" font-size="11" lengthAdjust="spacing" textLength="56" x="265.5" y="325.0449">properties</text><line style="stroke:#A80036;stroke-width:1.0;stroke-dasharray:1.0,2.0;" x1="321.5" x2="395" y1="321.3877" y2="321.3877"/><!--MD5=[090e9c8b1e5ce69f15dc4a881ecc3e4c]
class Pod_CT--><rect codeLine="34" fill="#FEFECE" filter="url(#fndc722p1pn69)" height="82.8652" id="Pod_CT" style="stroke:#A80036;stroke-width:1.5;" width="245" x="431" y="266.5"/><ellipse cx="538.25" cy="282.5" fill="#008000" rx="11" ry="11" style="stroke:#A80036;stroke-width:1.0;"/><path d="M541.2231,288.1431 Q540.6421,288.4419 540.0029,288.5913 Q539.3638,288.7407 538.6582,288.7407 Q536.1514,288.7407 534.8315,287.0889 Q533.5117,285.437 533.5117,282.3159 Q533.5117,279.1865 534.8315,277.5347 Q536.1514,275.8828 538.6582,275.8828 Q539.3638,275.8828 540.0112,276.0322 Q540.6587,276.1816 541.2231,276.4805 L541.2231,279.2031 Q540.5923,278.6221 539.9988,278.3523 Q539.4053,278.0825 538.7744,278.0825 Q537.4297,278.0825 536.7449,279.1492 Q536.0601,280.2158 536.0601,282.3159 Q536.0601,284.4077 536.7449,285.4744 Q537.4297,286.541 538.7744,286.541 Q539.4053,286.541 539.9988,286.2712 Q540.5923,286.0015 541.2231,285.4204 Z " fill="#000000"/><text fill="#000000" font-family="sans-serif" font-size="12" lengthAdjust="spacing" textLength="22" x="558.75" y="287.0352">Pod</text><line style="stroke:#A80036;stroke-width:1.5;" x1="432" x2="675" y1="298.5" y2="298.5"/><ellipse cx="442" cy="326.4551" rx="3" ry="3" style="stroke:#038048;stroke-width:1.0;fill:none;"/><text fill="#000000" font-family="sans-serif" font-size="11" font-weight="bold" lengthAdjust="spacing" textLength="114" x="451" y="330.0898">delegate = 'podman'</text><ellipse cx="442" cy="339.4102" rx="3" ry="3" style="stroke:#038048;stroke-width:1.0;fill:none;"/><text fill="#000000" font-family="sans-serif" font-size="11" lengthAdjust="spacing" textLength="219" x="451" y="343.0449">images : list&lt;ContainerImageReference&gt;</text><line style="stroke:#A80036;stroke-width:1.0;stroke-dasharray:1.0,2.0;" x1="432" x2="525.5" y1="312.9775" y2="312.9775"/><text fill="#000000" font-family="sans-serif" font-size="11" lengthAdjust="spacing" textLength="56" x="525.5" y="316.6348">properties</text><line style="stroke:#A80036;stroke-width:1.0;stroke-dasharray:1.0,2.0;" x1="581.5" x2="675" y1="312.9775" y2="312.9775"/><!--MD5=[df33a53dd4ec8618ff94105a8a4033fa]
class VirtualMachine_CT--><rect codeLine="39" fill="#FEFECE" filter="url(#fndc722p1pn69)" height="48" id="VirtualMachine_CT" style="stroke:#A80036;stroke-width:1.5;" width="116" x="711.5" y="284"/><ellipse cx="726.5" cy="300" fill="#008000" rx="11" ry="11" style="stroke:#A80036;stroke-width:1.0;"/><path d="M729.4731,305.6431 Q728.8921,305.9419 728.2529,306.0913 Q727.6138,306.2407 726.9082,306.2407 Q724.4014,306.2407 723.0815,304.5889 Q721.7617,302.937 721.7617,299.8159 Q721.7617,296.6865 723.0815,295.0347 Q724.4014,293.3828 726.9082,293.3828 Q727.6138,293.3828 728.2612,293.5322 Q728.9087,293.6816 729.4731,293.9805 L729.4731,296.7031 Q728.8423,296.1221 728.2488,295.8523 Q727.6553,295.5825 727.0244,295.5825 Q725.6797,295.5825 724.9949,296.6492 Q724.3101,297.7158 724.3101,299.8159 Q724.3101,301.9077 724.9949,302.9744 Q725.6797,304.041 727.0244,304.041 Q727.6553,304.041 728.2488,303.7712 Q728.8423,303.5015 729.4731,302.9204 Z " fill="#000000"/><text fill="#000000" font-family="sans-serif" font-size="12" lengthAdjust="spacing" textLength="84" x="740.5" y="304.5352">VirtualMachine</text><line style="stroke:#A80036;stroke-width:1.5;" x1="712.5" x2="826.5" y1="316" y2="316"/><line style="stroke:#A80036;stroke-width:1.5;" x1="712.5" x2="826.5" y1="324" y2="324"/><!--MD5=[d8a53694d79e1c14f2bee499931dcdbf]
class ContainerConnectable_CT--><rect codeLine="41" fill="#FEFECE" filter="url(#fndc722p1pn69)" height="69.9102" id="ContainerConnectable_CT" style="stroke:#A80036;stroke-width:1.5;" width="179" x="863" y="273"/><ellipse cx="887.45" cy="289" fill="#008000" rx="11" ry="11" style="stroke:#A80036;stroke-width:1.0;"/><path d="M890.4231,294.6431 Q889.8421,294.9419 889.2029,295.0913 Q888.5638,295.2407 887.8582,295.2407 Q885.3514,295.2407 884.0315,293.5889 Q882.7117,291.937 882.7117,288.8159 Q882.7117,285.6865 884.0315,284.0347 Q885.3514,282.3828 887.8582,282.3828 Q888.5638,282.3828 889.2112,282.5322 Q889.8587,282.6816 890.4231,282.9805 L890.4231,285.7031 Q889.7923,285.1221 889.1988,284.8523 Q888.6053,284.5825 887.9744,284.5825 Q886.6297,284.5825 885.9449,285.6492 Q885.2601,286.7158 885.2601,288.8159 Q885.2601,290.9077 885.9449,291.9744 Q886.6297,293.041 887.9744,293.041 Q888.6053,293.041 889.1988,292.7712 Q889.7923,292.5015 890.4231,291.9204 Z " fill="#000000"/><text fill="#000000" font-family="sans-serif" font-size="12" lengthAdjust="spacing" textLength="126" x="903.55" y="293.5352">ContainerConnectable</text><line style="stroke:#A80036;stroke-width:1.5;" x1="864" x2="1041" y1="305" y2="305"/><ellipse cx="874" cy="332.9551" rx="3" ry="3" style="stroke:#038048;stroke-width:1.0;fill:none;"/><text fill="#000000" font-family="sans-serif" font-size="11" font-weight="bold" lengthAdjust="spacing" textLength="153" x="883" y="336.5898">ports : list&lt;ContainerPort&gt;</text><line style="stroke:#A80036;stroke-width:1.0;stroke-dasharray:1.0,2.0;" x1="864" x2="926.5" y1="319.4775" y2="319.4775"/><text fill="#000000" font-family="sans-serif" font-size="11" lengthAdjust="spacing" textLength="52" x="926.5" y="323.1348">attributes</text><line style="stroke:#A80036;stroke-width:1.0;stroke-dasharray:1.0,2.0;" x1="978.5" x2="1041" y1="319.4775" y2="319.4775"/><!--MD5=[37cfa7e35971ef6ba6b5b1be3043be37]
class LocalDirectory_CT--><rect codeLine="45" fill="#FEFECE" filter="url(#fndc722p1pn69)" height="82.8652" id="LocalDirectory_CT" style="stroke:#A80036;stroke-width:1.5;" width="183" x="1077" y="266.5"/><ellipse cx="1123.75" cy="282.5" fill="#008000" rx="11" ry="11" style="stroke:#A80036;stroke-width:1.0;"/><path d="M1126.7231,288.1431 Q1126.1421,288.4419 1125.5029,288.5913 Q1124.8638,288.7407 1124.1582,288.7407 Q1121.6514,288.7407 1120.3315,287.0889 Q1119.0117,285.437 1119.0117,282.3159 Q1119.0117,279.1865 1120.3315,277.5347 Q1121.6514,275.8828 1124.1582,275.8828 Q1124.8638,275.8828 1125.5112,276.0322 Q1126.1587,276.1816 1126.7231,276.4805 L1126.7231,279.2031 Q1126.0923,278.6221 1125.4988,278.3523 Q1124.9053,278.0825 1124.2744,278.0825 Q1122.9297,278.0825 1122.2449,279.1492 Q1121.5601,280.2158 1121.5601,282.3159 Q1121.5601,284.4077 1122.2449,285.4744 Q1122.9297,286.541 1124.2744,286.541 Q1124.9053,286.541 1125.4988,286.2712 Q1126.0923,286.0015 1126.7231,285.4204 Z " fill="#000000"/><text fill="#000000" font-family="sans-serif" font-size="12" lengthAdjust="spacing" textLength="81" x="1144.25" y="287.0352">LocalDirectory</text><line style="stroke:#A80036;stroke-width:1.5;" x1="1078" x2="1259" y1="298.5" y2="298.5"/><ellipse cx="1088" cy="326.4551" rx="3" ry="3" style="stroke:#038048;stroke-width:1.0;fill:none;"/><text fill="#000000" font-family="sans-serif" font-size="11" lengthAdjust="spacing" textLength="65" x="1097" y="330.0898">path : string</text><ellipse cx="1088" cy="339.4102" rx="3" ry="3" style="stroke:#038048;stroke-width:1.0;fill:none;"/><text fill="#000000" font-family="sans-serif" font-size="11" font-weight="bold" lengthAdjust="spacing" textLength="157" x="1097" y="343.0449">temporary : boolean = False</text><line style="stroke:#A80036;stroke-width:1.0;stroke-dasharray:1.0,2.0;" x1="1078" x2="1140.5" y1="312.9775" y2="312.9775"/><text fill="#000000" font-family="sans-serif" font-size="11" lengthAdjust="spacing" textLength="56" x="1140.5" y="316.6348">properties</text><line style="stroke:#A80036;stroke-width:1.0;stroke-dasharray:1.0,2.0;" x1="1196.5" x2="1259" y1="312.9775" y2="312.9775"/><!--MD5=[d624f3b0029c35e82192751a9d0dc4da]
reverse link Runnable_CT to Process_CT--><path codeLine="50" d="M291.9187,172.3192 C253.4444,195.1995 211.521,220.6857 173.5,245 C167.0581,249.1196 160.4138,253.4677 153.783,257.8759 " fill="none" id="Runnable_CT-backto-Process_CT" style="stroke:#A80036;stroke-width:1.0;"/><polygon fill="none" points="288.5523,166.1773,309.3269,162.0036,295.6894,178.2215,288.5523,166.1773" style="stroke:#A80036;stroke-width:1.0;"/><!--MD5=[e0f03c27fdccfc9d0960bd880d6d7099]
reverse link Runnable_CT to Container_CT--><path codeLine="51" d="M358.0125,202.7951 C349.1826,217.1945 340.3647,231.5744 332.2107,244.8718 " fill="none" id="Runnable_CT-backto-Container_CT" style="stroke:#A80036;stroke-width:1.0;"/><polygon fill="none" points="352.3226,198.6831,368.7451,185.2926,364.2574,206.0016,352.3226,198.6831" style="stroke:#A80036;stroke-width:1.0;"/><!--MD5=[df446c69bb00c8f0bc49471110a79ead]
reverse link Runnable_CT to Pod_CT--><path codeLine="52" d="M488.8642,202.5939 C502.7875,225.2997 516.6886,247.9691 528.0118,266.4347 " fill="none" id="Runnable_CT-backto-Pod_CT" style="stroke:#A80036;stroke-width:1.0;"/><polygon fill="none" points="482.7426,206.0016,478.2549,185.2926,494.6774,198.6831,482.7426,206.0016" style="stroke:#A80036;stroke-width:1.0;"/><!--MD5=[580dd0eb7cd71377fb3a0d313c3768b1]
reverse link Runnable_CT to VirtualMachine_CT--><path codeLine="53" d="M555.5512,162.4488 C600.4184,186.6941 650.1449,215.4534 693.5,245 C710.7779,256.775 728.8483,271.635 743.0318,283.9653 " fill="none" id="Runnable_CT-backto-VirtualMachine_CT" style="stroke:#A80036;stroke-width:1.0;"/><polygon fill="none" points="551.9739,168.4739,537.6402,152.8679,558.5774,156.1291,551.9739,168.4739" style="stroke:#A80036;stroke-width:1.0;"/><!--MD5=[e5e1f13c4371c7c1b0b299f9f077fcd1]
reverse link Connectable_CT to ContainerConnectable_CT--><path codeLine="54" d="M952.5,151.2671 C952.5,189.7305 952.5,239.8567 952.5,272.9405 " fill="none" id="Connectable_CT-backto-ContainerConnectable_CT" style="stroke:#A80036;stroke-width:1.0;"/><polygon fill="none" points="945.5001,151.0075,952.5,131.0075,959.5001,151.0075,945.5001,151.0075" style="stroke:#A80036;stroke-width:1.0;"/><!--MD5=[5baff5abc57f451996dcf7bd30add695]
reverse link Storage_CT to LocalDirectory_CT--><path codeLine="55" d="M1168.5,140.3574 C1168.5,177.3899 1168.5,229.8059 1168.5,266.1275 " fill="none" id="Storage_CT-backto-LocalDirectory_CT" style="stroke:#A80036;stroke-width:1.0;"/><polygon fill="none" points="1161.5001,140.3191,1168.5,120.3191,1175.5001,140.3191,1161.5001,140.3191" style="stroke:#A80036;stroke-width:1.0;"/><!--MD5=[f6d04632de5105cde055817358c3fbb5]
@startuml
set namespaceSeparator none
class "Runnable" as Runnable_CT << (C,green) >> {
.. attributes ..
+<b>delegate : string
+<b>host : string
.. properties ..
+<b>temporality : string = 'Continuous'
+specific-temporality : timestamp
+delayed-temporality : scalar-unit.time
+recurring-temporality : Schedule
+user : string
+<b>systemd : boolean = True
}
class "Connectable" as Connectable_CT << (C,green) >> {
.. properties ..
+<b>standby : boolean = False
}
class "Storage" as Storage_CT << (C,green) >> {
}
class "Process" as Process_CT << (C,green) >> {
.. attributes ..
+<b>delegate = 'bare'
.. properties ..
+<b>command : Command
}
class "Container" as Container_CT << (C,green) >> {
.. attributes ..
+<b>delegate = 'podman'
.. properties ..
+name : string
+image : ContainerImageReference
+create-arguments : list<string>
}
class "Pod" as Pod_CT << (C,green) >> {
.. properties ..
+<b>delegate = 'podman'
+images : list<ContainerImageReference>
}
class "VirtualMachine" as VirtualMachine_CT << (C,green) >> {
}
class "ContainerConnectable" as ContainerConnectable_CT << (C,green) >> {
.. attributes ..
+<b>ports : list<ContainerPort>
}
class "LocalDirectory" as LocalDirectory_CT << (C,green) >> {
.. properties ..
+path : string
+<b>temporary : boolean = False
}
Runnable_CT <|- - Process_CT
Runnable_CT <|- - Container_CT
Runnable_CT <|- - Pod_CT
Runnable_CT <|- - VirtualMachine_CT
Connectable_CT <|- - ContainerConnectable_CT
Storage_CT <|- - LocalDirectory_CT
@enduml

PlantUML version 1.2021.13(Mon Nov 01 12:38:45 CET 2021)
(GPL source distribution)
Java Runtime: Java(TM) SE Runtime Environment
JVM: Java HotSpot(TM) 64-Bit Server VM
Default Encoding: UTF-8
Language: fr
Country: FR
--></g></svg>