<?xml version="1.0" encoding="UTF-8" standalone="no"?><svg xmlns="http://www.w3.org/2000/svg" xmlns:xlink="http://www.w3.org/1999/xlink" contentScriptType="application/ecmascript" contentStyleType="text/css" height="307px" preserveAspectRatio="none" style="width:1948px;height:307px;background:#FFFFFF;" version="1.1" viewBox="0 0 1948 307" width="1948px" zoomAndPan="magnify"><defs><filter height="300%" id="f7xzcylqvodgc" width="300%" x="-1" y="-1"><feGaussianBlur result="blurOut" stdDeviation="2.0"/><feColorMatrix in="blurOut" result="blurOut2" type="matrix" values="0 0 0 0 0 0 0 0 0 0 0 0 0 0 0 0 0 0 .4 0"/><feOffset dx="4.0" dy="4.0" in="blurOut2" result="blurOut3"/><feBlend in="SourceGraphic" in2="blurOut3" mode="normal"/></filter></defs><g><!--MD5=[41f0fda68ce78c06dec3488c65209e06]
class integer_DT--><rect codeLine="38" fill="#DDDDDD" filter="url(#f7xzcylqvodgc)" height="48" id="integer_DT" style="stroke:#A80036;stroke-width:1.5;" width="72" x="357.5" y="63.5"/><ellipse cx="372.5" cy="79.5" fill="#008000" rx="11" ry="11" style="stroke:#A80036;stroke-width:1.0;"/><path d="M372.0859,75.3149 L372.0859,83.292 L372.75,83.292 Q374.1943,83.292 374.8086,82.3831 Q375.4229,81.4741 375.4229,79.291 Q375.4229,77.1245 374.8086,76.2197 Q374.1943,75.3149 372.75,75.3149 Z M369.6372,73.1069 L372.2603,73.1069 Q375.2983,73.1069 376.6348,74.5554 Q377.9712,76.0039 377.9712,79.291 Q377.9712,82.5864 376.6348,84.0432 Q375.2983,85.5 372.2603,85.5 L369.6372,85.5 Z " fill="#000000"/><text fill="#000000" font-family="sans-serif" font-size="12" lengthAdjust="spacing" textLength="40" x="386.5" y="84.0352">integer</text><line style="stroke:#A80036;stroke-width:1.5;" x1="358.5" x2="428.5" y1="95.5" y2="95.5"/><line style="stroke:#A80036;stroke-width:1.5;" x1="358.5" x2="428.5" y1="103.5" y2="103.5"/><!--MD5=[51713e9e201d863486e8d34b0a00816e]
class Count_DT--><rect codeLine="3" fill="#FEFECE" filter="url(#f7xzcylqvodgc)" height="48" id="Count_DT" style="stroke:#A80036;stroke-width:1.5;" width="65" x="7" y="245"/><ellipse cx="22" cy="261" fill="#008000" rx="11" ry="11" style="stroke:#A80036;stroke-width:1.0;"/><path d="M21.5859,256.8149 L21.5859,264.792 L22.25,264.792 Q23.6943,264.792 24.3086,263.8831 Q24.9229,262.9741 24.9229,260.791 Q24.9229,258.6245 24.3086,257.7197 Q23.6943,256.8149 22.25,256.8149 Z M19.1372,254.6069 L21.7603,254.6069 Q24.7983,254.6069 26.1348,256.0554 Q27.4712,257.5039 27.4712,260.791 Q27.4712,264.0864 26.1348,265.5432 Q24.7983,267 21.7603,267 L19.1372,267 Z " fill="#000000"/><text fill="#000000" font-family="sans-serif" font-size="12" lengthAdjust="spacing" textLength="33" x="36" y="265.5352">Count</text><line style="stroke:#A80036;stroke-width:1.5;" x1="8" x2="71" y1="277" y2="277"/><line style="stroke:#A80036;stroke-width:1.5;" x1="8" x2="71" y1="285" y2="285"/><!--MD5=[8990b5f6e62d94501e15b50ea3f87186]
class string_DT--><rect codeLine="44" fill="#DDDDDD" filter="url(#f7xzcylqvodgc)" height="48" id="string_DT" style="stroke:#A80036;stroke-width:1.5;" width="64" x="1333.5" y="63.5"/><ellipse cx="1348.5" cy="79.5" fill="#008000" rx="11" ry="11" style="stroke:#A80036;stroke-width:1.0;"/><path d="M1348.0859,75.3149 L1348.0859,83.292 L1348.75,83.292 Q1350.1943,83.292 1350.8086,82.3831 Q1351.4229,81.4741 1351.4229,79.291 Q1351.4229,77.1245 1350.8086,76.2197 Q1350.1943,75.3149 1348.75,75.3149 Z M1345.6372,73.1069 L1348.2603,73.1069 Q1351.2983,73.1069 1352.6348,74.5554 Q1353.9712,76.0039 1353.9712,79.291 Q1353.9712,82.5864 1352.6348,84.0432 Q1351.2983,85.5 1348.2603,85.5 L1345.6372,85.5 Z " fill="#000000"/><text fill="#000000" font-family="sans-serif" font-size="12" lengthAdjust="spacing" textLength="32" x="1362.5" y="84.0352">string</text><line style="stroke:#A80036;stroke-width:1.5;" x1="1334.5" x2="1396.5" y1="95.5" y2="95.5"/><line style="stroke:#A80036;stroke-width:1.5;" x1="1334.5" x2="1396.5" y1="103.5" y2="103.5"/><!--MD5=[b72f1ef8874dc9014085af38f8801e39]
class Hex_DT--><rect codeLine="6" fill="#FEFECE" filter="url(#f7xzcylqvodgc)" height="48" id="Hex_DT" style="stroke:#A80036;stroke-width:1.5;" width="55" x="823" y="245"/><ellipse cx="838" cy="261" fill="#008000" rx="11" ry="11" style="stroke:#A80036;stroke-width:1.0;"/><path d="M837.5859,256.8149 L837.5859,264.792 L838.25,264.792 Q839.6943,264.792 840.3086,263.8831 Q840.9229,262.9741 840.9229,260.791 Q840.9229,258.6245 840.3086,257.7197 Q839.6943,256.8149 838.25,256.8149 Z M835.1372,254.6069 L837.7603,254.6069 Q840.7983,254.6069 842.1348,256.0554 Q843.4712,257.5039 843.4712,260.791 Q843.4712,264.0864 842.1348,265.5432 Q840.7983,267 837.7603,267 L835.1372,267 Z " fill="#000000"/><text fill="#000000" font-family="sans-serif" font-size="12" lengthAdjust="spacing" textLength="23" x="852" y="265.5352">Hex</text><line style="stroke:#A80036;stroke-width:1.5;" x1="824" x2="877" y1="277" y2="277"/><line style="stroke:#A80036;stroke-width:1.5;" x1="824" x2="877" y1="285" y2="285"/><!--MD5=[18458faf0c5a2eb443a068047a08c1c7]
class IPAddress_DT--><rect codeLine="9" fill="#FEFECE" filter="url(#f7xzcylqvodgc)" height="48" id="IPAddress_DT" style="stroke:#A80036;stroke-width:1.5;" width="90" x="1844.5" y="245"/><ellipse cx="1859.5" cy="261" fill="#008000" rx="11" ry="11" style="stroke:#A80036;stroke-width:1.0;"/><path d="M1859.0859,256.8149 L1859.0859,264.792 L1859.75,264.792 Q1861.1943,264.792 1861.8086,263.8831 Q1862.4229,262.9741 1862.4229,260.791 Q1862.4229,258.6245 1861.8086,257.7197 Q1861.1943,256.8149 1859.75,256.8149 Z M1856.6372,254.6069 L1859.2603,254.6069 Q1862.2983,254.6069 1863.6348,256.0554 Q1864.9712,257.5039 1864.9712,260.791 Q1864.9712,264.0864 1863.6348,265.5432 Q1862.2983,267 1859.2603,267 L1856.6372,267 Z " fill="#000000"/><text fill="#000000" font-family="sans-serif" font-size="12" lengthAdjust="spacing" textLength="58" x="1873.5" y="265.5352">IPAddress</text><line style="stroke:#A80036;stroke-width:1.5;" x1="1845.5" x2="1933.5" y1="277" y2="277"/><line style="stroke:#A80036;stroke-width:1.5;" x1="1845.5" x2="1933.5" y1="285" y2="285"/><!--MD5=[ec9b6f8ee65099e8244796ac65f31284]
class IPv6Address_DT--><rect codeLine="12" fill="#FEFECE" filter="url(#f7xzcylqvodgc)" height="48" id="IPv6Address_DT" style="stroke:#A80036;stroke-width:1.5;" width="104" x="923.5" y="245"/><ellipse cx="938.5" cy="261" fill="#008000" rx="11" ry="11" style="stroke:#A80036;stroke-width:1.0;"/><path d="M938.0859,256.8149 L938.0859,264.792 L938.75,264.792 Q940.1943,264.792 940.8086,263.8831 Q941.4229,262.9741 941.4229,260.791 Q941.4229,258.6245 940.8086,257.7197 Q940.1943,256.8149 938.75,256.8149 Z M935.6372,254.6069 L938.2603,254.6069 Q941.2983,254.6069 942.6348,256.0554 Q943.9712,257.5039 943.9712,260.791 Q943.9712,264.0864 942.6348,265.5432 Q941.2983,267 938.2603,267 L935.6372,267 Z " fill="#000000"/><text fill="#000000" font-family="sans-serif" font-size="12" lengthAdjust="spacing" textLength="72" x="952.5" y="265.5352">IPv6Address</text><line style="stroke:#A80036;stroke-width:1.5;" x1="924.5" x2="1026.5" y1="277" y2="277"/><line style="stroke:#A80036;stroke-width:1.5;" x1="924.5" x2="1026.5" y1="285" y2="285"/><!--MD5=[abdce6238daa33b03dc37cab1fb82b9f]
class IPv4Address_DT--><rect codeLine="15" fill="#FEFECE" filter="url(#f7xzcylqvodgc)" height="48" id="IPv4Address_DT" style="stroke:#A80036;stroke-width:1.5;" width="104" x="1062.5" y="245"/><ellipse cx="1077.5" cy="261" fill="#008000" rx="11" ry="11" style="stroke:#A80036;stroke-width:1.0;"/><path d="M1077.0859,256.8149 L1077.0859,264.792 L1077.75,264.792 Q1079.1943,264.792 1079.8086,263.8831 Q1080.4229,262.9741 1080.4229,260.791 Q1080.4229,258.6245 1079.8086,257.7197 Q1079.1943,256.8149 1077.75,256.8149 Z M1074.6372,254.6069 L1077.2603,254.6069 Q1080.2983,254.6069 1081.6348,256.0554 Q1082.9712,257.5039 1082.9712,260.791 Q1082.9712,264.0864 1081.6348,265.5432 Q1080.2983,267 1077.2603,267 L1074.6372,267 Z " fill="#000000"/><text fill="#000000" font-family="sans-serif" font-size="12" lengthAdjust="spacing" textLength="72" x="1091.5" y="265.5352">IPv4Address</text><line style="stroke:#A80036;stroke-width:1.5;" x1="1063.5" x2="1165.5" y1="277" y2="277"/><line style="stroke:#A80036;stroke-width:1.5;" x1="1063.5" x2="1165.5" y1="285" y2="285"/><!--MD5=[9644abb68ecb23f16c4779e169e22d05]
class IPSubnet_DT--><rect codeLine="18" fill="#FEFECE" filter="url(#f7xzcylqvodgc)" height="48" id="IPSubnet_DT" style="stroke:#A80036;stroke-width:1.5;" width="81" x="1202" y="245"/><ellipse cx="1217" cy="261" fill="#008000" rx="11" ry="11" style="stroke:#A80036;stroke-width:1.0;"/><path d="M1216.5859,256.8149 L1216.5859,264.792 L1217.25,264.792 Q1218.6943,264.792 1219.3086,263.8831 Q1219.9229,262.9741 1219.9229,260.791 Q1219.9229,258.6245 1219.3086,257.7197 Q1218.6943,256.8149 1217.25,256.8149 Z M1214.1372,254.6069 L1216.7603,254.6069 Q1219.7983,254.6069 1221.1348,256.0554 Q1222.4712,257.5039 1222.4712,260.791 Q1222.4712,264.0864 1221.1348,265.5432 Q1219.7983,267 1216.7603,267 L1214.1372,267 Z " fill="#000000"/><text fill="#000000" font-family="sans-serif" font-size="12" lengthAdjust="spacing" textLength="49" x="1231" y="265.5352">IPSubnet</text><line style="stroke:#A80036;stroke-width:1.5;" x1="1203" x2="1282" y1="277" y2="277"/><line style="stroke:#A80036;stroke-width:1.5;" x1="1203" x2="1282" y1="285" y2="285"/><!--MD5=[fc6f912601bc9e2ec588c6424abcc810]
class IPv6Subnet_DT--><rect codeLine="21" fill="#FEFECE" filter="url(#f7xzcylqvodgc)" height="48" id="IPv6Subnet_DT" style="stroke:#A80036;stroke-width:1.5;" width="95" x="1318" y="245"/><ellipse cx="1333" cy="261" fill="#008000" rx="11" ry="11" style="stroke:#A80036;stroke-width:1.0;"/><path d="M1332.5859,256.8149 L1332.5859,264.792 L1333.25,264.792 Q1334.6943,264.792 1335.3086,263.8831 Q1335.9229,262.9741 1335.9229,260.791 Q1335.9229,258.6245 1335.3086,257.7197 Q1334.6943,256.8149 1333.25,256.8149 Z M1330.1372,254.6069 L1332.7603,254.6069 Q1335.7983,254.6069 1337.1348,256.0554 Q1338.4712,257.5039 1338.4712,260.791 Q1338.4712,264.0864 1337.1348,265.5432 Q1335.7983,267 1332.7603,267 L1330.1372,267 Z " fill="#000000"/><text fill="#000000" font-family="sans-serif" font-size="12" lengthAdjust="spacing" textLength="63" x="1347" y="265.5352">IPv6Subnet</text><line style="stroke:#A80036;stroke-width:1.5;" x1="1319" x2="1412" y1="277" y2="277"/><line style="stroke:#A80036;stroke-width:1.5;" x1="1319" x2="1412" y1="285" y2="285"/><!--MD5=[3f01746acc3886d935f638eda5487a3b]
class IPv4Subnet_DT--><rect codeLine="24" fill="#FEFECE" filter="url(#f7xzcylqvodgc)" height="48" id="IPv4Subnet_DT" style="stroke:#A80036;stroke-width:1.5;" width="95" x="1448" y="245"/><ellipse cx="1463" cy="261" fill="#008000" rx="11" ry="11" style="stroke:#A80036;stroke-width:1.0;"/><path d="M1462.5859,256.8149 L1462.5859,264.792 L1463.25,264.792 Q1464.6943,264.792 1465.3086,263.8831 Q1465.9229,262.9741 1465.9229,260.791 Q1465.9229,258.6245 1465.3086,257.7197 Q1464.6943,256.8149 1463.25,256.8149 Z M1460.1372,254.6069 L1462.7603,254.6069 Q1465.7983,254.6069 1467.1348,256.0554 Q1468.4712,257.5039 1468.4712,260.791 Q1468.4712,264.0864 1467.1348,265.5432 Q1465.7983,267 1462.7603,267 L1460.1372,267 Z " fill="#000000"/><text fill="#000000" font-family="sans-serif" font-size="12" lengthAdjust="spacing" textLength="63" x="1477" y="265.5352">IPv4Subnet</text><line style="stroke:#A80036;stroke-width:1.5;" x1="1449" x2="1542" y1="277" y2="277"/><line style="stroke:#A80036;stroke-width:1.5;" x1="1449" x2="1542" y1="285" y2="285"/><!--MD5=[acc02d62b9c36163d6f647570fbbac95]
class Port_DT--><rect codeLine="27" fill="#FEFECE" filter="url(#f7xzcylqvodgc)" height="48" id="Port_DT" style="stroke:#A80036;stroke-width:1.5;" width="55" x="493" y="245"/><ellipse cx="508" cy="261" fill="#008000" rx="11" ry="11" style="stroke:#A80036;stroke-width:1.0;"/><path d="M507.5859,256.8149 L507.5859,264.792 L508.25,264.792 Q509.6943,264.792 510.3086,263.8831 Q510.9229,262.9741 510.9229,260.791 Q510.9229,258.6245 510.3086,257.7197 Q509.6943,256.8149 508.25,256.8149 Z M505.1372,254.6069 L507.7603,254.6069 Q510.7983,254.6069 512.1348,256.0554 Q513.4712,257.5039 513.4712,260.791 Q513.4712,264.0864 512.1348,265.5432 Q510.7983,267 507.7603,267 L505.1372,267 Z " fill="#000000"/><text fill="#000000" font-family="sans-serif" font-size="12" lengthAdjust="spacing" textLength="23" x="522" y="265.5352">Port</text><line style="stroke:#A80036;stroke-width:1.5;" x1="494" x2="547" y1="277" y2="277"/><line style="stroke:#A80036;stroke-width:1.5;" x1="494" x2="547" y1="285" y2="285"/><!--MD5=[fc6454ac7791224bf35d5e8eb7b477a4]
class AssignablePort_DT--><rect codeLine="30" fill="#FEFECE" filter="url(#f7xzcylqvodgc)" height="48" id="AssignablePort_DT" style="stroke:#A80036;stroke-width:1.5;" width="117" x="617" y="245"/><ellipse cx="632" cy="261" fill="#008000" rx="11" ry="11" style="stroke:#A80036;stroke-width:1.0;"/><path d="M631.5859,256.8149 L631.5859,264.792 L632.25,264.792 Q633.6943,264.792 634.3086,263.8831 Q634.9229,262.9741 634.9229,260.791 Q634.9229,258.6245 634.3086,257.7197 Q633.6943,256.8149 632.25,256.8149 Z M629.1372,254.6069 L631.7603,254.6069 Q634.7983,254.6069 636.1348,256.0554 Q637.4712,257.5039 637.4712,260.791 Q637.4712,264.0864 636.1348,265.5432 Q634.7983,267 631.7603,267 L629.1372,267 Z " fill="#000000"/><text fill="#000000" font-family="sans-serif" font-size="12" lengthAdjust="spacing" textLength="85" x="646" y="265.5352">AssignablePort</text><line style="stroke:#A80036;stroke-width:1.5;" x1="618" x2="733" y1="277" y2="277"/><line style="stroke:#A80036;stroke-width:1.5;" x1="618" x2="733" y1="285" y2="285"/><!--MD5=[c9b83a69c0a8bbb53d142842e52365c7]
class SystemPort_DT--><rect codeLine="33" fill="#FEFECE" filter="url(#f7xzcylqvodgc)" height="48" id="SystemPort_DT" style="stroke:#A80036;stroke-width:1.5;" width="95" x="107" y="245"/><ellipse cx="122" cy="261" fill="#008000" rx="11" ry="11" style="stroke:#A80036;stroke-width:1.0;"/><path d="M121.5859,256.8149 L121.5859,264.792 L122.25,264.792 Q123.6943,264.792 124.3086,263.8831 Q124.9229,262.9741 124.9229,260.791 Q124.9229,258.6245 124.3086,257.7197 Q123.6943,256.8149 122.25,256.8149 Z M119.1372,254.6069 L121.7603,254.6069 Q124.7983,254.6069 126.1348,256.0554 Q127.4712,257.5039 127.4712,260.791 Q127.4712,264.0864 126.1348,265.5432 Q124.7983,267 121.7603,267 L119.1372,267 Z " fill="#000000"/><text fill="#000000" font-family="sans-serif" font-size="12" lengthAdjust="spacing" textLength="63" x="136" y="265.5352">SystemPort</text><line style="stroke:#A80036;stroke-width:1.5;" x1="108" x2="201" y1="277" y2="277"/><line style="stroke:#A80036;stroke-width:1.5;" x1="108" x2="201" y1="285" y2="285"/><!--MD5=[1148bc7d58c832e8cc05334d534f7871]
class UserPort_DT--><rect codeLine="36" fill="#FEFECE" filter="url(#f7xzcylqvodgc)" height="48" id="UserPort_DT" style="stroke:#A80036;stroke-width:1.5;" width="81" x="237" y="245"/><ellipse cx="252" cy="261" fill="#008000" rx="11" ry="11" style="stroke:#A80036;stroke-width:1.0;"/><path d="M251.5859,256.8149 L251.5859,264.792 L252.25,264.792 Q253.6943,264.792 254.3086,263.8831 Q254.9229,262.9741 254.9229,260.791 Q254.9229,258.6245 254.3086,257.7197 Q253.6943,256.8149 252.25,256.8149 Z M249.1372,254.6069 L251.7603,254.6069 Q254.7983,254.6069 256.1348,256.0554 Q257.4712,257.5039 257.4712,260.791 Q257.4712,264.0864 256.1348,265.5432 Q254.7983,267 251.7603,267 L249.1372,267 Z " fill="#000000"/><text fill="#000000" font-family="sans-serif" font-size="12" lengthAdjust="spacing" textLength="49" x="266" y="265.5352">UserPort</text><line style="stroke:#A80036;stroke-width:1.5;" x1="238" x2="317" y1="277" y2="277"/><line style="stroke:#A80036;stroke-width:1.5;" x1="238" x2="317" y1="285" y2="285"/><!--MD5=[d5de7f5e3c1adb4c3fabb13ecb777329]
class DynamicPort_DT--><rect codeLine="39" fill="#FEFECE" filter="url(#f7xzcylqvodgc)" height="48" id="DynamicPort_DT" style="stroke:#A80036;stroke-width:1.5;" width="104" x="353.5" y="245"/><ellipse cx="368.5" cy="261" fill="#008000" rx="11" ry="11" style="stroke:#A80036;stroke-width:1.0;"/><path d="M368.0859,256.8149 L368.0859,264.792 L368.75,264.792 Q370.1943,264.792 370.8086,263.8831 Q371.4229,262.9741 371.4229,260.791 Q371.4229,258.6245 370.8086,257.7197 Q370.1943,256.8149 368.75,256.8149 Z M365.6372,254.6069 L368.2603,254.6069 Q371.2983,254.6069 372.6348,256.0554 Q373.9712,257.5039 373.9712,260.791 Q373.9712,264.0864 372.6348,265.5432 Q371.2983,267 368.2603,267 L365.6372,267 Z " fill="#000000"/><text fill="#000000" font-family="sans-serif" font-size="12" lengthAdjust="spacing" textLength="72" x="382.5" y="265.5352">DynamicPort</text><line style="stroke:#A80036;stroke-width:1.5;" x1="354.5" x2="456.5" y1="277" y2="277"/><line style="stroke:#A80036;stroke-width:1.5;" x1="354.5" x2="456.5" y1="285" y2="285"/><!--MD5=[7d2e5996a61636f79089202e8250a555]
class ServiceName_DT--><rect codeLine="42" fill="#FEFECE" filter="url(#f7xzcylqvodgc)" height="48" id="ServiceName_DT" style="stroke:#A80036;stroke-width:1.5;" width="106" x="1578.5" y="245"/><ellipse cx="1593.5" cy="261" fill="#008000" rx="11" ry="11" style="stroke:#A80036;stroke-width:1.0;"/><path d="M1593.0859,256.8149 L1593.0859,264.792 L1593.75,264.792 Q1595.1943,264.792 1595.8086,263.8831 Q1596.4229,262.9741 1596.4229,260.791 Q1596.4229,258.6245 1595.8086,257.7197 Q1595.1943,256.8149 1593.75,256.8149 Z M1590.6372,254.6069 L1593.2603,254.6069 Q1596.2983,254.6069 1597.6348,256.0554 Q1598.9712,257.5039 1598.9712,260.791 Q1598.9712,264.0864 1597.6348,265.5432 Q1596.2983,267 1593.2603,267 L1590.6372,267 Z " fill="#000000"/><text fill="#000000" font-family="sans-serif" font-size="12" lengthAdjust="spacing" textLength="74" x="1607.5" y="265.5352">ServiceName</text><line style="stroke:#A80036;stroke-width:1.5;" x1="1579.5" x2="1683.5" y1="277" y2="277"/><line style="stroke:#A80036;stroke-width:1.5;" x1="1579.5" x2="1683.5" y1="285" y2="285"/><!--MD5=[20354702e4745dc9cb07a50ea00483b4]
class Hostname_DT--><rect codeLine="45" fill="#FEFECE" filter="url(#f7xzcylqvodgc)" height="48" id="Hostname_DT" style="stroke:#A80036;stroke-width:1.5;" width="90" x="1719.5" y="245"/><ellipse cx="1734.5" cy="261" fill="#008000" rx="11" ry="11" style="stroke:#A80036;stroke-width:1.0;"/><path d="M1734.0859,256.8149 L1734.0859,264.792 L1734.75,264.792 Q1736.1943,264.792 1736.8086,263.8831 Q1737.4229,262.9741 1737.4229,260.791 Q1737.4229,258.6245 1736.8086,257.7197 Q1736.1943,256.8149 1734.75,256.8149 Z M1731.6372,254.6069 L1734.2603,254.6069 Q1737.2983,254.6069 1738.6348,256.0554 Q1739.9712,257.5039 1739.9712,260.791 Q1739.9712,264.0864 1738.6348,265.5432 Q1737.2983,267 1734.2603,267 L1731.6372,267 Z " fill="#000000"/><text fill="#000000" font-family="sans-serif" font-size="12" lengthAdjust="spacing" textLength="58" x="1748.5" y="265.5352">Hostname</text><line style="stroke:#A80036;stroke-width:1.5;" x1="1720.5" x2="1808.5" y1="277" y2="277"/><line style="stroke:#A80036;stroke-width:1.5;" x1="1720.5" x2="1808.5" y1="285" y2="285"/><!--MD5=[46c5a7a3e198fff0130b1c70a3da179b]
class Command_DT--><rect codeLine="47" fill="#FEFECE" filter="url(#f7xzcylqvodgc)" height="82.8652" id="Command_DT" style="stroke:#A80036;stroke-width:1.5;" width="159" x="1433" y="46"/><ellipse cx="1478.75" cy="62" fill="#008000" rx="11" ry="11" style="stroke:#A80036;stroke-width:1.0;"/><path d="M1478.3359,57.8149 L1478.3359,65.792 L1479,65.792 Q1480.4443,65.792 1481.0586,64.8831 Q1481.6729,63.9741 1481.6729,61.791 Q1481.6729,59.6245 1481.0586,58.7197 Q1480.4443,57.8149 1479,57.8149 Z M1475.8872,55.6069 L1478.5103,55.6069 Q1481.5483,55.6069 1482.8848,57.0554 Q1484.2212,58.5039 1484.2212,61.791 Q1484.2212,65.0864 1482.8848,66.5432 Q1481.5483,68 1478.5103,68 L1475.8872,68 Z " fill="#000000"/><text fill="#000000" font-family="sans-serif" font-size="12" lengthAdjust="spacing" textLength="59" x="1499.25" y="66.5352">Command</text><line style="stroke:#A80036;stroke-width:1.5;" x1="1434" x2="1591" y1="78" y2="78"/><ellipse cx="1444" cy="105.9551" rx="3" ry="3" style="stroke:#038048;stroke-width:1.0;fill:none;"/><text fill="#000000" font-family="sans-serif" font-size="11" font-weight="bold" lengthAdjust="spacing" textLength="74" x="1453" y="109.5898">name : string</text><ellipse cx="1444" cy="118.9102" rx="3" ry="3" style="stroke:#038048;stroke-width:1.0;fill:none;"/><text fill="#000000" font-family="sans-serif" font-size="11" lengthAdjust="spacing" textLength="133" x="1453" y="122.5449">arguments : list&lt;string&gt;</text><line style="stroke:#A80036;stroke-width:1.0;stroke-dasharray:1.0,2.0;" x1="1434" x2="1484.5" y1="92.4775" y2="92.4775"/><text fill="#000000" font-family="sans-serif" font-size="11" lengthAdjust="spacing" textLength="56" x="1484.5" y="96.1348">properties</text><line style="stroke:#A80036;stroke-width:1.0;stroke-dasharray:1.0,2.0;" x1="1540.5" x2="1591" y1="92.4775" y2="92.4775"/><!--MD5=[9945816e88e684ae9ebe2d10fdbb37f7]
class Schedule_DT--><rect codeLine="52" fill="#FEFECE" filter="url(#f7xzcylqvodgc)" height="69.9102" id="Schedule_DT" style="stroke:#A80036;stroke-width:1.5;" width="194" x="1627.5" y="52.5"/><ellipse cx="1694.75" cy="68.5" fill="#008000" rx="11" ry="11" style="stroke:#A80036;stroke-width:1.0;"/><path d="M1694.3359,64.3149 L1694.3359,72.292 L1695,72.292 Q1696.4443,72.292 1697.0586,71.3831 Q1697.6729,70.4741 1697.6729,68.291 Q1697.6729,66.1245 1697.0586,65.2197 Q1696.4443,64.3149 1695,64.3149 Z M1691.8872,62.1069 L1694.5103,62.1069 Q1697.5483,62.1069 1698.8848,63.5554 Q1700.2212,65.0039 1700.2212,68.291 Q1700.2212,71.5864 1698.8848,73.0432 Q1697.5483,74.5 1694.5103,74.5 L1691.8872,74.5 Z " fill="#000000"/><text fill="#000000" font-family="sans-serif" font-size="12" lengthAdjust="spacing" textLength="51" x="1715.25" y="73.0352">Schedule</text><line style="stroke:#A80036;stroke-width:1.5;" x1="1628.5" x2="1820.5" y1="84.5" y2="84.5"/><ellipse cx="1638.5" cy="112.4551" rx="3" ry="3" style="stroke:#038048;stroke-width:1.0;fill:none;"/><text fill="#000000" font-family="sans-serif" font-size="11" font-weight="bold" lengthAdjust="spacing" textLength="168" x="1647.5" y="116.0898">times : list&lt;scalar-unit.time&gt;</text><line style="stroke:#A80036;stroke-width:1.0;stroke-dasharray:1.0,2.0;" x1="1628.5" x2="1696.5" y1="98.9775" y2="98.9775"/><text fill="#000000" font-family="sans-serif" font-size="11" lengthAdjust="spacing" textLength="56" x="1696.5" y="102.6348">properties</text><line style="stroke:#A80036;stroke-width:1.0;stroke-dasharray:1.0,2.0;" x1="1752.5" x2="1820.5" y1="98.9775" y2="98.9775"/><!--MD5=[3ba9dade23f8c959751e1fda489706c2]
class ContainerImageReference_DT--><rect codeLine="56" fill="#FEFECE" filter="url(#f7xzcylqvodgc)" height="160.5957" id="ContainerImageReference_DT" style="stroke:#A80036;stroke-width:1.5;" width="180" x="733.5" y="7"/><ellipse cx="748.5" cy="23" fill="#008000" rx="11" ry="11" style="stroke:#A80036;stroke-width:1.0;"/><path d="M748.0859,18.8149 L748.0859,26.792 L748.75,26.792 Q750.1943,26.792 750.8086,25.8831 Q751.4229,24.9741 751.4229,22.791 Q751.4229,20.6245 750.8086,19.7197 Q750.1943,18.8149 748.75,18.8149 Z M745.6372,16.6069 L748.2603,16.6069 Q751.2983,16.6069 752.6348,18.0554 Q753.9712,19.5039 753.9712,22.791 Q753.9712,26.0864 752.6348,27.5432 Q751.2983,29 748.2603,29 L745.6372,29 Z " fill="#000000"/><text fill="#000000" font-family="sans-serif" font-size="12" lengthAdjust="spacing" textLength="148" x="762.5" y="27.5352">ContainerImageReference</text><line style="stroke:#A80036;stroke-width:1.5;" x1="734.5" x2="912.5" y1="39" y2="39"/><ellipse cx="744.5" cy="66.9551" rx="3" ry="3" style="stroke:#038048;stroke-width:1.0;fill:none;"/><text fill="#000000" font-family="sans-serif" font-size="11" lengthAdjust="spacing" textLength="92" x="753.5" y="70.5898">reference : string</text><ellipse cx="744.5" cy="79.9102" rx="3" ry="3" style="stroke:#038048;stroke-width:1.0;fill:none;"/><text fill="#000000" font-family="sans-serif" font-size="11" lengthAdjust="spacing" textLength="65" x="753.5" y="83.5449">host : string</text><ellipse cx="744.5" cy="92.8652" rx="3" ry="3" style="stroke:#038048;stroke-width:1.0;fill:none;"/><text fill="#000000" font-family="sans-serif" font-size="11" lengthAdjust="spacing" textLength="113" x="753.5" y="96.5">port : AssignablePort</text><ellipse cx="744.5" cy="105.8203" rx="3" ry="3" style="stroke:#038048;stroke-width:1.0;fill:none;"/><text fill="#000000" font-family="sans-serif" font-size="11" lengthAdjust="spacing" textLength="97" x="753.5" y="109.4551">repository : string</text><ellipse cx="744.5" cy="118.7754" rx="3" ry="3" style="stroke:#038048;stroke-width:1.0;fill:none;"/><text fill="#000000" font-family="sans-serif" font-size="11" lengthAdjust="spacing" textLength="73" x="753.5" y="122.4102">image : string</text><ellipse cx="744.5" cy="131.7305" rx="3" ry="3" style="stroke:#038048;stroke-width:1.0;fill:none;"/><text fill="#000000" font-family="sans-serif" font-size="11" lengthAdjust="spacing" textLength="58" x="753.5" y="135.3652">tag : string</text><ellipse cx="744.5" cy="144.6855" rx="3" ry="3" style="stroke:#038048;stroke-width:1.0;fill:none;"/><text fill="#000000" font-family="sans-serif" font-size="11" lengthAdjust="spacing" textLength="132" x="753.5" y="148.3203">digest-algorithm : string</text><ellipse cx="744.5" cy="157.6406" rx="3" ry="3" style="stroke:#038048;stroke-width:1.0;fill:none;"/><text fill="#000000" font-family="sans-serif" font-size="11" lengthAdjust="spacing" textLength="89" x="753.5" y="161.2754">digest-hex : Hex</text><line style="stroke:#A80036;stroke-width:1.0;stroke-dasharray:1.0,2.0;" x1="734.5" x2="795.5" y1="53.4775" y2="53.4775"/><text fill="#000000" font-family="sans-serif" font-size="11" lengthAdjust="spacing" textLength="56" x="795.5" y="57.1348">properties</text><line style="stroke:#A80036;stroke-width:1.0;stroke-dasharray:1.0,2.0;" x1="851.5" x2="912.5" y1="53.4775" y2="53.4775"/><!--MD5=[1e0cd9c687ebf1abf440c7be62cf66f5]
class ContainerPort_DT--><rect codeLine="67" fill="#FEFECE" filter="url(#f7xzcylqvodgc)" height="95.8203" id="ContainerPort_DT" style="stroke:#A80036;stroke-width:1.5;" width="164" x="523.5" y="39.5"/><ellipse cx="562.8" cy="55.5" fill="#008000" rx="11" ry="11" style="stroke:#A80036;stroke-width:1.0;"/><path d="M562.3859,51.3149 L562.3859,59.292 L563.05,59.292 Q564.4943,59.292 565.1086,58.3831 Q565.7229,57.4741 565.7229,55.291 Q565.7229,53.1245 565.1086,52.2197 Q564.4943,51.3149 563.05,51.3149 Z M559.9372,49.1069 L562.5603,49.1069 Q565.5983,49.1069 566.9348,50.5554 Q568.2712,52.0039 568.2712,55.291 Q568.2712,58.5864 566.9348,60.0432 Q565.5983,61.5 562.5603,61.5 L559.9372,61.5 Z " fill="#000000"/><text fill="#000000" font-family="sans-serif" font-size="12" lengthAdjust="spacing" textLength="78" x="582.2" y="60.0352">ContainerPort</text><line style="stroke:#A80036;stroke-width:1.5;" x1="524.5" x2="686.5" y1="71.5" y2="71.5"/><ellipse cx="534.5" cy="99.4551" rx="3" ry="3" style="stroke:#038048;stroke-width:1.0;fill:none;"/><text fill="#000000" font-family="sans-serif" font-size="11" lengthAdjust="spacing" textLength="134" x="543.5" y="103.0898">external : AssignablePort</text><ellipse cx="534.5" cy="112.4102" rx="3" ry="3" style="stroke:#038048;stroke-width:1.0;fill:none;"/><text fill="#000000" font-family="sans-serif" font-size="11" font-weight="bold" lengthAdjust="spacing" textLength="138" x="543.5" y="116.0449">internal : AssignablePort</text><ellipse cx="534.5" cy="125.3652" rx="3" ry="3" style="stroke:#038048;stroke-width:1.0;fill:none;"/><text fill="#000000" font-family="sans-serif" font-size="11" font-weight="bold" lengthAdjust="spacing" textLength="137" x="543.5" y="129">protocol : string = 'TCP'</text><line style="stroke:#A80036;stroke-width:1.0;stroke-dasharray:1.0,2.0;" x1="524.5" x2="577.5" y1="85.9775" y2="85.9775"/><text fill="#000000" font-family="sans-serif" font-size="11" lengthAdjust="spacing" textLength="56" x="577.5" y="89.6348">properties</text><line style="stroke:#A80036;stroke-width:1.0;stroke-dasharray:1.0,2.0;" x1="633.5" x2="686.5" y1="85.9775" y2="85.9775"/><!--MD5=[dfc543428298025b0a863738e131df92]
reverse link integer_DT to Count_DT--><path codeLine="73" d="M339.1954,115.3426 C264.6481,153.5639 132.9409,221.0917 72.049,252.3117 " fill="none" id="integer_DT-backto-Count_DT" style="stroke:#A80036;stroke-width:1.0;"/><polygon fill="none" points="336.2886,108.9666,357.2794,106.0707,342.676,121.4246,336.2886,108.9666" style="stroke:#A80036;stroke-width:1.0;"/><!--MD5=[e3c6aaef8eddd596cfe7e15a09cea1bf]
reverse link string_DT to Hex_DT--><path codeLine="74" d="M1314.3197,103.6857 C1229.057,130.9562 1052.8453,188.6216 906.5,245 C897.2219,248.5743 887.2071,252.7596 878.2475,256.6252 " fill="none" id="string_DT-backto-Hex_DT" style="stroke:#A80036;stroke-width:1.0;"/><polygon fill="none" points="1312.3061,96.9806,1333.4874,97.5778,1316.5568,110.3197,1312.3061,96.9806" style="stroke:#A80036;stroke-width:1.0;"/><!--MD5=[0683a00fcbcf9dce0e3783e2c461f78f]
reverse link string_DT to IPAddress_DT--><path codeLine="75" d="M1383.0684,129.7922 C1390.978,143.9939 1401.6965,158.5978 1415.5,168 C1476.7412,209.7142 1506.6539,184.4346 1579.5,198 C1689.7882,218.5378 1719.6327,214.1791 1827.5,245 C1833.049,246.5855 1838.7956,248.4672 1844.4508,250.4689 " fill="none" id="string_DT-backto-IPAddress_DT" style="stroke:#A80036;stroke-width:1.0;"/><polygon fill="none" points="1376.7793,132.8658,1374.2653,111.8258,1389.3513,126.7058,1376.7793,132.8658" style="stroke:#A80036;stroke-width:1.0;"/><!--MD5=[e3c5d96fe21d260bba99edba66eeca97]
reverse link string_DT to IPv6Address_DT--><path codeLine="76" d="M1314.9248,111.0369 C1240.5147,145.6662 1102.2611,210.0073 1027.2088,244.9355 " fill="none" id="string_DT-backto-IPv6Address_DT" style="stroke:#A80036;stroke-width:1.0;"/><polygon fill="none" points="1312.1668,104.5996,1333.2529,102.5073,1318.0738,117.2924,1312.1668,104.5996" style="stroke:#A80036;stroke-width:1.0;"/><!--MD5=[015197a8d52f8a930a2f51b8d492d615]
reverse link string_DT to IPv4Address_DT--><path codeLine="77" d="M1317.0692,122.5206 C1267.3662,158.4613 1191.347,213.4313 1147.951,244.8114 " fill="none" id="string_DT-backto-IPv4Address_DT" style="stroke:#A80036;stroke-width:1.0;"/><polygon fill="none" points="1313.1472,116.7184,1333.4557,110.6715,1321.3507,128.0631,1313.1472,116.7184" style="stroke:#A80036;stroke-width:1.0;"/><!--MD5=[42c03fbaa9d8fa6a3cd56d1d5c7d8b2c]
reverse link string_DT to IPSubnet_DT--><path codeLine="78" d="M1337.8531,128.2961 C1313.5699,164.1285 1279.0584,215.0541 1258.901,244.7985 " fill="none" id="string_DT-backto-IPSubnet_DT" style="stroke:#A80036;stroke-width:1.0;"/><polygon fill="none" points="1332.1518,124.2311,1349.1665,111.6018,1343.7412,132.0852,1332.1518,124.2311" style="stroke:#A80036;stroke-width:1.0;"/><!--MD5=[b1437188d75cee920d34960fddc88d0d]
reverse link string_DT to IPv6Subnet_DT--><path codeLine="79" d="M1365.5,131.7771 C1365.5,167.3624 1365.5,216.0048 1365.5,244.7985 " fill="none" id="string_DT-backto-IPv6Subnet_DT" style="stroke:#A80036;stroke-width:1.0;"/><polygon fill="none" points="1358.5001,131.6018,1365.5,111.6018,1372.5001,131.6018,1358.5001,131.6018" style="stroke:#A80036;stroke-width:1.0;"/><!--MD5=[f61cd06e555ce64e821ec052adf3dff6]
reverse link string_DT to IPv4Subnet_DT--><path codeLine="80" d="M1390.0377,129.0193 C1397.8786,141.7256 1406.7894,155.6123 1415.5,168 C1434.5425,195.0811 1458.3054,224.6068 1474.9662,244.6992 " fill="none" id="string_DT-backto-IPv4Subnet_DT" style="stroke:#A80036;stroke-width:1.0;"/><polygon fill="none" points="1383.8369,132.2934,1379.4634,111.56,1395.8119,125.0407,1383.8369,132.2934" style="stroke:#A80036;stroke-width:1.0;"/><!--MD5=[eb94cba2b39e3843074a0f2da242f3f1]
reverse link integer_DT to Port_DT--><path codeLine="81" d="M422.046,128.2961 C447.1188,164.1285 482.7527,215.0541 503.5656,244.7985 " fill="none" id="integer_DT-backto-Port_DT" style="stroke:#A80036;stroke-width:1.0;"/><polygon fill="none" points="416.0955,132.0018,410.3646,111.6018,427.5663,123.9754,416.0955,132.0018" style="stroke:#A80036;stroke-width:1.0;"/><!--MD5=[30f79d849d7462876ada68b4f9099c9b]
reverse link integer_DT to AssignablePort_DT--><path codeLine="82" d="M441.9082,123.7391 C478.1635,150.2551 529.4152,186.4344 576.5,215 C593.4059,225.2565 612.3818,235.8254 629.1629,244.8636 " fill="none" id="integer_DT-backto-AssignablePort_DT" style="stroke:#A80036;stroke-width:1.0;"/><polygon fill="none" points="437.3474,129.0736,425.3988,111.5741,445.6523,117.8028,437.3474,129.0736" style="stroke:#A80036;stroke-width:1.0;"/><!--MD5=[742ca3d7733454c5f76a1aeadb2cf981]
reverse link integer_DT to SystemPort_DT--><path codeLine="83" d="M345.8039,123.7211 C298.4657,159.6704 227.2353,213.7638 186.3686,244.7985 " fill="none" id="integer_DT-backto-SystemPort_DT" style="stroke:#A80036;stroke-width:1.0;"/><polygon fill="none" points="341.6014,118.1229,361.7626,111.6018,350.0684,129.2723,341.6014,118.1229" style="stroke:#A80036;stroke-width:1.0;"/><!--MD5=[2b289f1a5c1bb2046d17988ea42ace21]
reverse link integer_DT to UserPort_DT--><path codeLine="84" d="M367.1122,128.7879 C344.2284,164.5931 311.891,215.1899 292.9676,244.7985 " fill="none" id="integer_DT-backto-UserPort_DT" style="stroke:#A80036;stroke-width:1.0;"/><polygon fill="none" points="361.4273,124.6843,378.0961,111.6018,373.2238,132.2237,361.4273,124.6843" style="stroke:#A80036;stroke-width:1.0;"/><!--MD5=[cab4988b0eaed9f21f1bc31252b308c4]
reverse link integer_DT to DynamicPort_DT--><path codeLine="85" d="M396.4274,131.7771 C398.7802,167.3624 401.9962,216.0048 403.8999,244.7985 " fill="none" id="integer_DT-backto-DynamicPort_DT" style="stroke:#A80036;stroke-width:1.0;"/><polygon fill="none" points="389.4283,132.0201,395.0935,111.6018,403.3978,131.0964,389.4283,132.0201" style="stroke:#A80036;stroke-width:1.0;"/><!--MD5=[2e1c28ad530b1d89d031358064e426e9]
reverse link string_DT to ServiceName_DT--><path codeLine="86" d="M1385.2758,129.2768 C1393.2271,142.8964 1403.4062,157.2597 1415.5,168 C1428.597,179.6312 1518.7891,220.0296 1578.4115,246.0734 " fill="none" id="string_DT-backto-ServiceName_DT" style="stroke:#A80036;stroke-width:1.0;"/><polygon fill="none" points="1379.0712,132.5181,1375.8433,111.5757,1391.4265,125.9342,1379.0712,132.5181" style="stroke:#A80036;stroke-width:1.0;"/><!--MD5=[688beb0adb9f6d8bfd9b0329cf9e6fee]
reverse link string_DT to Hostname_DT--><path codeLine="87" d="M1383.9301,129.953 C1391.8363,143.8557 1402.3309,158.2246 1415.5,168 C1428.7555,177.8396 1686.8077,239.874 1702.5,245 C1707.9858,246.792 1713.6939,248.7995 1719.3281,250.87 " fill="none" id="string_DT-backto-Hostname_DT" style="stroke:#A80036;stroke-width:1.0;"/><polygon fill="none" points="1377.5096,132.7676,1374.7452,111.759,1390.0073,126.4583,1377.5096,132.7676" style="stroke:#A80036;stroke-width:1.0;"/><!--MD5=[ef9eb5c76a3e8e7d52994c87625e81fd]
reverse link ContainerImageReference_DT to AssignablePort_DT--><path codeLine="88" d="M749.4471,178.3148 C729.3879,202.9145 709.3338,227.5078 695.1807,244.8645 " fill="none" id="ContainerImageReference_DT-backto-AssignablePort_DT" style="stroke:#A80036;stroke-width:1.0;"/><polygon fill="#A80036" points="757.7232,168.1655,750.8314,170.2877,750.1397,177.4655,757.0315,175.3433,757.7232,168.1655" style="stroke:#A80036;stroke-width:1.0;"/><text fill="#000000" font-family="sans-serif" font-size="13" lengthAdjust="spacing" textLength="26" x="732.5" y="211.5684">port</text><text fill="#000000" font-family="sans-serif" font-size="13" lengthAdjust="spacing" textLength="8" x="691.1989" y="234.3661">1</text><!--MD5=[ac2c932bbbdb5b38fd2640f19abb60b3]
reverse link ContainerImageReference_DT to Hex_DT--><path codeLine="89" d="M837.4487,181.2663 C840.9601,204.8704 844.4309,228.2021 846.9096,244.8645 " fill="none" id="ContainerImageReference_DT-backto-Hex_DT" style="stroke:#A80036;stroke-width:1.0;"/><polygon fill="#A80036" points="835.4998,168.1655,832.4262,174.6888,837.2655,180.0349,840.3391,173.5116,835.4998,168.1655" style="stroke:#A80036;stroke-width:1.0;"/><text fill="#000000" font-family="sans-serif" font-size="13" lengthAdjust="spacing" textLength="70" x="842.5" y="211.5684">digest-hex</text><text fill="#000000" font-family="sans-serif" font-size="13" lengthAdjust="spacing" textLength="8" x="836.9646" y="234.3661">1</text><!--MD5=[1f27c9de1b637fa30c783fabd725fbb3]
reverse link ContainerPort_DT to AssignablePort_DT--><path codeLine="90" d="M584.6764,148.2327 C580.6284,170.3823 580.5283,194.9035 591.5,215 C598.1461,227.1734 608.8415,237.0118 620.4063,244.7859 " fill="none" id="ContainerPort_DT-backto-AssignablePort_DT" style="stroke:#A80036;stroke-width:1.0;"/><polygon fill="#A80036" points="587.4622,135.5168,582.2709,140.5218,584.8942,147.2388,590.0855,142.2338,587.4622,135.5168" style="stroke:#A80036;stroke-width:1.0;"/><text fill="#000000" font-family="sans-serif" font-size="13" lengthAdjust="spacing" textLength="51" x="592.5" y="211.5684">external</text><text fill="#000000" font-family="sans-serif" font-size="13" lengthAdjust="spacing" textLength="8" x="601.1416" y="236.3384">1</text><!--MD5=[1f27c9de1b637fa30c783fabd725fbb3]
reverse link ContainerPort_DT to AssignablePort_DT--><path codeLine="91" d="M629.0467,147.7605 C635.3878,164.0563 642.2273,181.6947 648.5,198 C654.5135,213.6314 661.2054,231.2273 666.4227,244.9915 " fill="none" id="ContainerPort_DT-backto-AssignablePort_DT-1" style="stroke:#A80036;stroke-width:1.0;"/><polygon fill="#A80036" points="624.3125,135.6051,622.7628,142.6477,628.6676,146.7869,630.2173,139.7443,624.3125,135.6051" style="stroke:#A80036;stroke-width:1.0;"/><text fill="#000000" font-family="sans-serif" font-size="13" lengthAdjust="spacing" textLength="48" x="654.5" y="211.5684">internal</text><text fill="#000000" font-family="sans-serif" font-size="13" lengthAdjust="spacing" textLength="8" x="654.9082" y="234.1337">1</text><!--MD5=[24f86d35fec5f8f0c644adcc8a1dcc94]
@startuml
set namespaceSeparator none
class "integer" as integer_DT << (D,green) >> #DDDDDD
class "Count" as Count_DT << (D,green) >> {
}
class "string" as string_DT << (D,green) >> #DDDDDD
class "Hex" as Hex_DT << (D,green) >> {
}
class "string" as string_DT << (D,green) >> #DDDDDD
class "IPAddress" as IPAddress_DT << (D,green) >> {
}
class "string" as string_DT << (D,green) >> #DDDDDD
class "IPv6Address" as IPv6Address_DT << (D,green) >> {
}
class "string" as string_DT << (D,green) >> #DDDDDD
class "IPv4Address" as IPv4Address_DT << (D,green) >> {
}
class "string" as string_DT << (D,green) >> #DDDDDD
class "IPSubnet" as IPSubnet_DT << (D,green) >> {
}
class "string" as string_DT << (D,green) >> #DDDDDD
class "IPv6Subnet" as IPv6Subnet_DT << (D,green) >> {
}
class "string" as string_DT << (D,green) >> #DDDDDD
class "IPv4Subnet" as IPv4Subnet_DT << (D,green) >> {
}
class "integer" as integer_DT << (D,green) >> #DDDDDD
class "Port" as Port_DT << (D,green) >> {
}
class "integer" as integer_DT << (D,green) >> #DDDDDD
class "AssignablePort" as AssignablePort_DT << (D,green) >> {
}
class "integer" as integer_DT << (D,green) >> #DDDDDD
class "SystemPort" as SystemPort_DT << (D,green) >> {
}
class "integer" as integer_DT << (D,green) >> #DDDDDD
class "UserPort" as UserPort_DT << (D,green) >> {
}
class "integer" as integer_DT << (D,green) >> #DDDDDD
class "DynamicPort" as DynamicPort_DT << (D,green) >> {
}
class "string" as string_DT << (D,green) >> #DDDDDD
class "ServiceName" as ServiceName_DT << (D,green) >> {
}
class "string" as string_DT << (D,green) >> #DDDDDD
class "Hostname" as Hostname_DT << (D,green) >> {
}
class "Command" as Command_DT << (D,green) >> {
.. properties ..
+<b>name : string
+arguments : list<string>
}
class "Schedule" as Schedule_DT << (D,green) >> {
.. properties ..
+<b>times : list<scalar-unit.time>
}
class "ContainerImageReference" as ContainerImageReference_DT << (D,green) >> {
.. properties ..
+reference : string
+host : string
+port : AssignablePort
+repository : string
+image : string
+tag : string
+digest-algorithm : string
+digest-hex : Hex
}
class "ContainerPort" as ContainerPort_DT << (D,green) >> {
.. properties ..
+external : AssignablePort
+<b>internal : AssignablePort
+<b>protocol : string = 'TCP'
}
integer_DT <|- - Count_DT
string_DT <|- - Hex_DT
string_DT <|- - IPAddress_DT
string_DT <|- - IPv6Address_DT
string_DT <|- - IPv4Address_DT
string_DT <|- - IPSubnet_DT
string_DT <|- - IPv6Subnet_DT
string_DT <|- - IPv4Subnet_DT
integer_DT <|- - Port_DT
integer_DT <|- - AssignablePort_DT
integer_DT <|- - SystemPort_DT
integer_DT <|- - UserPort_DT
integer_DT <|- - DynamicPort_DT
string_DT <|- - ServiceName_DT
string_DT <|- - Hostname_DT
ContainerImageReference_DT *- - "1" AssignablePort_DT : port
ContainerImageReference_DT *- - "1" Hex_DT : digest-hex
ContainerPort_DT *- - "1" AssignablePort_DT : external
ContainerPort_DT *- - "1" AssignablePort_DT : internal
@enduml

PlantUML version 1.2021.13(Mon Nov 01 12:38:45 CET 2021)
(GPL source distribution)
Java Runtime: Java(TM) SE Runtime Environment
JVM: Java HotSpot(TM) 64-Bit Server VM
Default Encoding: UTF-8
Language: fr
Country: FR
--></g></svg>