<?xml version="1.0" encoding="UTF-8" standalone="no"?><svg xmlns="http://www.w3.org/2000/svg" xmlns:xlink="http://www.w3.org/1999/xlink" contentScriptType="application/ecmascript" contentStyleType="text/css" height="307px" preserveAspectRatio="none" style="width:1832px;height:307px;background:#FFFFFF;" version="1.1" viewBox="0 0 1832 307" width="1832px" zoomAndPan="magnify"><defs><filter height="300%" id="f1vlpqa2ldysex" width="300%" x="-1" y="-1"><feGaussianBlur result="blurOut" stdDeviation="2.0"/><feColorMatrix in="blurOut" result="blurOut2" type="matrix" values="0 0 0 0 0 0 0 0 0 0 0 0 0 0 0 0 0 0 .4 0"/><feOffset dx="4.0" dy="4.0" in="blurOut2" result="blurOut3"/><feBlend in="SourceGraphic" in2="blurOut3" mode="normal"/></filter></defs><g><!--MD5=[41f0fda68ce78c06dec3488c65209e06]
class integer_DT--><rect codeLine="35" fill="#DDDDDD" filter="url(#f1vlpqa2ldysex)" height="48" id="integer_DT" style="stroke:#A80036;stroke-width:1.5;" width="72" x="320.5" y="63.5"/><ellipse cx="335.5" cy="79.5" fill="#008000" rx="11" ry="11" style="stroke:#A80036;stroke-width:1.0;"/><path d="M335.0859,75.3149 L335.0859,83.292 L335.75,83.292 Q337.1943,83.292 337.8086,82.3831 Q338.4229,81.4741 338.4229,79.291 Q338.4229,77.1245 337.8086,76.2197 Q337.1943,75.3149 335.75,75.3149 Z M332.6372,73.1069 L335.2603,73.1069 Q338.2983,73.1069 339.6348,74.5554 Q340.9712,76.0039 340.9712,79.291 Q340.9712,82.5864 339.6348,84.0432 Q338.2983,85.5 335.2603,85.5 L332.6372,85.5 Z " fill="#000000"/><text fill="#000000" font-family="sans-serif" font-size="12" lengthAdjust="spacing" textLength="40" x="349.5" y="84.0352">integer</text><line style="stroke:#A80036;stroke-width:1.5;" x1="321.5" x2="391.5" y1="95.5" y2="95.5"/><line style="stroke:#A80036;stroke-width:1.5;" x1="321.5" x2="391.5" y1="103.5" y2="103.5"/><!--MD5=[51713e9e201d863486e8d34b0a00816e]
class Count_DT--><rect codeLine="3" fill="#FEFECE" filter="url(#f1vlpqa2ldysex)" height="48" id="Count_DT" style="stroke:#A80036;stroke-width:1.5;" width="65" x="7" y="245"/><ellipse cx="22" cy="261" fill="#008000" rx="11" ry="11" style="stroke:#A80036;stroke-width:1.0;"/><path d="M21.5859,256.8149 L21.5859,264.792 L22.25,264.792 Q23.6943,264.792 24.3086,263.8831 Q24.9229,262.9741 24.9229,260.791 Q24.9229,258.6245 24.3086,257.7197 Q23.6943,256.8149 22.25,256.8149 Z M19.1372,254.6069 L21.7603,254.6069 Q24.7983,254.6069 26.1348,256.0554 Q27.4712,257.5039 27.4712,260.791 Q27.4712,264.0864 26.1348,265.5432 Q24.7983,267 21.7603,267 L19.1372,267 Z " fill="#000000"/><text fill="#000000" font-family="sans-serif" font-size="12" lengthAdjust="spacing" textLength="33" x="36" y="265.5352">Count</text><line style="stroke:#A80036;stroke-width:1.5;" x1="8" x2="71" y1="277" y2="277"/><line style="stroke:#A80036;stroke-width:1.5;" x1="8" x2="71" y1="285" y2="285"/><!--MD5=[8990b5f6e62d94501e15b50ea3f87186]
class string_DT--><rect codeLine="41" fill="#DDDDDD" filter="url(#f1vlpqa2ldysex)" height="48" id="string_DT" style="stroke:#A80036;stroke-width:1.5;" width="64" x="1280.5" y="63.5"/><ellipse cx="1295.5" cy="79.5" fill="#008000" rx="11" ry="11" style="stroke:#A80036;stroke-width:1.0;"/><path d="M1295.0859,75.3149 L1295.0859,83.292 L1295.75,83.292 Q1297.1943,83.292 1297.8086,82.3831 Q1298.4229,81.4741 1298.4229,79.291 Q1298.4229,77.1245 1297.8086,76.2197 Q1297.1943,75.3149 1295.75,75.3149 Z M1292.6372,73.1069 L1295.2603,73.1069 Q1298.2983,73.1069 1299.6348,74.5554 Q1300.9712,76.0039 1300.9712,79.291 Q1300.9712,82.5864 1299.6348,84.0432 Q1298.2983,85.5 1295.2603,85.5 L1292.6372,85.5 Z " fill="#000000"/><text fill="#000000" font-family="sans-serif" font-size="12" lengthAdjust="spacing" textLength="32" x="1309.5" y="84.0352">string</text><line style="stroke:#A80036;stroke-width:1.5;" x1="1281.5" x2="1343.5" y1="95.5" y2="95.5"/><line style="stroke:#A80036;stroke-width:1.5;" x1="1281.5" x2="1343.5" y1="103.5" y2="103.5"/><!--MD5=[18458faf0c5a2eb443a068047a08c1c7]
class IPAddress_DT--><rect codeLine="6" fill="#FEFECE" filter="url(#f1vlpqa2ldysex)" height="48" id="IPAddress_DT" style="stroke:#A80036;stroke-width:1.5;" width="90" x="807.5" y="245"/><ellipse cx="822.5" cy="261" fill="#008000" rx="11" ry="11" style="stroke:#A80036;stroke-width:1.0;"/><path d="M822.0859,256.8149 L822.0859,264.792 L822.75,264.792 Q824.1943,264.792 824.8086,263.8831 Q825.4229,262.9741 825.4229,260.791 Q825.4229,258.6245 824.8086,257.7197 Q824.1943,256.8149 822.75,256.8149 Z M819.6372,254.6069 L822.2603,254.6069 Q825.2983,254.6069 826.6348,256.0554 Q827.9712,257.5039 827.9712,260.791 Q827.9712,264.0864 826.6348,265.5432 Q825.2983,267 822.2603,267 L819.6372,267 Z " fill="#000000"/><text fill="#000000" font-family="sans-serif" font-size="12" lengthAdjust="spacing" textLength="58" x="836.5" y="265.5352">IPAddress</text><line style="stroke:#A80036;stroke-width:1.5;" x1="808.5" x2="896.5" y1="277" y2="277"/><line style="stroke:#A80036;stroke-width:1.5;" x1="808.5" x2="896.5" y1="285" y2="285"/><!--MD5=[ec9b6f8ee65099e8244796ac65f31284]
class IPv6Address_DT--><rect codeLine="9" fill="#FEFECE" filter="url(#f1vlpqa2ldysex)" height="48" id="IPv6Address_DT" style="stroke:#A80036;stroke-width:1.5;" width="104" x="932.5" y="245"/><ellipse cx="947.5" cy="261" fill="#008000" rx="11" ry="11" style="stroke:#A80036;stroke-width:1.0;"/><path d="M947.0859,256.8149 L947.0859,264.792 L947.75,264.792 Q949.1943,264.792 949.8086,263.8831 Q950.4229,262.9741 950.4229,260.791 Q950.4229,258.6245 949.8086,257.7197 Q949.1943,256.8149 947.75,256.8149 Z M944.6372,254.6069 L947.2603,254.6069 Q950.2983,254.6069 951.6348,256.0554 Q952.9712,257.5039 952.9712,260.791 Q952.9712,264.0864 951.6348,265.5432 Q950.2983,267 947.2603,267 L944.6372,267 Z " fill="#000000"/><text fill="#000000" font-family="sans-serif" font-size="12" lengthAdjust="spacing" textLength="72" x="961.5" y="265.5352">IPv6Address</text><line style="stroke:#A80036;stroke-width:1.5;" x1="933.5" x2="1035.5" y1="277" y2="277"/><line style="stroke:#A80036;stroke-width:1.5;" x1="933.5" x2="1035.5" y1="285" y2="285"/><!--MD5=[abdce6238daa33b03dc37cab1fb82b9f]
class IPv4Address_DT--><rect codeLine="12" fill="#FEFECE" filter="url(#f1vlpqa2ldysex)" height="48" id="IPv4Address_DT" style="stroke:#A80036;stroke-width:1.5;" width="104" x="1071.5" y="245"/><ellipse cx="1086.5" cy="261" fill="#008000" rx="11" ry="11" style="stroke:#A80036;stroke-width:1.0;"/><path d="M1086.0859,256.8149 L1086.0859,264.792 L1086.75,264.792 Q1088.1943,264.792 1088.8086,263.8831 Q1089.4229,262.9741 1089.4229,260.791 Q1089.4229,258.6245 1088.8086,257.7197 Q1088.1943,256.8149 1086.75,256.8149 Z M1083.6372,254.6069 L1086.2603,254.6069 Q1089.2983,254.6069 1090.6348,256.0554 Q1091.9712,257.5039 1091.9712,260.791 Q1091.9712,264.0864 1090.6348,265.5432 Q1089.2983,267 1086.2603,267 L1083.6372,267 Z " fill="#000000"/><text fill="#000000" font-family="sans-serif" font-size="12" lengthAdjust="spacing" textLength="72" x="1100.5" y="265.5352">IPv4Address</text><line style="stroke:#A80036;stroke-width:1.5;" x1="1072.5" x2="1174.5" y1="277" y2="277"/><line style="stroke:#A80036;stroke-width:1.5;" x1="1072.5" x2="1174.5" y1="285" y2="285"/><!--MD5=[9644abb68ecb23f16c4779e169e22d05]
class IPSubnet_DT--><rect codeLine="15" fill="#FEFECE" filter="url(#f1vlpqa2ldysex)" height="48" id="IPSubnet_DT" style="stroke:#A80036;stroke-width:1.5;" width="81" x="1211" y="245"/><ellipse cx="1226" cy="261" fill="#008000" rx="11" ry="11" style="stroke:#A80036;stroke-width:1.0;"/><path d="M1225.5859,256.8149 L1225.5859,264.792 L1226.25,264.792 Q1227.6943,264.792 1228.3086,263.8831 Q1228.9229,262.9741 1228.9229,260.791 Q1228.9229,258.6245 1228.3086,257.7197 Q1227.6943,256.8149 1226.25,256.8149 Z M1223.1372,254.6069 L1225.7603,254.6069 Q1228.7983,254.6069 1230.1348,256.0554 Q1231.4712,257.5039 1231.4712,260.791 Q1231.4712,264.0864 1230.1348,265.5432 Q1228.7983,267 1225.7603,267 L1223.1372,267 Z " fill="#000000"/><text fill="#000000" font-family="sans-serif" font-size="12" lengthAdjust="spacing" textLength="49" x="1240" y="265.5352">IPSubnet</text><line style="stroke:#A80036;stroke-width:1.5;" x1="1212" x2="1291" y1="277" y2="277"/><line style="stroke:#A80036;stroke-width:1.5;" x1="1212" x2="1291" y1="285" y2="285"/><!--MD5=[fc6f912601bc9e2ec588c6424abcc810]
class IPv6Subnet_DT--><rect codeLine="18" fill="#FEFECE" filter="url(#f1vlpqa2ldysex)" height="48" id="IPv6Subnet_DT" style="stroke:#A80036;stroke-width:1.5;" width="95" x="1327" y="245"/><ellipse cx="1342" cy="261" fill="#008000" rx="11" ry="11" style="stroke:#A80036;stroke-width:1.0;"/><path d="M1341.5859,256.8149 L1341.5859,264.792 L1342.25,264.792 Q1343.6943,264.792 1344.3086,263.8831 Q1344.9229,262.9741 1344.9229,260.791 Q1344.9229,258.6245 1344.3086,257.7197 Q1343.6943,256.8149 1342.25,256.8149 Z M1339.1372,254.6069 L1341.7603,254.6069 Q1344.7983,254.6069 1346.1348,256.0554 Q1347.4712,257.5039 1347.4712,260.791 Q1347.4712,264.0864 1346.1348,265.5432 Q1344.7983,267 1341.7603,267 L1339.1372,267 Z " fill="#000000"/><text fill="#000000" font-family="sans-serif" font-size="12" lengthAdjust="spacing" textLength="63" x="1356" y="265.5352">IPv6Subnet</text><line style="stroke:#A80036;stroke-width:1.5;" x1="1328" x2="1421" y1="277" y2="277"/><line style="stroke:#A80036;stroke-width:1.5;" x1="1328" x2="1421" y1="285" y2="285"/><!--MD5=[3f01746acc3886d935f638eda5487a3b]
class IPv4Subnet_DT--><rect codeLine="21" fill="#FEFECE" filter="url(#f1vlpqa2ldysex)" height="48" id="IPv4Subnet_DT" style="stroke:#A80036;stroke-width:1.5;" width="95" x="1457" y="245"/><ellipse cx="1472" cy="261" fill="#008000" rx="11" ry="11" style="stroke:#A80036;stroke-width:1.0;"/><path d="M1471.5859,256.8149 L1471.5859,264.792 L1472.25,264.792 Q1473.6943,264.792 1474.3086,263.8831 Q1474.9229,262.9741 1474.9229,260.791 Q1474.9229,258.6245 1474.3086,257.7197 Q1473.6943,256.8149 1472.25,256.8149 Z M1469.1372,254.6069 L1471.7603,254.6069 Q1474.7983,254.6069 1476.1348,256.0554 Q1477.4712,257.5039 1477.4712,260.791 Q1477.4712,264.0864 1476.1348,265.5432 Q1474.7983,267 1471.7603,267 L1469.1372,267 Z " fill="#000000"/><text fill="#000000" font-family="sans-serif" font-size="12" lengthAdjust="spacing" textLength="63" x="1486" y="265.5352">IPv4Subnet</text><line style="stroke:#A80036;stroke-width:1.5;" x1="1458" x2="1551" y1="277" y2="277"/><line style="stroke:#A80036;stroke-width:1.5;" x1="1458" x2="1551" y1="285" y2="285"/><!--MD5=[acc02d62b9c36163d6f647570fbbac95]
class Port_DT--><rect codeLine="24" fill="#FEFECE" filter="url(#f1vlpqa2ldysex)" height="48" id="Port_DT" style="stroke:#A80036;stroke-width:1.5;" width="55" x="107" y="245"/><ellipse cx="122" cy="261" fill="#008000" rx="11" ry="11" style="stroke:#A80036;stroke-width:1.0;"/><path d="M121.5859,256.8149 L121.5859,264.792 L122.25,264.792 Q123.6943,264.792 124.3086,263.8831 Q124.9229,262.9741 124.9229,260.791 Q124.9229,258.6245 124.3086,257.7197 Q123.6943,256.8149 122.25,256.8149 Z M119.1372,254.6069 L121.7603,254.6069 Q124.7983,254.6069 126.1348,256.0554 Q127.4712,257.5039 127.4712,260.791 Q127.4712,264.0864 126.1348,265.5432 Q124.7983,267 121.7603,267 L119.1372,267 Z " fill="#000000"/><text fill="#000000" font-family="sans-serif" font-size="12" lengthAdjust="spacing" textLength="23" x="136" y="265.5352">Port</text><line style="stroke:#A80036;stroke-width:1.5;" x1="108" x2="161" y1="277" y2="277"/><line style="stroke:#A80036;stroke-width:1.5;" x1="108" x2="161" y1="285" y2="285"/><!--MD5=[fc6454ac7791224bf35d5e8eb7b477a4]
class AssignablePort_DT--><rect codeLine="27" fill="#FEFECE" filter="url(#f1vlpqa2ldysex)" height="48" id="AssignablePort_DT" style="stroke:#A80036;stroke-width:1.5;" width="117" x="605" y="245"/><ellipse cx="620" cy="261" fill="#008000" rx="11" ry="11" style="stroke:#A80036;stroke-width:1.0;"/><path d="M619.5859,256.8149 L619.5859,264.792 L620.25,264.792 Q621.6943,264.792 622.3086,263.8831 Q622.9229,262.9741 622.9229,260.791 Q622.9229,258.6245 622.3086,257.7197 Q621.6943,256.8149 620.25,256.8149 Z M617.1372,254.6069 L619.7603,254.6069 Q622.7983,254.6069 624.1348,256.0554 Q625.4712,257.5039 625.4712,260.791 Q625.4712,264.0864 624.1348,265.5432 Q622.7983,267 619.7603,267 L617.1372,267 Z " fill="#000000"/><text fill="#000000" font-family="sans-serif" font-size="12" lengthAdjust="spacing" textLength="85" x="634" y="265.5352">AssignablePort</text><line style="stroke:#A80036;stroke-width:1.5;" x1="606" x2="721" y1="277" y2="277"/><line style="stroke:#A80036;stroke-width:1.5;" x1="606" x2="721" y1="285" y2="285"/><!--MD5=[c9b83a69c0a8bbb53d142842e52365c7]
class SystemPort_DT--><rect codeLine="30" fill="#FEFECE" filter="url(#f1vlpqa2ldysex)" height="48" id="SystemPort_DT" style="stroke:#A80036;stroke-width:1.5;" width="95" x="197" y="245"/><ellipse cx="212" cy="261" fill="#008000" rx="11" ry="11" style="stroke:#A80036;stroke-width:1.0;"/><path d="M211.5859,256.8149 L211.5859,264.792 L212.25,264.792 Q213.6943,264.792 214.3086,263.8831 Q214.9229,262.9741 214.9229,260.791 Q214.9229,258.6245 214.3086,257.7197 Q213.6943,256.8149 212.25,256.8149 Z M209.1372,254.6069 L211.7603,254.6069 Q214.7983,254.6069 216.1348,256.0554 Q217.4712,257.5039 217.4712,260.791 Q217.4712,264.0864 216.1348,265.5432 Q214.7983,267 211.7603,267 L209.1372,267 Z " fill="#000000"/><text fill="#000000" font-family="sans-serif" font-size="12" lengthAdjust="spacing" textLength="63" x="226" y="265.5352">SystemPort</text><line style="stroke:#A80036;stroke-width:1.5;" x1="198" x2="291" y1="277" y2="277"/><line style="stroke:#A80036;stroke-width:1.5;" x1="198" x2="291" y1="285" y2="285"/><!--MD5=[1148bc7d58c832e8cc05334d534f7871]
class UserPort_DT--><rect codeLine="33" fill="#FEFECE" filter="url(#f1vlpqa2ldysex)" height="48" id="UserPort_DT" style="stroke:#A80036;stroke-width:1.5;" width="81" x="327" y="245"/><ellipse cx="342" cy="261" fill="#008000" rx="11" ry="11" style="stroke:#A80036;stroke-width:1.0;"/><path d="M341.5859,256.8149 L341.5859,264.792 L342.25,264.792 Q343.6943,264.792 344.3086,263.8831 Q344.9229,262.9741 344.9229,260.791 Q344.9229,258.6245 344.3086,257.7197 Q343.6943,256.8149 342.25,256.8149 Z M339.1372,254.6069 L341.7603,254.6069 Q344.7983,254.6069 346.1348,256.0554 Q347.4712,257.5039 347.4712,260.791 Q347.4712,264.0864 346.1348,265.5432 Q344.7983,267 341.7603,267 L339.1372,267 Z " fill="#000000"/><text fill="#000000" font-family="sans-serif" font-size="12" lengthAdjust="spacing" textLength="49" x="356" y="265.5352">UserPort</text><line style="stroke:#A80036;stroke-width:1.5;" x1="328" x2="407" y1="277" y2="277"/><line style="stroke:#A80036;stroke-width:1.5;" x1="328" x2="407" y1="285" y2="285"/><!--MD5=[d5de7f5e3c1adb4c3fabb13ecb777329]
class DynamicPort_DT--><rect codeLine="36" fill="#FEFECE" filter="url(#f1vlpqa2ldysex)" height="48" id="DynamicPort_DT" style="stroke:#A80036;stroke-width:1.5;" width="104" x="443.5" y="245"/><ellipse cx="458.5" cy="261" fill="#008000" rx="11" ry="11" style="stroke:#A80036;stroke-width:1.0;"/><path d="M458.0859,256.8149 L458.0859,264.792 L458.75,264.792 Q460.1943,264.792 460.8086,263.8831 Q461.4229,262.9741 461.4229,260.791 Q461.4229,258.6245 460.8086,257.7197 Q460.1943,256.8149 458.75,256.8149 Z M455.6372,254.6069 L458.2603,254.6069 Q461.2983,254.6069 462.6348,256.0554 Q463.9712,257.5039 463.9712,260.791 Q463.9712,264.0864 462.6348,265.5432 Q461.2983,267 458.2603,267 L455.6372,267 Z " fill="#000000"/><text fill="#000000" font-family="sans-serif" font-size="12" lengthAdjust="spacing" textLength="72" x="472.5" y="265.5352">DynamicPort</text><line style="stroke:#A80036;stroke-width:1.5;" x1="444.5" x2="546.5" y1="277" y2="277"/><line style="stroke:#A80036;stroke-width:1.5;" x1="444.5" x2="546.5" y1="285" y2="285"/><!--MD5=[7d2e5996a61636f79089202e8250a555]
class ServiceName_DT--><rect codeLine="39" fill="#FEFECE" filter="url(#f1vlpqa2ldysex)" height="48" id="ServiceName_DT" style="stroke:#A80036;stroke-width:1.5;" width="106" x="1587.5" y="245"/><ellipse cx="1602.5" cy="261" fill="#008000" rx="11" ry="11" style="stroke:#A80036;stroke-width:1.0;"/><path d="M1602.0859,256.8149 L1602.0859,264.792 L1602.75,264.792 Q1604.1943,264.792 1604.8086,263.8831 Q1605.4229,262.9741 1605.4229,260.791 Q1605.4229,258.6245 1604.8086,257.7197 Q1604.1943,256.8149 1602.75,256.8149 Z M1599.6372,254.6069 L1602.2603,254.6069 Q1605.2983,254.6069 1606.6348,256.0554 Q1607.9712,257.5039 1607.9712,260.791 Q1607.9712,264.0864 1606.6348,265.5432 Q1605.2983,267 1602.2603,267 L1599.6372,267 Z " fill="#000000"/><text fill="#000000" font-family="sans-serif" font-size="12" lengthAdjust="spacing" textLength="74" x="1616.5" y="265.5352">ServiceName</text><line style="stroke:#A80036;stroke-width:1.5;" x1="1588.5" x2="1692.5" y1="277" y2="277"/><line style="stroke:#A80036;stroke-width:1.5;" x1="1588.5" x2="1692.5" y1="285" y2="285"/><!--MD5=[20354702e4745dc9cb07a50ea00483b4]
class Hostname_DT--><rect codeLine="42" fill="#FEFECE" filter="url(#f1vlpqa2ldysex)" height="48" id="Hostname_DT" style="stroke:#A80036;stroke-width:1.5;" width="90" x="1728.5" y="245"/><ellipse cx="1743.5" cy="261" fill="#008000" rx="11" ry="11" style="stroke:#A80036;stroke-width:1.0;"/><path d="M1743.0859,256.8149 L1743.0859,264.792 L1743.75,264.792 Q1745.1943,264.792 1745.8086,263.8831 Q1746.4229,262.9741 1746.4229,260.791 Q1746.4229,258.6245 1745.8086,257.7197 Q1745.1943,256.8149 1743.75,256.8149 Z M1740.6372,254.6069 L1743.2603,254.6069 Q1746.2983,254.6069 1747.6348,256.0554 Q1748.9712,257.5039 1748.9712,260.791 Q1748.9712,264.0864 1747.6348,265.5432 Q1746.2983,267 1743.2603,267 L1740.6372,267 Z " fill="#000000"/><text fill="#000000" font-family="sans-serif" font-size="12" lengthAdjust="spacing" textLength="58" x="1757.5" y="265.5352">Hostname</text><line style="stroke:#A80036;stroke-width:1.5;" x1="1729.5" x2="1817.5" y1="277" y2="277"/><line style="stroke:#A80036;stroke-width:1.5;" x1="1729.5" x2="1817.5" y1="285" y2="285"/><!--MD5=[46c5a7a3e198fff0130b1c70a3da179b]
class Command_DT--><rect codeLine="44" fill="#FEFECE" filter="url(#f1vlpqa2ldysex)" height="82.8652" id="Command_DT" style="stroke:#A80036;stroke-width:1.5;" width="159" x="1380" y="46"/><ellipse cx="1425.75" cy="62" fill="#008000" rx="11" ry="11" style="stroke:#A80036;stroke-width:1.0;"/><path d="M1425.3359,57.8149 L1425.3359,65.792 L1426,65.792 Q1427.4443,65.792 1428.0586,64.8831 Q1428.6729,63.9741 1428.6729,61.791 Q1428.6729,59.6245 1428.0586,58.7197 Q1427.4443,57.8149 1426,57.8149 Z M1422.8872,55.6069 L1425.5103,55.6069 Q1428.5483,55.6069 1429.8848,57.0554 Q1431.2212,58.5039 1431.2212,61.791 Q1431.2212,65.0864 1429.8848,66.5432 Q1428.5483,68 1425.5103,68 L1422.8872,68 Z " fill="#000000"/><text fill="#000000" font-family="sans-serif" font-size="12" lengthAdjust="spacing" textLength="59" x="1446.25" y="66.5352">Command</text><line style="stroke:#A80036;stroke-width:1.5;" x1="1381" x2="1538" y1="78" y2="78"/><ellipse cx="1391" cy="105.9551" rx="3" ry="3" style="stroke:#038048;stroke-width:1.0;fill:none;"/><text fill="#000000" font-family="sans-serif" font-size="11" font-weight="bold" lengthAdjust="spacing" textLength="74" x="1400" y="109.5898">name : string</text><ellipse cx="1391" cy="118.9102" rx="3" ry="3" style="stroke:#038048;stroke-width:1.0;fill:none;"/><text fill="#000000" font-family="sans-serif" font-size="11" lengthAdjust="spacing" textLength="133" x="1400" y="122.5449">arguments : list&lt;string&gt;</text><line style="stroke:#A80036;stroke-width:1.0;stroke-dasharray:1.0,2.0;" x1="1381" x2="1431.5" y1="92.4775" y2="92.4775"/><text fill="#000000" font-family="sans-serif" font-size="11" lengthAdjust="spacing" textLength="56" x="1431.5" y="96.1348">properties</text><line style="stroke:#A80036;stroke-width:1.0;stroke-dasharray:1.0,2.0;" x1="1487.5" x2="1538" y1="92.4775" y2="92.4775"/><!--MD5=[9945816e88e684ae9ebe2d10fdbb37f7]
class Schedule_DT--><rect codeLine="49" fill="#FEFECE" filter="url(#f1vlpqa2ldysex)" height="69.9102" id="Schedule_DT" style="stroke:#A80036;stroke-width:1.5;" width="194" x="1574.5" y="52.5"/><ellipse cx="1641.75" cy="68.5" fill="#008000" rx="11" ry="11" style="stroke:#A80036;stroke-width:1.0;"/><path d="M1641.3359,64.3149 L1641.3359,72.292 L1642,72.292 Q1643.4443,72.292 1644.0586,71.3831 Q1644.6729,70.4741 1644.6729,68.291 Q1644.6729,66.1245 1644.0586,65.2197 Q1643.4443,64.3149 1642,64.3149 Z M1638.8872,62.1069 L1641.5103,62.1069 Q1644.5483,62.1069 1645.8848,63.5554 Q1647.2212,65.0039 1647.2212,68.291 Q1647.2212,71.5864 1645.8848,73.0432 Q1644.5483,74.5 1641.5103,74.5 L1638.8872,74.5 Z " fill="#000000"/><text fill="#000000" font-family="sans-serif" font-size="12" lengthAdjust="spacing" textLength="51" x="1662.25" y="73.0352">Schedule</text><line style="stroke:#A80036;stroke-width:1.5;" x1="1575.5" x2="1767.5" y1="84.5" y2="84.5"/><ellipse cx="1585.5" cy="112.4551" rx="3" ry="3" style="stroke:#038048;stroke-width:1.0;fill:none;"/><text fill="#000000" font-family="sans-serif" font-size="11" font-weight="bold" lengthAdjust="spacing" textLength="168" x="1594.5" y="116.0898">times : list&lt;scalar-unit.time&gt;</text><line style="stroke:#A80036;stroke-width:1.0;stroke-dasharray:1.0,2.0;" x1="1575.5" x2="1643.5" y1="98.9775" y2="98.9775"/><text fill="#000000" font-family="sans-serif" font-size="11" lengthAdjust="spacing" textLength="56" x="1643.5" y="102.6348">properties</text><line style="stroke:#A80036;stroke-width:1.0;stroke-dasharray:1.0,2.0;" x1="1699.5" x2="1767.5" y1="98.9775" y2="98.9775"/><!--MD5=[3ba9dade23f8c959751e1fda489706c2]
class ContainerImageReference_DT--><rect codeLine="53" fill="#FEFECE" filter="url(#f1vlpqa2ldysex)" height="160.5957" id="ContainerImageReference_DT" style="stroke:#A80036;stroke-width:1.5;" width="180" x="487.5" y="7"/><ellipse cx="502.5" cy="23" fill="#008000" rx="11" ry="11" style="stroke:#A80036;stroke-width:1.0;"/><path d="M502.0859,18.8149 L502.0859,26.792 L502.75,26.792 Q504.1943,26.792 504.8086,25.8831 Q505.4229,24.9741 505.4229,22.791 Q505.4229,20.6245 504.8086,19.7197 Q504.1943,18.8149 502.75,18.8149 Z M499.6372,16.6069 L502.2603,16.6069 Q505.2983,16.6069 506.6348,18.0554 Q507.9712,19.5039 507.9712,22.791 Q507.9712,26.0864 506.6348,27.5432 Q505.2983,29 502.2603,29 L499.6372,29 Z " fill="#000000"/><text fill="#000000" font-family="sans-serif" font-size="12" lengthAdjust="spacing" textLength="148" x="516.5" y="27.5352">ContainerImageReference</text><line style="stroke:#A80036;stroke-width:1.5;" x1="488.5" x2="666.5" y1="39" y2="39"/><ellipse cx="498.5" cy="66.9551" rx="3" ry="3" style="stroke:#038048;stroke-width:1.0;fill:none;"/><text fill="#000000" font-family="sans-serif" font-size="11" lengthAdjust="spacing" textLength="92" x="507.5" y="70.5898">reference : string</text><ellipse cx="498.5" cy="79.9102" rx="3" ry="3" style="stroke:#038048;stroke-width:1.0;fill:none;"/><text fill="#000000" font-family="sans-serif" font-size="11" lengthAdjust="spacing" textLength="65" x="507.5" y="83.5449">host : string</text><ellipse cx="498.5" cy="92.8652" rx="3" ry="3" style="stroke:#038048;stroke-width:1.0;fill:none;"/><text fill="#000000" font-family="sans-serif" font-size="11" lengthAdjust="spacing" textLength="113" x="507.5" y="96.5">port : AssignablePort</text><ellipse cx="498.5" cy="105.8203" rx="3" ry="3" style="stroke:#038048;stroke-width:1.0;fill:none;"/><text fill="#000000" font-family="sans-serif" font-size="11" lengthAdjust="spacing" textLength="97" x="507.5" y="109.4551">repository : string</text><ellipse cx="498.5" cy="118.7754" rx="3" ry="3" style="stroke:#038048;stroke-width:1.0;fill:none;"/><text fill="#000000" font-family="sans-serif" font-size="11" lengthAdjust="spacing" textLength="73" x="507.5" y="122.4102">image : string</text><ellipse cx="498.5" cy="131.7305" rx="3" ry="3" style="stroke:#038048;stroke-width:1.0;fill:none;"/><text fill="#000000" font-family="sans-serif" font-size="11" lengthAdjust="spacing" textLength="58" x="507.5" y="135.3652">tag : string</text><ellipse cx="498.5" cy="144.6855" rx="3" ry="3" style="stroke:#038048;stroke-width:1.0;fill:none;"/><text fill="#000000" font-family="sans-serif" font-size="11" lengthAdjust="spacing" textLength="132" x="507.5" y="148.3203">digest-algorithm : string</text><ellipse cx="498.5" cy="157.6406" rx="3" ry="3" style="stroke:#038048;stroke-width:1.0;fill:none;"/><text fill="#000000" font-family="sans-serif" font-size="11" lengthAdjust="spacing" textLength="100" x="507.5" y="161.2754">digest-hex : string</text><line style="stroke:#A80036;stroke-width:1.0;stroke-dasharray:1.0,2.0;" x1="488.5" x2="549.5" y1="53.4775" y2="53.4775"/><text fill="#000000" font-family="sans-serif" font-size="11" lengthAdjust="spacing" textLength="56" x="549.5" y="57.1348">properties</text><line style="stroke:#A80036;stroke-width:1.0;stroke-dasharray:1.0,2.0;" x1="605.5" x2="666.5" y1="53.4775" y2="53.4775"/><!--MD5=[1e0cd9c687ebf1abf440c7be62cf66f5]
class ContainerPort_DT--><rect codeLine="64" fill="#FEFECE" filter="url(#f1vlpqa2ldysex)" height="95.8203" id="ContainerPort_DT" style="stroke:#A80036;stroke-width:1.5;" width="165" x="703" y="39.5"/><ellipse cx="742.75" cy="55.5" fill="#008000" rx="11" ry="11" style="stroke:#A80036;stroke-width:1.0;"/><path d="M742.3359,51.3149 L742.3359,59.292 L743,59.292 Q744.4443,59.292 745.0586,58.3831 Q745.6729,57.4741 745.6729,55.291 Q745.6729,53.1245 745.0586,52.2197 Q744.4443,51.3149 743,51.3149 Z M739.8872,49.1069 L742.5103,49.1069 Q745.5483,49.1069 746.8848,50.5554 Q748.2212,52.0039 748.2212,55.291 Q748.2212,58.5864 746.8848,60.0432 Q745.5483,61.5 742.5103,61.5 L739.8872,61.5 Z " fill="#000000"/><text fill="#000000" font-family="sans-serif" font-size="12" lengthAdjust="spacing" textLength="78" x="762.25" y="60.0352">ContainerPort</text><line style="stroke:#A80036;stroke-width:1.5;" x1="704" x2="867" y1="71.5" y2="71.5"/><ellipse cx="714" cy="99.4551" rx="3" ry="3" style="stroke:#038048;stroke-width:1.0;fill:none;"/><text fill="#000000" font-family="sans-serif" font-size="11" font-weight="bold" lengthAdjust="spacing" textLength="139" x="723" y="103.0898">external : AssignablePort</text><ellipse cx="714" cy="112.4102" rx="3" ry="3" style="stroke:#038048;stroke-width:1.0;fill:none;"/><text fill="#000000" font-family="sans-serif" font-size="11" font-weight="bold" lengthAdjust="spacing" textLength="138" x="723" y="116.0449">internal : AssignablePort</text><ellipse cx="714" cy="125.3652" rx="3" ry="3" style="stroke:#038048;stroke-width:1.0;fill:none;"/><text fill="#000000" font-family="sans-serif" font-size="11" font-weight="bold" lengthAdjust="spacing" textLength="137" x="723" y="129">protocol : string = 'TCP'</text><line style="stroke:#A80036;stroke-width:1.0;stroke-dasharray:1.0,2.0;" x1="704" x2="757.5" y1="85.9775" y2="85.9775"/><text fill="#000000" font-family="sans-serif" font-size="11" lengthAdjust="spacing" textLength="56" x="757.5" y="89.6348">properties</text><line style="stroke:#A80036;stroke-width:1.0;stroke-dasharray:1.0,2.0;" x1="813.5" x2="867" y1="85.9775" y2="85.9775"/><!--MD5=[dfc543428298025b0a863738e131df92]
reverse link integer_DT to Count_DT--><path codeLine="70" d="M303.0813,118.0852 C237.0641,155.8836 126.783,219.0256 72.1803,250.2887 " fill="none" id="integer_DT-backto-Count_DT" style="stroke:#A80036;stroke-width:1.0;"/><polygon fill="none" points="299.6101,112.0065,320.4447,108.1437,306.5664,124.156,299.6101,112.0065" style="stroke:#A80036;stroke-width:1.0;"/><!--MD5=[0683a00fcbcf9dce0e3783e2c461f78f]
reverse link string_DT to IPAddress_DT--><path codeLine="71" d="M1261.3526,107.681 C1170.8145,143.4042 983.7873,217.1986 897.6884,251.1702 " fill="none" id="string_DT-backto-IPAddress_DT" style="stroke:#A80036;stroke-width:1.0;"/><polygon fill="none" points="1258.9803,101.0919,1280.1537,100.2627,1264.1187,114.1148,1258.9803,101.0919" style="stroke:#A80036;stroke-width:1.0;"/><!--MD5=[e3c5d96fe21d260bba99edba66eeca97]
reverse link string_DT to IPv6Address_DT--><path codeLine="72" d="M1262.5588,115.1351 C1198.5872,150.5341 1088.7476,211.3142 1028.0307,244.9121 " fill="none" id="string_DT-backto-IPv6Address_DT" style="stroke:#A80036;stroke-width:1.0;"/><polygon fill="none" points="1259.5641,108.7921,1280.4528,105.2335,1266.3425,121.0417,1259.5641,108.7921" style="stroke:#A80036;stroke-width:1.0;"/><!--MD5=[015197a8d52f8a930a2f51b8d492d615]
reverse link string_DT to IPv4Address_DT--><path codeLine="73" d="M1272.5488,125.8658 C1235.138,161.7921 1180.3823,214.375 1148.7015,244.7985 " fill="none" id="string_DT-backto-IPv4Address_DT" style="stroke:#A80036;stroke-width:1.0;"/><polygon fill="none" points="1268.1282,120.4059,1287.4023,111.6018,1277.8253,130.5038,1268.1282,120.4059" style="stroke:#A80036;stroke-width:1.0;"/><!--MD5=[42c03fbaa9d8fa6a3cd56d1d5c7d8b2c]
reverse link string_DT to IPSubnet_DT--><path codeLine="74" d="M1297.9563,130.7735 C1285.9683,166.4428 1269.4024,215.7331 1259.6338,244.7985 " fill="none" id="string_DT-backto-IPSubnet_DT" style="stroke:#A80036;stroke-width:1.0;"/><polygon fill="none" points="1291.3928,128.3297,1304.3997,111.6018,1304.6633,132.7898,1291.3928,128.3297" style="stroke:#A80036;stroke-width:1.0;"/><!--MD5=[b1437188d75cee920d34960fddc88d0d]
reverse link string_DT to IPv6Subnet_DT--><path codeLine="75" d="M1327.2821,130.7735 C1339.4667,166.4428 1356.3042,215.7331 1366.2328,244.7985 " fill="none" id="string_DT-backto-IPv6Subnet_DT" style="stroke:#A80036;stroke-width:1.0;"/><polygon fill="none" points="1320.5742,132.7909,1320.7331,111.6018,1333.8225,128.2652,1320.5742,132.7909" style="stroke:#A80036;stroke-width:1.0;"/><!--MD5=[f61cd06e555ce64e821ec052adf3dff6]
reverse link string_DT to IPv4Subnet_DT--><path codeLine="76" d="M1334.2169,129.3891 C1342.1225,142.54 1351.7811,156.5899 1362.5,168 C1391.7063,199.0895 1431.8171,226.5713 1461.9605,244.9882 " fill="none" id="string_DT-backto-IPv4Subnet_DT" style="stroke:#A80036;stroke-width:1.0;"/><polygon fill="none" points="1328.0058,132.6257,1324.2806,111.766,1340.201,125.7497,1328.0058,132.6257" style="stroke:#A80036;stroke-width:1.0;"/><!--MD5=[eb94cba2b39e3843074a0f2da242f3f1]
reverse link integer_DT to Port_DT--><path codeLine="77" d="M311.3422,124.4195 C266.546,161.0434 199.3449,215.9849 162.0052,246.5126 " fill="none" id="integer_DT-backto-Port_DT" style="stroke:#A80036;stroke-width:1.0;"/><polygon fill="none" points="307.1056,118.8416,327.0201,111.6018,315.967,129.6802,307.1056,118.8416" style="stroke:#A80036;stroke-width:1.0;"/><!--MD5=[30f79d849d7462876ada68b4f9099c9b]
reverse link integer_DT to AssignablePort_DT--><path codeLine="78" d="M404.162,123.6823 C423.9526,138.1137 447.4167,154.4758 469.5,168 C516.6154,196.8542 572.8421,225.5356 612.6033,244.9197 " fill="none" id="integer_DT-backto-AssignablePort_DT" style="stroke:#A80036;stroke-width:1.0;"/><polygon fill="none" points="399.7635,129.1358,387.843,111.6171,408.0865,117.8784,399.7635,129.1358" style="stroke:#A80036;stroke-width:1.0;"/><!--MD5=[742ca3d7733454c5f76a1aeadb2cf981]
reverse link integer_DT to SystemPort_DT--><path codeLine="79" d="M331.0221,128.7879 C308.9274,164.5931 277.7051,215.1899 259.4342,244.7985 " fill="none" id="integer_DT-backto-SystemPort_DT" style="stroke:#A80036;stroke-width:1.0;"/><polygon fill="none" points="325.1672,124.9461,341.6273,111.6018,337.0814,132.2981,325.1672,124.9461" style="stroke:#A80036;stroke-width:1.0;"/><!--MD5=[2b289f1a5c1bb2046d17988ea42ace21]
reverse link integer_DT to UserPort_DT--><path codeLine="80" d="M359.1835,131.7771 C361.3401,167.3624 364.2882,216.0048 366.0332,244.7985 " fill="none" id="integer_DT-backto-UserPort_DT" style="stroke:#A80036;stroke-width:1.0;"/><polygon fill="none" points="352.1835,131.9887,357.9607,111.6018,366.1579,131.1417,352.1835,131.9887" style="stroke:#A80036;stroke-width:1.0;"/><!--MD5=[cab4988b0eaed9f21f1bc31252b308c4]
reverse link integer_DT to DynamicPort_DT--><path codeLine="81" d="M387.3681,127.8061 C414.8287,163.663 454.082,214.9182 476.9655,244.7985 " fill="none" id="integer_DT-backto-DynamicPort_DT" style="stroke:#A80036;stroke-width:1.0;"/><polygon fill="none" points="381.5611,131.7364,374.9581,111.6018,392.676,123.2241,381.5611,131.7364" style="stroke:#A80036;stroke-width:1.0;"/><!--MD5=[2e1c28ad530b1d89d031358064e426e9]
reverse link string_DT to ServiceName_DT--><path codeLine="82" d="M1331.5806,129.6139 C1339.5101,143.3723 1349.853,157.7365 1362.5,168 C1371.6084,175.3918 1509.383,223.7003 1587.4809,250.7404 " fill="none" id="string_DT-backto-ServiceName_DT" style="stroke:#A80036;stroke-width:1.0;"/><polygon fill="none" points="1325.2683,132.6471,1322.2738,111.6701,1337.6961,126.2012,1325.2683,132.6471" style="stroke:#A80036;stroke-width:1.0;"/><!--MD5=[688beb0adb9f6d8bfd9b0329cf9e6fee]
reverse link string_DT to Hostname_DT--><path codeLine="83" d="M1330.5284,129.9942 C1338.4302,144.0178 1349.0251,158.4537 1362.5,168 C1370.5786,173.7233 1701.0154,242.1607 1710.5,245 C1716.3306,246.7454 1722.3918,248.772 1728.3495,250.8935 " fill="none" id="string_DT-backto-Hostname_DT" style="stroke:#A80036;stroke-width:1.0;"/><polygon fill="none" points="1324.0321,132.6508,1321.4051,111.6246,1336.5708,126.4233,1324.0321,132.6508" style="stroke:#A80036;stroke-width:1.0;"/><!--MD5=[ef9eb5c76a3e8e7d52994c87625e81fd]
reverse link ContainerImageReference_DT to AssignablePort_DT--><path codeLine="84" d="M589.3553,181.1009 C592.9155,192.9466 597.528,204.5594 603.5,215 C609.9711,226.3132 619.6589,236.5332 629.3723,244.9613 " fill="none" id="ContainerImageReference_DT-backto-AssignablePort_DT" style="stroke:#A80036;stroke-width:1.0;"/><polygon fill="#A80036" points="585.8905,168.2,583.5837,175.0322,589.0031,179.7893,591.3099,172.9571,585.8905,168.2" style="stroke:#A80036;stroke-width:1.0;"/><text fill="#000000" font-family="sans-serif" font-size="13" lengthAdjust="spacing" textLength="26" x="604.5" y="211.5684">port</text><text fill="#000000" font-family="sans-serif" font-size="13" lengthAdjust="spacing" textLength="8" x="611.1255" y="234.0954">1</text><!--MD5=[1f27c9de1b637fa30c783fabd725fbb3]
reverse link ContainerPort_DT to AssignablePort_DT--><path codeLine="85" d="M722.6674,145.3655 C708.1666,161.271 693.949,179.3195 683.5,198 C675.3729,212.5294 670.3424,230.6114 667.3593,244.8911 " fill="none" id="ContainerPort_DT-backto-AssignablePort_DT" style="stroke:#A80036;stroke-width:1.0;"/><polygon fill="#A80036" points="731.7016,135.7525,724.6778,137.3854,723.4837,144.497,730.5075,142.864,731.7016,135.7525" style="stroke:#A80036;stroke-width:1.0;"/><text fill="#000000" font-family="sans-serif" font-size="13" lengthAdjust="spacing" textLength="51" x="684.5" y="211.5684">external</text><text fill="#000000" font-family="sans-serif" font-size="13" lengthAdjust="spacing" textLength="8" x="659.3232" y="234.3995">1</text><!--MD5=[1f27c9de1b637fa30c783fabd725fbb3]
reverse link ContainerPort_DT to AssignablePort_DT--><path codeLine="86" d="M772.3839,148.3125 C765.4812,170.7991 755.2795,195.5281 740.5,215 C731.7143,226.5751 719.7309,236.6286 707.8349,244.8194 " fill="none" id="ContainerPort_DT-backto-AssignablePort_DT-1" style="stroke:#A80036;stroke-width:1.0;"/><polygon fill="#A80036" points="775.9819,135.7447,770.485,140.412,772.6791,147.2812,778.176,142.6139,775.9819,135.7447" style="stroke:#A80036;stroke-width:1.0;"/><text fill="#000000" font-family="sans-serif" font-size="13" lengthAdjust="spacing" textLength="48" x="752.5" y="211.5684">internal</text><text fill="#000000" font-family="sans-serif" font-size="13" lengthAdjust="spacing" textLength="8" x="710.1707" y="234.3094">1</text><!--MD5=[d2a3352f583a3833c80209ee403ef87e]
@startuml
set namespaceSeparator none
class "integer" as integer_DT << (D,green) >> #DDDDDD
class "Count" as Count_DT << (D,green) >> {
}
class "string" as string_DT << (D,green) >> #DDDDDD
class "IPAddress" as IPAddress_DT << (D,green) >> {
}
class "string" as string_DT << (D,green) >> #DDDDDD
class "IPv6Address" as IPv6Address_DT << (D,green) >> {
}
class "string" as string_DT << (D,green) >> #DDDDDD
class "IPv4Address" as IPv4Address_DT << (D,green) >> {
}
class "string" as string_DT << (D,green) >> #DDDDDD
class "IPSubnet" as IPSubnet_DT << (D,green) >> {
}
class "string" as string_DT << (D,green) >> #DDDDDD
class "IPv6Subnet" as IPv6Subnet_DT << (D,green) >> {
}
class "string" as string_DT << (D,green) >> #DDDDDD
class "IPv4Subnet" as IPv4Subnet_DT << (D,green) >> {
}
class "integer" as integer_DT << (D,green) >> #DDDDDD
class "Port" as Port_DT << (D,green) >> {
}
class "integer" as integer_DT << (D,green) >> #DDDDDD
class "AssignablePort" as AssignablePort_DT << (D,green) >> {
}
class "integer" as integer_DT << (D,green) >> #DDDDDD
class "SystemPort" as SystemPort_DT << (D,green) >> {
}
class "integer" as integer_DT << (D,green) >> #DDDDDD
class "UserPort" as UserPort_DT << (D,green) >> {
}
class "integer" as integer_DT << (D,green) >> #DDDDDD
class "DynamicPort" as DynamicPort_DT << (D,green) >> {
}
class "string" as string_DT << (D,green) >> #DDDDDD
class "ServiceName" as ServiceName_DT << (D,green) >> {
}
class "string" as string_DT << (D,green) >> #DDDDDD
class "Hostname" as Hostname_DT << (D,green) >> {
}
class "Command" as Command_DT << (D,green) >> {
.. properties ..
+<b>name : string
+arguments : list<string>
}
class "Schedule" as Schedule_DT << (D,green) >> {
.. properties ..
+<b>times : list<scalar-unit.time>
}
class "ContainerImageReference" as ContainerImageReference_DT << (D,green) >> {
.. properties ..
+reference : string
+host : string
+port : AssignablePort
+repository : string
+image : string
+tag : string
+digest-algorithm : string
+digest-hex : string
}
class "ContainerPort" as ContainerPort_DT << (D,green) >> {
.. properties ..
+<b>external : AssignablePort
+<b>internal : AssignablePort
+<b>protocol : string = 'TCP'
}
integer_DT <|- - Count_DT
string_DT <|- - IPAddress_DT
string_DT <|- - IPv6Address_DT
string_DT <|- - IPv4Address_DT
string_DT <|- - IPSubnet_DT
string_DT <|- - IPv6Subnet_DT
string_DT <|- - IPv4Subnet_DT
integer_DT <|- - Port_DT
integer_DT <|- - AssignablePort_DT
integer_DT <|- - SystemPort_DT
integer_DT <|- - UserPort_DT
integer_DT <|- - DynamicPort_DT
string_DT <|- - ServiceName_DT
string_DT <|- - Hostname_DT
ContainerImageReference_DT *- - "1" AssignablePort_DT : port
ContainerPort_DT *- - "1" AssignablePort_DT : external
ContainerPort_DT *- - "1" AssignablePort_DT : internal
@enduml

PlantUML version 1.2021.13(Mon Nov 01 12:38:45 CET 2021)
(GPL source distribution)
Java Runtime: Java(TM) SE Runtime Environment
JVM: Java HotSpot(TM) 64-Bit Server VM
Default Encoding: UTF-8
Language: fr
Country: FR
--></g></svg>