<?xml version="1.0" encoding="UTF-8" standalone="no"?><svg xmlns="http://www.w3.org/2000/svg" xmlns:xlink="http://www.w3.org/1999/xlink" contentScriptType="application/ecmascript" contentStyleType="text/css" height="307px" preserveAspectRatio="none" style="width:1809px;height:307px;background:#FFFFFF;" version="1.1" viewBox="0 0 1809 307" width="1809px" zoomAndPan="magnify"><defs><filter height="300%" id="f1lqkc379fbvaz" width="300%" x="-1" y="-1"><feGaussianBlur result="blurOut" stdDeviation="2.0"/><feColorMatrix in="blurOut" result="blurOut2" type="matrix" values="0 0 0 0 0 0 0 0 0 0 0 0 0 0 0 0 0 0 .4 0"/><feOffset dx="4.0" dy="4.0" in="blurOut2" result="blurOut3"/><feBlend in="SourceGraphic" in2="blurOut3" mode="normal"/></filter></defs><g><!--MD5=[51713e9e201d863486e8d34b0a00816e]
class Count_DT--><rect codeLine="2" fill="#FEFECE" filter="url(#f1lqkc379fbvaz)" height="48" id="Count_DT" style="stroke:#A80036;stroke-width:1.5;" width="65" x="7" y="245"/><ellipse cx="22" cy="261" fill="#008000" rx="11" ry="11" style="stroke:#A80036;stroke-width:1.0;"/><path d="M21.5859,256.8149 L21.5859,264.792 L22.25,264.792 Q23.6943,264.792 24.3086,263.8831 Q24.9229,262.9741 24.9229,260.791 Q24.9229,258.6245 24.3086,257.7197 Q23.6943,256.8149 22.25,256.8149 Z M19.1372,254.6069 L21.7603,254.6069 Q24.7983,254.6069 26.1348,256.0554 Q27.4712,257.5039 27.4712,260.791 Q27.4712,264.0864 26.1348,265.5432 Q24.7983,267 21.7603,267 L19.1372,267 Z " fill="#000000"/><text fill="#000000" font-family="sans-serif" font-size="12" lengthAdjust="spacing" textLength="33" x="36" y="265.5352">Count</text><line style="stroke:#A80036;stroke-width:1.5;" x1="8" x2="71" y1="277" y2="277"/><line style="stroke:#A80036;stroke-width:1.5;" x1="8" x2="71" y1="285" y2="285"/><!--MD5=[41f0fda68ce78c06dec3488c65209e06]
class integer_DT--><rect codeLine="48" fill="#DDDDDD" filter="url(#f1lqkc379fbvaz)" height="48" id="integer_DT" style="stroke:#A80036;stroke-width:1.5;" width="72" x="302.5" y="63.5"/><ellipse cx="317.5" cy="79.5" fill="#008000" rx="11" ry="11" style="stroke:#A80036;stroke-width:1.0;"/><path d="M317.0859,75.3149 L317.0859,83.292 L317.75,83.292 Q319.1943,83.292 319.8086,82.3831 Q320.4229,81.4741 320.4229,79.291 Q320.4229,77.1245 319.8086,76.2197 Q319.1943,75.3149 317.75,75.3149 Z M314.6372,73.1069 L317.2603,73.1069 Q320.2983,73.1069 321.6348,74.5554 Q322.9712,76.0039 322.9712,79.291 Q322.9712,82.5864 321.6348,84.0432 Q320.2983,85.5 317.2603,85.5 L314.6372,85.5 Z " fill="#000000"/><text fill="#000000" font-family="sans-serif" font-size="12" lengthAdjust="spacing" textLength="40" x="331.5" y="84.0352">integer</text><line style="stroke:#A80036;stroke-width:1.5;" x1="303.5" x2="373.5" y1="95.5" y2="95.5"/><line style="stroke:#A80036;stroke-width:1.5;" x1="303.5" x2="373.5" y1="103.5" y2="103.5"/><!--MD5=[18458faf0c5a2eb443a068047a08c1c7]
class IPAddress_DT--><rect codeLine="6" fill="#FEFECE" filter="url(#f1lqkc379fbvaz)" height="48" id="IPAddress_DT" style="stroke:#A80036;stroke-width:1.5;" width="90" x="784.5" y="245"/><ellipse cx="799.5" cy="261" fill="#008000" rx="11" ry="11" style="stroke:#A80036;stroke-width:1.0;"/><path d="M799.0859,256.8149 L799.0859,264.792 L799.75,264.792 Q801.1943,264.792 801.8086,263.8831 Q802.4229,262.9741 802.4229,260.791 Q802.4229,258.6245 801.8086,257.7197 Q801.1943,256.8149 799.75,256.8149 Z M796.6372,254.6069 L799.2603,254.6069 Q802.2983,254.6069 803.6348,256.0554 Q804.9712,257.5039 804.9712,260.791 Q804.9712,264.0864 803.6348,265.5432 Q802.2983,267 799.2603,267 L796.6372,267 Z " fill="#000000"/><text fill="#000000" font-family="sans-serif" font-size="12" lengthAdjust="spacing" textLength="58" x="813.5" y="265.5352">IPAddress</text><line style="stroke:#A80036;stroke-width:1.5;" x1="785.5" x2="873.5" y1="277" y2="277"/><line style="stroke:#A80036;stroke-width:1.5;" x1="785.5" x2="873.5" y1="285" y2="285"/><!--MD5=[8990b5f6e62d94501e15b50ea3f87186]
class string_DT--><rect codeLine="56" fill="#DDDDDD" filter="url(#f1lqkc379fbvaz)" height="48" id="string_DT" style="stroke:#A80036;stroke-width:1.5;" width="64" x="1257.5" y="63.5"/><ellipse cx="1272.5" cy="79.5" fill="#008000" rx="11" ry="11" style="stroke:#A80036;stroke-width:1.0;"/><path d="M1272.0859,75.3149 L1272.0859,83.292 L1272.75,83.292 Q1274.1943,83.292 1274.8086,82.3831 Q1275.4229,81.4741 1275.4229,79.291 Q1275.4229,77.1245 1274.8086,76.2197 Q1274.1943,75.3149 1272.75,75.3149 Z M1269.6372,73.1069 L1272.2603,73.1069 Q1275.2983,73.1069 1276.6348,74.5554 Q1277.9712,76.0039 1277.9712,79.291 Q1277.9712,82.5864 1276.6348,84.0432 Q1275.2983,85.5 1272.2603,85.5 L1269.6372,85.5 Z " fill="#000000"/><text fill="#000000" font-family="sans-serif" font-size="12" lengthAdjust="spacing" textLength="32" x="1286.5" y="84.0352">string</text><line style="stroke:#A80036;stroke-width:1.5;" x1="1258.5" x2="1320.5" y1="95.5" y2="95.5"/><line style="stroke:#A80036;stroke-width:1.5;" x1="1258.5" x2="1320.5" y1="103.5" y2="103.5"/><!--MD5=[ec9b6f8ee65099e8244796ac65f31284]
class IPv6Address_DT--><rect codeLine="10" fill="#FEFECE" filter="url(#f1lqkc379fbvaz)" height="48" id="IPv6Address_DT" style="stroke:#A80036;stroke-width:1.5;" width="104" x="909.5" y="245"/><ellipse cx="924.5" cy="261" fill="#008000" rx="11" ry="11" style="stroke:#A80036;stroke-width:1.0;"/><path d="M924.0859,256.8149 L924.0859,264.792 L924.75,264.792 Q926.1943,264.792 926.8086,263.8831 Q927.4229,262.9741 927.4229,260.791 Q927.4229,258.6245 926.8086,257.7197 Q926.1943,256.8149 924.75,256.8149 Z M921.6372,254.6069 L924.2603,254.6069 Q927.2983,254.6069 928.6348,256.0554 Q929.9712,257.5039 929.9712,260.791 Q929.9712,264.0864 928.6348,265.5432 Q927.2983,267 924.2603,267 L921.6372,267 Z " fill="#000000"/><text fill="#000000" font-family="sans-serif" font-size="12" lengthAdjust="spacing" textLength="72" x="938.5" y="265.5352">IPv6Address</text><line style="stroke:#A80036;stroke-width:1.5;" x1="910.5" x2="1012.5" y1="277" y2="277"/><line style="stroke:#A80036;stroke-width:1.5;" x1="910.5" x2="1012.5" y1="285" y2="285"/><!--MD5=[abdce6238daa33b03dc37cab1fb82b9f]
class IPv4Address_DT--><rect codeLine="14" fill="#FEFECE" filter="url(#f1lqkc379fbvaz)" height="48" id="IPv4Address_DT" style="stroke:#A80036;stroke-width:1.5;" width="104" x="1048.5" y="245"/><ellipse cx="1063.5" cy="261" fill="#008000" rx="11" ry="11" style="stroke:#A80036;stroke-width:1.0;"/><path d="M1063.0859,256.8149 L1063.0859,264.792 L1063.75,264.792 Q1065.1943,264.792 1065.8086,263.8831 Q1066.4229,262.9741 1066.4229,260.791 Q1066.4229,258.6245 1065.8086,257.7197 Q1065.1943,256.8149 1063.75,256.8149 Z M1060.6372,254.6069 L1063.2603,254.6069 Q1066.2983,254.6069 1067.6348,256.0554 Q1068.9712,257.5039 1068.9712,260.791 Q1068.9712,264.0864 1067.6348,265.5432 Q1066.2983,267 1063.2603,267 L1060.6372,267 Z " fill="#000000"/><text fill="#000000" font-family="sans-serif" font-size="12" lengthAdjust="spacing" textLength="72" x="1077.5" y="265.5352">IPv4Address</text><line style="stroke:#A80036;stroke-width:1.5;" x1="1049.5" x2="1151.5" y1="277" y2="277"/><line style="stroke:#A80036;stroke-width:1.5;" x1="1049.5" x2="1151.5" y1="285" y2="285"/><!--MD5=[9644abb68ecb23f16c4779e169e22d05]
class IPSubnet_DT--><rect codeLine="18" fill="#FEFECE" filter="url(#f1lqkc379fbvaz)" height="48" id="IPSubnet_DT" style="stroke:#A80036;stroke-width:1.5;" width="81" x="1188" y="245"/><ellipse cx="1203" cy="261" fill="#008000" rx="11" ry="11" style="stroke:#A80036;stroke-width:1.0;"/><path d="M1202.5859,256.8149 L1202.5859,264.792 L1203.25,264.792 Q1204.6943,264.792 1205.3086,263.8831 Q1205.9229,262.9741 1205.9229,260.791 Q1205.9229,258.6245 1205.3086,257.7197 Q1204.6943,256.8149 1203.25,256.8149 Z M1200.1372,254.6069 L1202.7603,254.6069 Q1205.7983,254.6069 1207.1348,256.0554 Q1208.4712,257.5039 1208.4712,260.791 Q1208.4712,264.0864 1207.1348,265.5432 Q1205.7983,267 1202.7603,267 L1200.1372,267 Z " fill="#000000"/><text fill="#000000" font-family="sans-serif" font-size="12" lengthAdjust="spacing" textLength="49" x="1217" y="265.5352">IPSubnet</text><line style="stroke:#A80036;stroke-width:1.5;" x1="1189" x2="1268" y1="277" y2="277"/><line style="stroke:#A80036;stroke-width:1.5;" x1="1189" x2="1268" y1="285" y2="285"/><!--MD5=[fc6f912601bc9e2ec588c6424abcc810]
class IPv6Subnet_DT--><rect codeLine="22" fill="#FEFECE" filter="url(#f1lqkc379fbvaz)" height="48" id="IPv6Subnet_DT" style="stroke:#A80036;stroke-width:1.5;" width="95" x="1304" y="245"/><ellipse cx="1319" cy="261" fill="#008000" rx="11" ry="11" style="stroke:#A80036;stroke-width:1.0;"/><path d="M1318.5859,256.8149 L1318.5859,264.792 L1319.25,264.792 Q1320.6943,264.792 1321.3086,263.8831 Q1321.9229,262.9741 1321.9229,260.791 Q1321.9229,258.6245 1321.3086,257.7197 Q1320.6943,256.8149 1319.25,256.8149 Z M1316.1372,254.6069 L1318.7603,254.6069 Q1321.7983,254.6069 1323.1348,256.0554 Q1324.4712,257.5039 1324.4712,260.791 Q1324.4712,264.0864 1323.1348,265.5432 Q1321.7983,267 1318.7603,267 L1316.1372,267 Z " fill="#000000"/><text fill="#000000" font-family="sans-serif" font-size="12" lengthAdjust="spacing" textLength="63" x="1333" y="265.5352">IPv6Subnet</text><line style="stroke:#A80036;stroke-width:1.5;" x1="1305" x2="1398" y1="277" y2="277"/><line style="stroke:#A80036;stroke-width:1.5;" x1="1305" x2="1398" y1="285" y2="285"/><!--MD5=[3f01746acc3886d935f638eda5487a3b]
class IPv4Subnet_DT--><rect codeLine="26" fill="#FEFECE" filter="url(#f1lqkc379fbvaz)" height="48" id="IPv4Subnet_DT" style="stroke:#A80036;stroke-width:1.5;" width="95" x="1434" y="245"/><ellipse cx="1449" cy="261" fill="#008000" rx="11" ry="11" style="stroke:#A80036;stroke-width:1.0;"/><path d="M1448.5859,256.8149 L1448.5859,264.792 L1449.25,264.792 Q1450.6943,264.792 1451.3086,263.8831 Q1451.9229,262.9741 1451.9229,260.791 Q1451.9229,258.6245 1451.3086,257.7197 Q1450.6943,256.8149 1449.25,256.8149 Z M1446.1372,254.6069 L1448.7603,254.6069 Q1451.7983,254.6069 1453.1348,256.0554 Q1454.4712,257.5039 1454.4712,260.791 Q1454.4712,264.0864 1453.1348,265.5432 Q1451.7983,267 1448.7603,267 L1446.1372,267 Z " fill="#000000"/><text fill="#000000" font-family="sans-serif" font-size="12" lengthAdjust="spacing" textLength="63" x="1463" y="265.5352">IPv4Subnet</text><line style="stroke:#A80036;stroke-width:1.5;" x1="1435" x2="1528" y1="277" y2="277"/><line style="stroke:#A80036;stroke-width:1.5;" x1="1435" x2="1528" y1="285" y2="285"/><!--MD5=[acc02d62b9c36163d6f647570fbbac95]
class Port_DT--><rect codeLine="30" fill="#FEFECE" filter="url(#f1lqkc379fbvaz)" height="48" id="Port_DT" style="stroke:#A80036;stroke-width:1.5;" width="55" x="107" y="245"/><ellipse cx="122" cy="261" fill="#008000" rx="11" ry="11" style="stroke:#A80036;stroke-width:1.0;"/><path d="M121.5859,256.8149 L121.5859,264.792 L122.25,264.792 Q123.6943,264.792 124.3086,263.8831 Q124.9229,262.9741 124.9229,260.791 Q124.9229,258.6245 124.3086,257.7197 Q123.6943,256.8149 122.25,256.8149 Z M119.1372,254.6069 L121.7603,254.6069 Q124.7983,254.6069 126.1348,256.0554 Q127.4712,257.5039 127.4712,260.791 Q127.4712,264.0864 126.1348,265.5432 Q124.7983,267 121.7603,267 L119.1372,267 Z " fill="#000000"/><text fill="#000000" font-family="sans-serif" font-size="12" lengthAdjust="spacing" textLength="23" x="136" y="265.5352">Port</text><line style="stroke:#A80036;stroke-width:1.5;" x1="108" x2="161" y1="277" y2="277"/><line style="stroke:#A80036;stroke-width:1.5;" x1="108" x2="161" y1="285" y2="285"/><!--MD5=[fc6454ac7791224bf35d5e8eb7b477a4]
class AssignablePort_DT--><rect codeLine="34" fill="#FEFECE" filter="url(#f1lqkc379fbvaz)" height="48" id="AssignablePort_DT" style="stroke:#A80036;stroke-width:1.5;" width="117" x="584" y="245"/><ellipse cx="599" cy="261" fill="#008000" rx="11" ry="11" style="stroke:#A80036;stroke-width:1.0;"/><path d="M598.5859,256.8149 L598.5859,264.792 L599.25,264.792 Q600.6943,264.792 601.3086,263.8831 Q601.9229,262.9741 601.9229,260.791 Q601.9229,258.6245 601.3086,257.7197 Q600.6943,256.8149 599.25,256.8149 Z M596.1372,254.6069 L598.7603,254.6069 Q601.7983,254.6069 603.1348,256.0554 Q604.4712,257.5039 604.4712,260.791 Q604.4712,264.0864 603.1348,265.5432 Q601.7983,267 598.7603,267 L596.1372,267 Z " fill="#000000"/><text fill="#000000" font-family="sans-serif" font-size="12" lengthAdjust="spacing" textLength="85" x="613" y="265.5352">AssignablePort</text><line style="stroke:#A80036;stroke-width:1.5;" x1="585" x2="700" y1="277" y2="277"/><line style="stroke:#A80036;stroke-width:1.5;" x1="585" x2="700" y1="285" y2="285"/><!--MD5=[c9b83a69c0a8bbb53d142842e52365c7]
class SystemPort_DT--><rect codeLine="38" fill="#FEFECE" filter="url(#f1lqkc379fbvaz)" height="48" id="SystemPort_DT" style="stroke:#A80036;stroke-width:1.5;" width="95" x="197" y="245"/><ellipse cx="212" cy="261" fill="#008000" rx="11" ry="11" style="stroke:#A80036;stroke-width:1.0;"/><path d="M211.5859,256.8149 L211.5859,264.792 L212.25,264.792 Q213.6943,264.792 214.3086,263.8831 Q214.9229,262.9741 214.9229,260.791 Q214.9229,258.6245 214.3086,257.7197 Q213.6943,256.8149 212.25,256.8149 Z M209.1372,254.6069 L211.7603,254.6069 Q214.7983,254.6069 216.1348,256.0554 Q217.4712,257.5039 217.4712,260.791 Q217.4712,264.0864 216.1348,265.5432 Q214.7983,267 211.7603,267 L209.1372,267 Z " fill="#000000"/><text fill="#000000" font-family="sans-serif" font-size="12" lengthAdjust="spacing" textLength="63" x="226" y="265.5352">SystemPort</text><line style="stroke:#A80036;stroke-width:1.5;" x1="198" x2="291" y1="277" y2="277"/><line style="stroke:#A80036;stroke-width:1.5;" x1="198" x2="291" y1="285" y2="285"/><!--MD5=[1148bc7d58c832e8cc05334d534f7871]
class UserPort_DT--><rect codeLine="42" fill="#FEFECE" filter="url(#f1lqkc379fbvaz)" height="48" id="UserPort_DT" style="stroke:#A80036;stroke-width:1.5;" width="81" x="327" y="245"/><ellipse cx="342" cy="261" fill="#008000" rx="11" ry="11" style="stroke:#A80036;stroke-width:1.0;"/><path d="M341.5859,256.8149 L341.5859,264.792 L342.25,264.792 Q343.6943,264.792 344.3086,263.8831 Q344.9229,262.9741 344.9229,260.791 Q344.9229,258.6245 344.3086,257.7197 Q343.6943,256.8149 342.25,256.8149 Z M339.1372,254.6069 L341.7603,254.6069 Q344.7983,254.6069 346.1348,256.0554 Q347.4712,257.5039 347.4712,260.791 Q347.4712,264.0864 346.1348,265.5432 Q344.7983,267 341.7603,267 L339.1372,267 Z " fill="#000000"/><text fill="#000000" font-family="sans-serif" font-size="12" lengthAdjust="spacing" textLength="49" x="356" y="265.5352">UserPort</text><line style="stroke:#A80036;stroke-width:1.5;" x1="328" x2="407" y1="277" y2="277"/><line style="stroke:#A80036;stroke-width:1.5;" x1="328" x2="407" y1="285" y2="285"/><!--MD5=[d5de7f5e3c1adb4c3fabb13ecb777329]
class DynamicPort_DT--><rect codeLine="46" fill="#FEFECE" filter="url(#f1lqkc379fbvaz)" height="48" id="DynamicPort_DT" style="stroke:#A80036;stroke-width:1.5;" width="104" x="443.5" y="245"/><ellipse cx="458.5" cy="261" fill="#008000" rx="11" ry="11" style="stroke:#A80036;stroke-width:1.0;"/><path d="M458.0859,256.8149 L458.0859,264.792 L458.75,264.792 Q460.1943,264.792 460.8086,263.8831 Q461.4229,262.9741 461.4229,260.791 Q461.4229,258.6245 460.8086,257.7197 Q460.1943,256.8149 458.75,256.8149 Z M455.6372,254.6069 L458.2603,254.6069 Q461.2983,254.6069 462.6348,256.0554 Q463.9712,257.5039 463.9712,260.791 Q463.9712,264.0864 462.6348,265.5432 Q461.2983,267 458.2603,267 L455.6372,267 Z " fill="#000000"/><text fill="#000000" font-family="sans-serif" font-size="12" lengthAdjust="spacing" textLength="72" x="472.5" y="265.5352">DynamicPort</text><line style="stroke:#A80036;stroke-width:1.5;" x1="444.5" x2="546.5" y1="277" y2="277"/><line style="stroke:#A80036;stroke-width:1.5;" x1="444.5" x2="546.5" y1="285" y2="285"/><!--MD5=[7d2e5996a61636f79089202e8250a555]
class ServiceName_DT--><rect codeLine="50" fill="#FEFECE" filter="url(#f1lqkc379fbvaz)" height="48" id="ServiceName_DT" style="stroke:#A80036;stroke-width:1.5;" width="106" x="1564.5" y="245"/><ellipse cx="1579.5" cy="261" fill="#008000" rx="11" ry="11" style="stroke:#A80036;stroke-width:1.0;"/><path d="M1579.0859,256.8149 L1579.0859,264.792 L1579.75,264.792 Q1581.1943,264.792 1581.8086,263.8831 Q1582.4229,262.9741 1582.4229,260.791 Q1582.4229,258.6245 1581.8086,257.7197 Q1581.1943,256.8149 1579.75,256.8149 Z M1576.6372,254.6069 L1579.2603,254.6069 Q1582.2983,254.6069 1583.6348,256.0554 Q1584.9712,257.5039 1584.9712,260.791 Q1584.9712,264.0864 1583.6348,265.5432 Q1582.2983,267 1579.2603,267 L1576.6372,267 Z " fill="#000000"/><text fill="#000000" font-family="sans-serif" font-size="12" lengthAdjust="spacing" textLength="74" x="1593.5" y="265.5352">ServiceName</text><line style="stroke:#A80036;stroke-width:1.5;" x1="1565.5" x2="1669.5" y1="277" y2="277"/><line style="stroke:#A80036;stroke-width:1.5;" x1="1565.5" x2="1669.5" y1="285" y2="285"/><!--MD5=[20354702e4745dc9cb07a50ea00483b4]
class Hostname_DT--><rect codeLine="54" fill="#FEFECE" filter="url(#f1lqkc379fbvaz)" height="48" id="Hostname_DT" style="stroke:#A80036;stroke-width:1.5;" width="90" x="1705.5" y="245"/><ellipse cx="1720.5" cy="261" fill="#008000" rx="11" ry="11" style="stroke:#A80036;stroke-width:1.0;"/><path d="M1720.0859,256.8149 L1720.0859,264.792 L1720.75,264.792 Q1722.1943,264.792 1722.8086,263.8831 Q1723.4229,262.9741 1723.4229,260.791 Q1723.4229,258.6245 1722.8086,257.7197 Q1722.1943,256.8149 1720.75,256.8149 Z M1717.6372,254.6069 L1720.2603,254.6069 Q1723.2983,254.6069 1724.6348,256.0554 Q1725.9712,257.5039 1725.9712,260.791 Q1725.9712,264.0864 1724.6348,265.5432 Q1723.2983,267 1720.2603,267 L1717.6372,267 Z " fill="#000000"/><text fill="#000000" font-family="sans-serif" font-size="12" lengthAdjust="spacing" textLength="58" x="1734.5" y="265.5352">Hostname</text><line style="stroke:#A80036;stroke-width:1.5;" x1="1706.5" x2="1794.5" y1="277" y2="277"/><line style="stroke:#A80036;stroke-width:1.5;" x1="1706.5" x2="1794.5" y1="285" y2="285"/><!--MD5=[46c5a7a3e198fff0130b1c70a3da179b]
class Command_DT--><rect codeLine="58" fill="#FEFECE" filter="url(#f1lqkc379fbvaz)" height="82.8652" id="Command_DT" style="stroke:#A80036;stroke-width:1.5;" width="159" x="1357" y="46"/><ellipse cx="1402.75" cy="62" fill="#008000" rx="11" ry="11" style="stroke:#A80036;stroke-width:1.0;"/><path d="M1402.3359,57.8149 L1402.3359,65.792 L1403,65.792 Q1404.4443,65.792 1405.0586,64.8831 Q1405.6729,63.9741 1405.6729,61.791 Q1405.6729,59.6245 1405.0586,58.7197 Q1404.4443,57.8149 1403,57.8149 Z M1399.8872,55.6069 L1402.5103,55.6069 Q1405.5483,55.6069 1406.8848,57.0554 Q1408.2212,58.5039 1408.2212,61.791 Q1408.2212,65.0864 1406.8848,66.5432 Q1405.5483,68 1402.5103,68 L1399.8872,68 Z " fill="#000000"/><text fill="#000000" font-family="sans-serif" font-size="12" lengthAdjust="spacing" textLength="59" x="1423.25" y="66.5352">Command</text><line style="stroke:#A80036;stroke-width:1.5;" x1="1358" x2="1515" y1="78" y2="78"/><ellipse cx="1368" cy="105.9551" rx="3" ry="3" style="stroke:#038048;stroke-width:1.0;fill:none;"/><text fill="#000000" font-family="sans-serif" font-size="11" font-weight="bold" lengthAdjust="spacing" textLength="74" x="1377" y="109.5898">name : string</text><ellipse cx="1368" cy="118.9102" rx="3" ry="3" style="stroke:#038048;stroke-width:1.0;fill:none;"/><text fill="#000000" font-family="sans-serif" font-size="11" lengthAdjust="spacing" textLength="133" x="1377" y="122.5449">arguments : list&lt;string&gt;</text><line style="stroke:#A80036;stroke-width:1.0;stroke-dasharray:1.0,2.0;" x1="1358" x2="1408.5" y1="92.4775" y2="92.4775"/><text fill="#000000" font-family="sans-serif" font-size="11" lengthAdjust="spacing" textLength="56" x="1408.5" y="96.1348">properties</text><line style="stroke:#A80036;stroke-width:1.0;stroke-dasharray:1.0,2.0;" x1="1464.5" x2="1515" y1="92.4775" y2="92.4775"/><!--MD5=[9945816e88e684ae9ebe2d10fdbb37f7]
class Schedule_DT--><rect codeLine="63" fill="#FEFECE" filter="url(#f1lqkc379fbvaz)" height="69.9102" id="Schedule_DT" style="stroke:#A80036;stroke-width:1.5;" width="194" x="1551.5" y="52.5"/><ellipse cx="1618.75" cy="68.5" fill="#008000" rx="11" ry="11" style="stroke:#A80036;stroke-width:1.0;"/><path d="M1618.3359,64.3149 L1618.3359,72.292 L1619,72.292 Q1620.4443,72.292 1621.0586,71.3831 Q1621.6729,70.4741 1621.6729,68.291 Q1621.6729,66.1245 1621.0586,65.2197 Q1620.4443,64.3149 1619,64.3149 Z M1615.8872,62.1069 L1618.5103,62.1069 Q1621.5483,62.1069 1622.8848,63.5554 Q1624.2212,65.0039 1624.2212,68.291 Q1624.2212,71.5864 1622.8848,73.0432 Q1621.5483,74.5 1618.5103,74.5 L1615.8872,74.5 Z " fill="#000000"/><text fill="#000000" font-family="sans-serif" font-size="12" lengthAdjust="spacing" textLength="51" x="1639.25" y="73.0352">Schedule</text><line style="stroke:#A80036;stroke-width:1.5;" x1="1552.5" x2="1744.5" y1="84.5" y2="84.5"/><ellipse cx="1562.5" cy="112.4551" rx="3" ry="3" style="stroke:#038048;stroke-width:1.0;fill:none;"/><text fill="#000000" font-family="sans-serif" font-size="11" font-weight="bold" lengthAdjust="spacing" textLength="168" x="1571.5" y="116.0898">times : list&lt;scalar-unit.time&gt;</text><line style="stroke:#A80036;stroke-width:1.0;stroke-dasharray:1.0,2.0;" x1="1552.5" x2="1620.5" y1="98.9775" y2="98.9775"/><text fill="#000000" font-family="sans-serif" font-size="11" lengthAdjust="spacing" textLength="56" x="1620.5" y="102.6348">properties</text><line style="stroke:#A80036;stroke-width:1.0;stroke-dasharray:1.0,2.0;" x1="1676.5" x2="1744.5" y1="98.9775" y2="98.9775"/><!--MD5=[3ba9dade23f8c959751e1fda489706c2]
class ContainerImageReference_DT--><rect codeLine="67" fill="#FEFECE" filter="url(#f1lqkc379fbvaz)" height="160.5957" id="ContainerImageReference_DT" style="stroke:#A80036;stroke-width:1.5;" width="180" x="470.5" y="7"/><ellipse cx="485.5" cy="23" fill="#008000" rx="11" ry="11" style="stroke:#A80036;stroke-width:1.0;"/><path d="M485.0859,18.8149 L485.0859,26.792 L485.75,26.792 Q487.1943,26.792 487.8086,25.8831 Q488.4229,24.9741 488.4229,22.791 Q488.4229,20.6245 487.8086,19.7197 Q487.1943,18.8149 485.75,18.8149 Z M482.6372,16.6069 L485.2603,16.6069 Q488.2983,16.6069 489.6348,18.0554 Q490.9712,19.5039 490.9712,22.791 Q490.9712,26.0864 489.6348,27.5432 Q488.2983,29 485.2603,29 L482.6372,29 Z " fill="#000000"/><text fill="#000000" font-family="sans-serif" font-size="12" lengthAdjust="spacing" textLength="148" x="499.5" y="27.5352">ContainerImageReference</text><line style="stroke:#A80036;stroke-width:1.5;" x1="471.5" x2="649.5" y1="39" y2="39"/><ellipse cx="481.5" cy="66.9551" rx="3" ry="3" style="stroke:#038048;stroke-width:1.0;fill:none;"/><text fill="#000000" font-family="sans-serif" font-size="11" lengthAdjust="spacing" textLength="92" x="490.5" y="70.5898">reference : string</text><ellipse cx="481.5" cy="79.9102" rx="3" ry="3" style="stroke:#038048;stroke-width:1.0;fill:none;"/><text fill="#000000" font-family="sans-serif" font-size="11" lengthAdjust="spacing" textLength="65" x="490.5" y="83.5449">host : string</text><ellipse cx="481.5" cy="92.8652" rx="3" ry="3" style="stroke:#038048;stroke-width:1.0;fill:none;"/><text fill="#000000" font-family="sans-serif" font-size="11" lengthAdjust="spacing" textLength="113" x="490.5" y="96.5">port : AssignablePort</text><ellipse cx="481.5" cy="105.8203" rx="3" ry="3" style="stroke:#038048;stroke-width:1.0;fill:none;"/><text fill="#000000" font-family="sans-serif" font-size="11" lengthAdjust="spacing" textLength="97" x="490.5" y="109.4551">repository : string</text><ellipse cx="481.5" cy="118.7754" rx="3" ry="3" style="stroke:#038048;stroke-width:1.0;fill:none;"/><text fill="#000000" font-family="sans-serif" font-size="11" lengthAdjust="spacing" textLength="73" x="490.5" y="122.4102">image : string</text><ellipse cx="481.5" cy="131.7305" rx="3" ry="3" style="stroke:#038048;stroke-width:1.0;fill:none;"/><text fill="#000000" font-family="sans-serif" font-size="11" lengthAdjust="spacing" textLength="58" x="490.5" y="135.3652">tag : string</text><ellipse cx="481.5" cy="144.6855" rx="3" ry="3" style="stroke:#038048;stroke-width:1.0;fill:none;"/><text fill="#000000" font-family="sans-serif" font-size="11" lengthAdjust="spacing" textLength="132" x="490.5" y="148.3203">digest-algorithm : string</text><ellipse cx="481.5" cy="157.6406" rx="3" ry="3" style="stroke:#038048;stroke-width:1.0;fill:none;"/><text fill="#000000" font-family="sans-serif" font-size="11" lengthAdjust="spacing" textLength="100" x="490.5" y="161.2754">digest-hex : string</text><line style="stroke:#A80036;stroke-width:1.0;stroke-dasharray:1.0,2.0;" x1="471.5" x2="532.5" y1="53.4775" y2="53.4775"/><text fill="#000000" font-family="sans-serif" font-size="11" lengthAdjust="spacing" textLength="56" x="532.5" y="57.1348">properties</text><line style="stroke:#A80036;stroke-width:1.0;stroke-dasharray:1.0,2.0;" x1="588.5" x2="649.5" y1="53.4775" y2="53.4775"/><!--MD5=[1e0cd9c687ebf1abf440c7be62cf66f5]
class ContainerPort_DT--><rect codeLine="79" fill="#FEFECE" filter="url(#f1lqkc379fbvaz)" height="95.8203" id="ContainerPort_DT" style="stroke:#A80036;stroke-width:1.5;" width="165" x="686" y="39.5"/><ellipse cx="725.75" cy="55.5" fill="#008000" rx="11" ry="11" style="stroke:#A80036;stroke-width:1.0;"/><path d="M725.3359,51.3149 L725.3359,59.292 L726,59.292 Q727.4443,59.292 728.0586,58.3831 Q728.6729,57.4741 728.6729,55.291 Q728.6729,53.1245 728.0586,52.2197 Q727.4443,51.3149 726,51.3149 Z M722.8872,49.1069 L725.5103,49.1069 Q728.5483,49.1069 729.8848,50.5554 Q731.2212,52.0039 731.2212,55.291 Q731.2212,58.5864 729.8848,60.0432 Q728.5483,61.5 725.5103,61.5 L722.8872,61.5 Z " fill="#000000"/><text fill="#000000" font-family="sans-serif" font-size="12" lengthAdjust="spacing" textLength="78" x="745.25" y="60.0352">ContainerPort</text><line style="stroke:#A80036;stroke-width:1.5;" x1="687" x2="850" y1="71.5" y2="71.5"/><ellipse cx="697" cy="99.4551" rx="3" ry="3" style="stroke:#038048;stroke-width:1.0;fill:none;"/><text fill="#000000" font-family="sans-serif" font-size="11" font-weight="bold" lengthAdjust="spacing" textLength="139" x="706" y="103.0898">external : AssignablePort</text><ellipse cx="697" cy="112.4102" rx="3" ry="3" style="stroke:#038048;stroke-width:1.0;fill:none;"/><text fill="#000000" font-family="sans-serif" font-size="11" font-weight="bold" lengthAdjust="spacing" textLength="138" x="706" y="116.0449">internal : AssignablePort</text><ellipse cx="697" cy="125.3652" rx="3" ry="3" style="stroke:#038048;stroke-width:1.0;fill:none;"/><text fill="#000000" font-family="sans-serif" font-size="11" font-weight="bold" lengthAdjust="spacing" textLength="131" x="706" y="129">protocol : string = 'tcp'</text><line style="stroke:#A80036;stroke-width:1.0;stroke-dasharray:1.0,2.0;" x1="687" x2="740.5" y1="85.9775" y2="85.9775"/><text fill="#000000" font-family="sans-serif" font-size="11" lengthAdjust="spacing" textLength="56" x="740.5" y="89.6348">properties</text><line style="stroke:#A80036;stroke-width:1.0;stroke-dasharray:1.0,2.0;" x1="796.5" x2="850" y1="85.9775" y2="85.9775"/><!--MD5=[dfc543428298025b0a863738e131df92]
reverse link integer_DT to Count_DT--><path codeLine="5" d="M285.3216,119.7805 C223.4738,157.3236 123.3247,218.1164 72.0384,249.2484 " fill="none" id="integer_DT-backto-Count_DT" style="stroke:#A80036;stroke-width:1.0;"/><polygon fill="none" points="281.7046,113.7874,302.4336,109.3931,288.9693,125.7551,281.7046,113.7874" style="stroke:#A80036;stroke-width:1.0;"/><!--MD5=[0683a00fcbcf9dce0e3783e2c461f78f]
reverse link string_DT to IPAddress_DT--><path codeLine="9" d="M1238.3526,107.681 C1147.8145,143.4042 960.7873,217.1986 874.6884,251.1702 " fill="none" id="string_DT-backto-IPAddress_DT" style="stroke:#A80036;stroke-width:1.0;"/><polygon fill="none" points="1235.9803,101.0919,1257.1537,100.2627,1241.1187,114.1148,1235.9803,101.0919" style="stroke:#A80036;stroke-width:1.0;"/><!--MD5=[e3c5d96fe21d260bba99edba66eeca97]
reverse link string_DT to IPv6Address_DT--><path codeLine="13" d="M1239.5588,115.1351 C1175.5872,150.5341 1065.7476,211.3142 1005.0307,244.9121 " fill="none" id="string_DT-backto-IPv6Address_DT" style="stroke:#A80036;stroke-width:1.0;"/><polygon fill="none" points="1236.5641,108.7921,1257.4528,105.2335,1243.3425,121.0417,1236.5641,108.7921" style="stroke:#A80036;stroke-width:1.0;"/><!--MD5=[015197a8d52f8a930a2f51b8d492d615]
reverse link string_DT to IPv4Address_DT--><path codeLine="17" d="M1249.5488,125.8658 C1212.138,161.7921 1157.3823,214.375 1125.7015,244.7985 " fill="none" id="string_DT-backto-IPv4Address_DT" style="stroke:#A80036;stroke-width:1.0;"/><polygon fill="none" points="1245.1282,120.4059,1264.4023,111.6018,1254.8253,130.5038,1245.1282,120.4059" style="stroke:#A80036;stroke-width:1.0;"/><!--MD5=[42c03fbaa9d8fa6a3cd56d1d5c7d8b2c]
reverse link string_DT to IPSubnet_DT--><path codeLine="21" d="M1274.9563,130.7735 C1262.9683,166.4428 1246.4024,215.7331 1236.6338,244.7985 " fill="none" id="string_DT-backto-IPSubnet_DT" style="stroke:#A80036;stroke-width:1.0;"/><polygon fill="none" points="1268.3928,128.3297,1281.3997,111.6018,1281.6633,132.7898,1268.3928,128.3297" style="stroke:#A80036;stroke-width:1.0;"/><!--MD5=[b1437188d75cee920d34960fddc88d0d]
reverse link string_DT to IPv6Subnet_DT--><path codeLine="25" d="M1304.2821,130.7735 C1316.4667,166.4428 1333.3042,215.7331 1343.2328,244.7985 " fill="none" id="string_DT-backto-IPv6Subnet_DT" style="stroke:#A80036;stroke-width:1.0;"/><polygon fill="none" points="1297.5742,132.7909,1297.7331,111.6018,1310.8225,128.2652,1297.5742,132.7909" style="stroke:#A80036;stroke-width:1.0;"/><!--MD5=[f61cd06e555ce64e821ec052adf3dff6]
reverse link string_DT to IPv4Subnet_DT--><path codeLine="29" d="M1311.2169,129.3891 C1319.1225,142.54 1328.7811,156.5899 1339.5,168 C1368.7063,199.0895 1408.8171,226.5713 1438.9605,244.9882 " fill="none" id="string_DT-backto-IPv4Subnet_DT" style="stroke:#A80036;stroke-width:1.0;"/><polygon fill="none" points="1305.0058,132.6257,1301.2806,111.766,1317.201,125.7497,1305.0058,132.6257" style="stroke:#A80036;stroke-width:1.0;"/><!--MD5=[eb94cba2b39e3843074a0f2da242f3f1]
reverse link integer_DT to Port_DT--><path codeLine="33" d="M296.4552,124.9075 C256.0555,160.8513 196.2021,214.1033 161.7017,244.7985 " fill="none" id="integer_DT-backto-Port_DT" style="stroke:#A80036;stroke-width:1.0;"/><polygon fill="none" points="291.8153,119.6662,311.4104,111.6018,301.1212,130.1257,291.8153,119.6662" style="stroke:#A80036;stroke-width:1.0;"/><!--MD5=[30f79d849d7462876ada68b4f9099c9b]
reverse link integer_DT to AssignablePort_DT--><path codeLine="37" d="M386.378,123.3342 C406.4216,137.7989 430.205,154.2782 452.5,168 C498.9489,196.5876 554.2157,225.4184 593.1347,244.9167 " fill="none" id="integer_DT-backto-AssignablePort_DT" style="stroke:#A80036;stroke-width:1.0;"/><polygon fill="none" points="382.2174,128.9638,370.198,111.5129,390.4765,117.6595,382.2174,128.9638" style="stroke:#A80036;stroke-width:1.0;"/><!--MD5=[742ca3d7733454c5f76a1aeadb2cf981]
reverse link integer_DT to SystemPort_DT--><path codeLine="41" d="M316.6045,129.777 C298.0931,165.5197 272.2279,215.4615 257.0341,244.7985 " fill="none" id="integer_DT-backto-SystemPort_DT" style="stroke:#A80036;stroke-width:1.0;"/><polygon fill="none" points="310.6039,126.1421,326.0175,111.6018,323.0355,132.5806,310.6039,126.1421" style="stroke:#A80036;stroke-width:1.0;"/><!--MD5=[2b289f1a5c1bb2046d17988ea42ace21]
reverse link integer_DT to UserPort_DT--><path codeLine="45" d="M345.5344,131.5256 C351.2237,167.1328 359.0216,215.9369 363.6331,244.7985 " fill="none" id="integer_DT-backto-UserPort_DT" style="stroke:#A80036;stroke-width:1.0;"/><polygon fill="none" points="338.5943,132.4558,342.351,111.6018,352.4189,130.2468,338.5943,132.4558" style="stroke:#A80036;stroke-width:1.0;"/><!--MD5=[cab4988b0eaed9f21f1bc31252b308c4]
reverse link integer_DT to DynamicPort_DT--><path codeLine="49" d="M372.5228,126.8321 C403.5744,162.7293 448.4836,214.6466 474.5654,244.7985 " fill="none" id="integer_DT-backto-DynamicPort_DT" style="stroke:#A80036;stroke-width:1.0;"/><polygon fill="none" points="367.1386,131.3075,359.3484,111.6018,377.7269,122.1484,367.1386,131.3075" style="stroke:#A80036;stroke-width:1.0;"/><!--MD5=[2e1c28ad530b1d89d031358064e426e9]
reverse link string_DT to ServiceName_DT--><path codeLine="53" d="M1308.5806,129.6139 C1316.5101,143.3723 1326.853,157.7365 1339.5,168 C1348.6084,175.3918 1486.383,223.7003 1564.4809,250.7404 " fill="none" id="string_DT-backto-ServiceName_DT" style="stroke:#A80036;stroke-width:1.0;"/><polygon fill="none" points="1302.2683,132.6471,1299.2738,111.6701,1314.6961,126.2012,1302.2683,132.6471" style="stroke:#A80036;stroke-width:1.0;"/><!--MD5=[688beb0adb9f6d8bfd9b0329cf9e6fee]
reverse link string_DT to Hostname_DT--><path codeLine="57" d="M1307.5284,129.9942 C1315.4302,144.0178 1326.0251,158.4537 1339.5,168 C1347.5786,173.7233 1678.0154,242.1607 1687.5,245 C1693.3306,246.7454 1699.3918,248.772 1705.3495,250.8935 " fill="none" id="string_DT-backto-Hostname_DT" style="stroke:#A80036;stroke-width:1.0;"/><polygon fill="none" points="1301.0321,132.6508,1298.4051,111.6246,1313.5708,126.4233,1301.0321,132.6508" style="stroke:#A80036;stroke-width:1.0;"/><!--MD5=[ef9eb5c76a3e8e7d52994c87625e81fd]
reverse link ContainerImageReference_DT to AssignablePort_DT--><path codeLine="78" d="M577.9891,180.5114 C581.9135,192.4746 586.6914,204.2767 592.5,215 C598.4028,225.8973 607.0109,236.2893 615.4267,244.9944 " fill="none" id="ContainerImageReference_DT-backto-AssignablePort_DT" style="stroke:#A80036;stroke-width:1.0;"/><polygon fill="#A80036" points="574.2009,168.0247,572.115,174.9275,577.6846,179.5079,579.7705,172.6051,574.2009,168.0247" style="stroke:#A80036;stroke-width:1.0;"/><text fill="#000000" font-family="sans-serif" font-size="13" lengthAdjust="spacing" textLength="26" x="593.5" y="211.5684">port</text><text fill="#000000" font-family="sans-serif" font-size="13" lengthAdjust="spacing" textLength="8" x="599.0758" y="234.1374">1</text><!--MD5=[1f27c9de1b637fa30c783fabd725fbb3]
reverse link ContainerPort_DT to AssignablePort_DT--><path codeLine="85" d="M701.0824,145.1537 C685.9003,160.9579 671.1491,179.012 660.5,198 C652.4136,212.4185 647.8982,230.5022 645.4123,244.8105 " fill="none" id="ContainerPort_DT-backto-AssignablePort_DT" style="stroke:#A80036;stroke-width:1.0;"/><polygon fill="#A80036" points="710.5583,135.616,703.4919,137.0532,702.1007,144.1289,709.1671,142.6916,710.5583,135.616" style="stroke:#A80036;stroke-width:1.0;"/><text fill="#000000" font-family="sans-serif" font-size="13" lengthAdjust="spacing" textLength="51" x="661.5" y="211.5684">external</text><text fill="#000000" font-family="sans-serif" font-size="13" lengthAdjust="spacing" textLength="8" x="637.1336" y="234.2982">1</text><!--MD5=[1f27c9de1b637fa30c783fabd725fbb3]
reverse link ContainerPort_DT to AssignablePort_DT--><path codeLine="86" d="M752.0976,148.2214 C744.0841,170.6967 732.7936,195.4418 717.5,215 C708.5061,226.5018 696.4295,236.6498 684.5982,244.9533 " fill="none" id="ContainerPort_DT-backto-AssignablePort_DT-1" style="stroke:#A80036;stroke-width:1.0;"/><polygon fill="#A80036" points="756.3295,135.6627,750.6229,140.0712,752.4974,147.0344,758.204,142.6259,756.3295,135.6627" style="stroke:#A80036;stroke-width:1.0;"/><text fill="#000000" font-family="sans-serif" font-size="13" lengthAdjust="spacing" textLength="48" x="729.5" y="211.5684">internal</text><text fill="#000000" font-family="sans-serif" font-size="13" lengthAdjust="spacing" textLength="8" x="686.8371" y="234.0852">1</text><!--MD5=[5051b290df463f22060208d4bc14d867]
@startuml
set namespaceSeparator none
class "Count" as Count_DT << (D,green) >> {
}
class "integer" as integer_DT << (D,green) >> #DDDDDD
integer_DT <|- - Count_DT
class "IPAddress" as IPAddress_DT << (D,green) >> {
}
class "string" as string_DT << (D,green) >> #DDDDDD
string_DT <|- - IPAddress_DT
class "IPv6Address" as IPv6Address_DT << (D,green) >> {
}
class "string" as string_DT << (D,green) >> #DDDDDD
string_DT <|- - IPv6Address_DT
class "IPv4Address" as IPv4Address_DT << (D,green) >> {
}
class "string" as string_DT << (D,green) >> #DDDDDD
string_DT <|- - IPv4Address_DT
class "IPSubnet" as IPSubnet_DT << (D,green) >> {
}
class "string" as string_DT << (D,green) >> #DDDDDD
string_DT <|- - IPSubnet_DT
class "IPv6Subnet" as IPv6Subnet_DT << (D,green) >> {
}
class "string" as string_DT << (D,green) >> #DDDDDD
string_DT <|- - IPv6Subnet_DT
class "IPv4Subnet" as IPv4Subnet_DT << (D,green) >> {
}
class "string" as string_DT << (D,green) >> #DDDDDD
string_DT <|- - IPv4Subnet_DT
class "Port" as Port_DT << (D,green) >> {
}
class "integer" as integer_DT << (D,green) >> #DDDDDD
integer_DT <|- - Port_DT
class "AssignablePort" as AssignablePort_DT << (D,green) >> {
}
class "integer" as integer_DT << (D,green) >> #DDDDDD
integer_DT <|- - AssignablePort_DT
class "SystemPort" as SystemPort_DT << (D,green) >> {
}
class "integer" as integer_DT << (D,green) >> #DDDDDD
integer_DT <|- - SystemPort_DT
class "UserPort" as UserPort_DT << (D,green) >> {
}
class "integer" as integer_DT << (D,green) >> #DDDDDD
integer_DT <|- - UserPort_DT
class "DynamicPort" as DynamicPort_DT << (D,green) >> {
}
class "integer" as integer_DT << (D,green) >> #DDDDDD
integer_DT <|- - DynamicPort_DT
class "ServiceName" as ServiceName_DT << (D,green) >> {
}
class "string" as string_DT << (D,green) >> #DDDDDD
string_DT <|- - ServiceName_DT
class "Hostname" as Hostname_DT << (D,green) >> {
}
class "string" as string_DT << (D,green) >> #DDDDDD
string_DT <|- - Hostname_DT
class "Command" as Command_DT << (D,green) >> {
.. properties ..
+<b>name : string
+arguments : list<string>
}
class "Schedule" as Schedule_DT << (D,green) >> {
.. properties ..
+<b>times : list<scalar-unit.time>
}
class "ContainerImageReference" as ContainerImageReference_DT << (D,green) >> {
.. properties ..
+reference : string
+host : string
+port : AssignablePort
+repository : string
+image : string
+tag : string
+digest-algorithm : string
+digest-hex : string
}
ContainerImageReference_DT *- - "1" AssignablePort_DT : port
class "ContainerPort" as ContainerPort_DT << (D,green) >> {
.. properties ..
+<b>external : AssignablePort
+<b>internal : AssignablePort
+<b>protocol : string = 'tcp'
}
ContainerPort_DT *- - "1" AssignablePort_DT : external
ContainerPort_DT *- - "1" AssignablePort_DT : internal
@enduml

PlantUML version 1.2021.13(Mon Nov 01 12:38:45 CET 2021)
(GPL source distribution)
Java Runtime: Java(TM) SE Runtime Environment
JVM: Java HotSpot(TM) 64-Bit Server VM
Default Encoding: UTF-8
Language: fr
Country: FR
--></g></svg>