<?xml version="1.0" encoding="UTF-8" standalone="no"?><svg xmlns="http://www.w3.org/2000/svg" xmlns:xlink="http://www.w3.org/1999/xlink" contentScriptType="application/ecmascript" contentStyleType="text/css" height="704px" preserveAspectRatio="none" style="width:172px;height:704px;background:#FFFFFF;" version="1.1" viewBox="0 0 172 704" width="172px" zoomAndPan="magnify"><defs/><g><ellipse cx="86" cy="16" fill="#008000" rx="10" ry="10" style="stroke:none;stroke-width:1.0;"/><ellipse cx="86" cy="688" rx="10" ry="10" style="stroke:#000000;stroke-width:1.0;fill:none;"/><ellipse cx="86.5" cy="688.5" fill="#000000" rx="6" ry="6" style="stroke:none;stroke-width:1.0;"/><rect fill="#FFFFFF" height="88.4883" rx="12.5" ry="12.5" style="stroke:#000000;stroke-width:1.5;" width="140" x="16" y="530"/><rect fill="#FFFFFF" height="56" rx="12.5" ry="12.5" style="stroke:#FFFFFF;stroke-width:1.0;" width="134" x="19" y="559.4883"/><line style="stroke:#000000;stroke-width:1.5;" x1="16" x2="156" y1="556.4883" y2="556.4883"/><text fill="#000000" font-family="sans-serif" font-size="14" lengthAdjust="spacing" textLength="113" x="29.5" y="548.5352">deploy_frontend</text><rect fill="#D3D3D3" height="40" rx="12.5" ry="12.5" style="stroke:#0000FF;stroke-width:1.5;" width="120" x="28" y="568.4883"/><text fill="#000000" font-family="sans-serif" font-size="14" lengthAdjust="spacing" textLength="110" x="33" y="593.7793">frontend deploy</text><rect fill="#FFFFFF" height="88.4883" rx="12.5" ry="12.5" style="stroke:#000000;stroke-width:1.5;" width="158" x="7" y="382"/><rect fill="#FFFFFF" height="56" rx="12.5" ry="12.5" style="stroke:#FFFFFF;stroke-width:1.0;" width="152" x="10" y="411.4883"/><line style="stroke:#000000;stroke-width:1.5;" x1="7" x2="165" y1="408.4883" y2="408.4883"/><text fill="#000000" font-family="sans-serif" font-size="14" lengthAdjust="spacing" textLength="130" x="21" y="400.5352">deploy_web_server</text><rect fill="#D3D3D3" height="40" rx="12.5" ry="12.5" style="stroke:#0000FF;stroke-width:1.5;" width="138" x="19" y="420.4883"/><text fill="#000000" font-family="sans-serif" font-size="14" lengthAdjust="spacing" textLength="128" x="24" y="445.7793">web-server deploy</text><rect fill="#FFFFFF" height="88.4883" rx="12.5" ry="12.5" style="stroke:#000000;stroke-width:1.5;" width="142" x="15" y="234"/><rect fill="#FFFFFF" height="56" rx="12.5" ry="12.5" style="stroke:#FFFFFF;stroke-width:1.0;" width="136" x="18" y="263.4883"/><line style="stroke:#000000;stroke-width:1.5;" x1="15" x2="157" y1="260.4883" y2="260.4883"/><text fill="#000000" font-family="sans-serif" font-size="14" lengthAdjust="spacing" textLength="115" x="28.5" y="252.5352">deploy_database</text><rect fill="#D3D3D3" height="40" rx="12.5" ry="12.5" style="stroke:#0000FF;stroke-width:1.5;" width="122" x="27" y="272.4883"/><text fill="#000000" font-family="sans-serif" font-size="14" lengthAdjust="spacing" textLength="112" x="32" y="297.7793">database deploy</text><rect fill="#FFFFFF" height="88.4883" rx="12.5" ry="12.5" style="stroke:#000000;stroke-width:1.5;" width="141" x="15.5" y="86"/><rect fill="#FFFFFF" height="56" rx="12.5" ry="12.5" style="stroke:#FFFFFF;stroke-width:1.0;" width="135" x="18.5" y="115.4883"/><line style="stroke:#000000;stroke-width:1.5;" x1="15.5" x2="156.5" y1="112.4883" y2="112.4883"/><text fill="#000000" font-family="sans-serif" font-size="14" lengthAdjust="spacing" textLength="114" x="29" y="104.5352">deploy_directory</text><rect fill="#D3D3D3" height="40" rx="12.5" ry="12.5" style="stroke:#0000FF;stroke-width:1.5;" width="121" x="27.5" y="124.4883"/><text fill="#000000" font-family="sans-serif" font-size="14" lengthAdjust="spacing" textLength="111" x="32.5" y="149.7793">directory deploy</text><!--MD5=[57438b9aa700c831742f8d9e2574ef83]
link step_parallel_deploy_deploy_web_server to step_parallel_deploy_deploy_frontend--><path d="M86,470.0042 C86,487.1469 86,506.8749 86,524.5094 " fill="none" id="step_parallel_deploy_deploy_web_server-to-step_parallel_deploy_deploy_frontend" style="stroke:#0000FF;stroke-width:1.0;"/><polygon fill="#0000FF" points="86,529.9098,90,520.9098,86,524.9098,82,520.9098,86,529.9098" style="stroke:#0000FF;stroke-width:1.0;"/><!--MD5=[be8c5c19b8e39c77c2d2cac991cb3e25]
link step_parallel_deploy_deploy_database to step_parallel_deploy_deploy_web_server--><path d="M86,322.0042 C86,339.1469 86,358.8749 86,376.5094 " fill="none" id="step_parallel_deploy_deploy_database-to-step_parallel_deploy_deploy_web_server" style="stroke:#0000FF;stroke-width:1.0;"/><polygon fill="#0000FF" points="86,381.9098,90,372.9098,86,376.9098,82,372.9098,86,381.9098" style="stroke:#0000FF;stroke-width:1.0;"/><!--MD5=[c4433886ad73b34b9ba3c5142794edc0]
link step_parallel_deploy_deploy_directory to step_parallel_deploy_deploy_database--><path d="M86,174.0042 C86,191.1469 86,210.8749 86,228.5094 " fill="none" id="step_parallel_deploy_deploy_directory-to-step_parallel_deploy_deploy_database" style="stroke:#0000FF;stroke-width:1.0;"/><polygon fill="#0000FF" points="86,233.9098,90,224.9098,86,228.9098,82,224.9098,86,233.9098" style="stroke:#0000FF;stroke-width:1.0;"/><!--MD5=[14685f6dee9fbab85672cd8a86fe5f15]
link *start to step_parallel_deploy_deploy_directory--><path d="M86,26.1167 C86,38.4746 86,60.2658 86,80.7092 " fill="none" id="*start-to-step_parallel_deploy_deploy_directory" style="stroke:#0000FF;stroke-width:1.0;"/><polygon fill="#0000FF" points="86,85.8711,90,76.8711,86,80.8711,82,76.8711,86,85.8711" style="stroke:#0000FF;stroke-width:1.0;"/><!--MD5=[e6a89b52d809ec97372b47869b850d4c]
link step_parallel_deploy_deploy_frontend to *end--><path d="M86,618.0754 C86,637.3243 86,658.649 86,672.628 " fill="none" id="step_parallel_deploy_deploy_frontend-to-*end" style="stroke:#0000FF;stroke-width:1.0;"/><polygon fill="#0000FF" points="86,677.7845,90,668.7845,86,672.7845,82,668.7845,86,677.7845" style="stroke:#0000FF;stroke-width:1.0;"/><!--MD5=[948bb8ee94e05193f080f30c543e8a45]
@startuml
hide empty description
skinparam shadowing false
skinparam state {
  ArrowColor blue
  BorderColor blue
  EndColor black
  StartColor green
  BackGroundColor<< step >> white
  BorderColor<< step >> black
  BackGroundColor<< delegate >> lightgrey
  BackGroundColor<< set_state >> white
  BackGroundColor<< call_operation >> lightblue
  BackGroundColor<< inline >> white
}
skinparam ActivityBarColor<<fork>> DarkGreen
skinparam ActivityBarColor<<join>> DarkOrange

state "deploy_frontend" as step_parallel_deploy_deploy_frontend << step >> {
  state "frontend deploy" as step_parallel_deploy_deploy_frontend_frontend_deploy << delegate >>
}
state "deploy_web_server" as step_parallel_deploy_deploy_web_server << step >> {
  state "web-server deploy" as step_parallel_deploy_deploy_web_server_web_server_deploy << delegate >>
}
state "deploy_database" as step_parallel_deploy_deploy_database << step >> {
  state "database deploy" as step_parallel_deploy_deploy_database_database_deploy << delegate >>
}
state "deploy_directory" as step_parallel_deploy_deploy_directory << step >> {
  state "directory deploy" as step_parallel_deploy_deploy_directory_directory_deploy << delegate >>
}
step_parallel_deploy_deploy_web_server - -> step_parallel_deploy_deploy_frontend
step_parallel_deploy_deploy_database - -> step_parallel_deploy_deploy_web_server
step_parallel_deploy_deploy_directory - -> step_parallel_deploy_deploy_database
[*] - -> step_parallel_deploy_deploy_directory
step_parallel_deploy_deploy_frontend - -> [*]
@enduml

PlantUML version 1.2021.13(Mon Nov 01 12:38:45 CET 2021)
(GPL source distribution)
Java Runtime: Java(TM) SE Runtime Environment
JVM: Java HotSpot(TM) 64-Bit Server VM
Default Encoding: UTF-8
Language: fr
Country: FR
--></g></svg>