<?xml version="1.0" encoding="UTF-8" standalone="no"?><svg xmlns="http://www.w3.org/2000/svg" xmlns:xlink="http://www.w3.org/1999/xlink" contentScriptType="application/ecmascript" contentStyleType="text/css" height="103px" preserveAspectRatio="none" style="width:296px;height:103px;background:#FFFFFF;" version="1.1" viewBox="0 0 296 103" width="296px" zoomAndPan="magnify"><defs><filter height="300%" id="f14bq702wc9hdx" width="300%" x="-1" y="-1"><feGaussianBlur result="blurOut" stdDeviation="2.0"/><feColorMatrix in="blurOut" result="blurOut2" type="matrix" values="0 0 0 0 0 0 0 0 0 0 0 0 0 0 0 0 0 0 .4 0"/><feOffset dx="4.0" dy="4.0" in="blurOut2" result="blurOut3"/><feBlend in="SourceGraphic" in2="blurOut3" mode="normal"/></filter></defs><g><!--MD5=[bb3ebf56113fa7318b937d0a890c09ca]
class Delegation_PT--><rect codeLine="2" fill="#FEFECE" filter="url(#f14bq702wc9hdx)" height="69.9102" id="Delegation_PT" style="stroke:#A80036;stroke-width:1.5;" width="112" x="7" y="13.5"/><ellipse cx="30.55" cy="29.5" fill="#008000" rx="11" ry="11" style="stroke:#A80036;stroke-width:1.0;"/><path d="M30.3435,25.1655 L30.3435,28.8013 L31.3479,28.8013 Q32.5515,28.8013 33.0371,28.3945 Q33.5227,27.9878 33.5227,26.9834 Q33.5227,25.979 33.0371,25.5723 Q32.5515,25.1655 31.3479,25.1655 Z M27.8947,23.1069 L31.2565,23.1069 Q33.8215,23.1069 34.9462,24.02 Q36.071,24.9331 36.071,26.9834 Q36.071,29.0337 34.9462,29.9468 Q33.8215,30.8599 31.2565,30.8599 L30.3435,30.8599 L30.3435,35.5 L27.8947,35.5 Z " fill="#000000"/><text fill="#000000" font-family="sans-serif" font-size="12" lengthAdjust="spacing" textLength="61" x="46.45" y="34.0352">Delegation</text><line style="stroke:#A80036;stroke-width:1.5;" x1="8" x2="118" y1="45.5" y2="45.5"/><ellipse cx="18" cy="73.4551" rx="3" ry="3" style="stroke:#038048;stroke-width:1.0;fill:none;"/><text fill="#000000" font-family="sans-serif" font-size="11" lengthAdjust="spacing" textLength="86" x="27" y="77.0898">delegate : string</text><line style="stroke:#A80036;stroke-width:1.0;stroke-dasharray:1.0,2.0;" x1="8" x2="35" y1="59.9775" y2="59.9775"/><text fill="#000000" font-family="sans-serif" font-size="11" lengthAdjust="spacing" textLength="56" x="35" y="63.6348">properties</text><line style="stroke:#A80036;stroke-width:1.0;stroke-dasharray:1.0,2.0;" x1="91" x2="118" y1="59.9775" y2="59.9775"/><!--MD5=[43118b5ec9f3a890f199b1fe809b2a86]
class Placement_PT--><rect codeLine="6" fill="#FEFECE" filter="url(#f14bq702wc9hdx)" height="82.8652" id="Placement_PT" style="stroke:#A80036;stroke-width:1.5;" width="128" x="154" y="7"/><ellipse cx="185.65" cy="23" fill="#008000" rx="11" ry="11" style="stroke:#A80036;stroke-width:1.0;"/><path d="M185.4435,18.6655 L185.4435,22.3013 L186.4479,22.3013 Q187.6515,22.3013 188.1371,21.8945 Q188.6227,21.4878 188.6227,20.4834 Q188.6227,19.479 188.1371,19.0723 Q187.6515,18.6655 186.4479,18.6655 Z M182.9947,16.6069 L186.3565,16.6069 Q188.9215,16.6069 190.0462,17.52 Q191.171,18.4331 191.171,20.4834 Q191.171,22.5337 190.0462,23.4468 Q188.9215,24.3599 186.3565,24.3599 L185.4435,24.3599 L185.4435,29 L182.9947,29 Z " fill="#000000"/><text fill="#000000" font-family="sans-serif" font-size="12" lengthAdjust="spacing" textLength="59" x="203.35" y="27.5352">Placement</text><line style="stroke:#A80036;stroke-width:1.5;" x1="155" x2="281" y1="39" y2="39"/><ellipse cx="165" cy="66.9551" rx="3" ry="3" style="stroke:#038048;stroke-width:1.0;fill:none;"/><text fill="#000000" font-family="sans-serif" font-size="11" lengthAdjust="spacing" textLength="65" x="174" y="70.5898">host : string</text><ellipse cx="165" cy="79.9102" rx="3" ry="3" style="stroke:#038048;stroke-width:1.0;fill:none;"/><text fill="#000000" font-family="sans-serif" font-size="11" lengthAdjust="spacing" textLength="102" x="174" y="83.5449">hints : list&lt;string&gt;</text><line style="stroke:#A80036;stroke-width:1.0;stroke-dasharray:1.0,2.0;" x1="155" x2="190" y1="53.4775" y2="53.4775"/><text fill="#000000" font-family="sans-serif" font-size="11" lengthAdjust="spacing" textLength="56" x="190" y="57.1348">properties</text><line style="stroke:#A80036;stroke-width:1.0;stroke-dasharray:1.0,2.0;" x1="246" x2="281" y1="53.4775" y2="53.4775"/><!--MD5=[6adac3e623f116da61a49bfeda235d2a]
@startuml
set namespaceSeparator none
class "Delegation" as Delegation_PT << (P,green) >> {
.. properties ..
+delegate : string
}
class "Placement" as Placement_PT << (P,green) >> {
.. properties ..
+host : string
+hints : list<string>
}
@enduml

PlantUML version 1.2021.13(Mon Nov 01 12:38:45 CET 2021)
(GPL source distribution)
Java Runtime: Java(TM) SE Runtime Environment
JVM: Java HotSpot(TM) 64-Bit Server VM
Default Encoding: UTF-8
Language: fr
Country: FR
--></g></svg>