<?xml version="1.0" encoding="UTF-8" standalone="no"?><svg xmlns="http://www.w3.org/2000/svg" xmlns:xlink="http://www.w3.org/1999/xlink" contentScriptType="application/ecmascript" contentStyleType="text/css" height="103px" preserveAspectRatio="none" style="width:288px;height:103px;background:#FFFFFF;" version="1.1" viewBox="0 0 288 103" width="288px" zoomAndPan="magnify"><defs><filter height="300%" id="f1bfj5rlxix120" width="300%" x="-1" y="-1"><feGaussianBlur result="blurOut" stdDeviation="2.0"/><feColorMatrix in="blurOut" result="blurOut2" type="matrix" values="0 0 0 0 0 0 0 0 0 0 0 0 0 0 0 0 0 0 .4 0"/><feOffset dx="4.0" dy="4.0" in="blurOut2" result="blurOut3"/><feBlend in="SourceGraphic" in2="blurOut3" mode="normal"/></filter></defs><g><!--MD5=[50d23e81f979c89b032891ae52dfdc4c]
class Run_PT--><rect codeLine="2" fill="#FEFECE" filter="url(#f1bfj5rlxix120)" height="69.9102" id="Run_PT" style="stroke:#A80036;stroke-width:1.5;" width="104" x="7" y="13.5"/><ellipse cx="44.5" cy="29.5" fill="#008000" rx="11" ry="11" style="stroke:#A80036;stroke-width:1.0;"/><path d="M44.2935,25.1655 L44.2935,28.8013 L45.2979,28.8013 Q46.5015,28.8013 46.9871,28.3945 Q47.4727,27.9878 47.4727,26.9834 Q47.4727,25.979 46.9871,25.5723 Q46.5015,25.1655 45.2979,25.1655 Z M41.8447,23.1069 L45.2065,23.1069 Q47.7715,23.1069 48.8962,24.02 Q50.021,24.9331 50.021,26.9834 Q50.021,29.0337 48.8962,29.9468 Q47.7715,30.8599 45.2065,30.8599 L44.2935,30.8599 L44.2935,35.5 L41.8447,35.5 Z " fill="#000000"/><text fill="#000000" font-family="sans-serif" font-size="12" lengthAdjust="spacing" textLength="22" x="63.5" y="34.0352">Run</text><line style="stroke:#A80036;stroke-width:1.5;" x1="8" x2="110" y1="45.5" y2="45.5"/><ellipse cx="18" cy="73.4551" rx="3" ry="3" style="stroke:#038048;stroke-width:1.0;fill:none;"/><text fill="#000000" font-family="sans-serif" font-size="11" lengthAdjust="spacing" textLength="78" x="27" y="77.0898">runner : string</text><line style="stroke:#A80036;stroke-width:1.0;stroke-dasharray:1.0,2.0;" x1="8" x2="31" y1="59.9775" y2="59.9775"/><text fill="#000000" font-family="sans-serif" font-size="11" lengthAdjust="spacing" textLength="56" x="31" y="63.6348">properties</text><line style="stroke:#A80036;stroke-width:1.0;stroke-dasharray:1.0,2.0;" x1="87" x2="110" y1="59.9775" y2="59.9775"/><!--MD5=[43118b5ec9f3a890f199b1fe809b2a86]
class Placement_PT--><rect codeLine="6" fill="#FEFECE" filter="url(#f1bfj5rlxix120)" height="82.8652" id="Placement_PT" style="stroke:#A80036;stroke-width:1.5;" width="128" x="146" y="7"/><ellipse cx="177.65" cy="23" fill="#008000" rx="11" ry="11" style="stroke:#A80036;stroke-width:1.0;"/><path d="M177.4435,18.6655 L177.4435,22.3013 L178.4479,22.3013 Q179.6515,22.3013 180.1371,21.8945 Q180.6227,21.4878 180.6227,20.4834 Q180.6227,19.479 180.1371,19.0723 Q179.6515,18.6655 178.4479,18.6655 Z M174.9947,16.6069 L178.3565,16.6069 Q180.9215,16.6069 182.0462,17.52 Q183.171,18.4331 183.171,20.4834 Q183.171,22.5337 182.0462,23.4468 Q180.9215,24.3599 178.3565,24.3599 L177.4435,24.3599 L177.4435,29 L174.9947,29 Z " fill="#000000"/><text fill="#000000" font-family="sans-serif" font-size="12" lengthAdjust="spacing" textLength="59" x="195.35" y="27.5352">Placement</text><line style="stroke:#A80036;stroke-width:1.5;" x1="147" x2="273" y1="39" y2="39"/><ellipse cx="157" cy="66.9551" rx="3" ry="3" style="stroke:#038048;stroke-width:1.0;fill:none;"/><text fill="#000000" font-family="sans-serif" font-size="11" lengthAdjust="spacing" textLength="85" x="166" y="70.5898">member : string</text><ellipse cx="157" cy="79.9102" rx="3" ry="3" style="stroke:#038048;stroke-width:1.0;fill:none;"/><text fill="#000000" font-family="sans-serif" font-size="11" lengthAdjust="spacing" textLength="102" x="166" y="83.5449">hints : list&lt;string&gt;</text><line style="stroke:#A80036;stroke-width:1.0;stroke-dasharray:1.0,2.0;" x1="147" x2="182" y1="53.4775" y2="53.4775"/><text fill="#000000" font-family="sans-serif" font-size="11" lengthAdjust="spacing" textLength="56" x="182" y="57.1348">properties</text><line style="stroke:#A80036;stroke-width:1.0;stroke-dasharray:1.0,2.0;" x1="238" x2="273" y1="53.4775" y2="53.4775"/><!--MD5=[246329777d436a6a3bc6ce01e8343b4c]
@startuml
set namespaceSeparator none
class "Run" as Run_PT << (P,green) >> {
.. properties ..
+runner : string
}
class "Placement" as Placement_PT << (P,green) >> {
.. properties ..
+member : string
+hints : list<string>
}
@enduml

PlantUML version 1.2021.13(Mon Nov 01 12:38:45 CET 2021)
(GPL source distribution)
Java Runtime: Java(TM) SE Runtime Environment
JVM: Java HotSpot(TM) 64-Bit Server VM
Default Encoding: UTF-8
Language: fr
Country: FR
--></g></svg>