<?xml version="1.0" encoding="UTF-8" standalone="no"?><svg xmlns="http://www.w3.org/2000/svg" xmlns:xlink="http://www.w3.org/1999/xlink" contentScriptType="application/ecmascript" contentStyleType="text/css" height="956px" preserveAspectRatio="none" style="width:1411px;height:956px;background:#FFFFFF;" version="1.1" viewBox="0 0 1411 956" width="1411px" zoomAndPan="magnify"><defs><filter height="300%" id="fkje4lg7o3pfk" width="300%" x="-1" y="-1"><feGaussianBlur result="blurOut" stdDeviation="2.0"/><feColorMatrix in="blurOut" result="blurOut2" type="matrix" values="0 0 0 0 0 0 0 0 0 0 0 0 0 0 0 0 0 0 .4 0"/><feOffset dx="4.0" dy="4.0" in="blurOut2" result="blurOut3"/><feBlend in="SourceGraphic" in2="blurOut3" mode="normal"/></filter></defs><g><!--MD5=[929d54c1e7dea0a70c1c7a50a910fd12]
class Root_NT--><rect codeLine="2" fill="#FEFECE" filter="url(#fkje4lg7o3pfk)" height="67.4326" id="Root_NT" style="stroke:#A80036;stroke-width:1.5;" width="93" x="956.5" y="132"/><ellipse cx="987.25" cy="148" fill="#008000" rx="11" ry="11" style="stroke:#A80036;stroke-width:1.0;"/><path d="M983.2378,141.6069 L985.8691,141.6069 L989.3223,150.6133 L989.3223,141.6069 L991.4805,141.6069 L991.4805,154 L988.8657,154 L985.396,144.9937 L985.396,154 L983.2378,154 Z " fill="#000000"/><text fill="#000000" font-family="sans-serif" font-size="12" lengthAdjust="spacing" textLength="26" x="1004.75" y="152.5352">Root</text><line style="stroke:#A80036;stroke-width:1.5;" x1="957.5" x2="1048.5" y1="164" y2="164"/><line style="stroke:#A80036;stroke-width:1.0;" x1="957.5" x2="1048.5" y1="172" y2="172"/><line style="stroke:#A80036;stroke-width:1.0;stroke-dasharray:1.0,2.0;" x1="957.5" x2="960.5" y1="186.4775" y2="186.4775"/><text fill="#000000" font-family="sans-serif" font-size="11" lengthAdjust="spacing" textLength="85" x="960.5" y="190.1348">interface events</text><line style="stroke:#A80036;stroke-width:1.0;stroke-dasharray:1.0,2.0;" x1="1045.5" x2="1048.5" y1="186.4775" y2="186.4775"/><!--MD5=[22ee09334a30cf5923649ab51791e173]
class Events_IT--><rect codeLine="6" fill="#DDDDDD" filter="url(#fkje4lg7o3pfk)" height="48" id="Events_IT" style="stroke:#A80036;stroke-width:1.5;" width="69" x="968.5" y="7"/><ellipse cx="983.5" cy="23" fill="#008000" rx="11" ry="11" style="stroke:#A80036;stroke-width:1.0;"/><path d="M979.4277,18.7651 L979.4277,16.6069 L986.8071,16.6069 L986.8071,18.7651 L984.3418,18.7651 L984.3418,26.8418 L986.8071,26.8418 L986.8071,29 L979.4277,29 L979.4277,26.8418 L981.8931,26.8418 L981.8931,18.7651 Z " fill="#000000"/><text fill="#000000" font-family="sans-serif" font-size="12" lengthAdjust="spacing" textLength="37" x="997.5" y="27.5352">Events</text><line style="stroke:#A80036;stroke-width:1.5;" x1="969.5" x2="1036.5" y1="39" y2="39"/><line style="stroke:#A80036;stroke-width:1.5;" x1="969.5" x2="1036.5" y1="47" y2="47"/><!--MD5=[4a489b652ba81a2e5c15503c712b1fbf]
class Redundant_NT--><rect codeLine="8" fill="#FEFECE" filter="url(#fkje4lg7o3pfk)" height="164.5957" id="Redundant_NT" style="stroke:#A80036;stroke-width:1.5;" width="176" x="604" y="260"/><ellipse cx="656.25" cy="276" fill="#008000" rx="11" ry="11" style="stroke:#A80036;stroke-width:1.0;"/><path d="M652.2378,269.6069 L654.8691,269.6069 L658.3223,278.6133 L658.3223,269.6069 L660.4805,269.6069 L660.4805,282 L657.8657,282 L654.396,272.9937 L654.396,282 L652.2378,282 Z " fill="#000000"/><text fill="#000000" font-family="sans-serif" font-size="12" lengthAdjust="spacing" textLength="63" x="676.75" y="280.5352">Redundant</text><line style="stroke:#A80036;stroke-width:1.5;" x1="605" x2="779" y1="292" y2="292"/><ellipse cx="615" cy="319.9551" rx="3" ry="3" style="stroke:#038048;stroke-width:1.0;fill:none;"/><text fill="#000000" font-family="sans-serif" font-size="11" font-weight="bold" lengthAdjust="spacing" textLength="99" x="624" y="323.5898">count : Count = 1</text><line style="stroke:#A80036;stroke-width:1.0;stroke-dasharray:1.0,2.0;" x1="605" x2="664" y1="306.4775" y2="306.4775"/><text fill="#000000" font-family="sans-serif" font-size="11" lengthAdjust="spacing" textLength="56" x="664" y="310.1348">properties</text><line style="stroke:#A80036;stroke-width:1.0;stroke-dasharray:1.0,2.0;" x1="720" x2="779" y1="306.4775" y2="306.4775"/><ellipse cx="615" cy="349.8652" rx="3" ry="3" style="stroke:#038048;stroke-width:1.0;fill:none;"/><text fill="#000000" font-family="sans-serif" font-size="11" lengthAdjust="spacing" textLength="60" x="624" y="353.5">connection</text><text fill="#000000" font-family="sans-serif" font-size="11" lengthAdjust="spacing" textLength="150" x="624" y="366.4551">capability : Connectible[0..*]</text><text fill="#000000" font-family="sans-serif" font-size="11" lengthAdjust="spacing" textLength="135" x="624" y="379.4102">relationship : Connection</text><ellipse cx="615" cy="388.7305" rx="3" ry="3" style="stroke:#038048;stroke-width:1.0;fill:none;"/><text fill="#000000" font-family="sans-serif" font-size="11" lengthAdjust="spacing" textLength="41" x="624" y="392.3652">storage</text><text fill="#000000" font-family="sans-serif" font-size="11" lengthAdjust="spacing" textLength="127" x="624" y="405.3203">capability : Storage[0..*]</text><text fill="#000000" font-family="sans-serif" font-size="11" lengthAdjust="spacing" textLength="114" x="624" y="418.2754">relationship : Storage</text><line style="stroke:#A80036;stroke-width:1.0;stroke-dasharray:1.0,2.0;" x1="605" x2="656" y1="336.3877" y2="336.3877"/><text fill="#000000" font-family="sans-serif" font-size="11" lengthAdjust="spacing" textLength="72" x="656" y="340.0449">requirements</text><line style="stroke:#A80036;stroke-width:1.0;stroke-dasharray:1.0,2.0;" x1="728" x2="779" y1="336.3877" y2="336.3877"/><!--MD5=[31c8c1c66eca08a592894fe24cd020a8]
class Connectible_CT--><rect codeLine="85" fill="#DDDDDD" filter="url(#fkje4lg7o3pfk)" height="48" id="Connectible_CT" style="stroke:#A80036;stroke-width:1.5;" width="99" x="317.5" y="455"/><ellipse cx="332.5" cy="471" fill="#008000" rx="11" ry="11" style="stroke:#A80036;stroke-width:1.0;"/><path d="M335.4731,476.6431 Q334.8921,476.9419 334.2529,477.0913 Q333.6138,477.2407 332.9082,477.2407 Q330.4014,477.2407 329.0815,475.5889 Q327.7617,473.937 327.7617,470.8159 Q327.7617,467.6865 329.0815,466.0347 Q330.4014,464.3828 332.9082,464.3828 Q333.6138,464.3828 334.2612,464.5322 Q334.9087,464.6816 335.4731,464.9805 L335.4731,467.7031 Q334.8423,467.1221 334.2488,466.8523 Q333.6553,466.5825 333.0244,466.5825 Q331.6797,466.5825 330.9949,467.6492 Q330.3101,468.7158 330.3101,470.8159 Q330.3101,472.9077 330.9949,473.9744 Q331.6797,475.041 333.0244,475.041 Q333.6553,475.041 334.2488,474.7712 Q334.8423,474.5015 335.4731,473.9204 Z " fill="#000000"/><text fill="#000000" font-family="sans-serif" font-size="12" lengthAdjust="spacing" textLength="67" x="346.5" y="475.5352">Connectible</text><line style="stroke:#A80036;stroke-width:1.5;" x1="318.5" x2="415.5" y1="487" y2="487"/><line style="stroke:#A80036;stroke-width:1.5;" x1="318.5" x2="415.5" y1="495" y2="495"/><!--MD5=[5e4fd20a0b47bf5889f3832dfb4975c0]
class Connection_RT--><rect codeLine="22" fill="#DDDDDD" filter="url(#fkje4lg7o3pfk)" height="48" id="Connection_RT" style="stroke:#A80036;stroke-width:1.5;" width="95" x="804.5" y="563.5"/><ellipse cx="819.5" cy="579.5" fill="#008000" rx="11" ry="11" style="stroke:#A80036;stroke-width:1.0;"/><path d="M820.6987,579.6479 Q821.064,579.7227 821.3337,579.9924 Q821.6035,580.2622 821.9937,581.0425 L824.2349,585.5 L821.5454,585.5 L820.0513,582.3706 Q819.9849,582.2378 819.877,582.0054 Q819.2212,580.6025 818.333,580.6025 L817.5527,580.6025 L817.5527,585.5 L815.104,585.5 L815.104,573.1069 L818.6401,573.1069 Q821.0308,573.1069 822.0725,573.9536 Q823.1143,574.8003 823.1143,576.7095 Q823.1143,577.9878 822.4917,578.7432 Q821.8691,579.4985 820.6987,579.6479 Z M817.5527,575.1655 L817.5527,578.5439 L818.7065,578.5439 Q819.7109,578.5439 820.1467,578.1497 Q820.5825,577.7554 820.5825,576.8506 Q820.5825,575.9458 820.1509,575.5557 Q819.7192,575.1655 818.7065,575.1655 Z " fill="#000000"/><text fill="#000000" font-family="sans-serif" font-size="12" lengthAdjust="spacing" textLength="63" x="833.5" y="584.0352">Connection</text><line style="stroke:#A80036;stroke-width:1.5;" x1="805.5" x2="898.5" y1="595.5" y2="595.5"/><line style="stroke:#A80036;stroke-width:1.5;" x1="805.5" x2="898.5" y1="603.5" y2="603.5"/><!--MD5=[f1d3f434f571668a038b25da07bf18bd]
class Storage_CT--><rect codeLine="24" fill="#DDDDDD" filter="url(#fkje4lg7o3pfk)" height="48" id="Storage_CT" style="stroke:#A80036;stroke-width:1.5;" width="75" x="928.5" y="318.5"/><ellipse cx="943.5" cy="334.5" fill="#008000" rx="11" ry="11" style="stroke:#A80036;stroke-width:1.0;"/><path d="M946.4731,340.1431 Q945.8921,340.4419 945.2529,340.5913 Q944.6138,340.7407 943.9082,340.7407 Q941.4014,340.7407 940.0815,339.0889 Q938.7617,337.437 938.7617,334.3159 Q938.7617,331.1865 940.0815,329.5347 Q941.4014,327.8828 943.9082,327.8828 Q944.6138,327.8828 945.2612,328.0322 Q945.9087,328.1816 946.4731,328.4805 L946.4731,331.2031 Q945.8423,330.6221 945.2488,330.3523 Q944.6553,330.0825 944.0244,330.0825 Q942.6797,330.0825 941.9949,331.1492 Q941.3101,332.2158 941.3101,334.3159 Q941.3101,336.4077 941.9949,337.4744 Q942.6797,338.541 944.0244,338.541 Q944.6553,338.541 945.2488,338.2712 Q945.8423,338.0015 946.4731,337.4204 Z " fill="#000000"/><text fill="#000000" font-family="sans-serif" font-size="12" lengthAdjust="spacing" textLength="43" x="957.5" y="339.0352">Storage</text><line style="stroke:#A80036;stroke-width:1.5;" x1="929.5" x2="1002.5" y1="350.5" y2="350.5"/><line style="stroke:#A80036;stroke-width:1.5;" x1="929.5" x2="1002.5" y1="358.5" y2="358.5"/><!--MD5=[f9801645f03c93b6419b5ce4d964fb4b]
class Storage_RT--><rect codeLine="26" fill="#DDDDDD" filter="url(#fkje4lg7o3pfk)" height="48" id="Storage_RT" style="stroke:#A80036;stroke-width:1.5;" width="75" x="969.5" y="563.5"/><ellipse cx="984.5" cy="579.5" fill="#008000" rx="11" ry="11" style="stroke:#A80036;stroke-width:1.0;"/><path d="M985.6987,579.6479 Q986.064,579.7227 986.3337,579.9924 Q986.6035,580.2622 986.9937,581.0425 L989.2349,585.5 L986.5454,585.5 L985.0513,582.3706 Q984.9849,582.2378 984.877,582.0054 Q984.2212,580.6025 983.333,580.6025 L982.5527,580.6025 L982.5527,585.5 L980.104,585.5 L980.104,573.1069 L983.6401,573.1069 Q986.0308,573.1069 987.0725,573.9536 Q988.1143,574.8003 988.1143,576.7095 Q988.1143,577.9878 987.4917,578.7432 Q986.8691,579.4985 985.6987,579.6479 Z M982.5527,575.1655 L982.5527,578.5439 L983.7065,578.5439 Q984.7109,578.5439 985.1467,578.1497 Q985.5825,577.7554 985.5825,576.8506 Q985.5825,575.9458 985.1509,575.5557 Q984.7192,575.1655 983.7065,575.1655 Z " fill="#000000"/><text fill="#000000" font-family="sans-serif" font-size="12" lengthAdjust="spacing" textLength="43" x="998.5" y="584.0352">Storage</text><line style="stroke:#A80036;stroke-width:1.5;" x1="970.5" x2="1043.5" y1="595.5" y2="595.5"/><line style="stroke:#A80036;stroke-width:1.5;" x1="970.5" x2="1043.5" y1="603.5" y2="603.5"/><!--MD5=[4a8503e1521d469b67541a1171d4523c]
class ExposableRedundant_NT--><rect codeLine="28" fill="#FEFECE" filter="url(#fkje4lg7o3pfk)" height="82.8652" id="ExposableRedundant_NT" style="stroke:#A80036;stroke-width:1.5;" width="155" x="614.5" y="546"/><ellipse cx="629.5" cy="562" fill="#008000" rx="11" ry="11" style="stroke:#A80036;stroke-width:1.0;"/><path d="M625.4878,555.6069 L628.1191,555.6069 L631.5723,564.6133 L631.5723,555.6069 L633.7305,555.6069 L633.7305,568 L631.1157,568 L627.646,558.9937 L627.646,568 L625.4878,568 Z " fill="#000000"/><text fill="#000000" font-family="sans-serif" font-size="12" lengthAdjust="spacing" textLength="123" x="643.5" y="566.5352">ExposableRedundant</text><line style="stroke:#A80036;stroke-width:1.5;" x1="615.5" x2="768.5" y1="578" y2="578"/><ellipse cx="625.5" cy="605.9551" rx="3" ry="3" style="stroke:#038048;stroke-width:1.0;fill:none;"/><text fill="#000000" font-family="sans-serif" font-size="11" lengthAdjust="spacing" textLength="62" x="634.5" y="609.5898">connectible</text><text fill="#000000" font-family="sans-serif" font-size="11" lengthAdjust="spacing" textLength="113" x="634.5" y="622.5449">type : Exposable[1..*]</text><line style="stroke:#A80036;stroke-width:1.0;stroke-dasharray:1.0,2.0;" x1="615.5" x2="662" y1="592.4775" y2="592.4775"/><text fill="#000000" font-family="sans-serif" font-size="11" lengthAdjust="spacing" textLength="60" x="662" y="596.1348">capabilities</text><line style="stroke:#A80036;stroke-width:1.0;stroke-dasharray:1.0,2.0;" x1="722" x2="768.5" y1="592.4775" y2="592.4775"/><!--MD5=[ff7a463cdd9527fc7172d908ced33623]
class Exposable_CT--><rect codeLine="34" fill="#DDDDDD" filter="url(#fkje4lg7o3pfk)" height="48" id="Exposable_CT" style="stroke:#A80036;stroke-width:1.5;" width="92" x="413" y="563.5"/><ellipse cx="428" cy="579.5" fill="#008000" rx="11" ry="11" style="stroke:#A80036;stroke-width:1.0;"/><path d="M430.9731,585.1431 Q430.3921,585.4419 429.7529,585.5913 Q429.1138,585.7407 428.4082,585.7407 Q425.9014,585.7407 424.5815,584.0889 Q423.2617,582.437 423.2617,579.3159 Q423.2617,576.1865 424.5815,574.5347 Q425.9014,572.8828 428.4082,572.8828 Q429.1138,572.8828 429.7612,573.0322 Q430.4087,573.1816 430.9731,573.4805 L430.9731,576.2031 Q430.3423,575.6221 429.7488,575.3523 Q429.1553,575.0825 428.5244,575.0825 Q427.1797,575.0825 426.4949,576.1492 Q425.8101,577.2158 425.8101,579.3159 Q425.8101,581.4077 426.4949,582.4744 Q427.1797,583.541 428.5244,583.541 Q429.1553,583.541 429.7488,583.2712 Q430.3423,583.0015 430.9731,582.4204 Z " fill="#000000"/><text fill="#000000" font-family="sans-serif" font-size="12" lengthAdjust="spacing" textLength="60" x="442" y="584.0352">Exposable</text><line style="stroke:#A80036;stroke-width:1.5;" x1="414" x2="504" y1="595.5" y2="595.5"/><line style="stroke:#A80036;stroke-width:1.5;" x1="414" x2="504" y1="603.5" y2="603.5"/><!--MD5=[1328f29c1a407e848951744ad83dc279]
class Process_NT--><rect codeLine="36" fill="#FEFECE" filter="url(#fkje4lg7o3pfk)" height="82.8652" id="Process_NT" style="stroke:#A80036;stroke-width:1.5;" width="126" x="418" y="703"/><ellipse cx="455.5" cy="719" fill="#008000" rx="11" ry="11" style="stroke:#A80036;stroke-width:1.0;"/><path d="M451.4878,712.6069 L454.1191,712.6069 L457.5723,721.6133 L457.5723,712.6069 L459.7305,712.6069 L459.7305,725 L457.1157,725 L453.646,715.9937 L453.646,725 L451.4878,725 Z " fill="#000000"/><text fill="#000000" font-family="sans-serif" font-size="12" lengthAdjust="spacing" textLength="44" x="474.5" y="723.5352">Process</text><line style="stroke:#A80036;stroke-width:1.5;" x1="419" x2="543" y1="735" y2="735"/><ellipse cx="429" cy="762.9551" rx="3" ry="3" style="stroke:#038048;stroke-width:1.0;fill:none;"/><text fill="#000000" font-family="sans-serif" font-size="11" lengthAdjust="spacing" textLength="48" x="438" y="766.5898">runnable</text><text fill="#000000" font-family="sans-serif" font-size="11" lengthAdjust="spacing" textLength="100" x="438" y="779.5449">type : Process[1..*]</text><line style="stroke:#A80036;stroke-width:1.0;stroke-dasharray:1.0,2.0;" x1="419" x2="451" y1="749.4775" y2="749.4775"/><text fill="#000000" font-family="sans-serif" font-size="11" lengthAdjust="spacing" textLength="60" x="451" y="753.1348">capabilities</text><line style="stroke:#A80036;stroke-width:1.0;stroke-dasharray:1.0,2.0;" x1="511" x2="543" y1="749.4775" y2="749.4775"/><!--MD5=[a6a18bf96af6a50f68a3f94aaf01dc1f]
class Process_CT--><rect codeLine="42" fill="#DDDDDD" filter="url(#fkje4lg7o3pfk)" height="48" id="Process_CT" style="stroke:#A80036;stroke-width:1.5;" width="76" x="250" y="720.5"/><ellipse cx="265" cy="736.5" fill="#008000" rx="11" ry="11" style="stroke:#A80036;stroke-width:1.0;"/><path d="M267.9731,742.1431 Q267.3921,742.4419 266.7529,742.5913 Q266.1138,742.7407 265.4082,742.7407 Q262.9014,742.7407 261.5815,741.0889 Q260.2617,739.437 260.2617,736.3159 Q260.2617,733.1865 261.5815,731.5347 Q262.9014,729.8828 265.4082,729.8828 Q266.1138,729.8828 266.7612,730.0322 Q267.4087,730.1816 267.9731,730.4805 L267.9731,733.2031 Q267.3423,732.6221 266.7488,732.3523 Q266.1553,732.0825 265.5244,732.0825 Q264.1797,732.0825 263.4949,733.1492 Q262.8101,734.2158 262.8101,736.3159 Q262.8101,738.4077 263.4949,739.4744 Q264.1797,740.541 265.5244,740.541 Q266.1553,740.541 266.7488,740.2712 Q267.3423,740.0015 267.9731,739.4204 Z " fill="#000000"/><text fill="#000000" font-family="sans-serif" font-size="12" lengthAdjust="spacing" textLength="44" x="279" y="741.0352">Process</text><line style="stroke:#A80036;stroke-width:1.5;" x1="251" x2="325" y1="752.5" y2="752.5"/><line style="stroke:#A80036;stroke-width:1.5;" x1="251" x2="325" y1="760.5" y2="760.5"/><!--MD5=[aa56b49e20e4385f8c156e86a9c16acb]
class Container_NT--><rect codeLine="44" fill="#FEFECE" filter="url(#fkje4lg7o3pfk)" height="82.8652" id="Container_NT" style="stroke:#A80036;stroke-width:1.5;" width="137" x="758.5" y="703"/><ellipse cx="796" cy="719" fill="#008000" rx="11" ry="11" style="stroke:#A80036;stroke-width:1.0;"/><path d="M791.9878,712.6069 L794.6191,712.6069 L798.0723,721.6133 L798.0723,712.6069 L800.2305,712.6069 L800.2305,725 L797.6157,725 L794.146,715.9937 L794.146,725 L791.9878,725 Z " fill="#000000"/><text fill="#000000" font-family="sans-serif" font-size="12" lengthAdjust="spacing" textLength="55" x="815" y="723.5352">Container</text><line style="stroke:#A80036;stroke-width:1.5;" x1="759.5" x2="894.5" y1="735" y2="735"/><ellipse cx="769.5" cy="762.9551" rx="3" ry="3" style="stroke:#038048;stroke-width:1.0;fill:none;"/><text fill="#000000" font-family="sans-serif" font-size="11" lengthAdjust="spacing" textLength="48" x="778.5" y="766.5898">runnable</text><text fill="#000000" font-family="sans-serif" font-size="11" lengthAdjust="spacing" textLength="111" x="778.5" y="779.5449">type : Container[1..*]</text><line style="stroke:#A80036;stroke-width:1.0;stroke-dasharray:1.0,2.0;" x1="759.5" x2="797" y1="749.4775" y2="749.4775"/><text fill="#000000" font-family="sans-serif" font-size="11" lengthAdjust="spacing" textLength="60" x="797" y="753.1348">capabilities</text><line style="stroke:#A80036;stroke-width:1.0;stroke-dasharray:1.0,2.0;" x1="857" x2="894.5" y1="749.4775" y2="749.4775"/><!--MD5=[380ab49f735fa8cf23e84c2cf2d2f925]
class Container_CT--><rect codeLine="50" fill="#DDDDDD" filter="url(#fkje4lg7o3pfk)" height="48" id="Container_CT" style="stroke:#A80036;stroke-width:1.5;" width="87" x="579.5" y="720.5"/><ellipse cx="594.5" cy="736.5" fill="#008000" rx="11" ry="11" style="stroke:#A80036;stroke-width:1.0;"/><path d="M597.4731,742.1431 Q596.8921,742.4419 596.2529,742.5913 Q595.6138,742.7407 594.9082,742.7407 Q592.4014,742.7407 591.0815,741.0889 Q589.7617,739.437 589.7617,736.3159 Q589.7617,733.1865 591.0815,731.5347 Q592.4014,729.8828 594.9082,729.8828 Q595.6138,729.8828 596.2612,730.0322 Q596.9087,730.1816 597.4731,730.4805 L597.4731,733.2031 Q596.8423,732.6221 596.2488,732.3523 Q595.6553,732.0825 595.0244,732.0825 Q593.6797,732.0825 592.9949,733.1492 Q592.3101,734.2158 592.3101,736.3159 Q592.3101,738.4077 592.9949,739.4744 Q593.6797,740.541 595.0244,740.541 Q595.6553,740.541 596.2488,740.2712 Q596.8423,740.0015 597.4731,739.4204 Z " fill="#000000"/><text fill="#000000" font-family="sans-serif" font-size="12" lengthAdjust="spacing" textLength="55" x="608.5" y="741.0352">Container</text><line style="stroke:#A80036;stroke-width:1.5;" x1="580.5" x2="665.5" y1="752.5" y2="752.5"/><line style="stroke:#A80036;stroke-width:1.5;" x1="580.5" x2="665.5" y1="760.5" y2="760.5"/><!--MD5=[2346bfd831f0eb2c004b682e65ab0a82]
class PristineContainer_NT--><rect codeLine="52" fill="#FEFECE" filter="url(#fkje4lg7o3pfk)" height="82.8652" id="PristineContainer_NT" style="stroke:#A80036;stroke-width:1.5;" width="177" x="308.5" y="853.5"/><ellipse cx="345.1" cy="869.5" fill="#008000" rx="11" ry="11" style="stroke:#A80036;stroke-width:1.0;"/><path d="M341.0878,863.1069 L343.7191,863.1069 L347.1723,872.1133 L347.1723,863.1069 L349.3305,863.1069 L349.3305,875.5 L346.7157,875.5 L343.246,866.4937 L343.246,875.5 L341.0878,875.5 Z " fill="#000000"/><text fill="#000000" font-family="sans-serif" font-size="12" lengthAdjust="spacing" textLength="97" x="363.9" y="874.0352">PristineContainer</text><line style="stroke:#A80036;stroke-width:1.5;" x1="309.5" x2="484.5" y1="885.5" y2="885.5"/><ellipse cx="319.5" cy="913.4551" rx="3" ry="3" style="stroke:#038048;stroke-width:1.0;fill:none;"/><text fill="#000000" font-family="sans-serif" font-size="11" lengthAdjust="spacing" textLength="48" x="328.5" y="917.0898">runnable</text><text fill="#000000" font-family="sans-serif" font-size="11" lengthAdjust="spacing" textLength="151" x="328.5" y="930.0449">type : PristineContainer[1..*]</text><line style="stroke:#A80036;stroke-width:1.0;stroke-dasharray:1.0,2.0;" x1="309.5" x2="367" y1="899.9775" y2="899.9775"/><text fill="#000000" font-family="sans-serif" font-size="11" lengthAdjust="spacing" textLength="60" x="367" y="903.6348">capabilities</text><line style="stroke:#A80036;stroke-width:1.0;stroke-dasharray:1.0,2.0;" x1="427" x2="484.5" y1="899.9775" y2="899.9775"/><!--MD5=[ee45b0e6d113af41c81e2e169bb1069a]
class PristineContainer_CT--><rect codeLine="58" fill="#DDDDDD" filter="url(#fkje4lg7o3pfk)" height="48" id="PristineContainer_CT" style="stroke:#A80036;stroke-width:1.5;" width="129" x="87.5" y="871"/><ellipse cx="102.5" cy="887" fill="#008000" rx="11" ry="11" style="stroke:#A80036;stroke-width:1.0;"/><path d="M105.4731,892.6431 Q104.8921,892.9419 104.2529,893.0913 Q103.6138,893.2407 102.9082,893.2407 Q100.4014,893.2407 99.0815,891.5889 Q97.7617,889.937 97.7617,886.8159 Q97.7617,883.6865 99.0815,882.0347 Q100.4014,880.3828 102.9082,880.3828 Q103.6138,880.3828 104.2612,880.5322 Q104.9087,880.6816 105.4731,880.9805 L105.4731,883.7031 Q104.8423,883.1221 104.2488,882.8523 Q103.6553,882.5825 103.0244,882.5825 Q101.6797,882.5825 100.9949,883.6492 Q100.3101,884.7158 100.3101,886.8159 Q100.3101,888.9077 100.9949,889.9744 Q101.6797,891.041 103.0244,891.041 Q103.6553,891.041 104.2488,890.7712 Q104.8423,890.5015 105.4731,889.9204 Z " fill="#000000"/><text fill="#000000" font-family="sans-serif" font-size="12" lengthAdjust="spacing" textLength="97" x="116.5" y="891.5352">PristineContainer</text><line style="stroke:#A80036;stroke-width:1.5;" x1="88.5" x2="215.5" y1="903" y2="903"/><line style="stroke:#A80036;stroke-width:1.5;" x1="88.5" x2="215.5" y1="911" y2="911"/><!--MD5=[0ea3d58bb189e686067d9f0252784e5b]
class SystemContainer_NT--><rect codeLine="60" fill="#FEFECE" filter="url(#fkje4lg7o3pfk)" height="82.8652" id="SystemContainer_NT" style="stroke:#A80036;stroke-width:1.5;" width="175" x="739.5" y="853.5"/><ellipse cx="776.1" cy="869.5" fill="#008000" rx="11" ry="11" style="stroke:#A80036;stroke-width:1.0;"/><path d="M772.0878,863.1069 L774.7191,863.1069 L778.1723,872.1133 L778.1723,863.1069 L780.3305,863.1069 L780.3305,875.5 L777.7157,875.5 L774.246,866.4937 L774.246,875.5 L772.0878,875.5 Z " fill="#000000"/><text fill="#000000" font-family="sans-serif" font-size="12" lengthAdjust="spacing" textLength="95" x="794.9" y="874.0352">SystemContainer</text><line style="stroke:#A80036;stroke-width:1.5;" x1="740.5" x2="913.5" y1="885.5" y2="885.5"/><ellipse cx="750.5" cy="913.4551" rx="3" ry="3" style="stroke:#038048;stroke-width:1.0;fill:none;"/><text fill="#000000" font-family="sans-serif" font-size="11" lengthAdjust="spacing" textLength="48" x="759.5" y="917.0898">runnable</text><text fill="#000000" font-family="sans-serif" font-size="11" lengthAdjust="spacing" textLength="149" x="759.5" y="930.0449">type : SystemContainer[1..*]</text><line style="stroke:#A80036;stroke-width:1.0;stroke-dasharray:1.0,2.0;" x1="740.5" x2="797" y1="899.9775" y2="899.9775"/><text fill="#000000" font-family="sans-serif" font-size="11" lengthAdjust="spacing" textLength="60" x="797" y="903.6348">capabilities</text><line style="stroke:#A80036;stroke-width:1.0;stroke-dasharray:1.0,2.0;" x1="857" x2="913.5" y1="899.9775" y2="899.9775"/><!--MD5=[901e1529c6936e43c4dfe6e9bf9ec8fb]
class SystemContainer_CT--><rect codeLine="66" fill="#DDDDDD" filter="url(#fkje4lg7o3pfk)" height="48" id="SystemContainer_CT" style="stroke:#A80036;stroke-width:1.5;" width="127" x="520.5" y="871"/><ellipse cx="535.5" cy="887" fill="#008000" rx="11" ry="11" style="stroke:#A80036;stroke-width:1.0;"/><path d="M538.4731,892.6431 Q537.8921,892.9419 537.2529,893.0913 Q536.6138,893.2407 535.9082,893.2407 Q533.4014,893.2407 532.0815,891.5889 Q530.7617,889.937 530.7617,886.8159 Q530.7617,883.6865 532.0815,882.0347 Q533.4014,880.3828 535.9082,880.3828 Q536.6138,880.3828 537.2612,880.5322 Q537.9087,880.6816 538.4731,880.9805 L538.4731,883.7031 Q537.8423,883.1221 537.2488,882.8523 Q536.6553,882.5825 536.0244,882.5825 Q534.6797,882.5825 533.9949,883.6492 Q533.3101,884.7158 533.3101,886.8159 Q533.3101,888.9077 533.9949,889.9744 Q534.6797,891.041 536.0244,891.041 Q536.6553,891.041 537.2488,890.7712 Q537.8423,890.5015 538.4731,889.9204 Z " fill="#000000"/><text fill="#000000" font-family="sans-serif" font-size="12" lengthAdjust="spacing" textLength="95" x="549.5" y="891.5352">SystemContainer</text><line style="stroke:#A80036;stroke-width:1.5;" x1="521.5" x2="646.5" y1="903" y2="903"/><line style="stroke:#A80036;stroke-width:1.5;" x1="521.5" x2="646.5" y1="911" y2="911"/><!--MD5=[2c096e6c65d2d4dcfcde423c68dd73da]
class LoadBalancer_NT--><rect codeLine="68" fill="#FEFECE" filter="url(#fkje4lg7o3pfk)" height="95.8203" id="LoadBalancer_NT" style="stroke:#A80036;stroke-width:1.5;" width="280" x="950" y="847"/><ellipse cx="1047.25" cy="863" fill="#008000" rx="11" ry="11" style="stroke:#A80036;stroke-width:1.0;"/><path d="M1043.2378,856.6069 L1045.8691,856.6069 L1049.3223,865.6133 L1049.3223,856.6069 L1051.4805,856.6069 L1051.4805,869 L1048.8657,869 L1045.396,859.9937 L1045.396,869 L1043.2378,869 Z " fill="#000000"/><text fill="#000000" font-family="sans-serif" font-size="12" lengthAdjust="spacing" textLength="77" x="1067.75" y="867.5352">LoadBalancer</text><line style="stroke:#A80036;stroke-width:1.5;" x1="951" x2="1229" y1="879" y2="879"/><ellipse cx="961" cy="906.9551" rx="3" ry="3" style="stroke:#038048;stroke-width:1.0;fill:none;"/><text fill="#000000" font-family="sans-serif" font-size="11" lengthAdjust="spacing" textLength="48" x="970" y="910.5898">runnable</text><text fill="#000000" font-family="sans-serif" font-size="11" lengthAdjust="spacing" textLength="62" x="970" y="923.5449">properties :</text><text fill="#FFFFCC" font-family="sans-serif" font-size="11" lengthAdjust="spacing" textLength="0" x="976" y="936.5"/><text fill="#000000" font-family="sans-serif" font-size="11" lengthAdjust="spacing" textLength="248" x="976" y="936.5">image = {'reference': 'docker.io/nginx:1.21.6'}</text><line style="stroke:#A80036;stroke-width:1.0;stroke-dasharray:1.0,2.0;" x1="951" x2="1060" y1="893.4775" y2="893.4775"/><text fill="#000000" font-family="sans-serif" font-size="11" lengthAdjust="spacing" textLength="60" x="1060" y="897.1348">capabilities</text><line style="stroke:#A80036;stroke-width:1.0;stroke-dasharray:1.0,2.0;" x1="1120" x2="1229" y1="893.4775" y2="893.4775"/><!--MD5=[7a85e26a50bedc30b3089c6cad8e7f39]
class VirtualMachine_NT--><rect codeLine="75" fill="#FEFECE" filter="url(#fkje4lg7o3pfk)" height="108.7754" id="VirtualMachine_NT" style="stroke:#A80036;stroke-width:1.5;" width="163" x="214.5" y="533"/><ellipse cx="250.65" cy="549" fill="#008000" rx="11" ry="11" style="stroke:#A80036;stroke-width:1.0;"/><path d="M246.6378,542.6069 L249.2691,542.6069 L252.7223,551.6133 L252.7223,542.6069 L254.8805,542.6069 L254.8805,555 L252.2657,555 L248.796,545.9937 L248.796,555 L246.6378,555 Z " fill="#000000"/><text fill="#000000" font-family="sans-serif" font-size="12" lengthAdjust="spacing" textLength="84" x="269.35" y="553.5352">VirtualMachine</text><line style="stroke:#A80036;stroke-width:1.5;" x1="215.5" x2="376.5" y1="565" y2="565"/><ellipse cx="225.5" cy="592.9551" rx="3" ry="3" style="stroke:#038048;stroke-width:1.0;fill:none;"/><text fill="#000000" font-family="sans-serif" font-size="11" lengthAdjust="spacing" textLength="48" x="234.5" y="596.5898">runnable</text><text fill="#000000" font-family="sans-serif" font-size="11" lengthAdjust="spacing" textLength="137" x="234.5" y="609.5449">type : VirtualMachine[1..*]</text><ellipse cx="225.5" cy="618.8652" rx="3" ry="3" style="stroke:#038048;stroke-width:1.0;fill:none;"/><text fill="#000000" font-family="sans-serif" font-size="11" lengthAdjust="spacing" textLength="62" x="234.5" y="622.5">connectible</text><text fill="#000000" font-family="sans-serif" font-size="11" lengthAdjust="spacing" textLength="122" x="234.5" y="635.4551">type : Connectible[1..*]</text><line style="stroke:#A80036;stroke-width:1.0;stroke-dasharray:1.0,2.0;" x1="215.5" x2="266" y1="579.4775" y2="579.4775"/><text fill="#000000" font-family="sans-serif" font-size="11" lengthAdjust="spacing" textLength="60" x="266" y="583.1348">capabilities</text><line style="stroke:#A80036;stroke-width:1.0;stroke-dasharray:1.0,2.0;" x1="326" x2="376.5" y1="579.4775" y2="579.4775"/><!--MD5=[df33a53dd4ec8618ff94105a8a4033fa]
class VirtualMachine_CT--><rect codeLine="83" fill="#DDDDDD" filter="url(#fkje4lg7o3pfk)" height="48" id="VirtualMachine_CT" style="stroke:#A80036;stroke-width:1.5;" width="116" x="7" y="563.5"/><ellipse cx="22" cy="579.5" fill="#008000" rx="11" ry="11" style="stroke:#A80036;stroke-width:1.0;"/><path d="M24.9731,585.1431 Q24.3921,585.4419 23.7529,585.5913 Q23.1138,585.7407 22.4082,585.7407 Q19.9014,585.7407 18.5815,584.0889 Q17.2617,582.437 17.2617,579.3159 Q17.2617,576.1865 18.5815,574.5347 Q19.9014,572.8828 22.4082,572.8828 Q23.1138,572.8828 23.7612,573.0322 Q24.4087,573.1816 24.9731,573.4805 L24.9731,576.2031 Q24.3423,575.6221 23.7488,575.3523 Q23.1553,575.0825 22.5244,575.0825 Q21.1797,575.0825 20.4949,576.1492 Q19.8101,577.2158 19.8101,579.3159 Q19.8101,581.4077 20.4949,582.4744 Q21.1797,583.541 22.5244,583.541 Q23.1553,583.541 23.7488,583.2712 Q24.3423,583.0015 24.9731,582.4204 Z " fill="#000000"/><text fill="#000000" font-family="sans-serif" font-size="12" lengthAdjust="spacing" textLength="84" x="36" y="584.0352">VirtualMachine</text><line style="stroke:#A80036;stroke-width:1.5;" x1="8" x2="122" y1="595.5" y2="595.5"/><line style="stroke:#A80036;stroke-width:1.5;" x1="8" x2="122" y1="603.5" y2="603.5"/><!--MD5=[cf55f1561b566a18233f41a201df6abd]
class LocalDirectory_NT--><rect codeLine="87" fill="#FEFECE" filter="url(#fkje4lg7o3pfk)" height="82.8652" id="LocalDirectory_NT" style="stroke:#A80036;stroke-width:1.5;" width="162" x="1235" y="301"/><ellipse cx="1272.05" cy="317" fill="#008000" rx="11" ry="11" style="stroke:#A80036;stroke-width:1.0;"/><path d="M1268.0378,310.6069 L1270.6691,310.6069 L1274.1223,319.6133 L1274.1223,310.6069 L1276.2805,310.6069 L1276.2805,323 L1273.6657,323 L1270.196,313.9937 L1270.196,323 L1268.0378,323 Z " fill="#000000"/><text fill="#000000" font-family="sans-serif" font-size="12" lengthAdjust="spacing" textLength="81" x="1290.95" y="321.5352">LocalDirectory</text><line style="stroke:#A80036;stroke-width:1.5;" x1="1236" x2="1396" y1="333" y2="333"/><ellipse cx="1246" cy="360.9551" rx="3" ry="3" style="stroke:#038048;stroke-width:1.0;fill:none;"/><text fill="#000000" font-family="sans-serif" font-size="11" lengthAdjust="spacing" textLength="41" x="1255" y="364.5898">storage</text><text fill="#000000" font-family="sans-serif" font-size="11" lengthAdjust="spacing" textLength="136" x="1255" y="377.5449">type : LocalDirectory[1..*]</text><line style="stroke:#A80036;stroke-width:1.0;stroke-dasharray:1.0,2.0;" x1="1236" x2="1286" y1="347.4775" y2="347.4775"/><text fill="#000000" font-family="sans-serif" font-size="11" lengthAdjust="spacing" textLength="60" x="1286" y="351.1348">capabilities</text><line style="stroke:#A80036;stroke-width:1.0;stroke-dasharray:1.0,2.0;" x1="1346" x2="1396" y1="347.4775" y2="347.4775"/><!--MD5=[37cfa7e35971ef6ba6b5b1be3043be37]
class LocalDirectory_CT--><rect codeLine="93" fill="#DDDDDD" filter="url(#fkje4lg7o3pfk)" height="48" id="LocalDirectory_CT" style="stroke:#A80036;stroke-width:1.5;" width="113" x="1038.5" y="318.5"/><ellipse cx="1053.5" cy="334.5" fill="#008000" rx="11" ry="11" style="stroke:#A80036;stroke-width:1.0;"/><path d="M1056.4731,340.1431 Q1055.8921,340.4419 1055.2529,340.5913 Q1054.6138,340.7407 1053.9082,340.7407 Q1051.4014,340.7407 1050.0815,339.0889 Q1048.7617,337.437 1048.7617,334.3159 Q1048.7617,331.1865 1050.0815,329.5347 Q1051.4014,327.8828 1053.9082,327.8828 Q1054.6138,327.8828 1055.2612,328.0322 Q1055.9087,328.1816 1056.4731,328.4805 L1056.4731,331.2031 Q1055.8423,330.6221 1055.2488,330.3523 Q1054.6553,330.0825 1054.0244,330.0825 Q1052.6797,330.0825 1051.9949,331.1492 Q1051.3101,332.2158 1051.3101,334.3159 Q1051.3101,336.4077 1051.9949,337.4744 Q1052.6797,338.541 1054.0244,338.541 Q1054.6553,338.541 1055.2488,338.2712 Q1055.8423,338.0015 1056.4731,337.4204 Z " fill="#000000"/><text fill="#000000" font-family="sans-serif" font-size="12" lengthAdjust="spacing" textLength="81" x="1067.5" y="339.0352">LocalDirectory</text><line style="stroke:#A80036;stroke-width:1.5;" x1="1039.5" x2="1150.5" y1="350.5" y2="350.5"/><line style="stroke:#A80036;stroke-width:1.5;" x1="1039.5" x2="1150.5" y1="358.5" y2="358.5"/><!--MD5=[c87fdd44b15b5dfe8a6734d6a93bced8]
reverse link Events_IT to Root_NT--><path codeLine="7" d="M1003,75.0928 C1003,93.5416 1003,114.639 1003,131.8108 " fill="none" id="Events_IT-backto-Root_NT" style="stroke:#A80036;stroke-width:1.0;stroke-dasharray:7.0,7.0;"/><polygon fill="none" points="996.0001,75.0459,1003,55.0459,1010.0001,75.0459,996.0001,75.0459" style="stroke:#A80036;stroke-width:1.0;"/><text fill="#000000" font-family="sans-serif" font-size="13" lengthAdjust="spacing" textLength="41" x="1004" y="98.5684">events</text><!--MD5=[ede642749ceba4e9444351d93c6dda33]
reverse link Root_NT to Redundant_NT--><path codeLine="19" d="M938.806,202.0348 C892.9575,228.1287 830.7101,263.5557 780.2006,292.3022 " fill="none" id="Root_NT-backto-Redundant_NT" style="stroke:#A80036;stroke-width:1.0;"/><polygon fill="none" points="935.5957,195.8077,956.4402,191.9987,942.5206,207.9751,935.5957,195.8077" style="stroke:#A80036;stroke-width:1.0;"/><!--MD5=[0540406034aa3a64e4f1ce89c338d83f]
reverse link Redundant_NT to Connectible_CT--><path codeLine="21" d="M591.4626,384.7257 C533.542,409.0524 463.2688,438.5671 416.9587,458.0173 " fill="none" id="Redundant_NT-backto-Connectible_CT" style="stroke:#A80036;stroke-width:1.0;"/><polygon fill="#A80036" points="603.6216,379.6189,596.5408,378.2544,592.5579,384.2658,599.6387,385.6303,603.6216,379.6189" style="stroke:#A80036;stroke-width:1.0;"/><text fill="#000000" font-family="sans-serif" font-size="13" lengthAdjust="spacing" textLength="135" x="374.3042" y="415.3806">connection.capability</text><text fill="#000000" font-family="sans-serif" font-size="13" lengthAdjust="spacing" textLength="22" x="424.388" y="452.1333">0..*</text><!--MD5=[315c133a2ad9d9939aa655b5d2b20120]
link Redundant_NT to Connection_RT--><path codeLine="23" d="M745.9456,425.1043 C776.2472,471.5035 812.147,526.475 833.4457,559.0888 " fill="none" id="Redundant_NT-to-Connection_RT" style="stroke:#A80036;stroke-width:1.0;stroke-dasharray:7.0,7.0;"/><polygon fill="#A80036" points="836.2244,563.3437,834.6524,553.6211,833.4905,559.1574,827.9542,557.9954,836.2244,563.3437" style="stroke:#A80036;stroke-width:1.0;"/><text fill="#000000" font-family="sans-serif" font-size="13" lengthAdjust="spacing" textLength="149" x="797" y="484.0684">connection.relationship</text><!--MD5=[1f66d643db461fba29a55da203b0e06c]
reverse link Redundant_NT to Storage_CT--><path codeLine="25" d="M793.3113,342.5 C840.4255,342.5 893.5928,342.5 928.3327,342.5 " fill="none" id="Redundant_NT-backto-Storage_CT" style="stroke:#A80036;stroke-width:1.0;"/><polygon fill="#A80036" points="780.2035,342.5,786.2035,346.5,792.2035,342.5,786.2035,338.5,780.2035,342.5" style="stroke:#A80036;stroke-width:1.0;"/><text fill="#000000" font-family="sans-serif" font-size="13" lengthAdjust="spacing" textLength="112" x="798.25" y="336.0684">storage.capability</text><text fill="#000000" font-family="sans-serif" font-size="13" lengthAdjust="spacing" textLength="22" x="898.5763" y="356.2884">0..*</text><!--MD5=[8cc79c5f4a182ad9a166f54ecc20df0a]
link Redundant_NT to Storage_RT--><path codeLine="27" d="M780.2753,371.9497 C846.355,395.484 929.5394,428.7581 955,455 C982.816,483.6695 996.237,528.9627 1002.3514,558.4549 " fill="none" id="Redundant_NT-to-Storage_RT" style="stroke:#A80036;stroke-width:1.0;stroke-dasharray:7.0,7.0;"/><polygon fill="#A80036" points="1003.3406,563.4085,1005.5007,553.7994,1002.3614,558.5053,997.6556,555.3661,1003.3406,563.4085" style="stroke:#A80036;stroke-width:1.0;"/><text fill="#000000" font-family="sans-serif" font-size="13" lengthAdjust="spacing" textLength="126" x="986" y="484.0684">storage.relationship</text><!--MD5=[97edd4324ea87d2ca14e8a25acf8e029]
reverse link Redundant_NT to ExposableRedundant_NT--><path codeLine="33" d="M692,445.5072 C692,480.7484 692,518.1985 692,545.7851 " fill="none" id="Redundant_NT-backto-ExposableRedundant_NT" style="stroke:#A80036;stroke-width:1.0;"/><polygon fill="none" points="685.0001,445.1043,692,425.1043,699.0001,445.1042,685.0001,445.1043" style="stroke:#A80036;stroke-width:1.0;"/><!--MD5=[b03f7d1351c75010e885a822c8588ae7]
link Exposable_CT to ExposableRedundant_NT--><path codeLine="35" d="M505.0333,587.5 C532.4258,587.5 568.1438,587.5 601.0125,587.5 " fill="none" id="Exposable_CT-to-ExposableRedundant_NT" style="stroke:#A80036;stroke-width:1.0;"/><polygon fill="#A80036" points="614.4068,587.5,608.4068,583.5,602.4068,587.5,608.4068,591.5,614.4068,587.5" style="stroke:#A80036;stroke-width:1.0;"/><text fill="#000000" font-family="sans-serif" font-size="13" lengthAdjust="spacing" textLength="73" x="523.25" y="581.0684">connectible</text><text fill="#000000" font-family="sans-serif" font-size="13" lengthAdjust="spacing" textLength="22" x="513.0536" y="601.1449">1..*</text><!--MD5=[4c02464b2b207fc56c733999f30accc9]
reverse link ExposableRedundant_NT to Process_NT--><path codeLine="41" d="M619.6433,641.3389 C592.5672,661.4856 562.2492,684.0444 536.8854,702.917 " fill="none" id="ExposableRedundant_NT-backto-Process_NT" style="stroke:#A80036;stroke-width:1.0;"/><polygon fill="none" points="615.7856,635.4841,636.0098,629.1609,624.143,646.716,615.7856,635.4841" style="stroke:#A80036;stroke-width:1.0;"/><!--MD5=[bd6e9cc25fd7a588599037c9d4c6c15d]
link Process_CT to Process_NT--><path codeLine="43" d="M326.1306,744.5 C348.5995,744.5 377.831,744.5 404.8365,744.5 " fill="none" id="Process_CT-to-Process_NT" style="stroke:#A80036;stroke-width:1.0;"/><polygon fill="#A80036" points="417.8755,744.5,411.8755,740.5,405.8755,744.5,411.8755,748.5,417.8755,744.5" style="stroke:#A80036;stroke-width:1.0;"/><text fill="#000000" font-family="sans-serif" font-size="13" lengthAdjust="spacing" textLength="55" x="344.5" y="738.0684">runnable</text><text fill="#000000" font-family="sans-serif" font-size="13" lengthAdjust="spacing" textLength="22" x="333.9608" y="758.2884">1..*</text><!--MD5=[0c49a065c4ddec15905e37d7e829a405]
reverse link ExposableRedundant_NT to Container_NT--><path codeLine="49" d="M741.0072,644.4935 C757.6226,663.8167 775.8579,685.0237 791.2439,702.917 " fill="none" id="ExposableRedundant_NT-backto-Container_NT" style="stroke:#A80036;stroke-width:1.0;"/><polygon fill="none" points="735.5552,648.8895,727.8231,629.1609,746.1704,639.7617,735.5552,648.8895" style="stroke:#A80036;stroke-width:1.0;"/><!--MD5=[7944d43090582a4198a7821332ba2ac8]
link Container_CT to Container_NT--><path codeLine="51" d="M666.5129,744.5 C689.4409,744.5 718.3239,744.5 745.2462,744.5 " fill="none" id="Container_CT-to-Container_NT" style="stroke:#A80036;stroke-width:1.0;"/><polygon fill="#A80036" points="758.2704,744.5,752.2704,740.5,746.2704,744.5,752.2704,748.5,758.2704,744.5" style="stroke:#A80036;stroke-width:1.0;"/><text fill="#000000" font-family="sans-serif" font-size="13" lengthAdjust="spacing" textLength="55" x="685" y="738.0684">runnable</text><text fill="#000000" font-family="sans-serif" font-size="13" lengthAdjust="spacing" textLength="22" x="674.5195" y="758.1927">1..*</text><!--MD5=[f9d3449e85776298400dec107ede55a6]
reverse link Container_NT to PristineContainer_NT--><path codeLine="57" d="M739.0466,771.0371 C658.8058,795.4819 546.3444,830.3974 503,847 C497.3405,849.1678 491.5517,851.4867 485.7417,853.8916 " fill="none" id="Container_NT-backto-PristineContainer_NT" style="stroke:#A80036;stroke-width:1.0;"/><polygon fill="none" points="737.2644,764.2626,758.4358,765.1428,741.3365,777.6574,737.2644,764.2626" style="stroke:#A80036;stroke-width:1.0;"/><!--MD5=[6cbcc9751cf55dc8e13005ad7846c236]
link PristineContainer_CT to PristineContainer_NT--><path codeLine="59" d="M216.6913,895 C240.7048,895 268.5637,895 295.0956,895 " fill="none" id="PristineContainer_CT-to-PristineContainer_NT" style="stroke:#A80036;stroke-width:1.0;"/><polygon fill="#A80036" points="308.4046,895,302.4046,891,296.4046,895,302.4046,899,308.4046,895" style="stroke:#A80036;stroke-width:1.0;"/><text fill="#000000" font-family="sans-serif" font-size="13" lengthAdjust="spacing" textLength="55" x="235" y="888.5684">runnable</text><text fill="#000000" font-family="sans-serif" font-size="13" lengthAdjust="spacing" textLength="22" x="224.497" y="908.3578">1..*</text><!--MD5=[a64207ad185b93f435a2540156ed5431]
reverse link Container_NT to SystemContainer_NT--><path codeLine="65" d="M827,806.1678 C827,822.0464 827,838.7595 827,853.3513 " fill="none" id="Container_NT-backto-SystemContainer_NT" style="stroke:#A80036;stroke-width:1.0;"/><polygon fill="none" points="820.0001,806.0232,827,786.0232,834.0001,806.0231,820.0001,806.0232" style="stroke:#A80036;stroke-width:1.0;"/><!--MD5=[b852bf5b005c0ef4ce0f0812c4c34ca6]
link SystemContainer_CT to SystemContainer_NT--><path codeLine="67" d="M647.528,895 C671.4673,895 699.3285,895 725.857,895 " fill="none" id="SystemContainer_CT-to-SystemContainer_NT" style="stroke:#A80036;stroke-width:1.0;"/><polygon fill="#A80036" points="739.1634,895,733.1634,891,727.1634,895,733.1634,899,739.1634,895" style="stroke:#A80036;stroke-width:1.0;"/><text fill="#000000" font-family="sans-serif" font-size="13" lengthAdjust="spacing" textLength="55" x="666" y="888.5684">runnable</text><text fill="#000000" font-family="sans-serif" font-size="13" lengthAdjust="spacing" textLength="22" x="655.6795" y="908.4057">1..*</text><!--MD5=[c086c917fbce60fd8f945926ed967466]
reverse link Container_NT to LoadBalancer_NT--><path codeLine="74" d="M913.2522,793.8573 C942.9453,810.8489 976.1437,829.8465 1005.6808,846.7489 " fill="none" id="Container_NT-backto-LoadBalancer_NT" style="stroke:#A80036;stroke-width:1.0;"/><polygon fill="none" points="909.6387,799.8546,895.7566,783.8455,916.5921,787.7034,909.6387,799.8546" style="stroke:#A80036;stroke-width:1.0;"/><!--MD5=[a5995667b65e92e2e830de9a19359a4c]
reverse link Redundant_NT to VirtualMachine_NT--><path codeLine="82" d="M586.6279,408.285 C539.917,437.3868 484.2645,471.977 434,503 C415.8312,514.2137 396.2876,526.2166 377.7867,537.5519 " fill="none" id="Redundant_NT-backto-VirtualMachine_NT" style="stroke:#A80036;stroke-width:1.0;"/><polygon fill="none" points="583.058,402.2618,603.7339,397.6241,590.4629,414.1432,583.058,402.2618" style="stroke:#A80036;stroke-width:1.0;"/><!--MD5=[d9cba6919c56fdf8dd9782321bce34f5]
link VirtualMachine_CT to VirtualMachine_NT--><path codeLine="84" d="M123.2911,587.5 C146.8448,587.5 174.645,587.5 200.9782,587.5 " fill="none" id="VirtualMachine_CT-to-VirtualMachine_NT" style="stroke:#A80036;stroke-width:1.0;"/><polygon fill="#A80036" points="214.172,587.5,208.172,583.5,202.172,587.5,208.172,591.5,214.172,587.5" style="stroke:#A80036;stroke-width:1.0;"/><text fill="#000000" font-family="sans-serif" font-size="13" lengthAdjust="spacing" textLength="55" x="141.25" y="581.0684">runnable</text><text fill="#000000" font-family="sans-serif" font-size="13" lengthAdjust="spacing" textLength="22" x="130.8698" y="600.9057">1..*</text><!--MD5=[a474153a07fba13682854348a56e3620]
link Connectible_CT to VirtualMachine_NT--><path codeLine="86" d="M351.2428,503.0797 C347.5264,508.759 343.3867,515.0852 339.0914,521.649 " fill="none" id="Connectible_CT-to-VirtualMachine_NT" style="stroke:#A80036;stroke-width:1.0;"/><polygon fill="#A80036" points="331.7633,532.8477,338.3957,530.0173,338.334,522.8065,331.7016,525.6369,331.7633,532.8477" style="stroke:#A80036;stroke-width:1.0;"/><text fill="#000000" font-family="sans-serif" font-size="13" lengthAdjust="spacing" textLength="73" x="267.4893" y="514.553">connectible</text><text fill="#000000" font-family="sans-serif" font-size="13" lengthAdjust="spacing" textLength="22" x="351.2019" y="522.1989">1..*</text><!--MD5=[c64abdcc5b410c24c8bc35210d3345f0]
reverse link Root_NT to LocalDirectory_NT--><path codeLine="92" d="M1066.951,201.664 C1117.8662,230.4563 1189.1782,270.7829 1242.4524,300.9092 " fill="none" id="Root_NT-backto-LocalDirectory_NT" style="stroke:#A80036;stroke-width:1.0;"/><polygon fill="none" points="1063.4848,207.7456,1049.5213,191.8076,1070.3762,195.5592,1063.4848,207.7456" style="stroke:#A80036;stroke-width:1.0;"/><!--MD5=[4f92378bf7d92d5d3554cb51965992b6]
link LocalDirectory_CT to LocalDirectory_NT--><path codeLine="94" d="M1151.626,342.5 C1172.9915,342.5 1197.9146,342.5 1221.799,342.5 " fill="none" id="LocalDirectory_CT-to-LocalDirectory_NT" style="stroke:#A80036;stroke-width:1.0;"/><polygon fill="#A80036" points="1234.9321,342.5,1228.9321,338.5,1222.9321,342.5,1228.9321,346.5,1234.9321,342.5" style="stroke:#A80036;stroke-width:1.0;"/><text fill="#000000" font-family="sans-serif" font-size="13" lengthAdjust="spacing" textLength="47" x="1169.75" y="336.0684">storage</text><text fill="#000000" font-family="sans-serif" font-size="13" lengthAdjust="spacing" textLength="22" x="1159.4453" y="355.9535">1..*</text><!--MD5=[094b714edf36fee36d8546cc5ae571f7]
@startuml
set namespaceSeparator none
class "Root" as Root_NT << (N,green) >> {
- -
.. interface events ..
}
class "Events" as Events_IT << (I,green) >> #DDDDDD
Events_IT <|.. Root_NT : events
class "Redundant" as Redundant_NT << (N,green) >> {
.. properties ..
+<b>count : Count = 1
.. requirements ..
+connection
 capability : Connectible[0..*]
 relationship : Connection
+storage
 capability : Storage[0..*]
 relationship : Storage
}
Root_NT <|- - Redundant_NT
class "Connectible" as Connectible_CT << (C,green) >> #DDDDDD
Redundant_NT *- "0..*" Connectible_CT : connection.capability
class "Connection" as Connection_RT << (R,green) >> #DDDDDD
Redundant_NT ..> Connection_RT : connection.relationship
class "Storage" as Storage_CT << (C,green) >> #DDDDDD
Redundant_NT *- "0..*" Storage_CT : storage.capability
class "Storage" as Storage_RT << (R,green) >> #DDDDDD
Redundant_NT ..> Storage_RT : storage.relationship
class "ExposableRedundant" as ExposableRedundant_NT << (N,green) >> {
.. capabilities ..
+connectible
 type : Exposable[1..*]
}
Redundant_NT <|- - ExposableRedundant_NT
class "Exposable" as Exposable_CT << (C,green) >> #DDDDDD
Exposable_CT "1..*" -* ExposableRedundant_NT : connectible
class "Process" as Process_NT << (N,green) >> {
.. capabilities ..
+runnable
 type : Process[1..*]
}
ExposableRedundant_NT <|- - Process_NT
class "Process" as Process_CT << (C,green) >> #DDDDDD
Process_CT "1..*" -* Process_NT : runnable
class "Container" as Container_NT << (N,green) >> {
.. capabilities ..
+runnable
 type : Container[1..*]
}
ExposableRedundant_NT <|- - Container_NT
class "Container" as Container_CT << (C,green) >> #DDDDDD
Container_CT "1..*" -* Container_NT : runnable
class "PristineContainer" as PristineContainer_NT << (N,green) >> {
.. capabilities ..
+runnable
 type : PristineContainer[1..*]
}
Container_NT <|- - PristineContainer_NT
class "PristineContainer" as PristineContainer_CT << (C,green) >> #DDDDDD
PristineContainer_CT "1..*" -* PristineContainer_NT : runnable
class "SystemContainer" as SystemContainer_NT << (N,green) >> {
.. capabilities ..
+runnable
 type : SystemContainer[1..*]
}
Container_NT <|- - SystemContainer_NT
class "SystemContainer" as SystemContainer_CT << (C,green) >> #DDDDDD
SystemContainer_CT "1..*" -* SystemContainer_NT : runnable
class "LoadBalancer" as LoadBalancer_NT << (N,green) >> {
.. capabilities ..
+runnable
 properties :
<color:business>  </color>image = {'reference': 'docker.io/nginx:1.21.6'}
}
Container_NT <|- - LoadBalancer_NT
class "VirtualMachine" as VirtualMachine_NT << (N,green) >> {
.. capabilities ..
+runnable
 type : VirtualMachine[1..*]
+connectible
 type : Connectible[1..*]
}
Redundant_NT <|- - VirtualMachine_NT
class "VirtualMachine" as VirtualMachine_CT << (C,green) >> #DDDDDD
VirtualMachine_CT "1..*" -* VirtualMachine_NT : runnable
class "Connectible" as Connectible_CT << (C,green) >> #DDDDDD
Connectible_CT "1..*" -* VirtualMachine_NT : connectible
class "LocalDirectory" as LocalDirectory_NT << (N,green) >> {
.. capabilities ..
+storage
 type : LocalDirectory[1..*]
}
Root_NT <|- - LocalDirectory_NT
class "LocalDirectory" as LocalDirectory_CT << (C,green) >> #DDDDDD
LocalDirectory_CT "1..*" -* LocalDirectory_NT : storage
@enduml

PlantUML version 1.2021.13(Mon Nov 01 12:38:45 CET 2021)
(GPL source distribution)
Java Runtime: Java(TM) SE Runtime Environment
JVM: Java HotSpot(TM) 64-Bit Server VM
Default Encoding: UTF-8
Language: fr
Country: FR
--></g></svg>