<?xml version="1.0" encoding="UTF-8" standalone="no"?><svg xmlns="http://www.w3.org/2000/svg" xmlns:xlink="http://www.w3.org/1999/xlink" contentScriptType="application/ecmascript" contentStyleType="text/css" height="399px" preserveAspectRatio="none" style="width:460px;height:399px;background:#FFFFFF;" version="1.1" viewBox="0 0 460 399" width="460px" zoomAndPan="magnify"><defs><filter height="300%" id="f1jz0jpm54ylgv" width="300%" x="-1" y="-1"><feGaussianBlur result="blurOut" stdDeviation="2.0"/><feColorMatrix in="blurOut" result="blurOut2" type="matrix" values="0 0 0 0 0 0 0 0 0 0 0 0 0 0 0 0 0 0 .4 0"/><feOffset dx="4.0" dy="4.0" in="blurOut2" result="blurOut3"/><feBlend in="SourceGraphic" in2="blurOut3" mode="normal"/></filter></defs><g><!--MD5=[5e4fd20a0b47bf5889f3832dfb4975c0]
class Connection_RT--><rect codeLine="2" fill="#FEFECE" filter="url(#f1jz0jpm54ylgv)" height="97.3428" id="Connection_RT" style="stroke:#A80036;stroke-width:1.5;" width="116" x="52.5" y="132"/><ellipse cx="76.95" cy="148" fill="#008000" rx="11" ry="11" style="stroke:#A80036;stroke-width:1.0;"/><path d="M78.1487,148.1479 Q78.514,148.2227 78.7837,148.4924 Q79.0535,148.7622 79.4437,149.5425 L81.6849,154 L78.9954,154 L77.5013,150.8706 Q77.4349,150.7378 77.327,150.5054 Q76.6712,149.1025 75.783,149.1025 L75.0027,149.1025 L75.0027,154 L72.554,154 L72.554,141.6069 L76.0901,141.6069 Q78.4808,141.6069 79.5225,142.4536 Q80.5643,143.3003 80.5643,145.2095 Q80.5643,146.4878 79.9417,147.2432 Q79.3191,147.9985 78.1487,148.1479 Z M75.0027,143.6655 L75.0027,147.0439 L76.1565,147.0439 Q77.1609,147.0439 77.5967,146.6497 Q78.0325,146.2554 78.0325,145.3506 Q78.0325,144.4458 77.6009,144.0557 Q77.1692,143.6655 76.1565,143.6655 Z " fill="#000000"/><text fill="#000000" font-family="sans-serif" font-size="12" lengthAdjust="spacing" textLength="63" x="93.05" y="152.5352">Connection</text><line style="stroke:#A80036;stroke-width:1.5;" x1="53.5" x2="167.5" y1="164" y2="164"/><ellipse cx="63.5" cy="191.9551" rx="3" ry="3" style="stroke:#038048;stroke-width:1.0;fill:none;"/><text fill="#000000" font-family="sans-serif" font-size="11" font-weight="bold" lengthAdjust="spacing" textLength="90" x="72.5" y="195.5898">delegate : string</text><line style="stroke:#A80036;stroke-width:1.0;stroke-dasharray:1.0,2.0;" x1="53.5" x2="84.5" y1="178.4775" y2="178.4775"/><text fill="#000000" font-family="sans-serif" font-size="11" lengthAdjust="spacing" textLength="52" x="84.5" y="182.1348">attributes</text><line style="stroke:#A80036;stroke-width:1.0;stroke-dasharray:1.0,2.0;" x1="136.5" x2="167.5" y1="178.4775" y2="178.4775"/><line style="stroke:#A80036;stroke-width:1.0;" x1="53.5" x2="167.5" y1="201.9102" y2="201.9102"/><line style="stroke:#A80036;stroke-width:1.0;stroke-dasharray:1.0,2.0;" x1="53.5" x2="68" y1="216.3877" y2="216.3877"/><text fill="#000000" font-family="sans-serif" font-size="11" lengthAdjust="spacing" textLength="85" x="68" y="220.0449">interface events</text><line style="stroke:#A80036;stroke-width:1.0;stroke-dasharray:1.0,2.0;" x1="153" x2="167.5" y1="216.3877" y2="216.3877"/><!--MD5=[22ee09334a30cf5923649ab51791e173]
class Events_IT--><rect codeLine="13" fill="#DDDDDD" filter="url(#f1jz0jpm54ylgv)" height="48" id="Events_IT" style="stroke:#A80036;stroke-width:1.5;" width="69" x="145" y="7"/><ellipse cx="160" cy="23" fill="#008000" rx="11" ry="11" style="stroke:#A80036;stroke-width:1.0;"/><path d="M155.9277,18.7651 L155.9277,16.6069 L163.3071,16.6069 L163.3071,18.7651 L160.8418,18.7651 L160.8418,26.8418 L163.3071,26.8418 L163.3071,29 L155.9277,29 L155.9277,26.8418 L158.3931,26.8418 L158.3931,18.7651 Z " fill="#000000"/><text fill="#000000" font-family="sans-serif" font-size="12" lengthAdjust="spacing" textLength="37" x="174" y="27.5352">Events</text><line style="stroke:#A80036;stroke-width:1.5;" x1="146" x2="213" y1="39" y2="39"/><line style="stroke:#A80036;stroke-width:1.5;" x1="146" x2="213" y1="47" y2="47"/><!--MD5=[f9801645f03c93b6419b5ce4d964fb4b]
class Storage_RT--><rect codeLine="9" fill="#FEFECE" filter="url(#f1jz0jpm54ylgv)" height="67.4326" id="Storage_RT" style="stroke:#A80036;stroke-width:1.5;" width="93" x="221" y="147"/><ellipse cx="244.1" cy="163" fill="#008000" rx="11" ry="11" style="stroke:#A80036;stroke-width:1.0;"/><path d="M245.2987,163.1479 Q245.664,163.2227 245.9337,163.4924 Q246.2035,163.7622 246.5937,164.5425 L248.8349,169 L246.1454,169 L244.6513,165.8706 Q244.5849,165.7378 244.477,165.5054 Q243.8212,164.1025 242.933,164.1025 L242.1527,164.1025 L242.1527,169 L239.704,169 L239.704,156.6069 L243.2401,156.6069 Q245.6308,156.6069 246.6725,157.4536 Q247.7143,158.3003 247.7143,160.2095 Q247.7143,161.4878 247.0917,162.2432 Q246.4691,162.9985 245.2987,163.1479 Z M242.1527,158.6655 L242.1527,162.0439 L243.3065,162.0439 Q244.3109,162.0439 244.7467,161.6497 Q245.1825,161.2554 245.1825,160.3506 Q245.1825,159.4458 244.7509,159.0557 Q244.3192,158.6655 243.3065,158.6655 Z " fill="#000000"/><text fill="#000000" font-family="sans-serif" font-size="12" lengthAdjust="spacing" textLength="43" x="259.9" y="167.5352">Storage</text><line style="stroke:#A80036;stroke-width:1.5;" x1="222" x2="313" y1="179" y2="179"/><line style="stroke:#A80036;stroke-width:1.0;" x1="222" x2="313" y1="187" y2="187"/><line style="stroke:#A80036;stroke-width:1.0;stroke-dasharray:1.0,2.0;" x1="222" x2="225" y1="201.4775" y2="201.4775"/><text fill="#000000" font-family="sans-serif" font-size="11" lengthAdjust="spacing" textLength="85" x="225" y="205.1348">interface events</text><line style="stroke:#A80036;stroke-width:1.0;stroke-dasharray:1.0,2.0;" x1="310" x2="313" y1="201.4775" y2="201.4775"/><!--MD5=[ea686e7392e8f9fb1b07a9bf499e0eec]
class BlockStorage_RT--><rect codeLine="14" fill="#FEFECE" filter="url(#f1jz0jpm54ylgv)" height="48" id="BlockStorage_RT" style="stroke:#A80036;stroke-width:1.5;" width="105" x="215" y="314"/><ellipse cx="230" cy="330" fill="#008000" rx="11" ry="11" style="stroke:#A80036;stroke-width:1.0;"/><path d="M231.1987,330.1479 Q231.564,330.2227 231.8337,330.4924 Q232.1035,330.7622 232.4937,331.5425 L234.7349,336 L232.0454,336 L230.5513,332.8706 Q230.4849,332.7378 230.377,332.5054 Q229.7212,331.1025 228.833,331.1025 L228.0527,331.1025 L228.0527,336 L225.604,336 L225.604,323.6069 L229.1401,323.6069 Q231.5308,323.6069 232.5725,324.4536 Q233.6143,325.3003 233.6143,327.2095 Q233.6143,328.4878 232.9917,329.2432 Q232.3691,329.9985 231.1987,330.1479 Z M228.0527,325.6655 L228.0527,329.0439 L229.2065,329.0439 Q230.2109,329.0439 230.6467,328.6497 Q231.0825,328.2554 231.0825,327.3506 Q231.0825,326.4458 230.6509,326.0557 Q230.2192,325.6655 229.2065,325.6655 Z " fill="#000000"/><text fill="#000000" font-family="sans-serif" font-size="12" lengthAdjust="spacing" textLength="73" x="244" y="334.5352">BlockStorage</text><line style="stroke:#A80036;stroke-width:1.5;" x1="216" x2="319" y1="346" y2="346"/><line style="stroke:#A80036;stroke-width:1.5;" x1="216" x2="319" y1="354" y2="354"/><!--MD5=[c8e2285073aab58e63b7ce2e6b60c262]
class Filesystem_RT--><rect codeLine="16" fill="#FEFECE" filter="url(#f1jz0jpm54ylgv)" height="48" id="Filesystem_RT" style="stroke:#A80036;stroke-width:1.5;" width="91" x="355" y="314"/><ellipse cx="370" cy="330" fill="#008000" rx="11" ry="11" style="stroke:#A80036;stroke-width:1.0;"/><path d="M371.1987,330.1479 Q371.564,330.2227 371.8337,330.4924 Q372.1035,330.7622 372.4937,331.5425 L374.7349,336 L372.0454,336 L370.5513,332.8706 Q370.4849,332.7378 370.377,332.5054 Q369.7212,331.1025 368.833,331.1025 L368.0527,331.1025 L368.0527,336 L365.604,336 L365.604,323.6069 L369.1401,323.6069 Q371.5308,323.6069 372.5725,324.4536 Q373.6143,325.3003 373.6143,327.2095 Q373.6143,328.4878 372.9917,329.2432 Q372.3691,329.9985 371.1987,330.1479 Z M368.0527,325.6655 L368.0527,329.0439 L369.2065,329.0439 Q370.2109,329.0439 370.6467,328.6497 Q371.0825,328.2554 371.0825,327.3506 Q371.0825,326.4458 370.6509,326.0557 Q370.2192,325.6655 369.2065,325.6655 Z " fill="#000000"/><text fill="#000000" font-family="sans-serif" font-size="12" lengthAdjust="spacing" textLength="59" x="384" y="334.5352">Filesystem</text><line style="stroke:#A80036;stroke-width:1.5;" x1="356" x2="445" y1="346" y2="346"/><line style="stroke:#A80036;stroke-width:1.5;" x1="356" x2="445" y1="354" y2="354"/><!--MD5=[0d4e3c423c49a0baba48e16d494d4ff4]
class IPPort_RT--><rect codeLine="18" fill="#FEFECE" filter="url(#f1jz0jpm54ylgv)" height="95.8203" id="IPPort_RT" style="stroke:#A80036;stroke-width:1.5;" width="173" x="7" y="290"/><ellipse cx="72.75" cy="306" fill="#008000" rx="11" ry="11" style="stroke:#A80036;stroke-width:1.0;"/><path d="M73.9487,306.1479 Q74.314,306.2227 74.5837,306.4924 Q74.8535,306.7622 75.2437,307.5425 L77.4849,312 L74.7954,312 L73.3013,308.8706 Q73.2349,308.7378 73.127,308.5054 Q72.4712,307.1025 71.583,307.1025 L70.8027,307.1025 L70.8027,312 L68.354,312 L68.354,299.6069 L71.8901,299.6069 Q74.2808,299.6069 75.3225,300.4536 Q76.3643,301.3003 76.3643,303.2095 Q76.3643,304.4878 75.7417,305.2432 Q75.1191,305.9985 73.9487,306.1479 Z M70.8027,301.6655 L70.8027,305.0439 L71.9565,305.0439 Q72.9609,305.0439 73.3967,304.6497 Q73.8325,304.2554 73.8325,303.3506 Q73.8325,302.4458 73.4009,302.0557 Q72.9692,301.6655 71.9565,301.6655 Z " fill="#000000"/><text fill="#000000" font-family="sans-serif" font-size="12" lengthAdjust="spacing" textLength="33" x="93.25" y="310.5352">IPPort</text><line style="stroke:#A80036;stroke-width:1.5;" x1="8" x2="179" y1="322" y2="322"/><ellipse cx="18" cy="349.9551" rx="3" ry="3" style="stroke:#038048;stroke-width:1.0;fill:none;"/><text fill="#000000" font-family="sans-serif" font-size="11" font-weight="bold" lengthAdjust="spacing" textLength="147" x="27" y="353.5898">delegate : string = 'ipport'</text><ellipse cx="18" cy="362.9102" rx="3" ry="3" style="stroke:#038048;stroke-width:1.0;fill:none;"/><text fill="#000000" font-family="sans-serif" font-size="11" font-weight="bold" lengthAdjust="spacing" textLength="107" x="27" y="366.5449">ip : IPAddress = '::'</text><ellipse cx="18" cy="375.8652" rx="3" ry="3" style="stroke:#038048;stroke-width:1.0;fill:none;"/><text fill="#000000" font-family="sans-serif" font-size="11" font-weight="bold" lengthAdjust="spacing" textLength="142" x="27" y="379.5">port : AssignablePort = 0</text><line style="stroke:#A80036;stroke-width:1.0;stroke-dasharray:1.0,2.0;" x1="8" x2="67.5" y1="336.4775" y2="336.4775"/><text fill="#000000" font-family="sans-serif" font-size="11" lengthAdjust="spacing" textLength="52" x="67.5" y="340.1348">attributes</text><line style="stroke:#A80036;stroke-width:1.0;stroke-dasharray:1.0,2.0;" x1="119.5" x2="179" y1="336.4775" y2="336.4775"/><!--MD5=[97e8115b4217c55f042912464871af5a]
reverse link Events_IT to Connection_RT--><path codeLine="24" d="M159.9957,73.2593 C151.589,91.4739 141.7073,112.8842 132.9932,131.7647 " fill="none" id="Events_IT-backto-Connection_RT" style="stroke:#A80036;stroke-width:1.0;stroke-dasharray:7.0,7.0;"/><polygon fill="none" points="153.677,70.2455,168.414,55.0198,166.3885,76.1124,153.677,70.2455" style="stroke:#A80036;stroke-width:1.0;"/><text fill="#000000" font-family="sans-serif" font-size="13" lengthAdjust="spacing" textLength="41" x="154.5" y="98.5684">events</text><!--MD5=[f00a55f0bb3f3195193fcff47691a0b9]
reverse link Events_IT to Storage_RT--><path codeLine="25" d="M203.8659,72.3944 C217.6577,95.8248 234.6871,124.7554 247.6577,146.7906 " fill="none" id="Events_IT-backto-Storage_RT" style="stroke:#A80036;stroke-width:1.0;stroke-dasharray:7.0,7.0;"/><polygon fill="none" points="197.7517,75.8064,193.6387,55.0198,209.8167,68.7046,197.7517,75.8064" style="stroke:#A80036;stroke-width:1.0;"/><text fill="#000000" font-family="sans-serif" font-size="13" lengthAdjust="spacing" textLength="41" x="222.5" y="98.5684">events</text><!--MD5=[2d9852195388a18f4c69f6662d451193]
reverse link Storage_RT to BlockStorage_RT--><path codeLine="26" d="M267.5,234.618 C267.5,261.4417 267.5,292.5052 267.5,313.5243 " fill="none" id="Storage_RT-backto-BlockStorage_RT" style="stroke:#A80036;stroke-width:1.0;"/><polygon fill="none" points="260.5001,234.2877,267.5,214.2877,274.5001,234.2877,260.5001,234.2877" style="stroke:#A80036;stroke-width:1.0;"/><!--MD5=[4d7b2e2f70665d230a3ab1762f17a0d6]
reverse link Storage_RT to Filesystem_RT--><path codeLine="27" d="M309.2032,229.8854 C332.7043,257.7156 361.0277,291.2565 379.8316,313.5243 " fill="none" id="Storage_RT-backto-Filesystem_RT" style="stroke:#A80036;stroke-width:1.0;"/><polygon fill="none" points="303.5873,234.0846,296.0318,214.2877,314.2837,225.052,303.5873,234.0846" style="stroke:#A80036;stroke-width:1.0;"/><!--MD5=[fd9b47303115db7f46dbb9395be1d8b1]
reverse link Connection_RT to IPPort_RT--><path codeLine="28" d="M103.0756,249.2853 C101.5979,262.9758 100.0761,277.0746 98.6928,289.8907 " fill="none" id="Connection_RT-backto-IPPort_RT" style="stroke:#A80036;stroke-width:1.0;"/><polygon fill="none" points="96.1548,248.1736,105.2607,229.0403,110.074,249.6761,96.1548,248.1736" style="stroke:#A80036;stroke-width:1.0;"/><!--MD5=[29b809130121a97c9938f3b6a512c7ee]
@startuml
set namespaceSeparator none
class "Connection" as Connection_RT << (R,green) >> {
.. attributes ..
+<b>delegate : string
- -
.. interface events ..
}
class "Events" as Events_IT << (I,green) >> #DDDDDD
class "Storage" as Storage_RT << (R,green) >> {
- -
.. interface events ..
}
class "Events" as Events_IT << (I,green) >> #DDDDDD
class "BlockStorage" as BlockStorage_RT << (R,green) >> {
}
class "Filesystem" as Filesystem_RT << (R,green) >> {
}
class "IPPort" as IPPort_RT << (R,green) >> {
.. attributes ..
+<b>delegate : string = 'ipport'
+<b>ip : IPAddress = '::'
+<b>port : AssignablePort = 0
}
Events_IT <|.. Connection_RT : events
Events_IT <|.. Storage_RT : events
Storage_RT <|- - BlockStorage_RT
Storage_RT <|- - Filesystem_RT
Connection_RT <|- - IPPort_RT
@enduml

PlantUML version 1.2021.13(Mon Nov 01 12:38:45 CET 2021)
(GPL source distribution)
Java Runtime: Java(TM) SE Runtime Environment
JVM: Java HotSpot(TM) 64-Bit Server VM
Default Encoding: UTF-8
Language: fr
Country: FR
--></g></svg>