<?xml version="1.0" encoding="UTF-8" standalone="no"?><svg xmlns="http://www.w3.org/2000/svg" xmlns:xlink="http://www.w3.org/1999/xlink" contentScriptType="application/ecmascript" contentStyleType="text/css" height="356px" preserveAspectRatio="none" style="width:455px;height:356px;background:#FFFFFF;" version="1.1" viewBox="0 0 455 356" width="455px" zoomAndPan="magnify"><defs><filter height="300%" id="flvykg1adz70y" width="300%" x="-1" y="-1"><feGaussianBlur result="blurOut" stdDeviation="2.0"/><feColorMatrix in="blurOut" result="blurOut2" type="matrix" values="0 0 0 0 0 0 0 0 0 0 0 0 0 0 0 0 0 0 .4 0"/><feOffset dx="4.0" dy="4.0" in="blurOut2" result="blurOut3"/><feBlend in="SourceGraphic" in2="blurOut3" mode="normal"/></filter></defs><g><!--MD5=[5e4fd20a0b47bf5889f3832dfb4975c0]
class Connection_RT--><rect codeLine="2" fill="#FEFECE" filter="url(#flvykg1adz70y)" height="67.4326" id="Connection_RT" style="stroke:#A80036;stroke-width:1.5;" width="95" x="65.5" y="132"/><ellipse cx="80.5" cy="148" fill="#008000" rx="11" ry="11" style="stroke:#A80036;stroke-width:1.0;"/><path d="M81.6987,148.1479 Q82.064,148.2227 82.3337,148.4924 Q82.6035,148.7622 82.9937,149.5425 L85.2349,154 L82.5454,154 L81.0513,150.8706 Q80.9849,150.7378 80.877,150.5054 Q80.2212,149.1025 79.333,149.1025 L78.5527,149.1025 L78.5527,154 L76.104,154 L76.104,141.6069 L79.6401,141.6069 Q82.0308,141.6069 83.0725,142.4536 Q84.1143,143.3003 84.1143,145.2095 Q84.1143,146.4878 83.4917,147.2432 Q82.8691,147.9985 81.6987,148.1479 Z M78.5527,143.6655 L78.5527,147.0439 L79.7065,147.0439 Q80.7109,147.0439 81.1467,146.6497 Q81.5825,146.2554 81.5825,145.3506 Q81.5825,144.4458 81.1509,144.0557 Q80.7192,143.6655 79.7065,143.6655 Z " fill="#000000"/><text fill="#000000" font-family="sans-serif" font-size="12" lengthAdjust="spacing" textLength="63" x="94.5" y="152.5352">Connection</text><line style="stroke:#A80036;stroke-width:1.5;" x1="66.5" x2="159.5" y1="164" y2="164"/><line style="stroke:#A80036;stroke-width:1.0;" x1="66.5" x2="159.5" y1="172" y2="172"/><line style="stroke:#A80036;stroke-width:1.0;stroke-dasharray:1.0,2.0;" x1="66.5" x2="70.5" y1="186.4775" y2="186.4775"/><text fill="#000000" font-family="sans-serif" font-size="11" lengthAdjust="spacing" textLength="85" x="70.5" y="190.1348">interface events</text><line style="stroke:#A80036;stroke-width:1.0;stroke-dasharray:1.0,2.0;" x1="155.5" x2="159.5" y1="186.4775" y2="186.4775"/><!--MD5=[22ee09334a30cf5923649ab51791e173]
class Events_IT--><rect codeLine="11" fill="#DDDDDD" filter="url(#flvykg1adz70y)" height="48" id="Events_IT" style="stroke:#A80036;stroke-width:1.5;" width="69" x="142.5" y="7"/><ellipse cx="157.5" cy="23" fill="#008000" rx="11" ry="11" style="stroke:#A80036;stroke-width:1.0;"/><path d="M153.4277,18.7651 L153.4277,16.6069 L160.8071,16.6069 L160.8071,18.7651 L158.3418,18.7651 L158.3418,26.8418 L160.8071,26.8418 L160.8071,29 L153.4277,29 L153.4277,26.8418 L155.8931,26.8418 L155.8931,18.7651 Z " fill="#000000"/><text fill="#000000" font-family="sans-serif" font-size="12" lengthAdjust="spacing" textLength="37" x="171.5" y="27.5352">Events</text><line style="stroke:#A80036;stroke-width:1.5;" x1="143.5" x2="210.5" y1="39" y2="39"/><line style="stroke:#A80036;stroke-width:1.5;" x1="143.5" x2="210.5" y1="47" y2="47"/><!--MD5=[f9801645f03c93b6419b5ce4d964fb4b]
class Storage_RT--><rect codeLine="7" fill="#FEFECE" filter="url(#flvykg1adz70y)" height="67.4326" id="Storage_RT" style="stroke:#A80036;stroke-width:1.5;" width="93" x="216.5" y="132"/><ellipse cx="239.6" cy="148" fill="#008000" rx="11" ry="11" style="stroke:#A80036;stroke-width:1.0;"/><path d="M240.7987,148.1479 Q241.164,148.2227 241.4337,148.4924 Q241.7035,148.7622 242.0937,149.5425 L244.3349,154 L241.6454,154 L240.1513,150.8706 Q240.0849,150.7378 239.977,150.5054 Q239.3212,149.1025 238.433,149.1025 L237.6527,149.1025 L237.6527,154 L235.204,154 L235.204,141.6069 L238.7401,141.6069 Q241.1308,141.6069 242.1725,142.4536 Q243.2143,143.3003 243.2143,145.2095 Q243.2143,146.4878 242.5917,147.2432 Q241.9691,147.9985 240.7987,148.1479 Z M237.6527,143.6655 L237.6527,147.0439 L238.8065,147.0439 Q239.8109,147.0439 240.2467,146.6497 Q240.6825,146.2554 240.6825,145.3506 Q240.6825,144.4458 240.2509,144.0557 Q239.8192,143.6655 238.8065,143.6655 Z " fill="#000000"/><text fill="#000000" font-family="sans-serif" font-size="12" lengthAdjust="spacing" textLength="43" x="255.4" y="152.5352">Storage</text><line style="stroke:#A80036;stroke-width:1.5;" x1="217.5" x2="308.5" y1="164" y2="164"/><line style="stroke:#A80036;stroke-width:1.0;" x1="217.5" x2="308.5" y1="172" y2="172"/><line style="stroke:#A80036;stroke-width:1.0;stroke-dasharray:1.0,2.0;" x1="217.5" x2="220.5" y1="186.4775" y2="186.4775"/><text fill="#000000" font-family="sans-serif" font-size="11" lengthAdjust="spacing" textLength="85" x="220.5" y="190.1348">interface events</text><line style="stroke:#A80036;stroke-width:1.0;stroke-dasharray:1.0,2.0;" x1="305.5" x2="308.5" y1="186.4775" y2="186.4775"/><!--MD5=[ea686e7392e8f9fb1b07a9bf499e0eec]
class BlockStorage_RT--><rect codeLine="12" fill="#FEFECE" filter="url(#flvykg1adz70y)" height="48" id="BlockStorage_RT" style="stroke:#A80036;stroke-width:1.5;" width="105" x="210.5" y="277.5"/><ellipse cx="225.5" cy="293.5" fill="#008000" rx="11" ry="11" style="stroke:#A80036;stroke-width:1.0;"/><path d="M226.6987,293.6479 Q227.064,293.7227 227.3337,293.9924 Q227.6035,294.2622 227.9937,295.0425 L230.2349,299.5 L227.5454,299.5 L226.0513,296.3706 Q225.9849,296.2378 225.877,296.0054 Q225.2212,294.6025 224.333,294.6025 L223.5527,294.6025 L223.5527,299.5 L221.104,299.5 L221.104,287.1069 L224.6401,287.1069 Q227.0308,287.1069 228.0725,287.9536 Q229.1143,288.8003 229.1143,290.7095 Q229.1143,291.9878 228.4917,292.7432 Q227.8691,293.4985 226.6987,293.6479 Z M223.5527,289.1655 L223.5527,292.5439 L224.7065,292.5439 Q225.7109,292.5439 226.1467,292.1497 Q226.5825,291.7554 226.5825,290.8506 Q226.5825,289.9458 226.1509,289.5557 Q225.7192,289.1655 224.7065,289.1655 Z " fill="#000000"/><text fill="#000000" font-family="sans-serif" font-size="12" lengthAdjust="spacing" textLength="73" x="239.5" y="298.0352">BlockStorage</text><line style="stroke:#A80036;stroke-width:1.5;" x1="211.5" x2="314.5" y1="309.5" y2="309.5"/><line style="stroke:#A80036;stroke-width:1.5;" x1="211.5" x2="314.5" y1="317.5" y2="317.5"/><!--MD5=[c8e2285073aab58e63b7ce2e6b60c262]
class Filesystem_RT--><rect codeLine="14" fill="#FEFECE" filter="url(#flvykg1adz70y)" height="48" id="Filesystem_RT" style="stroke:#A80036;stroke-width:1.5;" width="91" x="350.5" y="277.5"/><ellipse cx="365.5" cy="293.5" fill="#008000" rx="11" ry="11" style="stroke:#A80036;stroke-width:1.0;"/><path d="M366.6987,293.6479 Q367.064,293.7227 367.3337,293.9924 Q367.6035,294.2622 367.9937,295.0425 L370.2349,299.5 L367.5454,299.5 L366.0513,296.3706 Q365.9849,296.2378 365.877,296.0054 Q365.2212,294.6025 364.333,294.6025 L363.5527,294.6025 L363.5527,299.5 L361.104,299.5 L361.104,287.1069 L364.6401,287.1069 Q367.0308,287.1069 368.0725,287.9536 Q369.1143,288.8003 369.1143,290.7095 Q369.1143,291.9878 368.4917,292.7432 Q367.8691,293.4985 366.6987,293.6479 Z M363.5527,289.1655 L363.5527,292.5439 L364.7065,292.5439 Q365.7109,292.5439 366.1467,292.1497 Q366.5825,291.7554 366.5825,290.8506 Q366.5825,289.9458 366.1509,289.5557 Q365.7192,289.1655 364.7065,289.1655 Z " fill="#000000"/><text fill="#000000" font-family="sans-serif" font-size="12" lengthAdjust="spacing" textLength="59" x="379.5" y="298.0352">Filesystem</text><line style="stroke:#A80036;stroke-width:1.5;" x1="351.5" x2="440.5" y1="309.5" y2="309.5"/><line style="stroke:#A80036;stroke-width:1.5;" x1="351.5" x2="440.5" y1="317.5" y2="317.5"/><!--MD5=[0d4e3c423c49a0baba48e16d494d4ff4]
class IPPort_RT--><rect codeLine="16" fill="#FEFECE" filter="url(#flvykg1adz70y)" height="82.8652" id="IPPort_RT" style="stroke:#A80036;stroke-width:1.5;" width="168" x="7" y="260"/><ellipse cx="70.25" cy="276" fill="#008000" rx="11" ry="11" style="stroke:#A80036;stroke-width:1.0;"/><path d="M71.4487,276.1479 Q71.814,276.2227 72.0837,276.4924 Q72.3535,276.7622 72.7437,277.5425 L74.9849,282 L72.2954,282 L70.8013,278.8706 Q70.7349,278.7378 70.627,278.5054 Q69.9712,277.1025 69.083,277.1025 L68.3027,277.1025 L68.3027,282 L65.854,282 L65.854,269.6069 L69.3901,269.6069 Q71.7808,269.6069 72.8225,270.4536 Q73.8643,271.3003 73.8643,273.2095 Q73.8643,274.4878 73.2417,275.2432 Q72.6191,275.9985 71.4487,276.1479 Z M68.3027,271.6655 L68.3027,275.0439 L69.4565,275.0439 Q70.4609,275.0439 70.8967,274.6497 Q71.3325,274.2554 71.3325,273.3506 Q71.3325,272.4458 70.9009,272.0557 Q70.4692,271.6655 69.4565,271.6655 Z " fill="#000000"/><text fill="#000000" font-family="sans-serif" font-size="12" lengthAdjust="spacing" textLength="33" x="90.75" y="280.5352">IPPort</text><line style="stroke:#A80036;stroke-width:1.5;" x1="8" x2="174" y1="292" y2="292"/><ellipse cx="18" cy="319.9551" rx="3" ry="3" style="stroke:#038048;stroke-width:1.0;fill:none;"/><text fill="#000000" font-family="sans-serif" font-size="11" font-weight="bold" lengthAdjust="spacing" textLength="107" x="27" y="323.5898">ip : IPAddress = '::'</text><ellipse cx="18" cy="332.9102" rx="3" ry="3" style="stroke:#038048;stroke-width:1.0;fill:none;"/><text fill="#000000" font-family="sans-serif" font-size="11" font-weight="bold" lengthAdjust="spacing" textLength="142" x="27" y="336.5449">port : AssignablePort = 0</text><line style="stroke:#A80036;stroke-width:1.0;stroke-dasharray:1.0,2.0;" x1="8" x2="65" y1="306.4775" y2="306.4775"/><text fill="#000000" font-family="sans-serif" font-size="11" lengthAdjust="spacing" textLength="52" x="65" y="310.1348">attributes</text><line style="stroke:#A80036;stroke-width:1.0;stroke-dasharray:1.0,2.0;" x1="117" x2="174" y1="306.4775" y2="306.4775"/><!--MD5=[97e8115b4217c55f042912464871af5a]
reverse link Events_IT to Connection_RT--><path codeLine="21" d="M156.8737,73.2966 C147.8971,92.1615 137.4679,114.0791 129.0305,131.8108 " fill="none" id="Events_IT-backto-Connection_RT" style="stroke:#A80036;stroke-width:1.0;stroke-dasharray:7.0,7.0;"/><polygon fill="none" points="150.6437,70.0979,165.5581,55.0459,163.2855,76.1133,150.6437,70.0979" style="stroke:#A80036;stroke-width:1.0;"/><text fill="#000000" font-family="sans-serif" font-size="13" lengthAdjust="spacing" textLength="41" x="152" y="98.5684">events</text><!--MD5=[f00a55f0bb3f3195193fcff47691a0b9]
reverse link Events_IT to Storage_RT--><path codeLine="22" d="M203.2855,72.1093 C215.5157,91.2368 229.8825,113.7058 241.459,131.8108 " fill="none" id="Events_IT-backto-Storage_RT" style="stroke:#A80036;stroke-width:1.0;stroke-dasharray:7.0,7.0;"/><polygon fill="none" points="197.2516,75.6668,192.3751,55.0459,209.0466,68.125,197.2516,75.6668" style="stroke:#A80036;stroke-width:1.0;"/><text fill="#000000" font-family="sans-serif" font-size="13" lengthAdjust="spacing" textLength="41" x="221" y="98.5684">events</text><!--MD5=[2d9852195388a18f4c69f6662d451193]
reverse link Storage_RT to BlockStorage_RT--><path codeLine="23" d="M263,219.1185 C263,239.2219 263,261.0827 263,277.23 " fill="none" id="Storage_RT-backto-BlockStorage_RT" style="stroke:#A80036;stroke-width:1.0;"/><polygon fill="none" points="256.0001,219.118,263,199.118,270.0001,219.118,256.0001,219.118" style="stroke:#A80036;stroke-width:1.0;"/><!--MD5=[4d7b2e2f70665d230a3ab1762f17a0d6]
reverse link Storage_RT to Filesystem_RT--><path codeLine="24" d="M309.9007,213.4586 C330.9949,235.0286 354.9783,259.553 372.2654,277.23 " fill="none" id="Storage_RT-backto-Filesystem_RT" style="stroke:#A80036;stroke-width:1.0;"/><polygon fill="none" points="304.8553,218.3112,295.8764,199.118,314.8646,208.5227,304.8553,218.3112" style="stroke:#A80036;stroke-width:1.0;"/><!--MD5=[fd9b47303115db7f46dbb9395be1d8b1]
reverse link Connection_RT to IPPort_RT--><path codeLine="25" d="M104.3117,219.2092 C102.1452,232.6022 99.8534,246.7697 97.7934,259.5046 " fill="none" id="Connection_RT-backto-IPPort_RT" style="stroke:#A80036;stroke-width:1.0;"/><polygon fill="none" points="97.4578,217.7435,107.5618,199.118,111.2781,219.9792,97.4578,217.7435" style="stroke:#A80036;stroke-width:1.0;"/><!--MD5=[40ef5817052c13564f7432a1e19cec10]
@startuml
set namespaceSeparator none
class "Connection" as Connection_RT << (R,green) >> {
- -
.. interface events ..
}
class "Events" as Events_IT << (I,green) >> #DDDDDD
class "Storage" as Storage_RT << (R,green) >> {
- -
.. interface events ..
}
class "Events" as Events_IT << (I,green) >> #DDDDDD
class "BlockStorage" as BlockStorage_RT << (R,green) >> {
}
class "Filesystem" as Filesystem_RT << (R,green) >> {
}
class "IPPort" as IPPort_RT << (R,green) >> {
.. attributes ..
+<b>ip : IPAddress = '::'
+<b>port : AssignablePort = 0
}
Events_IT <|.. Connection_RT : events
Events_IT <|.. Storage_RT : events
Storage_RT <|- - BlockStorage_RT
Storage_RT <|- - Filesystem_RT
Connection_RT <|- - IPPort_RT
@enduml

PlantUML version 1.2021.13(Mon Nov 01 12:38:45 CET 2021)
(GPL source distribution)
Java Runtime: Java(TM) SE Runtime Environment
JVM: Java HotSpot(TM) 64-Bit Server VM
Default Encoding: UTF-8
Language: fr
Country: FR
--></g></svg>