<?xml version="1.0" encoding="UTF-8" standalone="no"?><svg xmlns="http://www.w3.org/2000/svg" xmlns:xlink="http://www.w3.org/1999/xlink" contentScriptType="application/ecmascript" contentStyleType="text/css" height="177px" preserveAspectRatio="none" style="width:187px;height:177px;background:#FFFFFF;" version="1.1" viewBox="0 0 187 177" width="187px" zoomAndPan="magnify"><defs><filter height="300%" id="f1dyh5vzlm7oma" width="300%" x="-1" y="-1"><feGaussianBlur result="blurOut" stdDeviation="2.0"/><feColorMatrix in="blurOut" result="blurOut2" type="matrix" values="0 0 0 0 0 0 0 0 0 0 0 0 0 0 0 0 0 0 .4 0"/><feOffset dx="4.0" dy="4.0" in="blurOut2" result="blurOut3"/><feBlend in="SourceGraphic" in2="blurOut3" mode="normal"/></filter></defs><g><!--MD5=[a747bbc9c8b77d03607e65f956f98ca0]
class AttachesTo--><rect codeLine="2" fill="#DDDDDD" filter="url(#f1dyh5vzlm7oma)" height="48" id="AttachesTo" style="stroke:#A80036;stroke-width:1.5;" width="103" x="38.5" y="7"/><ellipse cx="53.5" cy="23" fill="#008000" rx="11" ry="11" style="stroke:#A80036;stroke-width:1.0;"/><path d="M54.7031,23.1406 Q55.0625,23.2188 55.3281,23.5 Q55.6094,23.7656 56,24.5469 L58.2344,29 L55.5469,29 L54.0469,25.875 Q53.9844,25.7344 53.875,25.5 Q53.2188,24.1094 52.3281,24.1094 L51.5469,24.1094 L51.5469,29 L49.1094,29 L49.1094,16.6094 L52.6406,16.6094 Q55.0313,16.6094 56.0625,17.4531 Q57.1094,18.2969 57.1094,20.2031 Q57.1094,21.4844 56.4844,22.25 Q55.875,23 54.7031,23.1406 Z M51.5469,18.6719 L51.5469,22.0469 L52.7031,22.0469 Q53.7188,22.0469 54.1406,21.6563 Q54.5781,21.25 54.5781,20.3438 Q54.5781,19.4531 54.1406,19.0625 Q53.7188,18.6719 52.7031,18.6719 L51.5469,18.6719 Z " fill="#000000"/><text fill="#000000" font-family="sans-serif" font-size="12" lengthAdjust="spacing" textLength="71" x="67.5" y="27.1543">AttachesTo</text><line style="stroke:#A80036;stroke-width:1.5;" x1="39.5" x2="140.5" y1="39" y2="39"/><line style="stroke:#A80036;stroke-width:1.5;" x1="39.5" x2="140.5" y1="47" y2="47"/><!--MD5=[db346d04bf4554427a3d9962d6d3d6e3]
class MyCustomAttachesTo--><rect codeLine="4" fill="#FEFECE" filter="url(#f1dyh5vzlm7oma)" height="48" id="MyCustomAttachesTo" style="stroke:#A80036;stroke-width:1.5;" width="166" x="7" y="115"/><ellipse cx="22" cy="131" fill="#008000" rx="11" ry="11" style="stroke:#A80036;stroke-width:1.0;"/><path d="M23.2031,131.1406 Q23.5625,131.2188 23.8281,131.5 Q24.1094,131.7656 24.5,132.5469 L26.7344,137 L24.0469,137 L22.5469,133.875 Q22.4844,133.7344 22.375,133.5 Q21.7188,132.1094 20.8281,132.1094 L20.0469,132.1094 L20.0469,137 L17.6094,137 L17.6094,124.6094 L21.1406,124.6094 Q23.5313,124.6094 24.5625,125.4531 Q25.6094,126.2969 25.6094,128.2031 Q25.6094,129.4844 24.9844,130.25 Q24.375,131 23.2031,131.1406 Z M20.0469,126.6719 L20.0469,130.0469 L21.2031,130.0469 Q22.2188,130.0469 22.6406,129.6563 Q23.0781,129.25 23.0781,128.3438 Q23.0781,127.4531 22.6406,127.0625 Q22.2188,126.6719 21.2031,126.6719 L20.0469,126.6719 Z " fill="#000000"/><text fill="#000000" font-family="sans-serif" font-size="12" lengthAdjust="spacing" textLength="134" x="36" y="135.1543">MyCustomAttachesTo</text><line style="stroke:#A80036;stroke-width:1.5;" x1="8" x2="172" y1="147" y2="147"/><line style="stroke:#A80036;stroke-width:1.5;" x1="8" x2="172" y1="155" y2="155"/><!--MD5=[c2a84f2074ee28e80468d5bb33d3c68e]
reverse link AttachesTo to MyCustomAttachesTo--><path codeLine="3" d="M90,75.02 C90,88.58 90,103.04 90,114.68 " fill="none" id="AttachesTo-backto-MyCustomAttachesTo" style="stroke:#A80036;stroke-width:1.0;"/><polygon fill="none" points="83,75,90,55,97,75,83,75" style="stroke:#A80036;stroke-width:1.0;"/><!--MD5=[65f74ab12b3e135689e050beecd14f57]
@startuml
set namespaceSeparator none
class "AttachesTo" << (R,green) >> #DDDDDD
"AttachesTo" <|- - "MyCustomAttachesTo"
class "MyCustomAttachesTo" << (R,green) >> {
}
@enduml

PlantUML version 1.2021.13(Mon Nov 01 11:38:45 GMT 2021)
(GPL source distribution)
Java Runtime: OpenJDK Runtime Environment
JVM: OpenJDK 64-Bit Server VM
Default Encoding: UTF-8
Language: en
Country: US
--></g></svg>