<?xml version="1.0" encoding="UTF-8" standalone="no"?><svg xmlns="http://www.w3.org/2000/svg" xmlns:xlink="http://www.w3.org/1999/xlink" contentScriptType="application/ecmascript" contentStyleType="text/css" height="198px" preserveAspectRatio="none" style="width:273px;height:198px;background:#FFFFFF;" version="1.1" viewBox="0 0 273 198" width="273px" zoomAndPan="magnify"><defs><filter height="300%" id="fq9c3n8xmnixd" width="300%" x="-1" y="-1"><feGaussianBlur result="blurOut" stdDeviation="2.0"/><feColorMatrix in="blurOut" result="blurOut2" type="matrix" values="0 0 0 0 0 0 0 0 0 0 0 0 0 0 0 0 0 0 .4 0"/><feOffset dx="4.0" dy="4.0" in="blurOut2" result="blurOut3"/><feBlend in="SourceGraphic" in2="blurOut3" mode="normal"/></filter></defs><g><!--MD5=[7e5ccb913ad4872bc2e95462c5c9fac2]
class tosca.relationships.AttachesTo--><rect codeLine="2" fill="#DDDDDD" filter="url(#fq9c3n8xmnixd)" height="48" id="tosca.relationships.AttachesTo" style="stroke:#A80036;stroke-width:1.5;" width="227" x="19.5" y="7"/><ellipse cx="34.5" cy="23" fill="#008000" rx="11" ry="11" style="stroke:#A80036;stroke-width:1.0;"/><path d="M35.7031,23.1406 Q36.0625,23.2188 36.3281,23.5 Q36.6094,23.7656 37,24.5469 L39.2344,29 L36.5469,29 L35.0469,25.875 Q34.9844,25.7344 34.875,25.5 Q34.2188,24.1094 33.3281,24.1094 L32.5469,24.1094 L32.5469,29 L30.1094,29 L30.1094,16.6094 L33.6406,16.6094 Q36.0313,16.6094 37.0625,17.4531 Q38.1094,18.2969 38.1094,20.2031 Q38.1094,21.4844 37.4844,22.25 Q36.875,23 35.7031,23.1406 Z M32.5469,18.6719 L32.5469,22.0469 L33.7031,22.0469 Q34.7188,22.0469 35.1406,21.6563 Q35.5781,21.25 35.5781,20.3438 Q35.5781,19.4531 35.1406,19.0625 Q34.7188,18.6719 33.7031,18.6719 L32.5469,18.6719 Z " fill="#000000"/><text fill="#000000" font-family="sans-serif" font-size="12" lengthAdjust="spacing" textLength="195" x="48.5" y="27.1543">tosca.relationships.AttachesTo</text><line style="stroke:#A80036;stroke-width:1.5;" x1="20.5" x2="245.5" y1="39" y2="39"/><line style="stroke:#A80036;stroke-width:1.5;" x1="20.5" x2="245.5" y1="47" y2="47"/><!--MD5=[beaa30695766e35ff363c632ac700188]
class MyAttachesTo--><rect codeLine="4" fill="#FEFECE" filter="url(#fq9c3n8xmnixd)" height="69.6094" id="MyAttachesTo" style="stroke:#A80036;stroke-width:1.5;" width="252" x="7" y="115"/><ellipse cx="85.25" cy="131" fill="#008000" rx="11" ry="11" style="stroke:#A80036;stroke-width:1.0;"/><path d="M86.4531,131.1406 Q86.8125,131.2188 87.0781,131.5 Q87.3594,131.7656 87.75,132.5469 L89.9844,137 L87.2969,137 L85.7969,133.875 Q85.7344,133.7344 85.625,133.5 Q84.9688,132.1094 84.0781,132.1094 L83.2969,132.1094 L83.2969,137 L80.8594,137 L80.8594,124.6094 L84.3906,124.6094 Q86.7813,124.6094 87.8125,125.4531 Q88.8594,126.2969 88.8594,128.2031 Q88.8594,129.4844 88.2344,130.25 Q87.625,131 86.4531,131.1406 Z M83.2969,126.6719 L83.2969,130.0469 L84.4531,130.0469 Q85.4688,130.0469 85.8906,129.6563 Q86.3281,129.25 86.3281,128.3438 Q86.3281,127.4531 85.8906,127.0625 Q85.4688,126.6719 84.4531,126.6719 L83.2969,126.6719 Z " fill="#000000"/><text fill="#000000" font-family="sans-serif" font-size="12" lengthAdjust="spacing" textLength="87" x="105.75" y="135.1543">MyAttachesTo</text><line style="stroke:#A80036;stroke-width:1.5;" x1="8" x2="258" y1="147" y2="147"/><ellipse cx="18" cy="174.8047" rx="3" ry="3" style="stroke:#038048;stroke-width:1.0;fill:none;"/><text fill="#000000" font-family="sans-serif" font-size="11" font-weight="bold" lengthAdjust="spacing" textLength="226" x="27" y="178.0151">location : string = /default_location</text><line style="stroke:#A80036;stroke-width:1.0;stroke-dasharray:1.0,2.0;" x1="8" x2="103.5" y1="161.4023" y2="161.4023"/><text fill="#000000" font-family="sans-serif" font-size="11" lengthAdjust="spacing" textLength="59" x="103.5" y="164.7104">properties</text><line style="stroke:#A80036;stroke-width:1.0;stroke-dasharray:1.0,2.0;" x1="162.5" x2="258" y1="161.4023" y2="161.4023"/><!--MD5=[bdd100d69c5f6046c23c08a111c43f7f]
reverse link tosca.relationships.AttachesTo to MyAttachesTo--><path codeLine="3" d="M133,75.49 C133,88.48 133,102.54 133,114.84 " fill="none" id="tosca.relationships.AttachesTo-backto-MyAttachesTo" style="stroke:#A80036;stroke-width:1.0;"/><polygon fill="none" points="126,75.12,133,55.12,140,75.12,126,75.12" style="stroke:#A80036;stroke-width:1.0;"/><!--MD5=[7371628d749ca93eff0c3342127b9cc7]
@startuml
set namespaceSeparator none
class "tosca.relationships.AttachesTo" << (R,green) >> #DDDDDD
"tosca.relationships.AttachesTo" <|- - "MyAttachesTo"
class "MyAttachesTo" << (R,green) >> {
.. properties ..
+<b>location : string = /default_location
}
@enduml

PlantUML version 1.2021.13(Mon Nov 01 11:38:45 GMT 2021)
(GPL source distribution)
Java Runtime: OpenJDK Runtime Environment
JVM: OpenJDK 64-Bit Server VM
Default Encoding: UTF-8
Language: en
Country: US
--></g></svg>