<?xml version="1.0" encoding="UTF-8" standalone="no"?><svg xmlns="http://www.w3.org/2000/svg" xmlns:xlink="http://www.w3.org/1999/xlink" contentScriptType="application/ecmascript" contentStyleType="text/css" height="181px" preserveAspectRatio="none" style="width:461px;height:181px;background:#FFFFFF;" version="1.1" viewBox="0 0 461 181" width="461px" zoomAndPan="magnify"><defs><filter height="300%" id="fbdsvcb0sey1s" width="300%" x="-1" y="-1"><feGaussianBlur result="blurOut" stdDeviation="2.0"/><feColorMatrix in="blurOut" result="blurOut2" type="matrix" values="0 0 0 0 0 0 0 0 0 0 0 0 0 0 0 0 0 0 .4 0"/><feOffset dx="4.0" dy="4.0" in="blurOut2" result="blurOut3"/><feBlend in="SourceGraphic" in2="blurOut3" mode="normal"/></filter></defs><g><!--MD5=[fe3463be6c4239935f06e0ae4bdadaa4]
entity node_my_server--><polygon fill="#FEFECE" filter="url(#fbdsvcb0sey1s)" points="16,16,26,6,199,6,199,42.2969,189,52.2969,16,52.2969,16,16" style="stroke:#000000;stroke-width:1.5;"/><line style="stroke:#000000;stroke-width:1.5;" x1="189" x2="199" y1="16" y2="6"/><line style="stroke:#000000;stroke-width:1.5;" x1="16" x2="189" y1="16" y2="16"/><line style="stroke:#000000;stroke-width:1.5;" x1="189" x2="189" y1="16" y2="52.2969"/><text fill="#000000" font-family="sans-serif" font-size="14" lengthAdjust="spacing" textLength="143" x="31" y="38.9951">my_server: Compute</text><!--MD5=[a4234fec20473da3d5886e3d21bb51b4]
entity node_my_server2--><polygon fill="#FEFECE" filter="url(#fbdsvcb0sey1s)" points="252.5,16,262.5,6,444.5,6,444.5,42.2969,434.5,52.2969,252.5,52.2969,252.5,16" style="stroke:#000000;stroke-width:1.5;"/><line style="stroke:#000000;stroke-width:1.5;" x1="434.5" x2="444.5" y1="16" y2="6"/><line style="stroke:#000000;stroke-width:1.5;" x1="252.5" x2="434.5" y1="16" y2="16"/><line style="stroke:#000000;stroke-width:1.5;" x1="434.5" x2="434.5" y1="16" y2="52.2969"/><text fill="#000000" font-family="sans-serif" font-size="14" lengthAdjust="spacing" textLength="152" x="267.5" y="38.9951">my_server2: Compute</text><!--MD5=[37aa297d2cd2906ec8917eab968865d4]
entity node_my_storage--><path d="M7,139 C7,129 107.5,129 107.5,129 C107.5,129 208,129 208,139 L208,164.2969 C208,174.2969 107.5,174.2969 107.5,174.2969 C107.5,174.2969 7,174.2969 7,164.2969 L7,139 " fill="#FEFECE" filter="url(#fbdsvcb0sey1s)" style="stroke:#000000;stroke-width:1.5;"/><path d="M7,139 C7,149 107.5,149 107.5,149 C107.5,149 208,149 208,139 " fill="none" style="stroke:#000000;stroke-width:1.5;"/><text fill="#000000" font-family="sans-serif" font-size="14" lengthAdjust="spacing" textLength="181" x="17" y="165.9951">my_storage: BlockStorage</text><!--MD5=[4b83c66a30f56318100215c7e0032462]
entity node_my_storage2--><path d="M243.5,139 C243.5,129 348.5,129 348.5,129 C348.5,129 453.5,129 453.5,139 L453.5,164.2969 C453.5,174.2969 348.5,174.2969 348.5,174.2969 C348.5,174.2969 243.5,174.2969 243.5,164.2969 L243.5,139 " fill="#FEFECE" filter="url(#fbdsvcb0sey1s)" style="stroke:#000000;stroke-width:1.5;"/><path d="M243.5,139 C243.5,149 348.5,149 348.5,149 C348.5,149 453.5,149 453.5,139 " fill="none" style="stroke:#000000;stroke-width:1.5;"/><text fill="#000000" font-family="sans-serif" font-size="14" lengthAdjust="spacing" textLength="190" x="253.5" y="165.9951">my_storage2: BlockStorage</text><!--MD5=[8f946dc020c9f34fbb58547064b8de5a]
link node_my_server to node_my_storage--><path codeLine="8" d="M107.5,52.1 C107.5,72.36 107.5,102.38 107.5,123.93 " fill="none" id="node_my_server-to-node_my_storage" style="stroke:#A80036;stroke-width:1.0;stroke-dasharray:7.0,7.0;"/><polygon fill="#A80036" points="107.5,128.94,111.5,119.94,107.5,123.94,103.5,119.94,107.5,128.94" style="stroke:#A80036;stroke-width:1.0;"/><text fill="#000000" font-family="sans-serif" font-size="13" lengthAdjust="spacing" textLength="88" x="108.5" y="95.0669">«AttachesTo»</text><!--MD5=[81d69c7ddbdb3d0bc2814da86f426665]
link node_my_server2 to node_my_storage2--><path codeLine="9" d="M348.5,52.1 C348.5,72.36 348.5,102.38 348.5,123.93 " fill="none" id="node_my_server2-to-node_my_storage2" style="stroke:#A80036;stroke-width:1.0;stroke-dasharray:7.0,7.0;"/><polygon fill="#A80036" points="348.5,128.94,352.5,119.94,348.5,123.94,344.5,119.94,348.5,128.94" style="stroke:#A80036;stroke-width:1.0;"/><text fill="#000000" font-family="sans-serif" font-size="13" lengthAdjust="spacing" textLength="88" x="349.5" y="95.0669">«AttachesTo»</text><!--MD5=[7d9972e4984df85282fa11c2e8cb2aa7]
@startuml
skinparam componentStyle uml2
allowmixing

node "my_server: Compute" as node_my_server
node "my_server2: Compute" as node_my_server2
database "my_storage: BlockStorage" as node_my_storage
database "my_storage2: BlockStorage" as node_my_storage2
node_my_server ..> node_my_storage : <<AttachesTo>>
node_my_server2 ..> node_my_storage2 : <<AttachesTo>>
@enduml

PlantUML version 1.2021.13(Mon Nov 01 11:38:45 GMT 2021)
(GPL source distribution)
Java Runtime: OpenJDK Runtime Environment
JVM: OpenJDK 64-Bit Server VM
Default Encoding: UTF-8
Language: en
Country: US
--></g></svg>