<?xml version="1.0" encoding="UTF-8" standalone="no"?><svg xmlns="http://www.w3.org/2000/svg" xmlns:xlink="http://www.w3.org/1999/xlink" contentScriptType="application/ecmascript" contentStyleType="text/css" height="198px" preserveAspectRatio="none" style="width:249px;height:198px;background:#FFFFFF;" version="1.1" viewBox="0 0 249 198" width="249px" zoomAndPan="magnify"><defs><filter height="300%" id="fq9c3n8xmnixd" width="300%" x="-1" y="-1"><feGaussianBlur result="blurOut" stdDeviation="2.0"/><feColorMatrix in="blurOut" result="blurOut2" type="matrix" values="0 0 0 0 0 0 0 0 0 0 0 0 0 0 0 0 0 0 .4 0"/><feOffset dx="4.0" dy="4.0" in="blurOut2" result="blurOut3"/><feBlend in="SourceGraphic" in2="blurOut3" mode="normal"/></filter></defs><g><!--MD5=[7e5ccb913ad4872bc2e95462c5c9fac2]
class tosca.relationships.AttachesTo--><rect codeLine="2" fill="#DDDDDD" filter="url(#fq9c3n8xmnixd)" height="48" id="tosca.relationships.AttachesTo" style="stroke:#A80036;stroke-width:1.5;" width="207" x="17.5" y="7"/><ellipse cx="32.5" cy="23" fill="#008000" rx="11" ry="11" style="stroke:#A80036;stroke-width:1.0;"/><path d="M33.6987,23.1479 Q34.064,23.2227 34.3337,23.4924 Q34.6035,23.7622 34.9937,24.5425 L37.2349,29 L34.5454,29 L33.0513,25.8706 Q32.9849,25.7378 32.877,25.5054 Q32.2212,24.1025 31.333,24.1025 L30.5527,24.1025 L30.5527,29 L28.104,29 L28.104,16.6069 L31.6401,16.6069 Q34.0308,16.6069 35.0725,17.4536 Q36.1143,18.3003 36.1143,20.2095 Q36.1143,21.4878 35.4917,22.2432 Q34.8691,22.9985 33.6987,23.1479 Z M30.5527,18.6655 L30.5527,22.0439 L31.7065,22.0439 Q32.7109,22.0439 33.1467,21.6497 Q33.5825,21.2554 33.5825,20.3506 Q33.5825,19.4458 33.1509,19.0557 Q32.7192,18.6655 31.7065,18.6655 Z " fill="#000000"/><text fill="#000000" font-family="sans-serif" font-size="12" lengthAdjust="spacing" textLength="175" x="46.5" y="27.5352">tosca.relationships.AttachesTo</text><line style="stroke:#A80036;stroke-width:1.5;" x1="18.5" x2="223.5" y1="39" y2="39"/><line style="stroke:#A80036;stroke-width:1.5;" x1="18.5" x2="223.5" y1="47" y2="47"/><!--MD5=[beaa30695766e35ff363c632ac700188]
class MyAttachesTo--><rect codeLine="4" fill="#FEFECE" filter="url(#fq9c3n8xmnixd)" height="69.9102" id="MyAttachesTo" style="stroke:#A80036;stroke-width:1.5;" width="228" x="7" y="115"/><ellipse cx="76.75" cy="131" fill="#008000" rx="11" ry="11" style="stroke:#A80036;stroke-width:1.0;"/><path d="M77.9487,131.1479 Q78.314,131.2227 78.5837,131.4924 Q78.8535,131.7622 79.2437,132.5425 L81.4849,137 L78.7954,137 L77.3013,133.8706 Q77.2349,133.7378 77.127,133.5054 Q76.4712,132.1025 75.583,132.1025 L74.8027,132.1025 L74.8027,137 L72.354,137 L72.354,124.6069 L75.8901,124.6069 Q78.2808,124.6069 79.3225,125.4536 Q80.3643,126.3003 80.3643,128.2095 Q80.3643,129.4878 79.7417,130.2432 Q79.1191,130.9985 77.9487,131.1479 Z M74.8027,126.6655 L74.8027,130.0439 L75.9565,130.0439 Q76.9609,130.0439 77.3967,129.6497 Q77.8325,129.2554 77.8325,128.3506 Q77.8325,127.4458 77.4009,127.0557 Q76.9692,126.6655 75.9565,126.6655 Z " fill="#000000"/><text fill="#000000" font-family="sans-serif" font-size="12" lengthAdjust="spacing" textLength="80" x="97.25" y="135.5352">MyAttachesTo</text><line style="stroke:#A80036;stroke-width:1.5;" x1="8" x2="234" y1="147" y2="147"/><ellipse cx="18" cy="174.9551" rx="3" ry="3" style="stroke:#038048;stroke-width:1.0;fill:none;"/><text fill="#000000" font-family="sans-serif" font-size="11" font-weight="bold" lengthAdjust="spacing" textLength="202" x="27" y="178.5898">location : string = /default_location</text><line style="stroke:#A80036;stroke-width:1.0;stroke-dasharray:1.0,2.0;" x1="8" x2="93" y1="161.4775" y2="161.4775"/><text fill="#000000" font-family="sans-serif" font-size="11" lengthAdjust="spacing" textLength="56" x="93" y="165.1348">properties</text><line style="stroke:#A80036;stroke-width:1.0;stroke-dasharray:1.0,2.0;" x1="149" x2="234" y1="161.4775" y2="161.4775"/><!--MD5=[bdd100d69c5f6046c23c08a111c43f7f]
reverse link tosca.relationships.AttachesTo to MyAttachesTo--><path codeLine="3" d="M121,75.4413 C121,88.3919 121,102.3612 121,114.6685 " fill="none" id="tosca.relationships.AttachesTo-backto-MyAttachesTo" style="stroke:#A80036;stroke-width:1.0;"/><polygon fill="none" points="114.0001,75.0815,121,55.0814,128.0001,75.0814,114.0001,75.0815" style="stroke:#A80036;stroke-width:1.0;"/><!--MD5=[4806f181675a211eb0218b0d9eff8510]
@startuml
set namespaceSeparator none
class "tosca.relationships.AttachesTo" << (R,green) >> #DDDDDD
"tosca.relationships.AttachesTo" <|- - "MyAttachesTo"
class "MyAttachesTo" << (R,green) >> {
.. properties ..
+<b>location : string = /default_location
}
@enduml

PlantUML version 1.2021.13(Mon Nov 01 12:38:45 CET 2021)
(GPL source distribution)
Java Runtime: Java(TM) SE Runtime Environment
JVM: Java HotSpot(TM) 64-Bit Server VM
Default Encoding: UTF-8
Language: fr
Country: FR
--></g></svg>