<?xml version="1.0" encoding="UTF-8" standalone="no"?><svg xmlns="http://www.w3.org/2000/svg" xmlns:xlink="http://www.w3.org/1999/xlink" contentScriptType="application/ecmascript" contentStyleType="text/css" height="177px" preserveAspectRatio="none" style="width:176px;height:177px;background:#FFFFFF;" version="1.1" viewBox="0 0 176 177" width="176px" zoomAndPan="magnify"><defs><filter height="300%" id="f1dyh5vzlm7oma" width="300%" x="-1" y="-1"><feGaussianBlur result="blurOut" stdDeviation="2.0"/><feColorMatrix in="blurOut" result="blurOut2" type="matrix" values="0 0 0 0 0 0 0 0 0 0 0 0 0 0 0 0 0 0 .4 0"/><feOffset dx="4.0" dy="4.0" in="blurOut2" result="blurOut3"/><feBlend in="SourceGraphic" in2="blurOut3" mode="normal"/></filter></defs><g><!--MD5=[a747bbc9c8b77d03607e65f956f98ca0]
class AttachesTo--><rect codeLine="2" fill="#DDDDDD" filter="url(#f1dyh5vzlm7oma)" height="48" id="AttachesTo" style="stroke:#A80036;stroke-width:1.5;" width="96" x="36.5" y="7"/><ellipse cx="51.5" cy="23" fill="#008000" rx="11" ry="11" style="stroke:#A80036;stroke-width:1.0;"/><path d="M52.6987,23.1479 Q53.064,23.2227 53.3337,23.4924 Q53.6035,23.7622 53.9937,24.5425 L56.2349,29 L53.5454,29 L52.0513,25.8706 Q51.9849,25.7378 51.877,25.5054 Q51.2212,24.1025 50.333,24.1025 L49.5527,24.1025 L49.5527,29 L47.104,29 L47.104,16.6069 L50.6401,16.6069 Q53.0308,16.6069 54.0725,17.4536 Q55.1143,18.3003 55.1143,20.2095 Q55.1143,21.4878 54.4917,22.2432 Q53.8691,22.9985 52.6987,23.1479 Z M49.5527,18.6655 L49.5527,22.0439 L50.7065,22.0439 Q51.7109,22.0439 52.1467,21.6497 Q52.5825,21.2554 52.5825,20.3506 Q52.5825,19.4458 52.1509,19.0557 Q51.7192,18.6655 50.7065,18.6655 Z " fill="#000000"/><text fill="#000000" font-family="sans-serif" font-size="12" lengthAdjust="spacing" textLength="64" x="65.5" y="27.5352">AttachesTo</text><line style="stroke:#A80036;stroke-width:1.5;" x1="37.5" x2="131.5" y1="39" y2="39"/><line style="stroke:#A80036;stroke-width:1.5;" x1="37.5" x2="131.5" y1="47" y2="47"/><!--MD5=[db346d04bf4554427a3d9962d6d3d6e3]
class MyCustomAttachesTo--><rect codeLine="4" fill="#FEFECE" filter="url(#f1dyh5vzlm7oma)" height="48" id="MyCustomAttachesTo" style="stroke:#A80036;stroke-width:1.5;" width="155" x="7" y="115"/><ellipse cx="22" cy="131" fill="#008000" rx="11" ry="11" style="stroke:#A80036;stroke-width:1.0;"/><path d="M23.1987,131.1479 Q23.564,131.2227 23.8337,131.4924 Q24.1035,131.7622 24.4937,132.5425 L26.7349,137 L24.0454,137 L22.5513,133.8706 Q22.4849,133.7378 22.377,133.5054 Q21.7212,132.1025 20.833,132.1025 L20.0527,132.1025 L20.0527,137 L17.604,137 L17.604,124.6069 L21.1401,124.6069 Q23.5308,124.6069 24.5725,125.4536 Q25.6143,126.3003 25.6143,128.2095 Q25.6143,129.4878 24.9917,130.2432 Q24.3691,130.9985 23.1987,131.1479 Z M20.0527,126.6655 L20.0527,130.0439 L21.2065,130.0439 Q22.2109,130.0439 22.6467,129.6497 Q23.0825,129.2554 23.0825,128.3506 Q23.0825,127.4458 22.6509,127.0557 Q22.2192,126.6655 21.2065,126.6655 Z " fill="#000000"/><text fill="#000000" font-family="sans-serif" font-size="12" lengthAdjust="spacing" textLength="123" x="36" y="135.5352">MyCustomAttachesTo</text><line style="stroke:#A80036;stroke-width:1.5;" x1="8" x2="161" y1="147" y2="147"/><line style="stroke:#A80036;stroke-width:1.5;" x1="8" x2="161" y1="155" y2="155"/><!--MD5=[c2a84f2074ee28e80468d5bb33d3c68e]
reverse link AttachesTo to MyCustomAttachesTo--><path codeLine="3" d="M84.5,75.2911 C84.5,88.8171 84.5,103.1835 84.5,114.8436 " fill="none" id="AttachesTo-backto-MyCustomAttachesTo" style="stroke:#A80036;stroke-width:1.0;"/><polygon fill="none" points="77.5001,75.2373,84.5,55.2373,91.5001,75.2373,77.5001,75.2373" style="stroke:#A80036;stroke-width:1.0;"/><!--MD5=[586e589de4906c31f07f76661fdb9e64]
@startuml
set namespaceSeparator none
class "AttachesTo" << (R,green) >> #DDDDDD
"AttachesTo" <|- - "MyCustomAttachesTo"
class "MyCustomAttachesTo" << (R,green) >> {
}
@enduml

PlantUML version 1.2021.13(Mon Nov 01 12:38:45 CET 2021)
(GPL source distribution)
Java Runtime: Java(TM) SE Runtime Environment
JVM: Java HotSpot(TM) 64-Bit Server VM
Default Encoding: UTF-8
Language: fr
Country: FR
--></g></svg>