<?xml version="1.0" encoding="UTF-8" standalone="no"?><svg xmlns="http://www.w3.org/2000/svg" xmlns:xlink="http://www.w3.org/1999/xlink" contentScriptType="application/ecmascript" contentStyleType="text/css" height="198px" preserveAspectRatio="none" style="width:255px;height:198px;background:#FFFFFF;" version="1.1" viewBox="0 0 255 198" width="255px" zoomAndPan="magnify"><defs><filter height="300%" id="frwcjiro8kg7v" width="300%" x="-1" y="-1"><feGaussianBlur result="blurOut" stdDeviation="2.0"/><feColorMatrix in="blurOut" result="blurOut2" type="matrix" values="0 0 0 0 0 0 0 0 0 0 0 0 0 0 0 0 0 0 .4 0"/><feOffset dx="4.0" dy="4.0" in="blurOut2" result="blurOut3"/><feBlend in="SourceGraphic" in2="blurOut3" mode="normal"/></filter></defs><g><!--MD5=[7e5ccb913ad4872bc2e95462c5c9fac2]
class tosca.relationships.AttachesTo--><rect codeLine="2" fill="#DDDDDD" filter="url(#frwcjiro8kg7v)" height="48" id="tosca.relationships.AttachesTo" style="stroke:#A80036;stroke-width:1.5;" width="207" x="20.5" y="7"/><ellipse cx="35.5" cy="23" fill="#008000" rx="11" ry="11" style="stroke:#A80036;stroke-width:1.0;"/><path d="M36.6987,23.1479 Q37.064,23.2227 37.3337,23.4924 Q37.6035,23.7622 37.9937,24.5425 L40.2349,29 L37.5454,29 L36.0513,25.8706 Q35.9849,25.7378 35.877,25.5054 Q35.2212,24.1025 34.333,24.1025 L33.5527,24.1025 L33.5527,29 L31.104,29 L31.104,16.6069 L34.6401,16.6069 Q37.0308,16.6069 38.0725,17.4536 Q39.1143,18.3003 39.1143,20.2095 Q39.1143,21.4878 38.4917,22.2432 Q37.8691,22.9985 36.6987,23.1479 Z M33.5527,18.6655 L33.5527,22.0439 L34.7065,22.0439 Q35.7109,22.0439 36.1467,21.6497 Q36.5825,21.2554 36.5825,20.3506 Q36.5825,19.4458 36.1509,19.0557 Q35.7192,18.6655 34.7065,18.6655 Z " fill="#000000"/><text fill="#000000" font-family="sans-serif" font-size="12" lengthAdjust="spacing" textLength="175" x="49.5" y="27.5352">tosca.relationships.AttachesTo</text><line style="stroke:#A80036;stroke-width:1.5;" x1="21.5" x2="226.5" y1="39" y2="39"/><line style="stroke:#A80036;stroke-width:1.5;" x1="21.5" x2="226.5" y1="47" y2="47"/><!--MD5=[beaa30695766e35ff363c632ac700188]
class MyAttachesTo--><rect codeLine="4" fill="#FEFECE" filter="url(#frwcjiro8kg7v)" height="69.9102" id="MyAttachesTo" style="stroke:#A80036;stroke-width:1.5;" width="234" x="7" y="115"/><ellipse cx="79.75" cy="131" fill="#008000" rx="11" ry="11" style="stroke:#A80036;stroke-width:1.0;"/><path d="M80.9487,131.1479 Q81.314,131.2227 81.5837,131.4924 Q81.8535,131.7622 82.2437,132.5425 L84.4849,137 L81.7954,137 L80.3013,133.8706 Q80.2349,133.7378 80.127,133.5054 Q79.4712,132.1025 78.583,132.1025 L77.8027,132.1025 L77.8027,137 L75.354,137 L75.354,124.6069 L78.8901,124.6069 Q81.2808,124.6069 82.3225,125.4536 Q83.3643,126.3003 83.3643,128.2095 Q83.3643,129.4878 82.7417,130.2432 Q82.1191,130.9985 80.9487,131.1479 Z M77.8027,126.6655 L77.8027,130.0439 L78.9565,130.0439 Q79.9609,130.0439 80.3967,129.6497 Q80.8325,129.2554 80.8325,128.3506 Q80.8325,127.4458 80.4009,127.0557 Q79.9692,126.6655 78.9565,126.6655 Z " fill="#000000"/><text fill="#000000" font-family="sans-serif" font-size="12" lengthAdjust="spacing" textLength="80" x="100.25" y="135.5352">MyAttachesTo</text><line style="stroke:#A80036;stroke-width:1.5;" x1="8" x2="240" y1="147" y2="147"/><ellipse cx="18" cy="174.9551" rx="3" ry="3" style="stroke:#038048;stroke-width:1.0;fill:none;"/><text fill="#000000" font-family="sans-serif" font-size="11" font-weight="bold" lengthAdjust="spacing" textLength="208" x="27" y="178.5898">location : string = '/default_location'</text><line style="stroke:#A80036;stroke-width:1.0;stroke-dasharray:1.0,2.0;" x1="8" x2="96" y1="161.4775" y2="161.4775"/><text fill="#000000" font-family="sans-serif" font-size="11" lengthAdjust="spacing" textLength="56" x="96" y="165.1348">properties</text><line style="stroke:#A80036;stroke-width:1.0;stroke-dasharray:1.0,2.0;" x1="152" x2="240" y1="161.4775" y2="161.4775"/><!--MD5=[bdd100d69c5f6046c23c08a111c43f7f]
reverse link tosca.relationships.AttachesTo to MyAttachesTo--><path codeLine="3" d="M124,75.4413 C124,88.3919 124,102.3612 124,114.6685 " fill="none" id="tosca.relationships.AttachesTo-backto-MyAttachesTo" style="stroke:#A80036;stroke-width:1.0;"/><polygon fill="none" points="117.0001,75.0815,124,55.0814,131.0001,75.0814,117.0001,75.0815" style="stroke:#A80036;stroke-width:1.0;"/><!--MD5=[abfc81cddabc9e064812f431ee02cac4]
@startuml
set namespaceSeparator none
class "tosca.relationships.AttachesTo" << (R,green) >> #DDDDDD
"tosca.relationships.AttachesTo" <|- - "MyAttachesTo"
class "MyAttachesTo" << (R,green) >> {
.. properties ..
+<b>location : string = '/default_location'
}
@enduml

PlantUML version 1.2021.13(Mon Nov 01 12:38:45 CET 2021)
(GPL source distribution)
Java Runtime: Java(TM) SE Runtime Environment
JVM: Java HotSpot(TM) 64-Bit Server VM
Default Encoding: UTF-8
Language: fr
Country: FR
--></g></svg>