<?xml version="1.0" encoding="UTF-8" standalone="no"?><svg xmlns="http://www.w3.org/2000/svg" xmlns:xlink="http://www.w3.org/1999/xlink" contentScriptType="application/ecmascript" contentStyleType="text/css" height="181px" preserveAspectRatio="none" style="width:453px;height:181px;background:#FFFFFF;" version="1.1" viewBox="0 0 453 181" width="453px" zoomAndPan="magnify"><defs><filter height="300%" id="fbdsvcb0sey1s" width="300%" x="-1" y="-1"><feGaussianBlur result="blurOut" stdDeviation="2.0"/><feColorMatrix in="blurOut" result="blurOut2" type="matrix" values="0 0 0 0 0 0 0 0 0 0 0 0 0 0 0 0 0 0 .4 0"/><feOffset dx="4.0" dy="4.0" in="blurOut2" result="blurOut3"/><feBlend in="SourceGraphic" in2="blurOut3" mode="normal"/></filter></defs><g><!--MD5=[fe3463be6c4239935f06e0ae4bdadaa4]
entity node_my_server--><polygon fill="#FEFECE" filter="url(#fbdsvcb0sey1s)" points="16,16,26,6,196,6,196,42.4883,186,52.4883,16,52.4883,16,16" style="stroke:#000000;stroke-width:1.5;"/><line style="stroke:#000000;stroke-width:1.5;" x1="186" x2="196" y1="16" y2="6"/><line style="stroke:#000000;stroke-width:1.5;" x1="16" x2="186" y1="16" y2="16"/><line style="stroke:#000000;stroke-width:1.5;" x1="186" x2="186" y1="16" y2="52.4883"/><text fill="#000000" font-family="sans-serif" font-size="14" lengthAdjust="spacing" textLength="140" x="31" y="39.5352">my_server: Compute</text><!--MD5=[a4234fec20473da3d5886e3d21bb51b4]
entity node_my_server2--><polygon fill="#FEFECE" filter="url(#fbdsvcb0sey1s)" points="247.5,16,257.5,6,436.5,6,436.5,42.4883,426.5,52.4883,247.5,52.4883,247.5,16" style="stroke:#000000;stroke-width:1.5;"/><line style="stroke:#000000;stroke-width:1.5;" x1="426.5" x2="436.5" y1="16" y2="6"/><line style="stroke:#000000;stroke-width:1.5;" x1="247.5" x2="426.5" y1="16" y2="16"/><line style="stroke:#000000;stroke-width:1.5;" x1="426.5" x2="426.5" y1="16" y2="52.4883"/><text fill="#000000" font-family="sans-serif" font-size="14" lengthAdjust="spacing" textLength="149" x="262.5" y="39.5352">my_server2: Compute</text><!--MD5=[37aa297d2cd2906ec8917eab968865d4]
entity node_my_storage--><path d="M8,139 C8,129 106,129 106,129 C106,129 204,129 204,139 L204,164.4883 C204,174.4883 106,174.4883 106,174.4883 C106,174.4883 8,174.4883 8,164.4883 L8,139 " fill="#FEFECE" filter="url(#fbdsvcb0sey1s)" style="stroke:#000000;stroke-width:1.5;"/><path d="M8,139 C8,149 106,149 106,149 C106,149 204,149 204,139 " fill="none" style="stroke:#000000;stroke-width:1.5;"/><text fill="#000000" font-family="sans-serif" font-size="14" lengthAdjust="spacing" textLength="176" x="18" y="166.5352">my_storage: BlockStorage</text><!--MD5=[4b83c66a30f56318100215c7e0032462]
entity node_my_storage2--><path d="M239.5,139 C239.5,129 342,129 342,129 C342,129 444.5,129 444.5,139 L444.5,164.4883 C444.5,174.4883 342,174.4883 342,174.4883 C342,174.4883 239.5,174.4883 239.5,164.4883 L239.5,139 " fill="#FEFECE" filter="url(#fbdsvcb0sey1s)" style="stroke:#000000;stroke-width:1.5;"/><path d="M239.5,139 C239.5,149 342,149 342,149 C342,149 444.5,149 444.5,139 " fill="none" style="stroke:#000000;stroke-width:1.5;"/><text fill="#000000" font-family="sans-serif" font-size="14" lengthAdjust="spacing" textLength="185" x="249.5" y="166.5352">my_storage2: BlockStorage</text><!--MD5=[8f946dc020c9f34fbb58547064b8de5a]
link node_my_server to node_my_storage--><path codeLine="8" d="M106,52.0413 C106,72.4452 106,102.2679 106,123.9319 " fill="none" id="node_my_server-to-node_my_storage" style="stroke:#A80036;stroke-width:1.0;stroke-dasharray:7.0,7.0;"/><polygon fill="#A80036" points="106,128.9759,110,119.9759,106,123.9759,102,119.9759,106,128.9759" style="stroke:#A80036;stroke-width:1.0;"/><text fill="#000000" font-family="sans-serif" font-size="13" lengthAdjust="spacing" textLength="85" x="107" y="95.5684">«AttachesTo»</text><!--MD5=[81d69c7ddbdb3d0bc2814da86f426665]
link node_my_server2 to node_my_storage2--><path codeLine="9" d="M342,52.0413 C342,72.4452 342,102.2679 342,123.9319 " fill="none" id="node_my_server2-to-node_my_storage2" style="stroke:#A80036;stroke-width:1.0;stroke-dasharray:7.0,7.0;"/><polygon fill="#A80036" points="342,128.9759,346,119.9759,342,123.9759,338,119.9759,342,128.9759" style="stroke:#A80036;stroke-width:1.0;"/><text fill="#000000" font-family="sans-serif" font-size="13" lengthAdjust="spacing" textLength="85" x="343" y="95.5684">«AttachesTo»</text><!--MD5=[1b50810f2690b68a0c81f54750b1b269]
@startuml
skinparam componentStyle uml2
allowmixing

node "my_server: Compute" as node_my_server
node "my_server2: Compute" as node_my_server2
database "my_storage: BlockStorage" as node_my_storage
database "my_storage2: BlockStorage" as node_my_storage2
node_my_server ..> node_my_storage : <<AttachesTo>>
node_my_server2 ..> node_my_storage2 : <<AttachesTo>>
@enduml

PlantUML version 1.2021.13(Mon Nov 01 12:38:45 CET 2021)
(GPL source distribution)
Java Runtime: Java(TM) SE Runtime Environment
JVM: Java HotSpot(TM) 64-Bit Server VM
Default Encoding: UTF-8
Language: fr
Country: FR
--></g></svg>