<?xml version="1.0" encoding="UTF-8" standalone="no"?><svg xmlns="http://www.w3.org/2000/svg" xmlns:xlink="http://www.w3.org/1999/xlink" contentScriptType="application/ecmascript" contentStyleType="text/css" height="181px" preserveAspectRatio="none" style="width:562px;height:181px;background:#FFFFFF;" version="1.1" viewBox="0 0 562 181" width="562px" zoomAndPan="magnify"><defs><filter height="300%" id="fh6b5mu7tv2ya" width="300%" x="-1" y="-1"><feGaussianBlur result="blurOut" stdDeviation="2.0"/><feColorMatrix in="blurOut" result="blurOut2" type="matrix" values="0 0 0 0 0 0 0 0 0 0 0 0 0 0 0 0 0 0 .4 0"/><feOffset dx="4.0" dy="4.0" in="blurOut2" result="blurOut3"/><feBlend in="SourceGraphic" in2="blurOut3" mode="normal"/></filter></defs><g><!--MD5=[cfc1dfafb1802fa660fc1ba9ac9e0b24]
entity node_my_web_app_tier_1--><polygon fill="#FEFECE" filter="url(#fh6b5mu7tv2ya)" points="16,16,26,6,263,6,263,42.2969,253,52.2969,16,52.2969,16,16" style="stroke:#000000;stroke-width:1.5;"/><line style="stroke:#000000;stroke-width:1.5;" x1="253" x2="263" y1="16" y2="6"/><line style="stroke:#000000;stroke-width:1.5;" x1="16" x2="253" y1="16" y2="16"/><line style="stroke:#000000;stroke-width:1.5;" x1="253" x2="253" y1="16" y2="52.2969"/><text fill="#000000" font-family="sans-serif" font-size="14" lengthAdjust="spacing" textLength="207" x="31" y="38.9951">my_web_app_tier_1: Compute</text><!--MD5=[5567e1b8c8e741aded710beccfc80dfc]
entity node_my_web_app_tier_2--><polygon fill="#FEFECE" filter="url(#fh6b5mu7tv2ya)" points="298,16,308,6,545,6,545,42.2969,535,52.2969,298,52.2969,298,16" style="stroke:#000000;stroke-width:1.5;"/><line style="stroke:#000000;stroke-width:1.5;" x1="535" x2="545" y1="16" y2="6"/><line style="stroke:#000000;stroke-width:1.5;" x1="298" x2="535" y1="16" y2="16"/><line style="stroke:#000000;stroke-width:1.5;" x1="535" x2="535" y1="16" y2="52.2969"/><text fill="#000000" font-family="sans-serif" font-size="14" lengthAdjust="spacing" textLength="207" x="313" y="38.9951">my_web_app_tier_2: Compute</text><!--MD5=[37aa297d2cd2906ec8917eab968865d4]
entity node_my_storage--><path d="M180,139 C180,129 280.5,129 280.5,129 C280.5,129 381,129 381,139 L381,164.2969 C381,174.2969 280.5,174.2969 280.5,174.2969 C280.5,174.2969 180,174.2969 180,164.2969 L180,139 " fill="#FEFECE" filter="url(#fh6b5mu7tv2ya)" style="stroke:#000000;stroke-width:1.5;"/><path d="M180,139 C180,149 280.5,149 280.5,149 C280.5,149 381,149 381,139 " fill="none" style="stroke:#000000;stroke-width:1.5;"/><text fill="#000000" font-family="sans-serif" font-size="14" lengthAdjust="spacing" textLength="181" x="190" y="165.9951">my_storage: BlockStorage</text><!--MD5=[93c568ec8fe50e464036265b6ee24468]
link node_my_web_app_tier_1 to node_my_storage--><path codeLine="7" d="M165.36,52.1 C189.66,72.87 225.98,103.91 251.31,125.55 " fill="none" id="node_my_web_app_tier_1-to-node_my_storage" style="stroke:#A80036;stroke-width:1.0;stroke-dasharray:7.0,7.0;"/><polygon fill="#A80036" points="255.28,128.94,251.0306,120.0551,251.4767,125.6943,245.8374,126.1404,255.28,128.94" style="stroke:#A80036;stroke-width:1.0;"/><text fill="#000000" font-family="sans-serif" font-size="13" lengthAdjust="spacing" textLength="106" x="219.5" y="95.0669">«MyAttachesTo»</text><!--MD5=[86ba9c3fc815a7704bcd481a7aebea7c]
link node_my_web_app_tier_2 to node_my_storage--><path codeLine="8" d="M395.64,52.1 C371.34,72.87 335.02,103.91 309.69,125.55 " fill="none" id="node_my_web_app_tier_2-to-node_my_storage" style="stroke:#A80036;stroke-width:1.0;stroke-dasharray:7.0,7.0;"/><polygon fill="#A80036" points="305.72,128.94,315.1626,126.1404,309.5233,125.6943,309.9694,120.0551,305.72,128.94" style="stroke:#A80036;stroke-width:1.0;"/><text fill="#000000" font-family="sans-serif" font-size="13" lengthAdjust="spacing" textLength="106" x="359.5" y="95.0669">«MyAttachesTo»</text><!--MD5=[c963cc9113a33613c724a247264890f0]
@startuml
skinparam componentStyle uml2
allowmixing

node "my_web_app_tier_1: Compute" as node_my_web_app_tier_1
node "my_web_app_tier_2: Compute" as node_my_web_app_tier_2
database "my_storage: BlockStorage" as node_my_storage
node_my_web_app_tier_1 ..> node_my_storage : <<MyAttachesTo>>
node_my_web_app_tier_2 ..> node_my_storage : <<MyAttachesTo>>
@enduml

PlantUML version 1.2021.13(Mon Nov 01 11:38:45 GMT 2021)
(GPL source distribution)
Java Runtime: OpenJDK Runtime Environment
JVM: OpenJDK 64-Bit Server VM
Default Encoding: UTF-8
Language: en
Country: US
--></g></svg>