<?xml version="1.0" encoding="UTF-8" standalone="no"?><svg xmlns="http://www.w3.org/2000/svg" xmlns:xlink="http://www.w3.org/1999/xlink" contentScriptType="application/ecmascript" contentStyleType="text/css" height="181px" preserveAspectRatio="none" style="width:272px;height:181px;background:#FFFFFF;" version="1.1" viewBox="0 0 272 181" width="272px" zoomAndPan="magnify"><defs><filter height="300%" id="f1k9lsd2u2kc3q" width="300%" x="-1" y="-1"><feGaussianBlur result="blurOut" stdDeviation="2.0"/><feColorMatrix in="blurOut" result="blurOut2" type="matrix" values="0 0 0 0 0 0 0 0 0 0 0 0 0 0 0 0 0 0 .4 0"/><feOffset dx="4.0" dy="4.0" in="blurOut2" result="blurOut3"/><feBlend in="SourceGraphic" in2="blurOut3" mode="normal"/></filter></defs><g><!--MD5=[fe3463be6c4239935f06e0ae4bdadaa4]
entity node_my_server--><polygon fill="#FEFECE" filter="url(#f1k9lsd2u2kc3q)" points="16,16,26,6,199,6,199,42.2969,189,52.2969,16,52.2969,16,16" style="stroke:#000000;stroke-width:1.5;"/><line style="stroke:#000000;stroke-width:1.5;" x1="189" x2="199" y1="16" y2="6"/><line style="stroke:#000000;stroke-width:1.5;" x1="16" x2="189" y1="16" y2="16"/><line style="stroke:#000000;stroke-width:1.5;" x1="189" x2="189" y1="16" y2="52.2969"/><text fill="#000000" font-family="sans-serif" font-size="14" lengthAdjust="spacing" textLength="143" x="31" y="38.9951">my_server: Compute</text><!--MD5=[37aa297d2cd2906ec8917eab968865d4]
entity node_my_storage--><path d="M7,139 C7,129 107.5,129 107.5,129 C107.5,129 208,129 208,139 L208,164.2969 C208,174.2969 107.5,174.2969 107.5,174.2969 C107.5,174.2969 7,174.2969 7,164.2969 L7,139 " fill="#FEFECE" filter="url(#f1k9lsd2u2kc3q)" style="stroke:#000000;stroke-width:1.5;"/><path d="M7,139 C7,149 107.5,149 107.5,149 C107.5,149 208,149 208,139 " fill="none" style="stroke:#000000;stroke-width:1.5;"/><text fill="#000000" font-family="sans-serif" font-size="14" lengthAdjust="spacing" textLength="181" x="17" y="165.9951">my_storage: BlockStorage</text><!--MD5=[8f946dc020c9f34fbb58547064b8de5a]
link node_my_server to node_my_storage--><path codeLine="6" d="M107.5,52.1 C107.5,72.36 107.5,102.38 107.5,123.93 " fill="none" id="node_my_server-to-node_my_storage" style="stroke:#A80036;stroke-width:1.0;stroke-dasharray:7.0,7.0;"/><polygon fill="#A80036" points="107.5,128.94,111.5,119.94,107.5,123.94,103.5,119.94,107.5,128.94" style="stroke:#A80036;stroke-width:1.0;"/><text fill="#000000" font-family="sans-serif" font-size="13" lengthAdjust="spacing" textLength="156" x="108.5" y="95.0669">«MyCustomAttachesTo»</text><!--MD5=[1e1562673a68be8e434b8b939e25a3ea]
@startuml
skinparam componentStyle uml2
allowmixing

node "my_server: Compute" as node_my_server
database "my_storage: BlockStorage" as node_my_storage
node_my_server ..> node_my_storage : <<MyCustomAttachesTo>>
@enduml

PlantUML version 1.2021.13(Mon Nov 01 11:38:45 GMT 2021)
(GPL source distribution)
Java Runtime: OpenJDK Runtime Environment
JVM: OpenJDK 64-Bit Server VM
Default Encoding: UTF-8
Language: en
Country: US
--></g></svg>