<?xml version="1.0" encoding="UTF-8" standalone="no"?><svg xmlns="http://www.w3.org/2000/svg" xmlns:xlink="http://www.w3.org/1999/xlink" contentScriptType="application/ecmascript" contentStyleType="text/css" height="181px" preserveAspectRatio="none" style="width:213px;height:181px;background:#FFFFFF;" version="1.1" viewBox="0 0 213 181" width="213px" zoomAndPan="magnify"><defs><filter height="300%" id="f1uynl9x7ezgax" width="300%" x="-1" y="-1"><feGaussianBlur result="blurOut" stdDeviation="2.0"/><feColorMatrix in="blurOut" result="blurOut2" type="matrix" values="0 0 0 0 0 0 0 0 0 0 0 0 0 0 0 0 0 0 .4 0"/><feOffset dx="4.0" dy="4.0" in="blurOut2" result="blurOut3"/><feBlend in="SourceGraphic" in2="blurOut3" mode="normal"/></filter></defs><g><!--MD5=[fe3463be6c4239935f06e0ae4bdadaa4]
entity node_my_server--><polygon fill="#FEFECE" filter="url(#f1uynl9x7ezgax)" points="16,16,26,6,196,6,196,42.4883,186,52.4883,16,52.4883,16,16" style="stroke:#000000;stroke-width:1.5;"/><line style="stroke:#000000;stroke-width:1.5;" x1="186" x2="196" y1="16" y2="6"/><line style="stroke:#000000;stroke-width:1.5;" x1="16" x2="186" y1="16" y2="16"/><line style="stroke:#000000;stroke-width:1.5;" x1="186" x2="186" y1="16" y2="52.4883"/><text fill="#000000" font-family="sans-serif" font-size="14" lengthAdjust="spacing" textLength="140" x="31" y="39.5352">my_server: Compute</text><!--MD5=[37aa297d2cd2906ec8917eab968865d4]
entity node_my_storage--><path d="M8,139 C8,129 106,129 106,129 C106,129 204,129 204,139 L204,164.4883 C204,174.4883 106,174.4883 106,174.4883 C106,174.4883 8,174.4883 8,164.4883 L8,139 " fill="#FEFECE" filter="url(#f1uynl9x7ezgax)" style="stroke:#000000;stroke-width:1.5;"/><path d="M8,139 C8,149 106,149 106,149 C106,149 204,149 204,139 " fill="none" style="stroke:#000000;stroke-width:1.5;"/><text fill="#000000" font-family="sans-serif" font-size="14" lengthAdjust="spacing" textLength="176" x="18" y="166.5352">my_storage: BlockStorage</text><!--MD5=[8f946dc020c9f34fbb58547064b8de5a]
link node_my_server to node_my_storage--><path codeLine="6" d="M106,52.0413 C106,72.4452 106,102.2679 106,123.9319 " fill="none" id="node_my_server-to-node_my_storage" style="stroke:#A80036;stroke-width:1.0;stroke-dasharray:7.0,7.0;"/><polygon fill="#A80036" points="106,128.9759,110,119.9759,106,123.9759,102,119.9759,106,128.9759" style="stroke:#A80036;stroke-width:1.0;"/><text fill="#000000" font-family="sans-serif" font-size="13" lengthAdjust="spacing" textLength="85" x="107" y="95.5684">«AttachesTo»</text><!--MD5=[1980f212681605c5b3e3f05feb196641]
@startuml
skinparam componentStyle uml2
allowmixing

node "my_server: Compute" as node_my_server
database "my_storage: BlockStorage" as node_my_storage
node_my_server ..> node_my_storage : <<AttachesTo>>
@enduml

PlantUML version 1.2021.13(Mon Nov 01 12:38:45 CET 2021)
(GPL source distribution)
Java Runtime: Java(TM) SE Runtime Environment
JVM: Java HotSpot(TM) 64-Bit Server VM
Default Encoding: UTF-8
Language: fr
Country: FR
--></g></svg>