<?xml version="1.0" encoding="UTF-8" standalone="no"?><svg xmlns="http://www.w3.org/2000/svg" xmlns:xlink="http://www.w3.org/1999/xlink" contentScriptType="application/ecmascript" contentStyleType="text/css" height="198px" preserveAspectRatio="none" style="width:704px;height:198px;background:#FFFFFF;" version="1.1" viewBox="0 0 704 198" width="704px" zoomAndPan="magnify"><defs><filter height="300%" id="f1m8ahrr6qlsoe" width="300%" x="-1" y="-1"><feGaussianBlur result="blurOut" stdDeviation="2.0"/><feColorMatrix in="blurOut" result="blurOut2" type="matrix" values="0 0 0 0 0 0 0 0 0 0 0 0 0 0 0 0 0 0 .4 0"/><feOffset dx="4.0" dy="4.0" in="blurOut2" result="blurOut3"/><feBlend in="SourceGraphic" in2="blurOut3" mode="normal"/></filter></defs><g><!--MD5=[64b4d8b646f21ae4fe061769428b02aa]
class tosca.capabilities.Endpoint.Database--><rect codeLine="8" fill="#DDDDDD" filter="url(#f1m8ahrr6qlsoe)" height="48" id="tosca.capabilities.Endpoint.Database" style="stroke:#A80036;stroke-width:1.5;" width="267" x="214.5" y="7"/><ellipse cx="229.5" cy="23" fill="#008000" rx="11" ry="11" style="stroke:#A80036;stroke-width:1.0;"/><path d="M232.4688,28.6406 Q231.8906,28.9375 231.25,29.0781 Q230.6094,29.2344 229.9063,29.2344 Q227.4063,29.2344 226.0781,27.5938 Q224.7656,25.9375 224.7656,22.8125 Q224.7656,19.6875 226.0781,18.0313 Q227.4063,16.375 229.9063,16.375 Q230.6094,16.375 231.25,16.5313 Q231.9063,16.6875 232.4688,16.9844 L232.4688,19.7031 Q231.8438,19.125 231.25,18.8594 Q230.6563,18.5781 230.0313,18.5781 Q228.6875,18.5781 228,19.6563 Q227.3125,20.7188 227.3125,22.8125 Q227.3125,24.9063 228,25.9844 Q228.6875,27.0469 230.0313,27.0469 Q230.6563,27.0469 231.25,26.7813 Q231.8438,26.5 232.4688,25.9219 L232.4688,28.6406 Z " fill="#000000"/><text fill="#000000" font-family="sans-serif" font-size="12" lengthAdjust="spacing" textLength="235" x="243.5" y="27.1543">tosca.capabilities.Endpoint.Database</text><line style="stroke:#A80036;stroke-width:1.5;" x1="215.5" x2="480.5" y1="39" y2="39"/><line style="stroke:#A80036;stroke-width:1.5;" x1="215.5" x2="480.5" y1="47" y2="47"/><!--MD5=[67a83a96640875971f63258bd6372047]
class cassandra.Endpoint--><rect codeLine="4" fill="#FEFECE" filter="url(#f1m8ahrr6qlsoe)" height="69.6094" id="cassandra.Endpoint" style="stroke:#A80036;stroke-width:1.5;" width="324" x="7" y="115"/><ellipse cx="101.75" cy="131" fill="#008000" rx="11" ry="11" style="stroke:#A80036;stroke-width:1.0;"/><path d="M104.7188,136.6406 Q104.1406,136.9375 103.5,137.0781 Q102.8594,137.2344 102.1563,137.2344 Q99.6563,137.2344 98.3281,135.5938 Q97.0156,133.9375 97.0156,130.8125 Q97.0156,127.6875 98.3281,126.0313 Q99.6563,124.375 102.1563,124.375 Q102.8594,124.375 103.5,124.5313 Q104.1563,124.6875 104.7188,124.9844 L104.7188,127.7031 Q104.0938,127.125 103.5,126.8594 Q102.9063,126.5781 102.2813,126.5781 Q100.9375,126.5781 100.25,127.6563 Q99.5625,128.7188 99.5625,130.8125 Q99.5625,132.9063 100.25,133.9844 Q100.9375,135.0469 102.2813,135.0469 Q102.9063,135.0469 103.5,134.7813 Q104.0938,134.5 104.7188,133.9219 L104.7188,136.6406 Z " fill="#000000"/><text fill="#000000" font-family="sans-serif" font-size="12" lengthAdjust="spacing" textLength="126" x="122.25" y="135.1543">cassandra.Endpoint</text><line style="stroke:#A80036;stroke-width:1.5;" x1="8" x2="330" y1="147" y2="147"/><ellipse cx="18" cy="174.8047" rx="3" ry="3" style="stroke:#038048;stroke-width:1.0;fill:none;"/><text fill="#000000" font-family="sans-serif" font-size="11" font-weight="bold" lengthAdjust="spacing" textLength="298" x="27" y="178.0151">port : tosca.datatypes.network.PortDef = 7000</text><line style="stroke:#A80036;stroke-width:1.0;stroke-dasharray:1.0,2.0;" x1="8" x2="139.5" y1="161.4023" y2="161.4023"/><text fill="#000000" font-family="sans-serif" font-size="11" lengthAdjust="spacing" textLength="59" x="139.5" y="164.7104">properties</text><line style="stroke:#A80036;stroke-width:1.0;stroke-dasharray:1.0,2.0;" x1="198.5" x2="330" y1="161.4023" y2="161.4023"/><!--MD5=[ffcb40e5f1438568ac7312003e38cff8]
class cassandra.Endpoint.Thrift--><rect codeLine="10" fill="#FEFECE" filter="url(#f1m8ahrr6qlsoe)" height="69.6094" id="cassandra.Endpoint.Thrift" style="stroke:#A80036;stroke-width:1.5;" width="324" x="366" y="115"/><ellipse cx="442.75" cy="131" fill="#008000" rx="11" ry="11" style="stroke:#A80036;stroke-width:1.0;"/><path d="M445.7188,136.6406 Q445.1406,136.9375 444.5,137.0781 Q443.8594,137.2344 443.1563,137.2344 Q440.6563,137.2344 439.3281,135.5938 Q438.0156,133.9375 438.0156,130.8125 Q438.0156,127.6875 439.3281,126.0313 Q440.6563,124.375 443.1563,124.375 Q443.8594,124.375 444.5,124.5313 Q445.1563,124.6875 445.7188,124.9844 L445.7188,127.7031 Q445.0938,127.125 444.5,126.8594 Q443.9063,126.5781 443.2813,126.5781 Q441.9375,126.5781 441.25,127.6563 Q440.5625,128.7188 440.5625,130.8125 Q440.5625,132.9063 441.25,133.9844 Q441.9375,135.0469 443.2813,135.0469 Q443.9063,135.0469 444.5,134.7813 Q445.0938,134.5 445.7188,133.9219 L445.7188,136.6406 Z " fill="#000000"/><text fill="#000000" font-family="sans-serif" font-size="12" lengthAdjust="spacing" textLength="162" x="463.25" y="135.1543">cassandra.Endpoint.Thrift</text><line style="stroke:#A80036;stroke-width:1.5;" x1="367" x2="689" y1="147" y2="147"/><ellipse cx="377" cy="174.8047" rx="3" ry="3" style="stroke:#038048;stroke-width:1.0;fill:none;"/><text fill="#000000" font-family="sans-serif" font-size="11" font-weight="bold" lengthAdjust="spacing" textLength="298" x="386" y="178.0151">port : tosca.datatypes.network.PortDef = 9160</text><line style="stroke:#A80036;stroke-width:1.0;stroke-dasharray:1.0,2.0;" x1="367" x2="498.5" y1="161.4023" y2="161.4023"/><text fill="#000000" font-family="sans-serif" font-size="11" lengthAdjust="spacing" textLength="59" x="498.5" y="164.7104">properties</text><line style="stroke:#A80036;stroke-width:1.0;stroke-dasharray:1.0,2.0;" x1="557.5" x2="689" y1="161.4023" y2="161.4023"/><!--MD5=[bdd1d45ce3b0a6e6c542ba2ea2a6264e]
reverse link tosca.capabilities.Endpoint.Database to cassandra.Endpoint--><path codeLine="3" d="M295.66,66.21 C272.23,81.52 244.67,99.54 221.26,114.84 " fill="none" id="tosca.capabilities.Endpoint.Database-backto-cassandra.Endpoint" style="stroke:#A80036;stroke-width:1.0;"/><polygon fill="none" points="292.06,60.2,312.64,55.12,299.72,71.92,292.06,60.2" style="stroke:#A80036;stroke-width:1.0;"/><!--MD5=[cb79da5ee9535c7480669ec38ab50ab7]
reverse link tosca.capabilities.Endpoint.Database to cassandra.Endpoint.Thrift--><path codeLine="9" d="M400.63,66.21 C424.19,81.52 451.9,99.54 475.45,114.84 " fill="none" id="tosca.capabilities.Endpoint.Database-backto-cassandra.Endpoint.Thrift" style="stroke:#A80036;stroke-width:1.0;"/><polygon fill="none" points="396.52,71.88,383.56,55.12,404.15,60.15,396.52,71.88" style="stroke:#A80036;stroke-width:1.0;"/><!--MD5=[58f2d7510346429d76a1a5544b8e52cc]
@startuml
set namespaceSeparator none
class "tosca.capabilities.Endpoint.Database" << (C,green) >> #DDDDDD
"tosca.capabilities.Endpoint.Database" <|- - "cassandra.Endpoint"
class "cassandra.Endpoint" << (C,green) >> {
.. properties ..
+<b>port : tosca.datatypes.network.PortDef = 7000
}
class "tosca.capabilities.Endpoint.Database" << (C,green) >> #DDDDDD
"tosca.capabilities.Endpoint.Database" <|- - "cassandra.Endpoint.Thrift"
class "cassandra.Endpoint.Thrift" << (C,green) >> {
.. properties ..
+<b>port : tosca.datatypes.network.PortDef = 9160
}
@enduml

PlantUML version 1.2021.13(Mon Nov 01 11:38:45 GMT 2021)
(GPL source distribution)
Java Runtime: OpenJDK Runtime Environment
JVM: OpenJDK 64-Bit Server VM
Default Encoding: UTF-8
Language: en
Country: US
--></g></svg>