<?xml version="1.0" encoding="UTF-8" standalone="no"?><svg xmlns="http://www.w3.org/2000/svg" xmlns:xlink="http://www.w3.org/1999/xlink" contentScriptType="application/ecmascript" contentStyleType="text/css" height="198px" preserveAspectRatio="none" style="width:604px;height:198px;background:#FFFFFF;" version="1.1" viewBox="0 0 604 198" width="604px" zoomAndPan="magnify"><defs><filter height="300%" id="fto3iiqtfs2nc" width="300%" x="-1" y="-1"><feGaussianBlur result="blurOut" stdDeviation="2.0"/><feColorMatrix in="blurOut" result="blurOut2" type="matrix" values="0 0 0 0 0 0 0 0 0 0 0 0 0 0 0 0 0 0 .4 0"/><feOffset dx="4.0" dy="4.0" in="blurOut2" result="blurOut3"/><feBlend in="SourceGraphic" in2="blurOut3" mode="normal"/></filter></defs><g><!--MD5=[64b4d8b646f21ae4fe061769428b02aa]
class tosca.capabilities.Endpoint.Database--><rect codeLine="8" fill="#DDDDDD" filter="url(#fto3iiqtfs2nc)" height="48" id="tosca.capabilities.Endpoint.Database" style="stroke:#A80036;stroke-width:1.5;" width="245" x="175.5" y="7"/><ellipse cx="190.5" cy="23" fill="#008000" rx="11" ry="11" style="stroke:#A80036;stroke-width:1.0;"/><path d="M193.4731,28.6431 Q192.8921,28.9419 192.2529,29.0913 Q191.6138,29.2407 190.9082,29.2407 Q188.4014,29.2407 187.0815,27.5889 Q185.7617,25.937 185.7617,22.8159 Q185.7617,19.6865 187.0815,18.0347 Q188.4014,16.3828 190.9082,16.3828 Q191.6138,16.3828 192.2612,16.5322 Q192.9087,16.6816 193.4731,16.9805 L193.4731,19.7031 Q192.8423,19.1221 192.2488,18.8523 Q191.6553,18.5825 191.0244,18.5825 Q189.6797,18.5825 188.9949,19.6492 Q188.3101,20.7158 188.3101,22.8159 Q188.3101,24.9077 188.9949,25.9744 Q189.6797,27.041 191.0244,27.041 Q191.6553,27.041 192.2488,26.7712 Q192.8423,26.5015 193.4731,25.9204 Z " fill="#000000"/><text fill="#000000" font-family="sans-serif" font-size="12" lengthAdjust="spacing" textLength="213" x="204.5" y="27.5352">tosca.capabilities.Endpoint.Database</text><line style="stroke:#A80036;stroke-width:1.5;" x1="176.5" x2="419.5" y1="39" y2="39"/><line style="stroke:#A80036;stroke-width:1.5;" x1="176.5" x2="419.5" y1="47" y2="47"/><!--MD5=[67a83a96640875971f63258bd6372047]
class cassandra.Endpoint--><rect codeLine="4" fill="#FEFECE" filter="url(#fto3iiqtfs2nc)" height="69.9102" id="cassandra.Endpoint" style="stroke:#A80036;stroke-width:1.5;" width="274" x="7" y="115"/><ellipse cx="82.75" cy="131" fill="#008000" rx="11" ry="11" style="stroke:#A80036;stroke-width:1.0;"/><path d="M85.7231,136.6431 Q85.1421,136.9419 84.5029,137.0913 Q83.8638,137.2407 83.1582,137.2407 Q80.6514,137.2407 79.3315,135.5889 Q78.0117,133.937 78.0117,130.8159 Q78.0117,127.6865 79.3315,126.0347 Q80.6514,124.3828 83.1582,124.3828 Q83.8638,124.3828 84.5112,124.5322 Q85.1587,124.6816 85.7231,124.9805 L85.7231,127.7031 Q85.0923,127.1221 84.4988,126.8523 Q83.9053,126.5825 83.2744,126.5825 Q81.9297,126.5825 81.2449,127.6492 Q80.5601,128.7158 80.5601,130.8159 Q80.5601,132.9077 81.2449,133.9744 Q81.9297,135.041 83.2744,135.041 Q83.9053,135.041 84.4988,134.7712 Q85.0923,134.5015 85.7231,133.9204 Z " fill="#000000"/><text fill="#000000" font-family="sans-serif" font-size="12" lengthAdjust="spacing" textLength="114" x="103.25" y="135.5352">cassandra.Endpoint</text><line style="stroke:#A80036;stroke-width:1.5;" x1="8" x2="280" y1="147" y2="147"/><ellipse cx="18" cy="174.9551" rx="3" ry="3" style="stroke:#038048;stroke-width:1.0;fill:none;"/><text fill="#000000" font-family="sans-serif" font-size="11" lengthAdjust="spacing" textLength="248" x="27" y="178.5898">port : tosca.datatypes.network.PortDef = 7000</text><line style="stroke:#A80036;stroke-width:1.0;stroke-dasharray:1.0,2.0;" x1="8" x2="116" y1="161.4775" y2="161.4775"/><text fill="#000000" font-family="sans-serif" font-size="11" lengthAdjust="spacing" textLength="56" x="116" y="165.1348">properties</text><line style="stroke:#A80036;stroke-width:1.0;stroke-dasharray:1.0,2.0;" x1="172" x2="280" y1="161.4775" y2="161.4775"/><!--MD5=[ffcb40e5f1438568ac7312003e38cff8]
class cassandra.Endpoint.Thrift--><rect codeLine="10" fill="#FEFECE" filter="url(#fto3iiqtfs2nc)" height="69.9102" id="cassandra.Endpoint.Thrift" style="stroke:#A80036;stroke-width:1.5;" width="274" x="316" y="115"/><ellipse cx="374.25" cy="131" fill="#008000" rx="11" ry="11" style="stroke:#A80036;stroke-width:1.0;"/><path d="M377.2231,136.6431 Q376.6421,136.9419 376.0029,137.0913 Q375.3638,137.2407 374.6582,137.2407 Q372.1514,137.2407 370.8315,135.5889 Q369.5117,133.937 369.5117,130.8159 Q369.5117,127.6865 370.8315,126.0347 Q372.1514,124.3828 374.6582,124.3828 Q375.3638,124.3828 376.0112,124.5322 Q376.6587,124.6816 377.2231,124.9805 L377.2231,127.7031 Q376.5923,127.1221 375.9988,126.8523 Q375.4053,126.5825 374.7744,126.5825 Q373.4297,126.5825 372.7449,127.6492 Q372.0601,128.7158 372.0601,130.8159 Q372.0601,132.9077 372.7449,133.9744 Q373.4297,135.041 374.7744,135.041 Q375.4053,135.041 375.9988,134.7712 Q376.5923,134.5015 377.2231,133.9204 Z " fill="#000000"/><text fill="#000000" font-family="sans-serif" font-size="12" lengthAdjust="spacing" textLength="149" x="394.75" y="135.5352">cassandra.Endpoint.Thrift</text><line style="stroke:#A80036;stroke-width:1.5;" x1="317" x2="589" y1="147" y2="147"/><ellipse cx="327" cy="174.9551" rx="3" ry="3" style="stroke:#038048;stroke-width:1.0;fill:none;"/><text fill="#000000" font-family="sans-serif" font-size="11" lengthAdjust="spacing" textLength="248" x="336" y="178.5898">port : tosca.datatypes.network.PortDef = 9160</text><line style="stroke:#A80036;stroke-width:1.0;stroke-dasharray:1.0,2.0;" x1="317" x2="425" y1="161.4775" y2="161.4775"/><text fill="#000000" font-family="sans-serif" font-size="11" lengthAdjust="spacing" textLength="56" x="425" y="165.1348">properties</text><line style="stroke:#A80036;stroke-width:1.0;stroke-dasharray:1.0,2.0;" x1="481" x2="589" y1="161.4775" y2="161.4775"/><!--MD5=[bdd1d45ce3b0a6e6c542ba2ea2a6264e]
reverse link tosca.capabilities.Endpoint.Database to cassandra.Endpoint--><path codeLine="3" d="M250.9378,67.3663 C231.3919,82.4699 208.7976,99.9291 189.4273,114.8971 " fill="none" id="tosca.capabilities.Endpoint.Database-backto-cassandra.Endpoint" style="stroke:#A80036;stroke-width:1.0;"/><polygon fill="none" points="246.7299,61.7714,266.8358,55.0814,255.2902,72.8494,246.7299,61.7714" style="stroke:#A80036;stroke-width:1.0;"/><!--MD5=[cb79da5ee9535c7480669ec38ab50ab7]
reverse link tosca.capabilities.Endpoint.Database to cassandra.Endpoint.Thrift--><path codeLine="9" d="M345.3678,67.3663 C365.0407,82.4699 387.7817,99.9291 407.2777,114.8971 " fill="none" id="tosca.capabilities.Endpoint.Database-backto-cassandra.Endpoint.Thrift" style="stroke:#A80036;stroke-width:1.0;"/><polygon fill="none" points="340.9677,72.8132,329.3666,55.0814,349.4933,61.7085,340.9677,72.8132" style="stroke:#A80036;stroke-width:1.0;"/><!--MD5=[83e2744155335dffee64dffe21161391]
@startuml
set namespaceSeparator none
class "tosca.capabilities.Endpoint.Database" << (C,green) >> #DDDDDD
"tosca.capabilities.Endpoint.Database" <|- - "cassandra.Endpoint"
class "cassandra.Endpoint" << (C,green) >> {
.. properties ..
+port : tosca.datatypes.network.PortDef = 7000
}
class "tosca.capabilities.Endpoint.Database" << (C,green) >> #DDDDDD
"tosca.capabilities.Endpoint.Database" <|- - "cassandra.Endpoint.Thrift"
class "cassandra.Endpoint.Thrift" << (C,green) >> {
.. properties ..
+port : tosca.datatypes.network.PortDef = 9160
}
@enduml

PlantUML version 1.2021.13(Mon Nov 01 12:38:45 CET 2021)
(GPL source distribution)
Java Runtime: Java(TM) SE Runtime Environment
JVM: Java HotSpot(TM) 64-Bit Server VM
Default Encoding: UTF-8
Language: fr
Country: FR
--></g></svg>