<?xml version="1.0" encoding="UTF-8" standalone="no"?><svg xmlns="http://www.w3.org/2000/svg" xmlns:xlink="http://www.w3.org/1999/xlink" contentScriptType="application/ecmascript" contentStyleType="text/css" height="198px" preserveAspectRatio="none" style="width:622px;height:198px;background:#FFFFFF;" version="1.1" viewBox="0 0 622 198" width="622px" zoomAndPan="magnify"><defs><filter height="300%" id="f1m8ahrr6qlsoe" width="300%" x="-1" y="-1"><feGaussianBlur result="blurOut" stdDeviation="2.0"/><feColorMatrix in="blurOut" result="blurOut2" type="matrix" values="0 0 0 0 0 0 0 0 0 0 0 0 0 0 0 0 0 0 .4 0"/><feOffset dx="4.0" dy="4.0" in="blurOut2" result="blurOut3"/><feBlend in="SourceGraphic" in2="blurOut3" mode="normal"/></filter></defs><g><!--MD5=[64b4d8b646f21ae4fe061769428b02aa]
class tosca.capabilities.Endpoint.Database--><rect codeLine="8" fill="#DDDDDD" filter="url(#f1m8ahrr6qlsoe)" height="48" id="tosca.capabilities.Endpoint.Database" style="stroke:#A80036;stroke-width:1.5;" width="245" x="185" y="7"/><ellipse cx="200" cy="23" fill="#008000" rx="11" ry="11" style="stroke:#A80036;stroke-width:1.0;"/><path d="M202.9731,28.6431 Q202.3921,28.9419 201.7529,29.0913 Q201.1138,29.2407 200.4082,29.2407 Q197.9014,29.2407 196.5815,27.5889 Q195.2617,25.937 195.2617,22.8159 Q195.2617,19.6865 196.5815,18.0347 Q197.9014,16.3828 200.4082,16.3828 Q201.1138,16.3828 201.7612,16.5322 Q202.4087,16.6816 202.9731,16.9805 L202.9731,19.7031 Q202.3423,19.1221 201.7488,18.8523 Q201.1553,18.5825 200.5244,18.5825 Q199.1797,18.5825 198.4949,19.6492 Q197.8101,20.7158 197.8101,22.8159 Q197.8101,24.9077 198.4949,25.9744 Q199.1797,27.041 200.5244,27.041 Q201.1553,27.041 201.7488,26.7712 Q202.3423,26.5015 202.9731,25.9204 Z " fill="#000000"/><text fill="#000000" font-family="sans-serif" font-size="12" lengthAdjust="spacing" textLength="213" x="214" y="27.5352">tosca.capabilities.Endpoint.Database</text><line style="stroke:#A80036;stroke-width:1.5;" x1="186" x2="429" y1="39" y2="39"/><line style="stroke:#A80036;stroke-width:1.5;" x1="186" x2="429" y1="47" y2="47"/><!--MD5=[67a83a96640875971f63258bd6372047]
class cassandra.Endpoint--><rect codeLine="4" fill="#FEFECE" filter="url(#f1m8ahrr6qlsoe)" height="69.9102" id="cassandra.Endpoint" style="stroke:#A80036;stroke-width:1.5;" width="283" x="7" y="115"/><ellipse cx="87.25" cy="131" fill="#008000" rx="11" ry="11" style="stroke:#A80036;stroke-width:1.0;"/><path d="M90.2231,136.6431 Q89.6421,136.9419 89.0029,137.0913 Q88.3638,137.2407 87.6582,137.2407 Q85.1514,137.2407 83.8315,135.5889 Q82.5117,133.937 82.5117,130.8159 Q82.5117,127.6865 83.8315,126.0347 Q85.1514,124.3828 87.6582,124.3828 Q88.3638,124.3828 89.0112,124.5322 Q89.6587,124.6816 90.2231,124.9805 L90.2231,127.7031 Q89.5923,127.1221 88.9988,126.8523 Q88.4053,126.5825 87.7744,126.5825 Q86.4297,126.5825 85.7449,127.6492 Q85.0601,128.7158 85.0601,130.8159 Q85.0601,132.9077 85.7449,133.9744 Q86.4297,135.041 87.7744,135.041 Q88.4053,135.041 88.9988,134.7712 Q89.5923,134.5015 90.2231,133.9204 Z " fill="#000000"/><text fill="#000000" font-family="sans-serif" font-size="12" lengthAdjust="spacing" textLength="114" x="107.75" y="135.5352">cassandra.Endpoint</text><line style="stroke:#A80036;stroke-width:1.5;" x1="8" x2="289" y1="147" y2="147"/><ellipse cx="18" cy="174.9551" rx="3" ry="3" style="stroke:#038048;stroke-width:1.0;fill:none;"/><text fill="#000000" font-family="sans-serif" font-size="11" font-weight="bold" lengthAdjust="spacing" textLength="257" x="27" y="178.5898">port : tosca.datatypes.network.PortDef = 7000</text><line style="stroke:#A80036;stroke-width:1.0;stroke-dasharray:1.0,2.0;" x1="8" x2="120.5" y1="161.4775" y2="161.4775"/><text fill="#000000" font-family="sans-serif" font-size="11" lengthAdjust="spacing" textLength="56" x="120.5" y="165.1348">properties</text><line style="stroke:#A80036;stroke-width:1.0;stroke-dasharray:1.0,2.0;" x1="176.5" x2="289" y1="161.4775" y2="161.4775"/><!--MD5=[ffcb40e5f1438568ac7312003e38cff8]
class cassandra.Endpoint.Thrift--><rect codeLine="10" fill="#FEFECE" filter="url(#f1m8ahrr6qlsoe)" height="69.9102" id="cassandra.Endpoint.Thrift" style="stroke:#A80036;stroke-width:1.5;" width="283" x="325" y="115"/><ellipse cx="387.75" cy="131" fill="#008000" rx="11" ry="11" style="stroke:#A80036;stroke-width:1.0;"/><path d="M390.7231,136.6431 Q390.1421,136.9419 389.5029,137.0913 Q388.8638,137.2407 388.1582,137.2407 Q385.6514,137.2407 384.3315,135.5889 Q383.0117,133.937 383.0117,130.8159 Q383.0117,127.6865 384.3315,126.0347 Q385.6514,124.3828 388.1582,124.3828 Q388.8638,124.3828 389.5112,124.5322 Q390.1587,124.6816 390.7231,124.9805 L390.7231,127.7031 Q390.0923,127.1221 389.4988,126.8523 Q388.9053,126.5825 388.2744,126.5825 Q386.9297,126.5825 386.2449,127.6492 Q385.5601,128.7158 385.5601,130.8159 Q385.5601,132.9077 386.2449,133.9744 Q386.9297,135.041 388.2744,135.041 Q388.9053,135.041 389.4988,134.7712 Q390.0923,134.5015 390.7231,133.9204 Z " fill="#000000"/><text fill="#000000" font-family="sans-serif" font-size="12" lengthAdjust="spacing" textLength="149" x="408.25" y="135.5352">cassandra.Endpoint.Thrift</text><line style="stroke:#A80036;stroke-width:1.5;" x1="326" x2="607" y1="147" y2="147"/><ellipse cx="336" cy="174.9551" rx="3" ry="3" style="stroke:#038048;stroke-width:1.0;fill:none;"/><text fill="#000000" font-family="sans-serif" font-size="11" font-weight="bold" lengthAdjust="spacing" textLength="257" x="345" y="178.5898">port : tosca.datatypes.network.PortDef = 9160</text><line style="stroke:#A80036;stroke-width:1.0;stroke-dasharray:1.0,2.0;" x1="326" x2="438.5" y1="161.4775" y2="161.4775"/><text fill="#000000" font-family="sans-serif" font-size="11" lengthAdjust="spacing" textLength="56" x="438.5" y="165.1348">properties</text><line style="stroke:#A80036;stroke-width:1.0;stroke-dasharray:1.0,2.0;" x1="494.5" x2="607" y1="161.4775" y2="161.4775"/><!--MD5=[bdd1d45ce3b0a6e6c542ba2ea2a6264e]
reverse link tosca.capabilities.Endpoint.Database to cassandra.Endpoint--><path codeLine="3" d="M259.2138,67.1388 C238.9638,82.2944 215.5019,99.8539 195.4023,114.8971 " fill="none" id="tosca.capabilities.Endpoint.Database-backto-cassandra.Endpoint" style="stroke:#A80036;stroke-width:1.0;"/><polygon fill="none" points="255.1175,61.4611,275.324,55.0814,263.5063,72.6696,255.1175,61.4611" style="stroke:#A80036;stroke-width:1.0;"/><!--MD5=[cb79da5ee9535c7480669ec38ab50ab7]
reverse link tosca.capabilities.Endpoint.Database to cassandra.Endpoint.Thrift--><path codeLine="9" d="M355.7862,67.1388 C376.0362,82.2944 399.4981,99.8539 419.5977,114.8971 " fill="none" id="tosca.capabilities.Endpoint.Database-backto-cassandra.Endpoint.Thrift" style="stroke:#A80036;stroke-width:1.0;"/><polygon fill="none" points="351.4937,72.6696,339.676,55.0814,359.8825,61.4611,351.4937,72.6696" style="stroke:#A80036;stroke-width:1.0;"/><!--MD5=[6805605cefa4cce6a48306e2255f96e4]
@startuml
set namespaceSeparator none
class "tosca.capabilities.Endpoint.Database" << (C,green) >> #DDDDDD
"tosca.capabilities.Endpoint.Database" <|- - "cassandra.Endpoint"
class "cassandra.Endpoint" << (C,green) >> {
.. properties ..
+<b>port : tosca.datatypes.network.PortDef = 7000
}
class "tosca.capabilities.Endpoint.Database" << (C,green) >> #DDDDDD
"tosca.capabilities.Endpoint.Database" <|- - "cassandra.Endpoint.Thrift"
class "cassandra.Endpoint.Thrift" << (C,green) >> {
.. properties ..
+<b>port : tosca.datatypes.network.PortDef = 9160
}
@enduml

PlantUML version 1.2021.13(Mon Nov 01 12:38:45 CET 2021)
(GPL source distribution)
Java Runtime: Java(TM) SE Runtime Environment
JVM: Java HotSpot(TM) 64-Bit Server VM
Default Encoding: UTF-8
Language: fr
Country: FR
--></g></svg>