<?xml version="1.0" encoding="UTF-8" standalone="no"?><svg xmlns="http://www.w3.org/2000/svg" xmlns:xlink="http://www.w3.org/1999/xlink" contentScriptType="application/ecmascript" contentStyleType="text/css" height="557px" preserveAspectRatio="none" style="width:1472px;height:557px;background:#FFFFFF;" version="1.1" viewBox="0 0 1472 557" width="1472px" zoomAndPan="magnify"><defs><filter height="300%" id="fkmcftxhbpc41" width="300%" x="-1" y="-1"><feGaussianBlur result="blurOut" stdDeviation="2.0"/><feColorMatrix in="blurOut" result="blurOut2" type="matrix" values="0 0 0 0 0 0 0 0 0 0 0 0 0 0 0 0 0 0 .4 0"/><feOffset dx="4.0" dy="4.0" in="blurOut2" result="blurOut3"/><feBlend in="SourceGraphic" in2="blurOut3" mode="normal"/></filter></defs><g><!--MD5=[8c4f6a033e273add532353a41a1a9b42]
cluster substitution_mappings--><rect fill="#FFFFFF" filter="url(#fkmcftxhbpc41)" height="451" style="stroke:#000000;stroke-width:1.5;" width="1304" x="154.5" y="92"/><rect fill="#FFFFFF" height="10" style="stroke:#000000;stroke-width:1.5;" width="15" x="1438.5" y="97"/><rect fill="#FFFFFF" height="2" style="stroke:#000000;stroke-width:1.5;" width="4" x="1436.5" y="99"/><rect fill="#FFFFFF" height="2" style="stroke:#000000;stroke-width:1.5;" width="4" x="1436.5" y="103"/><text fill="#000000" font-family="sans-serif" font-size="14" font-weight="bold" lengthAdjust="spacing" textLength="110" x="751.5" y="118.5352">: ims.nodes.IMS</text><!--MD5=[fc906b18261449fa86954e64c809a08a]
entity node_sprout--><rect fill="#FEFECE" filter="url(#fkmcftxhbpc41)" height="46.4883" style="stroke:#A80036;stroke-width:1.5;" width="139" x="779" y="119"/><rect fill="#FEFECE" height="10" style="stroke:#A80036;stroke-width:1.5;" width="15" x="898" y="124"/><rect fill="#FEFECE" height="2" style="stroke:#A80036;stroke-width:1.5;" width="4" x="896" y="126"/><rect fill="#FEFECE" height="2" style="stroke:#A80036;stroke-width:1.5;" width="4" x="896" y="130"/><text fill="#000000" font-family="sans-serif" font-size="14" lengthAdjust="spacing" textLength="99" x="794" y="152.5352">sprout: Sprout</text><!--MD5=[9d8bdba731dc60db247d97edd16c69e4]
entity node_dime--><rect fill="#FEFECE" filter="url(#fkmcftxhbpc41)" height="46.4883" style="stroke:#A80036;stroke-width:1.5;" width="117" x="1127" y="119"/><rect fill="#FEFECE" height="10" style="stroke:#A80036;stroke-width:1.5;" width="15" x="1224" y="124"/><rect fill="#FEFECE" height="2" style="stroke:#A80036;stroke-width:1.5;" width="4" x="1222" y="126"/><rect fill="#FEFECE" height="2" style="stroke:#A80036;stroke-width:1.5;" width="4" x="1222" y="130"/><text fill="#000000" font-family="sans-serif" font-size="14" lengthAdjust="spacing" textLength="77" x="1142" y="152.5352">dime: Dime</text><!--MD5=[2a81c370cf31a6325962262b0e137732]
entity node_existing_host--><polygon fill="#FEFECE" filter="url(#fkmcftxhbpc41)" points="1279,129,1289,119,1450,119,1450,155.4883,1440,165.4883,1279,165.4883,1279,129" style="stroke:#000000;stroke-width:1.5;"/><line style="stroke:#000000;stroke-width:1.5;" x1="1440" x2="1450" y1="129" y2="119"/><line style="stroke:#000000;stroke-width:1.5;" x1="1279" x2="1440" y1="129" y2="129"/><line style="stroke:#000000;stroke-width:1.5;" x1="1440" x2="1440" y1="129" y2="165.4883"/><text fill="#000000" font-family="sans-serif" font-size="14" lengthAdjust="spacing" textLength="131" x="1294" y="152.5352">existing_host: Host</text><!--MD5=[445e9b139c9b0cc565b8fe69657823b8]
entity node_bono--><rect fill="#FEFECE" filter="url(#fkmcftxhbpc41)" height="46.4883" style="stroke:#A80036;stroke-width:1.5;" width="119" x="553" y="304"/><rect fill="#FEFECE" height="10" style="stroke:#A80036;stroke-width:1.5;" width="15" x="652" y="309"/><rect fill="#FEFECE" height="2" style="stroke:#A80036;stroke-width:1.5;" width="4" x="650" y="311"/><rect fill="#FEFECE" height="2" style="stroke:#A80036;stroke-width:1.5;" width="4" x="650" y="315"/><text fill="#000000" font-family="sans-serif" font-size="14" lengthAdjust="spacing" textLength="79" x="568" y="337.5352">bono: Bono</text><!--MD5=[ce41af7c2d353e0c410f43d9c4316cc3]
entity node_homestead--><rect fill="#FEFECE" filter="url(#fkmcftxhbpc41)" height="46.4883" style="stroke:#A80036;stroke-width:1.5;" width="201" x="543" y="119"/><rect fill="#FEFECE" height="10" style="stroke:#A80036;stroke-width:1.5;" width="15" x="724" y="124"/><rect fill="#FEFECE" height="2" style="stroke:#A80036;stroke-width:1.5;" width="4" x="722" y="126"/><rect fill="#FEFECE" height="2" style="stroke:#A80036;stroke-width:1.5;" width="4" x="722" y="130"/><text fill="#000000" font-family="sans-serif" font-size="14" lengthAdjust="spacing" textLength="161" x="558" y="152.5352">homestead: Homestead</text><!--MD5=[cd641f648c185b5ed965bd9a81b651b0]
entity node_ralf--><rect fill="#FEFECE" filter="url(#fkmcftxhbpc41)" height="46.4883" style="stroke:#A80036;stroke-width:1.5;" width="97" x="400" y="489"/><rect fill="#FEFECE" height="10" style="stroke:#A80036;stroke-width:1.5;" width="15" x="477" y="494"/><rect fill="#FEFECE" height="2" style="stroke:#A80036;stroke-width:1.5;" width="4" x="475" y="496"/><rect fill="#FEFECE" height="2" style="stroke:#A80036;stroke-width:1.5;" width="4" x="475" y="500"/><text fill="#000000" font-family="sans-serif" font-size="14" lengthAdjust="spacing" textLength="57" x="415" y="522.5352">ralf: Ralf</text><!--MD5=[c10e8e5ee801d8f14135d17027d296d8]
entity node_homer--><rect fill="#FEFECE" filter="url(#fkmcftxhbpc41)" height="46.4883" style="stroke:#A80036;stroke-width:1.5;" width="139" x="953" y="119"/><rect fill="#FEFECE" height="10" style="stroke:#A80036;stroke-width:1.5;" width="15" x="1072" y="124"/><rect fill="#FEFECE" height="2" style="stroke:#A80036;stroke-width:1.5;" width="4" x="1070" y="126"/><rect fill="#FEFECE" height="2" style="stroke:#A80036;stroke-width:1.5;" width="4" x="1070" y="130"/><text fill="#000000" font-family="sans-serif" font-size="14" lengthAdjust="spacing" textLength="99" x="968" y="152.5352">homer: Homer</text><!--MD5=[990c34e8fcb61030890d8d0258e925e4]
entity node_vellum--><rect fill="#FEFECE" filter="url(#fkmcftxhbpc41)" height="46.4883" style="stroke:#A80036;stroke-width:1.5;" width="140" x="377.5" y="304"/><rect fill="#FEFECE" height="10" style="stroke:#A80036;stroke-width:1.5;" width="15" x="497.5" y="309"/><rect fill="#FEFECE" height="2" style="stroke:#A80036;stroke-width:1.5;" width="4" x="495.5" y="311"/><rect fill="#FEFECE" height="2" style="stroke:#A80036;stroke-width:1.5;" width="4" x="495.5" y="315"/><text fill="#000000" font-family="sans-serif" font-size="14" lengthAdjust="spacing" textLength="100" x="392.5" y="337.5352">vellum: Vellum</text><!--MD5=[78f534de7627ac52831da1d731195c6f]
entity node_i_cscf--><rect fill="#FEFECE" filter="url(#fkmcftxhbpc41)" height="46.4883" style="stroke:#A80036;stroke-width:1.5;" width="134" x="197.5" y="119"/><rect fill="#FEFECE" height="10" style="stroke:#A80036;stroke-width:1.5;" width="15" x="311.5" y="124"/><rect fill="#FEFECE" height="2" style="stroke:#A80036;stroke-width:1.5;" width="4" x="309.5" y="126"/><rect fill="#FEFECE" height="2" style="stroke:#A80036;stroke-width:1.5;" width="4" x="309.5" y="130"/><text fill="#000000" font-family="sans-serif" font-size="14" lengthAdjust="spacing" textLength="94" x="212.5" y="152.5352">i-cscf: I-CSCF</text><!--MD5=[c95df3bd33fff18385b9ac9e71496019]
entity node_s_cscf--><rect fill="#FEFECE" filter="url(#fkmcftxhbpc41)" height="46.4883" style="stroke:#A80036;stroke-width:1.5;" width="141" x="367" y="119"/><rect fill="#FEFECE" height="10" style="stroke:#A80036;stroke-width:1.5;" width="15" x="488" y="124"/><rect fill="#FEFECE" height="2" style="stroke:#A80036;stroke-width:1.5;" width="4" x="486" y="126"/><rect fill="#FEFECE" height="2" style="stroke:#A80036;stroke-width:1.5;" width="4" x="486" y="130"/><text fill="#000000" font-family="sans-serif" font-size="14" lengthAdjust="spacing" textLength="101" x="382" y="152.5352">s-cscf: S-CSCF</text><!--MD5=[9bc4dbfdc2c0dc599d1fd9ce0985706d]
entity node_ellis--><rect fill="#FEFECE" filter="url(#fkmcftxhbpc41)" height="46.4883" style="stroke:#A80036;stroke-width:1.5;" width="102" x="236.5" y="304"/><rect fill="#FEFECE" height="10" style="stroke:#A80036;stroke-width:1.5;" width="15" x="318.5" y="309"/><rect fill="#FEFECE" height="2" style="stroke:#A80036;stroke-width:1.5;" width="4" x="316.5" y="311"/><rect fill="#FEFECE" height="2" style="stroke:#A80036;stroke-width:1.5;" width="4" x="316.5" y="315"/><text fill="#000000" font-family="sans-serif" font-size="14" lengthAdjust="spacing" textLength="62" x="251.5" y="337.5352">ellis: Ellis</text><!--MD5=[563d01739302bd30631170c7d1eb89b4]
entity node_smtp--><rect fill="#FEFECE" filter="url(#fkmcftxhbpc41)" height="46.4883" style="stroke:#A80036;stroke-width:1.5;" width="119" x="1126" y="304"/><rect fill="#FEFECE" height="10" style="stroke:#A80036;stroke-width:1.5;" width="15" x="1225" y="309"/><rect fill="#FEFECE" height="2" style="stroke:#A80036;stroke-width:1.5;" width="4" x="1223" y="311"/><rect fill="#FEFECE" height="2" style="stroke:#A80036;stroke-width:1.5;" width="4" x="1223" y="315"/><text fill="#000000" font-family="sans-serif" font-size="14" lengthAdjust="spacing" textLength="79" x="1141" y="337.5352">smtp: SMTP</text><!--MD5=[4f80b1ae613adee786d283052e5dfec8]
entity substitution_mappings_capability_p_cscf--><rect fill="#FEFECE" filter="url(#fkmcftxhbpc41)" height="46.4883" style="stroke:#A80036;stroke-width:1.5;" width="83" x="103" y="7"/><rect fill="#FEFECE" height="10" style="stroke:#A80036;stroke-width:1.5;" width="15" x="166" y="12"/><rect fill="#FEFECE" height="2" style="stroke:#A80036;stroke-width:1.5;" width="4" x="164" y="14"/><rect fill="#FEFECE" height="2" style="stroke:#A80036;stroke-width:1.5;" width="4" x="164" y="18"/><text fill="#000000" font-family="sans-serif" font-size="14" lengthAdjust="spacing" textLength="43" x="118" y="40.5352">p-cscf</text><!--MD5=[bbc48975b108baf365ee8356c6896bac]
entity substitution_mappings_capability_i_cscf--><rect fill="#FEFECE" filter="url(#fkmcftxhbpc41)" height="46.4883" style="stroke:#A80036;stroke-width:1.5;" width="78" x="223.5" y="7"/><rect fill="#FEFECE" height="10" style="stroke:#A80036;stroke-width:1.5;" width="15" x="281.5" y="12"/><rect fill="#FEFECE" height="2" style="stroke:#A80036;stroke-width:1.5;" width="4" x="279.5" y="14"/><rect fill="#FEFECE" height="2" style="stroke:#A80036;stroke-width:1.5;" width="4" x="279.5" y="18"/><text fill="#000000" font-family="sans-serif" font-size="14" lengthAdjust="spacing" textLength="38" x="238.5" y="40.5352">i-cscf</text><!--MD5=[6c6c680de3cba8f5015d3c75707926d1]
entity substitution_mappings_capability_s_cscf--><rect fill="#FEFECE" filter="url(#fkmcftxhbpc41)" height="46.4883" style="stroke:#A80036;stroke-width:1.5;" width="81" x="367" y="7"/><rect fill="#FEFECE" height="10" style="stroke:#A80036;stroke-width:1.5;" width="15" x="428" y="12"/><rect fill="#FEFECE" height="2" style="stroke:#A80036;stroke-width:1.5;" width="4" x="426" y="14"/><rect fill="#FEFECE" height="2" style="stroke:#A80036;stroke-width:1.5;" width="4" x="426" y="18"/><text fill="#000000" font-family="sans-serif" font-size="14" lengthAdjust="spacing" textLength="41" x="382" y="40.5352">s-cscf</text><!--MD5=[deb72084770315e28608e1db1325e59e]
entity substitution_mappings_capability_hss--><rect fill="#FEFECE" filter="url(#fkmcftxhbpc41)" height="46.4883" style="stroke:#A80036;stroke-width:1.5;" width="63" x="547" y="7"/><rect fill="#FEFECE" height="10" style="stroke:#A80036;stroke-width:1.5;" width="15" x="590" y="12"/><rect fill="#FEFECE" height="2" style="stroke:#A80036;stroke-width:1.5;" width="4" x="588" y="14"/><rect fill="#FEFECE" height="2" style="stroke:#A80036;stroke-width:1.5;" width="4" x="588" y="18"/><text fill="#000000" font-family="sans-serif" font-size="14" lengthAdjust="spacing" textLength="23" x="562" y="40.5352">hss</text><!--MD5=[650029e6a28714890359b7bf8ed3802c]
entity substitution_mappings_capability_ctf--><rect fill="#FEFECE" filter="url(#fkmcftxhbpc41)" height="46.4883" style="stroke:#A80036;stroke-width:1.5;" width="57" x="7" y="7"/><rect fill="#FEFECE" height="10" style="stroke:#A80036;stroke-width:1.5;" width="15" x="44" y="12"/><rect fill="#FEFECE" height="2" style="stroke:#A80036;stroke-width:1.5;" width="4" x="42" y="14"/><rect fill="#FEFECE" height="2" style="stroke:#A80036;stroke-width:1.5;" width="4" x="42" y="18"/><text fill="#000000" font-family="sans-serif" font-size="14" lengthAdjust="spacing" textLength="17" x="22" y="40.5352">ctf</text><!--MD5=[a4322a54fbd04e5939bbdb76c2791580]
entity substitution_mappings_capability_xdms--><rect fill="#FEFECE" filter="url(#fkmcftxhbpc41)" height="46.4883" style="stroke:#A80036;stroke-width:1.5;" width="78" x="814.5" y="7"/><rect fill="#FEFECE" height="10" style="stroke:#A80036;stroke-width:1.5;" width="15" x="872.5" y="12"/><rect fill="#FEFECE" height="2" style="stroke:#A80036;stroke-width:1.5;" width="4" x="870.5" y="14"/><rect fill="#FEFECE" height="2" style="stroke:#A80036;stroke-width:1.5;" width="4" x="870.5" y="18"/><text fill="#000000" font-family="sans-serif" font-size="14" lengthAdjust="spacing" textLength="38" x="829.5" y="40.5352">xdms</text><!--MD5=[17185fdc824b1dbfb203f2a6d1fa4c08]
link node_bono to node_sprout--><path codeLine="23" d="M643.4689,303.6579 C665.5919,286.9085 696.006,263.7299 722.5,243 C754.5666,217.9099 790.8015,188.7818 816.155,168.2723 " fill="none" id="node_bono-to-node_sprout" style="stroke:#A80036;stroke-width:1.0;stroke-dasharray:7.0,7.0;"/><polygon fill="#A80036" points="820.1283,165.0565,810.616,167.6093,816.2417,168.2021,815.6489,173.8278,820.1283,165.0565" style="stroke:#A80036;stroke-width:1.0;"/><text fill="#000000" font-family="sans-serif" font-size="13" lengthAdjust="spacing" textLength="89" x="744.5" y="239.5684">«ConnectsTo»</text><!--MD5=[17185fdc824b1dbfb203f2a6d1fa4c08]
link node_bono to node_sprout--><path codeLine="24" d="M608.5803,303.6005 C606.2112,281.3161 606.3915,247.9992 623.5,226 C633.3385,213.349 712.5123,185.5965 774.1921,165.4443 " fill="none" id="node_bono-to-node_sprout-1" style="stroke:#A80036;stroke-width:1.0;stroke-dasharray:7.0,7.0;"/><polygon fill="#A80036" points="778.9757,163.8852,769.1792,162.8711,774.2218,165.4346,771.6583,170.4773,778.9757,163.8852" style="stroke:#A80036;stroke-width:1.0;"/><text fill="#000000" font-family="sans-serif" font-size="13" lengthAdjust="spacing" textLength="89" x="624.5" y="239.5684">«ConnectsTo»</text><!--MD5=[e1cd8ca1a81271ae6f3f3a91cb166d8c]
link node_sprout to node_bono--><path codeLine="27" d="M778.7224,160.5542 C772.8993,162.0699 767.1004,163.5683 761.5,165 C651.9473,193.0069 584.2157,136.9725 514.5,226 C493.0198,253.4303 525.8763,281.6397 559.2008,301.2493 " fill="none" id="node_sprout-to-node_bono" style="stroke:#A80036;stroke-width:1.0;stroke-dasharray:7.0,7.0;"/><polygon fill="#A80036" points="563.6873,303.8378,557.8906,295.8755,559.3564,301.3391,553.8928,302.8049,563.6873,303.8378" style="stroke:#A80036;stroke-width:1.0;"/><text fill="#000000" font-family="sans-serif" font-size="13" lengthAdjust="spacing" textLength="89" x="515.5" y="239.5684">«ConnectsTo»</text><!--MD5=[b5fc97fe7b3612d6a46b391c72c8f03c]
link node_bono to node_ralf--><path codeLine="25" d="M599.7891,350.3652 C587.5971,371.7222 567.9203,403.6014 546.5,428 C527.9448,449.1351 504.0282,469.7369 484.4673,485.2482 " fill="none" id="node_bono-to-node_ralf" style="stroke:#A80036;stroke-width:1.0;stroke-dasharray:7.0,7.0;"/><polygon fill="#A80036" points="480.108,488.6782,489.6545,486.2564,484.0374,485.5863,484.7075,479.9693,480.108,488.6782" style="stroke:#A80036;stroke-width:1.0;"/><text fill="#000000" font-family="sans-serif" font-size="13" lengthAdjust="spacing" textLength="89" x="559.5" y="424.5684">«ConnectsTo»</text><!--MD5=[50ae655f6573d026fce4861cd8744523]
link node_sprout to node_ralf--><path codeLine="26" d="M875.5833,165.0097 C892.6584,182.1841 911.5,207.2981 911.5,234.5 C911.5,234.5 911.5,234.5 911.5,419.5 C911.5,460.7935 624.6399,494.3906 502.5101,506.8233 " fill="none" id="node_sprout-to-node_ralf" style="stroke:#A80036;stroke-width:1.0;stroke-dasharray:7.0,7.0;"/><polygon fill="#A80036" points="497.174,507.3637,506.5313,510.4364,502.1485,506.8598,505.7251,502.4771,497.174,507.3637" style="stroke:#A80036;stroke-width:1.0;"/><text fill="#000000" font-family="sans-serif" font-size="13" lengthAdjust="spacing" textLength="89" x="912.5" y="332.0684">«ConnectsTo»</text><!--MD5=[caff12cd744a1024831a608e5ac2367a]
link node_vellum to node_ralf--><path codeLine="28" d="M447.6246,350.0563 C447.8078,383.9378 448.1493,447.1123 448.3472,483.7397 " fill="none" id="node_vellum-to-node_ralf" style="stroke:#A80036;stroke-width:1.0;stroke-dasharray:7.0,7.0;"/><polygon fill="#A80036" points="448.3754,488.9444,452.3265,479.9228,448.3483,483.9445,444.3266,479.9662,448.3754,488.9444" style="stroke:#A80036;stroke-width:1.0;"/><text fill="#000000" font-family="sans-serif" font-size="13" lengthAdjust="spacing" textLength="89" x="448.5" y="424.5684">«ConnectsTo»</text><!--MD5=[08765601cf5900871c3b62388e9e59ae]
link node_ellis to node_ralf--><path codeLine="29" d="M298.6418,350.0788 C309.6179,371.525 327.725,403.7186 348.5,428 C366.9403,449.5526 391.2384,470.1004 411.2656,485.4785 " fill="none" id="node_ellis-to-node_ralf" style="stroke:#A80036;stroke-width:1.0;stroke-dasharray:7.0,7.0;"/><polygon fill="#A80036" points="415.4707,488.68,410.7329,480.0456,411.4925,485.6512,405.8868,486.4107,415.4707,488.68" style="stroke:#A80036;stroke-width:1.0;"/><text fill="#000000" font-family="sans-serif" font-size="13" lengthAdjust="spacing" textLength="89" x="349.5" y="424.5684">«ConnectsTo»</text><!--MD5=[01ac9204f751d098ceaca12179a5e9b0]
link substitution_mappings_capability_p_cscf to substitution_mappings--><!--MD5=[2327689e015262c2157fa9e776ce7bc7]
link substitution_mappings_capability_p_cscf to node_bono--><path codeLine="32" d="M137.0153,53.2067 C129.202,82.22 121.0492,132.0664 144.5,165 C156.6712,182.0928 422.4858,267.3398 547.9801,306.8429 " fill="none" id="substitution_mappings_capability_p_cscf-to-node_bono" style="stroke:#A80036;stroke-width:1.0;stroke-dasharray:7.0,7.0;"/><polygon fill="#A80036" points="552.7507,308.3438,545.3662,301.8269,547.9812,306.8431,542.9651,309.4581,552.7507,308.3438" style="stroke:#A80036;stroke-width:1.0;"/><!--MD5=[33de4fd5c8a13e964768c76c7efabd1e]
link substitution_mappings_capability_i_cscf to substitution_mappings--><!--MD5=[a043871dd833ed899cb7e179a39122bf]
link substitution_mappings_capability_i_cscf to node_i_cscf--><path codeLine="34" d="M262.9144,53.2065 C263.2282,70.7766 263.6607,94.9965 263.9947,113.7033 " fill="none" id="substitution_mappings_capability_i_cscf-to-node_i_cscf" style="stroke:#A80036;stroke-width:1.0;stroke-dasharray:7.0,7.0;"/><polygon fill="#A80036" points="264.0861,118.8233,267.9248,109.7533,263.9968,113.8241,259.926,109.8962,264.0861,118.8233" style="stroke:#A80036;stroke-width:1.0;"/><!--MD5=[f75b4e5d67178f89fd16a736516d776d]
link substitution_mappings_capability_s_cscf to substitution_mappings--><!--MD5=[9f97a73f4a3ff29f830df876a00635f3]
link substitution_mappings_capability_s_cscf to node_s_cscf--><path codeLine="36" d="M413.716,53.2065 C418.4223,70.7766 424.9098,94.9965 429.9205,113.7033 " fill="none" id="substitution_mappings_capability_s_cscf-to-node_s_cscf" style="stroke:#A80036;stroke-width:1.0;stroke-dasharray:7.0,7.0;"/><polygon fill="#A80036" points="431.2919,118.8233,432.827,109.0948,429.9982,113.9936,425.0994,111.1648,431.2919,118.8233" style="stroke:#A80036;stroke-width:1.0;"/><!--MD5=[b6022f2d226f97b314a6b55c0a433a56]
link substitution_mappings_capability_hss to substitution_mappings--><!--MD5=[caa7f602adb5242b110696d047daec18]
link substitution_mappings_capability_hss to node_homestead--><path codeLine="38" d="M591.968,53.2065 C602.2521,70.9267 616.4618,95.411 627.3555,114.1817 " fill="none" id="substitution_mappings_capability_hss-to-node_homestead" style="stroke:#A80036;stroke-width:1.0;stroke-dasharray:7.0,7.0;"/><polygon fill="#A80036" points="630.0492,118.8233,628.9911,109.0314,627.5394,114.4988,622.072,113.0471,630.0492,118.8233" style="stroke:#A80036;stroke-width:1.0;"/><!--MD5=[c70bfbeb268102111147c1e4202cb63f]
link substitution_mappings_capability_ctf to substitution_mappings--><!--MD5=[723396eed7ecc8912a5cde46d638824b]
link substitution_mappings_capability_ctf to node_ralf--><path codeLine="40" d="M32.8805,53.132 C30.5474,75.7553 27.5,111.1995 27.5,142 C27.5,142 27.5,142 27.5,419.5 C27.5,456.6913 281.3702,491.9005 394.829,505.779 " fill="none" id="substitution_mappings_capability_ctf-to-node_ralf" style="stroke:#A80036;stroke-width:1.0;stroke-dasharray:7.0,7.0;"/><polygon fill="#A80036" points="399.7947,506.3837,391.3444,501.3248,394.8314,505.7791,390.3771,509.2661,399.7947,506.3837" style="stroke:#A80036;stroke-width:1.0;"/><!--MD5=[ff231961dc0905ab32cbbc7e7fb91fe9]
link substitution_mappings_capability_xdms to substitution_mappings--><!--MD5=[7cc0be94d8d5e4ed2c97d0c45366a1fb]
link substitution_mappings_capability_xdms to node_homer--><path codeLine="42" d="M888.5169,53.2065 C916.0486,71.4523 954.4012,96.8695 983.0213,115.8366 " fill="none" id="substitution_mappings_capability_xdms-to-node_homer" style="stroke:#A80036;stroke-width:1.0;stroke-dasharray:7.0,7.0;"/><polygon fill="#A80036" points="987.528,118.8233,982.2356,110.5172,983.3602,116.0612,977.8162,117.1857,987.528,118.8233" style="stroke:#A80036;stroke-width:1.0;"/><!--MD5=[68415aefab5d1c070c967ba9f3a42de8]
link node_dime to node_existing_host--><!--MD5=[079f93a8d0dda9ab276167c8957bb7f7]
link node_dime to node_smtp--><!--MD5=[6a3351be891dafaa55557f7e48b2b54c]
@startuml
skinparam componentStyle uml2
allowmixing

component "p-cscf" as substitution_mappings_capability_p_cscf
component "i-cscf" as substitution_mappings_capability_i_cscf
component "s-cscf" as substitution_mappings_capability_s_cscf
component "hss" as substitution_mappings_capability_hss
component "ctf" as substitution_mappings_capability_ctf
component "xdms" as substitution_mappings_capability_xdms
component ": ims.nodes.IMS" as substitution_mappings {
component "sprout: Sprout" as node_sprout
component "dime: Dime" as node_dime
node "existing_host: Host" as node_existing_host
component "bono: Bono" as node_bono
component "homestead: Homestead" as node_homestead
component "ralf: Ralf" as node_ralf
component "homer: Homer" as node_homer
component "vellum: Vellum" as node_vellum
component "i-cscf: I-CSCF" as node_i_cscf
component "s-cscf: S-CSCF" as node_s_cscf
component "ellis: Ellis" as node_ellis
component "smtp: SMTP" as node_smtp
node_bono ..> node_sprout : <<ConnectsTo>>
node_bono ..> node_sprout : <<ConnectsTo>>
node_bono ..> node_ralf : <<ConnectsTo>>
node_sprout ..> node_ralf : <<ConnectsTo>>
node_sprout ..> node_bono : <<ConnectsTo>>
node_vellum ..> node_ralf : <<ConnectsTo>>
node_ellis ..> node_ralf : <<ConnectsTo>>
}
substitution_mappings_capability_p_cscf -[hidden]- substitution_mappings
substitution_mappings_capability_p_cscf ..> node_bono
substitution_mappings_capability_i_cscf -[hidden]- substitution_mappings
substitution_mappings_capability_i_cscf ..> node_i_cscf
substitution_mappings_capability_s_cscf -[hidden]- substitution_mappings
substitution_mappings_capability_s_cscf ..> node_s_cscf
substitution_mappings_capability_hss -[hidden]- substitution_mappings
substitution_mappings_capability_hss ..> node_homestead
substitution_mappings_capability_ctf -[hidden]- substitution_mappings
substitution_mappings_capability_ctf ..> node_ralf
substitution_mappings_capability_xdms -[hidden]- substitution_mappings
substitution_mappings_capability_xdms ..> node_homer
@enduml

PlantUML version 1.2021.13(Mon Nov 01 12:38:45 CET 2021)
(GPL source distribution)
Java Runtime: Java(TM) SE Runtime Environment
JVM: Java HotSpot(TM) 64-Bit Server VM
Default Encoding: UTF-8
Language: fr
Country: FR
--></g></svg>