<?xml version="1.0" encoding="UTF-8" standalone="no"?><svg xmlns="http://www.w3.org/2000/svg" xmlns:xlink="http://www.w3.org/1999/xlink" contentScriptType="application/ecmascript" contentStyleType="text/css" height="1310px" preserveAspectRatio="none" style="width:1943px;height:1310px;background:#FFFFFF;" version="1.1" viewBox="0 0 1943 1310" width="1943px" zoomAndPan="magnify"><defs><filter height="300%" id="f72uhkh62jrfw" width="300%" x="-1" y="-1"><feGaussianBlur result="blurOut" stdDeviation="2.0"/><feColorMatrix in="blurOut" result="blurOut2" type="matrix" values="0 0 0 0 0 0 0 0 0 0 0 0 0 0 0 0 0 0 .4 0"/><feOffset dx="4.0" dy="4.0" in="blurOut2" result="blurOut3"/><feBlend in="SourceGraphic" in2="blurOut3" mode="normal"/></filter></defs><g><!--MD5=[8c4f6a033e273add532353a41a1a9b42]
cluster substitution_mappings--><rect fill="#FFFFFF" filter="url(#f72uhkh62jrfw)" height="1204" style="stroke:#000000;stroke-width:1.5;" width="1582" x="8" y="92"/><rect fill="#FFFFFF" height="10" style="stroke:#000000;stroke-width:1.5;" width="15" x="1570" y="97"/><rect fill="#FFFFFF" height="2" style="stroke:#000000;stroke-width:1.5;" width="4" x="1568" y="99"/><rect fill="#FFFFFF" height="2" style="stroke:#000000;stroke-width:1.5;" width="4" x="1568" y="103"/><text fill="#000000" font-family="sans-serif" font-size="14" font-weight="bold" lengthAdjust="spacing" textLength="110" x="744" y="118.5352">: ims.nodes.IMS</text><!--MD5=[2add88f37374b4434719d2a1be588e87]
cluster node_existing_host--><polygon fill="#FFFFFF" filter="url(#f72uhkh62jrfw)" points="16,129,26,119,1263,119,1263,1278,1253,1288,16,1288,16,129" style="stroke:#000000;stroke-width:1.5;"/><line style="stroke:#000000;stroke-width:1.5;" x1="1253" x2="1263" y1="129" y2="119"/><line style="stroke:#000000;stroke-width:1.5;" x1="16" x2="1253" y1="129" y2="129"/><line style="stroke:#000000;stroke-width:1.5;" x1="1253" x2="1253" y1="129" y2="1288"/><text fill="#000000" font-family="sans-serif" font-size="14" font-weight="bold" lengthAdjust="spacing" textLength="139" x="566" y="145.5352">existing_host: Host</text><!--MD5=[af0af5f7d3487b709000f2add3fd916d]
cluster node_dime--><rect fill="#FFFFFF" filter="url(#f72uhkh62jrfw)" height="81" style="stroke:#000000;stroke-width:1.5;" width="350" x="845" y="898"/><rect fill="#FFFFFF" height="10" style="stroke:#000000;stroke-width:1.5;" width="15" x="1175" y="903"/><rect fill="#FFFFFF" height="2" style="stroke:#000000;stroke-width:1.5;" width="4" x="1173" y="905"/><rect fill="#FFFFFF" height="2" style="stroke:#000000;stroke-width:1.5;" width="4" x="1173" y="909"/><text fill="#000000" font-family="sans-serif" font-size="14" font-weight="bold" lengthAdjust="spacing" textLength="82" x="979" y="924.5352">dime: Dime</text><!--MD5=[78f534de7627ac52831da1d731195c6f]
entity node_i_cscf--><rect fill="#FEFECE" filter="url(#f72uhkh62jrfw)" height="46.4883" style="stroke:#A80036;stroke-width:1.5;" width="134" x="1448" y="365"/><rect fill="#FEFECE" height="10" style="stroke:#A80036;stroke-width:1.5;" width="15" x="1562" y="370"/><rect fill="#FEFECE" height="2" style="stroke:#A80036;stroke-width:1.5;" width="4" x="1560" y="372"/><rect fill="#FEFECE" height="2" style="stroke:#A80036;stroke-width:1.5;" width="4" x="1560" y="376"/><text fill="#000000" font-family="sans-serif" font-size="14" lengthAdjust="spacing" textLength="94" x="1463" y="398.5352">i-cscf: I-CSCF</text><!--MD5=[c95df3bd33fff18385b9ac9e71496019]
entity node_s_cscf--><rect fill="#FEFECE" filter="url(#f72uhkh62jrfw)" height="46.4883" style="stroke:#A80036;stroke-width:1.5;" width="141" x="1271.5" y="365"/><rect fill="#FEFECE" height="10" style="stroke:#A80036;stroke-width:1.5;" width="15" x="1392.5" y="370"/><rect fill="#FEFECE" height="2" style="stroke:#A80036;stroke-width:1.5;" width="4" x="1390.5" y="372"/><rect fill="#FEFECE" height="2" style="stroke:#A80036;stroke-width:1.5;" width="4" x="1390.5" y="376"/><text fill="#000000" font-family="sans-serif" font-size="14" lengthAdjust="spacing" textLength="101" x="1286.5" y="398.5352">s-cscf: S-CSCF</text><!--MD5=[445e9b139c9b0cc565b8fe69657823b8]
entity node_bono--><rect fill="#FEFECE" filter="url(#f72uhkh62jrfw)" height="46.4883" style="stroke:#A80036;stroke-width:1.5;" width="119" x="241.5" y="151"/><rect fill="#FEFECE" height="10" style="stroke:#A80036;stroke-width:1.5;" width="15" x="340.5" y="156"/><rect fill="#FEFECE" height="2" style="stroke:#A80036;stroke-width:1.5;" width="4" x="338.5" y="158"/><rect fill="#FEFECE" height="2" style="stroke:#A80036;stroke-width:1.5;" width="4" x="338.5" y="162"/><text fill="#000000" font-family="sans-serif" font-size="14" lengthAdjust="spacing" textLength="79" x="256.5" y="184.5352">bono: Bono</text><!--MD5=[fc906b18261449fa86954e64c809a08a]
entity node_sprout--><rect fill="#FEFECE" filter="url(#f72uhkh62jrfw)" height="46.4883" style="stroke:#A80036;stroke-width:1.5;" width="139" x="150.5" y="550"/><rect fill="#FEFECE" height="10" style="stroke:#A80036;stroke-width:1.5;" width="15" x="269.5" y="555"/><rect fill="#FEFECE" height="2" style="stroke:#A80036;stroke-width:1.5;" width="4" x="267.5" y="557"/><rect fill="#FEFECE" height="2" style="stroke:#A80036;stroke-width:1.5;" width="4" x="267.5" y="561"/><text fill="#000000" font-family="sans-serif" font-size="14" lengthAdjust="spacing" textLength="99" x="165.5" y="583.5352">sprout: Sprout</text><!--MD5=[c10e8e5ee801d8f14135d17027d296d8]
entity node_homer--><rect fill="#FEFECE" filter="url(#f72uhkh62jrfw)" height="46.4883" style="stroke:#A80036;stroke-width:1.5;" width="139" x="588.5" y="925"/><rect fill="#FEFECE" height="10" style="stroke:#A80036;stroke-width:1.5;" width="15" x="707.5" y="930"/><rect fill="#FEFECE" height="2" style="stroke:#A80036;stroke-width:1.5;" width="4" x="705.5" y="932"/><rect fill="#FEFECE" height="2" style="stroke:#A80036;stroke-width:1.5;" width="4" x="705.5" y="936"/><text fill="#000000" font-family="sans-serif" font-size="14" lengthAdjust="spacing" textLength="99" x="603.5" y="958.5352">homer: Homer</text><!--MD5=[990c34e8fcb61030890d8d0258e925e4]
entity node_vellum--><rect fill="#FEFECE" filter="url(#f72uhkh62jrfw)" height="46.4883" style="stroke:#A80036;stroke-width:1.5;" width="140" x="533" y="1234"/><rect fill="#FEFECE" height="10" style="stroke:#A80036;stroke-width:1.5;" width="15" x="653" y="1239"/><rect fill="#FEFECE" height="2" style="stroke:#A80036;stroke-width:1.5;" width="4" x="651" y="1241"/><rect fill="#FEFECE" height="2" style="stroke:#A80036;stroke-width:1.5;" width="4" x="651" y="1245"/><text fill="#000000" font-family="sans-serif" font-size="14" lengthAdjust="spacing" textLength="100" x="548" y="1267.5352">vellum: Vellum</text><!--MD5=[9bc4dbfdc2c0dc599d1fd9ce0985706d]
entity node_ellis--><rect fill="#FEFECE" filter="url(#f72uhkh62jrfw)" height="46.4883" style="stroke:#A80036;stroke-width:1.5;" width="102" x="791" y="550"/><rect fill="#FEFECE" height="10" style="stroke:#A80036;stroke-width:1.5;" width="15" x="873" y="555"/><rect fill="#FEFECE" height="2" style="stroke:#A80036;stroke-width:1.5;" width="4" x="871" y="557"/><rect fill="#FEFECE" height="2" style="stroke:#A80036;stroke-width:1.5;" width="4" x="871" y="561"/><text fill="#000000" font-family="sans-serif" font-size="14" lengthAdjust="spacing" textLength="62" x="806" y="583.5352">ellis: Ellis</text><!--MD5=[563d01739302bd30631170c7d1eb89b4]
entity node_smtp--><rect fill="#FEFECE" filter="url(#f72uhkh62jrfw)" height="46.4883" style="stroke:#A80036;stroke-width:1.5;" width="119" x="432.5" y="925"/><rect fill="#FEFECE" height="10" style="stroke:#A80036;stroke-width:1.5;" width="15" x="531.5" y="930"/><rect fill="#FEFECE" height="2" style="stroke:#A80036;stroke-width:1.5;" width="4" x="529.5" y="932"/><rect fill="#FEFECE" height="2" style="stroke:#A80036;stroke-width:1.5;" width="4" x="529.5" y="936"/><text fill="#000000" font-family="sans-serif" font-size="14" lengthAdjust="spacing" textLength="79" x="447.5" y="958.5352">smtp: SMTP</text><!--MD5=[ce41af7c2d353e0c410f43d9c4316cc3]
entity node_homestead--><rect fill="#FEFECE" filter="url(#f72uhkh62jrfw)" height="46.4883" style="stroke:#A80036;stroke-width:1.5;" width="201" x="985.5" y="925"/><rect fill="#FEFECE" height="10" style="stroke:#A80036;stroke-width:1.5;" width="15" x="1166.5" y="930"/><rect fill="#FEFECE" height="2" style="stroke:#A80036;stroke-width:1.5;" width="4" x="1164.5" y="932"/><rect fill="#FEFECE" height="2" style="stroke:#A80036;stroke-width:1.5;" width="4" x="1164.5" y="936"/><text fill="#000000" font-family="sans-serif" font-size="14" lengthAdjust="spacing" textLength="161" x="1000.5" y="958.5352">homestead: Homestead</text><!--MD5=[cd641f648c185b5ed965bd9a81b651b0]
entity node_ralf--><rect fill="#FEFECE" filter="url(#f72uhkh62jrfw)" height="46.4883" style="stroke:#A80036;stroke-width:1.5;" width="97" x="853.5" y="925"/><rect fill="#FEFECE" height="10" style="stroke:#A80036;stroke-width:1.5;" width="15" x="930.5" y="930"/><rect fill="#FEFECE" height="2" style="stroke:#A80036;stroke-width:1.5;" width="4" x="928.5" y="932"/><rect fill="#FEFECE" height="2" style="stroke:#A80036;stroke-width:1.5;" width="4" x="928.5" y="936"/><text fill="#000000" font-family="sans-serif" font-size="14" lengthAdjust="spacing" textLength="57" x="868.5" y="958.5352">ralf: Ralf</text><!--MD5=[4f80b1ae613adee786d283052e5dfec8]
entity substitution_mappings_capability_p_cscf--><rect fill="#FEFECE" filter="url(#f72uhkh62jrfw)" height="46.4883" style="stroke:#A80036;stroke-width:1.5;" width="87" x="257.5" y="7"/><rect fill="#FEFECE" height="10" style="stroke:#A80036;stroke-width:1.5;" width="15" x="324.5" y="12"/><rect fill="#FEFECE" height="2" style="stroke:#A80036;stroke-width:1.5;" width="4" x="322.5" y="14"/><rect fill="#FEFECE" height="2" style="stroke:#A80036;stroke-width:1.5;" width="4" x="322.5" y="18"/><text fill="#000000" font-family="sans-serif" font-size="14" lengthAdjust="spacing" textLength="47" x="272.5" y="40.5352">a node</text><!--MD5=[bbc48975b108baf365ee8356c6896bac]
entity substitution_mappings_capability_i_cscf--><rect fill="#FEFECE" filter="url(#f72uhkh62jrfw)" height="46.4883" style="stroke:#A80036;stroke-width:1.5;" width="87" x="1720.5" y="258"/><rect fill="#FEFECE" height="10" style="stroke:#A80036;stroke-width:1.5;" width="15" x="1787.5" y="263"/><rect fill="#FEFECE" height="2" style="stroke:#A80036;stroke-width:1.5;" width="4" x="1785.5" y="265"/><rect fill="#FEFECE" height="2" style="stroke:#A80036;stroke-width:1.5;" width="4" x="1785.5" y="269"/><text fill="#000000" font-family="sans-serif" font-size="14" lengthAdjust="spacing" textLength="47" x="1735.5" y="291.5352">a node</text><!--MD5=[6c6c680de3cba8f5015d3c75707926d1]
entity substitution_mappings_capability_s_cscf--><rect fill="#FEFECE" filter="url(#f72uhkh62jrfw)" height="46.4883" style="stroke:#A80036;stroke-width:1.5;" width="87" x="1598.5" y="258"/><rect fill="#FEFECE" height="10" style="stroke:#A80036;stroke-width:1.5;" width="15" x="1665.5" y="263"/><rect fill="#FEFECE" height="2" style="stroke:#A80036;stroke-width:1.5;" width="4" x="1663.5" y="265"/><rect fill="#FEFECE" height="2" style="stroke:#A80036;stroke-width:1.5;" width="4" x="1663.5" y="269"/><text fill="#000000" font-family="sans-serif" font-size="14" lengthAdjust="spacing" textLength="47" x="1613.5" y="291.5352">a node</text><!--MD5=[deb72084770315e28608e1db1325e59e]
entity substitution_mappings_capability_hss--><rect fill="#FEFECE" filter="url(#f72uhkh62jrfw)" height="46.4883" style="stroke:#A80036;stroke-width:1.5;" width="87" x="1842.5" y="813"/><rect fill="#FEFECE" height="10" style="stroke:#A80036;stroke-width:1.5;" width="15" x="1909.5" y="818"/><rect fill="#FEFECE" height="2" style="stroke:#A80036;stroke-width:1.5;" width="4" x="1907.5" y="820"/><rect fill="#FEFECE" height="2" style="stroke:#A80036;stroke-width:1.5;" width="4" x="1907.5" y="824"/><text fill="#000000" font-family="sans-serif" font-size="14" lengthAdjust="spacing" textLength="47" x="1857.5" y="846.5352">a node</text><!--MD5=[650029e6a28714890359b7bf8ed3802c]
entity substitution_mappings_capability_ctf--><rect fill="#FEFECE" filter="url(#f72uhkh62jrfw)" height="46.4883" style="stroke:#A80036;stroke-width:1.5;" width="87" x="1720.5" y="813"/><rect fill="#FEFECE" height="10" style="stroke:#A80036;stroke-width:1.5;" width="15" x="1787.5" y="818"/><rect fill="#FEFECE" height="2" style="stroke:#A80036;stroke-width:1.5;" width="4" x="1785.5" y="820"/><rect fill="#FEFECE" height="2" style="stroke:#A80036;stroke-width:1.5;" width="4" x="1785.5" y="824"/><text fill="#000000" font-family="sans-serif" font-size="14" lengthAdjust="spacing" textLength="47" x="1735.5" y="846.5352">a node</text><!--MD5=[a4322a54fbd04e5939bbdb76c2791580]
entity substitution_mappings_capability_xdms--><rect fill="#FEFECE" filter="url(#f72uhkh62jrfw)" height="46.4883" style="stroke:#A80036;stroke-width:1.5;" width="87" x="1598.5" y="813"/><rect fill="#FEFECE" height="10" style="stroke:#A80036;stroke-width:1.5;" width="15" x="1665.5" y="818"/><rect fill="#FEFECE" height="2" style="stroke:#A80036;stroke-width:1.5;" width="4" x="1663.5" y="820"/><rect fill="#FEFECE" height="2" style="stroke:#A80036;stroke-width:1.5;" width="4" x="1663.5" y="824"/><text fill="#000000" font-family="sans-serif" font-size="14" lengthAdjust="spacing" textLength="47" x="1613.5" y="846.5352">a node</text><!--MD5=[17185fdc824b1dbfb203f2a6d1fa4c08]
link node_bono to node_sprout--><path codeLine="25" d="M269.4513,197.0482 C246.7079,216.5538 220,246.7507 220,281 C220,281 220,281 220,480.5 C220,501.8936 220,526.0705 220,544.3405 " fill="none" id="node_bono-to-node_sprout" style="stroke:#A80036;stroke-width:1.0;stroke-dasharray:7.0,7.0;"/><polygon fill="#A80036" points="220,549.8112,224,540.8112,220,544.8112,216,540.8112,220,549.8112" style="stroke:#A80036;stroke-width:1.0;"/><text fill="#000000" font-family="sans-serif" font-size="13" lengthAdjust="spacing" textLength="89" x="221" y="393.0684">«ConnectsTo»</text><!--MD5=[17185fdc824b1dbfb203f2a6d1fa4c08]
link node_bono to node_sprout--><path codeLine="26" d="M241.4902,187.8387 C169.8363,206.2681 59,241.2067 59,281 C59,281 59,281 59,480.5 C59,523.8007 103.325,547.1278 145.4602,559.5205 " fill="none" id="node_bono-to-node_sprout-1" style="stroke:#A80036;stroke-width:1.0;stroke-dasharray:7.0,7.0;"/><polygon fill="#A80036" points="150.3194,560.9052,142.76,554.592,145.5108,559.535,140.5678,562.2858,150.3194,560.9052" style="stroke:#A80036;stroke-width:1.0;"/><text fill="#000000" font-family="sans-serif" font-size="13" lengthAdjust="spacing" textLength="89" x="60" y="393.0684">«ConnectsTo»</text><!--MD5=[e1cd8ca1a81271ae6f3f3a91cb166d8c]
link node_sprout to node_bono--><path codeLine="29" d="M289.6806,560.9052 C333.1927,548.8962 381,525.4695 381,480.5 C381,281 381,281 381,281 C381,248.9019 357.6225,220.2391 336.1419,200.6772 " fill="none" id="node_sprout-to-node_bono" style="stroke:#A80036;stroke-width:1.0;stroke-dasharray:7.0,7.0;"/><polygon fill="#A80036" points="332.1592,197.1317,336.2218,206.1036,335.8938,200.4563,341.5411,200.1283,332.1592,197.1317" style="stroke:#A80036;stroke-width:1.0;"/><text fill="#000000" font-family="sans-serif" font-size="13" lengthAdjust="spacing" textLength="89" x="382" y="393.0684">«ConnectsTo»</text><!--MD5=[b5fc97fe7b3612d6a46b391c72c8f03c]
link node_bono to node_ralf--><path codeLine="27" d="M336.2947,197.2613 C380.5807,228.9459 453.8915,290.359 480,365 C486.7502,384.2979 481.5021,390.6108 480,411 C468.8189,562.7692 361.7695,627.3013 449,752 C557.4788,907.0737 687.97,798.5774 849,898 C859.3599,904.3964 869.4216,913.0509 877.945,921.3614 " fill="none" id="node_bono-to-node_ralf" style="stroke:#A80036;stroke-width:1.0;stroke-dasharray:7.0,7.0;"/><polygon fill="#A80036" points="881.5,924.8943,877.9357,915.713,877.9534,921.3699,872.2966,921.3876,881.5,924.8943" style="stroke:#A80036;stroke-width:1.0;"/><text fill="#000000" font-family="sans-serif" font-size="13" lengthAdjust="spacing" textLength="89" x="445" y="578.0684">«ConnectsTo»</text><!--MD5=[50ae655f6573d026fce4861cd8744523]
link node_sprout to node_ralf--><path codeLine="28" d="M253.1041,596.1161 C272.807,612.8149 294,637.3251 294,665.5 C294,665.5 294,665.5 294,836 C294,896.8646 368.8235,849.8738 429,859 C532.287,874.6642 557.9317,880.8694 662,890 C682.7172,891.8177 829.841,889.9106 849,898 C860.9304,903.0373 871.7947,912.0418 880.5376,921.035 " fill="none" id="node_sprout-to-node_ralf" style="stroke:#A80036;stroke-width:1.0;stroke-dasharray:7.0,7.0;"/><polygon fill="#A80036" points="884.1516,924.877,880.8987,915.5808,880.7258,921.235,875.0716,921.0621,884.1516,924.877" style="stroke:#A80036;stroke-width:1.0;"/><text fill="#000000" font-family="sans-serif" font-size="13" lengthAdjust="spacing" textLength="89" x="295" y="748.5684">«ConnectsTo»</text><!--MD5=[fa180f5aca37e95f0767861a2cd8c553]
link node_sprout to node_homer--><path codeLine="30" d="M179.302,596.0535 C156.6593,612.1782 133,636.0685 133,665.5 C133,665.5 133,665.5 133,836 C133,907.6921 214.5281,876.8295 285,890 C347.0616,901.5987 508.1514,881.1591 569,898 C587.4231,903.0989 606.1208,912.777 621.5914,922.2705 " fill="none" id="node_sprout-to-node_homer" style="stroke:#A80036;stroke-width:1.0;stroke-dasharray:7.0,7.0;"/><polygon fill="#A80036" points="625.8664,924.9392,620.3502,916.7801,621.625,922.2914,616.1137,923.5662,625.8664,924.9392" style="stroke:#A80036;stroke-width:1.0;"/><text fill="#000000" font-family="sans-serif" font-size="13" lengthAdjust="spacing" textLength="89" x="134" y="748.5684">«ConnectsTo»</text><!--MD5=[70b5470bf16ce4e08e461936245b93d6]
link node_sprout to node_vellum--><path codeLine="31" d="M150.1153,586.5374 C109.8904,595.9055 64.9906,609.6146 53,626 C19.9291,671.192 52.1432,696.0066 53,752 C54.3335,839.1417 59,860.8481 59,948 C59,948 59,948 59,1172.5 C59,1219.3743 378.4487,1244.0289 527.7564,1252.9923 " fill="none" id="node_sprout-to-node_vellum" style="stroke:#A80036;stroke-width:1.0;stroke-dasharray:7.0,7.0;"/><polygon fill="#A80036" points="532.9952,1253.3045,524.2492,1248.776,528.0041,1253.0069,523.7731,1256.7618,532.9952,1253.3045" style="stroke:#A80036;stroke-width:1.0;"/><text fill="#000000" font-family="sans-serif" font-size="13" lengthAdjust="spacing" textLength="89" x="60" y="953.0684">«ConnectsTo»</text><!--MD5=[70b5470bf16ce4e08e461936245b93d6]
link node_sprout to node_vellum--><path codeLine="32" d="M175.9874,596.1747 C163.2543,604.3672 150.0857,614.4582 140,626 C127.7758,639.989 97.4555,700.1739 90,735 C80.2789,780.4093 107.4211,829.5229 124,859 C135.2728,879.0428 144.4828,879.3969 158,898 C189.52,941.3797 220,947.8781 220,1001.5 C220,1001.5 220,1001.5 220,1172.5 C220,1203.6681 415.9142,1233.4766 527.503,1247.9271 " fill="none" id="node_sprout-to-node_vellum-1" style="stroke:#A80036;stroke-width:1.0;stroke-dasharray:7.0,7.0;"/><polygon fill="#A80036" points="532.7519,1248.6035,524.337,1243.4859,527.7929,1247.9644,523.3144,1251.4202,532.7519,1248.6035" style="stroke:#A80036;stroke-width:1.0;"/><text fill="#000000" font-family="sans-serif" font-size="13" lengthAdjust="spacing" textLength="89" x="219" y="953.0684">«ConnectsTo»</text><!--MD5=[a8efed90b4b2a22b59303782db154829]
link node_homestead to node_vellum--><path codeLine="33" d="M1086,971.3131 C1086,988.282 1086,1011.8151 1086,1032.5 C1086,1032.5 1086,1032.5 1086,1172.5 C1086,1213.3679 814.2254,1240.4706 678.4035,1251.4637 " fill="none" id="node_homestead-to-node_vellum" style="stroke:#A80036;stroke-width:1.0;stroke-dasharray:7.0,7.0;"/><polygon fill="#A80036" points="673.2323,1251.8797,682.5241,1255.145,678.2162,1251.4787,681.8825,1247.1708,673.2323,1251.8797" style="stroke:#A80036;stroke-width:1.0;"/><text fill="#000000" font-family="sans-serif" font-size="13" lengthAdjust="spacing" textLength="89" x="1087" y="1107.5684">«ConnectsTo»</text><!--MD5=[6ee406a60339a129a1f4e85a7b2926a5]
link node_ralf to node_vellum--><path codeLine="34" d="M865.975,971.0734 C860.4288,974.0323 854.6612,976.7932 849,979 C796.8758,999.3188 603,976.5555 603,1032.5 C603,1032.5 603,1032.5 603,1172.5 C603,1191.0841 603,1211.9672 603,1228.3234 " fill="none" id="node_ralf-to-node_vellum" style="stroke:#A80036;stroke-width:1.0;stroke-dasharray:7.0,7.0;"/><polygon fill="#A80036" points="603,1233.6869,607,1224.6869,603,1228.6869,599,1224.6869,603,1233.6869" style="stroke:#A80036;stroke-width:1.0;"/><text fill="#000000" font-family="sans-serif" font-size="13" lengthAdjust="spacing" textLength="89" x="604" y="1107.5684">«ConnectsTo»</text><!--MD5=[6ee406a60339a129a1f4e85a7b2926a5]
link node_ralf to node_vellum--><path codeLine="35" d="M911.8876,971.2149 C918.1213,987.9385 925,1011.2146 925,1032.5 C925,1032.5 925,1032.5 925,1172.5 C925,1223.2468 773.482,1244.1339 678.3192,1252.2479 " fill="none" id="node_ralf-to-node_vellum-1" style="stroke:#A80036;stroke-width:1.0;stroke-dasharray:7.0,7.0;"/><polygon fill="#A80036" points="673.2664,1252.6713,682.569,1255.9057,678.2489,1252.2537,681.9009,1247.9337,673.2664,1252.6713" style="stroke:#A80036;stroke-width:1.0;"/><text fill="#000000" font-family="sans-serif" font-size="13" lengthAdjust="spacing" textLength="89" x="926" y="1107.5684">«ConnectsTo»</text><!--MD5=[caff12cd744a1024831a608e5ac2367a]
link node_vellum to node_ralf--><path codeLine="37" d="M673.1486,1247.6786 C716.5348,1237.5196 764,1216.3785 764,1172.5 C764,1032.5 764,1032.5 764,1032.5 C764,1029.6963 817.6919,997.5137 858.0944,973.6935 " fill="none" id="node_vellum-to-node_ralf" style="stroke:#A80036;stroke-width:1.0;stroke-dasharray:7.0,7.0;"/><polygon fill="#A80036" points="862.4547,971.1248,852.67,972.2468,858.1467,973.6628,856.7307,979.1396,862.4547,971.1248" style="stroke:#A80036;stroke-width:1.0;"/><text fill="#000000" font-family="sans-serif" font-size="13" lengthAdjust="spacing" textLength="89" x="765" y="1107.5684">«ConnectsTo»</text><!--MD5=[0c1f7df83b6a05b49ca7859a091abdd8]
link node_homer to node_vellum--><path codeLine="36" d="M594.9432,971.0814 C531.1878,994.6499 442,1028.36 442,1032.5 C442,1032.5 442,1032.5 442,1172.5 C442,1214.6645 485.8294,1235.8332 527.7515,1246.4371 " fill="none" id="node_homer-to-node_vellum" style="stroke:#A80036;stroke-width:1.0;stroke-dasharray:7.0,7.0;"/><polygon fill="#A80036" points="532.8514,1247.6786,525.053,1241.6632,527.9933,1246.4959,523.1606,1249.4362,532.8514,1247.6786" style="stroke:#A80036;stroke-width:1.0;"/><text fill="#000000" font-family="sans-serif" font-size="13" lengthAdjust="spacing" textLength="89" x="443" y="1107.5684">«ConnectsTo»</text><!--MD5=[826b061f94b05f50628e2a75fdc395a7]
link node_i_cscf to node_sprout--><path codeLine="38" d="M1447.8456,406.6964 C1441.8262,408.213 1435.8122,409.6709 1430,411 C985.7061,512.5963 867.0242,500.1203 414,550 C374.6378,554.3339 330.826,559.4989 294.8112,563.8353 " fill="none" id="node_i_cscf-to-node_sprout" style="stroke:#A80036;stroke-width:1.0;stroke-dasharray:7.0,7.0;"/><polygon fill="#A80036" points="289.5556,564.4689,298.9697,567.363,294.5197,563.8705,298.0122,559.4205,289.5556,564.4689" style="stroke:#A80036;stroke-width:1.0;"/><text fill="#000000" font-family="sans-serif" font-size="13" lengthAdjust="spacing" textLength="87" x="1128" y="485.5684">«DependsOn»</text><!--MD5=[1b7befbd5d6c5206bd0c70e1c5b14c33]
link node_i_cscf to node_homestead--><path codeLine="39" d="M1505.1193,411.1058 C1498.1314,429.5418 1490,456.2126 1490,480.5 C1490,480.5 1490,480.5 1490,836 C1490,897.9017 1311.6426,926.9892 1191.9429,939.5403 " fill="none" id="node_i_cscf-to-node_homestead" style="stroke:#A80036;stroke-width:1.0;stroke-dasharray:7.0,7.0;"/><polygon fill="#A80036" points="1186.6441,940.0892,1196.0084,943.1404,1191.6175,939.5739,1195.184,935.183,1186.6441,940.0892" style="stroke:#A80036;stroke-width:1.0;"/><text fill="#000000" font-family="sans-serif" font-size="13" lengthAdjust="spacing" textLength="87" x="1491" y="670.5684">«DependsOn»</text><!--MD5=[de2e4ef8136adedfb5a855f33d875f6b]
link node_s_cscf to node_sprout--><path codeLine="40" d="M1271.4157,409.9557 C1269.9334,410.3163 1268.4602,410.665 1267,411 C1079.8787,453.933 501.7349,534.5681 294.7044,562.8697 " fill="none" id="node_s_cscf-to-node_sprout" style="stroke:#A80036;stroke-width:1.0;stroke-dasharray:7.0,7.0;"/><polygon fill="#A80036" points="289.5842,563.5694,299.0429,566.314,294.5382,562.8924,297.9597,558.3876,289.5842,563.5694" style="stroke:#A80036;stroke-width:1.0;"/><text fill="#000000" font-family="sans-serif" font-size="13" lengthAdjust="spacing" textLength="87" x="918" y="485.5684">«DependsOn»</text><!--MD5=[92f1e0762e176eacd557461ae6a43a0e]
link node_s_cscf to node_homestead--><path codeLine="41" d="M1321.0852,411.2711 C1307.3839,428.9529 1292,454.5779 1292,480.5 C1292,480.5 1292,480.5 1292,836 C1292,861.7509 1289.8091,872.4122 1271,890 C1258.2289,901.9419 1225.3554,913.7433 1190.7988,923.5516 " fill="none" id="node_s_cscf-to-node_homestead" style="stroke:#A80036;stroke-width:1.0;stroke-dasharray:7.0,7.0;"/><polygon fill="#A80036" points="1185.6902,924.984,1195.4359,926.4054,1190.5045,923.634,1193.2759,918.7026,1185.6902,924.984" style="stroke:#A80036;stroke-width:1.0;"/><text fill="#000000" font-family="sans-serif" font-size="13" lengthAdjust="spacing" textLength="87" x="1293" y="670.5684">«DependsOn»</text><!--MD5=[08765601cf5900871c3b62388e9e59ae]
link node_ellis to node_ralf--><path codeLine="42" d="M842,596.1888 C842,614.8976 842,641.8932 842,665.5 C842,665.5 842,665.5 842,836 C842,867.6407 860.8363,898.9858 877.4009,920.4334 " fill="none" id="node_ellis-to-node_ralf" style="stroke:#A80036;stroke-width:1.0;stroke-dasharray:7.0,7.0;"/><polygon fill="#A80036" points="880.6773,924.5881,878.2452,915.0443,877.5812,920.662,871.9635,919.998,880.6773,924.5881" style="stroke:#A80036;stroke-width:1.0;"/><text fill="#000000" font-family="sans-serif" font-size="13" lengthAdjust="spacing" textLength="89" x="843" y="748.5684">«ConnectsTo»</text><!--MD5=[aff5bcdbfd6f971685b694588ed88b73]
link node_ellis to node_homer--><path codeLine="43" d="M816.6712,596.2298 C786.2194,625.5949 735.7549,679.0963 708,735 C677.4661,796.5011 665.123,877.3521 660.5054,919.5607 " fill="none" id="node_ellis-to-node_homer" style="stroke:#A80036;stroke-width:1.0;stroke-dasharray:7.0,7.0;"/><polygon fill="#A80036" points="659.9545,924.7598,664.8808,916.2315,660.4815,919.7877,656.9254,915.3883,659.9545,924.7598" style="stroke:#A80036;stroke-width:1.0;"/><text fill="#000000" font-family="sans-serif" font-size="13" lengthAdjust="spacing" textLength="89" x="709" y="748.5684">«ConnectsTo»</text><!--MD5=[099450a6c4823bff9be4631a915dd7eb]
link node_ellis to node_homestead--><path codeLine="44" d="M891.619,596.1872 C938.9246,619.0775 1003,652.4846 1003,665.5 C1003,665.5 1003,665.5 1003,836 C1003,870.3174 1028.4643,900.9798 1051.1838,921.5077 " fill="none" id="node_ellis-to-node_homestead" style="stroke:#A80036;stroke-width:1.0;stroke-dasharray:7.0,7.0;"/><polygon fill="#A80036" points="1055.0939,924.9674,1051.0041,916.0078,1051.3492,921.6542,1045.7029,921.9993,1055.0939,924.9674" style="stroke:#A80036;stroke-width:1.0;"/><text fill="#000000" font-family="sans-serif" font-size="13" lengthAdjust="spacing" textLength="89" x="1004" y="748.5684">«ConnectsTo»</text><!--MD5=[099450a6c4823bff9be4631a915dd7eb]
link node_ellis to node_homestead--><path codeLine="45" d="M893.1428,594.6655 C894.4379,595.1242 895.7251,595.5699 897,596 C1013.1875,635.1964 1164,542.879 1164,665.5 C1164,665.5 1164,665.5 1164,836 C1164,869.8231 1139.7496,900.7487 1118.2922,921.4923 " fill="none" id="node_ellis-to-node_homestead-1" style="stroke:#A80036;stroke-width:1.0;stroke-dasharray:7.0,7.0;"/><polygon fill="#A80036" points="1114.6014,924.9888,1123.8859,921.7028,1118.2311,921.5501,1118.3839,915.8953,1114.6014,924.9888" style="stroke:#A80036;stroke-width:1.0;"/><text fill="#000000" font-family="sans-serif" font-size="13" lengthAdjust="spacing" textLength="89" x="1165" y="748.5684">«ConnectsTo»</text><!--MD5=[501da3e9192be10d475b3dd9c2ac49c4]
link node_ellis to node_smtp--><path codeLine="46" d="M790.7322,575.8944 C693.5163,582.7935 492,604.4568 492,665.5 C492,665.5 492,665.5 492,836 C492,864.4421 492,896.9469 492,919.5861 " fill="none" id="node_ellis-to-node_smtp" style="stroke:#A80036;stroke-width:1.0;stroke-dasharray:7.0,7.0;"/><polygon fill="#A80036" points="492,924.8336,496,915.8336,492,919.8336,488,915.8336,492,924.8336" style="stroke:#A80036;stroke-width:1.0;"/><text fill="#000000" font-family="sans-serif" font-size="13" lengthAdjust="spacing" textLength="20" x="493" y="748.5684">&lt;&lt;</text><text fill="#FFA500" font-family="sans-serif" font-size="13" font-weight="bold" lengthAdjust="spacing" textLength="77" x="513" y="748.5684">UNDEFINED</text><text fill="#000000" font-family="sans-serif" font-size="13" lengthAdjust="spacing" textLength="20" x="590" y="748.5684">&gt;&gt;</text><!--MD5=[2327689e015262c2157fa9e776ce7bc7]
link substitution_mappings_capability_p_cscf to node_bono--><path codeLine="48" d="M301,53.1361 C301,78.3286 301,118.6328 301,145.6941 " fill="none" id="substitution_mappings_capability_p_cscf-to-node_bono" style="stroke:#A80036;stroke-width:1.0;stroke-dasharray:7.0,7.0;"/><polygon fill="#A80036" points="301,150.9213,305,141.9213,301,145.9213,297,141.9213,301,150.9213" style="stroke:#A80036;stroke-width:1.0;"/><text fill="#000000" font-family="sans-serif" font-size="13" lengthAdjust="spacing" textLength="42" x="253.3563" y="73.914">p-cscf</text><!--MD5=[a043871dd833ed899cb7e179a39122bf]
link substitution_mappings_capability_i_cscf to node_i_cscf--><path codeLine="49" d="M1726.5053,304.1534 C1709.0902,314.3657 1687.8789,326.0527 1668,335 C1642.1785,346.622 1612.9892,357.3037 1587.0801,365.9857 " fill="none" id="substitution_mappings_capability_i_cscf-to-node_i_cscf" style="stroke:#A80036;stroke-width:1.0;stroke-dasharray:7.0,7.0;"/><polygon fill="#A80036" points="1582.2821,367.5834,1592.0849,368.5351,1587.026,366.0037,1589.5574,360.9449,1582.2821,367.5834" style="stroke:#A80036;stroke-width:1.0;"/><text fill="#000000" font-family="sans-serif" font-size="13" lengthAdjust="spacing" textLength="38" x="1675.9472" y="325.0628">i-cscf</text><!--MD5=[9f97a73f4a3ff29f830df876a00635f3]
link substitution_mappings_capability_s_cscf to node_s_cscf--><path codeLine="50" d="M1598.3774,296.5587 C1549.3773,314.0354 1469.1744,342.6411 1411.5143,363.2066 " fill="none" id="substitution_mappings_capability_s_cscf-to-node_s_cscf" style="stroke:#A80036;stroke-width:1.0;stroke-dasharray:7.0,7.0;"/><polygon fill="#A80036" points="1406.706,364.9215,1416.5267,365.6656,1411.4154,363.2418,1413.8392,358.1305,1406.706,364.9215" style="stroke:#A80036;stroke-width:1.0;"/><text fill="#000000" font-family="sans-serif" font-size="13" lengthAdjust="spacing" textLength="41" x="1549.5625" y="295.0984">s-cscf</text><!--MD5=[caa7f602adb5242b110696d047daec18]
link substitution_mappings_capability_hss to node_homestead--><path codeLine="51" d="M1853.399,859.0021 C1835.5289,870.3749 1812.4888,883.11 1790,890 C1681.2529,923.3174 1360.5072,938.803 1192.0617,944.8062 " fill="none" id="substitution_mappings_capability_hss-to-node_homestead" style="stroke:#A80036;stroke-width:1.0;stroke-dasharray:7.0,7.0;"/><polygon fill="#A80036" points="1186.6286,944.9984,1195.7645,948.6776,1191.6255,944.8215,1195.4815,940.6826,1186.6286,944.9984" style="stroke:#A80036;stroke-width:1.0;"/><text fill="#000000" font-family="sans-serif" font-size="13" lengthAdjust="spacing" textLength="22" x="1819.1362" y="880.1242">hss</text><!--MD5=[723396eed7ecc8912a5cde46d638824b]
link substitution_mappings_capability_ctf to node_ralf--><path codeLine="52" d="M1732.4499,859.0871 C1714.5172,870.7912 1691.0879,883.8109 1668,890 C1630.4349,900.07 1004.7944,885.4019 968,898 C953.7072,902.8937 940.0265,912.1959 928.8641,921.4623 " fill="none" id="substitution_mappings_capability_ctf-to-node_ralf" style="stroke:#A80036;stroke-width:1.0;stroke-dasharray:7.0,7.0;"/><polygon fill="#A80036" points="924.8692,924.8664,934.3138,922.0736,928.6749,921.6234,929.125,915.9845,924.8692,924.8664" style="stroke:#A80036;stroke-width:1.0;"/><text fill="#000000" font-family="sans-serif" font-size="13" lengthAdjust="spacing" textLength="17" x="1704.1858" y="880.2331">ctf</text><!--MD5=[7cc0be94d8d5e4ed2c97d0c45366a1fb]
link substitution_mappings_capability_xdms to node_homer--><path codeLine="53" d="M1598.4892,838.8509 C1441.8701,849.1815 912.145,884.7426 837,898 C802.3141,904.1194 764.6625,914.1113 732.8811,923.5604 " fill="none" id="substitution_mappings_capability_xdms-to-node_homer" style="stroke:#A80036;stroke-width:1.0;stroke-dasharray:7.0,7.0;"/><polygon fill="#A80036" points="727.8321,925.0716,737.6011,926.323,732.6221,923.6379,735.3072,918.6589,727.8321,925.0716" style="stroke:#A80036;stroke-width:1.0;"/><text fill="#000000" font-family="sans-serif" font-size="13" lengthAdjust="spacing" textLength="35" x="1555.6722" y="835.8122">xdms</text><!--MD5=[ee0b34d54ba01084a8af2189638b4fea]
@startuml
skinparam componentStyle uml2
allowmixing

component "a node" as substitution_mappings_capability_p_cscf
component "a node" as substitution_mappings_capability_i_cscf
component "a node" as substitution_mappings_capability_s_cscf
component "a node" as substitution_mappings_capability_hss
component "a node" as substitution_mappings_capability_ctf
component "a node" as substitution_mappings_capability_xdms
component ": ims.nodes.IMS" as substitution_mappings {
node "existing_host: Host" as node_existing_host {
component "bono: Bono" as node_bono
component "sprout: Sprout" as node_sprout
component "dime: Dime" as node_dime {
component "homestead: Homestead" as node_homestead
component "ralf: Ralf" as node_ralf
}
component "homer: Homer" as node_homer
component "vellum: Vellum" as node_vellum
component "ellis: Ellis" as node_ellis
component "smtp: SMTP" as node_smtp
}
component "i-cscf: I-CSCF" as node_i_cscf
component "s-cscf: S-CSCF" as node_s_cscf
node_bono ..> node_sprout : <<ConnectsTo>>
node_bono ..> node_sprout : <<ConnectsTo>>
node_bono ..> node_ralf : <<ConnectsTo>>
node_sprout ..> node_ralf : <<ConnectsTo>>
node_sprout ..> node_bono : <<ConnectsTo>>
node_sprout ..> node_homer : <<ConnectsTo>>
node_sprout ..> node_vellum : <<ConnectsTo>>
node_sprout ..> node_vellum : <<ConnectsTo>>
node_homestead ..> node_vellum : <<ConnectsTo>>
node_ralf ..> node_vellum : <<ConnectsTo>>
node_ralf ..> node_vellum : <<ConnectsTo>>
node_homer ..> node_vellum : <<ConnectsTo>>
node_vellum ..> node_ralf : <<ConnectsTo>>
node_i_cscf ..> node_sprout : <<DependsOn>>
node_i_cscf ..> node_homestead : <<DependsOn>>
node_s_cscf ..> node_sprout : <<DependsOn>>
node_s_cscf ..> node_homestead : <<DependsOn>>
node_ellis ..> node_ralf : <<ConnectsTo>>
node_ellis ..> node_homer : <<ConnectsTo>>
node_ellis ..> node_homestead : <<ConnectsTo>>
node_ellis ..> node_homestead : <<ConnectsTo>>
node_ellis ..> node_smtp : <<**<color:orange>UNDEFINED</color>**>>
}
substitution_mappings_capability_p_cscf "p-cscf" ..> node_bono
substitution_mappings_capability_i_cscf "i-cscf" ..> node_i_cscf
substitution_mappings_capability_s_cscf "s-cscf" ..> node_s_cscf
substitution_mappings_capability_hss "hss" ..> node_homestead
substitution_mappings_capability_ctf "ctf" ..> node_ralf
substitution_mappings_capability_xdms "xdms" ..> node_homer
@enduml

PlantUML version 1.2021.13(Mon Nov 01 12:38:45 CET 2021)
(GPL source distribution)
Java Runtime: Java(TM) SE Runtime Environment
JVM: Java HotSpot(TM) 64-Bit Server VM
Default Encoding: UTF-8
Language: fr
Country: FR
--></g></svg>