<?xml version="1.0" encoding="UTF-8" standalone="no"?><svg xmlns="http://www.w3.org/2000/svg" xmlns:xlink="http://www.w3.org/1999/xlink" contentScriptType="application/ecmascript" contentStyleType="text/css" height="699px" preserveAspectRatio="none" style="width:1696px;height:699px;background:#FFFFFF;" version="1.1" viewBox="0 0 1696 699" width="1696px" zoomAndPan="magnify"><defs><filter height="300%" id="ff3vzpvf9whyp" width="300%" x="-1" y="-1"><feGaussianBlur result="blurOut" stdDeviation="2.0"/><feColorMatrix in="blurOut" result="blurOut2" type="matrix" values="0 0 0 0 0 0 0 0 0 0 0 0 0 0 0 0 0 0 .4 0"/><feOffset dx="4.0" dy="4.0" in="blurOut2" result="blurOut3"/><feBlend in="SourceGraphic" in2="blurOut3" mode="normal"/></filter></defs><g><!--MD5=[8c4f6a033e273add532353a41a1a9b42]
cluster substitution_mappings--><rect fill="#FFFFFF" filter="url(#ff3vzpvf9whyp)" height="577" style="stroke:#000000;stroke-width:1.5;" width="1424" x="172.93" y="108"/><rect fill="#FFFFFF" height="10" style="stroke:#000000;stroke-width:1.5;" width="15" x="1576.93" y="113"/><rect fill="#FFFFFF" height="2" style="stroke:#000000;stroke-width:1.5;" width="4" x="1574.93" y="115"/><rect fill="#FFFFFF" height="2" style="stroke:#000000;stroke-width:1.5;" width="4" x="1574.93" y="119"/><text fill="#000000" font-family="sans-serif" font-size="14" font-weight="bold" lengthAdjust="spacing" textLength="124" x="822.93" y="133.9951">: ims.nodes.IMS</text><!--MD5=[2add88f37374b4434719d2a1be588e87]
cluster node_existing_host--><polygon fill="#FFFFFF" filter="url(#ff3vzpvf9whyp)" points="361.93,169,371.93,159,1414.93,159,1414.93,643,1404.93,653,361.93,653,361.93,169" style="stroke:#000000;stroke-width:1.5;"/><line style="stroke:#000000;stroke-width:1.5;" x1="1404.93" x2="1414.93" y1="169" y2="159"/><line style="stroke:#000000;stroke-width:1.5;" x1="361.93" x2="1404.93" y1="169" y2="169"/><line style="stroke:#000000;stroke-width:1.5;" x1="1404.93" x2="1404.93" y1="169" y2="653"/><text fill="#000000" font-family="sans-serif" font-size="14" font-weight="bold" lengthAdjust="spacing" textLength="151" x="808.93" y="184.9951">existing_host: Host</text><!--MD5=[af0af5f7d3487b709000f2add3fd916d]
cluster node_dime--><rect fill="#FFFFFF" filter="url(#ff3vzpvf9whyp)" height="97" style="stroke:#000000;stroke-width:1.5;" width="369" x="385.93" y="431"/><rect fill="#FFFFFF" height="10" style="stroke:#000000;stroke-width:1.5;" width="15" x="734.93" y="436"/><rect fill="#FFFFFF" height="2" style="stroke:#000000;stroke-width:1.5;" width="4" x="732.93" y="438"/><rect fill="#FFFFFF" height="2" style="stroke:#000000;stroke-width:1.5;" width="4" x="732.93" y="442"/><text fill="#000000" font-family="sans-serif" font-size="14" font-weight="bold" lengthAdjust="spacing" textLength="88" x="526.43" y="456.9951">dime: Dime</text><!--MD5=[78f534de7627ac52831da1d731195c6f]
entity node_i_cscf--><rect fill="#FEFECE" filter="url(#ff3vzpvf9whyp)" height="46.2969" style="stroke:#A80036;stroke-width:1.5;" width="130" x="215.93" y="199"/><rect fill="#FEFECE" height="10" style="stroke:#A80036;stroke-width:1.5;" width="15" x="325.93" y="204"/><rect fill="#FEFECE" height="2" style="stroke:#A80036;stroke-width:1.5;" width="4" x="323.93" y="206"/><rect fill="#FEFECE" height="2" style="stroke:#A80036;stroke-width:1.5;" width="4" x="323.93" y="210"/><text fill="#000000" font-family="sans-serif" font-size="14" lengthAdjust="spacing" textLength="90" x="230.93" y="231.9951">i-cscf: I-CSCF</text><!--MD5=[c95df3bd33fff18385b9ac9e71496019]
entity node_s_cscf--><rect fill="#FEFECE" filter="url(#ff3vzpvf9whyp)" height="46.2969" style="stroke:#A80036;stroke-width:1.5;" width="141" x="1431.43" y="199"/><rect fill="#FEFECE" height="10" style="stroke:#A80036;stroke-width:1.5;" width="15" x="1552.43" y="204"/><rect fill="#FEFECE" height="2" style="stroke:#A80036;stroke-width:1.5;" width="4" x="1550.43" y="206"/><rect fill="#FEFECE" height="2" style="stroke:#A80036;stroke-width:1.5;" width="4" x="1550.43" y="210"/><text fill="#000000" font-family="sans-serif" font-size="14" lengthAdjust="spacing" textLength="101" x="1446.43" y="231.9951">s-cscf: S-CSCF</text><!--MD5=[445e9b139c9b0cc565b8fe69657823b8]
entity node_bono--><rect fill="#FEFECE" filter="url(#ff3vzpvf9whyp)" height="46.2969" style="stroke:#A80036;stroke-width:1.5;" width="122" x="653.93" y="199"/><rect fill="#FEFECE" height="10" style="stroke:#A80036;stroke-width:1.5;" width="15" x="755.93" y="204"/><rect fill="#FEFECE" height="2" style="stroke:#A80036;stroke-width:1.5;" width="4" x="753.93" y="206"/><rect fill="#FEFECE" height="2" style="stroke:#A80036;stroke-width:1.5;" width="4" x="753.93" y="210"/><text fill="#000000" font-family="sans-serif" font-size="14" lengthAdjust="spacing" textLength="82" x="668.93" y="231.9951">bono: Bono</text><!--MD5=[fc906b18261449fa86954e64c809a08a]
entity node_sprout--><rect fill="#FEFECE" filter="url(#ff3vzpvf9whyp)" height="46.2969" style="stroke:#A80036;stroke-width:1.5;" width="140" x="910.93" y="322"/><rect fill="#FEFECE" height="10" style="stroke:#A80036;stroke-width:1.5;" width="15" x="1030.93" y="327"/><rect fill="#FEFECE" height="2" style="stroke:#A80036;stroke-width:1.5;" width="4" x="1028.93" y="329"/><rect fill="#FEFECE" height="2" style="stroke:#A80036;stroke-width:1.5;" width="4" x="1028.93" y="333"/><text fill="#000000" font-family="sans-serif" font-size="14" lengthAdjust="spacing" textLength="100" x="925.93" y="354.9951">sprout: Sprout</text><!--MD5=[c10e8e5ee801d8f14135d17027d296d8]
entity node_homer--><rect fill="#FEFECE" filter="url(#ff3vzpvf9whyp)" height="46.2969" style="stroke:#A80036;stroke-width:1.5;" width="140" x="1095.93" y="466"/><rect fill="#FEFECE" height="10" style="stroke:#A80036;stroke-width:1.5;" width="15" x="1215.93" y="471"/><rect fill="#FEFECE" height="2" style="stroke:#A80036;stroke-width:1.5;" width="4" x="1213.93" y="473"/><rect fill="#FEFECE" height="2" style="stroke:#A80036;stroke-width:1.5;" width="4" x="1213.93" y="477"/><text fill="#000000" font-family="sans-serif" font-size="14" lengthAdjust="spacing" textLength="100" x="1110.93" y="498.9951">homer: Homer</text><!--MD5=[990c34e8fcb61030890d8d0258e925e4]
entity node_vellum--><rect fill="#FEFECE" filter="url(#ff3vzpvf9whyp)" height="46.2969" style="stroke:#A80036;stroke-width:1.5;" width="139" x="778.43" y="591"/><rect fill="#FEFECE" height="10" style="stroke:#A80036;stroke-width:1.5;" width="15" x="897.43" y="596"/><rect fill="#FEFECE" height="2" style="stroke:#A80036;stroke-width:1.5;" width="4" x="895.43" y="598"/><rect fill="#FEFECE" height="2" style="stroke:#A80036;stroke-width:1.5;" width="4" x="895.43" y="602"/><text fill="#000000" font-family="sans-serif" font-size="14" lengthAdjust="spacing" textLength="99" x="793.43" y="623.9951">vellum: Vellum</text><!--MD5=[9bc4dbfdc2c0dc599d1fd9ce0985706d]
entity node_ellis--><rect fill="#FEFECE" filter="url(#ff3vzpvf9whyp)" height="46.2969" style="stroke:#A80036;stroke-width:1.5;" width="101" x="635.43" y="322"/><rect fill="#FEFECE" height="10" style="stroke:#A80036;stroke-width:1.5;" width="15" x="716.43" y="327"/><rect fill="#FEFECE" height="2" style="stroke:#A80036;stroke-width:1.5;" width="4" x="714.43" y="329"/><rect fill="#FEFECE" height="2" style="stroke:#A80036;stroke-width:1.5;" width="4" x="714.43" y="333"/><text fill="#000000" font-family="sans-serif" font-size="14" lengthAdjust="spacing" textLength="61" x="650.43" y="354.9951">ellis: Ellis</text><!--MD5=[563d01739302bd30631170c7d1eb89b4]
entity node_smtp--><rect fill="#FEFECE" filter="url(#ff3vzpvf9whyp)" height="46.2969" style="stroke:#A80036;stroke-width:1.5;" width="123" x="774.43" y="466"/><rect fill="#FEFECE" height="10" style="stroke:#A80036;stroke-width:1.5;" width="15" x="877.43" y="471"/><rect fill="#FEFECE" height="2" style="stroke:#A80036;stroke-width:1.5;" width="4" x="875.43" y="473"/><rect fill="#FEFECE" height="2" style="stroke:#A80036;stroke-width:1.5;" width="4" x="875.43" y="477"/><text fill="#000000" font-family="sans-serif" font-size="14" lengthAdjust="spacing" textLength="83" x="789.43" y="498.9951">smtp: SMTP</text><!--MD5=[ce41af7c2d353e0c410f43d9c4316cc3]
entity node_homestead--><rect fill="#FEFECE" filter="url(#ff3vzpvf9whyp)" height="46.2969" style="stroke:#A80036;stroke-width:1.5;" width="208" x="530.93" y="466"/><rect fill="#FEFECE" height="10" style="stroke:#A80036;stroke-width:1.5;" width="15" x="718.93" y="471"/><rect fill="#FEFECE" height="2" style="stroke:#A80036;stroke-width:1.5;" width="4" x="716.93" y="473"/><rect fill="#FEFECE" height="2" style="stroke:#A80036;stroke-width:1.5;" width="4" x="716.93" y="477"/><text fill="#000000" font-family="sans-serif" font-size="14" lengthAdjust="spacing" textLength="168" x="545.93" y="498.9951">homestead: Homestead</text><!--MD5=[cd641f648c185b5ed965bd9a81b651b0]
entity node_ralf--><rect fill="#FEFECE" filter="url(#ff3vzpvf9whyp)" height="46.2969" style="stroke:#A80036;stroke-width:1.5;" width="94" x="401.93" y="466"/><rect fill="#FEFECE" height="10" style="stroke:#A80036;stroke-width:1.5;" width="15" x="475.93" y="471"/><rect fill="#FEFECE" height="2" style="stroke:#A80036;stroke-width:1.5;" width="4" x="473.93" y="473"/><rect fill="#FEFECE" height="2" style="stroke:#A80036;stroke-width:1.5;" width="4" x="473.93" y="477"/><text fill="#000000" font-family="sans-serif" font-size="14" lengthAdjust="spacing" textLength="54" x="416.93" y="498.9951">ralf: Ralf</text><!--MD5=[4f80b1ae613adee786d283052e5dfec8]
entity substitution_mappings_capability_p_cscf--><rect fill="#FEFECE" filter="url(#ff3vzpvf9whyp)" height="46.2969" style="stroke:#A80036;stroke-width:1.5;" width="82" x="403.93" y="7"/><rect fill="#FEFECE" height="10" style="stroke:#A80036;stroke-width:1.5;" width="15" x="465.93" y="12"/><rect fill="#FEFECE" height="2" style="stroke:#A80036;stroke-width:1.5;" width="4" x="463.93" y="14"/><rect fill="#FEFECE" height="2" style="stroke:#A80036;stroke-width:1.5;" width="4" x="463.93" y="18"/><text fill="#000000" font-family="sans-serif" font-size="14" lengthAdjust="spacing" textLength="42" x="418.93" y="39.9951">p-cscf</text><!--MD5=[bbc48975b108baf365ee8356c6896bac]
entity substitution_mappings_capability_i_cscf--><rect fill="#FEFECE" filter="url(#ff3vzpvf9whyp)" height="46.2969" style="stroke:#A80036;stroke-width:1.5;" width="76" x="238.93" y="7"/><rect fill="#FEFECE" height="10" style="stroke:#A80036;stroke-width:1.5;" width="15" x="294.93" y="12"/><rect fill="#FEFECE" height="2" style="stroke:#A80036;stroke-width:1.5;" width="4" x="292.93" y="14"/><rect fill="#FEFECE" height="2" style="stroke:#A80036;stroke-width:1.5;" width="4" x="292.93" y="18"/><text fill="#000000" font-family="sans-serif" font-size="14" lengthAdjust="spacing" textLength="36" x="253.93" y="39.9951">i-cscf</text><!--MD5=[6c6c680de3cba8f5015d3c75707926d1]
entity substitution_mappings_capability_s_cscf--><rect fill="#FEFECE" filter="url(#ff3vzpvf9whyp)" height="46.2969" style="stroke:#A80036;stroke-width:1.5;" width="81" x="890.43" y="7"/><rect fill="#FEFECE" height="10" style="stroke:#A80036;stroke-width:1.5;" width="15" x="951.43" y="12"/><rect fill="#FEFECE" height="2" style="stroke:#A80036;stroke-width:1.5;" width="4" x="949.43" y="14"/><rect fill="#FEFECE" height="2" style="stroke:#A80036;stroke-width:1.5;" width="4" x="949.43" y="18"/><text fill="#000000" font-family="sans-serif" font-size="14" lengthAdjust="spacing" textLength="41" x="905.43" y="39.9951">s-cscf</text><!--MD5=[deb72084770315e28608e1db1325e59e]
entity substitution_mappings_capability_hss--><rect fill="#FEFECE" filter="url(#ff3vzpvf9whyp)" height="46.2969" style="stroke:#A80036;stroke-width:1.5;" width="65" x="123.43" y="7"/><rect fill="#FEFECE" height="10" style="stroke:#A80036;stroke-width:1.5;" width="15" x="168.43" y="12"/><rect fill="#FEFECE" height="2" style="stroke:#A80036;stroke-width:1.5;" width="4" x="166.43" y="14"/><rect fill="#FEFECE" height="2" style="stroke:#A80036;stroke-width:1.5;" width="4" x="166.43" y="18"/><text fill="#000000" font-family="sans-serif" font-size="14" lengthAdjust="spacing" textLength="25" x="138.43" y="39.9951">hss</text><!--MD5=[650029e6a28714890359b7bf8ed3802c]
entity substitution_mappings_capability_ctf--><rect fill="#FEFECE" filter="url(#ff3vzpvf9whyp)" height="46.2969" style="stroke:#A80036;stroke-width:1.5;" width="57" x="24.43" y="7"/><rect fill="#FEFECE" height="10" style="stroke:#A80036;stroke-width:1.5;" width="15" x="61.43" y="12"/><rect fill="#FEFECE" height="2" style="stroke:#A80036;stroke-width:1.5;" width="4" x="59.43" y="14"/><rect fill="#FEFECE" height="2" style="stroke:#A80036;stroke-width:1.5;" width="4" x="59.43" y="18"/><text fill="#000000" font-family="sans-serif" font-size="14" lengthAdjust="spacing" textLength="17" x="39.43" y="39.9951">ctf</text><!--MD5=[a4322a54fbd04e5939bbdb76c2791580]
entity substitution_mappings_capability_xdms--><rect fill="#FEFECE" filter="url(#ff3vzpvf9whyp)" height="46.2969" style="stroke:#A80036;stroke-width:1.5;" width="77" x="1297.43" y="7"/><rect fill="#FEFECE" height="10" style="stroke:#A80036;stroke-width:1.5;" width="15" x="1354.43" y="12"/><rect fill="#FEFECE" height="2" style="stroke:#A80036;stroke-width:1.5;" width="4" x="1352.43" y="14"/><rect fill="#FEFECE" height="2" style="stroke:#A80036;stroke-width:1.5;" width="4" x="1352.43" y="18"/><text fill="#000000" font-family="sans-serif" font-size="14" lengthAdjust="spacing" textLength="37" x="1312.43" y="39.9951">xdms</text><!--MD5=[17185fdc824b1dbfb203f2a6d1fa4c08]
link node_bono to node_sprout--><path codeLine="25" d="M776.1,243.97 C777.38,244.33 778.66,244.67 779.93,245 C850.79,263.45 882.32,232.47 941.93,275 C956.22,285.2 965.95,302.37 972.12,317.03 " fill="none" id="node_bono-to-node_sprout" style="stroke:#A80036;stroke-width:1.0;stroke-dasharray:7.0,7.0;"/><polygon fill="#A80036" points="974.08,321.89,974.4514,312.0481,972.223,317.2476,967.0236,315.0193,974.08,321.89" style="stroke:#A80036;stroke-width:1.0;"/><text fill="#000000" font-family="sans-serif" font-size="13" lengthAdjust="spacing" textLength="91" x="958.93" y="288.0669">«ConnectsTo»</text><!--MD5=[17185fdc824b1dbfb203f2a6d1fa4c08]
link node_bono to node_sprout--><path codeLine="26" d="M706.98,245.01 C703.12,259.91 701.32,279.14 711.93,292 C736.1,321.29 834.76,334.27 905.59,339.89 " fill="none" id="node_bono-to-node_sprout-1" style="stroke:#A80036;stroke-width:1.0;stroke-dasharray:7.0,7.0;"/><polygon fill="#A80036" points="910.64,340.29,901.9753,335.6077,905.6549,339.9043,901.3583,343.5839,910.64,340.29" style="stroke:#A80036;stroke-width:1.0;"/><text fill="#000000" font-family="sans-serif" font-size="13" lengthAdjust="spacing" textLength="91" x="712.93" y="288.0669">«ConnectsTo»</text><!--MD5=[e1cd8ca1a81271ae6f3f3a91cb166d8c]
link node_sprout to node_bono--><path codeLine="29" d="M915.66,321.98 C891.83,313.37 864.87,302.93 840.93,292 C836.67,290.05 794,266.62 759.48,247.6 " fill="none" id="node_sprout-to-node_bono" style="stroke:#A80036;stroke-width:1.0;stroke-dasharray:7.0,7.0;"/><polygon fill="#A80036" points="754.89,245.06,760.8345,252.9126,759.2668,247.4773,764.7021,245.9096,754.89,245.06" style="stroke:#A80036;stroke-width:1.0;"/><text fill="#000000" font-family="sans-serif" font-size="13" lengthAdjust="spacing" textLength="91" x="841.93" y="288.0669">«ConnectsTo»</text><!--MD5=[b5fc97fe7b3612d6a46b391c72c8f03c]
link node_bono to node_ralf--><path codeLine="27" d="M666.96,245.12 C593.18,280.35 458.01,350.1 435.93,398 C426.81,417.79 431.3,442.4 437.38,460.88 " fill="none" id="node_bono-to-node_ralf" style="stroke:#A80036;stroke-width:1.0;stroke-dasharray:7.0,7.0;"/><polygon fill="#A80036" points="439.13,465.92,439.9721,456.1072,437.4974,461.194,432.4106,458.7194,439.13,465.92" style="stroke:#A80036;stroke-width:1.0;"/><text fill="#000000" font-family="sans-serif" font-size="13" lengthAdjust="spacing" textLength="91" x="521.93" y="349.5669">«ConnectsTo»</text><!--MD5=[50ae655f6573d026fce4861cd8744523]
link node_sprout to node_ralf--><path codeLine="28" d="M910.72,366.53 C880.22,375.72 844.17,386.96 811.93,398 C791.7,404.92 787.9,410.83 766.93,415 C739.35,420.49 539.74,411.83 513.93,423 C495.05,431.17 478.71,447.59 467.13,461.88 " fill="none" id="node_sprout-to-node_ralf" style="stroke:#A80036;stroke-width:1.0;stroke-dasharray:7.0,7.0;"/><polygon fill="#A80036" points="463.99,465.85,472.7052,461.2626,467.0873,461.9249,466.425,456.3069,463.99,465.85" style="stroke:#A80036;stroke-width:1.0;"/><text fill="#000000" font-family="sans-serif" font-size="13" lengthAdjust="spacing" textLength="91" x="812.93" y="411.0669">«ConnectsTo»</text><!--MD5=[fa180f5aca37e95f0767861a2cd8c553]
link node_sprout to node_homer--><path codeLine="30" d="M1050.99,367.05 C1052.31,367.37 1053.63,367.69 1054.93,368 C1092.05,376.78 1199.43,368.77 1223.93,398 C1240.9,418.25 1221.14,443.76 1200.21,462.45 " fill="none" id="node_sprout-to-node_homer" style="stroke:#A80036;stroke-width:1.0;stroke-dasharray:7.0,7.0;"/><polygon fill="#A80036" points="1196.3,465.86,1205.7135,462.964,1200.07,462.5756,1200.4584,456.9321,1196.3,465.86" style="stroke:#A80036;stroke-width:1.0;"/><text fill="#000000" font-family="sans-serif" font-size="13" lengthAdjust="spacing" textLength="91" x="1230.93" y="411.0669">«ConnectsTo»</text><!--MD5=[70b5470bf16ce4e08e461936245b93d6]
link node_sprout to node_vellum--><path codeLine="31" d="M1050.96,367.17 C1052.29,367.46 1053.62,367.74 1054.93,368 C1115.41,380.17 1289.73,352.08 1330.93,398 C1335.98,403.62 1333.04,407.75 1330.93,415 C1313.11,476.2 1305.97,499.18 1253.93,536 C1201.66,572.98 1024.92,595.82 922.68,606.27 " fill="none" id="node_sprout-to-node_vellum" style="stroke:#A80036;stroke-width:1.0;stroke-dasharray:7.0,7.0;"/><polygon fill="#A80036" points="917.57,606.79,926.9338,609.8427,922.5435,606.2755,926.1106,601.8851,917.57,606.79" style="stroke:#A80036;stroke-width:1.0;"/><text fill="#000000" font-family="sans-serif" font-size="13" lengthAdjust="spacing" textLength="91" x="1328.93" y="493.5669">«ConnectsTo»</text><!--MD5=[70b5470bf16ce4e08e461936245b93d6]
link node_sprout to node_vellum--><path codeLine="32" d="M1031.73,368.12 C1054.45,381.03 1073.07,398.08 1057.93,415 C1047.19,427 998.88,413.44 985.93,423 C932.11,462.71 968.83,509.7 925.93,561 C917.27,571.36 906.02,580.47 894.78,588.05 " fill="none" id="node_sprout-to-node_vellum-1" style="stroke:#A80036;stroke-width:1.0;stroke-dasharray:7.0,7.0;"/><polygon fill="#A80036" points="890.31,590.98,900.0276,589.3776,894.4878,588.233,895.6324,582.6931,890.31,590.98" style="stroke:#A80036;stroke-width:1.0;"/><text fill="#000000" font-family="sans-serif" font-size="13" lengthAdjust="spacing" textLength="91" x="986.93" y="493.5669">«ConnectsTo»</text><!--MD5=[a8efed90b4b2a22b59303782db154829]
link node_homestead to node_vellum--><path codeLine="33" d="M678.85,512.04 C698.08,520.81 721.18,530.17 742.93,536 C771.47,543.64 784.35,527.6 808.93,544 C823.63,553.81 833.4,571.16 839.49,586 " fill="none" id="node_homestead-to-node_vellum" style="stroke:#A80036;stroke-width:1.0;stroke-dasharray:7.0,7.0;"/><polygon fill="#A80036" points="841.41,590.92,841.8702,581.0819,839.595,586.2611,834.4159,583.9859,841.41,590.92" style="stroke:#A80036;stroke-width:1.0;"/><text fill="#000000" font-family="sans-serif" font-size="13" lengthAdjust="spacing" textLength="91" x="825.93" y="557.0669">«ConnectsTo»</text><!--MD5=[6ee406a60339a129a1f4e85a7b2926a5]
link node_ralf to node_vellum--><path codeLine="34" d="M440.71,512.2 C436.52,527.72 434.45,547.93 445.93,561 C467.14,585.13 662.62,601.29 772.97,608.58 " fill="none" id="node_ralf-to-node_vellum" style="stroke:#A80036;stroke-width:1.0;stroke-dasharray:7.0,7.0;"/><polygon fill="#A80036" points="778.16,608.92,769.4417,604.3385,773.1708,608.5921,768.9171,612.3212,778.16,608.92" style="stroke:#A80036;stroke-width:1.0;"/><text fill="#000000" font-family="sans-serif" font-size="13" lengthAdjust="spacing" textLength="91" x="446.93" y="557.0669">«ConnectsTo»</text><!--MD5=[6ee406a60339a129a1f4e85a7b2926a5]
link node_ralf to node_vellum--><path codeLine="35" d="M475.77,512.17 C487.01,520.59 500.56,529.67 513.93,536 C526.01,541.73 530.39,539.35 542.93,544 C559.52,550.15 562.11,555.5 578.93,561 C642.87,581.91 718.27,595.59 772.95,603.64 " fill="none" id="node_ralf-to-node_vellum-1" style="stroke:#A80036;stroke-width:1.0;stroke-dasharray:7.0,7.0;"/><polygon fill="#A80036" points="778.17,604.4,769.8495,599.1303,773.2234,603.6709,768.6829,607.0448,778.17,604.4" style="stroke:#A80036;stroke-width:1.0;"/><text fill="#000000" font-family="sans-serif" font-size="13" lengthAdjust="spacing" textLength="91" x="579.93" y="557.0669">«ConnectsTo»</text><!--MD5=[caff12cd744a1024831a608e5ac2367a]
link node_vellum to node_ralf--><path codeLine="37" d="M783.09,590.95 C759.18,582.29 732.06,571.83 707.93,561 C693.24,554.4 691.46,548.28 675.93,544 C641.18,534.43 548,547.77 513.93,536 C500.78,531.46 487.92,523.38 477.16,515.24 " fill="none" id="node_vellum-to-node_ralf" style="stroke:#A80036;stroke-width:1.0;stroke-dasharray:7.0,7.0;"/><polygon fill="#A80036" points="472.99,512.01,477.6667,520.6777,476.9467,515.0668,482.5576,514.3469,472.99,512.01" style="stroke:#A80036;stroke-width:1.0;"/><text fill="#000000" font-family="sans-serif" font-size="13" lengthAdjust="spacing" textLength="91" x="708.93" y="557.0669">«ConnectsTo»</text><!--MD5=[0c1f7df83b6a05b49ca7859a091abdd8]
link node_homer to node_vellum--><path codeLine="36" d="M1121.95,512.08 C1105.49,520.02 1086.52,528.79 1068.93,536 C1020.79,555.74 965.5,575 922.27,589.32 " fill="none" id="node_homer-to-node_vellum" style="stroke:#A80036;stroke-width:1.0;stroke-dasharray:7.0,7.0;"/><polygon fill="#A80036" points="917.33,590.95,927.1313,591.9164,922.0763,589.3774,924.6152,584.3224,917.33,590.95" style="stroke:#A80036;stroke-width:1.0;"/><text fill="#000000" font-family="sans-serif" font-size="13" lengthAdjust="spacing" textLength="91" x="1045.93" y="557.0669">«ConnectsTo»</text><!--MD5=[826b061f94b05f50628e2a75fdc395a7]
link node_i_cscf to node_sprout--><path codeLine="38" d="M346.26,241.18 C351.55,242.52 356.82,243.81 361.93,245 C555.67,290.14 788.31,321.29 905.53,335.41 " fill="none" id="node_i_cscf-to-node_sprout" style="stroke:#A80036;stroke-width:1.0;stroke-dasharray:7.0,7.0;"/><polygon fill="#A80036" points="910.69,336.03,902.2359,330.9775,905.7262,335.4292,901.2746,338.9196,910.69,336.03" style="stroke:#A80036;stroke-width:1.0;"/><text fill="#000000" font-family="sans-serif" font-size="13" lengthAdjust="spacing" textLength="91" x="598.93" y="288.0669">«DependsOn»</text><!--MD5=[1b7befbd5d6c5206bd0c70e1c5b14c33]
link node_i_cscf to node_homestead--><path codeLine="39" d="M271.52,245.02 C260.21,275.18 245.51,329.92 268.93,368 C293.19,407.45 317.18,403.08 361.93,415 C427.3,432.41 448.78,404.78 513.93,423 C544.41,431.53 575.82,448.69 598.99,463.23 " fill="none" id="node_i_cscf-to-node_homestead" style="stroke:#A80036;stroke-width:1.0;stroke-dasharray:7.0,7.0;"/><polygon fill="#A80036" points="603.22,465.92,597.7476,457.7314,598.9929,463.2495,593.4748,464.4948,603.22,465.92" style="stroke:#A80036;stroke-width:1.0;"/><text fill="#000000" font-family="sans-serif" font-size="13" lengthAdjust="spacing" textLength="91" x="269.93" y="349.5669">«DependsOn»</text><!--MD5=[de2e4ef8136adedfb5a855f33d875f6b]
link node_s_cscf to node_sprout--><path codeLine="40" d="M1431.24,241.11 C1425.72,242.45 1420.24,243.76 1414.93,245 C1257.3,281.77 1214.39,281.55 1056.2,321.69 " fill="none" id="node_s_cscf-to-node_sprout" style="stroke:#A80036;stroke-width:1.0;stroke-dasharray:7.0,7.0;"/><polygon fill="#A80036" points="1051,323.02,1060.7073,324.6841,1055.8465,321.7905,1058.7401,316.9297,1051,323.02" style="stroke:#A80036;stroke-width:1.0;"/><text fill="#000000" font-family="sans-serif" font-size="13" lengthAdjust="spacing" textLength="91" x="1271.93" y="288.0669">«DependsOn»</text><!--MD5=[92f1e0762e176eacd557461ae6a43a0e]
link node_s_cscf to node_homestead--><path codeLine="41" d="M1499.46,245.14 C1493.48,286.86 1474.06,376.37 1414.93,415 C1399.3,425.21 760.89,417.9 742.93,423 C715.02,430.93 687.06,448.08 666.58,462.77 " fill="none" id="node_s_cscf-to-node_homestead" style="stroke:#A80036;stroke-width:1.0;stroke-dasharray:7.0,7.0;"/><polygon fill="#A80036" points="662.32,465.86,671.9504,463.7974,666.3624,462.9174,667.2424,457.3294,662.32,465.86" style="stroke:#A80036;stroke-width:1.0;"/><text fill="#000000" font-family="sans-serif" font-size="13" lengthAdjust="spacing" textLength="91" x="1480.93" y="349.5669">«DependsOn»</text><!--MD5=[08765601cf5900871c3b62388e9e59ae]
link node_ellis to node_ralf--><path codeLine="42" d="M635.33,350.32 C574.28,356.67 476.94,370.84 453.93,398 C439.54,414.99 439.6,440.89 442.49,460.56 " fill="none" id="node_ellis-to-node_ralf" style="stroke:#A80036;stroke-width:1.0;stroke-dasharray:7.0,7.0;"/><polygon fill="#A80036" points="443.33,465.67,445.8139,456.1395,442.5173,460.7365,437.9203,457.4399,443.33,465.67" style="stroke:#A80036;stroke-width:1.0;"/><text fill="#000000" font-family="sans-serif" font-size="13" lengthAdjust="spacing" textLength="91" x="454.93" y="411.0669">«ConnectsTo»</text><!--MD5=[aff5bcdbfd6f971685b694588ed88b73]
link node_ellis to node_homer--><path codeLine="43" d="M736.46,351.5 C831.31,362.06 1029.08,385.23 1057.93,398 C1091.34,412.79 1122.6,441.05 1142.81,461.98 " fill="none" id="node_ellis-to-node_homer" style="stroke:#A80036;stroke-width:1.0;stroke-dasharray:7.0,7.0;"/><polygon fill="#A80036" points="1146.45,465.79,1143.1196,456.5213,1142.9939,462.1768,1137.3384,462.0511,1146.45,465.79" style="stroke:#A80036;stroke-width:1.0;"/><text fill="#000000" font-family="sans-serif" font-size="13" lengthAdjust="spacing" textLength="91" x="1087.93" y="411.0669">«ConnectsTo»</text><!--MD5=[099450a6c4823bff9be4631a915dd7eb]
link node_ellis to node_homestead--><path codeLine="44" d="M677.96,368.19 C668.94,393.3 654.25,434.21 644.59,461.11 " fill="none" id="node_ellis-to-node_homestead" style="stroke:#A80036;stroke-width:1.0;stroke-dasharray:7.0,7.0;"/><polygon fill="#A80036" points="642.84,465.97,649.6436,458.8488,644.528,461.2636,642.1133,456.148,642.84,465.97" style="stroke:#A80036;stroke-width:1.0;"/><text fill="#000000" font-family="sans-serif" font-size="13" lengthAdjust="spacing" textLength="91" x="666.93" y="411.0669">«ConnectsTo»</text><!--MD5=[099450a6c4823bff9be4631a915dd7eb]
link node_ellis to node_homestead--><path codeLine="45" d="M635.32,353.39 C608.39,360.18 577.5,373.17 560.93,398 C545.49,421.15 568,445.4 592.14,462.89 " fill="none" id="node_ellis-to-node_homestead-1" style="stroke:#A80036;stroke-width:1.0;stroke-dasharray:7.0,7.0;"/><polygon fill="#A80036" points="596.34,465.86,591.2963,457.4006,592.256,462.9755,586.6811,463.9351,596.34,465.86" style="stroke:#A80036;stroke-width:1.0;"/><text fill="#000000" font-family="sans-serif" font-size="13" lengthAdjust="spacing" textLength="91" x="561.93" y="411.0669">«ConnectsTo»</text><!--MD5=[501da3e9192be10d475b3dd9c2ac49c4]
link node_ellis to node_smtp--><path codeLine="46" d="M736.47,350.37 C796.51,356.72 891.29,370.85 912.93,398 C930.87,420.52 906.16,445.32 880.08,463.18 " fill="none" id="node_ellis-to-node_smtp" style="stroke:#A80036;stroke-width:1.0;stroke-dasharray:7.0,7.0;"/><polygon fill="#A80036" points="875.89,465.99,885.5973,464.3259,880.0503,463.2165,881.1597,457.6695,875.89,465.99" style="stroke:#A80036;stroke-width:1.0;"/><text fill="#000000" font-family="sans-serif" font-size="13" lengthAdjust="spacing" textLength="22" x="919.93" y="411.0669">&lt;&lt;</text><text fill="#FFA500" font-family="sans-serif" font-size="13" font-weight="bold" lengthAdjust="spacing" textLength="85" x="941.93" y="411.0669">UNDEFINED</text><text fill="#000000" font-family="sans-serif" font-size="13" lengthAdjust="spacing" textLength="22" x="1026.93" y="411.0669">&gt;&gt;</text><!--MD5=[01ac9204f751d098ceaca12179a5e9b0]
link substitution_mappings_capability_p_cscf to substitution_mappings--><!--MD5=[2327689e015262c2157fa9e776ce7bc7]
link substitution_mappings_capability_p_cscf to node_bono--><path codeLine="49" d="M486,33.7 C530.93,38.63 602.79,52.57 649.93,92 C681.75,118.62 699.59,164.7 708.23,193.98 " fill="none" id="substitution_mappings_capability_p_cscf-to-node_bono" style="stroke:#A80036;stroke-width:1.0;stroke-dasharray:7.0,7.0;"/><polygon fill="#A80036" points="709.64,198.89,711.0213,189.1385,708.2702,194.0813,703.3273,191.3302,709.64,198.89" style="stroke:#A80036;stroke-width:1.0;"/><!--MD5=[33de4fd5c8a13e964768c76c7efabd1e]
link substitution_mappings_capability_i_cscf to substitution_mappings--><!--MD5=[a043871dd833ed899cb7e179a39122bf]
link substitution_mappings_capability_i_cscf to node_i_cscf--><path codeLine="51" d="M277.4,53.17 C278.13,88.06 279.56,155.72 280.35,193.61 " fill="none" id="substitution_mappings_capability_i_cscf-to-node_i_cscf" style="stroke:#A80036;stroke-width:1.0;stroke-dasharray:7.0,7.0;"/><polygon fill="#A80036" points="280.47,198.97,284.2892,189.8918,280.37,193.971,276.2908,190.0518,280.47,198.97" style="stroke:#A80036;stroke-width:1.0;"/><!--MD5=[f75b4e5d67178f89fd16a736516d776d]
link substitution_mappings_capability_s_cscf to substitution_mappings--><!--MD5=[9f97a73f4a3ff29f830df876a00635f3]
link substitution_mappings_capability_s_cscf to node_s_cscf--><path codeLine="53" d="M971.72,31.87 C1074.45,34.73 1340.9,46.47 1414.93,92 C1453.59,115.78 1478.98,163.91 1491.86,194.18 " fill="none" id="substitution_mappings_capability_s_cscf-to-node_s_cscf" style="stroke:#A80036;stroke-width:1.0;stroke-dasharray:7.0,7.0;"/><polygon fill="#A80036" points="1493.82,198.88,1494.0659,189.0342,1491.904,194.2617,1486.6766,192.0998,1493.82,198.88" style="stroke:#A80036;stroke-width:1.0;"/><!--MD5=[b6022f2d226f97b314a6b55c0a433a56]
link substitution_mappings_capability_hss to substitution_mappings--><!--MD5=[caa7f602adb5242b110696d047daec18]
link substitution_mappings_capability_hss to node_homestead--><path codeLine="55" d="M149.71,53.04 C132.25,120.28 90.82,323.72 199.93,415 C213.31,426.2 497.06,418.53 513.93,423 C544.74,431.17 576.37,448.53 599.56,463.26 " fill="none" id="substitution_mappings_capability_hss-to-node_homestead" style="stroke:#A80036;stroke-width:1.0;stroke-dasharray:7.0,7.0;"/><polygon fill="#A80036" points="603.79,465.97,598.4022,457.7255,599.5906,463.2561,594.06,464.4445,603.79,465.97" style="stroke:#A80036;stroke-width:1.0;"/><!--MD5=[c70bfbeb268102111147c1e4202cb63f]
link substitution_mappings_capability_ctf to substitution_mappings--><!--MD5=[723396eed7ecc8912a5cde46d638824b]
link substitution_mappings_capability_ctf to node_ralf--><path codeLine="57" d="M47.93,53.23 C34.7,118.41 6,311.02 101.93,415 C141.17,457.53 309.92,476.96 396.8,484.29 " fill="none" id="substitution_mappings_capability_ctf-to-node_ralf" style="stroke:#A80036;stroke-width:1.0;stroke-dasharray:7.0,7.0;"/><polygon fill="#A80036" points="401.89,484.71,393.2521,479.9785,396.9072,484.296,392.5897,487.951,401.89,484.71" style="stroke:#A80036;stroke-width:1.0;"/><!--MD5=[ff231961dc0905ab32cbbc7e7fb91fe9]
link substitution_mappings_capability_xdms to substitution_mappings--><!--MD5=[7cc0be94d8d5e4ed2c97d0c45366a1fb]
link substitution_mappings_capability_xdms to node_homer--><path codeLine="59" d="M1374.44,34.56 C1438.53,41.38 1562.65,58.63 1588.93,92 C1677.75,204.78 1689.25,312.31 1588.93,415 C1575.61,428.63 1263.82,416.41 1245.93,423 C1224.1,431.04 1203.82,447.67 1189.13,462.1 " fill="none" id="substitution_mappings_capability_xdms-to-node_homer" style="stroke:#A80036;stroke-width:1.0;stroke-dasharray:7.0,7.0;"/><polygon fill="#A80036" points="1185.52,465.71,1194.7124,462.1745,1189.0555,462.1745,1189.0555,456.5176,1185.52,465.71" style="stroke:#A80036;stroke-width:1.0;"/><!--MD5=[78f729664f4b3cbc277cbe176feae5cb]
@startuml
skinparam componentStyle uml2
allowmixing

component "p-cscf" as substitution_mappings_capability_p_cscf
component "i-cscf" as substitution_mappings_capability_i_cscf
component "s-cscf" as substitution_mappings_capability_s_cscf
component "hss" as substitution_mappings_capability_hss
component "ctf" as substitution_mappings_capability_ctf
component "xdms" as substitution_mappings_capability_xdms
component ": ims.nodes.IMS" as substitution_mappings {
node "existing_host: Host" as node_existing_host {
component "bono: Bono" as node_bono
component "sprout: Sprout" as node_sprout
component "dime: Dime" as node_dime {
component "homestead: Homestead" as node_homestead
component "ralf: Ralf" as node_ralf
}
component "homer: Homer" as node_homer
component "vellum: Vellum" as node_vellum
component "ellis: Ellis" as node_ellis
component "smtp: SMTP" as node_smtp
}
component "i-cscf: I-CSCF" as node_i_cscf
component "s-cscf: S-CSCF" as node_s_cscf
node_bono ..> node_sprout : <<ConnectsTo>>
node_bono ..> node_sprout : <<ConnectsTo>>
node_bono ..> node_ralf : <<ConnectsTo>>
node_sprout ..> node_ralf : <<ConnectsTo>>
node_sprout ..> node_bono : <<ConnectsTo>>
node_sprout ..> node_homer : <<ConnectsTo>>
node_sprout ..> node_vellum : <<ConnectsTo>>
node_sprout ..> node_vellum : <<ConnectsTo>>
node_homestead ..> node_vellum : <<ConnectsTo>>
node_ralf ..> node_vellum : <<ConnectsTo>>
node_ralf ..> node_vellum : <<ConnectsTo>>
node_homer ..> node_vellum : <<ConnectsTo>>
node_vellum ..> node_ralf : <<ConnectsTo>>
node_i_cscf ..> node_sprout : <<DependsOn>>
node_i_cscf ..> node_homestead : <<DependsOn>>
node_s_cscf ..> node_sprout : <<DependsOn>>
node_s_cscf ..> node_homestead : <<DependsOn>>
node_ellis ..> node_ralf : <<ConnectsTo>>
node_ellis ..> node_homer : <<ConnectsTo>>
node_ellis ..> node_homestead : <<ConnectsTo>>
node_ellis ..> node_homestead : <<ConnectsTo>>
node_ellis ..> node_smtp : <<**<color:orange>UNDEFINED</color>**>>
}
substitution_mappings_capability_p_cscf -[hidden]- substitution_mappings
substitution_mappings_capability_p_cscf ..> node_bono
substitution_mappings_capability_i_cscf -[hidden]- substitution_mappings
substitution_mappings_capability_i_cscf ..> node_i_cscf
substitution_mappings_capability_s_cscf -[hidden]- substitution_mappings
substitution_mappings_capability_s_cscf ..> node_s_cscf
substitution_mappings_capability_hss -[hidden]- substitution_mappings
substitution_mappings_capability_hss ..> node_homestead
substitution_mappings_capability_ctf -[hidden]- substitution_mappings
substitution_mappings_capability_ctf ..> node_ralf
substitution_mappings_capability_xdms -[hidden]- substitution_mappings
substitution_mappings_capability_xdms ..> node_homer
@enduml

PlantUML version 1.2021.13(Mon Nov 01 11:38:45 GMT 2021)
(GPL source distribution)
Java Runtime: OpenJDK Runtime Environment
JVM: OpenJDK 64-Bit Server VM
Default Encoding: UTF-8
Language: en
Country: US
--></g></svg>