<?xml version="1.0" encoding="UTF-8" standalone="no"?><svg xmlns="http://www.w3.org/2000/svg" xmlns:xlink="http://www.w3.org/1999/xlink" contentScriptType="application/ecmascript" contentStyleType="text/css" height="1220px" preserveAspectRatio="none" style="width:1847px;height:1220px;background:#FFFFFF;" version="1.1" viewBox="0 0 1847 1220" width="1847px" zoomAndPan="magnify"><defs><filter height="300%" id="ff3vzpvf9whyp" width="300%" x="-1" y="-1"><feGaussianBlur result="blurOut" stdDeviation="2.0"/><feColorMatrix in="blurOut" result="blurOut2" type="matrix" values="0 0 0 0 0 0 0 0 0 0 0 0 0 0 0 0 0 0 .4 0"/><feOffset dx="4.0" dy="4.0" in="blurOut2" result="blurOut3"/><feBlend in="SourceGraphic" in2="blurOut3" mode="normal"/></filter></defs><g><!--MD5=[8c4f6a033e273add532353a41a1a9b42]
cluster substitution_mappings--><rect fill="#FFFFFF" filter="url(#ff3vzpvf9whyp)" height="1114" style="stroke:#000000;stroke-width:1.5;" width="1590" x="243" y="92"/><rect fill="#FFFFFF" height="10" style="stroke:#000000;stroke-width:1.5;" width="15" x="1813" y="97"/><rect fill="#FFFFFF" height="2" style="stroke:#000000;stroke-width:1.5;" width="4" x="1811" y="99"/><rect fill="#FFFFFF" height="2" style="stroke:#000000;stroke-width:1.5;" width="4" x="1811" y="103"/><text fill="#000000" font-family="sans-serif" font-size="14" font-weight="bold" lengthAdjust="spacing" textLength="110" x="983" y="118.5352">: ims.nodes.IMS</text><!--MD5=[2add88f37374b4434719d2a1be588e87]
cluster node_existing_host--><polygon fill="#FFFFFF" filter="url(#ff3vzpvf9whyp)" points="259,129,269,119,1506,119,1506,1188,1496,1198,259,1198,259,129" style="stroke:#000000;stroke-width:1.5;"/><line style="stroke:#000000;stroke-width:1.5;" x1="1496" x2="1506" y1="129" y2="119"/><line style="stroke:#000000;stroke-width:1.5;" x1="259" x2="1496" y1="129" y2="129"/><line style="stroke:#000000;stroke-width:1.5;" x1="1496" x2="1496" y1="129" y2="1198"/><text fill="#000000" font-family="sans-serif" font-size="14" font-weight="bold" lengthAdjust="spacing" textLength="139" x="809" y="145.5352">existing_host: Host</text><!--MD5=[af0af5f7d3487b709000f2add3fd916d]
cluster node_dime--><rect fill="#FFFFFF" filter="url(#ff3vzpvf9whyp)" height="81" style="stroke:#000000;stroke-width:1.5;" width="350" x="681" y="808"/><rect fill="#FFFFFF" height="10" style="stroke:#000000;stroke-width:1.5;" width="15" x="1011" y="813"/><rect fill="#FFFFFF" height="2" style="stroke:#000000;stroke-width:1.5;" width="4" x="1009" y="815"/><rect fill="#FFFFFF" height="2" style="stroke:#000000;stroke-width:1.5;" width="4" x="1009" y="819"/><text fill="#000000" font-family="sans-serif" font-size="14" font-weight="bold" lengthAdjust="spacing" textLength="82" x="815" y="834.5352">dime: Dime</text><!--MD5=[78f534de7627ac52831da1d731195c6f]
entity node_i_cscf--><rect fill="#FEFECE" filter="url(#ff3vzpvf9whyp)" height="46.4883" style="stroke:#A80036;stroke-width:1.5;" width="134" x="1691" y="320"/><rect fill="#FEFECE" height="10" style="stroke:#A80036;stroke-width:1.5;" width="15" x="1805" y="325"/><rect fill="#FEFECE" height="2" style="stroke:#A80036;stroke-width:1.5;" width="4" x="1803" y="327"/><rect fill="#FEFECE" height="2" style="stroke:#A80036;stroke-width:1.5;" width="4" x="1803" y="331"/><text fill="#000000" font-family="sans-serif" font-size="14" lengthAdjust="spacing" textLength="94" x="1706" y="353.5352">i-cscf: I-CSCF</text><!--MD5=[c95df3bd33fff18385b9ac9e71496019]
entity node_s_cscf--><rect fill="#FEFECE" filter="url(#ff3vzpvf9whyp)" height="46.4883" style="stroke:#A80036;stroke-width:1.5;" width="141" x="1514.5" y="320"/><rect fill="#FEFECE" height="10" style="stroke:#A80036;stroke-width:1.5;" width="15" x="1635.5" y="325"/><rect fill="#FEFECE" height="2" style="stroke:#A80036;stroke-width:1.5;" width="4" x="1633.5" y="327"/><rect fill="#FEFECE" height="2" style="stroke:#A80036;stroke-width:1.5;" width="4" x="1633.5" y="331"/><text fill="#000000" font-family="sans-serif" font-size="14" lengthAdjust="spacing" textLength="101" x="1529.5" y="353.5352">s-cscf: S-CSCF</text><!--MD5=[445e9b139c9b0cc565b8fe69657823b8]
entity node_bono--><rect fill="#FEFECE" filter="url(#ff3vzpvf9whyp)" height="46.4883" style="stroke:#A80036;stroke-width:1.5;" width="119" x="1167.5" y="151"/><rect fill="#FEFECE" height="10" style="stroke:#A80036;stroke-width:1.5;" width="15" x="1266.5" y="156"/><rect fill="#FEFECE" height="2" style="stroke:#A80036;stroke-width:1.5;" width="4" x="1264.5" y="158"/><rect fill="#FEFECE" height="2" style="stroke:#A80036;stroke-width:1.5;" width="4" x="1264.5" y="162"/><text fill="#000000" font-family="sans-serif" font-size="14" lengthAdjust="spacing" textLength="79" x="1182.5" y="184.5352">bono: Bono</text><!--MD5=[fc906b18261449fa86954e64c809a08a]
entity node_sprout--><rect fill="#FEFECE" filter="url(#ff3vzpvf9whyp)" height="46.4883" style="stroke:#A80036;stroke-width:1.5;" width="139" x="1302.5" y="505"/><rect fill="#FEFECE" height="10" style="stroke:#A80036;stroke-width:1.5;" width="15" x="1421.5" y="510"/><rect fill="#FEFECE" height="2" style="stroke:#A80036;stroke-width:1.5;" width="4" x="1419.5" y="512"/><rect fill="#FEFECE" height="2" style="stroke:#A80036;stroke-width:1.5;" width="4" x="1419.5" y="516"/><text fill="#000000" font-family="sans-serif" font-size="14" lengthAdjust="spacing" textLength="99" x="1317.5" y="538.5352">sprout: Sprout</text><!--MD5=[c10e8e5ee801d8f14135d17027d296d8]
entity node_homer--><rect fill="#FEFECE" filter="url(#ff3vzpvf9whyp)" height="46.4883" style="stroke:#A80036;stroke-width:1.5;" width="139" x="267.5" y="835"/><rect fill="#FEFECE" height="10" style="stroke:#A80036;stroke-width:1.5;" width="15" x="386.5" y="840"/><rect fill="#FEFECE" height="2" style="stroke:#A80036;stroke-width:1.5;" width="4" x="384.5" y="842"/><rect fill="#FEFECE" height="2" style="stroke:#A80036;stroke-width:1.5;" width="4" x="384.5" y="846"/><text fill="#000000" font-family="sans-serif" font-size="14" lengthAdjust="spacing" textLength="99" x="282.5" y="868.5352">homer: Homer</text><!--MD5=[990c34e8fcb61030890d8d0258e925e4]
entity node_vellum--><rect fill="#FEFECE" filter="url(#ff3vzpvf9whyp)" height="46.4883" style="stroke:#A80036;stroke-width:1.5;" width="140" x="888" y="1144"/><rect fill="#FEFECE" height="10" style="stroke:#A80036;stroke-width:1.5;" width="15" x="1008" y="1149"/><rect fill="#FEFECE" height="2" style="stroke:#A80036;stroke-width:1.5;" width="4" x="1006" y="1151"/><rect fill="#FEFECE" height="2" style="stroke:#A80036;stroke-width:1.5;" width="4" x="1006" y="1155"/><text fill="#000000" font-family="sans-serif" font-size="14" lengthAdjust="spacing" textLength="100" x="903" y="1177.5352">vellum: Vellum</text><!--MD5=[9bc4dbfdc2c0dc599d1fd9ce0985706d]
entity node_ellis--><rect fill="#FEFECE" filter="url(#ff3vzpvf9whyp)" height="46.4883" style="stroke:#A80036;stroke-width:1.5;" width="102" x="601" y="505"/><rect fill="#FEFECE" height="10" style="stroke:#A80036;stroke-width:1.5;" width="15" x="683" y="510"/><rect fill="#FEFECE" height="2" style="stroke:#A80036;stroke-width:1.5;" width="4" x="681" y="512"/><rect fill="#FEFECE" height="2" style="stroke:#A80036;stroke-width:1.5;" width="4" x="681" y="516"/><text fill="#000000" font-family="sans-serif" font-size="14" lengthAdjust="spacing" textLength="62" x="616" y="538.5352">ellis: Ellis</text><!--MD5=[563d01739302bd30631170c7d1eb89b4]
entity node_smtp--><rect fill="#FEFECE" filter="url(#ff3vzpvf9whyp)" height="46.4883" style="stroke:#A80036;stroke-width:1.5;" width="119" x="441.5" y="835"/><rect fill="#FEFECE" height="10" style="stroke:#A80036;stroke-width:1.5;" width="15" x="540.5" y="840"/><rect fill="#FEFECE" height="2" style="stroke:#A80036;stroke-width:1.5;" width="4" x="538.5" y="842"/><rect fill="#FEFECE" height="2" style="stroke:#A80036;stroke-width:1.5;" width="4" x="538.5" y="846"/><text fill="#000000" font-family="sans-serif" font-size="14" lengthAdjust="spacing" textLength="79" x="456.5" y="868.5352">smtp: SMTP</text><!--MD5=[ce41af7c2d353e0c410f43d9c4316cc3]
entity node_homestead--><rect fill="#FEFECE" filter="url(#ff3vzpvf9whyp)" height="46.4883" style="stroke:#A80036;stroke-width:1.5;" width="201" x="689.5" y="835"/><rect fill="#FEFECE" height="10" style="stroke:#A80036;stroke-width:1.5;" width="15" x="870.5" y="840"/><rect fill="#FEFECE" height="2" style="stroke:#A80036;stroke-width:1.5;" width="4" x="868.5" y="842"/><rect fill="#FEFECE" height="2" style="stroke:#A80036;stroke-width:1.5;" width="4" x="868.5" y="846"/><text fill="#000000" font-family="sans-serif" font-size="14" lengthAdjust="spacing" textLength="161" x="704.5" y="868.5352">homestead: Homestead</text><!--MD5=[cd641f648c185b5ed965bd9a81b651b0]
entity node_ralf--><rect fill="#FEFECE" filter="url(#ff3vzpvf9whyp)" height="46.4883" style="stroke:#A80036;stroke-width:1.5;" width="97" x="925.5" y="835"/><rect fill="#FEFECE" height="10" style="stroke:#A80036;stroke-width:1.5;" width="15" x="1002.5" y="840"/><rect fill="#FEFECE" height="2" style="stroke:#A80036;stroke-width:1.5;" width="4" x="1000.5" y="842"/><rect fill="#FEFECE" height="2" style="stroke:#A80036;stroke-width:1.5;" width="4" x="1000.5" y="846"/><text fill="#000000" font-family="sans-serif" font-size="14" lengthAdjust="spacing" textLength="57" x="940.5" y="868.5352">ralf: Ralf</text><!--MD5=[4f80b1ae613adee786d283052e5dfec8]
entity substitution_mappings_capability_p_cscf--><rect fill="#FEFECE" filter="url(#ff3vzpvf9whyp)" height="46.4883" style="stroke:#A80036;stroke-width:1.5;" width="83" x="1457.5" y="7"/><rect fill="#FEFECE" height="10" style="stroke:#A80036;stroke-width:1.5;" width="15" x="1520.5" y="12"/><rect fill="#FEFECE" height="2" style="stroke:#A80036;stroke-width:1.5;" width="4" x="1518.5" y="14"/><rect fill="#FEFECE" height="2" style="stroke:#A80036;stroke-width:1.5;" width="4" x="1518.5" y="18"/><text fill="#000000" font-family="sans-serif" font-size="14" lengthAdjust="spacing" textLength="43" x="1472.5" y="40.5352">p-cscf</text><!--MD5=[bbc48975b108baf365ee8356c6896bac]
entity substitution_mappings_capability_i_cscf--><rect fill="#FEFECE" filter="url(#ff3vzpvf9whyp)" height="46.4883" style="stroke:#A80036;stroke-width:1.5;" width="78" x="1600" y="7"/><rect fill="#FEFECE" height="10" style="stroke:#A80036;stroke-width:1.5;" width="15" x="1658" y="12"/><rect fill="#FEFECE" height="2" style="stroke:#A80036;stroke-width:1.5;" width="4" x="1656" y="14"/><rect fill="#FEFECE" height="2" style="stroke:#A80036;stroke-width:1.5;" width="4" x="1656" y="18"/><text fill="#000000" font-family="sans-serif" font-size="14" lengthAdjust="spacing" textLength="38" x="1615" y="40.5352">i-cscf</text><!--MD5=[6c6c680de3cba8f5015d3c75707926d1]
entity substitution_mappings_capability_s_cscf--><rect fill="#FEFECE" filter="url(#ff3vzpvf9whyp)" height="46.4883" style="stroke:#A80036;stroke-width:1.5;" width="81" x="807.5" y="7"/><rect fill="#FEFECE" height="10" style="stroke:#A80036;stroke-width:1.5;" width="15" x="868.5" y="12"/><rect fill="#FEFECE" height="2" style="stroke:#A80036;stroke-width:1.5;" width="4" x="866.5" y="14"/><rect fill="#FEFECE" height="2" style="stroke:#A80036;stroke-width:1.5;" width="4" x="866.5" y="18"/><text fill="#000000" font-family="sans-serif" font-size="14" lengthAdjust="spacing" textLength="41" x="822.5" y="40.5352">s-cscf</text><!--MD5=[deb72084770315e28608e1db1325e59e]
entity substitution_mappings_capability_hss--><rect fill="#FEFECE" filter="url(#ff3vzpvf9whyp)" height="46.4883" style="stroke:#A80036;stroke-width:1.5;" width="63" x="121.5" y="7"/><rect fill="#FEFECE" height="10" style="stroke:#A80036;stroke-width:1.5;" width="15" x="164.5" y="12"/><rect fill="#FEFECE" height="2" style="stroke:#A80036;stroke-width:1.5;" width="4" x="162.5" y="14"/><rect fill="#FEFECE" height="2" style="stroke:#A80036;stroke-width:1.5;" width="4" x="162.5" y="18"/><text fill="#000000" font-family="sans-serif" font-size="14" lengthAdjust="spacing" textLength="23" x="136.5" y="40.5352">hss</text><!--MD5=[650029e6a28714890359b7bf8ed3802c]
entity substitution_mappings_capability_ctf--><rect fill="#FEFECE" filter="url(#ff3vzpvf9whyp)" height="46.4883" style="stroke:#A80036;stroke-width:1.5;" width="57" x="220.5" y="7"/><rect fill="#FEFECE" height="10" style="stroke:#A80036;stroke-width:1.5;" width="15" x="257.5" y="12"/><rect fill="#FEFECE" height="2" style="stroke:#A80036;stroke-width:1.5;" width="4" x="255.5" y="14"/><rect fill="#FEFECE" height="2" style="stroke:#A80036;stroke-width:1.5;" width="4" x="255.5" y="18"/><text fill="#000000" font-family="sans-serif" font-size="14" lengthAdjust="spacing" textLength="17" x="235.5" y="40.5352">ctf</text><!--MD5=[a4322a54fbd04e5939bbdb76c2791580]
entity substitution_mappings_capability_xdms--><rect fill="#FEFECE" filter="url(#ff3vzpvf9whyp)" height="46.4883" style="stroke:#A80036;stroke-width:1.5;" width="78" x="7" y="7"/><rect fill="#FEFECE" height="10" style="stroke:#A80036;stroke-width:1.5;" width="15" x="65" y="12"/><rect fill="#FEFECE" height="2" style="stroke:#A80036;stroke-width:1.5;" width="4" x="63" y="14"/><rect fill="#FEFECE" height="2" style="stroke:#A80036;stroke-width:1.5;" width="4" x="63" y="18"/><text fill="#000000" font-family="sans-serif" font-size="14" lengthAdjust="spacing" textLength="38" x="22" y="40.5352">xdms</text><!--MD5=[17185fdc824b1dbfb203f2a6d1fa4c08]
link node_bono to node_sprout--><path codeLine="25" d="M1172.0432,197.1699 C1125.4028,217.6875 1066,246.2282 1066,258.5 C1066,258.5 1066,258.5 1066,435.5 C1066,483.6373 1206.5052,509.0101 1297.0977,520.3666 " fill="none" id="node_bono-to-node_sprout" style="stroke:#A80036;stroke-width:1.0;stroke-dasharray:7.0,7.0;"/><polygon fill="#A80036" points="1302.181,520.9958,1293.7405,515.9206,1297.2189,520.3817,1292.7578,523.8601,1302.181,520.9958" style="stroke:#A80036;stroke-width:1.0;"/><text fill="#000000" font-family="sans-serif" font-size="13" lengthAdjust="spacing" textLength="89" x="1067" y="348.0684">«ConnectsTo»</text><!--MD5=[17185fdc824b1dbfb203f2a6d1fa4c08]
link node_bono to node_sprout--><path codeLine="26" d="M1227,197.3131 C1227,214.282 1227,237.8151 1227,258.5 C1227,258.5 1227,258.5 1227,435.5 C1227,473.0783 1262.0422,496.0642 1297.6732,509.7233 " fill="none" id="node_bono-to-node_sprout-1" style="stroke:#A80036;stroke-width:1.0;stroke-dasharray:7.0,7.0;"/><polygon fill="#A80036" points="1302.4729,511.5072,1295.4303,504.6223,1297.7862,509.7652,1292.6432,512.1211,1302.4729,511.5072" style="stroke:#A80036;stroke-width:1.0;"/><text fill="#000000" font-family="sans-serif" font-size="13" lengthAdjust="spacing" textLength="89" x="1228" y="348.0684">«ConnectsTo»</text><!--MD5=[e1cd8ca1a81271ae6f3f3a91cb166d8c]
link node_sprout to node_bono--><path codeLine="29" d="M1369.7749,504.972 C1365.3583,465.6621 1353.4349,383.6864 1326,320 C1306.5988,274.9628 1272.7357,229.1457 1250.0927,201.1445 " fill="none" id="node_sprout-to-node_bono" style="stroke:#A80036;stroke-width:1.0;stroke-dasharray:7.0,7.0;"/><polygon fill="#A80036" points="1246.8364,197.1446,1249.4164,206.6495,1249.9931,201.0221,1255.6205,201.5988,1246.8364,197.1446" style="stroke:#A80036;stroke-width:1.0;"/><text fill="#000000" font-family="sans-serif" font-size="13" lengthAdjust="spacing" textLength="89" x="1343" y="348.0684">«ConnectsTo»</text><!--MD5=[b5fc97fe7b3612d6a46b391c72c8f03c]
link node_bono to node_ralf--><path codeLine="27" d="M1167.2716,197.0456 C1140.1909,207.8367 1111.4716,219.8596 1099,227 C1052.6757,253.5224 1036.566,268.373 1023,320 C978.9244,487.7354 1122.6194,540.8201 1073,707 C1058.6389,755.0966 1023.5109,802.102 999.2135,830.5642 " fill="none" id="node_bono-to-node_ralf" style="stroke:#A80036;stroke-width:1.0;stroke-dasharray:7.0,7.0;"/><polygon fill="#A80036" points="995.7109,834.627,1004.6171,830.4223,998.9757,830.8401,998.558,825.1986,995.7109,834.627" style="stroke:#A80036;stroke-width:1.0;"/><text fill="#000000" font-family="sans-serif" font-size="13" lengthAdjust="spacing" textLength="89" x="1066" y="533.0684">«ConnectsTo»</text><!--MD5=[50ae655f6573d026fce4861cd8744523]
link node_sprout to node_ralf--><path codeLine="28" d="M1356.1372,551.2125 C1345.3398,569.2731 1333,595.4036 1333,620.5 C1333,620.5 1333,620.5 1333,768.5 C1333,818.5475 1159.6983,794.0978 1110,800 C1091.5994,802.1853 1043.8724,800.3397 1027,808 C1015.3089,813.3079 1004.5569,822.2668 995.8372,831.1471 " fill="none" id="node_sprout-to-node_ralf" style="stroke:#A80036;stroke-width:1.0;stroke-dasharray:7.0,7.0;"/><polygon fill="#A80036" points="992.2277,834.9373,1001.331,831.1783,995.6758,831.3165,995.5377,825.6613,992.2277,834.9373" style="stroke:#A80036;stroke-width:1.0;"/><text fill="#000000" font-family="sans-serif" font-size="13" lengthAdjust="spacing" textLength="89" x="1334" y="703.5684">«ConnectsTo»</text><!--MD5=[fa180f5aca37e95f0767861a2cd8c553]
link node_sprout to node_homer--><path codeLine="30" d="M1345.302,551.1652 C1300.0027,589.2828 1203.8361,665.1641 1110,707 C1056.9336,730.6592 1040.1421,727.4841 983,738 C736.7504,783.3174 661.4291,728.5017 424,808 C406.7836,813.7646 389.1661,823.1223 374.3274,832.1922 " fill="none" id="node_sprout-to-node_homer" style="stroke:#A80036;stroke-width:1.0;stroke-dasharray:7.0,7.0;"/><polygon fill="#A80036" points="369.815,834.9934,379.5711,833.6451,374.063,832.3563,375.3518,826.8482,369.815,834.9934" style="stroke:#A80036;stroke-width:1.0;"/><text fill="#000000" font-family="sans-serif" font-size="13" lengthAdjust="spacing" textLength="89" x="1145" y="703.5684">«ConnectsTo»</text><!--MD5=[70b5470bf16ce4e08e461936245b93d6]
link node_sprout to node_vellum--><path codeLine="31" d="M1437.3936,551.1556 C1449.988,558.689 1461.5597,568.4561 1469,581 C1545.2431,709.5404 1407,762.0488 1407,911.5 C1407,911.5 1407,911.5 1407,1082.5 C1407,1120.053 1161.2963,1148.2871 1033.4056,1160.4396 " fill="none" id="node_sprout-to-node_vellum" style="stroke:#A80036;stroke-width:1.0;stroke-dasharray:7.0,7.0;"/><polygon fill="#A80036" points="1028.1563,1160.9357,1037.4927,1164.0712,1033.1341,1160.4653,1036.74,1156.1067,1028.1563,1160.9357" style="stroke:#A80036;stroke-width:1.0;"/><text fill="#000000" font-family="sans-serif" font-size="13" lengthAdjust="spacing" textLength="89" x="1431" y="863.0684">«ConnectsTo»</text><!--MD5=[70b5470bf16ce4e08e461936245b93d6]
link node_sprout to node_vellum--><path codeLine="32" d="M1390.9613,551.2791 C1416.864,586.0942 1457.357,653.3682 1432,707 C1401.7656,770.9479 1355.3775,754.5904 1309,808 C1273.6921,848.6615 1246,857.6484 1246,911.5 C1246,911.5 1246,911.5 1246,1082.5 C1246,1126.8844 1118.4649,1149.6163 1033.1324,1159.8585 " fill="none" id="node_sprout-to-node_vellum-1" style="stroke:#A80036;stroke-width:1.0;stroke-dasharray:7.0,7.0;"/><polygon fill="#A80036" points="1028.0845,1160.4558,1037.4922,1163.3705,1033.0499,1159.8682,1036.5521,1155.4259,1028.0845,1160.4558" style="stroke:#A80036;stroke-width:1.0;"/><text fill="#000000" font-family="sans-serif" font-size="13" lengthAdjust="spacing" textLength="89" x="1310" y="863.0684">«ConnectsTo»</text><!--MD5=[a8efed90b4b2a22b59303782db154829]
link node_homestead to node_vellum--><path codeLine="33" d="M723.7964,881.1766 C682.0571,897.8822 636,921.1525 636,942.5 C636,942.5 636,942.5 636,1082.5 C636,1133.2468 787.518,1154.1339 882.6808,1162.2479 " fill="none" id="node_homestead-to-node_vellum" style="stroke:#A80036;stroke-width:1.0;stroke-dasharray:7.0,7.0;"/><polygon fill="#A80036" points="887.7336,1162.6713,879.0991,1157.9337,882.7511,1162.2537,878.431,1165.9057,887.7336,1162.6713" style="stroke:#A80036;stroke-width:1.0;"/><text fill="#000000" font-family="sans-serif" font-size="13" lengthAdjust="spacing" textLength="89" x="637" y="1017.5684">«ConnectsTo»</text><!--MD5=[6ee406a60339a129a1f4e85a7b2926a5]
link node_ralf to node_vellum--><path codeLine="34" d="M925.1654,880.9942 C872.7745,905.709 797,941.6088 797,942.5 C797,942.5 797,942.5 797,1082.5 C797,1124.6645 840.8294,1145.8332 882.7515,1156.4371 " fill="none" id="node_ralf-to-node_vellum" style="stroke:#A80036;stroke-width:1.0;stroke-dasharray:7.0,7.0;"/><polygon fill="#A80036" points="887.8514,1157.6786,880.053,1151.6632,882.9933,1156.4959,878.1606,1159.4362,887.8514,1157.6786" style="stroke:#A80036;stroke-width:1.0;"/><text fill="#000000" font-family="sans-serif" font-size="13" lengthAdjust="spacing" textLength="89" x="798" y="1017.5684">«ConnectsTo»</text><!--MD5=[6ee406a60339a129a1f4e85a7b2926a5]
link node_ralf to node_vellum--><path codeLine="35" d="M967.2146,881.0906 C962.8538,897.9518 958,921.4476 958,942.5 C958,942.5 958,942.5 958,1082.5 C958,1101.0841 958,1121.9672 958,1138.3234 " fill="none" id="node_ralf-to-node_vellum-1" style="stroke:#A80036;stroke-width:1.0;stroke-dasharray:7.0,7.0;"/><polygon fill="#A80036" points="958,1143.6869,962,1134.6869,958,1138.6869,954,1134.6869,958,1143.6869" style="stroke:#A80036;stroke-width:1.0;"/><text fill="#000000" font-family="sans-serif" font-size="13" lengthAdjust="spacing" textLength="89" x="959" y="1017.5684">«ConnectsTo»</text><!--MD5=[caff12cd744a1024831a608e5ac2367a]
link node_vellum to node_ralf--><path codeLine="37" d="M1028.1486,1157.6786 C1071.5348,1147.5196 1119,1126.3785 1119,1082.5 C1119,942.5 1119,942.5 1119,942.5 C1119,895.2001 1067.8588,912.8294 1027,889 C1024.0994,887.3083 1021.1102,885.5636 1018.0981,883.8046 " fill="none" id="node_vellum-to-node_ralf" style="stroke:#A80036;stroke-width:1.0;stroke-dasharray:7.0,7.0;"/><polygon fill="#A80036" points="1013.3554,881.034,1019.1091,889.0274,1017.6728,883.556,1023.1442,882.1196,1013.3554,881.034" style="stroke:#A80036;stroke-width:1.0;"/><text fill="#000000" font-family="sans-serif" font-size="13" lengthAdjust="spacing" textLength="89" x="1120" y="1017.5684">«ConnectsTo»</text><!--MD5=[0c1f7df83b6a05b49ca7859a091abdd8]
link node_homer to node_vellum--><path codeLine="36" d="M370.2873,881.0187 C387.9319,896.1436 406,917.689 406,942.5 C406,942.5 406,942.5 406,1082.5 C406,1130.1373 731.3724,1154.4353 882.5067,1163.1521 " fill="none" id="node_homer-to-node_vellum" style="stroke:#A80036;stroke-width:1.0;stroke-dasharray:7.0,7.0;"/><polygon fill="#A80036" points="887.8087,1163.4556,879.0521,1158.9476,882.8169,1163.1697,878.5947,1166.9345,887.8087,1163.4556" style="stroke:#A80036;stroke-width:1.0;"/><text fill="#000000" font-family="sans-serif" font-size="13" lengthAdjust="spacing" textLength="89" x="407" y="1017.5684">«ConnectsTo»</text><!--MD5=[826b061f94b05f50628e2a75fdc395a7]
link node_i_cscf to node_sprout--><path codeLine="38" d="M1716.7559,366.0328 C1678.3969,387.1605 1619.4392,418.8896 1567,444 C1522.912,465.1114 1472.1754,486.8909 1433.5083,502.9814 " fill="none" id="node_i_cscf-to-node_sprout" style="stroke:#A80036;stroke-width:1.0;stroke-dasharray:7.0,7.0;"/><polygon fill="#A80036" points="1428.8539,504.9151,1438.6998,505.156,1433.4713,502.9968,1435.6305,497.7682,1428.8539,504.9151" style="stroke:#A80036;stroke-width:1.0;"/><text fill="#000000" font-family="sans-serif" font-size="13" lengthAdjust="spacing" textLength="87" x="1600" y="440.5684">«DependsOn»</text><!--MD5=[1b7befbd5d6c5206bd0c70e1c5b14c33]
link node_i_cscf to node_homestead--><path codeLine="39" d="M1755.2582,366.3875 C1749.3607,418.7842 1736,549.6144 1736,659.5 C1736,659.5 1736,659.5 1736,768.5 C1736,816.1283 1571.4751,796.1821 1524,800 C1455.7701,805.487 974.9905,793.9392 908,808 C884.0111,813.0351 858.816,822.9963 837.8956,832.7114 " fill="none" id="node_i_cscf-to-node_homestead" style="stroke:#A80036;stroke-width:1.0;stroke-dasharray:7.0,7.0;"/><polygon fill="#A80036" points="833.2247,834.9092,843.0713,834.6966,837.7489,832.7803,839.6651,827.4579,833.2247,834.9092" style="stroke:#A80036;stroke-width:1.0;"/><text fill="#000000" font-family="sans-serif" font-size="13" lengthAdjust="spacing" textLength="87" x="1737" y="625.5684">«DependsOn»</text><!--MD5=[de2e4ef8136adedfb5a855f33d875f6b]
link node_s_cscf to node_sprout--><path codeLine="40" d="M1550.1246,366.171 C1526.6996,382.2815 1495.5618,404.7758 1470,427 C1443.0956,450.3915 1415.0225,479.931 1395.854,501.0103 " fill="none" id="node_s_cscf-to-node_sprout" style="stroke:#A80036;stroke-width:1.0;stroke-dasharray:7.0,7.0;"/><polygon fill="#A80036" points="1392.3807,504.8444,1401.3876,500.8599,1395.7376,501.1388,1395.4586,495.4888,1392.3807,504.8444" style="stroke:#A80036;stroke-width:1.0;"/><text fill="#000000" font-family="sans-serif" font-size="13" lengthAdjust="spacing" textLength="87" x="1471" y="440.5684">«DependsOn»</text><!--MD5=[92f1e0762e176eacd557461ae6a43a0e]
link node_s_cscf to node_homestead--><path codeLine="41" d="M1578.2811,366.3542 C1573.5294,384.9273 1568,411.6611 1568,435.5 C1568,435.5 1568,435.5 1568,768.5 C1568,796.2849 1540.7735,792.5718 1514,800 C1449.1119,818.0029 973.9017,794.1603 908,808 C884.0116,813.0377 858.8167,822.9993 837.8961,832.7139 " fill="none" id="node_s_cscf-to-node_homestead" style="stroke:#A80036;stroke-width:1.0;stroke-dasharray:7.0,7.0;"/><polygon fill="#A80036" points="833.2252,834.9116,843.0718,834.6992,837.7494,832.7829,839.6658,827.4605,833.2252,834.9116" style="stroke:#A80036;stroke-width:1.0;"/><text fill="#000000" font-family="sans-serif" font-size="13" lengthAdjust="spacing" textLength="87" x="1569" y="625.5684">«DependsOn»</text><!--MD5=[08765601cf5900871c3b62388e9e59ae]
link node_ellis to node_ralf--><path codeLine="42" d="M703.0219,532.0509 C793.8171,540.676 974,564.8083 974,620.5 C974,620.5 974,620.5 974,768.5 C974,788.9182 974,811.9565 974,829.5453 " fill="none" id="node_ellis-to-node_ralf" style="stroke:#A80036;stroke-width:1.0;stroke-dasharray:7.0,7.0;"/><polygon fill="#A80036" points="974,834.82,978,825.82,974,829.82,970,825.82,974,834.82" style="stroke:#A80036;stroke-width:1.0;"/><text fill="#000000" font-family="sans-serif" font-size="13" lengthAdjust="spacing" textLength="89" x="975" y="703.5684">«ConnectsTo»</text><!--MD5=[aff5bcdbfd6f971685b694588ed88b73]
link node_ellis to node_homer--><path codeLine="43" d="M600.7322,530.8944 C503.5163,537.7935 302,559.4568 302,620.5 C302,620.5 302,620.5 302,768.5 C302,790.1554 310.9974,812.859 319.8685,829.981 " fill="none" id="node_ellis-to-node_homer" style="stroke:#A80036;stroke-width:1.0;stroke-dasharray:7.0,7.0;"/><polygon fill="#A80036" points="322.3596,834.6567,321.6577,824.8329,320.0085,830.244,314.5974,828.5947,322.3596,834.6567" style="stroke:#A80036;stroke-width:1.0;"/><text fill="#000000" font-family="sans-serif" font-size="13" lengthAdjust="spacing" textLength="89" x="303" y="703.5684">«ConnectsTo»</text><!--MD5=[099450a6c4823bff9be4631a915dd7eb]
link node_ellis to node_homestead--><path codeLine="44" d="M703.3841,535.6039 C750.5018,545.8293 813,569.0833 813,620.5 C813,620.5 813,620.5 813,768.5 C813,789.6167 806.9197,812.6789 801.0116,830.1037 " fill="none" id="node_ellis-to-node_homestead" style="stroke:#A80036;stroke-width:1.0;stroke-dasharray:7.0,7.0;"/><polygon fill="#A80036" points="799.355,834.8625,806.0915,827.6779,800.9988,830.1404,798.5362,825.0477,799.355,834.8625" style="stroke:#A80036;stroke-width:1.0;"/><text fill="#000000" font-family="sans-serif" font-size="13" lengthAdjust="spacing" textLength="89" x="814" y="703.5684">«ConnectsTo»</text><!--MD5=[099450a6c4823bff9be4631a915dd7eb]
link node_ellis to node_homestead--><path codeLine="45" d="M652,551.1888 C652,569.8976 652,596.8932 652,620.5 C652,620.5 652,620.5 652,768.5 C652,788.8059 694.5905,814.1723 732.4499,832.7097 " fill="none" id="node_ellis-to-node_homestead-1" style="stroke:#A80036;stroke-width:1.0;stroke-dasharray:7.0,7.0;"/><polygon fill="#A80036" points="737.0403,834.9357,730.6877,827.4095,732.5414,832.754,727.1969,834.6077,737.0403,834.9357" style="stroke:#A80036;stroke-width:1.0;"/><text fill="#000000" font-family="sans-serif" font-size="13" lengthAdjust="spacing" textLength="89" x="653" y="703.5684">«ConnectsTo»</text><!--MD5=[501da3e9192be10d475b3dd9c2ac49c4]
link node_ellis to node_smtp--><path codeLine="46" d="M600.8539,542.245 C544.8807,559.3866 463,589.7222 463,620.5 C463,620.5 463,620.5 463,768.5 C463,790.4107 472.7686,813.1107 482.4001,830.1671 " fill="none" id="node_ellis-to-node_smtp" style="stroke:#A80036;stroke-width:1.0;stroke-dasharray:7.0,7.0;"/><polygon fill="#A80036" points="485.1048,834.8229,484.0427,825.0315,482.5932,830.4995,477.1252,829.05,485.1048,834.8229" style="stroke:#A80036;stroke-width:1.0;"/><text fill="#000000" font-family="sans-serif" font-size="13" lengthAdjust="spacing" textLength="20" x="464" y="703.5684">&lt;&lt;</text><text fill="#FFA500" font-family="sans-serif" font-size="13" font-weight="bold" lengthAdjust="spacing" textLength="77" x="484" y="703.5684">UNDEFINED</text><text fill="#000000" font-family="sans-serif" font-size="13" lengthAdjust="spacing" textLength="20" x="561" y="703.5684">&gt;&gt;</text><!--MD5=[01ac9204f751d098ceaca12179a5e9b0]
link substitution_mappings_capability_p_cscf to substitution_mappings--><!--MD5=[2327689e015262c2157fa9e776ce7bc7]
link substitution_mappings_capability_p_cscf to node_bono--><path codeLine="49" d="M1457.4946,34.7694 C1413.0501,41.5167 1342.0425,57.1639 1291,92 C1270.5114,105.9833 1253.5841,128.5684 1242.2951,146.4987 " fill="none" id="substitution_mappings_capability_p_cscf-to-node_bono" style="stroke:#A80036;stroke-width:1.0;stroke-dasharray:7.0,7.0;"/><polygon fill="#A80036" points="1239.5477,150.949,1247.6791,145.3921,1242.1743,146.6945,1240.8719,141.1896,1239.5477,150.949" style="stroke:#A80036;stroke-width:1.0;"/><!--MD5=[33de4fd5c8a13e964768c76c7efabd1e]
link substitution_mappings_capability_i_cscf to substitution_mappings--><!--MD5=[a043871dd833ed899cb7e179a39122bf]
link substitution_mappings_capability_i_cscf to node_i_cscf--><path codeLine="51" d="M1647.7504,53.0156 C1669.1553,109.3162 1724.1005,253.8358 1747.3524,314.9942 " fill="none" id="substitution_mappings_capability_i_cscf-to-node_i_cscf" style="stroke:#A80036;stroke-width:1.0;stroke-dasharray:7.0,7.0;"/><polygon fill="#A80036" points="1749.2368,319.9506,1749.7774,310.1166,1747.46,315.277,1742.2996,312.9595,1749.2368,319.9506" style="stroke:#A80036;stroke-width:1.0;"/><!--MD5=[f75b4e5d67178f89fd16a736516d776d]
link substitution_mappings_capability_s_cscf to substitution_mappings--><!--MD5=[9f97a73f4a3ff29f830df876a00635f3]
link substitution_mappings_capability_s_cscf to node_s_cscf--><path codeLine="53" d="M888.8531,31.2031 C1025.6776,35.5871 1461.9143,52.5623 1510,92 C1577.6561,147.4885 1585.9808,261.3395 1585.9408,314.4902 " fill="none" id="substitution_mappings_capability_s_cscf-to-node_s_cscf" style="stroke:#A80036;stroke-width:1.0;stroke-dasharray:7.0,7.0;"/><polygon fill="#A80036" points="1585.9091,319.7468,1589.9633,310.7711,1585.9392,314.7469,1581.9634,310.7228,1585.9091,319.7468" style="stroke:#A80036;stroke-width:1.0;"/><!--MD5=[b6022f2d226f97b314a6b55c0a433a56]
link substitution_mappings_capability_hss to substitution_mappings--><!--MD5=[caa7f602adb5242b110696d047daec18]
link substitution_mappings_capability_hss to node_homestead--><path codeLine="55" d="M146.1688,53.2128 C138.4655,81.4826 127,130.8128 127,174 C127,174 127,174 127,768.5 C127,792.9131 148.7741,792.4795 172,800 C226.3404,817.5953 630.4103,794.8753 686,808 C707.2099,813.0077 729.1731,822.7877 747.4195,832.3801 " fill="none" id="substitution_mappings_capability_hss-to-node_homestead" style="stroke:#A80036;stroke-width:1.0;stroke-dasharray:7.0,7.0;"/><polygon fill="#A80036" points="751.9757,834.8117,745.9193,827.0451,747.5647,832.4574,742.1524,834.1028,751.9757,834.8117" style="stroke:#A80036;stroke-width:1.0;"/><!--MD5=[c70bfbeb268102111147c1e4202cb63f]
link substitution_mappings_capability_ctf to substitution_mappings--><!--MD5=[723396eed7ecc8912a5cde46d638824b]
link substitution_mappings_capability_ctf to node_ralf--><path codeLine="57" d="M238.924,53.2108 C224.0611,89.6177 198,162.6943 198,227.5 C198,227.5 198,227.5 198,768.5 C198,795.9019 224.6219,792.5799 251,800 C286.1389,809.8845 873.4699,796.1628 908,808 C922.291,812.8991 935.9713,822.2022 947.134,831.4679 " fill="none" id="substitution_mappings_capability_ctf-to-node_ralf" style="stroke:#A80036;stroke-width:1.0;stroke-dasharray:7.0,7.0;"/><polygon fill="#A80036" points="951.1291,834.8716,946.8725,825.9901,947.3232,831.6289,941.6843,832.0796,951.1291,834.8716" style="stroke:#A80036;stroke-width:1.0;"/><!--MD5=[ff231961dc0905ab32cbbc7e7fb91fe9]
link substitution_mappings_capability_xdms to substitution_mappings--><!--MD5=[7cc0be94d8d5e4ed2c97d0c45366a1fb]
link substitution_mappings_capability_xdms to node_homer--><path codeLine="59" d="M45.7399,53.1942 C45.4436,81.6521 45,131.374 45,174 C45,174 45,174 45,768.5 C45,813.9234 175.7991,838.6352 262.3136,850.0123 " fill="none" id="substitution_mappings_capability_xdms-to-node_homer" style="stroke:#A80036;stroke-width:1.0;stroke-dasharray:7.0,7.0;"/><polygon fill="#A80036" points="267.4297,850.6764,259.0196,845.551,262.4713,850.0327,257.9896,853.4844,267.4297,850.6764" style="stroke:#A80036;stroke-width:1.0;"/><!--MD5=[708e3d3bfadf97b70d2e91c8a89e5586]
@startuml
skinparam componentStyle uml2
allowmixing

component "p-cscf" as substitution_mappings_capability_p_cscf
component "i-cscf" as substitution_mappings_capability_i_cscf
component "s-cscf" as substitution_mappings_capability_s_cscf
component "hss" as substitution_mappings_capability_hss
component "ctf" as substitution_mappings_capability_ctf
component "xdms" as substitution_mappings_capability_xdms
component ": ims.nodes.IMS" as substitution_mappings {
node "existing_host: Host" as node_existing_host {
component "bono: Bono" as node_bono
component "sprout: Sprout" as node_sprout
component "dime: Dime" as node_dime {
component "homestead: Homestead" as node_homestead
component "ralf: Ralf" as node_ralf
}
component "homer: Homer" as node_homer
component "vellum: Vellum" as node_vellum
component "ellis: Ellis" as node_ellis
component "smtp: SMTP" as node_smtp
}
component "i-cscf: I-CSCF" as node_i_cscf
component "s-cscf: S-CSCF" as node_s_cscf
node_bono ..> node_sprout : <<ConnectsTo>>
node_bono ..> node_sprout : <<ConnectsTo>>
node_bono ..> node_ralf : <<ConnectsTo>>
node_sprout ..> node_ralf : <<ConnectsTo>>
node_sprout ..> node_bono : <<ConnectsTo>>
node_sprout ..> node_homer : <<ConnectsTo>>
node_sprout ..> node_vellum : <<ConnectsTo>>
node_sprout ..> node_vellum : <<ConnectsTo>>
node_homestead ..> node_vellum : <<ConnectsTo>>
node_ralf ..> node_vellum : <<ConnectsTo>>
node_ralf ..> node_vellum : <<ConnectsTo>>
node_homer ..> node_vellum : <<ConnectsTo>>
node_vellum ..> node_ralf : <<ConnectsTo>>
node_i_cscf ..> node_sprout : <<DependsOn>>
node_i_cscf ..> node_homestead : <<DependsOn>>
node_s_cscf ..> node_sprout : <<DependsOn>>
node_s_cscf ..> node_homestead : <<DependsOn>>
node_ellis ..> node_ralf : <<ConnectsTo>>
node_ellis ..> node_homer : <<ConnectsTo>>
node_ellis ..> node_homestead : <<ConnectsTo>>
node_ellis ..> node_homestead : <<ConnectsTo>>
node_ellis ..> node_smtp : <<**<color:orange>UNDEFINED</color>**>>
}
substitution_mappings_capability_p_cscf -[hidden]- substitution_mappings
substitution_mappings_capability_p_cscf ..> node_bono
substitution_mappings_capability_i_cscf -[hidden]- substitution_mappings
substitution_mappings_capability_i_cscf ..> node_i_cscf
substitution_mappings_capability_s_cscf -[hidden]- substitution_mappings
substitution_mappings_capability_s_cscf ..> node_s_cscf
substitution_mappings_capability_hss -[hidden]- substitution_mappings
substitution_mappings_capability_hss ..> node_homestead
substitution_mappings_capability_ctf -[hidden]- substitution_mappings
substitution_mappings_capability_ctf ..> node_ralf
substitution_mappings_capability_xdms -[hidden]- substitution_mappings
substitution_mappings_capability_xdms ..> node_homer
@enduml

PlantUML version 1.2021.13(Mon Nov 01 12:38:45 CET 2021)
(GPL source distribution)
Java Runtime: Java(TM) SE Runtime Environment
JVM: Java HotSpot(TM) 64-Bit Server VM
Default Encoding: UTF-8
Language: fr
Country: FR
--></g></svg>