<?xml version="1.0" encoding="UTF-8" standalone="no"?><svg xmlns="http://www.w3.org/2000/svg" xmlns:xlink="http://www.w3.org/1999/xlink" contentScriptType="application/ecmascript" contentStyleType="text/css" height="351px" preserveAspectRatio="none" style="width:692px;height:351px;background:#FFFFFF;" version="1.1" viewBox="0 0 692 351" width="692px" zoomAndPan="magnify"><defs><filter height="300%" id="f1dg35kum1qz85" width="300%" x="-1" y="-1"><feGaussianBlur result="blurOut" stdDeviation="2.0"/><feColorMatrix in="blurOut" result="blurOut2" type="matrix" values="0 0 0 0 0 0 0 0 0 0 0 0 0 0 0 0 0 0 .4 0"/><feOffset dx="4.0" dy="4.0" in="blurOut2" result="blurOut3"/><feBlend in="SourceGraphic" in2="blurOut3" mode="normal"/></filter></defs><g><!--MD5=[27697265338c4c4e774e642814f1268f]
class tosca_nodes_SoftwareComponent_NT--><rect codeLine="2" fill="#DDDDDD" filter="url(#f1dg35kum1qz85)" height="48" id="tosca_nodes_SoftwareComponent_NT" style="stroke:#A80036;stroke-width:1.5;" width="220" x="32" y="7"/><ellipse cx="47" cy="23" fill="#008000" rx="11" ry="11" style="stroke:#A80036;stroke-width:1.0;"/><path d="M42.9878,16.6069 L45.6191,16.6069 L49.0723,25.6133 L49.0723,16.6069 L51.2305,16.6069 L51.2305,29 L48.6157,29 L45.146,19.9937 L45.146,29 L42.9878,29 Z " fill="#000000"/><text fill="#000000" font-family="sans-serif" font-size="12" lengthAdjust="spacing" textLength="188" x="61" y="27.5352">tosca.nodes.SoftwareComponent</text><line style="stroke:#A80036;stroke-width:1.5;" x1="33" x2="251" y1="39" y2="39"/><line style="stroke:#A80036;stroke-width:1.5;" x1="33" x2="251" y1="47" y2="47"/><!--MD5=[e13816f25010846e7cde15857a290309]
class tosca_nodes_SoftwareComponent_Collectd_NT--><rect codeLine="3" fill="#FEFECE" filter="url(#f1dg35kum1qz85)" height="95.8203" id="tosca_nodes_SoftwareComponent_Collectd_NT" style="stroke:#A80036;stroke-width:1.5;" width="270" x="7" y="116"/><ellipse cx="22" cy="132" fill="#008000" rx="11" ry="11" style="stroke:#A80036;stroke-width:1.0;"/><path d="M17.9878,125.6069 L20.6191,125.6069 L24.0723,134.6133 L24.0723,125.6069 L26.2305,125.6069 L26.2305,138 L23.6157,138 L20.146,128.9937 L20.146,138 L17.9878,138 Z " fill="#000000"/><text fill="#000000" font-family="sans-serif" font-size="12" lengthAdjust="spacing" textLength="238" x="36" y="136.5352">tosca.nodes.SoftwareComponent.Collectd</text><line style="stroke:#A80036;stroke-width:1.5;" x1="8" x2="276" y1="148" y2="148"/><ellipse cx="18" cy="175.9551" rx="3" ry="3" style="stroke:#038048;stroke-width:1.0;fill:none;"/><text fill="#000000" font-family="sans-serif" font-size="11" font-weight="bold" lengthAdjust="spacing" textLength="99" x="27" y="179.5898">collectd_endpoint</text><text fill="#000000" font-family="sans-serif" font-size="11" lengthAdjust="spacing" textLength="218" x="27" y="192.5449">capability : tosca.capabilities.Endpoint[1]</text><text fill="#000000" font-family="sans-serif" font-size="11" lengthAdjust="spacing" textLength="243" x="27" y="205.5">relationship : tosca.relationships.ConnectsTo</text><line style="stroke:#A80036;stroke-width:1.0;stroke-dasharray:1.0,2.0;" x1="8" x2="106" y1="162.4775" y2="162.4775"/><text fill="#000000" font-family="sans-serif" font-size="11" lengthAdjust="spacing" textLength="72" x="106" y="166.1348">requirements</text><line style="stroke:#A80036;stroke-width:1.0;stroke-dasharray:1.0,2.0;" x1="178" x2="276" y1="162.4775" y2="162.4775"/><!--MD5=[bd814c571e11a2214592d85e7995d8fb]
class tosca_capabilities_Endpoint_CT--><rect codeLine="9" fill="#DDDDDD" filter="url(#f1dg35kum1qz85)" height="48" id="tosca_capabilities_Endpoint_CT" style="stroke:#A80036;stroke-width:1.5;" width="186" x="492" y="140"/><ellipse cx="507" cy="156" fill="#008000" rx="11" ry="11" style="stroke:#A80036;stroke-width:1.0;"/><path d="M509.9731,161.6431 Q509.3921,161.9419 508.7529,162.0913 Q508.1138,162.2407 507.4082,162.2407 Q504.9014,162.2407 503.5815,160.5889 Q502.2617,158.937 502.2617,155.8159 Q502.2617,152.6865 503.5815,151.0347 Q504.9014,149.3828 507.4082,149.3828 Q508.1138,149.3828 508.7612,149.5322 Q509.4087,149.6816 509.9731,149.9805 L509.9731,152.7031 Q509.3423,152.1221 508.7488,151.8523 Q508.1553,151.5825 507.5244,151.5825 Q506.1797,151.5825 505.4949,152.6492 Q504.8101,153.7158 504.8101,155.8159 Q504.8101,157.9077 505.4949,158.9744 Q506.1797,160.041 507.5244,160.041 Q508.1553,160.041 508.7488,159.7712 Q509.3423,159.5015 509.9731,158.9204 Z " fill="#000000"/><text fill="#000000" font-family="sans-serif" font-size="12" lengthAdjust="spacing" textLength="154" x="521" y="160.5352">tosca.capabilities.Endpoint</text><line style="stroke:#A80036;stroke-width:1.5;" x1="493" x2="677" y1="172" y2="172"/><line style="stroke:#A80036;stroke-width:1.5;" x1="493" x2="677" y1="180" y2="180"/><!--MD5=[73ef529cb74862cd16c9ea7608a24b08]
class tosca_relationships_ConnectsTo_RT--><rect codeLine="10" fill="#DDDDDD" filter="url(#f1dg35kum1qz85)" height="48" id="tosca_relationships_ConnectsTo_RT" style="stroke:#A80036;stroke-width:1.5;" width="210" x="37" y="289"/><ellipse cx="52" cy="305" fill="#008000" rx="11" ry="11" style="stroke:#A80036;stroke-width:1.0;"/><path d="M53.1987,305.1479 Q53.564,305.2227 53.8337,305.4924 Q54.1035,305.7622 54.4937,306.5425 L56.7349,311 L54.0454,311 L52.5513,307.8706 Q52.4849,307.7378 52.377,307.5054 Q51.7212,306.1025 50.833,306.1025 L50.0527,306.1025 L50.0527,311 L47.604,311 L47.604,298.6069 L51.1401,298.6069 Q53.5308,298.6069 54.5725,299.4536 Q55.6143,300.3003 55.6143,302.2095 Q55.6143,303.4878 54.9917,304.2432 Q54.3691,304.9985 53.1987,305.1479 Z M50.0527,300.6655 L50.0527,304.0439 L51.2065,304.0439 Q52.2109,304.0439 52.6467,303.6497 Q53.0825,303.2554 53.0825,302.3506 Q53.0825,301.4458 52.6509,301.0557 Q52.2192,300.6655 51.2065,300.6655 Z " fill="#000000"/><text fill="#000000" font-family="sans-serif" font-size="12" lengthAdjust="spacing" textLength="178" x="66" y="309.5352">tosca.relationships.ConnectsTo</text><line style="stroke:#A80036;stroke-width:1.5;" x1="38" x2="246" y1="321" y2="321"/><line style="stroke:#A80036;stroke-width:1.5;" x1="38" x2="246" y1="329" y2="329"/><!--MD5=[0b76092bdf6b1db9d553115cb10290cd]
reverse link tosca_nodes_SoftwareComponent_NT to tosca_nodes_SoftwareComponent_Collectd_NT--><path codeLine="11" d="M142,75.3496 C142,88.3499 142,102.6253 142,115.8503 " fill="none" id="tosca_nodes_SoftwareComponent_NT-backto-tosca_nodes_SoftwareComponent_Collectd_NT" style="stroke:#A80036;stroke-width:1.0;"/><polygon fill="none" points="135.0001,75.0853,142,55.0853,149.0001,75.0853,135.0001,75.0853" style="stroke:#A80036;stroke-width:1.0;"/><!--MD5=[e0ce1012daca4cd7fbdd5e62ae55b259]
reverse link tosca_nodes_SoftwareComponent_Collectd_NT to tosca_capabilities_Endpoint_CT--><path codeLine="12" d="M290.1971,164 C356.7874,164 433.3399,164 491.745,164 " fill="none" id="tosca_nodes_SoftwareComponent_Collectd_NT-backto-tosca_capabilities_Endpoint_CT" style="stroke:#A80036;stroke-width:1.0;"/><polygon fill="#A80036" points="277.0202,164,283.0202,168,289.0202,164,283.0202,160,277.0202,164" style="stroke:#A80036;stroke-width:1.0;"/><text fill="#000000" font-family="sans-serif" font-size="13" lengthAdjust="spacing" textLength="178" x="295.5" y="157.5684">collectd_endpoint.capability</text><text fill="#000000" font-family="sans-serif" font-size="13" lengthAdjust="spacing" textLength="8" x="475.995" y="160.9831">1</text><!--MD5=[0d8c0742605b2a5cdfa44cc934a18704]
link tosca_nodes_SoftwareComponent_Collectd_NT to tosca_relationships_ConnectsTo_RT--><path codeLine="13" d="M142,212.376 C142,235.7773 142,263.1159 142,283.3862 " fill="none" id="tosca_nodes_SoftwareComponent_Collectd_NT-to-tosca_relationships_ConnectsTo_RT" style="stroke:#A80036;stroke-width:1.0;stroke-dasharray:7.0,7.0;"/><polygon fill="#A80036" points="142,288.6432,146,279.6432,142,283.6432,138,279.6432,142,288.6432" style="stroke:#A80036;stroke-width:1.0;"/><text fill="#000000" font-family="sans-serif" font-size="13" lengthAdjust="spacing" textLength="192" x="143" y="255.5684">collectd_endpoint.relationship</text><!--MD5=[aa6c3037ecfdf008fc374e8533df5fba]
@startuml
set namespaceSeparator none
class "tosca.nodes.SoftwareComponent" as tosca_nodes_SoftwareComponent_NT << (N,green) >> #DDDDDD
class "tosca.nodes.SoftwareComponent.Collectd" as tosca_nodes_SoftwareComponent_Collectd_NT << (N,green) >> {
.. requirements ..
+<b>collectd_endpoint
 capability : tosca.capabilities.Endpoint[1]
 relationship : tosca.relationships.ConnectsTo
}
class "tosca.capabilities.Endpoint" as tosca_capabilities_Endpoint_CT << (C,green) >> #DDDDDD
class "tosca.relationships.ConnectsTo" as tosca_relationships_ConnectsTo_RT << (R,green) >> #DDDDDD
tosca_nodes_SoftwareComponent_NT <|- - tosca_nodes_SoftwareComponent_Collectd_NT
tosca_nodes_SoftwareComponent_Collectd_NT *- "1" tosca_capabilities_Endpoint_CT : collectd_endpoint.capability
tosca_nodes_SoftwareComponent_Collectd_NT ..> tosca_relationships_ConnectsTo_RT : collectd_endpoint.relationship
@enduml

PlantUML version 1.2021.13(Mon Nov 01 12:38:45 CET 2021)
(GPL source distribution)
Java Runtime: Java(TM) SE Runtime Environment
JVM: Java HotSpot(TM) 64-Bit Server VM
Default Encoding: UTF-8
Language: fr
Country: FR
--></g></svg>