<?xml version="1.0" encoding="UTF-8" standalone="no"?><svg xmlns="http://www.w3.org/2000/svg" xmlns:xlink="http://www.w3.org/1999/xlink" contentScriptType="application/ecmascript" contentStyleType="text/css" height="350px" preserveAspectRatio="none" style="width:666px;height:350px;background:#FFFFFF;" version="1.1" viewBox="0 0 666 350" width="666px" zoomAndPan="magnify"><defs><filter height="300%" id="f7dvqrlajqb37" width="300%" x="-1" y="-1"><feGaussianBlur result="blurOut" stdDeviation="2.0"/><feColorMatrix in="blurOut" result="blurOut2" type="matrix" values="0 0 0 0 0 0 0 0 0 0 0 0 0 0 0 0 0 0 .4 0"/><feOffset dx="4.0" dy="4.0" in="blurOut2" result="blurOut3"/><feBlend in="SourceGraphic" in2="blurOut3" mode="normal"/></filter></defs><g><!--MD5=[adb3a1d2cf60865428cb4b4378782fa3]
class tosca.nodes.SoftwareComponent--><rect codeLine="2" fill="#DDDDDD" filter="url(#f7dvqrlajqb37)" height="48" id="tosca.nodes.SoftwareComponent" style="stroke:#A80036;stroke-width:1.5;" width="241" x="34" y="7"/><ellipse cx="49" cy="23" fill="#008000" rx="11" ry="11" style="stroke:#A80036;stroke-width:1.0;"/><path d="M44.9844,16.6094 L47.625,16.6094 L51.0781,25.6094 L51.0781,16.6094 L53.2344,16.6094 L53.2344,29 L50.6094,29 L47.1406,20 L47.1406,29 L44.9844,29 L44.9844,16.6094 Z " fill="#000000"/><text fill="#000000" font-family="sans-serif" font-size="12" lengthAdjust="spacing" textLength="209" x="63" y="27.1543">tosca.nodes.SoftwareComponent</text><line style="stroke:#A80036;stroke-width:1.5;" x1="35" x2="274" y1="39" y2="39"/><line style="stroke:#A80036;stroke-width:1.5;" x1="35" x2="274" y1="47" y2="47"/><!--MD5=[d66152a543ff39294076c61bcd1198c8]
class tosca.nodes.SoftwareComponent.Collectd--><rect codeLine="4" fill="#FEFECE" filter="url(#f7dvqrlajqb37)" height="95.2188" id="tosca.nodes.SoftwareComponent.Collectd" style="stroke:#A80036;stroke-width:1.5;" width="295" x="7" y="116"/><ellipse cx="22" cy="132" fill="#008000" rx="11" ry="11" style="stroke:#A80036;stroke-width:1.0;"/><path d="M17.9844,125.6094 L20.625,125.6094 L24.0781,134.6094 L24.0781,125.6094 L26.2344,125.6094 L26.2344,138 L23.6094,138 L20.1406,129 L20.1406,138 L17.9844,138 L17.9844,125.6094 Z " fill="#000000"/><text fill="#000000" font-family="sans-serif" font-size="12" lengthAdjust="spacing" textLength="263" x="36" y="136.1543">tosca.nodes.SoftwareComponent.Collectd</text><line style="stroke:#A80036;stroke-width:1.5;" x1="8" x2="301" y1="148" y2="148"/><ellipse cx="18" cy="175.8047" rx="3" ry="3" style="stroke:#038048;stroke-width:1.0;fill:none;"/><text fill="#000000" font-family="sans-serif" font-size="11" font-weight="bold" lengthAdjust="spacing" textLength="114" x="27" y="179.0151">collectd_endpoint</text><text fill="#000000" font-family="sans-serif" font-size="11" lengthAdjust="spacing" textLength="232" x="27" y="191.8198">capability : tosca.capabilities.Endpoint[1]</text><text fill="#000000" font-family="sans-serif" font-size="11" lengthAdjust="spacing" textLength="259" x="27" y="204.6245">relationship : tosca.relationships.ConnectsTo</text><line style="stroke:#A80036;stroke-width:1.0;stroke-dasharray:1.0,2.0;" x1="8" x2="116" y1="162.4023" y2="162.4023"/><text fill="#000000" font-family="sans-serif" font-size="11" lengthAdjust="spacing" textLength="77" x="116" y="165.7104">requirements</text><line style="stroke:#A80036;stroke-width:1.0;stroke-dasharray:1.0,2.0;" x1="193" x2="301" y1="162.4023" y2="162.4023"/><!--MD5=[2beb2447f73f446132538adcfbc9879b]
class tosca.capabilities.Endpoint--><rect codeLine="10" fill="#DDDDDD" filter="url(#f7dvqrlajqb37)" height="48" id="tosca.capabilities.Endpoint" style="stroke:#A80036;stroke-width:1.5;" width="202" x="450.5" y="139.5"/><ellipse cx="465.5" cy="155.5" fill="#008000" rx="11" ry="11" style="stroke:#A80036;stroke-width:1.0;"/><path d="M468.4688,161.1406 Q467.8906,161.4375 467.25,161.5781 Q466.6094,161.7344 465.9063,161.7344 Q463.4063,161.7344 462.0781,160.0938 Q460.7656,158.4375 460.7656,155.3125 Q460.7656,152.1875 462.0781,150.5313 Q463.4063,148.875 465.9063,148.875 Q466.6094,148.875 467.25,149.0313 Q467.9063,149.1875 468.4688,149.4844 L468.4688,152.2031 Q467.8438,151.625 467.25,151.3594 Q466.6563,151.0781 466.0313,151.0781 Q464.6875,151.0781 464,152.1563 Q463.3125,153.2188 463.3125,155.3125 Q463.3125,157.4063 464,158.4844 Q464.6875,159.5469 466.0313,159.5469 Q466.6563,159.5469 467.25,159.2813 Q467.8438,159 468.4688,158.4219 L468.4688,161.1406 Z " fill="#000000"/><text fill="#000000" font-family="sans-serif" font-size="12" lengthAdjust="spacing" textLength="170" x="479.5" y="159.6543">tosca.capabilities.Endpoint</text><line style="stroke:#A80036;stroke-width:1.5;" x1="451.5" x2="651.5" y1="171.5" y2="171.5"/><line style="stroke:#A80036;stroke-width:1.5;" x1="451.5" x2="651.5" y1="179.5" y2="179.5"/><!--MD5=[092ea08713e9f0a14d7fdee487f2ff56]
class tosca.relationships.ConnectsTo--><rect codeLine="12" fill="#DDDDDD" filter="url(#f7dvqrlajqb37)" height="48" id="tosca.relationships.ConnectsTo" style="stroke:#A80036;stroke-width:1.5;" width="230" x="39.5" y="288"/><ellipse cx="54.5" cy="304" fill="#008000" rx="11" ry="11" style="stroke:#A80036;stroke-width:1.0;"/><path d="M55.7031,304.1406 Q56.0625,304.2188 56.3281,304.5 Q56.6094,304.7656 57,305.5469 L59.2344,310 L56.5469,310 L55.0469,306.875 Q54.9844,306.7344 54.875,306.5 Q54.2188,305.1094 53.3281,305.1094 L52.5469,305.1094 L52.5469,310 L50.1094,310 L50.1094,297.6094 L53.6406,297.6094 Q56.0313,297.6094 57.0625,298.4531 Q58.1094,299.2969 58.1094,301.2031 Q58.1094,302.4844 57.4844,303.25 Q56.875,304 55.7031,304.1406 Z M52.5469,299.6719 L52.5469,303.0469 L53.7031,303.0469 Q54.7188,303.0469 55.1406,302.6563 Q55.5781,302.25 55.5781,301.3438 Q55.5781,300.4531 55.1406,300.0625 Q54.7188,299.6719 53.7031,299.6719 L52.5469,299.6719 Z " fill="#000000"/><text fill="#000000" font-family="sans-serif" font-size="12" lengthAdjust="spacing" textLength="198" x="68.5" y="308.1543">tosca.relationships.ConnectsTo</text><line style="stroke:#A80036;stroke-width:1.5;" x1="40.5" x2="268.5" y1="320" y2="320"/><line style="stroke:#A80036;stroke-width:1.5;" x1="40.5" x2="268.5" y1="328" y2="328"/><!--MD5=[786421726937bc01941e87a263f18c4d]
reverse link tosca.nodes.SoftwareComponent to tosca.nodes.SoftwareComponent.Collectd--><path codeLine="3" d="M154.5,75.29 C154.5,88.32 154.5,102.68 154.5,115.92 " fill="none" id="tosca.nodes.SoftwareComponent-backto-tosca.nodes.SoftwareComponent.Collectd" style="stroke:#A80036;stroke-width:1.0;"/><polygon fill="none" points="147.5,75.03,154.5,55.03,161.5,75.03,147.5,75.03" style="stroke:#A80036;stroke-width:1.0;"/><!--MD5=[6cafb4902a0759bcc3bf37518b2f43fb]
reverse link tosca.nodes.SoftwareComponent.Collectd to tosca.capabilities.Endpoint--><path codeLine="11" d="M315.17,163.5 C360.86,163.5 409.33,163.5 450.41,163.5 " fill="none" id="tosca.nodes.SoftwareComponent.Collectd-backto-tosca.capabilities.Endpoint" style="stroke:#A80036;stroke-width:1.0;"/><polygon fill="#A80036" points="302.05,163.5,308.05,167.5,314.05,163.5,308.05,159.5,302.05,163.5" style="stroke:#A80036;stroke-width:1.0;"/><text fill="#000000" font-family="sans-serif" font-size="13" lengthAdjust="spacing" textLength="112" x="320.25" y="156.5669">collectd_endpoint</text><text fill="#000000" font-family="sans-serif" font-size="13" lengthAdjust="spacing" textLength="8" x="434.364" y="159.9978">1</text><!--MD5=[fdc9e7f53468c03e8b7e2501916b4cad]
link tosca.nodes.SoftwareComponent.Collectd to tosca.relationships.ConnectsTo--><path codeLine="13" d="M154.5,211.26 C154.5,234.78 154.5,262.51 154.5,282.76 " fill="none" id="tosca.nodes.SoftwareComponent.Collectd-to-tosca.relationships.ConnectsTo" style="stroke:#A80036;stroke-width:1.0;stroke-dasharray:7.0,7.0;"/><polygon fill="#A80036" points="154.5,288,158.5,279,154.5,283,150.5,279,154.5,288" style="stroke:#A80036;stroke-width:1.0;"/><text fill="#000000" font-family="sans-serif" font-size="13" lengthAdjust="spacing" textLength="190" x="155.5" y="254.0669">collectd_endpoint.relationship</text><!--MD5=[455171c0a05d2a1fb7ef80a0412cb28d]
@startuml
set namespaceSeparator none
class "tosca.nodes.SoftwareComponent" << (N,green) >> #DDDDDD
"tosca.nodes.SoftwareComponent" <|- - "tosca.nodes.SoftwareComponent.Collectd"
class "tosca.nodes.SoftwareComponent.Collectd" << (N,green) >> {
.. requirements ..
+<b>collectd_endpoint
 capability : tosca.capabilities.Endpoint[1]
 relationship : tosca.relationships.ConnectsTo
}
class "tosca.capabilities.Endpoint" << (C,green) >> #DDDDDD
"tosca.nodes.SoftwareComponent.Collectd" *- "1" "tosca.capabilities.Endpoint" : collectd_endpoint
class "tosca.relationships.ConnectsTo" << (R,green) >> #DDDDDD
"tosca.nodes.SoftwareComponent.Collectd" ..> "tosca.relationships.ConnectsTo" : collectd_endpoint.relationship
@enduml

PlantUML version 1.2021.13(Mon Nov 01 11:38:45 GMT 2021)
(GPL source distribution)
Java Runtime: OpenJDK Runtime Environment
JVM: OpenJDK 64-Bit Server VM
Default Encoding: UTF-8
Language: en
Country: US
--></g></svg>