<?xml version="1.0" encoding="UTF-8" standalone="no"?><svg xmlns="http://www.w3.org/2000/svg" xmlns:xlink="http://www.w3.org/1999/xlink" contentScriptType="application/ecmascript" contentStyleType="text/css" height="250px" preserveAspectRatio="none" style="width:344px;height:250px;background:#FFFFFF;" version="1.1" viewBox="0 0 344 250" width="344px" zoomAndPan="magnify"><defs><filter height="300%" id="fzwcpg47w7nr3" width="300%" x="-1" y="-1"><feGaussianBlur result="blurOut" stdDeviation="2.0"/><feColorMatrix in="blurOut" result="blurOut2" type="matrix" values="0 0 0 0 0 0 0 0 0 0 0 0 0 0 0 0 0 0 .4 0"/><feOffset dx="4.0" dy="4.0" in="blurOut2" result="blurOut3"/><feBlend in="SourceGraphic" in2="blurOut3" mode="normal"/></filter></defs><g><!--MD5=[09d44a14d580b355706211a93fdf210d]
cluster node_mysql_container--><rect fill="#FFFFFF" filter="url(#fzwcpg47w7nr3)" height="91" style="stroke:#000000;stroke-width:1.5;" width="192" x="49" y="145"/><rect fill="#FFFFFF" height="10" style="stroke:#000000;stroke-width:1.5;" width="15" x="221" y="150"/><rect fill="#FFFFFF" height="2" style="stroke:#000000;stroke-width:1.5;" width="4" x="219" y="152"/><rect fill="#FFFFFF" height="2" style="stroke:#000000;stroke-width:1.5;" width="4" x="219" y="156"/><text fill="#000000" font-family="sans-serif" font-size="14" font-weight="bold" lengthAdjust="spacing" textLength="176" x="57" y="171.5352">mysql_container: Docker</text><!--MD5=[de906c4bf10d8daf2fb95942e28240a4]
cluster node_wordpress_container--><rect fill="#FFFFFF" filter="url(#fzwcpg47w7nr3)" height="91" style="stroke:#000000;stroke-width:1.5;" width="223" x="7" y="7"/><rect fill="#FFFFFF" height="10" style="stroke:#000000;stroke-width:1.5;" width="15" x="210" y="12"/><rect fill="#FFFFFF" height="2" style="stroke:#000000;stroke-width:1.5;" width="4" x="208" y="14"/><rect fill="#FFFFFF" height="2" style="stroke:#000000;stroke-width:1.5;" width="4" x="208" y="18"/><text fill="#000000" font-family="sans-serif" font-size="14" font-weight="bold" lengthAdjust="spacing" textLength="207" x="15" y="33.5352">wordpress_container: Docker</text><!--MD5=[4309ecefe92aa5135705346409ffbb60]
entity node_mysql_container_artifact_my_image--><rect fill="#FEFECE" filter="url(#fzwcpg47w7nr3)" height="55.9766" style="stroke:#000000;stroke-width:1.5;" width="126" x="57" y="172"/><polygon fill="#FEFECE" points="166,177,166,191,178,191,178,183,172,177,166,177" style="stroke:#000000;stroke-width:1.5;"/><line style="stroke:#000000;stroke-width:1.5;" x1="172" x2="172" y1="177" y2="183"/><line style="stroke:#000000;stroke-width:1.5;" x1="178" x2="172" y1="183" y2="183"/><text fill="#000000" font-family="sans-serif" font-size="14" font-style="italic" lengthAdjust="spacing" textLength="62" x="84" y="198.5352">«artifact»</text><text fill="#000000" font-family="sans-serif" font-size="14" lengthAdjust="spacing" textLength="96" x="67" y="215.0234">mysql: Docker</text><!--MD5=[159b6b30eb5f23e234ca7b12b78509b8]
entity node_wordpress_container_artifact_my_image--><rect fill="#FEFECE" filter="url(#fzwcpg47w7nr3)" height="55.9766" style="stroke:#000000;stroke-width:1.5;" width="158" x="22" y="34"/><polygon fill="#FEFECE" points="163,39,163,53,175,53,175,45,169,39,163,39" style="stroke:#000000;stroke-width:1.5;"/><line style="stroke:#000000;stroke-width:1.5;" x1="169" x2="169" y1="39" y2="45"/><line style="stroke:#000000;stroke-width:1.5;" x1="175" x2="169" y1="45" y2="45"/><text fill="#000000" font-family="sans-serif" font-size="14" font-style="italic" lengthAdjust="spacing" textLength="62" x="65" y="60.5352">«artifact»</text><text fill="#000000" font-family="sans-serif" font-size="14" lengthAdjust="spacing" textLength="128" x="32" y="77.0234">wordpress: Docker</text><!--MD5=[834616e14d56af5fc10850b6ad9cca1b]
link node_wordpress_container to node_mysql_container--><path d="M218,98.1811 C218,98.4067 218,98.6329 218,98.8597 C218,99.7668 218,100.6835 218,101.6088 C218,103.4595 218,105.3449 218,107.258 C218,114.9105 218,123.0067 218,131.1011 C218,135.1483 218,139.195 218,143.1855 C218,143.6843 218,144.1823 218,144.6792 " fill="none" id="node_wordpress_container-to-node_mysql_container" style="stroke:#A80036;stroke-width:1.0;stroke-dasharray:7.0,7.0;"/><polygon fill="#A80036" points="218,144.6792,222,135.6792,218,139.6792,214,135.6792,218,144.6792" style="stroke:#A80036;stroke-width:1.0;"/><text fill="#000000" font-family="sans-serif" font-size="13" lengthAdjust="spacing" textLength="20" x="219" y="133.5684">&lt;&lt;</text><text fill="#FFA500" font-family="sans-serif" font-size="13" font-weight="bold" lengthAdjust="spacing" textLength="77" x="239" y="133.5684">UNDEFINED</text><text fill="#000000" font-family="sans-serif" font-size="13" lengthAdjust="spacing" textLength="20" x="316" y="133.5684">&gt;&gt;</text><!--MD5=[5664dfae2bee72a4e49130fdf0d8d6f4]
@startuml
skinparam componentStyle uml2
allowmixing

component "mysql_container: Docker" as node_mysql_container {
artifact "mysql: Docker" <<artifact>> as node_mysql_container_artifact_my_image
}
component "wordpress_container: Docker" as node_wordpress_container {
artifact "wordpress: Docker" <<artifact>> as node_wordpress_container_artifact_my_image
}
node_wordpress_container ..> node_mysql_container : <<**<color:orange>UNDEFINED</color>**>>
@enduml

PlantUML version 1.2021.13(Mon Nov 01 12:38:45 CET 2021)
(GPL source distribution)
Java Runtime: Java(TM) SE Runtime Environment
JVM: Java HotSpot(TM) 64-Bit Server VM
Default Encoding: UTF-8
Language: fr
Country: FR
--></g></svg>