<?xml version="1.0" encoding="UTF-8" standalone="no"?><svg xmlns="http://www.w3.org/2000/svg" xmlns:xlink="http://www.w3.org/1999/xlink" contentScriptType="application/ecmascript" contentStyleType="text/css" height="304px" preserveAspectRatio="none" style="width:249px;height:304px;background:#FFFFFF;" version="1.1" viewBox="0 0 249 304" width="249px" zoomAndPan="magnify"><defs><filter height="300%" id="fgthn1x5l26r0" width="300%" x="-1" y="-1"><feGaussianBlur result="blurOut" stdDeviation="2.0"/><feColorMatrix in="blurOut" result="blurOut2" type="matrix" values="0 0 0 0 0 0 0 0 0 0 0 0 0 0 0 0 0 0 .4 0"/><feOffset dx="4.0" dy="4.0" in="blurOut2" result="blurOut3"/><feBlend in="SourceGraphic" in2="blurOut3" mode="normal"/></filter></defs><g><!--MD5=[09d44a14d580b355706211a93fdf210d]
cluster node_mysql_container--><rect fill="#FFFFFF" filter="url(#fgthn1x5l26r0)" height="122" style="stroke:#000000;stroke-width:1.5;" width="192" x="7" y="168"/><rect fill="#FFFFFF" height="10" style="stroke:#000000;stroke-width:1.5;" width="15" x="179" y="173"/><rect fill="#FFFFFF" height="2" style="stroke:#000000;stroke-width:1.5;" width="4" x="177" y="175"/><rect fill="#FFFFFF" height="2" style="stroke:#000000;stroke-width:1.5;" width="4" x="177" y="179"/><text fill="#000000" font-family="sans-serif" font-size="14" font-weight="bold" lengthAdjust="spacing" textLength="176" x="15" y="194.5352">mysql_container: Docker</text><!--MD5=[c29845a89e0ada095dde9b39a0f88a15]
cluster node_mysql_container_artifact_my_image--><rect fill="#FFFFFF" filter="url(#fgthn1x5l26r0)" height="87" style="stroke:#000000;stroke-width:1.5;" width="147" x="38" y="195"/><polygon fill="#FFFFFF" points="168,200,168,214,180,214,180,206,174,200,168,200" style="stroke:#000000;stroke-width:1.5;"/><line style="stroke:#000000;stroke-width:1.5;" x1="174" x2="174" y1="200" y2="206"/><line style="stroke:#000000;stroke-width:1.5;" x1="180" x2="174" y1="206" y2="206"/><text fill="#000000" font-family="sans-serif" font-size="14" font-style="italic" lengthAdjust="spacing" textLength="62" x="80.5" y="210.5352">«artifact»</text><text fill="#000000" font-family="sans-serif" font-size="14" font-weight="bold" lengthAdjust="spacing" textLength="131" x="46" y="227.0234">my_image: Docker</text><!--MD5=[de906c4bf10d8daf2fb95942e28240a4]
cluster node_wordpress_container--><rect fill="#FFFFFF" filter="url(#fgthn1x5l26r0)" height="122" style="stroke:#000000;stroke-width:1.5;" width="223" x="12" y="7"/><rect fill="#FFFFFF" height="10" style="stroke:#000000;stroke-width:1.5;" width="15" x="215" y="12"/><rect fill="#FFFFFF" height="2" style="stroke:#000000;stroke-width:1.5;" width="4" x="213" y="14"/><rect fill="#FFFFFF" height="2" style="stroke:#000000;stroke-width:1.5;" width="4" x="213" y="18"/><text fill="#000000" font-family="sans-serif" font-size="14" font-weight="bold" lengthAdjust="spacing" textLength="207" x="20" y="33.5352">wordpress_container: Docker</text><!--MD5=[a5fa6f1cd1ad2ddf79d7ea076ac49897]
cluster node_wordpress_container_artifact_my_image--><rect fill="#FFFFFF" filter="url(#fgthn1x5l26r0)" height="87" style="stroke:#000000;stroke-width:1.5;" width="147" x="65" y="34"/><polygon fill="#FFFFFF" points="195,39,195,53,207,53,207,45,201,39,195,39" style="stroke:#000000;stroke-width:1.5;"/><line style="stroke:#000000;stroke-width:1.5;" x1="201" x2="201" y1="39" y2="45"/><line style="stroke:#000000;stroke-width:1.5;" x1="207" x2="201" y1="45" y2="45"/><text fill="#000000" font-family="sans-serif" font-size="14" font-style="italic" lengthAdjust="spacing" textLength="62" x="107.5" y="49.5352">«artifact»</text><text fill="#000000" font-family="sans-serif" font-size="14" font-weight="bold" lengthAdjust="spacing" textLength="131" x="73" y="66.0234">my_image: Docker</text><!--MD5=[e982c2c3d4fff4cd0ae61c1810754ab7]
entity mysql_container_label--><text fill="#000000" font-family="sans-serif" font-size="14" lengthAdjust="spacing" textLength="69" x="81.5" y="261.5352">file: mysql</text><!--MD5=[ba99cbc77aa6dfa196b389b2df64bf8a]
entity wordpress_container_label--><text fill="#000000" font-family="sans-serif" font-size="14" lengthAdjust="spacing" textLength="101" x="88.5" y="100.5352">file: wordpress</text><!--MD5=[834616e14d56af5fc10850b6ad9cca1b]
link node_wordpress_container to node_mysql_container--><path d="M25,129.5455 C25,129.7929 25,130.0411 25,130.2902 C25,130.7883 25,131.2899 25,131.7948 C25,132.8045 25,133.8274 25,134.8624 C25,139.0025 25,143.3371 25,147.801 C25,152.265 25,156.8584 25,161.5162 C25,162.6806 25,163.8491 25,165.0206 C25,165.6063 25,166.1928 25,166.78 C25,167.0735 25,167.3673 25,167.6611 C25,167.7346 25,167.8081 25,167.8815 C25,167.9183 25,167.955 25,167.9918 " fill="none" id="node_wordpress_container-to-node_mysql_container" style="stroke:#A80036;stroke-width:1.0;stroke-dasharray:7.0,7.0;"/><polygon fill="#A80036" points="25,167.9918,29,158.9918,25,162.9918,21,158.9918,25,167.9918" style="stroke:#A80036;stroke-width:1.0;"/><text fill="#000000" font-family="sans-serif" font-size="13" lengthAdjust="spacing" textLength="20" x="26" y="156.5684">&lt;&lt;</text><text fill="#FFA500" font-family="sans-serif" font-size="13" font-weight="bold" lengthAdjust="spacing" textLength="77" x="46" y="156.5684">UNDEFINED</text><text fill="#000000" font-family="sans-serif" font-size="13" lengthAdjust="spacing" textLength="20" x="123" y="156.5684">&gt;&gt;</text><!--MD5=[adc7845d2cc7890201421110e38afeaf]
@startuml
skinparam componentStyle uml2
allowmixing

component "mysql_container: Docker" as node_mysql_container {
artifact "my_image: Docker" <<artifact>> as node_mysql_container_artifact_my_image {
label "file: mysql" as mysql_container_label
}
}
component "wordpress_container: Docker" as node_wordpress_container {
artifact "my_image: Docker" <<artifact>> as node_wordpress_container_artifact_my_image {
label "file: wordpress" as wordpress_container_label
}
}
node_wordpress_container ..> node_mysql_container : <<**<color:orange>UNDEFINED</color>**>>
@enduml

PlantUML version 1.2021.13(Mon Nov 01 12:38:45 CET 2021)
(GPL source distribution)
Java Runtime: Java(TM) SE Runtime Environment
JVM: Java HotSpot(TM) 64-Bit Server VM
Default Encoding: UTF-8
Language: fr
Country: FR
--></g></svg>