<?xml version="1.0" encoding="UTF-8" standalone="no"?><svg xmlns="http://www.w3.org/2000/svg" xmlns:xlink="http://www.w3.org/1999/xlink" contentScriptType="application/ecmascript" contentStyleType="text/css" height="458px" preserveAspectRatio="none" style="width:277px;height:458px;background:#FFFFFF;" version="1.1" viewBox="0 0 277 458" width="277px" zoomAndPan="magnify"><defs><filter height="300%" id="fgthn1x5l26r0" width="300%" x="-1" y="-1"><feGaussianBlur result="blurOut" stdDeviation="2.0"/><feColorMatrix in="blurOut" result="blurOut2" type="matrix" values="0 0 0 0 0 0 0 0 0 0 0 0 0 0 0 0 0 0 .4 0"/><feOffset dx="4.0" dy="4.0" in="blurOut2" result="blurOut3"/><feBlend in="SourceGraphic" in2="blurOut3" mode="normal"/></filter></defs><g><!--MD5=[09d44a14d580b355706211a93fdf210d]
cluster node_mysql_container--><rect fill="#FFFFFF" filter="url(#fgthn1x5l26r0)" height="186" style="stroke:#000000;stroke-width:1.5;" width="232" x="12" y="258"/><rect fill="#FFFFFF" height="10" style="stroke:#000000;stroke-width:1.5;" width="15" x="224" y="263"/><rect fill="#FFFFFF" height="2" style="stroke:#000000;stroke-width:1.5;" width="4" x="222" y="265"/><rect fill="#FFFFFF" height="2" style="stroke:#000000;stroke-width:1.5;" width="4" x="222" y="269"/><text fill="#000000" font-family="sans-serif" font-size="14" font-weight="bold" lengthAdjust="spacing" textLength="195" x="30.5" y="283.9951">mysql_container: Docker</text><!--MD5=[c29845a89e0ada095dde9b39a0f88a15]
cluster node_mysql_container_artifact_my_image--><rect fill="#FFFFFF" filter="url(#fgthn1x5l26r0)" height="103" style="stroke:#000000;stroke-width:1.5;" width="160" x="52" y="309"/><polygon fill="#FFFFFF" points="195,314,195,328,207,328,207,320,201,314,195,314" style="stroke:#000000;stroke-width:1.5;"/><line style="stroke:#000000;stroke-width:1.5;" x1="201" x2="201" y1="314" y2="320"/><line style="stroke:#000000;stroke-width:1.5;" x1="207" x2="201" y1="320" y2="320"/><text fill="#000000" font-family="sans-serif" font-size="14" font-style="italic" lengthAdjust="spacing" textLength="64" x="100" y="323.9951">«artifact»</text><text fill="#000000" font-family="sans-serif" font-size="14" font-weight="bold" lengthAdjust="spacing" textLength="144" x="60" y="340.292">my_image: Docker</text><!--MD5=[de906c4bf10d8daf2fb95942e28240a4]
cluster node_wordpress_container--><rect fill="#FFFFFF" filter="url(#fgthn1x5l26r0)" height="186" style="stroke:#000000;stroke-width:1.5;" width="251" x="12" y="7"/><rect fill="#FFFFFF" height="10" style="stroke:#000000;stroke-width:1.5;" width="15" x="243" y="12"/><rect fill="#FFFFFF" height="2" style="stroke:#000000;stroke-width:1.5;" width="4" x="241" y="14"/><rect fill="#FFFFFF" height="2" style="stroke:#000000;stroke-width:1.5;" width="4" x="241" y="18"/><text fill="#000000" font-family="sans-serif" font-size="14" font-weight="bold" lengthAdjust="spacing" textLength="235" x="20" y="32.9951">wordpress_container: Docker</text><!--MD5=[a5fa6f1cd1ad2ddf79d7ea076ac49897]
cluster node_wordpress_container_artifact_my_image--><rect fill="#FFFFFF" filter="url(#fgthn1x5l26r0)" height="103" style="stroke:#000000;stroke-width:1.5;" width="160" x="61" y="58"/><polygon fill="#FFFFFF" points="204,63,204,77,216,77,216,69,210,63,204,63" style="stroke:#000000;stroke-width:1.5;"/><line style="stroke:#000000;stroke-width:1.5;" x1="210" x2="210" y1="63" y2="69"/><line style="stroke:#000000;stroke-width:1.5;" x1="216" x2="210" y1="69" y2="69"/><text fill="#000000" font-family="sans-serif" font-size="14" font-style="italic" lengthAdjust="spacing" textLength="64" x="109" y="72.9951">«artifact»</text><text fill="#000000" font-family="sans-serif" font-size="14" font-weight="bold" lengthAdjust="spacing" textLength="144" x="69" y="89.292">my_image: Docker</text><!--MD5=[e982c2c3d4fff4cd0ae61c1810754ab7]
entity mysql_container_label--><text fill="#000000" font-family="sans-serif" font-size="14" lengthAdjust="spacing" textLength="68" x="98" y="382.9951">file: mysql</text><!--MD5=[ba99cbc77aa6dfa196b389b2df64bf8a]
entity wordpress_container_label--><text fill="#000000" font-family="sans-serif" font-size="14" lengthAdjust="spacing" textLength="101" x="90.5" y="131.9951">file: wordpress</text><!--MD5=[834616e14d56af5fc10850b6ad9cca1b]
link node_wordpress_container to node_mysql_container--><path d="M20,193.0043 C20,193.4307 20,193.8583 20,194.2871 C20,195.1448 20,196.0071 20,196.8741 C20,200.3417 20,203.8818 20,207.4799 C20,221.8723 20,237.1925 20,252.5125 C20,253.47 20,254.4275 20,255.3848 C20,255.8634 20,256.342 20,256.8205 C20,257.0597 20,257.299 20,257.5382 " fill="none" id="node_wordpress_container-to-node_mysql_container" style="stroke:#A80036;stroke-width:1.0;stroke-dasharray:7.0,7.0;"/><polygon fill="#A80036" points="20,257.5382,24,248.5382,20,252.5382,16,248.5382,20,257.5382" style="stroke:#A80036;stroke-width:1.0;"/><text fill="#000000" font-family="sans-serif" font-size="13" lengthAdjust="spacing" textLength="22" x="21" y="230.0669">&lt;&lt;</text><text fill="#FFA500" font-family="sans-serif" font-size="13" font-weight="bold" lengthAdjust="spacing" textLength="85" x="43" y="230.0669">UNDEFINED</text><text fill="#000000" font-family="sans-serif" font-size="13" lengthAdjust="spacing" textLength="22" x="128" y="230.0669">&gt;&gt;</text><!--MD5=[d75fbe0645a3d09bf1703c2daa97f9e6]
@startuml
skinparam componentStyle uml2
allowmixing

component "mysql_container: Docker" as node_mysql_container {
artifact "my_image: Docker" <<artifact>> as node_mysql_container_artifact_my_image {
label "file: mysql" as mysql_container_label
}
}
component "wordpress_container: Docker" as node_wordpress_container {
artifact "my_image: Docker" <<artifact>> as node_wordpress_container_artifact_my_image {
label "file: wordpress" as wordpress_container_label
}
}
node_wordpress_container ..> node_mysql_container : <<**<color:orange>UNDEFINED</color>**>>
@enduml

PlantUML version 1.2021.13(Mon Nov 01 11:38:45 GMT 2021)
(GPL source distribution)
Java Runtime: OpenJDK Runtime Environment
JVM: OpenJDK 64-Bit Server VM
Default Encoding: UTF-8
Language: en
Country: US
--></g></svg>