<?xml version="1.0" encoding="UTF-8" standalone="no"?><svg xmlns="http://www.w3.org/2000/svg" xmlns:xlink="http://www.w3.org/1999/xlink" contentScriptType="application/ecmascript" contentStyleType="text/css" height="212px" preserveAspectRatio="none" style="width:612px;height:212px;background:#FFFFFF;" version="1.1" viewBox="0 0 612 212" width="612px" zoomAndPan="magnify"><defs><filter height="300%" id="fp8blkatwk4by" width="300%" x="-1" y="-1"><feGaussianBlur result="blurOut" stdDeviation="2.0"/><feColorMatrix in="blurOut" result="blurOut2" type="matrix" values="0 0 0 0 0 0 0 0 0 0 0 0 0 0 0 0 0 0 .4 0"/><feOffset dx="4.0" dy="4.0" in="blurOut2" result="blurOut3"/><feBlend in="SourceGraphic" in2="blurOut3" mode="normal"/></filter></defs><g><!--MD5=[adb3a1d2cf60865428cb4b4378782fa3]
class tosca.nodes.SoftwareComponent--><rect codeLine="2" fill="#DDDDDD" filter="url(#fp8blkatwk4by)" height="48" id="tosca.nodes.SoftwareComponent" style="stroke:#A80036;stroke-width:1.5;" width="241" x="313.5" y="7"/><ellipse cx="328.5" cy="23" fill="#008000" rx="11" ry="11" style="stroke:#A80036;stroke-width:1.0;"/><path d="M324.4844,16.6094 L327.125,16.6094 L330.5781,25.6094 L330.5781,16.6094 L332.7344,16.6094 L332.7344,29 L330.1094,29 L326.6406,20 L326.6406,29 L324.4844,29 L324.4844,16.6094 Z " fill="#000000"/><text fill="#000000" font-family="sans-serif" font-size="12" lengthAdjust="spacing" textLength="209" x="342.5" y="27.1543">tosca.nodes.SoftwareComponent</text><line style="stroke:#A80036;stroke-width:1.5;" x1="314.5" x2="553.5" y1="39" y2="39"/><line style="stroke:#A80036;stroke-width:1.5;" x1="314.5" x2="553.5" y1="47" y2="47"/><!--MD5=[6a803efb4c3afb315ae51e3c520357be]
class tosca.nodes.SoftwareComponent.Elasticsearch--><rect codeLine="4" fill="#FEFECE" filter="url(#fp8blkatwk4by)" height="82.4141" id="tosca.nodes.SoftwareComponent.Elasticsearch" style="stroke:#A80036;stroke-width:1.5;" width="329" x="269.5" y="116"/><ellipse cx="284.5" cy="132" fill="#008000" rx="11" ry="11" style="stroke:#A80036;stroke-width:1.0;"/><path d="M280.4844,125.6094 L283.125,125.6094 L286.5781,134.6094 L286.5781,125.6094 L288.7344,125.6094 L288.7344,138 L286.1094,138 L282.6406,129 L282.6406,138 L280.4844,138 L280.4844,125.6094 Z " fill="#000000"/><text fill="#000000" font-family="sans-serif" font-size="12" lengthAdjust="spacing" textLength="297" x="298.5" y="136.1543">tosca.nodes.SoftwareComponent.Elasticsearch</text><line style="stroke:#A80036;stroke-width:1.5;" x1="270.5" x2="597.5" y1="148" y2="148"/><ellipse cx="280.5" cy="175.8047" rx="3" ry="3" style="stroke:#038048;stroke-width:1.0;fill:none;"/><text fill="#000000" font-family="sans-serif" font-size="11" lengthAdjust="spacing" textLength="21" x="289.5" y="179.0151">app</text><text fill="#000000" font-family="sans-serif" font-size="11" lengthAdjust="spacing" textLength="217" x="289.5" y="191.8198">type : tosca.capabilities.Endpoint[1..*]</text><line style="stroke:#A80036;stroke-width:1.0;stroke-dasharray:1.0,2.0;" x1="270.5" x2="402" y1="162.4023" y2="162.4023"/><text fill="#000000" font-family="sans-serif" font-size="11" lengthAdjust="spacing" textLength="64" x="402" y="165.7104">capabilities</text><line style="stroke:#A80036;stroke-width:1.0;stroke-dasharray:1.0,2.0;" x1="466" x2="597.5" y1="162.4023" y2="162.4023"/><!--MD5=[2beb2447f73f446132538adcfbc9879b]
class tosca.capabilities.Endpoint--><rect codeLine="9" fill="#DDDDDD" filter="url(#fp8blkatwk4by)" height="48" id="tosca.capabilities.Endpoint" style="stroke:#A80036;stroke-width:1.5;" width="202" x="7" y="133"/><ellipse cx="22" cy="149" fill="#008000" rx="11" ry="11" style="stroke:#A80036;stroke-width:1.0;"/><path d="M24.9688,154.6406 Q24.3906,154.9375 23.75,155.0781 Q23.1094,155.2344 22.4063,155.2344 Q19.9063,155.2344 18.5781,153.5938 Q17.2656,151.9375 17.2656,148.8125 Q17.2656,145.6875 18.5781,144.0313 Q19.9063,142.375 22.4063,142.375 Q23.1094,142.375 23.75,142.5313 Q24.4063,142.6875 24.9688,142.9844 L24.9688,145.7031 Q24.3438,145.125 23.75,144.8594 Q23.1563,144.5781 22.5313,144.5781 Q21.1875,144.5781 20.5,145.6563 Q19.8125,146.7188 19.8125,148.8125 Q19.8125,150.9063 20.5,151.9844 Q21.1875,153.0469 22.5313,153.0469 Q23.1563,153.0469 23.75,152.7813 Q24.3438,152.5 24.9688,151.9219 L24.9688,154.6406 Z " fill="#000000"/><text fill="#000000" font-family="sans-serif" font-size="12" lengthAdjust="spacing" textLength="170" x="36" y="153.1543">tosca.capabilities.Endpoint</text><line style="stroke:#A80036;stroke-width:1.5;" x1="8" x2="208" y1="165" y2="165"/><line style="stroke:#A80036;stroke-width:1.5;" x1="8" x2="208" y1="173" y2="173"/><!--MD5=[90b3a9eb88f3d507ee1f4c4d6136d9ae]
reverse link tosca.nodes.SoftwareComponent to tosca.nodes.SoftwareComponent.Elasticsearch--><path codeLine="3" d="M434,75.38 C434,88.42 434,102.67 434,115.52 " fill="none" id="tosca.nodes.SoftwareComponent-backto-tosca.nodes.SoftwareComponent.Elasticsearch" style="stroke:#A80036;stroke-width:1.0;"/><polygon fill="none" points="427,75.03,434,55.03,441,75.03,427,75.03" style="stroke:#A80036;stroke-width:1.0;"/><!--MD5=[91555bc8f6fa30689b598167af38c4c3]
link tosca.capabilities.Endpoint to tosca.nodes.SoftwareComponent.Elasticsearch--><path codeLine="10" d="M209.36,157 C224.26,157 239.96,157 255.85,157 " fill="none" id="tosca.capabilities.Endpoint-to-tosca.nodes.SoftwareComponent.Elasticsearch" style="stroke:#A80036;stroke-width:1.0;"/><polygon fill="#A80036" points="269.23,157,263.23,153,257.23,157,263.23,161,269.23,157" style="stroke:#A80036;stroke-width:1.0;"/><text fill="#000000" font-family="sans-serif" font-size="13" lengthAdjust="spacing" textLength="24" x="227.25" y="150.0669">app</text><text fill="#000000" font-family="sans-serif" font-size="13" lengthAdjust="spacing" textLength="23" x="216.9428" y="169.5753">1..*</text><!--MD5=[c7e8251fc8f530dc020f4f7491ef7b61]
@startuml
set namespaceSeparator none
class "tosca.nodes.SoftwareComponent" << (N,green) >> #DDDDDD
"tosca.nodes.SoftwareComponent" <|- - "tosca.nodes.SoftwareComponent.Elasticsearch"
class "tosca.nodes.SoftwareComponent.Elasticsearch" << (N,green) >> {
.. capabilities ..
+app
 type : tosca.capabilities.Endpoint[1..*]
}
class "tosca.capabilities.Endpoint" << (C,green) >> #DDDDDD
"tosca.capabilities.Endpoint" "1..*" -* "tosca.nodes.SoftwareComponent.Elasticsearch" : app
@enduml

PlantUML version 1.2021.13(Mon Nov 01 11:38:45 GMT 2021)
(GPL source distribution)
Java Runtime: OpenJDK Runtime Environment
JVM: OpenJDK 64-Bit Server VM
Default Encoding: UTF-8
Language: en
Country: US
--></g></svg>