<?xml version="1.0" encoding="UTF-8" standalone="no"?><svg xmlns="http://www.w3.org/2000/svg" xmlns:xlink="http://www.w3.org/1999/xlink" contentScriptType="application/ecmascript" contentStyleType="text/css" height="212px" preserveAspectRatio="none" style="width:565px;height:212px;background:#FFFFFF;" version="1.1" viewBox="0 0 565 212" width="565px" zoomAndPan="magnify"><defs><filter height="300%" id="f155y68nph5vvs" width="300%" x="-1" y="-1"><feGaussianBlur result="blurOut" stdDeviation="2.0"/><feColorMatrix in="blurOut" result="blurOut2" type="matrix" values="0 0 0 0 0 0 0 0 0 0 0 0 0 0 0 0 0 0 .4 0"/><feOffset dx="4.0" dy="4.0" in="blurOut2" result="blurOut3"/><feBlend in="SourceGraphic" in2="blurOut3" mode="normal"/></filter></defs><g><!--MD5=[27697265338c4c4e774e642814f1268f]
class tosca_nodes_SoftwareComponent_NT--><rect codeLine="2" fill="#DDDDDD" filter="url(#f155y68nph5vvs)" height="48" id="tosca_nodes_SoftwareComponent_NT" style="stroke:#A80036;stroke-width:1.5;" width="220" x="292" y="7"/><ellipse cx="307" cy="23" fill="#008000" rx="11" ry="11" style="stroke:#A80036;stroke-width:1.0;"/><path d="M302.9878,16.6069 L305.6191,16.6069 L309.0723,25.6133 L309.0723,16.6069 L311.2305,16.6069 L311.2305,29 L308.6157,29 L305.146,19.9937 L305.146,29 L302.9878,29 Z " fill="#000000"/><text fill="#000000" font-family="sans-serif" font-size="12" lengthAdjust="spacing" textLength="188" x="321" y="27.5352">tosca.nodes.SoftwareComponent</text><line style="stroke:#A80036;stroke-width:1.5;" x1="293" x2="511" y1="39" y2="39"/><line style="stroke:#A80036;stroke-width:1.5;" x1="293" x2="511" y1="47" y2="47"/><!--MD5=[4f72de67b7f2bfc3a1d09ba4969e1b1c]
class tosca_nodes_SoftwareComponent_Elasticsearch_NT--><rect codeLine="3" fill="#FEFECE" filter="url(#f155y68nph5vvs)" height="82.8652" id="tosca_nodes_SoftwareComponent_Elasticsearch_NT" style="stroke:#A80036;stroke-width:1.5;" width="298" x="253" y="116"/><ellipse cx="268" cy="132" fill="#008000" rx="11" ry="11" style="stroke:#A80036;stroke-width:1.0;"/><path d="M263.9878,125.6069 L266.6191,125.6069 L270.0723,134.6133 L270.0723,125.6069 L272.2305,125.6069 L272.2305,138 L269.6157,138 L266.146,128.9937 L266.146,138 L263.9878,138 Z " fill="#000000"/><text fill="#000000" font-family="sans-serif" font-size="12" lengthAdjust="spacing" textLength="266" x="282" y="136.5352">tosca.nodes.SoftwareComponent.Elasticsearch</text><line style="stroke:#A80036;stroke-width:1.5;" x1="254" x2="550" y1="148" y2="148"/><ellipse cx="264" cy="175.9551" rx="3" ry="3" style="stroke:#038048;stroke-width:1.0;fill:none;"/><text fill="#000000" font-family="sans-serif" font-size="11" lengthAdjust="spacing" textLength="20" x="273" y="179.5898">app</text><text fill="#000000" font-family="sans-serif" font-size="11" lengthAdjust="spacing" textLength="201" x="273" y="192.5449">type : tosca.capabilities.Endpoint[1..*]</text><line style="stroke:#A80036;stroke-width:1.0;stroke-dasharray:1.0,2.0;" x1="254" x2="372" y1="162.4775" y2="162.4775"/><text fill="#000000" font-family="sans-serif" font-size="11" lengthAdjust="spacing" textLength="60" x="372" y="166.1348">capabilities</text><line style="stroke:#A80036;stroke-width:1.0;stroke-dasharray:1.0,2.0;" x1="432" x2="550" y1="162.4775" y2="162.4775"/><!--MD5=[bd814c571e11a2214592d85e7995d8fb]
class tosca_capabilities_Endpoint_CT--><rect codeLine="8" fill="#DDDDDD" filter="url(#f155y68nph5vvs)" height="48" id="tosca_capabilities_Endpoint_CT" style="stroke:#A80036;stroke-width:1.5;" width="186" x="7" y="133.5"/><ellipse cx="22" cy="149.5" fill="#008000" rx="11" ry="11" style="stroke:#A80036;stroke-width:1.0;"/><path d="M24.9731,155.1431 Q24.3921,155.4419 23.7529,155.5913 Q23.1138,155.7407 22.4082,155.7407 Q19.9014,155.7407 18.5815,154.0889 Q17.2617,152.437 17.2617,149.3159 Q17.2617,146.1865 18.5815,144.5347 Q19.9014,142.8828 22.4082,142.8828 Q23.1138,142.8828 23.7612,143.0322 Q24.4087,143.1816 24.9731,143.4805 L24.9731,146.2031 Q24.3423,145.6221 23.7488,145.3523 Q23.1553,145.0825 22.5244,145.0825 Q21.1797,145.0825 20.4949,146.1492 Q19.8101,147.2158 19.8101,149.3159 Q19.8101,151.4077 20.4949,152.4744 Q21.1797,153.541 22.5244,153.541 Q23.1553,153.541 23.7488,153.2712 Q24.3423,153.0015 24.9731,152.4204 Z " fill="#000000"/><text fill="#000000" font-family="sans-serif" font-size="12" lengthAdjust="spacing" textLength="154" x="36" y="154.0352">tosca.capabilities.Endpoint</text><line style="stroke:#A80036;stroke-width:1.5;" x1="8" x2="192" y1="165.5" y2="165.5"/><line style="stroke:#A80036;stroke-width:1.5;" x1="8" x2="192" y1="173.5" y2="173.5"/><!--MD5=[81fa88a490456307b9b5dd593f132b93]
reverse link tosca_nodes_SoftwareComponent_NT to tosca_nodes_SoftwareComponent_Elasticsearch_NT--><path codeLine="9" d="M402,75.5642 C402,88.6527 402,102.9141 402,115.8156 " fill="none" id="tosca_nodes_SoftwareComponent_NT-backto-tosca_nodes_SoftwareComponent_Elasticsearch_NT" style="stroke:#A80036;stroke-width:1.0;"/><polygon fill="none" points="395.0001,75.0915,402,55.0914,409.0001,75.0914,395.0001,75.0915" style="stroke:#A80036;stroke-width:1.0;"/><!--MD5=[dfdeda6e34edf81ec746894a2aa32426]
link tosca_capabilities_Endpoint_CT to tosca_nodes_SoftwareComponent_Elasticsearch_NT--><path codeLine="10" d="M193.0742,157.5 C207.9003,157.5 223.6046,157.5 239.4797,157.5 " fill="none" id="tosca_capabilities_Endpoint_CT-to-tosca_nodes_SoftwareComponent_Elasticsearch_NT" style="stroke:#A80036;stroke-width:1.0;"/><polygon fill="#A80036" points="252.8395,157.5,246.8395,153.5,240.8395,157.5,246.8395,161.5,252.8395,157.5" style="stroke:#A80036;stroke-width:1.0;"/><text fill="#000000" font-family="sans-serif" font-size="13" lengthAdjust="spacing" textLength="23" x="211.5" y="151.0684">app</text><text fill="#000000" font-family="sans-serif" font-size="13" lengthAdjust="spacing" textLength="22" x="201.0424" y="170.6545">1..*</text><!--MD5=[0f0db0b972ce2d614f77faa5556eac57]
@startuml
set namespaceSeparator none
class "tosca.nodes.SoftwareComponent" as tosca_nodes_SoftwareComponent_NT << (N,green) >> #DDDDDD
class "tosca.nodes.SoftwareComponent.Elasticsearch" as tosca_nodes_SoftwareComponent_Elasticsearch_NT << (N,green) >> {
.. capabilities ..
+app
 type : tosca.capabilities.Endpoint[1..*]
}
class "tosca.capabilities.Endpoint" as tosca_capabilities_Endpoint_CT << (C,green) >> #DDDDDD
tosca_nodes_SoftwareComponent_NT <|- - tosca_nodes_SoftwareComponent_Elasticsearch_NT
tosca_capabilities_Endpoint_CT "1..*" -* tosca_nodes_SoftwareComponent_Elasticsearch_NT : app
@enduml

PlantUML version 1.2021.13(Mon Nov 01 12:38:45 CET 2021)
(GPL source distribution)
Java Runtime: Java(TM) SE Runtime Environment
JVM: Java HotSpot(TM) 64-Bit Server VM
Default Encoding: UTF-8
Language: fr
Country: FR
--></g></svg>