<?xml version="1.0" encoding="UTF-8" standalone="no"?><svg xmlns="http://www.w3.org/2000/svg" xmlns:xlink="http://www.w3.org/1999/xlink" contentScriptType="application/ecmascript" contentStyleType="text/css" height="212px" preserveAspectRatio="none" style="width:404px;height:212px;background:#FFFFFF;" version="1.1" viewBox="0 0 404 212" width="404px" zoomAndPan="magnify"><defs><filter height="300%" id="f1c1tpfbnj7u8s" width="300%" x="-1" y="-1"><feGaussianBlur result="blurOut" stdDeviation="2.0"/><feColorMatrix in="blurOut" result="blurOut2" type="matrix" values="0 0 0 0 0 0 0 0 0 0 0 0 0 0 0 0 0 0 .4 0"/><feOffset dx="4.0" dy="4.0" in="blurOut2" result="blurOut3"/><feBlend in="SourceGraphic" in2="blurOut3" mode="normal"/></filter></defs><g><!--MD5=[b322ca1f8cc8d2f7a43cb0410a2483bf]
class tosca:WebApplication--><rect codeLine="2" fill="#DDDDDD" filter="url(#f1c1tpfbnj7u8s)" height="48" id="tosca:WebApplication" style="stroke:#A80036;stroke-width:1.5;" width="155" x="28" y="7"/><ellipse cx="43" cy="23" fill="#008000" rx="11" ry="11" style="stroke:#A80036;stroke-width:1.0;"/><path d="M38.9878,16.6069 L41.6191,16.6069 L45.0723,25.6133 L45.0723,16.6069 L47.2305,16.6069 L47.2305,29 L44.6157,29 L41.146,19.9937 L41.146,29 L38.9878,29 Z " fill="#000000"/><text fill="#000000" font-family="sans-serif" font-size="12" lengthAdjust="spacing" textLength="123" x="57" y="27.5352">tosca:WebApplication</text><line style="stroke:#A80036;stroke-width:1.5;" x1="29" x2="182" y1="39" y2="39"/><line style="stroke:#A80036;stroke-width:1.5;" x1="29" x2="182" y1="47" y2="47"/><!--MD5=[b050429320e12e9c975de2cee8d92090]
class HelloWorld--><rect codeLine="4" fill="#FEFECE" filter="url(#f1c1tpfbnj7u8s)" height="82.8652" id="HelloWorld" style="stroke:#A80036;stroke-width:1.5;" width="197" x="7" y="116"/><ellipse cx="70.25" cy="132" fill="#008000" rx="11" ry="11" style="stroke:#A80036;stroke-width:1.0;"/><path d="M66.2378,125.6069 L68.8691,125.6069 L72.3223,134.6133 L72.3223,125.6069 L74.4805,125.6069 L74.4805,138 L71.8657,138 L68.396,128.9937 L68.396,138 L66.2378,138 Z " fill="#000000"/><text fill="#000000" font-family="sans-serif" font-size="12" lengthAdjust="spacing" textLength="62" x="90.75" y="136.5352">HelloWorld</text><line style="stroke:#A80036;stroke-width:1.5;" x1="8" x2="203" y1="148" y2="148"/><ellipse cx="18" cy="175.9551" rx="3" ry="3" style="stroke:#038048;stroke-width:1.0;fill:none;"/><text fill="#000000" font-family="sans-serif" font-size="11" lengthAdjust="spacing" textLength="24" x="27" y="179.5898">host</text><text fill="#000000" font-family="sans-serif" font-size="11" lengthAdjust="spacing" textLength="171" x="27" y="192.5449">capability : tosca:Container[0..*]</text><line style="stroke:#A80036;stroke-width:1.0;stroke-dasharray:1.0,2.0;" x1="8" x2="69.5" y1="162.4775" y2="162.4775"/><text fill="#000000" font-family="sans-serif" font-size="11" lengthAdjust="spacing" textLength="72" x="69.5" y="166.1348">requirements</text><line style="stroke:#A80036;stroke-width:1.0;stroke-dasharray:1.0,2.0;" x1="141.5" x2="203" y1="162.4775" y2="162.4775"/><!--MD5=[420fc97c0f6fb3a066a4b62daf2a1bfd]
class tosca:Container--><rect codeLine="9" fill="#DDDDDD" filter="url(#f1c1tpfbnj7u8s)" height="48" id="tosca:Container" style="stroke:#A80036;stroke-width:1.5;" width="121" x="269" y="133.5"/><ellipse cx="284" cy="149.5" fill="#008000" rx="11" ry="11" style="stroke:#A80036;stroke-width:1.0;"/><path d="M286.9731,155.1431 Q286.3921,155.4419 285.7529,155.5913 Q285.1138,155.7407 284.4082,155.7407 Q281.9014,155.7407 280.5815,154.0889 Q279.2617,152.437 279.2617,149.3159 Q279.2617,146.1865 280.5815,144.5347 Q281.9014,142.8828 284.4082,142.8828 Q285.1138,142.8828 285.7612,143.0322 Q286.4087,143.1816 286.9731,143.4805 L286.9731,146.2031 Q286.3423,145.6221 285.7488,145.3523 Q285.1553,145.0825 284.5244,145.0825 Q283.1797,145.0825 282.4949,146.1492 Q281.8101,147.2158 281.8101,149.3159 Q281.8101,151.4077 282.4949,152.4744 Q283.1797,153.541 284.5244,153.541 Q285.1553,153.541 285.7488,153.2712 Q286.3423,153.0015 286.9731,152.4204 Z " fill="#000000"/><text fill="#000000" font-family="sans-serif" font-size="12" lengthAdjust="spacing" textLength="89" x="298" y="154.0352">tosca:Container</text><line style="stroke:#A80036;stroke-width:1.5;" x1="270" x2="389" y1="165.5" y2="165.5"/><line style="stroke:#A80036;stroke-width:1.5;" x1="270" x2="389" y1="173.5" y2="173.5"/><!--MD5=[6cf0d3bb8adb7d74dbe8cd8f6b98f56e]
reverse link tosca:WebApplication to HelloWorld--><path codeLine="3" d="M105.5,75.5642 C105.5,88.6527 105.5,102.9141 105.5,115.8156 " fill="none" id="tosca:WebApplication-backto-HelloWorld" style="stroke:#A80036;stroke-width:1.0;"/><polygon fill="none" points="98.5001,75.0915,105.5,55.0914,112.5001,75.0914,98.5001,75.0915" style="stroke:#A80036;stroke-width:1.0;"/><!--MD5=[56f16615dbe7dcd1286a739ee3dba525]
reverse link HelloWorld to tosca:Container--><path codeLine="10" d="M217.3203,157.5 C235.1049,157.5 252.8956,157.5 268.8985,157.5 " fill="none" id="HelloWorld-backto-tosca:Container" style="stroke:#A80036;stroke-width:1.0;"/><polygon fill="#A80036" points="204.0756,157.5,210.0756,161.5,216.0756,157.5,210.0756,153.5,204.0756,157.5" style="stroke:#A80036;stroke-width:1.0;"/><text fill="#000000" font-family="sans-serif" font-size="13" lengthAdjust="spacing" textLength="28" x="222.5" y="151.0684">host</text><text fill="#000000" font-family="sans-serif" font-size="13" lengthAdjust="spacing" textLength="22" x="239.0671" y="170.9057">0..*</text><!--MD5=[7d1a6b5d385e1ce810c82065787764bc]
@startuml
set namespaceSeparator none
class "tosca:WebApplication" << (N,green) >> #DDDDDD
"tosca:WebApplication" <|- - "HelloWorld"
class "HelloWorld" << (N,green) >> {
.. requirements ..
+host
 capability : tosca:Container[0..*]
}
class "tosca:Container" << (C,green) >> #DDDDDD
"HelloWorld" *- "0..*" "tosca:Container" : host
@enduml

PlantUML version 1.2021.13(Mon Nov 01 12:38:45 CET 2021)
(GPL source distribution)
Java Runtime: Java(TM) SE Runtime Environment
JVM: Java HotSpot(TM) 64-Bit Server VM
Default Encoding: UTF-8
Language: fr
Country: FR
--></g></svg>