<?xml version="1.0" encoding="UTF-8" standalone="no"?><svg xmlns="http://www.w3.org/2000/svg" xmlns:xlink="http://www.w3.org/1999/xlink" contentScriptType="application/ecmascript" contentStyleType="text/css" height="212px" preserveAspectRatio="none" style="width:428px;height:212px;background:#FFFFFF;" version="1.1" viewBox="0 0 428 212" width="428px" zoomAndPan="magnify"><defs><filter height="300%" id="f1c1tpfbnj7u8s" width="300%" x="-1" y="-1"><feGaussianBlur result="blurOut" stdDeviation="2.0"/><feColorMatrix in="blurOut" result="blurOut2" type="matrix" values="0 0 0 0 0 0 0 0 0 0 0 0 0 0 0 0 0 0 .4 0"/><feOffset dx="4.0" dy="4.0" in="blurOut2" result="blurOut3"/><feBlend in="SourceGraphic" in2="blurOut3" mode="normal"/></filter></defs><g><!--MD5=[b322ca1f8cc8d2f7a43cb0410a2483bf]
class tosca:WebApplication--><rect codeLine="2" fill="#DDDDDD" filter="url(#f1c1tpfbnj7u8s)" height="48" id="tosca:WebApplication" style="stroke:#A80036;stroke-width:1.5;" width="167" x="28.5" y="7"/><ellipse cx="43.5" cy="23" fill="#008000" rx="11" ry="11" style="stroke:#A80036;stroke-width:1.0;"/><path d="M39.4844,16.6094 L42.125,16.6094 L45.5781,25.6094 L45.5781,16.6094 L47.7344,16.6094 L47.7344,29 L45.1094,29 L41.6406,20 L41.6406,29 L39.4844,29 L39.4844,16.6094 Z " fill="#000000"/><text fill="#000000" font-family="sans-serif" font-size="12" lengthAdjust="spacing" textLength="135" x="57.5" y="27.1543">tosca:WebApplication</text><line style="stroke:#A80036;stroke-width:1.5;" x1="29.5" x2="194.5" y1="39" y2="39"/><line style="stroke:#A80036;stroke-width:1.5;" x1="29.5" x2="194.5" y1="47" y2="47"/><!--MD5=[b050429320e12e9c975de2cee8d92090]
class HelloWorld--><rect codeLine="4" fill="#FEFECE" filter="url(#f1c1tpfbnj7u8s)" height="82.4141" id="HelloWorld" style="stroke:#A80036;stroke-width:1.5;" width="210" x="7" y="116"/><ellipse cx="74.75" cy="132" fill="#008000" rx="11" ry="11" style="stroke:#A80036;stroke-width:1.0;"/><path d="M70.7344,125.6094 L73.375,125.6094 L76.8281,134.6094 L76.8281,125.6094 L78.9844,125.6094 L78.9844,138 L76.3594,138 L72.8906,129 L72.8906,138 L70.7344,138 L70.7344,125.6094 Z " fill="#000000"/><text fill="#000000" font-family="sans-serif" font-size="12" lengthAdjust="spacing" textLength="66" x="95.25" y="136.1543">HelloWorld</text><line style="stroke:#A80036;stroke-width:1.5;" x1="8" x2="216" y1="148" y2="148"/><ellipse cx="18" cy="175.8047" rx="3" ry="3" style="stroke:#038048;stroke-width:1.0;fill:none;"/><text fill="#000000" font-family="sans-serif" font-size="11" lengthAdjust="spacing" textLength="25" x="27" y="179.0151">host</text><text fill="#000000" font-family="sans-serif" font-size="11" lengthAdjust="spacing" textLength="184" x="27" y="191.8198">capability : tosca:Container[0..*]</text><line style="stroke:#A80036;stroke-width:1.0;stroke-dasharray:1.0,2.0;" x1="8" x2="73.5" y1="162.4023" y2="162.4023"/><text fill="#000000" font-family="sans-serif" font-size="11" lengthAdjust="spacing" textLength="77" x="73.5" y="165.7104">requirements</text><line style="stroke:#A80036;stroke-width:1.0;stroke-dasharray:1.0,2.0;" x1="150.5" x2="216" y1="162.4023" y2="162.4023"/><!--MD5=[420fc97c0f6fb3a066a4b62daf2a1bfd]
class tosca:Container--><rect codeLine="9" fill="#DDDDDD" filter="url(#f1c1tpfbnj7u8s)" height="48" id="tosca:Container" style="stroke:#A80036;stroke-width:1.5;" width="132" x="282" y="133"/><ellipse cx="297" cy="149" fill="#008000" rx="11" ry="11" style="stroke:#A80036;stroke-width:1.0;"/><path d="M299.9688,154.6406 Q299.3906,154.9375 298.75,155.0781 Q298.1094,155.2344 297.4063,155.2344 Q294.9063,155.2344 293.5781,153.5938 Q292.2656,151.9375 292.2656,148.8125 Q292.2656,145.6875 293.5781,144.0313 Q294.9063,142.375 297.4063,142.375 Q298.1094,142.375 298.75,142.5313 Q299.4063,142.6875 299.9688,142.9844 L299.9688,145.7031 Q299.3438,145.125 298.75,144.8594 Q298.1563,144.5781 297.5313,144.5781 Q296.1875,144.5781 295.5,145.6563 Q294.8125,146.7188 294.8125,148.8125 Q294.8125,150.9063 295.5,151.9844 Q296.1875,153.0469 297.5313,153.0469 Q298.1563,153.0469 298.75,152.7813 Q299.3438,152.5 299.9688,151.9219 L299.9688,154.6406 Z " fill="#000000"/><text fill="#000000" font-family="sans-serif" font-size="12" lengthAdjust="spacing" textLength="100" x="311" y="153.1543">tosca:Container</text><line style="stroke:#A80036;stroke-width:1.5;" x1="283" x2="413" y1="165" y2="165"/><line style="stroke:#A80036;stroke-width:1.5;" x1="283" x2="413" y1="173" y2="173"/><!--MD5=[6cf0d3bb8adb7d74dbe8cd8f6b98f56e]
reverse link tosca:WebApplication to HelloWorld--><path codeLine="3" d="M112,75.38 C112,88.42 112,102.67 112,115.52 " fill="none" id="tosca:WebApplication-backto-HelloWorld" style="stroke:#A80036;stroke-width:1.0;"/><polygon fill="none" points="105,75.03,112,55.03,119,75.03,105,75.03" style="stroke:#A80036;stroke-width:1.0;"/><!--MD5=[56f16615dbe7dcd1286a739ee3dba525]
reverse link HelloWorld to tosca:Container--><path codeLine="10" d="M230.43,157 C248.14,157 265.84,157 281.93,157 " fill="none" id="HelloWorld-backto-tosca:Container" style="stroke:#A80036;stroke-width:1.0;"/><polygon fill="#A80036" points="217.23,157,223.23,161,229.23,157,223.23,153,217.23,157" style="stroke:#A80036;stroke-width:1.0;"/><text fill="#000000" font-family="sans-serif" font-size="13" lengthAdjust="spacing" textLength="28" x="235.5" y="150.0669">host</text><text fill="#000000" font-family="sans-serif" font-size="13" lengthAdjust="spacing" textLength="23" x="250.9306" y="169.8472">0..*</text><!--MD5=[bf6bb266863d2cacdaa03419ffd8c77a]
@startuml
set namespaceSeparator none
class "tosca:WebApplication" << (N,green) >> #DDDDDD
"tosca:WebApplication" <|- - "HelloWorld"
class "HelloWorld" << (N,green) >> {
.. requirements ..
+host
 capability : tosca:Container[0..*]
}
class "tosca:Container" << (C,green) >> #DDDDDD
"HelloWorld" *- "0..*" "tosca:Container" : host
@enduml

PlantUML version 1.2021.13(Mon Nov 01 11:38:45 GMT 2021)
(GPL source distribution)
Java Runtime: OpenJDK Runtime Environment
JVM: OpenJDK 64-Bit Server VM
Default Encoding: UTF-8
Language: en
Country: US
--></g></svg>