<?xml version="1.0" encoding="UTF-8" standalone="no"?><svg xmlns="http://www.w3.org/2000/svg" xmlns:xlink="http://www.w3.org/1999/xlink" contentScriptType="application/ecmascript" contentStyleType="text/css" height="394px" preserveAspectRatio="none" style="width:725px;height:394px;background:#FFFFFF;" version="1.1" viewBox="0 0 725 394" width="725px" zoomAndPan="magnify"><defs><filter height="300%" id="flfl0c9vwcwxb" width="300%" x="-1" y="-1"><feGaussianBlur result="blurOut" stdDeviation="2.0"/><feColorMatrix in="blurOut" result="blurOut2" type="matrix" values="0 0 0 0 0 0 0 0 0 0 0 0 0 0 0 0 0 0 .4 0"/><feOffset dx="4.0" dy="4.0" in="blurOut2" result="blurOut3"/><feBlend in="SourceGraphic" in2="blurOut3" mode="normal"/></filter></defs><g><!--MD5=[27697265338c4c4e774e642814f1268f]
class tosca_nodes_SoftwareComponent_NT--><rect codeLine="2" fill="#DDDDDD" filter="url(#flfl0c9vwcwxb)" height="48" id="tosca_nodes_SoftwareComponent_NT" style="stroke:#A80036;stroke-width:1.5;" width="220" x="423" y="7"/><ellipse cx="438" cy="23" fill="#008000" rx="11" ry="11" style="stroke:#A80036;stroke-width:1.0;"/><path d="M433.9878,16.6069 L436.6191,16.6069 L440.0723,25.6133 L440.0723,16.6069 L442.2305,16.6069 L442.2305,29 L439.6157,29 L436.146,19.9937 L436.146,29 L433.9878,29 Z " fill="#000000"/><text fill="#000000" font-family="sans-serif" font-size="12" lengthAdjust="spacing" textLength="188" x="452" y="27.5352">tosca.nodes.SoftwareComponent</text><line style="stroke:#A80036;stroke-width:1.5;" x1="424" x2="642" y1="39" y2="39"/><line style="stroke:#A80036;stroke-width:1.5;" x1="424" x2="642" y1="47" y2="47"/><!--MD5=[d22fb7652f3443e3d6d16fc0ffa6467d]
class tosca_nodes_SoftwareComponent_Kibana_NT--><rect codeLine="3" fill="#FEFECE" filter="url(#flfl0c9vwcwxb)" height="138.6855" id="tosca_nodes_SoftwareComponent_Kibana_NT" style="stroke:#A80036;stroke-width:1.5;" width="269" x="398.5" y="116"/><ellipse cx="415.75" cy="132" fill="#008000" rx="11" ry="11" style="stroke:#A80036;stroke-width:1.0;"/><path d="M411.7378,125.6069 L414.3691,125.6069 L417.8223,134.6133 L417.8223,125.6069 L419.9805,125.6069 L419.9805,138 L417.3657,138 L413.896,128.9937 L413.896,138 L411.7378,138 Z " fill="#000000"/><text fill="#000000" font-family="sans-serif" font-size="12" lengthAdjust="spacing" textLength="232" x="430.25" y="136.5352">tosca.nodes.SoftwareComponent.Kibana</text><line style="stroke:#A80036;stroke-width:1.5;" x1="399.5" x2="666.5" y1="148" y2="148"/><ellipse cx="409.5" cy="175.9551" rx="3" ry="3" style="stroke:#038048;stroke-width:1.0;fill:none;"/><text fill="#000000" font-family="sans-serif" font-size="11" lengthAdjust="spacing" textLength="20" x="418.5" y="179.5898">app</text><text fill="#000000" font-family="sans-serif" font-size="11" lengthAdjust="spacing" textLength="201" x="418.5" y="192.5449">type : tosca.capabilities.Endpoint[1..*]</text><line style="stroke:#A80036;stroke-width:1.0;stroke-dasharray:1.0,2.0;" x1="399.5" x2="503" y1="162.4775" y2="162.4775"/><text fill="#000000" font-family="sans-serif" font-size="11" lengthAdjust="spacing" textLength="60" x="503" y="166.1348">capabilities</text><line style="stroke:#A80036;stroke-width:1.0;stroke-dasharray:1.0,2.0;" x1="563" x2="666.5" y1="162.4775" y2="162.4775"/><ellipse cx="409.5" cy="218.8203" rx="3" ry="3" style="stroke:#038048;stroke-width:1.0;fill:none;"/><text fill="#000000" font-family="sans-serif" font-size="11" font-weight="bold" lengthAdjust="spacing" textLength="91" x="418.5" y="222.4551">search_endpoint</text><text fill="#000000" font-family="sans-serif" font-size="11" lengthAdjust="spacing" textLength="218" x="418.5" y="235.4102">capability : tosca.capabilities.Endpoint[1]</text><text fill="#000000" font-family="sans-serif" font-size="11" lengthAdjust="spacing" textLength="243" x="418.5" y="248.3652">relationship : tosca.relationships.ConnectsTo</text><line style="stroke:#A80036;stroke-width:1.0;stroke-dasharray:1.0,2.0;" x1="399.5" x2="497" y1="205.3428" y2="205.3428"/><text fill="#000000" font-family="sans-serif" font-size="11" lengthAdjust="spacing" textLength="72" x="497" y="209">requirements</text><line style="stroke:#A80036;stroke-width:1.0;stroke-dasharray:1.0,2.0;" x1="569" x2="666.5" y1="205.3428" y2="205.3428"/><!--MD5=[bd814c571e11a2214592d85e7995d8fb]
class tosca_capabilities_Endpoint_CT--><rect codeLine="13" fill="#DDDDDD" filter="url(#flfl0c9vwcwxb)" height="48" id="tosca_capabilities_Endpoint_CT" style="stroke:#A80036;stroke-width:1.5;" width="186" x="7" y="161.5"/><ellipse cx="22" cy="177.5" fill="#008000" rx="11" ry="11" style="stroke:#A80036;stroke-width:1.0;"/><path d="M24.9731,183.1431 Q24.3921,183.4419 23.7529,183.5913 Q23.1138,183.7407 22.4082,183.7407 Q19.9014,183.7407 18.5815,182.0889 Q17.2617,180.437 17.2617,177.3159 Q17.2617,174.1865 18.5815,172.5347 Q19.9014,170.8828 22.4082,170.8828 Q23.1138,170.8828 23.7612,171.0322 Q24.4087,171.1816 24.9731,171.4805 L24.9731,174.2031 Q24.3423,173.6221 23.7488,173.3523 Q23.1553,173.0825 22.5244,173.0825 Q21.1797,173.0825 20.4949,174.1492 Q19.8101,175.2158 19.8101,177.3159 Q19.8101,179.4077 20.4949,180.4744 Q21.1797,181.541 22.5244,181.541 Q23.1553,181.541 23.7488,181.2712 Q24.3423,181.0015 24.9731,180.4204 Z " fill="#000000"/><text fill="#000000" font-family="sans-serif" font-size="12" lengthAdjust="spacing" textLength="154" x="36" y="182.0352">tosca.capabilities.Endpoint</text><line style="stroke:#A80036;stroke-width:1.5;" x1="8" x2="192" y1="193.5" y2="193.5"/><line style="stroke:#A80036;stroke-width:1.5;" x1="8" x2="192" y1="201.5" y2="201.5"/><!--MD5=[73ef529cb74862cd16c9ea7608a24b08]
class tosca_relationships_ConnectsTo_RT--><rect codeLine="14" fill="#DDDDDD" filter="url(#flfl0c9vwcwxb)" height="48" id="tosca_relationships_ConnectsTo_RT" style="stroke:#A80036;stroke-width:1.5;" width="210" x="428" y="332"/><ellipse cx="443" cy="348" fill="#008000" rx="11" ry="11" style="stroke:#A80036;stroke-width:1.0;"/><path d="M444.1987,348.1479 Q444.564,348.2227 444.8337,348.4924 Q445.1035,348.7622 445.4937,349.5425 L447.7349,354 L445.0454,354 L443.5513,350.8706 Q443.4849,350.7378 443.377,350.5054 Q442.7212,349.1025 441.833,349.1025 L441.0527,349.1025 L441.0527,354 L438.604,354 L438.604,341.6069 L442.1401,341.6069 Q444.5308,341.6069 445.5725,342.4536 Q446.6143,343.3003 446.6143,345.2095 Q446.6143,346.4878 445.9917,347.2432 Q445.3691,347.9985 444.1987,348.1479 Z M441.0527,343.6655 L441.0527,347.0439 L442.2065,347.0439 Q443.2109,347.0439 443.6467,346.6497 Q444.0825,346.2554 444.0825,345.3506 Q444.0825,344.4458 443.6509,344.0557 Q443.2192,343.6655 442.2065,343.6655 Z " fill="#000000"/><text fill="#000000" font-family="sans-serif" font-size="12" lengthAdjust="spacing" textLength="178" x="457" y="352.5352">tosca.relationships.ConnectsTo</text><line style="stroke:#A80036;stroke-width:1.5;" x1="429" x2="637" y1="364" y2="364"/><line style="stroke:#A80036;stroke-width:1.5;" x1="429" x2="637" y1="372" y2="372"/><!--MD5=[d4eb58a8e676e3d2bb96d6168d8b69d1]
reverse link tosca_nodes_SoftwareComponent_NT to tosca_nodes_SoftwareComponent_Kibana_NT--><path codeLine="15" d="M533,75.3357 C533,87.9747 533,102.0596 533,115.8208 " fill="none" id="tosca_nodes_SoftwareComponent_NT-backto-tosca_nodes_SoftwareComponent_Kibana_NT" style="stroke:#A80036;stroke-width:1.0;"/><polygon fill="none" points="526.0001,75.1407,533,55.1406,540.0001,75.1406,526.0001,75.1407" style="stroke:#A80036;stroke-width:1.0;"/><!--MD5=[b027a370668703a278c45a1d4696b364]
link tosca_capabilities_Endpoint_CT to tosca_nodes_SoftwareComponent_Kibana_NT--><path codeLine="16" d="M193.0635,197.6381 C221.9152,200.8675 253.8506,203.9004 283.25,205.5 C316.2259,207.2942 351.6089,206.2651 385.0709,203.9295 " fill="none" id="tosca_capabilities_Endpoint_CT-to-tosca_nodes_SoftwareComponent_Kibana_NT" style="stroke:#A80036;stroke-width:1.0;"/><polygon fill="#A80036" points="398.2848,202.9339,392.0012,199.3961,386.3187,203.8356,392.6023,207.3735,398.2848,202.9339" style="stroke:#A80036;stroke-width:1.0;"/><text fill="#000000" font-family="sans-serif" font-size="13" lengthAdjust="spacing" textLength="23" x="284.25" y="202.0684">app</text><text fill="#000000" font-family="sans-serif" font-size="13" lengthAdjust="spacing" textLength="22" x="201.0309" y="211.7219">1..*</text><!--MD5=[f6d74d5356bd5494656c5ad15b87c8b9]
reverse link tosca_nodes_SoftwareComponent_Kibana_NT to tosca_capabilities_Endpoint_CT--><path codeLine="17" d="M385.0798,185.5 C321.4822,185.5 249.0799,185.5 193.1553,185.5 " fill="none" id="tosca_nodes_SoftwareComponent_Kibana_NT-backto-tosca_capabilities_Endpoint_CT" style="stroke:#A80036;stroke-width:1.0;"/><polygon fill="#A80036" points="398.0906,185.5,392.0906,181.5,386.0906,185.5,392.0906,189.5,398.0906,185.5" style="stroke:#A80036;stroke-width:1.0;"/><text fill="#000000" font-family="sans-serif" font-size="13" lengthAdjust="spacing" textLength="169" x="211.25" y="179.0684">search_endpoint.capability</text><text fill="#000000" font-family="sans-serif" font-size="13" lengthAdjust="spacing" textLength="8" x="200.8974" y="182.4831">1</text><!--MD5=[898a96a227e9027296ddc786d8925f9d]
link tosca_nodes_SoftwareComponent_Kibana_NT to tosca_relationships_ConnectsTo_RT--><path codeLine="18" d="M533,255.3408 C533,280.3293 533,307.145 533,326.8106 " fill="none" id="tosca_nodes_SoftwareComponent_Kibana_NT-to-tosca_relationships_ConnectsTo_RT" style="stroke:#A80036;stroke-width:1.0;stroke-dasharray:7.0,7.0;"/><polygon fill="#A80036" points="533,331.905,537,322.905,533,326.905,529,322.905,533,331.905" style="stroke:#A80036;stroke-width:1.0;"/><text fill="#000000" font-family="sans-serif" font-size="13" lengthAdjust="spacing" textLength="183" x="534" y="298.5684">search_endpoint.relationship</text><!--MD5=[d75e2435bbff75b6597d1c7cfc1bb0a8]
@startuml
set namespaceSeparator none
class "tosca.nodes.SoftwareComponent" as tosca_nodes_SoftwareComponent_NT << (N,green) >> #DDDDDD
class "tosca.nodes.SoftwareComponent.Kibana" as tosca_nodes_SoftwareComponent_Kibana_NT << (N,green) >> {
.. capabilities ..
+app
 type : tosca.capabilities.Endpoint[1..*]
.. requirements ..
+<b>search_endpoint
 capability : tosca.capabilities.Endpoint[1]
 relationship : tosca.relationships.ConnectsTo
}
class "tosca.capabilities.Endpoint" as tosca_capabilities_Endpoint_CT << (C,green) >> #DDDDDD
class "tosca.capabilities.Endpoint" as tosca_capabilities_Endpoint_CT << (C,green) >> #DDDDDD
class "tosca.relationships.ConnectsTo" as tosca_relationships_ConnectsTo_RT << (R,green) >> #DDDDDD
tosca_nodes_SoftwareComponent_NT <|- - tosca_nodes_SoftwareComponent_Kibana_NT
tosca_capabilities_Endpoint_CT "1..*" -* tosca_nodes_SoftwareComponent_Kibana_NT : app
tosca_nodes_SoftwareComponent_Kibana_NT *- "1" tosca_capabilities_Endpoint_CT : search_endpoint.capability
tosca_nodes_SoftwareComponent_Kibana_NT ..> tosca_relationships_ConnectsTo_RT : search_endpoint.relationship
@enduml

PlantUML version 1.2021.13(Mon Nov 01 12:38:45 CET 2021)
(GPL source distribution)
Java Runtime: Java(TM) SE Runtime Environment
JVM: Java HotSpot(TM) 64-Bit Server VM
Default Encoding: UTF-8
Language: fr
Country: FR
--></g></svg>