<?xml version="1.0" encoding="UTF-8" standalone="no"?><svg xmlns="http://www.w3.org/2000/svg" xmlns:xlink="http://www.w3.org/1999/xlink" contentScriptType="application/ecmascript" contentStyleType="text/css" height="394px" preserveAspectRatio="none" style="width:660px;height:394px;background:#FFFFFF;" version="1.1" viewBox="0 0 660 394" width="660px" zoomAndPan="magnify"><defs><filter height="300%" id="foxlcdzngbz6g" width="300%" x="-1" y="-1"><feGaussianBlur result="blurOut" stdDeviation="2.0"/><feColorMatrix in="blurOut" result="blurOut2" type="matrix" values="0 0 0 0 0 0 0 0 0 0 0 0 0 0 0 0 0 0 .4 0"/><feOffset dx="4.0" dy="4.0" in="blurOut2" result="blurOut3"/><feBlend in="SourceGraphic" in2="blurOut3" mode="normal"/></filter></defs><g><!--MD5=[adb3a1d2cf60865428cb4b4378782fa3]
class tosca.nodes.SoftwareComponent--><rect codeLine="2" fill="#DDDDDD" filter="url(#foxlcdzngbz6g)" height="48" id="tosca.nodes.SoftwareComponent" style="stroke:#A80036;stroke-width:1.5;" width="220" x="358" y="7"/><ellipse cx="373" cy="23" fill="#008000" rx="11" ry="11" style="stroke:#A80036;stroke-width:1.0;"/><path d="M368.9878,16.6069 L371.6191,16.6069 L375.0723,25.6133 L375.0723,16.6069 L377.2305,16.6069 L377.2305,29 L374.6157,29 L371.146,19.9937 L371.146,29 L368.9878,29 Z " fill="#000000"/><text fill="#000000" font-family="sans-serif" font-size="12" lengthAdjust="spacing" textLength="188" x="387" y="27.5352">tosca.nodes.SoftwareComponent</text><line style="stroke:#A80036;stroke-width:1.5;" x1="359" x2="577" y1="39" y2="39"/><line style="stroke:#A80036;stroke-width:1.5;" x1="359" x2="577" y1="47" y2="47"/><!--MD5=[893d95f01ca3b8aa6be0f5b24fff9165]
class tosca.nodes.SoftwareComponent.Kibana--><rect codeLine="4" fill="#FEFECE" filter="url(#foxlcdzngbz6g)" height="138.6855" id="tosca.nodes.SoftwareComponent.Kibana" style="stroke:#A80036;stroke-width:1.5;" width="269" x="333.5" y="116"/><ellipse cx="350.75" cy="132" fill="#008000" rx="11" ry="11" style="stroke:#A80036;stroke-width:1.0;"/><path d="M346.7378,125.6069 L349.3691,125.6069 L352.8223,134.6133 L352.8223,125.6069 L354.9805,125.6069 L354.9805,138 L352.3657,138 L348.896,128.9937 L348.896,138 L346.7378,138 Z " fill="#000000"/><text fill="#000000" font-family="sans-serif" font-size="12" lengthAdjust="spacing" textLength="232" x="365.25" y="136.5352">tosca.nodes.SoftwareComponent.Kibana</text><line style="stroke:#A80036;stroke-width:1.5;" x1="334.5" x2="601.5" y1="148" y2="148"/><ellipse cx="344.5" cy="175.9551" rx="3" ry="3" style="stroke:#038048;stroke-width:1.0;fill:none;"/><text fill="#000000" font-family="sans-serif" font-size="11" lengthAdjust="spacing" textLength="20" x="353.5" y="179.5898">app</text><text fill="#000000" font-family="sans-serif" font-size="11" lengthAdjust="spacing" textLength="201" x="353.5" y="192.5449">type : tosca.capabilities.Endpoint[1..*]</text><line style="stroke:#A80036;stroke-width:1.0;stroke-dasharray:1.0,2.0;" x1="334.5" x2="438" y1="162.4775" y2="162.4775"/><text fill="#000000" font-family="sans-serif" font-size="11" lengthAdjust="spacing" textLength="60" x="438" y="166.1348">capabilities</text><line style="stroke:#A80036;stroke-width:1.0;stroke-dasharray:1.0,2.0;" x1="498" x2="601.5" y1="162.4775" y2="162.4775"/><ellipse cx="344.5" cy="218.8203" rx="3" ry="3" style="stroke:#038048;stroke-width:1.0;fill:none;"/><text fill="#000000" font-family="sans-serif" font-size="11" font-weight="bold" lengthAdjust="spacing" textLength="91" x="353.5" y="222.4551">search_endpoint</text><text fill="#000000" font-family="sans-serif" font-size="11" lengthAdjust="spacing" textLength="218" x="353.5" y="235.4102">capability : tosca.capabilities.Endpoint[1]</text><text fill="#000000" font-family="sans-serif" font-size="11" lengthAdjust="spacing" textLength="243" x="353.5" y="248.3652">relationship : tosca.relationships.ConnectsTo</text><line style="stroke:#A80036;stroke-width:1.0;stroke-dasharray:1.0,2.0;" x1="334.5" x2="432" y1="205.3428" y2="205.3428"/><text fill="#000000" font-family="sans-serif" font-size="11" lengthAdjust="spacing" textLength="72" x="432" y="209">requirements</text><line style="stroke:#A80036;stroke-width:1.0;stroke-dasharray:1.0,2.0;" x1="504" x2="601.5" y1="205.3428" y2="205.3428"/><!--MD5=[2beb2447f73f446132538adcfbc9879b]
class tosca.capabilities.Endpoint--><rect codeLine="15" fill="#DDDDDD" filter="url(#foxlcdzngbz6g)" height="48" id="tosca.capabilities.Endpoint" style="stroke:#A80036;stroke-width:1.5;" width="186" x="7" y="161.5"/><ellipse cx="22" cy="177.5" fill="#008000" rx="11" ry="11" style="stroke:#A80036;stroke-width:1.0;"/><path d="M24.9731,183.1431 Q24.3921,183.4419 23.7529,183.5913 Q23.1138,183.7407 22.4082,183.7407 Q19.9014,183.7407 18.5815,182.0889 Q17.2617,180.437 17.2617,177.3159 Q17.2617,174.1865 18.5815,172.5347 Q19.9014,170.8828 22.4082,170.8828 Q23.1138,170.8828 23.7612,171.0322 Q24.4087,171.1816 24.9731,171.4805 L24.9731,174.2031 Q24.3423,173.6221 23.7488,173.3523 Q23.1553,173.0825 22.5244,173.0825 Q21.1797,173.0825 20.4949,174.1492 Q19.8101,175.2158 19.8101,177.3159 Q19.8101,179.4077 20.4949,180.4744 Q21.1797,181.541 22.5244,181.541 Q23.1553,181.541 23.7488,181.2712 Q24.3423,181.0015 24.9731,180.4204 Z " fill="#000000"/><text fill="#000000" font-family="sans-serif" font-size="12" lengthAdjust="spacing" textLength="154" x="36" y="182.0352">tosca.capabilities.Endpoint</text><line style="stroke:#A80036;stroke-width:1.5;" x1="8" x2="192" y1="193.5" y2="193.5"/><line style="stroke:#A80036;stroke-width:1.5;" x1="8" x2="192" y1="201.5" y2="201.5"/><!--MD5=[092ea08713e9f0a14d7fdee487f2ff56]
class tosca.relationships.ConnectsTo--><rect codeLine="17" fill="#DDDDDD" filter="url(#foxlcdzngbz6g)" height="48" id="tosca.relationships.ConnectsTo" style="stroke:#A80036;stroke-width:1.5;" width="210" x="363" y="332"/><ellipse cx="378" cy="348" fill="#008000" rx="11" ry="11" style="stroke:#A80036;stroke-width:1.0;"/><path d="M379.1987,348.1479 Q379.564,348.2227 379.8337,348.4924 Q380.1035,348.7622 380.4937,349.5425 L382.7349,354 L380.0454,354 L378.5513,350.8706 Q378.4849,350.7378 378.377,350.5054 Q377.7212,349.1025 376.833,349.1025 L376.0527,349.1025 L376.0527,354 L373.604,354 L373.604,341.6069 L377.1401,341.6069 Q379.5308,341.6069 380.5725,342.4536 Q381.6143,343.3003 381.6143,345.2095 Q381.6143,346.4878 380.9917,347.2432 Q380.3691,347.9985 379.1987,348.1479 Z M376.0527,343.6655 L376.0527,347.0439 L377.2065,347.0439 Q378.2109,347.0439 378.6467,346.6497 Q379.0825,346.2554 379.0825,345.3506 Q379.0825,344.4458 378.6509,344.0557 Q378.2192,343.6655 377.2065,343.6655 Z " fill="#000000"/><text fill="#000000" font-family="sans-serif" font-size="12" lengthAdjust="spacing" textLength="178" x="392" y="352.5352">tosca.relationships.ConnectsTo</text><line style="stroke:#A80036;stroke-width:1.5;" x1="364" x2="572" y1="364" y2="364"/><line style="stroke:#A80036;stroke-width:1.5;" x1="364" x2="572" y1="372" y2="372"/><!--MD5=[35fb66748ccb1e9b68269a22de75629b]
reverse link tosca.nodes.SoftwareComponent to tosca.nodes.SoftwareComponent.Kibana--><path codeLine="3" d="M468,75.3357 C468,87.9747 468,102.0596 468,115.8208 " fill="none" id="tosca.nodes.SoftwareComponent-backto-tosca.nodes.SoftwareComponent.Kibana" style="stroke:#A80036;stroke-width:1.0;"/><polygon fill="none" points="461.0001,75.1407,468,55.1406,475.0001,75.1406,461.0001,75.1407" style="stroke:#A80036;stroke-width:1.0;"/><!--MD5=[8c7bc7e30f52e7660202e3564ffd83e8]
link tosca.capabilities.Endpoint to tosca.nodes.SoftwareComponent.Kibana--><path codeLine="14" d="M193.0914,199.8028 C212.1211,202.1762 232.0459,204.2647 250.75,205.5 C273.2069,206.9832 296.9429,206.7004 320.1545,205.3915 " fill="none" id="tosca.capabilities.Endpoint-to-tosca.nodes.SoftwareComponent.Kibana" style="stroke:#A80036;stroke-width:1.0;"/><polygon fill="#A80036" points="333.364,204.5359,327.118,200.9322,321.3891,205.3117,327.6351,208.9154,333.364,204.5359" style="stroke:#A80036;stroke-width:1.0;"/><text fill="#000000" font-family="sans-serif" font-size="13" lengthAdjust="spacing" textLength="23" x="251.75" y="202.0684">app</text><text fill="#000000" font-family="sans-serif" font-size="13" lengthAdjust="spacing" textLength="22" x="201.0609" y="214.0523">1..*</text><!--MD5=[2a30692a7ee1296a0214103a6fa48bf5]
reverse link tosca.nodes.SoftwareComponent.Kibana to tosca.capabilities.Endpoint--><path codeLine="16" d="M320.225,185.5 C277.3939,185.5 231.836,185.5 193.3377,185.5 " fill="none" id="tosca.nodes.SoftwareComponent.Kibana-backto-tosca.capabilities.Endpoint" style="stroke:#A80036;stroke-width:1.0;"/><polygon fill="#A80036" points="333.4191,185.5,327.4191,181.5,321.4191,185.5,327.4191,189.5,333.4191,185.5" style="stroke:#A80036;stroke-width:1.0;"/><text fill="#000000" font-family="sans-serif" font-size="13" lengthAdjust="spacing" textLength="104" x="211.25" y="179.0684">search_endpoint</text><text fill="#000000" font-family="sans-serif" font-size="13" lengthAdjust="spacing" textLength="8" x="201.0943" y="182.4831">1</text><!--MD5=[00094a12ccde33f955b4c42de1f558aa]
link tosca.nodes.SoftwareComponent.Kibana to tosca.relationships.ConnectsTo--><path codeLine="18" d="M468,255.3408 C468,280.3293 468,307.145 468,326.8106 " fill="none" id="tosca.nodes.SoftwareComponent.Kibana-to-tosca.relationships.ConnectsTo" style="stroke:#A80036;stroke-width:1.0;stroke-dasharray:7.0,7.0;"/><polygon fill="#A80036" points="468,331.905,472,322.905,468,326.905,464,322.905,468,331.905" style="stroke:#A80036;stroke-width:1.0;"/><text fill="#000000" font-family="sans-serif" font-size="13" lengthAdjust="spacing" textLength="183" x="469" y="298.5684">search_endpoint.relationship</text><!--MD5=[814305f3248478dabcc101230a6cf874]
@startuml
set namespaceSeparator none
class "tosca.nodes.SoftwareComponent" << (N,green) >> #DDDDDD
"tosca.nodes.SoftwareComponent" <|- - "tosca.nodes.SoftwareComponent.Kibana"
class "tosca.nodes.SoftwareComponent.Kibana" << (N,green) >> {
.. capabilities ..
+app
 type : tosca.capabilities.Endpoint[1..*]
.. requirements ..
+<b>search_endpoint
 capability : tosca.capabilities.Endpoint[1]
 relationship : tosca.relationships.ConnectsTo
}
class "tosca.capabilities.Endpoint" << (C,green) >> #DDDDDD
"tosca.capabilities.Endpoint" "1..*" -* "tosca.nodes.SoftwareComponent.Kibana" : app
class "tosca.capabilities.Endpoint" << (C,green) >> #DDDDDD
"tosca.nodes.SoftwareComponent.Kibana" *- "1" "tosca.capabilities.Endpoint" : search_endpoint
class "tosca.relationships.ConnectsTo" << (R,green) >> #DDDDDD
"tosca.nodes.SoftwareComponent.Kibana" ..> "tosca.relationships.ConnectsTo" : search_endpoint.relationship
@enduml

PlantUML version 1.2021.13(Mon Nov 01 12:38:45 CET 2021)
(GPL source distribution)
Java Runtime: Java(TM) SE Runtime Environment
JVM: Java HotSpot(TM) 64-Bit Server VM
Default Encoding: UTF-8
Language: fr
Country: FR
--></g></svg>