<?xml version="1.0" encoding="UTF-8" standalone="no"?><svg xmlns="http://www.w3.org/2000/svg" xmlns:xlink="http://www.w3.org/1999/xlink" contentScriptType="application/ecmascript" contentStyleType="text/css" height="393px" preserveAspectRatio="none" style="width:688px;height:393px;background:#FFFFFF;" version="1.1" viewBox="0 0 688 393" width="688px" zoomAndPan="magnify"><defs><filter height="300%" id="foxlcdzngbz6g" width="300%" x="-1" y="-1"><feGaussianBlur result="blurOut" stdDeviation="2.0"/><feColorMatrix in="blurOut" result="blurOut2" type="matrix" values="0 0 0 0 0 0 0 0 0 0 0 0 0 0 0 0 0 0 .4 0"/><feOffset dx="4.0" dy="4.0" in="blurOut2" result="blurOut3"/><feBlend in="SourceGraphic" in2="blurOut3" mode="normal"/></filter></defs><g><!--MD5=[adb3a1d2cf60865428cb4b4378782fa3]
class tosca.nodes.SoftwareComponent--><rect codeLine="2" fill="#DDDDDD" filter="url(#foxlcdzngbz6g)" height="48" id="tosca.nodes.SoftwareComponent" style="stroke:#A80036;stroke-width:1.5;" width="241" x="374.5" y="7"/><ellipse cx="389.5" cy="23" fill="#008000" rx="11" ry="11" style="stroke:#A80036;stroke-width:1.0;"/><path d="M385.4844,16.6094 L388.125,16.6094 L391.5781,25.6094 L391.5781,16.6094 L393.7344,16.6094 L393.7344,29 L391.1094,29 L387.6406,20 L387.6406,29 L385.4844,29 L385.4844,16.6094 Z " fill="#000000"/><text fill="#000000" font-family="sans-serif" font-size="12" lengthAdjust="spacing" textLength="209" x="403.5" y="27.1543">tosca.nodes.SoftwareComponent</text><line style="stroke:#A80036;stroke-width:1.5;" x1="375.5" x2="614.5" y1="39" y2="39"/><line style="stroke:#A80036;stroke-width:1.5;" x1="375.5" x2="614.5" y1="47" y2="47"/><!--MD5=[893d95f01ca3b8aa6be0f5b24fff9165]
class tosca.nodes.SoftwareComponent.Kibana--><rect codeLine="4" fill="#FEFECE" filter="url(#foxlcdzngbz6g)" height="137.6328" id="tosca.nodes.SoftwareComponent.Kibana" style="stroke:#A80036;stroke-width:1.5;" width="287" x="351.5" y="116"/><ellipse cx="366.5" cy="132" fill="#008000" rx="11" ry="11" style="stroke:#A80036;stroke-width:1.0;"/><path d="M362.4844,125.6094 L365.125,125.6094 L368.5781,134.6094 L368.5781,125.6094 L370.7344,125.6094 L370.7344,138 L368.1094,138 L364.6406,129 L364.6406,138 L362.4844,138 L362.4844,125.6094 Z " fill="#000000"/><text fill="#000000" font-family="sans-serif" font-size="12" lengthAdjust="spacing" textLength="255" x="380.5" y="136.1543">tosca.nodes.SoftwareComponent.Kibana</text><line style="stroke:#A80036;stroke-width:1.5;" x1="352.5" x2="637.5" y1="148" y2="148"/><ellipse cx="362.5" cy="175.8047" rx="3" ry="3" style="stroke:#038048;stroke-width:1.0;fill:none;"/><text fill="#000000" font-family="sans-serif" font-size="11" lengthAdjust="spacing" textLength="21" x="371.5" y="179.0151">app</text><text fill="#000000" font-family="sans-serif" font-size="11" lengthAdjust="spacing" textLength="217" x="371.5" y="191.8198">type : tosca.capabilities.Endpoint[1..*]</text><line style="stroke:#A80036;stroke-width:1.0;stroke-dasharray:1.0,2.0;" x1="352.5" x2="463" y1="162.4023" y2="162.4023"/><text fill="#000000" font-family="sans-serif" font-size="11" lengthAdjust="spacing" textLength="64" x="463" y="165.7104">capabilities</text><line style="stroke:#A80036;stroke-width:1.0;stroke-dasharray:1.0,2.0;" x1="527" x2="637.5" y1="162.4023" y2="162.4023"/><ellipse cx="362.5" cy="218.2188" rx="3" ry="3" style="stroke:#038048;stroke-width:1.0;fill:none;"/><text fill="#000000" font-family="sans-serif" font-size="11" font-weight="bold" lengthAdjust="spacing" textLength="106" x="371.5" y="221.4292">search_endpoint</text><text fill="#000000" font-family="sans-serif" font-size="11" lengthAdjust="spacing" textLength="232" x="371.5" y="234.2339">capability : tosca.capabilities.Endpoint[1]</text><text fill="#000000" font-family="sans-serif" font-size="11" lengthAdjust="spacing" textLength="259" x="371.5" y="247.0386">relationship : tosca.relationships.ConnectsTo</text><line style="stroke:#A80036;stroke-width:1.0;stroke-dasharray:1.0,2.0;" x1="352.5" x2="456.5" y1="204.8164" y2="204.8164"/><text fill="#000000" font-family="sans-serif" font-size="11" lengthAdjust="spacing" textLength="77" x="456.5" y="208.1245">requirements</text><line style="stroke:#A80036;stroke-width:1.0;stroke-dasharray:1.0,2.0;" x1="533.5" x2="637.5" y1="204.8164" y2="204.8164"/><!--MD5=[2beb2447f73f446132538adcfbc9879b]
class tosca.capabilities.Endpoint--><rect codeLine="15" fill="#DDDDDD" filter="url(#foxlcdzngbz6g)" height="48" id="tosca.capabilities.Endpoint" style="stroke:#A80036;stroke-width:1.5;" width="202" x="7" y="161"/><ellipse cx="22" cy="177" fill="#008000" rx="11" ry="11" style="stroke:#A80036;stroke-width:1.0;"/><path d="M24.9688,182.6406 Q24.3906,182.9375 23.75,183.0781 Q23.1094,183.2344 22.4063,183.2344 Q19.9063,183.2344 18.5781,181.5938 Q17.2656,179.9375 17.2656,176.8125 Q17.2656,173.6875 18.5781,172.0313 Q19.9063,170.375 22.4063,170.375 Q23.1094,170.375 23.75,170.5313 Q24.4063,170.6875 24.9688,170.9844 L24.9688,173.7031 Q24.3438,173.125 23.75,172.8594 Q23.1563,172.5781 22.5313,172.5781 Q21.1875,172.5781 20.5,173.6563 Q19.8125,174.7188 19.8125,176.8125 Q19.8125,178.9063 20.5,179.9844 Q21.1875,181.0469 22.5313,181.0469 Q23.1563,181.0469 23.75,180.7813 Q24.3438,180.5 24.9688,179.9219 L24.9688,182.6406 Z " fill="#000000"/><text fill="#000000" font-family="sans-serif" font-size="12" lengthAdjust="spacing" textLength="170" x="36" y="181.1543">tosca.capabilities.Endpoint</text><line style="stroke:#A80036;stroke-width:1.5;" x1="8" x2="208" y1="193" y2="193"/><line style="stroke:#A80036;stroke-width:1.5;" x1="8" x2="208" y1="201" y2="201"/><!--MD5=[092ea08713e9f0a14d7fdee487f2ff56]
class tosca.relationships.ConnectsTo--><rect codeLine="17" fill="#DDDDDD" filter="url(#foxlcdzngbz6g)" height="48" id="tosca.relationships.ConnectsTo" style="stroke:#A80036;stroke-width:1.5;" width="230" x="380" y="331"/><ellipse cx="395" cy="347" fill="#008000" rx="11" ry="11" style="stroke:#A80036;stroke-width:1.0;"/><path d="M396.2031,347.1406 Q396.5625,347.2188 396.8281,347.5 Q397.1094,347.7656 397.5,348.5469 L399.7344,353 L397.0469,353 L395.5469,349.875 Q395.4844,349.7344 395.375,349.5 Q394.7188,348.1094 393.8281,348.1094 L393.0469,348.1094 L393.0469,353 L390.6094,353 L390.6094,340.6094 L394.1406,340.6094 Q396.5313,340.6094 397.5625,341.4531 Q398.6094,342.2969 398.6094,344.2031 Q398.6094,345.4844 397.9844,346.25 Q397.375,347 396.2031,347.1406 Z M393.0469,342.6719 L393.0469,346.0469 L394.2031,346.0469 Q395.2188,346.0469 395.6406,345.6563 Q396.0781,345.25 396.0781,344.3438 Q396.0781,343.4531 395.6406,343.0625 Q395.2188,342.6719 394.2031,342.6719 L393.0469,342.6719 Z " fill="#000000"/><text fill="#000000" font-family="sans-serif" font-size="12" lengthAdjust="spacing" textLength="198" x="409" y="351.1543">tosca.relationships.ConnectsTo</text><line style="stroke:#A80036;stroke-width:1.5;" x1="381" x2="609" y1="363" y2="363"/><line style="stroke:#A80036;stroke-width:1.5;" x1="381" x2="609" y1="371" y2="371"/><!--MD5=[35fb66748ccb1e9b68269a22de75629b]
reverse link tosca.nodes.SoftwareComponent to tosca.nodes.SoftwareComponent.Kibana--><path codeLine="3" d="M495,75.26 C495,87.92 495,102.09 495,115.9 " fill="none" id="tosca.nodes.SoftwareComponent-backto-tosca.nodes.SoftwareComponent.Kibana" style="stroke:#A80036;stroke-width:1.0;"/><polygon fill="none" points="488,75.09,495,55.09,502,75.09,488,75.09" style="stroke:#A80036;stroke-width:1.0;"/><!--MD5=[8c7bc7e30f52e7660202e3564ffd83e8]
link tosca.capabilities.Endpoint to tosca.nodes.SoftwareComponent.Kibana--><path codeLine="14" d="M209.34,199.65 C228.53,201.88 248.48,203.83 267.25,205 C290.23,206.44 314.49,206.2 338.27,204.96 " fill="none" id="tosca.capabilities.Endpoint-to-tosca.nodes.SoftwareComponent.Kibana" style="stroke:#A80036;stroke-width:1.0;"/><polygon fill="#A80036" points="351.42,204.18,345.1934,200.5428,339.4411,204.8916,345.6678,208.5288,351.42,204.18" style="stroke:#A80036;stroke-width:1.0;"/><text fill="#000000" font-family="sans-serif" font-size="13" lengthAdjust="spacing" textLength="24" x="268.25" y="201.0669">app</text><text fill="#000000" font-family="sans-serif" font-size="13" lengthAdjust="spacing" textLength="23" x="216.9214" y="197.2017">1..*</text><!--MD5=[2a30692a7ee1296a0214103a6fa48bf5]
reverse link tosca.nodes.SoftwareComponent.Kibana to tosca.capabilities.Endpoint--><path codeLine="16" d="M338.34,185 C294.78,185 248.63,185 209.17,185 " fill="none" id="tosca.nodes.SoftwareComponent.Kibana-backto-tosca.capabilities.Endpoint" style="stroke:#A80036;stroke-width:1.0;"/><polygon fill="#A80036" points="351.46,185,345.46,181,339.46,185,345.46,189,351.46,185" style="stroke:#A80036;stroke-width:1.0;"/><text fill="#000000" font-family="sans-serif" font-size="13" lengthAdjust="spacing" textLength="106" x="227.25" y="178.0669">search_endpoint</text><text fill="#000000" font-family="sans-serif" font-size="13" lengthAdjust="spacing" textLength="8" x="216.8934" y="181.521">1</text><!--MD5=[00094a12ccde33f955b4c42de1f558aa]
link tosca.nodes.SoftwareComponent.Kibana to tosca.relationships.ConnectsTo--><path codeLine="18" d="M495,254.33 C495,279.24 495,306.06 495,325.6 " fill="none" id="tosca.nodes.SoftwareComponent.Kibana-to-tosca.relationships.ConnectsTo" style="stroke:#A80036;stroke-width:1.0;stroke-dasharray:7.0,7.0;"/><polygon fill="#A80036" points="495,330.9,499,321.9,495,325.9,491,321.9,495,330.9" style="stroke:#A80036;stroke-width:1.0;"/><text fill="#000000" font-family="sans-serif" font-size="13" lengthAdjust="spacing" textLength="184" x="496" y="297.0669">search_endpoint.relationship</text><!--MD5=[8016eac15f6e8a79841fb2c78a3dde3e]
@startuml
set namespaceSeparator none
class "tosca.nodes.SoftwareComponent" << (N,green) >> #DDDDDD
"tosca.nodes.SoftwareComponent" <|- - "tosca.nodes.SoftwareComponent.Kibana"
class "tosca.nodes.SoftwareComponent.Kibana" << (N,green) >> {
.. capabilities ..
+app
 type : tosca.capabilities.Endpoint[1..*]
.. requirements ..
+<b>search_endpoint
 capability : tosca.capabilities.Endpoint[1]
 relationship : tosca.relationships.ConnectsTo
}
class "tosca.capabilities.Endpoint" << (C,green) >> #DDDDDD
"tosca.capabilities.Endpoint" "1..*" -* "tosca.nodes.SoftwareComponent.Kibana" : app
class "tosca.capabilities.Endpoint" << (C,green) >> #DDDDDD
"tosca.nodes.SoftwareComponent.Kibana" *- "1" "tosca.capabilities.Endpoint" : search_endpoint
class "tosca.relationships.ConnectsTo" << (R,green) >> #DDDDDD
"tosca.nodes.SoftwareComponent.Kibana" ..> "tosca.relationships.ConnectsTo" : search_endpoint.relationship
@enduml

PlantUML version 1.2021.13(Mon Nov 01 11:38:45 GMT 2021)
(GPL source distribution)
Java Runtime: OpenJDK Runtime Environment
JVM: OpenJDK 64-Bit Server VM
Default Encoding: UTF-8
Language: en
Country: US
--></g></svg>