<?xml version="1.0" encoding="UTF-8" standalone="no"?><svg xmlns="http://www.w3.org/2000/svg" xmlns:xlink="http://www.w3.org/1999/xlink" contentScriptType="application/ecmascript" contentStyleType="text/css" height="394px" preserveAspectRatio="none" style="width:663px;height:394px;background:#FFFFFF;" version="1.1" viewBox="0 0 663 394" width="663px" zoomAndPan="magnify"><defs><filter height="300%" id="f1ctaup9shf7ff" width="300%" x="-1" y="-1"><feGaussianBlur result="blurOut" stdDeviation="2.0"/><feColorMatrix in="blurOut" result="blurOut2" type="matrix" values="0 0 0 0 0 0 0 0 0 0 0 0 0 0 0 0 0 0 .4 0"/><feOffset dx="4.0" dy="4.0" in="blurOut2" result="blurOut3"/><feBlend in="SourceGraphic" in2="blurOut3" mode="normal"/></filter></defs><g><!--MD5=[adb3a1d2cf60865428cb4b4378782fa3]
class tosca.nodes.SoftwareComponent--><rect codeLine="2" fill="#DDDDDD" filter="url(#f1ctaup9shf7ff)" height="48" id="tosca.nodes.SoftwareComponent" style="stroke:#A80036;stroke-width:1.5;" width="220" x="361" y="7"/><ellipse cx="376" cy="23" fill="#008000" rx="11" ry="11" style="stroke:#A80036;stroke-width:1.0;"/><path d="M371.9878,16.6069 L374.6191,16.6069 L378.0723,25.6133 L378.0723,16.6069 L380.2305,16.6069 L380.2305,29 L377.6157,29 L374.146,19.9937 L374.146,29 L371.9878,29 Z " fill="#000000"/><text fill="#000000" font-family="sans-serif" font-size="12" lengthAdjust="spacing" textLength="188" x="390" y="27.5352">tosca.nodes.SoftwareComponent</text><line style="stroke:#A80036;stroke-width:1.5;" x1="362" x2="580" y1="39" y2="39"/><line style="stroke:#A80036;stroke-width:1.5;" x1="362" x2="580" y1="47" y2="47"/><!--MD5=[7686d1c12eafe14a30088e3a519ac237]
class tosca.nodes.SoftwareComponent.Logstash--><rect codeLine="4" fill="#FEFECE" filter="url(#f1ctaup9shf7ff)" height="138.6855" id="tosca.nodes.SoftwareComponent.Logstash" style="stroke:#A80036;stroke-width:1.5;" width="274" x="334" y="116"/><ellipse cx="349" cy="132" fill="#008000" rx="11" ry="11" style="stroke:#A80036;stroke-width:1.0;"/><path d="M344.9878,125.6069 L347.6191,125.6069 L351.0723,134.6133 L351.0723,125.6069 L353.2305,125.6069 L353.2305,138 L350.6157,138 L347.146,128.9937 L347.146,138 L344.9878,138 Z " fill="#000000"/><text fill="#000000" font-family="sans-serif" font-size="12" lengthAdjust="spacing" textLength="242" x="363" y="136.5352">tosca.nodes.SoftwareComponent.Logstash</text><line style="stroke:#A80036;stroke-width:1.5;" x1="335" x2="607" y1="148" y2="148"/><ellipse cx="345" cy="175.9551" rx="3" ry="3" style="stroke:#038048;stroke-width:1.0;fill:none;"/><text fill="#000000" font-family="sans-serif" font-size="11" lengthAdjust="spacing" textLength="20" x="354" y="179.5898">app</text><text fill="#000000" font-family="sans-serif" font-size="11" lengthAdjust="spacing" textLength="201" x="354" y="192.5449">type : tosca.capabilities.Endpoint[1..*]</text><line style="stroke:#A80036;stroke-width:1.0;stroke-dasharray:1.0,2.0;" x1="335" x2="441" y1="162.4775" y2="162.4775"/><text fill="#000000" font-family="sans-serif" font-size="11" lengthAdjust="spacing" textLength="60" x="441" y="166.1348">capabilities</text><line style="stroke:#A80036;stroke-width:1.0;stroke-dasharray:1.0,2.0;" x1="501" x2="607" y1="162.4775" y2="162.4775"/><ellipse cx="345" cy="218.8203" rx="3" ry="3" style="stroke:#038048;stroke-width:1.0;fill:none;"/><text fill="#000000" font-family="sans-serif" font-size="11" font-weight="bold" lengthAdjust="spacing" textLength="91" x="354" y="222.4551">search_endpoint</text><text fill="#000000" font-family="sans-serif" font-size="11" lengthAdjust="spacing" textLength="218" x="354" y="235.4102">capability : tosca.capabilities.Endpoint[1]</text><text fill="#000000" font-family="sans-serif" font-size="11" lengthAdjust="spacing" textLength="243" x="354" y="248.3652">relationship : tosca.relationships.ConnectsTo</text><line style="stroke:#A80036;stroke-width:1.0;stroke-dasharray:1.0,2.0;" x1="335" x2="435" y1="205.3428" y2="205.3428"/><text fill="#000000" font-family="sans-serif" font-size="11" lengthAdjust="spacing" textLength="72" x="435" y="209">requirements</text><line style="stroke:#A80036;stroke-width:1.0;stroke-dasharray:1.0,2.0;" x1="507" x2="607" y1="205.3428" y2="205.3428"/><!--MD5=[2beb2447f73f446132538adcfbc9879b]
class tosca.capabilities.Endpoint--><rect codeLine="15" fill="#DDDDDD" filter="url(#f1ctaup9shf7ff)" height="48" id="tosca.capabilities.Endpoint" style="stroke:#A80036;stroke-width:1.5;" width="186" x="7" y="161.5"/><ellipse cx="22" cy="177.5" fill="#008000" rx="11" ry="11" style="stroke:#A80036;stroke-width:1.0;"/><path d="M24.9731,183.1431 Q24.3921,183.4419 23.7529,183.5913 Q23.1138,183.7407 22.4082,183.7407 Q19.9014,183.7407 18.5815,182.0889 Q17.2617,180.437 17.2617,177.3159 Q17.2617,174.1865 18.5815,172.5347 Q19.9014,170.8828 22.4082,170.8828 Q23.1138,170.8828 23.7612,171.0322 Q24.4087,171.1816 24.9731,171.4805 L24.9731,174.2031 Q24.3423,173.6221 23.7488,173.3523 Q23.1553,173.0825 22.5244,173.0825 Q21.1797,173.0825 20.4949,174.1492 Q19.8101,175.2158 19.8101,177.3159 Q19.8101,179.4077 20.4949,180.4744 Q21.1797,181.541 22.5244,181.541 Q23.1553,181.541 23.7488,181.2712 Q24.3423,181.0015 24.9731,180.4204 Z " fill="#000000"/><text fill="#000000" font-family="sans-serif" font-size="12" lengthAdjust="spacing" textLength="154" x="36" y="182.0352">tosca.capabilities.Endpoint</text><line style="stroke:#A80036;stroke-width:1.5;" x1="8" x2="192" y1="193.5" y2="193.5"/><line style="stroke:#A80036;stroke-width:1.5;" x1="8" x2="192" y1="201.5" y2="201.5"/><!--MD5=[092ea08713e9f0a14d7fdee487f2ff56]
class tosca.relationships.ConnectsTo--><rect codeLine="17" fill="#DDDDDD" filter="url(#f1ctaup9shf7ff)" height="48" id="tosca.relationships.ConnectsTo" style="stroke:#A80036;stroke-width:1.5;" width="210" x="366" y="332"/><ellipse cx="381" cy="348" fill="#008000" rx="11" ry="11" style="stroke:#A80036;stroke-width:1.0;"/><path d="M382.1987,348.1479 Q382.564,348.2227 382.8337,348.4924 Q383.1035,348.7622 383.4937,349.5425 L385.7349,354 L383.0454,354 L381.5513,350.8706 Q381.4849,350.7378 381.377,350.5054 Q380.7212,349.1025 379.833,349.1025 L379.0527,349.1025 L379.0527,354 L376.604,354 L376.604,341.6069 L380.1401,341.6069 Q382.5308,341.6069 383.5725,342.4536 Q384.6143,343.3003 384.6143,345.2095 Q384.6143,346.4878 383.9917,347.2432 Q383.3691,347.9985 382.1987,348.1479 Z M379.0527,343.6655 L379.0527,347.0439 L380.2065,347.0439 Q381.2109,347.0439 381.6467,346.6497 Q382.0825,346.2554 382.0825,345.3506 Q382.0825,344.4458 381.6509,344.0557 Q381.2192,343.6655 380.2065,343.6655 Z " fill="#000000"/><text fill="#000000" font-family="sans-serif" font-size="12" lengthAdjust="spacing" textLength="178" x="395" y="352.5352">tosca.relationships.ConnectsTo</text><line style="stroke:#A80036;stroke-width:1.5;" x1="367" x2="575" y1="364" y2="364"/><line style="stroke:#A80036;stroke-width:1.5;" x1="367" x2="575" y1="372" y2="372"/><!--MD5=[1853a0883fac7f835550734c2cb05764]
reverse link tosca.nodes.SoftwareComponent to tosca.nodes.SoftwareComponent.Logstash--><path codeLine="3" d="M471,75.3357 C471,87.9747 471,102.0596 471,115.8208 " fill="none" id="tosca.nodes.SoftwareComponent-backto-tosca.nodes.SoftwareComponent.Logstash" style="stroke:#A80036;stroke-width:1.0;"/><polygon fill="none" points="464.0001,75.1407,471,55.1406,478.0001,75.1406,464.0001,75.1407" style="stroke:#A80036;stroke-width:1.0;"/><!--MD5=[e3c97ea2ee20a41ffcb4efb15882bbd5]
link tosca.capabilities.Endpoint to tosca.nodes.SoftwareComponent.Logstash--><path codeLine="14" d="M193.2464,199.8028 C212.3076,202.1762 232.2653,204.2647 251,205.5 C273.4979,206.9834 297.2648,206.7308 320.5315,205.4613 " fill="none" id="tosca.capabilities.Endpoint-to-tosca.nodes.SoftwareComponent.Logstash" style="stroke:#A80036;stroke-width:1.0;"/><polygon fill="#A80036" points="333.7753,204.629,327.5362,201.0132,321.7989,205.3817,328.038,208.9975,333.7753,204.629" style="stroke:#A80036;stroke-width:1.0;"/><text fill="#000000" font-family="sans-serif" font-size="13" lengthAdjust="spacing" textLength="23" x="252" y="202.0684">app</text><text fill="#000000" font-family="sans-serif" font-size="13" lengthAdjust="spacing" textLength="22" x="200.902" y="197.8821">1..*</text><!--MD5=[8207411aaeebea9bdaedee05723b2066]
reverse link tosca.nodes.SoftwareComponent.Logstash to tosca.capabilities.Endpoint--><path codeLine="16" d="M320.9563,185.5 C277.73,185.5 231.8356,185.5 193.1401,185.5 " fill="none" id="tosca.nodes.SoftwareComponent.Logstash-backto-tosca.capabilities.Endpoint" style="stroke:#A80036;stroke-width:1.0;"/><polygon fill="#A80036" points="333.9717,185.5,327.9717,181.5,321.9717,185.5,327.9717,189.5,333.9717,185.5" style="stroke:#A80036;stroke-width:1.0;"/><text fill="#000000" font-family="sans-serif" font-size="13" lengthAdjust="spacing" textLength="104" x="211.5" y="179.0684">search_endpoint</text><text fill="#000000" font-family="sans-serif" font-size="13" lengthAdjust="spacing" textLength="8" x="200.881" y="182.4831">1</text><!--MD5=[a396073e86a78d64b902be052119a361]
link tosca.nodes.SoftwareComponent.Logstash to tosca.relationships.ConnectsTo--><path codeLine="18" d="M471,255.3408 C471,280.3293 471,307.145 471,326.8106 " fill="none" id="tosca.nodes.SoftwareComponent.Logstash-to-tosca.relationships.ConnectsTo" style="stroke:#A80036;stroke-width:1.0;stroke-dasharray:7.0,7.0;"/><polygon fill="#A80036" points="471,331.905,475,322.905,471,326.905,467,322.905,471,331.905" style="stroke:#A80036;stroke-width:1.0;"/><text fill="#000000" font-family="sans-serif" font-size="13" lengthAdjust="spacing" textLength="183" x="472" y="298.5684">search_endpoint.relationship</text><!--MD5=[b8b092c8963cfdc4aadca7409d7dbfc3]
@startuml
set namespaceSeparator none
class "tosca.nodes.SoftwareComponent" << (N,green) >> #DDDDDD
"tosca.nodes.SoftwareComponent" <|- - "tosca.nodes.SoftwareComponent.Logstash"
class "tosca.nodes.SoftwareComponent.Logstash" << (N,green) >> {
.. capabilities ..
+app
 type : tosca.capabilities.Endpoint[1..*]
.. requirements ..
+<b>search_endpoint
 capability : tosca.capabilities.Endpoint[1]
 relationship : tosca.relationships.ConnectsTo
}
class "tosca.capabilities.Endpoint" << (C,green) >> #DDDDDD
"tosca.capabilities.Endpoint" "1..*" -* "tosca.nodes.SoftwareComponent.Logstash" : app
class "tosca.capabilities.Endpoint" << (C,green) >> #DDDDDD
"tosca.nodes.SoftwareComponent.Logstash" *- "1" "tosca.capabilities.Endpoint" : search_endpoint
class "tosca.relationships.ConnectsTo" << (R,green) >> #DDDDDD
"tosca.nodes.SoftwareComponent.Logstash" ..> "tosca.relationships.ConnectsTo" : search_endpoint.relationship
@enduml

PlantUML version 1.2021.13(Mon Nov 01 12:38:45 CET 2021)
(GPL source distribution)
Java Runtime: Java(TM) SE Runtime Environment
JVM: Java HotSpot(TM) 64-Bit Server VM
Default Encoding: UTF-8
Language: fr
Country: FR
--></g></svg>