<?xml version="1.0" encoding="UTF-8" standalone="no"?><svg xmlns="http://www.w3.org/2000/svg" xmlns:xlink="http://www.w3.org/1999/xlink" contentScriptType="application/ecmascript" contentStyleType="text/css" height="394px" preserveAspectRatio="none" style="width:728px;height:394px;background:#FFFFFF;" version="1.1" viewBox="0 0 728 394" width="728px" zoomAndPan="magnify"><defs><filter height="300%" id="ft4hfsa6q5w6p" width="300%" x="-1" y="-1"><feGaussianBlur result="blurOut" stdDeviation="2.0"/><feColorMatrix in="blurOut" result="blurOut2" type="matrix" values="0 0 0 0 0 0 0 0 0 0 0 0 0 0 0 0 0 0 .4 0"/><feOffset dx="4.0" dy="4.0" in="blurOut2" result="blurOut3"/><feBlend in="SourceGraphic" in2="blurOut3" mode="normal"/></filter></defs><g><!--MD5=[27697265338c4c4e774e642814f1268f]
class tosca_nodes_SoftwareComponent_NT--><rect codeLine="2" fill="#DDDDDD" filter="url(#ft4hfsa6q5w6p)" height="48" id="tosca_nodes_SoftwareComponent_NT" style="stroke:#A80036;stroke-width:1.5;" width="220" x="426" y="7"/><ellipse cx="441" cy="23" fill="#008000" rx="11" ry="11" style="stroke:#A80036;stroke-width:1.0;"/><path d="M436.9878,16.6069 L439.6191,16.6069 L443.0723,25.6133 L443.0723,16.6069 L445.2305,16.6069 L445.2305,29 L442.6157,29 L439.146,19.9937 L439.146,29 L436.9878,29 Z " fill="#000000"/><text fill="#000000" font-family="sans-serif" font-size="12" lengthAdjust="spacing" textLength="188" x="455" y="27.5352">tosca.nodes.SoftwareComponent</text><line style="stroke:#A80036;stroke-width:1.5;" x1="427" x2="645" y1="39" y2="39"/><line style="stroke:#A80036;stroke-width:1.5;" x1="427" x2="645" y1="47" y2="47"/><!--MD5=[785620fd5f4c280aed27cd2673f13b05]
class tosca_nodes_SoftwareComponent_Logstash_NT--><rect codeLine="3" fill="#FEFECE" filter="url(#ft4hfsa6q5w6p)" height="138.6855" id="tosca_nodes_SoftwareComponent_Logstash_NT" style="stroke:#A80036;stroke-width:1.5;" width="274" x="399" y="116"/><ellipse cx="414" cy="132" fill="#008000" rx="11" ry="11" style="stroke:#A80036;stroke-width:1.0;"/><path d="M409.9878,125.6069 L412.6191,125.6069 L416.0723,134.6133 L416.0723,125.6069 L418.2305,125.6069 L418.2305,138 L415.6157,138 L412.146,128.9937 L412.146,138 L409.9878,138 Z " fill="#000000"/><text fill="#000000" font-family="sans-serif" font-size="12" lengthAdjust="spacing" textLength="242" x="428" y="136.5352">tosca.nodes.SoftwareComponent.Logstash</text><line style="stroke:#A80036;stroke-width:1.5;" x1="400" x2="672" y1="148" y2="148"/><ellipse cx="410" cy="175.9551" rx="3" ry="3" style="stroke:#038048;stroke-width:1.0;fill:none;"/><text fill="#000000" font-family="sans-serif" font-size="11" lengthAdjust="spacing" textLength="20" x="419" y="179.5898">app</text><text fill="#000000" font-family="sans-serif" font-size="11" lengthAdjust="spacing" textLength="201" x="419" y="192.5449">type : tosca.capabilities.Endpoint[1..*]</text><line style="stroke:#A80036;stroke-width:1.0;stroke-dasharray:1.0,2.0;" x1="400" x2="506" y1="162.4775" y2="162.4775"/><text fill="#000000" font-family="sans-serif" font-size="11" lengthAdjust="spacing" textLength="60" x="506" y="166.1348">capabilities</text><line style="stroke:#A80036;stroke-width:1.0;stroke-dasharray:1.0,2.0;" x1="566" x2="672" y1="162.4775" y2="162.4775"/><ellipse cx="410" cy="218.8203" rx="3" ry="3" style="stroke:#038048;stroke-width:1.0;fill:none;"/><text fill="#000000" font-family="sans-serif" font-size="11" font-weight="bold" lengthAdjust="spacing" textLength="91" x="419" y="222.4551">search_endpoint</text><text fill="#000000" font-family="sans-serif" font-size="11" lengthAdjust="spacing" textLength="218" x="419" y="235.4102">capability : tosca.capabilities.Endpoint[1]</text><text fill="#000000" font-family="sans-serif" font-size="11" lengthAdjust="spacing" textLength="243" x="419" y="248.3652">relationship : tosca.relationships.ConnectsTo</text><line style="stroke:#A80036;stroke-width:1.0;stroke-dasharray:1.0,2.0;" x1="400" x2="500" y1="205.3428" y2="205.3428"/><text fill="#000000" font-family="sans-serif" font-size="11" lengthAdjust="spacing" textLength="72" x="500" y="209">requirements</text><line style="stroke:#A80036;stroke-width:1.0;stroke-dasharray:1.0,2.0;" x1="572" x2="672" y1="205.3428" y2="205.3428"/><!--MD5=[bd814c571e11a2214592d85e7995d8fb]
class tosca_capabilities_Endpoint_CT--><rect codeLine="13" fill="#DDDDDD" filter="url(#ft4hfsa6q5w6p)" height="48" id="tosca_capabilities_Endpoint_CT" style="stroke:#A80036;stroke-width:1.5;" width="186" x="7" y="161.5"/><ellipse cx="22" cy="177.5" fill="#008000" rx="11" ry="11" style="stroke:#A80036;stroke-width:1.0;"/><path d="M24.9731,183.1431 Q24.3921,183.4419 23.7529,183.5913 Q23.1138,183.7407 22.4082,183.7407 Q19.9014,183.7407 18.5815,182.0889 Q17.2617,180.437 17.2617,177.3159 Q17.2617,174.1865 18.5815,172.5347 Q19.9014,170.8828 22.4082,170.8828 Q23.1138,170.8828 23.7612,171.0322 Q24.4087,171.1816 24.9731,171.4805 L24.9731,174.2031 Q24.3423,173.6221 23.7488,173.3523 Q23.1553,173.0825 22.5244,173.0825 Q21.1797,173.0825 20.4949,174.1492 Q19.8101,175.2158 19.8101,177.3159 Q19.8101,179.4077 20.4949,180.4744 Q21.1797,181.541 22.5244,181.541 Q23.1553,181.541 23.7488,181.2712 Q24.3423,181.0015 24.9731,180.4204 Z " fill="#000000"/><text fill="#000000" font-family="sans-serif" font-size="12" lengthAdjust="spacing" textLength="154" x="36" y="182.0352">tosca.capabilities.Endpoint</text><line style="stroke:#A80036;stroke-width:1.5;" x1="8" x2="192" y1="193.5" y2="193.5"/><line style="stroke:#A80036;stroke-width:1.5;" x1="8" x2="192" y1="201.5" y2="201.5"/><!--MD5=[73ef529cb74862cd16c9ea7608a24b08]
class tosca_relationships_ConnectsTo_RT--><rect codeLine="14" fill="#DDDDDD" filter="url(#ft4hfsa6q5w6p)" height="48" id="tosca_relationships_ConnectsTo_RT" style="stroke:#A80036;stroke-width:1.5;" width="210" x="431" y="332"/><ellipse cx="446" cy="348" fill="#008000" rx="11" ry="11" style="stroke:#A80036;stroke-width:1.0;"/><path d="M447.1987,348.1479 Q447.564,348.2227 447.8337,348.4924 Q448.1035,348.7622 448.4937,349.5425 L450.7349,354 L448.0454,354 L446.5513,350.8706 Q446.4849,350.7378 446.377,350.5054 Q445.7212,349.1025 444.833,349.1025 L444.0527,349.1025 L444.0527,354 L441.604,354 L441.604,341.6069 L445.1401,341.6069 Q447.5308,341.6069 448.5725,342.4536 Q449.6143,343.3003 449.6143,345.2095 Q449.6143,346.4878 448.9917,347.2432 Q448.3691,347.9985 447.1987,348.1479 Z M444.0527,343.6655 L444.0527,347.0439 L445.2065,347.0439 Q446.2109,347.0439 446.6467,346.6497 Q447.0825,346.2554 447.0825,345.3506 Q447.0825,344.4458 446.6509,344.0557 Q446.2192,343.6655 445.2065,343.6655 Z " fill="#000000"/><text fill="#000000" font-family="sans-serif" font-size="12" lengthAdjust="spacing" textLength="178" x="460" y="352.5352">tosca.relationships.ConnectsTo</text><line style="stroke:#A80036;stroke-width:1.5;" x1="432" x2="640" y1="364" y2="364"/><line style="stroke:#A80036;stroke-width:1.5;" x1="432" x2="640" y1="372" y2="372"/><!--MD5=[5e2415c8f783ccc2f98cc20ef23344d4]
reverse link tosca_nodes_SoftwareComponent_NT to tosca_nodes_SoftwareComponent_Logstash_NT--><path codeLine="15" d="M536,75.3357 C536,87.9747 536,102.0596 536,115.8208 " fill="none" id="tosca_nodes_SoftwareComponent_NT-backto-tosca_nodes_SoftwareComponent_Logstash_NT" style="stroke:#A80036;stroke-width:1.0;"/><polygon fill="none" points="529.0001,75.1407,536,55.1406,543.0001,75.1406,529.0001,75.1407" style="stroke:#A80036;stroke-width:1.0;"/><!--MD5=[a5a3f1ceffaf2344c3ec3bfdca7ae75d]
link tosca_capabilities_Endpoint_CT to tosca_nodes_SoftwareComponent_Logstash_NT--><path codeLine="16" d="M193.1909,197.6381 C222.082,200.8675 254.0608,203.9004 283.5,205.5 C316.5461,207.2956 351.9848,206.3069 385.5533,204.0158 " fill="none" id="tosca_capabilities_Endpoint_CT-to-tosca_nodes_SoftwareComponent_Logstash_NT" style="stroke:#A80036;stroke-width:1.0;"/><polygon fill="#A80036" points="398.8124,203.038,392.5345,199.4901,386.8449,203.9206,393.1229,207.4685,398.8124,203.038" style="stroke:#A80036;stroke-width:1.0;"/><text fill="#000000" font-family="sans-serif" font-size="13" lengthAdjust="spacing" textLength="23" x="284.5" y="202.0684">app</text><text fill="#000000" font-family="sans-serif" font-size="13" lengthAdjust="spacing" textLength="22" x="200.8424" y="211.66">1..*</text><!--MD5=[bcd047d85b5b7fa08b57d94bea7e2630]
reverse link tosca_nodes_SoftwareComponent_Logstash_NT to tosca_capabilities_Endpoint_CT--><path codeLine="17" d="M385.5118,185.5 C321.6443,185.5 249.1993,185.5 193.2654,185.5 " fill="none" id="tosca_nodes_SoftwareComponent_Logstash_NT-backto-tosca_capabilities_Endpoint_CT" style="stroke:#A80036;stroke-width:1.0;"/><polygon fill="#A80036" points="398.5816,185.5,392.5816,181.5,386.5816,185.5,392.5816,189.5,398.5816,185.5" style="stroke:#A80036;stroke-width:1.0;"/><text fill="#000000" font-family="sans-serif" font-size="13" lengthAdjust="spacing" textLength="169" x="211.5" y="179.0684">search_endpoint.capability</text><text fill="#000000" font-family="sans-serif" font-size="13" lengthAdjust="spacing" textLength="8" x="201.0162" y="182.4831">1</text><!--MD5=[fbb7b25b83f7d2e87894a76c148c8eb5]
link tosca_nodes_SoftwareComponent_Logstash_NT to tosca_relationships_ConnectsTo_RT--><path codeLine="18" d="M536,255.3408 C536,280.3293 536,307.145 536,326.8106 " fill="none" id="tosca_nodes_SoftwareComponent_Logstash_NT-to-tosca_relationships_ConnectsTo_RT" style="stroke:#A80036;stroke-width:1.0;stroke-dasharray:7.0,7.0;"/><polygon fill="#A80036" points="536,331.905,540,322.905,536,326.905,532,322.905,536,331.905" style="stroke:#A80036;stroke-width:1.0;"/><text fill="#000000" font-family="sans-serif" font-size="13" lengthAdjust="spacing" textLength="183" x="537" y="298.5684">search_endpoint.relationship</text><!--MD5=[45206b6efee520de5d33ebcdf4e209e1]
@startuml
set namespaceSeparator none
class "tosca.nodes.SoftwareComponent" as tosca_nodes_SoftwareComponent_NT << (N,green) >> #DDDDDD
class "tosca.nodes.SoftwareComponent.Logstash" as tosca_nodes_SoftwareComponent_Logstash_NT << (N,green) >> {
.. capabilities ..
+app
 type : tosca.capabilities.Endpoint[1..*]
.. requirements ..
+<b>search_endpoint
 capability : tosca.capabilities.Endpoint[1]
 relationship : tosca.relationships.ConnectsTo
}
class "tosca.capabilities.Endpoint" as tosca_capabilities_Endpoint_CT << (C,green) >> #DDDDDD
class "tosca.capabilities.Endpoint" as tosca_capabilities_Endpoint_CT << (C,green) >> #DDDDDD
class "tosca.relationships.ConnectsTo" as tosca_relationships_ConnectsTo_RT << (R,green) >> #DDDDDD
tosca_nodes_SoftwareComponent_NT <|- - tosca_nodes_SoftwareComponent_Logstash_NT
tosca_capabilities_Endpoint_CT "1..*" -* tosca_nodes_SoftwareComponent_Logstash_NT : app
tosca_nodes_SoftwareComponent_Logstash_NT *- "1" tosca_capabilities_Endpoint_CT : search_endpoint.capability
tosca_nodes_SoftwareComponent_Logstash_NT ..> tosca_relationships_ConnectsTo_RT : search_endpoint.relationship
@enduml

PlantUML version 1.2021.13(Mon Nov 01 12:38:45 CET 2021)
(GPL source distribution)
Java Runtime: Java(TM) SE Runtime Environment
JVM: Java HotSpot(TM) 64-Bit Server VM
Default Encoding: UTF-8
Language: fr
Country: FR
--></g></svg>