<?xml version="1.0" encoding="UTF-8" standalone="no"?><svg xmlns="http://www.w3.org/2000/svg" xmlns:xlink="http://www.w3.org/1999/xlink" contentScriptType="application/ecmascript" contentStyleType="text/css" height="393px" preserveAspectRatio="none" style="width:696px;height:393px;background:#FFFFFF;" version="1.1" viewBox="0 0 696 393" width="696px" zoomAndPan="magnify"><defs><filter height="300%" id="f1ctaup9shf7ff" width="300%" x="-1" y="-1"><feGaussianBlur result="blurOut" stdDeviation="2.0"/><feColorMatrix in="blurOut" result="blurOut2" type="matrix" values="0 0 0 0 0 0 0 0 0 0 0 0 0 0 0 0 0 0 .4 0"/><feOffset dx="4.0" dy="4.0" in="blurOut2" result="blurOut3"/><feBlend in="SourceGraphic" in2="blurOut3" mode="normal"/></filter></defs><g><!--MD5=[adb3a1d2cf60865428cb4b4378782fa3]
class tosca.nodes.SoftwareComponent--><rect codeLine="2" fill="#DDDDDD" filter="url(#f1ctaup9shf7ff)" height="48" id="tosca.nodes.SoftwareComponent" style="stroke:#A80036;stroke-width:1.5;" width="241" x="382.5" y="7"/><ellipse cx="397.5" cy="23" fill="#008000" rx="11" ry="11" style="stroke:#A80036;stroke-width:1.0;"/><path d="M393.4844,16.6094 L396.125,16.6094 L399.5781,25.6094 L399.5781,16.6094 L401.7344,16.6094 L401.7344,29 L399.1094,29 L395.6406,20 L395.6406,29 L393.4844,29 L393.4844,16.6094 Z " fill="#000000"/><text fill="#000000" font-family="sans-serif" font-size="12" lengthAdjust="spacing" textLength="209" x="411.5" y="27.1543">tosca.nodes.SoftwareComponent</text><line style="stroke:#A80036;stroke-width:1.5;" x1="383.5" x2="622.5" y1="39" y2="39"/><line style="stroke:#A80036;stroke-width:1.5;" x1="383.5" x2="622.5" y1="47" y2="47"/><!--MD5=[7686d1c12eafe14a30088e3a519ac237]
class tosca.nodes.SoftwareComponent.Logstash--><rect codeLine="4" fill="#FEFECE" filter="url(#f1ctaup9shf7ff)" height="137.6328" id="tosca.nodes.SoftwareComponent.Logstash" style="stroke:#A80036;stroke-width:1.5;" width="302" x="352" y="116"/><ellipse cx="367" cy="132" fill="#008000" rx="11" ry="11" style="stroke:#A80036;stroke-width:1.0;"/><path d="M362.9844,125.6094 L365.625,125.6094 L369.0781,134.6094 L369.0781,125.6094 L371.2344,125.6094 L371.2344,138 L368.6094,138 L365.1406,129 L365.1406,138 L362.9844,138 L362.9844,125.6094 Z " fill="#000000"/><text fill="#000000" font-family="sans-serif" font-size="12" lengthAdjust="spacing" textLength="270" x="381" y="136.1543">tosca.nodes.SoftwareComponent.Logstash</text><line style="stroke:#A80036;stroke-width:1.5;" x1="353" x2="653" y1="148" y2="148"/><ellipse cx="363" cy="175.8047" rx="3" ry="3" style="stroke:#038048;stroke-width:1.0;fill:none;"/><text fill="#000000" font-family="sans-serif" font-size="11" lengthAdjust="spacing" textLength="21" x="372" y="179.0151">app</text><text fill="#000000" font-family="sans-serif" font-size="11" lengthAdjust="spacing" textLength="217" x="372" y="191.8198">type : tosca.capabilities.Endpoint[1..*]</text><line style="stroke:#A80036;stroke-width:1.0;stroke-dasharray:1.0,2.0;" x1="353" x2="471" y1="162.4023" y2="162.4023"/><text fill="#000000" font-family="sans-serif" font-size="11" lengthAdjust="spacing" textLength="64" x="471" y="165.7104">capabilities</text><line style="stroke:#A80036;stroke-width:1.0;stroke-dasharray:1.0,2.0;" x1="535" x2="653" y1="162.4023" y2="162.4023"/><ellipse cx="363" cy="218.2188" rx="3" ry="3" style="stroke:#038048;stroke-width:1.0;fill:none;"/><text fill="#000000" font-family="sans-serif" font-size="11" font-weight="bold" lengthAdjust="spacing" textLength="106" x="372" y="221.4292">search_endpoint</text><text fill="#000000" font-family="sans-serif" font-size="11" lengthAdjust="spacing" textLength="232" x="372" y="234.2339">capability : tosca.capabilities.Endpoint[1]</text><text fill="#000000" font-family="sans-serif" font-size="11" lengthAdjust="spacing" textLength="259" x="372" y="247.0386">relationship : tosca.relationships.ConnectsTo</text><line style="stroke:#A80036;stroke-width:1.0;stroke-dasharray:1.0,2.0;" x1="353" x2="464.5" y1="204.8164" y2="204.8164"/><text fill="#000000" font-family="sans-serif" font-size="11" lengthAdjust="spacing" textLength="77" x="464.5" y="208.1245">requirements</text><line style="stroke:#A80036;stroke-width:1.0;stroke-dasharray:1.0,2.0;" x1="541.5" x2="653" y1="204.8164" y2="204.8164"/><!--MD5=[2beb2447f73f446132538adcfbc9879b]
class tosca.capabilities.Endpoint--><rect codeLine="15" fill="#DDDDDD" filter="url(#f1ctaup9shf7ff)" height="48" id="tosca.capabilities.Endpoint" style="stroke:#A80036;stroke-width:1.5;" width="202" x="7" y="161"/><ellipse cx="22" cy="177" fill="#008000" rx="11" ry="11" style="stroke:#A80036;stroke-width:1.0;"/><path d="M24.9688,182.6406 Q24.3906,182.9375 23.75,183.0781 Q23.1094,183.2344 22.4063,183.2344 Q19.9063,183.2344 18.5781,181.5938 Q17.2656,179.9375 17.2656,176.8125 Q17.2656,173.6875 18.5781,172.0313 Q19.9063,170.375 22.4063,170.375 Q23.1094,170.375 23.75,170.5313 Q24.4063,170.6875 24.9688,170.9844 L24.9688,173.7031 Q24.3438,173.125 23.75,172.8594 Q23.1563,172.5781 22.5313,172.5781 Q21.1875,172.5781 20.5,173.6563 Q19.8125,174.7188 19.8125,176.8125 Q19.8125,178.9063 20.5,179.9844 Q21.1875,181.0469 22.5313,181.0469 Q23.1563,181.0469 23.75,180.7813 Q24.3438,180.5 24.9688,179.9219 L24.9688,182.6406 Z " fill="#000000"/><text fill="#000000" font-family="sans-serif" font-size="12" lengthAdjust="spacing" textLength="170" x="36" y="181.1543">tosca.capabilities.Endpoint</text><line style="stroke:#A80036;stroke-width:1.5;" x1="8" x2="208" y1="193" y2="193"/><line style="stroke:#A80036;stroke-width:1.5;" x1="8" x2="208" y1="201" y2="201"/><!--MD5=[092ea08713e9f0a14d7fdee487f2ff56]
class tosca.relationships.ConnectsTo--><rect codeLine="17" fill="#DDDDDD" filter="url(#f1ctaup9shf7ff)" height="48" id="tosca.relationships.ConnectsTo" style="stroke:#A80036;stroke-width:1.5;" width="230" x="388" y="331"/><ellipse cx="403" cy="347" fill="#008000" rx="11" ry="11" style="stroke:#A80036;stroke-width:1.0;"/><path d="M404.2031,347.1406 Q404.5625,347.2188 404.8281,347.5 Q405.1094,347.7656 405.5,348.5469 L407.7344,353 L405.0469,353 L403.5469,349.875 Q403.4844,349.7344 403.375,349.5 Q402.7188,348.1094 401.8281,348.1094 L401.0469,348.1094 L401.0469,353 L398.6094,353 L398.6094,340.6094 L402.1406,340.6094 Q404.5313,340.6094 405.5625,341.4531 Q406.6094,342.2969 406.6094,344.2031 Q406.6094,345.4844 405.9844,346.25 Q405.375,347 404.2031,347.1406 Z M401.0469,342.6719 L401.0469,346.0469 L402.2031,346.0469 Q403.2188,346.0469 403.6406,345.6563 Q404.0781,345.25 404.0781,344.3438 Q404.0781,343.4531 403.6406,343.0625 Q403.2188,342.6719 402.2031,342.6719 L401.0469,342.6719 Z " fill="#000000"/><text fill="#000000" font-family="sans-serif" font-size="12" lengthAdjust="spacing" textLength="198" x="417" y="351.1543">tosca.relationships.ConnectsTo</text><line style="stroke:#A80036;stroke-width:1.5;" x1="389" x2="617" y1="363" y2="363"/><line style="stroke:#A80036;stroke-width:1.5;" x1="389" x2="617" y1="371" y2="371"/><!--MD5=[1853a0883fac7f835550734c2cb05764]
reverse link tosca.nodes.SoftwareComponent to tosca.nodes.SoftwareComponent.Logstash--><path codeLine="3" d="M503,75.26 C503,87.92 503,102.09 503,115.9 " fill="none" id="tosca.nodes.SoftwareComponent-backto-tosca.nodes.SoftwareComponent.Logstash" style="stroke:#A80036;stroke-width:1.0;"/><polygon fill="none" points="496,75.09,503,55.09,510,75.09,496,75.09" style="stroke:#A80036;stroke-width:1.0;"/><!--MD5=[e3c97ea2ee20a41ffcb4efb15882bbd5]
link tosca.capabilities.Endpoint to tosca.nodes.SoftwareComponent.Logstash--><path codeLine="14" d="M209.07,199.6 C228.43,201.85 248.56,203.82 267.5,205 C290.48,206.44 314.7,206.28 338.51,205.16 " fill="none" id="tosca.capabilities.Endpoint-to-tosca.nodes.SoftwareComponent.Logstash" style="stroke:#A80036;stroke-width:1.0;"/><polygon fill="#A80036" points="351.69,204.45,345.4834,200.7788,339.7074,205.0959,345.914,208.7672,351.69,204.45" style="stroke:#A80036;stroke-width:1.0;"/><text fill="#000000" font-family="sans-serif" font-size="13" lengthAdjust="spacing" textLength="24" x="268.5" y="201.0669">app</text><text fill="#000000" font-family="sans-serif" font-size="13" lengthAdjust="spacing" textLength="23" x="216.9851" y="213.2255">1..*</text><!--MD5=[8207411aaeebea9bdaedee05723b2066]
reverse link tosca.nodes.SoftwareComponent.Logstash to tosca.capabilities.Endpoint--><path codeLine="16" d="M338.49,185 C294.64,185 248.55,185 209.21,185 " fill="none" id="tosca.nodes.SoftwareComponent.Logstash-backto-tosca.capabilities.Endpoint" style="stroke:#A80036;stroke-width:1.0;"/><polygon fill="#A80036" points="351.71,185,345.71,181,339.71,185,345.71,189,351.71,185" style="stroke:#A80036;stroke-width:1.0;"/><text fill="#000000" font-family="sans-serif" font-size="13" lengthAdjust="spacing" textLength="106" x="227.5" y="178.0669">search_endpoint</text><text fill="#000000" font-family="sans-serif" font-size="13" lengthAdjust="spacing" textLength="8" x="216.9364" y="181.521">1</text><!--MD5=[a396073e86a78d64b902be052119a361]
link tosca.nodes.SoftwareComponent.Logstash to tosca.relationships.ConnectsTo--><path codeLine="18" d="M503,254.33 C503,279.24 503,306.06 503,325.6 " fill="none" id="tosca.nodes.SoftwareComponent.Logstash-to-tosca.relationships.ConnectsTo" style="stroke:#A80036;stroke-width:1.0;stroke-dasharray:7.0,7.0;"/><polygon fill="#A80036" points="503,330.9,507,321.9,503,325.9,499,321.9,503,330.9" style="stroke:#A80036;stroke-width:1.0;"/><text fill="#000000" font-family="sans-serif" font-size="13" lengthAdjust="spacing" textLength="184" x="504" y="297.0669">search_endpoint.relationship</text><!--MD5=[fb88f32094f5f79566f5dbbd9e2084a4]
@startuml
set namespaceSeparator none
class "tosca.nodes.SoftwareComponent" << (N,green) >> #DDDDDD
"tosca.nodes.SoftwareComponent" <|- - "tosca.nodes.SoftwareComponent.Logstash"
class "tosca.nodes.SoftwareComponent.Logstash" << (N,green) >> {
.. capabilities ..
+app
 type : tosca.capabilities.Endpoint[1..*]
.. requirements ..
+<b>search_endpoint
 capability : tosca.capabilities.Endpoint[1]
 relationship : tosca.relationships.ConnectsTo
}
class "tosca.capabilities.Endpoint" << (C,green) >> #DDDDDD
"tosca.capabilities.Endpoint" "1..*" -* "tosca.nodes.SoftwareComponent.Logstash" : app
class "tosca.capabilities.Endpoint" << (C,green) >> #DDDDDD
"tosca.nodes.SoftwareComponent.Logstash" *- "1" "tosca.capabilities.Endpoint" : search_endpoint
class "tosca.relationships.ConnectsTo" << (R,green) >> #DDDDDD
"tosca.nodes.SoftwareComponent.Logstash" ..> "tosca.relationships.ConnectsTo" : search_endpoint.relationship
@enduml

PlantUML version 1.2021.13(Mon Nov 01 11:38:45 GMT 2021)
(GPL source distribution)
Java Runtime: OpenJDK Runtime Environment
JVM: OpenJDK 64-Bit Server VM
Default Encoding: UTF-8
Language: en
Country: US
--></g></svg>