<?xml version="1.0" encoding="UTF-8" standalone="no"?><svg xmlns="http://www.w3.org/2000/svg" xmlns:xlink="http://www.w3.org/1999/xlink" contentScriptType="application/ecmascript" contentStyleType="text/css" height="418px" preserveAspectRatio="none" style="width:979px;height:418px;background:#FFFFFF;" version="1.1" viewBox="0 0 979 418" width="979px" zoomAndPan="magnify"><defs><filter height="300%" id="f94cs8no0ynn7" width="300%" x="-1" y="-1"><feGaussianBlur result="blurOut" stdDeviation="2.0"/><feColorMatrix in="blurOut" result="blurOut2" type="matrix" values="0 0 0 0 0 0 0 0 0 0 0 0 0 0 0 0 0 0 .4 0"/><feOffset dx="4.0" dy="4.0" in="blurOut2" result="blurOut3"/><feBlend in="SourceGraphic" in2="blurOut3" mode="normal"/></filter></defs><g><!--MD5=[aef7b1ac43848ba07abf53178214acf0]
cluster node_app_server--><polygon fill="#FFFFFF" filter="url(#f94cs8no0ynn7)" points="16,16,26,6,770,6,770,117,760,127,16,127,16,16" style="stroke:#000000;stroke-width:1.5;"/><line style="stroke:#000000;stroke-width:1.5;" x1="760" x2="770" y1="16" y2="6"/><line style="stroke:#000000;stroke-width:1.5;" x1="16" x2="760" y1="16" y2="16"/><line style="stroke:#000000;stroke-width:1.5;" x1="760" x2="760" y1="16" y2="127"/><text fill="#000000" font-family="sans-serif" font-size="14" font-weight="bold" lengthAdjust="spacing" textLength="150" x="314" y="32.5352">app_server: Compute</text><!--MD5=[3c008ac75c561fdf0b5bb730c5548239]
cluster node_nodejs--><rect fill="#FFFFFF" filter="url(#f94cs8no0ynn7)" height="81" style="stroke:#000000;stroke-width:1.5;" width="304" x="458" y="38"/><rect fill="#FFFFFF" height="10" style="stroke:#000000;stroke-width:1.5;" width="15" x="742" y="43"/><rect fill="#FFFFFF" height="2" style="stroke:#000000;stroke-width:1.5;" width="4" x="740" y="45"/><rect fill="#FFFFFF" height="2" style="stroke:#000000;stroke-width:1.5;" width="4" x="740" y="49"/><text fill="#000000" font-family="sans-serif" font-size="14" font-weight="bold" lengthAdjust="spacing" textLength="106" x="557" y="64.5352">nodejs: Nodejs</text><!--MD5=[f861c49d143d98d9cfab58c4a95b4d0f]
cluster node_mongo_server--><polygon fill="#FFFFFF" filter="url(#f94cs8no0ynn7)" points="455,176,465,166,705,166,705,276,695,286,455,286,455,176" style="stroke:#000000;stroke-width:1.5;"/><line style="stroke:#000000;stroke-width:1.5;" x1="695" x2="705" y1="176" y2="166"/><line style="stroke:#000000;stroke-width:1.5;" x1="455" x2="695" y1="176" y2="176"/><line style="stroke:#000000;stroke-width:1.5;" x1="695" x2="695" y1="176" y2="286"/><text fill="#000000" font-family="sans-serif" font-size="14" font-weight="bold" lengthAdjust="spacing" textLength="174" x="489" y="192.5352">mongo_server: Compute</text><!--MD5=[bc019c133b565f4b0d758b989701ca2a]
cluster node_mongo_dbms--><rect fill="#FFFFFF" filter="url(#f94cs8no0ynn7)" height="80" style="stroke:#000000;stroke-width:1.5;" width="182" x="514" y="198"/><rect fill="#FFFFFF" height="10" style="stroke:#000000;stroke-width:1.5;" width="15" x="676" y="203"/><rect fill="#FFFFFF" height="2" style="stroke:#000000;stroke-width:1.5;" width="4" x="674" y="205"/><rect fill="#FFFFFF" height="2" style="stroke:#000000;stroke-width:1.5;" width="4" x="674" y="209"/><text fill="#000000" font-family="sans-serif" font-size="14" font-weight="bold" lengthAdjust="spacing" textLength="146" x="532" y="224.5352">mongo_dbms: DBMS</text><!--MD5=[330107d6c63c8dedd2132eecc0db43ea]
cluster node_elasticsearch_server--><polygon fill="#FFFFFF" filter="url(#f94cs8no0ynn7)" points="417,335.5,427,325.5,710,325.5,710,401.5,700,411.5,417,411.5,417,335.5" style="stroke:#000000;stroke-width:1.5;"/><line style="stroke:#000000;stroke-width:1.5;" x1="700" x2="710" y1="335.5" y2="325.5"/><line style="stroke:#000000;stroke-width:1.5;" x1="417" x2="700" y1="335.5" y2="335.5"/><line style="stroke:#000000;stroke-width:1.5;" x1="700" x2="700" y1="335.5" y2="411.5"/><text fill="#000000" font-family="sans-serif" font-size="14" font-weight="bold" lengthAdjust="spacing" textLength="217" x="451" y="352.0352">elasticsearch_server: Compute</text><!--MD5=[bd2683ab0d3978e1cb73e928f9c85d2e]
cluster node_logstash_server--><polygon fill="#FFFFFF" filter="url(#f94cs8no0ynn7)" points="180,202.5,190,192.5,442,192.5,442,268.5,432,278.5,180,278.5,180,202.5" style="stroke:#000000;stroke-width:1.5;"/><line style="stroke:#000000;stroke-width:1.5;" x1="432" x2="442" y1="202.5" y2="192.5"/><line style="stroke:#000000;stroke-width:1.5;" x1="180" x2="432" y1="202.5" y2="202.5"/><line style="stroke:#000000;stroke-width:1.5;" x1="432" x2="432" y1="202.5" y2="278.5"/><text fill="#000000" font-family="sans-serif" font-size="14" font-weight="bold" lengthAdjust="spacing" textLength="186" x="214" y="219.0352">logstash_server: Compute</text><!--MD5=[1bd8deb675f9dba50572ae2375952856]
cluster node_kibana_server--><polygon fill="#FFFFFF" filter="url(#f94cs8no0ynn7)" points="714,202.5,724,192.5,962,192.5,962,268.5,952,278.5,714,278.5,714,202.5" style="stroke:#000000;stroke-width:1.5;"/><line style="stroke:#000000;stroke-width:1.5;" x1="952" x2="962" y1="202.5" y2="192.5"/><line style="stroke:#000000;stroke-width:1.5;" x1="714" x2="952" y1="202.5" y2="202.5"/><line style="stroke:#000000;stroke-width:1.5;" x1="952" x2="952" y1="202.5" y2="278.5"/><text fill="#000000" font-family="sans-serif" font-size="14" font-weight="bold" lengthAdjust="spacing" textLength="172" x="748" y="219.0352">kibana_server: Compute</text><!--MD5=[4670fa0f9472480e74acd537be8ababa]
entity node_app_collectd--><rect fill="#FEFECE" filter="url(#f94cs8no0ynn7)" height="46.4883" style="stroke:#A80036;stroke-width:1.5;" width="190" x="24" y="65"/><rect fill="#FEFECE" height="10" style="stroke:#A80036;stroke-width:1.5;" width="15" x="194" y="70"/><rect fill="#FEFECE" height="2" style="stroke:#A80036;stroke-width:1.5;" width="4" x="192" y="72"/><rect fill="#FEFECE" height="2" style="stroke:#A80036;stroke-width:1.5;" width="4" x="192" y="76"/><text fill="#000000" font-family="sans-serif" font-size="14" lengthAdjust="spacing" textLength="150" x="39" y="98.5352">app_collectd: Collectd</text><!--MD5=[7bf4d286940a6f40270749da5dac4fc5]
entity node_app_rsyslog--><rect fill="#FEFECE" filter="url(#f94cs8no0ynn7)" height="46.4883" style="stroke:#A80036;stroke-width:1.5;" width="182" x="249" y="65"/><rect fill="#FEFECE" height="10" style="stroke:#A80036;stroke-width:1.5;" width="15" x="411" y="70"/><rect fill="#FEFECE" height="2" style="stroke:#A80036;stroke-width:1.5;" width="4" x="409" y="72"/><rect fill="#FEFECE" height="2" style="stroke:#A80036;stroke-width:1.5;" width="4" x="409" y="76"/><text fill="#000000" font-family="sans-serif" font-size="14" lengthAdjust="spacing" textLength="142" x="264" y="98.5352">app_rsyslog: Rsyslog</text><!--MD5=[2c6c29e92a09fe16b7b193636501bf93]
entity node_paypal_pizzastore--><rect fill="#FEFECE" filter="url(#f94cs8no0ynn7)" height="46.4883" style="stroke:#A80036;stroke-width:1.5;" width="287" x="466.5" y="65"/><rect fill="#FEFECE" height="10" style="stroke:#A80036;stroke-width:1.5;" width="15" x="733.5" y="70"/><rect fill="#FEFECE" height="2" style="stroke:#A80036;stroke-width:1.5;" width="4" x="731.5" y="72"/><rect fill="#FEFECE" height="2" style="stroke:#A80036;stroke-width:1.5;" width="4" x="731.5" y="76"/><text fill="#000000" font-family="sans-serif" font-size="14" lengthAdjust="spacing" textLength="247" x="481.5" y="98.5352">paypal_pizzastore: PayPalPizzaStore</text><!--MD5=[f061c2c6e255e94ec5d9f11b5494521f]
entity node_mongo_db--><path d="M522.5,235 C522.5,225 605,225 605,225 C605,225 687.5,225 687.5,235 L687.5,260.4883 C687.5,270.4883 605,270.4883 605,270.4883 C605,270.4883 522.5,270.4883 522.5,260.4883 L522.5,235 " fill="#FEFECE" filter="url(#f94cs8no0ynn7)" style="stroke:#000000;stroke-width:1.5;"/><path d="M522.5,235 C522.5,245 605,245 605,245 C605,245 687.5,245 687.5,235 " fill="none" style="stroke:#000000;stroke-width:1.5;"/><text fill="#000000" font-family="sans-serif" font-size="14" lengthAdjust="spacing" textLength="145" x="532.5" y="262.5352">mongo_db: Database</text><!--MD5=[411666eb0c53359d6e262e4e7dca7829]
entity node_elasticsearch--><rect fill="#FEFECE" filter="url(#f94cs8no0ynn7)" height="46.4883" style="stroke:#A80036;stroke-width:1.5;" width="224" x="451" y="357.5"/><rect fill="#FEFECE" height="10" style="stroke:#A80036;stroke-width:1.5;" width="15" x="655" y="362.5"/><rect fill="#FEFECE" height="2" style="stroke:#A80036;stroke-width:1.5;" width="4" x="653" y="364.5"/><rect fill="#FEFECE" height="2" style="stroke:#A80036;stroke-width:1.5;" width="4" x="653" y="368.5"/><text fill="#000000" font-family="sans-serif" font-size="14" lengthAdjust="spacing" textLength="184" x="466" y="391.0352">elasticsearch: Elasticsearch</text><!--MD5=[54160df6c9c1a67cadd66b3e5577b24d]
entity node_logstash--><rect fill="#FEFECE" filter="url(#f94cs8no0ynn7)" height="46.4883" style="stroke:#A80036;stroke-width:1.5;" width="167" x="256.5" y="224.5"/><rect fill="#FEFECE" height="10" style="stroke:#A80036;stroke-width:1.5;" width="15" x="403.5" y="229.5"/><rect fill="#FEFECE" height="2" style="stroke:#A80036;stroke-width:1.5;" width="4" x="401.5" y="231.5"/><rect fill="#FEFECE" height="2" style="stroke:#A80036;stroke-width:1.5;" width="4" x="401.5" y="235.5"/><text fill="#000000" font-family="sans-serif" font-size="14" lengthAdjust="spacing" textLength="127" x="271.5" y="258.0352">logstash: Logstash</text><!--MD5=[b5e4591e5a4015e25c36733dd8be80d9]
entity node_kibana--><rect fill="#FEFECE" filter="url(#f94cs8no0ynn7)" height="46.4883" style="stroke:#A80036;stroke-width:1.5;" width="141" x="722.5" y="224.5"/><rect fill="#FEFECE" height="10" style="stroke:#A80036;stroke-width:1.5;" width="15" x="843.5" y="229.5"/><rect fill="#FEFECE" height="2" style="stroke:#A80036;stroke-width:1.5;" width="4" x="841.5" y="231.5"/><rect fill="#FEFECE" height="2" style="stroke:#A80036;stroke-width:1.5;" width="4" x="841.5" y="235.5"/><text fill="#000000" font-family="sans-serif" font-size="14" lengthAdjust="spacing" textLength="101" x="737.5" y="258.0352">kibana: Kibana</text><!--MD5=[d1eff2dca38477514a15322daa1e984f]
link node_paypal_pizzastore to node_mongo_db--><path codeLine="25" d="M609.273,111.1927 C608.3717,139.9424 606.8371,188.8956 605.8731,219.6486 " fill="none" id="node_paypal_pizzastore-to-node_mongo_db" style="stroke:#A80036;stroke-width:1.0;stroke-dasharray:7.0,7.0;"/><polygon fill="#A80036" points="605.7117,224.7958,609.9918,215.9256,605.8684,219.7983,601.9957,215.6749,605.7117,224.7958" style="stroke:#A80036;stroke-width:1.0;"/><text fill="#000000" font-family="sans-serif" font-size="13" lengthAdjust="spacing" textLength="87" x="609" y="154.5684">«DependsOn»</text><!--MD5=[2bb188752758e48813c671545a3ad0e3]
link node_logstash to node_elasticsearch--><path codeLine="26" d="M378.5891,270.515 C417.9195,293.9722 478.8032,330.2839 519.7423,354.7005 " fill="none" id="node_logstash-to-node_elasticsearch" style="stroke:#A80036;stroke-width:1.0;stroke-dasharray:7.0,7.0;"/><polygon fill="#A80036" points="524.136,357.321,518.4552,349.2756,519.8417,354.7599,514.3574,356.1464,524.136,357.321" style="stroke:#A80036;stroke-width:1.0;"/><text fill="#000000" font-family="sans-serif" font-size="13" lengthAdjust="spacing" textLength="89" x="453" y="314.0684">«ConnectsTo»</text><!--MD5=[357ce41fbdcbfd47d6ecee0a4d517eeb]
link node_kibana to node_elasticsearch--><path codeLine="27" d="M753.1996,270.515 C712.6346,293.9722 649.8398,330.2839 607.6156,354.7005 " fill="none" id="node_kibana-to-node_elasticsearch" style="stroke:#A80036;stroke-width:1.0;stroke-dasharray:7.0,7.0;"/><polygon fill="#A80036" points="603.084,357.321,612.8775,356.2783,607.4124,354.818,608.8727,349.3529,603.084,357.321" style="stroke:#A80036;stroke-width:1.0;"/><text fill="#000000" font-family="sans-serif" font-size="13" lengthAdjust="spacing" textLength="89" x="699" y="314.0684">«ConnectsTo»</text><!--MD5=[159405024d98730f04156bb042ec1020]
link node_app_collectd to node_logstash--><path codeLine="28" d="M151.1353,111.1927 C191.6442,140.4287 261.1018,190.5576 303.5503,221.1935 " fill="none" id="node_app_collectd-to-node_logstash" style="stroke:#A80036;stroke-width:1.0;stroke-dasharray:7.0,7.0;"/><polygon fill="#A80036" points="307.8259,224.2793,302.8691,215.7687,303.7716,221.3531,298.1872,222.2557,307.8259,224.2793" style="stroke:#A80036;stroke-width:1.0;"/><text fill="#000000" font-family="sans-serif" font-size="13" lengthAdjust="spacing" textLength="89" x="211" y="154.5684">«ConnectsTo»</text><!--MD5=[7d974ff9459ce6a9fad85605ff5277e2]
link node_app_rsyslog to node_logstash--><path codeLine="29" d="M340,111.1927 C340,139.779 340,188.34 340,219.1227 " fill="none" id="node_app_rsyslog-to-node_logstash" style="stroke:#A80036;stroke-width:1.0;stroke-dasharray:7.0,7.0;"/><polygon fill="#A80036" points="340,224.2793,344,215.2793,340,219.2793,336,215.2793,340,224.2793" style="stroke:#A80036;stroke-width:1.0;"/><text fill="#000000" font-family="sans-serif" font-size="13" lengthAdjust="spacing" textLength="89" x="341" y="154.5684">«ConnectsTo»</text><!--MD5=[21029f595902473512254e9a6604505f]
@startuml
skinparam componentStyle uml2
allowmixing

node "app_server: Compute" as node_app_server {
component "nodejs: Nodejs" as node_nodejs {
component "paypal_pizzastore: PayPalPizzaStore" as node_paypal_pizzastore
}
component "app_collectd: Collectd" as node_app_collectd
component "app_rsyslog: Rsyslog" as node_app_rsyslog
}
node "mongo_server: Compute" as node_mongo_server {
component "mongo_dbms: DBMS" as node_mongo_dbms {
database "mongo_db: Database" as node_mongo_db
}
}
node "elasticsearch_server: Compute" as node_elasticsearch_server {
component "elasticsearch: Elasticsearch" as node_elasticsearch
}
node "logstash_server: Compute" as node_logstash_server {
component "logstash: Logstash" as node_logstash
}
node "kibana_server: Compute" as node_kibana_server {
component "kibana: Kibana" as node_kibana
}
node_paypal_pizzastore ..> node_mongo_db : <<DependsOn>>
node_logstash ..> node_elasticsearch : <<ConnectsTo>>
node_kibana ..> node_elasticsearch : <<ConnectsTo>>
node_app_collectd ..> node_logstash : <<ConnectsTo>>
node_app_rsyslog ..> node_logstash : <<ConnectsTo>>
@enduml

PlantUML version 1.2021.13(Mon Nov 01 12:38:45 CET 2021)
(GPL source distribution)
Java Runtime: Java(TM) SE Runtime Environment
JVM: Java HotSpot(TM) 64-Bit Server VM
Default Encoding: UTF-8
Language: fr
Country: FR
--></g></svg>