<?xml version="1.0" encoding="UTF-8" standalone="no"?><svg xmlns="http://www.w3.org/2000/svg" xmlns:xlink="http://www.w3.org/1999/xlink" contentScriptType="application/ecmascript" contentStyleType="text/css" height="265px" preserveAspectRatio="none" style="width:709px;height:265px;background:#FFFFFF;" version="1.1" viewBox="0 0 709 265" width="709px" zoomAndPan="magnify"><defs><filter height="300%" id="f7prjvii11ldc" width="300%" x="-1" y="-1"><feGaussianBlur result="blurOut" stdDeviation="2.0"/><feColorMatrix in="blurOut" result="blurOut2" type="matrix" values="0 0 0 0 0 0 0 0 0 0 0 0 0 0 0 0 0 0 .4 0"/><feOffset dx="4.0" dy="4.0" in="blurOut2" result="blurOut3"/><feBlend in="SourceGraphic" in2="blurOut3" mode="normal"/></filter></defs><g><!--MD5=[fe3463be6c4239935f06e0ae4bdadaa4]
entity node_my_server--><polygon fill="#FEFECE" filter="url(#f7prjvii11ldc)" points="264,16,274,6,444,6,444,42.4883,434,52.4883,264,52.4883,264,16" style="stroke:#000000;stroke-width:1.5;"/><line style="stroke:#000000;stroke-width:1.5;" x1="434" x2="444" y1="16" y2="6"/><line style="stroke:#000000;stroke-width:1.5;" x1="264" x2="434" y1="16" y2="16"/><line style="stroke:#000000;stroke-width:1.5;" x1="434" x2="434" y1="16" y2="52.4883"/><text fill="#000000" font-family="sans-serif" font-size="14" lengthAdjust="spacing" textLength="140" x="279" y="39.5352">my_server: Compute</text><!--MD5=[36ec2fbda5f45778ba0c0cb9e210830b]
entity node_my_network1--><path d="M33.5,232 L200.5,232 C205.5,232 205.5,245.2441 205.5,245.2441 C205.5,245.2441 205.5,258.4883 200.5,258.4883 L33.5,258.4883 C28.5,258.4883 28.5,245.2441 28.5,245.2441 C28.5,245.2441 28.5,232 33.5,232 " fill="#FEFECE" filter="url(#f7prjvii11ldc)" style="stroke:#A80036;stroke-width:1.5;"/><path d="M200.5,232 C195.5,232 195.5,245.2441 195.5,245.2441 C195.5,258.4883 200.5,258.4883 200.5,258.4883 " fill="none" style="stroke:#A80036;stroke-width:1.5;"/><text fill="#000000" font-family="sans-serif" font-size="14" lengthAdjust="spacing" textLength="157" x="33.5" y="250.5352">my_network1: Network</text><!--MD5=[53b34701df274c2c7884570941009790]
entity node_my_network2--><path d="M270.5,232 L437.5,232 C442.5,232 442.5,245.2441 442.5,245.2441 C442.5,245.2441 442.5,258.4883 437.5,258.4883 L270.5,258.4883 C265.5,258.4883 265.5,245.2441 265.5,245.2441 C265.5,245.2441 265.5,232 270.5,232 " fill="#FEFECE" filter="url(#f7prjvii11ldc)" style="stroke:#A80036;stroke-width:1.5;"/><path d="M437.5,232 C432.5,232 432.5,245.2441 432.5,245.2441 C432.5,258.4883 437.5,258.4883 437.5,258.4883 " fill="none" style="stroke:#A80036;stroke-width:1.5;"/><text fill="#000000" font-family="sans-serif" font-size="14" lengthAdjust="spacing" textLength="157" x="270.5" y="250.5352">my_network2: Network</text><!--MD5=[ed5379dbe8bd802e505fdb896a86580d]
entity node_my_network3--><path d="M507.5,232 L674.5,232 C679.5,232 679.5,245.2441 679.5,245.2441 C679.5,245.2441 679.5,258.4883 674.5,258.4883 L507.5,258.4883 C502.5,258.4883 502.5,245.2441 502.5,245.2441 C502.5,245.2441 502.5,232 507.5,232 " fill="#FEFECE" filter="url(#f7prjvii11ldc)" style="stroke:#A80036;stroke-width:1.5;"/><path d="M674.5,232 C669.5,232 669.5,245.2441 669.5,245.2441 C669.5,258.4883 674.5,258.4883 674.5,258.4883 " fill="none" style="stroke:#A80036;stroke-width:1.5;"/><text fill="#000000" font-family="sans-serif" font-size="14" lengthAdjust="spacing" textLength="157" x="507.5" y="250.5352">my_network3: Network</text><!--MD5=[121d01e5e11f671bd21af4c6d31659b0]
entity node_my_port1--><polygon fill="#FEFECE" filter="url(#f7prjvii11ldc)" points="218,142,167.5,129,66.5,129,16,142,66.5,155,167.5,155,218,142" style="stroke:#000000;stroke-width:1.5;"/><text fill="#000000" font-family="sans-serif" font-size="14" lengthAdjust="spacing" textLength="101" x="66.5" y="147.5352">my_port1: Port</text><!--MD5=[379a17b7446891a65668f3bee0fc14b6]
entity node_my_port2--><polygon fill="#FEFECE" filter="url(#f7prjvii11ldc)" points="455,142,404.5,129,303.5,129,253,142,303.5,155,404.5,155,455,142" style="stroke:#000000;stroke-width:1.5;"/><text fill="#000000" font-family="sans-serif" font-size="14" lengthAdjust="spacing" textLength="101" x="303.5" y="147.5352">my_port2: Port</text><!--MD5=[f0090794ca2941d71fcd027b28e08a44]
entity node_my_port3--><polygon fill="#FEFECE" filter="url(#f7prjvii11ldc)" points="692,142,641.5,129,540.5,129,490,142,540.5,155,641.5,155,692,142" style="stroke:#000000;stroke-width:1.5;"/><text fill="#000000" font-family="sans-serif" font-size="14" lengthAdjust="spacing" textLength="101" x="540.5" y="147.5352">my_port3: Port</text><!--MD5=[15f7ab2daef7b9bc029bcb3dcf6545c2]
reverse link node_my_server to node_my_port1--><path codeLine="11" d="M301.1283,54.2089 C252.6208,77.3369 182.6832,110.6827 144.476,128.8996 " fill="none" id="node_my_server-backto-node_my_port1" style="stroke:#A80036;stroke-width:1.0;stroke-dasharray:7.0,7.0;"/><polygon fill="#A80036" points="305.7538,52.0034,295.9085,52.2664,301.2406,54.1554,299.3516,59.4875,305.7538,52.0034" style="stroke:#A80036;stroke-width:1.0;"/><text fill="#000000" font-family="sans-serif" font-size="13" lengthAdjust="spacing" textLength="64" x="244" y="95.5684">«BindsTo»</text><!--MD5=[37797ddfe22f23900a76388518062664]
link node_my_port1 to node_my_network1--><path codeLine="12" d="M117,155.045 C117,173.1329 117,205.9246 117,226.5243 " fill="none" id="node_my_port1-to-node_my_network1" style="stroke:#A80036;stroke-width:1.0;stroke-dasharray:7.0,7.0;"/><polygon fill="#A80036" points="117,231.7356,121,222.7356,117,226.7356,113,222.7356,117,231.7356" style="stroke:#A80036;stroke-width:1.0;"/><text fill="#000000" font-family="sans-serif" font-size="13" lengthAdjust="spacing" textLength="64" x="118" y="198.5684">«LinksTo»</text><!--MD5=[5662d0a39d7d3ff4207e626c74076b40]
reverse link node_my_server to node_my_port2--><path codeLine="13" d="M354,57.1785 C354,80.06 354,111.3004 354,128.7755 " fill="none" id="node_my_server-backto-node_my_port2" style="stroke:#A80036;stroke-width:1.0;stroke-dasharray:7.0,7.0;"/><polygon fill="#A80036" points="354,52.1399,350,61.1399,354,57.1399,358,61.1399,354,52.1399" style="stroke:#A80036;stroke-width:1.0;"/><text fill="#000000" font-family="sans-serif" font-size="13" lengthAdjust="spacing" textLength="64" x="355" y="95.5684">«BindsTo»</text><!--MD5=[7b837684abc590a18e187c83d950d539]
link node_my_port2 to node_my_network2--><path codeLine="14" d="M354,155.045 C354,173.1329 354,205.9246 354,226.5243 " fill="none" id="node_my_port2-to-node_my_network2" style="stroke:#A80036;stroke-width:1.0;stroke-dasharray:7.0,7.0;"/><polygon fill="#A80036" points="354,231.7356,358,222.7356,354,226.7356,350,222.7356,354,231.7356" style="stroke:#A80036;stroke-width:1.0;"/><text fill="#000000" font-family="sans-serif" font-size="13" lengthAdjust="spacing" textLength="64" x="355" y="198.5684">«LinksTo»</text><!--MD5=[42891b6a0ef511c9f5bfa9a899d6da54]
reverse link node_my_server to node_my_port3--><path codeLine="15" d="M406.8717,54.2089 C455.3792,77.3369 525.3168,110.6827 563.524,128.8996 " fill="none" id="node_my_server-backto-node_my_port3" style="stroke:#A80036;stroke-width:1.0;stroke-dasharray:7.0,7.0;"/><polygon fill="#A80036" points="402.2462,52.0034,408.6484,59.4875,406.7594,54.1554,412.0915,52.2664,402.2462,52.0034" style="stroke:#A80036;stroke-width:1.0;"/><text fill="#000000" font-family="sans-serif" font-size="13" lengthAdjust="spacing" textLength="64" x="501" y="95.5684">«BindsTo»</text><!--MD5=[5949df15127a6f331a80c3919fee6fa1]
link node_my_port3 to node_my_network3--><path codeLine="16" d="M591,155.045 C591,173.1329 591,205.9246 591,226.5243 " fill="none" id="node_my_port3-to-node_my_network3" style="stroke:#A80036;stroke-width:1.0;stroke-dasharray:7.0,7.0;"/><polygon fill="#A80036" points="591,231.7356,595,222.7356,591,226.7356,587,222.7356,591,231.7356" style="stroke:#A80036;stroke-width:1.0;"/><text fill="#000000" font-family="sans-serif" font-size="13" lengthAdjust="spacing" textLength="64" x="592" y="198.5684">«LinksTo»</text><!--MD5=[7bff0a0da6e59120a29f744e44e590b6]
@startuml
skinparam componentStyle uml2
allowmixing

node "my_server: Compute" as node_my_server
queue "my_network1: Network" as node_my_network1
queue "my_network2: Network" as node_my_network2
queue "my_network3: Network" as node_my_network3
hexagon "my_port1: Port" as node_my_port1
hexagon "my_port2: Port" as node_my_port2
hexagon "my_port3: Port" as node_my_port3
node_my_port1 .up.> node_my_server : <<BindsTo>>
node_my_port1 ..> node_my_network1 : <<LinksTo>>
node_my_port2 .up.> node_my_server : <<BindsTo>>
node_my_port2 ..> node_my_network2 : <<LinksTo>>
node_my_port3 .up.> node_my_server : <<BindsTo>>
node_my_port3 ..> node_my_network3 : <<LinksTo>>
@enduml

PlantUML version 1.2021.13(Mon Nov 01 12:38:45 CET 2021)
(GPL source distribution)
Java Runtime: Java(TM) SE Runtime Environment
JVM: Java HotSpot(TM) 64-Bit Server VM
Default Encoding: UTF-8
Language: fr
Country: FR
--></g></svg>