<?xml version="1.0" encoding="UTF-8" standalone="no"?><svg xmlns="http://www.w3.org/2000/svg" xmlns:xlink="http://www.w3.org/1999/xlink" contentScriptType="application/ecmascript" contentStyleType="text/css" height="265px" preserveAspectRatio="none" style="width:454px;height:265px;background:#FFFFFF;" version="1.1" viewBox="0 0 454 265" width="454px" zoomAndPan="magnify"><defs><filter height="300%" id="f1ehmrklo8l71x" width="300%" x="-1" y="-1"><feGaussianBlur result="blurOut" stdDeviation="2.0"/><feColorMatrix in="blurOut" result="blurOut2" type="matrix" values="0 0 0 0 0 0 0 0 0 0 0 0 0 0 0 0 0 0 .4 0"/><feOffset dx="4.0" dy="4.0" in="blurOut2" result="blurOut3"/><feBlend in="SourceGraphic" in2="blurOut3" mode="normal"/></filter></defs><g><!--MD5=[fe3463be6c4239935f06e0ae4bdadaa4]
entity node_my_server--><polygon fill="#FEFECE" filter="url(#f1ehmrklo8l71x)" points="253.5,16,263.5,6,436.5,6,436.5,42.2969,426.5,52.2969,253.5,52.2969,253.5,16" style="stroke:#000000;stroke-width:1.5;"/><line style="stroke:#000000;stroke-width:1.5;" x1="426.5" x2="436.5" y1="16" y2="6"/><line style="stroke:#000000;stroke-width:1.5;" x1="253.5" x2="426.5" y1="16" y2="16"/><line style="stroke:#000000;stroke-width:1.5;" x1="426.5" x2="426.5" y1="16" y2="52.2969"/><text fill="#000000" font-family="sans-serif" font-size="14" lengthAdjust="spacing" textLength="143" x="268.5" y="38.9951">my_server: Compute</text><!--MD5=[a4234fec20473da3d5886e3d21bb51b4]
entity node_my_server2--><polygon fill="#FEFECE" filter="url(#f1ehmrklo8l71x)" points="21,16,31,6,213,6,213,42.2969,203,52.2969,21,52.2969,21,16" style="stroke:#000000;stroke-width:1.5;"/><line style="stroke:#000000;stroke-width:1.5;" x1="203" x2="213" y1="16" y2="6"/><line style="stroke:#000000;stroke-width:1.5;" x1="21" x2="203" y1="16" y2="16"/><line style="stroke:#000000;stroke-width:1.5;" x1="203" x2="203" y1="16" y2="52.2969"/><text fill="#000000" font-family="sans-serif" font-size="14" lengthAdjust="spacing" textLength="152" x="36" y="38.9951">my_server2: Compute</text><!--MD5=[b2f9a86e64ab3d0701cf9e854d27d8b4]
entity node_my_network--><path d="M150.5,232 L309.5,232 C314.5,232 314.5,245.1484 314.5,245.1484 C314.5,245.1484 314.5,258.2969 309.5,258.2969 L150.5,258.2969 C145.5,258.2969 145.5,245.1484 145.5,245.1484 C145.5,245.1484 145.5,232 150.5,232 " fill="#FEFECE" filter="url(#f1ehmrklo8l71x)" style="stroke:#A80036;stroke-width:1.5;"/><path d="M309.5,232 C304.5,232 304.5,245.1484 304.5,245.1484 C304.5,258.2969 309.5,258.2969 309.5,258.2969 " fill="none" style="stroke:#A80036;stroke-width:1.5;"/><text fill="#000000" font-family="sans-serif" font-size="14" lengthAdjust="spacing" textLength="149" x="150.5" y="249.9951">my_network: Network</text><!--MD5=[25b625329a573b90fb5f3840b78aa77f]
entity node_my_port--><polygon fill="#FEFECE" filter="url(#f1ehmrklo8l71x)" points="437,142,391,129,299,129,253,142,299,155,391,155,437,142" style="stroke:#000000;stroke-width:1.5;"/><text fill="#000000" font-family="sans-serif" font-size="14" lengthAdjust="spacing" textLength="92" x="299" y="146.9951">my_port: Port</text><!--MD5=[379a17b7446891a65668f3bee0fc14b6]
entity node_my_port2--><polygon fill="#FEFECE" filter="url(#f1ehmrklo8l71x)" points="218,142,167.5,129,66.5,129,16,142,66.5,155,167.5,155,218,142" style="stroke:#000000;stroke-width:1.5;"/><text fill="#000000" font-family="sans-serif" font-size="14" lengthAdjust="spacing" textLength="101" x="66.5" y="146.9951">my_port2: Port</text><!--MD5=[bd71edd96b4260a361481f64377d3de3]
reverse link node_my_server to node_my_port--><path codeLine="9" d="M345,57.22 C345,80.09 345,111.69 345,128.8 " fill="none" id="node_my_server-backto-node_my_port" style="stroke:#A80036;stroke-width:1.0;stroke-dasharray:7.0,7.0;"/><polygon fill="#A80036" points="345,52.2,341,61.2,345,57.2,349,61.2,345,52.2" style="stroke:#A80036;stroke-width:1.0;"/><text fill="#000000" font-family="sans-serif" font-size="13" lengthAdjust="spacing" textLength="66" x="346" y="95.0669">«BindsTo»</text><!--MD5=[97d0c464a85641d78c889dd5082487e7]
link node_my_port to node_my_network--><path codeLine="10" d="M330.9,155.38 C309.92,173.81 270.52,208.42 247.65,228.5 " fill="none" id="node_my_port-to-node_my_network" style="stroke:#A80036;stroke-width:1.0;stroke-dasharray:7.0,7.0;"/><polygon fill="#A80036" points="243.86,231.83,253.2561,228.8783,247.6104,228.5233,247.9654,222.8776,243.86,231.83" style="stroke:#A80036;stroke-width:1.0;"/><text fill="#000000" font-family="sans-serif" font-size="13" lengthAdjust="spacing" textLength="63" x="296" y="198.0669">«LinksTo»</text><!--MD5=[e8c6f84b3a7ea83ca7792b1177d0af00]
reverse link node_my_server2 to node_my_port2--><path codeLine="11" d="M117,57.22 C117,80.09 117,111.69 117,128.8 " fill="none" id="node_my_server2-backto-node_my_port2" style="stroke:#A80036;stroke-width:1.0;stroke-dasharray:7.0,7.0;"/><polygon fill="#A80036" points="117,52.2,113,61.2,117,57.2,121,61.2,117,52.2" style="stroke:#A80036;stroke-width:1.0;"/><text fill="#000000" font-family="sans-serif" font-size="13" lengthAdjust="spacing" textLength="66" x="118" y="95.0669">«BindsTo»</text><!--MD5=[835311692f9b2b1ab0e0ce3f3283eb27]
link node_my_port2 to node_my_network--><path codeLine="12" d="M130.86,155.38 C151.47,173.81 190.19,208.42 212.65,228.5 " fill="none" id="node_my_port2-to-node_my_network" style="stroke:#A80036;stroke-width:1.0;stroke-dasharray:7.0,7.0;"/><polygon fill="#A80036" points="216.38,231.83,212.3299,222.8524,212.6501,228.5002,207.0023,228.8203,216.38,231.83" style="stroke:#A80036;stroke-width:1.0;"/><text fill="#000000" font-family="sans-serif" font-size="13" lengthAdjust="spacing" textLength="63" x="182" y="198.0669">«LinksTo»</text><!--MD5=[dc3aa938ce4180fe77a4c9d64cd2a777]
@startuml
skinparam componentStyle uml2
allowmixing

node "my_server: Compute" as node_my_server
node "my_server2: Compute" as node_my_server2
queue "my_network: Network" as node_my_network
hexagon "my_port: Port" as node_my_port
hexagon "my_port2: Port" as node_my_port2
node_my_port .up.> node_my_server : <<BindsTo>>
node_my_port ..> node_my_network : <<LinksTo>>
node_my_port2 .up.> node_my_server2 : <<BindsTo>>
node_my_port2 ..> node_my_network : <<LinksTo>>
@enduml

PlantUML version 1.2021.13(Mon Nov 01 11:38:45 GMT 2021)
(GPL source distribution)
Java Runtime: OpenJDK Runtime Environment
JVM: OpenJDK 64-Bit Server VM
Default Encoding: UTF-8
Language: en
Country: US
--></g></svg>