<?xml version="1.0" encoding="UTF-8" standalone="no"?><svg xmlns="http://www.w3.org/2000/svg" xmlns:xlink="http://www.w3.org/1999/xlink" contentScriptType="application/ecmascript" contentStyleType="text/css" height="265px" preserveAspectRatio="none" style="width:217px;height:265px;background:#FFFFFF;" version="1.1" viewBox="0 0 217 265" width="217px" zoomAndPan="magnify"><defs><filter height="300%" id="f50hu45p459u" width="300%" x="-1" y="-1"><feGaussianBlur result="blurOut" stdDeviation="2.0"/><feColorMatrix in="blurOut" result="blurOut2" type="matrix" values="0 0 0 0 0 0 0 0 0 0 0 0 0 0 0 0 0 0 .4 0"/><feOffset dx="4.0" dy="4.0" in="blurOut2" result="blurOut3"/><feBlend in="SourceGraphic" in2="blurOut3" mode="normal"/></filter></defs><g><!--MD5=[fe3463be6c4239935f06e0ae4bdadaa4]
entity node_my_server--><polygon fill="#FEFECE" filter="url(#f50hu45p459u)" points="16.5,16,26.5,6,199.5,6,199.5,42.2969,189.5,52.2969,16.5,52.2969,16.5,16" style="stroke:#000000;stroke-width:1.5;"/><line style="stroke:#000000;stroke-width:1.5;" x1="189.5" x2="199.5" y1="16" y2="6"/><line style="stroke:#000000;stroke-width:1.5;" x1="16.5" x2="189.5" y1="16" y2="16"/><line style="stroke:#000000;stroke-width:1.5;" x1="189.5" x2="189.5" y1="16" y2="52.2969"/><text fill="#000000" font-family="sans-serif" font-size="14" lengthAdjust="spacing" textLength="143" x="31.5" y="38.9951">my_server: Compute</text><!--MD5=[b2f9a86e64ab3d0701cf9e854d27d8b4]
entity node_my_network--><path d="M28.5,232 L187.5,232 C192.5,232 192.5,245.1484 192.5,245.1484 C192.5,245.1484 192.5,258.2969 187.5,258.2969 L28.5,258.2969 C23.5,258.2969 23.5,245.1484 23.5,245.1484 C23.5,245.1484 23.5,232 28.5,232 " fill="#FEFECE" filter="url(#f50hu45p459u)" style="stroke:#A80036;stroke-width:1.5;"/><path d="M187.5,232 C182.5,232 182.5,245.1484 182.5,245.1484 C182.5,258.2969 187.5,258.2969 187.5,258.2969 " fill="none" style="stroke:#A80036;stroke-width:1.5;"/><text fill="#000000" font-family="sans-serif" font-size="14" lengthAdjust="spacing" textLength="149" x="28.5" y="249.9951">my_network: Network</text><!--MD5=[25b625329a573b90fb5f3840b78aa77f]
entity node_my_port--><polygon fill="#FEFECE" filter="url(#f50hu45p459u)" points="200,142,154,129,62,129,16,142,62,155,154,155,200,142" style="stroke:#000000;stroke-width:1.5;"/><text fill="#000000" font-family="sans-serif" font-size="14" lengthAdjust="spacing" textLength="92" x="62" y="146.9951">my_port: Port</text><!--MD5=[bd71edd96b4260a361481f64377d3de3]
reverse link node_my_server to node_my_port--><path codeLine="7" d="M108,57.22 C108,80.09 108,111.69 108,128.8 " fill="none" id="node_my_server-backto-node_my_port" style="stroke:#A80036;stroke-width:1.0;stroke-dasharray:7.0,7.0;"/><polygon fill="#A80036" points="108,52.2,104,61.2,108,57.2,112,61.2,108,52.2" style="stroke:#A80036;stroke-width:1.0;"/><text fill="#000000" font-family="sans-serif" font-size="13" lengthAdjust="spacing" textLength="66" x="109" y="95.0669">«BindsTo»</text><!--MD5=[97d0c464a85641d78c889dd5082487e7]
link node_my_port to node_my_network--><path codeLine="8" d="M108,155.38 C108,173.28 108,206.43 108,226.72 " fill="none" id="node_my_port-to-node_my_network" style="stroke:#A80036;stroke-width:1.0;stroke-dasharray:7.0,7.0;"/><polygon fill="#A80036" points="108,231.83,112,222.83,108,226.83,104,222.83,108,231.83" style="stroke:#A80036;stroke-width:1.0;"/><text fill="#000000" font-family="sans-serif" font-size="13" lengthAdjust="spacing" textLength="63" x="109" y="198.0669">«LinksTo»</text><!--MD5=[2f7f3cedf388dfb78a44d062c691a59d]
@startuml
skinparam componentStyle uml2
allowmixing

node "my_server: Compute" as node_my_server
queue "my_network: Network" as node_my_network
hexagon "my_port: Port" as node_my_port
node_my_port .up.> node_my_server : <<BindsTo>>
node_my_port ..> node_my_network : <<LinksTo>>
@enduml

PlantUML version 1.2021.13(Mon Nov 01 11:38:45 GMT 2021)
(GPL source distribution)
Java Runtime: OpenJDK Runtime Environment
JVM: OpenJDK 64-Bit Server VM
Default Encoding: UTF-8
Language: en
Country: US
--></g></svg>