<?xml version="1.0" encoding="UTF-8" standalone="no"?><svg xmlns="http://www.w3.org/2000/svg" xmlns:xlink="http://www.w3.org/1999/xlink" contentScriptType="application/ecmascript" contentStyleType="text/css" height="265px" preserveAspectRatio="none" style="width:454px;height:265px;background:#FFFFFF;" version="1.1" viewBox="0 0 454 265" width="454px" zoomAndPan="magnify"><defs><filter height="300%" id="f1ehmrklo8l71x" width="300%" x="-1" y="-1"><feGaussianBlur result="blurOut" stdDeviation="2.0"/><feColorMatrix in="blurOut" result="blurOut2" type="matrix" values="0 0 0 0 0 0 0 0 0 0 0 0 0 0 0 0 0 0 .4 0"/><feOffset dx="4.0" dy="4.0" in="blurOut2" result="blurOut3"/><feBlend in="SourceGraphic" in2="blurOut3" mode="normal"/></filter></defs><g><!--MD5=[fe3463be6c4239935f06e0ae4bdadaa4]
entity node_my_server--><polygon fill="#FEFECE" filter="url(#f1ehmrklo8l71x)" points="255,16,265,6,435,6,435,42.4883,425,52.4883,255,52.4883,255,16" style="stroke:#000000;stroke-width:1.5;"/><line style="stroke:#000000;stroke-width:1.5;" x1="425" x2="435" y1="16" y2="6"/><line style="stroke:#000000;stroke-width:1.5;" x1="255" x2="425" y1="16" y2="16"/><line style="stroke:#000000;stroke-width:1.5;" x1="425" x2="425" y1="16" y2="52.4883"/><text fill="#000000" font-family="sans-serif" font-size="14" lengthAdjust="spacing" textLength="140" x="270" y="39.5352">my_server: Compute</text><!--MD5=[a4234fec20473da3d5886e3d21bb51b4]
entity node_my_server2--><polygon fill="#FEFECE" filter="url(#f1ehmrklo8l71x)" points="22.5,16,32.5,6,211.5,6,211.5,42.4883,201.5,52.4883,22.5,52.4883,22.5,16" style="stroke:#000000;stroke-width:1.5;"/><line style="stroke:#000000;stroke-width:1.5;" x1="201.5" x2="211.5" y1="16" y2="6"/><line style="stroke:#000000;stroke-width:1.5;" x1="22.5" x2="201.5" y1="16" y2="16"/><line style="stroke:#000000;stroke-width:1.5;" x1="201.5" x2="201.5" y1="16" y2="52.4883"/><text fill="#000000" font-family="sans-serif" font-size="14" lengthAdjust="spacing" textLength="149" x="37.5" y="39.5352">my_server2: Compute</text><!--MD5=[b2f9a86e64ab3d0701cf9e854d27d8b4]
entity node_my_network--><path d="M152,232 L310,232 C315,232 315,245.2441 315,245.2441 C315,245.2441 315,258.4883 310,258.4883 L152,258.4883 C147,258.4883 147,245.2441 147,245.2441 C147,245.2441 147,232 152,232 " fill="#FEFECE" filter="url(#f1ehmrklo8l71x)" style="stroke:#A80036;stroke-width:1.5;"/><path d="M310,232 C305,232 305,245.2441 305,245.2441 C305,258.4883 310,258.4883 310,258.4883 " fill="none" style="stroke:#A80036;stroke-width:1.5;"/><text fill="#000000" font-family="sans-serif" font-size="14" lengthAdjust="spacing" textLength="148" x="152" y="250.5352">my_network: Network</text><!--MD5=[25b625329a573b90fb5f3840b78aa77f]
entity node_my_port--><polygon fill="#FEFECE" filter="url(#f1ehmrklo8l71x)" points="437,142,391,129,299,129,253,142,299,155,391,155,437,142" style="stroke:#000000;stroke-width:1.5;"/><text fill="#000000" font-family="sans-serif" font-size="14" lengthAdjust="spacing" textLength="92" x="299" y="147.5352">my_port: Port</text><!--MD5=[379a17b7446891a65668f3bee0fc14b6]
entity node_my_port2--><polygon fill="#FEFECE" filter="url(#f1ehmrklo8l71x)" points="218,142,167.5,129,66.5,129,16,142,66.5,155,167.5,155,218,142" style="stroke:#000000;stroke-width:1.5;"/><text fill="#000000" font-family="sans-serif" font-size="14" lengthAdjust="spacing" textLength="101" x="66.5" y="147.5352">my_port2: Port</text><!--MD5=[bd71edd96b4260a361481f64377d3de3]
reverse link node_my_server to node_my_port--><path codeLine="9" d="M345,57.1785 C345,80.06 345,111.3004 345,128.7755 " fill="none" id="node_my_server-backto-node_my_port" style="stroke:#A80036;stroke-width:1.0;stroke-dasharray:7.0,7.0;"/><polygon fill="#A80036" points="345,52.1399,341,61.1399,345,57.1399,349,61.1399,345,52.1399" style="stroke:#A80036;stroke-width:1.0;"/><text fill="#000000" font-family="sans-serif" font-size="13" lengthAdjust="spacing" textLength="64" x="346" y="95.5684">«BindsTo»</text><!--MD5=[97d0c464a85641d78c889dd5082487e7]
link node_my_port to node_my_network--><path codeLine="10" d="M330.5618,155.045 C309.9459,173.6717 272.0719,207.8912 249.4481,228.332 " fill="none" id="node_my_port-to-node_my_network" style="stroke:#A80036;stroke-width:1.0;stroke-dasharray:7.0,7.0;"/><polygon fill="#A80036" points="245.681,231.7356,255.0405,228.6698,249.3909,228.3835,249.6772,222.7339,245.681,231.7356" style="stroke:#A80036;stroke-width:1.0;"/><text fill="#000000" font-family="sans-serif" font-size="13" lengthAdjust="spacing" textLength="64" x="296" y="198.5684">«LinksTo»</text><!--MD5=[e8c6f84b3a7ea83ca7792b1177d0af00]
reverse link node_my_server2 to node_my_port2--><path codeLine="11" d="M117,57.1785 C117,80.06 117,111.3004 117,128.7755 " fill="none" id="node_my_server2-backto-node_my_port2" style="stroke:#A80036;stroke-width:1.0;stroke-dasharray:7.0,7.0;"/><polygon fill="#A80036" points="117,52.1399,113,61.1399,117,57.1399,121,61.1399,117,52.1399" style="stroke:#A80036;stroke-width:1.0;"/><text fill="#000000" font-family="sans-serif" font-size="13" lengthAdjust="spacing" textLength="64" x="118" y="95.5684">«BindsTo»</text><!--MD5=[835311692f9b2b1ab0e0ce3f3283eb27]
link node_my_port2 to node_my_network--><path codeLine="12" d="M131.4382,155.045 C152.0541,173.6717 189.9281,207.8912 212.5519,228.332 " fill="none" id="node_my_port2-to-node_my_network" style="stroke:#A80036;stroke-width:1.0;stroke-dasharray:7.0,7.0;"/><polygon fill="#A80036" points="216.319,231.7356,212.3228,222.7339,212.6091,228.3835,206.9595,228.6698,216.319,231.7356" style="stroke:#A80036;stroke-width:1.0;"/><text fill="#000000" font-family="sans-serif" font-size="13" lengthAdjust="spacing" textLength="64" x="182" y="198.5684">«LinksTo»</text><!--MD5=[86d7c95cd113c3b0c19cc775ae85e139]
@startuml
skinparam componentStyle uml2
allowmixing

node "my_server: Compute" as node_my_server
node "my_server2: Compute" as node_my_server2
queue "my_network: Network" as node_my_network
hexagon "my_port: Port" as node_my_port
hexagon "my_port2: Port" as node_my_port2
node_my_port .up.> node_my_server : <<BindsTo>>
node_my_port ..> node_my_network : <<LinksTo>>
node_my_port2 .up.> node_my_server2 : <<BindsTo>>
node_my_port2 ..> node_my_network : <<LinksTo>>
@enduml

PlantUML version 1.2021.13(Mon Nov 01 12:38:45 CET 2021)
(GPL source distribution)
Java Runtime: Java(TM) SE Runtime Environment
JVM: Java HotSpot(TM) 64-Bit Server VM
Default Encoding: UTF-8
Language: fr
Country: FR
--></g></svg>