<?xml version="1.0" encoding="UTF-8" standalone="no"?><svg xmlns="http://www.w3.org/2000/svg" xmlns:xlink="http://www.w3.org/1999/xlink" contentScriptType="application/ecmascript" contentStyleType="text/css" height="265px" preserveAspectRatio="none" style="width:709px;height:265px;background:#FFFFFF;" version="1.1" viewBox="0 0 709 265" width="709px" zoomAndPan="magnify"><defs><filter height="300%" id="f7prjvii11ldc" width="300%" x="-1" y="-1"><feGaussianBlur result="blurOut" stdDeviation="2.0"/><feColorMatrix in="blurOut" result="blurOut2" type="matrix" values="0 0 0 0 0 0 0 0 0 0 0 0 0 0 0 0 0 0 .4 0"/><feOffset dx="4.0" dy="4.0" in="blurOut2" result="blurOut3"/><feBlend in="SourceGraphic" in2="blurOut3" mode="normal"/></filter></defs><g><!--MD5=[fe3463be6c4239935f06e0ae4bdadaa4]
entity node_my_server--><polygon fill="#FEFECE" filter="url(#f7prjvii11ldc)" points="262.5,16,272.5,6,445.5,6,445.5,42.2969,435.5,52.2969,262.5,52.2969,262.5,16" style="stroke:#000000;stroke-width:1.5;"/><line style="stroke:#000000;stroke-width:1.5;" x1="435.5" x2="445.5" y1="16" y2="6"/><line style="stroke:#000000;stroke-width:1.5;" x1="262.5" x2="435.5" y1="16" y2="16"/><line style="stroke:#000000;stroke-width:1.5;" x1="435.5" x2="435.5" y1="16" y2="52.2969"/><text fill="#000000" font-family="sans-serif" font-size="14" lengthAdjust="spacing" textLength="143" x="277.5" y="38.9951">my_server: Compute</text><!--MD5=[36ec2fbda5f45778ba0c0cb9e210830b]
entity node_my_network1--><path d="M33,232 L201,232 C206,232 206,245.1484 206,245.1484 C206,245.1484 206,258.2969 201,258.2969 L33,258.2969 C28,258.2969 28,245.1484 28,245.1484 C28,245.1484 28,232 33,232 " fill="#FEFECE" filter="url(#f7prjvii11ldc)" style="stroke:#A80036;stroke-width:1.5;"/><path d="M201,232 C196,232 196,245.1484 196,245.1484 C196,258.2969 201,258.2969 201,258.2969 " fill="none" style="stroke:#A80036;stroke-width:1.5;"/><text fill="#000000" font-family="sans-serif" font-size="14" lengthAdjust="spacing" textLength="158" x="33" y="249.9951">my_network1: Network</text><!--MD5=[53b34701df274c2c7884570941009790]
entity node_my_network2--><path d="M270,232 L438,232 C443,232 443,245.1484 443,245.1484 C443,245.1484 443,258.2969 438,258.2969 L270,258.2969 C265,258.2969 265,245.1484 265,245.1484 C265,245.1484 265,232 270,232 " fill="#FEFECE" filter="url(#f7prjvii11ldc)" style="stroke:#A80036;stroke-width:1.5;"/><path d="M438,232 C433,232 433,245.1484 433,245.1484 C433,258.2969 438,258.2969 438,258.2969 " fill="none" style="stroke:#A80036;stroke-width:1.5;"/><text fill="#000000" font-family="sans-serif" font-size="14" lengthAdjust="spacing" textLength="158" x="270" y="249.9951">my_network2: Network</text><!--MD5=[ed5379dbe8bd802e505fdb896a86580d]
entity node_my_network3--><path d="M507,232 L675,232 C680,232 680,245.1484 680,245.1484 C680,245.1484 680,258.2969 675,258.2969 L507,258.2969 C502,258.2969 502,245.1484 502,245.1484 C502,245.1484 502,232 507,232 " fill="#FEFECE" filter="url(#f7prjvii11ldc)" style="stroke:#A80036;stroke-width:1.5;"/><path d="M675,232 C670,232 670,245.1484 670,245.1484 C670,258.2969 675,258.2969 675,258.2969 " fill="none" style="stroke:#A80036;stroke-width:1.5;"/><text fill="#000000" font-family="sans-serif" font-size="14" lengthAdjust="spacing" textLength="158" x="507" y="249.9951">my_network3: Network</text><!--MD5=[121d01e5e11f671bd21af4c6d31659b0]
entity node_my_port1--><polygon fill="#FEFECE" filter="url(#f7prjvii11ldc)" points="218,142,167.5,129,66.5,129,16,142,66.5,155,167.5,155,218,142" style="stroke:#000000;stroke-width:1.5;"/><text fill="#000000" font-family="sans-serif" font-size="14" lengthAdjust="spacing" textLength="101" x="66.5" y="146.9951">my_port1: Port</text><!--MD5=[379a17b7446891a65668f3bee0fc14b6]
entity node_my_port2--><polygon fill="#FEFECE" filter="url(#f7prjvii11ldc)" points="455,142,404.5,129,303.5,129,253,142,303.5,155,404.5,155,455,142" style="stroke:#000000;stroke-width:1.5;"/><text fill="#000000" font-family="sans-serif" font-size="14" lengthAdjust="spacing" textLength="101" x="303.5" y="146.9951">my_port2: Port</text><!--MD5=[f0090794ca2941d71fcd027b28e08a44]
entity node_my_port3--><polygon fill="#FEFECE" filter="url(#f7prjvii11ldc)" points="692,142,641.5,129,540.5,129,490,142,540.5,155,641.5,155,692,142" style="stroke:#000000;stroke-width:1.5;"/><text fill="#000000" font-family="sans-serif" font-size="14" lengthAdjust="spacing" textLength="101" x="540.5" y="146.9951">my_port3: Port</text><!--MD5=[15f7ab2daef7b9bc029bcb3dcf6545c2]
reverse link node_my_server to node_my_port1--><path codeLine="11" d="M302.2,54.26 C252.94,77.33 180.87,111.09 142.79,128.92 " fill="none" id="node_my_server-backto-node_my_port1" style="stroke:#A80036;stroke-width:1.0;stroke-dasharray:7.0,7.0;"/><polygon fill="#A80036" points="306.89,52.06,297.0433,52.2684,302.3649,54.1869,300.4464,59.5085,306.89,52.06" style="stroke:#A80036;stroke-width:1.0;"/><text fill="#000000" font-family="sans-serif" font-size="13" lengthAdjust="spacing" textLength="66" x="244" y="95.0669">«BindsTo»</text><!--MD5=[37797ddfe22f23900a76388518062664]
link node_my_port1 to node_my_network1--><path codeLine="12" d="M117,155.38 C117,173.28 117,206.43 117,226.72 " fill="none" id="node_my_port1-to-node_my_network1" style="stroke:#A80036;stroke-width:1.0;stroke-dasharray:7.0,7.0;"/><polygon fill="#A80036" points="117,231.83,121,222.83,117,226.83,113,222.83,117,231.83" style="stroke:#A80036;stroke-width:1.0;"/><text fill="#000000" font-family="sans-serif" font-size="13" lengthAdjust="spacing" textLength="63" x="118" y="198.0669">«LinksTo»</text><!--MD5=[5662d0a39d7d3ff4207e626c74076b40]
reverse link node_my_server to node_my_port2--><path codeLine="13" d="M354,57.22 C354,80.09 354,111.69 354,128.8 " fill="none" id="node_my_server-backto-node_my_port2" style="stroke:#A80036;stroke-width:1.0;stroke-dasharray:7.0,7.0;"/><polygon fill="#A80036" points="354,52.2,350,61.2,354,57.2,358,61.2,354,52.2" style="stroke:#A80036;stroke-width:1.0;"/><text fill="#000000" font-family="sans-serif" font-size="13" lengthAdjust="spacing" textLength="66" x="355" y="95.0669">«BindsTo»</text><!--MD5=[7b837684abc590a18e187c83d950d539]
link node_my_port2 to node_my_network2--><path codeLine="14" d="M354,155.38 C354,173.28 354,206.43 354,226.72 " fill="none" id="node_my_port2-to-node_my_network2" style="stroke:#A80036;stroke-width:1.0;stroke-dasharray:7.0,7.0;"/><polygon fill="#A80036" points="354,231.83,358,222.83,354,226.83,350,222.83,354,231.83" style="stroke:#A80036;stroke-width:1.0;"/><text fill="#000000" font-family="sans-serif" font-size="13" lengthAdjust="spacing" textLength="63" x="355" y="198.0669">«LinksTo»</text><!--MD5=[42891b6a0ef511c9f5bfa9a899d6da54]
reverse link node_my_server to node_my_port3--><path codeLine="15" d="M405.8,54.26 C455.06,77.33 527.13,111.09 565.21,128.92 " fill="none" id="node_my_server-backto-node_my_port3" style="stroke:#A80036;stroke-width:1.0;stroke-dasharray:7.0,7.0;"/><polygon fill="#A80036" points="401.11,52.06,407.5536,59.5085,405.6351,54.1869,410.9567,52.2684,401.11,52.06" style="stroke:#A80036;stroke-width:1.0;"/><text fill="#000000" font-family="sans-serif" font-size="13" lengthAdjust="spacing" textLength="66" x="502" y="95.0669">«BindsTo»</text><!--MD5=[5949df15127a6f331a80c3919fee6fa1]
link node_my_port3 to node_my_network3--><path codeLine="16" d="M591,155.38 C591,173.28 591,206.43 591,226.72 " fill="none" id="node_my_port3-to-node_my_network3" style="stroke:#A80036;stroke-width:1.0;stroke-dasharray:7.0,7.0;"/><polygon fill="#A80036" points="591,231.83,595,222.83,591,226.83,587,222.83,591,231.83" style="stroke:#A80036;stroke-width:1.0;"/><text fill="#000000" font-family="sans-serif" font-size="13" lengthAdjust="spacing" textLength="63" x="592" y="198.0669">«LinksTo»</text><!--MD5=[c0510ebb95ecc60691111bd1e0abf2cc]
@startuml
skinparam componentStyle uml2
allowmixing

node "my_server: Compute" as node_my_server
queue "my_network1: Network" as node_my_network1
queue "my_network2: Network" as node_my_network2
queue "my_network3: Network" as node_my_network3
hexagon "my_port1: Port" as node_my_port1
hexagon "my_port2: Port" as node_my_port2
hexagon "my_port3: Port" as node_my_port3
node_my_port1 .up.> node_my_server : <<BindsTo>>
node_my_port1 ..> node_my_network1 : <<LinksTo>>
node_my_port2 .up.> node_my_server : <<BindsTo>>
node_my_port2 ..> node_my_network2 : <<LinksTo>>
node_my_port3 .up.> node_my_server : <<BindsTo>>
node_my_port3 ..> node_my_network3 : <<LinksTo>>
@enduml

PlantUML version 1.2021.13(Mon Nov 01 11:38:45 GMT 2021)
(GPL source distribution)
Java Runtime: OpenJDK Runtime Environment
JVM: OpenJDK 64-Bit Server VM
Default Encoding: UTF-8
Language: en
Country: US
--></g></svg>