<?xml version="1.0" encoding="UTF-8" standalone="no"?><svg xmlns="http://www.w3.org/2000/svg" xmlns:xlink="http://www.w3.org/1999/xlink" contentScriptType="application/ecmascript" contentStyleType="text/css" height="242px" preserveAspectRatio="none" style="width:978px;height:242px;background:#FFFFFF;" version="1.1" viewBox="0 0 978 242" width="978px" zoomAndPan="magnify"><defs><filter height="300%" id="fewft0og2a4eg" width="300%" x="-1" y="-1"><feGaussianBlur result="blurOut" stdDeviation="2.0"/><feColorMatrix in="blurOut" result="blurOut2" type="matrix" values="0 0 0 0 0 0 0 0 0 0 0 0 0 0 0 0 0 0 .4 0"/><feOffset dx="4.0" dy="4.0" in="blurOut2" result="blurOut3"/><feBlend in="SourceGraphic" in2="blurOut3" mode="normal"/></filter></defs><g><!--MD5=[12ad347edbbaecf46d1a028018915657]
class tosca.nodes.WebApplication--><rect codeLine="2" fill="#DDDDDD" filter="url(#fewft0og2a4eg)" height="48" id="tosca.nodes.WebApplication" style="stroke:#A80036;stroke-width:1.5;" width="210" x="61" y="7"/><ellipse cx="76" cy="23" fill="#008000" rx="11" ry="11" style="stroke:#A80036;stroke-width:1.0;"/><path d="M71.9844,16.6094 L74.625,16.6094 L78.0781,25.6094 L78.0781,16.6094 L80.2344,16.6094 L80.2344,29 L77.6094,29 L74.1406,20 L74.1406,29 L71.9844,29 L71.9844,16.6094 Z " fill="#000000"/><text fill="#000000" font-family="sans-serif" font-size="12" lengthAdjust="spacing" textLength="178" x="90" y="27.1543">tosca.nodes.WebApplication</text><line style="stroke:#A80036;stroke-width:1.5;" x1="62" x2="270" y1="39" y2="39"/><line style="stroke:#A80036;stroke-width:1.5;" x1="62" x2="270" y1="47" y2="47"/><!--MD5=[0b820718956400e51924f4a03dd1d1b5]
class tosca.nodes.WebApplication.PayPalPizzaStore--><rect codeLine="4" fill="#FEFECE" filter="url(#fewft0og2a4eg)" height="112.0234" id="tosca.nodes.WebApplication.PayPalPizzaStore" style="stroke:#A80036;stroke-width:1.5;" width="318" x="7" y="116"/><ellipse cx="22" cy="132" fill="#008000" rx="11" ry="11" style="stroke:#A80036;stroke-width:1.0;"/><path d="M17.9844,125.6094 L20.625,125.6094 L24.0781,134.6094 L24.0781,125.6094 L26.2344,125.6094 L26.2344,138 L23.6094,138 L20.1406,129 L20.1406,138 L17.9844,138 L17.9844,125.6094 Z " fill="#000000"/><text fill="#000000" font-family="sans-serif" font-size="12" lengthAdjust="spacing" textLength="286" x="36" y="136.1543">tosca.nodes.WebApplication.PayPalPizzaStore</text><line style="stroke:#A80036;stroke-width:1.5;" x1="8" x2="324" y1="148" y2="148"/><ellipse cx="18" cy="175.8047" rx="3" ry="3" style="stroke:#038048;stroke-width:1.0;fill:none;"/><text fill="#000000" font-family="sans-serif" font-size="11" font-weight="bold" lengthAdjust="spacing" textLength="113" x="27" y="179.0151">github_url : string</text><line style="stroke:#A80036;stroke-width:1.0;stroke-dasharray:1.0,2.0;" x1="8" x2="136.5" y1="162.4023" y2="162.4023"/><text fill="#000000" font-family="sans-serif" font-size="11" lengthAdjust="spacing" textLength="59" x="136.5" y="165.7104">properties</text><line style="stroke:#A80036;stroke-width:1.0;stroke-dasharray:1.0,2.0;" x1="195.5" x2="324" y1="162.4023" y2="162.4023"/><ellipse cx="18" cy="205.4141" rx="3" ry="3" style="stroke:#038048;stroke-width:1.0;fill:none;"/><text fill="#000000" font-family="sans-serif" font-size="11" font-weight="bold" lengthAdjust="spacing" textLength="137" x="27" y="208.6245">database_connection</text><text fill="#000000" font-family="sans-serif" font-size="11" lengthAdjust="spacing" textLength="232" x="27" y="221.4292">capability : tosca.capabilities.Endpoint[1]</text><line style="stroke:#A80036;stroke-width:1.0;stroke-dasharray:1.0,2.0;" x1="8" x2="127.5" y1="192.0117" y2="192.0117"/><text fill="#000000" font-family="sans-serif" font-size="11" lengthAdjust="spacing" textLength="77" x="127.5" y="195.3198">requirements</text><line style="stroke:#A80036;stroke-width:1.0;stroke-dasharray:1.0,2.0;" x1="204.5" x2="324" y1="192.0117" y2="192.0117"/><!--MD5=[2beb2447f73f446132538adcfbc9879b]
class tosca.capabilities.Endpoint--><rect codeLine="11" fill="#DDDDDD" filter="url(#fewft0og2a4eg)" height="48" id="tosca.capabilities.Endpoint" style="stroke:#A80036;stroke-width:1.5;" width="202" x="499" y="148"/><ellipse cx="514" cy="164" fill="#008000" rx="11" ry="11" style="stroke:#A80036;stroke-width:1.0;"/><path d="M516.9688,169.6406 Q516.3906,169.9375 515.75,170.0781 Q515.1094,170.2344 514.4063,170.2344 Q511.9063,170.2344 510.5781,168.5938 Q509.2656,166.9375 509.2656,163.8125 Q509.2656,160.6875 510.5781,159.0313 Q511.9063,157.375 514.4063,157.375 Q515.1094,157.375 515.75,157.5313 Q516.4063,157.6875 516.9688,157.9844 L516.9688,160.7031 Q516.3438,160.125 515.75,159.8594 Q515.1563,159.5781 514.5313,159.5781 Q513.1875,159.5781 512.5,160.6563 Q511.8125,161.7188 511.8125,163.8125 Q511.8125,165.9063 512.5,166.9844 Q513.1875,168.0469 514.5313,168.0469 Q515.1563,168.0469 515.75,167.7813 Q516.3438,167.5 516.9688,166.9219 L516.9688,169.6406 Z " fill="#000000"/><text fill="#000000" font-family="sans-serif" font-size="12" lengthAdjust="spacing" textLength="170" x="528" y="168.1543">tosca.capabilities.Endpoint</text><line style="stroke:#A80036;stroke-width:1.5;" x1="500" x2="700" y1="180" y2="180"/><line style="stroke:#A80036;stroke-width:1.5;" x1="500" x2="700" y1="188" y2="188"/><!--MD5=[d895e7a91d22ec592a9655e6a8db61c4]
class tosca.nodes.WebServer--><rect codeLine="13" fill="#DDDDDD" filter="url(#fewft0og2a4eg)" height="48" id="tosca.nodes.WebServer" style="stroke:#A80036;stroke-width:1.5;" width="181" x="759.5" y="7"/><ellipse cx="774.5" cy="23" fill="#008000" rx="11" ry="11" style="stroke:#A80036;stroke-width:1.0;"/><path d="M770.4844,16.6094 L773.125,16.6094 L776.5781,25.6094 L776.5781,16.6094 L778.7344,16.6094 L778.7344,29 L776.1094,29 L772.6406,20 L772.6406,29 L770.4844,29 L770.4844,16.6094 Z " fill="#000000"/><text fill="#000000" font-family="sans-serif" font-size="12" lengthAdjust="spacing" textLength="149" x="788.5" y="27.1543">tosca.nodes.WebServer</text><line style="stroke:#A80036;stroke-width:1.5;" x1="760.5" x2="939.5" y1="39" y2="39"/><line style="stroke:#A80036;stroke-width:1.5;" x1="760.5" x2="939.5" y1="47" y2="47"/><!--MD5=[84ba9be121443d9767ae28b18d5d24e3]
class tosca.nodes.WebServer.Nodejs--><rect codeLine="15" fill="#FEFECE" filter="url(#fewft0og2a4eg)" height="48" id="tosca.nodes.WebServer.Nodejs" style="stroke:#A80036;stroke-width:1.5;" width="228" x="736" y="148"/><ellipse cx="751" cy="164" fill="#008000" rx="11" ry="11" style="stroke:#A80036;stroke-width:1.0;"/><path d="M746.9844,157.6094 L749.625,157.6094 L753.0781,166.6094 L753.0781,157.6094 L755.2344,157.6094 L755.2344,170 L752.6094,170 L749.1406,161 L749.1406,170 L746.9844,170 L746.9844,157.6094 Z " fill="#000000"/><text fill="#000000" font-family="sans-serif" font-size="12" lengthAdjust="spacing" textLength="196" x="765" y="168.1543">tosca.nodes.WebServer.Nodejs</text><line style="stroke:#A80036;stroke-width:1.5;" x1="737" x2="963" y1="180" y2="180"/><line style="stroke:#A80036;stroke-width:1.5;" x1="737" x2="963" y1="188" y2="188"/><!--MD5=[5966c614e15127911830bc346e70621f]
reverse link tosca.nodes.WebApplication to tosca.nodes.WebApplication.PayPalPizzaStore--><path codeLine="3" d="M166,75.66 C166,88.4 166,102.48 166,115.83 " fill="none" id="tosca.nodes.WebApplication-backto-tosca.nodes.WebApplication.PayPalPizzaStore" style="stroke:#A80036;stroke-width:1.0;"/><polygon fill="none" points="159,75.27,166,55.27,173,75.27,159,75.27" style="stroke:#A80036;stroke-width:1.0;"/><!--MD5=[86765b0021418b5b1608bc0e9167694a]
reverse link tosca.nodes.WebApplication.PayPalPizzaStore to tosca.capabilities.Endpoint--><path codeLine="12" d="M338.16,172 C392.64,172 451.06,172 498.86,172 " fill="none" id="tosca.nodes.WebApplication.PayPalPizzaStore-backto-tosca.capabilities.Endpoint" style="stroke:#A80036;stroke-width:1.0;"/><polygon fill="#A80036" points="325.14,172,331.14,176,337.14,172,331.14,168,325.14,172" style="stroke:#A80036;stroke-width:1.0;"/><text fill="#000000" font-family="sans-serif" font-size="13" lengthAdjust="spacing" textLength="137" x="343.5" y="165.0669">database_connection</text><text fill="#000000" font-family="sans-serif" font-size="13" lengthAdjust="spacing" textLength="8" x="483.1388" y="168.521">1</text><!--MD5=[23a87e2b99a123e2aeb1b46c9b264b3b]
reverse link tosca.nodes.WebServer to tosca.nodes.WebServer.Nodejs--><path codeLine="14" d="M850,75.45 C850,99.32 850,127.99 850,147.66 " fill="none" id="tosca.nodes.WebServer-backto-tosca.nodes.WebServer.Nodejs" style="stroke:#A80036;stroke-width:1.0;"/><polygon fill="none" points="843,75.27,850,55.27,857,75.27,843,75.27" style="stroke:#A80036;stroke-width:1.0;"/><!--MD5=[33fc3fb26e4ff63b9bd5f662049043d0]
@startuml
set namespaceSeparator none
class "tosca.nodes.WebApplication" << (N,green) >> #DDDDDD
"tosca.nodes.WebApplication" <|- - "tosca.nodes.WebApplication.PayPalPizzaStore"
class "tosca.nodes.WebApplication.PayPalPizzaStore" << (N,green) >> {
.. properties ..
+<b>github_url : string
.. requirements ..
+<b>database_connection
 capability : tosca.capabilities.Endpoint[1]
}
class "tosca.capabilities.Endpoint" << (C,green) >> #DDDDDD
"tosca.nodes.WebApplication.PayPalPizzaStore" *- "1" "tosca.capabilities.Endpoint" : database_connection
class "tosca.nodes.WebServer" << (N,green) >> #DDDDDD
"tosca.nodes.WebServer" <|- - "tosca.nodes.WebServer.Nodejs"
class "tosca.nodes.WebServer.Nodejs" << (N,green) >> {
}
@enduml

PlantUML version 1.2021.13(Mon Nov 01 11:38:45 GMT 2021)
(GPL source distribution)
Java Runtime: OpenJDK Runtime Environment
JVM: OpenJDK 64-Bit Server VM
Default Encoding: UTF-8
Language: en
Country: US
--></g></svg>