<?xml version="1.0" encoding="UTF-8" standalone="no"?><svg xmlns="http://www.w3.org/2000/svg" xmlns:xlink="http://www.w3.org/1999/xlink" contentScriptType="application/ecmascript" contentStyleType="text/css" height="242px" preserveAspectRatio="none" style="width:898px;height:242px;background:#FFFFFF;" version="1.1" viewBox="0 0 898 242" width="898px" zoomAndPan="magnify"><defs><filter height="300%" id="fw679pttpmwnz" width="300%" x="-1" y="-1"><feGaussianBlur result="blurOut" stdDeviation="2.0"/><feColorMatrix in="blurOut" result="blurOut2" type="matrix" values="0 0 0 0 0 0 0 0 0 0 0 0 0 0 0 0 0 0 .4 0"/><feOffset dx="4.0" dy="4.0" in="blurOut2" result="blurOut3"/><feBlend in="SourceGraphic" in2="blurOut3" mode="normal"/></filter></defs><g><!--MD5=[12ad347edbbaecf46d1a028018915657]
class tosca.nodes.WebApplication--><rect codeLine="2" fill="#DDDDDD" filter="url(#fw679pttpmwnz)" height="48" id="tosca.nodes.WebApplication" style="stroke:#A80036;stroke-width:1.5;" width="194" x="57.5" y="7"/><ellipse cx="72.5" cy="23" fill="#008000" rx="11" ry="11" style="stroke:#A80036;stroke-width:1.0;"/><path d="M68.4878,16.6069 L71.1191,16.6069 L74.5723,25.6133 L74.5723,16.6069 L76.7305,16.6069 L76.7305,29 L74.1157,29 L70.646,19.9937 L70.646,29 L68.4878,29 Z " fill="#000000"/><text fill="#000000" font-family="sans-serif" font-size="12" lengthAdjust="spacing" textLength="162" x="86.5" y="27.5352">tosca.nodes.WebApplication</text><line style="stroke:#A80036;stroke-width:1.5;" x1="58.5" x2="250.5" y1="39" y2="39"/><line style="stroke:#A80036;stroke-width:1.5;" x1="58.5" x2="250.5" y1="47" y2="47"/><!--MD5=[0b820718956400e51924f4a03dd1d1b5]
class tosca.nodes.WebApplication.PayPalPizzaStore--><rect codeLine="4" fill="#FEFECE" filter="url(#fw679pttpmwnz)" height="112.7754" id="tosca.nodes.WebApplication.PayPalPizzaStore" style="stroke:#A80036;stroke-width:1.5;" width="295" x="7" y="116"/><ellipse cx="22" cy="132" fill="#008000" rx="11" ry="11" style="stroke:#A80036;stroke-width:1.0;"/><path d="M17.9878,125.6069 L20.6191,125.6069 L24.0723,134.6133 L24.0723,125.6069 L26.2305,125.6069 L26.2305,138 L23.6157,138 L20.146,128.9937 L20.146,138 L17.9878,138 Z " fill="#000000"/><text fill="#000000" font-family="sans-serif" font-size="12" lengthAdjust="spacing" textLength="263" x="36" y="136.5352">tosca.nodes.WebApplication.PayPalPizzaStore</text><line style="stroke:#A80036;stroke-width:1.5;" x1="8" x2="301" y1="148" y2="148"/><ellipse cx="18" cy="175.9551" rx="3" ry="3" style="stroke:#038048;stroke-width:1.0;fill:none;"/><text fill="#000000" font-family="sans-serif" font-size="11" font-weight="bold" lengthAdjust="spacing" textLength="102" x="27" y="179.5898">github_url : string</text><line style="stroke:#A80036;stroke-width:1.0;stroke-dasharray:1.0,2.0;" x1="8" x2="126.5" y1="162.4775" y2="162.4775"/><text fill="#000000" font-family="sans-serif" font-size="11" lengthAdjust="spacing" textLength="56" x="126.5" y="166.1348">properties</text><line style="stroke:#A80036;stroke-width:1.0;stroke-dasharray:1.0,2.0;" x1="182.5" x2="301" y1="162.4775" y2="162.4775"/><ellipse cx="18" cy="205.8652" rx="3" ry="3" style="stroke:#038048;stroke-width:1.0;fill:none;"/><text fill="#000000" font-family="sans-serif" font-size="11" font-weight="bold" lengthAdjust="spacing" textLength="115" x="27" y="209.5">database_connection</text><text fill="#000000" font-family="sans-serif" font-size="11" lengthAdjust="spacing" textLength="198" x="27" y="222.4551">capability : tosca.capabilities.Node[1]</text><line style="stroke:#A80036;stroke-width:1.0;stroke-dasharray:1.0,2.0;" x1="8" x2="118.5" y1="192.3877" y2="192.3877"/><text fill="#000000" font-family="sans-serif" font-size="11" lengthAdjust="spacing" textLength="72" x="118.5" y="196.0449">requirements</text><line style="stroke:#A80036;stroke-width:1.0;stroke-dasharray:1.0,2.0;" x1="190.5" x2="301" y1="192.3877" y2="192.3877"/><!--MD5=[01c50f7a3219c05633a10f94f97ae5da]
class tosca.capabilities.Node--><rect codeLine="11" fill="#DDDDDD" filter="url(#fw679pttpmwnz)" height="48" id="tosca.capabilities.Node" style="stroke:#A80036;stroke-width:1.5;" width="166" x="471.5" y="148.5"/><ellipse cx="486.5" cy="164.5" fill="#008000" rx="11" ry="11" style="stroke:#A80036;stroke-width:1.0;"/><path d="M489.4731,170.1431 Q488.8921,170.4419 488.2529,170.5913 Q487.6138,170.7407 486.9082,170.7407 Q484.4014,170.7407 483.0815,169.0889 Q481.7617,167.437 481.7617,164.3159 Q481.7617,161.1865 483.0815,159.5347 Q484.4014,157.8828 486.9082,157.8828 Q487.6138,157.8828 488.2612,158.0322 Q488.9087,158.1816 489.4731,158.4805 L489.4731,161.2031 Q488.8423,160.6221 488.2488,160.3523 Q487.6553,160.0825 487.0244,160.0825 Q485.6797,160.0825 484.9949,161.1492 Q484.3101,162.2158 484.3101,164.3159 Q484.3101,166.4077 484.9949,167.4744 Q485.6797,168.541 487.0244,168.541 Q487.6553,168.541 488.2488,168.2712 Q488.8423,168.0015 489.4731,167.4204 Z " fill="#000000"/><text fill="#000000" font-family="sans-serif" font-size="12" lengthAdjust="spacing" textLength="134" x="500.5" y="169.0352">tosca.capabilities.Node</text><line style="stroke:#A80036;stroke-width:1.5;" x1="472.5" x2="636.5" y1="180.5" y2="180.5"/><line style="stroke:#A80036;stroke-width:1.5;" x1="472.5" x2="636.5" y1="188.5" y2="188.5"/><!--MD5=[d895e7a91d22ec592a9655e6a8db61c4]
class tosca.nodes.WebServer--><rect codeLine="13" fill="#DDDDDD" filter="url(#fw679pttpmwnz)" height="48" id="tosca.nodes.WebServer" style="stroke:#A80036;stroke-width:1.5;" width="166" x="695.5" y="7"/><ellipse cx="710.5" cy="23" fill="#008000" rx="11" ry="11" style="stroke:#A80036;stroke-width:1.0;"/><path d="M706.4878,16.6069 L709.1191,16.6069 L712.5723,25.6133 L712.5723,16.6069 L714.7305,16.6069 L714.7305,29 L712.1157,29 L708.646,19.9937 L708.646,29 L706.4878,29 Z " fill="#000000"/><text fill="#000000" font-family="sans-serif" font-size="12" lengthAdjust="spacing" textLength="134" x="724.5" y="27.5352">tosca.nodes.WebServer</text><line style="stroke:#A80036;stroke-width:1.5;" x1="696.5" x2="860.5" y1="39" y2="39"/><line style="stroke:#A80036;stroke-width:1.5;" x1="696.5" x2="860.5" y1="47" y2="47"/><!--MD5=[84ba9be121443d9767ae28b18d5d24e3]
class tosca.nodes.WebServer.Nodejs--><rect codeLine="15" fill="#FEFECE" filter="url(#fw679pttpmwnz)" height="48" id="tosca.nodes.WebServer.Nodejs" style="stroke:#A80036;stroke-width:1.5;" width="211" x="673" y="148.5"/><ellipse cx="688" cy="164.5" fill="#008000" rx="11" ry="11" style="stroke:#A80036;stroke-width:1.0;"/><path d="M683.9878,158.1069 L686.6191,158.1069 L690.0723,167.1133 L690.0723,158.1069 L692.2305,158.1069 L692.2305,170.5 L689.6157,170.5 L686.146,161.4937 L686.146,170.5 L683.9878,170.5 Z " fill="#000000"/><text fill="#000000" font-family="sans-serif" font-size="12" lengthAdjust="spacing" textLength="179" x="702" y="169.0352">tosca.nodes.WebServer.Nodejs</text><line style="stroke:#A80036;stroke-width:1.5;" x1="674" x2="883" y1="180.5" y2="180.5"/><line style="stroke:#A80036;stroke-width:1.5;" x1="674" x2="883" y1="188.5" y2="188.5"/><!--MD5=[5966c614e15127911830bc346e70621f]
reverse link tosca.nodes.WebApplication to tosca.nodes.WebApplication.PayPalPizzaStore--><path codeLine="3" d="M154.5,75.0918 C154.5,88.0331 154.5,102.3683 154.5,115.9718 " fill="none" id="tosca.nodes.WebApplication-backto-tosca.nodes.WebApplication.PayPalPizzaStore" style="stroke:#A80036;stroke-width:1.0;"/><polygon fill="none" points="147.5001,75.0036,154.5,55.0035,161.5001,75.0035,147.5001,75.0036" style="stroke:#A80036;stroke-width:1.0;"/><!--MD5=[f841a1734341f5c5711edd1187f4f933]
reverse link tosca.nodes.WebApplication.PayPalPizzaStore to tosca.capabilities.Node--><path codeLine="12" d="M315.1735,172.5 C368.689,172.5 426.1153,172.5 471.2983,172.5 " fill="none" id="tosca.nodes.WebApplication.PayPalPizzaStore-backto-tosca.capabilities.Node" style="stroke:#A80036;stroke-width:1.0;"/><polygon fill="#A80036" points="302.0249,172.5,308.0249,176.5,314.0249,172.5,308.0249,168.5,302.0249,172.5" style="stroke:#A80036;stroke-width:1.0;"/><text fill="#000000" font-family="sans-serif" font-size="13" lengthAdjust="spacing" textLength="133" x="320.25" y="166.0684">database_connection</text><text fill="#000000" font-family="sans-serif" font-size="13" lengthAdjust="spacing" textLength="8" x="455.5319" y="169.4142">1</text><!--MD5=[23a87e2b99a123e2aeb1b46c9b264b3b]
reverse link tosca.nodes.WebServer to tosca.nodes.WebServer.Nodejs--><path codeLine="14" d="M778.5,75.0538 C778.5,99.2467 778.5,128.3201 778.5,148.3787 " fill="none" id="tosca.nodes.WebServer-backto-tosca.nodes.WebServer.Nodejs" style="stroke:#A80036;stroke-width:1.0;"/><polygon fill="none" points="771.5001,75.0036,778.5,55.0035,785.5001,75.0035,771.5001,75.0036" style="stroke:#A80036;stroke-width:1.0;"/><!--MD5=[cb10bd61305b4cdf543eefd78e5716e0]
@startuml
set namespaceSeparator none
class "tosca.nodes.WebApplication" << (N,green) >> #DDDDDD
"tosca.nodes.WebApplication" <|- - "tosca.nodes.WebApplication.PayPalPizzaStore"
class "tosca.nodes.WebApplication.PayPalPizzaStore" << (N,green) >> {
.. properties ..
+<b>github_url : string
.. requirements ..
+<b>database_connection
 capability : tosca.capabilities.Node[1]
}
class "tosca.capabilities.Node" << (C,green) >> #DDDDDD
"tosca.nodes.WebApplication.PayPalPizzaStore" *- "1" "tosca.capabilities.Node" : database_connection
class "tosca.nodes.WebServer" << (N,green) >> #DDDDDD
"tosca.nodes.WebServer" <|- - "tosca.nodes.WebServer.Nodejs"
class "tosca.nodes.WebServer.Nodejs" << (N,green) >> {
}
@enduml

PlantUML version 1.2021.13(Mon Nov 01 12:38:45 CET 2021)
(GPL source distribution)
Java Runtime: Java(TM) SE Runtime Environment
JVM: Java HotSpot(TM) 64-Bit Server VM
Default Encoding: UTF-8
Language: fr
Country: FR
--></g></svg>