<?xml version="1.0" encoding="UTF-8" standalone="no"?><svg xmlns="http://www.w3.org/2000/svg" xmlns:xlink="http://www.w3.org/1999/xlink" contentScriptType="application/ecmascript" contentStyleType="text/css" height="242px" preserveAspectRatio="none" style="width:983px;height:242px;background:#FFFFFF;" version="1.1" viewBox="0 0 983 242" width="983px" zoomAndPan="magnify"><defs><filter height="300%" id="fr3hyxrbx4470" width="300%" x="-1" y="-1"><feGaussianBlur result="blurOut" stdDeviation="2.0"/><feColorMatrix in="blurOut" result="blurOut2" type="matrix" values="0 0 0 0 0 0 0 0 0 0 0 0 0 0 0 0 0 0 .4 0"/><feOffset dx="4.0" dy="4.0" in="blurOut2" result="blurOut3"/><feBlend in="SourceGraphic" in2="blurOut3" mode="normal"/></filter></defs><g><!--MD5=[84a4bea47bb51425ea427991ef79b76c]
class tosca_nodes_WebApplication_NT--><rect codeLine="2" fill="#DDDDDD" filter="url(#fr3hyxrbx4470)" height="48" id="tosca_nodes_WebApplication_NT" style="stroke:#A80036;stroke-width:1.5;" width="194" x="57.5" y="7"/><ellipse cx="72.5" cy="23" fill="#008000" rx="11" ry="11" style="stroke:#A80036;stroke-width:1.0;"/><path d="M68.4878,16.6069 L71.1191,16.6069 L74.5723,25.6133 L74.5723,16.6069 L76.7305,16.6069 L76.7305,29 L74.1157,29 L70.646,19.9937 L70.646,29 L68.4878,29 Z " fill="#000000"/><text fill="#000000" font-family="sans-serif" font-size="12" lengthAdjust="spacing" textLength="162" x="86.5" y="27.5352">tosca.nodes.WebApplication</text><line style="stroke:#A80036;stroke-width:1.5;" x1="58.5" x2="250.5" y1="39" y2="39"/><line style="stroke:#A80036;stroke-width:1.5;" x1="58.5" x2="250.5" y1="47" y2="47"/><!--MD5=[15470334257a75a12991de5816a4a71f]
class tosca_nodes_WebApplication_PayPalPizzaStore_NT--><rect codeLine="3" fill="#FEFECE" filter="url(#fr3hyxrbx4470)" height="112.7754" id="tosca_nodes_WebApplication_PayPalPizzaStore_NT" style="stroke:#A80036;stroke-width:1.5;" width="295" x="7" y="116"/><ellipse cx="22" cy="132" fill="#008000" rx="11" ry="11" style="stroke:#A80036;stroke-width:1.0;"/><path d="M17.9878,125.6069 L20.6191,125.6069 L24.0723,134.6133 L24.0723,125.6069 L26.2305,125.6069 L26.2305,138 L23.6157,138 L20.146,128.9937 L20.146,138 L17.9878,138 Z " fill="#000000"/><text fill="#000000" font-family="sans-serif" font-size="12" lengthAdjust="spacing" textLength="263" x="36" y="136.5352">tosca.nodes.WebApplication.PayPalPizzaStore</text><line style="stroke:#A80036;stroke-width:1.5;" x1="8" x2="301" y1="148" y2="148"/><ellipse cx="18" cy="175.9551" rx="3" ry="3" style="stroke:#038048;stroke-width:1.0;fill:none;"/><text fill="#000000" font-family="sans-serif" font-size="11" font-weight="bold" lengthAdjust="spacing" textLength="102" x="27" y="179.5898">github_url : string</text><line style="stroke:#A80036;stroke-width:1.0;stroke-dasharray:1.0,2.0;" x1="8" x2="126.5" y1="162.4775" y2="162.4775"/><text fill="#000000" font-family="sans-serif" font-size="11" lengthAdjust="spacing" textLength="56" x="126.5" y="166.1348">properties</text><line style="stroke:#A80036;stroke-width:1.0;stroke-dasharray:1.0,2.0;" x1="182.5" x2="301" y1="162.4775" y2="162.4775"/><ellipse cx="18" cy="205.8652" rx="3" ry="3" style="stroke:#038048;stroke-width:1.0;fill:none;"/><text fill="#000000" font-family="sans-serif" font-size="11" font-weight="bold" lengthAdjust="spacing" textLength="115" x="27" y="209.5">database_connection</text><text fill="#000000" font-family="sans-serif" font-size="11" lengthAdjust="spacing" textLength="218" x="27" y="222.4551">capability : tosca.capabilities.Endpoint[1]</text><line style="stroke:#A80036;stroke-width:1.0;stroke-dasharray:1.0,2.0;" x1="8" x2="118.5" y1="192.3877" y2="192.3877"/><text fill="#000000" font-family="sans-serif" font-size="11" lengthAdjust="spacing" textLength="72" x="118.5" y="196.0449">requirements</text><line style="stroke:#A80036;stroke-width:1.0;stroke-dasharray:1.0,2.0;" x1="190.5" x2="301" y1="192.3877" y2="192.3877"/><!--MD5=[bd814c571e11a2214592d85e7995d8fb]
class tosca_capabilities_Endpoint_CT--><rect codeLine="10" fill="#DDDDDD" filter="url(#fr3hyxrbx4470)" height="48" id="tosca_capabilities_Endpoint_CT" style="stroke:#A80036;stroke-width:1.5;" width="186" x="536.5" y="148.5"/><ellipse cx="551.5" cy="164.5" fill="#008000" rx="11" ry="11" style="stroke:#A80036;stroke-width:1.0;"/><path d="M554.4731,170.1431 Q553.8921,170.4419 553.2529,170.5913 Q552.6138,170.7407 551.9082,170.7407 Q549.4014,170.7407 548.0815,169.0889 Q546.7617,167.437 546.7617,164.3159 Q546.7617,161.1865 548.0815,159.5347 Q549.4014,157.8828 551.9082,157.8828 Q552.6138,157.8828 553.2612,158.0322 Q553.9087,158.1816 554.4731,158.4805 L554.4731,161.2031 Q553.8423,160.6221 553.2488,160.3523 Q552.6553,160.0825 552.0244,160.0825 Q550.6797,160.0825 549.9949,161.1492 Q549.3101,162.2158 549.3101,164.3159 Q549.3101,166.4077 549.9949,167.4744 Q550.6797,168.541 552.0244,168.541 Q552.6553,168.541 553.2488,168.2712 Q553.8423,168.0015 554.4731,167.4204 Z " fill="#000000"/><text fill="#000000" font-family="sans-serif" font-size="12" lengthAdjust="spacing" textLength="154" x="565.5" y="169.0352">tosca.capabilities.Endpoint</text><line style="stroke:#A80036;stroke-width:1.5;" x1="537.5" x2="721.5" y1="180.5" y2="180.5"/><line style="stroke:#A80036;stroke-width:1.5;" x1="537.5" x2="721.5" y1="188.5" y2="188.5"/><!--MD5=[4d2e4c816b2556c1c9d9b0e336f3487e]
class tosca_nodes_WebServer_NT--><rect codeLine="11" fill="#DDDDDD" filter="url(#fr3hyxrbx4470)" height="48" id="tosca_nodes_WebServer_NT" style="stroke:#A80036;stroke-width:1.5;" width="166" x="780.5" y="7"/><ellipse cx="795.5" cy="23" fill="#008000" rx="11" ry="11" style="stroke:#A80036;stroke-width:1.0;"/><path d="M791.4878,16.6069 L794.1191,16.6069 L797.5723,25.6133 L797.5723,16.6069 L799.7305,16.6069 L799.7305,29 L797.1157,29 L793.646,19.9937 L793.646,29 L791.4878,29 Z " fill="#000000"/><text fill="#000000" font-family="sans-serif" font-size="12" lengthAdjust="spacing" textLength="134" x="809.5" y="27.5352">tosca.nodes.WebServer</text><line style="stroke:#A80036;stroke-width:1.5;" x1="781.5" x2="945.5" y1="39" y2="39"/><line style="stroke:#A80036;stroke-width:1.5;" x1="781.5" x2="945.5" y1="47" y2="47"/><!--MD5=[6108b5b45daae1f2a1a0f155d399308d]
class tosca_nodes_WebServer_Nodejs_NT--><rect codeLine="12" fill="#FEFECE" filter="url(#fr3hyxrbx4470)" height="48" id="tosca_nodes_WebServer_Nodejs_NT" style="stroke:#A80036;stroke-width:1.5;" width="211" x="758" y="148.5"/><ellipse cx="773" cy="164.5" fill="#008000" rx="11" ry="11" style="stroke:#A80036;stroke-width:1.0;"/><path d="M768.9878,158.1069 L771.6191,158.1069 L775.0723,167.1133 L775.0723,158.1069 L777.2305,158.1069 L777.2305,170.5 L774.6157,170.5 L771.146,161.4937 L771.146,170.5 L768.9878,170.5 Z " fill="#000000"/><text fill="#000000" font-family="sans-serif" font-size="12" lengthAdjust="spacing" textLength="179" x="787" y="169.0352">tosca.nodes.WebServer.Nodejs</text><line style="stroke:#A80036;stroke-width:1.5;" x1="759" x2="968" y1="180.5" y2="180.5"/><line style="stroke:#A80036;stroke-width:1.5;" x1="759" x2="968" y1="188.5" y2="188.5"/><!--MD5=[6041e0ff7284ca8f2e75ece64e400451]
reverse link tosca_nodes_WebApplication_NT to tosca_nodes_WebApplication_PayPalPizzaStore_NT--><path codeLine="14" d="M154.5,75.0918 C154.5,88.0331 154.5,102.3683 154.5,115.9718 " fill="none" id="tosca_nodes_WebApplication_NT-backto-tosca_nodes_WebApplication_PayPalPizzaStore_NT" style="stroke:#A80036;stroke-width:1.0;"/><polygon fill="none" points="147.5001,75.0036,154.5,55.0035,161.5001,75.0035,147.5001,75.0036" style="stroke:#A80036;stroke-width:1.0;"/><!--MD5=[b361d827cf543560713e233c010fbd65]
reverse link tosca_nodes_WebApplication_PayPalPizzaStore_NT to tosca_capabilities_Endpoint_CT--><path codeLine="15" d="M315.3262,172.5 C388.9596,172.5 473.6076,172.5 536.474,172.5 " fill="none" id="tosca_nodes_WebApplication_PayPalPizzaStore_NT-backto-tosca_capabilities_Endpoint_CT" style="stroke:#A80036;stroke-width:1.0;"/><polygon fill="#A80036" points="302.1892,172.5,308.1892,176.5,314.1892,172.5,308.1892,168.5,302.1892,172.5" style="stroke:#A80036;stroke-width:1.0;"/><text fill="#000000" font-family="sans-serif" font-size="13" lengthAdjust="spacing" textLength="198" x="320.25" y="166.0684">database_connection.capability</text><text fill="#000000" font-family="sans-serif" font-size="13" lengthAdjust="spacing" textLength="8" x="520.439" y="169.4601">1</text><!--MD5=[13e58ce04183557d7cb8e3ec4a7595d5]
reverse link tosca_nodes_WebServer_NT to tosca_nodes_WebServer_Nodejs_NT--><path codeLine="16" d="M863.5,75.0538 C863.5,99.2467 863.5,128.3201 863.5,148.3787 " fill="none" id="tosca_nodes_WebServer_NT-backto-tosca_nodes_WebServer_Nodejs_NT" style="stroke:#A80036;stroke-width:1.0;"/><polygon fill="none" points="856.5001,75.0036,863.5,55.0035,870.5001,75.0035,856.5001,75.0036" style="stroke:#A80036;stroke-width:1.0;"/><!--MD5=[267c4a6170ce4b391d0b865289a47a46]
@startuml
set namespaceSeparator none
class "tosca.nodes.WebApplication" as tosca_nodes_WebApplication_NT << (N,green) >> #DDDDDD
class "tosca.nodes.WebApplication.PayPalPizzaStore" as tosca_nodes_WebApplication_PayPalPizzaStore_NT << (N,green) >> {
.. properties ..
+<b>github_url : string
.. requirements ..
+<b>database_connection
 capability : tosca.capabilities.Endpoint[1]
}
class "tosca.capabilities.Endpoint" as tosca_capabilities_Endpoint_CT << (C,green) >> #DDDDDD
class "tosca.nodes.WebServer" as tosca_nodes_WebServer_NT << (N,green) >> #DDDDDD
class "tosca.nodes.WebServer.Nodejs" as tosca_nodes_WebServer_Nodejs_NT << (N,green) >> {
}
tosca_nodes_WebApplication_NT <|- - tosca_nodes_WebApplication_PayPalPizzaStore_NT
tosca_nodes_WebApplication_PayPalPizzaStore_NT *- "1" tosca_capabilities_Endpoint_CT : database_connection.capability
tosca_nodes_WebServer_NT <|- - tosca_nodes_WebServer_Nodejs_NT
@enduml

PlantUML version 1.2021.13(Mon Nov 01 12:38:45 CET 2021)
(GPL source distribution)
Java Runtime: Java(TM) SE Runtime Environment
JVM: Java HotSpot(TM) 64-Bit Server VM
Default Encoding: UTF-8
Language: fr
Country: FR
--></g></svg>