<?xml version="1.0" encoding="UTF-8" standalone="no"?><svg xmlns="http://www.w3.org/2000/svg" xmlns:xlink="http://www.w3.org/1999/xlink" contentScriptType="application/ecmascript" contentStyleType="text/css" height="508px" preserveAspectRatio="none" style="width:762px;height:508px;background:#FFFFFF;" version="1.1" viewBox="0 0 762 508" width="762px" zoomAndPan="magnify"><defs><filter height="300%" id="f11kxajwa5q0z6" width="300%" x="-1" y="-1"><feGaussianBlur result="blurOut" stdDeviation="2.0"/><feColorMatrix in="blurOut" result="blurOut2" type="matrix" values="0 0 0 0 0 0 0 0 0 0 0 0 0 0 0 0 0 0 .4 0"/><feOffset dx="4.0" dy="4.0" in="blurOut2" result="blurOut3"/><feBlend in="SourceGraphic" in2="blurOut3" mode="normal"/></filter></defs><g><!--MD5=[195d183f31657190f72fe0dd3d863e84]
class serviceproxy.waitconfig--><rect codeLine="2" fill="#FEFECE" filter="url(#f11kxajwa5q0z6)" height="95.8203" id="serviceproxy.waitconfig" style="stroke:#A80036;stroke-width:1.5;" width="207" x="148" y="399"/><ellipse cx="181.45" cy="415" fill="#008000" rx="11" ry="11" style="stroke:#A80036;stroke-width:1.0;"/><path d="M181.0359,410.8149 L181.0359,418.792 L181.7,418.792 Q183.1443,418.792 183.7586,417.8831 Q184.3729,416.9741 184.3729,414.791 Q184.3729,412.6245 183.7586,411.7197 Q183.1443,410.8149 181.7,410.8149 Z M178.5872,408.6069 L181.2103,408.6069 Q184.2483,408.6069 185.5848,410.0554 Q186.9212,411.5039 186.9212,414.791 Q186.9212,418.0864 185.5848,419.5432 Q184.2483,421 181.2103,421 L178.5872,421 Z " fill="#000000"/><text fill="#000000" font-family="sans-serif" font-size="12" lengthAdjust="spacing" textLength="134" x="199.55" y="419.5352">serviceproxy.waitconfig</text><line style="stroke:#A80036;stroke-width:1.5;" x1="149" x2="354" y1="431" y2="431"/><ellipse cx="159" cy="458.9551" rx="3" ry="3" style="stroke:#038048;stroke-width:1.0;fill:none;"/><text fill="#000000" font-family="sans-serif" font-size="11" lengthAdjust="spacing" textLength="181" x="168" y="462.5898">wait_for_service : boolean = False</text><ellipse cx="159" cy="471.9102" rx="3" ry="3" style="stroke:#038048;stroke-width:1.0;fill:none;"/><text fill="#000000" font-family="sans-serif" font-size="11" lengthAdjust="spacing" textLength="126" x="168" y="475.5449">wait_time : integer = 30</text><ellipse cx="159" cy="484.8652" rx="3" ry="3" style="stroke:#038048;stroke-width:1.0;fill:none;"/><text fill="#000000" font-family="sans-serif" font-size="11" lengthAdjust="spacing" textLength="128" x="168" y="488.5">wait_expression : string</text><line style="stroke:#A80036;stroke-width:1.0;stroke-dasharray:1.0,2.0;" x1="149" x2="223.5" y1="445.4775" y2="445.4775"/><text fill="#000000" font-family="sans-serif" font-size="11" lengthAdjust="spacing" textLength="56" x="223.5" y="449.1348">properties</text><line style="stroke:#A80036;stroke-width:1.0;stroke-dasharray:1.0,2.0;" x1="279.5" x2="354" y1="445.4775" y2="445.4775"/><!--MD5=[344c354c0a736111e978f5f089cc90eb]
class tosca.nodes.Root--><rect codeLine="8" fill="#DDDDDD" filter="url(#f11kxajwa5q0z6)" height="48" id="tosca.nodes.Root" style="stroke:#A80036;stroke-width:1.5;" width="131" x="96" y="7"/><ellipse cx="111" cy="23" fill="#008000" rx="11" ry="11" style="stroke:#A80036;stroke-width:1.0;"/><path d="M106.9878,16.6069 L109.6191,16.6069 L113.0723,25.6133 L113.0723,16.6069 L115.2305,16.6069 L115.2305,29 L112.6157,29 L109.146,19.9937 L109.146,29 L106.9878,29 Z " fill="#000000"/><text fill="#000000" font-family="sans-serif" font-size="12" lengthAdjust="spacing" textLength="99" x="125" y="27.5352">tosca.nodes.Root</text><line style="stroke:#A80036;stroke-width:1.5;" x1="97" x2="226" y1="39" y2="39"/><line style="stroke:#A80036;stroke-width:1.5;" x1="97" x2="226" y1="47" y2="47"/><!--MD5=[15c0480f838b31d71900adc77c7ccee1]
class aria.serviceproxy.ServiceProxy--><rect codeLine="10" fill="#FEFECE" filter="url(#f11kxajwa5q0z6)" height="189.5508" id="aria.serviceproxy.ServiceProxy" style="stroke:#A80036;stroke-width:1.5;" width="489" x="7" y="132"/><ellipse cx="159.75" cy="148" fill="#008000" rx="11" ry="11" style="stroke:#A80036;stroke-width:1.0;"/><path d="M155.7378,141.6069 L158.3691,141.6069 L161.8223,150.6133 L161.8223,141.6069 L163.9805,141.6069 L163.9805,154 L161.3657,154 L157.896,144.9937 L157.896,154 L155.7378,154 Z " fill="#000000"/><text fill="#000000" font-family="sans-serif" font-size="12" lengthAdjust="spacing" textLength="175" x="180.25" y="152.5352">aria.serviceproxy.ServiceProxy</text><line style="stroke:#A80036;stroke-width:1.5;" x1="8" x2="495" y1="164" y2="164"/><ellipse cx="18" cy="191.9551" rx="3" ry="3" style="stroke:#038048;stroke-width:1.0;fill:none;"/><text fill="#000000" font-family="sans-serif" font-size="11" font-weight="bold" lengthAdjust="spacing" textLength="133" x="27" y="195.5898">last_update : timestamp</text><ellipse cx="18" cy="204.9102" rx="3" ry="3" style="stroke:#038048;stroke-width:1.0;fill:none;"/><text fill="#000000" font-family="sans-serif" font-size="11" font-weight="bold" lengthAdjust="spacing" textLength="174" x="27" y="208.5449">service_outputs : map&lt;string&gt;</text><line style="stroke:#A80036;stroke-width:1.0;stroke-dasharray:1.0,2.0;" x1="8" x2="225.5" y1="178.4775" y2="178.4775"/><text fill="#000000" font-family="sans-serif" font-size="11" lengthAdjust="spacing" textLength="52" x="225.5" y="182.1348">attributes</text><line style="stroke:#A80036;stroke-width:1.0;stroke-dasharray:1.0,2.0;" x1="277.5" x2="495" y1="178.4775" y2="178.4775"/><ellipse cx="18" cy="234.8203" rx="3" ry="3" style="stroke:#038048;stroke-width:1.0;fill:none;"/><text fill="#000000" font-family="sans-serif" font-size="11" font-weight="bold" lengthAdjust="spacing" textLength="120" x="27" y="238.4551">service_name : string</text><ellipse cx="18" cy="247.7754" rx="3" ry="3" style="stroke:#038048;stroke-width:1.0;fill:none;"/><text fill="#000000" font-family="sans-serif" font-size="11" lengthAdjust="spacing" textLength="140" x="27" y="251.4102">outputs : list&lt;string&gt; = []</text><ellipse cx="18" cy="260.7305" rx="3" ry="3" style="stroke:#038048;stroke-width:1.0;fill:none;"/><text fill="#000000" font-family="sans-serif" font-size="11" lengthAdjust="spacing" textLength="347" x="27" y="264.3652">wait_config : serviceproxy.waitconfig = {'wait_for_service': False}</text><line style="stroke:#A80036;stroke-width:1.0;stroke-dasharray:1.0,2.0;" x1="8" x2="223.5" y1="221.3428" y2="221.3428"/><text fill="#000000" font-family="sans-serif" font-size="11" lengthAdjust="spacing" textLength="56" x="223.5" y="225">properties</text><line style="stroke:#A80036;stroke-width:1.0;stroke-dasharray:1.0,2.0;" x1="279.5" x2="495" y1="221.3428" y2="221.3428"/><line style="stroke:#A80036;stroke-width:1.0;" x1="8" x2="495" y1="270.6855" y2="270.6855"/><ellipse cx="18" cy="298.6406" fill="#84BE84" rx="3" ry="3" style="stroke:#038048;stroke-width:1.0;"/><text fill="#000000" font-family="sans-serif" font-size="11" lengthAdjust="spacing" textLength="41" x="27" y="302.2754">create()</text><text fill="#000000" font-family="sans-serif" font-size="11" lengthAdjust="spacing" textLength="463" x="27" y="315.2305">implementation: aria-service-proxy-plugin &gt; aria_service_proxy.tasks.proxy_connect</text><line style="stroke:#A80036;stroke-width:1.0;stroke-dasharray:1.0,2.0;" x1="8" x2="202.5" y1="285.1631" y2="285.1631"/><text fill="#000000" font-family="sans-serif" font-size="11" lengthAdjust="spacing" textLength="98" x="202.5" y="288.8203">interface Standard</text><line style="stroke:#A80036;stroke-width:1.0;stroke-dasharray:1.0,2.0;" x1="300.5" x2="495" y1="285.1631" y2="285.1631"/><!--MD5=[b3774324f88b2e3f742683c7a561009b]
class tosca.interfaces.node.lifecycle.Standard--><rect codeLine="24" fill="#DDDDDD" filter="url(#f11kxajwa5q0z6)" height="48" id="tosca.interfaces.node.lifecycle.Standard" style="stroke:#A80036;stroke-width:1.5;" width="260" x="262.5" y="7"/><ellipse cx="277.5" cy="23" fill="#008000" rx="11" ry="11" style="stroke:#A80036;stroke-width:1.0;"/><path d="M273.4277,18.7651 L273.4277,16.6069 L280.8071,16.6069 L280.8071,18.7651 L278.3418,18.7651 L278.3418,26.8418 L280.8071,26.8418 L280.8071,29 L273.4277,29 L273.4277,26.8418 L275.8931,26.8418 L275.8931,18.7651 Z " fill="#000000"/><text fill="#000000" font-family="sans-serif" font-size="12" lengthAdjust="spacing" textLength="228" x="291.5" y="27.5352">tosca.interfaces.node.lifecycle.Standard</text><line style="stroke:#A80036;stroke-width:1.5;" x1="263.5" x2="521.5" y1="39" y2="39"/><line style="stroke:#A80036;stroke-width:1.5;" x1="263.5" x2="521.5" y1="47" y2="47"/><!--MD5=[c97e29884f979246b964a0fea4034a85]
class tosca.policies.Root--><rect codeLine="26" fill="#DDDDDD" filter="url(#f11kxajwa5q0z6)" height="48" id="tosca.policies.Root" style="stroke:#A80036;stroke-width:1.5;" width="139" x="609" y="7"/><ellipse cx="624" cy="23" fill="#008000" rx="11" ry="11" style="stroke:#A80036;stroke-width:1.0;"/><path d="M623.7935,18.6655 L623.7935,22.3013 L624.7979,22.3013 Q626.0015,22.3013 626.4871,21.8945 Q626.9727,21.4878 626.9727,20.4834 Q626.9727,19.479 626.4871,19.0723 Q626.0015,18.6655 624.7979,18.6655 Z M621.3447,16.6069 L624.7065,16.6069 Q627.2715,16.6069 628.3962,17.52 Q629.521,18.4331 629.521,20.4834 Q629.521,22.5337 628.3962,23.4468 Q627.2715,24.3599 624.7065,24.3599 L623.7935,24.3599 L623.7935,29 L621.3447,29 Z " fill="#000000"/><text fill="#000000" font-family="sans-serif" font-size="12" lengthAdjust="spacing" textLength="107" x="638" y="27.5352">tosca.policies.Root</text><line style="stroke:#A80036;stroke-width:1.5;" x1="610" x2="747" y1="39" y2="39"/><line style="stroke:#A80036;stroke-width:1.5;" x1="610" x2="747" y1="47" y2="47"/><!--MD5=[b5d31beaa33875dfb4a4943a24a91a0e]
class aria.Plugin--><rect codeLine="28" fill="#FEFECE" filter="url(#f11kxajwa5q0z6)" height="69.9102" id="aria.Plugin" style="stroke:#A80036;stroke-width:1.5;" width="115" x="621" y="192"/><ellipse cx="646.35" cy="208" fill="#008000" rx="11" ry="11" style="stroke:#A80036;stroke-width:1.0;"/><path d="M646.1435,203.6655 L646.1435,207.3013 L647.1479,207.3013 Q648.3515,207.3013 648.8371,206.8945 Q649.3227,206.4878 649.3227,205.4834 Q649.3227,204.479 648.8371,204.0723 Q648.3515,203.6655 647.1479,203.6655 Z M643.6947,201.6069 L647.0565,201.6069 Q649.6215,201.6069 650.7462,202.52 Q651.871,203.4331 651.871,205.4834 Q651.871,207.5337 650.7462,208.4468 Q649.6215,209.3599 647.0565,209.3599 L646.1435,209.3599 L646.1435,214 L643.6947,214 Z " fill="#000000"/><text fill="#000000" font-family="sans-serif" font-size="12" lengthAdjust="spacing" textLength="60" x="662.65" y="212.5352">aria.Plugin</text><line style="stroke:#A80036;stroke-width:1.5;" x1="622" x2="735" y1="224" y2="224"/><ellipse cx="632" cy="251.9551" rx="3" ry="3" style="stroke:#038048;stroke-width:1.0;fill:none;"/><text fill="#000000" font-family="sans-serif" font-size="11" lengthAdjust="spacing" textLength="89" x="641" y="255.5898">version : version</text><line style="stroke:#A80036;stroke-width:1.0;stroke-dasharray:1.0,2.0;" x1="622" x2="650.5" y1="238.4775" y2="238.4775"/><text fill="#000000" font-family="sans-serif" font-size="11" lengthAdjust="spacing" textLength="56" x="650.5" y="242.1348">properties</text><line style="stroke:#A80036;stroke-width:1.0;stroke-dasharray:1.0,2.0;" x1="706.5" x2="735" y1="238.4775" y2="238.4775"/><!--MD5=[963c5f9960973725681f28006424f6a0]
reverse link tosca.nodes.Root to aria.serviceproxy.ServiceProxy--><path codeLine="9" d="M180.8924,73.2323 C188.8472,90.5561 198.4022,111.3648 207.8758,131.9963 " fill="none" id="tosca.nodes.Root-backto-aria.serviceproxy.ServiceProxy" style="stroke:#A80036;stroke-width:1.0;"/><polygon fill="none" points="174.5203,76.13,172.5358,55.0334,187.2431,70.2878,174.5203,76.13" style="stroke:#A80036;stroke-width:1.0;"/><!--MD5=[31048a5db3ca9e7a3edaa03486e0cf4a]
reverse link aria.serviceproxy.ServiceProxy to serviceproxy.waitconfig--><path codeLine="23" d="M251.5,335.3136 C251.5,357.6247 251.5,380.0283 251.5,398.8518 " fill="none" id="aria.serviceproxy.ServiceProxy-backto-serviceproxy.waitconfig" style="stroke:#A80036;stroke-width:1.0;"/><polygon fill="#A80036" points="251.5,322.2157,247.5,328.2157,251.5,334.2157,255.5,328.2157,251.5,322.2157" style="stroke:#A80036;stroke-width:1.0;"/><text fill="#000000" font-family="sans-serif" font-size="13" lengthAdjust="spacing" textLength="73" x="252.5" y="365.5684">wait_config</text><text fill="#000000" font-family="sans-serif" font-size="13" lengthAdjust="spacing" textLength="8" x="242.9125" y="388.2828">1</text><!--MD5=[bbf269c3f373f6f1a5814fe35517edc4]
reverse link tosca.interfaces.node.lifecycle.Standard to aria.serviceproxy.ServiceProxy--><path codeLine="25" d="M363.5224,71.281 C350.7891,88.9811 335.2481,110.5841 319.8445,131.9963 " fill="none" id="tosca.interfaces.node.lifecycle.Standard-backto-aria.serviceproxy.ServiceProxy" style="stroke:#A80036;stroke-width:1.0;stroke-dasharray:7.0,7.0;"/><polygon fill="none" points="357.8486,67.181,375.2106,55.0334,369.2134,75.3567,357.8486,67.181" style="stroke:#A80036;stroke-width:1.0;"/><text fill="#000000" font-family="sans-serif" font-size="13" lengthAdjust="spacing" textLength="55" x="352.5" y="98.5684">Standard</text><!--MD5=[bd1f6a38cb2a20b2b8f31bc18610f2d2]
reverse link tosca.policies.Root to aria.Plugin--><path codeLine="27" d="M678.5,75.2277 C678.5,110.4866 678.5,159.1964 678.5,191.8319 " fill="none" id="tosca.policies.Root-backto-aria.Plugin" style="stroke:#A80036;stroke-width:1.0;"/><polygon fill="none" points="671.5001,75.0335,678.5,55.0334,685.5001,75.0334,671.5001,75.0335" style="stroke:#A80036;stroke-width:1.0;"/><!--MD5=[3a508b331944ed3512aa4642cbc2f1bb]
@startuml
set namespaceSeparator none
class "serviceproxy.waitconfig" << (D,green) >> {
.. properties ..
+wait_for_service : boolean = False
+wait_time : integer = 30
+wait_expression : string
}
class "tosca.nodes.Root" << (N,green) >> #DDDDDD
"tosca.nodes.Root" <|- - "aria.serviceproxy.ServiceProxy"
class "aria.serviceproxy.ServiceProxy" << (N,green) >> {
.. attributes ..
+<b>last_update : timestamp
+<b>service_outputs : map<string>
.. properties ..
+<b>service_name : string
+outputs : list<string> = []
+wait_config : serviceproxy.waitconfig = {'wait_for_service': False}
- -
.. interface Standard ..
+create()
 implementation: aria-service-proxy-plugin > aria_service_proxy.tasks.proxy_connect
}
"aria.serviceproxy.ServiceProxy" *- - "1" "serviceproxy.waitconfig" : wait_config
class "tosca.interfaces.node.lifecycle.Standard" << (I,green) >> #DDDDDD
"tosca.interfaces.node.lifecycle.Standard" <|.. "aria.serviceproxy.ServiceProxy" : Standard
class "tosca.policies.Root" << (P,green) >> #DDDDDD
"tosca.policies.Root" <|- - "aria.Plugin"
class "aria.Plugin" << (P,green) >> {
.. properties ..
+version : version
}
@enduml

PlantUML version 1.2021.13(Mon Nov 01 12:38:45 CET 2021)
(GPL source distribution)
Java Runtime: Java(TM) SE Runtime Environment
JVM: Java HotSpot(TM) 64-Bit Server VM
Default Encoding: UTF-8
Language: fr
Country: FR
--></g></svg>