<?xml version="1.0" encoding="UTF-8" standalone="no"?><svg xmlns="http://www.w3.org/2000/svg" xmlns:xlink="http://www.w3.org/1999/xlink" contentScriptType="application/ecmascript" contentStyleType="text/css" height="506px" preserveAspectRatio="none" style="width:798px;height:506px;background:#FFFFFF;" version="1.1" viewBox="0 0 798 506" width="798px" zoomAndPan="magnify"><defs><filter height="300%" id="f1ruxguvvt90vp" width="300%" x="-1" y="-1"><feGaussianBlur result="blurOut" stdDeviation="2.0"/><feColorMatrix in="blurOut" result="blurOut2" type="matrix" values="0 0 0 0 0 0 0 0 0 0 0 0 0 0 0 0 0 0 .4 0"/><feOffset dx="4.0" dy="4.0" in="blurOut2" result="blurOut3"/><feBlend in="SourceGraphic" in2="blurOut3" mode="normal"/></filter></defs><g><!--MD5=[195d183f31657190f72fe0dd3d863e84]
class serviceproxy.waitconfig--><rect codeLine="2" fill="#FEFECE" filter="url(#f1ruxguvvt90vp)" height="95.2188" id="serviceproxy.waitconfig" style="stroke:#A80036;stroke-width:1.5;" width="176" x="171.5" y="397"/><ellipse cx="186.5" cy="413" fill="#008000" rx="11" ry="11" style="stroke:#A80036;stroke-width:1.0;"/><path d="M186.0938,408.8125 L186.0938,416.7969 L186.75,416.7969 Q188.1875,416.7969 188.7969,415.8906 Q189.4219,414.9688 189.4219,412.7969 Q189.4219,410.625 188.7969,409.7188 Q188.1875,408.8125 186.75,408.8125 L186.0938,408.8125 Z M183.6406,406.6094 L186.2656,406.6094 Q189.2969,406.6094 190.625,408.0625 Q191.9688,409.5 191.9688,412.7969 Q191.9688,416.0938 190.625,417.5469 Q189.2969,419 186.2656,419 L183.6406,419 L183.6406,406.6094 Z " fill="#000000"/><text fill="#000000" font-family="sans-serif" font-size="12" lengthAdjust="spacing" textLength="144" x="200.5" y="417.1543">serviceproxy.waitconfig</text><line style="stroke:#A80036;stroke-width:1.5;" x1="172.5" x2="346.5" y1="429" y2="429"/><ellipse cx="182.5" cy="456.8047" rx="3" ry="3" style="stroke:#038048;stroke-width:1.0;fill:none;"/><text fill="#000000" font-family="sans-serif" font-size="11" lengthAdjust="spacing" textLength="149" x="191.5" y="460.0151">wait_for_service : boolean</text><ellipse cx="182.5" cy="469.6094" rx="3" ry="3" style="stroke:#038048;stroke-width:1.0;fill:none;"/><text fill="#000000" font-family="sans-serif" font-size="11" lengthAdjust="spacing" textLength="137" x="191.5" y="472.8198">wait_time : integer = 30</text><ellipse cx="182.5" cy="482.4141" rx="3" ry="3" style="stroke:#038048;stroke-width:1.0;fill:none;"/><text fill="#000000" font-family="sans-serif" font-size="11" lengthAdjust="spacing" textLength="137" x="191.5" y="485.6245">wait_expression : string</text><line style="stroke:#A80036;stroke-width:1.0;stroke-dasharray:1.0,2.0;" x1="172.5" x2="230" y1="443.4023" y2="443.4023"/><text fill="#000000" font-family="sans-serif" font-size="11" lengthAdjust="spacing" textLength="59" x="230" y="446.7104">properties</text><line style="stroke:#A80036;stroke-width:1.0;stroke-dasharray:1.0,2.0;" x1="289" x2="346.5" y1="443.4023" y2="443.4023"/><!--MD5=[344c354c0a736111e978f5f089cc90eb]
class tosca.nodes.Root--><rect codeLine="8" fill="#DDDDDD" filter="url(#f1ruxguvvt90vp)" height="48" id="tosca.nodes.Root" style="stroke:#A80036;stroke-width:1.5;" width="143" x="87" y="7"/><ellipse cx="102" cy="23" fill="#008000" rx="11" ry="11" style="stroke:#A80036;stroke-width:1.0;"/><path d="M97.9844,16.6094 L100.625,16.6094 L104.0781,25.6094 L104.0781,16.6094 L106.2344,16.6094 L106.2344,29 L103.6094,29 L100.1406,20 L100.1406,29 L97.9844,29 L97.9844,16.6094 Z " fill="#000000"/><text fill="#000000" font-family="sans-serif" font-size="12" lengthAdjust="spacing" textLength="111" x="116" y="27.1543">tosca.nodes.Root</text><line style="stroke:#A80036;stroke-width:1.5;" x1="88" x2="229" y1="39" y2="39"/><line style="stroke:#A80036;stroke-width:1.5;" x1="88" x2="229" y1="47" y2="47"/><!--MD5=[15c0480f838b31d71900adc77c7ccee1]
class aria.serviceproxy.ServiceProxy--><rect codeLine="10" fill="#FEFECE" filter="url(#f1ruxguvvt90vp)" height="188.0469" id="aria.serviceproxy.ServiceProxy" style="stroke:#A80036;stroke-width:1.5;" width="505" x="7" y="132"/><ellipse cx="161.75" cy="148" fill="#008000" rx="11" ry="11" style="stroke:#A80036;stroke-width:1.0;"/><path d="M157.7344,141.6094 L160.375,141.6094 L163.8281,150.6094 L163.8281,141.6094 L165.9844,141.6094 L165.9844,154 L163.3594,154 L159.8906,145 L159.8906,154 L157.7344,154 L157.7344,141.6094 Z " fill="#000000"/><text fill="#000000" font-family="sans-serif" font-size="12" lengthAdjust="spacing" textLength="187" x="182.25" y="152.1543">aria.serviceproxy.ServiceProxy</text><line style="stroke:#A80036;stroke-width:1.5;" x1="8" x2="511" y1="164" y2="164"/><ellipse cx="18" cy="191.8047" rx="3" ry="3" style="stroke:#038048;stroke-width:1.0;fill:none;"/><text fill="#000000" font-family="sans-serif" font-size="11" font-weight="bold" lengthAdjust="spacing" textLength="154" x="27" y="195.0151">last_update : timestamp</text><ellipse cx="18" cy="204.6094" rx="3" ry="3" style="stroke:#038048;stroke-width:1.0;fill:none;"/><text fill="#000000" font-family="sans-serif" font-size="11" font-weight="bold" lengthAdjust="spacing" textLength="195" x="27" y="207.8198">service_outputs : map&lt;string&gt;</text><line style="stroke:#A80036;stroke-width:1.0;stroke-dasharray:1.0,2.0;" x1="8" x2="232" y1="178.4023" y2="178.4023"/><text fill="#000000" font-family="sans-serif" font-size="11" lengthAdjust="spacing" textLength="55" x="232" y="181.7104">attributes</text><line style="stroke:#A80036;stroke-width:1.0;stroke-dasharray:1.0,2.0;" x1="287" x2="511" y1="178.4023" y2="178.4023"/><ellipse cx="18" cy="234.2188" rx="3" ry="3" style="stroke:#038048;stroke-width:1.0;fill:none;"/><text fill="#000000" font-family="sans-serif" font-size="11" font-weight="bold" lengthAdjust="spacing" textLength="136" x="27" y="237.4292">service_name : string</text><ellipse cx="18" cy="247.0234" rx="3" ry="3" style="stroke:#038048;stroke-width:1.0;fill:none;"/><text fill="#000000" font-family="sans-serif" font-size="11" lengthAdjust="spacing" textLength="123" x="27" y="250.2339">outputs : list&lt;string&gt;</text><ellipse cx="18" cy="259.8281" rx="3" ry="3" style="stroke:#038048;stroke-width:1.0;fill:none;"/><text fill="#000000" font-family="sans-serif" font-size="11" lengthAdjust="spacing" textLength="375" x="27" y="263.0386">wait_config : serviceproxy.waitconfig = {'wait_for_service': False}</text><line style="stroke:#A80036;stroke-width:1.0;stroke-dasharray:1.0,2.0;" x1="8" x2="230" y1="220.8164" y2="220.8164"/><text fill="#000000" font-family="sans-serif" font-size="11" lengthAdjust="spacing" textLength="59" x="230" y="224.1245">properties</text><line style="stroke:#A80036;stroke-width:1.0;stroke-dasharray:1.0,2.0;" x1="289" x2="511" y1="220.8164" y2="220.8164"/><line style="stroke:#A80036;stroke-width:1.0;" x1="8" x2="511" y1="269.6328" y2="269.6328"/><ellipse cx="18" cy="297.4375" fill="#84BE84" rx="3" ry="3" style="stroke:#038048;stroke-width:1.0;"/><text fill="#000000" font-family="sans-serif" font-size="11" lengthAdjust="spacing" textLength="44" x="27" y="300.6479">create()</text><text fill="#000000" font-family="sans-serif" font-size="11" lengthAdjust="spacing" textLength="479" x="27" y="313.4526">implementation: aria-service-proxy-plugin &gt; aria_service_proxy.tasks.proxy_connect</text><line style="stroke:#A80036;stroke-width:1.0;stroke-dasharray:1.0,2.0;" x1="8" x2="206.5" y1="284.0352" y2="284.0352"/><text fill="#000000" font-family="sans-serif" font-size="11" lengthAdjust="spacing" textLength="106" x="206.5" y="287.3433">interface Standard</text><line style="stroke:#A80036;stroke-width:1.0;stroke-dasharray:1.0,2.0;" x1="312.5" x2="511" y1="284.0352" y2="284.0352"/><!--MD5=[b3774324f88b2e3f742683c7a561009b]
class tosca.interfaces.node.lifecycle.Standard--><rect codeLine="24" fill="#DDDDDD" filter="url(#f1ruxguvvt90vp)" height="48" id="tosca.interfaces.node.lifecycle.Standard" style="stroke:#A80036;stroke-width:1.5;" width="285" x="265" y="7"/><ellipse cx="280" cy="23" fill="#008000" rx="11" ry="11" style="stroke:#A80036;stroke-width:1.0;"/><path d="M275.9219,18.7656 L275.9219,16.6094 L283.3125,16.6094 L283.3125,18.7656 L280.8438,18.7656 L280.8438,26.8438 L283.3125,26.8438 L283.3125,29 L275.9219,29 L275.9219,26.8438 L278.3906,26.8438 L278.3906,18.7656 L275.9219,18.7656 Z " fill="#000000"/><text fill="#000000" font-family="sans-serif" font-size="12" lengthAdjust="spacing" textLength="253" x="294" y="27.1543">tosca.interfaces.node.lifecycle.Standard</text><line style="stroke:#A80036;stroke-width:1.5;" x1="266" x2="549" y1="39" y2="39"/><line style="stroke:#A80036;stroke-width:1.5;" x1="266" x2="549" y1="47" y2="47"/><!--MD5=[c97e29884f979246b964a0fea4034a85]
class tosca.policies.Root--><rect codeLine="26" fill="#DDDDDD" filter="url(#f1ruxguvvt90vp)" height="48" id="tosca.policies.Root" style="stroke:#A80036;stroke-width:1.5;" width="151" x="633" y="7"/><ellipse cx="648" cy="23" fill="#008000" rx="11" ry="11" style="stroke:#A80036;stroke-width:1.0;"/><path d="M647.7969,18.6719 L647.7969,22.2969 L648.7969,22.2969 Q650,22.2969 650.4844,21.8906 Q650.9688,21.4844 650.9688,20.4844 Q650.9688,19.4844 650.4844,19.0781 Q650,18.6719 648.7969,18.6719 L647.7969,18.6719 Z M645.3438,16.6094 L648.7031,16.6094 Q651.2656,16.6094 652.3906,17.5313 Q653.5156,18.4375 653.5156,20.4844 Q653.5156,22.5313 652.3906,23.4531 Q651.2656,24.3594 648.7031,24.3594 L647.7969,24.3594 L647.7969,29 L645.3438,29 L645.3438,16.6094 Z " fill="#000000"/><text fill="#000000" font-family="sans-serif" font-size="12" lengthAdjust="spacing" textLength="119" x="662" y="27.1543">tosca.policies.Root</text><line style="stroke:#A80036;stroke-width:1.5;" x1="634" x2="783" y1="39" y2="39"/><line style="stroke:#A80036;stroke-width:1.5;" x1="634" x2="783" y1="47" y2="47"/><!--MD5=[b5d31beaa33875dfb4a4943a24a91a0e]
class aria.Plugin--><rect codeLine="28" fill="#FEFECE" filter="url(#f1ruxguvvt90vp)" height="69.6094" id="aria.Plugin" style="stroke:#A80036;stroke-width:1.5;" width="122" x="647.5" y="191"/><ellipse cx="673.3" cy="207" fill="#008000" rx="11" ry="11" style="stroke:#A80036;stroke-width:1.0;"/><path d="M673.0969,202.6719 L673.0969,206.2969 L674.0969,206.2969 Q675.3,206.2969 675.7844,205.8906 Q676.2688,205.4844 676.2688,204.4844 Q676.2688,203.4844 675.7844,203.0781 Q675.3,202.6719 674.0969,202.6719 L673.0969,202.6719 Z M670.6438,200.6094 L674.0031,200.6094 Q676.5656,200.6094 677.6906,201.5313 Q678.8156,202.4375 678.8156,204.4844 Q678.8156,206.5313 677.6906,207.4531 Q676.5656,208.3594 674.0031,208.3594 L673.0969,208.3594 L673.0969,213 L670.6438,213 L670.6438,200.6094 Z " fill="#000000"/><text fill="#000000" font-family="sans-serif" font-size="12" lengthAdjust="spacing" textLength="66" x="689.7" y="211.1543">aria.Plugin</text><line style="stroke:#A80036;stroke-width:1.5;" x1="648.5" x2="768.5" y1="223" y2="223"/><ellipse cx="658.5" cy="250.8047" rx="3" ry="3" style="stroke:#038048;stroke-width:1.0;fill:none;"/><text fill="#000000" font-family="sans-serif" font-size="11" lengthAdjust="spacing" textLength="96" x="667.5" y="254.0151">version : version</text><line style="stroke:#A80036;stroke-width:1.0;stroke-dasharray:1.0,2.0;" x1="648.5" x2="679" y1="237.4023" y2="237.4023"/><text fill="#000000" font-family="sans-serif" font-size="11" lengthAdjust="spacing" textLength="59" x="679" y="240.7104">properties</text><line style="stroke:#A80036;stroke-width:1.0;stroke-dasharray:1.0,2.0;" x1="738" x2="768.5" y1="237.4023" y2="237.4023"/><!--MD5=[963c5f9960973725681f28006424f6a0]
reverse link tosca.nodes.Root to aria.serviceproxy.ServiceProxy--><path codeLine="9" d="M180,73.09 C189.06,90.39 200,111.29 210.82,131.98 " fill="none" id="tosca.nodes.Root-backto-aria.serviceproxy.ServiceProxy" style="stroke:#A80036;stroke-width:1.0;"/><polygon fill="none" points="173.75,76.25,170.68,55.28,186.16,69.75,173.75,76.25" style="stroke:#A80036;stroke-width:1.0;"/><!--MD5=[31048a5db3ca9e7a3edaa03486e0cf4a]
reverse link aria.serviceproxy.ServiceProxy to serviceproxy.waitconfig--><path codeLine="23" d="M259.5,333.23 C259.5,355.65 259.5,378.19 259.5,396.99 " fill="none" id="aria.serviceproxy.ServiceProxy-backto-serviceproxy.waitconfig" style="stroke:#A80036;stroke-width:1.0;"/><polygon fill="#A80036" points="259.5,320.07,255.5,326.07,259.5,332.07,263.5,326.07,259.5,320.07" style="stroke:#A80036;stroke-width:1.0;"/><text fill="#000000" font-family="sans-serif" font-size="13" lengthAdjust="spacing" textLength="70" x="260.5" y="363.0669">wait_config</text><text fill="#000000" font-family="sans-serif" font-size="13" lengthAdjust="spacing" textLength="8" x="250.9125" y="385.971">1</text><!--MD5=[bbf269c3f373f6f1a5814fe35517edc4]
reverse link tosca.interfaces.node.lifecycle.Standard to aria.serviceproxy.ServiceProxy--><path codeLine="25" d="M377.27,71.42 C363.76,89.04 347.21,110.63 330.83,131.98 " fill="none" id="tosca.interfaces.node.lifecycle.Standard-backto-aria.serviceproxy.ServiceProxy" style="stroke:#A80036;stroke-width:1.0;stroke-dasharray:7.0,7.0;"/><polygon fill="none" points="371.92,66.89,389.65,55.28,383.03,75.41,371.92,66.89" style="stroke:#A80036;stroke-width:1.0;"/><text fill="#000000" font-family="sans-serif" font-size="13" lengthAdjust="spacing" textLength="59" x="365.5" y="98.0669">Standard</text><!--MD5=[bd1f6a38cb2a20b2b8f31bc18610f2d2]
reverse link tosca.policies.Root to aria.Plugin--><path codeLine="27" d="M708.5,75.5 C708.5,110.42 708.5,158.76 708.5,190.91 " fill="none" id="tosca.policies.Root-backto-aria.Plugin" style="stroke:#A80036;stroke-width:1.0;"/><polygon fill="none" points="701.5,75.28,708.5,55.28,715.5,75.28,701.5,75.28" style="stroke:#A80036;stroke-width:1.0;"/><!--MD5=[63f35ed9e90b298ee9441a2904c7d791]
@startuml
set namespaceSeparator none
class "serviceproxy.waitconfig" << (D,green) >> {
.. properties ..
+wait_for_service : boolean
+wait_time : integer = 30
+wait_expression : string
}
class "tosca.nodes.Root" << (N,green) >> #DDDDDD
"tosca.nodes.Root" <|- - "aria.serviceproxy.ServiceProxy"
class "aria.serviceproxy.ServiceProxy" << (N,green) >> {
.. attributes ..
+<b>last_update : timestamp
+<b>service_outputs : map<string>
.. properties ..
+<b>service_name : string
+outputs : list<string>
+wait_config : serviceproxy.waitconfig = {'wait_for_service': False}
- -
.. interface Standard ..
+create()
 implementation: aria-service-proxy-plugin > aria_service_proxy.tasks.proxy_connect
}
"aria.serviceproxy.ServiceProxy" *- - "1" "serviceproxy.waitconfig" : wait_config
class "tosca.interfaces.node.lifecycle.Standard" << (I,green) >> #DDDDDD
"tosca.interfaces.node.lifecycle.Standard" <|.. "aria.serviceproxy.ServiceProxy" : Standard
class "tosca.policies.Root" << (P,green) >> #DDDDDD
"tosca.policies.Root" <|- - "aria.Plugin"
class "aria.Plugin" << (P,green) >> {
.. properties ..
+version : version
}
@enduml

PlantUML version 1.2021.13(Mon Nov 01 11:38:45 GMT 2021)
(GPL source distribution)
Java Runtime: OpenJDK Runtime Environment
JVM: OpenJDK 64-Bit Server VM
Default Encoding: UTF-8
Language: en
Country: US
--></g></svg>