<?xml version="1.0" encoding="UTF-8" standalone="no"?><svg xmlns="http://www.w3.org/2000/svg" xmlns:xlink="http://www.w3.org/1999/xlink" contentScriptType="application/ecmascript" contentStyleType="text/css" height="351px" preserveAspectRatio="none" style="width:686px;height:351px;background:#FFFFFF;" version="1.1" viewBox="0 0 686 351" width="686px" zoomAndPan="magnify"><defs><filter height="300%" id="f1haifrx4cby17" width="300%" x="-1" y="-1"><feGaussianBlur result="blurOut" stdDeviation="2.0"/><feColorMatrix in="blurOut" result="blurOut2" type="matrix" values="0 0 0 0 0 0 0 0 0 0 0 0 0 0 0 0 0 0 .4 0"/><feOffset dx="4.0" dy="4.0" in="blurOut2" result="blurOut3"/><feBlend in="SourceGraphic" in2="blurOut3" mode="normal"/></filter></defs><g><!--MD5=[27697265338c4c4e774e642814f1268f]
class tosca_nodes_SoftwareComponent_NT--><rect codeLine="2" fill="#DDDDDD" filter="url(#f1haifrx4cby17)" height="48" id="tosca_nodes_SoftwareComponent_NT" style="stroke:#A80036;stroke-width:1.5;" width="220" x="31.5" y="7"/><ellipse cx="46.5" cy="23" fill="#008000" rx="11" ry="11" style="stroke:#A80036;stroke-width:1.0;"/><path d="M42.4878,16.6069 L45.1191,16.6069 L48.5723,25.6133 L48.5723,16.6069 L50.7305,16.6069 L50.7305,29 L48.1157,29 L44.646,19.9937 L44.646,29 L42.4878,29 Z " fill="#000000"/><text fill="#000000" font-family="sans-serif" font-size="12" lengthAdjust="spacing" textLength="188" x="60.5" y="27.5352">tosca.nodes.SoftwareComponent</text><line style="stroke:#A80036;stroke-width:1.5;" x1="32.5" x2="250.5" y1="39" y2="39"/><line style="stroke:#A80036;stroke-width:1.5;" x1="32.5" x2="250.5" y1="47" y2="47"/><!--MD5=[5ea404912e12caf62e098b66367fcfd9]
class tosca_nodes_SoftwareComponent_Rsyslog_NT--><rect codeLine="3" fill="#FEFECE" filter="url(#f1haifrx4cby17)" height="95.8203" id="tosca_nodes_SoftwareComponent_Rsyslog_NT" style="stroke:#A80036;stroke-width:1.5;" width="269" x="7" y="116"/><ellipse cx="22.9" cy="132" fill="#008000" rx="11" ry="11" style="stroke:#A80036;stroke-width:1.0;"/><path d="M18.8878,125.6069 L21.5191,125.6069 L24.9723,134.6133 L24.9723,125.6069 L27.1305,125.6069 L27.1305,138 L24.5157,138 L21.046,128.9937 L21.046,138 L18.8878,138 Z " fill="#000000"/><text fill="#000000" font-family="sans-serif" font-size="12" lengthAdjust="spacing" textLength="235" x="37.1" y="136.5352">tosca.nodes.SoftwareComponent.Rsyslog</text><line style="stroke:#A80036;stroke-width:1.5;" x1="8" x2="275" y1="148" y2="148"/><ellipse cx="18" cy="175.9551" rx="3" ry="3" style="stroke:#038048;stroke-width:1.0;fill:none;"/><text fill="#000000" font-family="sans-serif" font-size="11" font-weight="bold" lengthAdjust="spacing" textLength="96" x="27" y="179.5898">rsyslog_endpoint</text><text fill="#000000" font-family="sans-serif" font-size="11" lengthAdjust="spacing" textLength="218" x="27" y="192.5449">capability : tosca.capabilities.Endpoint[1]</text><text fill="#000000" font-family="sans-serif" font-size="11" lengthAdjust="spacing" textLength="243" x="27" y="205.5">relationship : tosca.relationships.ConnectsTo</text><line style="stroke:#A80036;stroke-width:1.0;stroke-dasharray:1.0,2.0;" x1="8" x2="105.5" y1="162.4775" y2="162.4775"/><text fill="#000000" font-family="sans-serif" font-size="11" lengthAdjust="spacing" textLength="72" x="105.5" y="166.1348">requirements</text><line style="stroke:#A80036;stroke-width:1.0;stroke-dasharray:1.0,2.0;" x1="177.5" x2="275" y1="162.4775" y2="162.4775"/><!--MD5=[bd814c571e11a2214592d85e7995d8fb]
class tosca_capabilities_Endpoint_CT--><rect codeLine="9" fill="#DDDDDD" filter="url(#f1haifrx4cby17)" height="48" id="tosca_capabilities_Endpoint_CT" style="stroke:#A80036;stroke-width:1.5;" width="186" x="486.5" y="140"/><ellipse cx="501.5" cy="156" fill="#008000" rx="11" ry="11" style="stroke:#A80036;stroke-width:1.0;"/><path d="M504.4731,161.6431 Q503.8921,161.9419 503.2529,162.0913 Q502.6138,162.2407 501.9082,162.2407 Q499.4014,162.2407 498.0815,160.5889 Q496.7617,158.937 496.7617,155.8159 Q496.7617,152.6865 498.0815,151.0347 Q499.4014,149.3828 501.9082,149.3828 Q502.6138,149.3828 503.2612,149.5322 Q503.9087,149.6816 504.4731,149.9805 L504.4731,152.7031 Q503.8423,152.1221 503.2488,151.8523 Q502.6553,151.5825 502.0244,151.5825 Q500.6797,151.5825 499.9949,152.6492 Q499.3101,153.7158 499.3101,155.8159 Q499.3101,157.9077 499.9949,158.9744 Q500.6797,160.041 502.0244,160.041 Q502.6553,160.041 503.2488,159.7712 Q503.8423,159.5015 504.4731,158.9204 Z " fill="#000000"/><text fill="#000000" font-family="sans-serif" font-size="12" lengthAdjust="spacing" textLength="154" x="515.5" y="160.5352">tosca.capabilities.Endpoint</text><line style="stroke:#A80036;stroke-width:1.5;" x1="487.5" x2="671.5" y1="172" y2="172"/><line style="stroke:#A80036;stroke-width:1.5;" x1="487.5" x2="671.5" y1="180" y2="180"/><!--MD5=[73ef529cb74862cd16c9ea7608a24b08]
class tosca_relationships_ConnectsTo_RT--><rect codeLine="10" fill="#DDDDDD" filter="url(#f1haifrx4cby17)" height="48" id="tosca_relationships_ConnectsTo_RT" style="stroke:#A80036;stroke-width:1.5;" width="210" x="36.5" y="289"/><ellipse cx="51.5" cy="305" fill="#008000" rx="11" ry="11" style="stroke:#A80036;stroke-width:1.0;"/><path d="M52.6987,305.1479 Q53.064,305.2227 53.3337,305.4924 Q53.6035,305.7622 53.9937,306.5425 L56.2349,311 L53.5454,311 L52.0513,307.8706 Q51.9849,307.7378 51.877,307.5054 Q51.2212,306.1025 50.333,306.1025 L49.5527,306.1025 L49.5527,311 L47.104,311 L47.104,298.6069 L50.6401,298.6069 Q53.0308,298.6069 54.0725,299.4536 Q55.1143,300.3003 55.1143,302.2095 Q55.1143,303.4878 54.4917,304.2432 Q53.8691,304.9985 52.6987,305.1479 Z M49.5527,300.6655 L49.5527,304.0439 L50.7065,304.0439 Q51.7109,304.0439 52.1467,303.6497 Q52.5825,303.2554 52.5825,302.3506 Q52.5825,301.4458 52.1509,301.0557 Q51.7192,300.6655 50.7065,300.6655 Z " fill="#000000"/><text fill="#000000" font-family="sans-serif" font-size="12" lengthAdjust="spacing" textLength="178" x="65.5" y="309.5352">tosca.relationships.ConnectsTo</text><line style="stroke:#A80036;stroke-width:1.5;" x1="37.5" x2="245.5" y1="321" y2="321"/><line style="stroke:#A80036;stroke-width:1.5;" x1="37.5" x2="245.5" y1="329" y2="329"/><!--MD5=[b2ccb904635e87f79e03e610bf89209e]
reverse link tosca_nodes_SoftwareComponent_NT to tosca_nodes_SoftwareComponent_Rsyslog_NT--><path codeLine="11" d="M141.5,75.3496 C141.5,88.3499 141.5,102.6253 141.5,115.8503 " fill="none" id="tosca_nodes_SoftwareComponent_NT-backto-tosca_nodes_SoftwareComponent_Rsyslog_NT" style="stroke:#A80036;stroke-width:1.0;"/><polygon fill="none" points="134.5001,75.0853,141.5,55.0853,148.5001,75.0853,134.5001,75.0853" style="stroke:#A80036;stroke-width:1.0;"/><!--MD5=[3456d30942127ae63c161de6515577c8]
reverse link tosca_nodes_SoftwareComponent_Rsyslog_NT to tosca_capabilities_Endpoint_CT--><path codeLine="12" d="M289.5152,164 C354.6793,164 429.2452,164 486.4456,164 " fill="none" id="tosca_nodes_SoftwareComponent_Rsyslog_NT-backto-tosca_capabilities_Endpoint_CT" style="stroke:#A80036;stroke-width:1.0;"/><polygon fill="#A80036" points="276.1896,164,282.1896,168,288.1896,164,282.1896,160,276.1896,164" style="stroke:#A80036;stroke-width:1.0;"/><text fill="#000000" font-family="sans-serif" font-size="13" lengthAdjust="spacing" textLength="174" x="294.25" y="157.5684">rsyslog_endpoint.capability</text><text fill="#000000" font-family="sans-serif" font-size="13" lengthAdjust="spacing" textLength="8" x="470.4083" y="160.9601">1</text><!--MD5=[a5426e0c7b0fef58a3dc799353cd86fa]
link tosca_nodes_SoftwareComponent_Rsyslog_NT to tosca_relationships_ConnectsTo_RT--><path codeLine="13" d="M141.5,212.376 C141.5,235.7773 141.5,263.1159 141.5,283.3862 " fill="none" id="tosca_nodes_SoftwareComponent_Rsyslog_NT-to-tosca_relationships_ConnectsTo_RT" style="stroke:#A80036;stroke-width:1.0;stroke-dasharray:7.0,7.0;"/><polygon fill="#A80036" points="141.5,288.6432,145.5,279.6432,141.5,283.6432,137.5,279.6432,141.5,288.6432" style="stroke:#A80036;stroke-width:1.0;"/><text fill="#000000" font-family="sans-serif" font-size="13" lengthAdjust="spacing" textLength="188" x="142.5" y="255.5684">rsyslog_endpoint.relationship</text><!--MD5=[3fc49b9ce8b274ac48dfe1948a8b1297]
@startuml
set namespaceSeparator none
class "tosca.nodes.SoftwareComponent" as tosca_nodes_SoftwareComponent_NT << (N,green) >> #DDDDDD
class "tosca.nodes.SoftwareComponent.Rsyslog" as tosca_nodes_SoftwareComponent_Rsyslog_NT << (N,green) >> {
.. requirements ..
+<b>rsyslog_endpoint
 capability : tosca.capabilities.Endpoint[1]
 relationship : tosca.relationships.ConnectsTo
}
class "tosca.capabilities.Endpoint" as tosca_capabilities_Endpoint_CT << (C,green) >> #DDDDDD
class "tosca.relationships.ConnectsTo" as tosca_relationships_ConnectsTo_RT << (R,green) >> #DDDDDD
tosca_nodes_SoftwareComponent_NT <|- - tosca_nodes_SoftwareComponent_Rsyslog_NT
tosca_nodes_SoftwareComponent_Rsyslog_NT *- "1" tosca_capabilities_Endpoint_CT : rsyslog_endpoint.capability
tosca_nodes_SoftwareComponent_Rsyslog_NT ..> tosca_relationships_ConnectsTo_RT : rsyslog_endpoint.relationship
@enduml

PlantUML version 1.2021.13(Mon Nov 01 12:38:45 CET 2021)
(GPL source distribution)
Java Runtime: Java(TM) SE Runtime Environment
JVM: Java HotSpot(TM) 64-Bit Server VM
Default Encoding: UTF-8
Language: fr
Country: FR
--></g></svg>