<?xml version="1.0" encoding="UTF-8" standalone="no"?><svg xmlns="http://www.w3.org/2000/svg" xmlns:xlink="http://www.w3.org/1999/xlink" contentScriptType="application/ecmascript" contentStyleType="text/css" height="351px" preserveAspectRatio="none" style="width:621px;height:351px;background:#FFFFFF;" version="1.1" viewBox="0 0 621 351" width="621px" zoomAndPan="magnify"><defs><filter height="300%" id="f11qdnk91gc6lg" width="300%" x="-1" y="-1"><feGaussianBlur result="blurOut" stdDeviation="2.0"/><feColorMatrix in="blurOut" result="blurOut2" type="matrix" values="0 0 0 0 0 0 0 0 0 0 0 0 0 0 0 0 0 0 .4 0"/><feOffset dx="4.0" dy="4.0" in="blurOut2" result="blurOut3"/><feBlend in="SourceGraphic" in2="blurOut3" mode="normal"/></filter></defs><g><!--MD5=[adb3a1d2cf60865428cb4b4378782fa3]
class tosca.nodes.SoftwareComponent--><rect codeLine="2" fill="#DDDDDD" filter="url(#f11qdnk91gc6lg)" height="48" id="tosca.nodes.SoftwareComponent" style="stroke:#A80036;stroke-width:1.5;" width="220" x="31.5" y="7"/><ellipse cx="46.5" cy="23" fill="#008000" rx="11" ry="11" style="stroke:#A80036;stroke-width:1.0;"/><path d="M42.4878,16.6069 L45.1191,16.6069 L48.5723,25.6133 L48.5723,16.6069 L50.7305,16.6069 L50.7305,29 L48.1157,29 L44.646,19.9937 L44.646,29 L42.4878,29 Z " fill="#000000"/><text fill="#000000" font-family="sans-serif" font-size="12" lengthAdjust="spacing" textLength="188" x="60.5" y="27.5352">tosca.nodes.SoftwareComponent</text><line style="stroke:#A80036;stroke-width:1.5;" x1="32.5" x2="250.5" y1="39" y2="39"/><line style="stroke:#A80036;stroke-width:1.5;" x1="32.5" x2="250.5" y1="47" y2="47"/><!--MD5=[1ac43406cc088856a2e21bec91ff44e5]
class tosca.nodes.SoftwareComponent.Rsyslog--><rect codeLine="4" fill="#FEFECE" filter="url(#f11qdnk91gc6lg)" height="95.8203" id="tosca.nodes.SoftwareComponent.Rsyslog" style="stroke:#A80036;stroke-width:1.5;" width="269" x="7" y="116"/><ellipse cx="22.9" cy="132" fill="#008000" rx="11" ry="11" style="stroke:#A80036;stroke-width:1.0;"/><path d="M18.8878,125.6069 L21.5191,125.6069 L24.9723,134.6133 L24.9723,125.6069 L27.1305,125.6069 L27.1305,138 L24.5157,138 L21.046,128.9937 L21.046,138 L18.8878,138 Z " fill="#000000"/><text fill="#000000" font-family="sans-serif" font-size="12" lengthAdjust="spacing" textLength="235" x="37.1" y="136.5352">tosca.nodes.SoftwareComponent.Rsyslog</text><line style="stroke:#A80036;stroke-width:1.5;" x1="8" x2="275" y1="148" y2="148"/><ellipse cx="18" cy="175.9551" rx="3" ry="3" style="stroke:#038048;stroke-width:1.0;fill:none;"/><text fill="#000000" font-family="sans-serif" font-size="11" font-weight="bold" lengthAdjust="spacing" textLength="96" x="27" y="179.5898">rsyslog_endpoint</text><text fill="#000000" font-family="sans-serif" font-size="11" lengthAdjust="spacing" textLength="218" x="27" y="192.5449">capability : tosca.capabilities.Endpoint[1]</text><text fill="#000000" font-family="sans-serif" font-size="11" lengthAdjust="spacing" textLength="243" x="27" y="205.5">relationship : tosca.relationships.ConnectsTo</text><line style="stroke:#A80036;stroke-width:1.0;stroke-dasharray:1.0,2.0;" x1="8" x2="105.5" y1="162.4775" y2="162.4775"/><text fill="#000000" font-family="sans-serif" font-size="11" lengthAdjust="spacing" textLength="72" x="105.5" y="166.1348">requirements</text><line style="stroke:#A80036;stroke-width:1.0;stroke-dasharray:1.0,2.0;" x1="177.5" x2="275" y1="162.4775" y2="162.4775"/><!--MD5=[2beb2447f73f446132538adcfbc9879b]
class tosca.capabilities.Endpoint--><rect codeLine="10" fill="#DDDDDD" filter="url(#f11qdnk91gc6lg)" height="48" id="tosca.capabilities.Endpoint" style="stroke:#A80036;stroke-width:1.5;" width="186" x="421.5" y="140"/><ellipse cx="436.5" cy="156" fill="#008000" rx="11" ry="11" style="stroke:#A80036;stroke-width:1.0;"/><path d="M439.4731,161.6431 Q438.8921,161.9419 438.2529,162.0913 Q437.6138,162.2407 436.9082,162.2407 Q434.4014,162.2407 433.0815,160.5889 Q431.7617,158.937 431.7617,155.8159 Q431.7617,152.6865 433.0815,151.0347 Q434.4014,149.3828 436.9082,149.3828 Q437.6138,149.3828 438.2612,149.5322 Q438.9087,149.6816 439.4731,149.9805 L439.4731,152.7031 Q438.8423,152.1221 438.2488,151.8523 Q437.6553,151.5825 437.0244,151.5825 Q435.6797,151.5825 434.9949,152.6492 Q434.3101,153.7158 434.3101,155.8159 Q434.3101,157.9077 434.9949,158.9744 Q435.6797,160.041 437.0244,160.041 Q437.6553,160.041 438.2488,159.7712 Q438.8423,159.5015 439.4731,158.9204 Z " fill="#000000"/><text fill="#000000" font-family="sans-serif" font-size="12" lengthAdjust="spacing" textLength="154" x="450.5" y="160.5352">tosca.capabilities.Endpoint</text><line style="stroke:#A80036;stroke-width:1.5;" x1="422.5" x2="606.5" y1="172" y2="172"/><line style="stroke:#A80036;stroke-width:1.5;" x1="422.5" x2="606.5" y1="180" y2="180"/><!--MD5=[092ea08713e9f0a14d7fdee487f2ff56]
class tosca.relationships.ConnectsTo--><rect codeLine="12" fill="#DDDDDD" filter="url(#f11qdnk91gc6lg)" height="48" id="tosca.relationships.ConnectsTo" style="stroke:#A80036;stroke-width:1.5;" width="210" x="36.5" y="289"/><ellipse cx="51.5" cy="305" fill="#008000" rx="11" ry="11" style="stroke:#A80036;stroke-width:1.0;"/><path d="M52.6987,305.1479 Q53.064,305.2227 53.3337,305.4924 Q53.6035,305.7622 53.9937,306.5425 L56.2349,311 L53.5454,311 L52.0513,307.8706 Q51.9849,307.7378 51.877,307.5054 Q51.2212,306.1025 50.333,306.1025 L49.5527,306.1025 L49.5527,311 L47.104,311 L47.104,298.6069 L50.6401,298.6069 Q53.0308,298.6069 54.0725,299.4536 Q55.1143,300.3003 55.1143,302.2095 Q55.1143,303.4878 54.4917,304.2432 Q53.8691,304.9985 52.6987,305.1479 Z M49.5527,300.6655 L49.5527,304.0439 L50.7065,304.0439 Q51.7109,304.0439 52.1467,303.6497 Q52.5825,303.2554 52.5825,302.3506 Q52.5825,301.4458 52.1509,301.0557 Q51.7192,300.6655 50.7065,300.6655 Z " fill="#000000"/><text fill="#000000" font-family="sans-serif" font-size="12" lengthAdjust="spacing" textLength="178" x="65.5" y="309.5352">tosca.relationships.ConnectsTo</text><line style="stroke:#A80036;stroke-width:1.5;" x1="37.5" x2="245.5" y1="321" y2="321"/><line style="stroke:#A80036;stroke-width:1.5;" x1="37.5" x2="245.5" y1="329" y2="329"/><!--MD5=[6497a22bea3438c991e9f2ffa6385558]
reverse link tosca.nodes.SoftwareComponent to tosca.nodes.SoftwareComponent.Rsyslog--><path codeLine="3" d="M141.5,75.3496 C141.5,88.3499 141.5,102.6253 141.5,115.8503 " fill="none" id="tosca.nodes.SoftwareComponent-backto-tosca.nodes.SoftwareComponent.Rsyslog" style="stroke:#A80036;stroke-width:1.0;"/><polygon fill="none" points="134.5001,75.0853,141.5,55.0853,148.5001,75.0853,134.5001,75.0853" style="stroke:#A80036;stroke-width:1.0;"/><!--MD5=[53c879a1915f41fd0277c6b371a9a2ff]
reverse link tosca.nodes.SoftwareComponent.Rsyslog to tosca.capabilities.Endpoint--><path codeLine="11" d="M289.2651,164 C333.8536,164 381.5322,164 421.4886,164 " fill="none" id="tosca.nodes.SoftwareComponent.Rsyslog-backto-tosca.capabilities.Endpoint" style="stroke:#A80036;stroke-width:1.0;"/><polygon fill="#A80036" points="276.1616,164,282.1616,168,288.1616,164,282.1616,160,276.1616,164" style="stroke:#A80036;stroke-width:1.0;"/><text fill="#000000" font-family="sans-serif" font-size="13" lengthAdjust="spacing" textLength="109" x="294.25" y="157.5684">rsyslog_endpoint</text><text fill="#000000" font-family="sans-serif" font-size="13" lengthAdjust="spacing" textLength="8" x="405.4548" y="160.9601">1</text><!--MD5=[adbbcc10ae3a55046ea595c9a46eba74]
link tosca.nodes.SoftwareComponent.Rsyslog to tosca.relationships.ConnectsTo--><path codeLine="13" d="M141.5,212.376 C141.5,235.7773 141.5,263.1159 141.5,283.3862 " fill="none" id="tosca.nodes.SoftwareComponent.Rsyslog-to-tosca.relationships.ConnectsTo" style="stroke:#A80036;stroke-width:1.0;stroke-dasharray:7.0,7.0;"/><polygon fill="#A80036" points="141.5,288.6432,145.5,279.6432,141.5,283.6432,137.5,279.6432,141.5,288.6432" style="stroke:#A80036;stroke-width:1.0;"/><text fill="#000000" font-family="sans-serif" font-size="13" lengthAdjust="spacing" textLength="188" x="142.5" y="255.5684">rsyslog_endpoint.relationship</text><!--MD5=[7f3bbc8eece084c383e63278a7b0e4d1]
@startuml
set namespaceSeparator none
class "tosca.nodes.SoftwareComponent" << (N,green) >> #DDDDDD
"tosca.nodes.SoftwareComponent" <|- - "tosca.nodes.SoftwareComponent.Rsyslog"
class "tosca.nodes.SoftwareComponent.Rsyslog" << (N,green) >> {
.. requirements ..
+<b>rsyslog_endpoint
 capability : tosca.capabilities.Endpoint[1]
 relationship : tosca.relationships.ConnectsTo
}
class "tosca.capabilities.Endpoint" << (C,green) >> #DDDDDD
"tosca.nodes.SoftwareComponent.Rsyslog" *- "1" "tosca.capabilities.Endpoint" : rsyslog_endpoint
class "tosca.relationships.ConnectsTo" << (R,green) >> #DDDDDD
"tosca.nodes.SoftwareComponent.Rsyslog" ..> "tosca.relationships.ConnectsTo" : rsyslog_endpoint.relationship
@enduml

PlantUML version 1.2021.13(Mon Nov 01 12:38:45 CET 2021)
(GPL source distribution)
Java Runtime: Java(TM) SE Runtime Environment
JVM: Java HotSpot(TM) 64-Bit Server VM
Default Encoding: UTF-8
Language: fr
Country: FR
--></g></svg>