<?xml version="1.0" encoding="UTF-8" standalone="no"?><svg xmlns="http://www.w3.org/2000/svg" xmlns:xlink="http://www.w3.org/1999/xlink" contentScriptType="application/ecmascript" contentStyleType="text/css" height="350px" preserveAspectRatio="none" style="width:660px;height:350px;background:#FFFFFF;" version="1.1" viewBox="0 0 660 350" width="660px" zoomAndPan="magnify"><defs><filter height="300%" id="f11qdnk91gc6lg" width="300%" x="-1" y="-1"><feGaussianBlur result="blurOut" stdDeviation="2.0"/><feColorMatrix in="blurOut" result="blurOut2" type="matrix" values="0 0 0 0 0 0 0 0 0 0 0 0 0 0 0 0 0 0 .4 0"/><feOffset dx="4.0" dy="4.0" in="blurOut2" result="blurOut3"/><feBlend in="SourceGraphic" in2="blurOut3" mode="normal"/></filter></defs><g><!--MD5=[adb3a1d2cf60865428cb4b4378782fa3]
class tosca.nodes.SoftwareComponent--><rect codeLine="2" fill="#DDDDDD" filter="url(#f11qdnk91gc6lg)" height="48" id="tosca.nodes.SoftwareComponent" style="stroke:#A80036;stroke-width:1.5;" width="241" x="32.5" y="7"/><ellipse cx="47.5" cy="23" fill="#008000" rx="11" ry="11" style="stroke:#A80036;stroke-width:1.0;"/><path d="M43.4844,16.6094 L46.125,16.6094 L49.5781,25.6094 L49.5781,16.6094 L51.7344,16.6094 L51.7344,29 L49.1094,29 L45.6406,20 L45.6406,29 L43.4844,29 L43.4844,16.6094 Z " fill="#000000"/><text fill="#000000" font-family="sans-serif" font-size="12" lengthAdjust="spacing" textLength="209" x="61.5" y="27.1543">tosca.nodes.SoftwareComponent</text><line style="stroke:#A80036;stroke-width:1.5;" x1="33.5" x2="272.5" y1="39" y2="39"/><line style="stroke:#A80036;stroke-width:1.5;" x1="33.5" x2="272.5" y1="47" y2="47"/><!--MD5=[1ac43406cc088856a2e21bec91ff44e5]
class tosca.nodes.SoftwareComponent.Rsyslog--><rect codeLine="4" fill="#FEFECE" filter="url(#f11qdnk91gc6lg)" height="95.2188" id="tosca.nodes.SoftwareComponent.Rsyslog" style="stroke:#A80036;stroke-width:1.5;" width="292" x="7" y="116"/><ellipse cx="22" cy="132" fill="#008000" rx="11" ry="11" style="stroke:#A80036;stroke-width:1.0;"/><path d="M17.9844,125.6094 L20.625,125.6094 L24.0781,134.6094 L24.0781,125.6094 L26.2344,125.6094 L26.2344,138 L23.6094,138 L20.1406,129 L20.1406,138 L17.9844,138 L17.9844,125.6094 Z " fill="#000000"/><text fill="#000000" font-family="sans-serif" font-size="12" lengthAdjust="spacing" textLength="260" x="36" y="136.1543">tosca.nodes.SoftwareComponent.Rsyslog</text><line style="stroke:#A80036;stroke-width:1.5;" x1="8" x2="298" y1="148" y2="148"/><ellipse cx="18" cy="175.8047" rx="3" ry="3" style="stroke:#038048;stroke-width:1.0;fill:none;"/><text fill="#000000" font-family="sans-serif" font-size="11" font-weight="bold" lengthAdjust="spacing" textLength="109" x="27" y="179.0151">rsyslog_endpoint</text><text fill="#000000" font-family="sans-serif" font-size="11" lengthAdjust="spacing" textLength="232" x="27" y="191.8198">capability : tosca.capabilities.Endpoint[1]</text><text fill="#000000" font-family="sans-serif" font-size="11" lengthAdjust="spacing" textLength="259" x="27" y="204.6245">relationship : tosca.relationships.ConnectsTo</text><line style="stroke:#A80036;stroke-width:1.0;stroke-dasharray:1.0,2.0;" x1="8" x2="114.5" y1="162.4023" y2="162.4023"/><text fill="#000000" font-family="sans-serif" font-size="11" lengthAdjust="spacing" textLength="77" x="114.5" y="165.7104">requirements</text><line style="stroke:#A80036;stroke-width:1.0;stroke-dasharray:1.0,2.0;" x1="191.5" x2="298" y1="162.4023" y2="162.4023"/><!--MD5=[2beb2447f73f446132538adcfbc9879b]
class tosca.capabilities.Endpoint--><rect codeLine="10" fill="#DDDDDD" filter="url(#f11qdnk91gc6lg)" height="48" id="tosca.capabilities.Endpoint" style="stroke:#A80036;stroke-width:1.5;" width="202" x="444" y="139.5"/><ellipse cx="459" cy="155.5" fill="#008000" rx="11" ry="11" style="stroke:#A80036;stroke-width:1.0;"/><path d="M461.9688,161.1406 Q461.3906,161.4375 460.75,161.5781 Q460.1094,161.7344 459.4063,161.7344 Q456.9063,161.7344 455.5781,160.0938 Q454.2656,158.4375 454.2656,155.3125 Q454.2656,152.1875 455.5781,150.5313 Q456.9063,148.875 459.4063,148.875 Q460.1094,148.875 460.75,149.0313 Q461.4063,149.1875 461.9688,149.4844 L461.9688,152.2031 Q461.3438,151.625 460.75,151.3594 Q460.1563,151.0781 459.5313,151.0781 Q458.1875,151.0781 457.5,152.1563 Q456.8125,153.2188 456.8125,155.3125 Q456.8125,157.4063 457.5,158.4844 Q458.1875,159.5469 459.5313,159.5469 Q460.1563,159.5469 460.75,159.2813 Q461.3438,159 461.9688,158.4219 L461.9688,161.1406 Z " fill="#000000"/><text fill="#000000" font-family="sans-serif" font-size="12" lengthAdjust="spacing" textLength="170" x="473" y="159.6543">tosca.capabilities.Endpoint</text><line style="stroke:#A80036;stroke-width:1.5;" x1="445" x2="645" y1="171.5" y2="171.5"/><line style="stroke:#A80036;stroke-width:1.5;" x1="445" x2="645" y1="179.5" y2="179.5"/><!--MD5=[092ea08713e9f0a14d7fdee487f2ff56]
class tosca.relationships.ConnectsTo--><rect codeLine="12" fill="#DDDDDD" filter="url(#f11qdnk91gc6lg)" height="48" id="tosca.relationships.ConnectsTo" style="stroke:#A80036;stroke-width:1.5;" width="230" x="38" y="288"/><ellipse cx="53" cy="304" fill="#008000" rx="11" ry="11" style="stroke:#A80036;stroke-width:1.0;"/><path d="M54.2031,304.1406 Q54.5625,304.2188 54.8281,304.5 Q55.1094,304.7656 55.5,305.5469 L57.7344,310 L55.0469,310 L53.5469,306.875 Q53.4844,306.7344 53.375,306.5 Q52.7188,305.1094 51.8281,305.1094 L51.0469,305.1094 L51.0469,310 L48.6094,310 L48.6094,297.6094 L52.1406,297.6094 Q54.5313,297.6094 55.5625,298.4531 Q56.6094,299.2969 56.6094,301.2031 Q56.6094,302.4844 55.9844,303.25 Q55.375,304 54.2031,304.1406 Z M51.0469,299.6719 L51.0469,303.0469 L52.2031,303.0469 Q53.2188,303.0469 53.6406,302.6563 Q54.0781,302.25 54.0781,301.3438 Q54.0781,300.4531 53.6406,300.0625 Q53.2188,299.6719 52.2031,299.6719 L51.0469,299.6719 Z " fill="#000000"/><text fill="#000000" font-family="sans-serif" font-size="12" lengthAdjust="spacing" textLength="198" x="67" y="308.1543">tosca.relationships.ConnectsTo</text><line style="stroke:#A80036;stroke-width:1.5;" x1="39" x2="267" y1="320" y2="320"/><line style="stroke:#A80036;stroke-width:1.5;" x1="39" x2="267" y1="328" y2="328"/><!--MD5=[6497a22bea3438c991e9f2ffa6385558]
reverse link tosca.nodes.SoftwareComponent to tosca.nodes.SoftwareComponent.Rsyslog--><path codeLine="3" d="M153,75.29 C153,88.32 153,102.68 153,115.92 " fill="none" id="tosca.nodes.SoftwareComponent-backto-tosca.nodes.SoftwareComponent.Rsyslog" style="stroke:#A80036;stroke-width:1.0;"/><polygon fill="none" points="146,75.03,153,55.03,160,75.03,146,75.03" style="stroke:#A80036;stroke-width:1.0;"/><!--MD5=[53c879a1915f41fd0277c6b371a9a2ff]
reverse link tosca.nodes.SoftwareComponent.Rsyslog to tosca.capabilities.Endpoint--><path codeLine="11" d="M312.33,163.5 C356.8,163.5 403.88,163.5 443.98,163.5 " fill="none" id="tosca.nodes.SoftwareComponent.Rsyslog-backto-tosca.capabilities.Endpoint" style="stroke:#A80036;stroke-width:1.0;"/><polygon fill="#A80036" points="299.25,163.5,305.2544,167.4934,311.25,163.4868,305.2456,159.4934,299.25,163.5" style="stroke:#A80036;stroke-width:1.0;"/><text fill="#000000" font-family="sans-serif" font-size="13" lengthAdjust="spacing" textLength="108" x="317.5" y="156.5669">rsyslog_endpoint</text><text fill="#000000" font-family="sans-serif" font-size="13" lengthAdjust="spacing" textLength="8" x="427.9394" y="159.9978">1</text><!--MD5=[adbbcc10ae3a55046ea595c9a46eba74]
link tosca.nodes.SoftwareComponent.Rsyslog to tosca.relationships.ConnectsTo--><path codeLine="13" d="M153,211.26 C153,234.78 153,262.51 153,282.76 " fill="none" id="tosca.nodes.SoftwareComponent.Rsyslog-to-tosca.relationships.ConnectsTo" style="stroke:#A80036;stroke-width:1.0;stroke-dasharray:7.0,7.0;"/><polygon fill="#A80036" points="153,288,157,279,153,283,149,279,153,288" style="stroke:#A80036;stroke-width:1.0;"/><text fill="#000000" font-family="sans-serif" font-size="13" lengthAdjust="spacing" textLength="186" x="154" y="254.0669">rsyslog_endpoint.relationship</text><!--MD5=[b018a5ca3fa08fa4024175afa3de9530]
@startuml
set namespaceSeparator none
class "tosca.nodes.SoftwareComponent" << (N,green) >> #DDDDDD
"tosca.nodes.SoftwareComponent" <|- - "tosca.nodes.SoftwareComponent.Rsyslog"
class "tosca.nodes.SoftwareComponent.Rsyslog" << (N,green) >> {
.. requirements ..
+<b>rsyslog_endpoint
 capability : tosca.capabilities.Endpoint[1]
 relationship : tosca.relationships.ConnectsTo
}
class "tosca.capabilities.Endpoint" << (C,green) >> #DDDDDD
"tosca.nodes.SoftwareComponent.Rsyslog" *- "1" "tosca.capabilities.Endpoint" : rsyslog_endpoint
class "tosca.relationships.ConnectsTo" << (R,green) >> #DDDDDD
"tosca.nodes.SoftwareComponent.Rsyslog" ..> "tosca.relationships.ConnectsTo" : rsyslog_endpoint.relationship
@enduml

PlantUML version 1.2021.13(Mon Nov 01 11:38:45 GMT 2021)
(GPL source distribution)
Java Runtime: OpenJDK Runtime Environment
JVM: OpenJDK 64-Bit Server VM
Default Encoding: UTF-8
Language: en
Country: US
--></g></svg>