<?xml version="1.0" encoding="UTF-8" standalone="no"?><svg xmlns="http://www.w3.org/2000/svg" xmlns:xlink="http://www.w3.org/1999/xlink" contentScriptType="application/ecmascript" contentStyleType="text/css" height="242px" preserveAspectRatio="none" style="width:437px;height:242px;background:#FFFFFF;" version="1.1" viewBox="0 0 437 242" width="437px" zoomAndPan="magnify"><defs><filter height="300%" id="f11doamrpln226" width="300%" x="-1" y="-1"><feGaussianBlur result="blurOut" stdDeviation="2.0"/><feColorMatrix in="blurOut" result="blurOut2" type="matrix" values="0 0 0 0 0 0 0 0 0 0 0 0 0 0 0 0 0 0 .4 0"/><feOffset dx="4.0" dy="4.0" in="blurOut2" result="blurOut3"/><feBlend in="SourceGraphic" in2="blurOut3" mode="normal"/></filter></defs><g><!--MD5=[e2e64afa185dc610a81d4d935ee3e9dd]
class tosca_capabilities_Root_CT--><rect codeLine="2" fill="#DDDDDD" filter="url(#f11doamrpln226)" height="48" id="tosca_capabilities_Root_CT" style="stroke:#A80036;stroke-width:1.5;" width="161" x="7" y="7"/><ellipse cx="22" cy="23" fill="#008000" rx="11" ry="11" style="stroke:#A80036;stroke-width:1.0;"/><path d="M24.9731,28.6431 Q24.3921,28.9419 23.7529,29.0913 Q23.1138,29.2407 22.4082,29.2407 Q19.9014,29.2407 18.5815,27.5889 Q17.2617,25.937 17.2617,22.8159 Q17.2617,19.6865 18.5815,18.0347 Q19.9014,16.3828 22.4082,16.3828 Q23.1138,16.3828 23.7612,16.5322 Q24.4087,16.6816 24.9731,16.9805 L24.9731,19.7031 Q24.3423,19.1221 23.7488,18.8523 Q23.1553,18.5825 22.5244,18.5825 Q21.1797,18.5825 20.4949,19.6492 Q19.8101,20.7158 19.8101,22.8159 Q19.8101,24.9077 20.4949,25.9744 Q21.1797,27.041 22.5244,27.041 Q23.1553,27.041 23.7488,26.7712 Q24.3423,26.5015 24.9731,25.9204 Z " fill="#000000"/><text fill="#000000" font-family="sans-serif" font-size="12" lengthAdjust="spacing" textLength="129" x="36" y="27.5352">tosca.capabilities.Root</text><line style="stroke:#A80036;stroke-width:1.5;" x1="8" x2="167" y1="39" y2="39"/><line style="stroke:#A80036;stroke-width:1.5;" x1="8" x2="167" y1="47" y2="47"/><!--MD5=[0ec478164eb06de7bfa62292a275142c]
class smtp_SMTP_CT--><rect codeLine="3" fill="#FEFECE" filter="url(#f11doamrpln226)" height="82.8652" id="smtp_SMTP_CT" style="stroke:#A80036;stroke-width:1.5;" width="124" x="29.5" y="131"/><ellipse cx="57.1" cy="147" fill="#008000" rx="11" ry="11" style="stroke:#A80036;stroke-width:1.0;"/><path d="M60.0731,152.6431 Q59.4921,152.9419 58.8529,153.0913 Q58.2138,153.2407 57.5082,153.2407 Q55.0014,153.2407 53.6815,151.5889 Q52.3617,149.937 52.3617,146.8159 Q52.3617,143.6865 53.6815,142.0347 Q55.0014,140.3828 57.5082,140.3828 Q58.2138,140.3828 58.8612,140.5322 Q59.5087,140.6816 60.0731,140.9805 L60.0731,143.7031 Q59.4423,143.1221 58.8488,142.8523 Q58.2553,142.5825 57.6244,142.5825 Q56.2797,142.5825 55.5949,143.6492 Q54.9101,144.7158 54.9101,146.8159 Q54.9101,148.9077 55.5949,149.9744 Q56.2797,151.041 57.6244,151.041 Q58.2553,151.041 58.8488,150.7712 Q59.4423,150.5015 60.0731,149.9204 Z " fill="#000000"/><text fill="#000000" font-family="sans-serif" font-size="12" lengthAdjust="spacing" textLength="64" x="73.9" y="151.5352">smtp.SMTP</text><line style="stroke:#A80036;stroke-width:1.5;" x1="30.5" x2="152.5" y1="163" y2="163"/><ellipse cx="40.5" cy="190.9551" rx="3" ry="3" style="stroke:#038048;stroke-width:1.0;fill:none;"/><text fill="#000000" font-family="sans-serif" font-size="11" font-weight="bold" lengthAdjust="spacing" textLength="98" x="49.5" y="194.5898">username : string</text><ellipse cx="40.5" cy="203.9102" rx="3" ry="3" style="stroke:#038048;stroke-width:1.0;fill:none;"/><text fill="#000000" font-family="sans-serif" font-size="11" font-weight="bold" lengthAdjust="spacing" textLength="97" x="49.5" y="207.5449">password : string</text><line style="stroke:#A80036;stroke-width:1.0;stroke-dasharray:1.0,2.0;" x1="30.5" x2="63.5" y1="177.4775" y2="177.4775"/><text fill="#000000" font-family="sans-serif" font-size="11" lengthAdjust="spacing" textLength="56" x="63.5" y="181.1348">properties</text><line style="stroke:#A80036;stroke-width:1.0;stroke-dasharray:1.0,2.0;" x1="119.5" x2="152.5" y1="177.4775" y2="177.4775"/><!--MD5=[27697265338c4c4e774e642814f1268f]
class tosca_nodes_SoftwareComponent_NT--><rect codeLine="8" fill="#DDDDDD" filter="url(#f11doamrpln226)" height="48" id="tosca_nodes_SoftwareComponent_NT" style="stroke:#A80036;stroke-width:1.5;" width="220" x="203.5" y="7"/><ellipse cx="218.5" cy="23" fill="#008000" rx="11" ry="11" style="stroke:#A80036;stroke-width:1.0;"/><path d="M214.4878,16.6069 L217.1191,16.6069 L220.5723,25.6133 L220.5723,16.6069 L222.7305,16.6069 L222.7305,29 L220.1157,29 L216.646,19.9937 L216.646,29 L214.4878,29 Z " fill="#000000"/><text fill="#000000" font-family="sans-serif" font-size="12" lengthAdjust="spacing" textLength="188" x="232.5" y="27.5352">tosca.nodes.SoftwareComponent</text><line style="stroke:#A80036;stroke-width:1.5;" x1="204.5" x2="422.5" y1="39" y2="39"/><line style="stroke:#A80036;stroke-width:1.5;" x1="204.5" x2="422.5" y1="47" y2="47"/><!--MD5=[acd844ca4b6ca059c9fc0123acb8f739]
class nodetypes_smtp_SMTP_NT--><rect codeLine="9" fill="#FEFECE" filter="url(#f11doamrpln226)" height="112.7754" id="nodetypes_smtp_SMTP_NT" style="stroke:#A80036;stroke-width:1.5;" width="160" x="229.5" y="116"/><ellipse cx="244.5" cy="132" fill="#008000" rx="11" ry="11" style="stroke:#A80036;stroke-width:1.0;"/><path d="M240.4878,125.6069 L243.1191,125.6069 L246.5723,134.6133 L246.5723,125.6069 L248.7305,125.6069 L248.7305,138 L246.1157,138 L242.646,128.9937 L242.646,138 L240.4878,138 Z " fill="#000000"/><text fill="#000000" font-family="sans-serif" font-size="12" lengthAdjust="spacing" textLength="128" x="258.5" y="136.5352">nodetypes.smtp.SMTP</text><line style="stroke:#A80036;stroke-width:1.5;" x1="230.5" x2="388.5" y1="148" y2="148"/><ellipse cx="240.5" cy="175.9551" rx="3" ry="3" style="stroke:#038048;stroke-width:1.0;fill:none;"/><text fill="#000000" font-family="sans-serif" font-size="11" font-weight="bold" lengthAdjust="spacing" textLength="87" x="249.5" y="179.5898">address : string</text><line style="stroke:#A80036;stroke-width:1.0;stroke-dasharray:1.0,2.0;" x1="230.5" x2="281.5" y1="162.4775" y2="162.4775"/><text fill="#000000" font-family="sans-serif" font-size="11" lengthAdjust="spacing" textLength="56" x="281.5" y="166.1348">properties</text><line style="stroke:#A80036;stroke-width:1.0;stroke-dasharray:1.0,2.0;" x1="337.5" x2="388.5" y1="162.4775" y2="162.4775"/><ellipse cx="240.5" cy="205.8652" rx="3" ry="3" style="stroke:#038048;stroke-width:1.0;fill:none;"/><text fill="#000000" font-family="sans-serif" font-size="11" lengthAdjust="spacing" textLength="27" x="249.5" y="209.5">smtp</text><text fill="#000000" font-family="sans-serif" font-size="11" lengthAdjust="spacing" textLength="116" x="249.5" y="222.4551">type : smtp.SMTP[1..*]</text><line style="stroke:#A80036;stroke-width:1.0;stroke-dasharray:1.0,2.0;" x1="230.5" x2="279.5" y1="192.3877" y2="192.3877"/><text fill="#000000" font-family="sans-serif" font-size="11" lengthAdjust="spacing" textLength="60" x="279.5" y="196.0449">capabilities</text><line style="stroke:#A80036;stroke-width:1.0;stroke-dasharray:1.0,2.0;" x1="339.5" x2="388.5" y1="192.3877" y2="192.3877"/><!--MD5=[775d86fe4074283c554c373e2df74b34]
reverse link tosca_capabilities_Root_CT to smtp_SMTP_CT--><path codeLine="16" d="M88.7451,75.0449 C89.2486,92.8569 89.8269,113.3156 90.3233,130.8748 " fill="none" id="tosca_capabilities_Root_CT-backto-smtp_SMTP_CT" style="stroke:#A80036;stroke-width:1.0;"/><polygon fill="none" points="81.7466,75.1934,88.1785,55.0035,95.741,74.7977,81.7466,75.1934" style="stroke:#A80036;stroke-width:1.0;"/><!--MD5=[56922b7571ae32e1ec06b10082cc7219]
reverse link tosca_nodes_SoftwareComponent_NT to nodetypes_smtp_SMTP_NT--><path codeLine="17" d="M312.2536,75.0918 C311.8878,88.0331 311.4825,102.3683 311.098,115.9718 " fill="none" id="tosca_nodes_SoftwareComponent_NT-backto-nodetypes_smtp_SMTP_NT" style="stroke:#A80036;stroke-width:1.0;"/><polygon fill="none" points="305.259,74.7977,312.8215,55.0035,319.2534,75.1934,305.259,74.7977" style="stroke:#A80036;stroke-width:1.0;"/><!--MD5=[8157ec3603eac3cbef5b47cb49aaa64d]
link smtp_SMTP_CT to nodetypes_smtp_SMTP_NT--><path codeLine="18" d="M153.6783,172.5 C173.1673,172.5 195.1218,172.5 216.2676,172.5 " fill="none" id="smtp_SMTP_CT-to-nodetypes_smtp_SMTP_NT" style="stroke:#A80036;stroke-width:1.0;"/><polygon fill="#A80036" points="229.3001,172.5,223.3001,168.5,217.3001,172.5,223.3001,176.5,229.3001,172.5" style="stroke:#A80036;stroke-width:1.0;"/><text fill="#000000" font-family="sans-serif" font-size="13" lengthAdjust="spacing" textLength="32" x="175.5" y="166.0684">smtp</text><text fill="#000000" font-family="sans-serif" font-size="13" lengthAdjust="spacing" textLength="22" x="161.6822" y="185.913">1..*</text><!--MD5=[66ed576dabeeb738a445d0d25f4bbaf6]
@startuml
set namespaceSeparator none
class "tosca.capabilities.Root" as tosca_capabilities_Root_CT << (C,green) >> #DDDDDD
class "smtp.SMTP" as smtp_SMTP_CT << (C,green) >> {
.. properties ..
+<b>username : string
+<b>password : string
}
class "tosca.nodes.SoftwareComponent" as tosca_nodes_SoftwareComponent_NT << (N,green) >> #DDDDDD
class "nodetypes.smtp.SMTP" as nodetypes_smtp_SMTP_NT << (N,green) >> {
.. properties ..
+<b>address : string
.. capabilities ..
+smtp
 type : smtp.SMTP[1..*]
}
tosca_capabilities_Root_CT <|- - smtp_SMTP_CT
tosca_nodes_SoftwareComponent_NT <|- - nodetypes_smtp_SMTP_NT
smtp_SMTP_CT "1..*" -* nodetypes_smtp_SMTP_NT : smtp
@enduml

PlantUML version 1.2021.13(Mon Nov 01 12:38:45 CET 2021)
(GPL source distribution)
Java Runtime: Java(TM) SE Runtime Environment
JVM: Java HotSpot(TM) 64-Bit Server VM
Default Encoding: UTF-8
Language: fr
Country: FR
--></g></svg>