<?xml version="1.0" encoding="UTF-8" standalone="no"?><svg xmlns="http://www.w3.org/2000/svg" xmlns:xlink="http://www.w3.org/1999/xlink" contentScriptType="application/ecmascript" contentStyleType="text/css" height="242px" preserveAspectRatio="none" style="width:472px;height:242px;background:#FFFFFF;" version="1.1" viewBox="0 0 472 242" width="472px" zoomAndPan="magnify"><defs><filter height="300%" id="ffbbkwx3u4jhy" width="300%" x="-1" y="-1"><feGaussianBlur result="blurOut" stdDeviation="2.0"/><feColorMatrix in="blurOut" result="blurOut2" type="matrix" values="0 0 0 0 0 0 0 0 0 0 0 0 0 0 0 0 0 0 .4 0"/><feOffset dx="4.0" dy="4.0" in="blurOut2" result="blurOut3"/><feBlend in="SourceGraphic" in2="blurOut3" mode="normal"/></filter></defs><g><!--MD5=[d59e22b85937e22d9f8e5900a7da2e29]
class tosca.capabilities.Root--><rect codeLine="2" fill="#DDDDDD" filter="url(#ffbbkwx3u4jhy)" height="48" id="tosca.capabilities.Root" style="stroke:#A80036;stroke-width:1.5;" width="175" x="7" y="7"/><ellipse cx="22" cy="23" fill="#008000" rx="11" ry="11" style="stroke:#A80036;stroke-width:1.0;"/><path d="M24.9688,28.6406 Q24.3906,28.9375 23.75,29.0781 Q23.1094,29.2344 22.4063,29.2344 Q19.9063,29.2344 18.5781,27.5938 Q17.2656,25.9375 17.2656,22.8125 Q17.2656,19.6875 18.5781,18.0313 Q19.9063,16.375 22.4063,16.375 Q23.1094,16.375 23.75,16.5313 Q24.4063,16.6875 24.9688,16.9844 L24.9688,19.7031 Q24.3438,19.125 23.75,18.8594 Q23.1563,18.5781 22.5313,18.5781 Q21.1875,18.5781 20.5,19.6563 Q19.8125,20.7188 19.8125,22.8125 Q19.8125,24.9063 20.5,25.9844 Q21.1875,27.0469 22.5313,27.0469 Q23.1563,27.0469 23.75,26.7813 Q24.3438,26.5 24.9688,25.9219 L24.9688,28.6406 Z " fill="#000000"/><text fill="#000000" font-family="sans-serif" font-size="12" lengthAdjust="spacing" textLength="143" x="36" y="27.1543">tosca.capabilities.Root</text><line style="stroke:#A80036;stroke-width:1.5;" x1="8" x2="181" y1="39" y2="39"/><line style="stroke:#A80036;stroke-width:1.5;" x1="8" x2="181" y1="47" y2="47"/><!--MD5=[b58a0cc5cabadfc6abb91109099207f9]
class smtp.SMTP--><rect codeLine="4" fill="#FEFECE" filter="url(#ffbbkwx3u4jhy)" height="82.4141" id="smtp.SMTP" style="stroke:#A80036;stroke-width:1.5;" width="138" x="30.5" y="131"/><ellipse cx="62.6" cy="147" fill="#008000" rx="11" ry="11" style="stroke:#A80036;stroke-width:1.0;"/><path d="M65.5688,152.6406 Q64.9906,152.9375 64.35,153.0781 Q63.7094,153.2344 63.0063,153.2344 Q60.5063,153.2344 59.1781,151.5938 Q57.8656,149.9375 57.8656,146.8125 Q57.8656,143.6875 59.1781,142.0313 Q60.5063,140.375 63.0063,140.375 Q63.7094,140.375 64.35,140.5313 Q65.0063,140.6875 65.5688,140.9844 L65.5688,143.7031 Q64.9438,143.125 64.35,142.8594 Q63.7563,142.5781 63.1313,142.5781 Q61.7875,142.5781 61.1,143.6563 Q60.4125,144.7188 60.4125,146.8125 Q60.4125,148.9063 61.1,149.9844 Q61.7875,151.0469 63.1313,151.0469 Q63.7563,151.0469 64.35,150.7813 Q64.9438,150.5 65.5688,149.9219 L65.5688,152.6406 Z " fill="#000000"/><text fill="#000000" font-family="sans-serif" font-size="12" lengthAdjust="spacing" textLength="68" x="80.4" y="151.1543">smtp.SMTP</text><line style="stroke:#A80036;stroke-width:1.5;" x1="31.5" x2="167.5" y1="163" y2="163"/><ellipse cx="41.5" cy="190.8047" rx="3" ry="3" style="stroke:#038048;stroke-width:1.0;fill:none;"/><text fill="#000000" font-family="sans-serif" font-size="11" font-weight="bold" lengthAdjust="spacing" textLength="112" x="50.5" y="194.0151">username : string</text><ellipse cx="41.5" cy="203.6094" rx="3" ry="3" style="stroke:#038048;stroke-width:1.0;fill:none;"/><text fill="#000000" font-family="sans-serif" font-size="11" font-weight="bold" lengthAdjust="spacing" textLength="111" x="50.5" y="206.8198">password : string</text><line style="stroke:#A80036;stroke-width:1.0;stroke-dasharray:1.0,2.0;" x1="31.5" x2="70" y1="177.4023" y2="177.4023"/><text fill="#000000" font-family="sans-serif" font-size="11" lengthAdjust="spacing" textLength="59" x="70" y="180.7104">properties</text><line style="stroke:#A80036;stroke-width:1.0;stroke-dasharray:1.0,2.0;" x1="129" x2="167.5" y1="177.4023" y2="177.4023"/><!--MD5=[adb3a1d2cf60865428cb4b4378782fa3]
class tosca.nodes.SoftwareComponent--><rect codeLine="9" fill="#DDDDDD" filter="url(#ffbbkwx3u4jhy)" height="48" id="tosca.nodes.SoftwareComponent" style="stroke:#A80036;stroke-width:1.5;" width="241" x="217" y="7"/><ellipse cx="232" cy="23" fill="#008000" rx="11" ry="11" style="stroke:#A80036;stroke-width:1.0;"/><path d="M227.9844,16.6094 L230.625,16.6094 L234.0781,25.6094 L234.0781,16.6094 L236.2344,16.6094 L236.2344,29 L233.6094,29 L230.1406,20 L230.1406,29 L227.9844,29 L227.9844,16.6094 Z " fill="#000000"/><text fill="#000000" font-family="sans-serif" font-size="12" lengthAdjust="spacing" textLength="209" x="246" y="27.1543">tosca.nodes.SoftwareComponent</text><line style="stroke:#A80036;stroke-width:1.5;" x1="218" x2="457" y1="39" y2="39"/><line style="stroke:#A80036;stroke-width:1.5;" x1="218" x2="457" y1="47" y2="47"/><!--MD5=[350d30e7c83a04fb9cbe0eda8253f81d]
class nodetypes.smtp.SMTP--><rect codeLine="11" fill="#FEFECE" filter="url(#ffbbkwx3u4jhy)" height="112.0234" id="nodetypes.smtp.SMTP" style="stroke:#A80036;stroke-width:1.5;" width="170" x="247.5" y="116"/><ellipse cx="262.5" cy="132" fill="#008000" rx="11" ry="11" style="stroke:#A80036;stroke-width:1.0;"/><path d="M258.4844,125.6094 L261.125,125.6094 L264.5781,134.6094 L264.5781,125.6094 L266.7344,125.6094 L266.7344,138 L264.1094,138 L260.6406,129 L260.6406,138 L258.4844,138 L258.4844,125.6094 Z " fill="#000000"/><text fill="#000000" font-family="sans-serif" font-size="12" lengthAdjust="spacing" textLength="138" x="276.5" y="136.1543">nodetypes.smtp.SMTP</text><line style="stroke:#A80036;stroke-width:1.5;" x1="248.5" x2="416.5" y1="148" y2="148"/><ellipse cx="258.5" cy="175.8047" rx="3" ry="3" style="stroke:#038048;stroke-width:1.0;fill:none;"/><text fill="#000000" font-family="sans-serif" font-size="11" font-weight="bold" lengthAdjust="spacing" textLength="100" x="267.5" y="179.0151">address : string</text><line style="stroke:#A80036;stroke-width:1.0;stroke-dasharray:1.0,2.0;" x1="248.5" x2="303" y1="162.4023" y2="162.4023"/><text fill="#000000" font-family="sans-serif" font-size="11" lengthAdjust="spacing" textLength="59" x="303" y="165.7104">properties</text><line style="stroke:#A80036;stroke-width:1.0;stroke-dasharray:1.0,2.0;" x1="362" x2="416.5" y1="162.4023" y2="162.4023"/><ellipse cx="258.5" cy="205.4141" rx="3" ry="3" style="stroke:#038048;stroke-width:1.0;fill:none;"/><text fill="#000000" font-family="sans-serif" font-size="11" lengthAdjust="spacing" textLength="29" x="267.5" y="208.6245">smtp</text><text fill="#000000" font-family="sans-serif" font-size="11" lengthAdjust="spacing" textLength="129" x="267.5" y="221.4292">type : smtp.SMTP[1..*]</text><line style="stroke:#A80036;stroke-width:1.0;stroke-dasharray:1.0,2.0;" x1="248.5" x2="300.5" y1="192.0117" y2="192.0117"/><text fill="#000000" font-family="sans-serif" font-size="11" lengthAdjust="spacing" textLength="64" x="300.5" y="195.3198">capabilities</text><line style="stroke:#A80036;stroke-width:1.0;stroke-dasharray:1.0,2.0;" x1="364.5" x2="416.5" y1="192.0117" y2="192.0117"/><!--MD5=[690da4882866340c8d8441cdc8d0d43f]
reverse link tosca.capabilities.Root to smtp.SMTP--><path codeLine="3" d="M96.06,75.48 C96.7,93.15 97.43,113.44 98.05,130.76 " fill="none" id="tosca.capabilities.Root-backto-smtp.SMTP" style="stroke:#A80036;stroke-width:1.0;"/><polygon fill="none" points="89.06,75.5,95.34,55.27,103.05,75,89.06,75.5" style="stroke:#A80036;stroke-width:1.0;"/><!--MD5=[a2820de0cf489c42c1753c96930d8f5d]
reverse link tosca.nodes.SoftwareComponent to nodetypes.smtp.SMTP--><path codeLine="10" d="M335.93,75.66 C335.47,88.4 334.96,102.48 334.48,115.83 " fill="none" id="tosca.nodes.SoftwareComponent-backto-nodetypes.smtp.SMTP" style="stroke:#A80036;stroke-width:1.0;"/><polygon fill="none" points="328.95,75,336.66,55.27,342.94,75.5,328.95,75" style="stroke:#A80036;stroke-width:1.0;"/><!--MD5=[6419f964c57a0036632c42e8f1aa248d]
link smtp.SMTP to nodetypes.smtp.SMTP--><path codeLine="18" d="M168.78,172 C189.31,172 212.21,172 234.21,172 " fill="none" id="smtp.SMTP-to-nodetypes.smtp.SMTP" style="stroke:#A80036;stroke-width:1.0;"/><polygon fill="#A80036" points="247.4,172,241.4,168,235.4,172,241.4,176,247.4,172" style="stroke:#A80036;stroke-width:1.0;"/><text fill="#000000" font-family="sans-serif" font-size="13" lengthAdjust="spacing" textLength="33" x="191.5" y="165.0669">smtp</text><text fill="#000000" font-family="sans-serif" font-size="13" lengthAdjust="spacing" textLength="23" x="176.4793" y="184.7683">1..*</text><!--MD5=[1ad680451684a2fbff240f282c08dfc3]
@startuml
set namespaceSeparator none
class "tosca.capabilities.Root" << (C,green) >> #DDDDDD
"tosca.capabilities.Root" <|- - "smtp.SMTP"
class "smtp.SMTP" << (C,green) >> {
.. properties ..
+<b>username : string
+<b>password : string
}
class "tosca.nodes.SoftwareComponent" << (N,green) >> #DDDDDD
"tosca.nodes.SoftwareComponent" <|- - "nodetypes.smtp.SMTP"
class "nodetypes.smtp.SMTP" << (N,green) >> {
.. properties ..
+<b>address : string
.. capabilities ..
+smtp
 type : smtp.SMTP[1..*]
}
"smtp.SMTP" "1..*" -* "nodetypes.smtp.SMTP" : smtp
@enduml

PlantUML version 1.2021.13(Mon Nov 01 11:38:45 GMT 2021)
(GPL source distribution)
Java Runtime: OpenJDK Runtime Environment
JVM: OpenJDK 64-Bit Server VM
Default Encoding: UTF-8
Language: en
Country: US
--></g></svg>