<?xml version="1.0" encoding="UTF-8" standalone="no"?><svg xmlns="http://www.w3.org/2000/svg" xmlns:xlink="http://www.w3.org/1999/xlink" contentScriptType="application/ecmascript" contentStyleType="text/css" height="399px" preserveAspectRatio="none" style="width:401px;height:399px;background:#FFFFFF;" version="1.1" viewBox="0 0 401 399" width="401px" zoomAndPan="magnify"><defs><filter height="300%" id="fxf9me49p22sx" width="300%" x="-1" y="-1"><feGaussianBlur result="blurOut" stdDeviation="2.0"/><feColorMatrix in="blurOut" result="blurOut2" type="matrix" values="0 0 0 0 0 0 0 0 0 0 0 0 0 0 0 0 0 0 .4 0"/><feOffset dx="4.0" dy="4.0" in="blurOut2" result="blurOut3"/><feBlend in="SourceGraphic" in2="blurOut3" mode="normal"/></filter></defs><g><!--MD5=[f861c49d143d98d9cfab58c4a95b4d0f]
cluster node_mongo_server--><polygon fill="#FFFFFF" filter="url(#fxf9me49p22sx)" points="65,234,75,224,336,224,336,382,326,392,65,392,65,234" style="stroke:#000000;stroke-width:1.5;"/><line style="stroke:#000000;stroke-width:1.5;" x1="326" x2="336" y1="234" y2="224"/><line style="stroke:#000000;stroke-width:1.5;" x1="65" x2="326" y1="234" y2="234"/><line style="stroke:#000000;stroke-width:1.5;" x1="326" x2="326" y1="234" y2="392"/><text fill="#000000" font-family="sans-serif" font-size="14" font-weight="bold" lengthAdjust="spacing" textLength="195" x="99" y="249.9951">mongo_server: Compute</text><!--MD5=[bc019c133b565f4b0d758b989701ca2a]
cluster node_mongo_dbms--><rect fill="#FFFFFF" filter="url(#fxf9me49p22sx)" height="96" style="stroke:#000000;stroke-width:1.5;" width="200" x="100" y="272"/><rect fill="#FFFFFF" height="10" style="stroke:#000000;stroke-width:1.5;" width="15" x="280" y="277"/><rect fill="#FFFFFF" height="2" style="stroke:#000000;stroke-width:1.5;" width="4" x="278" y="279"/><rect fill="#FFFFFF" height="2" style="stroke:#000000;stroke-width:1.5;" width="4" x="278" y="283"/><text fill="#000000" font-family="sans-serif" font-size="14" font-weight="bold" lengthAdjust="spacing" textLength="159" x="120.5" y="297.9951">mongo_dbms: DBMS</text><!--MD5=[aef7b1ac43848ba07abf53178214acf0]
cluster node_app_server--><polygon fill="#FFFFFF" filter="url(#fxf9me49p22sx)" points="16,16,26,6,384,6,384,165,374,175,16,175,16,16" style="stroke:#000000;stroke-width:1.5;"/><line style="stroke:#000000;stroke-width:1.5;" x1="374" x2="384" y1="16" y2="6"/><line style="stroke:#000000;stroke-width:1.5;" x1="16" x2="374" y1="16" y2="16"/><line style="stroke:#000000;stroke-width:1.5;" x1="374" x2="374" y1="16" y2="175"/><text fill="#000000" font-family="sans-serif" font-size="14" font-weight="bold" lengthAdjust="spacing" textLength="170" x="111" y="31.9951">app_server: Compute</text><!--MD5=[3c008ac75c561fdf0b5bb730c5548239]
cluster node_nodejs--><rect fill="#FFFFFF" filter="url(#fxf9me49p22sx)" height="97" style="stroke:#000000;stroke-width:1.5;" width="320" x="40" y="54"/><rect fill="#FFFFFF" height="10" style="stroke:#000000;stroke-width:1.5;" width="15" x="340" y="59"/><rect fill="#FFFFFF" height="2" style="stroke:#000000;stroke-width:1.5;" width="4" x="338" y="61"/><rect fill="#FFFFFF" height="2" style="stroke:#000000;stroke-width:1.5;" width="4" x="338" y="65"/><text fill="#000000" font-family="sans-serif" font-size="14" font-weight="bold" lengthAdjust="spacing" textLength="118" x="141" y="79.9951">nodejs: Nodejs</text><!--MD5=[f061c2c6e255e94ec5d9f11b5494521f]
entity node_mongo_db--><path d="M115.5,317 C115.5,307 200,307 200,307 C200,307 284.5,307 284.5,317 L284.5,342.2969 C284.5,352.2969 200,352.2969 200,352.2969 C200,352.2969 115.5,352.2969 115.5,342.2969 L115.5,317 " fill="#FEFECE" filter="url(#fxf9me49p22sx)" style="stroke:#000000;stroke-width:1.5;"/><path d="M115.5,317 C115.5,327 200,327 200,327 C200,327 284.5,327 284.5,317 " fill="none" style="stroke:#000000;stroke-width:1.5;"/><text fill="#000000" font-family="sans-serif" font-size="14" lengthAdjust="spacing" textLength="149" x="125.5" y="343.9951">mongo_db: Database</text><!--MD5=[2c6c29e92a09fe16b7b193636501bf93]
entity node_paypal_pizzastore--><rect fill="#FEFECE" filter="url(#fxf9me49p22sx)" height="46.2969" style="stroke:#A80036;stroke-width:1.5;" width="289" x="55.5" y="89"/><rect fill="#FEFECE" height="10" style="stroke:#A80036;stroke-width:1.5;" width="15" x="324.5" y="94"/><rect fill="#FEFECE" height="2" style="stroke:#A80036;stroke-width:1.5;" width="4" x="322.5" y="96"/><rect fill="#FEFECE" height="2" style="stroke:#A80036;stroke-width:1.5;" width="4" x="322.5" y="100"/><text fill="#000000" font-family="sans-serif" font-size="14" lengthAdjust="spacing" textLength="249" x="70.5" y="121.9951">paypal_pizzastore: PayPalPizzaStore</text><!--MD5=[d1eff2dca38477514a15322daa1e984f]
link node_paypal_pizzastore to node_mongo_db--><path codeLine="14" d="M200,135.25 C200,175.14 200,258.66 200,301.65 " fill="none" id="node_paypal_pizzastore-to-node_mongo_db" style="stroke:#A80036;stroke-width:1.0;stroke-dasharray:7.0,7.0;"/><polygon fill="#A80036" points="200,306.69,204,297.69,200,301.69,196,297.69,200,306.69" style="stroke:#A80036;stroke-width:1.0;"/><text fill="#000000" font-family="sans-serif" font-size="13" lengthAdjust="spacing" textLength="91" x="201" y="204.0669">«ConnectsTo»</text><!--MD5=[dbd51b66c775990c8fb0bae5d4b21aab]
@startuml
skinparam componentStyle uml2
allowmixing

node "mongo_server: Compute" as node_mongo_server {
component "mongo_dbms: DBMS" as node_mongo_dbms {
database "mongo_db: Database" as node_mongo_db
}
}
node "app_server: Compute" as node_app_server {
component "nodejs: Nodejs" as node_nodejs {
component "paypal_pizzastore: PayPalPizzaStore" as node_paypal_pizzastore
}
}
node_paypal_pizzastore ..> node_mongo_db : <<ConnectsTo>>
@enduml

PlantUML version 1.2021.13(Mon Nov 01 11:38:45 GMT 2021)
(GPL source distribution)
Java Runtime: OpenJDK Runtime Environment
JVM: OpenJDK 64-Bit Server VM
Default Encoding: UTF-8
Language: en
Country: US
--></g></svg>