<?xml version="1.0" encoding="UTF-8" standalone="no"?><svg xmlns="http://www.w3.org/2000/svg" xmlns:xlink="http://www.w3.org/1999/xlink" contentScriptType="application/ecmascript" contentStyleType="text/css" height="323px" preserveAspectRatio="none" style="width:265px;height:323px;background:#FFFFFF;" version="1.1" viewBox="0 0 265 323" width="265px" zoomAndPan="magnify"><defs><filter height="300%" id="foxfco142qigx" width="300%" x="-1" y="-1"><feGaussianBlur result="blurOut" stdDeviation="2.0"/><feColorMatrix in="blurOut" result="blurOut2" type="matrix" values="0 0 0 0 0 0 0 0 0 0 0 0 0 0 0 0 0 0 .4 0"/><feOffset dx="4.0" dy="4.0" in="blurOut2" result="blurOut3"/><feBlend in="SourceGraphic" in2="blurOut3" mode="normal"/></filter></defs><g><!--MD5=[2c8e42a4b202a16893752be544c8ef90]
cluster node_server--><polygon fill="#FFFFFF" filter="url(#foxfco142qigx)" points="16,16,26,6,248,6,248,306,238,316,16,316,16,16" style="stroke:#000000;stroke-width:1.5;"/><line style="stroke:#000000;stroke-width:1.5;" x1="238" x2="248" y1="16" y2="6"/><line style="stroke:#000000;stroke-width:1.5;" x1="16" x2="238" y1="16" y2="16"/><line style="stroke:#000000;stroke-width:1.5;" x1="238" x2="238" y1="16" y2="316"/><text fill="#000000" font-family="sans-serif" font-size="14" font-weight="bold" lengthAdjust="spacing" textLength="117" x="69.5" y="32.5352">server: Compute</text><!--MD5=[ae8b55ab3c97bcd44c0568a0e996fb36]
cluster node_mysql_dbms--><rect fill="#FFFFFF" filter="url(#foxfco142qigx)" height="80" style="stroke:#000000;stroke-width:1.5;" width="216" x="24" y="228"/><rect fill="#FFFFFF" height="10" style="stroke:#000000;stroke-width:1.5;" width="15" x="220" y="233"/><rect fill="#FFFFFF" height="2" style="stroke:#000000;stroke-width:1.5;" width="4" x="218" y="235"/><rect fill="#FFFFFF" height="2" style="stroke:#000000;stroke-width:1.5;" width="4" x="218" y="239"/><text fill="#000000" font-family="sans-serif" font-size="14" font-weight="bold" lengthAdjust="spacing" textLength="140" x="62" y="254.5352">mysql_dbms: DBMS</text><!--MD5=[37ecf7727f67e44b88d48bfbc4aa5c0f]
cluster node_webserver--><rect fill="#FFFFFF" filter="url(#foxfco142qigx)" height="81" style="stroke:#000000;stroke-width:1.5;" width="208" x="28" y="38"/><rect fill="#FFFFFF" height="10" style="stroke:#000000;stroke-width:1.5;" width="15" x="216" y="43"/><rect fill="#FFFFFF" height="2" style="stroke:#000000;stroke-width:1.5;" width="4" x="214" y="45"/><rect fill="#FFFFFF" height="2" style="stroke:#000000;stroke-width:1.5;" width="4" x="214" y="49"/><text fill="#000000" font-family="sans-serif" font-size="14" font-weight="bold" lengthAdjust="spacing" textLength="155" x="54.5" y="64.5352">webserver: WebServer</text><!--MD5=[af61b5ac3338c798bb2f6abf69118070]
entity node_mysql_database--><path d="M32,265 C32,255 132,255 132,255 C132,255 232,255 232,265 L232,290.4883 C232,300.4883 132,300.4883 132,300.4883 C132,300.4883 32,300.4883 32,290.4883 L32,265 " fill="#FEFECE" filter="url(#foxfco142qigx)" style="stroke:#000000;stroke-width:1.5;"/><path d="M32,265 C32,275 132,275 132,275 C132,275 232,275 232,265 " fill="none" style="stroke:#000000;stroke-width:1.5;"/><text fill="#000000" font-family="sans-serif" font-size="14" lengthAdjust="spacing" textLength="180" x="42" y="292.5352">mysql_database: Database</text><!--MD5=[2896e323e24222c688df8e0cffc2f595]
entity node_wordpress--><rect fill="#FEFECE" filter="url(#foxfco142qigx)" height="46.4883" style="stroke:#A80036;stroke-width:1.5;" width="192" x="36" y="65"/><rect fill="#FEFECE" height="10" style="stroke:#A80036;stroke-width:1.5;" width="15" x="208" y="70"/><rect fill="#FEFECE" height="2" style="stroke:#A80036;stroke-width:1.5;" width="4" x="206" y="72"/><rect fill="#FEFECE" height="2" style="stroke:#A80036;stroke-width:1.5;" width="4" x="206" y="76"/><text fill="#000000" font-family="sans-serif" font-size="14" lengthAdjust="spacing" textLength="152" x="51" y="98.5352">wordpress: WordPress</text><!--MD5=[f5d575b0e033342f683edfa575db8fc5]
link node_wordpress to node_mysql_database--><path codeLine="12" d="M132,111.2364 C132,146.1843 132,212.1649 132,249.6434 " fill="none" id="node_wordpress-to-node_mysql_database" style="stroke:#A80036;stroke-width:1.0;stroke-dasharray:7.0,7.0;"/><polygon fill="#A80036" points="132,254.9591,136,245.9591,132,249.9591,128,245.9591,132,254.9591" style="stroke:#A80036;stroke-width:1.0;"/><text fill="#000000" font-family="sans-serif" font-size="13" lengthAdjust="spacing" textLength="89" x="133" y="185.5684">«ConnectsTo»</text><!--MD5=[02d6fe3821383653bc67fdc316aba77b]
@startuml
skinparam componentStyle uml2
allowmixing

node "server: Compute" as node_server {
component "mysql_dbms: DBMS" as node_mysql_dbms {
database "mysql_database: Database" as node_mysql_database
}
component "webserver: WebServer" as node_webserver {
component "wordpress: WordPress" as node_wordpress
}
}
node_wordpress ..> node_mysql_database : <<ConnectsTo>>
@enduml

PlantUML version 1.2021.13(Mon Nov 01 12:38:45 CET 2021)
(GPL source distribution)
Java Runtime: Java(TM) SE Runtime Environment
JVM: Java HotSpot(TM) 64-Bit Server VM
Default Encoding: UTF-8
Language: fr
Country: FR
--></g></svg>