<?xml version="1.0" encoding="UTF-8" standalone="no"?><svg xmlns="http://www.w3.org/2000/svg" xmlns:xlink="http://www.w3.org/1999/xlink" contentScriptType="application/ecmascript" contentStyleType="text/css" height="327px" preserveAspectRatio="none" style="width:319px;height:327px;background:#FFFFFF;" version="1.1" viewBox="0 0 319 327" width="319px" zoomAndPan="magnify"><defs><filter height="300%" id="foxfco142qigx" width="300%" x="-1" y="-1"><feGaussianBlur result="blurOut" stdDeviation="2.0"/><feColorMatrix in="blurOut" result="blurOut2" type="matrix" values="0 0 0 0 0 0 0 0 0 0 0 0 0 0 0 0 0 0 .4 0"/><feOffset dx="4.0" dy="4.0" in="blurOut2" result="blurOut3"/><feBlend in="SourceGraphic" in2="blurOut3" mode="normal"/></filter></defs><g><!--MD5=[2c8e42a4b202a16893752be544c8ef90]
cluster node_server--><polygon fill="#FFFFFF" filter="url(#foxfco142qigx)" points="16,16,26,6,302,6,302,310,292,320,16,320,16,16" style="stroke:#000000;stroke-width:1.5;"/><line style="stroke:#000000;stroke-width:1.5;" x1="292" x2="302" y1="16" y2="6"/><line style="stroke:#000000;stroke-width:1.5;" x1="16" x2="292" y1="16" y2="16"/><line style="stroke:#000000;stroke-width:1.5;" x1="292" x2="292" y1="16" y2="320"/><text fill="#000000" font-family="sans-serif" font-size="14" font-weight="bold" lengthAdjust="spacing" textLength="134" x="88" y="31.9951">server: Compute</text><!--MD5=[ae8b55ab3c97bcd44c0568a0e996fb36]
cluster node_mysql_dbms--><rect fill="#FFFFFF" filter="url(#foxfco142qigx)" height="96" style="stroke:#000000;stroke-width:1.5;" width="238" x="40" y="200"/><rect fill="#FFFFFF" height="10" style="stroke:#000000;stroke-width:1.5;" width="15" x="258" y="205"/><rect fill="#FFFFFF" height="2" style="stroke:#000000;stroke-width:1.5;" width="4" x="256" y="207"/><rect fill="#FFFFFF" height="2" style="stroke:#000000;stroke-width:1.5;" width="4" x="256" y="211"/><text fill="#000000" font-family="sans-serif" font-size="14" font-weight="bold" lengthAdjust="spacing" textLength="151" x="83.5" y="225.9951">mysql_dbms: DBMS</text><!--MD5=[37ecf7727f67e44b88d48bfbc4aa5c0f]
cluster node_webserver--><rect fill="#FFFFFF" filter="url(#foxfco142qigx)" height="97" style="stroke:#000000;stroke-width:1.5;" width="230" x="44" y="54"/><rect fill="#FFFFFF" height="10" style="stroke:#000000;stroke-width:1.5;" width="15" x="254" y="59"/><rect fill="#FFFFFF" height="2" style="stroke:#000000;stroke-width:1.5;" width="4" x="252" y="61"/><rect fill="#FFFFFF" height="2" style="stroke:#000000;stroke-width:1.5;" width="4" x="252" y="65"/><text fill="#000000" font-family="sans-serif" font-size="14" font-weight="bold" lengthAdjust="spacing" textLength="185" x="66.5" y="79.9951">webserver: WebServer</text><!--MD5=[af61b5ac3338c798bb2f6abf69118070]
entity node_mysql_database--><path d="M56,245 C56,235 159,235 159,235 C159,235 262,235 262,245 L262,270.2969 C262,280.2969 159,280.2969 159,280.2969 C159,280.2969 56,280.2969 56,270.2969 L56,245 " fill="#FEFECE" filter="url(#foxfco142qigx)" style="stroke:#000000;stroke-width:1.5;"/><path d="M56,245 C56,255 159,255 159,255 C159,255 262,255 262,245 " fill="none" style="stroke:#000000;stroke-width:1.5;"/><text fill="#000000" font-family="sans-serif" font-size="14" lengthAdjust="spacing" textLength="186" x="66" y="271.9951">mysql_database: Database</text><!--MD5=[2896e323e24222c688df8e0cffc2f595]
entity node_wordpress--><rect fill="#FEFECE" filter="url(#foxfco142qigx)" height="46.2969" style="stroke:#A80036;stroke-width:1.5;" width="197" x="60.5" y="89"/><rect fill="#FEFECE" height="10" style="stroke:#A80036;stroke-width:1.5;" width="15" x="237.5" y="94"/><rect fill="#FEFECE" height="2" style="stroke:#A80036;stroke-width:1.5;" width="4" x="235.5" y="96"/><rect fill="#FEFECE" height="2" style="stroke:#A80036;stroke-width:1.5;" width="4" x="235.5" y="100"/><text fill="#000000" font-family="sans-serif" font-size="14" lengthAdjust="spacing" textLength="157" x="75.5" y="121.9951">wordpress: WordPress</text><!--MD5=[f5d575b0e033342f683edfa575db8fc5]
link node_wordpress to node_mysql_database--><path codeLine="12" d="M159,135.11 C159,160.46 159,202.04 159,229.34 " fill="none" id="node_wordpress-to-node_mysql_database" style="stroke:#A80036;stroke-width:1.0;stroke-dasharray:7.0,7.0;"/><polygon fill="#A80036" points="159,234.6,163,225.6,159,229.6,155,225.6,159,234.6" style="stroke:#A80036;stroke-width:1.0;"/><text fill="#000000" font-family="sans-serif" font-size="13" lengthAdjust="spacing" textLength="91" x="160" y="180.0669">«ConnectsTo»</text><!--MD5=[b769efbe859d374e419cb3bf19f1795b]
@startuml
skinparam componentStyle uml2
allowmixing

node "server: Compute" as node_server {
component "mysql_dbms: DBMS" as node_mysql_dbms {
database "mysql_database: Database" as node_mysql_database
}
component "webserver: WebServer" as node_webserver {
component "wordpress: WordPress" as node_wordpress
}
}
node_wordpress ..> node_mysql_database : <<ConnectsTo>>
@enduml

PlantUML version 1.2021.13(Mon Nov 01 11:38:45 GMT 2021)
(GPL source distribution)
Java Runtime: OpenJDK Runtime Environment
JVM: OpenJDK 64-Bit Server VM
Default Encoding: UTF-8
Language: en
Country: US
--></g></svg>