<?xml version="1.0" encoding="UTF-8" standalone="no"?><svg xmlns="http://www.w3.org/2000/svg" xmlns:xlink="http://www.w3.org/1999/xlink" contentScriptType="application/ecmascript" contentStyleType="text/css" height="712px" preserveAspectRatio="none" style="width:198px;height:712px;background:#FFFFFF;" version="1.1" viewBox="0 0 198 712" width="198px" zoomAndPan="magnify"><defs/><g><ellipse cx="99" cy="16" fill="#008000" rx="10" ry="10" style="stroke:none;stroke-width:1.0;"/><ellipse cx="99" cy="696" rx="10" ry="10" style="stroke:#000000;stroke-width:1.0;fill:none;"/><ellipse cx="99.5" cy="696.5" fill="#000000" rx="6" ry="6" style="stroke:none;stroke-width:1.0;"/><rect fill="#FFFFFF" height="240.4883" rx="12.5" ry="12.5" style="stroke:#000000;stroke-width:1.5;" width="172" x="13" y="86"/><rect fill="#FFFFFF" height="208" rx="12.5" ry="12.5" style="stroke:#FFFFFF;stroke-width:1.0;" width="166" x="16" y="115.4883"/><line style="stroke:#000000;stroke-width:1.5;" x1="13" x2="185" y1="112.4883" y2="112.4883"/><text fill="#000000" font-family="sans-serif" font-size="14" lengthAdjust="spacing" textLength="79" x="59.5" y="104.5352">stop_server</text><rect fill="#FFFFFF" height="40" rx="12.5" ry="12.5" style="stroke:#0000FF;stroke-width:1.5;" width="117" x="42.5" y="124.4883"/><text fill="#000000" font-family="sans-serif" font-size="14" lengthAdjust="spacing" textLength="107" x="47.5" y="149.7793">server stopping</text><rect fill="#ADD8E6" height="40" rx="12.5" ry="12.5" style="stroke:#0000FF;stroke-width:1.5;" width="152" x="25" y="200.4883"/><text fill="#000000" font-family="sans-serif" font-size="14" lengthAdjust="spacing" textLength="142" x="30" y="225.7793">server Standard.stop</text><rect fill="#FFFFFF" height="40" rx="12.5" ry="12.5" style="stroke:#0000FF;stroke-width:1.5;" width="112" x="45" y="276.4883"/><text fill="#000000" font-family="sans-serif" font-size="14" lengthAdjust="spacing" textLength="102" x="50" y="301.7793">server stopped</text><!--MD5=[a9ee76ac0bc133aa7e9e73f7456d195a]
link step_parallel_undeploy_stop_server_server_stopping to step_parallel_undeploy_stop_server_server_Standard.stop--><path d="M101,164.8549 C101,174.2155 101,185.4103 101,195.2956 " fill="none" id="step_parallel_undeploy_stop_server_server_stopping-to-step_parallel_undeploy_stop_server_server_Standard.stop" style="stroke:#0000FF;stroke-width:1.0;"/><polygon fill="#0000FF" points="101,200.329,105,191.329,101,195.329,97,191.329,101,200.329" style="stroke:#0000FF;stroke-width:1.0;"/><!--MD5=[b0765cdc90495805fd991ccdd04e1950]
link step_parallel_undeploy_stop_server_server_Standard.stop to step_parallel_undeploy_stop_server_server_stopped--><path d="M101,240.8549 C101,250.2155 101,261.4103 101,271.2956 " fill="none" id="step_parallel_undeploy_stop_server_server_Standard.stop-to-step_parallel_undeploy_stop_server_server_stopped" style="stroke:#0000FF;stroke-width:1.0;"/><polygon fill="#0000FF" points="101,276.329,105,267.329,101,271.329,97,267.329,101,276.329" style="stroke:#0000FF;stroke-width:1.0;"/><rect fill="#FFFFFF" height="240.4883" rx="12.5" ry="12.5" style="stroke:#000000;stroke-width:1.5;" width="184" x="7" y="386"/><rect fill="#FFFFFF" height="208" rx="12.5" ry="12.5" style="stroke:#FFFFFF;stroke-width:1.0;" width="178" x="10" y="415.4883"/><line style="stroke:#000000;stroke-width:1.5;" x1="7" x2="191" y1="412.4883" y2="412.4883"/><text fill="#000000" font-family="sans-serif" font-size="14" lengthAdjust="spacing" textLength="91" x="53.5" y="404.5352">delete_server</text><rect fill="#FFFFFF" height="40" rx="12.5" ry="12.5" style="stroke:#0000FF;stroke-width:1.5;" width="112" x="45" y="424.4883"/><text fill="#000000" font-family="sans-serif" font-size="14" lengthAdjust="spacing" textLength="102" x="50" y="449.7793">server deleting</text><rect fill="#ADD8E6" height="40" rx="12.5" ry="12.5" style="stroke:#0000FF;stroke-width:1.5;" width="164" x="19" y="500.4883"/><text fill="#000000" font-family="sans-serif" font-size="14" lengthAdjust="spacing" textLength="154" x="24" y="525.7793">server Standard.delete</text><rect fill="#FFFFFF" height="40" rx="12.5" ry="12.5" style="stroke:#0000FF;stroke-width:1.5;" width="94" x="54" y="576.4883"/><text fill="#000000" font-family="sans-serif" font-size="14" lengthAdjust="spacing" textLength="84" x="59" y="601.7793">server initial</text><!--MD5=[4be09b3f9e9b22c49ba4cb6a1928352f]
link step_parallel_undeploy_delete_server_server_deleting to step_parallel_undeploy_delete_server_server_Standard.delete--><path d="M101,464.8549 C101,474.2155 101,485.4103 101,495.2956 " fill="none" id="step_parallel_undeploy_delete_server_server_deleting-to-step_parallel_undeploy_delete_server_server_Standard.delete" style="stroke:#0000FF;stroke-width:1.0;"/><polygon fill="#0000FF" points="101,500.329,105,491.329,101,495.329,97,491.329,101,500.329" style="stroke:#0000FF;stroke-width:1.0;"/><!--MD5=[4ba5188c08aa2bc99d32c935253e93c3]
link step_parallel_undeploy_delete_server_server_Standard.delete to step_parallel_undeploy_delete_server_server_initial--><path d="M101,540.8549 C101,550.2155 101,561.4103 101,571.2956 " fill="none" id="step_parallel_undeploy_delete_server_server_Standard.delete-to-step_parallel_undeploy_delete_server_server_initial" style="stroke:#0000FF;stroke-width:1.0;"/><polygon fill="#0000FF" points="101,576.329,105,567.329,101,571.329,97,567.329,101,576.329" style="stroke:#0000FF;stroke-width:1.0;"/><!--MD5=[20d1bd5771f0ca60858589a72ba6464b]
link step_parallel_undeploy_stop_server to step_parallel_undeploy_delete_server--><path d="M99,326.2929 C99,344.1733 99,362.6404 99,380.6221 " fill="none" id="step_parallel_undeploy_stop_server-to-step_parallel_undeploy_delete_server" style="stroke:#0000FF;stroke-width:1.0;"/><polygon fill="#0000FF" points="99,385.6801,103,376.6801,99,380.6801,95,376.6801,99,385.6801" style="stroke:#0000FF;stroke-width:1.0;"/><!--MD5=[bfa769a81721ab08b60b4b1079f06804]
link *start to step_parallel_undeploy_stop_server--><path d="M99,26.2152 C99,37.7525 99,57.9094 99,80.6599 " fill="none" id="*start-to-step_parallel_undeploy_stop_server" style="stroke:#0000FF;stroke-width:1.0;"/><polygon fill="#0000FF" points="99,85.8637,103,76.8637,99,80.8637,95,76.8637,99,85.8637" style="stroke:#0000FF;stroke-width:1.0;"/><!--MD5=[0bca57dba2e5b1e31e917bc6f2e974ef]
link step_parallel_undeploy_delete_server to *end--><path d="M99,626.0605 C99,647.7796 99,667.6166 99,680.5716 " fill="none" id="step_parallel_undeploy_delete_server-to-*end" style="stroke:#0000FF;stroke-width:1.0;"/><polygon fill="#0000FF" points="99,685.6879,103,676.6879,99,680.6879,95,676.6879,99,685.6879" style="stroke:#0000FF;stroke-width:1.0;"/><!--MD5=[2d7d331e7056add69f1ed4f841eb7327]
@startuml
hide empty description
skinparam shadowing false
skinparam state {
  ArrowColor blue
  BorderColor blue
  EndColor black
  StartColor green
  BackGroundColor<< step >> white
  BorderColor<< step >> black
  BackGroundColor<< delegate >> lightgrey
  BackGroundColor<< set_state >> white
  BackGroundColor<< call_operation >> lightblue
  BackGroundColor<< inline >> white
}
skinparam ActivityBarColor<<fork>> DarkGreen
skinparam ActivityBarColor<<join>> DarkOrange

state "stop_server" as step_parallel_undeploy_stop_server << step >> {
  state "server stopping" as step_parallel_undeploy_stop_server_server_stopping << set_state >>
  state "server Standard.stop" as step_parallel_undeploy_stop_server_server_Standard.stop << call_operation >>
  state "server stopped" as step_parallel_undeploy_stop_server_server_stopped << set_state >>
  step_parallel_undeploy_stop_server_server_stopping - -> step_parallel_undeploy_stop_server_server_Standard.stop
  step_parallel_undeploy_stop_server_server_Standard.stop - -> step_parallel_undeploy_stop_server_server_stopped
}
state "delete_server" as step_parallel_undeploy_delete_server << step >> {
  state "server deleting" as step_parallel_undeploy_delete_server_server_deleting << set_state >>
  state "server Standard.delete" as step_parallel_undeploy_delete_server_server_Standard.delete << call_operation >>
  state "server initial" as step_parallel_undeploy_delete_server_server_initial << set_state >>
  step_parallel_undeploy_delete_server_server_deleting - -> step_parallel_undeploy_delete_server_server_Standard.delete
  step_parallel_undeploy_delete_server_server_Standard.delete - -> step_parallel_undeploy_delete_server_server_initial
}
step_parallel_undeploy_stop_server - -> step_parallel_undeploy_delete_server
[*] - -> step_parallel_undeploy_stop_server
step_parallel_undeploy_delete_server - -> [*]
@enduml

PlantUML version 1.2021.13(Mon Nov 01 12:38:45 CET 2021)
(GPL source distribution)
Java Runtime: Java(TM) SE Runtime Environment
JVM: Java HotSpot(TM) 64-Bit Server VM
Default Encoding: UTF-8
Language: fr
Country: FR
--></g></svg>