<?xml version="1.0" encoding="UTF-8" standalone="no"?><svg xmlns="http://www.w3.org/2000/svg" xmlns:xlink="http://www.w3.org/1999/xlink" contentScriptType="application/ecmascript" contentStyleType="text/css" height="1156px" preserveAspectRatio="none" style="width:222px;height:1156px;background:#FFFFFF;" version="1.1" viewBox="0 0 222 1156" width="222px" zoomAndPan="magnify"><defs/><g><ellipse cx="111" cy="16" fill="#008000" rx="10" ry="10" style="stroke:none;stroke-width:1.0;"/><ellipse cx="111" cy="1140" rx="10" ry="10" style="stroke:#000000;stroke-width:1.0;fill:none;"/><ellipse cx="111.5" cy="1140.5" fill="#000000" rx="6" ry="6" style="stroke:none;stroke-width:1.0;"/><rect fill="#FFFFFF" height="240.4883" rx="12.5" ry="12.5" style="stroke:#000000;stroke-width:1.5;" width="184" x="19" y="86"/><rect fill="#FFFFFF" height="208" rx="12.5" ry="12.5" style="stroke:#FFFFFF;stroke-width:1.0;" width="178" x="22" y="115.4883"/><line style="stroke:#000000;stroke-width:1.5;" x1="19" x2="203" y1="112.4883" y2="112.4883"/><text fill="#000000" font-family="sans-serif" font-size="14" lengthAdjust="spacing" textLength="91" x="65.5" y="104.5352">create_server</text><rect fill="#FFFFFF" height="40" rx="12.5" ry="12.5" style="stroke:#0000FF;stroke-width:1.5;" width="112" x="57" y="124.4883"/><text fill="#000000" font-family="sans-serif" font-size="14" lengthAdjust="spacing" textLength="102" x="62" y="149.7793">server creating</text><rect fill="#ADD8E6" height="40" rx="12.5" ry="12.5" style="stroke:#0000FF;stroke-width:1.5;" width="164" x="31" y="200.4883"/><text fill="#000000" font-family="sans-serif" font-size="14" lengthAdjust="spacing" textLength="154" x="36" y="225.7793">server Standard.create</text><rect fill="#FFFFFF" height="40" rx="12.5" ry="12.5" style="stroke:#0000FF;stroke-width:1.5;" width="107" x="59.5" y="276.4883"/><text fill="#000000" font-family="sans-serif" font-size="14" lengthAdjust="spacing" textLength="97" x="64.5" y="301.7793">server created</text><!--MD5=[63ec0b99c6cfc6b72abac114d1e4cc7e]
link step_parallel_deploy_create_server_server_creating to step_parallel_deploy_create_server_server_Standard.create--><path d="M113,164.8549 C113,174.2155 113,185.4103 113,195.2956 " fill="none" id="step_parallel_deploy_create_server_server_creating-to-step_parallel_deploy_create_server_server_Standard.create" style="stroke:#0000FF;stroke-width:1.0;"/><polygon fill="#0000FF" points="113,200.329,117,191.329,113,195.329,109,191.329,113,200.329" style="stroke:#0000FF;stroke-width:1.0;"/><!--MD5=[7c18090a0697df8edeb1363e78b893bd]
link step_parallel_deploy_create_server_server_Standard.create to step_parallel_deploy_create_server_server_created--><path d="M113,240.8549 C113,250.2155 113,261.4103 113,271.2956 " fill="none" id="step_parallel_deploy_create_server_server_Standard.create-to-step_parallel_deploy_create_server_server_created" style="stroke:#0000FF;stroke-width:1.0;"/><polygon fill="#0000FF" points="113,276.329,117,267.329,113,271.329,109,267.329,113,276.329" style="stroke:#0000FF;stroke-width:1.0;"/><rect fill="#FFFFFF" height="88.4883" rx="12.5" ry="12.5" style="stroke:#000000;stroke-width:1.5;" width="165" x="28.5" y="386"/><rect fill="#FFFFFF" height="56" rx="12.5" ry="12.5" style="stroke:#FFFFFF;stroke-width:1.0;" width="159" x="31.5" y="415.4883"/><line style="stroke:#000000;stroke-width:1.5;" x1="28.5" x2="193.5" y1="412.4883" y2="412.4883"/><text fill="#000000" font-family="sans-serif" font-size="14" lengthAdjust="spacing" textLength="145" x="38.5" y="404.5352">pre_configure_server</text><rect fill="#FFFFFF" height="40" rx="12.5" ry="12.5" style="stroke:#0000FF;stroke-width:1.5;" width="136" x="40.5" y="424.4883"/><text fill="#000000" font-family="sans-serif" font-size="14" lengthAdjust="spacing" textLength="126" x="45.5" y="449.7793">server configuring</text><rect fill="#FFFFFF" height="88.4883" rx="12.5" ry="12.5" style="stroke:#000000;stroke-width:1.5;" width="208" x="7" y="534"/><rect fill="#FFFFFF" height="56" rx="12.5" ry="12.5" style="stroke:#FFFFFF;stroke-width:1.0;" width="202" x="10" y="563.4883"/><line style="stroke:#000000;stroke-width:1.5;" x1="7" x2="215" y1="560.4883" y2="560.4883"/><text fill="#000000" font-family="sans-serif" font-size="14" lengthAdjust="spacing" textLength="115" x="53.5" y="552.5352">configure_server</text><rect fill="#ADD8E6" height="40" rx="12.5" ry="12.5" style="stroke:#0000FF;stroke-width:1.5;" width="188" x="19" y="572.4883"/><text fill="#000000" font-family="sans-serif" font-size="14" lengthAdjust="spacing" textLength="178" x="24" y="597.7793">server Standard.configure</text><rect fill="#FFFFFF" height="88.4883" rx="12.5" ry="12.5" style="stroke:#000000;stroke-width:1.5;" width="172" x="25" y="682"/><rect fill="#FFFFFF" height="56" rx="12.5" ry="12.5" style="stroke:#FFFFFF;stroke-width:1.0;" width="166" x="28" y="711.4883"/><line style="stroke:#000000;stroke-width:1.5;" x1="25" x2="197" y1="708.4883" y2="708.4883"/><text fill="#000000" font-family="sans-serif" font-size="14" lengthAdjust="spacing" textLength="152" x="35" y="700.5352">post_configure_server</text><rect fill="#FFFFFF" height="40" rx="12.5" ry="12.5" style="stroke:#0000FF;stroke-width:1.5;" width="131" x="37" y="720.4883"/><text fill="#000000" font-family="sans-serif" font-size="14" lengthAdjust="spacing" textLength="121" x="42" y="745.7793">server configured</text><rect fill="#FFFFFF" height="240.4883" rx="12.5" ry="12.5" style="stroke:#000000;stroke-width:1.5;" width="173" x="24.5" y="830"/><rect fill="#FFFFFF" height="208" rx="12.5" ry="12.5" style="stroke:#FFFFFF;stroke-width:1.0;" width="167" x="27.5" y="859.4883"/><line style="stroke:#000000;stroke-width:1.5;" x1="24.5" x2="197.5" y1="856.4883" y2="856.4883"/><text fill="#000000" font-family="sans-serif" font-size="14" lengthAdjust="spacing" textLength="80" x="71" y="848.5352">start_server</text><rect fill="#FFFFFF" height="40" rx="12.5" ry="12.5" style="stroke:#0000FF;stroke-width:1.5;" width="109" x="58.5" y="868.4883"/><text fill="#000000" font-family="sans-serif" font-size="14" lengthAdjust="spacing" textLength="99" x="63.5" y="893.7793">server starting</text><rect fill="#ADD8E6" height="40" rx="12.5" ry="12.5" style="stroke:#0000FF;stroke-width:1.5;" width="153" x="36.5" y="944.4883"/><text fill="#000000" font-family="sans-serif" font-size="14" lengthAdjust="spacing" textLength="143" x="41.5" y="969.7793">server Standard.start</text><rect fill="#FFFFFF" height="40" rx="12.5" ry="12.5" style="stroke:#0000FF;stroke-width:1.5;" width="104" x="61" y="1020.4883"/><text fill="#000000" font-family="sans-serif" font-size="14" lengthAdjust="spacing" textLength="94" x="66" y="1045.7793">server started</text><!--MD5=[9214b87d818ec5995d883bdd527fbfe8]
link step_parallel_deploy_start_server_server_starting to step_parallel_deploy_start_server_server_Standard.start--><path d="M113,908.8549 C113,918.2155 113,929.4103 113,939.2956 " fill="none" id="step_parallel_deploy_start_server_server_starting-to-step_parallel_deploy_start_server_server_Standard.start" style="stroke:#0000FF;stroke-width:1.0;"/><polygon fill="#0000FF" points="113,944.329,117,935.329,113,939.329,109,935.329,113,944.329" style="stroke:#0000FF;stroke-width:1.0;"/><!--MD5=[d4cc43ba5c20f87da241f9a0a584a3aa]
link step_parallel_deploy_start_server_server_Standard.start to step_parallel_deploy_start_server_server_started--><path d="M113,984.8549 C113,994.2155 113,1005.4103 113,1015.2956 " fill="none" id="step_parallel_deploy_start_server_server_Standard.start-to-step_parallel_deploy_start_server_server_started" style="stroke:#0000FF;stroke-width:1.0;"/><polygon fill="#0000FF" points="113,1020.329,117,1011.329,113,1015.329,109,1011.329,113,1020.329" style="stroke:#0000FF;stroke-width:1.0;"/><!--MD5=[003a96f9d926fde73f817ffe9b353143]
link step_parallel_deploy_create_server to step_parallel_deploy_pre_configure_server--><path d="M111,326.1966 C111,345.4052 111,364.2905 111,380.5764 " fill="none" id="step_parallel_deploy_create_server-to-step_parallel_deploy_pre_configure_server" style="stroke:#0000FF;stroke-width:1.0;"/><polygon fill="#0000FF" points="111,385.9964,115,376.9964,111,380.9964,107,376.9964,111,385.9964" style="stroke:#0000FF;stroke-width:1.0;"/><!--MD5=[6c09d9654f1172f4fb51049bdf6c784b]
link step_parallel_deploy_pre_configure_server to step_parallel_deploy_configure_server--><path d="M111,474.0042 C111,491.1469 111,510.8749 111,528.5094 " fill="none" id="step_parallel_deploy_pre_configure_server-to-step_parallel_deploy_configure_server" style="stroke:#0000FF;stroke-width:1.0;"/><polygon fill="#0000FF" points="111,533.9098,115,524.9098,111,528.9098,107,524.9098,111,533.9098" style="stroke:#0000FF;stroke-width:1.0;"/><!--MD5=[39bca5aeb9adeb1c9fa8510a26394e32]
link step_parallel_deploy_configure_server to step_parallel_deploy_post_configure_server--><path d="M111,622.0042 C111,639.1469 111,658.8749 111,676.5094 " fill="none" id="step_parallel_deploy_configure_server-to-step_parallel_deploy_post_configure_server" style="stroke:#0000FF;stroke-width:1.0;"/><polygon fill="#0000FF" points="111,681.9098,115,672.9098,111,676.9098,107,672.9098,111,681.9098" style="stroke:#0000FF;stroke-width:1.0;"/><!--MD5=[6c718258f6a166008f66c99e405b7e82]
link step_parallel_deploy_post_configure_server to step_parallel_deploy_start_server--><path d="M111,770.2552 C111,786.1051 111,804.8545 111,824.161 " fill="none" id="step_parallel_deploy_post_configure_server-to-step_parallel_deploy_start_server" style="stroke:#0000FF;stroke-width:1.0;"/><polygon fill="#0000FF" points="111,829.6193,115,820.6193,111,824.6193,107,820.6193,111,829.6193" style="stroke:#0000FF;stroke-width:1.0;"/><!--MD5=[3bf9d61db31fa8f505466388a05f97ba]
link *start to step_parallel_deploy_create_server--><path d="M111,26.2152 C111,37.7525 111,57.9094 111,80.6599 " fill="none" id="*start-to-step_parallel_deploy_create_server" style="stroke:#0000FF;stroke-width:1.0;"/><polygon fill="#0000FF" points="111,85.8637,115,76.8637,111,80.8637,107,76.8637,111,85.8637" style="stroke:#0000FF;stroke-width:1.0;"/><!--MD5=[dcb560e8f35f059b4219904be930d506]
link step_parallel_deploy_start_server to *end--><path d="M111,1070.0605 C111,1091.7796 111,1111.6166 111,1124.5716 " fill="none" id="step_parallel_deploy_start_server-to-*end" style="stroke:#0000FF;stroke-width:1.0;"/><polygon fill="#0000FF" points="111,1129.6879,115,1120.6879,111,1124.6879,107,1120.6879,111,1129.6879" style="stroke:#0000FF;stroke-width:1.0;"/><!--MD5=[d4b99a857638762322b1665428f98594]
@startuml
hide empty description
skinparam shadowing false
skinparam state {
  ArrowColor blue
  BorderColor blue
  EndColor black
  StartColor green
  BackGroundColor<< step >> white
  BorderColor<< step >> black
  BackGroundColor<< delegate >> lightgrey
  BackGroundColor<< set_state >> white
  BackGroundColor<< call_operation >> lightblue
  BackGroundColor<< inline >> white
}
skinparam ActivityBarColor<<fork>> DarkGreen
skinparam ActivityBarColor<<join>> DarkOrange

state "create_server" as step_parallel_deploy_create_server << step >> {
  state "server creating" as step_parallel_deploy_create_server_server_creating << set_state >>
  state "server Standard.create" as step_parallel_deploy_create_server_server_Standard.create << call_operation >>
  state "server created" as step_parallel_deploy_create_server_server_created << set_state >>
  step_parallel_deploy_create_server_server_creating - -> step_parallel_deploy_create_server_server_Standard.create
  step_parallel_deploy_create_server_server_Standard.create - -> step_parallel_deploy_create_server_server_created
}
state "pre_configure_server" as step_parallel_deploy_pre_configure_server << step >> {
  state "server configuring" as step_parallel_deploy_pre_configure_server_server_configuring << set_state >>
}
state "configure_server" as step_parallel_deploy_configure_server << step >> {
  state "server Standard.configure" as step_parallel_deploy_configure_server_server_Standard.configure << call_operation >>
}
state "post_configure_server" as step_parallel_deploy_post_configure_server << step >> {
  state "server configured" as step_parallel_deploy_post_configure_server_server_configured << set_state >>
}
state "start_server" as step_parallel_deploy_start_server << step >> {
  state "server starting" as step_parallel_deploy_start_server_server_starting << set_state >>
  state "server Standard.start" as step_parallel_deploy_start_server_server_Standard.start << call_operation >>
  state "server started" as step_parallel_deploy_start_server_server_started << set_state >>
  step_parallel_deploy_start_server_server_starting - -> step_parallel_deploy_start_server_server_Standard.start
  step_parallel_deploy_start_server_server_Standard.start - -> step_parallel_deploy_start_server_server_started
}
step_parallel_deploy_create_server - -> step_parallel_deploy_pre_configure_server
step_parallel_deploy_pre_configure_server - -> step_parallel_deploy_configure_server
step_parallel_deploy_configure_server - -> step_parallel_deploy_post_configure_server
step_parallel_deploy_post_configure_server - -> step_parallel_deploy_start_server
[*] - -> step_parallel_deploy_create_server
step_parallel_deploy_start_server - -> [*]
@enduml

PlantUML version 1.2021.13(Mon Nov 01 12:38:45 CET 2021)
(GPL source distribution)
Java Runtime: Java(TM) SE Runtime Environment
JVM: Java HotSpot(TM) 64-Bit Server VM
Default Encoding: UTF-8
Language: fr
Country: FR
--></g></svg>