<?xml version="1.0" encoding="UTF-8" standalone="no"?><svg xmlns="http://www.w3.org/2000/svg" xmlns:xlink="http://www.w3.org/1999/xlink" contentScriptType="application/ecmascript" contentStyleType="text/css" height="2200px" preserveAspectRatio="none" style="width:222px;height:2200px;background:#FFFFFF;" version="1.1" viewBox="0 0 222 2200" width="222px" zoomAndPan="magnify"><defs/><g><ellipse cx="111" cy="16" fill="#008000" rx="10" ry="10" style="stroke:none;stroke-width:1.0;"/><ellipse cx="111" cy="2184" rx="10" ry="10" style="stroke:#000000;stroke-width:1.0;fill:none;"/><ellipse cx="111.5" cy="2184.5" fill="#000000" rx="6" ry="6" style="stroke:none;stroke-width:1.0;"/><rect fill="#FFFFFF" height="240.4883" rx="12.5" ry="12.5" style="stroke:#000000;stroke-width:1.5;" width="182" x="20" y="1130"/><rect fill="#FFFFFF" height="208" rx="12.5" ry="12.5" style="stroke:#FFFFFF;stroke-width:1.0;" width="176" x="23" y="1159.4883"/><line style="stroke:#000000;stroke-width:1.5;" x1="20" x2="202" y1="1156.4883" y2="1156.4883"/><text fill="#000000" font-family="sans-serif" font-size="14" lengthAdjust="spacing" textLength="89" x="66.5" y="1148.5352">create_nginx</text><rect fill="#FFFFFF" height="40" rx="12.5" ry="12.5" style="stroke:#0000FF;stroke-width:1.5;" width="110" x="58" y="1168.4883"/><text fill="#000000" font-family="sans-serif" font-size="14" lengthAdjust="spacing" textLength="100" x="63" y="1193.7793">nginx creating</text><rect fill="#ADD8E6" height="40" rx="12.5" ry="12.5" style="stroke:#0000FF;stroke-width:1.5;" width="162" x="32" y="1244.4883"/><text fill="#000000" font-family="sans-serif" font-size="14" lengthAdjust="spacing" textLength="152" x="37" y="1269.7793">nginx Standard.create</text><rect fill="#FFFFFF" height="40" rx="12.5" ry="12.5" style="stroke:#0000FF;stroke-width:1.5;" width="105" x="60.5" y="1320.4883"/><text fill="#000000" font-family="sans-serif" font-size="14" lengthAdjust="spacing" textLength="95" x="65.5" y="1345.7793">nginx created</text><!--MD5=[ab920a76a20458c9754c0c7dd4db3cd5]
link step_declarative_deploy_create_nginx_nginx_creating to step_declarative_deploy_create_nginx_nginx_Standard.create--><path d="M113,1208.8549 C113,1218.2155 113,1229.4103 113,1239.2956 " fill="none" id="step_declarative_deploy_create_nginx_nginx_creating-to-step_declarative_deploy_create_nginx_nginx_Standard.create" style="stroke:#0000FF;stroke-width:1.0;"/><polygon fill="#0000FF" points="113,1244.329,117,1235.329,113,1239.329,109,1235.329,113,1244.329" style="stroke:#0000FF;stroke-width:1.0;"/><!--MD5=[749aef296705fa6b62af9c4a8a713169]
link step_declarative_deploy_create_nginx_nginx_Standard.create to step_declarative_deploy_create_nginx_nginx_created--><path d="M113,1284.8549 C113,1294.2155 113,1305.4103 113,1315.2956 " fill="none" id="step_declarative_deploy_create_nginx_nginx_Standard.create-to-step_declarative_deploy_create_nginx_nginx_created" style="stroke:#0000FF;stroke-width:1.0;"/><polygon fill="#0000FF" points="113,1320.329,117,1311.329,113,1315.329,109,1311.329,113,1320.329" style="stroke:#0000FF;stroke-width:1.0;"/><rect fill="#FFFFFF" height="88.4883" rx="12.5" ry="12.5" style="stroke:#000000;stroke-width:1.5;" width="163" x="29.5" y="1430"/><rect fill="#FFFFFF" height="56" rx="12.5" ry="12.5" style="stroke:#FFFFFF;stroke-width:1.0;" width="157" x="32.5" y="1459.4883"/><line style="stroke:#000000;stroke-width:1.5;" x1="29.5" x2="192.5" y1="1456.4883" y2="1456.4883"/><text fill="#000000" font-family="sans-serif" font-size="14" lengthAdjust="spacing" textLength="143" x="39.5" y="1448.5352">pre_configure_nginx</text><rect fill="#FFFFFF" height="40" rx="12.5" ry="12.5" style="stroke:#0000FF;stroke-width:1.5;" width="134" x="41.5" y="1468.4883"/><text fill="#000000" font-family="sans-serif" font-size="14" lengthAdjust="spacing" textLength="124" x="46.5" y="1493.7793">nginx configuring</text><rect fill="#FFFFFF" height="88.4883" rx="12.5" ry="12.5" style="stroke:#000000;stroke-width:1.5;" width="206" x="8" y="1578"/><rect fill="#FFFFFF" height="56" rx="12.5" ry="12.5" style="stroke:#FFFFFF;stroke-width:1.0;" width="200" x="11" y="1607.4883"/><line style="stroke:#000000;stroke-width:1.5;" x1="8" x2="214" y1="1604.4883" y2="1604.4883"/><text fill="#000000" font-family="sans-serif" font-size="14" lengthAdjust="spacing" textLength="113" x="54.5" y="1596.5352">configure_nginx</text><rect fill="#ADD8E6" height="40" rx="12.5" ry="12.5" style="stroke:#0000FF;stroke-width:1.5;" width="186" x="20" y="1616.4883"/><text fill="#000000" font-family="sans-serif" font-size="14" lengthAdjust="spacing" textLength="176" x="25" y="1641.7793">nginx Standard.configure</text><rect fill="#FFFFFF" height="88.4883" rx="12.5" ry="12.5" style="stroke:#000000;stroke-width:1.5;" width="170" x="26" y="1726"/><rect fill="#FFFFFF" height="56" rx="12.5" ry="12.5" style="stroke:#FFFFFF;stroke-width:1.0;" width="164" x="29" y="1755.4883"/><line style="stroke:#000000;stroke-width:1.5;" x1="26" x2="196" y1="1752.4883" y2="1752.4883"/><text fill="#000000" font-family="sans-serif" font-size="14" lengthAdjust="spacing" textLength="150" x="36" y="1744.5352">post_configure_nginx</text><rect fill="#FFFFFF" height="40" rx="12.5" ry="12.5" style="stroke:#0000FF;stroke-width:1.5;" width="129" x="38" y="1764.4883"/><text fill="#000000" font-family="sans-serif" font-size="14" lengthAdjust="spacing" textLength="119" x="43" y="1789.7793">nginx configured</text><rect fill="#FFFFFF" height="240.4883" rx="12.5" ry="12.5" style="stroke:#000000;stroke-width:1.5;" width="171" x="25.5" y="1874"/><rect fill="#FFFFFF" height="208" rx="12.5" ry="12.5" style="stroke:#FFFFFF;stroke-width:1.0;" width="165" x="28.5" y="1903.4883"/><line style="stroke:#000000;stroke-width:1.5;" x1="25.5" x2="196.5" y1="1900.4883" y2="1900.4883"/><text fill="#000000" font-family="sans-serif" font-size="14" lengthAdjust="spacing" textLength="78" x="72" y="1892.5352">start_nginx</text><rect fill="#FFFFFF" height="40" rx="12.5" ry="12.5" style="stroke:#0000FF;stroke-width:1.5;" width="107" x="59.5" y="1912.4883"/><text fill="#000000" font-family="sans-serif" font-size="14" lengthAdjust="spacing" textLength="97" x="64.5" y="1937.7793">nginx starting</text><rect fill="#ADD8E6" height="40" rx="12.5" ry="12.5" style="stroke:#0000FF;stroke-width:1.5;" width="151" x="37.5" y="1988.4883"/><text fill="#000000" font-family="sans-serif" font-size="14" lengthAdjust="spacing" textLength="141" x="42.5" y="2013.7793">nginx Standard.start</text><rect fill="#FFFFFF" height="40" rx="12.5" ry="12.5" style="stroke:#0000FF;stroke-width:1.5;" width="102" x="62" y="2064.4883"/><text fill="#000000" font-family="sans-serif" font-size="14" lengthAdjust="spacing" textLength="92" x="67" y="2089.7793">nginx started</text><!--MD5=[2e390e947b269af453c2855f6b96d969]
link step_declarative_deploy_start_nginx_nginx_starting to step_declarative_deploy_start_nginx_nginx_Standard.start--><path d="M113,1952.8549 C113,1962.2155 113,1973.4103 113,1983.2956 " fill="none" id="step_declarative_deploy_start_nginx_nginx_starting-to-step_declarative_deploy_start_nginx_nginx_Standard.start" style="stroke:#0000FF;stroke-width:1.0;"/><polygon fill="#0000FF" points="113,1988.329,117,1979.329,113,1983.329,109,1979.329,113,1988.329" style="stroke:#0000FF;stroke-width:1.0;"/><!--MD5=[84604cd02aa3734b9bbd5181faf6faed]
link step_declarative_deploy_start_nginx_nginx_Standard.start to step_declarative_deploy_start_nginx_nginx_started--><path d="M113,2028.8549 C113,2038.2155 113,2049.4103 113,2059.2956 " fill="none" id="step_declarative_deploy_start_nginx_nginx_Standard.start-to-step_declarative_deploy_start_nginx_nginx_started" style="stroke:#0000FF;stroke-width:1.0;"/><polygon fill="#0000FF" points="113,2064.329,117,2055.329,113,2059.329,109,2055.329,113,2064.329" style="stroke:#0000FF;stroke-width:1.0;"/><rect fill="#FFFFFF" height="240.4883" rx="12.5" ry="12.5" style="stroke:#000000;stroke-width:1.5;" width="184" x="19" y="86"/><rect fill="#FFFFFF" height="208" rx="12.5" ry="12.5" style="stroke:#FFFFFF;stroke-width:1.0;" width="178" x="22" y="115.4883"/><line style="stroke:#000000;stroke-width:1.5;" x1="19" x2="203" y1="112.4883" y2="112.4883"/><text fill="#000000" font-family="sans-serif" font-size="14" lengthAdjust="spacing" textLength="91" x="65.5" y="104.5352">create_server</text><rect fill="#FFFFFF" height="40" rx="12.5" ry="12.5" style="stroke:#0000FF;stroke-width:1.5;" width="112" x="57" y="124.4883"/><text fill="#000000" font-family="sans-serif" font-size="14" lengthAdjust="spacing" textLength="102" x="62" y="149.7793">server creating</text><rect fill="#ADD8E6" height="40" rx="12.5" ry="12.5" style="stroke:#0000FF;stroke-width:1.5;" width="164" x="31" y="200.4883"/><text fill="#000000" font-family="sans-serif" font-size="14" lengthAdjust="spacing" textLength="154" x="36" y="225.7793">server Standard.create</text><rect fill="#FFFFFF" height="40" rx="12.5" ry="12.5" style="stroke:#0000FF;stroke-width:1.5;" width="107" x="59.5" y="276.4883"/><text fill="#000000" font-family="sans-serif" font-size="14" lengthAdjust="spacing" textLength="97" x="64.5" y="301.7793">server created</text><!--MD5=[eb2b151527c6b740e25a8e7efb3a876a]
link step_declarative_deploy_create_server_server_creating to step_declarative_deploy_create_server_server_Standard.create--><path d="M113,164.8549 C113,174.2155 113,185.4103 113,195.2956 " fill="none" id="step_declarative_deploy_create_server_server_creating-to-step_declarative_deploy_create_server_server_Standard.create" style="stroke:#0000FF;stroke-width:1.0;"/><polygon fill="#0000FF" points="113,200.329,117,191.329,113,195.329,109,191.329,113,200.329" style="stroke:#0000FF;stroke-width:1.0;"/><!--MD5=[a1cd39706624bb6eda183fbad8404b23]
link step_declarative_deploy_create_server_server_Standard.create to step_declarative_deploy_create_server_server_created--><path d="M113,240.8549 C113,250.2155 113,261.4103 113,271.2956 " fill="none" id="step_declarative_deploy_create_server_server_Standard.create-to-step_declarative_deploy_create_server_server_created" style="stroke:#0000FF;stroke-width:1.0;"/><polygon fill="#0000FF" points="113,276.329,117,267.329,113,271.329,109,267.329,113,276.329" style="stroke:#0000FF;stroke-width:1.0;"/><rect fill="#FFFFFF" height="88.4883" rx="12.5" ry="12.5" style="stroke:#000000;stroke-width:1.5;" width="165" x="28.5" y="386"/><rect fill="#FFFFFF" height="56" rx="12.5" ry="12.5" style="stroke:#FFFFFF;stroke-width:1.0;" width="159" x="31.5" y="415.4883"/><line style="stroke:#000000;stroke-width:1.5;" x1="28.5" x2="193.5" y1="412.4883" y2="412.4883"/><text fill="#000000" font-family="sans-serif" font-size="14" lengthAdjust="spacing" textLength="145" x="38.5" y="404.5352">pre_configure_server</text><rect fill="#FFFFFF" height="40" rx="12.5" ry="12.5" style="stroke:#0000FF;stroke-width:1.5;" width="136" x="40.5" y="424.4883"/><text fill="#000000" font-family="sans-serif" font-size="14" lengthAdjust="spacing" textLength="126" x="45.5" y="449.7793">server configuring</text><rect fill="#FFFFFF" height="88.4883" rx="12.5" ry="12.5" style="stroke:#000000;stroke-width:1.5;" width="208" x="7" y="534"/><rect fill="#FFFFFF" height="56" rx="12.5" ry="12.5" style="stroke:#FFFFFF;stroke-width:1.0;" width="202" x="10" y="563.4883"/><line style="stroke:#000000;stroke-width:1.5;" x1="7" x2="215" y1="560.4883" y2="560.4883"/><text fill="#000000" font-family="sans-serif" font-size="14" lengthAdjust="spacing" textLength="115" x="53.5" y="552.5352">configure_server</text><rect fill="#ADD8E6" height="40" rx="12.5" ry="12.5" style="stroke:#0000FF;stroke-width:1.5;" width="188" x="19" y="572.4883"/><text fill="#000000" font-family="sans-serif" font-size="14" lengthAdjust="spacing" textLength="178" x="24" y="597.7793">server Standard.configure</text><rect fill="#FFFFFF" height="88.4883" rx="12.5" ry="12.5" style="stroke:#000000;stroke-width:1.5;" width="172" x="25" y="682"/><rect fill="#FFFFFF" height="56" rx="12.5" ry="12.5" style="stroke:#FFFFFF;stroke-width:1.0;" width="166" x="28" y="711.4883"/><line style="stroke:#000000;stroke-width:1.5;" x1="25" x2="197" y1="708.4883" y2="708.4883"/><text fill="#000000" font-family="sans-serif" font-size="14" lengthAdjust="spacing" textLength="152" x="35" y="700.5352">post_configure_server</text><rect fill="#FFFFFF" height="40" rx="12.5" ry="12.5" style="stroke:#0000FF;stroke-width:1.5;" width="131" x="37" y="720.4883"/><text fill="#000000" font-family="sans-serif" font-size="14" lengthAdjust="spacing" textLength="121" x="42" y="745.7793">server configured</text><rect fill="#FFFFFF" height="240.4883" rx="12.5" ry="12.5" style="stroke:#000000;stroke-width:1.5;" width="173" x="24.5" y="830"/><rect fill="#FFFFFF" height="208" rx="12.5" ry="12.5" style="stroke:#FFFFFF;stroke-width:1.0;" width="167" x="27.5" y="859.4883"/><line style="stroke:#000000;stroke-width:1.5;" x1="24.5" x2="197.5" y1="856.4883" y2="856.4883"/><text fill="#000000" font-family="sans-serif" font-size="14" lengthAdjust="spacing" textLength="80" x="71" y="848.5352">start_server</text><rect fill="#FFFFFF" height="40" rx="12.5" ry="12.5" style="stroke:#0000FF;stroke-width:1.5;" width="109" x="58.5" y="868.4883"/><text fill="#000000" font-family="sans-serif" font-size="14" lengthAdjust="spacing" textLength="99" x="63.5" y="893.7793">server starting</text><rect fill="#ADD8E6" height="40" rx="12.5" ry="12.5" style="stroke:#0000FF;stroke-width:1.5;" width="153" x="36.5" y="944.4883"/><text fill="#000000" font-family="sans-serif" font-size="14" lengthAdjust="spacing" textLength="143" x="41.5" y="969.7793">server Standard.start</text><rect fill="#FFFFFF" height="40" rx="12.5" ry="12.5" style="stroke:#0000FF;stroke-width:1.5;" width="104" x="61" y="1020.4883"/><text fill="#000000" font-family="sans-serif" font-size="14" lengthAdjust="spacing" textLength="94" x="66" y="1045.7793">server started</text><!--MD5=[0e64290c272f23929eacf4dde0ed3b77]
link step_declarative_deploy_start_server_server_starting to step_declarative_deploy_start_server_server_Standard.start--><path d="M113,908.8549 C113,918.2155 113,929.4103 113,939.2956 " fill="none" id="step_declarative_deploy_start_server_server_starting-to-step_declarative_deploy_start_server_server_Standard.start" style="stroke:#0000FF;stroke-width:1.0;"/><polygon fill="#0000FF" points="113,944.329,117,935.329,113,939.329,109,935.329,113,944.329" style="stroke:#0000FF;stroke-width:1.0;"/><!--MD5=[6f5af752da532701108735ee29bfee81]
link step_declarative_deploy_start_server_server_Standard.start to step_declarative_deploy_start_server_server_started--><path d="M113,984.8549 C113,994.2155 113,1005.4103 113,1015.2956 " fill="none" id="step_declarative_deploy_start_server_server_Standard.start-to-step_declarative_deploy_start_server_server_started" style="stroke:#0000FF;stroke-width:1.0;"/><polygon fill="#0000FF" points="113,1020.329,117,1011.329,113,1015.329,109,1011.329,113,1020.329" style="stroke:#0000FF;stroke-width:1.0;"/><!--MD5=[d511af62debbf7de1db17b1743b97d38]
link step_declarative_deploy_create_nginx to step_declarative_deploy_pre_configure_nginx--><path d="M111,1370.1966 C111,1389.4052 111,1408.2905 111,1424.5764 " fill="none" id="step_declarative_deploy_create_nginx-to-step_declarative_deploy_pre_configure_nginx" style="stroke:#0000FF;stroke-width:1.0;"/><polygon fill="#0000FF" points="111,1429.9964,115,1420.9964,111,1424.9964,107,1420.9964,111,1429.9964" style="stroke:#0000FF;stroke-width:1.0;"/><!--MD5=[b9cc9a235ae3cb88f4b10370a1bf01f0]
link step_declarative_deploy_pre_configure_nginx to step_declarative_deploy_configure_nginx--><path d="M111,1518.0042 C111,1535.1469 111,1554.8749 111,1572.5094 " fill="none" id="step_declarative_deploy_pre_configure_nginx-to-step_declarative_deploy_configure_nginx" style="stroke:#0000FF;stroke-width:1.0;"/><polygon fill="#0000FF" points="111,1577.9098,115,1568.9098,111,1572.9098,107,1568.9098,111,1577.9098" style="stroke:#0000FF;stroke-width:1.0;"/><!--MD5=[071d8ae99e7cb6f511364aa2dc721700]
link step_declarative_deploy_configure_nginx to step_declarative_deploy_post_configure_nginx--><path d="M111,1666.0042 C111,1683.1469 111,1702.8749 111,1720.5094 " fill="none" id="step_declarative_deploy_configure_nginx-to-step_declarative_deploy_post_configure_nginx" style="stroke:#0000FF;stroke-width:1.0;"/><polygon fill="#0000FF" points="111,1725.9098,115,1716.9098,111,1720.9098,107,1716.9098,111,1725.9098" style="stroke:#0000FF;stroke-width:1.0;"/><!--MD5=[75961e2b16d8a0b4bc4b6f4e2381a094]
link step_declarative_deploy_post_configure_nginx to step_declarative_deploy_start_nginx--><path d="M111,1814.2552 C111,1830.1051 111,1848.8545 111,1868.161 " fill="none" id="step_declarative_deploy_post_configure_nginx-to-step_declarative_deploy_start_nginx" style="stroke:#0000FF;stroke-width:1.0;"/><polygon fill="#0000FF" points="111,1873.6193,115,1864.6193,111,1868.6193,107,1864.6193,111,1873.6193" style="stroke:#0000FF;stroke-width:1.0;"/><!--MD5=[92d9b10bd46f3edd01f97d8b7cd87975]
link step_declarative_deploy_create_server to step_declarative_deploy_pre_configure_server--><path d="M111,326.1966 C111,345.4052 111,364.2905 111,380.5764 " fill="none" id="step_declarative_deploy_create_server-to-step_declarative_deploy_pre_configure_server" style="stroke:#0000FF;stroke-width:1.0;"/><polygon fill="#0000FF" points="111,385.9964,115,376.9964,111,380.9964,107,376.9964,111,385.9964" style="stroke:#0000FF;stroke-width:1.0;"/><!--MD5=[8d89e8b92161ac8963f6dde69e65c838]
link step_declarative_deploy_pre_configure_server to step_declarative_deploy_configure_server--><path d="M111,474.0042 C111,491.1469 111,510.8749 111,528.5094 " fill="none" id="step_declarative_deploy_pre_configure_server-to-step_declarative_deploy_configure_server" style="stroke:#0000FF;stroke-width:1.0;"/><polygon fill="#0000FF" points="111,533.9098,115,524.9098,111,528.9098,107,524.9098,111,533.9098" style="stroke:#0000FF;stroke-width:1.0;"/><!--MD5=[dcca98d8cdfa334668b3b929710262b8]
link step_declarative_deploy_configure_server to step_declarative_deploy_post_configure_server--><path d="M111,622.0042 C111,639.1469 111,658.8749 111,676.5094 " fill="none" id="step_declarative_deploy_configure_server-to-step_declarative_deploy_post_configure_server" style="stroke:#0000FF;stroke-width:1.0;"/><polygon fill="#0000FF" points="111,681.9098,115,672.9098,111,676.9098,107,672.9098,111,681.9098" style="stroke:#0000FF;stroke-width:1.0;"/><!--MD5=[c32e95b25ecb7fd2a2e86c1a3600bf23]
link step_declarative_deploy_post_configure_server to step_declarative_deploy_start_server--><path d="M111,770.2552 C111,786.1051 111,804.8545 111,824.161 " fill="none" id="step_declarative_deploy_post_configure_server-to-step_declarative_deploy_start_server" style="stroke:#0000FF;stroke-width:1.0;"/><polygon fill="#0000FF" points="111,829.6193,115,820.6193,111,824.6193,107,820.6193,111,829.6193" style="stroke:#0000FF;stroke-width:1.0;"/><!--MD5=[1f61dc3a03d4f52aee10247f93e71b99]
link step_declarative_deploy_start_server to step_declarative_deploy_create_nginx--><path d="M111,1070.2929 C111,1088.1733 111,1106.6404 111,1124.6221 " fill="none" id="step_declarative_deploy_start_server-to-step_declarative_deploy_create_nginx" style="stroke:#0000FF;stroke-width:1.0;"/><polygon fill="#0000FF" points="111,1129.6801,115,1120.6801,111,1124.6801,107,1120.6801,111,1129.6801" style="stroke:#0000FF;stroke-width:1.0;"/><!--MD5=[fa40e5f9a7cc529205329c61d01108dc]
link *start to step_declarative_deploy_create_server--><path d="M111,26.2152 C111,37.7525 111,57.9094 111,80.6599 " fill="none" id="*start-to-step_declarative_deploy_create_server" style="stroke:#0000FF;stroke-width:1.0;"/><polygon fill="#0000FF" points="111,85.8637,115,76.8637,111,80.8637,107,76.8637,111,85.8637" style="stroke:#0000FF;stroke-width:1.0;"/><!--MD5=[8bf57df028cc1c2957ca581f24734799]
link step_declarative_deploy_start_nginx to *end--><path d="M111,2114.0605 C111,2135.7796 111,2155.6166 111,2168.5716 " fill="none" id="step_declarative_deploy_start_nginx-to-*end" style="stroke:#0000FF;stroke-width:1.0;"/><polygon fill="#0000FF" points="111,2173.6879,115,2164.6879,111,2168.6879,107,2164.6879,111,2173.6879" style="stroke:#0000FF;stroke-width:1.0;"/><!--MD5=[1d5bc2bceb6043379f4f7f85dc357fc5]
@startuml
hide empty description
skinparam shadowing false
skinparam state {
  ArrowColor blue
  BorderColor blue
  EndColor black
  StartColor green
  BackGroundColor<< step >> white
  BorderColor<< step >> black
  BackGroundColor<< delegate >> lightgrey
  BackGroundColor<< set_state >> white
  BackGroundColor<< call_operation >> lightblue
  BackGroundColor<< inline >> white
}
skinparam ActivityBarColor<<fork>> DarkGreen
skinparam ActivityBarColor<<join>> DarkOrange

state "create_nginx" as step_declarative_deploy_create_nginx << step >> {
  state "nginx creating" as step_declarative_deploy_create_nginx_nginx_creating << set_state >>
  state "nginx Standard.create" as step_declarative_deploy_create_nginx_nginx_Standard.create << call_operation >>
  state "nginx created" as step_declarative_deploy_create_nginx_nginx_created << set_state >>
  step_declarative_deploy_create_nginx_nginx_creating - -> step_declarative_deploy_create_nginx_nginx_Standard.create
  step_declarative_deploy_create_nginx_nginx_Standard.create - -> step_declarative_deploy_create_nginx_nginx_created
}
state "pre_configure_nginx" as step_declarative_deploy_pre_configure_nginx << step >> {
  state "nginx configuring" as step_declarative_deploy_pre_configure_nginx_nginx_configuring << set_state >>
}
state "configure_nginx" as step_declarative_deploy_configure_nginx << step >> {
  state "nginx Standard.configure" as step_declarative_deploy_configure_nginx_nginx_Standard.configure << call_operation >>
}
state "post_configure_nginx" as step_declarative_deploy_post_configure_nginx << step >> {
  state "nginx configured" as step_declarative_deploy_post_configure_nginx_nginx_configured << set_state >>
}
state "start_nginx" as step_declarative_deploy_start_nginx << step >> {
  state "nginx starting" as step_declarative_deploy_start_nginx_nginx_starting << set_state >>
  state "nginx Standard.start" as step_declarative_deploy_start_nginx_nginx_Standard.start << call_operation >>
  state "nginx started" as step_declarative_deploy_start_nginx_nginx_started << set_state >>
  step_declarative_deploy_start_nginx_nginx_starting - -> step_declarative_deploy_start_nginx_nginx_Standard.start
  step_declarative_deploy_start_nginx_nginx_Standard.start - -> step_declarative_deploy_start_nginx_nginx_started
}
state "create_server" as step_declarative_deploy_create_server << step >> {
  state "server creating" as step_declarative_deploy_create_server_server_creating << set_state >>
  state "server Standard.create" as step_declarative_deploy_create_server_server_Standard.create << call_operation >>
  state "server created" as step_declarative_deploy_create_server_server_created << set_state >>
  step_declarative_deploy_create_server_server_creating - -> step_declarative_deploy_create_server_server_Standard.create
  step_declarative_deploy_create_server_server_Standard.create - -> step_declarative_deploy_create_server_server_created
}
state "pre_configure_server" as step_declarative_deploy_pre_configure_server << step >> {
  state "server configuring" as step_declarative_deploy_pre_configure_server_server_configuring << set_state >>
}
state "configure_server" as step_declarative_deploy_configure_server << step >> {
  state "server Standard.configure" as step_declarative_deploy_configure_server_server_Standard.configure << call_operation >>
}
state "post_configure_server" as step_declarative_deploy_post_configure_server << step >> {
  state "server configured" as step_declarative_deploy_post_configure_server_server_configured << set_state >>
}
state "start_server" as step_declarative_deploy_start_server << step >> {
  state "server starting" as step_declarative_deploy_start_server_server_starting << set_state >>
  state "server Standard.start" as step_declarative_deploy_start_server_server_Standard.start << call_operation >>
  state "server started" as step_declarative_deploy_start_server_server_started << set_state >>
  step_declarative_deploy_start_server_server_starting - -> step_declarative_deploy_start_server_server_Standard.start
  step_declarative_deploy_start_server_server_Standard.start - -> step_declarative_deploy_start_server_server_started
}
step_declarative_deploy_create_nginx - -> step_declarative_deploy_pre_configure_nginx
step_declarative_deploy_pre_configure_nginx - -> step_declarative_deploy_configure_nginx
step_declarative_deploy_configure_nginx - -> step_declarative_deploy_post_configure_nginx
step_declarative_deploy_post_configure_nginx - -> step_declarative_deploy_start_nginx
step_declarative_deploy_create_server - -> step_declarative_deploy_pre_configure_server
step_declarative_deploy_pre_configure_server - -> step_declarative_deploy_configure_server
step_declarative_deploy_configure_server - -> step_declarative_deploy_post_configure_server
step_declarative_deploy_post_configure_server - -> step_declarative_deploy_start_server
step_declarative_deploy_start_server - -> step_declarative_deploy_create_nginx
[*] - -> step_declarative_deploy_create_server
step_declarative_deploy_start_nginx - -> [*]
@enduml

PlantUML version 1.2021.13(Mon Nov 01 12:38:45 CET 2021)
(GPL source distribution)
Java Runtime: Java(TM) SE Runtime Environment
JVM: Java HotSpot(TM) 64-Bit Server VM
Default Encoding: UTF-8
Language: fr
Country: FR
--></g></svg>