<?xml version="1.0" encoding="UTF-8" standalone="no"?><svg xmlns="http://www.w3.org/2000/svg" xmlns:xlink="http://www.w3.org/1999/xlink" contentScriptType="application/ecmascript" contentStyleType="text/css" height="1748px" preserveAspectRatio="none" style="width:449px;height:1748px;background:#FFFFFF;" version="1.1" viewBox="0 0 449 1748" width="449px" zoomAndPan="magnify"><defs/><g><rect fill="#006400" height="8" style="stroke:none;stroke-width:1.0;" width="80" x="164" y="386"/><ellipse cx="204" cy="16" fill="#008000" rx="10" ry="10" style="stroke:none;stroke-width:1.0;"/><rect fill="#FF8C00" height="8" style="stroke:none;stroke-width:1.0;" width="80" x="185" y="1654"/><ellipse cx="225" cy="1732" rx="10" ry="10" style="stroke:#000000;stroke-width:1.0;fill:none;"/><ellipse cx="225.5" cy="1732.5" fill="#000000" rx="6" ry="6" style="stroke:none;stroke-width:1.0;"/><rect fill="#FFFFFF" height="240.4883" rx="12.5" ry="12.5" style="stroke:#000000;stroke-width:1.5;" width="148" x="67" y="454"/><rect fill="#FFFFFF" height="208" rx="12.5" ry="12.5" style="stroke:#FFFFFF;stroke-width:1.0;" width="142" x="70" y="483.4883"/><line style="stroke:#000000;stroke-width:1.5;" x1="67" x2="215" y1="480.4883" y2="480.4883"/><text fill="#000000" font-family="sans-serif" font-size="14" lengthAdjust="spacing" textLength="55" x="113.5" y="472.5352">stop_db</text><rect fill="#FFFFFF" height="40" rx="12.5" ry="12.5" style="stroke:#0000FF;stroke-width:1.5;" width="93" x="96.5" y="492.4883"/><text fill="#000000" font-family="sans-serif" font-size="14" lengthAdjust="spacing" textLength="83" x="101.5" y="517.7793">db stopping</text><rect fill="#ADD8E6" height="40" rx="12.5" ry="12.5" style="stroke:#0000FF;stroke-width:1.5;" width="128" x="79" y="568.4883"/><text fill="#000000" font-family="sans-serif" font-size="14" lengthAdjust="spacing" textLength="118" x="84" y="593.7793">db Standard.stop</text><rect fill="#FFFFFF" height="40" rx="12.5" ry="12.5" style="stroke:#0000FF;stroke-width:1.5;" width="88" x="99" y="644.4883"/><text fill="#000000" font-family="sans-serif" font-size="14" lengthAdjust="spacing" textLength="78" x="104" y="669.7793">db stopped</text><!--MD5=[eb98d17d2243a01a06d3f39e43fc2cd3]
link step_parallel_undeploy_stop_db_db_stopping to step_parallel_undeploy_stop_db_db_Standard.stop--><path d="M143,532.8549 C143,542.2155 143,553.4103 143,563.2956 " fill="none" id="step_parallel_undeploy_stop_db_db_stopping-to-step_parallel_undeploy_stop_db_db_Standard.stop" style="stroke:#0000FF;stroke-width:1.0;"/><polygon fill="#0000FF" points="143,568.329,147,559.329,143,563.329,139,559.329,143,568.329" style="stroke:#0000FF;stroke-width:1.0;"/><!--MD5=[6d951a2cc27f3b9977f42c308e03a23b]
link step_parallel_undeploy_stop_db_db_Standard.stop to step_parallel_undeploy_stop_db_db_stopped--><path d="M143,608.8549 C143,618.2155 143,629.4103 143,639.2956 " fill="none" id="step_parallel_undeploy_stop_db_db_Standard.stop-to-step_parallel_undeploy_stop_db_db_stopped" style="stroke:#0000FF;stroke-width:1.0;"/><polygon fill="#0000FF" points="143,644.329,147,635.329,143,639.329,139,635.329,143,644.329" style="stroke:#0000FF;stroke-width:1.0;"/><rect fill="#FFFFFF" height="240.4883" rx="12.5" ry="12.5" style="stroke:#000000;stroke-width:1.5;" width="160" x="7" y="754"/><rect fill="#FFFFFF" height="208" rx="12.5" ry="12.5" style="stroke:#FFFFFF;stroke-width:1.0;" width="154" x="10" y="783.4883"/><line style="stroke:#000000;stroke-width:1.5;" x1="7" x2="167" y1="780.4883" y2="780.4883"/><text fill="#000000" font-family="sans-serif" font-size="14" lengthAdjust="spacing" textLength="67" x="53.5" y="772.5352">delete_db</text><rect fill="#FFFFFF" height="40" rx="12.5" ry="12.5" style="stroke:#0000FF;stroke-width:1.5;" width="88" x="45" y="792.4883"/><text fill="#000000" font-family="sans-serif" font-size="14" lengthAdjust="spacing" textLength="78" x="50" y="817.7793">db deleting</text><rect fill="#ADD8E6" height="40" rx="12.5" ry="12.5" style="stroke:#0000FF;stroke-width:1.5;" width="140" x="19" y="868.4883"/><text fill="#000000" font-family="sans-serif" font-size="14" lengthAdjust="spacing" textLength="130" x="24" y="893.7793">db Standard.delete</text><rect fill="#FFFFFF" height="40" rx="12.5" ry="12.5" style="stroke:#0000FF;stroke-width:1.5;" width="70" x="54" y="944.4883"/><text fill="#000000" font-family="sans-serif" font-size="14" lengthAdjust="spacing" textLength="60" x="59" y="969.7793">db initial</text><!--MD5=[c4dd7ba936f71370905790bb45b92687]
link step_parallel_undeploy_delete_db_db_deleting to step_parallel_undeploy_delete_db_db_Standard.delete--><path d="M89,832.8549 C89,842.2155 89,853.4103 89,863.2956 " fill="none" id="step_parallel_undeploy_delete_db_db_deleting-to-step_parallel_undeploy_delete_db_db_Standard.delete" style="stroke:#0000FF;stroke-width:1.0;"/><polygon fill="#0000FF" points="89,868.329,93,859.329,89,863.329,85,859.329,89,868.329" style="stroke:#0000FF;stroke-width:1.0;"/><!--MD5=[2f8f354716939e09bdf3d9609ef6cda7]
link step_parallel_undeploy_delete_db_db_Standard.delete to step_parallel_undeploy_delete_db_db_initial--><path d="M89,908.8549 C89,918.2155 89,929.4103 89,939.2956 " fill="none" id="step_parallel_undeploy_delete_db_db_Standard.delete-to-step_parallel_undeploy_delete_db_db_initial" style="stroke:#0000FF;stroke-width:1.0;"/><polygon fill="#0000FF" points="89,944.329,93,935.329,89,939.329,85,935.329,89,944.329" style="stroke:#0000FF;stroke-width:1.0;"/><rect fill="#FFFFFF" height="240.4883" rx="12.5" ry="12.5" style="stroke:#000000;stroke-width:1.5;" width="228" x="90" y="86"/><rect fill="#FFFFFF" height="208" rx="12.5" ry="12.5" style="stroke:#FFFFFF;stroke-width:1.0;" width="222" x="93" y="115.4883"/><line style="stroke:#000000;stroke-width:1.5;" x1="90" x2="318" y1="112.4883" y2="112.4883"/><text fill="#000000" font-family="sans-serif" font-size="14" lengthAdjust="spacing" textLength="135" x="136.5" y="104.5352">stop_app_container</text><rect fill="#FFFFFF" height="40" rx="12.5" ry="12.5" style="stroke:#0000FF;stroke-width:1.5;" width="173" x="119.5" y="124.4883"/><text fill="#000000" font-family="sans-serif" font-size="14" lengthAdjust="spacing" textLength="163" x="124.5" y="149.7793">app_container stopping</text><rect fill="#ADD8E6" height="40" rx="12.5" ry="12.5" style="stroke:#0000FF;stroke-width:1.5;" width="208" x="102" y="200.4883"/><text fill="#000000" font-family="sans-serif" font-size="14" lengthAdjust="spacing" textLength="198" x="107" y="225.7793">app_container Standard.stop</text><rect fill="#FFFFFF" height="40" rx="12.5" ry="12.5" style="stroke:#0000FF;stroke-width:1.5;" width="168" x="122" y="276.4883"/><text fill="#000000" font-family="sans-serif" font-size="14" lengthAdjust="spacing" textLength="158" x="127" y="301.7793">app_container stopped</text><!--MD5=[bf7bb426119c3b18927066e4119649b5]
link step_parallel_undeploy_stop_app_container_app_container_stopping to step_parallel_undeploy_stop_app_container_app_container_Standard.stop--><path d="M206,164.8549 C206,174.2155 206,185.4103 206,195.2956 " fill="none" id="step_parallel_undeploy_stop_app_container_app_container_stopping-to-step_parallel_undeploy_stop_app_container_app_container_Standard.stop" style="stroke:#0000FF;stroke-width:1.0;"/><polygon fill="#0000FF" points="206,200.329,210,191.329,206,195.329,202,191.329,206,200.329" style="stroke:#0000FF;stroke-width:1.0;"/><!--MD5=[5e001b892cb4aa4e1e61d8c4fc9fc0b7]
link step_parallel_undeploy_stop_app_container_app_container_Standard.stop to step_parallel_undeploy_stop_app_container_app_container_stopped--><path d="M206,240.8549 C206,250.2155 206,261.4103 206,271.2956 " fill="none" id="step_parallel_undeploy_stop_app_container_app_container_Standard.stop-to-step_parallel_undeploy_stop_app_container_app_container_stopped" style="stroke:#0000FF;stroke-width:1.0;"/><polygon fill="#0000FF" points="206,276.329,210,267.329,206,271.329,202,267.329,206,276.329" style="stroke:#0000FF;stroke-width:1.0;"/><rect fill="#FFFFFF" height="240.4883" rx="12.5" ry="12.5" style="stroke:#000000;stroke-width:1.5;" width="240" x="202" y="754"/><rect fill="#FFFFFF" height="208" rx="12.5" ry="12.5" style="stroke:#FFFFFF;stroke-width:1.0;" width="234" x="205" y="783.4883"/><line style="stroke:#000000;stroke-width:1.5;" x1="202" x2="442" y1="780.4883" y2="780.4883"/><text fill="#000000" font-family="sans-serif" font-size="14" lengthAdjust="spacing" textLength="147" x="248.5" y="772.5352">delete_app_container</text><rect fill="#FFFFFF" height="40" rx="12.5" ry="12.5" style="stroke:#0000FF;stroke-width:1.5;" width="168" x="240" y="792.4883"/><text fill="#000000" font-family="sans-serif" font-size="14" lengthAdjust="spacing" textLength="158" x="245" y="817.7793">app_container deleting</text><rect fill="#ADD8E6" height="40" rx="12.5" ry="12.5" style="stroke:#0000FF;stroke-width:1.5;" width="220" x="214" y="868.4883"/><text fill="#000000" font-family="sans-serif" font-size="14" lengthAdjust="spacing" textLength="210" x="219" y="893.7793">app_container Standard.delete</text><rect fill="#FFFFFF" height="40" rx="12.5" ry="12.5" style="stroke:#0000FF;stroke-width:1.5;" width="150" x="249" y="944.4883"/><text fill="#000000" font-family="sans-serif" font-size="14" lengthAdjust="spacing" textLength="140" x="254" y="969.7793">app_container initial</text><!--MD5=[f0b3c9726acb09a42d8ec8965e6f8e5a]
link step_parallel_undeploy_delete_app_container_app_container_deleting to step_parallel_undeploy_delete_app_container_app_container_Standard.delete--><path d="M324,832.8549 C324,842.2155 324,853.4103 324,863.2956 " fill="none" id="step_parallel_undeploy_delete_app_container_app_container_deleting-to-step_parallel_undeploy_delete_app_container_app_container_Standard.delete" style="stroke:#0000FF;stroke-width:1.0;"/><polygon fill="#0000FF" points="324,868.329,328,859.329,324,863.329,320,859.329,324,868.329" style="stroke:#0000FF;stroke-width:1.0;"/><!--MD5=[57602a6d78dca4d06b5a28907b1f3cc4]
link step_parallel_undeploy_delete_app_container_app_container_Standard.delete to step_parallel_undeploy_delete_app_container_app_container_initial--><path d="M324,908.8549 C324,918.2155 324,929.4103 324,939.2956 " fill="none" id="step_parallel_undeploy_delete_app_container_app_container_Standard.delete-to-step_parallel_undeploy_delete_app_container_app_container_initial" style="stroke:#0000FF;stroke-width:1.0;"/><polygon fill="#0000FF" points="324,944.329,328,935.329,324,939.329,320,935.329,324,944.329" style="stroke:#0000FF;stroke-width:1.0;"/><rect fill="#FFFFFF" height="240.4883" rx="12.5" ry="12.5" style="stroke:#000000;stroke-width:1.5;" width="181" x="38.5" y="1054"/><rect fill="#FFFFFF" height="208" rx="12.5" ry="12.5" style="stroke:#FFFFFF;stroke-width:1.0;" width="175" x="41.5" y="1083.4883"/><line style="stroke:#000000;stroke-width:1.5;" x1="38.5" x2="219.5" y1="1080.4883" y2="1080.4883"/><text fill="#000000" font-family="sans-serif" font-size="14" lengthAdjust="spacing" textLength="88" x="85" y="1072.5352">stop_server2</text><rect fill="#FFFFFF" height="40" rx="12.5" ry="12.5" style="stroke:#0000FF;stroke-width:1.5;" width="126" x="68" y="1092.4883"/><text fill="#000000" font-family="sans-serif" font-size="14" lengthAdjust="spacing" textLength="116" x="73" y="1117.7793">server2 stopping</text><rect fill="#ADD8E6" height="40" rx="12.5" ry="12.5" style="stroke:#0000FF;stroke-width:1.5;" width="161" x="50.5" y="1168.4883"/><text fill="#000000" font-family="sans-serif" font-size="14" lengthAdjust="spacing" textLength="151" x="55.5" y="1193.7793">server2 Standard.stop</text><rect fill="#FFFFFF" height="40" rx="12.5" ry="12.5" style="stroke:#0000FF;stroke-width:1.5;" width="121" x="70.5" y="1244.4883"/><text fill="#000000" font-family="sans-serif" font-size="14" lengthAdjust="spacing" textLength="111" x="75.5" y="1269.7793">server2 stopped</text><!--MD5=[7458a574c3f273e41564ed8f1514a9a0]
link step_parallel_undeploy_stop_server2_server2_stopping to step_parallel_undeploy_stop_server2_server2_Standard.stop--><path d="M131,1132.8549 C131,1142.2155 131,1153.4103 131,1163.2956 " fill="none" id="step_parallel_undeploy_stop_server2_server2_stopping-to-step_parallel_undeploy_stop_server2_server2_Standard.stop" style="stroke:#0000FF;stroke-width:1.0;"/><polygon fill="#0000FF" points="131,1168.329,135,1159.329,131,1163.329,127,1159.329,131,1168.329" style="stroke:#0000FF;stroke-width:1.0;"/><!--MD5=[2a71cd636f3f231eb7156edce8e4d3ae]
link step_parallel_undeploy_stop_server2_server2_Standard.stop to step_parallel_undeploy_stop_server2_server2_stopped--><path d="M131,1208.8549 C131,1218.2155 131,1229.4103 131,1239.2956 " fill="none" id="step_parallel_undeploy_stop_server2_server2_Standard.stop-to-step_parallel_undeploy_stop_server2_server2_stopped" style="stroke:#0000FF;stroke-width:1.0;"/><polygon fill="#0000FF" points="131,1244.329,135,1235.329,131,1239.329,127,1235.329,131,1244.329" style="stroke:#0000FF;stroke-width:1.0;"/><rect fill="#FFFFFF" height="240.4883" rx="12.5" ry="12.5" style="stroke:#000000;stroke-width:1.5;" width="193" x="53.5" y="1354"/><rect fill="#FFFFFF" height="208" rx="12.5" ry="12.5" style="stroke:#FFFFFF;stroke-width:1.0;" width="187" x="56.5" y="1383.4883"/><line style="stroke:#000000;stroke-width:1.5;" x1="53.5" x2="246.5" y1="1380.4883" y2="1380.4883"/><text fill="#000000" font-family="sans-serif" font-size="14" lengthAdjust="spacing" textLength="100" x="100" y="1372.5352">delete_server2</text><rect fill="#FFFFFF" height="40" rx="12.5" ry="12.5" style="stroke:#0000FF;stroke-width:1.5;" width="121" x="91.5" y="1392.4883"/><text fill="#000000" font-family="sans-serif" font-size="14" lengthAdjust="spacing" textLength="111" x="96.5" y="1417.7793">server2 deleting</text><rect fill="#ADD8E6" height="40" rx="12.5" ry="12.5" style="stroke:#0000FF;stroke-width:1.5;" width="173" x="65.5" y="1468.4883"/><text fill="#000000" font-family="sans-serif" font-size="14" lengthAdjust="spacing" textLength="163" x="70.5" y="1493.7793">server2 Standard.delete</text><rect fill="#FFFFFF" height="40" rx="12.5" ry="12.5" style="stroke:#0000FF;stroke-width:1.5;" width="103" x="100.5" y="1544.4883"/><text fill="#000000" font-family="sans-serif" font-size="14" lengthAdjust="spacing" textLength="93" x="105.5" y="1569.7793">server2 initial</text><!--MD5=[cc5f3054f254e8e7ce4aaf493d70b3a2]
link step_parallel_undeploy_delete_server2_server2_deleting to step_parallel_undeploy_delete_server2_server2_Standard.delete--><path d="M152,1432.8549 C152,1442.2155 152,1453.4103 152,1463.2956 " fill="none" id="step_parallel_undeploy_delete_server2_server2_deleting-to-step_parallel_undeploy_delete_server2_server2_Standard.delete" style="stroke:#0000FF;stroke-width:1.0;"/><polygon fill="#0000FF" points="152,1468.329,156,1459.329,152,1463.329,148,1459.329,152,1468.329" style="stroke:#0000FF;stroke-width:1.0;"/><!--MD5=[0cafa83a9326be0dc2f4587334396719]
link step_parallel_undeploy_delete_server2_server2_Standard.delete to step_parallel_undeploy_delete_server2_server2_initial--><path d="M152,1508.8549 C152,1518.2155 152,1529.4103 152,1539.2956 " fill="none" id="step_parallel_undeploy_delete_server2_server2_Standard.delete-to-step_parallel_undeploy_delete_server2_server2_initial" style="stroke:#0000FF;stroke-width:1.0;"/><polygon fill="#0000FF" points="152,1544.329,156,1535.329,152,1539.329,148,1535.329,152,1544.329" style="stroke:#0000FF;stroke-width:1.0;"/><!--MD5=[f9bc422e6d6b7ff675c389421cc86b1c]
link step_parallel_undeploy_stop_db to step_parallel_undeploy_delete_db--><path d="M119.3473,694.2929 C116.1288,712.1733 112.8047,730.6404 109.568,748.6221 " fill="none" id="step_parallel_undeploy_stop_db-to-step_parallel_undeploy_delete_db" style="stroke:#0000FF;stroke-width:1.0;"/><polygon fill="#0000FF" points="108.6576,753.6801,114.1889,745.5312,109.5435,748.7592,106.3154,744.1138,108.6576,753.6801" style="stroke:#0000FF;stroke-width:1.0;"/><!--MD5=[8d2eec014757b3fb44093e3d9aa81007]
link step_parallel_undeploy_delete_db to step_parallel_undeploy_stop_server2--><path d="M103.841,994.2929 C106.3443,1012.1733 108.9297,1030.6404 111.4471,1048.6221 " fill="none" id="step_parallel_undeploy_delete_db-to-step_parallel_undeploy_stop_server2" style="stroke:#0000FF;stroke-width:1.0;"/><polygon fill="#0000FF" points="112.1552,1053.6801,114.8687,1044.2124,111.4619,1048.7284,106.9459,1045.3217,112.1552,1053.6801" style="stroke:#0000FF;stroke-width:1.0;"/><!--MD5=[d70fb75e5ff31cd8c725d31f14dd0708]
link step_parallel_undeploy_stop_app_container to step_parallel_undeploy_stop_app_container_fork--><path d="M204,326.1621 C204,349.157 204,369.5541 204,380.8003 " fill="none" id="step_parallel_undeploy_stop_app_container-to-step_parallel_undeploy_stop_app_container_fork" style="stroke:#0000FF;stroke-width:1.0;"/><polygon fill="#0000FF" points="204,385.8126,208,376.8126,204,380.8126,200,376.8126,204,385.8126" style="stroke:#0000FF;stroke-width:1.0;"/><!--MD5=[e12320a3b28ac6d915a11a874983546d]
link step_parallel_undeploy_stop_app_container_fork to step_parallel_undeploy_delete_app_container--><path d="M206.2089,394.2291 C211.3965,404.3152 224.4857,430.6824 232,454 C263.2849,551.0797 286.8309,664.3148 301.9771,748.7305 " fill="none" id="step_parallel_undeploy_stop_app_container_fork-to-step_parallel_undeploy_delete_app_container" style="stroke:#0000FF;stroke-width:1.0;"/><polygon fill="#0000FF" points="302.8723,753.7406,305.227,744.1774,301.9929,748.8185,297.3517,745.5845,302.8723,753.7406" style="stroke:#0000FF;stroke-width:1.0;"/><!--MD5=[283e89d6fc2f1cb785396ded387aa578]
link step_parallel_undeploy_stop_app_container_fork to step_parallel_undeploy_stop_db--><path d="M202.5658,394.1888 C199.6124,402.8146 192.4127,423.8422 183.9343,448.6045 " fill="none" id="step_parallel_undeploy_stop_app_container_fork-to-step_parallel_undeploy_stop_db" style="stroke:#0000FF;stroke-width:1.0;"/><polygon fill="#0000FF" points="182.2225,453.6042,188.9223,446.3853,183.8422,448.8738,181.3537,443.7937,182.2225,453.6042" style="stroke:#0000FF;stroke-width:1.0;"/><!--MD5=[55c928b23b10a30576073b6b002155be]
link step_parallel_undeploy_stop_server2 to step_parallel_undeploy_delete_server2--><path d="M137.4205,1294.2929 C138.6721,1312.1733 139.9648,1330.6404 141.2235,1348.6221 " fill="none" id="step_parallel_undeploy_stop_server2-to-step_parallel_undeploy_delete_server2" style="stroke:#0000FF;stroke-width:1.0;"/><polygon fill="#0000FF" points="141.5776,1353.6801,144.9391,1344.4227,141.2283,1348.6923,136.9587,1344.9815,141.5776,1353.6801" style="stroke:#0000FF;stroke-width:1.0;"/><!--MD5=[c7a42fad2d9c5d8f859f16e66ac6f813]
link *start to step_parallel_undeploy_stop_app_container--><path d="M204,26.2152 C204,37.7525 204,57.9094 204,80.6599 " fill="none" id="*start-to-step_parallel_undeploy_stop_app_container" style="stroke:#0000FF;stroke-width:1.0;"/><polygon fill="#0000FF" points="204,85.8637,208,76.8637,204,80.8637,200,76.8637,204,85.8637" style="stroke:#0000FF;stroke-width:1.0;"/><!--MD5=[b5726277a51be5274253853891e80363]
link parallel_undeploy_join to *end--><path d="M225,1662.4074 C225,1672.8066 225,1699.2833 225,1716.4165 " fill="none" id="parallel_undeploy_join-to-*end" style="stroke:#0000FF;stroke-width:1.0;"/><polygon fill="#0000FF" points="225,1721.8319,229,1712.8319,225,1716.8319,221,1712.8319,225,1721.8319" style="stroke:#0000FF;stroke-width:1.0;"/><!--MD5=[ae071b6354d0403bf63a8e70a728395c]
link step_parallel_undeploy_delete_app_container to parallel_undeploy_join--><path d="M329.0324,994.1981 C333.8005,1139.8861 329.8611,1391.0752 264,1594 C256.837,1616.07 240.7289,1638.4479 231.6137,1649.9954 " fill="none" id="step_parallel_undeploy_delete_app_container-to-parallel_undeploy_join" style="stroke:#0000FF;stroke-width:1.0;"/><polygon fill="#0000FF" points="228.3907,1653.9954,237.1522,1649.497,231.5278,1650.102,230.9228,1644.4776,228.3907,1653.9954" style="stroke:#0000FF;stroke-width:1.0;"/><!--MD5=[9190507ca424b5ebf2e2772deaa73665]
link step_parallel_undeploy_delete_server2 to parallel_undeploy_join--><path d="M198.9791,1594.1621 C208.438,1617.3679 216.8185,1637.9281 221.3754,1649.1076 " fill="none" id="step_parallel_undeploy_delete_server2-to-parallel_undeploy_join" style="stroke:#0000FF;stroke-width:1.0;"/><polygon fill="#0000FF" points="223.2932,1653.8126,223.6002,1643.9685,221.4059,1649.1825,216.192,1646.9882,223.2932,1653.8126" style="stroke:#0000FF;stroke-width:1.0;"/><!--MD5=[8795a4854db7779c19cdd6a398bdb333]
@startuml
hide empty description
skinparam shadowing false
skinparam state {
  ArrowColor blue
  BorderColor blue
  EndColor black
  StartColor green
  BackGroundColor<< step >> white
  BorderColor<< step >> black
  BackGroundColor<< delegate >> lightgrey
  BackGroundColor<< set_state >> white
  BackGroundColor<< call_operation >> lightblue
  BackGroundColor<< inline >> white
}
skinparam ActivityBarColor<<fork>> DarkGreen
skinparam ActivityBarColor<<join>> DarkOrange

state "stop_db" as step_parallel_undeploy_stop_db << step >> {
  state "db stopping" as step_parallel_undeploy_stop_db_db_stopping << set_state >>
  state "db Standard.stop" as step_parallel_undeploy_stop_db_db_Standard.stop << call_operation >>
  state "db stopped" as step_parallel_undeploy_stop_db_db_stopped << set_state >>
  step_parallel_undeploy_stop_db_db_stopping - -> step_parallel_undeploy_stop_db_db_Standard.stop
  step_parallel_undeploy_stop_db_db_Standard.stop - -> step_parallel_undeploy_stop_db_db_stopped
}
state "delete_db" as step_parallel_undeploy_delete_db << step >> {
  state "db deleting" as step_parallel_undeploy_delete_db_db_deleting << set_state >>
  state "db Standard.delete" as step_parallel_undeploy_delete_db_db_Standard.delete << call_operation >>
  state "db initial" as step_parallel_undeploy_delete_db_db_initial << set_state >>
  step_parallel_undeploy_delete_db_db_deleting - -> step_parallel_undeploy_delete_db_db_Standard.delete
  step_parallel_undeploy_delete_db_db_Standard.delete - -> step_parallel_undeploy_delete_db_db_initial
}
state "stop_app_container" as step_parallel_undeploy_stop_app_container << step >> {
  state "app_container stopping" as step_parallel_undeploy_stop_app_container_app_container_stopping << set_state >>
  state "app_container Standard.stop" as step_parallel_undeploy_stop_app_container_app_container_Standard.stop << call_operation >>
  state "app_container stopped" as step_parallel_undeploy_stop_app_container_app_container_stopped << set_state >>
  step_parallel_undeploy_stop_app_container_app_container_stopping - -> step_parallel_undeploy_stop_app_container_app_container_Standard.stop
  step_parallel_undeploy_stop_app_container_app_container_Standard.stop - -> step_parallel_undeploy_stop_app_container_app_container_stopped
}
state "delete_app_container" as step_parallel_undeploy_delete_app_container << step >> {
  state "app_container deleting" as step_parallel_undeploy_delete_app_container_app_container_deleting << set_state >>
  state "app_container Standard.delete" as step_parallel_undeploy_delete_app_container_app_container_Standard.delete << call_operation >>
  state "app_container initial" as step_parallel_undeploy_delete_app_container_app_container_initial << set_state >>
  step_parallel_undeploy_delete_app_container_app_container_deleting - -> step_parallel_undeploy_delete_app_container_app_container_Standard.delete
  step_parallel_undeploy_delete_app_container_app_container_Standard.delete - -> step_parallel_undeploy_delete_app_container_app_container_initial
}
state "stop_server2" as step_parallel_undeploy_stop_server2 << step >> {
  state "server2 stopping" as step_parallel_undeploy_stop_server2_server2_stopping << set_state >>
  state "server2 Standard.stop" as step_parallel_undeploy_stop_server2_server2_Standard.stop << call_operation >>
  state "server2 stopped" as step_parallel_undeploy_stop_server2_server2_stopped << set_state >>
  step_parallel_undeploy_stop_server2_server2_stopping - -> step_parallel_undeploy_stop_server2_server2_Standard.stop
  step_parallel_undeploy_stop_server2_server2_Standard.stop - -> step_parallel_undeploy_stop_server2_server2_stopped
}
state "delete_server2" as step_parallel_undeploy_delete_server2 << step >> {
  state "server2 deleting" as step_parallel_undeploy_delete_server2_server2_deleting << set_state >>
  state "server2 Standard.delete" as step_parallel_undeploy_delete_server2_server2_Standard.delete << call_operation >>
  state "server2 initial" as step_parallel_undeploy_delete_server2_server2_initial << set_state >>
  step_parallel_undeploy_delete_server2_server2_deleting - -> step_parallel_undeploy_delete_server2_server2_Standard.delete
  step_parallel_undeploy_delete_server2_server2_Standard.delete - -> step_parallel_undeploy_delete_server2_server2_initial
}
step_parallel_undeploy_stop_db - -> step_parallel_undeploy_delete_db
step_parallel_undeploy_delete_db - -> step_parallel_undeploy_stop_server2
state step_parallel_undeploy_stop_app_container_fork <<fork>>
step_parallel_undeploy_stop_app_container - -> step_parallel_undeploy_stop_app_container_fork
step_parallel_undeploy_stop_app_container_fork - -> step_parallel_undeploy_delete_app_container
step_parallel_undeploy_stop_app_container_fork - -> step_parallel_undeploy_stop_db
step_parallel_undeploy_stop_server2 - -> step_parallel_undeploy_delete_server2
[*] - -> step_parallel_undeploy_stop_app_container
state parallel_undeploy_join <<join>>
parallel_undeploy_join - -> [*]
step_parallel_undeploy_delete_app_container - -> parallel_undeploy_join
step_parallel_undeploy_delete_server2 - -> parallel_undeploy_join
@enduml

PlantUML version 1.2021.13(Mon Nov 01 12:38:45 CET 2021)
(GPL source distribution)
Java Runtime: Java(TM) SE Runtime Environment
JVM: Java HotSpot(TM) 64-Bit Server VM
Default Encoding: UTF-8
Language: fr
Country: FR
--></g></svg>