<?xml version="1.0" encoding="UTF-8" standalone="no"?><svg xmlns="http://www.w3.org/2000/svg" xmlns:xlink="http://www.w3.org/1999/xlink" contentScriptType="application/ecmascript" contentStyleType="text/css" height="370px" preserveAspectRatio="none" style="width:963px;height:370px;background:#FFFFFF;" version="1.1" viewBox="0 0 963 370" width="963px" zoomAndPan="magnify"><defs><filter height="300%" id="f15b3raqmaqlke" width="300%" x="-1" y="-1"><feGaussianBlur result="blurOut" stdDeviation="2.0"/><feColorMatrix in="blurOut" result="blurOut2" type="matrix" values="0 0 0 0 0 0 0 0 0 0 0 0 0 0 0 0 0 0 .4 0"/><feOffset dx="4.0" dy="4.0" in="blurOut2" result="blurOut3"/><feBlend in="SourceGraphic" in2="blurOut3" mode="normal"/></filter></defs><g><!--MD5=[cebfbde7d9b5c5cbe27000ba1ce78840]
cluster node_server_app--><polygon fill="#FFFFFF" filter="url(#f15b3raqmaqlke)" points="16,16,26,6,946,6,946,193,936,203,16,203,16,16" style="stroke:#000000;stroke-width:1.5;"/><line style="stroke:#000000;stroke-width:1.5;" x1="936" x2="946" y1="16" y2="6"/><line style="stroke:#000000;stroke-width:1.5;" x1="16" x2="936" y1="16" y2="16"/><line style="stroke:#000000;stroke-width:1.5;" x1="936" x2="936" y1="16" y2="203"/><text fill="#000000" font-family="sans-serif" font-size="14" font-weight="bold" lengthAdjust="spacing" textLength="155" x="399.5" y="32.5352">server_app: Container</text><!--MD5=[3384799e12d9ba1c0c3b9764d4777eb8]
cluster node_node--><rect fill="#FFFFFF" filter="url(#f15b3raqmaqlke)" height="157" style="stroke:#000000;stroke-width:1.5;" width="747" x="191" y="38"/><rect fill="#FFFFFF" height="10" style="stroke:#000000;stroke-width:1.5;" width="15" x="918" y="43"/><rect fill="#FFFFFF" height="2" style="stroke:#000000;stroke-width:1.5;" width="4" x="916" y="45"/><rect fill="#FFFFFF" height="2" style="stroke:#000000;stroke-width:1.5;" width="4" x="916" y="49"/><text fill="#000000" font-family="sans-serif" font-size="14" font-weight="bold" lengthAdjust="spacing" textLength="143" x="493" y="64.5352">node: NodeSoftware</text><!--MD5=[898b92138ed579ec6c069c064c6ca924]
cluster node_app--><rect fill="#FFFFFF" filter="url(#f15b3raqmaqlke)" height="122" style="stroke:#000000;stroke-width:1.5;" width="731" x="199" y="65"/><rect fill="#FFFFFF" height="10" style="stroke:#000000;stroke-width:1.5;" width="15" x="910" y="70"/><rect fill="#FFFFFF" height="2" style="stroke:#000000;stroke-width:1.5;" width="4" x="908" y="72"/><rect fill="#FFFFFF" height="2" style="stroke:#000000;stroke-width:1.5;" width="4" x="908" y="76"/><text fill="#000000" font-family="sans-serif" font-size="14" font-weight="bold" lengthAdjust="spacing" textLength="125" x="502" y="91.5352">app: AppSoftware</text><!--MD5=[ce393e892350b066c0ad13b0b970ff31]
cluster node_app_artifact_code--><rect fill="#FFFFFF" filter="url(#f15b3raqmaqlke)" height="87" style="stroke:#000000;stroke-width:1.5;" width="188" x="734" y="92"/><polygon fill="#FFFFFF" points="905,97,905,111,917,111,917,103,911,97,905,97" style="stroke:#000000;stroke-width:1.5;"/><line style="stroke:#000000;stroke-width:1.5;" x1="911" x2="911" y1="97" y2="103"/><line style="stroke:#000000;stroke-width:1.5;" x1="917" x2="911" y1="103" y2="103"/><text fill="#000000" font-family="sans-serif" font-size="14" font-style="italic" lengthAdjust="spacing" textLength="62" x="797" y="107.5352">«artifact»</text><text fill="#000000" font-family="sans-serif" font-size="14" font-weight="bold" lengthAdjust="spacing" textLength="95" x="780.5" y="124.0234">code: Artifact</text><!--MD5=[9c71a1146385f798ca28dfebf01d2eec]
cluster node_app_artifact_package--><rect fill="#FFFFFF" filter="url(#f15b3raqmaqlke)" height="87" style="stroke:#000000;stroke-width:1.5;" width="228" x="487" y="92"/><polygon fill="#FFFFFF" points="698,97,698,111,710,111,710,103,704,97,698,97" style="stroke:#000000;stroke-width:1.5;"/><line style="stroke:#000000;stroke-width:1.5;" x1="704" x2="704" y1="97" y2="103"/><line style="stroke:#000000;stroke-width:1.5;" x1="710" x2="704" y1="103" y2="103"/><text fill="#000000" font-family="sans-serif" font-size="14" font-style="italic" lengthAdjust="spacing" textLength="62" x="570" y="107.5352">«artifact»</text><text fill="#000000" font-family="sans-serif" font-size="14" font-weight="bold" lengthAdjust="spacing" textLength="120" x="541" y="124.0234">package: Artifact</text><!--MD5=[9624276c7059fffa5de576d4c5c396ef]
cluster node_app_artifact_test_data--><rect fill="#FFFFFF" filter="url(#f15b3raqmaqlke)" height="87" style="stroke:#000000;stroke-width:1.5;" width="234" x="234" y="92"/><polygon fill="#FFFFFF" points="451,97,451,111,463,111,463,103,457,97,451,97" style="stroke:#000000;stroke-width:1.5;"/><line style="stroke:#000000;stroke-width:1.5;" x1="457" x2="457" y1="97" y2="103"/><line style="stroke:#000000;stroke-width:1.5;" x1="463" x2="457" y1="103" y2="103"/><text fill="#000000" font-family="sans-serif" font-size="14" font-style="italic" lengthAdjust="spacing" textLength="62" x="320" y="107.5352">«artifact»</text><text fill="#000000" font-family="sans-serif" font-size="14" font-weight="bold" lengthAdjust="spacing" textLength="128" x="287" y="124.0234">test_data: Artifact</text><!--MD5=[c6cb370a2e68b1f01db970e57537f99b]
cluster node_server_app_artifact_my_image--><rect fill="#FFFFFF" filter="url(#f15b3raqmaqlke)" height="87" style="stroke:#000000;stroke-width:1.5;" width="156" x="24" y="92"/><polygon fill="#FFFFFF" points="163,97,163,111,175,111,175,103,169,97,163,97" style="stroke:#000000;stroke-width:1.5;"/><line style="stroke:#000000;stroke-width:1.5;" x1="169" x2="169" y1="97" y2="103"/><line style="stroke:#000000;stroke-width:1.5;" x1="175" x2="169" y1="103" y2="103"/><text fill="#000000" font-family="sans-serif" font-size="14" font-style="italic" lengthAdjust="spacing" textLength="62" x="71" y="107.5352">«artifact»</text><text fill="#000000" font-family="sans-serif" font-size="14" font-weight="bold" lengthAdjust="spacing" textLength="125" x="39.5" y="124.0234">my_image: Image</text><!--MD5=[8fed03059ce6dd814ecad15c5b40d573]
cluster node_server_db--><polygon fill="#FFFFFF" filter="url(#f15b3raqmaqlke)" points="136,246,146,236,461,236,461,353,451,363,136,363,136,246" style="stroke:#000000;stroke-width:1.5;"/><line style="stroke:#000000;stroke-width:1.5;" x1="451" x2="461" y1="246" y2="236"/><line style="stroke:#000000;stroke-width:1.5;" x1="136" x2="451" y1="246" y2="246"/><line style="stroke:#000000;stroke-width:1.5;" x1="451" x2="451" y1="246" y2="363"/><text fill="#000000" font-family="sans-serif" font-size="14" font-weight="bold" lengthAdjust="spacing" textLength="147" x="221" y="262.5352">server_db: Container</text><!--MD5=[3eda44b710f3fa93af2834540159ddea]
cluster node_server_db_artifact_my_image--><rect fill="#FFFFFF" filter="url(#f15b3raqmaqlke)" height="87" style="stroke:#000000;stroke-width:1.5;" width="156" x="297" y="268"/><polygon fill="#FFFFFF" points="436,273,436,287,448,287,448,279,442,273,436,273" style="stroke:#000000;stroke-width:1.5;"/><line style="stroke:#000000;stroke-width:1.5;" x1="442" x2="442" y1="273" y2="279"/><line style="stroke:#000000;stroke-width:1.5;" x1="448" x2="442" y1="279" y2="279"/><text fill="#000000" font-family="sans-serif" font-size="14" font-style="italic" lengthAdjust="spacing" textLength="62" x="344" y="283.5352">«artifact»</text><text fill="#000000" font-family="sans-serif" font-size="14" font-weight="bold" lengthAdjust="spacing" textLength="125" x="312.5" y="300.0234">my_image: Image</text><!--MD5=[1f5236b925e6c9b864b41ba898e5256f]
entity node_app_artifact_code_label--><text fill="#000000" font-family="sans-serif" font-size="14" lengthAdjust="spacing" textLength="151" x="752.5" y="158.5352">file: code/app/main.js</text><!--MD5=[8c15df178001e7b652e8c01ea4dc346d]
entity node_app_artifact_package_label--><text fill="#000000" font-family="sans-serif" font-size="14" lengthAdjust="spacing" textLength="192" x="505" y="158.5352">file: code/app/package.json</text><!--MD5=[f5aacfa88fbd272e7200355415141715]
entity node_app_artifact_test_data_label--><text fill="#000000" font-family="sans-serif" font-size="14" lengthAdjust="spacing" textLength="197" x="252.5" y="158.5352">file: code/app/test_data.json</text><!--MD5=[4e3c1b2ccb8617bc521e4d7fd8ffb03d]
entity node_server_app_artifact_my_image_label--><text fill="#000000" font-family="sans-serif" font-size="14" lengthAdjust="spacing" textLength="120" x="42" y="158.5352">file: ubuntu:latest</text><!--MD5=[ac0378eaee94a030291fca69d3db3006]
entity node_db--><rect fill="#FEFECE" filter="url(#f15b3raqmaqlke)" height="46.4883" style="stroke:#A80036;stroke-width:1.5;" width="126" x="144" y="306"/><rect fill="#FEFECE" height="10" style="stroke:#A80036;stroke-width:1.5;" width="15" x="250" y="311"/><rect fill="#FEFECE" height="2" style="stroke:#A80036;stroke-width:1.5;" width="4" x="248" y="313"/><rect fill="#FEFECE" height="2" style="stroke:#A80036;stroke-width:1.5;" width="4" x="248" y="317"/><text fill="#000000" font-family="sans-serif" font-size="14" lengthAdjust="spacing" textLength="86" x="159" y="339.5352">db: Software</text><!--MD5=[89b10a8c0cd29a2e446d2e872934e9d3]
entity node_server_db_artifact_my_image_label--><text fill="#000000" font-family="sans-serif" font-size="14" lengthAdjust="spacing" textLength="120" x="315" y="334.5352">file: ubuntu:latest</text><!--MD5=[703b6de1b253b0534ec36bb051479572]
link node_app to node_db--><path codeLine="28" d="M207,187.2738 C207,187.673 207,188.0746 207,188.4785 C207,189.2863 207,190.1034 207,190.9293 C207,197.5367 207,204.7086 207,212.1929 C207,242.1303 207,277.0673 207,300.8785 " fill="none" id="node_app-to-node_db" style="stroke:#A80036;stroke-width:1.0;stroke-dasharray:7.0,7.0;"/><polygon fill="#A80036" points="207,305.9007,211,296.9007,207,300.9007,203,296.9007,207,305.9007" style="stroke:#A80036;stroke-width:1.0;"/><text fill="#000000" font-family="sans-serif" font-size="13" lengthAdjust="spacing" textLength="89" x="208" y="224.5684">«ConnectsTo»</text><!--MD5=[0412e99e19934b8d50fa3f9f08fba243]
@startuml
skinparam componentStyle uml2
allowmixing

node "server_app: Container" as node_server_app {
component "node: NodeSoftware" as node_node {
component "app: AppSoftware" as node_app {
artifact "code: Artifact" <<artifact>> as node_app_artifact_code {
label "file: code/app/main.js" as node_app_artifact_code_label
}
artifact "package: Artifact" <<artifact>> as node_app_artifact_package {
label "file: code/app/package.json" as node_app_artifact_package_label
}
artifact "test_data: Artifact" <<artifact>> as node_app_artifact_test_data {
label "file: code/app/test_data.json" as node_app_artifact_test_data_label
}
}
}
artifact "my_image: Image" <<artifact>> as node_server_app_artifact_my_image {
label "file: ubuntu:latest" as node_server_app_artifact_my_image_label
}
}
node "server_db: Container" as node_server_db {
component "db: Software" as node_db
artifact "my_image: Image" <<artifact>> as node_server_db_artifact_my_image {
label "file: ubuntu:latest" as node_server_db_artifact_my_image_label
}
}
node_app ..> node_db : <<ConnectsTo>>
@enduml

PlantUML version 1.2021.13(Mon Nov 01 12:38:45 CET 2021)
(GPL source distribution)
Java Runtime: Java(TM) SE Runtime Environment
JVM: Java HotSpot(TM) 64-Bit Server VM
Default Encoding: UTF-8
Language: fr
Country: FR
--></g></svg>