<?xml version="1.0" encoding="UTF-8" standalone="no"?><svg xmlns="http://www.w3.org/2000/svg" xmlns:xlink="http://www.w3.org/1999/xlink" contentScriptType="application/ecmascript" contentStyleType="text/css" height="2636px" preserveAspectRatio="none" style="width:530px;height:2636px;background:#FFFFFF;" version="1.1" viewBox="0 0 530 2636" width="530px" zoomAndPan="magnify"><defs/><g><rect fill="#FF8C00" height="8" style="stroke:none;stroke-width:1.0;" width="80" x="237" y="2242"/><rect fill="#006400" height="8" style="stroke:none;stroke-width:1.0;" width="80" x="243" y="86"/><ellipse cx="283" cy="16" fill="#008000" rx="10" ry="10" style="stroke:none;stroke-width:1.0;"/><ellipse cx="277" cy="2620" rx="10" ry="10" style="stroke:#000000;stroke-width:1.0;fill:none;"/><ellipse cx="277.5" cy="2620.5" fill="#000000" rx="6" ry="6" style="stroke:none;stroke-width:1.0;"/><rect fill="#FFFFFF" height="240.4883" rx="12.5" ry="12.5" style="stroke:#000000;stroke-width:1.5;" width="160" x="322" y="1198"/><rect fill="#FFFFFF" height="208" rx="12.5" ry="12.5" style="stroke:#FFFFFF;stroke-width:1.0;" width="154" x="325" y="1227.4883"/><line style="stroke:#000000;stroke-width:1.5;" x1="322" x2="482" y1="1224.4883" y2="1224.4883"/><text fill="#000000" font-family="sans-serif" font-size="14" lengthAdjust="spacing" textLength="67" x="368.5" y="1216.5352">create_db</text><rect fill="#FFFFFF" height="40" rx="12.5" ry="12.5" style="stroke:#0000FF;stroke-width:1.5;" width="88" x="360" y="1236.4883"/><text fill="#000000" font-family="sans-serif" font-size="14" lengthAdjust="spacing" textLength="78" x="365" y="1261.7793">db creating</text><rect fill="#ADD8E6" height="40" rx="12.5" ry="12.5" style="stroke:#0000FF;stroke-width:1.5;" width="140" x="334" y="1312.4883"/><text fill="#000000" font-family="sans-serif" font-size="14" lengthAdjust="spacing" textLength="130" x="339" y="1337.7793">db Standard.create</text><rect fill="#FFFFFF" height="40" rx="12.5" ry="12.5" style="stroke:#0000FF;stroke-width:1.5;" width="83" x="362.5" y="1388.4883"/><text fill="#000000" font-family="sans-serif" font-size="14" lengthAdjust="spacing" textLength="73" x="367.5" y="1413.7793">db created</text><!--MD5=[a50f3e33f00e995093efc789ca60cf4c]
link step_parallel_deploy_create_db_db_creating to step_parallel_deploy_create_db_db_Standard.create--><path d="M404,1276.8549 C404,1286.2155 404,1297.4103 404,1307.2956 " fill="none" id="step_parallel_deploy_create_db_db_creating-to-step_parallel_deploy_create_db_db_Standard.create" style="stroke:#0000FF;stroke-width:1.0;"/><polygon fill="#0000FF" points="404,1312.329,408,1303.329,404,1307.329,400,1303.329,404,1312.329" style="stroke:#0000FF;stroke-width:1.0;"/><!--MD5=[ee4172152b35221a492065589cdac8f8]
link step_parallel_deploy_create_db_db_Standard.create to step_parallel_deploy_create_db_db_created--><path d="M404,1352.8549 C404,1362.2155 404,1373.4103 404,1383.2956 " fill="none" id="step_parallel_deploy_create_db_db_Standard.create-to-step_parallel_deploy_create_db_db_created" style="stroke:#0000FF;stroke-width:1.0;"/><polygon fill="#0000FF" points="404,1388.329,408,1379.329,404,1383.329,400,1379.329,404,1388.329" style="stroke:#0000FF;stroke-width:1.0;"/><rect fill="#FFFFFF" height="88.4883" rx="12.5" ry="12.5" style="stroke:#000000;stroke-width:1.5;" width="141" x="319.5" y="1498"/><rect fill="#FFFFFF" height="56" rx="12.5" ry="12.5" style="stroke:#FFFFFF;stroke-width:1.0;" width="135" x="322.5" y="1527.4883"/><line style="stroke:#000000;stroke-width:1.5;" x1="319.5" x2="460.5" y1="1524.4883" y2="1524.4883"/><text fill="#000000" font-family="sans-serif" font-size="14" lengthAdjust="spacing" textLength="121" x="329.5" y="1516.5352">pre_configure_db</text><rect fill="#FFFFFF" height="40" rx="12.5" ry="12.5" style="stroke:#0000FF;stroke-width:1.5;" width="112" x="331.5" y="1536.4883"/><text fill="#000000" font-family="sans-serif" font-size="14" lengthAdjust="spacing" textLength="102" x="336.5" y="1561.7793">db configuring</text><rect fill="#FFFFFF" height="88.4883" rx="12.5" ry="12.5" style="stroke:#000000;stroke-width:1.5;" width="184" x="290" y="1646"/><rect fill="#FFFFFF" height="56" rx="12.5" ry="12.5" style="stroke:#FFFFFF;stroke-width:1.0;" width="178" x="293" y="1675.4883"/><line style="stroke:#000000;stroke-width:1.5;" x1="290" x2="474" y1="1672.4883" y2="1672.4883"/><text fill="#000000" font-family="sans-serif" font-size="14" lengthAdjust="spacing" textLength="91" x="336.5" y="1664.5352">configure_db</text><rect fill="#ADD8E6" height="40" rx="12.5" ry="12.5" style="stroke:#0000FF;stroke-width:1.5;" width="164" x="302" y="1684.4883"/><text fill="#000000" font-family="sans-serif" font-size="14" lengthAdjust="spacing" textLength="154" x="307" y="1709.7793">db Standard.configure</text><rect fill="#FFFFFF" height="88.4883" rx="12.5" ry="12.5" style="stroke:#000000;stroke-width:1.5;" width="148" x="291" y="1794"/><rect fill="#FFFFFF" height="56" rx="12.5" ry="12.5" style="stroke:#FFFFFF;stroke-width:1.0;" width="142" x="294" y="1823.4883"/><line style="stroke:#000000;stroke-width:1.5;" x1="291" x2="439" y1="1820.4883" y2="1820.4883"/><text fill="#000000" font-family="sans-serif" font-size="14" lengthAdjust="spacing" textLength="128" x="301" y="1812.5352">post_configure_db</text><rect fill="#FFFFFF" height="40" rx="12.5" ry="12.5" style="stroke:#0000FF;stroke-width:1.5;" width="107" x="303" y="1832.4883"/><text fill="#000000" font-family="sans-serif" font-size="14" lengthAdjust="spacing" textLength="97" x="308" y="1857.7793">db configured</text><rect fill="#FFFFFF" height="240.4883" rx="12.5" ry="12.5" style="stroke:#000000;stroke-width:1.5;" width="149" x="274.5" y="1942"/><rect fill="#FFFFFF" height="208" rx="12.5" ry="12.5" style="stroke:#FFFFFF;stroke-width:1.0;" width="143" x="277.5" y="1971.4883"/><line style="stroke:#000000;stroke-width:1.5;" x1="274.5" x2="423.5" y1="1968.4883" y2="1968.4883"/><text fill="#000000" font-family="sans-serif" font-size="14" lengthAdjust="spacing" textLength="56" x="321" y="1960.5352">start_db</text><rect fill="#FFFFFF" height="40" rx="12.5" ry="12.5" style="stroke:#0000FF;stroke-width:1.5;" width="85" x="308.5" y="1980.4883"/><text fill="#000000" font-family="sans-serif" font-size="14" lengthAdjust="spacing" textLength="75" x="313.5" y="2005.7793">db starting</text><rect fill="#ADD8E6" height="40" rx="12.5" ry="12.5" style="stroke:#0000FF;stroke-width:1.5;" width="129" x="286.5" y="2056.4883"/><text fill="#000000" font-family="sans-serif" font-size="14" lengthAdjust="spacing" textLength="119" x="291.5" y="2081.7793">db Standard.start</text><rect fill="#FFFFFF" height="40" rx="12.5" ry="12.5" style="stroke:#0000FF;stroke-width:1.5;" width="80" x="311" y="2132.4883"/><text fill="#000000" font-family="sans-serif" font-size="14" lengthAdjust="spacing" textLength="70" x="316" y="2157.7793">db started</text><!--MD5=[edf37caae49212a9ef7e8111e2c981d6]
link step_parallel_deploy_start_db_db_starting to step_parallel_deploy_start_db_db_Standard.start--><path d="M351,2020.8549 C351,2030.2155 351,2041.4103 351,2051.2956 " fill="none" id="step_parallel_deploy_start_db_db_starting-to-step_parallel_deploy_start_db_db_Standard.start" style="stroke:#0000FF;stroke-width:1.0;"/><polygon fill="#0000FF" points="351,2056.329,355,2047.329,351,2051.329,347,2047.329,351,2056.329" style="stroke:#0000FF;stroke-width:1.0;"/><!--MD5=[ea8700cecb29767795632d8c510bbe68]
link step_parallel_deploy_start_db_db_Standard.start to step_parallel_deploy_start_db_db_started--><path d="M351,2096.8549 C351,2106.2155 351,2117.4103 351,2127.2956 " fill="none" id="step_parallel_deploy_start_db_db_Standard.start-to-step_parallel_deploy_start_db_db_started" style="stroke:#0000FF;stroke-width:1.0;"/><polygon fill="#0000FF" points="351,2132.329,355,2123.329,351,2127.329,347,2123.329,351,2132.329" style="stroke:#0000FF;stroke-width:1.0;"/><rect fill="#FFFFFF" height="240.4883" rx="12.5" ry="12.5" style="stroke:#000000;stroke-width:1.5;" width="240" x="37" y="154"/><rect fill="#FFFFFF" height="208" rx="12.5" ry="12.5" style="stroke:#FFFFFF;stroke-width:1.0;" width="234" x="40" y="183.4883"/><line style="stroke:#000000;stroke-width:1.5;" x1="37" x2="277" y1="180.4883" y2="180.4883"/><text fill="#000000" font-family="sans-serif" font-size="14" lengthAdjust="spacing" textLength="147" x="83.5" y="172.5352">create_app_container</text><rect fill="#FFFFFF" height="40" rx="12.5" ry="12.5" style="stroke:#0000FF;stroke-width:1.5;" width="168" x="75" y="192.4883"/><text fill="#000000" font-family="sans-serif" font-size="14" lengthAdjust="spacing" textLength="158" x="80" y="217.7793">app_container creating</text><rect fill="#ADD8E6" height="40" rx="12.5" ry="12.5" style="stroke:#0000FF;stroke-width:1.5;" width="220" x="49" y="268.4883"/><text fill="#000000" font-family="sans-serif" font-size="14" lengthAdjust="spacing" textLength="210" x="54" y="293.7793">app_container Standard.create</text><rect fill="#FFFFFF" height="40" rx="12.5" ry="12.5" style="stroke:#0000FF;stroke-width:1.5;" width="163" x="77.5" y="344.4883"/><text fill="#000000" font-family="sans-serif" font-size="14" lengthAdjust="spacing" textLength="153" x="82.5" y="369.7793">app_container created</text><!--MD5=[d3dd48529a3bcecaa2fff86eec8a4e65]
link step_parallel_deploy_create_app_container_app_container_creating to step_parallel_deploy_create_app_container_app_container_Standard.create--><path d="M159,232.8549 C159,242.2155 159,253.4103 159,263.2956 " fill="none" id="step_parallel_deploy_create_app_container_app_container_creating-to-step_parallel_deploy_create_app_container_app_container_Standard.create" style="stroke:#0000FF;stroke-width:1.0;"/><polygon fill="#0000FF" points="159,268.329,163,259.329,159,263.329,155,259.329,159,268.329" style="stroke:#0000FF;stroke-width:1.0;"/><!--MD5=[b69cce67d2bf822140a4a84c49b39f42]
link step_parallel_deploy_create_app_container_app_container_Standard.create to step_parallel_deploy_create_app_container_app_container_created--><path d="M159,308.8549 C159,318.2155 159,329.4103 159,339.2956 " fill="none" id="step_parallel_deploy_create_app_container_app_container_Standard.create-to-step_parallel_deploy_create_app_container_app_container_created" style="stroke:#0000FF;stroke-width:1.0;"/><polygon fill="#0000FF" points="159,344.329,163,335.329,159,339.329,155,335.329,159,344.329" style="stroke:#0000FF;stroke-width:1.0;"/><rect fill="#FFFFFF" height="88.4883" rx="12.5" ry="12.5" style="stroke:#000000;stroke-width:1.5;" width="221" x="34.5" y="454"/><rect fill="#FFFFFF" height="56" rx="12.5" ry="12.5" style="stroke:#FFFFFF;stroke-width:1.0;" width="215" x="37.5" y="483.4883"/><line style="stroke:#000000;stroke-width:1.5;" x1="34.5" x2="255.5" y1="480.4883" y2="480.4883"/><text fill="#000000" font-family="sans-serif" font-size="14" lengthAdjust="spacing" textLength="201" x="44.5" y="472.5352">pre_configure_app_container</text><rect fill="#FFFFFF" height="40" rx="12.5" ry="12.5" style="stroke:#0000FF;stroke-width:1.5;" width="192" x="46.5" y="492.4883"/><text fill="#000000" font-family="sans-serif" font-size="14" lengthAdjust="spacing" textLength="182" x="51.5" y="517.7793">app_container configuring</text><rect fill="#FFFFFF" height="88.4883" rx="12.5" ry="12.5" style="stroke:#000000;stroke-width:1.5;" width="264" x="7" y="602"/><rect fill="#FFFFFF" height="56" rx="12.5" ry="12.5" style="stroke:#FFFFFF;stroke-width:1.0;" width="258" x="10" y="631.4883"/><line style="stroke:#000000;stroke-width:1.5;" x1="7" x2="271" y1="628.4883" y2="628.4883"/><text fill="#000000" font-family="sans-serif" font-size="14" lengthAdjust="spacing" textLength="171" x="53.5" y="620.5352">configure_app_container</text><rect fill="#ADD8E6" height="40" rx="12.5" ry="12.5" style="stroke:#0000FF;stroke-width:1.5;" width="244" x="19" y="640.4883"/><text fill="#000000" font-family="sans-serif" font-size="14" lengthAdjust="spacing" textLength="234" x="24" y="665.7793">app_container Standard.configure</text><rect fill="#FFFFFF" height="88.4883" rx="12.5" ry="12.5" style="stroke:#000000;stroke-width:1.5;" width="228" x="52" y="974"/><rect fill="#FFFFFF" height="56" rx="12.5" ry="12.5" style="stroke:#FFFFFF;stroke-width:1.0;" width="222" x="55" y="1003.4883"/><line style="stroke:#000000;stroke-width:1.5;" x1="52" x2="280" y1="1000.4883" y2="1000.4883"/><text fill="#000000" font-family="sans-serif" font-size="14" lengthAdjust="spacing" textLength="208" x="62" y="992.5352">post_configure_app_container</text><rect fill="#FFFFFF" height="40" rx="12.5" ry="12.5" style="stroke:#0000FF;stroke-width:1.5;" width="187" x="64" y="1012.4883"/><text fill="#000000" font-family="sans-serif" font-size="14" lengthAdjust="spacing" textLength="177" x="69" y="1037.7793">app_container configured</text><rect fill="#FFFFFF" height="240.4883" rx="12.5" ry="12.5" style="stroke:#000000;stroke-width:1.5;" width="229" x="162.5" y="2310"/><rect fill="#FFFFFF" height="208" rx="12.5" ry="12.5" style="stroke:#FFFFFF;stroke-width:1.0;" width="223" x="165.5" y="2339.4883"/><line style="stroke:#000000;stroke-width:1.5;" x1="162.5" x2="391.5" y1="2336.4883" y2="2336.4883"/><text fill="#000000" font-family="sans-serif" font-size="14" lengthAdjust="spacing" textLength="136" x="209" y="2328.5352">start_app_container</text><rect fill="#FFFFFF" height="40" rx="12.5" ry="12.5" style="stroke:#0000FF;stroke-width:1.5;" width="165" x="196.5" y="2348.4883"/><text fill="#000000" font-family="sans-serif" font-size="14" lengthAdjust="spacing" textLength="155" x="201.5" y="2373.7793">app_container starting</text><rect fill="#ADD8E6" height="40" rx="12.5" ry="12.5" style="stroke:#0000FF;stroke-width:1.5;" width="209" x="174.5" y="2424.4883"/><text fill="#000000" font-family="sans-serif" font-size="14" lengthAdjust="spacing" textLength="199" x="179.5" y="2449.7793">app_container Standard.start</text><rect fill="#FFFFFF" height="40" rx="12.5" ry="12.5" style="stroke:#0000FF;stroke-width:1.5;" width="160" x="199" y="2500.4883"/><text fill="#000000" font-family="sans-serif" font-size="14" lengthAdjust="spacing" textLength="150" x="204" y="2525.7793">app_container started</text><!--MD5=[4112a6d413bc0a1c347c89e11e392897]
link step_parallel_deploy_start_app_container_app_container_starting to step_parallel_deploy_start_app_container_app_container_Standard.start--><path d="M279,2388.8549 C279,2398.2155 279,2409.4103 279,2419.2956 " fill="none" id="step_parallel_deploy_start_app_container_app_container_starting-to-step_parallel_deploy_start_app_container_app_container_Standard.start" style="stroke:#0000FF;stroke-width:1.0;"/><polygon fill="#0000FF" points="279,2424.329,283,2415.329,279,2419.329,275,2415.329,279,2424.329" style="stroke:#0000FF;stroke-width:1.0;"/><!--MD5=[da3d4280538214ab8219a66f0ca73c3f]
link step_parallel_deploy_start_app_container_app_container_Standard.start to step_parallel_deploy_start_app_container_app_container_started--><path d="M279,2464.8549 C279,2474.2155 279,2485.4103 279,2495.2956 " fill="none" id="step_parallel_deploy_start_app_container_app_container_Standard.start-to-step_parallel_deploy_start_app_container_app_container_started" style="stroke:#0000FF;stroke-width:1.0;"/><polygon fill="#0000FF" points="279,2500.329,283,2491.329,279,2495.329,275,2491.329,279,2500.329" style="stroke:#0000FF;stroke-width:1.0;"/><rect fill="#FFFFFF" height="240.4883" rx="12.5" ry="12.5" style="stroke:#000000;stroke-width:1.5;" width="193" x="315.5" y="154"/><rect fill="#FFFFFF" height="208" rx="12.5" ry="12.5" style="stroke:#FFFFFF;stroke-width:1.0;" width="187" x="318.5" y="183.4883"/><line style="stroke:#000000;stroke-width:1.5;" x1="315.5" x2="508.5" y1="180.4883" y2="180.4883"/><text fill="#000000" font-family="sans-serif" font-size="14" lengthAdjust="spacing" textLength="100" x="362" y="172.5352">create_server2</text><rect fill="#FFFFFF" height="40" rx="12.5" ry="12.5" style="stroke:#0000FF;stroke-width:1.5;" width="121" x="353.5" y="192.4883"/><text fill="#000000" font-family="sans-serif" font-size="14" lengthAdjust="spacing" textLength="111" x="358.5" y="217.7793">server2 creating</text><rect fill="#ADD8E6" height="40" rx="12.5" ry="12.5" style="stroke:#0000FF;stroke-width:1.5;" width="173" x="327.5" y="268.4883"/><text fill="#000000" font-family="sans-serif" font-size="14" lengthAdjust="spacing" textLength="163" x="332.5" y="293.7793">server2 Standard.create</text><rect fill="#FFFFFF" height="40" rx="12.5" ry="12.5" style="stroke:#0000FF;stroke-width:1.5;" width="116" x="356" y="344.4883"/><text fill="#000000" font-family="sans-serif" font-size="14" lengthAdjust="spacing" textLength="106" x="361" y="369.7793">server2 created</text><!--MD5=[9c6744e402e5f3446eb19a68e4d5deff]
link step_parallel_deploy_create_server2_server2_creating to step_parallel_deploy_create_server2_server2_Standard.create--><path d="M414,232.8549 C414,242.2155 414,253.4103 414,263.2956 " fill="none" id="step_parallel_deploy_create_server2_server2_creating-to-step_parallel_deploy_create_server2_server2_Standard.create" style="stroke:#0000FF;stroke-width:1.0;"/><polygon fill="#0000FF" points="414,268.329,418,259.329,414,263.329,410,259.329,414,268.329" style="stroke:#0000FF;stroke-width:1.0;"/><!--MD5=[085935bcac1d7870f97556625879e2b3]
link step_parallel_deploy_create_server2_server2_Standard.create to step_parallel_deploy_create_server2_server2_created--><path d="M414,308.8549 C414,318.2155 414,329.4103 414,339.2956 " fill="none" id="step_parallel_deploy_create_server2_server2_Standard.create-to-step_parallel_deploy_create_server2_server2_created" style="stroke:#0000FF;stroke-width:1.0;"/><polygon fill="#0000FF" points="414,344.329,418,335.329,414,339.329,410,335.329,414,344.329" style="stroke:#0000FF;stroke-width:1.0;"/><rect fill="#FFFFFF" height="88.4883" rx="12.5" ry="12.5" style="stroke:#000000;stroke-width:1.5;" width="174" x="326" y="454"/><rect fill="#FFFFFF" height="56" rx="12.5" ry="12.5" style="stroke:#FFFFFF;stroke-width:1.0;" width="168" x="329" y="483.4883"/><line style="stroke:#000000;stroke-width:1.5;" x1="326" x2="500" y1="480.4883" y2="480.4883"/><text fill="#000000" font-family="sans-serif" font-size="14" lengthAdjust="spacing" textLength="154" x="336" y="472.5352">pre_configure_server2</text><rect fill="#FFFFFF" height="40" rx="12.5" ry="12.5" style="stroke:#0000FF;stroke-width:1.5;" width="145" x="338" y="492.4883"/><text fill="#000000" font-family="sans-serif" font-size="14" lengthAdjust="spacing" textLength="135" x="343" y="517.7793">server2 configuring</text><rect fill="#FFFFFF" height="88.4883" rx="12.5" ry="12.5" style="stroke:#000000;stroke-width:1.5;" width="217" x="306.5" y="602"/><rect fill="#FFFFFF" height="56" rx="12.5" ry="12.5" style="stroke:#FFFFFF;stroke-width:1.0;" width="211" x="309.5" y="631.4883"/><line style="stroke:#000000;stroke-width:1.5;" x1="306.5" x2="523.5" y1="628.4883" y2="628.4883"/><text fill="#000000" font-family="sans-serif" font-size="14" lengthAdjust="spacing" textLength="124" x="353" y="620.5352">configure_server2</text><rect fill="#ADD8E6" height="40" rx="12.5" ry="12.5" style="stroke:#0000FF;stroke-width:1.5;" width="197" x="318.5" y="640.4883"/><text fill="#000000" font-family="sans-serif" font-size="14" lengthAdjust="spacing" textLength="187" x="323.5" y="665.7793">server2 Standard.configure</text><rect fill="#FFFFFF" height="88.4883" rx="12.5" ry="12.5" style="stroke:#000000;stroke-width:1.5;" width="181" x="321.5" y="750"/><rect fill="#FFFFFF" height="56" rx="12.5" ry="12.5" style="stroke:#FFFFFF;stroke-width:1.0;" width="175" x="324.5" y="779.4883"/><line style="stroke:#000000;stroke-width:1.5;" x1="321.5" x2="502.5" y1="776.4883" y2="776.4883"/><text fill="#000000" font-family="sans-serif" font-size="14" lengthAdjust="spacing" textLength="161" x="331.5" y="768.5352">post_configure_server2</text><rect fill="#FFFFFF" height="40" rx="12.5" ry="12.5" style="stroke:#0000FF;stroke-width:1.5;" width="140" x="333.5" y="788.4883"/><text fill="#000000" font-family="sans-serif" font-size="14" lengthAdjust="spacing" textLength="130" x="338.5" y="813.7793">server2 configured</text><rect fill="#FFFFFF" height="240.4883" rx="12.5" ry="12.5" style="stroke:#000000;stroke-width:1.5;" width="182" x="319" y="898"/><rect fill="#FFFFFF" height="208" rx="12.5" ry="12.5" style="stroke:#FFFFFF;stroke-width:1.0;" width="176" x="322" y="927.4883"/><line style="stroke:#000000;stroke-width:1.5;" x1="319" x2="501" y1="924.4883" y2="924.4883"/><text fill="#000000" font-family="sans-serif" font-size="14" lengthAdjust="spacing" textLength="89" x="365.5" y="916.5352">start_server2</text><rect fill="#FFFFFF" height="40" rx="12.5" ry="12.5" style="stroke:#0000FF;stroke-width:1.5;" width="118" x="353" y="936.4883"/><text fill="#000000" font-family="sans-serif" font-size="14" lengthAdjust="spacing" textLength="108" x="358" y="961.7793">server2 starting</text><rect fill="#ADD8E6" height="40" rx="12.5" ry="12.5" style="stroke:#0000FF;stroke-width:1.5;" width="162" x="331" y="1012.4883"/><text fill="#000000" font-family="sans-serif" font-size="14" lengthAdjust="spacing" textLength="152" x="336" y="1037.7793">server2 Standard.start</text><rect fill="#FFFFFF" height="40" rx="12.5" ry="12.5" style="stroke:#0000FF;stroke-width:1.5;" width="113" x="355.5" y="1088.4883"/><text fill="#000000" font-family="sans-serif" font-size="14" lengthAdjust="spacing" textLength="103" x="360.5" y="1113.7793">server2 started</text><!--MD5=[3f8daad2a755acd15b54545c0aec9c30]
link step_parallel_deploy_start_server2_server2_starting to step_parallel_deploy_start_server2_server2_Standard.start--><path d="M412,976.8549 C412,986.2155 412,997.4103 412,1007.2956 " fill="none" id="step_parallel_deploy_start_server2_server2_starting-to-step_parallel_deploy_start_server2_server2_Standard.start" style="stroke:#0000FF;stroke-width:1.0;"/><polygon fill="#0000FF" points="412,1012.329,416,1003.329,412,1007.329,408,1003.329,412,1012.329" style="stroke:#0000FF;stroke-width:1.0;"/><!--MD5=[58f9ea522cead4837e6bafa170a54d62]
link step_parallel_deploy_start_server2_server2_Standard.start to step_parallel_deploy_start_server2_server2_started--><path d="M412,1052.8549 C412,1062.2155 412,1073.4103 412,1083.2956 " fill="none" id="step_parallel_deploy_start_server2_server2_Standard.start-to-step_parallel_deploy_start_server2_server2_started" style="stroke:#0000FF;stroke-width:1.0;"/><polygon fill="#0000FF" points="412,1088.329,416,1079.329,412,1083.329,408,1079.329,412,1088.329" style="stroke:#0000FF;stroke-width:1.0;"/><!--MD5=[60c82ce81f0c298f0d60b99ef73dcaa6]
link step_parallel_deploy_start_app_container_join to step_parallel_deploy_start_app_container--><path d="M277,2250.1888 C277,2258.7786 277,2279.6672 277,2304.2952 " fill="none" id="step_parallel_deploy_start_app_container_join-to-step_parallel_deploy_start_app_container" style="stroke:#0000FF;stroke-width:1.0;"/><polygon fill="#0000FF" points="277,2309.6042,281,2300.6042,277,2304.6042,273,2300.6042,277,2309.6042" style="stroke:#0000FF;stroke-width:1.0;"/><!--MD5=[bae02f391650df7ef2a0c582221cc1a4]
link step_parallel_deploy_create_db to step_parallel_deploy_pre_configure_db--><path d="M395.5609,1438.1966 C394.5229,1457.5722 393.5026,1476.6189 392.625,1493.0006 " fill="none" id="step_parallel_deploy_create_db-to-step_parallel_deploy_pre_configure_db" style="stroke:#0000FF;stroke-width:1.0;"/><polygon fill="#0000FF" points="392.3573,1497.9964,396.8332,1489.2234,392.6249,1493.0036,388.8447,1488.7952,392.3573,1497.9964" style="stroke:#0000FF;stroke-width:1.0;"/><!--MD5=[33aa656f99f571deff90da179407ddab]
link step_parallel_deploy_pre_configure_db to step_parallel_deploy_configure_db--><path d="M387.6214,1586.0042 C386.6948,1603.1469 385.6284,1622.8749 384.6752,1640.5094 " fill="none" id="step_parallel_deploy_pre_configure_db-to-step_parallel_deploy_configure_db" style="stroke:#0000FF;stroke-width:1.0;"/><polygon fill="#0000FF" points="384.3833,1645.9098,388.8635,1637.1389,384.6533,1640.9171,380.8751,1636.7069,384.3833,1645.9098" style="stroke:#0000FF;stroke-width:1.0;"/><!--MD5=[3cadc235712d327c7f14fcddca8e8cf2]
link step_parallel_deploy_configure_db to step_parallel_deploy_post_configure_db--><path d="M376.9455,1734.0042 C374.9764,1751.1469 372.7103,1770.8749 370.6847,1788.5094 " fill="none" id="step_parallel_deploy_configure_db-to-step_parallel_deploy_post_configure_db" style="stroke:#0000FF;stroke-width:1.0;"/><polygon fill="#0000FF" points="370.0644,1793.9098,375.0653,1785.4251,370.635,1788.9425,367.1176,1784.5121,370.0644,1793.9098" style="stroke:#0000FF;stroke-width:1.0;"/><!--MD5=[68478569faf7cac0eae2636f0989e7c9]
link step_parallel_deploy_post_configure_db to step_parallel_deploy_start_db--><path d="M361.8389,1882.2552 C360.7068,1898.1051 359.3675,1916.8545 357.9885,1936.161 " fill="none" id="step_parallel_deploy_post_configure_db-to-step_parallel_deploy_start_db" style="stroke:#0000FF;stroke-width:1.0;"/><polygon fill="#0000FF" points="357.5986,1941.6193,362.2297,1932.9272,357.9549,1936.632,354.2501,1932.3571,357.5986,1941.6193" style="stroke:#0000FF;stroke-width:1.0;"/><!--MD5=[d9e05b60aded63f6f5f72c87f974ade2]
link step_parallel_deploy_start_db to step_parallel_deploy_start_app_container_join--><path d="M301.98,2182.1621 C292.8995,2205.3679 284.8542,2225.9281 280.4797,2237.1076 " fill="none" id="step_parallel_deploy_start_db-to-step_parallel_deploy_start_app_container_join" style="stroke:#0000FF;stroke-width:1.0;"/><polygon fill="#0000FF" points="278.6386,2241.8126,285.6433,2234.8892,280.4607,2237.1564,278.1934,2231.9738,278.6386,2241.8126" style="stroke:#0000FF;stroke-width:1.0;"/><!--MD5=[215cc36f619c04d20426f1444967d766]
link step_parallel_deploy_create_app_container to step_parallel_deploy_pre_configure_app_container--><path d="M150.5609,394.1966 C149.5229,413.5722 148.5026,432.6189 147.625,449.0006 " fill="none" id="step_parallel_deploy_create_app_container-to-step_parallel_deploy_pre_configure_app_container" style="stroke:#0000FF;stroke-width:1.0;"/><polygon fill="#0000FF" points="147.3573,453.9964,151.8332,445.2234,147.6249,449.0036,143.8447,444.7952,147.3573,453.9964" style="stroke:#0000FF;stroke-width:1.0;"/><!--MD5=[2b116e90b54f561aca485c2e42bd291e]
link step_parallel_deploy_pre_configure_app_container to step_parallel_deploy_configure_app_container--><path d="M143.216,542.0042 C142.5211,559.1469 141.7213,578.8749 141.0064,596.5094 " fill="none" id="step_parallel_deploy_pre_configure_app_container-to-step_parallel_deploy_configure_app_container" style="stroke:#0000FF;stroke-width:1.0;"/><polygon fill="#0000FF" points="140.7874,601.9098,145.1487,593.0792,140.99,596.9139,137.1553,592.7551,140.7874,601.9098" style="stroke:#0000FF;stroke-width:1.0;"/><!--MD5=[d56f482f0572b5644220cde04a3c430f]
link step_parallel_deploy_configure_app_container to step_parallel_deploy_post_configure_app_container--><path d="M142.2033,690.1341 C147.2779,760.0508 157.1315,895.8112 162.4276,968.7799 " fill="none" id="step_parallel_deploy_configure_app_container-to-step_parallel_deploy_post_configure_app_container" style="stroke:#0000FF;stroke-width:1.0;"/><polygon fill="#0000FF" points="162.8009,973.9233,166.1386,964.6572,162.4388,968.9364,158.1596,965.2366,162.8009,973.9233" style="stroke:#0000FF;stroke-width:1.0;"/><!--MD5=[f6faaa1b37361fba0d9ec4fdc6369e55]
link step_parallel_deploy_post_configure_app_container to step_parallel_deploy_start_app_container_join--><path d="M172.6343,1062.046 C185.5898,1152.0062 213,1363.4353 213,1542 C213,1542 213,1542 213,1838 C213,1992.1345 224.1082,2031.4159 257,2182 C261.3515,2201.9221 269.1122,2224.5462 273.5791,2236.8466 " fill="none" id="step_parallel_deploy_post_configure_app_container-to-step_parallel_deploy_start_app_container_join" style="stroke:#0000FF;stroke-width:1.0;"/><polygon fill="#0000FF" points="275.3756,2241.7249,276.019,2231.8971,273.6477,2237.033,268.5118,2234.6617,275.3756,2241.7249" style="stroke:#0000FF;stroke-width:1.0;"/><!--MD5=[0a91aa0e2e2f4946411ada31412f9e95]
link step_parallel_deploy_create_server2 to step_parallel_deploy_pre_configure_server2--><path d="M412.5366,394.1966 C412.6223,413.4052 412.7067,432.2905 412.7794,448.5764 " fill="none" id="step_parallel_deploy_create_server2-to-step_parallel_deploy_pre_configure_server2" style="stroke:#0000FF;stroke-width:1.0;"/><polygon fill="#0000FF" points="412.8036,453.9964,416.7632,444.9785,412.7812,448.9965,408.7633,445.0144,412.8036,453.9964" style="stroke:#0000FF;stroke-width:1.0;"/><!--MD5=[b3339e4e18dff60280e088bcac0d0f28]
link step_parallel_deploy_pre_configure_server2 to step_parallel_deploy_configure_server2--><path d="M413.5947,542.0042 C413.8263,559.1469 414.0929,578.8749 414.3312,596.5094 " fill="none" id="step_parallel_deploy_pre_configure_server2-to-step_parallel_deploy_configure_server2" style="stroke:#0000FF;stroke-width:1.0;"/><polygon fill="#0000FF" points="414.4042,601.9098,418.2819,592.8565,414.3365,596.9103,410.2827,592.9648,414.4042,601.9098" style="stroke:#0000FF;stroke-width:1.0;"/><!--MD5=[79e122b78c049f4c6ff7f99e082e7ccc]
link step_parallel_deploy_configure_server2 to step_parallel_deploy_post_configure_server2--><path d="M414.108,690.0042 C413.7605,707.1469 413.3606,726.8749 413.0032,744.5094 " fill="none" id="step_parallel_deploy_configure_server2-to-step_parallel_deploy_post_configure_server2" style="stroke:#0000FF;stroke-width:1.0;"/><polygon fill="#0000FF" points="412.8937,749.9098,417.0754,740.9928,412.9951,744.9108,409.0771,740.8305,412.8937,749.9098" style="stroke:#0000FF;stroke-width:1.0;"/><!--MD5=[453764d46b57d93779982297304ede66]
link step_parallel_deploy_post_configure_server2 to step_parallel_deploy_start_server2--><path d="M411.6049,838.2552 C411.4633,854.1051 411.2959,872.8545 411.1236,892.161 " fill="none" id="step_parallel_deploy_post_configure_server2-to-step_parallel_deploy_start_server2" style="stroke:#0000FF;stroke-width:1.0;"/><polygon fill="#0000FF" points="411.0748,897.6193,415.1551,888.6554,411.1195,892.6195,407.1554,888.5839,411.0748,897.6193" style="stroke:#0000FF;stroke-width:1.0;"/><!--MD5=[d405f78958516b71f770c8c6e35ec941]
link step_parallel_deploy_start_server2 to step_parallel_deploy_create_db--><path d="M406.7922,1138.2929 C406.3154,1156.1733 405.8229,1174.6404 405.3434,1192.6221 " fill="none" id="step_parallel_deploy_start_server2-to-step_parallel_deploy_create_db" style="stroke:#0000FF;stroke-width:1.0;"/><polygon fill="#0000FF" points="405.2085,1197.6801,409.4472,1188.79,405.3419,1192.6819,401.4501,1188.5766,405.2085,1197.6801" style="stroke:#0000FF;stroke-width:1.0;"/><!--MD5=[30fe4767625141ea303a23356d448521]
link *start to parallel_deploy_fork--><path d="M283,26.2894 C283,40.745 283,66.8479 283,80.7308 " fill="none" id="*start-to-parallel_deploy_fork" style="stroke:#0000FF;stroke-width:1.0;"/><polygon fill="#0000FF" points="283,85.8629,287,76.8629,283,80.8629,279,76.8629,283,85.8629" style="stroke:#0000FF;stroke-width:1.0;"/><!--MD5=[83496b7b5769f3528183345094b007a7]
link parallel_deploy_fork to step_parallel_deploy_create_app_container--><path d="M280.1316,94.1888 C274.1756,102.8865 259.5848,124.1936 242.4442,149.2243 " fill="none" id="parallel_deploy_fork-to-step_parallel_deploy_create_app_container" style="stroke:#0000FF;stroke-width:1.0;"/><polygon fill="#0000FF" points="239.445,153.6042,247.8304,148.4384,242.27,149.4788,241.2297,143.9184,239.445,153.6042" style="stroke:#0000FF;stroke-width:1.0;"/><!--MD5=[6bb844f77e3cd9b87512850578332d63]
link parallel_deploy_fork to step_parallel_deploy_create_server2--><path d="M285.9367,94.1888 C292.0345,102.8865 306.9727,124.1936 324.5214,149.2243 " fill="none" id="parallel_deploy_fork-to-step_parallel_deploy_create_server2" style="stroke:#0000FF;stroke-width:1.0;"/><polygon fill="#0000FF" points="327.5921,153.6042,325.7009,143.9386,324.7218,149.5101,319.1504,148.531,327.5921,153.6042" style="stroke:#0000FF;stroke-width:1.0;"/><!--MD5=[66a8e0a319ceb00664a9edcdbe808c8a]
link step_parallel_deploy_start_app_container to *end--><path d="M277,2550.0605 C277,2571.7796 277,2591.6166 277,2604.5716 " fill="none" id="step_parallel_deploy_start_app_container-to-*end" style="stroke:#0000FF;stroke-width:1.0;"/><polygon fill="#0000FF" points="277,2609.6879,281,2600.6879,277,2604.6879,273,2600.6879,277,2609.6879" style="stroke:#0000FF;stroke-width:1.0;"/><!--MD5=[ad86739a54be51fdfd6d3851371e6fee]
@startuml
hide empty description
skinparam shadowing false
skinparam state {
  ArrowColor blue
  BorderColor blue
  EndColor black
  StartColor green
  BackGroundColor<< step >> white
  BorderColor<< step >> black
  BackGroundColor<< delegate >> lightgrey
  BackGroundColor<< set_state >> white
  BackGroundColor<< call_operation >> lightblue
  BackGroundColor<< inline >> white
}
skinparam ActivityBarColor<<fork>> DarkGreen
skinparam ActivityBarColor<<join>> DarkOrange

state "create_db" as step_parallel_deploy_create_db << step >> {
  state "db creating" as step_parallel_deploy_create_db_db_creating << set_state >>
  state "db Standard.create" as step_parallel_deploy_create_db_db_Standard.create << call_operation >>
  state "db created" as step_parallel_deploy_create_db_db_created << set_state >>
  step_parallel_deploy_create_db_db_creating - -> step_parallel_deploy_create_db_db_Standard.create
  step_parallel_deploy_create_db_db_Standard.create - -> step_parallel_deploy_create_db_db_created
}
state "pre_configure_db" as step_parallel_deploy_pre_configure_db << step >> {
  state "db configuring" as step_parallel_deploy_pre_configure_db_db_configuring << set_state >>
}
state "configure_db" as step_parallel_deploy_configure_db << step >> {
  state "db Standard.configure" as step_parallel_deploy_configure_db_db_Standard.configure << call_operation >>
}
state "post_configure_db" as step_parallel_deploy_post_configure_db << step >> {
  state "db configured" as step_parallel_deploy_post_configure_db_db_configured << set_state >>
}
state "start_db" as step_parallel_deploy_start_db << step >> {
  state "db starting" as step_parallel_deploy_start_db_db_starting << set_state >>
  state "db Standard.start" as step_parallel_deploy_start_db_db_Standard.start << call_operation >>
  state "db started" as step_parallel_deploy_start_db_db_started << set_state >>
  step_parallel_deploy_start_db_db_starting - -> step_parallel_deploy_start_db_db_Standard.start
  step_parallel_deploy_start_db_db_Standard.start - -> step_parallel_deploy_start_db_db_started
}
state "create_app_container" as step_parallel_deploy_create_app_container << step >> {
  state "app_container creating" as step_parallel_deploy_create_app_container_app_container_creating << set_state >>
  state "app_container Standard.create" as step_parallel_deploy_create_app_container_app_container_Standard.create << call_operation >>
  state "app_container created" as step_parallel_deploy_create_app_container_app_container_created << set_state >>
  step_parallel_deploy_create_app_container_app_container_creating - -> step_parallel_deploy_create_app_container_app_container_Standard.create
  step_parallel_deploy_create_app_container_app_container_Standard.create - -> step_parallel_deploy_create_app_container_app_container_created
}
state "pre_configure_app_container" as step_parallel_deploy_pre_configure_app_container << step >> {
  state "app_container configuring" as step_parallel_deploy_pre_configure_app_container_app_container_configuring << set_state >>
}
state "configure_app_container" as step_parallel_deploy_configure_app_container << step >> {
  state "app_container Standard.configure" as step_parallel_deploy_configure_app_container_app_container_Standard.configure << call_operation >>
}
state "post_configure_app_container" as step_parallel_deploy_post_configure_app_container << step >> {
  state "app_container configured" as step_parallel_deploy_post_configure_app_container_app_container_configured << set_state >>
}
state "start_app_container" as step_parallel_deploy_start_app_container << step >> {
  state "app_container starting" as step_parallel_deploy_start_app_container_app_container_starting << set_state >>
  state "app_container Standard.start" as step_parallel_deploy_start_app_container_app_container_Standard.start << call_operation >>
  state "app_container started" as step_parallel_deploy_start_app_container_app_container_started << set_state >>
  step_parallel_deploy_start_app_container_app_container_starting - -> step_parallel_deploy_start_app_container_app_container_Standard.start
  step_parallel_deploy_start_app_container_app_container_Standard.start - -> step_parallel_deploy_start_app_container_app_container_started
}
state "create_server2" as step_parallel_deploy_create_server2 << step >> {
  state "server2 creating" as step_parallel_deploy_create_server2_server2_creating << set_state >>
  state "server2 Standard.create" as step_parallel_deploy_create_server2_server2_Standard.create << call_operation >>
  state "server2 created" as step_parallel_deploy_create_server2_server2_created << set_state >>
  step_parallel_deploy_create_server2_server2_creating - -> step_parallel_deploy_create_server2_server2_Standard.create
  step_parallel_deploy_create_server2_server2_Standard.create - -> step_parallel_deploy_create_server2_server2_created
}
state "pre_configure_server2" as step_parallel_deploy_pre_configure_server2 << step >> {
  state "server2 configuring" as step_parallel_deploy_pre_configure_server2_server2_configuring << set_state >>
}
state "configure_server2" as step_parallel_deploy_configure_server2 << step >> {
  state "server2 Standard.configure" as step_parallel_deploy_configure_server2_server2_Standard.configure << call_operation >>
}
state "post_configure_server2" as step_parallel_deploy_post_configure_server2 << step >> {
  state "server2 configured" as step_parallel_deploy_post_configure_server2_server2_configured << set_state >>
}
state "start_server2" as step_parallel_deploy_start_server2 << step >> {
  state "server2 starting" as step_parallel_deploy_start_server2_server2_starting << set_state >>
  state "server2 Standard.start" as step_parallel_deploy_start_server2_server2_Standard.start << call_operation >>
  state "server2 started" as step_parallel_deploy_start_server2_server2_started << set_state >>
  step_parallel_deploy_start_server2_server2_starting - -> step_parallel_deploy_start_server2_server2_Standard.start
  step_parallel_deploy_start_server2_server2_Standard.start - -> step_parallel_deploy_start_server2_server2_started
}
  state step_parallel_deploy_start_app_container_join <<join>>
  step_parallel_deploy_start_app_container_join - -> step_parallel_deploy_start_app_container
step_parallel_deploy_create_db - -> step_parallel_deploy_pre_configure_db
step_parallel_deploy_pre_configure_db - -> step_parallel_deploy_configure_db
step_parallel_deploy_configure_db - -> step_parallel_deploy_post_configure_db
step_parallel_deploy_post_configure_db - -> step_parallel_deploy_start_db
step_parallel_deploy_start_db - -> step_parallel_deploy_start_app_container_join
step_parallel_deploy_create_app_container - -> step_parallel_deploy_pre_configure_app_container
step_parallel_deploy_pre_configure_app_container - -> step_parallel_deploy_configure_app_container
step_parallel_deploy_configure_app_container - -> step_parallel_deploy_post_configure_app_container
step_parallel_deploy_post_configure_app_container - -> step_parallel_deploy_start_app_container_join
step_parallel_deploy_create_server2 - -> step_parallel_deploy_pre_configure_server2
step_parallel_deploy_pre_configure_server2 - -> step_parallel_deploy_configure_server2
step_parallel_deploy_configure_server2 - -> step_parallel_deploy_post_configure_server2
step_parallel_deploy_post_configure_server2 - -> step_parallel_deploy_start_server2
step_parallel_deploy_start_server2 - -> step_parallel_deploy_create_db
state parallel_deploy_fork <<fork>>
[*] - -> parallel_deploy_fork
parallel_deploy_fork - -> step_parallel_deploy_create_app_container
parallel_deploy_fork - -> step_parallel_deploy_create_server2
step_parallel_deploy_start_app_container - -> [*]
@enduml

PlantUML version 1.2021.13(Mon Nov 01 12:38:45 CET 2021)
(GPL source distribution)
Java Runtime: Java(TM) SE Runtime Environment
JVM: Java HotSpot(TM) 64-Bit Server VM
Default Encoding: UTF-8
Language: fr
Country: FR
--></g></svg>