<?xml version="1.0" encoding="UTF-8" standalone="no"?><svg xmlns="http://www.w3.org/2000/svg" xmlns:xlink="http://www.w3.org/1999/xlink" contentScriptType="application/ecmascript" contentStyleType="text/css" height="3244px" preserveAspectRatio="none" style="width:278px;height:3244px;background:#FFFFFF;" version="1.1" viewBox="0 0 278 3244" width="278px" zoomAndPan="magnify"><defs/><g><ellipse cx="139" cy="16" fill="#008000" rx="10" ry="10" style="stroke:none;stroke-width:1.0;"/><ellipse cx="139" cy="3228" rx="10" ry="10" style="stroke:#000000;stroke-width:1.0;fill:none;"/><ellipse cx="139.5" cy="3228.5" fill="#000000" rx="6" ry="6" style="stroke:none;stroke-width:1.0;"/><rect fill="#FFFFFF" height="240.4883" rx="12.5" ry="12.5" style="stroke:#000000;stroke-width:1.5;" width="160" x="59" y="1130"/><rect fill="#FFFFFF" height="208" rx="12.5" ry="12.5" style="stroke:#FFFFFF;stroke-width:1.0;" width="154" x="62" y="1159.4883"/><line style="stroke:#000000;stroke-width:1.5;" x1="59" x2="219" y1="1156.4883" y2="1156.4883"/><text fill="#000000" font-family="sans-serif" font-size="14" lengthAdjust="spacing" textLength="67" x="105.5" y="1148.5352">create_db</text><rect fill="#FFFFFF" height="40" rx="12.5" ry="12.5" style="stroke:#0000FF;stroke-width:1.5;" width="88" x="97" y="1168.4883"/><text fill="#000000" font-family="sans-serif" font-size="14" lengthAdjust="spacing" textLength="78" x="102" y="1193.7793">db creating</text><rect fill="#ADD8E6" height="40" rx="12.5" ry="12.5" style="stroke:#0000FF;stroke-width:1.5;" width="140" x="71" y="1244.4883"/><text fill="#000000" font-family="sans-serif" font-size="14" lengthAdjust="spacing" textLength="130" x="76" y="1269.7793">db Standard.create</text><rect fill="#FFFFFF" height="40" rx="12.5" ry="12.5" style="stroke:#0000FF;stroke-width:1.5;" width="83" x="99.5" y="1320.4883"/><text fill="#000000" font-family="sans-serif" font-size="14" lengthAdjust="spacing" textLength="73" x="104.5" y="1345.7793">db created</text><!--MD5=[ea0c3585779d379253ec963855304533]
link step_declarative_deploy_create_db_db_creating to step_declarative_deploy_create_db_db_Standard.create--><path d="M141,1208.8549 C141,1218.2155 141,1229.4103 141,1239.2956 " fill="none" id="step_declarative_deploy_create_db_db_creating-to-step_declarative_deploy_create_db_db_Standard.create" style="stroke:#0000FF;stroke-width:1.0;"/><polygon fill="#0000FF" points="141,1244.329,145,1235.329,141,1239.329,137,1235.329,141,1244.329" style="stroke:#0000FF;stroke-width:1.0;"/><!--MD5=[d6f01deb8e897c0152fbdb5abe90f6db]
link step_declarative_deploy_create_db_db_Standard.create to step_declarative_deploy_create_db_db_created--><path d="M141,1284.8549 C141,1294.2155 141,1305.4103 141,1315.2956 " fill="none" id="step_declarative_deploy_create_db_db_Standard.create-to-step_declarative_deploy_create_db_db_created" style="stroke:#0000FF;stroke-width:1.0;"/><polygon fill="#0000FF" points="141,1320.329,145,1311.329,141,1315.329,137,1311.329,141,1320.329" style="stroke:#0000FF;stroke-width:1.0;"/><rect fill="#FFFFFF" height="88.4883" rx="12.5" ry="12.5" style="stroke:#000000;stroke-width:1.5;" width="141" x="68.5" y="1430"/><rect fill="#FFFFFF" height="56" rx="12.5" ry="12.5" style="stroke:#FFFFFF;stroke-width:1.0;" width="135" x="71.5" y="1459.4883"/><line style="stroke:#000000;stroke-width:1.5;" x1="68.5" x2="209.5" y1="1456.4883" y2="1456.4883"/><text fill="#000000" font-family="sans-serif" font-size="14" lengthAdjust="spacing" textLength="121" x="78.5" y="1448.5352">pre_configure_db</text><rect fill="#FFFFFF" height="40" rx="12.5" ry="12.5" style="stroke:#0000FF;stroke-width:1.5;" width="112" x="80.5" y="1468.4883"/><text fill="#000000" font-family="sans-serif" font-size="14" lengthAdjust="spacing" textLength="102" x="85.5" y="1493.7793">db configuring</text><rect fill="#FFFFFF" height="88.4883" rx="12.5" ry="12.5" style="stroke:#000000;stroke-width:1.5;" width="184" x="47" y="1578"/><rect fill="#FFFFFF" height="56" rx="12.5" ry="12.5" style="stroke:#FFFFFF;stroke-width:1.0;" width="178" x="50" y="1607.4883"/><line style="stroke:#000000;stroke-width:1.5;" x1="47" x2="231" y1="1604.4883" y2="1604.4883"/><text fill="#000000" font-family="sans-serif" font-size="14" lengthAdjust="spacing" textLength="91" x="93.5" y="1596.5352">configure_db</text><rect fill="#ADD8E6" height="40" rx="12.5" ry="12.5" style="stroke:#0000FF;stroke-width:1.5;" width="164" x="59" y="1616.4883"/><text fill="#000000" font-family="sans-serif" font-size="14" lengthAdjust="spacing" textLength="154" x="64" y="1641.7793">db Standard.configure</text><rect fill="#FFFFFF" height="88.4883" rx="12.5" ry="12.5" style="stroke:#000000;stroke-width:1.5;" width="148" x="65" y="1726"/><rect fill="#FFFFFF" height="56" rx="12.5" ry="12.5" style="stroke:#FFFFFF;stroke-width:1.0;" width="142" x="68" y="1755.4883"/><line style="stroke:#000000;stroke-width:1.5;" x1="65" x2="213" y1="1752.4883" y2="1752.4883"/><text fill="#000000" font-family="sans-serif" font-size="14" lengthAdjust="spacing" textLength="128" x="75" y="1744.5352">post_configure_db</text><rect fill="#FFFFFF" height="40" rx="12.5" ry="12.5" style="stroke:#0000FF;stroke-width:1.5;" width="107" x="77" y="1764.4883"/><text fill="#000000" font-family="sans-serif" font-size="14" lengthAdjust="spacing" textLength="97" x="82" y="1789.7793">db configured</text><rect fill="#FFFFFF" height="240.4883" rx="12.5" ry="12.5" style="stroke:#000000;stroke-width:1.5;" width="149" x="64.5" y="1874"/><rect fill="#FFFFFF" height="208" rx="12.5" ry="12.5" style="stroke:#FFFFFF;stroke-width:1.0;" width="143" x="67.5" y="1903.4883"/><line style="stroke:#000000;stroke-width:1.5;" x1="64.5" x2="213.5" y1="1900.4883" y2="1900.4883"/><text fill="#000000" font-family="sans-serif" font-size="14" lengthAdjust="spacing" textLength="56" x="111" y="1892.5352">start_db</text><rect fill="#FFFFFF" height="40" rx="12.5" ry="12.5" style="stroke:#0000FF;stroke-width:1.5;" width="85" x="98.5" y="1912.4883"/><text fill="#000000" font-family="sans-serif" font-size="14" lengthAdjust="spacing" textLength="75" x="103.5" y="1937.7793">db starting</text><rect fill="#ADD8E6" height="40" rx="12.5" ry="12.5" style="stroke:#0000FF;stroke-width:1.5;" width="129" x="76.5" y="1988.4883"/><text fill="#000000" font-family="sans-serif" font-size="14" lengthAdjust="spacing" textLength="119" x="81.5" y="2013.7793">db Standard.start</text><rect fill="#FFFFFF" height="40" rx="12.5" ry="12.5" style="stroke:#0000FF;stroke-width:1.5;" width="80" x="101" y="2064.4883"/><text fill="#000000" font-family="sans-serif" font-size="14" lengthAdjust="spacing" textLength="70" x="106" y="2089.7793">db started</text><!--MD5=[488477beac51f54788f9455b2ed61eaa]
link step_declarative_deploy_start_db_db_starting to step_declarative_deploy_start_db_db_Standard.start--><path d="M141,1952.8549 C141,1962.2155 141,1973.4103 141,1983.2956 " fill="none" id="step_declarative_deploy_start_db_db_starting-to-step_declarative_deploy_start_db_db_Standard.start" style="stroke:#0000FF;stroke-width:1.0;"/><polygon fill="#0000FF" points="141,1988.329,145,1979.329,141,1983.329,137,1979.329,141,1988.329" style="stroke:#0000FF;stroke-width:1.0;"/><!--MD5=[2ddd6e6ceee27d209483ff550f5b10c7]
link step_declarative_deploy_start_db_db_Standard.start to step_declarative_deploy_start_db_db_started--><path d="M141,2028.8549 C141,2038.2155 141,2049.4103 141,2059.2956 " fill="none" id="step_declarative_deploy_start_db_db_Standard.start-to-step_declarative_deploy_start_db_db_started" style="stroke:#0000FF;stroke-width:1.0;"/><polygon fill="#0000FF" points="141,2064.329,145,2055.329,141,2059.329,137,2055.329,141,2064.329" style="stroke:#0000FF;stroke-width:1.0;"/><rect fill="#FFFFFF" height="240.4883" rx="12.5" ry="12.5" style="stroke:#000000;stroke-width:1.5;" width="240" x="19" y="2174"/><rect fill="#FFFFFF" height="208" rx="12.5" ry="12.5" style="stroke:#FFFFFF;stroke-width:1.0;" width="234" x="22" y="2203.4883"/><line style="stroke:#000000;stroke-width:1.5;" x1="19" x2="259" y1="2200.4883" y2="2200.4883"/><text fill="#000000" font-family="sans-serif" font-size="14" lengthAdjust="spacing" textLength="147" x="65.5" y="2192.5352">create_app_container</text><rect fill="#FFFFFF" height="40" rx="12.5" ry="12.5" style="stroke:#0000FF;stroke-width:1.5;" width="168" x="57" y="2212.4883"/><text fill="#000000" font-family="sans-serif" font-size="14" lengthAdjust="spacing" textLength="158" x="62" y="2237.7793">app_container creating</text><rect fill="#ADD8E6" height="40" rx="12.5" ry="12.5" style="stroke:#0000FF;stroke-width:1.5;" width="220" x="31" y="2288.4883"/><text fill="#000000" font-family="sans-serif" font-size="14" lengthAdjust="spacing" textLength="210" x="36" y="2313.7793">app_container Standard.create</text><rect fill="#FFFFFF" height="40" rx="12.5" ry="12.5" style="stroke:#0000FF;stroke-width:1.5;" width="163" x="59.5" y="2364.4883"/><text fill="#000000" font-family="sans-serif" font-size="14" lengthAdjust="spacing" textLength="153" x="64.5" y="2389.7793">app_container created</text><!--MD5=[82aab01b78db524b168cc98c8a460b82]
link step_declarative_deploy_create_app_container_app_container_creating to step_declarative_deploy_create_app_container_app_container_Standard.create--><path d="M141,2252.8549 C141,2262.2155 141,2273.4103 141,2283.2956 " fill="none" id="step_declarative_deploy_create_app_container_app_container_creating-to-step_declarative_deploy_create_app_container_app_container_Standard.create" style="stroke:#0000FF;stroke-width:1.0;"/><polygon fill="#0000FF" points="141,2288.329,145,2279.329,141,2283.329,137,2279.329,141,2288.329" style="stroke:#0000FF;stroke-width:1.0;"/><!--MD5=[b27314ca9d882f0d6f8f46c3cd493215]
link step_declarative_deploy_create_app_container_app_container_Standard.create to step_declarative_deploy_create_app_container_app_container_created--><path d="M141,2328.8549 C141,2338.2155 141,2349.4103 141,2359.2956 " fill="none" id="step_declarative_deploy_create_app_container_app_container_Standard.create-to-step_declarative_deploy_create_app_container_app_container_created" style="stroke:#0000FF;stroke-width:1.0;"/><polygon fill="#0000FF" points="141,2364.329,145,2355.329,141,2359.329,137,2355.329,141,2364.329" style="stroke:#0000FF;stroke-width:1.0;"/><rect fill="#FFFFFF" height="88.4883" rx="12.5" ry="12.5" style="stroke:#000000;stroke-width:1.5;" width="221" x="28.5" y="2474"/><rect fill="#FFFFFF" height="56" rx="12.5" ry="12.5" style="stroke:#FFFFFF;stroke-width:1.0;" width="215" x="31.5" y="2503.4883"/><line style="stroke:#000000;stroke-width:1.5;" x1="28.5" x2="249.5" y1="2500.4883" y2="2500.4883"/><text fill="#000000" font-family="sans-serif" font-size="14" lengthAdjust="spacing" textLength="201" x="38.5" y="2492.5352">pre_configure_app_container</text><rect fill="#FFFFFF" height="40" rx="12.5" ry="12.5" style="stroke:#0000FF;stroke-width:1.5;" width="192" x="40.5" y="2512.4883"/><text fill="#000000" font-family="sans-serif" font-size="14" lengthAdjust="spacing" textLength="182" x="45.5" y="2537.7793">app_container configuring</text><rect fill="#FFFFFF" height="88.4883" rx="12.5" ry="12.5" style="stroke:#000000;stroke-width:1.5;" width="264" x="7" y="2622"/><rect fill="#FFFFFF" height="56" rx="12.5" ry="12.5" style="stroke:#FFFFFF;stroke-width:1.0;" width="258" x="10" y="2651.4883"/><line style="stroke:#000000;stroke-width:1.5;" x1="7" x2="271" y1="2648.4883" y2="2648.4883"/><text fill="#000000" font-family="sans-serif" font-size="14" lengthAdjust="spacing" textLength="171" x="53.5" y="2640.5352">configure_app_container</text><rect fill="#ADD8E6" height="40" rx="12.5" ry="12.5" style="stroke:#0000FF;stroke-width:1.5;" width="244" x="19" y="2660.4883"/><text fill="#000000" font-family="sans-serif" font-size="14" lengthAdjust="spacing" textLength="234" x="24" y="2685.7793">app_container Standard.configure</text><rect fill="#FFFFFF" height="88.4883" rx="12.5" ry="12.5" style="stroke:#000000;stroke-width:1.5;" width="228" x="25" y="2770"/><rect fill="#FFFFFF" height="56" rx="12.5" ry="12.5" style="stroke:#FFFFFF;stroke-width:1.0;" width="222" x="28" y="2799.4883"/><line style="stroke:#000000;stroke-width:1.5;" x1="25" x2="253" y1="2796.4883" y2="2796.4883"/><text fill="#000000" font-family="sans-serif" font-size="14" lengthAdjust="spacing" textLength="208" x="35" y="2788.5352">post_configure_app_container</text><rect fill="#FFFFFF" height="40" rx="12.5" ry="12.5" style="stroke:#0000FF;stroke-width:1.5;" width="187" x="37" y="2808.4883"/><text fill="#000000" font-family="sans-serif" font-size="14" lengthAdjust="spacing" textLength="177" x="42" y="2833.7793">app_container configured</text><rect fill="#FFFFFF" height="240.4883" rx="12.5" ry="12.5" style="stroke:#000000;stroke-width:1.5;" width="229" x="24.5" y="2918"/><rect fill="#FFFFFF" height="208" rx="12.5" ry="12.5" style="stroke:#FFFFFF;stroke-width:1.0;" width="223" x="27.5" y="2947.4883"/><line style="stroke:#000000;stroke-width:1.5;" x1="24.5" x2="253.5" y1="2944.4883" y2="2944.4883"/><text fill="#000000" font-family="sans-serif" font-size="14" lengthAdjust="spacing" textLength="136" x="71" y="2936.5352">start_app_container</text><rect fill="#FFFFFF" height="40" rx="12.5" ry="12.5" style="stroke:#0000FF;stroke-width:1.5;" width="165" x="58.5" y="2956.4883"/><text fill="#000000" font-family="sans-serif" font-size="14" lengthAdjust="spacing" textLength="155" x="63.5" y="2981.7793">app_container starting</text><rect fill="#ADD8E6" height="40" rx="12.5" ry="12.5" style="stroke:#0000FF;stroke-width:1.5;" width="209" x="36.5" y="3032.4883"/><text fill="#000000" font-family="sans-serif" font-size="14" lengthAdjust="spacing" textLength="199" x="41.5" y="3057.7793">app_container Standard.start</text><rect fill="#FFFFFF" height="40" rx="12.5" ry="12.5" style="stroke:#0000FF;stroke-width:1.5;" width="160" x="61" y="3108.4883"/><text fill="#000000" font-family="sans-serif" font-size="14" lengthAdjust="spacing" textLength="150" x="66" y="3133.7793">app_container started</text><!--MD5=[720f957a15dfae368a001824d844a757]
link step_declarative_deploy_start_app_container_app_container_starting to step_declarative_deploy_start_app_container_app_container_Standard.start--><path d="M141,2996.8549 C141,3006.2155 141,3017.4103 141,3027.2956 " fill="none" id="step_declarative_deploy_start_app_container_app_container_starting-to-step_declarative_deploy_start_app_container_app_container_Standard.start" style="stroke:#0000FF;stroke-width:1.0;"/><polygon fill="#0000FF" points="141,3032.329,145,3023.329,141,3027.329,137,3023.329,141,3032.329" style="stroke:#0000FF;stroke-width:1.0;"/><!--MD5=[dbd1c4ee74e03e3f206692b1ca70c097]
link step_declarative_deploy_start_app_container_app_container_Standard.start to step_declarative_deploy_start_app_container_app_container_started--><path d="M141,3072.8549 C141,3082.2155 141,3093.4103 141,3103.2956 " fill="none" id="step_declarative_deploy_start_app_container_app_container_Standard.start-to-step_declarative_deploy_start_app_container_app_container_started" style="stroke:#0000FF;stroke-width:1.0;"/><polygon fill="#0000FF" points="141,3108.329,145,3099.329,141,3103.329,137,3099.329,141,3108.329" style="stroke:#0000FF;stroke-width:1.0;"/><rect fill="#FFFFFF" height="240.4883" rx="12.5" ry="12.5" style="stroke:#000000;stroke-width:1.5;" width="193" x="42.5" y="86"/><rect fill="#FFFFFF" height="208" rx="12.5" ry="12.5" style="stroke:#FFFFFF;stroke-width:1.0;" width="187" x="45.5" y="115.4883"/><line style="stroke:#000000;stroke-width:1.5;" x1="42.5" x2="235.5" y1="112.4883" y2="112.4883"/><text fill="#000000" font-family="sans-serif" font-size="14" lengthAdjust="spacing" textLength="100" x="89" y="104.5352">create_server2</text><rect fill="#FFFFFF" height="40" rx="12.5" ry="12.5" style="stroke:#0000FF;stroke-width:1.5;" width="121" x="80.5" y="124.4883"/><text fill="#000000" font-family="sans-serif" font-size="14" lengthAdjust="spacing" textLength="111" x="85.5" y="149.7793">server2 creating</text><rect fill="#ADD8E6" height="40" rx="12.5" ry="12.5" style="stroke:#0000FF;stroke-width:1.5;" width="173" x="54.5" y="200.4883"/><text fill="#000000" font-family="sans-serif" font-size="14" lengthAdjust="spacing" textLength="163" x="59.5" y="225.7793">server2 Standard.create</text><rect fill="#FFFFFF" height="40" rx="12.5" ry="12.5" style="stroke:#0000FF;stroke-width:1.5;" width="116" x="83" y="276.4883"/><text fill="#000000" font-family="sans-serif" font-size="14" lengthAdjust="spacing" textLength="106" x="88" y="301.7793">server2 created</text><!--MD5=[f9b38762c90e12fa45d3158846e27a65]
link step_declarative_deploy_create_server2_server2_creating to step_declarative_deploy_create_server2_server2_Standard.create--><path d="M141,164.8549 C141,174.2155 141,185.4103 141,195.2956 " fill="none" id="step_declarative_deploy_create_server2_server2_creating-to-step_declarative_deploy_create_server2_server2_Standard.create" style="stroke:#0000FF;stroke-width:1.0;"/><polygon fill="#0000FF" points="141,200.329,145,191.329,141,195.329,137,191.329,141,200.329" style="stroke:#0000FF;stroke-width:1.0;"/><!--MD5=[65b3c3fa2b42fb912a2c6f17d5a668aa]
link step_declarative_deploy_create_server2_server2_Standard.create to step_declarative_deploy_create_server2_server2_created--><path d="M141,240.8549 C141,250.2155 141,261.4103 141,271.2956 " fill="none" id="step_declarative_deploy_create_server2_server2_Standard.create-to-step_declarative_deploy_create_server2_server2_created" style="stroke:#0000FF;stroke-width:1.0;"/><polygon fill="#0000FF" points="141,276.329,145,267.329,141,271.329,137,267.329,141,276.329" style="stroke:#0000FF;stroke-width:1.0;"/><rect fill="#FFFFFF" height="88.4883" rx="12.5" ry="12.5" style="stroke:#000000;stroke-width:1.5;" width="174" x="52" y="386"/><rect fill="#FFFFFF" height="56" rx="12.5" ry="12.5" style="stroke:#FFFFFF;stroke-width:1.0;" width="168" x="55" y="415.4883"/><line style="stroke:#000000;stroke-width:1.5;" x1="52" x2="226" y1="412.4883" y2="412.4883"/><text fill="#000000" font-family="sans-serif" font-size="14" lengthAdjust="spacing" textLength="154" x="62" y="404.5352">pre_configure_server2</text><rect fill="#FFFFFF" height="40" rx="12.5" ry="12.5" style="stroke:#0000FF;stroke-width:1.5;" width="145" x="64" y="424.4883"/><text fill="#000000" font-family="sans-serif" font-size="14" lengthAdjust="spacing" textLength="135" x="69" y="449.7793">server2 configuring</text><rect fill="#FFFFFF" height="88.4883" rx="12.5" ry="12.5" style="stroke:#000000;stroke-width:1.5;" width="217" x="30.5" y="534"/><rect fill="#FFFFFF" height="56" rx="12.5" ry="12.5" style="stroke:#FFFFFF;stroke-width:1.0;" width="211" x="33.5" y="563.4883"/><line style="stroke:#000000;stroke-width:1.5;" x1="30.5" x2="247.5" y1="560.4883" y2="560.4883"/><text fill="#000000" font-family="sans-serif" font-size="14" lengthAdjust="spacing" textLength="124" x="77" y="552.5352">configure_server2</text><rect fill="#ADD8E6" height="40" rx="12.5" ry="12.5" style="stroke:#0000FF;stroke-width:1.5;" width="197" x="42.5" y="572.4883"/><text fill="#000000" font-family="sans-serif" font-size="14" lengthAdjust="spacing" textLength="187" x="47.5" y="597.7793">server2 Standard.configure</text><rect fill="#FFFFFF" height="88.4883" rx="12.5" ry="12.5" style="stroke:#000000;stroke-width:1.5;" width="181" x="48.5" y="682"/><rect fill="#FFFFFF" height="56" rx="12.5" ry="12.5" style="stroke:#FFFFFF;stroke-width:1.0;" width="175" x="51.5" y="711.4883"/><line style="stroke:#000000;stroke-width:1.5;" x1="48.5" x2="229.5" y1="708.4883" y2="708.4883"/><text fill="#000000" font-family="sans-serif" font-size="14" lengthAdjust="spacing" textLength="161" x="58.5" y="700.5352">post_configure_server2</text><rect fill="#FFFFFF" height="40" rx="12.5" ry="12.5" style="stroke:#0000FF;stroke-width:1.5;" width="140" x="60.5" y="720.4883"/><text fill="#000000" font-family="sans-serif" font-size="14" lengthAdjust="spacing" textLength="130" x="65.5" y="745.7793">server2 configured</text><rect fill="#FFFFFF" height="240.4883" rx="12.5" ry="12.5" style="stroke:#000000;stroke-width:1.5;" width="182" x="48" y="830"/><rect fill="#FFFFFF" height="208" rx="12.5" ry="12.5" style="stroke:#FFFFFF;stroke-width:1.0;" width="176" x="51" y="859.4883"/><line style="stroke:#000000;stroke-width:1.5;" x1="48" x2="230" y1="856.4883" y2="856.4883"/><text fill="#000000" font-family="sans-serif" font-size="14" lengthAdjust="spacing" textLength="89" x="94.5" y="848.5352">start_server2</text><rect fill="#FFFFFF" height="40" rx="12.5" ry="12.5" style="stroke:#0000FF;stroke-width:1.5;" width="118" x="82" y="868.4883"/><text fill="#000000" font-family="sans-serif" font-size="14" lengthAdjust="spacing" textLength="108" x="87" y="893.7793">server2 starting</text><rect fill="#ADD8E6" height="40" rx="12.5" ry="12.5" style="stroke:#0000FF;stroke-width:1.5;" width="162" x="60" y="944.4883"/><text fill="#000000" font-family="sans-serif" font-size="14" lengthAdjust="spacing" textLength="152" x="65" y="969.7793">server2 Standard.start</text><rect fill="#FFFFFF" height="40" rx="12.5" ry="12.5" style="stroke:#0000FF;stroke-width:1.5;" width="113" x="84.5" y="1020.4883"/><text fill="#000000" font-family="sans-serif" font-size="14" lengthAdjust="spacing" textLength="103" x="89.5" y="1045.7793">server2 started</text><!--MD5=[090960a3ba135c4b833c294c84ed3e2f]
link step_declarative_deploy_start_server2_server2_starting to step_declarative_deploy_start_server2_server2_Standard.start--><path d="M141,908.8549 C141,918.2155 141,929.4103 141,939.2956 " fill="none" id="step_declarative_deploy_start_server2_server2_starting-to-step_declarative_deploy_start_server2_server2_Standard.start" style="stroke:#0000FF;stroke-width:1.0;"/><polygon fill="#0000FF" points="141,944.329,145,935.329,141,939.329,137,935.329,141,944.329" style="stroke:#0000FF;stroke-width:1.0;"/><!--MD5=[1386d7869ba228ef3313f647903cfd86]
link step_declarative_deploy_start_server2_server2_Standard.start to step_declarative_deploy_start_server2_server2_started--><path d="M141,984.8549 C141,994.2155 141,1005.4103 141,1015.2956 " fill="none" id="step_declarative_deploy_start_server2_server2_Standard.start-to-step_declarative_deploy_start_server2_server2_started" style="stroke:#0000FF;stroke-width:1.0;"/><polygon fill="#0000FF" points="141,1020.329,145,1011.329,141,1015.329,137,1011.329,141,1020.329" style="stroke:#0000FF;stroke-width:1.0;"/><!--MD5=[ac7ca55a471d7bc3718408b0cb961bcf]
link step_declarative_deploy_create_db to step_declarative_deploy_pre_configure_db--><path d="M139,1370.1966 C139,1389.4052 139,1408.2905 139,1424.5764 " fill="none" id="step_declarative_deploy_create_db-to-step_declarative_deploy_pre_configure_db" style="stroke:#0000FF;stroke-width:1.0;"/><polygon fill="#0000FF" points="139,1429.9964,143,1420.9964,139,1424.9964,135,1420.9964,139,1429.9964" style="stroke:#0000FF;stroke-width:1.0;"/><!--MD5=[0df06f5d5b1df1b9af0f6352bd5f134d]
link step_declarative_deploy_pre_configure_db to step_declarative_deploy_configure_db--><path d="M139,1518.0042 C139,1535.1469 139,1554.8749 139,1572.5094 " fill="none" id="step_declarative_deploy_pre_configure_db-to-step_declarative_deploy_configure_db" style="stroke:#0000FF;stroke-width:1.0;"/><polygon fill="#0000FF" points="139,1577.9098,143,1568.9098,139,1572.9098,135,1568.9098,139,1577.9098" style="stroke:#0000FF;stroke-width:1.0;"/><!--MD5=[13d9dede48060fa2c3088a03cbddcc83]
link step_declarative_deploy_configure_db to step_declarative_deploy_post_configure_db--><path d="M139,1666.0042 C139,1683.1469 139,1702.8749 139,1720.5094 " fill="none" id="step_declarative_deploy_configure_db-to-step_declarative_deploy_post_configure_db" style="stroke:#0000FF;stroke-width:1.0;"/><polygon fill="#0000FF" points="139,1725.9098,143,1716.9098,139,1720.9098,135,1716.9098,139,1725.9098" style="stroke:#0000FF;stroke-width:1.0;"/><!--MD5=[991b87f5902f12fd21483fc65684617c]
link step_declarative_deploy_post_configure_db to step_declarative_deploy_start_db--><path d="M139,1814.2552 C139,1830.1051 139,1848.8545 139,1868.161 " fill="none" id="step_declarative_deploy_post_configure_db-to-step_declarative_deploy_start_db" style="stroke:#0000FF;stroke-width:1.0;"/><polygon fill="#0000FF" points="139,1873.6193,143,1864.6193,139,1868.6193,135,1864.6193,139,1873.6193" style="stroke:#0000FF;stroke-width:1.0;"/><!--MD5=[60bf09b496edd0feb5d2c0362fb0df05]
link step_declarative_deploy_start_db to step_declarative_deploy_create_app_container--><path d="M139,2114.2929 C139,2132.1733 139,2150.6404 139,2168.6221 " fill="none" id="step_declarative_deploy_start_db-to-step_declarative_deploy_create_app_container" style="stroke:#0000FF;stroke-width:1.0;"/><polygon fill="#0000FF" points="139,2173.6801,143,2164.6801,139,2168.6801,135,2164.6801,139,2173.6801" style="stroke:#0000FF;stroke-width:1.0;"/><!--MD5=[66a86ccb0714332e379c15286da42eac]
link step_declarative_deploy_create_app_container to step_declarative_deploy_pre_configure_app_container--><path d="M139,2414.1966 C139,2433.4052 139,2452.2905 139,2468.5764 " fill="none" id="step_declarative_deploy_create_app_container-to-step_declarative_deploy_pre_configure_app_container" style="stroke:#0000FF;stroke-width:1.0;"/><polygon fill="#0000FF" points="139,2473.9964,143,2464.9964,139,2468.9964,135,2464.9964,139,2473.9964" style="stroke:#0000FF;stroke-width:1.0;"/><!--MD5=[51c8b75dbb0a054dd7c59dd77ae6ed4f]
link step_declarative_deploy_pre_configure_app_container to step_declarative_deploy_configure_app_container--><path d="M139,2562.0042 C139,2579.1469 139,2598.8749 139,2616.5094 " fill="none" id="step_declarative_deploy_pre_configure_app_container-to-step_declarative_deploy_configure_app_container" style="stroke:#0000FF;stroke-width:1.0;"/><polygon fill="#0000FF" points="139,2621.9098,143,2612.9098,139,2616.9098,135,2612.9098,139,2621.9098" style="stroke:#0000FF;stroke-width:1.0;"/><!--MD5=[43fbc188e36b65860124b5267d96610b]
link step_declarative_deploy_configure_app_container to step_declarative_deploy_post_configure_app_container--><path d="M139,2710.0042 C139,2727.1469 139,2746.8749 139,2764.5094 " fill="none" id="step_declarative_deploy_configure_app_container-to-step_declarative_deploy_post_configure_app_container" style="stroke:#0000FF;stroke-width:1.0;"/><polygon fill="#0000FF" points="139,2769.9098,143,2760.9098,139,2764.9098,135,2760.9098,139,2769.9098" style="stroke:#0000FF;stroke-width:1.0;"/><!--MD5=[2713046330091a8c41710808ff27cd01]
link step_declarative_deploy_post_configure_app_container to step_declarative_deploy_start_app_container--><path d="M139,2858.2552 C139,2874.1051 139,2892.8545 139,2912.161 " fill="none" id="step_declarative_deploy_post_configure_app_container-to-step_declarative_deploy_start_app_container" style="stroke:#0000FF;stroke-width:1.0;"/><polygon fill="#0000FF" points="139,2917.6193,143,2908.6193,139,2912.6193,135,2908.6193,139,2917.6193" style="stroke:#0000FF;stroke-width:1.0;"/><!--MD5=[d20902a7e39eda913fb0617bef6e5bfe]
link step_declarative_deploy_create_server2 to step_declarative_deploy_pre_configure_server2--><path d="M139,326.1966 C139,345.4052 139,364.2905 139,380.5764 " fill="none" id="step_declarative_deploy_create_server2-to-step_declarative_deploy_pre_configure_server2" style="stroke:#0000FF;stroke-width:1.0;"/><polygon fill="#0000FF" points="139,385.9964,143,376.9964,139,380.9964,135,376.9964,139,385.9964" style="stroke:#0000FF;stroke-width:1.0;"/><!--MD5=[19546212ee1933d9b632944958ff91e5]
link step_declarative_deploy_pre_configure_server2 to step_declarative_deploy_configure_server2--><path d="M139,474.0042 C139,491.1469 139,510.8749 139,528.5094 " fill="none" id="step_declarative_deploy_pre_configure_server2-to-step_declarative_deploy_configure_server2" style="stroke:#0000FF;stroke-width:1.0;"/><polygon fill="#0000FF" points="139,533.9098,143,524.9098,139,528.9098,135,524.9098,139,533.9098" style="stroke:#0000FF;stroke-width:1.0;"/><!--MD5=[84fa1492bedcc5d8d787ccd0cd8148a3]
link step_declarative_deploy_configure_server2 to step_declarative_deploy_post_configure_server2--><path d="M139,622.0042 C139,639.1469 139,658.8749 139,676.5094 " fill="none" id="step_declarative_deploy_configure_server2-to-step_declarative_deploy_post_configure_server2" style="stroke:#0000FF;stroke-width:1.0;"/><polygon fill="#0000FF" points="139,681.9098,143,672.9098,139,676.9098,135,672.9098,139,681.9098" style="stroke:#0000FF;stroke-width:1.0;"/><!--MD5=[5784a4e3078d38b4044265d16f0320eb]
link step_declarative_deploy_post_configure_server2 to step_declarative_deploy_start_server2--><path d="M139,770.2552 C139,786.1051 139,804.8545 139,824.161 " fill="none" id="step_declarative_deploy_post_configure_server2-to-step_declarative_deploy_start_server2" style="stroke:#0000FF;stroke-width:1.0;"/><polygon fill="#0000FF" points="139,829.6193,143,820.6193,139,824.6193,135,820.6193,139,829.6193" style="stroke:#0000FF;stroke-width:1.0;"/><!--MD5=[aa618953308c29bb99176d60d8fb7231]
link step_declarative_deploy_start_server2 to step_declarative_deploy_create_db--><path d="M139,1070.2929 C139,1088.1733 139,1106.6404 139,1124.6221 " fill="none" id="step_declarative_deploy_start_server2-to-step_declarative_deploy_create_db" style="stroke:#0000FF;stroke-width:1.0;"/><polygon fill="#0000FF" points="139,1129.6801,143,1120.6801,139,1124.6801,135,1120.6801,139,1129.6801" style="stroke:#0000FF;stroke-width:1.0;"/><!--MD5=[e6e1aef99fa20fd7847b29bdef06a5b1]
link *start to step_declarative_deploy_create_server2--><path d="M139,26.2152 C139,37.7525 139,57.9094 139,80.6599 " fill="none" id="*start-to-step_declarative_deploy_create_server2" style="stroke:#0000FF;stroke-width:1.0;"/><polygon fill="#0000FF" points="139,85.8637,143,76.8637,139,80.8637,135,76.8637,139,85.8637" style="stroke:#0000FF;stroke-width:1.0;"/><!--MD5=[f577181804c3447e52fad24b72166cda]
link step_declarative_deploy_start_app_container to *end--><path d="M139,3158.0605 C139,3179.7796 139,3199.6166 139,3212.5716 " fill="none" id="step_declarative_deploy_start_app_container-to-*end" style="stroke:#0000FF;stroke-width:1.0;"/><polygon fill="#0000FF" points="139,3217.6879,143,3208.6879,139,3212.6879,135,3208.6879,139,3217.6879" style="stroke:#0000FF;stroke-width:1.0;"/><!--MD5=[49f81fae1569dea90d53175399050e11]
@startuml
hide empty description
skinparam shadowing false
skinparam state {
  ArrowColor blue
  BorderColor blue
  EndColor black
  StartColor green
  BackGroundColor<< step >> white
  BorderColor<< step >> black
  BackGroundColor<< delegate >> lightgrey
  BackGroundColor<< set_state >> white
  BackGroundColor<< call_operation >> lightblue
  BackGroundColor<< inline >> white
}
skinparam ActivityBarColor<<fork>> DarkGreen
skinparam ActivityBarColor<<join>> DarkOrange

state "create_db" as step_declarative_deploy_create_db << step >> {
  state "db creating" as step_declarative_deploy_create_db_db_creating << set_state >>
  state "db Standard.create" as step_declarative_deploy_create_db_db_Standard.create << call_operation >>
  state "db created" as step_declarative_deploy_create_db_db_created << set_state >>
  step_declarative_deploy_create_db_db_creating - -> step_declarative_deploy_create_db_db_Standard.create
  step_declarative_deploy_create_db_db_Standard.create - -> step_declarative_deploy_create_db_db_created
}
state "pre_configure_db" as step_declarative_deploy_pre_configure_db << step >> {
  state "db configuring" as step_declarative_deploy_pre_configure_db_db_configuring << set_state >>
}
state "configure_db" as step_declarative_deploy_configure_db << step >> {
  state "db Standard.configure" as step_declarative_deploy_configure_db_db_Standard.configure << call_operation >>
}
state "post_configure_db" as step_declarative_deploy_post_configure_db << step >> {
  state "db configured" as step_declarative_deploy_post_configure_db_db_configured << set_state >>
}
state "start_db" as step_declarative_deploy_start_db << step >> {
  state "db starting" as step_declarative_deploy_start_db_db_starting << set_state >>
  state "db Standard.start" as step_declarative_deploy_start_db_db_Standard.start << call_operation >>
  state "db started" as step_declarative_deploy_start_db_db_started << set_state >>
  step_declarative_deploy_start_db_db_starting - -> step_declarative_deploy_start_db_db_Standard.start
  step_declarative_deploy_start_db_db_Standard.start - -> step_declarative_deploy_start_db_db_started
}
state "create_app_container" as step_declarative_deploy_create_app_container << step >> {
  state "app_container creating" as step_declarative_deploy_create_app_container_app_container_creating << set_state >>
  state "app_container Standard.create" as step_declarative_deploy_create_app_container_app_container_Standard.create << call_operation >>
  state "app_container created" as step_declarative_deploy_create_app_container_app_container_created << set_state >>
  step_declarative_deploy_create_app_container_app_container_creating - -> step_declarative_deploy_create_app_container_app_container_Standard.create
  step_declarative_deploy_create_app_container_app_container_Standard.create - -> step_declarative_deploy_create_app_container_app_container_created
}
state "pre_configure_app_container" as step_declarative_deploy_pre_configure_app_container << step >> {
  state "app_container configuring" as step_declarative_deploy_pre_configure_app_container_app_container_configuring << set_state >>
}
state "configure_app_container" as step_declarative_deploy_configure_app_container << step >> {
  state "app_container Standard.configure" as step_declarative_deploy_configure_app_container_app_container_Standard.configure << call_operation >>
}
state "post_configure_app_container" as step_declarative_deploy_post_configure_app_container << step >> {
  state "app_container configured" as step_declarative_deploy_post_configure_app_container_app_container_configured << set_state >>
}
state "start_app_container" as step_declarative_deploy_start_app_container << step >> {
  state "app_container starting" as step_declarative_deploy_start_app_container_app_container_starting << set_state >>
  state "app_container Standard.start" as step_declarative_deploy_start_app_container_app_container_Standard.start << call_operation >>
  state "app_container started" as step_declarative_deploy_start_app_container_app_container_started << set_state >>
  step_declarative_deploy_start_app_container_app_container_starting - -> step_declarative_deploy_start_app_container_app_container_Standard.start
  step_declarative_deploy_start_app_container_app_container_Standard.start - -> step_declarative_deploy_start_app_container_app_container_started
}
state "create_server2" as step_declarative_deploy_create_server2 << step >> {
  state "server2 creating" as step_declarative_deploy_create_server2_server2_creating << set_state >>
  state "server2 Standard.create" as step_declarative_deploy_create_server2_server2_Standard.create << call_operation >>
  state "server2 created" as step_declarative_deploy_create_server2_server2_created << set_state >>
  step_declarative_deploy_create_server2_server2_creating - -> step_declarative_deploy_create_server2_server2_Standard.create
  step_declarative_deploy_create_server2_server2_Standard.create - -> step_declarative_deploy_create_server2_server2_created
}
state "pre_configure_server2" as step_declarative_deploy_pre_configure_server2 << step >> {
  state "server2 configuring" as step_declarative_deploy_pre_configure_server2_server2_configuring << set_state >>
}
state "configure_server2" as step_declarative_deploy_configure_server2 << step >> {
  state "server2 Standard.configure" as step_declarative_deploy_configure_server2_server2_Standard.configure << call_operation >>
}
state "post_configure_server2" as step_declarative_deploy_post_configure_server2 << step >> {
  state "server2 configured" as step_declarative_deploy_post_configure_server2_server2_configured << set_state >>
}
state "start_server2" as step_declarative_deploy_start_server2 << step >> {
  state "server2 starting" as step_declarative_deploy_start_server2_server2_starting << set_state >>
  state "server2 Standard.start" as step_declarative_deploy_start_server2_server2_Standard.start << call_operation >>
  state "server2 started" as step_declarative_deploy_start_server2_server2_started << set_state >>
  step_declarative_deploy_start_server2_server2_starting - -> step_declarative_deploy_start_server2_server2_Standard.start
  step_declarative_deploy_start_server2_server2_Standard.start - -> step_declarative_deploy_start_server2_server2_started
}
step_declarative_deploy_create_db - -> step_declarative_deploy_pre_configure_db
step_declarative_deploy_pre_configure_db - -> step_declarative_deploy_configure_db
step_declarative_deploy_configure_db - -> step_declarative_deploy_post_configure_db
step_declarative_deploy_post_configure_db - -> step_declarative_deploy_start_db
step_declarative_deploy_start_db - -> step_declarative_deploy_create_app_container
step_declarative_deploy_create_app_container - -> step_declarative_deploy_pre_configure_app_container
step_declarative_deploy_pre_configure_app_container - -> step_declarative_deploy_configure_app_container
step_declarative_deploy_configure_app_container - -> step_declarative_deploy_post_configure_app_container
step_declarative_deploy_post_configure_app_container - -> step_declarative_deploy_start_app_container
step_declarative_deploy_create_server2 - -> step_declarative_deploy_pre_configure_server2
step_declarative_deploy_pre_configure_server2 - -> step_declarative_deploy_configure_server2
step_declarative_deploy_configure_server2 - -> step_declarative_deploy_post_configure_server2
step_declarative_deploy_post_configure_server2 - -> step_declarative_deploy_start_server2
step_declarative_deploy_start_server2 - -> step_declarative_deploy_create_db
[*] - -> step_declarative_deploy_create_server2
step_declarative_deploy_start_app_container - -> [*]
@enduml

PlantUML version 1.2021.13(Mon Nov 01 12:38:45 CET 2021)
(GPL source distribution)
Java Runtime: Java(TM) SE Runtime Environment
JVM: Java HotSpot(TM) 64-Bit Server VM
Default Encoding: UTF-8
Language: fr
Country: FR
--></g></svg>