<?xml version="1.0" encoding="UTF-8" standalone="no"?><svg xmlns="http://www.w3.org/2000/svg" xmlns:xlink="http://www.w3.org/1999/xlink" contentScriptType="application/ecmascript" contentStyleType="text/css" height="2048px" preserveAspectRatio="none" style="width:475px;height:2048px;background:#FFFFFF;" version="1.1" viewBox="0 0 475 2048" width="475px" zoomAndPan="magnify"><defs/><g><rect fill="#006400" height="8" style="stroke:none;stroke-width:1.0;" width="80" x="199.5" y="686"/><ellipse cx="239.5" cy="16" fill="#008000" rx="10" ry="10" style="stroke:none;stroke-width:1.0;"/><rect fill="#FF8C00" height="8" style="stroke:none;stroke-width:1.0;" width="80" x="199.5" y="1954"/><ellipse cx="239.5" cy="2032" rx="10" ry="10" style="stroke:#000000;stroke-width:1.0;fill:none;"/><ellipse cx="240" cy="2032.5" fill="#000000" rx="6" ry="6" style="stroke:none;stroke-width:1.0;"/><rect fill="#FFFFFF" height="240.4883" rx="12.5" ry="12.5" style="stroke:#000000;stroke-width:1.5;" width="156" x="161.5" y="86"/><rect fill="#FFFFFF" height="208" rx="12.5" ry="12.5" style="stroke:#FFFFFF;stroke-width:1.0;" width="150" x="164.5" y="115.4883"/><line style="stroke:#000000;stroke-width:1.5;" x1="161.5" x2="317.5" y1="112.4883" y2="112.4883"/><text fill="#000000" font-family="sans-serif" font-size="14" lengthAdjust="spacing" textLength="63" x="208" y="104.5352">stop_app</text><rect fill="#FFFFFF" height="40" rx="12.5" ry="12.5" style="stroke:#0000FF;stroke-width:1.5;" width="101" x="191" y="124.4883"/><text fill="#000000" font-family="sans-serif" font-size="14" lengthAdjust="spacing" textLength="91" x="196" y="149.7793">app stopping</text><rect fill="#ADD8E6" height="40" rx="12.5" ry="12.5" style="stroke:#0000FF;stroke-width:1.5;" width="136" x="173.5" y="200.4883"/><text fill="#000000" font-family="sans-serif" font-size="14" lengthAdjust="spacing" textLength="126" x="178.5" y="225.7793">app Standard.stop</text><rect fill="#FFFFFF" height="40" rx="12.5" ry="12.5" style="stroke:#0000FF;stroke-width:1.5;" width="96" x="193.5" y="276.4883"/><text fill="#000000" font-family="sans-serif" font-size="14" lengthAdjust="spacing" textLength="86" x="198.5" y="301.7793">app stopped</text><!--MD5=[e7d2e2d387577229ca924dcab0b7bd0a]
link step_declarative_undeploy_stop_app_app_stopping to step_declarative_undeploy_stop_app_app_Standard.stop--><path d="M241.5,164.8549 C241.5,174.2155 241.5,185.4103 241.5,195.2956 " fill="none" id="step_declarative_undeploy_stop_app_app_stopping-to-step_declarative_undeploy_stop_app_app_Standard.stop" style="stroke:#0000FF;stroke-width:1.0;"/><polygon fill="#0000FF" points="241.5,200.329,245.5,191.329,241.5,195.329,237.5,191.329,241.5,200.329" style="stroke:#0000FF;stroke-width:1.0;"/><!--MD5=[a32564f98011dcec407319c2dea3ca70]
link step_declarative_undeploy_stop_app_app_Standard.stop to step_declarative_undeploy_stop_app_app_stopped--><path d="M241.5,240.8549 C241.5,250.2155 241.5,261.4103 241.5,271.2956 " fill="none" id="step_declarative_undeploy_stop_app_app_Standard.stop-to-step_declarative_undeploy_stop_app_app_stopped" style="stroke:#0000FF;stroke-width:1.0;"/><polygon fill="#0000FF" points="241.5,276.329,245.5,267.329,241.5,271.329,237.5,267.329,241.5,276.329" style="stroke:#0000FF;stroke-width:1.0;"/><rect fill="#FFFFFF" height="240.4883" rx="12.5" ry="12.5" style="stroke:#000000;stroke-width:1.5;" width="168" x="155.5" y="386"/><rect fill="#FFFFFF" height="208" rx="12.5" ry="12.5" style="stroke:#FFFFFF;stroke-width:1.0;" width="162" x="158.5" y="415.4883"/><line style="stroke:#000000;stroke-width:1.5;" x1="155.5" x2="323.5" y1="412.4883" y2="412.4883"/><text fill="#000000" font-family="sans-serif" font-size="14" lengthAdjust="spacing" textLength="75" x="202" y="404.5352">delete_app</text><rect fill="#FFFFFF" height="40" rx="12.5" ry="12.5" style="stroke:#0000FF;stroke-width:1.5;" width="96" x="193.5" y="424.4883"/><text fill="#000000" font-family="sans-serif" font-size="14" lengthAdjust="spacing" textLength="86" x="198.5" y="449.7793">app deleting</text><rect fill="#ADD8E6" height="40" rx="12.5" ry="12.5" style="stroke:#0000FF;stroke-width:1.5;" width="148" x="167.5" y="500.4883"/><text fill="#000000" font-family="sans-serif" font-size="14" lengthAdjust="spacing" textLength="138" x="172.5" y="525.7793">app Standard.delete</text><rect fill="#FFFFFF" height="40" rx="12.5" ry="12.5" style="stroke:#0000FF;stroke-width:1.5;" width="78" x="202.5" y="576.4883"/><text fill="#000000" font-family="sans-serif" font-size="14" lengthAdjust="spacing" textLength="68" x="207.5" y="601.7793">app initial</text><!--MD5=[2bc473b343e4c7c612493c08a0821a1b]
link step_declarative_undeploy_delete_app_app_deleting to step_declarative_undeploy_delete_app_app_Standard.delete--><path d="M241.5,464.8549 C241.5,474.2155 241.5,485.4103 241.5,495.2956 " fill="none" id="step_declarative_undeploy_delete_app_app_deleting-to-step_declarative_undeploy_delete_app_app_Standard.delete" style="stroke:#0000FF;stroke-width:1.0;"/><polygon fill="#0000FF" points="241.5,500.329,245.5,491.329,241.5,495.329,237.5,491.329,241.5,500.329" style="stroke:#0000FF;stroke-width:1.0;"/><!--MD5=[9ba2ef49cfa60c7796f62738eaac6378]
link step_declarative_undeploy_delete_app_app_Standard.delete to step_declarative_undeploy_delete_app_app_initial--><path d="M241.5,540.8549 C241.5,550.2155 241.5,561.4103 241.5,571.2956 " fill="none" id="step_declarative_undeploy_delete_app_app_Standard.delete-to-step_declarative_undeploy_delete_app_app_initial" style="stroke:#0000FF;stroke-width:1.0;"/><polygon fill="#0000FF" points="241.5,576.329,245.5,567.329,241.5,571.329,237.5,567.329,241.5,576.329" style="stroke:#0000FF;stroke-width:1.0;"/><rect fill="#FFFFFF" height="240.4883" rx="12.5" ry="12.5" style="stroke:#000000;stroke-width:1.5;" width="165" x="61" y="754"/><rect fill="#FFFFFF" height="208" rx="12.5" ry="12.5" style="stroke:#FFFFFF;stroke-width:1.0;" width="159" x="64" y="783.4883"/><line style="stroke:#000000;stroke-width:1.5;" x1="61" x2="226" y1="780.4883" y2="780.4883"/><text fill="#000000" font-family="sans-serif" font-size="14" lengthAdjust="spacing" textLength="72" x="107.5" y="772.5352">stop_node</text><rect fill="#FFFFFF" height="40" rx="12.5" ry="12.5" style="stroke:#0000FF;stroke-width:1.5;" width="110" x="90.5" y="792.4883"/><text fill="#000000" font-family="sans-serif" font-size="14" lengthAdjust="spacing" textLength="100" x="95.5" y="817.7793">node stopping</text><rect fill="#ADD8E6" height="40" rx="12.5" ry="12.5" style="stroke:#0000FF;stroke-width:1.5;" width="145" x="73" y="868.4883"/><text fill="#000000" font-family="sans-serif" font-size="14" lengthAdjust="spacing" textLength="135" x="78" y="893.7793">node Standard.stop</text><rect fill="#FFFFFF" height="40" rx="12.5" ry="12.5" style="stroke:#0000FF;stroke-width:1.5;" width="105" x="93" y="944.4883"/><text fill="#000000" font-family="sans-serif" font-size="14" lengthAdjust="spacing" textLength="95" x="98" y="969.7793">node stopped</text><!--MD5=[3a8dc8485137c8cc04d5ac101361b083]
link step_declarative_undeploy_stop_node_node_stopping to step_declarative_undeploy_stop_node_node_Standard.stop--><path d="M145.5,832.8549 C145.5,842.2155 145.5,853.4103 145.5,863.2956 " fill="none" id="step_declarative_undeploy_stop_node_node_stopping-to-step_declarative_undeploy_stop_node_node_Standard.stop" style="stroke:#0000FF;stroke-width:1.0;"/><polygon fill="#0000FF" points="145.5,868.329,149.5,859.329,145.5,863.329,141.5,859.329,145.5,868.329" style="stroke:#0000FF;stroke-width:1.0;"/><!--MD5=[da05e4e631c606b29123926f65fe7ad7]
link step_declarative_undeploy_stop_node_node_Standard.stop to step_declarative_undeploy_stop_node_node_stopped--><path d="M145.5,908.8549 C145.5,918.2155 145.5,929.4103 145.5,939.2956 " fill="none" id="step_declarative_undeploy_stop_node_node_Standard.stop-to-step_declarative_undeploy_stop_node_node_stopped" style="stroke:#0000FF;stroke-width:1.0;"/><polygon fill="#0000FF" points="145.5,944.329,149.5,935.329,145.5,939.329,141.5,935.329,145.5,944.329" style="stroke:#0000FF;stroke-width:1.0;"/><rect fill="#FFFFFF" height="240.4883" rx="12.5" ry="12.5" style="stroke:#000000;stroke-width:1.5;" width="177" x="49" y="1054"/><rect fill="#FFFFFF" height="208" rx="12.5" ry="12.5" style="stroke:#FFFFFF;stroke-width:1.0;" width="171" x="52" y="1083.4883"/><line style="stroke:#000000;stroke-width:1.5;" x1="49" x2="226" y1="1080.4883" y2="1080.4883"/><text fill="#000000" font-family="sans-serif" font-size="14" lengthAdjust="spacing" textLength="84" x="95.5" y="1072.5352">delete_node</text><rect fill="#FFFFFF" height="40" rx="12.5" ry="12.5" style="stroke:#0000FF;stroke-width:1.5;" width="105" x="87" y="1092.4883"/><text fill="#000000" font-family="sans-serif" font-size="14" lengthAdjust="spacing" textLength="95" x="92" y="1117.7793">node deleting</text><rect fill="#ADD8E6" height="40" rx="12.5" ry="12.5" style="stroke:#0000FF;stroke-width:1.5;" width="157" x="61" y="1168.4883"/><text fill="#000000" font-family="sans-serif" font-size="14" lengthAdjust="spacing" textLength="147" x="66" y="1193.7793">node Standard.delete</text><rect fill="#FFFFFF" height="40" rx="12.5" ry="12.5" style="stroke:#0000FF;stroke-width:1.5;" width="87" x="96" y="1244.4883"/><text fill="#000000" font-family="sans-serif" font-size="14" lengthAdjust="spacing" textLength="77" x="101" y="1269.7793">node initial</text><!--MD5=[df02d23471deddc7daca9c0a801b17f5]
link step_declarative_undeploy_delete_node_node_deleting to step_declarative_undeploy_delete_node_node_Standard.delete--><path d="M139.5,1132.8549 C139.5,1142.2155 139.5,1153.4103 139.5,1163.2956 " fill="none" id="step_declarative_undeploy_delete_node_node_deleting-to-step_declarative_undeploy_delete_node_node_Standard.delete" style="stroke:#0000FF;stroke-width:1.0;"/><polygon fill="#0000FF" points="139.5,1168.329,143.5,1159.329,139.5,1163.329,135.5,1159.329,139.5,1168.329" style="stroke:#0000FF;stroke-width:1.0;"/><!--MD5=[f93c2131372bd803351be0aab2b0c360]
link step_declarative_undeploy_delete_node_node_Standard.delete to step_declarative_undeploy_delete_node_node_initial--><path d="M139.5,1208.8549 C139.5,1218.2155 139.5,1229.4103 139.5,1239.2956 " fill="none" id="step_declarative_undeploy_delete_node_node_Standard.delete-to-step_declarative_undeploy_delete_node_node_initial" style="stroke:#0000FF;stroke-width:1.0;"/><polygon fill="#0000FF" points="139.5,1244.329,143.5,1235.329,139.5,1239.329,135.5,1235.329,139.5,1244.329" style="stroke:#0000FF;stroke-width:1.0;"/><rect fill="#FFFFFF" height="240.4883" rx="12.5" ry="12.5" style="stroke:#000000;stroke-width:1.5;" width="148" x="268.5" y="754"/><rect fill="#FFFFFF" height="208" rx="12.5" ry="12.5" style="stroke:#FFFFFF;stroke-width:1.0;" width="142" x="271.5" y="783.4883"/><line style="stroke:#000000;stroke-width:1.5;" x1="268.5" x2="416.5" y1="780.4883" y2="780.4883"/><text fill="#000000" font-family="sans-serif" font-size="14" lengthAdjust="spacing" textLength="55" x="315" y="772.5352">stop_db</text><rect fill="#FFFFFF" height="40" rx="12.5" ry="12.5" style="stroke:#0000FF;stroke-width:1.5;" width="93" x="298" y="792.4883"/><text fill="#000000" font-family="sans-serif" font-size="14" lengthAdjust="spacing" textLength="83" x="303" y="817.7793">db stopping</text><rect fill="#ADD8E6" height="40" rx="12.5" ry="12.5" style="stroke:#0000FF;stroke-width:1.5;" width="128" x="280.5" y="868.4883"/><text fill="#000000" font-family="sans-serif" font-size="14" lengthAdjust="spacing" textLength="118" x="285.5" y="893.7793">db Standard.stop</text><rect fill="#FFFFFF" height="40" rx="12.5" ry="12.5" style="stroke:#0000FF;stroke-width:1.5;" width="88" x="300.5" y="944.4883"/><text fill="#000000" font-family="sans-serif" font-size="14" lengthAdjust="spacing" textLength="78" x="305.5" y="969.7793">db stopped</text><!--MD5=[1c10a9c0fc3988f01b13c73840c030b9]
link step_declarative_undeploy_stop_db_db_stopping to step_declarative_undeploy_stop_db_db_Standard.stop--><path d="M344.5,832.8549 C344.5,842.2155 344.5,853.4103 344.5,863.2956 " fill="none" id="step_declarative_undeploy_stop_db_db_stopping-to-step_declarative_undeploy_stop_db_db_Standard.stop" style="stroke:#0000FF;stroke-width:1.0;"/><polygon fill="#0000FF" points="344.5,868.329,348.5,859.329,344.5,863.329,340.5,859.329,344.5,868.329" style="stroke:#0000FF;stroke-width:1.0;"/><!--MD5=[6bc2aea57c677b7442572969cfb6602c]
link step_declarative_undeploy_stop_db_db_Standard.stop to step_declarative_undeploy_stop_db_db_stopped--><path d="M344.5,908.8549 C344.5,918.2155 344.5,929.4103 344.5,939.2956 " fill="none" id="step_declarative_undeploy_stop_db_db_Standard.stop-to-step_declarative_undeploy_stop_db_db_stopped" style="stroke:#0000FF;stroke-width:1.0;"/><polygon fill="#0000FF" points="344.5,944.329,348.5,935.329,344.5,939.329,340.5,935.329,344.5,944.329" style="stroke:#0000FF;stroke-width:1.0;"/><rect fill="#FFFFFF" height="240.4883" rx="12.5" ry="12.5" style="stroke:#000000;stroke-width:1.5;" width="160" x="270.5" y="1054"/><rect fill="#FFFFFF" height="208" rx="12.5" ry="12.5" style="stroke:#FFFFFF;stroke-width:1.0;" width="154" x="273.5" y="1083.4883"/><line style="stroke:#000000;stroke-width:1.5;" x1="270.5" x2="430.5" y1="1080.4883" y2="1080.4883"/><text fill="#000000" font-family="sans-serif" font-size="14" lengthAdjust="spacing" textLength="67" x="317" y="1072.5352">delete_db</text><rect fill="#FFFFFF" height="40" rx="12.5" ry="12.5" style="stroke:#0000FF;stroke-width:1.5;" width="88" x="308.5" y="1092.4883"/><text fill="#000000" font-family="sans-serif" font-size="14" lengthAdjust="spacing" textLength="78" x="313.5" y="1117.7793">db deleting</text><rect fill="#ADD8E6" height="40" rx="12.5" ry="12.5" style="stroke:#0000FF;stroke-width:1.5;" width="140" x="282.5" y="1168.4883"/><text fill="#000000" font-family="sans-serif" font-size="14" lengthAdjust="spacing" textLength="130" x="287.5" y="1193.7793">db Standard.delete</text><rect fill="#FFFFFF" height="40" rx="12.5" ry="12.5" style="stroke:#0000FF;stroke-width:1.5;" width="70" x="317.5" y="1244.4883"/><text fill="#000000" font-family="sans-serif" font-size="14" lengthAdjust="spacing" textLength="60" x="322.5" y="1269.7793">db initial</text><!--MD5=[efdc3bb8f530c21c9c678fab76402752]
link step_declarative_undeploy_delete_db_db_deleting to step_declarative_undeploy_delete_db_db_Standard.delete--><path d="M352.5,1132.8549 C352.5,1142.2155 352.5,1153.4103 352.5,1163.2956 " fill="none" id="step_declarative_undeploy_delete_db_db_deleting-to-step_declarative_undeploy_delete_db_db_Standard.delete" style="stroke:#0000FF;stroke-width:1.0;"/><polygon fill="#0000FF" points="352.5,1168.329,356.5,1159.329,352.5,1163.329,348.5,1159.329,352.5,1168.329" style="stroke:#0000FF;stroke-width:1.0;"/><!--MD5=[f8da6a2534c7685605fc4b536189adff]
link step_declarative_undeploy_delete_db_db_Standard.delete to step_declarative_undeploy_delete_db_db_initial--><path d="M352.5,1208.8549 C352.5,1218.2155 352.5,1229.4103 352.5,1239.2956 " fill="none" id="step_declarative_undeploy_delete_db_db_Standard.delete-to-step_declarative_undeploy_delete_db_db_initial" style="stroke:#0000FF;stroke-width:1.0;"/><polygon fill="#0000FF" points="352.5,1244.329,356.5,1235.329,352.5,1239.329,348.5,1235.329,352.5,1244.329" style="stroke:#0000FF;stroke-width:1.0;"/><rect fill="#FFFFFF" height="240.4883" rx="12.5" ry="12.5" style="stroke:#000000;stroke-width:1.5;" width="205" x="19" y="1354"/><rect fill="#FFFFFF" height="208" rx="12.5" ry="12.5" style="stroke:#FFFFFF;stroke-width:1.0;" width="199" x="22" y="1383.4883"/><line style="stroke:#000000;stroke-width:1.5;" x1="19" x2="224" y1="1380.4883" y2="1380.4883"/><text fill="#000000" font-family="sans-serif" font-size="14" lengthAdjust="spacing" textLength="112" x="65.5" y="1372.5352">stop_server_app</text><rect fill="#FFFFFF" height="40" rx="12.5" ry="12.5" style="stroke:#0000FF;stroke-width:1.5;" width="150" x="48.5" y="1392.4883"/><text fill="#000000" font-family="sans-serif" font-size="14" lengthAdjust="spacing" textLength="140" x="53.5" y="1417.7793">server_app stopping</text><rect fill="#ADD8E6" height="40" rx="12.5" ry="12.5" style="stroke:#0000FF;stroke-width:1.5;" width="185" x="31" y="1468.4883"/><text fill="#000000" font-family="sans-serif" font-size="14" lengthAdjust="spacing" textLength="175" x="36" y="1493.7793">server_app Standard.stop</text><rect fill="#FFFFFF" height="40" rx="12.5" ry="12.5" style="stroke:#0000FF;stroke-width:1.5;" width="145" x="51" y="1544.4883"/><text fill="#000000" font-family="sans-serif" font-size="14" lengthAdjust="spacing" textLength="135" x="56" y="1569.7793">server_app stopped</text><!--MD5=[3258eb6652c9d38052284c00fc31a3f4]
link step_declarative_undeploy_stop_server_app_server_app_stopping to step_declarative_undeploy_stop_server_app_server_app_Standard.stop--><path d="M123.5,1432.8549 C123.5,1442.2155 123.5,1453.4103 123.5,1463.2956 " fill="none" id="step_declarative_undeploy_stop_server_app_server_app_stopping-to-step_declarative_undeploy_stop_server_app_server_app_Standard.stop" style="stroke:#0000FF;stroke-width:1.0;"/><polygon fill="#0000FF" points="123.5,1468.329,127.5,1459.329,123.5,1463.329,119.5,1459.329,123.5,1468.329" style="stroke:#0000FF;stroke-width:1.0;"/><!--MD5=[dfe435bad7ff4433ac6ff4e8281dbba8]
link step_declarative_undeploy_stop_server_app_server_app_Standard.stop to step_declarative_undeploy_stop_server_app_server_app_stopped--><path d="M123.5,1508.8549 C123.5,1518.2155 123.5,1529.4103 123.5,1539.2956 " fill="none" id="step_declarative_undeploy_stop_server_app_server_app_Standard.stop-to-step_declarative_undeploy_stop_server_app_server_app_stopped" style="stroke:#0000FF;stroke-width:1.0;"/><polygon fill="#0000FF" points="123.5,1544.329,127.5,1535.329,123.5,1539.329,119.5,1535.329,123.5,1544.329" style="stroke:#0000FF;stroke-width:1.0;"/><rect fill="#FFFFFF" height="240.4883" rx="12.5" ry="12.5" style="stroke:#000000;stroke-width:1.5;" width="217" x="7" y="1654"/><rect fill="#FFFFFF" height="208" rx="12.5" ry="12.5" style="stroke:#FFFFFF;stroke-width:1.0;" width="211" x="10" y="1683.4883"/><line style="stroke:#000000;stroke-width:1.5;" x1="7" x2="224" y1="1680.4883" y2="1680.4883"/><text fill="#000000" font-family="sans-serif" font-size="14" lengthAdjust="spacing" textLength="124" x="53.5" y="1672.5352">delete_server_app</text><rect fill="#FFFFFF" height="40" rx="12.5" ry="12.5" style="stroke:#0000FF;stroke-width:1.5;" width="145" x="45" y="1692.4883"/><text fill="#000000" font-family="sans-serif" font-size="14" lengthAdjust="spacing" textLength="135" x="50" y="1717.7793">server_app deleting</text><rect fill="#ADD8E6" height="40" rx="12.5" ry="12.5" style="stroke:#0000FF;stroke-width:1.5;" width="197" x="19" y="1768.4883"/><text fill="#000000" font-family="sans-serif" font-size="14" lengthAdjust="spacing" textLength="187" x="24" y="1793.7793">server_app Standard.delete</text><rect fill="#FFFFFF" height="40" rx="12.5" ry="12.5" style="stroke:#0000FF;stroke-width:1.5;" width="127" x="54" y="1844.4883"/><text fill="#000000" font-family="sans-serif" font-size="14" lengthAdjust="spacing" textLength="117" x="59" y="1869.7793">server_app initial</text><!--MD5=[e0581f9028970196d72db269ddaf0f18]
link step_declarative_undeploy_delete_server_app_server_app_deleting to step_declarative_undeploy_delete_server_app_server_app_Standard.delete--><path d="M117.5,1732.8549 C117.5,1742.2155 117.5,1753.4103 117.5,1763.2956 " fill="none" id="step_declarative_undeploy_delete_server_app_server_app_deleting-to-step_declarative_undeploy_delete_server_app_server_app_Standard.delete" style="stroke:#0000FF;stroke-width:1.0;"/><polygon fill="#0000FF" points="117.5,1768.329,121.5,1759.329,117.5,1763.329,113.5,1759.329,117.5,1768.329" style="stroke:#0000FF;stroke-width:1.0;"/><!--MD5=[ba61f05189e18493c98b090d87498398]
link step_declarative_undeploy_delete_server_app_server_app_Standard.delete to step_declarative_undeploy_delete_server_app_server_app_initial--><path d="M117.5,1808.8549 C117.5,1818.2155 117.5,1829.4103 117.5,1839.2956 " fill="none" id="step_declarative_undeploy_delete_server_app_server_app_Standard.delete-to-step_declarative_undeploy_delete_server_app_server_app_initial" style="stroke:#0000FF;stroke-width:1.0;"/><polygon fill="#0000FF" points="117.5,1844.329,121.5,1835.329,117.5,1839.329,113.5,1835.329,117.5,1844.329" style="stroke:#0000FF;stroke-width:1.0;"/><rect fill="#FFFFFF" height="240.4883" rx="12.5" ry="12.5" style="stroke:#000000;stroke-width:1.5;" width="197" x="262" y="1354"/><rect fill="#FFFFFF" height="208" rx="12.5" ry="12.5" style="stroke:#FFFFFF;stroke-width:1.0;" width="191" x="265" y="1383.4883"/><line style="stroke:#000000;stroke-width:1.5;" x1="262" x2="459" y1="1380.4883" y2="1380.4883"/><text fill="#000000" font-family="sans-serif" font-size="14" lengthAdjust="spacing" textLength="104" x="308.5" y="1372.5352">stop_server_db</text><rect fill="#FFFFFF" height="40" rx="12.5" ry="12.5" style="stroke:#0000FF;stroke-width:1.5;" width="142" x="291.5" y="1392.4883"/><text fill="#000000" font-family="sans-serif" font-size="14" lengthAdjust="spacing" textLength="132" x="296.5" y="1417.7793">server_db stopping</text><rect fill="#ADD8E6" height="40" rx="12.5" ry="12.5" style="stroke:#0000FF;stroke-width:1.5;" width="177" x="274" y="1468.4883"/><text fill="#000000" font-family="sans-serif" font-size="14" lengthAdjust="spacing" textLength="167" x="279" y="1493.7793">server_db Standard.stop</text><rect fill="#FFFFFF" height="40" rx="12.5" ry="12.5" style="stroke:#0000FF;stroke-width:1.5;" width="137" x="294" y="1544.4883"/><text fill="#000000" font-family="sans-serif" font-size="14" lengthAdjust="spacing" textLength="127" x="299" y="1569.7793">server_db stopped</text><!--MD5=[cc738e9c316ff9e7fdcd15dcea486105]
link step_declarative_undeploy_stop_server_db_server_db_stopping to step_declarative_undeploy_stop_server_db_server_db_Standard.stop--><path d="M362.5,1432.8549 C362.5,1442.2155 362.5,1453.4103 362.5,1463.2956 " fill="none" id="step_declarative_undeploy_stop_server_db_server_db_stopping-to-step_declarative_undeploy_stop_server_db_server_db_Standard.stop" style="stroke:#0000FF;stroke-width:1.0;"/><polygon fill="#0000FF" points="362.5,1468.329,366.5,1459.329,362.5,1463.329,358.5,1459.329,362.5,1468.329" style="stroke:#0000FF;stroke-width:1.0;"/><!--MD5=[7f9ac8b3c2a16cddeeb7bc4afb57762e]
link step_declarative_undeploy_stop_server_db_server_db_Standard.stop to step_declarative_undeploy_stop_server_db_server_db_stopped--><path d="M362.5,1508.8549 C362.5,1518.2155 362.5,1529.4103 362.5,1539.2956 " fill="none" id="step_declarative_undeploy_stop_server_db_server_db_Standard.stop-to-step_declarative_undeploy_stop_server_db_server_db_stopped" style="stroke:#0000FF;stroke-width:1.0;"/><polygon fill="#0000FF" points="362.5,1544.329,366.5,1535.329,362.5,1539.329,358.5,1535.329,362.5,1544.329" style="stroke:#0000FF;stroke-width:1.0;"/><rect fill="#FFFFFF" height="240.4883" rx="12.5" ry="12.5" style="stroke:#000000;stroke-width:1.5;" width="209" x="259" y="1654"/><rect fill="#FFFFFF" height="208" rx="12.5" ry="12.5" style="stroke:#FFFFFF;stroke-width:1.0;" width="203" x="262" y="1683.4883"/><line style="stroke:#000000;stroke-width:1.5;" x1="259" x2="468" y1="1680.4883" y2="1680.4883"/><text fill="#000000" font-family="sans-serif" font-size="14" lengthAdjust="spacing" textLength="116" x="305.5" y="1672.5352">delete_server_db</text><rect fill="#FFFFFF" height="40" rx="12.5" ry="12.5" style="stroke:#0000FF;stroke-width:1.5;" width="137" x="297" y="1692.4883"/><text fill="#000000" font-family="sans-serif" font-size="14" lengthAdjust="spacing" textLength="127" x="302" y="1717.7793">server_db deleting</text><rect fill="#ADD8E6" height="40" rx="12.5" ry="12.5" style="stroke:#0000FF;stroke-width:1.5;" width="189" x="271" y="1768.4883"/><text fill="#000000" font-family="sans-serif" font-size="14" lengthAdjust="spacing" textLength="179" x="276" y="1793.7793">server_db Standard.delete</text><rect fill="#FFFFFF" height="40" rx="12.5" ry="12.5" style="stroke:#0000FF;stroke-width:1.5;" width="119" x="306" y="1844.4883"/><text fill="#000000" font-family="sans-serif" font-size="14" lengthAdjust="spacing" textLength="109" x="311" y="1869.7793">server_db initial</text><!--MD5=[baa6c1ca512e2b8dc45985b668e7ead0]
link step_declarative_undeploy_delete_server_db_server_db_deleting to step_declarative_undeploy_delete_server_db_server_db_Standard.delete--><path d="M365.5,1732.8549 C365.5,1742.2155 365.5,1753.4103 365.5,1763.2956 " fill="none" id="step_declarative_undeploy_delete_server_db_server_db_deleting-to-step_declarative_undeploy_delete_server_db_server_db_Standard.delete" style="stroke:#0000FF;stroke-width:1.0;"/><polygon fill="#0000FF" points="365.5,1768.329,369.5,1759.329,365.5,1763.329,361.5,1759.329,365.5,1768.329" style="stroke:#0000FF;stroke-width:1.0;"/><!--MD5=[318bd9b1902fbbcfe0f948c5f81d182a]
link step_declarative_undeploy_delete_server_db_server_db_Standard.delete to step_declarative_undeploy_delete_server_db_server_db_initial--><path d="M365.5,1808.8549 C365.5,1818.2155 365.5,1829.4103 365.5,1839.2956 " fill="none" id="step_declarative_undeploy_delete_server_db_server_db_Standard.delete-to-step_declarative_undeploy_delete_server_db_server_db_initial" style="stroke:#0000FF;stroke-width:1.0;"/><polygon fill="#0000FF" points="365.5,1844.329,369.5,1835.329,365.5,1839.329,361.5,1835.329,365.5,1844.329" style="stroke:#0000FF;stroke-width:1.0;"/><!--MD5=[4fb955322be1a3debb7b0d4a9e65a775]
link step_declarative_undeploy_stop_app to step_declarative_undeploy_delete_app--><path d="M239.5,326.2929 C239.5,344.1733 239.5,362.6404 239.5,380.6221 " fill="none" id="step_declarative_undeploy_stop_app-to-step_declarative_undeploy_delete_app" style="stroke:#0000FF;stroke-width:1.0;"/><polygon fill="#0000FF" points="239.5,385.6801,243.5,376.6801,239.5,380.6801,235.5,376.6801,239.5,385.6801" style="stroke:#0000FF;stroke-width:1.0;"/><!--MD5=[78505e3e446c37c0072598b44a4d03c4]
link step_declarative_undeploy_delete_app to step_declarative_undeploy_delete_app_fork--><path d="M239.5,626.1621 C239.5,649.157 239.5,669.5541 239.5,680.8003 " fill="none" id="step_declarative_undeploy_delete_app-to-step_declarative_undeploy_delete_app_fork" style="stroke:#0000FF;stroke-width:1.0;"/><polygon fill="#0000FF" points="239.5,685.8126,243.5,676.8126,239.5,680.8126,235.5,676.8126,239.5,685.8126" style="stroke:#0000FF;stroke-width:1.0;"/><!--MD5=[81418f1c2c75285f7f8477a87d49bc4e]
link step_declarative_undeploy_delete_app_fork to step_declarative_undeploy_stop_node--><path d="M237.3145,694.1888 C232.7954,702.8505 221.7516,724.0177 208.7621,748.9142 " fill="none" id="step_declarative_undeploy_delete_app_fork-to-step_declarative_undeploy_stop_node" style="stroke:#0000FF;stroke-width:1.0;"/><polygon fill="#0000FF" points="206.3152,753.6042,214.0249,747.4755,208.6282,749.1714,206.9323,743.7747,206.3152,753.6042" style="stroke:#0000FF;stroke-width:1.0;"/><!--MD5=[dc11e54379df88a33a5a7f1b08900009]
link step_declarative_undeploy_delete_app_fork to step_declarative_undeploy_stop_db--><path d="M241.8448,694.1888 C246.7136,702.8865 258.641,724.1936 272.6527,749.2243 " fill="none" id="step_declarative_undeploy_delete_app_fork-to-step_declarative_undeploy_stop_db" style="stroke:#0000FF;stroke-width:1.0;"/><polygon fill="#0000FF" points="275.1045,753.6042,274.1986,743.7971,272.6621,749.2413,267.2179,747.7049,275.1045,753.6042" style="stroke:#0000FF;stroke-width:1.0;"/><!--MD5=[4353f4f7a9f22b9ef0436c1a35153a65]
link step_declarative_undeploy_stop_node to step_declarative_undeploy_delete_node--><path d="M141.0941,994.2929 C140.7365,1012.1733 140.3672,1030.6404 140.0076,1048.6221 " fill="none" id="step_declarative_undeploy_stop_node-to-step_declarative_undeploy_delete_node" style="stroke:#0000FF;stroke-width:1.0;"/><polygon fill="#0000FF" points="139.9064,1053.6801,144.0859,1044.762,140.0065,1048.6811,136.0875,1044.6018,139.9064,1053.6801" style="stroke:#0000FF;stroke-width:1.0;"/><!--MD5=[77461010deb694fdb9ddc76dddf9ba15]
link step_declarative_undeploy_delete_node to step_declarative_undeploy_stop_server_app--><path d="M131.0844,1294.2929 C130.1308,1312.1733 129.1458,1330.6404 128.1868,1348.6221 " fill="none" id="step_declarative_undeploy_delete_node-to-step_declarative_undeploy_stop_server_app" style="stroke:#0000FF;stroke-width:1.0;"/><polygon fill="#0000FF" points="127.9171,1353.6801,132.391,1344.906,128.1835,1348.6872,124.4023,1344.4797,127.9171,1353.6801" style="stroke:#0000FF;stroke-width:1.0;"/><!--MD5=[27ddbf5c6828c664542439f273e5bd7a]
link step_declarative_undeploy_stop_db to step_declarative_undeploy_delete_db--><path d="M345.7078,994.2929 C346.1846,1012.1733 346.6771,1030.6404 347.1566,1048.6221 " fill="none" id="step_declarative_undeploy_stop_db-to-step_declarative_undeploy_delete_db" style="stroke:#0000FF;stroke-width:1.0;"/><polygon fill="#0000FF" points="347.2915,1053.6801,351.0499,1044.5766,347.1581,1048.6819,343.0528,1044.79,347.2915,1053.6801" style="stroke:#0000FF;stroke-width:1.0;"/><!--MD5=[200f47d018ce0ab5c481d1fd9397dc01]
link step_declarative_undeploy_delete_db to step_declarative_undeploy_stop_server_db--><path d="M354.5098,1294.2929 C355.1058,1312.1733 355.7213,1330.6404 356.3207,1348.6221 " fill="none" id="step_declarative_undeploy_delete_db-to-step_declarative_undeploy_stop_server_db" style="stroke:#0000FF;stroke-width:1.0;"/><polygon fill="#0000FF" points="356.4893,1353.6801,360.1873,1344.5518,356.3227,1348.6829,352.1917,1344.8184,356.4893,1353.6801" style="stroke:#0000FF;stroke-width:1.0;"/><!--MD5=[e4d2778f770babb9f8bb1d2bc1faa2c4]
link step_declarative_undeploy_stop_server_app to step_declarative_undeploy_delete_server_app--><path d="M119.0941,1594.2929 C118.7365,1612.1733 118.3672,1630.6404 118.0076,1648.6221 " fill="none" id="step_declarative_undeploy_stop_server_app-to-step_declarative_undeploy_delete_server_app" style="stroke:#0000FF;stroke-width:1.0;"/><polygon fill="#0000FF" points="117.9064,1653.6801,122.0859,1644.762,118.0065,1648.6811,114.0875,1644.6018,117.9064,1653.6801" style="stroke:#0000FF;stroke-width:1.0;"/><!--MD5=[8f46ddc91376d61b95e03a2763948487]
link step_declarative_undeploy_stop_server_db to step_declarative_undeploy_delete_server_db--><path d="M361.7029,1594.2929 C361.8817,1612.1733 362.0664,1630.6404 362.2462,1648.6221 " fill="none" id="step_declarative_undeploy_stop_server_db-to-step_declarative_undeploy_delete_server_db" style="stroke:#0000FF;stroke-width:1.0;"/><polygon fill="#0000FF" points="362.2968,1653.6801,366.2063,1644.6404,362.2467,1648.6804,358.2067,1644.7207,362.2968,1653.6801" style="stroke:#0000FF;stroke-width:1.0;"/><!--MD5=[5b631d820ffc6a27920dd89c743eb194]
link *start to step_declarative_undeploy_stop_app--><path d="M239.5,26.2152 C239.5,37.7525 239.5,57.9094 239.5,80.6599 " fill="none" id="*start-to-step_declarative_undeploy_stop_app" style="stroke:#0000FF;stroke-width:1.0;"/><polygon fill="#0000FF" points="239.5,85.8637,243.5,76.8637,239.5,80.8637,235.5,76.8637,239.5,85.8637" style="stroke:#0000FF;stroke-width:1.0;"/><!--MD5=[d304f95394e26b0967c056ac947717c1]
link declarative_undeploy_join to *end--><path d="M239.5,1962.4074 C239.5,1972.8066 239.5,1999.2833 239.5,2016.4165 " fill="none" id="declarative_undeploy_join-to-*end" style="stroke:#0000FF;stroke-width:1.0;"/><polygon fill="#0000FF" points="239.5,2021.8319,243.5,2012.8319,239.5,2016.8319,235.5,2012.8319,239.5,2021.8319" style="stroke:#0000FF;stroke-width:1.0;"/><!--MD5=[d2f8eaaf920ee7b2e22555cafb1d8d3e]
link step_declarative_undeploy_delete_server_app to declarative_undeploy_join--><path d="M196.4788,1894.1621 C212.2597,1917.5789 226.2251,1938.3017 233.7112,1949.4101 " fill="none" id="step_declarative_undeploy_delete_server_app-to-declarative_undeploy_join" style="stroke:#0000FF;stroke-width:1.0;"/><polygon fill="#0000FF" points="236.678,1953.8126,234.9653,1944.1138,233.8837,1949.6663,228.3312,1948.5847,236.678,1953.8126" style="stroke:#0000FF;stroke-width:1.0;"/><!--MD5=[c501be43bd6bc4c93ee432b730885c3f]
link step_declarative_undeploy_delete_server_db to declarative_undeploy_join--><path d="M282.5212,1894.1621 C266.7403,1917.5789 252.7749,1938.3017 245.2888,1949.4101 " fill="none" id="step_declarative_undeploy_delete_server_db-to-declarative_undeploy_join" style="stroke:#0000FF;stroke-width:1.0;"/><polygon fill="#0000FF" points="242.322,1953.8126,250.6688,1948.5847,245.1163,1949.6663,244.0347,1944.1138,242.322,1953.8126" style="stroke:#0000FF;stroke-width:1.0;"/><!--MD5=[76095188c9ba8755a5d8787038bcfd18]
@startuml
hide empty description
skinparam shadowing false
skinparam state {
  ArrowColor blue
  BorderColor blue
  EndColor black
  StartColor green
  BackGroundColor<< step >> white
  BorderColor<< step >> black
  BackGroundColor<< delegate >> lightgrey
  BackGroundColor<< set_state >> white
  BackGroundColor<< call_operation >> lightblue
  BackGroundColor<< inline >> white
}
skinparam ActivityBarColor<<fork>> DarkGreen
skinparam ActivityBarColor<<join>> DarkOrange

state "stop_app" as step_declarative_undeploy_stop_app << step >> {
  state "app stopping" as step_declarative_undeploy_stop_app_app_stopping << set_state >>
  state "app Standard.stop" as step_declarative_undeploy_stop_app_app_Standard.stop << call_operation >>
  state "app stopped" as step_declarative_undeploy_stop_app_app_stopped << set_state >>
  step_declarative_undeploy_stop_app_app_stopping - -> step_declarative_undeploy_stop_app_app_Standard.stop
  step_declarative_undeploy_stop_app_app_Standard.stop - -> step_declarative_undeploy_stop_app_app_stopped
}
state "delete_app" as step_declarative_undeploy_delete_app << step >> {
  state "app deleting" as step_declarative_undeploy_delete_app_app_deleting << set_state >>
  state "app Standard.delete" as step_declarative_undeploy_delete_app_app_Standard.delete << call_operation >>
  state "app initial" as step_declarative_undeploy_delete_app_app_initial << set_state >>
  step_declarative_undeploy_delete_app_app_deleting - -> step_declarative_undeploy_delete_app_app_Standard.delete
  step_declarative_undeploy_delete_app_app_Standard.delete - -> step_declarative_undeploy_delete_app_app_initial
}
state "stop_node" as step_declarative_undeploy_stop_node << step >> {
  state "node stopping" as step_declarative_undeploy_stop_node_node_stopping << set_state >>
  state "node Standard.stop" as step_declarative_undeploy_stop_node_node_Standard.stop << call_operation >>
  state "node stopped" as step_declarative_undeploy_stop_node_node_stopped << set_state >>
  step_declarative_undeploy_stop_node_node_stopping - -> step_declarative_undeploy_stop_node_node_Standard.stop
  step_declarative_undeploy_stop_node_node_Standard.stop - -> step_declarative_undeploy_stop_node_node_stopped
}
state "delete_node" as step_declarative_undeploy_delete_node << step >> {
  state "node deleting" as step_declarative_undeploy_delete_node_node_deleting << set_state >>
  state "node Standard.delete" as step_declarative_undeploy_delete_node_node_Standard.delete << call_operation >>
  state "node initial" as step_declarative_undeploy_delete_node_node_initial << set_state >>
  step_declarative_undeploy_delete_node_node_deleting - -> step_declarative_undeploy_delete_node_node_Standard.delete
  step_declarative_undeploy_delete_node_node_Standard.delete - -> step_declarative_undeploy_delete_node_node_initial
}
state "stop_db" as step_declarative_undeploy_stop_db << step >> {
  state "db stopping" as step_declarative_undeploy_stop_db_db_stopping << set_state >>
  state "db Standard.stop" as step_declarative_undeploy_stop_db_db_Standard.stop << call_operation >>
  state "db stopped" as step_declarative_undeploy_stop_db_db_stopped << set_state >>
  step_declarative_undeploy_stop_db_db_stopping - -> step_declarative_undeploy_stop_db_db_Standard.stop
  step_declarative_undeploy_stop_db_db_Standard.stop - -> step_declarative_undeploy_stop_db_db_stopped
}
state "delete_db" as step_declarative_undeploy_delete_db << step >> {
  state "db deleting" as step_declarative_undeploy_delete_db_db_deleting << set_state >>
  state "db Standard.delete" as step_declarative_undeploy_delete_db_db_Standard.delete << call_operation >>
  state "db initial" as step_declarative_undeploy_delete_db_db_initial << set_state >>
  step_declarative_undeploy_delete_db_db_deleting - -> step_declarative_undeploy_delete_db_db_Standard.delete
  step_declarative_undeploy_delete_db_db_Standard.delete - -> step_declarative_undeploy_delete_db_db_initial
}
state "stop_server_app" as step_declarative_undeploy_stop_server_app << step >> {
  state "server_app stopping" as step_declarative_undeploy_stop_server_app_server_app_stopping << set_state >>
  state "server_app Standard.stop" as step_declarative_undeploy_stop_server_app_server_app_Standard.stop << call_operation >>
  state "server_app stopped" as step_declarative_undeploy_stop_server_app_server_app_stopped << set_state >>
  step_declarative_undeploy_stop_server_app_server_app_stopping - -> step_declarative_undeploy_stop_server_app_server_app_Standard.stop
  step_declarative_undeploy_stop_server_app_server_app_Standard.stop - -> step_declarative_undeploy_stop_server_app_server_app_stopped
}
state "delete_server_app" as step_declarative_undeploy_delete_server_app << step >> {
  state "server_app deleting" as step_declarative_undeploy_delete_server_app_server_app_deleting << set_state >>
  state "server_app Standard.delete" as step_declarative_undeploy_delete_server_app_server_app_Standard.delete << call_operation >>
  state "server_app initial" as step_declarative_undeploy_delete_server_app_server_app_initial << set_state >>
  step_declarative_undeploy_delete_server_app_server_app_deleting - -> step_declarative_undeploy_delete_server_app_server_app_Standard.delete
  step_declarative_undeploy_delete_server_app_server_app_Standard.delete - -> step_declarative_undeploy_delete_server_app_server_app_initial
}
state "stop_server_db" as step_declarative_undeploy_stop_server_db << step >> {
  state "server_db stopping" as step_declarative_undeploy_stop_server_db_server_db_stopping << set_state >>
  state "server_db Standard.stop" as step_declarative_undeploy_stop_server_db_server_db_Standard.stop << call_operation >>
  state "server_db stopped" as step_declarative_undeploy_stop_server_db_server_db_stopped << set_state >>
  step_declarative_undeploy_stop_server_db_server_db_stopping - -> step_declarative_undeploy_stop_server_db_server_db_Standard.stop
  step_declarative_undeploy_stop_server_db_server_db_Standard.stop - -> step_declarative_undeploy_stop_server_db_server_db_stopped
}
state "delete_server_db" as step_declarative_undeploy_delete_server_db << step >> {
  state "server_db deleting" as step_declarative_undeploy_delete_server_db_server_db_deleting << set_state >>
  state "server_db Standard.delete" as step_declarative_undeploy_delete_server_db_server_db_Standard.delete << call_operation >>
  state "server_db initial" as step_declarative_undeploy_delete_server_db_server_db_initial << set_state >>
  step_declarative_undeploy_delete_server_db_server_db_deleting - -> step_declarative_undeploy_delete_server_db_server_db_Standard.delete
  step_declarative_undeploy_delete_server_db_server_db_Standard.delete - -> step_declarative_undeploy_delete_server_db_server_db_initial
}
step_declarative_undeploy_stop_app - -> step_declarative_undeploy_delete_app
state step_declarative_undeploy_delete_app_fork <<fork>>
step_declarative_undeploy_delete_app - -> step_declarative_undeploy_delete_app_fork
step_declarative_undeploy_delete_app_fork - -> step_declarative_undeploy_stop_node
step_declarative_undeploy_delete_app_fork - -> step_declarative_undeploy_stop_db
step_declarative_undeploy_stop_node - -> step_declarative_undeploy_delete_node
step_declarative_undeploy_delete_node - -> step_declarative_undeploy_stop_server_app
step_declarative_undeploy_stop_db - -> step_declarative_undeploy_delete_db
step_declarative_undeploy_delete_db - -> step_declarative_undeploy_stop_server_db
step_declarative_undeploy_stop_server_app - -> step_declarative_undeploy_delete_server_app
step_declarative_undeploy_stop_server_db - -> step_declarative_undeploy_delete_server_db
[*] - -> step_declarative_undeploy_stop_app
state declarative_undeploy_join <<join>>
declarative_undeploy_join - -> [*]
step_declarative_undeploy_delete_server_app - -> declarative_undeploy_join
step_declarative_undeploy_delete_server_db - -> declarative_undeploy_join
@enduml

PlantUML version 1.2021.13(Mon Nov 01 12:38:45 CET 2021)
(GPL source distribution)
Java Runtime: Java(TM) SE Runtime Environment
JVM: Java HotSpot(TM) 64-Bit Server VM
Default Encoding: UTF-8
Language: fr
Country: FR
--></g></svg>