<?xml version="1.0" encoding="UTF-8" standalone="no"?><svg xmlns="http://www.w3.org/2000/svg" xmlns:xlink="http://www.w3.org/1999/xlink" contentScriptType="application/ecmascript" contentStyleType="text/css" height="2048px" preserveAspectRatio="none" style="width:390px;height:2048px;background:#FFFFFF;" version="1.1" viewBox="0 0 390 2048" width="390px" zoomAndPan="magnify"><defs/><g><rect fill="#006400" height="8" style="stroke:none;stroke-width:1.0;" width="80" x="153" y="686"/><ellipse cx="193" cy="16" fill="#008000" rx="10" ry="10" style="stroke:none;stroke-width:1.0;"/><rect fill="#FF8C00" height="8" style="stroke:none;stroke-width:1.0;" width="80" x="150" y="1954"/><ellipse cx="190" cy="2032" rx="10" ry="10" style="stroke:#000000;stroke-width:1.0;fill:none;"/><ellipse cx="190.5" cy="2032.5" fill="#000000" rx="6" ry="6" style="stroke:none;stroke-width:1.0;"/><rect fill="#FFFFFF" height="240.4883" rx="12.5" ry="12.5" style="stroke:#000000;stroke-width:1.5;" width="156" x="115" y="86"/><rect fill="#FFFFFF" height="208" rx="12.5" ry="12.5" style="stroke:#FFFFFF;stroke-width:1.0;" width="150" x="118" y="115.4883"/><line style="stroke:#000000;stroke-width:1.5;" x1="115" x2="271" y1="112.4883" y2="112.4883"/><text fill="#000000" font-family="sans-serif" font-size="14" lengthAdjust="spacing" textLength="63" x="161.5" y="104.5352">stop_app</text><rect fill="#FFFFFF" height="40" rx="12.5" ry="12.5" style="stroke:#0000FF;stroke-width:1.5;" width="101" x="144.5" y="124.4883"/><text fill="#000000" font-family="sans-serif" font-size="14" lengthAdjust="spacing" textLength="91" x="149.5" y="149.7793">app stopping</text><rect fill="#ADD8E6" height="40" rx="12.5" ry="12.5" style="stroke:#0000FF;stroke-width:1.5;" width="136" x="127" y="200.4883"/><text fill="#000000" font-family="sans-serif" font-size="14" lengthAdjust="spacing" textLength="126" x="132" y="225.7793">app Standard.stop</text><rect fill="#FFFFFF" height="40" rx="12.5" ry="12.5" style="stroke:#0000FF;stroke-width:1.5;" width="96" x="147" y="276.4883"/><text fill="#000000" font-family="sans-serif" font-size="14" lengthAdjust="spacing" textLength="86" x="152" y="301.7793">app stopped</text><!--MD5=[e7d2e2d387577229ca924dcab0b7bd0a]
link step_declarative_undeploy_stop_app_app_stopping to step_declarative_undeploy_stop_app_app_Standard.stop--><path d="M195,164.8549 C195,174.2155 195,185.4103 195,195.2956 " fill="none" id="step_declarative_undeploy_stop_app_app_stopping-to-step_declarative_undeploy_stop_app_app_Standard.stop" style="stroke:#0000FF;stroke-width:1.0;"/><polygon fill="#0000FF" points="195,200.329,199,191.329,195,195.329,191,191.329,195,200.329" style="stroke:#0000FF;stroke-width:1.0;"/><!--MD5=[a32564f98011dcec407319c2dea3ca70]
link step_declarative_undeploy_stop_app_app_Standard.stop to step_declarative_undeploy_stop_app_app_stopped--><path d="M195,240.8549 C195,250.2155 195,261.4103 195,271.2956 " fill="none" id="step_declarative_undeploy_stop_app_app_Standard.stop-to-step_declarative_undeploy_stop_app_app_stopped" style="stroke:#0000FF;stroke-width:1.0;"/><polygon fill="#0000FF" points="195,276.329,199,267.329,195,271.329,191,267.329,195,276.329" style="stroke:#0000FF;stroke-width:1.0;"/><rect fill="#FFFFFF" height="240.4883" rx="12.5" ry="12.5" style="stroke:#000000;stroke-width:1.5;" width="168" x="109" y="386"/><rect fill="#FFFFFF" height="208" rx="12.5" ry="12.5" style="stroke:#FFFFFF;stroke-width:1.0;" width="162" x="112" y="415.4883"/><line style="stroke:#000000;stroke-width:1.5;" x1="109" x2="277" y1="412.4883" y2="412.4883"/><text fill="#000000" font-family="sans-serif" font-size="14" lengthAdjust="spacing" textLength="75" x="155.5" y="404.5352">delete_app</text><rect fill="#FFFFFF" height="40" rx="12.5" ry="12.5" style="stroke:#0000FF;stroke-width:1.5;" width="96" x="147" y="424.4883"/><text fill="#000000" font-family="sans-serif" font-size="14" lengthAdjust="spacing" textLength="86" x="152" y="449.7793">app deleting</text><rect fill="#ADD8E6" height="40" rx="12.5" ry="12.5" style="stroke:#0000FF;stroke-width:1.5;" width="148" x="121" y="500.4883"/><text fill="#000000" font-family="sans-serif" font-size="14" lengthAdjust="spacing" textLength="138" x="126" y="525.7793">app Standard.delete</text><rect fill="#FFFFFF" height="40" rx="12.5" ry="12.5" style="stroke:#0000FF;stroke-width:1.5;" width="78" x="156" y="576.4883"/><text fill="#000000" font-family="sans-serif" font-size="14" lengthAdjust="spacing" textLength="68" x="161" y="601.7793">app initial</text><!--MD5=[2bc473b343e4c7c612493c08a0821a1b]
link step_declarative_undeploy_delete_app_app_deleting to step_declarative_undeploy_delete_app_app_Standard.delete--><path d="M195,464.8549 C195,474.2155 195,485.4103 195,495.2956 " fill="none" id="step_declarative_undeploy_delete_app_app_deleting-to-step_declarative_undeploy_delete_app_app_Standard.delete" style="stroke:#0000FF;stroke-width:1.0;"/><polygon fill="#0000FF" points="195,500.329,199,491.329,195,495.329,191,491.329,195,500.329" style="stroke:#0000FF;stroke-width:1.0;"/><!--MD5=[9ba2ef49cfa60c7796f62738eaac6378]
link step_declarative_undeploy_delete_app_app_Standard.delete to step_declarative_undeploy_delete_app_app_initial--><path d="M195,540.8549 C195,550.2155 195,561.4103 195,571.2956 " fill="none" id="step_declarative_undeploy_delete_app_app_Standard.delete-to-step_declarative_undeploy_delete_app_app_initial" style="stroke:#0000FF;stroke-width:1.0;"/><polygon fill="#0000FF" points="195,576.329,199,567.329,195,571.329,191,567.329,195,576.329" style="stroke:#0000FF;stroke-width:1.0;"/><rect fill="#FFFFFF" height="240.4883" rx="12.5" ry="12.5" style="stroke:#000000;stroke-width:1.5;" width="148" x="23" y="754"/><rect fill="#FFFFFF" height="208" rx="12.5" ry="12.5" style="stroke:#FFFFFF;stroke-width:1.0;" width="142" x="26" y="783.4883"/><line style="stroke:#000000;stroke-width:1.5;" x1="23" x2="171" y1="780.4883" y2="780.4883"/><text fill="#000000" font-family="sans-serif" font-size="14" lengthAdjust="spacing" textLength="55" x="69.5" y="772.5352">stop_db</text><rect fill="#FFFFFF" height="40" rx="12.5" ry="12.5" style="stroke:#0000FF;stroke-width:1.5;" width="93" x="52.5" y="792.4883"/><text fill="#000000" font-family="sans-serif" font-size="14" lengthAdjust="spacing" textLength="83" x="57.5" y="817.7793">db stopping</text><rect fill="#ADD8E6" height="40" rx="12.5" ry="12.5" style="stroke:#0000FF;stroke-width:1.5;" width="128" x="35" y="868.4883"/><text fill="#000000" font-family="sans-serif" font-size="14" lengthAdjust="spacing" textLength="118" x="40" y="893.7793">db Standard.stop</text><rect fill="#FFFFFF" height="40" rx="12.5" ry="12.5" style="stroke:#0000FF;stroke-width:1.5;" width="88" x="55" y="944.4883"/><text fill="#000000" font-family="sans-serif" font-size="14" lengthAdjust="spacing" textLength="78" x="60" y="969.7793">db stopped</text><!--MD5=[1c10a9c0fc3988f01b13c73840c030b9]
link step_declarative_undeploy_stop_db_db_stopping to step_declarative_undeploy_stop_db_db_Standard.stop--><path d="M99,832.8549 C99,842.2155 99,853.4103 99,863.2956 " fill="none" id="step_declarative_undeploy_stop_db_db_stopping-to-step_declarative_undeploy_stop_db_db_Standard.stop" style="stroke:#0000FF;stroke-width:1.0;"/><polygon fill="#0000FF" points="99,868.329,103,859.329,99,863.329,95,859.329,99,868.329" style="stroke:#0000FF;stroke-width:1.0;"/><!--MD5=[6bc2aea57c677b7442572969cfb6602c]
link step_declarative_undeploy_stop_db_db_Standard.stop to step_declarative_undeploy_stop_db_db_stopped--><path d="M99,908.8549 C99,918.2155 99,929.4103 99,939.2956 " fill="none" id="step_declarative_undeploy_stop_db_db_Standard.stop-to-step_declarative_undeploy_stop_db_db_stopped" style="stroke:#0000FF;stroke-width:1.0;"/><polygon fill="#0000FF" points="99,944.329,103,935.329,99,939.329,95,935.329,99,944.329" style="stroke:#0000FF;stroke-width:1.0;"/><rect fill="#FFFFFF" height="240.4883" rx="12.5" ry="12.5" style="stroke:#000000;stroke-width:1.5;" width="160" x="7" y="1354"/><rect fill="#FFFFFF" height="208" rx="12.5" ry="12.5" style="stroke:#FFFFFF;stroke-width:1.0;" width="154" x="10" y="1383.4883"/><line style="stroke:#000000;stroke-width:1.5;" x1="7" x2="167" y1="1380.4883" y2="1380.4883"/><text fill="#000000" font-family="sans-serif" font-size="14" lengthAdjust="spacing" textLength="67" x="53.5" y="1372.5352">delete_db</text><rect fill="#FFFFFF" height="40" rx="12.5" ry="12.5" style="stroke:#0000FF;stroke-width:1.5;" width="88" x="45" y="1392.4883"/><text fill="#000000" font-family="sans-serif" font-size="14" lengthAdjust="spacing" textLength="78" x="50" y="1417.7793">db deleting</text><rect fill="#ADD8E6" height="40" rx="12.5" ry="12.5" style="stroke:#0000FF;stroke-width:1.5;" width="140" x="19" y="1468.4883"/><text fill="#000000" font-family="sans-serif" font-size="14" lengthAdjust="spacing" textLength="130" x="24" y="1493.7793">db Standard.delete</text><rect fill="#FFFFFF" height="40" rx="12.5" ry="12.5" style="stroke:#0000FF;stroke-width:1.5;" width="70" x="54" y="1544.4883"/><text fill="#000000" font-family="sans-serif" font-size="14" lengthAdjust="spacing" textLength="60" x="59" y="1569.7793">db initial</text><!--MD5=[efdc3bb8f530c21c9c678fab76402752]
link step_declarative_undeploy_delete_db_db_deleting to step_declarative_undeploy_delete_db_db_Standard.delete--><path d="M89,1432.8549 C89,1442.2155 89,1453.4103 89,1463.2956 " fill="none" id="step_declarative_undeploy_delete_db_db_deleting-to-step_declarative_undeploy_delete_db_db_Standard.delete" style="stroke:#0000FF;stroke-width:1.0;"/><polygon fill="#0000FF" points="89,1468.329,93,1459.329,89,1463.329,85,1459.329,89,1468.329" style="stroke:#0000FF;stroke-width:1.0;"/><!--MD5=[f8da6a2534c7685605fc4b536189adff]
link step_declarative_undeploy_delete_db_db_Standard.delete to step_declarative_undeploy_delete_db_db_initial--><path d="M89,1508.8549 C89,1518.2155 89,1529.4103 89,1539.2956 " fill="none" id="step_declarative_undeploy_delete_db_db_Standard.delete-to-step_declarative_undeploy_delete_db_db_initial" style="stroke:#0000FF;stroke-width:1.0;"/><polygon fill="#0000FF" points="89,1544.329,93,1535.329,89,1539.329,85,1535.329,89,1544.329" style="stroke:#0000FF;stroke-width:1.0;"/><rect fill="#FFFFFF" height="240.4883" rx="12.5" ry="12.5" style="stroke:#000000;stroke-width:1.5;" width="165" x="208.5" y="754"/><rect fill="#FFFFFF" height="208" rx="12.5" ry="12.5" style="stroke:#FFFFFF;stroke-width:1.0;" width="159" x="211.5" y="783.4883"/><line style="stroke:#000000;stroke-width:1.5;" x1="208.5" x2="373.5" y1="780.4883" y2="780.4883"/><text fill="#000000" font-family="sans-serif" font-size="14" lengthAdjust="spacing" textLength="72" x="255" y="772.5352">stop_node</text><rect fill="#FFFFFF" height="40" rx="12.5" ry="12.5" style="stroke:#0000FF;stroke-width:1.5;" width="110" x="238" y="792.4883"/><text fill="#000000" font-family="sans-serif" font-size="14" lengthAdjust="spacing" textLength="100" x="243" y="817.7793">node stopping</text><rect fill="#ADD8E6" height="40" rx="12.5" ry="12.5" style="stroke:#0000FF;stroke-width:1.5;" width="145" x="220.5" y="868.4883"/><text fill="#000000" font-family="sans-serif" font-size="14" lengthAdjust="spacing" textLength="135" x="225.5" y="893.7793">node Standard.stop</text><rect fill="#FFFFFF" height="40" rx="12.5" ry="12.5" style="stroke:#0000FF;stroke-width:1.5;" width="105" x="240.5" y="944.4883"/><text fill="#000000" font-family="sans-serif" font-size="14" lengthAdjust="spacing" textLength="95" x="245.5" y="969.7793">node stopped</text><!--MD5=[3a8dc8485137c8cc04d5ac101361b083]
link step_declarative_undeploy_stop_node_node_stopping to step_declarative_undeploy_stop_node_node_Standard.stop--><path d="M293,832.8549 C293,842.2155 293,853.4103 293,863.2956 " fill="none" id="step_declarative_undeploy_stop_node_node_stopping-to-step_declarative_undeploy_stop_node_node_Standard.stop" style="stroke:#0000FF;stroke-width:1.0;"/><polygon fill="#0000FF" points="293,868.329,297,859.329,293,863.329,289,859.329,293,868.329" style="stroke:#0000FF;stroke-width:1.0;"/><!--MD5=[da05e4e631c606b29123926f65fe7ad7]
link step_declarative_undeploy_stop_node_node_Standard.stop to step_declarative_undeploy_stop_node_node_stopped--><path d="M293,908.8549 C293,918.2155 293,929.4103 293,939.2956 " fill="none" id="step_declarative_undeploy_stop_node_node_Standard.stop-to-step_declarative_undeploy_stop_node_node_stopped" style="stroke:#0000FF;stroke-width:1.0;"/><polygon fill="#0000FF" points="293,944.329,297,935.329,293,939.329,289,935.329,293,944.329" style="stroke:#0000FF;stroke-width:1.0;"/><rect fill="#FFFFFF" height="240.4883" rx="12.5" ry="12.5" style="stroke:#000000;stroke-width:1.5;" width="177" x="203.5" y="1054"/><rect fill="#FFFFFF" height="208" rx="12.5" ry="12.5" style="stroke:#FFFFFF;stroke-width:1.0;" width="171" x="206.5" y="1083.4883"/><line style="stroke:#000000;stroke-width:1.5;" x1="203.5" x2="380.5" y1="1080.4883" y2="1080.4883"/><text fill="#000000" font-family="sans-serif" font-size="14" lengthAdjust="spacing" textLength="84" x="250" y="1072.5352">delete_node</text><rect fill="#FFFFFF" height="40" rx="12.5" ry="12.5" style="stroke:#0000FF;stroke-width:1.5;" width="105" x="241.5" y="1092.4883"/><text fill="#000000" font-family="sans-serif" font-size="14" lengthAdjust="spacing" textLength="95" x="246.5" y="1117.7793">node deleting</text><rect fill="#ADD8E6" height="40" rx="12.5" ry="12.5" style="stroke:#0000FF;stroke-width:1.5;" width="157" x="215.5" y="1168.4883"/><text fill="#000000" font-family="sans-serif" font-size="14" lengthAdjust="spacing" textLength="147" x="220.5" y="1193.7793">node Standard.delete</text><rect fill="#FFFFFF" height="40" rx="12.5" ry="12.5" style="stroke:#0000FF;stroke-width:1.5;" width="87" x="250.5" y="1244.4883"/><text fill="#000000" font-family="sans-serif" font-size="14" lengthAdjust="spacing" textLength="77" x="255.5" y="1269.7793">node initial</text><!--MD5=[df02d23471deddc7daca9c0a801b17f5]
link step_declarative_undeploy_delete_node_node_deleting to step_declarative_undeploy_delete_node_node_Standard.delete--><path d="M294,1132.8549 C294,1142.2155 294,1153.4103 294,1163.2956 " fill="none" id="step_declarative_undeploy_delete_node_node_deleting-to-step_declarative_undeploy_delete_node_node_Standard.delete" style="stroke:#0000FF;stroke-width:1.0;"/><polygon fill="#0000FF" points="294,1168.329,298,1159.329,294,1163.329,290,1159.329,294,1168.329" style="stroke:#0000FF;stroke-width:1.0;"/><!--MD5=[f93c2131372bd803351be0aab2b0c360]
link step_declarative_undeploy_delete_node_node_Standard.delete to step_declarative_undeploy_delete_node_node_initial--><path d="M294,1208.8549 C294,1218.2155 294,1229.4103 294,1239.2956 " fill="none" id="step_declarative_undeploy_delete_node_node_Standard.delete-to-step_declarative_undeploy_delete_node_node_initial" style="stroke:#0000FF;stroke-width:1.0;"/><polygon fill="#0000FF" points="294,1244.329,298,1235.329,294,1239.329,290,1235.329,294,1244.329" style="stroke:#0000FF;stroke-width:1.0;"/><rect fill="#FFFFFF" height="240.4883" rx="12.5" ry="12.5" style="stroke:#000000;stroke-width:1.5;" width="181" x="202.5" y="1354"/><rect fill="#FFFFFF" height="208" rx="12.5" ry="12.5" style="stroke:#FFFFFF;stroke-width:1.0;" width="175" x="205.5" y="1383.4883"/><line style="stroke:#000000;stroke-width:1.5;" x1="202.5" x2="383.5" y1="1380.4883" y2="1380.4883"/><text fill="#000000" font-family="sans-serif" font-size="14" lengthAdjust="spacing" textLength="88" x="249" y="1372.5352">stop_server1</text><rect fill="#FFFFFF" height="40" rx="12.5" ry="12.5" style="stroke:#0000FF;stroke-width:1.5;" width="126" x="232" y="1392.4883"/><text fill="#000000" font-family="sans-serif" font-size="14" lengthAdjust="spacing" textLength="116" x="237" y="1417.7793">server1 stopping</text><rect fill="#ADD8E6" height="40" rx="12.5" ry="12.5" style="stroke:#0000FF;stroke-width:1.5;" width="161" x="214.5" y="1468.4883"/><text fill="#000000" font-family="sans-serif" font-size="14" lengthAdjust="spacing" textLength="151" x="219.5" y="1493.7793">server1 Standard.stop</text><rect fill="#FFFFFF" height="40" rx="12.5" ry="12.5" style="stroke:#0000FF;stroke-width:1.5;" width="121" x="234.5" y="1544.4883"/><text fill="#000000" font-family="sans-serif" font-size="14" lengthAdjust="spacing" textLength="111" x="239.5" y="1569.7793">server1 stopped</text><!--MD5=[5532f3fb6b071c79708d628fc7219c35]
link step_declarative_undeploy_stop_server1_server1_stopping to step_declarative_undeploy_stop_server1_server1_Standard.stop--><path d="M295,1432.8549 C295,1442.2155 295,1453.4103 295,1463.2956 " fill="none" id="step_declarative_undeploy_stop_server1_server1_stopping-to-step_declarative_undeploy_stop_server1_server1_Standard.stop" style="stroke:#0000FF;stroke-width:1.0;"/><polygon fill="#0000FF" points="295,1468.329,299,1459.329,295,1463.329,291,1459.329,295,1468.329" style="stroke:#0000FF;stroke-width:1.0;"/><!--MD5=[241a65fee43fcc312b76d61624e261f6]
link step_declarative_undeploy_stop_server1_server1_Standard.stop to step_declarative_undeploy_stop_server1_server1_stopped--><path d="M295,1508.8549 C295,1518.2155 295,1529.4103 295,1539.2956 " fill="none" id="step_declarative_undeploy_stop_server1_server1_Standard.stop-to-step_declarative_undeploy_stop_server1_server1_stopped" style="stroke:#0000FF;stroke-width:1.0;"/><polygon fill="#0000FF" points="295,1544.329,299,1535.329,295,1539.329,291,1535.329,295,1544.329" style="stroke:#0000FF;stroke-width:1.0;"/><rect fill="#FFFFFF" height="240.4883" rx="12.5" ry="12.5" style="stroke:#000000;stroke-width:1.5;" width="193" x="182.5" y="1654"/><rect fill="#FFFFFF" height="208" rx="12.5" ry="12.5" style="stroke:#FFFFFF;stroke-width:1.0;" width="187" x="185.5" y="1683.4883"/><line style="stroke:#000000;stroke-width:1.5;" x1="182.5" x2="375.5" y1="1680.4883" y2="1680.4883"/><text fill="#000000" font-family="sans-serif" font-size="14" lengthAdjust="spacing" textLength="100" x="229" y="1672.5352">delete_server1</text><rect fill="#FFFFFF" height="40" rx="12.5" ry="12.5" style="stroke:#0000FF;stroke-width:1.5;" width="121" x="220.5" y="1692.4883"/><text fill="#000000" font-family="sans-serif" font-size="14" lengthAdjust="spacing" textLength="111" x="225.5" y="1717.7793">server1 deleting</text><rect fill="#ADD8E6" height="40" rx="12.5" ry="12.5" style="stroke:#0000FF;stroke-width:1.5;" width="173" x="194.5" y="1768.4883"/><text fill="#000000" font-family="sans-serif" font-size="14" lengthAdjust="spacing" textLength="163" x="199.5" y="1793.7793">server1 Standard.delete</text><rect fill="#FFFFFF" height="40" rx="12.5" ry="12.5" style="stroke:#0000FF;stroke-width:1.5;" width="103" x="229.5" y="1844.4883"/><text fill="#000000" font-family="sans-serif" font-size="14" lengthAdjust="spacing" textLength="93" x="234.5" y="1869.7793">server1 initial</text><!--MD5=[2458ec204c2207017cffa8b54f69c557]
link step_declarative_undeploy_delete_server1_server1_deleting to step_declarative_undeploy_delete_server1_server1_Standard.delete--><path d="M281,1732.8549 C281,1742.2155 281,1753.4103 281,1763.2956 " fill="none" id="step_declarative_undeploy_delete_server1_server1_deleting-to-step_declarative_undeploy_delete_server1_server1_Standard.delete" style="stroke:#0000FF;stroke-width:1.0;"/><polygon fill="#0000FF" points="281,1768.329,285,1759.329,281,1763.329,277,1759.329,281,1768.329" style="stroke:#0000FF;stroke-width:1.0;"/><!--MD5=[96cfcfcbed28a930131cf63b7bf70f8a]
link step_declarative_undeploy_delete_server1_server1_Standard.delete to step_declarative_undeploy_delete_server1_server1_initial--><path d="M281,1808.8549 C281,1818.2155 281,1829.4103 281,1839.2956 " fill="none" id="step_declarative_undeploy_delete_server1_server1_Standard.delete-to-step_declarative_undeploy_delete_server1_server1_initial" style="stroke:#0000FF;stroke-width:1.0;"/><polygon fill="#0000FF" points="281,1844.329,285,1835.329,281,1839.329,277,1835.329,281,1844.329" style="stroke:#0000FF;stroke-width:1.0;"/><!--MD5=[4fb955322be1a3debb7b0d4a9e65a775]
link step_declarative_undeploy_stop_app to step_declarative_undeploy_delete_app--><path d="M193,326.2929 C193,344.1733 193,362.6404 193,380.6221 " fill="none" id="step_declarative_undeploy_stop_app-to-step_declarative_undeploy_delete_app" style="stroke:#0000FF;stroke-width:1.0;"/><polygon fill="#0000FF" points="193,385.6801,197,376.6801,193,380.6801,189,376.6801,193,385.6801" style="stroke:#0000FF;stroke-width:1.0;"/><!--MD5=[78505e3e446c37c0072598b44a4d03c4]
link step_declarative_undeploy_delete_app to step_declarative_undeploy_delete_app_fork--><path d="M193,626.1621 C193,649.157 193,669.5541 193,680.8003 " fill="none" id="step_declarative_undeploy_delete_app-to-step_declarative_undeploy_delete_app_fork" style="stroke:#0000FF;stroke-width:1.0;"/><polygon fill="#0000FF" points="193,685.8126,197,676.8126,193,680.8126,189,676.8126,193,685.8126" style="stroke:#0000FF;stroke-width:1.0;"/><!--MD5=[81418f1c2c75285f7f8477a87d49bc4e]
link step_declarative_undeploy_delete_app_fork to step_declarative_undeploy_stop_node--><path d="M195.231,694.1888 C199.8443,702.8505 211.1181,724.0177 224.3782,748.9142 " fill="none" id="step_declarative_undeploy_delete_app_fork-to-step_declarative_undeploy_stop_node" style="stroke:#0000FF;stroke-width:1.0;"/><polygon fill="#0000FF" points="226.8761,753.6042,226.1757,743.7803,224.5256,749.1911,219.1148,747.541,226.8761,753.6042" style="stroke:#0000FF;stroke-width:1.0;"/><!--MD5=[dc11e54379df88a33a5a7f1b08900009]
link step_declarative_undeploy_delete_app_fork to step_declarative_undeploy_stop_db--><path d="M190.8145,694.1888 C186.2954,702.8505 175.2516,724.0177 162.2621,748.9142 " fill="none" id="step_declarative_undeploy_delete_app_fork-to-step_declarative_undeploy_stop_db" style="stroke:#0000FF;stroke-width:1.0;"/><polygon fill="#0000FF" points="159.8152,753.6042,167.5249,747.4755,162.1282,749.1714,160.4323,743.7747,159.8152,753.6042" style="stroke:#0000FF;stroke-width:1.0;"/><!--MD5=[27ddbf5c6828c664542439f273e5bd7a]
link step_declarative_undeploy_stop_db to step_declarative_undeploy_delete_db--><path d="M94.9944,994.3369 C93.2815,1097.112 90.8262,1244.4253 89.0896,1348.6233 " fill="none" id="step_declarative_undeploy_stop_db-to-step_declarative_undeploy_delete_db" style="stroke:#0000FF;stroke-width:1.0;"/><polygon fill="#0000FF" points="89.0023,1353.8632,93.1519,1344.9312,89.0857,1348.8639,85.153,1344.7977,89.0023,1353.8632" style="stroke:#0000FF;stroke-width:1.0;"/><!--MD5=[4353f4f7a9f22b9ef0436c1a35153a65]
link step_declarative_undeploy_stop_node to step_declarative_undeploy_delete_node--><path d="M291.401,994.2929 C291.4606,1012.1733 291.5221,1030.6404 291.5821,1048.6221 " fill="none" id="step_declarative_undeploy_stop_node-to-step_declarative_undeploy_delete_node" style="stroke:#0000FF;stroke-width:1.0;"/><polygon fill="#0000FF" points="291.5989,1053.6801,295.5688,1044.6668,291.5822,1048.6801,287.5688,1044.6935,291.5989,1053.6801" style="stroke:#0000FF;stroke-width:1.0;"/><!--MD5=[6edc7d251059dae9c0981cadc0981f5e]
link step_declarative_undeploy_delete_node to step_declarative_undeploy_stop_server1--><path d="M292.401,1294.2929 C292.4606,1312.1733 292.5221,1330.6404 292.5821,1348.6221 " fill="none" id="step_declarative_undeploy_delete_node-to-step_declarative_undeploy_stop_server1" style="stroke:#0000FF;stroke-width:1.0;"/><polygon fill="#0000FF" points="292.5989,1353.6801,296.5688,1344.6668,292.5822,1348.6801,288.5688,1344.6935,292.5989,1353.6801" style="stroke:#0000FF;stroke-width:1.0;"/><!--MD5=[f400678c66349bcd4ce076eb7dc024b5]
link step_declarative_undeploy_stop_server1 to step_declarative_undeploy_delete_server1--><path d="M287.3863,1594.2929 C286.5519,1612.1733 285.6901,1630.6404 284.851,1648.6221 " fill="none" id="step_declarative_undeploy_stop_server1-to-step_declarative_undeploy_delete_server1" style="stroke:#0000FF;stroke-width:1.0;"/><polygon fill="#0000FF" points="284.6149,1653.6801,289.0302,1644.8764,284.848,1648.6855,281.0389,1644.5034,284.6149,1653.6801" style="stroke:#0000FF;stroke-width:1.0;"/><!--MD5=[5b631d820ffc6a27920dd89c743eb194]
link *start to step_declarative_undeploy_stop_app--><path d="M193,26.2152 C193,37.7525 193,57.9094 193,80.6599 " fill="none" id="*start-to-step_declarative_undeploy_stop_app" style="stroke:#0000FF;stroke-width:1.0;"/><polygon fill="#0000FF" points="193,85.8637,197,76.8637,193,80.8637,189,76.8637,193,85.8637" style="stroke:#0000FF;stroke-width:1.0;"/><!--MD5=[d304f95394e26b0967c056ac947717c1]
link declarative_undeploy_join to *end--><path d="M190,1962.4074 C190,1972.8066 190,1999.2833 190,2016.4165 " fill="none" id="declarative_undeploy_join-to-*end" style="stroke:#0000FF;stroke-width:1.0;"/><polygon fill="#0000FF" points="190,2021.8319,194,2012.8319,190,2016.8319,186,2012.8319,190,2021.8319" style="stroke:#0000FF;stroke-width:1.0;"/><!--MD5=[4bd795eea5414089b7eee719a259d74c]
link step_declarative_undeploy_delete_db to declarative_undeploy_join--><path d="M103.1872,1594.4222 C116.0702,1679.1528 136.6576,1794.6927 165,1894 C170.7347,1914.0935 180.3268,1936.6544 185.8122,1948.8979 " fill="none" id="step_declarative_undeploy_delete_db-to-declarative_undeploy_join" style="stroke:#0000FF;stroke-width:1.0;"/><polygon fill="#0000FF" points="188.0149,1953.7513,187.9377,1943.9027,185.9485,1949.1983,180.6529,1947.209,188.0149,1953.7513" style="stroke:#0000FF;stroke-width:1.0;"/><!--MD5=[853987151ac481d0b097917bd12038c3]
link step_declarative_undeploy_delete_server1 to declarative_undeploy_join--><path d="M220.8781,1894.1621 C209.6536,1917.3679 199.7087,1937.9281 194.3012,1949.1076 " fill="none" id="step_declarative_undeploy_delete_server1-to-declarative_undeploy_join" style="stroke:#0000FF;stroke-width:1.0;"/><polygon fill="#0000FF" points="192.0254,1953.8126,199.5453,1947.4525,194.2026,1949.3115,192.3436,1943.9689,192.0254,1953.8126" style="stroke:#0000FF;stroke-width:1.0;"/><!--MD5=[1b52558b13400d903ba19c71825884f3]
@startuml
hide empty description
skinparam shadowing false
skinparam state {
  ArrowColor blue
  BorderColor blue
  EndColor black
  StartColor green
  BackGroundColor<< step >> white
  BorderColor<< step >> black
  BackGroundColor<< delegate >> lightgrey
  BackGroundColor<< set_state >> white
  BackGroundColor<< call_operation >> lightblue
  BackGroundColor<< inline >> white
}
skinparam ActivityBarColor<<fork>> DarkGreen
skinparam ActivityBarColor<<join>> DarkOrange

state "stop_app" as step_declarative_undeploy_stop_app << step >> {
  state "app stopping" as step_declarative_undeploy_stop_app_app_stopping << set_state >>
  state "app Standard.stop" as step_declarative_undeploy_stop_app_app_Standard.stop << call_operation >>
  state "app stopped" as step_declarative_undeploy_stop_app_app_stopped << set_state >>
  step_declarative_undeploy_stop_app_app_stopping - -> step_declarative_undeploy_stop_app_app_Standard.stop
  step_declarative_undeploy_stop_app_app_Standard.stop - -> step_declarative_undeploy_stop_app_app_stopped
}
state "delete_app" as step_declarative_undeploy_delete_app << step >> {
  state "app deleting" as step_declarative_undeploy_delete_app_app_deleting << set_state >>
  state "app Standard.delete" as step_declarative_undeploy_delete_app_app_Standard.delete << call_operation >>
  state "app initial" as step_declarative_undeploy_delete_app_app_initial << set_state >>
  step_declarative_undeploy_delete_app_app_deleting - -> step_declarative_undeploy_delete_app_app_Standard.delete
  step_declarative_undeploy_delete_app_app_Standard.delete - -> step_declarative_undeploy_delete_app_app_initial
}
state "stop_db" as step_declarative_undeploy_stop_db << step >> {
  state "db stopping" as step_declarative_undeploy_stop_db_db_stopping << set_state >>
  state "db Standard.stop" as step_declarative_undeploy_stop_db_db_Standard.stop << call_operation >>
  state "db stopped" as step_declarative_undeploy_stop_db_db_stopped << set_state >>
  step_declarative_undeploy_stop_db_db_stopping - -> step_declarative_undeploy_stop_db_db_Standard.stop
  step_declarative_undeploy_stop_db_db_Standard.stop - -> step_declarative_undeploy_stop_db_db_stopped
}
state "delete_db" as step_declarative_undeploy_delete_db << step >> {
  state "db deleting" as step_declarative_undeploy_delete_db_db_deleting << set_state >>
  state "db Standard.delete" as step_declarative_undeploy_delete_db_db_Standard.delete << call_operation >>
  state "db initial" as step_declarative_undeploy_delete_db_db_initial << set_state >>
  step_declarative_undeploy_delete_db_db_deleting - -> step_declarative_undeploy_delete_db_db_Standard.delete
  step_declarative_undeploy_delete_db_db_Standard.delete - -> step_declarative_undeploy_delete_db_db_initial
}
state "stop_node" as step_declarative_undeploy_stop_node << step >> {
  state "node stopping" as step_declarative_undeploy_stop_node_node_stopping << set_state >>
  state "node Standard.stop" as step_declarative_undeploy_stop_node_node_Standard.stop << call_operation >>
  state "node stopped" as step_declarative_undeploy_stop_node_node_stopped << set_state >>
  step_declarative_undeploy_stop_node_node_stopping - -> step_declarative_undeploy_stop_node_node_Standard.stop
  step_declarative_undeploy_stop_node_node_Standard.stop - -> step_declarative_undeploy_stop_node_node_stopped
}
state "delete_node" as step_declarative_undeploy_delete_node << step >> {
  state "node deleting" as step_declarative_undeploy_delete_node_node_deleting << set_state >>
  state "node Standard.delete" as step_declarative_undeploy_delete_node_node_Standard.delete << call_operation >>
  state "node initial" as step_declarative_undeploy_delete_node_node_initial << set_state >>
  step_declarative_undeploy_delete_node_node_deleting - -> step_declarative_undeploy_delete_node_node_Standard.delete
  step_declarative_undeploy_delete_node_node_Standard.delete - -> step_declarative_undeploy_delete_node_node_initial
}
state "stop_server1" as step_declarative_undeploy_stop_server1 << step >> {
  state "server1 stopping" as step_declarative_undeploy_stop_server1_server1_stopping << set_state >>
  state "server1 Standard.stop" as step_declarative_undeploy_stop_server1_server1_Standard.stop << call_operation >>
  state "server1 stopped" as step_declarative_undeploy_stop_server1_server1_stopped << set_state >>
  step_declarative_undeploy_stop_server1_server1_stopping - -> step_declarative_undeploy_stop_server1_server1_Standard.stop
  step_declarative_undeploy_stop_server1_server1_Standard.stop - -> step_declarative_undeploy_stop_server1_server1_stopped
}
state "delete_server1" as step_declarative_undeploy_delete_server1 << step >> {
  state "server1 deleting" as step_declarative_undeploy_delete_server1_server1_deleting << set_state >>
  state "server1 Standard.delete" as step_declarative_undeploy_delete_server1_server1_Standard.delete << call_operation >>
  state "server1 initial" as step_declarative_undeploy_delete_server1_server1_initial << set_state >>
  step_declarative_undeploy_delete_server1_server1_deleting - -> step_declarative_undeploy_delete_server1_server1_Standard.delete
  step_declarative_undeploy_delete_server1_server1_Standard.delete - -> step_declarative_undeploy_delete_server1_server1_initial
}
step_declarative_undeploy_stop_app - -> step_declarative_undeploy_delete_app
state step_declarative_undeploy_delete_app_fork <<fork>>
step_declarative_undeploy_delete_app - -> step_declarative_undeploy_delete_app_fork
step_declarative_undeploy_delete_app_fork - -> step_declarative_undeploy_stop_node
step_declarative_undeploy_delete_app_fork - -> step_declarative_undeploy_stop_db
step_declarative_undeploy_stop_db - -> step_declarative_undeploy_delete_db
step_declarative_undeploy_stop_node - -> step_declarative_undeploy_delete_node
step_declarative_undeploy_delete_node - -> step_declarative_undeploy_stop_server1
step_declarative_undeploy_stop_server1 - -> step_declarative_undeploy_delete_server1
[*] - -> step_declarative_undeploy_stop_app
state declarative_undeploy_join <<join>>
declarative_undeploy_join - -> [*]
step_declarative_undeploy_delete_db - -> declarative_undeploy_join
step_declarative_undeploy_delete_server1 - -> declarative_undeploy_join
@enduml

PlantUML version 1.2021.13(Mon Nov 01 12:38:45 CET 2021)
(GPL source distribution)
Java Runtime: Java(TM) SE Runtime Environment
JVM: Java HotSpot(TM) 64-Bit Server VM
Default Encoding: UTF-8
Language: fr
Country: FR
--></g></svg>