<?xml version="1.0" encoding="UTF-8" standalone="no"?><svg xmlns="http://www.w3.org/2000/svg" xmlns:xlink="http://www.w3.org/1999/xlink" contentScriptType="application/ecmascript" contentStyleType="text/css" height="370px" preserveAspectRatio="none" style="width:710px;height:370px;background:#FFFFFF;" version="1.1" viewBox="0 0 710 370" width="710px" zoomAndPan="magnify"><defs><filter height="300%" id="f1k5r5v6eqjvx0" width="300%" x="-1" y="-1"><feGaussianBlur result="blurOut" stdDeviation="2.0"/><feColorMatrix in="blurOut" result="blurOut2" type="matrix" values="0 0 0 0 0 0 0 0 0 0 0 0 0 0 0 0 0 0 .4 0"/><feOffset dx="4.0" dy="4.0" in="blurOut2" result="blurOut3"/><feBlend in="SourceGraphic" in2="blurOut3" mode="normal"/></filter></defs><g><!--MD5=[6ad3e32cdac0158e24b6462dbfeb6527]
cluster node_db--><polygon fill="#FFFFFF" filter="url(#f1k5r5v6eqjvx0)" points="192,246,202,236,364,236,364,353,354,363,192,363,192,246" style="stroke:#000000;stroke-width:1.5;"/><line style="stroke:#000000;stroke-width:1.5;" x1="354" x2="364" y1="246" y2="236"/><line style="stroke:#000000;stroke-width:1.5;" x1="192" x2="354" y1="246" y2="246"/><line style="stroke:#000000;stroke-width:1.5;" x1="354" x2="354" y1="246" y2="363"/><text fill="#000000" font-family="sans-serif" font-size="14" font-weight="bold" lengthAdjust="spacing" textLength="96" x="226" y="262.5352">db: Container</text><!--MD5=[a1a2b0b7adfe51ca6919f594e1d7a096]
cluster node_db_artifact_image--><rect fill="#FFFFFF" filter="url(#f1k5r5v6eqjvx0)" height="87" style="stroke:#000000;stroke-width:1.5;" width="118" x="236" y="268"/><polygon fill="#FFFFFF" points="337,273,337,287,349,287,349,279,343,273,337,273" style="stroke:#000000;stroke-width:1.5;"/><line style="stroke:#000000;stroke-width:1.5;" x1="343" x2="343" y1="273" y2="279"/><line style="stroke:#000000;stroke-width:1.5;" x1="349" x2="343" y1="279" y2="279"/><text fill="#000000" font-family="sans-serif" font-size="14" font-style="italic" lengthAdjust="spacing" textLength="62" x="264" y="283.5352">«artifact»</text><text fill="#000000" font-family="sans-serif" font-size="14" font-weight="bold" lengthAdjust="spacing" textLength="102" x="244" y="300.0234">image: Service</text><!--MD5=[4941b4d5110f4d3674434e619077c264]
cluster node_server1--><polygon fill="#FFFFFF" filter="url(#f1k5r5v6eqjvx0)" points="16,16,26,6,693,6,693,193,683,203,16,203,16,16" style="stroke:#000000;stroke-width:1.5;"/><line style="stroke:#000000;stroke-width:1.5;" x1="683" x2="693" y1="16" y2="6"/><line style="stroke:#000000;stroke-width:1.5;" x1="16" x2="683" y1="16" y2="16"/><line style="stroke:#000000;stroke-width:1.5;" x1="683" x2="683" y1="16" y2="203"/><text fill="#000000" font-family="sans-serif" font-size="14" font-weight="bold" lengthAdjust="spacing" textLength="131" x="285" y="32.5352">server1: Container</text><!--MD5=[3384799e12d9ba1c0c3b9764d4777eb8]
cluster node_node--><rect fill="#FFFFFF" filter="url(#f1k5r5v6eqjvx0)" height="157" style="stroke:#000000;stroke-width:1.5;" width="494" x="191" y="38"/><rect fill="#FFFFFF" height="10" style="stroke:#000000;stroke-width:1.5;" width="15" x="665" y="43"/><rect fill="#FFFFFF" height="2" style="stroke:#000000;stroke-width:1.5;" width="4" x="663" y="45"/><rect fill="#FFFFFF" height="2" style="stroke:#000000;stroke-width:1.5;" width="4" x="663" y="49"/><text fill="#000000" font-family="sans-serif" font-size="14" font-weight="bold" lengthAdjust="spacing" textLength="106" x="385" y="64.5352">node: Software</text><!--MD5=[898b92138ed579ec6c069c064c6ca924]
cluster node_app--><rect fill="#FFFFFF" filter="url(#f1k5r5v6eqjvx0)" height="122" style="stroke:#000000;stroke-width:1.5;" width="478" x="199" y="65"/><rect fill="#FFFFFF" height="10" style="stroke:#000000;stroke-width:1.5;" width="15" x="657" y="70"/><rect fill="#FFFFFF" height="2" style="stroke:#000000;stroke-width:1.5;" width="4" x="655" y="72"/><rect fill="#FFFFFF" height="2" style="stroke:#000000;stroke-width:1.5;" width="4" x="655" y="76"/><text fill="#000000" font-family="sans-serif" font-size="14" font-weight="bold" lengthAdjust="spacing" textLength="97" x="389.5" y="91.5352">app: Software</text><!--MD5=[ce393e892350b066c0ad13b0b970ff31]
cluster node_app_artifact_code--><rect fill="#FFFFFF" filter="url(#f1k5r5v6eqjvx0)" height="87" style="stroke:#000000;stroke-width:1.5;" width="188" x="481" y="92"/><polygon fill="#FFFFFF" points="652,97,652,111,664,111,664,103,658,97,652,97" style="stroke:#000000;stroke-width:1.5;"/><line style="stroke:#000000;stroke-width:1.5;" x1="658" x2="658" y1="97" y2="103"/><line style="stroke:#000000;stroke-width:1.5;" x1="664" x2="658" y1="103" y2="103"/><text fill="#000000" font-family="sans-serif" font-size="14" font-style="italic" lengthAdjust="spacing" textLength="62" x="544" y="107.5352">«artifact»</text><text fill="#000000" font-family="sans-serif" font-size="14" font-weight="bold" lengthAdjust="spacing" textLength="95" x="527.5" y="124.0234">code: Artifact</text><!--MD5=[9c71a1146385f798ca28dfebf01d2eec]
cluster node_app_artifact_package--><rect fill="#FFFFFF" filter="url(#f1k5r5v6eqjvx0)" height="87" style="stroke:#000000;stroke-width:1.5;" width="228" x="234" y="92"/><polygon fill="#FFFFFF" points="445,97,445,111,457,111,457,103,451,97,445,97" style="stroke:#000000;stroke-width:1.5;"/><line style="stroke:#000000;stroke-width:1.5;" x1="451" x2="451" y1="97" y2="103"/><line style="stroke:#000000;stroke-width:1.5;" x1="457" x2="451" y1="103" y2="103"/><text fill="#000000" font-family="sans-serif" font-size="14" font-style="italic" lengthAdjust="spacing" textLength="62" x="317" y="107.5352">«artifact»</text><text fill="#000000" font-family="sans-serif" font-size="14" font-weight="bold" lengthAdjust="spacing" textLength="120" x="288" y="124.0234">package: Artifact</text><!--MD5=[b1ee0157b4f95d07d6b107fd8bfcc54c]
cluster node_server1_artifact_my_image--><rect fill="#FFFFFF" filter="url(#f1k5r5v6eqjvx0)" height="87" style="stroke:#000000;stroke-width:1.5;" width="156" x="24" y="92"/><polygon fill="#FFFFFF" points="163,97,163,111,175,111,175,103,169,97,163,97" style="stroke:#000000;stroke-width:1.5;"/><line style="stroke:#000000;stroke-width:1.5;" x1="169" x2="169" y1="97" y2="103"/><line style="stroke:#000000;stroke-width:1.5;" x1="175" x2="169" y1="103" y2="103"/><text fill="#000000" font-family="sans-serif" font-size="14" font-style="italic" lengthAdjust="spacing" textLength="62" x="71" y="107.5352">«artifact»</text><text fill="#000000" font-family="sans-serif" font-size="14" font-weight="bold" lengthAdjust="spacing" textLength="125" x="39.5" y="124.0234">my_image: Image</text><!--MD5=[da37b0f44b096961fd7616c81d161a63]
entity node_db_artifact_image_label--><text fill="#000000" font-family="sans-serif" font-size="14" lengthAdjust="spacing" textLength="78" x="256" y="334.5352">file: mongo</text><!--MD5=[1f5236b925e6c9b864b41ba898e5256f]
entity node_app_artifact_code_label--><text fill="#000000" font-family="sans-serif" font-size="14" lengthAdjust="spacing" textLength="151" x="499.5" y="158.5352">file: code/app/main.js</text><!--MD5=[8c15df178001e7b652e8c01ea4dc346d]
entity node_app_artifact_package_label--><text fill="#000000" font-family="sans-serif" font-size="14" lengthAdjust="spacing" textLength="192" x="252" y="158.5352">file: code/app/package.json</text><!--MD5=[6d820c79221b6ff1992bf27d44f52172]
entity node_server1_artifact_my_image_label--><text fill="#000000" font-family="sans-serif" font-size="14" lengthAdjust="spacing" textLength="120" x="42" y="158.5352">file: ubuntu:latest</text><!--MD5=[703b6de1b253b0534ec36bb051479572]
link node_app to node_db--><path d="M207,187.566 C207,187.8285 207,188.0921 207,188.3566 C207,188.8857 207,189.4187 207,189.9557 C207,192.1035 207,194.3133 207,196.5763 C207,201.1021 207,205.8405 207,210.7204 C207,215.6002 207,220.6216 207,225.7133 C207,228.2592 207,230.8227 207,233.3949 C207,234.038 207,234.6816 207,235.3256 C207,235.4866 207,235.6476 207,235.8087 C207,235.8489 207,235.8892 207,235.9295 " fill="none" id="node_app-to-node_db" style="stroke:#A80036;stroke-width:1.0;stroke-dasharray:7.0,7.0;"/><polygon fill="#A80036" points="207,235.9295,211,226.9295,207,230.9295,203,226.9295,207,235.9295" style="stroke:#A80036;stroke-width:1.0;"/><text fill="#000000" font-family="sans-serif" font-size="13" lengthAdjust="spacing" textLength="89" x="208" y="224.5684">«ConnectsTo»</text><!--MD5=[c06d44edab3137dd01278cb94da4d313]
@startuml
skinparam componentStyle uml2
allowmixing

node "db: Container" as node_db {
artifact "image: Service" <<artifact>> as node_db_artifact_image {
label "file: mongo" as node_db_artifact_image_label
}
}
node "server1: Container" as node_server1 {
component "node: Software" as node_node {
component "app: Software" as node_app {
artifact "code: Artifact" <<artifact>> as node_app_artifact_code {
label "file: code/app/main.js" as node_app_artifact_code_label
}
artifact "package: Artifact" <<artifact>> as node_app_artifact_package {
label "file: code/app/package.json" as node_app_artifact_package_label
}
}
}
artifact "my_image: Image" <<artifact>> as node_server1_artifact_my_image {
label "file: ubuntu:latest" as node_server1_artifact_my_image_label
}
}
node_app ..> node_db : <<ConnectsTo>>
@enduml

PlantUML version 1.2021.13(Mon Nov 01 12:38:45 CET 2021)
(GPL source distribution)
Java Runtime: Java(TM) SE Runtime Environment
JVM: Java HotSpot(TM) 64-Bit Server VM
Default Encoding: UTF-8
Language: fr
Country: FR
--></g></svg>