<?xml version="1.0" encoding="UTF-8" standalone="no"?><svg xmlns="http://www.w3.org/2000/svg" xmlns:xlink="http://www.w3.org/1999/xlink" contentScriptType="application/ecmascript" contentStyleType="text/css" height="1912px" preserveAspectRatio="none" style="width:254px;height:1912px;background:#FFFFFF;" version="1.1" viewBox="0 0 254 1912" width="254px" zoomAndPan="magnify"><defs/><g><ellipse cx="127" cy="16" fill="#008000" rx="10" ry="10" style="stroke:none;stroke-width:1.0;"/><ellipse cx="127" cy="1896" rx="10" ry="10" style="stroke:#000000;stroke-width:1.0;fill:none;"/><ellipse cx="127.5" cy="1896.5" fill="#000000" rx="6" ry="6" style="stroke:none;stroke-width:1.0;"/><rect fill="#FFFFFF" height="240.4883" rx="12.5" ry="12.5" style="stroke:#000000;stroke-width:1.5;" width="148" x="53" y="686"/><rect fill="#FFFFFF" height="208" rx="12.5" ry="12.5" style="stroke:#FFFFFF;stroke-width:1.0;" width="142" x="56" y="715.4883"/><line style="stroke:#000000;stroke-width:1.5;" x1="53" x2="201" y1="712.4883" y2="712.4883"/><text fill="#000000" font-family="sans-serif" font-size="14" lengthAdjust="spacing" textLength="55" x="99.5" y="704.5352">stop_db</text><rect fill="#FFFFFF" height="40" rx="12.5" ry="12.5" style="stroke:#0000FF;stroke-width:1.5;" width="93" x="82.5" y="724.4883"/><text fill="#000000" font-family="sans-serif" font-size="14" lengthAdjust="spacing" textLength="83" x="87.5" y="749.7793">db stopping</text><rect fill="#ADD8E6" height="40" rx="12.5" ry="12.5" style="stroke:#0000FF;stroke-width:1.5;" width="128" x="65" y="800.4883"/><text fill="#000000" font-family="sans-serif" font-size="14" lengthAdjust="spacing" textLength="118" x="70" y="825.7793">db Standard.stop</text><rect fill="#FFFFFF" height="40" rx="12.5" ry="12.5" style="stroke:#0000FF;stroke-width:1.5;" width="88" x="85" y="876.4883"/><text fill="#000000" font-family="sans-serif" font-size="14" lengthAdjust="spacing" textLength="78" x="90" y="901.7793">db stopped</text><!--MD5=[1c10a9c0fc3988f01b13c73840c030b9]
link step_declarative_undeploy_stop_db_db_stopping to step_declarative_undeploy_stop_db_db_Standard.stop--><path d="M129,764.8549 C129,774.2155 129,785.4103 129,795.2956 " fill="none" id="step_declarative_undeploy_stop_db_db_stopping-to-step_declarative_undeploy_stop_db_db_Standard.stop" style="stroke:#0000FF;stroke-width:1.0;"/><polygon fill="#0000FF" points="129,800.329,133,791.329,129,795.329,125,791.329,129,800.329" style="stroke:#0000FF;stroke-width:1.0;"/><!--MD5=[6bc2aea57c677b7442572969cfb6602c]
link step_declarative_undeploy_stop_db_db_Standard.stop to step_declarative_undeploy_stop_db_db_stopped--><path d="M129,840.8549 C129,850.2155 129,861.4103 129,871.2956 " fill="none" id="step_declarative_undeploy_stop_db_db_Standard.stop-to-step_declarative_undeploy_stop_db_db_stopped" style="stroke:#0000FF;stroke-width:1.0;"/><polygon fill="#0000FF" points="129,876.329,133,867.329,129,871.329,125,867.329,129,876.329" style="stroke:#0000FF;stroke-width:1.0;"/><rect fill="#FFFFFF" height="240.4883" rx="12.5" ry="12.5" style="stroke:#000000;stroke-width:1.5;" width="160" x="47" y="986"/><rect fill="#FFFFFF" height="208" rx="12.5" ry="12.5" style="stroke:#FFFFFF;stroke-width:1.0;" width="154" x="50" y="1015.4883"/><line style="stroke:#000000;stroke-width:1.5;" x1="47" x2="207" y1="1012.4883" y2="1012.4883"/><text fill="#000000" font-family="sans-serif" font-size="14" lengthAdjust="spacing" textLength="67" x="93.5" y="1004.5352">delete_db</text><rect fill="#FFFFFF" height="40" rx="12.5" ry="12.5" style="stroke:#0000FF;stroke-width:1.5;" width="88" x="85" y="1024.4883"/><text fill="#000000" font-family="sans-serif" font-size="14" lengthAdjust="spacing" textLength="78" x="90" y="1049.7793">db deleting</text><rect fill="#ADD8E6" height="40" rx="12.5" ry="12.5" style="stroke:#0000FF;stroke-width:1.5;" width="140" x="59" y="1100.4883"/><text fill="#000000" font-family="sans-serif" font-size="14" lengthAdjust="spacing" textLength="130" x="64" y="1125.7793">db Standard.delete</text><rect fill="#FFFFFF" height="40" rx="12.5" ry="12.5" style="stroke:#0000FF;stroke-width:1.5;" width="70" x="94" y="1176.4883"/><text fill="#000000" font-family="sans-serif" font-size="14" lengthAdjust="spacing" textLength="60" x="99" y="1201.7793">db initial</text><!--MD5=[efdc3bb8f530c21c9c678fab76402752]
link step_declarative_undeploy_delete_db_db_deleting to step_declarative_undeploy_delete_db_db_Standard.delete--><path d="M129,1064.8549 C129,1074.2155 129,1085.4103 129,1095.2956 " fill="none" id="step_declarative_undeploy_delete_db_db_deleting-to-step_declarative_undeploy_delete_db_db_Standard.delete" style="stroke:#0000FF;stroke-width:1.0;"/><polygon fill="#0000FF" points="129,1100.329,133,1091.329,129,1095.329,125,1091.329,129,1100.329" style="stroke:#0000FF;stroke-width:1.0;"/><!--MD5=[f8da6a2534c7685605fc4b536189adff]
link step_declarative_undeploy_delete_db_db_Standard.delete to step_declarative_undeploy_delete_db_db_initial--><path d="M129,1140.8549 C129,1150.2155 129,1161.4103 129,1171.2956 " fill="none" id="step_declarative_undeploy_delete_db_db_Standard.delete-to-step_declarative_undeploy_delete_db_db_initial" style="stroke:#0000FF;stroke-width:1.0;"/><polygon fill="#0000FF" points="129,1176.329,133,1167.329,129,1171.329,125,1167.329,129,1176.329" style="stroke:#0000FF;stroke-width:1.0;"/><rect fill="#FFFFFF" height="240.4883" rx="12.5" ry="12.5" style="stroke:#000000;stroke-width:1.5;" width="228" x="13" y="86"/><rect fill="#FFFFFF" height="208" rx="12.5" ry="12.5" style="stroke:#FFFFFF;stroke-width:1.0;" width="222" x="16" y="115.4883"/><line style="stroke:#000000;stroke-width:1.5;" x1="13" x2="241" y1="112.4883" y2="112.4883"/><text fill="#000000" font-family="sans-serif" font-size="14" lengthAdjust="spacing" textLength="135" x="59.5" y="104.5352">stop_app_container</text><rect fill="#FFFFFF" height="40" rx="12.5" ry="12.5" style="stroke:#0000FF;stroke-width:1.5;" width="173" x="42.5" y="124.4883"/><text fill="#000000" font-family="sans-serif" font-size="14" lengthAdjust="spacing" textLength="163" x="47.5" y="149.7793">app_container stopping</text><rect fill="#ADD8E6" height="40" rx="12.5" ry="12.5" style="stroke:#0000FF;stroke-width:1.5;" width="208" x="25" y="200.4883"/><text fill="#000000" font-family="sans-serif" font-size="14" lengthAdjust="spacing" textLength="198" x="30" y="225.7793">app_container Standard.stop</text><rect fill="#FFFFFF" height="40" rx="12.5" ry="12.5" style="stroke:#0000FF;stroke-width:1.5;" width="168" x="45" y="276.4883"/><text fill="#000000" font-family="sans-serif" font-size="14" lengthAdjust="spacing" textLength="158" x="50" y="301.7793">app_container stopped</text><!--MD5=[ec9eeecd552c9cdd99a535f29ee52b29]
link step_declarative_undeploy_stop_app_container_app_container_stopping to step_declarative_undeploy_stop_app_container_app_container_Standard.stop--><path d="M129,164.8549 C129,174.2155 129,185.4103 129,195.2956 " fill="none" id="step_declarative_undeploy_stop_app_container_app_container_stopping-to-step_declarative_undeploy_stop_app_container_app_container_Standard.stop" style="stroke:#0000FF;stroke-width:1.0;"/><polygon fill="#0000FF" points="129,200.329,133,191.329,129,195.329,125,191.329,129,200.329" style="stroke:#0000FF;stroke-width:1.0;"/><!--MD5=[3de03857b8101fb357296f035947273a]
link step_declarative_undeploy_stop_app_container_app_container_Standard.stop to step_declarative_undeploy_stop_app_container_app_container_stopped--><path d="M129,240.8549 C129,250.2155 129,261.4103 129,271.2956 " fill="none" id="step_declarative_undeploy_stop_app_container_app_container_Standard.stop-to-step_declarative_undeploy_stop_app_container_app_container_stopped" style="stroke:#0000FF;stroke-width:1.0;"/><polygon fill="#0000FF" points="129,276.329,133,267.329,129,271.329,125,267.329,129,276.329" style="stroke:#0000FF;stroke-width:1.0;"/><rect fill="#FFFFFF" height="240.4883" rx="12.5" ry="12.5" style="stroke:#000000;stroke-width:1.5;" width="240" x="7" y="386"/><rect fill="#FFFFFF" height="208" rx="12.5" ry="12.5" style="stroke:#FFFFFF;stroke-width:1.0;" width="234" x="10" y="415.4883"/><line style="stroke:#000000;stroke-width:1.5;" x1="7" x2="247" y1="412.4883" y2="412.4883"/><text fill="#000000" font-family="sans-serif" font-size="14" lengthAdjust="spacing" textLength="147" x="53.5" y="404.5352">delete_app_container</text><rect fill="#FFFFFF" height="40" rx="12.5" ry="12.5" style="stroke:#0000FF;stroke-width:1.5;" width="168" x="45" y="424.4883"/><text fill="#000000" font-family="sans-serif" font-size="14" lengthAdjust="spacing" textLength="158" x="50" y="449.7793">app_container deleting</text><rect fill="#ADD8E6" height="40" rx="12.5" ry="12.5" style="stroke:#0000FF;stroke-width:1.5;" width="220" x="19" y="500.4883"/><text fill="#000000" font-family="sans-serif" font-size="14" lengthAdjust="spacing" textLength="210" x="24" y="525.7793">app_container Standard.delete</text><rect fill="#FFFFFF" height="40" rx="12.5" ry="12.5" style="stroke:#0000FF;stroke-width:1.5;" width="150" x="54" y="576.4883"/><text fill="#000000" font-family="sans-serif" font-size="14" lengthAdjust="spacing" textLength="140" x="59" y="601.7793">app_container initial</text><!--MD5=[03d70b8c1cdfb2696869ce4af006b284]
link step_declarative_undeploy_delete_app_container_app_container_deleting to step_declarative_undeploy_delete_app_container_app_container_Standard.delete--><path d="M129,464.8549 C129,474.2155 129,485.4103 129,495.2956 " fill="none" id="step_declarative_undeploy_delete_app_container_app_container_deleting-to-step_declarative_undeploy_delete_app_container_app_container_Standard.delete" style="stroke:#0000FF;stroke-width:1.0;"/><polygon fill="#0000FF" points="129,500.329,133,491.329,129,495.329,125,491.329,129,500.329" style="stroke:#0000FF;stroke-width:1.0;"/><!--MD5=[dde131c544dac0d8ea55ad26c92a9a6f]
link step_declarative_undeploy_delete_app_container_app_container_Standard.delete to step_declarative_undeploy_delete_app_container_app_container_initial--><path d="M129,540.8549 C129,550.2155 129,561.4103 129,571.2956 " fill="none" id="step_declarative_undeploy_delete_app_container_app_container_Standard.delete-to-step_declarative_undeploy_delete_app_container_app_container_initial" style="stroke:#0000FF;stroke-width:1.0;"/><polygon fill="#0000FF" points="129,576.329,133,567.329,129,571.329,125,567.329,129,576.329" style="stroke:#0000FF;stroke-width:1.0;"/><rect fill="#FFFFFF" height="240.4883" rx="12.5" ry="12.5" style="stroke:#000000;stroke-width:1.5;" width="181" x="36.5" y="1286"/><rect fill="#FFFFFF" height="208" rx="12.5" ry="12.5" style="stroke:#FFFFFF;stroke-width:1.0;" width="175" x="39.5" y="1315.4883"/><line style="stroke:#000000;stroke-width:1.5;" x1="36.5" x2="217.5" y1="1312.4883" y2="1312.4883"/><text fill="#000000" font-family="sans-serif" font-size="14" lengthAdjust="spacing" textLength="88" x="83" y="1304.5352">stop_server2</text><rect fill="#FFFFFF" height="40" rx="12.5" ry="12.5" style="stroke:#0000FF;stroke-width:1.5;" width="126" x="66" y="1324.4883"/><text fill="#000000" font-family="sans-serif" font-size="14" lengthAdjust="spacing" textLength="116" x="71" y="1349.7793">server2 stopping</text><rect fill="#ADD8E6" height="40" rx="12.5" ry="12.5" style="stroke:#0000FF;stroke-width:1.5;" width="161" x="48.5" y="1400.4883"/><text fill="#000000" font-family="sans-serif" font-size="14" lengthAdjust="spacing" textLength="151" x="53.5" y="1425.7793">server2 Standard.stop</text><rect fill="#FFFFFF" height="40" rx="12.5" ry="12.5" style="stroke:#0000FF;stroke-width:1.5;" width="121" x="68.5" y="1476.4883"/><text fill="#000000" font-family="sans-serif" font-size="14" lengthAdjust="spacing" textLength="111" x="73.5" y="1501.7793">server2 stopped</text><!--MD5=[a17459ab2c03c058b7be8f14e280cb5d]
link step_declarative_undeploy_stop_server2_server2_stopping to step_declarative_undeploy_stop_server2_server2_Standard.stop--><path d="M129,1364.8549 C129,1374.2155 129,1385.4103 129,1395.2956 " fill="none" id="step_declarative_undeploy_stop_server2_server2_stopping-to-step_declarative_undeploy_stop_server2_server2_Standard.stop" style="stroke:#0000FF;stroke-width:1.0;"/><polygon fill="#0000FF" points="129,1400.329,133,1391.329,129,1395.329,125,1391.329,129,1400.329" style="stroke:#0000FF;stroke-width:1.0;"/><!--MD5=[b20702c045f67b047fe5fba347f7b85b]
link step_declarative_undeploy_stop_server2_server2_Standard.stop to step_declarative_undeploy_stop_server2_server2_stopped--><path d="M129,1440.8549 C129,1450.2155 129,1461.4103 129,1471.2956 " fill="none" id="step_declarative_undeploy_stop_server2_server2_Standard.stop-to-step_declarative_undeploy_stop_server2_server2_stopped" style="stroke:#0000FF;stroke-width:1.0;"/><polygon fill="#0000FF" points="129,1476.329,133,1467.329,129,1471.329,125,1467.329,129,1476.329" style="stroke:#0000FF;stroke-width:1.0;"/><rect fill="#FFFFFF" height="240.4883" rx="12.5" ry="12.5" style="stroke:#000000;stroke-width:1.5;" width="193" x="30.5" y="1586"/><rect fill="#FFFFFF" height="208" rx="12.5" ry="12.5" style="stroke:#FFFFFF;stroke-width:1.0;" width="187" x="33.5" y="1615.4883"/><line style="stroke:#000000;stroke-width:1.5;" x1="30.5" x2="223.5" y1="1612.4883" y2="1612.4883"/><text fill="#000000" font-family="sans-serif" font-size="14" lengthAdjust="spacing" textLength="100" x="77" y="1604.5352">delete_server2</text><rect fill="#FFFFFF" height="40" rx="12.5" ry="12.5" style="stroke:#0000FF;stroke-width:1.5;" width="121" x="68.5" y="1624.4883"/><text fill="#000000" font-family="sans-serif" font-size="14" lengthAdjust="spacing" textLength="111" x="73.5" y="1649.7793">server2 deleting</text><rect fill="#ADD8E6" height="40" rx="12.5" ry="12.5" style="stroke:#0000FF;stroke-width:1.5;" width="173" x="42.5" y="1700.4883"/><text fill="#000000" font-family="sans-serif" font-size="14" lengthAdjust="spacing" textLength="163" x="47.5" y="1725.7793">server2 Standard.delete</text><rect fill="#FFFFFF" height="40" rx="12.5" ry="12.5" style="stroke:#0000FF;stroke-width:1.5;" width="103" x="77.5" y="1776.4883"/><text fill="#000000" font-family="sans-serif" font-size="14" lengthAdjust="spacing" textLength="93" x="82.5" y="1801.7793">server2 initial</text><!--MD5=[04dbf16df5ece6479440f4e0048871f8]
link step_declarative_undeploy_delete_server2_server2_deleting to step_declarative_undeploy_delete_server2_server2_Standard.delete--><path d="M129,1664.8549 C129,1674.2155 129,1685.4103 129,1695.2956 " fill="none" id="step_declarative_undeploy_delete_server2_server2_deleting-to-step_declarative_undeploy_delete_server2_server2_Standard.delete" style="stroke:#0000FF;stroke-width:1.0;"/><polygon fill="#0000FF" points="129,1700.329,133,1691.329,129,1695.329,125,1691.329,129,1700.329" style="stroke:#0000FF;stroke-width:1.0;"/><!--MD5=[59e7a8bccc1dd694c962fe3757be5961]
link step_declarative_undeploy_delete_server2_server2_Standard.delete to step_declarative_undeploy_delete_server2_server2_initial--><path d="M129,1740.8549 C129,1750.2155 129,1761.4103 129,1771.2956 " fill="none" id="step_declarative_undeploy_delete_server2_server2_Standard.delete-to-step_declarative_undeploy_delete_server2_server2_initial" style="stroke:#0000FF;stroke-width:1.0;"/><polygon fill="#0000FF" points="129,1776.329,133,1767.329,129,1771.329,125,1767.329,129,1776.329" style="stroke:#0000FF;stroke-width:1.0;"/><!--MD5=[27ddbf5c6828c664542439f273e5bd7a]
link step_declarative_undeploy_stop_db to step_declarative_undeploy_delete_db--><path d="M127,926.2929 C127,944.1733 127,962.6404 127,980.6221 " fill="none" id="step_declarative_undeploy_stop_db-to-step_declarative_undeploy_delete_db" style="stroke:#0000FF;stroke-width:1.0;"/><polygon fill="#0000FF" points="127,985.6801,131,976.6801,127,980.6801,123,976.6801,127,985.6801" style="stroke:#0000FF;stroke-width:1.0;"/><!--MD5=[ce567aa62353a0dcd074754e0c2a5af1]
link step_declarative_undeploy_delete_db to step_declarative_undeploy_stop_server2--><path d="M127,1226.2929 C127,1244.1733 127,1262.6404 127,1280.6221 " fill="none" id="step_declarative_undeploy_delete_db-to-step_declarative_undeploy_stop_server2" style="stroke:#0000FF;stroke-width:1.0;"/><polygon fill="#0000FF" points="127,1285.6801,131,1276.6801,127,1280.6801,123,1276.6801,127,1285.6801" style="stroke:#0000FF;stroke-width:1.0;"/><!--MD5=[67fb890495becb215e32d9e3100dd825]
link step_declarative_undeploy_stop_app_container to step_declarative_undeploy_delete_app_container--><path d="M127,326.2929 C127,344.1733 127,362.6404 127,380.6221 " fill="none" id="step_declarative_undeploy_stop_app_container-to-step_declarative_undeploy_delete_app_container" style="stroke:#0000FF;stroke-width:1.0;"/><polygon fill="#0000FF" points="127,385.6801,131,376.6801,127,380.6801,123,376.6801,127,385.6801" style="stroke:#0000FF;stroke-width:1.0;"/><!--MD5=[ca829cfcffe9144753bf55ba07250e1a]
link step_declarative_undeploy_delete_app_container to step_declarative_undeploy_stop_db--><path d="M127,626.2929 C127,644.1733 127,662.6404 127,680.6221 " fill="none" id="step_declarative_undeploy_delete_app_container-to-step_declarative_undeploy_stop_db" style="stroke:#0000FF;stroke-width:1.0;"/><polygon fill="#0000FF" points="127,685.6801,131,676.6801,127,680.6801,123,676.6801,127,685.6801" style="stroke:#0000FF;stroke-width:1.0;"/><!--MD5=[991eae2b49f33b458c2b95cb19b8f8cc]
link step_declarative_undeploy_stop_server2 to step_declarative_undeploy_delete_server2--><path d="M127,1526.2929 C127,1544.1733 127,1562.6404 127,1580.6221 " fill="none" id="step_declarative_undeploy_stop_server2-to-step_declarative_undeploy_delete_server2" style="stroke:#0000FF;stroke-width:1.0;"/><polygon fill="#0000FF" points="127,1585.6801,131,1576.6801,127,1580.6801,123,1576.6801,127,1585.6801" style="stroke:#0000FF;stroke-width:1.0;"/><!--MD5=[ecc9cc9638b35f3fdff184f44b9049e5]
link *start to step_declarative_undeploy_stop_app_container--><path d="M127,26.2152 C127,37.7525 127,57.9094 127,80.6599 " fill="none" id="*start-to-step_declarative_undeploy_stop_app_container" style="stroke:#0000FF;stroke-width:1.0;"/><polygon fill="#0000FF" points="127,85.8637,131,76.8637,127,80.8637,123,76.8637,127,85.8637" style="stroke:#0000FF;stroke-width:1.0;"/><!--MD5=[4c8fc482345f4aef1c4436eb0b8c357a]
link step_declarative_undeploy_delete_server2 to *end--><path d="M127,1826.0605 C127,1847.7796 127,1867.6166 127,1880.5716 " fill="none" id="step_declarative_undeploy_delete_server2-to-*end" style="stroke:#0000FF;stroke-width:1.0;"/><polygon fill="#0000FF" points="127,1885.6879,131,1876.6879,127,1880.6879,123,1876.6879,127,1885.6879" style="stroke:#0000FF;stroke-width:1.0;"/><!--MD5=[489ad406b33cedceb25e6531c662b848]
@startuml
hide empty description
skinparam shadowing false
skinparam state {
  ArrowColor blue
  BorderColor blue
  EndColor black
  StartColor green
  BackGroundColor<< step >> white
  BorderColor<< step >> black
  BackGroundColor<< delegate >> lightgrey
  BackGroundColor<< set_state >> white
  BackGroundColor<< call_operation >> lightblue
  BackGroundColor<< inline >> white
}
skinparam ActivityBarColor<<fork>> DarkGreen
skinparam ActivityBarColor<<join>> DarkOrange

state "stop_db" as step_declarative_undeploy_stop_db << step >> {
  state "db stopping" as step_declarative_undeploy_stop_db_db_stopping << set_state >>
  state "db Standard.stop" as step_declarative_undeploy_stop_db_db_Standard.stop << call_operation >>
  state "db stopped" as step_declarative_undeploy_stop_db_db_stopped << set_state >>
  step_declarative_undeploy_stop_db_db_stopping - -> step_declarative_undeploy_stop_db_db_Standard.stop
  step_declarative_undeploy_stop_db_db_Standard.stop - -> step_declarative_undeploy_stop_db_db_stopped
}
state "delete_db" as step_declarative_undeploy_delete_db << step >> {
  state "db deleting" as step_declarative_undeploy_delete_db_db_deleting << set_state >>
  state "db Standard.delete" as step_declarative_undeploy_delete_db_db_Standard.delete << call_operation >>
  state "db initial" as step_declarative_undeploy_delete_db_db_initial << set_state >>
  step_declarative_undeploy_delete_db_db_deleting - -> step_declarative_undeploy_delete_db_db_Standard.delete
  step_declarative_undeploy_delete_db_db_Standard.delete - -> step_declarative_undeploy_delete_db_db_initial
}
state "stop_app_container" as step_declarative_undeploy_stop_app_container << step >> {
  state "app_container stopping" as step_declarative_undeploy_stop_app_container_app_container_stopping << set_state >>
  state "app_container Standard.stop" as step_declarative_undeploy_stop_app_container_app_container_Standard.stop << call_operation >>
  state "app_container stopped" as step_declarative_undeploy_stop_app_container_app_container_stopped << set_state >>
  step_declarative_undeploy_stop_app_container_app_container_stopping - -> step_declarative_undeploy_stop_app_container_app_container_Standard.stop
  step_declarative_undeploy_stop_app_container_app_container_Standard.stop - -> step_declarative_undeploy_stop_app_container_app_container_stopped
}
state "delete_app_container" as step_declarative_undeploy_delete_app_container << step >> {
  state "app_container deleting" as step_declarative_undeploy_delete_app_container_app_container_deleting << set_state >>
  state "app_container Standard.delete" as step_declarative_undeploy_delete_app_container_app_container_Standard.delete << call_operation >>
  state "app_container initial" as step_declarative_undeploy_delete_app_container_app_container_initial << set_state >>
  step_declarative_undeploy_delete_app_container_app_container_deleting - -> step_declarative_undeploy_delete_app_container_app_container_Standard.delete
  step_declarative_undeploy_delete_app_container_app_container_Standard.delete - -> step_declarative_undeploy_delete_app_container_app_container_initial
}
state "stop_server2" as step_declarative_undeploy_stop_server2 << step >> {
  state "server2 stopping" as step_declarative_undeploy_stop_server2_server2_stopping << set_state >>
  state "server2 Standard.stop" as step_declarative_undeploy_stop_server2_server2_Standard.stop << call_operation >>
  state "server2 stopped" as step_declarative_undeploy_stop_server2_server2_stopped << set_state >>
  step_declarative_undeploy_stop_server2_server2_stopping - -> step_declarative_undeploy_stop_server2_server2_Standard.stop
  step_declarative_undeploy_stop_server2_server2_Standard.stop - -> step_declarative_undeploy_stop_server2_server2_stopped
}
state "delete_server2" as step_declarative_undeploy_delete_server2 << step >> {
  state "server2 deleting" as step_declarative_undeploy_delete_server2_server2_deleting << set_state >>
  state "server2 Standard.delete" as step_declarative_undeploy_delete_server2_server2_Standard.delete << call_operation >>
  state "server2 initial" as step_declarative_undeploy_delete_server2_server2_initial << set_state >>
  step_declarative_undeploy_delete_server2_server2_deleting - -> step_declarative_undeploy_delete_server2_server2_Standard.delete
  step_declarative_undeploy_delete_server2_server2_Standard.delete - -> step_declarative_undeploy_delete_server2_server2_initial
}
step_declarative_undeploy_stop_db - -> step_declarative_undeploy_delete_db
step_declarative_undeploy_delete_db - -> step_declarative_undeploy_stop_server2
step_declarative_undeploy_stop_app_container - -> step_declarative_undeploy_delete_app_container
step_declarative_undeploy_delete_app_container - -> step_declarative_undeploy_stop_db
step_declarative_undeploy_stop_server2 - -> step_declarative_undeploy_delete_server2
[*] - -> step_declarative_undeploy_stop_app_container
step_declarative_undeploy_delete_server2 - -> [*]
@enduml

PlantUML version 1.2021.13(Mon Nov 01 12:38:45 CET 2021)
(GPL source distribution)
Java Runtime: Java(TM) SE Runtime Environment
JVM: Java HotSpot(TM) 64-Bit Server VM
Default Encoding: UTF-8
Language: fr
Country: FR
--></g></svg>