<?xml version="1.0" encoding="UTF-8" standalone="no"?><svg xmlns="http://www.w3.org/2000/svg" xmlns:xlink="http://www.w3.org/1999/xlink" contentScriptType="application/ecmascript" contentStyleType="text/css" height="2048px" preserveAspectRatio="none" style="width:386px;height:2048px;background:#FFFFFF;" version="1.1" viewBox="0 0 386 2048" width="386px" zoomAndPan="magnify"><defs/><g><rect fill="#FF8C00" height="8" style="stroke:none;stroke-width:1.0;" width="80" x="157.5" y="1354"/><rect fill="#006400" height="8" style="stroke:none;stroke-width:1.0;" width="80" x="156.5" y="386"/><ellipse cx="196.5" cy="16" fill="#008000" rx="10" ry="10" style="stroke:none;stroke-width:1.0;"/><ellipse cx="197.5" cy="2032" rx="10" ry="10" style="stroke:#000000;stroke-width:1.0;fill:none;"/><ellipse cx="198" cy="2032.5" fill="#000000" rx="6" ry="6" style="stroke:none;stroke-width:1.0;"/><rect fill="#FFFFFF" height="240.4883" rx="12.5" ry="12.5" style="stroke:#000000;stroke-width:1.5;" width="156" x="118.5" y="86"/><rect fill="#FFFFFF" height="208" rx="12.5" ry="12.5" style="stroke:#FFFFFF;stroke-width:1.0;" width="150" x="121.5" y="115.4883"/><line style="stroke:#000000;stroke-width:1.5;" x1="118.5" x2="274.5" y1="112.4883" y2="112.4883"/><text fill="#000000" font-family="sans-serif" font-size="14" lengthAdjust="spacing" textLength="63" x="165" y="104.5352">stop_app</text><rect fill="#FFFFFF" height="40" rx="12.5" ry="12.5" style="stroke:#0000FF;stroke-width:1.5;" width="101" x="148" y="124.4883"/><text fill="#000000" font-family="sans-serif" font-size="14" lengthAdjust="spacing" textLength="91" x="153" y="149.7793">app stopping</text><rect fill="#ADD8E6" height="40" rx="12.5" ry="12.5" style="stroke:#0000FF;stroke-width:1.5;" width="136" x="130.5" y="200.4883"/><text fill="#000000" font-family="sans-serif" font-size="14" lengthAdjust="spacing" textLength="126" x="135.5" y="225.7793">app Standard.stop</text><rect fill="#FFFFFF" height="40" rx="12.5" ry="12.5" style="stroke:#0000FF;stroke-width:1.5;" width="96" x="150.5" y="276.4883"/><text fill="#000000" font-family="sans-serif" font-size="14" lengthAdjust="spacing" textLength="86" x="155.5" y="301.7793">app stopped</text><!--MD5=[3fd27f831c5e383d39a99b9273925e19]
link step_parallel_undeploy_stop_app_app_stopping to step_parallel_undeploy_stop_app_app_Standard.stop--><path d="M198.5,164.8549 C198.5,174.2155 198.5,185.4103 198.5,195.2956 " fill="none" id="step_parallel_undeploy_stop_app_app_stopping-to-step_parallel_undeploy_stop_app_app_Standard.stop" style="stroke:#0000FF;stroke-width:1.0;"/><polygon fill="#0000FF" points="198.5,200.329,202.5,191.329,198.5,195.329,194.5,191.329,198.5,200.329" style="stroke:#0000FF;stroke-width:1.0;"/><!--MD5=[f4ad337ec1e825e7f419ecf38e60e813]
link step_parallel_undeploy_stop_app_app_Standard.stop to step_parallel_undeploy_stop_app_app_stopped--><path d="M198.5,240.8549 C198.5,250.2155 198.5,261.4103 198.5,271.2956 " fill="none" id="step_parallel_undeploy_stop_app_app_Standard.stop-to-step_parallel_undeploy_stop_app_app_stopped" style="stroke:#0000FF;stroke-width:1.0;"/><polygon fill="#0000FF" points="198.5,276.329,202.5,267.329,198.5,271.329,194.5,267.329,198.5,276.329" style="stroke:#0000FF;stroke-width:1.0;"/><rect fill="#FFFFFF" height="240.4883" rx="12.5" ry="12.5" style="stroke:#000000;stroke-width:1.5;" width="168" x="44.5" y="454"/><rect fill="#FFFFFF" height="208" rx="12.5" ry="12.5" style="stroke:#FFFFFF;stroke-width:1.0;" width="162" x="47.5" y="483.4883"/><line style="stroke:#000000;stroke-width:1.5;" x1="44.5" x2="212.5" y1="480.4883" y2="480.4883"/><text fill="#000000" font-family="sans-serif" font-size="14" lengthAdjust="spacing" textLength="75" x="91" y="472.5352">delete_app</text><rect fill="#FFFFFF" height="40" rx="12.5" ry="12.5" style="stroke:#0000FF;stroke-width:1.5;" width="96" x="82.5" y="492.4883"/><text fill="#000000" font-family="sans-serif" font-size="14" lengthAdjust="spacing" textLength="86" x="87.5" y="517.7793">app deleting</text><rect fill="#ADD8E6" height="40" rx="12.5" ry="12.5" style="stroke:#0000FF;stroke-width:1.5;" width="148" x="56.5" y="568.4883"/><text fill="#000000" font-family="sans-serif" font-size="14" lengthAdjust="spacing" textLength="138" x="61.5" y="593.7793">app Standard.delete</text><rect fill="#FFFFFF" height="40" rx="12.5" ry="12.5" style="stroke:#0000FF;stroke-width:1.5;" width="78" x="91.5" y="644.4883"/><text fill="#000000" font-family="sans-serif" font-size="14" lengthAdjust="spacing" textLength="68" x="96.5" y="669.7793">app initial</text><!--MD5=[4f6641017e4211bd102a3d466ebab0f7]
link step_parallel_undeploy_delete_app_app_deleting to step_parallel_undeploy_delete_app_app_Standard.delete--><path d="M130.5,532.8549 C130.5,542.2155 130.5,553.4103 130.5,563.2956 " fill="none" id="step_parallel_undeploy_delete_app_app_deleting-to-step_parallel_undeploy_delete_app_app_Standard.delete" style="stroke:#0000FF;stroke-width:1.0;"/><polygon fill="#0000FF" points="130.5,568.329,134.5,559.329,130.5,563.329,126.5,559.329,130.5,568.329" style="stroke:#0000FF;stroke-width:1.0;"/><!--MD5=[21a8f6be9aa3e734ecfc52a25042b48d]
link step_parallel_undeploy_delete_app_app_Standard.delete to step_parallel_undeploy_delete_app_app_initial--><path d="M130.5,608.8549 C130.5,618.2155 130.5,629.4103 130.5,639.2956 " fill="none" id="step_parallel_undeploy_delete_app_app_Standard.delete-to-step_parallel_undeploy_delete_app_app_initial" style="stroke:#0000FF;stroke-width:1.0;"/><polygon fill="#0000FF" points="130.5,644.329,134.5,635.329,130.5,639.329,126.5,635.329,130.5,644.329" style="stroke:#0000FF;stroke-width:1.0;"/><rect fill="#FFFFFF" height="240.4883" rx="12.5" ry="12.5" style="stroke:#000000;stroke-width:1.5;" width="148" x="222.5" y="754"/><rect fill="#FFFFFF" height="208" rx="12.5" ry="12.5" style="stroke:#FFFFFF;stroke-width:1.0;" width="142" x="225.5" y="783.4883"/><line style="stroke:#000000;stroke-width:1.5;" x1="222.5" x2="370.5" y1="780.4883" y2="780.4883"/><text fill="#000000" font-family="sans-serif" font-size="14" lengthAdjust="spacing" textLength="55" x="269" y="772.5352">stop_db</text><rect fill="#FFFFFF" height="40" rx="12.5" ry="12.5" style="stroke:#0000FF;stroke-width:1.5;" width="93" x="252" y="792.4883"/><text fill="#000000" font-family="sans-serif" font-size="14" lengthAdjust="spacing" textLength="83" x="257" y="817.7793">db stopping</text><rect fill="#ADD8E6" height="40" rx="12.5" ry="12.5" style="stroke:#0000FF;stroke-width:1.5;" width="128" x="234.5" y="868.4883"/><text fill="#000000" font-family="sans-serif" font-size="14" lengthAdjust="spacing" textLength="118" x="239.5" y="893.7793">db Standard.stop</text><rect fill="#FFFFFF" height="40" rx="12.5" ry="12.5" style="stroke:#0000FF;stroke-width:1.5;" width="88" x="254.5" y="944.4883"/><text fill="#000000" font-family="sans-serif" font-size="14" lengthAdjust="spacing" textLength="78" x="259.5" y="969.7793">db stopped</text><!--MD5=[eb98d17d2243a01a06d3f39e43fc2cd3]
link step_parallel_undeploy_stop_db_db_stopping to step_parallel_undeploy_stop_db_db_Standard.stop--><path d="M298.5,832.8549 C298.5,842.2155 298.5,853.4103 298.5,863.2956 " fill="none" id="step_parallel_undeploy_stop_db_db_stopping-to-step_parallel_undeploy_stop_db_db_Standard.stop" style="stroke:#0000FF;stroke-width:1.0;"/><polygon fill="#0000FF" points="298.5,868.329,302.5,859.329,298.5,863.329,294.5,859.329,298.5,868.329" style="stroke:#0000FF;stroke-width:1.0;"/><!--MD5=[6d951a2cc27f3b9977f42c308e03a23b]
link step_parallel_undeploy_stop_db_db_Standard.stop to step_parallel_undeploy_stop_db_db_stopped--><path d="M298.5,908.8549 C298.5,918.2155 298.5,929.4103 298.5,939.2956 " fill="none" id="step_parallel_undeploy_stop_db_db_Standard.stop-to-step_parallel_undeploy_stop_db_db_stopped" style="stroke:#0000FF;stroke-width:1.0;"/><polygon fill="#0000FF" points="298.5,944.329,302.5,935.329,298.5,939.329,294.5,935.329,298.5,944.329" style="stroke:#0000FF;stroke-width:1.0;"/><rect fill="#FFFFFF" height="240.4883" rx="12.5" ry="12.5" style="stroke:#000000;stroke-width:1.5;" width="160" x="219.5" y="1054"/><rect fill="#FFFFFF" height="208" rx="12.5" ry="12.5" style="stroke:#FFFFFF;stroke-width:1.0;" width="154" x="222.5" y="1083.4883"/><line style="stroke:#000000;stroke-width:1.5;" x1="219.5" x2="379.5" y1="1080.4883" y2="1080.4883"/><text fill="#000000" font-family="sans-serif" font-size="14" lengthAdjust="spacing" textLength="67" x="266" y="1072.5352">delete_db</text><rect fill="#FFFFFF" height="40" rx="12.5" ry="12.5" style="stroke:#0000FF;stroke-width:1.5;" width="88" x="257.5" y="1092.4883"/><text fill="#000000" font-family="sans-serif" font-size="14" lengthAdjust="spacing" textLength="78" x="262.5" y="1117.7793">db deleting</text><rect fill="#ADD8E6" height="40" rx="12.5" ry="12.5" style="stroke:#0000FF;stroke-width:1.5;" width="140" x="231.5" y="1168.4883"/><text fill="#000000" font-family="sans-serif" font-size="14" lengthAdjust="spacing" textLength="130" x="236.5" y="1193.7793">db Standard.delete</text><rect fill="#FFFFFF" height="40" rx="12.5" ry="12.5" style="stroke:#0000FF;stroke-width:1.5;" width="70" x="266.5" y="1244.4883"/><text fill="#000000" font-family="sans-serif" font-size="14" lengthAdjust="spacing" textLength="60" x="271.5" y="1269.7793">db initial</text><!--MD5=[c4dd7ba936f71370905790bb45b92687]
link step_parallel_undeploy_delete_db_db_deleting to step_parallel_undeploy_delete_db_db_Standard.delete--><path d="M301.5,1132.8549 C301.5,1142.2155 301.5,1153.4103 301.5,1163.2956 " fill="none" id="step_parallel_undeploy_delete_db_db_deleting-to-step_parallel_undeploy_delete_db_db_Standard.delete" style="stroke:#0000FF;stroke-width:1.0;"/><polygon fill="#0000FF" points="301.5,1168.329,305.5,1159.329,301.5,1163.329,297.5,1159.329,301.5,1168.329" style="stroke:#0000FF;stroke-width:1.0;"/><!--MD5=[2f8f354716939e09bdf3d9609ef6cda7]
link step_parallel_undeploy_delete_db_db_Standard.delete to step_parallel_undeploy_delete_db_db_initial--><path d="M301.5,1208.8549 C301.5,1218.2155 301.5,1229.4103 301.5,1239.2956 " fill="none" id="step_parallel_undeploy_delete_db_db_Standard.delete-to-step_parallel_undeploy_delete_db_db_initial" style="stroke:#0000FF;stroke-width:1.0;"/><polygon fill="#0000FF" points="301.5,1244.329,305.5,1235.329,301.5,1239.329,297.5,1235.329,301.5,1244.329" style="stroke:#0000FF;stroke-width:1.0;"/><rect fill="#FFFFFF" height="240.4883" rx="12.5" ry="12.5" style="stroke:#000000;stroke-width:1.5;" width="165" x="19" y="754"/><rect fill="#FFFFFF" height="208" rx="12.5" ry="12.5" style="stroke:#FFFFFF;stroke-width:1.0;" width="159" x="22" y="783.4883"/><line style="stroke:#000000;stroke-width:1.5;" x1="19" x2="184" y1="780.4883" y2="780.4883"/><text fill="#000000" font-family="sans-serif" font-size="14" lengthAdjust="spacing" textLength="72" x="65.5" y="772.5352">stop_node</text><rect fill="#FFFFFF" height="40" rx="12.5" ry="12.5" style="stroke:#0000FF;stroke-width:1.5;" width="110" x="48.5" y="792.4883"/><text fill="#000000" font-family="sans-serif" font-size="14" lengthAdjust="spacing" textLength="100" x="53.5" y="817.7793">node stopping</text><rect fill="#ADD8E6" height="40" rx="12.5" ry="12.5" style="stroke:#0000FF;stroke-width:1.5;" width="145" x="31" y="868.4883"/><text fill="#000000" font-family="sans-serif" font-size="14" lengthAdjust="spacing" textLength="135" x="36" y="893.7793">node Standard.stop</text><rect fill="#FFFFFF" height="40" rx="12.5" ry="12.5" style="stroke:#0000FF;stroke-width:1.5;" width="105" x="51" y="944.4883"/><text fill="#000000" font-family="sans-serif" font-size="14" lengthAdjust="spacing" textLength="95" x="56" y="969.7793">node stopped</text><!--MD5=[6640a0a37fa2d293a2ae4cb8955da274]
link step_parallel_undeploy_stop_node_node_stopping to step_parallel_undeploy_stop_node_node_Standard.stop--><path d="M103.5,832.8549 C103.5,842.2155 103.5,853.4103 103.5,863.2956 " fill="none" id="step_parallel_undeploy_stop_node_node_stopping-to-step_parallel_undeploy_stop_node_node_Standard.stop" style="stroke:#0000FF;stroke-width:1.0;"/><polygon fill="#0000FF" points="103.5,868.329,107.5,859.329,103.5,863.329,99.5,859.329,103.5,868.329" style="stroke:#0000FF;stroke-width:1.0;"/><!--MD5=[0d658201e704a66eb61924f9fa925b8e]
link step_parallel_undeploy_stop_node_node_Standard.stop to step_parallel_undeploy_stop_node_node_stopped--><path d="M103.5,908.8549 C103.5,918.2155 103.5,929.4103 103.5,939.2956 " fill="none" id="step_parallel_undeploy_stop_node_node_Standard.stop-to-step_parallel_undeploy_stop_node_node_stopped" style="stroke:#0000FF;stroke-width:1.0;"/><polygon fill="#0000FF" points="103.5,944.329,107.5,935.329,103.5,939.329,99.5,935.329,103.5,944.329" style="stroke:#0000FF;stroke-width:1.0;"/><rect fill="#FFFFFF" height="240.4883" rx="12.5" ry="12.5" style="stroke:#000000;stroke-width:1.5;" width="177" x="7" y="1054"/><rect fill="#FFFFFF" height="208" rx="12.5" ry="12.5" style="stroke:#FFFFFF;stroke-width:1.0;" width="171" x="10" y="1083.4883"/><line style="stroke:#000000;stroke-width:1.5;" x1="7" x2="184" y1="1080.4883" y2="1080.4883"/><text fill="#000000" font-family="sans-serif" font-size="14" lengthAdjust="spacing" textLength="84" x="53.5" y="1072.5352">delete_node</text><rect fill="#FFFFFF" height="40" rx="12.5" ry="12.5" style="stroke:#0000FF;stroke-width:1.5;" width="105" x="45" y="1092.4883"/><text fill="#000000" font-family="sans-serif" font-size="14" lengthAdjust="spacing" textLength="95" x="50" y="1117.7793">node deleting</text><rect fill="#ADD8E6" height="40" rx="12.5" ry="12.5" style="stroke:#0000FF;stroke-width:1.5;" width="157" x="19" y="1168.4883"/><text fill="#000000" font-family="sans-serif" font-size="14" lengthAdjust="spacing" textLength="147" x="24" y="1193.7793">node Standard.delete</text><rect fill="#FFFFFF" height="40" rx="12.5" ry="12.5" style="stroke:#0000FF;stroke-width:1.5;" width="87" x="54" y="1244.4883"/><text fill="#000000" font-family="sans-serif" font-size="14" lengthAdjust="spacing" textLength="77" x="59" y="1269.7793">node initial</text><!--MD5=[031dfa6d1694c38b58dc00eb6fb39a0e]
link step_parallel_undeploy_delete_node_node_deleting to step_parallel_undeploy_delete_node_node_Standard.delete--><path d="M97.5,1132.8549 C97.5,1142.2155 97.5,1153.4103 97.5,1163.2956 " fill="none" id="step_parallel_undeploy_delete_node_node_deleting-to-step_parallel_undeploy_delete_node_node_Standard.delete" style="stroke:#0000FF;stroke-width:1.0;"/><polygon fill="#0000FF" points="97.5,1168.329,101.5,1159.329,97.5,1163.329,93.5,1159.329,97.5,1168.329" style="stroke:#0000FF;stroke-width:1.0;"/><!--MD5=[92907bac27d3cb74284549f47e3b1aeb]
link step_parallel_undeploy_delete_node_node_Standard.delete to step_parallel_undeploy_delete_node_node_initial--><path d="M97.5,1208.8549 C97.5,1218.2155 97.5,1229.4103 97.5,1239.2956 " fill="none" id="step_parallel_undeploy_delete_node_node_Standard.delete-to-step_parallel_undeploy_delete_node_node_initial" style="stroke:#0000FF;stroke-width:1.0;"/><polygon fill="#0000FF" points="97.5,1244.329,101.5,1235.329,97.5,1239.329,93.5,1235.329,97.5,1244.329" style="stroke:#0000FF;stroke-width:1.0;"/><rect fill="#FFFFFF" height="240.4883" rx="12.5" ry="12.5" style="stroke:#000000;stroke-width:1.5;" width="181" x="107" y="1422"/><rect fill="#FFFFFF" height="208" rx="12.5" ry="12.5" style="stroke:#FFFFFF;stroke-width:1.0;" width="175" x="110" y="1451.4883"/><line style="stroke:#000000;stroke-width:1.5;" x1="107" x2="288" y1="1448.4883" y2="1448.4883"/><text fill="#000000" font-family="sans-serif" font-size="14" lengthAdjust="spacing" textLength="88" x="153.5" y="1440.5352">stop_server1</text><rect fill="#FFFFFF" height="40" rx="12.5" ry="12.5" style="stroke:#0000FF;stroke-width:1.5;" width="126" x="136.5" y="1460.4883"/><text fill="#000000" font-family="sans-serif" font-size="14" lengthAdjust="spacing" textLength="116" x="141.5" y="1485.7793">server1 stopping</text><rect fill="#ADD8E6" height="40" rx="12.5" ry="12.5" style="stroke:#0000FF;stroke-width:1.5;" width="161" x="119" y="1536.4883"/><text fill="#000000" font-family="sans-serif" font-size="14" lengthAdjust="spacing" textLength="151" x="124" y="1561.7793">server1 Standard.stop</text><rect fill="#FFFFFF" height="40" rx="12.5" ry="12.5" style="stroke:#0000FF;stroke-width:1.5;" width="121" x="139" y="1612.4883"/><text fill="#000000" font-family="sans-serif" font-size="14" lengthAdjust="spacing" textLength="111" x="144" y="1637.7793">server1 stopped</text><!--MD5=[d1a34df5fab997dae4011e7b35c3e838]
link step_parallel_undeploy_stop_server1_server1_stopping to step_parallel_undeploy_stop_server1_server1_Standard.stop--><path d="M199.5,1500.8549 C199.5,1510.2155 199.5,1521.4103 199.5,1531.2956 " fill="none" id="step_parallel_undeploy_stop_server1_server1_stopping-to-step_parallel_undeploy_stop_server1_server1_Standard.stop" style="stroke:#0000FF;stroke-width:1.0;"/><polygon fill="#0000FF" points="199.5,1536.329,203.5,1527.329,199.5,1531.329,195.5,1527.329,199.5,1536.329" style="stroke:#0000FF;stroke-width:1.0;"/><!--MD5=[5b186e8666b5843a1f90459d66171118]
link step_parallel_undeploy_stop_server1_server1_Standard.stop to step_parallel_undeploy_stop_server1_server1_stopped--><path d="M199.5,1576.8549 C199.5,1586.2155 199.5,1597.4103 199.5,1607.2956 " fill="none" id="step_parallel_undeploy_stop_server1_server1_Standard.stop-to-step_parallel_undeploy_stop_server1_server1_stopped" style="stroke:#0000FF;stroke-width:1.0;"/><polygon fill="#0000FF" points="199.5,1612.329,203.5,1603.329,199.5,1607.329,195.5,1603.329,199.5,1612.329" style="stroke:#0000FF;stroke-width:1.0;"/><rect fill="#FFFFFF" height="240.4883" rx="12.5" ry="12.5" style="stroke:#000000;stroke-width:1.5;" width="193" x="101" y="1722"/><rect fill="#FFFFFF" height="208" rx="12.5" ry="12.5" style="stroke:#FFFFFF;stroke-width:1.0;" width="187" x="104" y="1751.4883"/><line style="stroke:#000000;stroke-width:1.5;" x1="101" x2="294" y1="1748.4883" y2="1748.4883"/><text fill="#000000" font-family="sans-serif" font-size="14" lengthAdjust="spacing" textLength="100" x="147.5" y="1740.5352">delete_server1</text><rect fill="#FFFFFF" height="40" rx="12.5" ry="12.5" style="stroke:#0000FF;stroke-width:1.5;" width="121" x="139" y="1760.4883"/><text fill="#000000" font-family="sans-serif" font-size="14" lengthAdjust="spacing" textLength="111" x="144" y="1785.7793">server1 deleting</text><rect fill="#ADD8E6" height="40" rx="12.5" ry="12.5" style="stroke:#0000FF;stroke-width:1.5;" width="173" x="113" y="1836.4883"/><text fill="#000000" font-family="sans-serif" font-size="14" lengthAdjust="spacing" textLength="163" x="118" y="1861.7793">server1 Standard.delete</text><rect fill="#FFFFFF" height="40" rx="12.5" ry="12.5" style="stroke:#0000FF;stroke-width:1.5;" width="103" x="148" y="1912.4883"/><text fill="#000000" font-family="sans-serif" font-size="14" lengthAdjust="spacing" textLength="93" x="153" y="1937.7793">server1 initial</text><!--MD5=[fd22c4c4583b2ad8cf16213dd833cf4b]
link step_parallel_undeploy_delete_server1_server1_deleting to step_parallel_undeploy_delete_server1_server1_Standard.delete--><path d="M199.5,1800.8549 C199.5,1810.2155 199.5,1821.4103 199.5,1831.2956 " fill="none" id="step_parallel_undeploy_delete_server1_server1_deleting-to-step_parallel_undeploy_delete_server1_server1_Standard.delete" style="stroke:#0000FF;stroke-width:1.0;"/><polygon fill="#0000FF" points="199.5,1836.329,203.5,1827.329,199.5,1831.329,195.5,1827.329,199.5,1836.329" style="stroke:#0000FF;stroke-width:1.0;"/><!--MD5=[a9bd5dc70c358066e75b4ecf6842ce01]
link step_parallel_undeploy_delete_server1_server1_Standard.delete to step_parallel_undeploy_delete_server1_server1_initial--><path d="M199.5,1876.8549 C199.5,1886.2155 199.5,1897.4103 199.5,1907.2956 " fill="none" id="step_parallel_undeploy_delete_server1_server1_Standard.delete-to-step_parallel_undeploy_delete_server1_server1_initial" style="stroke:#0000FF;stroke-width:1.0;"/><polygon fill="#0000FF" points="199.5,1912.329,203.5,1903.329,199.5,1907.329,195.5,1903.329,199.5,1912.329" style="stroke:#0000FF;stroke-width:1.0;"/><!--MD5=[1f1a347eb1cb35f8f3f6641693638a92]
link step_parallel_undeploy_stop_server1_join to step_parallel_undeploy_stop_server1--><path d="M197.5,1362.1888 C197.5,1370.7786 197.5,1391.6672 197.5,1416.2952 " fill="none" id="step_parallel_undeploy_stop_server1_join-to-step_parallel_undeploy_stop_server1" style="stroke:#0000FF;stroke-width:1.0;"/><polygon fill="#0000FF" points="197.5,1421.6042,201.5,1412.6042,197.5,1416.6042,193.5,1412.6042,197.5,1421.6042" style="stroke:#0000FF;stroke-width:1.0;"/><!--MD5=[5ec35d36b44053829cbd4e56439f9217]
link step_parallel_undeploy_stop_app to step_parallel_undeploy_stop_app_fork--><path d="M196.5,326.1621 C196.5,349.157 196.5,369.5541 196.5,380.8003 " fill="none" id="step_parallel_undeploy_stop_app-to-step_parallel_undeploy_stop_app_fork" style="stroke:#0000FF;stroke-width:1.0;"/><polygon fill="#0000FF" points="196.5,385.8126,200.5,376.8126,196.5,380.8126,192.5,376.8126,196.5,385.8126" style="stroke:#0000FF;stroke-width:1.0;"/><!--MD5=[6fbdcd32817ee59c813590b91dba3ad9]
link step_parallel_undeploy_stop_app_fork to step_parallel_undeploy_delete_app--><path d="M194.952,394.1888 C191.7642,402.8146 183.9931,423.8422 174.8418,448.6045 " fill="none" id="step_parallel_undeploy_stop_app_fork-to-step_parallel_undeploy_delete_app" style="stroke:#0000FF;stroke-width:1.0;"/><polygon fill="#0000FF" points="172.9941,453.6042,179.8662,446.5491,174.7275,448.9143,172.3623,443.7756,172.9941,453.6042" style="stroke:#0000FF;stroke-width:1.0;"/><!--MD5=[25c2f9a9e5f3f587a22628f384ac871f]
link step_parallel_undeploy_stop_app_fork to step_parallel_undeploy_stop_db--><path d="M199.2344,394.1389 C205.6314,404.0302 221.6253,430.0068 229.5,454 C261.1067,550.3009 278.0815,664.0815 287.0284,748.9099 " fill="none" id="step_parallel_undeploy_stop_app_fork-to-step_parallel_undeploy_stop_db" style="stroke:#0000FF;stroke-width:1.0;"/><polygon fill="#0000FF" points="287.5536,753.9445,290.5981,744.578,287.0347,748.9715,282.6413,745.4082,287.5536,753.9445" style="stroke:#0000FF;stroke-width:1.0;"/><!--MD5=[0c0fb70942371b99f96267cd7fb2c37a]
link step_parallel_undeploy_delete_app to step_parallel_undeploy_stop_node--><path d="M117.6736,694.2929 C116.0644,712.1733 114.4024,730.6404 112.784,748.6221 " fill="none" id="step_parallel_undeploy_delete_app-to-step_parallel_undeploy_stop_node" style="stroke:#0000FF;stroke-width:1.0;"/><polygon fill="#0000FF" points="112.3288,753.6801,117.1196,745.075,112.7771,748.7002,109.1518,744.3577,112.3288,753.6801" style="stroke:#0000FF;stroke-width:1.0;"/><!--MD5=[f9bc422e6d6b7ff675c389421cc86b1c]
link step_parallel_undeploy_stop_db to step_parallel_undeploy_delete_db--><path d="M297.7029,994.2929 C297.8817,1012.1733 298.0664,1030.6404 298.2462,1048.6221 " fill="none" id="step_parallel_undeploy_stop_db-to-step_parallel_undeploy_delete_db" style="stroke:#0000FF;stroke-width:1.0;"/><polygon fill="#0000FF" points="298.2968,1053.6801,302.2063,1044.6404,298.2467,1048.6804,294.2067,1044.7207,298.2968,1053.6801" style="stroke:#0000FF;stroke-width:1.0;"/><!--MD5=[7c5aca013f2f60aa91841a77b5b6280b]
link step_parallel_undeploy_delete_db to step_parallel_undeploy_stop_server1_join--><path d="M232.8884,1294.1621 C219.9074,1317.5789 208.4197,1338.3017 202.2618,1349.4101 " fill="none" id="step_parallel_undeploy_delete_db-to-step_parallel_undeploy_stop_server1_join" style="stroke:#0000FF;stroke-width:1.0;"/><polygon fill="#0000FF" points="199.8213,1353.8126,207.6834,1347.8807,202.2456,1349.4396,200.6866,1344.0018,199.8213,1353.8126" style="stroke:#0000FF;stroke-width:1.0;"/><!--MD5=[def9cb364b7a1e083fface716610b2c4]
link step_parallel_undeploy_stop_node to step_parallel_undeploy_delete_node--><path d="M99.0941,994.2929 C98.7365,1012.1733 98.3672,1030.6404 98.0076,1048.6221 " fill="none" id="step_parallel_undeploy_stop_node-to-step_parallel_undeploy_delete_node" style="stroke:#0000FF;stroke-width:1.0;"/><polygon fill="#0000FF" points="97.9064,1053.6801,102.0859,1044.762,98.0065,1048.6811,94.0875,1044.6018,97.9064,1053.6801" style="stroke:#0000FF;stroke-width:1.0;"/><!--MD5=[9cd30619638e6a8d9efc2481cf052278]
link step_parallel_undeploy_delete_node to step_parallel_undeploy_stop_server1_join--><path d="M162.1116,1294.1621 C175.0926,1317.5789 186.5803,1338.3017 192.7382,1349.4101 " fill="none" id="step_parallel_undeploy_delete_node-to-step_parallel_undeploy_stop_server1_join" style="stroke:#0000FF;stroke-width:1.0;"/><polygon fill="#0000FF" points="195.1787,1353.8126,194.3134,1344.0018,192.7544,1349.4396,187.3166,1347.8807,195.1787,1353.8126" style="stroke:#0000FF;stroke-width:1.0;"/><!--MD5=[62c93856b95dc4a77a7e332c0373fb77]
link step_parallel_undeploy_stop_server1 to step_parallel_undeploy_delete_server1--><path d="M197.5,1662.2929 C197.5,1680.1733 197.5,1698.6404 197.5,1716.6221 " fill="none" id="step_parallel_undeploy_stop_server1-to-step_parallel_undeploy_delete_server1" style="stroke:#0000FF;stroke-width:1.0;"/><polygon fill="#0000FF" points="197.5,1721.6801,201.5,1712.6801,197.5,1716.6801,193.5,1712.6801,197.5,1721.6801" style="stroke:#0000FF;stroke-width:1.0;"/><!--MD5=[6db18194911fb33bb470800355e0fae7]
link *start to step_parallel_undeploy_stop_app--><path d="M196.5,26.2152 C196.5,37.7525 196.5,57.9094 196.5,80.6599 " fill="none" id="*start-to-step_parallel_undeploy_stop_app" style="stroke:#0000FF;stroke-width:1.0;"/><polygon fill="#0000FF" points="196.5,85.8637,200.5,76.8637,196.5,80.8637,192.5,76.8637,196.5,85.8637" style="stroke:#0000FF;stroke-width:1.0;"/><!--MD5=[8927269f4c85263773ab4b9d8a181531]
link step_parallel_undeploy_delete_server1 to *end--><path d="M197.5,1962.0605 C197.5,1983.7796 197.5,2003.6166 197.5,2016.5716 " fill="none" id="step_parallel_undeploy_delete_server1-to-*end" style="stroke:#0000FF;stroke-width:1.0;"/><polygon fill="#0000FF" points="197.5,2021.6879,201.5,2012.6879,197.5,2016.6879,193.5,2012.6879,197.5,2021.6879" style="stroke:#0000FF;stroke-width:1.0;"/><!--MD5=[942908fecd1048fd35012b5e3eb81aac]
@startuml
hide empty description
skinparam shadowing false
skinparam state {
  ArrowColor blue
  BorderColor blue
  EndColor black
  StartColor green
  BackGroundColor<< step >> white
  BorderColor<< step >> black
  BackGroundColor<< delegate >> lightgrey
  BackGroundColor<< set_state >> white
  BackGroundColor<< call_operation >> lightblue
  BackGroundColor<< inline >> white
}
skinparam ActivityBarColor<<fork>> DarkGreen
skinparam ActivityBarColor<<join>> DarkOrange

state "stop_app" as step_parallel_undeploy_stop_app << step >> {
  state "app stopping" as step_parallel_undeploy_stop_app_app_stopping << set_state >>
  state "app Standard.stop" as step_parallel_undeploy_stop_app_app_Standard.stop << call_operation >>
  state "app stopped" as step_parallel_undeploy_stop_app_app_stopped << set_state >>
  step_parallel_undeploy_stop_app_app_stopping - -> step_parallel_undeploy_stop_app_app_Standard.stop
  step_parallel_undeploy_stop_app_app_Standard.stop - -> step_parallel_undeploy_stop_app_app_stopped
}
state "delete_app" as step_parallel_undeploy_delete_app << step >> {
  state "app deleting" as step_parallel_undeploy_delete_app_app_deleting << set_state >>
  state "app Standard.delete" as step_parallel_undeploy_delete_app_app_Standard.delete << call_operation >>
  state "app initial" as step_parallel_undeploy_delete_app_app_initial << set_state >>
  step_parallel_undeploy_delete_app_app_deleting - -> step_parallel_undeploy_delete_app_app_Standard.delete
  step_parallel_undeploy_delete_app_app_Standard.delete - -> step_parallel_undeploy_delete_app_app_initial
}
state "stop_db" as step_parallel_undeploy_stop_db << step >> {
  state "db stopping" as step_parallel_undeploy_stop_db_db_stopping << set_state >>
  state "db Standard.stop" as step_parallel_undeploy_stop_db_db_Standard.stop << call_operation >>
  state "db stopped" as step_parallel_undeploy_stop_db_db_stopped << set_state >>
  step_parallel_undeploy_stop_db_db_stopping - -> step_parallel_undeploy_stop_db_db_Standard.stop
  step_parallel_undeploy_stop_db_db_Standard.stop - -> step_parallel_undeploy_stop_db_db_stopped
}
state "delete_db" as step_parallel_undeploy_delete_db << step >> {
  state "db deleting" as step_parallel_undeploy_delete_db_db_deleting << set_state >>
  state "db Standard.delete" as step_parallel_undeploy_delete_db_db_Standard.delete << call_operation >>
  state "db initial" as step_parallel_undeploy_delete_db_db_initial << set_state >>
  step_parallel_undeploy_delete_db_db_deleting - -> step_parallel_undeploy_delete_db_db_Standard.delete
  step_parallel_undeploy_delete_db_db_Standard.delete - -> step_parallel_undeploy_delete_db_db_initial
}
state "stop_node" as step_parallel_undeploy_stop_node << step >> {
  state "node stopping" as step_parallel_undeploy_stop_node_node_stopping << set_state >>
  state "node Standard.stop" as step_parallel_undeploy_stop_node_node_Standard.stop << call_operation >>
  state "node stopped" as step_parallel_undeploy_stop_node_node_stopped << set_state >>
  step_parallel_undeploy_stop_node_node_stopping - -> step_parallel_undeploy_stop_node_node_Standard.stop
  step_parallel_undeploy_stop_node_node_Standard.stop - -> step_parallel_undeploy_stop_node_node_stopped
}
state "delete_node" as step_parallel_undeploy_delete_node << step >> {
  state "node deleting" as step_parallel_undeploy_delete_node_node_deleting << set_state >>
  state "node Standard.delete" as step_parallel_undeploy_delete_node_node_Standard.delete << call_operation >>
  state "node initial" as step_parallel_undeploy_delete_node_node_initial << set_state >>
  step_parallel_undeploy_delete_node_node_deleting - -> step_parallel_undeploy_delete_node_node_Standard.delete
  step_parallel_undeploy_delete_node_node_Standard.delete - -> step_parallel_undeploy_delete_node_node_initial
}
state "stop_server1" as step_parallel_undeploy_stop_server1 << step >> {
  state "server1 stopping" as step_parallel_undeploy_stop_server1_server1_stopping << set_state >>
  state "server1 Standard.stop" as step_parallel_undeploy_stop_server1_server1_Standard.stop << call_operation >>
  state "server1 stopped" as step_parallel_undeploy_stop_server1_server1_stopped << set_state >>
  step_parallel_undeploy_stop_server1_server1_stopping - -> step_parallel_undeploy_stop_server1_server1_Standard.stop
  step_parallel_undeploy_stop_server1_server1_Standard.stop - -> step_parallel_undeploy_stop_server1_server1_stopped
}
state "delete_server1" as step_parallel_undeploy_delete_server1 << step >> {
  state "server1 deleting" as step_parallel_undeploy_delete_server1_server1_deleting << set_state >>
  state "server1 Standard.delete" as step_parallel_undeploy_delete_server1_server1_Standard.delete << call_operation >>
  state "server1 initial" as step_parallel_undeploy_delete_server1_server1_initial << set_state >>
  step_parallel_undeploy_delete_server1_server1_deleting - -> step_parallel_undeploy_delete_server1_server1_Standard.delete
  step_parallel_undeploy_delete_server1_server1_Standard.delete - -> step_parallel_undeploy_delete_server1_server1_initial
}
  state step_parallel_undeploy_stop_server1_join <<join>>
  step_parallel_undeploy_stop_server1_join - -> step_parallel_undeploy_stop_server1
state step_parallel_undeploy_stop_app_fork <<fork>>
step_parallel_undeploy_stop_app - -> step_parallel_undeploy_stop_app_fork
step_parallel_undeploy_stop_app_fork - -> step_parallel_undeploy_delete_app
step_parallel_undeploy_stop_app_fork - -> step_parallel_undeploy_stop_db
step_parallel_undeploy_delete_app - -> step_parallel_undeploy_stop_node
step_parallel_undeploy_stop_db - -> step_parallel_undeploy_delete_db
step_parallel_undeploy_delete_db - -> step_parallel_undeploy_stop_server1_join
step_parallel_undeploy_stop_node - -> step_parallel_undeploy_delete_node
step_parallel_undeploy_delete_node - -> step_parallel_undeploy_stop_server1_join
step_parallel_undeploy_stop_server1 - -> step_parallel_undeploy_delete_server1
[*] - -> step_parallel_undeploy_stop_app
step_parallel_undeploy_delete_server1 - -> [*]
@enduml

PlantUML version 1.2021.13(Mon Nov 01 12:38:45 CET 2021)
(GPL source distribution)
Java Runtime: Java(TM) SE Runtime Environment
JVM: Java HotSpot(TM) 64-Bit Server VM
Default Encoding: UTF-8
Language: fr
Country: FR
--></g></svg>