<?xml version="1.0" encoding="UTF-8" standalone="no"?><svg xmlns="http://www.w3.org/2000/svg" xmlns:xlink="http://www.w3.org/1999/xlink" contentScriptType="application/ecmascript" contentStyleType="text/css" height="2048px" preserveAspectRatio="none" style="width:386px;height:2048px;background:#FFFFFF;" version="1.1" viewBox="0 0 386 2048" width="386px" zoomAndPan="magnify"><defs/><g><rect fill="#FF8C00" height="8" style="stroke:none;stroke-width:1.0;" width="80" x="149" y="1354"/><rect fill="#006400" height="8" style="stroke:none;stroke-width:1.0;" width="80" x="149" y="686"/><ellipse cx="189" cy="16" fill="#008000" rx="10" ry="10" style="stroke:none;stroke-width:1.0;"/><ellipse cx="189" cy="2032" rx="10" ry="10" style="stroke:#000000;stroke-width:1.0;fill:none;"/><ellipse cx="189.5" cy="2032.5" fill="#000000" rx="6" ry="6" style="stroke:none;stroke-width:1.0;"/><rect fill="#FFFFFF" height="240.4883" rx="12.5" ry="12.5" style="stroke:#000000;stroke-width:1.5;" width="156" x="111" y="86"/><rect fill="#FFFFFF" height="208" rx="12.5" ry="12.5" style="stroke:#FFFFFF;stroke-width:1.0;" width="150" x="114" y="115.4883"/><line style="stroke:#000000;stroke-width:1.5;" x1="111" x2="267" y1="112.4883" y2="112.4883"/><text fill="#000000" font-family="sans-serif" font-size="14" lengthAdjust="spacing" textLength="63" x="157.5" y="104.5352">stop_app</text><rect fill="#FFFFFF" height="40" rx="12.5" ry="12.5" style="stroke:#0000FF;stroke-width:1.5;" width="101" x="140.5" y="124.4883"/><text fill="#000000" font-family="sans-serif" font-size="14" lengthAdjust="spacing" textLength="91" x="145.5" y="149.7793">app stopping</text><rect fill="#ADD8E6" height="40" rx="12.5" ry="12.5" style="stroke:#0000FF;stroke-width:1.5;" width="136" x="123" y="200.4883"/><text fill="#000000" font-family="sans-serif" font-size="14" lengthAdjust="spacing" textLength="126" x="128" y="225.7793">app Standard.stop</text><rect fill="#FFFFFF" height="40" rx="12.5" ry="12.5" style="stroke:#0000FF;stroke-width:1.5;" width="96" x="143" y="276.4883"/><text fill="#000000" font-family="sans-serif" font-size="14" lengthAdjust="spacing" textLength="86" x="148" y="301.7793">app stopped</text><!--MD5=[e7d2e2d387577229ca924dcab0b7bd0a]
link step_declarative_undeploy_stop_app_app_stopping to step_declarative_undeploy_stop_app_app_Standard.stop--><path d="M191,164.8549 C191,174.2155 191,185.4103 191,195.2956 " fill="none" id="step_declarative_undeploy_stop_app_app_stopping-to-step_declarative_undeploy_stop_app_app_Standard.stop" style="stroke:#0000FF;stroke-width:1.0;"/><polygon fill="#0000FF" points="191,200.329,195,191.329,191,195.329,187,191.329,191,200.329" style="stroke:#0000FF;stroke-width:1.0;"/><!--MD5=[a32564f98011dcec407319c2dea3ca70]
link step_declarative_undeploy_stop_app_app_Standard.stop to step_declarative_undeploy_stop_app_app_stopped--><path d="M191,240.8549 C191,250.2155 191,261.4103 191,271.2956 " fill="none" id="step_declarative_undeploy_stop_app_app_Standard.stop-to-step_declarative_undeploy_stop_app_app_stopped" style="stroke:#0000FF;stroke-width:1.0;"/><polygon fill="#0000FF" points="191,276.329,195,267.329,191,271.329,187,267.329,191,276.329" style="stroke:#0000FF;stroke-width:1.0;"/><rect fill="#FFFFFF" height="240.4883" rx="12.5" ry="12.5" style="stroke:#000000;stroke-width:1.5;" width="168" x="105" y="386"/><rect fill="#FFFFFF" height="208" rx="12.5" ry="12.5" style="stroke:#FFFFFF;stroke-width:1.0;" width="162" x="108" y="415.4883"/><line style="stroke:#000000;stroke-width:1.5;" x1="105" x2="273" y1="412.4883" y2="412.4883"/><text fill="#000000" font-family="sans-serif" font-size="14" lengthAdjust="spacing" textLength="75" x="151.5" y="404.5352">delete_app</text><rect fill="#FFFFFF" height="40" rx="12.5" ry="12.5" style="stroke:#0000FF;stroke-width:1.5;" width="96" x="143" y="424.4883"/><text fill="#000000" font-family="sans-serif" font-size="14" lengthAdjust="spacing" textLength="86" x="148" y="449.7793">app deleting</text><rect fill="#ADD8E6" height="40" rx="12.5" ry="12.5" style="stroke:#0000FF;stroke-width:1.5;" width="148" x="117" y="500.4883"/><text fill="#000000" font-family="sans-serif" font-size="14" lengthAdjust="spacing" textLength="138" x="122" y="525.7793">app Standard.delete</text><rect fill="#FFFFFF" height="40" rx="12.5" ry="12.5" style="stroke:#0000FF;stroke-width:1.5;" width="78" x="152" y="576.4883"/><text fill="#000000" font-family="sans-serif" font-size="14" lengthAdjust="spacing" textLength="68" x="157" y="601.7793">app initial</text><!--MD5=[2bc473b343e4c7c612493c08a0821a1b]
link step_declarative_undeploy_delete_app_app_deleting to step_declarative_undeploy_delete_app_app_Standard.delete--><path d="M191,464.8549 C191,474.2155 191,485.4103 191,495.2956 " fill="none" id="step_declarative_undeploy_delete_app_app_deleting-to-step_declarative_undeploy_delete_app_app_Standard.delete" style="stroke:#0000FF;stroke-width:1.0;"/><polygon fill="#0000FF" points="191,500.329,195,491.329,191,495.329,187,491.329,191,500.329" style="stroke:#0000FF;stroke-width:1.0;"/><!--MD5=[9ba2ef49cfa60c7796f62738eaac6378]
link step_declarative_undeploy_delete_app_app_Standard.delete to step_declarative_undeploy_delete_app_app_initial--><path d="M191,540.8549 C191,550.2155 191,561.4103 191,571.2956 " fill="none" id="step_declarative_undeploy_delete_app_app_Standard.delete-to-step_declarative_undeploy_delete_app_app_initial" style="stroke:#0000FF;stroke-width:1.0;"/><polygon fill="#0000FF" points="191,576.329,195,567.329,191,571.329,187,567.329,191,576.329" style="stroke:#0000FF;stroke-width:1.0;"/><rect fill="#FFFFFF" height="240.4883" rx="12.5" ry="12.5" style="stroke:#000000;stroke-width:1.5;" width="148" x="19" y="754"/><rect fill="#FFFFFF" height="208" rx="12.5" ry="12.5" style="stroke:#FFFFFF;stroke-width:1.0;" width="142" x="22" y="783.4883"/><line style="stroke:#000000;stroke-width:1.5;" x1="19" x2="167" y1="780.4883" y2="780.4883"/><text fill="#000000" font-family="sans-serif" font-size="14" lengthAdjust="spacing" textLength="55" x="65.5" y="772.5352">stop_db</text><rect fill="#FFFFFF" height="40" rx="12.5" ry="12.5" style="stroke:#0000FF;stroke-width:1.5;" width="93" x="48.5" y="792.4883"/><text fill="#000000" font-family="sans-serif" font-size="14" lengthAdjust="spacing" textLength="83" x="53.5" y="817.7793">db stopping</text><rect fill="#ADD8E6" height="40" rx="12.5" ry="12.5" style="stroke:#0000FF;stroke-width:1.5;" width="128" x="31" y="868.4883"/><text fill="#000000" font-family="sans-serif" font-size="14" lengthAdjust="spacing" textLength="118" x="36" y="893.7793">db Standard.stop</text><rect fill="#FFFFFF" height="40" rx="12.5" ry="12.5" style="stroke:#0000FF;stroke-width:1.5;" width="88" x="51" y="944.4883"/><text fill="#000000" font-family="sans-serif" font-size="14" lengthAdjust="spacing" textLength="78" x="56" y="969.7793">db stopped</text><!--MD5=[1c10a9c0fc3988f01b13c73840c030b9]
link step_declarative_undeploy_stop_db_db_stopping to step_declarative_undeploy_stop_db_db_Standard.stop--><path d="M95,832.8549 C95,842.2155 95,853.4103 95,863.2956 " fill="none" id="step_declarative_undeploy_stop_db_db_stopping-to-step_declarative_undeploy_stop_db_db_Standard.stop" style="stroke:#0000FF;stroke-width:1.0;"/><polygon fill="#0000FF" points="95,868.329,99,859.329,95,863.329,91,859.329,95,868.329" style="stroke:#0000FF;stroke-width:1.0;"/><!--MD5=[6bc2aea57c677b7442572969cfb6602c]
link step_declarative_undeploy_stop_db_db_Standard.stop to step_declarative_undeploy_stop_db_db_stopped--><path d="M95,908.8549 C95,918.2155 95,929.4103 95,939.2956 " fill="none" id="step_declarative_undeploy_stop_db_db_Standard.stop-to-step_declarative_undeploy_stop_db_db_stopped" style="stroke:#0000FF;stroke-width:1.0;"/><polygon fill="#0000FF" points="95,944.329,99,935.329,95,939.329,91,935.329,95,944.329" style="stroke:#0000FF;stroke-width:1.0;"/><rect fill="#FFFFFF" height="240.4883" rx="12.5" ry="12.5" style="stroke:#000000;stroke-width:1.5;" width="160" x="7" y="1054"/><rect fill="#FFFFFF" height="208" rx="12.5" ry="12.5" style="stroke:#FFFFFF;stroke-width:1.0;" width="154" x="10" y="1083.4883"/><line style="stroke:#000000;stroke-width:1.5;" x1="7" x2="167" y1="1080.4883" y2="1080.4883"/><text fill="#000000" font-family="sans-serif" font-size="14" lengthAdjust="spacing" textLength="67" x="53.5" y="1072.5352">delete_db</text><rect fill="#FFFFFF" height="40" rx="12.5" ry="12.5" style="stroke:#0000FF;stroke-width:1.5;" width="88" x="45" y="1092.4883"/><text fill="#000000" font-family="sans-serif" font-size="14" lengthAdjust="spacing" textLength="78" x="50" y="1117.7793">db deleting</text><rect fill="#ADD8E6" height="40" rx="12.5" ry="12.5" style="stroke:#0000FF;stroke-width:1.5;" width="140" x="19" y="1168.4883"/><text fill="#000000" font-family="sans-serif" font-size="14" lengthAdjust="spacing" textLength="130" x="24" y="1193.7793">db Standard.delete</text><rect fill="#FFFFFF" height="40" rx="12.5" ry="12.5" style="stroke:#0000FF;stroke-width:1.5;" width="70" x="54" y="1244.4883"/><text fill="#000000" font-family="sans-serif" font-size="14" lengthAdjust="spacing" textLength="60" x="59" y="1269.7793">db initial</text><!--MD5=[efdc3bb8f530c21c9c678fab76402752]
link step_declarative_undeploy_delete_db_db_deleting to step_declarative_undeploy_delete_db_db_Standard.delete--><path d="M89,1132.8549 C89,1142.2155 89,1153.4103 89,1163.2956 " fill="none" id="step_declarative_undeploy_delete_db_db_deleting-to-step_declarative_undeploy_delete_db_db_Standard.delete" style="stroke:#0000FF;stroke-width:1.0;"/><polygon fill="#0000FF" points="89,1168.329,93,1159.329,89,1163.329,85,1159.329,89,1168.329" style="stroke:#0000FF;stroke-width:1.0;"/><!--MD5=[f8da6a2534c7685605fc4b536189adff]
link step_declarative_undeploy_delete_db_db_Standard.delete to step_declarative_undeploy_delete_db_db_initial--><path d="M89,1208.8549 C89,1218.2155 89,1229.4103 89,1239.2956 " fill="none" id="step_declarative_undeploy_delete_db_db_Standard.delete-to-step_declarative_undeploy_delete_db_db_initial" style="stroke:#0000FF;stroke-width:1.0;"/><polygon fill="#0000FF" points="89,1244.329,93,1235.329,89,1239.329,85,1235.329,89,1244.329" style="stroke:#0000FF;stroke-width:1.0;"/><rect fill="#FFFFFF" height="240.4883" rx="12.5" ry="12.5" style="stroke:#000000;stroke-width:1.5;" width="165" x="205.5" y="754"/><rect fill="#FFFFFF" height="208" rx="12.5" ry="12.5" style="stroke:#FFFFFF;stroke-width:1.0;" width="159" x="208.5" y="783.4883"/><line style="stroke:#000000;stroke-width:1.5;" x1="205.5" x2="370.5" y1="780.4883" y2="780.4883"/><text fill="#000000" font-family="sans-serif" font-size="14" lengthAdjust="spacing" textLength="72" x="252" y="772.5352">stop_node</text><rect fill="#FFFFFF" height="40" rx="12.5" ry="12.5" style="stroke:#0000FF;stroke-width:1.5;" width="110" x="235" y="792.4883"/><text fill="#000000" font-family="sans-serif" font-size="14" lengthAdjust="spacing" textLength="100" x="240" y="817.7793">node stopping</text><rect fill="#ADD8E6" height="40" rx="12.5" ry="12.5" style="stroke:#0000FF;stroke-width:1.5;" width="145" x="217.5" y="868.4883"/><text fill="#000000" font-family="sans-serif" font-size="14" lengthAdjust="spacing" textLength="135" x="222.5" y="893.7793">node Standard.stop</text><rect fill="#FFFFFF" height="40" rx="12.5" ry="12.5" style="stroke:#0000FF;stroke-width:1.5;" width="105" x="237.5" y="944.4883"/><text fill="#000000" font-family="sans-serif" font-size="14" lengthAdjust="spacing" textLength="95" x="242.5" y="969.7793">node stopped</text><!--MD5=[3a8dc8485137c8cc04d5ac101361b083]
link step_declarative_undeploy_stop_node_node_stopping to step_declarative_undeploy_stop_node_node_Standard.stop--><path d="M290,832.8549 C290,842.2155 290,853.4103 290,863.2956 " fill="none" id="step_declarative_undeploy_stop_node_node_stopping-to-step_declarative_undeploy_stop_node_node_Standard.stop" style="stroke:#0000FF;stroke-width:1.0;"/><polygon fill="#0000FF" points="290,868.329,294,859.329,290,863.329,286,859.329,290,868.329" style="stroke:#0000FF;stroke-width:1.0;"/><!--MD5=[da05e4e631c606b29123926f65fe7ad7]
link step_declarative_undeploy_stop_node_node_Standard.stop to step_declarative_undeploy_stop_node_node_stopped--><path d="M290,908.8549 C290,918.2155 290,929.4103 290,939.2956 " fill="none" id="step_declarative_undeploy_stop_node_node_Standard.stop-to-step_declarative_undeploy_stop_node_node_stopped" style="stroke:#0000FF;stroke-width:1.0;"/><polygon fill="#0000FF" points="290,944.329,294,935.329,290,939.329,286,935.329,290,944.329" style="stroke:#0000FF;stroke-width:1.0;"/><rect fill="#FFFFFF" height="240.4883" rx="12.5" ry="12.5" style="stroke:#000000;stroke-width:1.5;" width="177" x="202.5" y="1054"/><rect fill="#FFFFFF" height="208" rx="12.5" ry="12.5" style="stroke:#FFFFFF;stroke-width:1.0;" width="171" x="205.5" y="1083.4883"/><line style="stroke:#000000;stroke-width:1.5;" x1="202.5" x2="379.5" y1="1080.4883" y2="1080.4883"/><text fill="#000000" font-family="sans-serif" font-size="14" lengthAdjust="spacing" textLength="84" x="249" y="1072.5352">delete_node</text><rect fill="#FFFFFF" height="40" rx="12.5" ry="12.5" style="stroke:#0000FF;stroke-width:1.5;" width="105" x="240.5" y="1092.4883"/><text fill="#000000" font-family="sans-serif" font-size="14" lengthAdjust="spacing" textLength="95" x="245.5" y="1117.7793">node deleting</text><rect fill="#ADD8E6" height="40" rx="12.5" ry="12.5" style="stroke:#0000FF;stroke-width:1.5;" width="157" x="214.5" y="1168.4883"/><text fill="#000000" font-family="sans-serif" font-size="14" lengthAdjust="spacing" textLength="147" x="219.5" y="1193.7793">node Standard.delete</text><rect fill="#FFFFFF" height="40" rx="12.5" ry="12.5" style="stroke:#0000FF;stroke-width:1.5;" width="87" x="249.5" y="1244.4883"/><text fill="#000000" font-family="sans-serif" font-size="14" lengthAdjust="spacing" textLength="77" x="254.5" y="1269.7793">node initial</text><!--MD5=[df02d23471deddc7daca9c0a801b17f5]
link step_declarative_undeploy_delete_node_node_deleting to step_declarative_undeploy_delete_node_node_Standard.delete--><path d="M293,1132.8549 C293,1142.2155 293,1153.4103 293,1163.2956 " fill="none" id="step_declarative_undeploy_delete_node_node_deleting-to-step_declarative_undeploy_delete_node_node_Standard.delete" style="stroke:#0000FF;stroke-width:1.0;"/><polygon fill="#0000FF" points="293,1168.329,297,1159.329,293,1163.329,289,1159.329,293,1168.329" style="stroke:#0000FF;stroke-width:1.0;"/><!--MD5=[f93c2131372bd803351be0aab2b0c360]
link step_declarative_undeploy_delete_node_node_Standard.delete to step_declarative_undeploy_delete_node_node_initial--><path d="M293,1208.8549 C293,1218.2155 293,1229.4103 293,1239.2956 " fill="none" id="step_declarative_undeploy_delete_node_node_Standard.delete-to-step_declarative_undeploy_delete_node_node_initial" style="stroke:#0000FF;stroke-width:1.0;"/><polygon fill="#0000FF" points="293,1244.329,297,1235.329,293,1239.329,289,1235.329,293,1244.329" style="stroke:#0000FF;stroke-width:1.0;"/><rect fill="#FFFFFF" height="240.4883" rx="12.5" ry="12.5" style="stroke:#000000;stroke-width:1.5;" width="181" x="98.5" y="1422"/><rect fill="#FFFFFF" height="208" rx="12.5" ry="12.5" style="stroke:#FFFFFF;stroke-width:1.0;" width="175" x="101.5" y="1451.4883"/><line style="stroke:#000000;stroke-width:1.5;" x1="98.5" x2="279.5" y1="1448.4883" y2="1448.4883"/><text fill="#000000" font-family="sans-serif" font-size="14" lengthAdjust="spacing" textLength="88" x="145" y="1440.5352">stop_server1</text><rect fill="#FFFFFF" height="40" rx="12.5" ry="12.5" style="stroke:#0000FF;stroke-width:1.5;" width="126" x="128" y="1460.4883"/><text fill="#000000" font-family="sans-serif" font-size="14" lengthAdjust="spacing" textLength="116" x="133" y="1485.7793">server1 stopping</text><rect fill="#ADD8E6" height="40" rx="12.5" ry="12.5" style="stroke:#0000FF;stroke-width:1.5;" width="161" x="110.5" y="1536.4883"/><text fill="#000000" font-family="sans-serif" font-size="14" lengthAdjust="spacing" textLength="151" x="115.5" y="1561.7793">server1 Standard.stop</text><rect fill="#FFFFFF" height="40" rx="12.5" ry="12.5" style="stroke:#0000FF;stroke-width:1.5;" width="121" x="130.5" y="1612.4883"/><text fill="#000000" font-family="sans-serif" font-size="14" lengthAdjust="spacing" textLength="111" x="135.5" y="1637.7793">server1 stopped</text><!--MD5=[5532f3fb6b071c79708d628fc7219c35]
link step_declarative_undeploy_stop_server1_server1_stopping to step_declarative_undeploy_stop_server1_server1_Standard.stop--><path d="M191,1500.8549 C191,1510.2155 191,1521.4103 191,1531.2956 " fill="none" id="step_declarative_undeploy_stop_server1_server1_stopping-to-step_declarative_undeploy_stop_server1_server1_Standard.stop" style="stroke:#0000FF;stroke-width:1.0;"/><polygon fill="#0000FF" points="191,1536.329,195,1527.329,191,1531.329,187,1527.329,191,1536.329" style="stroke:#0000FF;stroke-width:1.0;"/><!--MD5=[241a65fee43fcc312b76d61624e261f6]
link step_declarative_undeploy_stop_server1_server1_Standard.stop to step_declarative_undeploy_stop_server1_server1_stopped--><path d="M191,1576.8549 C191,1586.2155 191,1597.4103 191,1607.2956 " fill="none" id="step_declarative_undeploy_stop_server1_server1_Standard.stop-to-step_declarative_undeploy_stop_server1_server1_stopped" style="stroke:#0000FF;stroke-width:1.0;"/><polygon fill="#0000FF" points="191,1612.329,195,1603.329,191,1607.329,187,1603.329,191,1612.329" style="stroke:#0000FF;stroke-width:1.0;"/><rect fill="#FFFFFF" height="240.4883" rx="12.5" ry="12.5" style="stroke:#000000;stroke-width:1.5;" width="193" x="92.5" y="1722"/><rect fill="#FFFFFF" height="208" rx="12.5" ry="12.5" style="stroke:#FFFFFF;stroke-width:1.0;" width="187" x="95.5" y="1751.4883"/><line style="stroke:#000000;stroke-width:1.5;" x1="92.5" x2="285.5" y1="1748.4883" y2="1748.4883"/><text fill="#000000" font-family="sans-serif" font-size="14" lengthAdjust="spacing" textLength="100" x="139" y="1740.5352">delete_server1</text><rect fill="#FFFFFF" height="40" rx="12.5" ry="12.5" style="stroke:#0000FF;stroke-width:1.5;" width="121" x="130.5" y="1760.4883"/><text fill="#000000" font-family="sans-serif" font-size="14" lengthAdjust="spacing" textLength="111" x="135.5" y="1785.7793">server1 deleting</text><rect fill="#ADD8E6" height="40" rx="12.5" ry="12.5" style="stroke:#0000FF;stroke-width:1.5;" width="173" x="104.5" y="1836.4883"/><text fill="#000000" font-family="sans-serif" font-size="14" lengthAdjust="spacing" textLength="163" x="109.5" y="1861.7793">server1 Standard.delete</text><rect fill="#FFFFFF" height="40" rx="12.5" ry="12.5" style="stroke:#0000FF;stroke-width:1.5;" width="103" x="139.5" y="1912.4883"/><text fill="#000000" font-family="sans-serif" font-size="14" lengthAdjust="spacing" textLength="93" x="144.5" y="1937.7793">server1 initial</text><!--MD5=[2458ec204c2207017cffa8b54f69c557]
link step_declarative_undeploy_delete_server1_server1_deleting to step_declarative_undeploy_delete_server1_server1_Standard.delete--><path d="M191,1800.8549 C191,1810.2155 191,1821.4103 191,1831.2956 " fill="none" id="step_declarative_undeploy_delete_server1_server1_deleting-to-step_declarative_undeploy_delete_server1_server1_Standard.delete" style="stroke:#0000FF;stroke-width:1.0;"/><polygon fill="#0000FF" points="191,1836.329,195,1827.329,191,1831.329,187,1827.329,191,1836.329" style="stroke:#0000FF;stroke-width:1.0;"/><!--MD5=[96cfcfcbed28a930131cf63b7bf70f8a]
link step_declarative_undeploy_delete_server1_server1_Standard.delete to step_declarative_undeploy_delete_server1_server1_initial--><path d="M191,1876.8549 C191,1886.2155 191,1897.4103 191,1907.2956 " fill="none" id="step_declarative_undeploy_delete_server1_server1_Standard.delete-to-step_declarative_undeploy_delete_server1_server1_initial" style="stroke:#0000FF;stroke-width:1.0;"/><polygon fill="#0000FF" points="191,1912.329,195,1903.329,191,1907.329,187,1903.329,191,1912.329" style="stroke:#0000FF;stroke-width:1.0;"/><!--MD5=[d57793b0f02dcda18faf65df3c45e99f]
link step_declarative_undeploy_stop_server1_join to step_declarative_undeploy_stop_server1--><path d="M189,1362.1888 C189,1370.7786 189,1391.6672 189,1416.2952 " fill="none" id="step_declarative_undeploy_stop_server1_join-to-step_declarative_undeploy_stop_server1" style="stroke:#0000FF;stroke-width:1.0;"/><polygon fill="#0000FF" points="189,1421.6042,193,1412.6042,189,1416.6042,185,1412.6042,189,1421.6042" style="stroke:#0000FF;stroke-width:1.0;"/><!--MD5=[4fb955322be1a3debb7b0d4a9e65a775]
link step_declarative_undeploy_stop_app to step_declarative_undeploy_delete_app--><path d="M189,326.2929 C189,344.1733 189,362.6404 189,380.6221 " fill="none" id="step_declarative_undeploy_stop_app-to-step_declarative_undeploy_delete_app" style="stroke:#0000FF;stroke-width:1.0;"/><polygon fill="#0000FF" points="189,385.6801,193,376.6801,189,380.6801,185,376.6801,189,385.6801" style="stroke:#0000FF;stroke-width:1.0;"/><!--MD5=[78505e3e446c37c0072598b44a4d03c4]
link step_declarative_undeploy_delete_app to step_declarative_undeploy_delete_app_fork--><path d="M189,626.1621 C189,649.157 189,669.5541 189,680.8003 " fill="none" id="step_declarative_undeploy_delete_app-to-step_declarative_undeploy_delete_app_fork" style="stroke:#0000FF;stroke-width:1.0;"/><polygon fill="#0000FF" points="189,685.8126,193,676.8126,189,680.8126,185,676.8126,189,685.8126" style="stroke:#0000FF;stroke-width:1.0;"/><!--MD5=[81418f1c2c75285f7f8477a87d49bc4e]
link step_declarative_undeploy_delete_app_fork to step_declarative_undeploy_stop_node--><path d="M191.2538,694.1888 C195.9141,702.8505 207.303,724.0177 220.6984,748.9142 " fill="none" id="step_declarative_undeploy_delete_app_fork-to-step_declarative_undeploy_stop_node" style="stroke:#0000FF;stroke-width:1.0;"/><polygon fill="#0000FF" points="223.2218,753.6042,222.4799,743.7833,220.8527,749.2011,215.4349,747.5739,223.2218,753.6042" style="stroke:#0000FF;stroke-width:1.0;"/><!--MD5=[dc11e54379df88a33a5a7f1b08900009]
link step_declarative_undeploy_delete_app_fork to step_declarative_undeploy_stop_db--><path d="M186.8145,694.1888 C182.2954,702.8505 171.2516,724.0177 158.2621,748.9142 " fill="none" id="step_declarative_undeploy_delete_app_fork-to-step_declarative_undeploy_stop_db" style="stroke:#0000FF;stroke-width:1.0;"/><polygon fill="#0000FF" points="155.8152,753.6042,163.5249,747.4755,158.1282,749.1714,156.4323,743.7747,155.8152,753.6042" style="stroke:#0000FF;stroke-width:1.0;"/><!--MD5=[27ddbf5c6828c664542439f273e5bd7a]
link step_declarative_undeploy_stop_db to step_declarative_undeploy_delete_db--><path d="M90.5941,994.2929 C90.2365,1012.1733 89.8672,1030.6404 89.5076,1048.6221 " fill="none" id="step_declarative_undeploy_stop_db-to-step_declarative_undeploy_delete_db" style="stroke:#0000FF;stroke-width:1.0;"/><polygon fill="#0000FF" points="89.4064,1053.6801,93.5859,1044.762,89.5065,1048.6811,85.5875,1044.6018,89.4064,1053.6801" style="stroke:#0000FF;stroke-width:1.0;"/><!--MD5=[df0fb0a371f873b6dac1a0fa89bad678]
link step_declarative_undeploy_delete_db to step_declarative_undeploy_stop_server1_join--><path d="M153.6116,1294.1621 C166.5926,1317.5789 178.0803,1338.3017 184.2382,1349.4101 " fill="none" id="step_declarative_undeploy_delete_db-to-step_declarative_undeploy_stop_server1_join" style="stroke:#0000FF;stroke-width:1.0;"/><polygon fill="#0000FF" points="186.6787,1353.8126,185.8134,1344.0018,184.2544,1349.4396,178.8166,1347.8807,186.6787,1353.8126" style="stroke:#0000FF;stroke-width:1.0;"/><!--MD5=[4353f4f7a9f22b9ef0436c1a35153a65]
link step_declarative_undeploy_stop_node to step_declarative_undeploy_delete_node--><path d="M289.2029,994.2929 C289.3817,1012.1733 289.5664,1030.6404 289.7462,1048.6221 " fill="none" id="step_declarative_undeploy_stop_node-to-step_declarative_undeploy_delete_node" style="stroke:#0000FF;stroke-width:1.0;"/><polygon fill="#0000FF" points="289.7968,1053.6801,293.7063,1044.6404,289.7467,1048.6804,285.7067,1044.7207,289.7968,1053.6801" style="stroke:#0000FF;stroke-width:1.0;"/><!--MD5=[fb8ed3691a5c6e249e3d305032e529d2]
link step_declarative_undeploy_delete_node to step_declarative_undeploy_stop_server1_join--><path d="M224.3884,1294.1621 C211.4074,1317.5789 199.9197,1338.3017 193.7618,1349.4101 " fill="none" id="step_declarative_undeploy_delete_node-to-step_declarative_undeploy_stop_server1_join" style="stroke:#0000FF;stroke-width:1.0;"/><polygon fill="#0000FF" points="191.3213,1353.8126,199.1834,1347.8807,193.7456,1349.4396,192.1866,1344.0018,191.3213,1353.8126" style="stroke:#0000FF;stroke-width:1.0;"/><!--MD5=[f400678c66349bcd4ce076eb7dc024b5]
link step_declarative_undeploy_stop_server1 to step_declarative_undeploy_delete_server1--><path d="M189,1662.2929 C189,1680.1733 189,1698.6404 189,1716.6221 " fill="none" id="step_declarative_undeploy_stop_server1-to-step_declarative_undeploy_delete_server1" style="stroke:#0000FF;stroke-width:1.0;"/><polygon fill="#0000FF" points="189,1721.6801,193,1712.6801,189,1716.6801,185,1712.6801,189,1721.6801" style="stroke:#0000FF;stroke-width:1.0;"/><!--MD5=[5b631d820ffc6a27920dd89c743eb194]
link *start to step_declarative_undeploy_stop_app--><path d="M189,26.2152 C189,37.7525 189,57.9094 189,80.6599 " fill="none" id="*start-to-step_declarative_undeploy_stop_app" style="stroke:#0000FF;stroke-width:1.0;"/><polygon fill="#0000FF" points="189,85.8637,193,76.8637,189,80.8637,185,76.8637,189,85.8637" style="stroke:#0000FF;stroke-width:1.0;"/><!--MD5=[22cde3b5c54a8d739091c89f03e1fe27]
link step_declarative_undeploy_delete_server1 to *end--><path d="M189,1962.0605 C189,1983.7796 189,2003.6166 189,2016.5716 " fill="none" id="step_declarative_undeploy_delete_server1-to-*end" style="stroke:#0000FF;stroke-width:1.0;"/><polygon fill="#0000FF" points="189,2021.6879,193,2012.6879,189,2016.6879,185,2012.6879,189,2021.6879" style="stroke:#0000FF;stroke-width:1.0;"/><!--MD5=[4671054414b0c7579a896d8ab6389a83]
@startuml
hide empty description
skinparam shadowing false
skinparam state {
  ArrowColor blue
  BorderColor blue
  EndColor black
  StartColor green
  BackGroundColor<< step >> white
  BorderColor<< step >> black
  BackGroundColor<< delegate >> lightgrey
  BackGroundColor<< set_state >> white
  BackGroundColor<< call_operation >> lightblue
  BackGroundColor<< inline >> white
}
skinparam ActivityBarColor<<fork>> DarkGreen
skinparam ActivityBarColor<<join>> DarkOrange

state "stop_app" as step_declarative_undeploy_stop_app << step >> {
  state "app stopping" as step_declarative_undeploy_stop_app_app_stopping << set_state >>
  state "app Standard.stop" as step_declarative_undeploy_stop_app_app_Standard.stop << call_operation >>
  state "app stopped" as step_declarative_undeploy_stop_app_app_stopped << set_state >>
  step_declarative_undeploy_stop_app_app_stopping - -> step_declarative_undeploy_stop_app_app_Standard.stop
  step_declarative_undeploy_stop_app_app_Standard.stop - -> step_declarative_undeploy_stop_app_app_stopped
}
state "delete_app" as step_declarative_undeploy_delete_app << step >> {
  state "app deleting" as step_declarative_undeploy_delete_app_app_deleting << set_state >>
  state "app Standard.delete" as step_declarative_undeploy_delete_app_app_Standard.delete << call_operation >>
  state "app initial" as step_declarative_undeploy_delete_app_app_initial << set_state >>
  step_declarative_undeploy_delete_app_app_deleting - -> step_declarative_undeploy_delete_app_app_Standard.delete
  step_declarative_undeploy_delete_app_app_Standard.delete - -> step_declarative_undeploy_delete_app_app_initial
}
state "stop_db" as step_declarative_undeploy_stop_db << step >> {
  state "db stopping" as step_declarative_undeploy_stop_db_db_stopping << set_state >>
  state "db Standard.stop" as step_declarative_undeploy_stop_db_db_Standard.stop << call_operation >>
  state "db stopped" as step_declarative_undeploy_stop_db_db_stopped << set_state >>
  step_declarative_undeploy_stop_db_db_stopping - -> step_declarative_undeploy_stop_db_db_Standard.stop
  step_declarative_undeploy_stop_db_db_Standard.stop - -> step_declarative_undeploy_stop_db_db_stopped
}
state "delete_db" as step_declarative_undeploy_delete_db << step >> {
  state "db deleting" as step_declarative_undeploy_delete_db_db_deleting << set_state >>
  state "db Standard.delete" as step_declarative_undeploy_delete_db_db_Standard.delete << call_operation >>
  state "db initial" as step_declarative_undeploy_delete_db_db_initial << set_state >>
  step_declarative_undeploy_delete_db_db_deleting - -> step_declarative_undeploy_delete_db_db_Standard.delete
  step_declarative_undeploy_delete_db_db_Standard.delete - -> step_declarative_undeploy_delete_db_db_initial
}
state "stop_node" as step_declarative_undeploy_stop_node << step >> {
  state "node stopping" as step_declarative_undeploy_stop_node_node_stopping << set_state >>
  state "node Standard.stop" as step_declarative_undeploy_stop_node_node_Standard.stop << call_operation >>
  state "node stopped" as step_declarative_undeploy_stop_node_node_stopped << set_state >>
  step_declarative_undeploy_stop_node_node_stopping - -> step_declarative_undeploy_stop_node_node_Standard.stop
  step_declarative_undeploy_stop_node_node_Standard.stop - -> step_declarative_undeploy_stop_node_node_stopped
}
state "delete_node" as step_declarative_undeploy_delete_node << step >> {
  state "node deleting" as step_declarative_undeploy_delete_node_node_deleting << set_state >>
  state "node Standard.delete" as step_declarative_undeploy_delete_node_node_Standard.delete << call_operation >>
  state "node initial" as step_declarative_undeploy_delete_node_node_initial << set_state >>
  step_declarative_undeploy_delete_node_node_deleting - -> step_declarative_undeploy_delete_node_node_Standard.delete
  step_declarative_undeploy_delete_node_node_Standard.delete - -> step_declarative_undeploy_delete_node_node_initial
}
state "stop_server1" as step_declarative_undeploy_stop_server1 << step >> {
  state "server1 stopping" as step_declarative_undeploy_stop_server1_server1_stopping << set_state >>
  state "server1 Standard.stop" as step_declarative_undeploy_stop_server1_server1_Standard.stop << call_operation >>
  state "server1 stopped" as step_declarative_undeploy_stop_server1_server1_stopped << set_state >>
  step_declarative_undeploy_stop_server1_server1_stopping - -> step_declarative_undeploy_stop_server1_server1_Standard.stop
  step_declarative_undeploy_stop_server1_server1_Standard.stop - -> step_declarative_undeploy_stop_server1_server1_stopped
}
state "delete_server1" as step_declarative_undeploy_delete_server1 << step >> {
  state "server1 deleting" as step_declarative_undeploy_delete_server1_server1_deleting << set_state >>
  state "server1 Standard.delete" as step_declarative_undeploy_delete_server1_server1_Standard.delete << call_operation >>
  state "server1 initial" as step_declarative_undeploy_delete_server1_server1_initial << set_state >>
  step_declarative_undeploy_delete_server1_server1_deleting - -> step_declarative_undeploy_delete_server1_server1_Standard.delete
  step_declarative_undeploy_delete_server1_server1_Standard.delete - -> step_declarative_undeploy_delete_server1_server1_initial
}
  state step_declarative_undeploy_stop_server1_join <<join>>
  step_declarative_undeploy_stop_server1_join - -> step_declarative_undeploy_stop_server1
step_declarative_undeploy_stop_app - -> step_declarative_undeploy_delete_app
state step_declarative_undeploy_delete_app_fork <<fork>>
step_declarative_undeploy_delete_app - -> step_declarative_undeploy_delete_app_fork
step_declarative_undeploy_delete_app_fork - -> step_declarative_undeploy_stop_node
step_declarative_undeploy_delete_app_fork - -> step_declarative_undeploy_stop_db
step_declarative_undeploy_stop_db - -> step_declarative_undeploy_delete_db
step_declarative_undeploy_delete_db - -> step_declarative_undeploy_stop_server1_join
step_declarative_undeploy_stop_node - -> step_declarative_undeploy_delete_node
step_declarative_undeploy_delete_node - -> step_declarative_undeploy_stop_server1_join
step_declarative_undeploy_stop_server1 - -> step_declarative_undeploy_delete_server1
[*] - -> step_declarative_undeploy_stop_app
step_declarative_undeploy_delete_server1 - -> [*]
@enduml

PlantUML version 1.2021.13(Mon Nov 01 12:38:45 CET 2021)
(GPL source distribution)
Java Runtime: Java(TM) SE Runtime Environment
JVM: Java HotSpot(TM) 64-Bit Server VM
Default Encoding: UTF-8
Language: fr
Country: FR
--></g></svg>