<?xml version="1.0" encoding="UTF-8" standalone="no"?><svg xmlns="http://www.w3.org/2000/svg" xmlns:xlink="http://www.w3.org/1999/xlink" contentScriptType="application/ecmascript" contentStyleType="text/css" height="2048px" preserveAspectRatio="none" style="width:475px;height:2048px;background:#FFFFFF;" version="1.1" viewBox="0 0 475 2048" width="475px" zoomAndPan="magnify"><defs/><g><rect fill="#006400" height="8" style="stroke:none;stroke-width:1.0;" width="80" x="198.5" y="386"/><ellipse cx="238.5" cy="16" fill="#008000" rx="10" ry="10" style="stroke:none;stroke-width:1.0;"/><rect fill="#FF8C00" height="8" style="stroke:none;stroke-width:1.0;" width="80" x="199.5" y="1954"/><ellipse cx="239.5" cy="2032" rx="10" ry="10" style="stroke:#000000;stroke-width:1.0;fill:none;"/><ellipse cx="240" cy="2032.5" fill="#000000" rx="6" ry="6" style="stroke:none;stroke-width:1.0;"/><rect fill="#FFFFFF" height="240.4883" rx="12.5" ry="12.5" style="stroke:#000000;stroke-width:1.5;" width="156" x="160.5" y="86"/><rect fill="#FFFFFF" height="208" rx="12.5" ry="12.5" style="stroke:#FFFFFF;stroke-width:1.0;" width="150" x="163.5" y="115.4883"/><line style="stroke:#000000;stroke-width:1.5;" x1="160.5" x2="316.5" y1="112.4883" y2="112.4883"/><text fill="#000000" font-family="sans-serif" font-size="14" lengthAdjust="spacing" textLength="63" x="207" y="104.5352">stop_app</text><rect fill="#FFFFFF" height="40" rx="12.5" ry="12.5" style="stroke:#0000FF;stroke-width:1.5;" width="101" x="190" y="124.4883"/><text fill="#000000" font-family="sans-serif" font-size="14" lengthAdjust="spacing" textLength="91" x="195" y="149.7793">app stopping</text><rect fill="#ADD8E6" height="40" rx="12.5" ry="12.5" style="stroke:#0000FF;stroke-width:1.5;" width="136" x="172.5" y="200.4883"/><text fill="#000000" font-family="sans-serif" font-size="14" lengthAdjust="spacing" textLength="126" x="177.5" y="225.7793">app Standard.stop</text><rect fill="#FFFFFF" height="40" rx="12.5" ry="12.5" style="stroke:#0000FF;stroke-width:1.5;" width="96" x="192.5" y="276.4883"/><text fill="#000000" font-family="sans-serif" font-size="14" lengthAdjust="spacing" textLength="86" x="197.5" y="301.7793">app stopped</text><!--MD5=[3fd27f831c5e383d39a99b9273925e19]
link step_parallel_undeploy_stop_app_app_stopping to step_parallel_undeploy_stop_app_app_Standard.stop--><path d="M240.5,164.8549 C240.5,174.2155 240.5,185.4103 240.5,195.2956 " fill="none" id="step_parallel_undeploy_stop_app_app_stopping-to-step_parallel_undeploy_stop_app_app_Standard.stop" style="stroke:#0000FF;stroke-width:1.0;"/><polygon fill="#0000FF" points="240.5,200.329,244.5,191.329,240.5,195.329,236.5,191.329,240.5,200.329" style="stroke:#0000FF;stroke-width:1.0;"/><!--MD5=[f4ad337ec1e825e7f419ecf38e60e813]
link step_parallel_undeploy_stop_app_app_Standard.stop to step_parallel_undeploy_stop_app_app_stopped--><path d="M240.5,240.8549 C240.5,250.2155 240.5,261.4103 240.5,271.2956 " fill="none" id="step_parallel_undeploy_stop_app_app_Standard.stop-to-step_parallel_undeploy_stop_app_app_stopped" style="stroke:#0000FF;stroke-width:1.0;"/><polygon fill="#0000FF" points="240.5,276.329,244.5,267.329,240.5,271.329,236.5,267.329,240.5,276.329" style="stroke:#0000FF;stroke-width:1.0;"/><rect fill="#FFFFFF" height="240.4883" rx="12.5" ry="12.5" style="stroke:#000000;stroke-width:1.5;" width="168" x="86.5" y="454"/><rect fill="#FFFFFF" height="208" rx="12.5" ry="12.5" style="stroke:#FFFFFF;stroke-width:1.0;" width="162" x="89.5" y="483.4883"/><line style="stroke:#000000;stroke-width:1.5;" x1="86.5" x2="254.5" y1="480.4883" y2="480.4883"/><text fill="#000000" font-family="sans-serif" font-size="14" lengthAdjust="spacing" textLength="75" x="133" y="472.5352">delete_app</text><rect fill="#FFFFFF" height="40" rx="12.5" ry="12.5" style="stroke:#0000FF;stroke-width:1.5;" width="96" x="124.5" y="492.4883"/><text fill="#000000" font-family="sans-serif" font-size="14" lengthAdjust="spacing" textLength="86" x="129.5" y="517.7793">app deleting</text><rect fill="#ADD8E6" height="40" rx="12.5" ry="12.5" style="stroke:#0000FF;stroke-width:1.5;" width="148" x="98.5" y="568.4883"/><text fill="#000000" font-family="sans-serif" font-size="14" lengthAdjust="spacing" textLength="138" x="103.5" y="593.7793">app Standard.delete</text><rect fill="#FFFFFF" height="40" rx="12.5" ry="12.5" style="stroke:#0000FF;stroke-width:1.5;" width="78" x="133.5" y="644.4883"/><text fill="#000000" font-family="sans-serif" font-size="14" lengthAdjust="spacing" textLength="68" x="138.5" y="669.7793">app initial</text><!--MD5=[4f6641017e4211bd102a3d466ebab0f7]
link step_parallel_undeploy_delete_app_app_deleting to step_parallel_undeploy_delete_app_app_Standard.delete--><path d="M172.5,532.8549 C172.5,542.2155 172.5,553.4103 172.5,563.2956 " fill="none" id="step_parallel_undeploy_delete_app_app_deleting-to-step_parallel_undeploy_delete_app_app_Standard.delete" style="stroke:#0000FF;stroke-width:1.0;"/><polygon fill="#0000FF" points="172.5,568.329,176.5,559.329,172.5,563.329,168.5,559.329,172.5,568.329" style="stroke:#0000FF;stroke-width:1.0;"/><!--MD5=[21a8f6be9aa3e734ecfc52a25042b48d]
link step_parallel_undeploy_delete_app_app_Standard.delete to step_parallel_undeploy_delete_app_app_initial--><path d="M172.5,608.8549 C172.5,618.2155 172.5,629.4103 172.5,639.2956 " fill="none" id="step_parallel_undeploy_delete_app_app_Standard.delete-to-step_parallel_undeploy_delete_app_app_initial" style="stroke:#0000FF;stroke-width:1.0;"/><polygon fill="#0000FF" points="172.5,644.329,176.5,635.329,172.5,639.329,168.5,635.329,172.5,644.329" style="stroke:#0000FF;stroke-width:1.0;"/><rect fill="#FFFFFF" height="240.4883" rx="12.5" ry="12.5" style="stroke:#000000;stroke-width:1.5;" width="165" x="61" y="754"/><rect fill="#FFFFFF" height="208" rx="12.5" ry="12.5" style="stroke:#FFFFFF;stroke-width:1.0;" width="159" x="64" y="783.4883"/><line style="stroke:#000000;stroke-width:1.5;" x1="61" x2="226" y1="780.4883" y2="780.4883"/><text fill="#000000" font-family="sans-serif" font-size="14" lengthAdjust="spacing" textLength="72" x="107.5" y="772.5352">stop_node</text><rect fill="#FFFFFF" height="40" rx="12.5" ry="12.5" style="stroke:#0000FF;stroke-width:1.5;" width="110" x="90.5" y="792.4883"/><text fill="#000000" font-family="sans-serif" font-size="14" lengthAdjust="spacing" textLength="100" x="95.5" y="817.7793">node stopping</text><rect fill="#ADD8E6" height="40" rx="12.5" ry="12.5" style="stroke:#0000FF;stroke-width:1.5;" width="145" x="73" y="868.4883"/><text fill="#000000" font-family="sans-serif" font-size="14" lengthAdjust="spacing" textLength="135" x="78" y="893.7793">node Standard.stop</text><rect fill="#FFFFFF" height="40" rx="12.5" ry="12.5" style="stroke:#0000FF;stroke-width:1.5;" width="105" x="93" y="944.4883"/><text fill="#000000" font-family="sans-serif" font-size="14" lengthAdjust="spacing" textLength="95" x="98" y="969.7793">node stopped</text><!--MD5=[6640a0a37fa2d293a2ae4cb8955da274]
link step_parallel_undeploy_stop_node_node_stopping to step_parallel_undeploy_stop_node_node_Standard.stop--><path d="M145.5,832.8549 C145.5,842.2155 145.5,853.4103 145.5,863.2956 " fill="none" id="step_parallel_undeploy_stop_node_node_stopping-to-step_parallel_undeploy_stop_node_node_Standard.stop" style="stroke:#0000FF;stroke-width:1.0;"/><polygon fill="#0000FF" points="145.5,868.329,149.5,859.329,145.5,863.329,141.5,859.329,145.5,868.329" style="stroke:#0000FF;stroke-width:1.0;"/><!--MD5=[0d658201e704a66eb61924f9fa925b8e]
link step_parallel_undeploy_stop_node_node_Standard.stop to step_parallel_undeploy_stop_node_node_stopped--><path d="M145.5,908.8549 C145.5,918.2155 145.5,929.4103 145.5,939.2956 " fill="none" id="step_parallel_undeploy_stop_node_node_Standard.stop-to-step_parallel_undeploy_stop_node_node_stopped" style="stroke:#0000FF;stroke-width:1.0;"/><polygon fill="#0000FF" points="145.5,944.329,149.5,935.329,145.5,939.329,141.5,935.329,145.5,944.329" style="stroke:#0000FF;stroke-width:1.0;"/><rect fill="#FFFFFF" height="240.4883" rx="12.5" ry="12.5" style="stroke:#000000;stroke-width:1.5;" width="177" x="49" y="1054"/><rect fill="#FFFFFF" height="208" rx="12.5" ry="12.5" style="stroke:#FFFFFF;stroke-width:1.0;" width="171" x="52" y="1083.4883"/><line style="stroke:#000000;stroke-width:1.5;" x1="49" x2="226" y1="1080.4883" y2="1080.4883"/><text fill="#000000" font-family="sans-serif" font-size="14" lengthAdjust="spacing" textLength="84" x="95.5" y="1072.5352">delete_node</text><rect fill="#FFFFFF" height="40" rx="12.5" ry="12.5" style="stroke:#0000FF;stroke-width:1.5;" width="105" x="87" y="1092.4883"/><text fill="#000000" font-family="sans-serif" font-size="14" lengthAdjust="spacing" textLength="95" x="92" y="1117.7793">node deleting</text><rect fill="#ADD8E6" height="40" rx="12.5" ry="12.5" style="stroke:#0000FF;stroke-width:1.5;" width="157" x="61" y="1168.4883"/><text fill="#000000" font-family="sans-serif" font-size="14" lengthAdjust="spacing" textLength="147" x="66" y="1193.7793">node Standard.delete</text><rect fill="#FFFFFF" height="40" rx="12.5" ry="12.5" style="stroke:#0000FF;stroke-width:1.5;" width="87" x="96" y="1244.4883"/><text fill="#000000" font-family="sans-serif" font-size="14" lengthAdjust="spacing" textLength="77" x="101" y="1269.7793">node initial</text><!--MD5=[031dfa6d1694c38b58dc00eb6fb39a0e]
link step_parallel_undeploy_delete_node_node_deleting to step_parallel_undeploy_delete_node_node_Standard.delete--><path d="M139.5,1132.8549 C139.5,1142.2155 139.5,1153.4103 139.5,1163.2956 " fill="none" id="step_parallel_undeploy_delete_node_node_deleting-to-step_parallel_undeploy_delete_node_node_Standard.delete" style="stroke:#0000FF;stroke-width:1.0;"/><polygon fill="#0000FF" points="139.5,1168.329,143.5,1159.329,139.5,1163.329,135.5,1159.329,139.5,1168.329" style="stroke:#0000FF;stroke-width:1.0;"/><!--MD5=[92907bac27d3cb74284549f47e3b1aeb]
link step_parallel_undeploy_delete_node_node_Standard.delete to step_parallel_undeploy_delete_node_node_initial--><path d="M139.5,1208.8549 C139.5,1218.2155 139.5,1229.4103 139.5,1239.2956 " fill="none" id="step_parallel_undeploy_delete_node_node_Standard.delete-to-step_parallel_undeploy_delete_node_node_initial" style="stroke:#0000FF;stroke-width:1.0;"/><polygon fill="#0000FF" points="139.5,1244.329,143.5,1235.329,139.5,1239.329,135.5,1235.329,139.5,1244.329" style="stroke:#0000FF;stroke-width:1.0;"/><rect fill="#FFFFFF" height="240.4883" rx="12.5" ry="12.5" style="stroke:#000000;stroke-width:1.5;" width="148" x="268.5" y="754"/><rect fill="#FFFFFF" height="208" rx="12.5" ry="12.5" style="stroke:#FFFFFF;stroke-width:1.0;" width="142" x="271.5" y="783.4883"/><line style="stroke:#000000;stroke-width:1.5;" x1="268.5" x2="416.5" y1="780.4883" y2="780.4883"/><text fill="#000000" font-family="sans-serif" font-size="14" lengthAdjust="spacing" textLength="55" x="315" y="772.5352">stop_db</text><rect fill="#FFFFFF" height="40" rx="12.5" ry="12.5" style="stroke:#0000FF;stroke-width:1.5;" width="93" x="298" y="792.4883"/><text fill="#000000" font-family="sans-serif" font-size="14" lengthAdjust="spacing" textLength="83" x="303" y="817.7793">db stopping</text><rect fill="#ADD8E6" height="40" rx="12.5" ry="12.5" style="stroke:#0000FF;stroke-width:1.5;" width="128" x="280.5" y="868.4883"/><text fill="#000000" font-family="sans-serif" font-size="14" lengthAdjust="spacing" textLength="118" x="285.5" y="893.7793">db Standard.stop</text><rect fill="#FFFFFF" height="40" rx="12.5" ry="12.5" style="stroke:#0000FF;stroke-width:1.5;" width="88" x="300.5" y="944.4883"/><text fill="#000000" font-family="sans-serif" font-size="14" lengthAdjust="spacing" textLength="78" x="305.5" y="969.7793">db stopped</text><!--MD5=[eb98d17d2243a01a06d3f39e43fc2cd3]
link step_parallel_undeploy_stop_db_db_stopping to step_parallel_undeploy_stop_db_db_Standard.stop--><path d="M344.5,832.8549 C344.5,842.2155 344.5,853.4103 344.5,863.2956 " fill="none" id="step_parallel_undeploy_stop_db_db_stopping-to-step_parallel_undeploy_stop_db_db_Standard.stop" style="stroke:#0000FF;stroke-width:1.0;"/><polygon fill="#0000FF" points="344.5,868.329,348.5,859.329,344.5,863.329,340.5,859.329,344.5,868.329" style="stroke:#0000FF;stroke-width:1.0;"/><!--MD5=[6d951a2cc27f3b9977f42c308e03a23b]
link step_parallel_undeploy_stop_db_db_Standard.stop to step_parallel_undeploy_stop_db_db_stopped--><path d="M344.5,908.8549 C344.5,918.2155 344.5,929.4103 344.5,939.2956 " fill="none" id="step_parallel_undeploy_stop_db_db_Standard.stop-to-step_parallel_undeploy_stop_db_db_stopped" style="stroke:#0000FF;stroke-width:1.0;"/><polygon fill="#0000FF" points="344.5,944.329,348.5,935.329,344.5,939.329,340.5,935.329,344.5,944.329" style="stroke:#0000FF;stroke-width:1.0;"/><rect fill="#FFFFFF" height="240.4883" rx="12.5" ry="12.5" style="stroke:#000000;stroke-width:1.5;" width="160" x="270.5" y="1054"/><rect fill="#FFFFFF" height="208" rx="12.5" ry="12.5" style="stroke:#FFFFFF;stroke-width:1.0;" width="154" x="273.5" y="1083.4883"/><line style="stroke:#000000;stroke-width:1.5;" x1="270.5" x2="430.5" y1="1080.4883" y2="1080.4883"/><text fill="#000000" font-family="sans-serif" font-size="14" lengthAdjust="spacing" textLength="67" x="317" y="1072.5352">delete_db</text><rect fill="#FFFFFF" height="40" rx="12.5" ry="12.5" style="stroke:#0000FF;stroke-width:1.5;" width="88" x="308.5" y="1092.4883"/><text fill="#000000" font-family="sans-serif" font-size="14" lengthAdjust="spacing" textLength="78" x="313.5" y="1117.7793">db deleting</text><rect fill="#ADD8E6" height="40" rx="12.5" ry="12.5" style="stroke:#0000FF;stroke-width:1.5;" width="140" x="282.5" y="1168.4883"/><text fill="#000000" font-family="sans-serif" font-size="14" lengthAdjust="spacing" textLength="130" x="287.5" y="1193.7793">db Standard.delete</text><rect fill="#FFFFFF" height="40" rx="12.5" ry="12.5" style="stroke:#0000FF;stroke-width:1.5;" width="70" x="317.5" y="1244.4883"/><text fill="#000000" font-family="sans-serif" font-size="14" lengthAdjust="spacing" textLength="60" x="322.5" y="1269.7793">db initial</text><!--MD5=[c4dd7ba936f71370905790bb45b92687]
link step_parallel_undeploy_delete_db_db_deleting to step_parallel_undeploy_delete_db_db_Standard.delete--><path d="M352.5,1132.8549 C352.5,1142.2155 352.5,1153.4103 352.5,1163.2956 " fill="none" id="step_parallel_undeploy_delete_db_db_deleting-to-step_parallel_undeploy_delete_db_db_Standard.delete" style="stroke:#0000FF;stroke-width:1.0;"/><polygon fill="#0000FF" points="352.5,1168.329,356.5,1159.329,352.5,1163.329,348.5,1159.329,352.5,1168.329" style="stroke:#0000FF;stroke-width:1.0;"/><!--MD5=[2f8f354716939e09bdf3d9609ef6cda7]
link step_parallel_undeploy_delete_db_db_Standard.delete to step_parallel_undeploy_delete_db_db_initial--><path d="M352.5,1208.8549 C352.5,1218.2155 352.5,1229.4103 352.5,1239.2956 " fill="none" id="step_parallel_undeploy_delete_db_db_Standard.delete-to-step_parallel_undeploy_delete_db_db_initial" style="stroke:#0000FF;stroke-width:1.0;"/><polygon fill="#0000FF" points="352.5,1244.329,356.5,1235.329,352.5,1239.329,348.5,1235.329,352.5,1244.329" style="stroke:#0000FF;stroke-width:1.0;"/><rect fill="#FFFFFF" height="240.4883" rx="12.5" ry="12.5" style="stroke:#000000;stroke-width:1.5;" width="205" x="19" y="1354"/><rect fill="#FFFFFF" height="208" rx="12.5" ry="12.5" style="stroke:#FFFFFF;stroke-width:1.0;" width="199" x="22" y="1383.4883"/><line style="stroke:#000000;stroke-width:1.5;" x1="19" x2="224" y1="1380.4883" y2="1380.4883"/><text fill="#000000" font-family="sans-serif" font-size="14" lengthAdjust="spacing" textLength="112" x="65.5" y="1372.5352">stop_server_app</text><rect fill="#FFFFFF" height="40" rx="12.5" ry="12.5" style="stroke:#0000FF;stroke-width:1.5;" width="150" x="48.5" y="1392.4883"/><text fill="#000000" font-family="sans-serif" font-size="14" lengthAdjust="spacing" textLength="140" x="53.5" y="1417.7793">server_app stopping</text><rect fill="#ADD8E6" height="40" rx="12.5" ry="12.5" style="stroke:#0000FF;stroke-width:1.5;" width="185" x="31" y="1468.4883"/><text fill="#000000" font-family="sans-serif" font-size="14" lengthAdjust="spacing" textLength="175" x="36" y="1493.7793">server_app Standard.stop</text><rect fill="#FFFFFF" height="40" rx="12.5" ry="12.5" style="stroke:#0000FF;stroke-width:1.5;" width="145" x="51" y="1544.4883"/><text fill="#000000" font-family="sans-serif" font-size="14" lengthAdjust="spacing" textLength="135" x="56" y="1569.7793">server_app stopped</text><!--MD5=[63eeb519b97e81549542ff9c4922243e]
link step_parallel_undeploy_stop_server_app_server_app_stopping to step_parallel_undeploy_stop_server_app_server_app_Standard.stop--><path d="M123.5,1432.8549 C123.5,1442.2155 123.5,1453.4103 123.5,1463.2956 " fill="none" id="step_parallel_undeploy_stop_server_app_server_app_stopping-to-step_parallel_undeploy_stop_server_app_server_app_Standard.stop" style="stroke:#0000FF;stroke-width:1.0;"/><polygon fill="#0000FF" points="123.5,1468.329,127.5,1459.329,123.5,1463.329,119.5,1459.329,123.5,1468.329" style="stroke:#0000FF;stroke-width:1.0;"/><!--MD5=[486aa20f2a934573d3d252291109f3ed]
link step_parallel_undeploy_stop_server_app_server_app_Standard.stop to step_parallel_undeploy_stop_server_app_server_app_stopped--><path d="M123.5,1508.8549 C123.5,1518.2155 123.5,1529.4103 123.5,1539.2956 " fill="none" id="step_parallel_undeploy_stop_server_app_server_app_Standard.stop-to-step_parallel_undeploy_stop_server_app_server_app_stopped" style="stroke:#0000FF;stroke-width:1.0;"/><polygon fill="#0000FF" points="123.5,1544.329,127.5,1535.329,123.5,1539.329,119.5,1535.329,123.5,1544.329" style="stroke:#0000FF;stroke-width:1.0;"/><rect fill="#FFFFFF" height="240.4883" rx="12.5" ry="12.5" style="stroke:#000000;stroke-width:1.5;" width="217" x="7" y="1654"/><rect fill="#FFFFFF" height="208" rx="12.5" ry="12.5" style="stroke:#FFFFFF;stroke-width:1.0;" width="211" x="10" y="1683.4883"/><line style="stroke:#000000;stroke-width:1.5;" x1="7" x2="224" y1="1680.4883" y2="1680.4883"/><text fill="#000000" font-family="sans-serif" font-size="14" lengthAdjust="spacing" textLength="124" x="53.5" y="1672.5352">delete_server_app</text><rect fill="#FFFFFF" height="40" rx="12.5" ry="12.5" style="stroke:#0000FF;stroke-width:1.5;" width="145" x="45" y="1692.4883"/><text fill="#000000" font-family="sans-serif" font-size="14" lengthAdjust="spacing" textLength="135" x="50" y="1717.7793">server_app deleting</text><rect fill="#ADD8E6" height="40" rx="12.5" ry="12.5" style="stroke:#0000FF;stroke-width:1.5;" width="197" x="19" y="1768.4883"/><text fill="#000000" font-family="sans-serif" font-size="14" lengthAdjust="spacing" textLength="187" x="24" y="1793.7793">server_app Standard.delete</text><rect fill="#FFFFFF" height="40" rx="12.5" ry="12.5" style="stroke:#0000FF;stroke-width:1.5;" width="127" x="54" y="1844.4883"/><text fill="#000000" font-family="sans-serif" font-size="14" lengthAdjust="spacing" textLength="117" x="59" y="1869.7793">server_app initial</text><!--MD5=[004471d86a5215261c9f2f923c01184f]
link step_parallel_undeploy_delete_server_app_server_app_deleting to step_parallel_undeploy_delete_server_app_server_app_Standard.delete--><path d="M117.5,1732.8549 C117.5,1742.2155 117.5,1753.4103 117.5,1763.2956 " fill="none" id="step_parallel_undeploy_delete_server_app_server_app_deleting-to-step_parallel_undeploy_delete_server_app_server_app_Standard.delete" style="stroke:#0000FF;stroke-width:1.0;"/><polygon fill="#0000FF" points="117.5,1768.329,121.5,1759.329,117.5,1763.329,113.5,1759.329,117.5,1768.329" style="stroke:#0000FF;stroke-width:1.0;"/><!--MD5=[c236d8fa565403847e692aa55dd66cc2]
link step_parallel_undeploy_delete_server_app_server_app_Standard.delete to step_parallel_undeploy_delete_server_app_server_app_initial--><path d="M117.5,1808.8549 C117.5,1818.2155 117.5,1829.4103 117.5,1839.2956 " fill="none" id="step_parallel_undeploy_delete_server_app_server_app_Standard.delete-to-step_parallel_undeploy_delete_server_app_server_app_initial" style="stroke:#0000FF;stroke-width:1.0;"/><polygon fill="#0000FF" points="117.5,1844.329,121.5,1835.329,117.5,1839.329,113.5,1835.329,117.5,1844.329" style="stroke:#0000FF;stroke-width:1.0;"/><rect fill="#FFFFFF" height="240.4883" rx="12.5" ry="12.5" style="stroke:#000000;stroke-width:1.5;" width="197" x="262" y="1354"/><rect fill="#FFFFFF" height="208" rx="12.5" ry="12.5" style="stroke:#FFFFFF;stroke-width:1.0;" width="191" x="265" y="1383.4883"/><line style="stroke:#000000;stroke-width:1.5;" x1="262" x2="459" y1="1380.4883" y2="1380.4883"/><text fill="#000000" font-family="sans-serif" font-size="14" lengthAdjust="spacing" textLength="104" x="308.5" y="1372.5352">stop_server_db</text><rect fill="#FFFFFF" height="40" rx="12.5" ry="12.5" style="stroke:#0000FF;stroke-width:1.5;" width="142" x="291.5" y="1392.4883"/><text fill="#000000" font-family="sans-serif" font-size="14" lengthAdjust="spacing" textLength="132" x="296.5" y="1417.7793">server_db stopping</text><rect fill="#ADD8E6" height="40" rx="12.5" ry="12.5" style="stroke:#0000FF;stroke-width:1.5;" width="177" x="274" y="1468.4883"/><text fill="#000000" font-family="sans-serif" font-size="14" lengthAdjust="spacing" textLength="167" x="279" y="1493.7793">server_db Standard.stop</text><rect fill="#FFFFFF" height="40" rx="12.5" ry="12.5" style="stroke:#0000FF;stroke-width:1.5;" width="137" x="294" y="1544.4883"/><text fill="#000000" font-family="sans-serif" font-size="14" lengthAdjust="spacing" textLength="127" x="299" y="1569.7793">server_db stopped</text><!--MD5=[d17d7b895400e51a9917de46f9c6906b]
link step_parallel_undeploy_stop_server_db_server_db_stopping to step_parallel_undeploy_stop_server_db_server_db_Standard.stop--><path d="M362.5,1432.8549 C362.5,1442.2155 362.5,1453.4103 362.5,1463.2956 " fill="none" id="step_parallel_undeploy_stop_server_db_server_db_stopping-to-step_parallel_undeploy_stop_server_db_server_db_Standard.stop" style="stroke:#0000FF;stroke-width:1.0;"/><polygon fill="#0000FF" points="362.5,1468.329,366.5,1459.329,362.5,1463.329,358.5,1459.329,362.5,1468.329" style="stroke:#0000FF;stroke-width:1.0;"/><!--MD5=[321afb2ae72a6aa7e0335763664d2c3a]
link step_parallel_undeploy_stop_server_db_server_db_Standard.stop to step_parallel_undeploy_stop_server_db_server_db_stopped--><path d="M362.5,1508.8549 C362.5,1518.2155 362.5,1529.4103 362.5,1539.2956 " fill="none" id="step_parallel_undeploy_stop_server_db_server_db_Standard.stop-to-step_parallel_undeploy_stop_server_db_server_db_stopped" style="stroke:#0000FF;stroke-width:1.0;"/><polygon fill="#0000FF" points="362.5,1544.329,366.5,1535.329,362.5,1539.329,358.5,1535.329,362.5,1544.329" style="stroke:#0000FF;stroke-width:1.0;"/><rect fill="#FFFFFF" height="240.4883" rx="12.5" ry="12.5" style="stroke:#000000;stroke-width:1.5;" width="209" x="259" y="1654"/><rect fill="#FFFFFF" height="208" rx="12.5" ry="12.5" style="stroke:#FFFFFF;stroke-width:1.0;" width="203" x="262" y="1683.4883"/><line style="stroke:#000000;stroke-width:1.5;" x1="259" x2="468" y1="1680.4883" y2="1680.4883"/><text fill="#000000" font-family="sans-serif" font-size="14" lengthAdjust="spacing" textLength="116" x="305.5" y="1672.5352">delete_server_db</text><rect fill="#FFFFFF" height="40" rx="12.5" ry="12.5" style="stroke:#0000FF;stroke-width:1.5;" width="137" x="297" y="1692.4883"/><text fill="#000000" font-family="sans-serif" font-size="14" lengthAdjust="spacing" textLength="127" x="302" y="1717.7793">server_db deleting</text><rect fill="#ADD8E6" height="40" rx="12.5" ry="12.5" style="stroke:#0000FF;stroke-width:1.5;" width="189" x="271" y="1768.4883"/><text fill="#000000" font-family="sans-serif" font-size="14" lengthAdjust="spacing" textLength="179" x="276" y="1793.7793">server_db Standard.delete</text><rect fill="#FFFFFF" height="40" rx="12.5" ry="12.5" style="stroke:#0000FF;stroke-width:1.5;" width="119" x="306" y="1844.4883"/><text fill="#000000" font-family="sans-serif" font-size="14" lengthAdjust="spacing" textLength="109" x="311" y="1869.7793">server_db initial</text><!--MD5=[2193ab1a6bad3bb39a76856e441db619]
link step_parallel_undeploy_delete_server_db_server_db_deleting to step_parallel_undeploy_delete_server_db_server_db_Standard.delete--><path d="M365.5,1732.8549 C365.5,1742.2155 365.5,1753.4103 365.5,1763.2956 " fill="none" id="step_parallel_undeploy_delete_server_db_server_db_deleting-to-step_parallel_undeploy_delete_server_db_server_db_Standard.delete" style="stroke:#0000FF;stroke-width:1.0;"/><polygon fill="#0000FF" points="365.5,1768.329,369.5,1759.329,365.5,1763.329,361.5,1759.329,365.5,1768.329" style="stroke:#0000FF;stroke-width:1.0;"/><!--MD5=[39887ab4ed229133181d36b712b7dca4]
link step_parallel_undeploy_delete_server_db_server_db_Standard.delete to step_parallel_undeploy_delete_server_db_server_db_initial--><path d="M365.5,1808.8549 C365.5,1818.2155 365.5,1829.4103 365.5,1839.2956 " fill="none" id="step_parallel_undeploy_delete_server_db_server_db_Standard.delete-to-step_parallel_undeploy_delete_server_db_server_db_initial" style="stroke:#0000FF;stroke-width:1.0;"/><polygon fill="#0000FF" points="365.5,1844.329,369.5,1835.329,365.5,1839.329,361.5,1835.329,365.5,1844.329" style="stroke:#0000FF;stroke-width:1.0;"/><!--MD5=[5ec35d36b44053829cbd4e56439f9217]
link step_parallel_undeploy_stop_app to step_parallel_undeploy_stop_app_fork--><path d="M238.5,326.1621 C238.5,349.157 238.5,369.5541 238.5,380.8003 " fill="none" id="step_parallel_undeploy_stop_app-to-step_parallel_undeploy_stop_app_fork" style="stroke:#0000FF;stroke-width:1.0;"/><polygon fill="#0000FF" points="238.5,385.8126,242.5,376.8126,238.5,380.8126,234.5,376.8126,238.5,385.8126" style="stroke:#0000FF;stroke-width:1.0;"/><!--MD5=[6fbdcd32817ee59c813590b91dba3ad9]
link step_parallel_undeploy_stop_app_fork to step_parallel_undeploy_delete_app--><path d="M236.952,394.1888 C233.7642,402.8146 225.9931,423.8422 216.8418,448.6045 " fill="none" id="step_parallel_undeploy_stop_app_fork-to-step_parallel_undeploy_delete_app" style="stroke:#0000FF;stroke-width:1.0;"/><polygon fill="#0000FF" points="214.9941,453.6042,221.8662,446.5491,216.7275,448.9143,214.3623,443.7756,214.9941,453.6042" style="stroke:#0000FF;stroke-width:1.0;"/><!--MD5=[25c2f9a9e5f3f587a22628f384ac871f]
link step_parallel_undeploy_stop_app_fork to step_parallel_undeploy_stop_db--><path d="M241.2195,394.1438 C247.5845,404.0457 263.5141,430.0436 271.5,454 C303.6017,550.2999 321.6907,664.0806 331.5647,748.9093 " fill="none" id="step_parallel_undeploy_stop_app_fork-to-step_parallel_undeploy_stop_db" style="stroke:#0000FF;stroke-width:1.0;"/><polygon fill="#0000FF" points="332.1451,753.9439,335.0882,744.5451,331.5725,748.9768,327.1408,745.4612,332.1451,753.9439" style="stroke:#0000FF;stroke-width:1.0;"/><!--MD5=[0c0fb70942371b99f96267cd7fb2c37a]
link step_parallel_undeploy_delete_app to step_parallel_undeploy_stop_node--><path d="M159.6736,694.2929 C158.0644,712.1733 156.4024,730.6404 154.784,748.6221 " fill="none" id="step_parallel_undeploy_delete_app-to-step_parallel_undeploy_stop_node" style="stroke:#0000FF;stroke-width:1.0;"/><polygon fill="#0000FF" points="154.3288,753.6801,159.1196,745.075,154.7771,748.7002,151.1518,744.3577,154.3288,753.6801" style="stroke:#0000FF;stroke-width:1.0;"/><!--MD5=[def9cb364b7a1e083fface716610b2c4]
link step_parallel_undeploy_stop_node to step_parallel_undeploy_delete_node--><path d="M141.0941,994.2929 C140.7365,1012.1733 140.3672,1030.6404 140.0076,1048.6221 " fill="none" id="step_parallel_undeploy_stop_node-to-step_parallel_undeploy_delete_node" style="stroke:#0000FF;stroke-width:1.0;"/><polygon fill="#0000FF" points="139.9064,1053.6801,144.0859,1044.762,140.0065,1048.6811,136.0875,1044.6018,139.9064,1053.6801" style="stroke:#0000FF;stroke-width:1.0;"/><!--MD5=[ddf36cc2c76f7b0288f00f37411cde48]
link step_parallel_undeploy_delete_node to step_parallel_undeploy_stop_server_app--><path d="M131.0844,1294.2929 C130.1308,1312.1733 129.1458,1330.6404 128.1868,1348.6221 " fill="none" id="step_parallel_undeploy_delete_node-to-step_parallel_undeploy_stop_server_app" style="stroke:#0000FF;stroke-width:1.0;"/><polygon fill="#0000FF" points="127.9171,1353.6801,132.391,1344.906,128.1835,1348.6872,124.4023,1344.4797,127.9171,1353.6801" style="stroke:#0000FF;stroke-width:1.0;"/><!--MD5=[f9bc422e6d6b7ff675c389421cc86b1c]
link step_parallel_undeploy_stop_db to step_parallel_undeploy_delete_db--><path d="M345.7078,994.2929 C346.1846,1012.1733 346.6771,1030.6404 347.1566,1048.6221 " fill="none" id="step_parallel_undeploy_stop_db-to-step_parallel_undeploy_delete_db" style="stroke:#0000FF;stroke-width:1.0;"/><polygon fill="#0000FF" points="347.2915,1053.6801,351.0499,1044.5766,347.1581,1048.6819,343.0528,1044.79,347.2915,1053.6801" style="stroke:#0000FF;stroke-width:1.0;"/><!--MD5=[316c79a16e0c1c6def2c50c80de9a270]
link step_parallel_undeploy_delete_db to step_parallel_undeploy_stop_server_db--><path d="M354.5098,1294.2929 C355.1058,1312.1733 355.7213,1330.6404 356.3207,1348.6221 " fill="none" id="step_parallel_undeploy_delete_db-to-step_parallel_undeploy_stop_server_db" style="stroke:#0000FF;stroke-width:1.0;"/><polygon fill="#0000FF" points="356.4893,1353.6801,360.1873,1344.5518,356.3227,1348.6829,352.1917,1344.8184,356.4893,1353.6801" style="stroke:#0000FF;stroke-width:1.0;"/><!--MD5=[ef7198e304c712beada13e24cdcbd15e]
link step_parallel_undeploy_stop_server_app to step_parallel_undeploy_delete_server_app--><path d="M119.0941,1594.2929 C118.7365,1612.1733 118.3672,1630.6404 118.0076,1648.6221 " fill="none" id="step_parallel_undeploy_stop_server_app-to-step_parallel_undeploy_delete_server_app" style="stroke:#0000FF;stroke-width:1.0;"/><polygon fill="#0000FF" points="117.9064,1653.6801,122.0859,1644.762,118.0065,1648.6811,114.0875,1644.6018,117.9064,1653.6801" style="stroke:#0000FF;stroke-width:1.0;"/><!--MD5=[478d1fca105b5b38209bc27569ed7053]
link step_parallel_undeploy_stop_server_db to step_parallel_undeploy_delete_server_db--><path d="M361.7029,1594.2929 C361.8817,1612.1733 362.0664,1630.6404 362.2462,1648.6221 " fill="none" id="step_parallel_undeploy_stop_server_db-to-step_parallel_undeploy_delete_server_db" style="stroke:#0000FF;stroke-width:1.0;"/><polygon fill="#0000FF" points="362.2968,1653.6801,366.2063,1644.6404,362.2467,1648.6804,358.2067,1644.7207,362.2968,1653.6801" style="stroke:#0000FF;stroke-width:1.0;"/><!--MD5=[6db18194911fb33bb470800355e0fae7]
link *start to step_parallel_undeploy_stop_app--><path d="M238.5,26.2152 C238.5,37.7525 238.5,57.9094 238.5,80.6599 " fill="none" id="*start-to-step_parallel_undeploy_stop_app" style="stroke:#0000FF;stroke-width:1.0;"/><polygon fill="#0000FF" points="238.5,85.8637,242.5,76.8637,238.5,80.8637,234.5,76.8637,238.5,85.8637" style="stroke:#0000FF;stroke-width:1.0;"/><!--MD5=[b5726277a51be5274253853891e80363]
link parallel_undeploy_join to *end--><path d="M239.5,1962.4074 C239.5,1972.8066 239.5,1999.2833 239.5,2016.4165 " fill="none" id="parallel_undeploy_join-to-*end" style="stroke:#0000FF;stroke-width:1.0;"/><polygon fill="#0000FF" points="239.5,2021.8319,243.5,2012.8319,239.5,2016.8319,235.5,2012.8319,239.5,2021.8319" style="stroke:#0000FF;stroke-width:1.0;"/><!--MD5=[3d6bd68af72adff0ad2845fed8d57158]
link step_parallel_undeploy_delete_server_app to parallel_undeploy_join--><path d="M196.4788,1894.1621 C212.2597,1917.5789 226.2251,1938.3017 233.7112,1949.4101 " fill="none" id="step_parallel_undeploy_delete_server_app-to-parallel_undeploy_join" style="stroke:#0000FF;stroke-width:1.0;"/><polygon fill="#0000FF" points="236.678,1953.8126,234.9653,1944.1138,233.8837,1949.6663,228.3312,1948.5847,236.678,1953.8126" style="stroke:#0000FF;stroke-width:1.0;"/><!--MD5=[5b252519aabdc24cb5dbf2e01e880fc4]
link step_parallel_undeploy_delete_server_db to parallel_undeploy_join--><path d="M282.5212,1894.1621 C266.7403,1917.5789 252.7749,1938.3017 245.2888,1949.4101 " fill="none" id="step_parallel_undeploy_delete_server_db-to-parallel_undeploy_join" style="stroke:#0000FF;stroke-width:1.0;"/><polygon fill="#0000FF" points="242.322,1953.8126,250.6688,1948.5847,245.1163,1949.6663,244.0347,1944.1138,242.322,1953.8126" style="stroke:#0000FF;stroke-width:1.0;"/><!--MD5=[1379eb4819bfa03e2491fed4dab468f0]
@startuml
hide empty description
skinparam shadowing false
skinparam state {
  ArrowColor blue
  BorderColor blue
  EndColor black
  StartColor green
  BackGroundColor<< step >> white
  BorderColor<< step >> black
  BackGroundColor<< delegate >> lightgrey
  BackGroundColor<< set_state >> white
  BackGroundColor<< call_operation >> lightblue
  BackGroundColor<< inline >> white
}
skinparam ActivityBarColor<<fork>> DarkGreen
skinparam ActivityBarColor<<join>> DarkOrange

state "stop_app" as step_parallel_undeploy_stop_app << step >> {
  state "app stopping" as step_parallel_undeploy_stop_app_app_stopping << set_state >>
  state "app Standard.stop" as step_parallel_undeploy_stop_app_app_Standard.stop << call_operation >>
  state "app stopped" as step_parallel_undeploy_stop_app_app_stopped << set_state >>
  step_parallel_undeploy_stop_app_app_stopping - -> step_parallel_undeploy_stop_app_app_Standard.stop
  step_parallel_undeploy_stop_app_app_Standard.stop - -> step_parallel_undeploy_stop_app_app_stopped
}
state "delete_app" as step_parallel_undeploy_delete_app << step >> {
  state "app deleting" as step_parallel_undeploy_delete_app_app_deleting << set_state >>
  state "app Standard.delete" as step_parallel_undeploy_delete_app_app_Standard.delete << call_operation >>
  state "app initial" as step_parallel_undeploy_delete_app_app_initial << set_state >>
  step_parallel_undeploy_delete_app_app_deleting - -> step_parallel_undeploy_delete_app_app_Standard.delete
  step_parallel_undeploy_delete_app_app_Standard.delete - -> step_parallel_undeploy_delete_app_app_initial
}
state "stop_node" as step_parallel_undeploy_stop_node << step >> {
  state "node stopping" as step_parallel_undeploy_stop_node_node_stopping << set_state >>
  state "node Standard.stop" as step_parallel_undeploy_stop_node_node_Standard.stop << call_operation >>
  state "node stopped" as step_parallel_undeploy_stop_node_node_stopped << set_state >>
  step_parallel_undeploy_stop_node_node_stopping - -> step_parallel_undeploy_stop_node_node_Standard.stop
  step_parallel_undeploy_stop_node_node_Standard.stop - -> step_parallel_undeploy_stop_node_node_stopped
}
state "delete_node" as step_parallel_undeploy_delete_node << step >> {
  state "node deleting" as step_parallel_undeploy_delete_node_node_deleting << set_state >>
  state "node Standard.delete" as step_parallel_undeploy_delete_node_node_Standard.delete << call_operation >>
  state "node initial" as step_parallel_undeploy_delete_node_node_initial << set_state >>
  step_parallel_undeploy_delete_node_node_deleting - -> step_parallel_undeploy_delete_node_node_Standard.delete
  step_parallel_undeploy_delete_node_node_Standard.delete - -> step_parallel_undeploy_delete_node_node_initial
}
state "stop_db" as step_parallel_undeploy_stop_db << step >> {
  state "db stopping" as step_parallel_undeploy_stop_db_db_stopping << set_state >>
  state "db Standard.stop" as step_parallel_undeploy_stop_db_db_Standard.stop << call_operation >>
  state "db stopped" as step_parallel_undeploy_stop_db_db_stopped << set_state >>
  step_parallel_undeploy_stop_db_db_stopping - -> step_parallel_undeploy_stop_db_db_Standard.stop
  step_parallel_undeploy_stop_db_db_Standard.stop - -> step_parallel_undeploy_stop_db_db_stopped
}
state "delete_db" as step_parallel_undeploy_delete_db << step >> {
  state "db deleting" as step_parallel_undeploy_delete_db_db_deleting << set_state >>
  state "db Standard.delete" as step_parallel_undeploy_delete_db_db_Standard.delete << call_operation >>
  state "db initial" as step_parallel_undeploy_delete_db_db_initial << set_state >>
  step_parallel_undeploy_delete_db_db_deleting - -> step_parallel_undeploy_delete_db_db_Standard.delete
  step_parallel_undeploy_delete_db_db_Standard.delete - -> step_parallel_undeploy_delete_db_db_initial
}
state "stop_server_app" as step_parallel_undeploy_stop_server_app << step >> {
  state "server_app stopping" as step_parallel_undeploy_stop_server_app_server_app_stopping << set_state >>
  state "server_app Standard.stop" as step_parallel_undeploy_stop_server_app_server_app_Standard.stop << call_operation >>
  state "server_app stopped" as step_parallel_undeploy_stop_server_app_server_app_stopped << set_state >>
  step_parallel_undeploy_stop_server_app_server_app_stopping - -> step_parallel_undeploy_stop_server_app_server_app_Standard.stop
  step_parallel_undeploy_stop_server_app_server_app_Standard.stop - -> step_parallel_undeploy_stop_server_app_server_app_stopped
}
state "delete_server_app" as step_parallel_undeploy_delete_server_app << step >> {
  state "server_app deleting" as step_parallel_undeploy_delete_server_app_server_app_deleting << set_state >>
  state "server_app Standard.delete" as step_parallel_undeploy_delete_server_app_server_app_Standard.delete << call_operation >>
  state "server_app initial" as step_parallel_undeploy_delete_server_app_server_app_initial << set_state >>
  step_parallel_undeploy_delete_server_app_server_app_deleting - -> step_parallel_undeploy_delete_server_app_server_app_Standard.delete
  step_parallel_undeploy_delete_server_app_server_app_Standard.delete - -> step_parallel_undeploy_delete_server_app_server_app_initial
}
state "stop_server_db" as step_parallel_undeploy_stop_server_db << step >> {
  state "server_db stopping" as step_parallel_undeploy_stop_server_db_server_db_stopping << set_state >>
  state "server_db Standard.stop" as step_parallel_undeploy_stop_server_db_server_db_Standard.stop << call_operation >>
  state "server_db stopped" as step_parallel_undeploy_stop_server_db_server_db_stopped << set_state >>
  step_parallel_undeploy_stop_server_db_server_db_stopping - -> step_parallel_undeploy_stop_server_db_server_db_Standard.stop
  step_parallel_undeploy_stop_server_db_server_db_Standard.stop - -> step_parallel_undeploy_stop_server_db_server_db_stopped
}
state "delete_server_db" as step_parallel_undeploy_delete_server_db << step >> {
  state "server_db deleting" as step_parallel_undeploy_delete_server_db_server_db_deleting << set_state >>
  state "server_db Standard.delete" as step_parallel_undeploy_delete_server_db_server_db_Standard.delete << call_operation >>
  state "server_db initial" as step_parallel_undeploy_delete_server_db_server_db_initial << set_state >>
  step_parallel_undeploy_delete_server_db_server_db_deleting - -> step_parallel_undeploy_delete_server_db_server_db_Standard.delete
  step_parallel_undeploy_delete_server_db_server_db_Standard.delete - -> step_parallel_undeploy_delete_server_db_server_db_initial
}
state step_parallel_undeploy_stop_app_fork <<fork>>
step_parallel_undeploy_stop_app - -> step_parallel_undeploy_stop_app_fork
step_parallel_undeploy_stop_app_fork - -> step_parallel_undeploy_delete_app
step_parallel_undeploy_stop_app_fork - -> step_parallel_undeploy_stop_db
step_parallel_undeploy_delete_app - -> step_parallel_undeploy_stop_node
step_parallel_undeploy_stop_node - -> step_parallel_undeploy_delete_node
step_parallel_undeploy_delete_node - -> step_parallel_undeploy_stop_server_app
step_parallel_undeploy_stop_db - -> step_parallel_undeploy_delete_db
step_parallel_undeploy_delete_db - -> step_parallel_undeploy_stop_server_db
step_parallel_undeploy_stop_server_app - -> step_parallel_undeploy_delete_server_app
step_parallel_undeploy_stop_server_db - -> step_parallel_undeploy_delete_server_db
[*] - -> step_parallel_undeploy_stop_app
state parallel_undeploy_join <<join>>
parallel_undeploy_join - -> [*]
step_parallel_undeploy_delete_server_app - -> parallel_undeploy_join
step_parallel_undeploy_delete_server_db - -> parallel_undeploy_join
@enduml

PlantUML version 1.2021.13(Mon Nov 01 12:38:45 CET 2021)
(GPL source distribution)
Java Runtime: Java(TM) SE Runtime Environment
JVM: Java HotSpot(TM) 64-Bit Server VM
Default Encoding: UTF-8
Language: fr
Country: FR
--></g></svg>