<?xml version="1.0" encoding="UTF-8" standalone="no"?><svg xmlns="http://www.w3.org/2000/svg" xmlns:xlink="http://www.w3.org/1999/xlink" contentScriptType="application/ecmascript" contentStyleType="text/css" height="581px" preserveAspectRatio="none" style="width:914px;height:581px;background:#FFFFFF;" version="1.1" viewBox="0 0 914 581" width="914px" zoomAndPan="magnify"><defs><filter height="300%" id="f1gkcc66njqzfd" width="300%" x="-1" y="-1"><feGaussianBlur result="blurOut" stdDeviation="2.0"/><feColorMatrix in="blurOut" result="blurOut2" type="matrix" values="0 0 0 0 0 0 0 0 0 0 0 0 0 0 0 0 0 0 .4 0"/><feOffset dx="4.0" dy="4.0" in="blurOut2" result="blurOut3"/><feBlend in="SourceGraphic" in2="blurOut3" mode="normal"/></filter></defs><g><!--MD5=[9c58e51676e75b1133dd58a2a1b0a3e9]
class tosca_interfaces_Root_IT--><rect codeLine="10" fill="#DDDDDD" filter="url(#f1gkcc66njqzfd)" height="48" id="tosca_interfaces_Root_IT" style="stroke:#A80036;stroke-width:1.5;" width="152" x="513" y="7"/><ellipse cx="528" cy="23" fill="#008000" rx="11" ry="11" style="stroke:#A80036;stroke-width:1.0;"/><path d="M523.9277,18.7651 L523.9277,16.6069 L531.3071,16.6069 L531.3071,18.7651 L528.8418,18.7651 L528.8418,26.8418 L531.3071,26.8418 L531.3071,29 L523.9277,29 L523.9277,26.8418 L526.3931,26.8418 L526.3931,18.7651 Z " fill="#000000"/><text fill="#000000" font-family="sans-serif" font-size="12" lengthAdjust="spacing" textLength="120" x="542" y="27.5352">tosca.interfaces.Root</text><line style="stroke:#A80036;stroke-width:1.5;" x1="514" x2="664" y1="39" y2="39"/><line style="stroke:#A80036;stroke-width:1.5;" x1="514" x2="664" y1="47" y2="47"/><!--MD5=[1aac469e09f4b411af346115765a4493]
class app_interface_IT--><rect codeLine="3" fill="#FEFECE" filter="url(#f1gkcc66njqzfd)" height="112.7754" id="app_interface_IT" style="stroke:#A80036;stroke-width:1.5;" width="111" x="356.5" y="116"/><ellipse cx="371.5" cy="132" fill="#008000" rx="11" ry="11" style="stroke:#A80036;stroke-width:1.0;"/><path d="M367.4277,127.7651 L367.4277,125.6069 L374.8071,125.6069 L374.8071,127.7651 L372.3418,127.7651 L372.3418,135.8418 L374.8071,135.8418 L374.8071,138 L367.4277,138 L367.4277,135.8418 L369.8931,135.8418 L369.8931,127.7651 Z " fill="#000000"/><text fill="#000000" font-family="sans-serif" font-size="12" lengthAdjust="spacing" textLength="79" x="385.5" y="136.5352">app_interface</text><line style="stroke:#A80036;stroke-width:1.5;" x1="357.5" x2="466.5" y1="148" y2="148"/><line style="stroke:#A80036;stroke-width:1.5;" x1="357.5" x2="466.5" y1="156" y2="156"/><ellipse cx="367.5" cy="167" fill="#84BE84" rx="3" ry="3" style="stroke:#038048;stroke-width:1.0;"/><text fill="#000000" font-family="sans-serif" font-size="11" lengthAdjust="spacing" textLength="41" x="376.5" y="170.6348">create()</text><ellipse cx="367.5" cy="179.9551" fill="#84BE84" rx="3" ry="3" style="stroke:#038048;stroke-width:1.0;"/><text fill="#000000" font-family="sans-serif" font-size="11" lengthAdjust="spacing" textLength="85" x="376.5" y="183.5898">add_examples()</text><ellipse cx="367.5" cy="192.9102" fill="#84BE84" rx="3" ry="3" style="stroke:#038048;stroke-width:1.0;"/><text fill="#000000" font-family="sans-serif" font-size="11" lengthAdjust="spacing" textLength="33" x="376.5" y="196.5449">start()</text><ellipse cx="367.5" cy="205.8652" fill="#84BE84" rx="3" ry="3" style="stroke:#038048;stroke-width:1.0;"/><text fill="#000000" font-family="sans-serif" font-size="11" lengthAdjust="spacing" textLength="32" x="376.5" y="209.5">stop()</text><ellipse cx="367.5" cy="218.8203" fill="#84BE84" rx="3" ry="3" style="stroke:#038048;stroke-width:1.0;"/><text fill="#000000" font-family="sans-serif" font-size="11" lengthAdjust="spacing" textLength="40" x="376.5" y="222.4551">delete()</text><!--MD5=[f8fb87ce118cbcc43cc35f8fc81a3f6f]
class language_interface_IT--><rect codeLine="11" fill="#FEFECE" filter="url(#f1gkcc66njqzfd)" height="73.9102" id="language_interface_IT" style="stroke:#A80036;stroke-width:1.5;" width="140" x="746" y="135.5"/><ellipse cx="761" cy="151.5" fill="#008000" rx="11" ry="11" style="stroke:#A80036;stroke-width:1.0;"/><path d="M756.9277,147.2651 L756.9277,145.1069 L764.3071,145.1069 L764.3071,147.2651 L761.8418,147.2651 L761.8418,155.3418 L764.3071,155.3418 L764.3071,157.5 L756.9277,157.5 L756.9277,155.3418 L759.3931,155.3418 L759.3931,147.2651 Z " fill="#000000"/><text fill="#000000" font-family="sans-serif" font-size="12" lengthAdjust="spacing" textLength="108" x="775" y="156.0352">language_interface</text><line style="stroke:#A80036;stroke-width:1.5;" x1="747" x2="885" y1="167.5" y2="167.5"/><line style="stroke:#A80036;stroke-width:1.5;" x1="747" x2="885" y1="175.5" y2="175.5"/><ellipse cx="757" cy="186.5" fill="#84BE84" rx="3" ry="3" style="stroke:#038048;stroke-width:1.0;"/><text fill="#000000" font-family="sans-serif" font-size="11" lengthAdjust="spacing" textLength="40" x="766" y="190.1348">install()</text><ellipse cx="757" cy="199.4551" fill="#84BE84" rx="3" ry="3" style="stroke:#038048;stroke-width:1.0;"/><text fill="#000000" font-family="sans-serif" font-size="11" lengthAdjust="spacing" textLength="54" x="766" y="203.0898">uninstall()</text><!--MD5=[22872057fcc915de863156db51af3bdc]
class tosker_nodes_Software_NT--><rect codeLine="28" fill="#DDDDDD" filter="url(#f1gkcc66njqzfd)" height="48" id="tosker_nodes_Software_NT" style="stroke:#A80036;stroke-width:1.5;" width="160" x="535" y="148.5"/><ellipse cx="550" cy="164.5" fill="#008000" rx="11" ry="11" style="stroke:#A80036;stroke-width:1.0;"/><path d="M545.9878,158.1069 L548.6191,158.1069 L552.0723,167.1133 L552.0723,158.1069 L554.2305,158.1069 L554.2305,170.5 L551.6157,170.5 L548.146,161.4937 L548.146,170.5 L545.9878,170.5 Z " fill="#000000"/><text fill="#000000" font-family="sans-serif" font-size="12" lengthAdjust="spacing" textLength="128" x="564" y="169.0352">tosker.nodes.Software</text><line style="stroke:#A80036;stroke-width:1.5;" x1="536" x2="694" y1="180.5" y2="180.5"/><line style="stroke:#A80036;stroke-width:1.5;" x1="536" x2="694" y1="188.5" y2="188.5"/><!--MD5=[87b87bacf9a267621c01a05e6dddfe5c]
class AppSoftware_NT--><rect codeLine="16" fill="#FEFECE" filter="url(#f1gkcc66njqzfd)" height="136.208" id="AppSoftware_NT" style="stroke:#A80036;stroke-width:1.5;" width="269" x="84.5" y="306"/><ellipse cx="178.25" cy="322" fill="#008000" rx="11" ry="11" style="stroke:#A80036;stroke-width:1.0;"/><path d="M174.2378,315.6069 L176.8691,315.6069 L180.3223,324.6133 L180.3223,315.6069 L182.4805,315.6069 L182.4805,328 L179.8657,328 L176.396,318.9937 L176.396,328 L174.2378,328 Z " fill="#000000"/><text fill="#000000" font-family="sans-serif" font-size="12" lengthAdjust="spacing" textLength="73" x="198.75" y="326.5352">AppSoftware</text><line style="stroke:#A80036;stroke-width:1.5;" x1="85.5" x2="352.5" y1="338" y2="338"/><ellipse cx="95.5" cy="365.9551" rx="3" ry="3" style="stroke:#038048;stroke-width:1.0;fill:none;"/><text fill="#000000" font-family="sans-serif" font-size="11" font-weight="bold" lengthAdjust="spacing" textLength="81" x="104.5" y="369.5898">db_connection</text><text fill="#000000" font-family="sans-serif" font-size="11" lengthAdjust="spacing" textLength="218" x="104.5" y="382.5449">capability : tosca.capabilities.Endpoint[1]</text><text fill="#000000" font-family="sans-serif" font-size="11" lengthAdjust="spacing" textLength="243" x="104.5" y="395.5">relationship : tosca.relationships.ConnectsTo</text><text fill="#000000" font-family="sans-serif" font-size="11" lengthAdjust="spacing" textLength="134" x="104.5" y="408.4551">node : tosker.nodes.Root</text><line style="stroke:#A80036;stroke-width:1.0;stroke-dasharray:1.0,2.0;" x1="85.5" x2="183" y1="352.4775" y2="352.4775"/><text fill="#000000" font-family="sans-serif" font-size="11" lengthAdjust="spacing" textLength="72" x="183" y="356.1348">requirements</text><line style="stroke:#A80036;stroke-width:1.0;stroke-dasharray:1.0,2.0;" x1="255" x2="352.5" y1="352.4775" y2="352.4775"/><line style="stroke:#A80036;stroke-width:1.0;" x1="85.5" x2="352.5" y1="414.7754" y2="414.7754"/><line style="stroke:#A80036;stroke-width:1.0;stroke-dasharray:1.0,2.0;" x1="85.5" x2="159.5" y1="429.2529" y2="429.2529"/><text fill="#000000" font-family="sans-serif" font-size="11" lengthAdjust="spacing" textLength="119" x="159.5" y="432.9102">interface my_interface</text><line style="stroke:#A80036;stroke-width:1.0;stroke-dasharray:1.0,2.0;" x1="278.5" x2="352.5" y1="429.2529" y2="429.2529"/><!--MD5=[bd814c571e11a2214592d85e7995d8fb]
class tosca_capabilities_Endpoint_CT--><rect codeLine="25" fill="#DDDDDD" filter="url(#f1gkcc66njqzfd)" height="48" id="tosca_capabilities_Endpoint_CT" style="stroke:#A80036;stroke-width:1.5;" width="186" x="548" y="350"/><ellipse cx="563" cy="366" fill="#008000" rx="11" ry="11" style="stroke:#A80036;stroke-width:1.0;"/><path d="M565.9731,371.6431 Q565.3921,371.9419 564.7529,372.0913 Q564.1138,372.2407 563.4082,372.2407 Q560.9014,372.2407 559.5815,370.5889 Q558.2617,368.937 558.2617,365.8159 Q558.2617,362.6865 559.5815,361.0347 Q560.9014,359.3828 563.4082,359.3828 Q564.1138,359.3828 564.7612,359.5322 Q565.4087,359.6816 565.9731,359.9805 L565.9731,362.7031 Q565.3423,362.1221 564.7488,361.8523 Q564.1553,361.5825 563.5244,361.5825 Q562.1797,361.5825 561.4949,362.6492 Q560.8101,363.7158 560.8101,365.8159 Q560.8101,367.9077 561.4949,368.9744 Q562.1797,370.041 563.5244,370.041 Q564.1553,370.041 564.7488,369.7712 Q565.3423,369.5015 565.9731,368.9204 Z " fill="#000000"/><text fill="#000000" font-family="sans-serif" font-size="12" lengthAdjust="spacing" textLength="154" x="577" y="370.5352">tosca.capabilities.Endpoint</text><line style="stroke:#A80036;stroke-width:1.5;" x1="549" x2="733" y1="382" y2="382"/><line style="stroke:#A80036;stroke-width:1.5;" x1="549" x2="733" y1="390" y2="390"/><!--MD5=[73ef529cb74862cd16c9ea7608a24b08]
class tosca_relationships_ConnectsTo_RT--><rect codeLine="26" fill="#DDDDDD" filter="url(#f1gkcc66njqzfd)" height="48" id="tosca_relationships_ConnectsTo_RT" style="stroke:#A80036;stroke-width:1.5;" width="210" x="7" y="519"/><ellipse cx="22" cy="535" fill="#008000" rx="11" ry="11" style="stroke:#A80036;stroke-width:1.0;"/><path d="M23.1987,535.1479 Q23.564,535.2227 23.8337,535.4924 Q24.1035,535.7622 24.4937,536.5425 L26.7349,541 L24.0454,541 L22.5513,537.8706 Q22.4849,537.7378 22.377,537.5054 Q21.7212,536.1025 20.833,536.1025 L20.0527,536.1025 L20.0527,541 L17.604,541 L17.604,528.6069 L21.1401,528.6069 Q23.5308,528.6069 24.5725,529.4536 Q25.6143,530.3003 25.6143,532.2095 Q25.6143,533.4878 24.9917,534.2432 Q24.3691,534.9985 23.1987,535.1479 Z M20.0527,530.6655 L20.0527,534.0439 L21.2065,534.0439 Q22.2109,534.0439 22.6467,533.6497 Q23.0825,533.2554 23.0825,532.3506 Q23.0825,531.4458 22.6509,531.0557 Q22.2192,530.6655 21.2065,530.6655 Z " fill="#000000"/><text fill="#000000" font-family="sans-serif" font-size="12" lengthAdjust="spacing" textLength="178" x="36" y="539.5352">tosca.relationships.ConnectsTo</text><line style="stroke:#A80036;stroke-width:1.5;" x1="8" x2="216" y1="551" y2="551"/><line style="stroke:#A80036;stroke-width:1.5;" x1="8" x2="216" y1="559" y2="559"/><!--MD5=[918e0c6645ada723c6ca1bcffe27e2d5]
class tosker_nodes_Root_NT--><rect codeLine="27" fill="#DDDDDD" filter="url(#f1gkcc66njqzfd)" height="48" id="tosker_nodes_Root_NT" style="stroke:#A80036;stroke-width:1.5;" width="137" x="257.5" y="519"/><ellipse cx="272.5" cy="535" fill="#008000" rx="11" ry="11" style="stroke:#A80036;stroke-width:1.0;"/><path d="M268.4878,528.6069 L271.1191,528.6069 L274.5723,537.6133 L274.5723,528.6069 L276.7305,528.6069 L276.7305,541 L274.1157,541 L270.646,531.9937 L270.646,541 L268.4878,541 Z " fill="#000000"/><text fill="#000000" font-family="sans-serif" font-size="12" lengthAdjust="spacing" textLength="105" x="286.5" y="539.5352">tosker.nodes.Root</text><line style="stroke:#A80036;stroke-width:1.5;" x1="258.5" x2="393.5" y1="551" y2="551"/><line style="stroke:#A80036;stroke-width:1.5;" x1="258.5" x2="393.5" y1="559" y2="559"/><!--MD5=[5ab326370703219c5fb08f9b1f1a1c68]
class NodeSoftware_NT--><rect codeLine="29" fill="#FEFECE" filter="url(#f1gkcc66njqzfd)" height="67.4326" id="NodeSoftware_NT" style="stroke:#A80036;stroke-width:1.5;" width="127" x="769.5" y="340.5"/><ellipse cx="791.25" cy="356.5" fill="#008000" rx="11" ry="11" style="stroke:#A80036;stroke-width:1.0;"/><path d="M787.2378,350.1069 L789.8691,350.1069 L793.3223,359.1133 L793.3223,350.1069 L795.4805,350.1069 L795.4805,362.5 L792.8657,362.5 L789.396,353.4937 L789.396,362.5 L787.2378,362.5 Z " fill="#000000"/><text fill="#000000" font-family="sans-serif" font-size="12" lengthAdjust="spacing" textLength="80" x="806.75" y="361.0352">NodeSoftware</text><line style="stroke:#A80036;stroke-width:1.5;" x1="770.5" x2="895.5" y1="372.5" y2="372.5"/><line style="stroke:#A80036;stroke-width:1.0;" x1="770.5" x2="895.5" y1="380.5" y2="380.5"/><line style="stroke:#A80036;stroke-width:1.0;stroke-dasharray:1.0,2.0;" x1="770.5" x2="773.5" y1="394.9775" y2="394.9775"/><text fill="#000000" font-family="sans-serif" font-size="11" lengthAdjust="spacing" textLength="119" x="773.5" y="398.6348">interface my_interface</text><line style="stroke:#A80036;stroke-width:1.0;stroke-dasharray:1.0,2.0;" x1="892.5" x2="895.5" y1="394.9775" y2="394.9775"/><!--MD5=[0b8ff082eca36912d14061f45ac5ffbc]
reverse link tosca_interfaces_Root_IT to app_interface_IT--><path codeLine="33" d="M543.1964,67.617 C520.1155,86.0687 491.9389,108.594 467.6225,128.0334 " fill="none" id="tosca_interfaces_Root_IT-backto-app_interface_IT" style="stroke:#A80036;stroke-width:1.0;"/><polygon fill="none" points="538.9817,62.0245,558.9744,55.0035,547.7237,72.9597,538.9817,62.0245" style="stroke:#A80036;stroke-width:1.0;"/><!--MD5=[09761495a448c9de73bacd6f13960927]
reverse link tosca_interfaces_Root_IT to language_interface_IT--><path codeLine="34" d="M644.7513,65.7524 C678.6067,86.8561 721.8067,113.7848 756.3468,135.3153 " fill="none" id="tosca_interfaces_Root_IT-backto-language_interface_IT" style="stroke:#A80036;stroke-width:1.0;"/><polygon fill="none" points="640.7771,71.5238,627.5075,55.0035,648.183,59.643,640.7771,71.5238" style="stroke:#A80036;stroke-width:1.0;"/><!--MD5=[c05e979c091e7af1adb00fce9b53b94d]
reverse link tosker_nodes_Software_NT to AppSoftware_NT--><path codeLine="35" d="M552.6271,206.0527 C514.2398,226.5489 463.9458,253.1278 419,276 C397.9787,286.6974 375.6198,297.8611 353.7543,308.6614 " fill="none" id="tosker_nodes_Software_NT-backto-AppSoftware_NT" style="stroke:#A80036;stroke-width:1.0;"/><polygon fill="none" points="549.5027,199.7854,570.4396,196.5224,556.1073,212.1297,549.5027,199.7854" style="stroke:#A80036;stroke-width:1.0;"/><!--MD5=[24ad9cf21cd9617b4f266b2a7c5309ae]
reverse link AppSoftware_NT to tosca_capabilities_Endpoint_CT--><path codeLine="36" d="M366.8087,374 C427.0288,374 494.8141,374 547.92,374 " fill="none" id="AppSoftware_NT-backto-tosca_capabilities_Endpoint_CT" style="stroke:#A80036;stroke-width:1.0;"/><polygon fill="#A80036" points="353.6837,374,359.6837,378,365.6837,374,359.6837,370,353.6837,374" style="stroke:#A80036;stroke-width:1.0;"/><text fill="#000000" font-family="sans-serif" font-size="13" lengthAdjust="spacing" textLength="158" x="371.75" y="367.5684">db_connection.capability</text><text fill="#000000" font-family="sans-serif" font-size="13" lengthAdjust="spacing" textLength="8" x="531.8806" y="370.9601">1</text><!--MD5=[983948afc38fcedf029bcf6961511775]
link AppSoftware_NT to tosca_relationships_ConnectsTo_RT--><path codeLine="37" d="M127.8471,442.2742 C120.3051,451.4412 113.7614,461.3811 109,472 C103.2069,484.9197 103.2109,500.5248 104.9785,513.811 " fill="none" id="AppSoftware_NT-to-tosca_relationships_ConnectsTo_RT" style="stroke:#A80036;stroke-width:1.0;stroke-dasharray:7.0,7.0;"/><polygon fill="#A80036" points="105.7662,518.9677,108.3613,509.4669,105.0112,514.025,100.453,510.6749,105.7662,518.9677" style="stroke:#A80036;stroke-width:1.0;"/><text fill="#000000" font-family="sans-serif" font-size="13" lengthAdjust="spacing" textLength="172" x="110" y="485.5684">db_connection.relationship</text><!--MD5=[ded1cfe87e05a70738ce61d6f9dc4064]
link AppSoftware_NT to tosker_nodes_Root_NT--><path codeLine="38" d="M267.6625,442.1973 C274.3257,452.0879 280.9491,462.2286 287,472 C295.4408,485.6306 304.0978,501.201 311.1047,514.2805 " fill="none" id="AppSoftware_NT-to-tosker_nodes_Root_NT" style="stroke:#A80036;stroke-width:1.0;stroke-dasharray:7.0,7.0;"/><polygon fill="#A80036" points="313.608,518.9784,312.9055,509.1546,311.2566,514.5658,305.8454,512.9169,313.608,518.9784" style="stroke:#A80036;stroke-width:1.0;"/><text fill="#000000" font-family="sans-serif" font-size="13" lengthAdjust="spacing" textLength="128" x="298" y="485.5684">db_connection.node</text><!--MD5=[d1346b2ac3ee678d04a708e5095252ea]
reverse link app_interface_IT to AppSoftware_NT--><path codeLine="39" d="M343.6502,243.86 C324.308,264.054 303.3123,285.9744 284.1633,305.9668 " fill="none" id="app_interface_IT-backto-AppSoftware_NT" style="stroke:#A80036;stroke-width:1.0;stroke-dasharray:7.0,7.0;"/><polygon fill="none" points="338.8357,238.7667,357.7251,229.1652,348.9461,248.4507,338.8357,238.7667" style="stroke:#A80036;stroke-width:1.0;"/><text fill="#000000" font-family="sans-serif" font-size="13" lengthAdjust="spacing" textLength="81" x="329" y="272.5684">my_interface</text><!--MD5=[e78e98075c2d889fc6e5c7c60fc7014c]
reverse link tosker_nodes_Software_NT to NodeSoftware_NT--><path codeLine="40" d="M656.2036,210.585 C696.6303,247.9518 757.6933,304.3931 796.4407,340.2078 " fill="none" id="tosker_nodes_Software_NT-backto-NodeSoftware_NT" style="stroke:#A80036;stroke-width:1.0;"/><polygon fill="none" points="651.2315,215.5215,641.2959,196.8056,660.7343,205.2406,651.2315,215.5215" style="stroke:#A80036;stroke-width:1.0;"/><!--MD5=[7c5d93835931d313435396899f7877b8]
reverse link language_interface_IT to NodeSoftware_NT--><path codeLine="41" d="M820.8523,230.0139 C823.8665,265.7411 827.6359,310.4201 830.1698,340.4533 " fill="none" id="language_interface_IT-backto-NodeSoftware_NT" style="stroke:#A80036;stroke-width:1.0;stroke-dasharray:7.0,7.0;"/><polygon fill="none" points="813.864,230.4461,819.1577,209.9284,827.8144,229.2691,813.864,230.4461" style="stroke:#A80036;stroke-width:1.0;"/><text fill="#000000" font-family="sans-serif" font-size="13" lengthAdjust="spacing" textLength="81" x="825" y="272.5684">my_interface</text><!--MD5=[7a103db6c0b9cff33c067be1b97c76b6]
@startuml
set namespaceSeparator none
class "tosca.interfaces.Root" as tosca_interfaces_Root_IT << (I,green) >> #DDDDDD
class "app_interface" as app_interface_IT << (I,green) >> {
+create()
+add_examples()
+start()
+stop()
+delete()
}
class "tosca.interfaces.Root" as tosca_interfaces_Root_IT << (I,green) >> #DDDDDD
class "language_interface" as language_interface_IT << (I,green) >> {
+install()
+uninstall()
}
class "tosker.nodes.Software" as tosker_nodes_Software_NT << (N,green) >> #DDDDDD
class "AppSoftware" as AppSoftware_NT << (N,green) >> {
.. requirements ..
+<b>db_connection
 capability : tosca.capabilities.Endpoint[1]
 relationship : tosca.relationships.ConnectsTo
 node : tosker.nodes.Root
- -
.. interface my_interface ..
}
class "tosca.capabilities.Endpoint" as tosca_capabilities_Endpoint_CT << (C,green) >> #DDDDDD
class "tosca.relationships.ConnectsTo" as tosca_relationships_ConnectsTo_RT << (R,green) >> #DDDDDD
class "tosker.nodes.Root" as tosker_nodes_Root_NT << (N,green) >> #DDDDDD
class "tosker.nodes.Software" as tosker_nodes_Software_NT << (N,green) >> #DDDDDD
class "NodeSoftware" as NodeSoftware_NT << (N,green) >> {
- -
.. interface my_interface ..
}
tosca_interfaces_Root_IT <|- - app_interface_IT
tosca_interfaces_Root_IT <|- - language_interface_IT
tosker_nodes_Software_NT <|- - AppSoftware_NT
AppSoftware_NT *- "1" tosca_capabilities_Endpoint_CT : db_connection.capability
AppSoftware_NT ..> tosca_relationships_ConnectsTo_RT : db_connection.relationship
AppSoftware_NT ..> tosker_nodes_Root_NT : db_connection.node
app_interface_IT <|.. AppSoftware_NT : my_interface
tosker_nodes_Software_NT <|- - NodeSoftware_NT
language_interface_IT <|.. NodeSoftware_NT : my_interface
@enduml

PlantUML version 1.2021.13(Mon Nov 01 12:38:45 CET 2021)
(GPL source distribution)
Java Runtime: Java(TM) SE Runtime Environment
JVM: Java HotSpot(TM) 64-Bit Server VM
Default Encoding: UTF-8
Language: fr
Country: FR
--></g></svg>