<?xml version="1.0" encoding="UTF-8" standalone="no"?><svg xmlns="http://www.w3.org/2000/svg" xmlns:xlink="http://www.w3.org/1999/xlink" contentScriptType="application/ecmascript" contentStyleType="text/css" height="370px" preserveAspectRatio="none" style="width:1229px;height:370px;background:#FFFFFF;" version="1.1" viewBox="0 0 1229 370" width="1229px" zoomAndPan="magnify"><defs><filter height="300%" id="f9wjb8h3w4uw2" width="300%" x="-1" y="-1"><feGaussianBlur result="blurOut" stdDeviation="2.0"/><feColorMatrix in="blurOut" result="blurOut2" type="matrix" values="0 0 0 0 0 0 0 0 0 0 0 0 0 0 0 0 0 0 .4 0"/><feOffset dx="4.0" dy="4.0" in="blurOut2" result="blurOut3"/><feBlend in="SourceGraphic" in2="blurOut3" mode="normal"/></filter></defs><g><!--MD5=[41b326aacbbea154a381fdc6d3ced0c3]
cluster node_nodejs1--><polygon fill="#FFFFFF" filter="url(#f9wjb8h3w4uw2)" points="16,211,26,201,610,201,610,353,600,363,16,363,16,211" style="stroke:#000000;stroke-width:1.5;"/><line style="stroke:#000000;stroke-width:1.5;" x1="600" x2="610" y1="211" y2="201"/><line style="stroke:#000000;stroke-width:1.5;" x1="16" x2="600" y1="211" y2="211"/><line style="stroke:#000000;stroke-width:1.5;" x1="600" x2="600" y1="211" y2="363"/><text fill="#000000" font-family="sans-serif" font-size="14" font-weight="bold" lengthAdjust="spacing" textLength="135" x="241.5" y="227.5352">nodejs1: Container</text><!--MD5=[4941b4d5110f4d3674434e619077c264]
cluster node_server1--><rect fill="#FFFFFF" filter="url(#f9wjb8h3w4uw2)" height="122" style="stroke:#000000;stroke-width:1.5;" width="429" x="173" y="233"/><rect fill="#FFFFFF" height="10" style="stroke:#000000;stroke-width:1.5;" width="15" x="582" y="238"/><rect fill="#FFFFFF" height="2" style="stroke:#000000;stroke-width:1.5;" width="4" x="580" y="240"/><rect fill="#FFFFFF" height="2" style="stroke:#000000;stroke-width:1.5;" width="4" x="580" y="244"/><text fill="#000000" font-family="sans-serif" font-size="14" font-weight="bold" lengthAdjust="spacing" textLength="124" x="325.5" y="259.5352">server1: Software</text><!--MD5=[fc55add6ff3f2b56a8b2dd41611657a5]
cluster node_server1_artifact_code--><rect fill="#FFFFFF" filter="url(#f9wjb8h3w4uw2)" height="87" style="stroke:#000000;stroke-width:1.5;" width="172" x="422" y="260"/><polygon fill="#FFFFFF" points="577,265,577,279,589,279,589,271,583,265,577,265" style="stroke:#000000;stroke-width:1.5;"/><line style="stroke:#000000;stroke-width:1.5;" x1="583" x2="583" y1="265" y2="271"/><line style="stroke:#000000;stroke-width:1.5;" x1="589" x2="583" y1="271" y2="271"/><text fill="#000000" font-family="sans-serif" font-size="14" font-style="italic" lengthAdjust="spacing" textLength="62" x="477" y="275.5352">«artifact»</text><text fill="#000000" font-family="sans-serif" font-size="14" font-weight="bold" lengthAdjust="spacing" textLength="95" x="460.5" y="292.0234">code: Artifact</text><!--MD5=[6c42125d579336f5ef9813eea5ab2725]
cluster node_server1_artifact_package--><rect fill="#FFFFFF" filter="url(#f9wjb8h3w4uw2)" height="87" style="stroke:#000000;stroke-width:1.5;" width="196" x="208" y="260"/><polygon fill="#FFFFFF" points="387,265,387,279,399,279,399,271,393,265,387,265" style="stroke:#000000;stroke-width:1.5;"/><line style="stroke:#000000;stroke-width:1.5;" x1="393" x2="393" y1="265" y2="271"/><line style="stroke:#000000;stroke-width:1.5;" x1="399" x2="393" y1="271" y2="271"/><text fill="#000000" font-family="sans-serif" font-size="14" font-style="italic" lengthAdjust="spacing" textLength="62" x="275" y="275.5352">«artifact»</text><text fill="#000000" font-family="sans-serif" font-size="14" font-weight="bold" lengthAdjust="spacing" textLength="120" x="246" y="292.0234">package: Artifact</text><!--MD5=[34135a17aa7976200aef99fd1fa134cc]
cluster node_nodejs1_artifact_my_image--><rect fill="#FFFFFF" filter="url(#f9wjb8h3w4uw2)" height="87" style="stroke:#000000;stroke-width:1.5;" width="141" x="24" y="260"/><polygon fill="#FFFFFF" points="148,265,148,279,160,279,160,271,154,265,148,265" style="stroke:#000000;stroke-width:1.5;"/><line style="stroke:#000000;stroke-width:1.5;" x1="154" x2="154" y1="265" y2="271"/><line style="stroke:#000000;stroke-width:1.5;" x1="160" x2="154" y1="271" y2="271"/><text fill="#000000" font-family="sans-serif" font-size="14" font-style="italic" lengthAdjust="spacing" textLength="62" x="63.5" y="275.5352">«artifact»</text><text fill="#000000" font-family="sans-serif" font-size="14" font-weight="bold" lengthAdjust="spacing" textLength="125" x="32" y="292.0234">my_image: Image</text><!--MD5=[7240b0b878e8c1169fbefb59e31057ad]
cluster node_nodejs2--><polygon fill="#FFFFFF" filter="url(#f9wjb8h3w4uw2)" points="618,211,628,201,1212,201,1212,353,1202,363,618,363,618,211" style="stroke:#000000;stroke-width:1.5;"/><line style="stroke:#000000;stroke-width:1.5;" x1="1202" x2="1212" y1="211" y2="201"/><line style="stroke:#000000;stroke-width:1.5;" x1="618" x2="1202" y1="211" y2="211"/><line style="stroke:#000000;stroke-width:1.5;" x1="1202" x2="1202" y1="211" y2="363"/><text fill="#000000" font-family="sans-serif" font-size="14" font-weight="bold" lengthAdjust="spacing" textLength="135" x="843.5" y="227.5352">nodejs2: Container</text><!--MD5=[5f67ddc42c3948d3bb3578393b31abe6]
cluster node_server2--><rect fill="#FFFFFF" filter="url(#f9wjb8h3w4uw2)" height="122" style="stroke:#000000;stroke-width:1.5;" width="429" x="775" y="233"/><rect fill="#FFFFFF" height="10" style="stroke:#000000;stroke-width:1.5;" width="15" x="1184" y="238"/><rect fill="#FFFFFF" height="2" style="stroke:#000000;stroke-width:1.5;" width="4" x="1182" y="240"/><rect fill="#FFFFFF" height="2" style="stroke:#000000;stroke-width:1.5;" width="4" x="1182" y="244"/><text fill="#000000" font-family="sans-serif" font-size="14" font-weight="bold" lengthAdjust="spacing" textLength="124" x="927.5" y="259.5352">server2: Software</text><!--MD5=[1712736cbcdaa369f383f8b0d68fc3ac]
cluster node_server2_artifact_code--><rect fill="#FFFFFF" filter="url(#f9wjb8h3w4uw2)" height="87" style="stroke:#000000;stroke-width:1.5;" width="172" x="1024" y="260"/><polygon fill="#FFFFFF" points="1179,265,1179,279,1191,279,1191,271,1185,265,1179,265" style="stroke:#000000;stroke-width:1.5;"/><line style="stroke:#000000;stroke-width:1.5;" x1="1185" x2="1185" y1="265" y2="271"/><line style="stroke:#000000;stroke-width:1.5;" x1="1191" x2="1185" y1="271" y2="271"/><text fill="#000000" font-family="sans-serif" font-size="14" font-style="italic" lengthAdjust="spacing" textLength="62" x="1079" y="275.5352">«artifact»</text><text fill="#000000" font-family="sans-serif" font-size="14" font-weight="bold" lengthAdjust="spacing" textLength="95" x="1062.5" y="292.0234">code: Artifact</text><!--MD5=[5a8528a685d54bf8a3be473fc69ddbb6]
cluster node_server2_artifact_package--><rect fill="#FFFFFF" filter="url(#f9wjb8h3w4uw2)" height="87" style="stroke:#000000;stroke-width:1.5;" width="196" x="810" y="260"/><polygon fill="#FFFFFF" points="989,265,989,279,1001,279,1001,271,995,265,989,265" style="stroke:#000000;stroke-width:1.5;"/><line style="stroke:#000000;stroke-width:1.5;" x1="995" x2="995" y1="265" y2="271"/><line style="stroke:#000000;stroke-width:1.5;" x1="1001" x2="995" y1="271" y2="271"/><text fill="#000000" font-family="sans-serif" font-size="14" font-style="italic" lengthAdjust="spacing" textLength="62" x="877" y="275.5352">«artifact»</text><text fill="#000000" font-family="sans-serif" font-size="14" font-weight="bold" lengthAdjust="spacing" textLength="120" x="848" y="292.0234">package: Artifact</text><!--MD5=[fbd9735377c2bc07a537be8210ef5396]
cluster node_nodejs2_artifact_my_image--><rect fill="#FFFFFF" filter="url(#f9wjb8h3w4uw2)" height="87" style="stroke:#000000;stroke-width:1.5;" width="141" x="626" y="260"/><polygon fill="#FFFFFF" points="750,265,750,279,762,279,762,271,756,265,750,265" style="stroke:#000000;stroke-width:1.5;"/><line style="stroke:#000000;stroke-width:1.5;" x1="756" x2="756" y1="265" y2="271"/><line style="stroke:#000000;stroke-width:1.5;" x1="762" x2="756" y1="271" y2="271"/><text fill="#000000" font-family="sans-serif" font-size="14" font-style="italic" lengthAdjust="spacing" textLength="62" x="665.5" y="275.5352">«artifact»</text><text fill="#000000" font-family="sans-serif" font-size="14" font-weight="bold" lengthAdjust="spacing" textLength="125" x="634" y="292.0234">my_image: Image</text><!--MD5=[3bf760bd42ad9e20ff27331e8df95c59]
cluster node_nodejs3--><polygon fill="#FFFFFF" filter="url(#f9wjb8h3w4uw2)" points="81,16,91,6,675,6,675,158,665,168,81,168,81,16" style="stroke:#000000;stroke-width:1.5;"/><line style="stroke:#000000;stroke-width:1.5;" x1="665" x2="675" y1="16" y2="6"/><line style="stroke:#000000;stroke-width:1.5;" x1="81" x2="665" y1="16" y2="16"/><line style="stroke:#000000;stroke-width:1.5;" x1="665" x2="665" y1="16" y2="168"/><text fill="#000000" font-family="sans-serif" font-size="14" font-weight="bold" lengthAdjust="spacing" textLength="135" x="306.5" y="32.5352">nodejs3: Container</text><!--MD5=[85609f3d78a49df97e843d158acc4431]
cluster node_server3--><rect fill="#FFFFFF" filter="url(#f9wjb8h3w4uw2)" height="122" style="stroke:#000000;stroke-width:1.5;" width="429" x="238" y="38"/><rect fill="#FFFFFF" height="10" style="stroke:#000000;stroke-width:1.5;" width="15" x="647" y="43"/><rect fill="#FFFFFF" height="2" style="stroke:#000000;stroke-width:1.5;" width="4" x="645" y="45"/><rect fill="#FFFFFF" height="2" style="stroke:#000000;stroke-width:1.5;" width="4" x="645" y="49"/><text fill="#000000" font-family="sans-serif" font-size="14" font-weight="bold" lengthAdjust="spacing" textLength="124" x="390.5" y="64.5352">server3: Software</text><!--MD5=[40fc23e8d3ff353118794be988fe77f8]
cluster node_server3_artifact_code--><rect fill="#FFFFFF" filter="url(#f9wjb8h3w4uw2)" height="87" style="stroke:#000000;stroke-width:1.5;" width="172" x="487" y="65"/><polygon fill="#FFFFFF" points="642,70,642,84,654,84,654,76,648,70,642,70" style="stroke:#000000;stroke-width:1.5;"/><line style="stroke:#000000;stroke-width:1.5;" x1="648" x2="648" y1="70" y2="76"/><line style="stroke:#000000;stroke-width:1.5;" x1="654" x2="648" y1="76" y2="76"/><text fill="#000000" font-family="sans-serif" font-size="14" font-style="italic" lengthAdjust="spacing" textLength="62" x="542" y="80.5352">«artifact»</text><text fill="#000000" font-family="sans-serif" font-size="14" font-weight="bold" lengthAdjust="spacing" textLength="95" x="525.5" y="97.0234">code: Artifact</text><!--MD5=[0397cfe114aeb9a81b63cc2636c2924e]
cluster node_server3_artifact_package--><rect fill="#FFFFFF" filter="url(#f9wjb8h3w4uw2)" height="87" style="stroke:#000000;stroke-width:1.5;" width="196" x="273" y="65"/><polygon fill="#FFFFFF" points="452,70,452,84,464,84,464,76,458,70,452,70" style="stroke:#000000;stroke-width:1.5;"/><line style="stroke:#000000;stroke-width:1.5;" x1="458" x2="458" y1="70" y2="76"/><line style="stroke:#000000;stroke-width:1.5;" x1="464" x2="458" y1="76" y2="76"/><text fill="#000000" font-family="sans-serif" font-size="14" font-style="italic" lengthAdjust="spacing" textLength="62" x="340" y="80.5352">«artifact»</text><text fill="#000000" font-family="sans-serif" font-size="14" font-weight="bold" lengthAdjust="spacing" textLength="120" x="311" y="97.0234">package: Artifact</text><!--MD5=[f265b6fa396fd49b3976b52b47b446bf]
cluster node_nodejs3_artifact_my_image--><rect fill="#FFFFFF" filter="url(#f9wjb8h3w4uw2)" height="87" style="stroke:#000000;stroke-width:1.5;" width="141" x="89" y="65"/><polygon fill="#FFFFFF" points="213,70,213,84,225,84,225,76,219,70,213,70" style="stroke:#000000;stroke-width:1.5;"/><line style="stroke:#000000;stroke-width:1.5;" x1="219" x2="219" y1="70" y2="76"/><line style="stroke:#000000;stroke-width:1.5;" x1="225" x2="219" y1="76" y2="76"/><text fill="#000000" font-family="sans-serif" font-size="14" font-style="italic" lengthAdjust="spacing" textLength="62" x="128.5" y="80.5352">«artifact»</text><text fill="#000000" font-family="sans-serif" font-size="14" font-weight="bold" lengthAdjust="spacing" textLength="125" x="97" y="97.0234">my_image: Image</text><!--MD5=[4ce5d80e0df71a1caa3e0e5e1eaed807]
entity node_server1_artifact_code_label--><text fill="#000000" font-family="sans-serif" font-size="14" lengthAdjust="spacing" textLength="135" x="440.5" y="326.5352">file: code/server1.js</text><!--MD5=[2f55f7dc6e738ef60d6a709ae26cf8ae]
entity node_server1_artifact_package_label--><text fill="#000000" font-family="sans-serif" font-size="14" lengthAdjust="spacing" textLength="159" x="226.5" y="326.5352">file: code/package.json</text><!--MD5=[2ac36ae39a8b64b3ebff7cc2814aa610]
entity node_nodejs1_artifact_my_image_label--><text fill="#000000" font-family="sans-serif" font-size="14" lengthAdjust="spacing" textLength="77" x="50.5" y="326.5352">file: node:6</text><!--MD5=[441c42bb3d46a8cbc5f4ed173da89212]
entity node_server2_artifact_code_label--><text fill="#000000" font-family="sans-serif" font-size="14" lengthAdjust="spacing" textLength="135" x="1042.5" y="326.5352">file: code/server2.js</text><!--MD5=[b1e2ab3d7a30a80e41b9afe4b94a860c]
entity node_server2_artifact_package_label--><text fill="#000000" font-family="sans-serif" font-size="14" lengthAdjust="spacing" textLength="159" x="828.5" y="326.5352">file: code/package.json</text><!--MD5=[7ccc28708cfa3dc1918871a97ee69a2a]
entity node_nodejs2_artifact_my_image_label--><text fill="#000000" font-family="sans-serif" font-size="14" lengthAdjust="spacing" textLength="77" x="652.5" y="326.5352">file: node:6</text><!--MD5=[6522508b17baba63aa007594633618d8]
entity node_server3_artifact_code_label--><text fill="#000000" font-family="sans-serif" font-size="14" lengthAdjust="spacing" textLength="135" x="505.5" y="131.5352">file: code/server3.js</text><!--MD5=[2fc066c1730e01df764eff98bb779e7e]
entity node_server3_artifact_package_label--><text fill="#000000" font-family="sans-serif" font-size="14" lengthAdjust="spacing" textLength="159" x="291.5" y="131.5352">file: code/package.json</text><!--MD5=[15b50d3f1bfedb68c4add0938e550e01]
entity node_nodejs3_artifact_my_image_label--><text fill="#000000" font-family="sans-serif" font-size="14" lengthAdjust="spacing" textLength="77" x="115.5" y="131.5352">file: node:6</text><!--MD5=[005a5f4b5d3aa9475cd5bbef32a3b8a5]
link node_server3 to node_server1--><path d="M241.5407,160.1659 C241.4947,160.2961 241.4483,160.4262 241.4014,160.5561 C241.2138,161.0756 241.0189,161.5917 240.8163,162.1037 C240.006,164.1519 239.0733,166.134 238,168 C226.8475,187.3899 210.8488,181.4386 200,201 C196.8798,206.626 194.2334,212.6148 191.9922,218.8 C190.8716,221.8927 189.8523,225.0344 188.9257,228.2045 C188.4624,229.7895 188.0223,231.3816 187.6043,232.9782 " fill="none" id="node_server3-to-node_server1" style="stroke:#A80036;stroke-width:1.0;stroke-dasharray:7.0,7.0;"/><polygon fill="#A80036" points="187.6043,232.9782,193.7533,225.2848,188.8706,228.1412,186.0142,223.2586,187.6043,232.9782" style="stroke:#A80036;stroke-width:1.0;"/><text fill="#000000" font-family="sans-serif" font-size="13" lengthAdjust="spacing" textLength="89" x="233" y="189.5684">«ConnectsTo»</text><!--MD5=[084cd7d509a528b7048e35ddf2bf8250]
link node_server3 to node_server2--><path d="M257.238,160.1473 C257.2803,160.2068 257.3227,160.2662 257.3654,160.3255 C257.4506,160.4439 257.5364,160.5619 257.6229,160.6794 C258.3148,161.6192 259.0471,162.5257 259.8219,163.3902 C261.3715,165.1191 263.0915,166.6794 265,168 C276.6741,176.0777 764.9519,190.9715 775,201 C779.5074,205.4987 783.0544,210.6287 785.8058,216.1758 C787.1814,218.9494 788.3582,221.8272 789.3567,224.7826 C789.8559,226.2602 790.3106,227.7573 790.7233,229.2703 C790.9296,230.0268 791.1255,230.7874 791.3111,231.5515 C791.404,231.9336 791.4943,232.3165 791.582,232.7003 " fill="none" id="node_server3-to-node_server2" style="stroke:#A80036;stroke-width:1.0;stroke-dasharray:7.0,7.0;"/><polygon fill="#A80036" points="791.582,232.7003,793.4747,223.035,790.4672,227.8262,785.6761,224.8187,791.582,232.7003" style="stroke:#A80036;stroke-width:1.0;"/><text fill="#000000" font-family="sans-serif" font-size="13" lengthAdjust="spacing" textLength="89" x="687" y="189.5684">«ConnectsTo»</text><!--MD5=[bf31ba30c76475b731306755533213e9]
@startuml
skinparam componentStyle uml2
allowmixing

node "nodejs1: Container" as node_nodejs1 {
component "server1: Software" as node_server1 {
artifact "code: Artifact" <<artifact>> as node_server1_artifact_code {
label "file: code/server1.js" as node_server1_artifact_code_label
}
artifact "package: Artifact" <<artifact>> as node_server1_artifact_package {
label "file: code/package.json" as node_server1_artifact_package_label
}
}
artifact "my_image: Image" <<artifact>> as node_nodejs1_artifact_my_image {
label "file: node:6" as node_nodejs1_artifact_my_image_label
}
}
node "nodejs2: Container" as node_nodejs2 {
component "server2: Software" as node_server2 {
artifact "code: Artifact" <<artifact>> as node_server2_artifact_code {
label "file: code/server2.js" as node_server2_artifact_code_label
}
artifact "package: Artifact" <<artifact>> as node_server2_artifact_package {
label "file: code/package.json" as node_server2_artifact_package_label
}
}
artifact "my_image: Image" <<artifact>> as node_nodejs2_artifact_my_image {
label "file: node:6" as node_nodejs2_artifact_my_image_label
}
}
node "nodejs3: Container" as node_nodejs3 {
component "server3: Software" as node_server3 {
artifact "code: Artifact" <<artifact>> as node_server3_artifact_code {
label "file: code/server3.js" as node_server3_artifact_code_label
}
artifact "package: Artifact" <<artifact>> as node_server3_artifact_package {
label "file: code/package.json" as node_server3_artifact_package_label
}
}
artifact "my_image: Image" <<artifact>> as node_nodejs3_artifact_my_image {
label "file: node:6" as node_nodejs3_artifact_my_image_label
}
}
node_server3 ..> node_server1 : <<ConnectsTo>>
node_server3 ..> node_server2 : <<ConnectsTo>>
@enduml

PlantUML version 1.2021.13(Mon Nov 01 12:38:45 CET 2021)
(GPL source distribution)
Java Runtime: Java(TM) SE Runtime Environment
JVM: Java HotSpot(TM) 64-Bit Server VM
Default Encoding: UTF-8
Language: fr
Country: FR
--></g></svg>