<?xml version="1.0" encoding="UTF-8" standalone="no"?><svg xmlns="http://www.w3.org/2000/svg" xmlns:xlink="http://www.w3.org/1999/xlink" contentScriptType="application/ecmascript" contentStyleType="text/css" height="2048px" preserveAspectRatio="none" style="width:664px;height:2048px;background:#FFFFFF;" version="1.1" viewBox="0 0 664 2048" width="664px" zoomAndPan="magnify"><defs/><g><rect fill="#006400" height="8" style="stroke:none;stroke-width:1.0;" width="80" x="293.5" y="686"/><ellipse cx="333.5" cy="16" fill="#008000" rx="10" ry="10" style="stroke:none;stroke-width:1.0;"/><rect fill="#FF8C00" height="8" style="stroke:none;stroke-width:1.0;" width="80" x="297.5" y="1954"/><ellipse cx="337.5" cy="2032" rx="10" ry="10" style="stroke:#000000;stroke-width:1.0;fill:none;"/><ellipse cx="338" cy="2032.5" fill="#000000" rx="6" ry="6" style="stroke:none;stroke-width:1.0;"/><rect fill="#FFFFFF" height="240.4883" rx="12.5" ry="12.5" style="stroke:#000000;stroke-width:1.5;" width="181" x="21" y="754"/><rect fill="#FFFFFF" height="208" rx="12.5" ry="12.5" style="stroke:#FFFFFF;stroke-width:1.0;" width="175" x="24" y="783.4883"/><line style="stroke:#000000;stroke-width:1.5;" x1="21" x2="202" y1="780.4883" y2="780.4883"/><text fill="#000000" font-family="sans-serif" font-size="14" lengthAdjust="spacing" textLength="88" x="67.5" y="772.5352">stop_server1</text><rect fill="#FFFFFF" height="40" rx="12.5" ry="12.5" style="stroke:#0000FF;stroke-width:1.5;" width="126" x="50.5" y="792.4883"/><text fill="#000000" font-family="sans-serif" font-size="14" lengthAdjust="spacing" textLength="116" x="55.5" y="817.7793">server1 stopping</text><rect fill="#ADD8E6" height="40" rx="12.5" ry="12.5" style="stroke:#0000FF;stroke-width:1.5;" width="161" x="33" y="868.4883"/><text fill="#000000" font-family="sans-serif" font-size="14" lengthAdjust="spacing" textLength="151" x="38" y="893.7793">server1 Standard.stop</text><rect fill="#FFFFFF" height="40" rx="12.5" ry="12.5" style="stroke:#0000FF;stroke-width:1.5;" width="121" x="53" y="944.4883"/><text fill="#000000" font-family="sans-serif" font-size="14" lengthAdjust="spacing" textLength="111" x="58" y="969.7793">server1 stopped</text><!--MD5=[5532f3fb6b071c79708d628fc7219c35]
link step_declarative_undeploy_stop_server1_server1_stopping to step_declarative_undeploy_stop_server1_server1_Standard.stop--><path d="M113.5,832.8549 C113.5,842.2155 113.5,853.4103 113.5,863.2956 " fill="none" id="step_declarative_undeploy_stop_server1_server1_stopping-to-step_declarative_undeploy_stop_server1_server1_Standard.stop" style="stroke:#0000FF;stroke-width:1.0;"/><polygon fill="#0000FF" points="113.5,868.329,117.5,859.329,113.5,863.329,109.5,859.329,113.5,868.329" style="stroke:#0000FF;stroke-width:1.0;"/><!--MD5=[241a65fee43fcc312b76d61624e261f6]
link step_declarative_undeploy_stop_server1_server1_Standard.stop to step_declarative_undeploy_stop_server1_server1_stopped--><path d="M113.5,908.8549 C113.5,918.2155 113.5,929.4103 113.5,939.2956 " fill="none" id="step_declarative_undeploy_stop_server1_server1_Standard.stop-to-step_declarative_undeploy_stop_server1_server1_stopped" style="stroke:#0000FF;stroke-width:1.0;"/><polygon fill="#0000FF" points="113.5,944.329,117.5,935.329,113.5,939.329,109.5,935.329,113.5,944.329" style="stroke:#0000FF;stroke-width:1.0;"/><rect fill="#FFFFFF" height="240.4883" rx="12.5" ry="12.5" style="stroke:#000000;stroke-width:1.5;" width="193" x="9" y="1054"/><rect fill="#FFFFFF" height="208" rx="12.5" ry="12.5" style="stroke:#FFFFFF;stroke-width:1.0;" width="187" x="12" y="1083.4883"/><line style="stroke:#000000;stroke-width:1.5;" x1="9" x2="202" y1="1080.4883" y2="1080.4883"/><text fill="#000000" font-family="sans-serif" font-size="14" lengthAdjust="spacing" textLength="100" x="55.5" y="1072.5352">delete_server1</text><rect fill="#FFFFFF" height="40" rx="12.5" ry="12.5" style="stroke:#0000FF;stroke-width:1.5;" width="121" x="47" y="1092.4883"/><text fill="#000000" font-family="sans-serif" font-size="14" lengthAdjust="spacing" textLength="111" x="52" y="1117.7793">server1 deleting</text><rect fill="#ADD8E6" height="40" rx="12.5" ry="12.5" style="stroke:#0000FF;stroke-width:1.5;" width="173" x="21" y="1168.4883"/><text fill="#000000" font-family="sans-serif" font-size="14" lengthAdjust="spacing" textLength="163" x="26" y="1193.7793">server1 Standard.delete</text><rect fill="#FFFFFF" height="40" rx="12.5" ry="12.5" style="stroke:#0000FF;stroke-width:1.5;" width="103" x="56" y="1244.4883"/><text fill="#000000" font-family="sans-serif" font-size="14" lengthAdjust="spacing" textLength="93" x="61" y="1269.7793">server1 initial</text><!--MD5=[2458ec204c2207017cffa8b54f69c557]
link step_declarative_undeploy_delete_server1_server1_deleting to step_declarative_undeploy_delete_server1_server1_Standard.delete--><path d="M107.5,1132.8549 C107.5,1142.2155 107.5,1153.4103 107.5,1163.2956 " fill="none" id="step_declarative_undeploy_delete_server1_server1_deleting-to-step_declarative_undeploy_delete_server1_server1_Standard.delete" style="stroke:#0000FF;stroke-width:1.0;"/><polygon fill="#0000FF" points="107.5,1168.329,111.5,1159.329,107.5,1163.329,103.5,1159.329,107.5,1168.329" style="stroke:#0000FF;stroke-width:1.0;"/><!--MD5=[96cfcfcbed28a930131cf63b7bf70f8a]
link step_declarative_undeploy_delete_server1_server1_Standard.delete to step_declarative_undeploy_delete_server1_server1_initial--><path d="M107.5,1208.8549 C107.5,1218.2155 107.5,1229.4103 107.5,1239.2956 " fill="none" id="step_declarative_undeploy_delete_server1_server1_Standard.delete-to-step_declarative_undeploy_delete_server1_server1_initial" style="stroke:#0000FF;stroke-width:1.0;"/><polygon fill="#0000FF" points="107.5,1244.329,111.5,1235.329,107.5,1239.329,103.5,1235.329,107.5,1244.329" style="stroke:#0000FF;stroke-width:1.0;"/><rect fill="#FFFFFF" height="240.4883" rx="12.5" ry="12.5" style="stroke:#000000;stroke-width:1.5;" width="181" x="243" y="754"/><rect fill="#FFFFFF" height="208" rx="12.5" ry="12.5" style="stroke:#FFFFFF;stroke-width:1.0;" width="175" x="246" y="783.4883"/><line style="stroke:#000000;stroke-width:1.5;" x1="243" x2="424" y1="780.4883" y2="780.4883"/><text fill="#000000" font-family="sans-serif" font-size="14" lengthAdjust="spacing" textLength="88" x="289.5" y="772.5352">stop_server2</text><rect fill="#FFFFFF" height="40" rx="12.5" ry="12.5" style="stroke:#0000FF;stroke-width:1.5;" width="126" x="272.5" y="792.4883"/><text fill="#000000" font-family="sans-serif" font-size="14" lengthAdjust="spacing" textLength="116" x="277.5" y="817.7793">server2 stopping</text><rect fill="#ADD8E6" height="40" rx="12.5" ry="12.5" style="stroke:#0000FF;stroke-width:1.5;" width="161" x="255" y="868.4883"/><text fill="#000000" font-family="sans-serif" font-size="14" lengthAdjust="spacing" textLength="151" x="260" y="893.7793">server2 Standard.stop</text><rect fill="#FFFFFF" height="40" rx="12.5" ry="12.5" style="stroke:#0000FF;stroke-width:1.5;" width="121" x="275" y="944.4883"/><text fill="#000000" font-family="sans-serif" font-size="14" lengthAdjust="spacing" textLength="111" x="280" y="969.7793">server2 stopped</text><!--MD5=[a17459ab2c03c058b7be8f14e280cb5d]
link step_declarative_undeploy_stop_server2_server2_stopping to step_declarative_undeploy_stop_server2_server2_Standard.stop--><path d="M335.5,832.8549 C335.5,842.2155 335.5,853.4103 335.5,863.2956 " fill="none" id="step_declarative_undeploy_stop_server2_server2_stopping-to-step_declarative_undeploy_stop_server2_server2_Standard.stop" style="stroke:#0000FF;stroke-width:1.0;"/><polygon fill="#0000FF" points="335.5,868.329,339.5,859.329,335.5,863.329,331.5,859.329,335.5,868.329" style="stroke:#0000FF;stroke-width:1.0;"/><!--MD5=[b20702c045f67b047fe5fba347f7b85b]
link step_declarative_undeploy_stop_server2_server2_Standard.stop to step_declarative_undeploy_stop_server2_server2_stopped--><path d="M335.5,908.8549 C335.5,918.2155 335.5,929.4103 335.5,939.2956 " fill="none" id="step_declarative_undeploy_stop_server2_server2_Standard.stop-to-step_declarative_undeploy_stop_server2_server2_stopped" style="stroke:#0000FF;stroke-width:1.0;"/><polygon fill="#0000FF" points="335.5,944.329,339.5,935.329,335.5,939.329,331.5,935.329,335.5,944.329" style="stroke:#0000FF;stroke-width:1.0;"/><rect fill="#FFFFFF" height="240.4883" rx="12.5" ry="12.5" style="stroke:#000000;stroke-width:1.5;" width="193" x="237" y="1054"/><rect fill="#FFFFFF" height="208" rx="12.5" ry="12.5" style="stroke:#FFFFFF;stroke-width:1.0;" width="187" x="240" y="1083.4883"/><line style="stroke:#000000;stroke-width:1.5;" x1="237" x2="430" y1="1080.4883" y2="1080.4883"/><text fill="#000000" font-family="sans-serif" font-size="14" lengthAdjust="spacing" textLength="100" x="283.5" y="1072.5352">delete_server2</text><rect fill="#FFFFFF" height="40" rx="12.5" ry="12.5" style="stroke:#0000FF;stroke-width:1.5;" width="121" x="275" y="1092.4883"/><text fill="#000000" font-family="sans-serif" font-size="14" lengthAdjust="spacing" textLength="111" x="280" y="1117.7793">server2 deleting</text><rect fill="#ADD8E6" height="40" rx="12.5" ry="12.5" style="stroke:#0000FF;stroke-width:1.5;" width="173" x="249" y="1168.4883"/><text fill="#000000" font-family="sans-serif" font-size="14" lengthAdjust="spacing" textLength="163" x="254" y="1193.7793">server2 Standard.delete</text><rect fill="#FFFFFF" height="40" rx="12.5" ry="12.5" style="stroke:#0000FF;stroke-width:1.5;" width="103" x="284" y="1244.4883"/><text fill="#000000" font-family="sans-serif" font-size="14" lengthAdjust="spacing" textLength="93" x="289" y="1269.7793">server2 initial</text><!--MD5=[04dbf16df5ece6479440f4e0048871f8]
link step_declarative_undeploy_delete_server2_server2_deleting to step_declarative_undeploy_delete_server2_server2_Standard.delete--><path d="M335.5,1132.8549 C335.5,1142.2155 335.5,1153.4103 335.5,1163.2956 " fill="none" id="step_declarative_undeploy_delete_server2_server2_deleting-to-step_declarative_undeploy_delete_server2_server2_Standard.delete" style="stroke:#0000FF;stroke-width:1.0;"/><polygon fill="#0000FF" points="335.5,1168.329,339.5,1159.329,335.5,1163.329,331.5,1159.329,335.5,1168.329" style="stroke:#0000FF;stroke-width:1.0;"/><!--MD5=[59e7a8bccc1dd694c962fe3757be5961]
link step_declarative_undeploy_delete_server2_server2_Standard.delete to step_declarative_undeploy_delete_server2_server2_initial--><path d="M335.5,1208.8549 C335.5,1218.2155 335.5,1229.4103 335.5,1239.2956 " fill="none" id="step_declarative_undeploy_delete_server2_server2_Standard.delete-to-step_declarative_undeploy_delete_server2_server2_initial" style="stroke:#0000FF;stroke-width:1.0;"/><polygon fill="#0000FF" points="335.5,1244.329,339.5,1235.329,335.5,1239.329,331.5,1235.329,335.5,1244.329" style="stroke:#0000FF;stroke-width:1.0;"/><rect fill="#FFFFFF" height="240.4883" rx="12.5" ry="12.5" style="stroke:#000000;stroke-width:1.5;" width="181" x="243" y="86"/><rect fill="#FFFFFF" height="208" rx="12.5" ry="12.5" style="stroke:#FFFFFF;stroke-width:1.0;" width="175" x="246" y="115.4883"/><line style="stroke:#000000;stroke-width:1.5;" x1="243" x2="424" y1="112.4883" y2="112.4883"/><text fill="#000000" font-family="sans-serif" font-size="14" lengthAdjust="spacing" textLength="88" x="289.5" y="104.5352">stop_server3</text><rect fill="#FFFFFF" height="40" rx="12.5" ry="12.5" style="stroke:#0000FF;stroke-width:1.5;" width="126" x="272.5" y="124.4883"/><text fill="#000000" font-family="sans-serif" font-size="14" lengthAdjust="spacing" textLength="116" x="277.5" y="149.7793">server3 stopping</text><rect fill="#ADD8E6" height="40" rx="12.5" ry="12.5" style="stroke:#0000FF;stroke-width:1.5;" width="161" x="255" y="200.4883"/><text fill="#000000" font-family="sans-serif" font-size="14" lengthAdjust="spacing" textLength="151" x="260" y="225.7793">server3 Standard.stop</text><rect fill="#FFFFFF" height="40" rx="12.5" ry="12.5" style="stroke:#0000FF;stroke-width:1.5;" width="121" x="275" y="276.4883"/><text fill="#000000" font-family="sans-serif" font-size="14" lengthAdjust="spacing" textLength="111" x="280" y="301.7793">server3 stopped</text><!--MD5=[6e955a733912ee9f75126f8dec1438e7]
link step_declarative_undeploy_stop_server3_server3_stopping to step_declarative_undeploy_stop_server3_server3_Standard.stop--><path d="M335.5,164.8549 C335.5,174.2155 335.5,185.4103 335.5,195.2956 " fill="none" id="step_declarative_undeploy_stop_server3_server3_stopping-to-step_declarative_undeploy_stop_server3_server3_Standard.stop" style="stroke:#0000FF;stroke-width:1.0;"/><polygon fill="#0000FF" points="335.5,200.329,339.5,191.329,335.5,195.329,331.5,191.329,335.5,200.329" style="stroke:#0000FF;stroke-width:1.0;"/><!--MD5=[7ac5cc3aa752d0794df029b5785fbdae]
link step_declarative_undeploy_stop_server3_server3_Standard.stop to step_declarative_undeploy_stop_server3_server3_stopped--><path d="M335.5,240.8549 C335.5,250.2155 335.5,261.4103 335.5,271.2956 " fill="none" id="step_declarative_undeploy_stop_server3_server3_Standard.stop-to-step_declarative_undeploy_stop_server3_server3_stopped" style="stroke:#0000FF;stroke-width:1.0;"/><polygon fill="#0000FF" points="335.5,276.329,339.5,267.329,335.5,271.329,331.5,267.329,335.5,276.329" style="stroke:#0000FF;stroke-width:1.0;"/><rect fill="#FFFFFF" height="240.4883" rx="12.5" ry="12.5" style="stroke:#000000;stroke-width:1.5;" width="193" x="237" y="386"/><rect fill="#FFFFFF" height="208" rx="12.5" ry="12.5" style="stroke:#FFFFFF;stroke-width:1.0;" width="187" x="240" y="415.4883"/><line style="stroke:#000000;stroke-width:1.5;" x1="237" x2="430" y1="412.4883" y2="412.4883"/><text fill="#000000" font-family="sans-serif" font-size="14" lengthAdjust="spacing" textLength="100" x="283.5" y="404.5352">delete_server3</text><rect fill="#FFFFFF" height="40" rx="12.5" ry="12.5" style="stroke:#0000FF;stroke-width:1.5;" width="121" x="275" y="424.4883"/><text fill="#000000" font-family="sans-serif" font-size="14" lengthAdjust="spacing" textLength="111" x="280" y="449.7793">server3 deleting</text><rect fill="#ADD8E6" height="40" rx="12.5" ry="12.5" style="stroke:#0000FF;stroke-width:1.5;" width="173" x="249" y="500.4883"/><text fill="#000000" font-family="sans-serif" font-size="14" lengthAdjust="spacing" textLength="163" x="254" y="525.7793">server3 Standard.delete</text><rect fill="#FFFFFF" height="40" rx="12.5" ry="12.5" style="stroke:#0000FF;stroke-width:1.5;" width="103" x="284" y="576.4883"/><text fill="#000000" font-family="sans-serif" font-size="14" lengthAdjust="spacing" textLength="93" x="289" y="601.7793">server3 initial</text><!--MD5=[a3c71db0e2971d87bb97975c9fec3ca8]
link step_declarative_undeploy_delete_server3_server3_deleting to step_declarative_undeploy_delete_server3_server3_Standard.delete--><path d="M335.5,464.8549 C335.5,474.2155 335.5,485.4103 335.5,495.2956 " fill="none" id="step_declarative_undeploy_delete_server3_server3_deleting-to-step_declarative_undeploy_delete_server3_server3_Standard.delete" style="stroke:#0000FF;stroke-width:1.0;"/><polygon fill="#0000FF" points="335.5,500.329,339.5,491.329,335.5,495.329,331.5,491.329,335.5,500.329" style="stroke:#0000FF;stroke-width:1.0;"/><!--MD5=[a10851ae0114ae6ab83f1212ab924654]
link step_declarative_undeploy_delete_server3_server3_Standard.delete to step_declarative_undeploy_delete_server3_server3_initial--><path d="M335.5,540.8549 C335.5,550.2155 335.5,561.4103 335.5,571.2956 " fill="none" id="step_declarative_undeploy_delete_server3_server3_Standard.delete-to-step_declarative_undeploy_delete_server3_server3_initial" style="stroke:#0000FF;stroke-width:1.0;"/><polygon fill="#0000FF" points="335.5,576.329,339.5,567.329,335.5,571.329,331.5,567.329,335.5,576.329" style="stroke:#0000FF;stroke-width:1.0;"/><rect fill="#FFFFFF" height="240.4883" rx="12.5" ry="12.5" style="stroke:#000000;stroke-width:1.5;" width="185" x="13" y="1354"/><rect fill="#FFFFFF" height="208" rx="12.5" ry="12.5" style="stroke:#FFFFFF;stroke-width:1.0;" width="179" x="16" y="1383.4883"/><line style="stroke:#000000;stroke-width:1.5;" x1="13" x2="198" y1="1380.4883" y2="1380.4883"/><text fill="#000000" font-family="sans-serif" font-size="14" lengthAdjust="spacing" textLength="92" x="59.5" y="1372.5352">stop_nodejs1</text><rect fill="#FFFFFF" height="40" rx="12.5" ry="12.5" style="stroke:#0000FF;stroke-width:1.5;" width="130" x="42.5" y="1392.4883"/><text fill="#000000" font-family="sans-serif" font-size="14" lengthAdjust="spacing" textLength="120" x="47.5" y="1417.7793">nodejs1 stopping</text><rect fill="#ADD8E6" height="40" rx="12.5" ry="12.5" style="stroke:#0000FF;stroke-width:1.5;" width="165" x="25" y="1468.4883"/><text fill="#000000" font-family="sans-serif" font-size="14" lengthAdjust="spacing" textLength="155" x="30" y="1493.7793">nodejs1 Standard.stop</text><rect fill="#FFFFFF" height="40" rx="12.5" ry="12.5" style="stroke:#0000FF;stroke-width:1.5;" width="125" x="45" y="1544.4883"/><text fill="#000000" font-family="sans-serif" font-size="14" lengthAdjust="spacing" textLength="115" x="50" y="1569.7793">nodejs1 stopped</text><!--MD5=[5ca1f494bce61826df80b31d7492cbf9]
link step_declarative_undeploy_stop_nodejs1_nodejs1_stopping to step_declarative_undeploy_stop_nodejs1_nodejs1_Standard.stop--><path d="M107.5,1432.8549 C107.5,1442.2155 107.5,1453.4103 107.5,1463.2956 " fill="none" id="step_declarative_undeploy_stop_nodejs1_nodejs1_stopping-to-step_declarative_undeploy_stop_nodejs1_nodejs1_Standard.stop" style="stroke:#0000FF;stroke-width:1.0;"/><polygon fill="#0000FF" points="107.5,1468.329,111.5,1459.329,107.5,1463.329,103.5,1459.329,107.5,1468.329" style="stroke:#0000FF;stroke-width:1.0;"/><!--MD5=[e4afa6f4b5f7e7a513fde59d76e2686c]
link step_declarative_undeploy_stop_nodejs1_nodejs1_Standard.stop to step_declarative_undeploy_stop_nodejs1_nodejs1_stopped--><path d="M107.5,1508.8549 C107.5,1518.2155 107.5,1529.4103 107.5,1539.2956 " fill="none" id="step_declarative_undeploy_stop_nodejs1_nodejs1_Standard.stop-to-step_declarative_undeploy_stop_nodejs1_nodejs1_stopped" style="stroke:#0000FF;stroke-width:1.0;"/><polygon fill="#0000FF" points="107.5,1544.329,111.5,1535.329,107.5,1539.329,103.5,1535.329,107.5,1544.329" style="stroke:#0000FF;stroke-width:1.0;"/><rect fill="#FFFFFF" height="240.4883" rx="12.5" ry="12.5" style="stroke:#000000;stroke-width:1.5;" width="197" x="7" y="1654"/><rect fill="#FFFFFF" height="208" rx="12.5" ry="12.5" style="stroke:#FFFFFF;stroke-width:1.0;" width="191" x="10" y="1683.4883"/><line style="stroke:#000000;stroke-width:1.5;" x1="7" x2="204" y1="1680.4883" y2="1680.4883"/><text fill="#000000" font-family="sans-serif" font-size="14" lengthAdjust="spacing" textLength="104" x="53.5" y="1672.5352">delete_nodejs1</text><rect fill="#FFFFFF" height="40" rx="12.5" ry="12.5" style="stroke:#0000FF;stroke-width:1.5;" width="125" x="45" y="1692.4883"/><text fill="#000000" font-family="sans-serif" font-size="14" lengthAdjust="spacing" textLength="115" x="50" y="1717.7793">nodejs1 deleting</text><rect fill="#ADD8E6" height="40" rx="12.5" ry="12.5" style="stroke:#0000FF;stroke-width:1.5;" width="177" x="19" y="1768.4883"/><text fill="#000000" font-family="sans-serif" font-size="14" lengthAdjust="spacing" textLength="167" x="24" y="1793.7793">nodejs1 Standard.delete</text><rect fill="#FFFFFF" height="40" rx="12.5" ry="12.5" style="stroke:#0000FF;stroke-width:1.5;" width="107" x="54" y="1844.4883"/><text fill="#000000" font-family="sans-serif" font-size="14" lengthAdjust="spacing" textLength="97" x="59" y="1869.7793">nodejs1 initial</text><!--MD5=[a6106d02bcd346bd3650ebb0fdade964]
link step_declarative_undeploy_delete_nodejs1_nodejs1_deleting to step_declarative_undeploy_delete_nodejs1_nodejs1_Standard.delete--><path d="M107.5,1732.8549 C107.5,1742.2155 107.5,1753.4103 107.5,1763.2956 " fill="none" id="step_declarative_undeploy_delete_nodejs1_nodejs1_deleting-to-step_declarative_undeploy_delete_nodejs1_nodejs1_Standard.delete" style="stroke:#0000FF;stroke-width:1.0;"/><polygon fill="#0000FF" points="107.5,1768.329,111.5,1759.329,107.5,1763.329,103.5,1759.329,107.5,1768.329" style="stroke:#0000FF;stroke-width:1.0;"/><!--MD5=[8624b97670cc6edd57d340582f65103b]
link step_declarative_undeploy_delete_nodejs1_nodejs1_Standard.delete to step_declarative_undeploy_delete_nodejs1_nodejs1_initial--><path d="M107.5,1808.8549 C107.5,1818.2155 107.5,1829.4103 107.5,1839.2956 " fill="none" id="step_declarative_undeploy_delete_nodejs1_nodejs1_Standard.delete-to-step_declarative_undeploy_delete_nodejs1_nodejs1_initial" style="stroke:#0000FF;stroke-width:1.0;"/><polygon fill="#0000FF" points="107.5,1844.329,111.5,1835.329,107.5,1839.329,103.5,1835.329,107.5,1844.329" style="stroke:#0000FF;stroke-width:1.0;"/><rect fill="#FFFFFF" height="240.4883" rx="12.5" ry="12.5" style="stroke:#000000;stroke-width:1.5;" width="185" x="240" y="1354"/><rect fill="#FFFFFF" height="208" rx="12.5" ry="12.5" style="stroke:#FFFFFF;stroke-width:1.0;" width="179" x="243" y="1383.4883"/><line style="stroke:#000000;stroke-width:1.5;" x1="240" x2="425" y1="1380.4883" y2="1380.4883"/><text fill="#000000" font-family="sans-serif" font-size="14" lengthAdjust="spacing" textLength="92" x="286.5" y="1372.5352">stop_nodejs2</text><rect fill="#FFFFFF" height="40" rx="12.5" ry="12.5" style="stroke:#0000FF;stroke-width:1.5;" width="130" x="269.5" y="1392.4883"/><text fill="#000000" font-family="sans-serif" font-size="14" lengthAdjust="spacing" textLength="120" x="274.5" y="1417.7793">nodejs2 stopping</text><rect fill="#ADD8E6" height="40" rx="12.5" ry="12.5" style="stroke:#0000FF;stroke-width:1.5;" width="165" x="252" y="1468.4883"/><text fill="#000000" font-family="sans-serif" font-size="14" lengthAdjust="spacing" textLength="155" x="257" y="1493.7793">nodejs2 Standard.stop</text><rect fill="#FFFFFF" height="40" rx="12.5" ry="12.5" style="stroke:#0000FF;stroke-width:1.5;" width="125" x="272" y="1544.4883"/><text fill="#000000" font-family="sans-serif" font-size="14" lengthAdjust="spacing" textLength="115" x="277" y="1569.7793">nodejs2 stopped</text><!--MD5=[2f9830e7cc4f1105b5b5d7ed95742156]
link step_declarative_undeploy_stop_nodejs2_nodejs2_stopping to step_declarative_undeploy_stop_nodejs2_nodejs2_Standard.stop--><path d="M334.5,1432.8549 C334.5,1442.2155 334.5,1453.4103 334.5,1463.2956 " fill="none" id="step_declarative_undeploy_stop_nodejs2_nodejs2_stopping-to-step_declarative_undeploy_stop_nodejs2_nodejs2_Standard.stop" style="stroke:#0000FF;stroke-width:1.0;"/><polygon fill="#0000FF" points="334.5,1468.329,338.5,1459.329,334.5,1463.329,330.5,1459.329,334.5,1468.329" style="stroke:#0000FF;stroke-width:1.0;"/><!--MD5=[a35e3201aa2391014f90755d6efc9903]
link step_declarative_undeploy_stop_nodejs2_nodejs2_Standard.stop to step_declarative_undeploy_stop_nodejs2_nodejs2_stopped--><path d="M334.5,1508.8549 C334.5,1518.2155 334.5,1529.4103 334.5,1539.2956 " fill="none" id="step_declarative_undeploy_stop_nodejs2_nodejs2_Standard.stop-to-step_declarative_undeploy_stop_nodejs2_nodejs2_stopped" style="stroke:#0000FF;stroke-width:1.0;"/><polygon fill="#0000FF" points="334.5,1544.329,338.5,1535.329,334.5,1539.329,330.5,1535.329,334.5,1544.329" style="stroke:#0000FF;stroke-width:1.0;"/><rect fill="#FFFFFF" height="240.4883" rx="12.5" ry="12.5" style="stroke:#000000;stroke-width:1.5;" width="197" x="239" y="1654"/><rect fill="#FFFFFF" height="208" rx="12.5" ry="12.5" style="stroke:#FFFFFF;stroke-width:1.0;" width="191" x="242" y="1683.4883"/><line style="stroke:#000000;stroke-width:1.5;" x1="239" x2="436" y1="1680.4883" y2="1680.4883"/><text fill="#000000" font-family="sans-serif" font-size="14" lengthAdjust="spacing" textLength="104" x="285.5" y="1672.5352">delete_nodejs2</text><rect fill="#FFFFFF" height="40" rx="12.5" ry="12.5" style="stroke:#0000FF;stroke-width:1.5;" width="125" x="277" y="1692.4883"/><text fill="#000000" font-family="sans-serif" font-size="14" lengthAdjust="spacing" textLength="115" x="282" y="1717.7793">nodejs2 deleting</text><rect fill="#ADD8E6" height="40" rx="12.5" ry="12.5" style="stroke:#0000FF;stroke-width:1.5;" width="177" x="251" y="1768.4883"/><text fill="#000000" font-family="sans-serif" font-size="14" lengthAdjust="spacing" textLength="167" x="256" y="1793.7793">nodejs2 Standard.delete</text><rect fill="#FFFFFF" height="40" rx="12.5" ry="12.5" style="stroke:#0000FF;stroke-width:1.5;" width="107" x="286" y="1844.4883"/><text fill="#000000" font-family="sans-serif" font-size="14" lengthAdjust="spacing" textLength="97" x="291" y="1869.7793">nodejs2 initial</text><!--MD5=[249a50236906f5677c8e86f84620d76c]
link step_declarative_undeploy_delete_nodejs2_nodejs2_deleting to step_declarative_undeploy_delete_nodejs2_nodejs2_Standard.delete--><path d="M339.5,1732.8549 C339.5,1742.2155 339.5,1753.4103 339.5,1763.2956 " fill="none" id="step_declarative_undeploy_delete_nodejs2_nodejs2_deleting-to-step_declarative_undeploy_delete_nodejs2_nodejs2_Standard.delete" style="stroke:#0000FF;stroke-width:1.0;"/><polygon fill="#0000FF" points="339.5,1768.329,343.5,1759.329,339.5,1763.329,335.5,1759.329,339.5,1768.329" style="stroke:#0000FF;stroke-width:1.0;"/><!--MD5=[b6f88e1927fe6ded51d5c949afa040f2]
link step_declarative_undeploy_delete_nodejs2_nodejs2_Standard.delete to step_declarative_undeploy_delete_nodejs2_nodejs2_initial--><path d="M339.5,1808.8549 C339.5,1818.2155 339.5,1829.4103 339.5,1839.2956 " fill="none" id="step_declarative_undeploy_delete_nodejs2_nodejs2_Standard.delete-to-step_declarative_undeploy_delete_nodejs2_nodejs2_initial" style="stroke:#0000FF;stroke-width:1.0;"/><polygon fill="#0000FF" points="339.5,1844.329,343.5,1835.329,339.5,1839.329,335.5,1835.329,339.5,1844.329" style="stroke:#0000FF;stroke-width:1.0;"/><rect fill="#FFFFFF" height="240.4883" rx="12.5" ry="12.5" style="stroke:#000000;stroke-width:1.5;" width="185" x="466" y="1054"/><rect fill="#FFFFFF" height="208" rx="12.5" ry="12.5" style="stroke:#FFFFFF;stroke-width:1.0;" width="179" x="469" y="1083.4883"/><line style="stroke:#000000;stroke-width:1.5;" x1="466" x2="651" y1="1080.4883" y2="1080.4883"/><text fill="#000000" font-family="sans-serif" font-size="14" lengthAdjust="spacing" textLength="92" x="512.5" y="1072.5352">stop_nodejs3</text><rect fill="#FFFFFF" height="40" rx="12.5" ry="12.5" style="stroke:#0000FF;stroke-width:1.5;" width="130" x="495.5" y="1092.4883"/><text fill="#000000" font-family="sans-serif" font-size="14" lengthAdjust="spacing" textLength="120" x="500.5" y="1117.7793">nodejs3 stopping</text><rect fill="#ADD8E6" height="40" rx="12.5" ry="12.5" style="stroke:#0000FF;stroke-width:1.5;" width="165" x="478" y="1168.4883"/><text fill="#000000" font-family="sans-serif" font-size="14" lengthAdjust="spacing" textLength="155" x="483" y="1193.7793">nodejs3 Standard.stop</text><rect fill="#FFFFFF" height="40" rx="12.5" ry="12.5" style="stroke:#0000FF;stroke-width:1.5;" width="125" x="498" y="1244.4883"/><text fill="#000000" font-family="sans-serif" font-size="14" lengthAdjust="spacing" textLength="115" x="503" y="1269.7793">nodejs3 stopped</text><!--MD5=[edc0dda6344598a5725cacfaa82445eb]
link step_declarative_undeploy_stop_nodejs3_nodejs3_stopping to step_declarative_undeploy_stop_nodejs3_nodejs3_Standard.stop--><path d="M560.5,1132.8549 C560.5,1142.2155 560.5,1153.4103 560.5,1163.2956 " fill="none" id="step_declarative_undeploy_stop_nodejs3_nodejs3_stopping-to-step_declarative_undeploy_stop_nodejs3_nodejs3_Standard.stop" style="stroke:#0000FF;stroke-width:1.0;"/><polygon fill="#0000FF" points="560.5,1168.329,564.5,1159.329,560.5,1163.329,556.5,1159.329,560.5,1168.329" style="stroke:#0000FF;stroke-width:1.0;"/><!--MD5=[a15ed3f2069f4be172f2415d284c615c]
link step_declarative_undeploy_stop_nodejs3_nodejs3_Standard.stop to step_declarative_undeploy_stop_nodejs3_nodejs3_stopped--><path d="M560.5,1208.8549 C560.5,1218.2155 560.5,1229.4103 560.5,1239.2956 " fill="none" id="step_declarative_undeploy_stop_nodejs3_nodejs3_Standard.stop-to-step_declarative_undeploy_stop_nodejs3_nodejs3_stopped" style="stroke:#0000FF;stroke-width:1.0;"/><polygon fill="#0000FF" points="560.5,1244.329,564.5,1235.329,560.5,1239.329,556.5,1235.329,560.5,1244.329" style="stroke:#0000FF;stroke-width:1.0;"/><rect fill="#FFFFFF" height="240.4883" rx="12.5" ry="12.5" style="stroke:#000000;stroke-width:1.5;" width="197" x="460" y="1354"/><rect fill="#FFFFFF" height="208" rx="12.5" ry="12.5" style="stroke:#FFFFFF;stroke-width:1.0;" width="191" x="463" y="1383.4883"/><line style="stroke:#000000;stroke-width:1.5;" x1="460" x2="657" y1="1380.4883" y2="1380.4883"/><text fill="#000000" font-family="sans-serif" font-size="14" lengthAdjust="spacing" textLength="104" x="506.5" y="1372.5352">delete_nodejs3</text><rect fill="#FFFFFF" height="40" rx="12.5" ry="12.5" style="stroke:#0000FF;stroke-width:1.5;" width="125" x="498" y="1392.4883"/><text fill="#000000" font-family="sans-serif" font-size="14" lengthAdjust="spacing" textLength="115" x="503" y="1417.7793">nodejs3 deleting</text><rect fill="#ADD8E6" height="40" rx="12.5" ry="12.5" style="stroke:#0000FF;stroke-width:1.5;" width="177" x="472" y="1468.4883"/><text fill="#000000" font-family="sans-serif" font-size="14" lengthAdjust="spacing" textLength="167" x="477" y="1493.7793">nodejs3 Standard.delete</text><rect fill="#FFFFFF" height="40" rx="12.5" ry="12.5" style="stroke:#0000FF;stroke-width:1.5;" width="107" x="507" y="1544.4883"/><text fill="#000000" font-family="sans-serif" font-size="14" lengthAdjust="spacing" textLength="97" x="512" y="1569.7793">nodejs3 initial</text><!--MD5=[868e63c6ae5b786b31d603d160ed4459]
link step_declarative_undeploy_delete_nodejs3_nodejs3_deleting to step_declarative_undeploy_delete_nodejs3_nodejs3_Standard.delete--><path d="M560.5,1432.8549 C560.5,1442.2155 560.5,1453.4103 560.5,1463.2956 " fill="none" id="step_declarative_undeploy_delete_nodejs3_nodejs3_deleting-to-step_declarative_undeploy_delete_nodejs3_nodejs3_Standard.delete" style="stroke:#0000FF;stroke-width:1.0;"/><polygon fill="#0000FF" points="560.5,1468.329,564.5,1459.329,560.5,1463.329,556.5,1459.329,560.5,1468.329" style="stroke:#0000FF;stroke-width:1.0;"/><!--MD5=[6a4e0545a86869dfcefb5e20eac7b4f9]
link step_declarative_undeploy_delete_nodejs3_nodejs3_Standard.delete to step_declarative_undeploy_delete_nodejs3_nodejs3_initial--><path d="M560.5,1508.8549 C560.5,1518.2155 560.5,1529.4103 560.5,1539.2956 " fill="none" id="step_declarative_undeploy_delete_nodejs3_nodejs3_Standard.delete-to-step_declarative_undeploy_delete_nodejs3_nodejs3_initial" style="stroke:#0000FF;stroke-width:1.0;"/><polygon fill="#0000FF" points="560.5,1544.329,564.5,1535.329,560.5,1539.329,556.5,1535.329,560.5,1544.329" style="stroke:#0000FF;stroke-width:1.0;"/><!--MD5=[f400678c66349bcd4ce076eb7dc024b5]
link step_declarative_undeploy_stop_server1 to step_declarative_undeploy_delete_server1--><path d="M109.0941,994.2929 C108.7365,1012.1733 108.3672,1030.6404 108.0076,1048.6221 " fill="none" id="step_declarative_undeploy_stop_server1-to-step_declarative_undeploy_delete_server1" style="stroke:#0000FF;stroke-width:1.0;"/><polygon fill="#0000FF" points="107.9064,1053.6801,112.0859,1044.762,108.0065,1048.6811,104.0875,1044.6018,107.9064,1053.6801" style="stroke:#0000FF;stroke-width:1.0;"/><!--MD5=[2707c3687416652dee393abccafcd200]
link step_declarative_undeploy_delete_server1 to step_declarative_undeploy_stop_nodejs1--><path d="M105.5,1294.2929 C105.5,1312.1733 105.5,1330.6404 105.5,1348.6221 " fill="none" id="step_declarative_undeploy_delete_server1-to-step_declarative_undeploy_stop_nodejs1" style="stroke:#0000FF;stroke-width:1.0;"/><polygon fill="#0000FF" points="105.5,1353.6801,109.5,1344.6801,105.5,1348.6801,101.5,1344.6801,105.5,1353.6801" style="stroke:#0000FF;stroke-width:1.0;"/><!--MD5=[991eae2b49f33b458c2b95cb19b8f8cc]
link step_declarative_undeploy_stop_server2 to step_declarative_undeploy_delete_server2--><path d="M333.5,994.2929 C333.5,1012.1733 333.5,1030.6404 333.5,1048.6221 " fill="none" id="step_declarative_undeploy_stop_server2-to-step_declarative_undeploy_delete_server2" style="stroke:#0000FF;stroke-width:1.0;"/><polygon fill="#0000FF" points="333.5,1053.6801,337.5,1044.6801,333.5,1048.6801,329.5,1044.6801,333.5,1053.6801" style="stroke:#0000FF;stroke-width:1.0;"/><!--MD5=[1127370be7f36ddc0dd892a96cb5faa6]
link step_declarative_undeploy_delete_server2 to step_declarative_undeploy_stop_nodejs2--><path d="M333.099,1294.2929 C333.0394,1312.1733 332.9779,1330.6404 332.9179,1348.6221 " fill="none" id="step_declarative_undeploy_delete_server2-to-step_declarative_undeploy_stop_nodejs2" style="stroke:#0000FF;stroke-width:1.0;"/><polygon fill="#0000FF" points="332.9011,1353.6801,336.9312,1344.6935,332.9178,1348.6801,328.9312,1344.6668,332.9011,1353.6801" style="stroke:#0000FF;stroke-width:1.0;"/><!--MD5=[fe3f5f5447983647b8d5ca9bfe46f05a]
link step_declarative_undeploy_stop_server3 to step_declarative_undeploy_delete_server3--><path d="M333.5,326.2929 C333.5,344.1733 333.5,362.6404 333.5,380.6221 " fill="none" id="step_declarative_undeploy_stop_server3-to-step_declarative_undeploy_delete_server3" style="stroke:#0000FF;stroke-width:1.0;"/><polygon fill="#0000FF" points="333.5,385.6801,337.5,376.6801,333.5,380.6801,329.5,376.6801,333.5,385.6801" style="stroke:#0000FF;stroke-width:1.0;"/><!--MD5=[22b0de5e49ab2ff7dc71d3af6a465ef5]
link step_declarative_undeploy_delete_server3 to step_declarative_undeploy_delete_server3_fork--><path d="M333.5,626.1621 C333.5,649.157 333.5,669.5541 333.5,680.8003 " fill="none" id="step_declarative_undeploy_delete_server3-to-step_declarative_undeploy_delete_server3_fork" style="stroke:#0000FF;stroke-width:1.0;"/><polygon fill="#0000FF" points="333.5,685.8126,337.5,676.8126,333.5,680.8126,329.5,676.8126,333.5,685.8126" style="stroke:#0000FF;stroke-width:1.0;"/><!--MD5=[9cca0aa78ec5fb71b3a9f50d70175e1f]
link step_declarative_undeploy_delete_server3_fork to step_declarative_undeploy_stop_nodejs3--><path d="M346.3121,694.0136 C369.0231,701.7967 416.3151,721.1284 441.5,754 C506.786,839.2122 535.6443,958.9081 548.3995,1048.73 " fill="none" id="step_declarative_undeploy_delete_server3_fork-to-step_declarative_undeploy_stop_nodejs3" style="stroke:#0000FF;stroke-width:1.0;"/><polygon fill="#0000FF" points="549.1058,1053.7919,551.8236,1044.3255,548.4148,1048.8399,543.9004,1045.4311,549.1058,1053.7919" style="stroke:#0000FF;stroke-width:1.0;"/><!--MD5=[0cc4653d977ecf73bf264a02cb2d6a2b]
link step_declarative_undeploy_delete_server3_fork to step_declarative_undeploy_stop_server1--><path d="M324.8658,694.0848 C305.8632,703.2881 259.4151,726.965 225.5,754 C218.9872,759.1916 212.4878,764.7459 206.0823,770.5142 " fill="none" id="step_declarative_undeploy_delete_server3_fork-to-step_declarative_undeploy_stop_server1" style="stroke:#0000FF;stroke-width:1.0;"/><polygon fill="#0000FF" points="202.1068,774.1321,211.4553,771.0328,205.8047,770.7668,206.0708,765.1162,202.1068,774.1321" style="stroke:#0000FF;stroke-width:1.0;"/><!--MD5=[f1f07e7f5fdee6cc3a3f1244df470e37]
link step_declarative_undeploy_delete_server3_fork to step_declarative_undeploy_stop_server2--><path d="M333.5,694.1888 C333.5,702.7786 333.5,723.6672 333.5,748.2952 " fill="none" id="step_declarative_undeploy_delete_server3_fork-to-step_declarative_undeploy_stop_server2" style="stroke:#0000FF;stroke-width:1.0;"/><polygon fill="#0000FF" points="333.5,753.6042,337.5,744.6042,333.5,748.6042,329.5,744.6042,333.5,753.6042" style="stroke:#0000FF;stroke-width:1.0;"/><!--MD5=[4adbac7c8917b082cca056884160ddd2]
link step_declarative_undeploy_stop_nodejs1 to step_declarative_undeploy_delete_nodejs1--><path d="M105.5,1594.2929 C105.5,1612.1733 105.5,1630.6404 105.5,1648.6221 " fill="none" id="step_declarative_undeploy_stop_nodejs1-to-step_declarative_undeploy_delete_nodejs1" style="stroke:#0000FF;stroke-width:1.0;"/><polygon fill="#0000FF" points="105.5,1653.6801,109.5,1644.6801,105.5,1648.6801,101.5,1644.6801,105.5,1653.6801" style="stroke:#0000FF;stroke-width:1.0;"/><!--MD5=[7ab79ea8733d162e0b9fc9f037c78261]
link step_declarative_undeploy_stop_nodejs2 to step_declarative_undeploy_delete_nodejs2--><path d="M334.5049,1594.2929 C334.8029,1612.1733 335.1107,1630.6404 335.4104,1648.6221 " fill="none" id="step_declarative_undeploy_stop_nodejs2-to-step_declarative_undeploy_delete_nodejs2" style="stroke:#0000FF;stroke-width:1.0;"/><polygon fill="#0000FF" points="335.4947,1653.6801,339.344,1644.6146,335.4113,1648.6808,331.3451,1644.7481,335.4947,1653.6801" style="stroke:#0000FF;stroke-width:1.0;"/><!--MD5=[6c31c5af0acabe0feb05218a6f9c2dd0]
link step_declarative_undeploy_stop_nodejs3 to step_declarative_undeploy_delete_nodejs3--><path d="M558.5,1294.2929 C558.5,1312.1733 558.5,1330.6404 558.5,1348.6221 " fill="none" id="step_declarative_undeploy_stop_nodejs3-to-step_declarative_undeploy_delete_nodejs3" style="stroke:#0000FF;stroke-width:1.0;"/><polygon fill="#0000FF" points="558.5,1353.6801,562.5,1344.6801,558.5,1348.6801,554.5,1344.6801,558.5,1353.6801" style="stroke:#0000FF;stroke-width:1.0;"/><!--MD5=[d2453df0f4a569d73ce6b8a075dfa560]
link *start to step_declarative_undeploy_stop_server3--><path d="M333.5,26.2152 C333.5,37.7525 333.5,57.9094 333.5,80.6599 " fill="none" id="*start-to-step_declarative_undeploy_stop_server3" style="stroke:#0000FF;stroke-width:1.0;"/><polygon fill="#0000FF" points="333.5,85.8637,337.5,76.8637,333.5,80.8637,329.5,76.8637,333.5,85.8637" style="stroke:#0000FF;stroke-width:1.0;"/><!--MD5=[d304f95394e26b0967c056ac947717c1]
link declarative_undeploy_join to *end--><path d="M337.5,1962.4074 C337.5,1972.8066 337.5,1999.2833 337.5,2016.4165 " fill="none" id="declarative_undeploy_join-to-*end" style="stroke:#0000FF;stroke-width:1.0;"/><polygon fill="#0000FF" points="337.5,2021.8319,341.5,2012.8319,337.5,2016.8319,333.5,2012.8319,337.5,2021.8319" style="stroke:#0000FF;stroke-width:1.0;"/><!--MD5=[246d90c2d79af53b70c4fd6eef401c7c]
link step_declarative_undeploy_delete_nodejs1 to declarative_undeploy_join--><path d="M204.0059,1879.7432 C209.7829,1884.7225 215.6324,1889.5092 221.5,1894 C255.122,1919.7327 300.3685,1941.5495 323.1383,1951.7771 " fill="none" id="step_declarative_undeploy_delete_nodejs1-to-declarative_undeploy_join" style="stroke:#0000FF;stroke-width:1.0;"/><polygon fill="#0000FF" points="327.9041,1953.8954,321.3046,1946.5847,323.3351,1951.8645,318.0552,1953.8951,327.9041,1953.8954" style="stroke:#0000FF;stroke-width:1.0;"/><!--MD5=[5218331d3c677f82f34d2bd38351de5d]
link step_declarative_undeploy_delete_nodejs2 to declarative_undeploy_join--><path d="M337.5,1894.1621 C337.5,1917.157 337.5,1937.5541 337.5,1948.8003 " fill="none" id="step_declarative_undeploy_delete_nodejs2-to-declarative_undeploy_join" style="stroke:#0000FF;stroke-width:1.0;"/><polygon fill="#0000FF" points="337.5,1953.8126,341.5,1944.8126,337.5,1948.8126,333.5,1944.8126,337.5,1953.8126" style="stroke:#0000FF;stroke-width:1.0;"/><!--MD5=[5ffaba5a23749dde9c481a15ff9ca370]
link step_declarative_undeploy_delete_nodejs3 to declarative_undeploy_join--><path d="M553.8333,1594.1626 C544.731,1684.7786 519.843,1807.7735 453.5,1894 C428.9111,1925.9584 383.5993,1944.1598 357.4787,1952.4586 " fill="none" id="step_declarative_undeploy_delete_nodejs3-to-declarative_undeploy_join" style="stroke:#0000FF;stroke-width:1.0;"/><polygon fill="#0000FF" points="352.5223,1953.9875,362.3015,1955.1569,357.3002,1952.5137,359.9434,1947.5124,352.5223,1953.9875" style="stroke:#0000FF;stroke-width:1.0;"/><!--MD5=[51b074a0b31c5db3835074decdf8561e]
@startuml
hide empty description
skinparam shadowing false
skinparam state {
  ArrowColor blue
  BorderColor blue
  EndColor black
  StartColor green
  BackGroundColor<< step >> white
  BorderColor<< step >> black
  BackGroundColor<< delegate >> lightgrey
  BackGroundColor<< set_state >> white
  BackGroundColor<< call_operation >> lightblue
  BackGroundColor<< inline >> white
}
skinparam ActivityBarColor<<fork>> DarkGreen
skinparam ActivityBarColor<<join>> DarkOrange

state "stop_server1" as step_declarative_undeploy_stop_server1 << step >> {
  state "server1 stopping" as step_declarative_undeploy_stop_server1_server1_stopping << set_state >>
  state "server1 Standard.stop" as step_declarative_undeploy_stop_server1_server1_Standard.stop << call_operation >>
  state "server1 stopped" as step_declarative_undeploy_stop_server1_server1_stopped << set_state >>
  step_declarative_undeploy_stop_server1_server1_stopping - -> step_declarative_undeploy_stop_server1_server1_Standard.stop
  step_declarative_undeploy_stop_server1_server1_Standard.stop - -> step_declarative_undeploy_stop_server1_server1_stopped
}
state "delete_server1" as step_declarative_undeploy_delete_server1 << step >> {
  state "server1 deleting" as step_declarative_undeploy_delete_server1_server1_deleting << set_state >>
  state "server1 Standard.delete" as step_declarative_undeploy_delete_server1_server1_Standard.delete << call_operation >>
  state "server1 initial" as step_declarative_undeploy_delete_server1_server1_initial << set_state >>
  step_declarative_undeploy_delete_server1_server1_deleting - -> step_declarative_undeploy_delete_server1_server1_Standard.delete
  step_declarative_undeploy_delete_server1_server1_Standard.delete - -> step_declarative_undeploy_delete_server1_server1_initial
}
state "stop_server2" as step_declarative_undeploy_stop_server2 << step >> {
  state "server2 stopping" as step_declarative_undeploy_stop_server2_server2_stopping << set_state >>
  state "server2 Standard.stop" as step_declarative_undeploy_stop_server2_server2_Standard.stop << call_operation >>
  state "server2 stopped" as step_declarative_undeploy_stop_server2_server2_stopped << set_state >>
  step_declarative_undeploy_stop_server2_server2_stopping - -> step_declarative_undeploy_stop_server2_server2_Standard.stop
  step_declarative_undeploy_stop_server2_server2_Standard.stop - -> step_declarative_undeploy_stop_server2_server2_stopped
}
state "delete_server2" as step_declarative_undeploy_delete_server2 << step >> {
  state "server2 deleting" as step_declarative_undeploy_delete_server2_server2_deleting << set_state >>
  state "server2 Standard.delete" as step_declarative_undeploy_delete_server2_server2_Standard.delete << call_operation >>
  state "server2 initial" as step_declarative_undeploy_delete_server2_server2_initial << set_state >>
  step_declarative_undeploy_delete_server2_server2_deleting - -> step_declarative_undeploy_delete_server2_server2_Standard.delete
  step_declarative_undeploy_delete_server2_server2_Standard.delete - -> step_declarative_undeploy_delete_server2_server2_initial
}
state "stop_server3" as step_declarative_undeploy_stop_server3 << step >> {
  state "server3 stopping" as step_declarative_undeploy_stop_server3_server3_stopping << set_state >>
  state "server3 Standard.stop" as step_declarative_undeploy_stop_server3_server3_Standard.stop << call_operation >>
  state "server3 stopped" as step_declarative_undeploy_stop_server3_server3_stopped << set_state >>
  step_declarative_undeploy_stop_server3_server3_stopping - -> step_declarative_undeploy_stop_server3_server3_Standard.stop
  step_declarative_undeploy_stop_server3_server3_Standard.stop - -> step_declarative_undeploy_stop_server3_server3_stopped
}
state "delete_server3" as step_declarative_undeploy_delete_server3 << step >> {
  state "server3 deleting" as step_declarative_undeploy_delete_server3_server3_deleting << set_state >>
  state "server3 Standard.delete" as step_declarative_undeploy_delete_server3_server3_Standard.delete << call_operation >>
  state "server3 initial" as step_declarative_undeploy_delete_server3_server3_initial << set_state >>
  step_declarative_undeploy_delete_server3_server3_deleting - -> step_declarative_undeploy_delete_server3_server3_Standard.delete
  step_declarative_undeploy_delete_server3_server3_Standard.delete - -> step_declarative_undeploy_delete_server3_server3_initial
}
state "stop_nodejs1" as step_declarative_undeploy_stop_nodejs1 << step >> {
  state "nodejs1 stopping" as step_declarative_undeploy_stop_nodejs1_nodejs1_stopping << set_state >>
  state "nodejs1 Standard.stop" as step_declarative_undeploy_stop_nodejs1_nodejs1_Standard.stop << call_operation >>
  state "nodejs1 stopped" as step_declarative_undeploy_stop_nodejs1_nodejs1_stopped << set_state >>
  step_declarative_undeploy_stop_nodejs1_nodejs1_stopping - -> step_declarative_undeploy_stop_nodejs1_nodejs1_Standard.stop
  step_declarative_undeploy_stop_nodejs1_nodejs1_Standard.stop - -> step_declarative_undeploy_stop_nodejs1_nodejs1_stopped
}
state "delete_nodejs1" as step_declarative_undeploy_delete_nodejs1 << step >> {
  state "nodejs1 deleting" as step_declarative_undeploy_delete_nodejs1_nodejs1_deleting << set_state >>
  state "nodejs1 Standard.delete" as step_declarative_undeploy_delete_nodejs1_nodejs1_Standard.delete << call_operation >>
  state "nodejs1 initial" as step_declarative_undeploy_delete_nodejs1_nodejs1_initial << set_state >>
  step_declarative_undeploy_delete_nodejs1_nodejs1_deleting - -> step_declarative_undeploy_delete_nodejs1_nodejs1_Standard.delete
  step_declarative_undeploy_delete_nodejs1_nodejs1_Standard.delete - -> step_declarative_undeploy_delete_nodejs1_nodejs1_initial
}
state "stop_nodejs2" as step_declarative_undeploy_stop_nodejs2 << step >> {
  state "nodejs2 stopping" as step_declarative_undeploy_stop_nodejs2_nodejs2_stopping << set_state >>
  state "nodejs2 Standard.stop" as step_declarative_undeploy_stop_nodejs2_nodejs2_Standard.stop << call_operation >>
  state "nodejs2 stopped" as step_declarative_undeploy_stop_nodejs2_nodejs2_stopped << set_state >>
  step_declarative_undeploy_stop_nodejs2_nodejs2_stopping - -> step_declarative_undeploy_stop_nodejs2_nodejs2_Standard.stop
  step_declarative_undeploy_stop_nodejs2_nodejs2_Standard.stop - -> step_declarative_undeploy_stop_nodejs2_nodejs2_stopped
}
state "delete_nodejs2" as step_declarative_undeploy_delete_nodejs2 << step >> {
  state "nodejs2 deleting" as step_declarative_undeploy_delete_nodejs2_nodejs2_deleting << set_state >>
  state "nodejs2 Standard.delete" as step_declarative_undeploy_delete_nodejs2_nodejs2_Standard.delete << call_operation >>
  state "nodejs2 initial" as step_declarative_undeploy_delete_nodejs2_nodejs2_initial << set_state >>
  step_declarative_undeploy_delete_nodejs2_nodejs2_deleting - -> step_declarative_undeploy_delete_nodejs2_nodejs2_Standard.delete
  step_declarative_undeploy_delete_nodejs2_nodejs2_Standard.delete - -> step_declarative_undeploy_delete_nodejs2_nodejs2_initial
}
state "stop_nodejs3" as step_declarative_undeploy_stop_nodejs3 << step >> {
  state "nodejs3 stopping" as step_declarative_undeploy_stop_nodejs3_nodejs3_stopping << set_state >>
  state "nodejs3 Standard.stop" as step_declarative_undeploy_stop_nodejs3_nodejs3_Standard.stop << call_operation >>
  state "nodejs3 stopped" as step_declarative_undeploy_stop_nodejs3_nodejs3_stopped << set_state >>
  step_declarative_undeploy_stop_nodejs3_nodejs3_stopping - -> step_declarative_undeploy_stop_nodejs3_nodejs3_Standard.stop
  step_declarative_undeploy_stop_nodejs3_nodejs3_Standard.stop - -> step_declarative_undeploy_stop_nodejs3_nodejs3_stopped
}
state "delete_nodejs3" as step_declarative_undeploy_delete_nodejs3 << step >> {
  state "nodejs3 deleting" as step_declarative_undeploy_delete_nodejs3_nodejs3_deleting << set_state >>
  state "nodejs3 Standard.delete" as step_declarative_undeploy_delete_nodejs3_nodejs3_Standard.delete << call_operation >>
  state "nodejs3 initial" as step_declarative_undeploy_delete_nodejs3_nodejs3_initial << set_state >>
  step_declarative_undeploy_delete_nodejs3_nodejs3_deleting - -> step_declarative_undeploy_delete_nodejs3_nodejs3_Standard.delete
  step_declarative_undeploy_delete_nodejs3_nodejs3_Standard.delete - -> step_declarative_undeploy_delete_nodejs3_nodejs3_initial
}
step_declarative_undeploy_stop_server1 - -> step_declarative_undeploy_delete_server1
step_declarative_undeploy_delete_server1 - -> step_declarative_undeploy_stop_nodejs1
step_declarative_undeploy_stop_server2 - -> step_declarative_undeploy_delete_server2
step_declarative_undeploy_delete_server2 - -> step_declarative_undeploy_stop_nodejs2
step_declarative_undeploy_stop_server3 - -> step_declarative_undeploy_delete_server3
state step_declarative_undeploy_delete_server3_fork <<fork>>
step_declarative_undeploy_delete_server3 - -> step_declarative_undeploy_delete_server3_fork
step_declarative_undeploy_delete_server3_fork - -> step_declarative_undeploy_stop_nodejs3
step_declarative_undeploy_delete_server3_fork - -> step_declarative_undeploy_stop_server1
step_declarative_undeploy_delete_server3_fork - -> step_declarative_undeploy_stop_server2
step_declarative_undeploy_stop_nodejs1 - -> step_declarative_undeploy_delete_nodejs1
step_declarative_undeploy_stop_nodejs2 - -> step_declarative_undeploy_delete_nodejs2
step_declarative_undeploy_stop_nodejs3 - -> step_declarative_undeploy_delete_nodejs3
[*] - -> step_declarative_undeploy_stop_server3
state declarative_undeploy_join <<join>>
declarative_undeploy_join - -> [*]
step_declarative_undeploy_delete_nodejs1 - -> declarative_undeploy_join
step_declarative_undeploy_delete_nodejs2 - -> declarative_undeploy_join
step_declarative_undeploy_delete_nodejs3 - -> declarative_undeploy_join
@enduml

PlantUML version 1.2021.13(Mon Nov 01 12:38:45 CET 2021)
(GPL source distribution)
Java Runtime: Java(TM) SE Runtime Environment
JVM: Java HotSpot(TM) 64-Bit Server VM
Default Encoding: UTF-8
Language: fr
Country: FR
--></g></svg>