<?xml version="1.0" encoding="UTF-8" standalone="no"?><svg xmlns="http://www.w3.org/2000/svg" xmlns:xlink="http://www.w3.org/1999/xlink" contentScriptType="application/ecmascript" contentStyleType="text/css" height="1748px" preserveAspectRatio="none" style="width:675px;height:1748px;background:#FFFFFF;" version="1.1" viewBox="0 0 675 1748" width="675px" zoomAndPan="magnify"><defs/><g><rect fill="#006400" height="8" style="stroke:none;stroke-width:1.0;" width="80" x="297.5" y="386"/><ellipse cx="337.5" cy="16" fill="#008000" rx="10" ry="10" style="stroke:none;stroke-width:1.0;"/><rect fill="#FF8C00" height="8" style="stroke:none;stroke-width:1.0;" width="80" x="297.5" y="1654"/><ellipse cx="337.5" cy="1732" rx="10" ry="10" style="stroke:#000000;stroke-width:1.0;fill:none;"/><ellipse cx="338" cy="1732.5" fill="#000000" rx="6" ry="6" style="stroke:none;stroke-width:1.0;"/><rect fill="#FFFFFF" height="240.4883" rx="12.5" ry="12.5" style="stroke:#000000;stroke-width:1.5;" width="181" x="25" y="454"/><rect fill="#FFFFFF" height="208" rx="12.5" ry="12.5" style="stroke:#FFFFFF;stroke-width:1.0;" width="175" x="28" y="483.4883"/><line style="stroke:#000000;stroke-width:1.5;" x1="25" x2="206" y1="480.4883" y2="480.4883"/><text fill="#000000" font-family="sans-serif" font-size="14" lengthAdjust="spacing" textLength="88" x="71.5" y="472.5352">stop_server1</text><rect fill="#FFFFFF" height="40" rx="12.5" ry="12.5" style="stroke:#0000FF;stroke-width:1.5;" width="126" x="54.5" y="492.4883"/><text fill="#000000" font-family="sans-serif" font-size="14" lengthAdjust="spacing" textLength="116" x="59.5" y="517.7793">server1 stopping</text><rect fill="#ADD8E6" height="40" rx="12.5" ry="12.5" style="stroke:#0000FF;stroke-width:1.5;" width="161" x="37" y="568.4883"/><text fill="#000000" font-family="sans-serif" font-size="14" lengthAdjust="spacing" textLength="151" x="42" y="593.7793">server1 Standard.stop</text><rect fill="#FFFFFF" height="40" rx="12.5" ry="12.5" style="stroke:#0000FF;stroke-width:1.5;" width="121" x="57" y="644.4883"/><text fill="#000000" font-family="sans-serif" font-size="14" lengthAdjust="spacing" textLength="111" x="62" y="669.7793">server1 stopped</text><!--MD5=[d1a34df5fab997dae4011e7b35c3e838]
link step_parallel_undeploy_stop_server1_server1_stopping to step_parallel_undeploy_stop_server1_server1_Standard.stop--><path d="M117.5,532.8549 C117.5,542.2155 117.5,553.4103 117.5,563.2956 " fill="none" id="step_parallel_undeploy_stop_server1_server1_stopping-to-step_parallel_undeploy_stop_server1_server1_Standard.stop" style="stroke:#0000FF;stroke-width:1.0;"/><polygon fill="#0000FF" points="117.5,568.329,121.5,559.329,117.5,563.329,113.5,559.329,117.5,568.329" style="stroke:#0000FF;stroke-width:1.0;"/><!--MD5=[5b186e8666b5843a1f90459d66171118]
link step_parallel_undeploy_stop_server1_server1_Standard.stop to step_parallel_undeploy_stop_server1_server1_stopped--><path d="M117.5,608.8549 C117.5,618.2155 117.5,629.4103 117.5,639.2956 " fill="none" id="step_parallel_undeploy_stop_server1_server1_Standard.stop-to-step_parallel_undeploy_stop_server1_server1_stopped" style="stroke:#0000FF;stroke-width:1.0;"/><polygon fill="#0000FF" points="117.5,644.329,121.5,635.329,117.5,639.329,113.5,635.329,117.5,644.329" style="stroke:#0000FF;stroke-width:1.0;"/><rect fill="#FFFFFF" height="240.4883" rx="12.5" ry="12.5" style="stroke:#000000;stroke-width:1.5;" width="193" x="12" y="754"/><rect fill="#FFFFFF" height="208" rx="12.5" ry="12.5" style="stroke:#FFFFFF;stroke-width:1.0;" width="187" x="15" y="783.4883"/><line style="stroke:#000000;stroke-width:1.5;" x1="12" x2="205" y1="780.4883" y2="780.4883"/><text fill="#000000" font-family="sans-serif" font-size="14" lengthAdjust="spacing" textLength="100" x="58.5" y="772.5352">delete_server1</text><rect fill="#FFFFFF" height="40" rx="12.5" ry="12.5" style="stroke:#0000FF;stroke-width:1.5;" width="121" x="50" y="792.4883"/><text fill="#000000" font-family="sans-serif" font-size="14" lengthAdjust="spacing" textLength="111" x="55" y="817.7793">server1 deleting</text><rect fill="#ADD8E6" height="40" rx="12.5" ry="12.5" style="stroke:#0000FF;stroke-width:1.5;" width="173" x="24" y="868.4883"/><text fill="#000000" font-family="sans-serif" font-size="14" lengthAdjust="spacing" textLength="163" x="29" y="893.7793">server1 Standard.delete</text><rect fill="#FFFFFF" height="40" rx="12.5" ry="12.5" style="stroke:#0000FF;stroke-width:1.5;" width="103" x="59" y="944.4883"/><text fill="#000000" font-family="sans-serif" font-size="14" lengthAdjust="spacing" textLength="93" x="64" y="969.7793">server1 initial</text><!--MD5=[fd22c4c4583b2ad8cf16213dd833cf4b]
link step_parallel_undeploy_delete_server1_server1_deleting to step_parallel_undeploy_delete_server1_server1_Standard.delete--><path d="M110.5,832.8549 C110.5,842.2155 110.5,853.4103 110.5,863.2956 " fill="none" id="step_parallel_undeploy_delete_server1_server1_deleting-to-step_parallel_undeploy_delete_server1_server1_Standard.delete" style="stroke:#0000FF;stroke-width:1.0;"/><polygon fill="#0000FF" points="110.5,868.329,114.5,859.329,110.5,863.329,106.5,859.329,110.5,868.329" style="stroke:#0000FF;stroke-width:1.0;"/><!--MD5=[a9bd5dc70c358066e75b4ecf6842ce01]
link step_parallel_undeploy_delete_server1_server1_Standard.delete to step_parallel_undeploy_delete_server1_server1_initial--><path d="M110.5,908.8549 C110.5,918.2155 110.5,929.4103 110.5,939.2956 " fill="none" id="step_parallel_undeploy_delete_server1_server1_Standard.delete-to-step_parallel_undeploy_delete_server1_server1_initial" style="stroke:#0000FF;stroke-width:1.0;"/><polygon fill="#0000FF" points="110.5,944.329,114.5,935.329,110.5,939.329,106.5,935.329,110.5,944.329" style="stroke:#0000FF;stroke-width:1.0;"/><rect fill="#FFFFFF" height="240.4883" rx="12.5" ry="12.5" style="stroke:#000000;stroke-width:1.5;" width="181" x="247" y="454"/><rect fill="#FFFFFF" height="208" rx="12.5" ry="12.5" style="stroke:#FFFFFF;stroke-width:1.0;" width="175" x="250" y="483.4883"/><line style="stroke:#000000;stroke-width:1.5;" x1="247" x2="428" y1="480.4883" y2="480.4883"/><text fill="#000000" font-family="sans-serif" font-size="14" lengthAdjust="spacing" textLength="88" x="293.5" y="472.5352">stop_server2</text><rect fill="#FFFFFF" height="40" rx="12.5" ry="12.5" style="stroke:#0000FF;stroke-width:1.5;" width="126" x="276.5" y="492.4883"/><text fill="#000000" font-family="sans-serif" font-size="14" lengthAdjust="spacing" textLength="116" x="281.5" y="517.7793">server2 stopping</text><rect fill="#ADD8E6" height="40" rx="12.5" ry="12.5" style="stroke:#0000FF;stroke-width:1.5;" width="161" x="259" y="568.4883"/><text fill="#000000" font-family="sans-serif" font-size="14" lengthAdjust="spacing" textLength="151" x="264" y="593.7793">server2 Standard.stop</text><rect fill="#FFFFFF" height="40" rx="12.5" ry="12.5" style="stroke:#0000FF;stroke-width:1.5;" width="121" x="279" y="644.4883"/><text fill="#000000" font-family="sans-serif" font-size="14" lengthAdjust="spacing" textLength="111" x="284" y="669.7793">server2 stopped</text><!--MD5=[7458a574c3f273e41564ed8f1514a9a0]
link step_parallel_undeploy_stop_server2_server2_stopping to step_parallel_undeploy_stop_server2_server2_Standard.stop--><path d="M339.5,532.8549 C339.5,542.2155 339.5,553.4103 339.5,563.2956 " fill="none" id="step_parallel_undeploy_stop_server2_server2_stopping-to-step_parallel_undeploy_stop_server2_server2_Standard.stop" style="stroke:#0000FF;stroke-width:1.0;"/><polygon fill="#0000FF" points="339.5,568.329,343.5,559.329,339.5,563.329,335.5,559.329,339.5,568.329" style="stroke:#0000FF;stroke-width:1.0;"/><!--MD5=[2a71cd636f3f231eb7156edce8e4d3ae]
link step_parallel_undeploy_stop_server2_server2_Standard.stop to step_parallel_undeploy_stop_server2_server2_stopped--><path d="M339.5,608.8549 C339.5,618.2155 339.5,629.4103 339.5,639.2956 " fill="none" id="step_parallel_undeploy_stop_server2_server2_Standard.stop-to-step_parallel_undeploy_stop_server2_server2_stopped" style="stroke:#0000FF;stroke-width:1.0;"/><polygon fill="#0000FF" points="339.5,644.329,343.5,635.329,339.5,639.329,335.5,635.329,339.5,644.329" style="stroke:#0000FF;stroke-width:1.0;"/><rect fill="#FFFFFF" height="240.4883" rx="12.5" ry="12.5" style="stroke:#000000;stroke-width:1.5;" width="193" x="241" y="754"/><rect fill="#FFFFFF" height="208" rx="12.5" ry="12.5" style="stroke:#FFFFFF;stroke-width:1.0;" width="187" x="244" y="783.4883"/><line style="stroke:#000000;stroke-width:1.5;" x1="241" x2="434" y1="780.4883" y2="780.4883"/><text fill="#000000" font-family="sans-serif" font-size="14" lengthAdjust="spacing" textLength="100" x="287.5" y="772.5352">delete_server2</text><rect fill="#FFFFFF" height="40" rx="12.5" ry="12.5" style="stroke:#0000FF;stroke-width:1.5;" width="121" x="279" y="792.4883"/><text fill="#000000" font-family="sans-serif" font-size="14" lengthAdjust="spacing" textLength="111" x="284" y="817.7793">server2 deleting</text><rect fill="#ADD8E6" height="40" rx="12.5" ry="12.5" style="stroke:#0000FF;stroke-width:1.5;" width="173" x="253" y="868.4883"/><text fill="#000000" font-family="sans-serif" font-size="14" lengthAdjust="spacing" textLength="163" x="258" y="893.7793">server2 Standard.delete</text><rect fill="#FFFFFF" height="40" rx="12.5" ry="12.5" style="stroke:#0000FF;stroke-width:1.5;" width="103" x="288" y="944.4883"/><text fill="#000000" font-family="sans-serif" font-size="14" lengthAdjust="spacing" textLength="93" x="293" y="969.7793">server2 initial</text><!--MD5=[cc5f3054f254e8e7ce4aaf493d70b3a2]
link step_parallel_undeploy_delete_server2_server2_deleting to step_parallel_undeploy_delete_server2_server2_Standard.delete--><path d="M339.5,832.8549 C339.5,842.2155 339.5,853.4103 339.5,863.2956 " fill="none" id="step_parallel_undeploy_delete_server2_server2_deleting-to-step_parallel_undeploy_delete_server2_server2_Standard.delete" style="stroke:#0000FF;stroke-width:1.0;"/><polygon fill="#0000FF" points="339.5,868.329,343.5,859.329,339.5,863.329,335.5,859.329,339.5,868.329" style="stroke:#0000FF;stroke-width:1.0;"/><!--MD5=[0cafa83a9326be0dc2f4587334396719]
link step_parallel_undeploy_delete_server2_server2_Standard.delete to step_parallel_undeploy_delete_server2_server2_initial--><path d="M339.5,908.8549 C339.5,918.2155 339.5,929.4103 339.5,939.2956 " fill="none" id="step_parallel_undeploy_delete_server2_server2_Standard.delete-to-step_parallel_undeploy_delete_server2_server2_initial" style="stroke:#0000FF;stroke-width:1.0;"/><polygon fill="#0000FF" points="339.5,944.329,343.5,935.329,339.5,939.329,335.5,935.329,339.5,944.329" style="stroke:#0000FF;stroke-width:1.0;"/><rect fill="#FFFFFF" height="240.4883" rx="12.5" ry="12.5" style="stroke:#000000;stroke-width:1.5;" width="181" x="247" y="86"/><rect fill="#FFFFFF" height="208" rx="12.5" ry="12.5" style="stroke:#FFFFFF;stroke-width:1.0;" width="175" x="250" y="115.4883"/><line style="stroke:#000000;stroke-width:1.5;" x1="247" x2="428" y1="112.4883" y2="112.4883"/><text fill="#000000" font-family="sans-serif" font-size="14" lengthAdjust="spacing" textLength="88" x="293.5" y="104.5352">stop_server3</text><rect fill="#FFFFFF" height="40" rx="12.5" ry="12.5" style="stroke:#0000FF;stroke-width:1.5;" width="126" x="276.5" y="124.4883"/><text fill="#000000" font-family="sans-serif" font-size="14" lengthAdjust="spacing" textLength="116" x="281.5" y="149.7793">server3 stopping</text><rect fill="#ADD8E6" height="40" rx="12.5" ry="12.5" style="stroke:#0000FF;stroke-width:1.5;" width="161" x="259" y="200.4883"/><text fill="#000000" font-family="sans-serif" font-size="14" lengthAdjust="spacing" textLength="151" x="264" y="225.7793">server3 Standard.stop</text><rect fill="#FFFFFF" height="40" rx="12.5" ry="12.5" style="stroke:#0000FF;stroke-width:1.5;" width="121" x="279" y="276.4883"/><text fill="#000000" font-family="sans-serif" font-size="14" lengthAdjust="spacing" textLength="111" x="284" y="301.7793">server3 stopped</text><!--MD5=[7ec1af5ee51ed2729ad2b30482de27b3]
link step_parallel_undeploy_stop_server3_server3_stopping to step_parallel_undeploy_stop_server3_server3_Standard.stop--><path d="M339.5,164.8549 C339.5,174.2155 339.5,185.4103 339.5,195.2956 " fill="none" id="step_parallel_undeploy_stop_server3_server3_stopping-to-step_parallel_undeploy_stop_server3_server3_Standard.stop" style="stroke:#0000FF;stroke-width:1.0;"/><polygon fill="#0000FF" points="339.5,200.329,343.5,191.329,339.5,195.329,335.5,191.329,339.5,200.329" style="stroke:#0000FF;stroke-width:1.0;"/><!--MD5=[91e5359957228408771af184ddece394]
link step_parallel_undeploy_stop_server3_server3_Standard.stop to step_parallel_undeploy_stop_server3_server3_stopped--><path d="M339.5,240.8549 C339.5,250.2155 339.5,261.4103 339.5,271.2956 " fill="none" id="step_parallel_undeploy_stop_server3_server3_Standard.stop-to-step_parallel_undeploy_stop_server3_server3_stopped" style="stroke:#0000FF;stroke-width:1.0;"/><polygon fill="#0000FF" points="339.5,276.329,343.5,267.329,339.5,271.329,335.5,267.329,339.5,276.329" style="stroke:#0000FF;stroke-width:1.0;"/><rect fill="#FFFFFF" height="240.4883" rx="12.5" ry="12.5" style="stroke:#000000;stroke-width:1.5;" width="193" x="471" y="754"/><rect fill="#FFFFFF" height="208" rx="12.5" ry="12.5" style="stroke:#FFFFFF;stroke-width:1.0;" width="187" x="474" y="783.4883"/><line style="stroke:#000000;stroke-width:1.5;" x1="471" x2="664" y1="780.4883" y2="780.4883"/><text fill="#000000" font-family="sans-serif" font-size="14" lengthAdjust="spacing" textLength="100" x="517.5" y="772.5352">delete_server3</text><rect fill="#FFFFFF" height="40" rx="12.5" ry="12.5" style="stroke:#0000FF;stroke-width:1.5;" width="121" x="509" y="792.4883"/><text fill="#000000" font-family="sans-serif" font-size="14" lengthAdjust="spacing" textLength="111" x="514" y="817.7793">server3 deleting</text><rect fill="#ADD8E6" height="40" rx="12.5" ry="12.5" style="stroke:#0000FF;stroke-width:1.5;" width="173" x="483" y="868.4883"/><text fill="#000000" font-family="sans-serif" font-size="14" lengthAdjust="spacing" textLength="163" x="488" y="893.7793">server3 Standard.delete</text><rect fill="#FFFFFF" height="40" rx="12.5" ry="12.5" style="stroke:#0000FF;stroke-width:1.5;" width="103" x="518" y="944.4883"/><text fill="#000000" font-family="sans-serif" font-size="14" lengthAdjust="spacing" textLength="93" x="523" y="969.7793">server3 initial</text><!--MD5=[b76384254fa9a47301dee9b32a4438f0]
link step_parallel_undeploy_delete_server3_server3_deleting to step_parallel_undeploy_delete_server3_server3_Standard.delete--><path d="M569.5,832.8549 C569.5,842.2155 569.5,853.4103 569.5,863.2956 " fill="none" id="step_parallel_undeploy_delete_server3_server3_deleting-to-step_parallel_undeploy_delete_server3_server3_Standard.delete" style="stroke:#0000FF;stroke-width:1.0;"/><polygon fill="#0000FF" points="569.5,868.329,573.5,859.329,569.5,863.329,565.5,859.329,569.5,868.329" style="stroke:#0000FF;stroke-width:1.0;"/><!--MD5=[c9fd48aa40cdc96436d7b27518f97a03]
link step_parallel_undeploy_delete_server3_server3_Standard.delete to step_parallel_undeploy_delete_server3_server3_initial--><path d="M569.5,908.8549 C569.5,918.2155 569.5,929.4103 569.5,939.2956 " fill="none" id="step_parallel_undeploy_delete_server3_server3_Standard.delete-to-step_parallel_undeploy_delete_server3_server3_initial" style="stroke:#0000FF;stroke-width:1.0;"/><polygon fill="#0000FF" points="569.5,944.329,573.5,935.329,569.5,939.329,565.5,935.329,569.5,944.329" style="stroke:#0000FF;stroke-width:1.0;"/><rect fill="#FFFFFF" height="240.4883" rx="12.5" ry="12.5" style="stroke:#000000;stroke-width:1.5;" width="185" x="15" y="1054"/><rect fill="#FFFFFF" height="208" rx="12.5" ry="12.5" style="stroke:#FFFFFF;stroke-width:1.0;" width="179" x="18" y="1083.4883"/><line style="stroke:#000000;stroke-width:1.5;" x1="15" x2="200" y1="1080.4883" y2="1080.4883"/><text fill="#000000" font-family="sans-serif" font-size="14" lengthAdjust="spacing" textLength="92" x="61.5" y="1072.5352">stop_nodejs1</text><rect fill="#FFFFFF" height="40" rx="12.5" ry="12.5" style="stroke:#0000FF;stroke-width:1.5;" width="130" x="44.5" y="1092.4883"/><text fill="#000000" font-family="sans-serif" font-size="14" lengthAdjust="spacing" textLength="120" x="49.5" y="1117.7793">nodejs1 stopping</text><rect fill="#ADD8E6" height="40" rx="12.5" ry="12.5" style="stroke:#0000FF;stroke-width:1.5;" width="165" x="27" y="1168.4883"/><text fill="#000000" font-family="sans-serif" font-size="14" lengthAdjust="spacing" textLength="155" x="32" y="1193.7793">nodejs1 Standard.stop</text><rect fill="#FFFFFF" height="40" rx="12.5" ry="12.5" style="stroke:#0000FF;stroke-width:1.5;" width="125" x="47" y="1244.4883"/><text fill="#000000" font-family="sans-serif" font-size="14" lengthAdjust="spacing" textLength="115" x="52" y="1269.7793">nodejs1 stopped</text><!--MD5=[9aa19d121dadb02a2e2a1577bfdf02ff]
link step_parallel_undeploy_stop_nodejs1_nodejs1_stopping to step_parallel_undeploy_stop_nodejs1_nodejs1_Standard.stop--><path d="M109.5,1132.8549 C109.5,1142.2155 109.5,1153.4103 109.5,1163.2956 " fill="none" id="step_parallel_undeploy_stop_nodejs1_nodejs1_stopping-to-step_parallel_undeploy_stop_nodejs1_nodejs1_Standard.stop" style="stroke:#0000FF;stroke-width:1.0;"/><polygon fill="#0000FF" points="109.5,1168.329,113.5,1159.329,109.5,1163.329,105.5,1159.329,109.5,1168.329" style="stroke:#0000FF;stroke-width:1.0;"/><!--MD5=[adaeaa7763509ae9b81e94f4f643b68a]
link step_parallel_undeploy_stop_nodejs1_nodejs1_Standard.stop to step_parallel_undeploy_stop_nodejs1_nodejs1_stopped--><path d="M109.5,1208.8549 C109.5,1218.2155 109.5,1229.4103 109.5,1239.2956 " fill="none" id="step_parallel_undeploy_stop_nodejs1_nodejs1_Standard.stop-to-step_parallel_undeploy_stop_nodejs1_nodejs1_stopped" style="stroke:#0000FF;stroke-width:1.0;"/><polygon fill="#0000FF" points="109.5,1244.329,113.5,1235.329,109.5,1239.329,105.5,1235.329,109.5,1244.329" style="stroke:#0000FF;stroke-width:1.0;"/><rect fill="#FFFFFF" height="240.4883" rx="12.5" ry="12.5" style="stroke:#000000;stroke-width:1.5;" width="197" x="7" y="1354"/><rect fill="#FFFFFF" height="208" rx="12.5" ry="12.5" style="stroke:#FFFFFF;stroke-width:1.0;" width="191" x="10" y="1383.4883"/><line style="stroke:#000000;stroke-width:1.5;" x1="7" x2="204" y1="1380.4883" y2="1380.4883"/><text fill="#000000" font-family="sans-serif" font-size="14" lengthAdjust="spacing" textLength="104" x="53.5" y="1372.5352">delete_nodejs1</text><rect fill="#FFFFFF" height="40" rx="12.5" ry="12.5" style="stroke:#0000FF;stroke-width:1.5;" width="125" x="45" y="1392.4883"/><text fill="#000000" font-family="sans-serif" font-size="14" lengthAdjust="spacing" textLength="115" x="50" y="1417.7793">nodejs1 deleting</text><rect fill="#ADD8E6" height="40" rx="12.5" ry="12.5" style="stroke:#0000FF;stroke-width:1.5;" width="177" x="19" y="1468.4883"/><text fill="#000000" font-family="sans-serif" font-size="14" lengthAdjust="spacing" textLength="167" x="24" y="1493.7793">nodejs1 Standard.delete</text><rect fill="#FFFFFF" height="40" rx="12.5" ry="12.5" style="stroke:#0000FF;stroke-width:1.5;" width="107" x="54" y="1544.4883"/><text fill="#000000" font-family="sans-serif" font-size="14" lengthAdjust="spacing" textLength="97" x="59" y="1569.7793">nodejs1 initial</text><!--MD5=[18ad58a66722ec5ebf871ea0f74c76db]
link step_parallel_undeploy_delete_nodejs1_nodejs1_deleting to step_parallel_undeploy_delete_nodejs1_nodejs1_Standard.delete--><path d="M107.5,1432.8549 C107.5,1442.2155 107.5,1453.4103 107.5,1463.2956 " fill="none" id="step_parallel_undeploy_delete_nodejs1_nodejs1_deleting-to-step_parallel_undeploy_delete_nodejs1_nodejs1_Standard.delete" style="stroke:#0000FF;stroke-width:1.0;"/><polygon fill="#0000FF" points="107.5,1468.329,111.5,1459.329,107.5,1463.329,103.5,1459.329,107.5,1468.329" style="stroke:#0000FF;stroke-width:1.0;"/><!--MD5=[8c4d71b0b4bffe953b8b3f829f4a1841]
link step_parallel_undeploy_delete_nodejs1_nodejs1_Standard.delete to step_parallel_undeploy_delete_nodejs1_nodejs1_initial--><path d="M107.5,1508.8549 C107.5,1518.2155 107.5,1529.4103 107.5,1539.2956 " fill="none" id="step_parallel_undeploy_delete_nodejs1_nodejs1_Standard.delete-to-step_parallel_undeploy_delete_nodejs1_nodejs1_initial" style="stroke:#0000FF;stroke-width:1.0;"/><polygon fill="#0000FF" points="107.5,1544.329,111.5,1535.329,107.5,1539.329,103.5,1535.329,107.5,1544.329" style="stroke:#0000FF;stroke-width:1.0;"/><rect fill="#FFFFFF" height="240.4883" rx="12.5" ry="12.5" style="stroke:#000000;stroke-width:1.5;" width="185" x="245" y="1054"/><rect fill="#FFFFFF" height="208" rx="12.5" ry="12.5" style="stroke:#FFFFFF;stroke-width:1.0;" width="179" x="248" y="1083.4883"/><line style="stroke:#000000;stroke-width:1.5;" x1="245" x2="430" y1="1080.4883" y2="1080.4883"/><text fill="#000000" font-family="sans-serif" font-size="14" lengthAdjust="spacing" textLength="92" x="291.5" y="1072.5352">stop_nodejs2</text><rect fill="#FFFFFF" height="40" rx="12.5" ry="12.5" style="stroke:#0000FF;stroke-width:1.5;" width="130" x="274.5" y="1092.4883"/><text fill="#000000" font-family="sans-serif" font-size="14" lengthAdjust="spacing" textLength="120" x="279.5" y="1117.7793">nodejs2 stopping</text><rect fill="#ADD8E6" height="40" rx="12.5" ry="12.5" style="stroke:#0000FF;stroke-width:1.5;" width="165" x="257" y="1168.4883"/><text fill="#000000" font-family="sans-serif" font-size="14" lengthAdjust="spacing" textLength="155" x="262" y="1193.7793">nodejs2 Standard.stop</text><rect fill="#FFFFFF" height="40" rx="12.5" ry="12.5" style="stroke:#0000FF;stroke-width:1.5;" width="125" x="277" y="1244.4883"/><text fill="#000000" font-family="sans-serif" font-size="14" lengthAdjust="spacing" textLength="115" x="282" y="1269.7793">nodejs2 stopped</text><!--MD5=[4186658e62218f120b2f9936cb4aedad]
link step_parallel_undeploy_stop_nodejs2_nodejs2_stopping to step_parallel_undeploy_stop_nodejs2_nodejs2_Standard.stop--><path d="M339.5,1132.8549 C339.5,1142.2155 339.5,1153.4103 339.5,1163.2956 " fill="none" id="step_parallel_undeploy_stop_nodejs2_nodejs2_stopping-to-step_parallel_undeploy_stop_nodejs2_nodejs2_Standard.stop" style="stroke:#0000FF;stroke-width:1.0;"/><polygon fill="#0000FF" points="339.5,1168.329,343.5,1159.329,339.5,1163.329,335.5,1159.329,339.5,1168.329" style="stroke:#0000FF;stroke-width:1.0;"/><!--MD5=[9d060d8fdb6d872347e4b778d75f856a]
link step_parallel_undeploy_stop_nodejs2_nodejs2_Standard.stop to step_parallel_undeploy_stop_nodejs2_nodejs2_stopped--><path d="M339.5,1208.8549 C339.5,1218.2155 339.5,1229.4103 339.5,1239.2956 " fill="none" id="step_parallel_undeploy_stop_nodejs2_nodejs2_Standard.stop-to-step_parallel_undeploy_stop_nodejs2_nodejs2_stopped" style="stroke:#0000FF;stroke-width:1.0;"/><polygon fill="#0000FF" points="339.5,1244.329,343.5,1235.329,339.5,1239.329,335.5,1235.329,339.5,1244.329" style="stroke:#0000FF;stroke-width:1.0;"/><rect fill="#FFFFFF" height="240.4883" rx="12.5" ry="12.5" style="stroke:#000000;stroke-width:1.5;" width="197" x="239" y="1354"/><rect fill="#FFFFFF" height="208" rx="12.5" ry="12.5" style="stroke:#FFFFFF;stroke-width:1.0;" width="191" x="242" y="1383.4883"/><line style="stroke:#000000;stroke-width:1.5;" x1="239" x2="436" y1="1380.4883" y2="1380.4883"/><text fill="#000000" font-family="sans-serif" font-size="14" lengthAdjust="spacing" textLength="104" x="285.5" y="1372.5352">delete_nodejs2</text><rect fill="#FFFFFF" height="40" rx="12.5" ry="12.5" style="stroke:#0000FF;stroke-width:1.5;" width="125" x="277" y="1392.4883"/><text fill="#000000" font-family="sans-serif" font-size="14" lengthAdjust="spacing" textLength="115" x="282" y="1417.7793">nodejs2 deleting</text><rect fill="#ADD8E6" height="40" rx="12.5" ry="12.5" style="stroke:#0000FF;stroke-width:1.5;" width="177" x="251" y="1468.4883"/><text fill="#000000" font-family="sans-serif" font-size="14" lengthAdjust="spacing" textLength="167" x="256" y="1493.7793">nodejs2 Standard.delete</text><rect fill="#FFFFFF" height="40" rx="12.5" ry="12.5" style="stroke:#0000FF;stroke-width:1.5;" width="107" x="286" y="1544.4883"/><text fill="#000000" font-family="sans-serif" font-size="14" lengthAdjust="spacing" textLength="97" x="291" y="1569.7793">nodejs2 initial</text><!--MD5=[ca6f0c2e95cae8878ffbb56e107daa60]
link step_parallel_undeploy_delete_nodejs2_nodejs2_deleting to step_parallel_undeploy_delete_nodejs2_nodejs2_Standard.delete--><path d="M339.5,1432.8549 C339.5,1442.2155 339.5,1453.4103 339.5,1463.2956 " fill="none" id="step_parallel_undeploy_delete_nodejs2_nodejs2_deleting-to-step_parallel_undeploy_delete_nodejs2_nodejs2_Standard.delete" style="stroke:#0000FF;stroke-width:1.0;"/><polygon fill="#0000FF" points="339.5,1468.329,343.5,1459.329,339.5,1463.329,335.5,1459.329,339.5,1468.329" style="stroke:#0000FF;stroke-width:1.0;"/><!--MD5=[b772342354cb4f7b2b752868bebb3511]
link step_parallel_undeploy_delete_nodejs2_nodejs2_Standard.delete to step_parallel_undeploy_delete_nodejs2_nodejs2_initial--><path d="M339.5,1508.8549 C339.5,1518.2155 339.5,1529.4103 339.5,1539.2956 " fill="none" id="step_parallel_undeploy_delete_nodejs2_nodejs2_Standard.delete-to-step_parallel_undeploy_delete_nodejs2_nodejs2_initial" style="stroke:#0000FF;stroke-width:1.0;"/><polygon fill="#0000FF" points="339.5,1544.329,343.5,1535.329,339.5,1539.329,335.5,1535.329,339.5,1544.329" style="stroke:#0000FF;stroke-width:1.0;"/><rect fill="#FFFFFF" height="240.4883" rx="12.5" ry="12.5" style="stroke:#000000;stroke-width:1.5;" width="185" x="476" y="1054"/><rect fill="#FFFFFF" height="208" rx="12.5" ry="12.5" style="stroke:#FFFFFF;stroke-width:1.0;" width="179" x="479" y="1083.4883"/><line style="stroke:#000000;stroke-width:1.5;" x1="476" x2="661" y1="1080.4883" y2="1080.4883"/><text fill="#000000" font-family="sans-serif" font-size="14" lengthAdjust="spacing" textLength="92" x="522.5" y="1072.5352">stop_nodejs3</text><rect fill="#FFFFFF" height="40" rx="12.5" ry="12.5" style="stroke:#0000FF;stroke-width:1.5;" width="130" x="505.5" y="1092.4883"/><text fill="#000000" font-family="sans-serif" font-size="14" lengthAdjust="spacing" textLength="120" x="510.5" y="1117.7793">nodejs3 stopping</text><rect fill="#ADD8E6" height="40" rx="12.5" ry="12.5" style="stroke:#0000FF;stroke-width:1.5;" width="165" x="488" y="1168.4883"/><text fill="#000000" font-family="sans-serif" font-size="14" lengthAdjust="spacing" textLength="155" x="493" y="1193.7793">nodejs3 Standard.stop</text><rect fill="#FFFFFF" height="40" rx="12.5" ry="12.5" style="stroke:#0000FF;stroke-width:1.5;" width="125" x="508" y="1244.4883"/><text fill="#000000" font-family="sans-serif" font-size="14" lengthAdjust="spacing" textLength="115" x="513" y="1269.7793">nodejs3 stopped</text><!--MD5=[e418cae69a1d99c0b840d71da80d32b1]
link step_parallel_undeploy_stop_nodejs3_nodejs3_stopping to step_parallel_undeploy_stop_nodejs3_nodejs3_Standard.stop--><path d="M570.5,1132.8549 C570.5,1142.2155 570.5,1153.4103 570.5,1163.2956 " fill="none" id="step_parallel_undeploy_stop_nodejs3_nodejs3_stopping-to-step_parallel_undeploy_stop_nodejs3_nodejs3_Standard.stop" style="stroke:#0000FF;stroke-width:1.0;"/><polygon fill="#0000FF" points="570.5,1168.329,574.5,1159.329,570.5,1163.329,566.5,1159.329,570.5,1168.329" style="stroke:#0000FF;stroke-width:1.0;"/><!--MD5=[0aa96f10fc148e1f23ebb26429a32a42]
link step_parallel_undeploy_stop_nodejs3_nodejs3_Standard.stop to step_parallel_undeploy_stop_nodejs3_nodejs3_stopped--><path d="M570.5,1208.8549 C570.5,1218.2155 570.5,1229.4103 570.5,1239.2956 " fill="none" id="step_parallel_undeploy_stop_nodejs3_nodejs3_Standard.stop-to-step_parallel_undeploy_stop_nodejs3_nodejs3_stopped" style="stroke:#0000FF;stroke-width:1.0;"/><polygon fill="#0000FF" points="570.5,1244.329,574.5,1235.329,570.5,1239.329,566.5,1235.329,570.5,1244.329" style="stroke:#0000FF;stroke-width:1.0;"/><rect fill="#FFFFFF" height="240.4883" rx="12.5" ry="12.5" style="stroke:#000000;stroke-width:1.5;" width="197" x="471" y="1354"/><rect fill="#FFFFFF" height="208" rx="12.5" ry="12.5" style="stroke:#FFFFFF;stroke-width:1.0;" width="191" x="474" y="1383.4883"/><line style="stroke:#000000;stroke-width:1.5;" x1="471" x2="668" y1="1380.4883" y2="1380.4883"/><text fill="#000000" font-family="sans-serif" font-size="14" lengthAdjust="spacing" textLength="104" x="517.5" y="1372.5352">delete_nodejs3</text><rect fill="#FFFFFF" height="40" rx="12.5" ry="12.5" style="stroke:#0000FF;stroke-width:1.5;" width="125" x="509" y="1392.4883"/><text fill="#000000" font-family="sans-serif" font-size="14" lengthAdjust="spacing" textLength="115" x="514" y="1417.7793">nodejs3 deleting</text><rect fill="#ADD8E6" height="40" rx="12.5" ry="12.5" style="stroke:#0000FF;stroke-width:1.5;" width="177" x="483" y="1468.4883"/><text fill="#000000" font-family="sans-serif" font-size="14" lengthAdjust="spacing" textLength="167" x="488" y="1493.7793">nodejs3 Standard.delete</text><rect fill="#FFFFFF" height="40" rx="12.5" ry="12.5" style="stroke:#0000FF;stroke-width:1.5;" width="107" x="518" y="1544.4883"/><text fill="#000000" font-family="sans-serif" font-size="14" lengthAdjust="spacing" textLength="97" x="523" y="1569.7793">nodejs3 initial</text><!--MD5=[213278e4f6cb4f538efd2a0377aaf25e]
link step_parallel_undeploy_delete_nodejs3_nodejs3_deleting to step_parallel_undeploy_delete_nodejs3_nodejs3_Standard.delete--><path d="M571.5,1432.8549 C571.5,1442.2155 571.5,1453.4103 571.5,1463.2956 " fill="none" id="step_parallel_undeploy_delete_nodejs3_nodejs3_deleting-to-step_parallel_undeploy_delete_nodejs3_nodejs3_Standard.delete" style="stroke:#0000FF;stroke-width:1.0;"/><polygon fill="#0000FF" points="571.5,1468.329,575.5,1459.329,571.5,1463.329,567.5,1459.329,571.5,1468.329" style="stroke:#0000FF;stroke-width:1.0;"/><!--MD5=[c9b386baa8b3cb454a154564b7fa8c06]
link step_parallel_undeploy_delete_nodejs3_nodejs3_Standard.delete to step_parallel_undeploy_delete_nodejs3_nodejs3_initial--><path d="M571.5,1508.8549 C571.5,1518.2155 571.5,1529.4103 571.5,1539.2956 " fill="none" id="step_parallel_undeploy_delete_nodejs3_nodejs3_Standard.delete-to-step_parallel_undeploy_delete_nodejs3_nodejs3_initial" style="stroke:#0000FF;stroke-width:1.0;"/><polygon fill="#0000FF" points="571.5,1544.329,575.5,1535.329,571.5,1539.329,567.5,1535.329,571.5,1544.329" style="stroke:#0000FF;stroke-width:1.0;"/><!--MD5=[62c93856b95dc4a77a7e332c0373fb77]
link step_parallel_undeploy_stop_server1 to step_parallel_undeploy_delete_server1--><path d="M112.6932,694.2929 C112.276,712.1733 111.8451,730.6404 111.4255,748.6221 " fill="none" id="step_parallel_undeploy_stop_server1-to-step_parallel_undeploy_delete_server1" style="stroke:#0000FF;stroke-width:1.0;"/><polygon fill="#0000FF" points="111.3075,753.6801,115.5165,744.7759,111.4242,748.6815,107.5187,744.5892,111.3075,753.6801" style="stroke:#0000FF;stroke-width:1.0;"/><!--MD5=[695cc569f5607f074aea599efe4ba7d8]
link step_parallel_undeploy_delete_server1 to step_parallel_undeploy_stop_nodejs1--><path d="M108.099,994.2929 C108.0394,1012.1733 107.9779,1030.6404 107.9179,1048.6221 " fill="none" id="step_parallel_undeploy_delete_server1-to-step_parallel_undeploy_stop_nodejs1" style="stroke:#0000FF;stroke-width:1.0;"/><polygon fill="#0000FF" points="107.9011,1053.6801,111.9312,1044.6935,107.9178,1048.6801,103.9312,1044.6668,107.9011,1053.6801" style="stroke:#0000FF;stroke-width:1.0;"/><!--MD5=[55c928b23b10a30576073b6b002155be]
link step_parallel_undeploy_stop_server2 to step_parallel_undeploy_delete_server2--><path d="M337.5,694.2929 C337.5,712.1733 337.5,730.6404 337.5,748.6221 " fill="none" id="step_parallel_undeploy_stop_server2-to-step_parallel_undeploy_delete_server2" style="stroke:#0000FF;stroke-width:1.0;"/><polygon fill="#0000FF" points="337.5,753.6801,341.5,744.6801,337.5,748.6801,333.5,744.6801,337.5,753.6801" style="stroke:#0000FF;stroke-width:1.0;"/><!--MD5=[ac66fed23f5c1a566fd7479b7377af53]
link step_parallel_undeploy_delete_server2 to step_parallel_undeploy_stop_nodejs2--><path d="M337.5,994.2929 C337.5,1012.1733 337.5,1030.6404 337.5,1048.6221 " fill="none" id="step_parallel_undeploy_delete_server2-to-step_parallel_undeploy_stop_nodejs2" style="stroke:#0000FF;stroke-width:1.0;"/><polygon fill="#0000FF" points="337.5,1053.6801,341.5,1044.6801,337.5,1048.6801,333.5,1044.6801,337.5,1053.6801" style="stroke:#0000FF;stroke-width:1.0;"/><!--MD5=[9609d6767d0a0f268833fc3af239c54c]
link step_parallel_undeploy_stop_server3 to step_parallel_undeploy_stop_server3_fork--><path d="M337.5,326.1621 C337.5,349.157 337.5,369.5541 337.5,380.8003 " fill="none" id="step_parallel_undeploy_stop_server3-to-step_parallel_undeploy_stop_server3_fork" style="stroke:#0000FF;stroke-width:1.0;"/><polygon fill="#0000FF" points="337.5,385.8126,341.5,376.8126,337.5,380.8126,333.5,376.8126,337.5,385.8126" style="stroke:#0000FF;stroke-width:1.0;"/><!--MD5=[a4c6ea9e047786c52b44f2cd51fa64b5]
link step_parallel_undeploy_stop_server3_fork to step_parallel_undeploy_delete_server3--><path d="M350.2761,394.0414 C372.93,401.8684 420.1345,421.2676 445.5,454 C511.4606,539.1177 541.7805,658.8238 555.7054,748.6736 " fill="none" id="step_parallel_undeploy_stop_server3_fork-to-step_parallel_undeploy_delete_server3" style="stroke:#0000FF;stroke-width:1.0;"/><polygon fill="#0000FF" points="556.4777,753.7371,559.0748,744.2368,555.7237,748.7943,551.1663,745.4432,556.4777,753.7371" style="stroke:#0000FF;stroke-width:1.0;"/><!--MD5=[1c7c540a39f1402d02244b3a15383246]
link step_parallel_undeploy_stop_server3_fork to step_parallel_undeploy_stop_server1--><path d="M328.8658,394.0848 C309.8632,403.2881 263.4151,426.965 229.5,454 C222.9872,459.1916 216.4878,464.7459 210.0823,470.5142 " fill="none" id="step_parallel_undeploy_stop_server3_fork-to-step_parallel_undeploy_stop_server1" style="stroke:#0000FF;stroke-width:1.0;"/><polygon fill="#0000FF" points="206.1068,474.1321,215.4553,471.0328,209.8047,470.7668,210.0708,465.1162,206.1068,474.1321" style="stroke:#0000FF;stroke-width:1.0;"/><!--MD5=[11948b2894b201fe333d12f112be781c]
link step_parallel_undeploy_stop_server3_fork to step_parallel_undeploy_stop_server2--><path d="M337.5,394.1888 C337.5,402.7786 337.5,423.6672 337.5,448.2952 " fill="none" id="step_parallel_undeploy_stop_server3_fork-to-step_parallel_undeploy_stop_server2" style="stroke:#0000FF;stroke-width:1.0;"/><polygon fill="#0000FF" points="337.5,453.6042,341.5,444.6042,337.5,448.6042,333.5,444.6042,337.5,453.6042" style="stroke:#0000FF;stroke-width:1.0;"/><!--MD5=[28280ca356aaff572ab82afd92afa13d]
link step_parallel_undeploy_delete_server3 to step_parallel_undeploy_stop_nodejs3--><path d="M567.901,994.2929 C567.9606,1012.1733 568.0221,1030.6404 568.0821,1048.6221 " fill="none" id="step_parallel_undeploy_delete_server3-to-step_parallel_undeploy_stop_nodejs3" style="stroke:#0000FF;stroke-width:1.0;"/><polygon fill="#0000FF" points="568.0989,1053.6801,572.0688,1044.6668,568.0822,1048.6801,564.0688,1044.6935,568.0989,1053.6801" style="stroke:#0000FF;stroke-width:1.0;"/><!--MD5=[a4ed093518762957b68fb30a2903659f]
link step_parallel_undeploy_stop_nodejs1 to step_parallel_undeploy_delete_nodejs1--><path d="M106.698,1294.2929 C106.5788,1312.1733 106.4557,1330.6404 106.3359,1348.6221 " fill="none" id="step_parallel_undeploy_stop_nodejs1-to-step_parallel_undeploy_delete_nodejs1" style="stroke:#0000FF;stroke-width:1.0;"/><polygon fill="#0000FF" points="106.3021,1353.6801,110.3622,1344.707,106.3355,1348.6802,102.3624,1344.6536,106.3021,1353.6801" style="stroke:#0000FF;stroke-width:1.0;"/><!--MD5=[61d1e37f101b779966abc763c259a312]
link step_parallel_undeploy_stop_nodejs2 to step_parallel_undeploy_delete_nodejs2--><path d="M337.5,1294.2929 C337.5,1312.1733 337.5,1330.6404 337.5,1348.6221 " fill="none" id="step_parallel_undeploy_stop_nodejs2-to-step_parallel_undeploy_delete_nodejs2" style="stroke:#0000FF;stroke-width:1.0;"/><polygon fill="#0000FF" points="337.5,1353.6801,341.5,1344.6801,337.5,1348.6801,333.5,1344.6801,337.5,1353.6801" style="stroke:#0000FF;stroke-width:1.0;"/><!--MD5=[240a0dc762236b59881a30defcf6900c]
link step_parallel_undeploy_stop_nodejs3 to step_parallel_undeploy_delete_nodejs3--><path d="M568.901,1294.2929 C568.9606,1312.1733 569.0221,1330.6404 569.0821,1348.6221 " fill="none" id="step_parallel_undeploy_stop_nodejs3-to-step_parallel_undeploy_delete_nodejs3" style="stroke:#0000FF;stroke-width:1.0;"/><polygon fill="#0000FF" points="569.0989,1353.6801,573.0688,1344.6668,569.0822,1348.6801,565.0688,1344.6935,569.0989,1353.6801" style="stroke:#0000FF;stroke-width:1.0;"/><!--MD5=[09e5ee4c364b2456466157e2dc6bb5f6]
link *start to step_parallel_undeploy_stop_server3--><path d="M337.5,26.2152 C337.5,37.7525 337.5,57.9094 337.5,80.6599 " fill="none" id="*start-to-step_parallel_undeploy_stop_server3" style="stroke:#0000FF;stroke-width:1.0;"/><polygon fill="#0000FF" points="337.5,85.8637,341.5,76.8637,337.5,80.8637,333.5,76.8637,337.5,85.8637" style="stroke:#0000FF;stroke-width:1.0;"/><!--MD5=[b5726277a51be5274253853891e80363]
link parallel_undeploy_join to *end--><path d="M337.5,1662.4074 C337.5,1672.8066 337.5,1699.2833 337.5,1716.4165 " fill="none" id="parallel_undeploy_join-to-*end" style="stroke:#0000FF;stroke-width:1.0;"/><polygon fill="#0000FF" points="337.5,1721.8319,341.5,1712.8319,337.5,1716.8319,333.5,1712.8319,337.5,1721.8319" style="stroke:#0000FF;stroke-width:1.0;"/><!--MD5=[6af65f670e3a8f4346b6b95054e33ee5]
link step_parallel_undeploy_delete_nodejs1 to parallel_undeploy_join--><path d="M204.0059,1579.7432 C209.7829,1584.7225 215.6324,1589.5092 221.5,1594 C255.122,1619.7327 300.3685,1641.5495 323.1383,1651.7771 " fill="none" id="step_parallel_undeploy_delete_nodejs1-to-parallel_undeploy_join" style="stroke:#0000FF;stroke-width:1.0;"/><polygon fill="#0000FF" points="327.9041,1653.8954,321.3046,1646.5847,323.3351,1651.8645,318.0552,1653.8951,327.9041,1653.8954" style="stroke:#0000FF;stroke-width:1.0;"/><!--MD5=[dc7df1b305b541724526eda80d80d524]
link step_parallel_undeploy_delete_nodejs2 to parallel_undeploy_join--><path d="M337.5,1594.1621 C337.5,1617.157 337.5,1637.5541 337.5,1648.8003 " fill="none" id="step_parallel_undeploy_delete_nodejs2-to-parallel_undeploy_join" style="stroke:#0000FF;stroke-width:1.0;"/><polygon fill="#0000FF" points="337.5,1653.8126,341.5,1644.8126,337.5,1648.8126,333.5,1644.8126,337.5,1653.8126" style="stroke:#0000FF;stroke-width:1.0;"/><!--MD5=[fa79a4bd7c52569c9edb41fd233494cc]
link step_parallel_undeploy_delete_nodejs3 to parallel_undeploy_join--><path d="M470.9941,1579.7432 C465.2171,1584.7225 459.3676,1589.5092 453.5,1594 C419.878,1619.7327 374.6315,1641.5495 351.8617,1651.7771 " fill="none" id="step_parallel_undeploy_delete_nodejs3-to-parallel_undeploy_join" style="stroke:#0000FF;stroke-width:1.0;"/><polygon fill="#0000FF" points="347.0959,1653.8954,356.9448,1653.8951,351.6649,1651.8645,353.6954,1646.5847,347.0959,1653.8954" style="stroke:#0000FF;stroke-width:1.0;"/><!--MD5=[6a59042e6f6d737fbef218e5ed089b0f]
@startuml
hide empty description
skinparam shadowing false
skinparam state {
  ArrowColor blue
  BorderColor blue
  EndColor black
  StartColor green
  BackGroundColor<< step >> white
  BorderColor<< step >> black
  BackGroundColor<< delegate >> lightgrey
  BackGroundColor<< set_state >> white
  BackGroundColor<< call_operation >> lightblue
  BackGroundColor<< inline >> white
}
skinparam ActivityBarColor<<fork>> DarkGreen
skinparam ActivityBarColor<<join>> DarkOrange

state "stop_server1" as step_parallel_undeploy_stop_server1 << step >> {
  state "server1 stopping" as step_parallel_undeploy_stop_server1_server1_stopping << set_state >>
  state "server1 Standard.stop" as step_parallel_undeploy_stop_server1_server1_Standard.stop << call_operation >>
  state "server1 stopped" as step_parallel_undeploy_stop_server1_server1_stopped << set_state >>
  step_parallel_undeploy_stop_server1_server1_stopping - -> step_parallel_undeploy_stop_server1_server1_Standard.stop
  step_parallel_undeploy_stop_server1_server1_Standard.stop - -> step_parallel_undeploy_stop_server1_server1_stopped
}
state "delete_server1" as step_parallel_undeploy_delete_server1 << step >> {
  state "server1 deleting" as step_parallel_undeploy_delete_server1_server1_deleting << set_state >>
  state "server1 Standard.delete" as step_parallel_undeploy_delete_server1_server1_Standard.delete << call_operation >>
  state "server1 initial" as step_parallel_undeploy_delete_server1_server1_initial << set_state >>
  step_parallel_undeploy_delete_server1_server1_deleting - -> step_parallel_undeploy_delete_server1_server1_Standard.delete
  step_parallel_undeploy_delete_server1_server1_Standard.delete - -> step_parallel_undeploy_delete_server1_server1_initial
}
state "stop_server2" as step_parallel_undeploy_stop_server2 << step >> {
  state "server2 stopping" as step_parallel_undeploy_stop_server2_server2_stopping << set_state >>
  state "server2 Standard.stop" as step_parallel_undeploy_stop_server2_server2_Standard.stop << call_operation >>
  state "server2 stopped" as step_parallel_undeploy_stop_server2_server2_stopped << set_state >>
  step_parallel_undeploy_stop_server2_server2_stopping - -> step_parallel_undeploy_stop_server2_server2_Standard.stop
  step_parallel_undeploy_stop_server2_server2_Standard.stop - -> step_parallel_undeploy_stop_server2_server2_stopped
}
state "delete_server2" as step_parallel_undeploy_delete_server2 << step >> {
  state "server2 deleting" as step_parallel_undeploy_delete_server2_server2_deleting << set_state >>
  state "server2 Standard.delete" as step_parallel_undeploy_delete_server2_server2_Standard.delete << call_operation >>
  state "server2 initial" as step_parallel_undeploy_delete_server2_server2_initial << set_state >>
  step_parallel_undeploy_delete_server2_server2_deleting - -> step_parallel_undeploy_delete_server2_server2_Standard.delete
  step_parallel_undeploy_delete_server2_server2_Standard.delete - -> step_parallel_undeploy_delete_server2_server2_initial
}
state "stop_server3" as step_parallel_undeploy_stop_server3 << step >> {
  state "server3 stopping" as step_parallel_undeploy_stop_server3_server3_stopping << set_state >>
  state "server3 Standard.stop" as step_parallel_undeploy_stop_server3_server3_Standard.stop << call_operation >>
  state "server3 stopped" as step_parallel_undeploy_stop_server3_server3_stopped << set_state >>
  step_parallel_undeploy_stop_server3_server3_stopping - -> step_parallel_undeploy_stop_server3_server3_Standard.stop
  step_parallel_undeploy_stop_server3_server3_Standard.stop - -> step_parallel_undeploy_stop_server3_server3_stopped
}
state "delete_server3" as step_parallel_undeploy_delete_server3 << step >> {
  state "server3 deleting" as step_parallel_undeploy_delete_server3_server3_deleting << set_state >>
  state "server3 Standard.delete" as step_parallel_undeploy_delete_server3_server3_Standard.delete << call_operation >>
  state "server3 initial" as step_parallel_undeploy_delete_server3_server3_initial << set_state >>
  step_parallel_undeploy_delete_server3_server3_deleting - -> step_parallel_undeploy_delete_server3_server3_Standard.delete
  step_parallel_undeploy_delete_server3_server3_Standard.delete - -> step_parallel_undeploy_delete_server3_server3_initial
}
state "stop_nodejs1" as step_parallel_undeploy_stop_nodejs1 << step >> {
  state "nodejs1 stopping" as step_parallel_undeploy_stop_nodejs1_nodejs1_stopping << set_state >>
  state "nodejs1 Standard.stop" as step_parallel_undeploy_stop_nodejs1_nodejs1_Standard.stop << call_operation >>
  state "nodejs1 stopped" as step_parallel_undeploy_stop_nodejs1_nodejs1_stopped << set_state >>
  step_parallel_undeploy_stop_nodejs1_nodejs1_stopping - -> step_parallel_undeploy_stop_nodejs1_nodejs1_Standard.stop
  step_parallel_undeploy_stop_nodejs1_nodejs1_Standard.stop - -> step_parallel_undeploy_stop_nodejs1_nodejs1_stopped
}
state "delete_nodejs1" as step_parallel_undeploy_delete_nodejs1 << step >> {
  state "nodejs1 deleting" as step_parallel_undeploy_delete_nodejs1_nodejs1_deleting << set_state >>
  state "nodejs1 Standard.delete" as step_parallel_undeploy_delete_nodejs1_nodejs1_Standard.delete << call_operation >>
  state "nodejs1 initial" as step_parallel_undeploy_delete_nodejs1_nodejs1_initial << set_state >>
  step_parallel_undeploy_delete_nodejs1_nodejs1_deleting - -> step_parallel_undeploy_delete_nodejs1_nodejs1_Standard.delete
  step_parallel_undeploy_delete_nodejs1_nodejs1_Standard.delete - -> step_parallel_undeploy_delete_nodejs1_nodejs1_initial
}
state "stop_nodejs2" as step_parallel_undeploy_stop_nodejs2 << step >> {
  state "nodejs2 stopping" as step_parallel_undeploy_stop_nodejs2_nodejs2_stopping << set_state >>
  state "nodejs2 Standard.stop" as step_parallel_undeploy_stop_nodejs2_nodejs2_Standard.stop << call_operation >>
  state "nodejs2 stopped" as step_parallel_undeploy_stop_nodejs2_nodejs2_stopped << set_state >>
  step_parallel_undeploy_stop_nodejs2_nodejs2_stopping - -> step_parallel_undeploy_stop_nodejs2_nodejs2_Standard.stop
  step_parallel_undeploy_stop_nodejs2_nodejs2_Standard.stop - -> step_parallel_undeploy_stop_nodejs2_nodejs2_stopped
}
state "delete_nodejs2" as step_parallel_undeploy_delete_nodejs2 << step >> {
  state "nodejs2 deleting" as step_parallel_undeploy_delete_nodejs2_nodejs2_deleting << set_state >>
  state "nodejs2 Standard.delete" as step_parallel_undeploy_delete_nodejs2_nodejs2_Standard.delete << call_operation >>
  state "nodejs2 initial" as step_parallel_undeploy_delete_nodejs2_nodejs2_initial << set_state >>
  step_parallel_undeploy_delete_nodejs2_nodejs2_deleting - -> step_parallel_undeploy_delete_nodejs2_nodejs2_Standard.delete
  step_parallel_undeploy_delete_nodejs2_nodejs2_Standard.delete - -> step_parallel_undeploy_delete_nodejs2_nodejs2_initial
}
state "stop_nodejs3" as step_parallel_undeploy_stop_nodejs3 << step >> {
  state "nodejs3 stopping" as step_parallel_undeploy_stop_nodejs3_nodejs3_stopping << set_state >>
  state "nodejs3 Standard.stop" as step_parallel_undeploy_stop_nodejs3_nodejs3_Standard.stop << call_operation >>
  state "nodejs3 stopped" as step_parallel_undeploy_stop_nodejs3_nodejs3_stopped << set_state >>
  step_parallel_undeploy_stop_nodejs3_nodejs3_stopping - -> step_parallel_undeploy_stop_nodejs3_nodejs3_Standard.stop
  step_parallel_undeploy_stop_nodejs3_nodejs3_Standard.stop - -> step_parallel_undeploy_stop_nodejs3_nodejs3_stopped
}
state "delete_nodejs3" as step_parallel_undeploy_delete_nodejs3 << step >> {
  state "nodejs3 deleting" as step_parallel_undeploy_delete_nodejs3_nodejs3_deleting << set_state >>
  state "nodejs3 Standard.delete" as step_parallel_undeploy_delete_nodejs3_nodejs3_Standard.delete << call_operation >>
  state "nodejs3 initial" as step_parallel_undeploy_delete_nodejs3_nodejs3_initial << set_state >>
  step_parallel_undeploy_delete_nodejs3_nodejs3_deleting - -> step_parallel_undeploy_delete_nodejs3_nodejs3_Standard.delete
  step_parallel_undeploy_delete_nodejs3_nodejs3_Standard.delete - -> step_parallel_undeploy_delete_nodejs3_nodejs3_initial
}
step_parallel_undeploy_stop_server1 - -> step_parallel_undeploy_delete_server1
step_parallel_undeploy_delete_server1 - -> step_parallel_undeploy_stop_nodejs1
step_parallel_undeploy_stop_server2 - -> step_parallel_undeploy_delete_server2
step_parallel_undeploy_delete_server2 - -> step_parallel_undeploy_stop_nodejs2
state step_parallel_undeploy_stop_server3_fork <<fork>>
step_parallel_undeploy_stop_server3 - -> step_parallel_undeploy_stop_server3_fork
step_parallel_undeploy_stop_server3_fork - -> step_parallel_undeploy_delete_server3
step_parallel_undeploy_stop_server3_fork - -> step_parallel_undeploy_stop_server1
step_parallel_undeploy_stop_server3_fork - -> step_parallel_undeploy_stop_server2
step_parallel_undeploy_delete_server3 - -> step_parallel_undeploy_stop_nodejs3
step_parallel_undeploy_stop_nodejs1 - -> step_parallel_undeploy_delete_nodejs1
step_parallel_undeploy_stop_nodejs2 - -> step_parallel_undeploy_delete_nodejs2
step_parallel_undeploy_stop_nodejs3 - -> step_parallel_undeploy_delete_nodejs3
[*] - -> step_parallel_undeploy_stop_server3
state parallel_undeploy_join <<join>>
parallel_undeploy_join - -> [*]
step_parallel_undeploy_delete_nodejs1 - -> parallel_undeploy_join
step_parallel_undeploy_delete_nodejs2 - -> parallel_undeploy_join
step_parallel_undeploy_delete_nodejs3 - -> parallel_undeploy_join
@enduml

PlantUML version 1.2021.13(Mon Nov 01 12:38:45 CET 2021)
(GPL source distribution)
Java Runtime: Java(TM) SE Runtime Environment
JVM: Java HotSpot(TM) 64-Bit Server VM
Default Encoding: UTF-8
Language: fr
Country: FR
--></g></svg>