<?xml version="1.0" encoding="UTF-8" standalone="no"?><svg xmlns="http://www.w3.org/2000/svg" xmlns:xlink="http://www.w3.org/1999/xlink" contentScriptType="application/ecmascript" contentStyleType="text/css" height="612px" preserveAspectRatio="none" style="width:531px;height:612px;background:#FFFFFF;" version="1.1" viewBox="0 0 531 612" width="531px" zoomAndPan="magnify"><defs><filter height="300%" id="feui4fgs91ucg" width="300%" x="-1" y="-1"><feGaussianBlur result="blurOut" stdDeviation="2.0"/><feColorMatrix in="blurOut" result="blurOut2" type="matrix" values="0 0 0 0 0 0 0 0 0 0 0 0 0 0 0 0 0 0 .4 0"/><feOffset dx="4.0" dy="4.0" in="blurOut2" result="blurOut3"/><feBlend in="SourceGraphic" in2="blurOut3" mode="normal"/></filter></defs><g><!--MD5=[d33402d2d0888ea39f952cba72c08d41]
cluster node_maven--><polygon fill="#FFFFFF" filter="url(#feui4fgs91ucg)" points="16,187,26,177,514,177,514,329,504,339,16,339,16,187" style="stroke:#000000;stroke-width:1.5;"/><line style="stroke:#000000;stroke-width:1.5;" x1="504" x2="514" y1="187" y2="177"/><line style="stroke:#000000;stroke-width:1.5;" x1="16" x2="504" y1="187" y2="187"/><line style="stroke:#000000;stroke-width:1.5;" x1="504" x2="504" y1="187" y2="339"/><text fill="#000000" font-family="sans-serif" font-size="14" font-weight="bold" lengthAdjust="spacing" textLength="125" x="198.5" y="203.5352">maven: Container</text><!--MD5=[70c81ac292c47ee33e0f89be024aa9d4]
cluster node_api--><rect fill="#FFFFFF" filter="url(#feui4fgs91ucg)" height="122" style="stroke:#000000;stroke-width:1.5;" width="281" x="225" y="209"/><rect fill="#FFFFFF" height="10" style="stroke:#000000;stroke-width:1.5;" width="15" x="486" y="214"/><rect fill="#FFFFFF" height="2" style="stroke:#000000;stroke-width:1.5;" width="4" x="484" y="216"/><rect fill="#FFFFFF" height="2" style="stroke:#000000;stroke-width:1.5;" width="4" x="484" y="220"/><text fill="#000000" font-family="sans-serif" font-size="14" font-weight="bold" lengthAdjust="spacing" textLength="117" x="307" y="235.5352">api: APISoftware</text><!--MD5=[71ea430214c696ddfb3bb2c55e18475c]
cluster node_api_artifact_default_data--><rect fill="#FFFFFF" filter="url(#feui4fgs91ucg)" height="87" style="stroke:#000000;stroke-width:1.5;" width="238" x="260" y="236"/><polygon fill="#FFFFFF" points="481,241,481,255,493,255,493,247,487,241,481,241" style="stroke:#000000;stroke-width:1.5;"/><line style="stroke:#000000;stroke-width:1.5;" x1="487" x2="487" y1="241" y2="247"/><line style="stroke:#000000;stroke-width:1.5;" x1="493" x2="487" y1="247" y2="247"/><text fill="#000000" font-family="sans-serif" font-size="14" font-style="italic" lengthAdjust="spacing" textLength="62" x="348" y="251.5352">«artifact»</text><text fill="#000000" font-family="sans-serif" font-size="14" font-weight="bold" lengthAdjust="spacing" textLength="151" x="303.5" y="268.0234">default_data: Artifact</text><!--MD5=[79355a7f159ad64bb85d5015b7a275d2]
cluster node_maven_artifact_my_image--><rect fill="#FFFFFF" filter="url(#feui4fgs91ucg)" height="87" style="stroke:#000000;stroke-width:1.5;" width="182" x="24" y="236"/><polygon fill="#FFFFFF" points="189,241,189,255,201,255,201,247,195,241,189,241" style="stroke:#000000;stroke-width:1.5;"/><line style="stroke:#000000;stroke-width:1.5;" x1="195" x2="195" y1="241" y2="247"/><line style="stroke:#000000;stroke-width:1.5;" x1="201" x2="195" y1="247" y2="247"/><text fill="#000000" font-family="sans-serif" font-size="14" font-style="italic" lengthAdjust="spacing" textLength="62" x="84" y="251.5352">«artifact»</text><text fill="#000000" font-family="sans-serif" font-size="14" font-weight="bold" lengthAdjust="spacing" textLength="125" x="52.5" y="268.0234">my_image: Image</text><!--MD5=[3384799e12d9ba1c0c3b9764d4777eb8]
cluster node_node--><polygon fill="#FFFFFF" filter="url(#feui4fgs91ucg)" points="160,16,170,6,455,6,455,123,445,133,160,133,160,16" style="stroke:#000000;stroke-width:1.5;"/><line style="stroke:#000000;stroke-width:1.5;" x1="445" x2="455" y1="16" y2="6"/><line style="stroke:#000000;stroke-width:1.5;" x1="160" x2="445" y1="16" y2="16"/><line style="stroke:#000000;stroke-width:1.5;" x1="445" x2="445" y1="16" y2="133"/><text fill="#000000" font-family="sans-serif" font-size="14" font-weight="bold" lengthAdjust="spacing" textLength="113" x="247" y="32.5352">node: Container</text><!--MD5=[f7a6282ade53962be5f50ad48a786bf2]
cluster node_node_artifact_my_image--><rect fill="#FFFFFF" filter="url(#feui4fgs91ucg)" height="87" style="stroke:#000000;stroke-width:1.5;" width="141" x="306" y="38"/><polygon fill="#FFFFFF" points="430,43,430,57,442,57,442,49,436,43,430,43" style="stroke:#000000;stroke-width:1.5;"/><line style="stroke:#000000;stroke-width:1.5;" x1="436" x2="436" y1="43" y2="49"/><line style="stroke:#000000;stroke-width:1.5;" x1="442" x2="436" y1="49" y2="49"/><text fill="#000000" font-family="sans-serif" font-size="14" font-style="italic" lengthAdjust="spacing" textLength="62" x="345.5" y="53.5352">«artifact»</text><text fill="#000000" font-family="sans-serif" font-size="14" font-weight="bold" lengthAdjust="spacing" textLength="125" x="314" y="70.0234">my_image: Image</text><!--MD5=[c96eb8e6e2ec5c4b3679709165b1ab86]
cluster node_mongodb--><polygon fill="#FFFFFF" filter="url(#feui4fgs91ucg)" points="206,382,216,372,428,372,428,489,418,499,206,499,206,382" style="stroke:#000000;stroke-width:1.5;"/><line style="stroke:#000000;stroke-width:1.5;" x1="418" x2="428" y1="382" y2="372"/><line style="stroke:#000000;stroke-width:1.5;" x1="206" x2="418" y1="382" y2="382"/><line style="stroke:#000000;stroke-width:1.5;" x1="418" x2="418" y1="382" y2="499"/><text fill="#000000" font-family="sans-serif" font-size="14" font-weight="bold" lengthAdjust="spacing" textLength="146" x="240" y="398.5352">mongodb: Container</text><!--MD5=[55391846357943289782bd018dd879b1]
cluster node_mongodb_artifact_my_image--><rect fill="#FFFFFF" filter="url(#feui4fgs91ucg)" height="87" style="stroke:#000000;stroke-width:1.5;" width="147" x="266" y="404"/><polygon fill="#FFFFFF" points="396,409,396,423,408,423,408,415,402,409,396,409" style="stroke:#000000;stroke-width:1.5;"/><line style="stroke:#000000;stroke-width:1.5;" x1="402" x2="402" y1="409" y2="415"/><line style="stroke:#000000;stroke-width:1.5;" x1="408" x2="402" y1="415" y2="415"/><text fill="#000000" font-family="sans-serif" font-size="14" font-style="italic" lengthAdjust="spacing" textLength="62" x="308.5" y="419.5352">«artifact»</text><text fill="#000000" font-family="sans-serif" font-size="14" font-weight="bold" lengthAdjust="spacing" textLength="131" x="274" y="436.0234">my_image: Service</text><!--MD5=[43c53ce069b1ba0963e7ba72f93bac38]
entity node_api_artifact_default_data_label--><text fill="#000000" font-family="sans-serif" font-size="14" lengthAdjust="spacing" textLength="201" x="278.5" y="302.5352">file: artifacts/default_data.csv</text><!--MD5=[491863047eff61dc75bad19d6c5e7c0d]
entity node_maven_artifact_my_image_label--><text fill="#000000" font-family="sans-serif" font-size="14" lengthAdjust="spacing" textLength="146" x="42" y="302.5352">file: maven:3.3-jdk-8</text><!--MD5=[09bd47f02265ab3bb624ff1361588ffb]
entity node_gui--><rect fill="#FEFECE" filter="url(#feui4fgs91ucg)" height="46.4883" style="stroke:#A80036;stroke-width:1.5;" width="130" x="168" y="76"/><rect fill="#FEFECE" height="10" style="stroke:#A80036;stroke-width:1.5;" width="15" x="278" y="81"/><rect fill="#FEFECE" height="2" style="stroke:#A80036;stroke-width:1.5;" width="4" x="276" y="83"/><rect fill="#FEFECE" height="2" style="stroke:#A80036;stroke-width:1.5;" width="4" x="276" y="87"/><text fill="#000000" font-family="sans-serif" font-size="14" lengthAdjust="spacing" textLength="90" x="183" y="109.5352">gui: Software</text><!--MD5=[a9f6a01b5970c3c88f6a13266e648c84]
entity node_node_artifact_my_image_label--><text fill="#000000" font-family="sans-serif" font-size="14" lengthAdjust="spacing" textLength="77" x="347.5" y="104.5352">file: node:6</text><!--MD5=[4c6dab834803fa9be1822a60bb1d7e8e]
entity node_mongodb_artifact_my_image_label--><text fill="#000000" font-family="sans-serif" font-size="14" lengthAdjust="spacing" textLength="104" x="288" y="470.5352">file: mongo:3.4</text><!--MD5=[48213094396b7fa7e57c870b744b0f14]
entity node_dbvolume--><path d="M159,570 C159,560 233,560 233,560 C233,560 307,560 307,570 L307,595.4883 C307,605.4883 233,605.4883 233,605.4883 C233,605.4883 159,605.4883 159,595.4883 L159,570 " fill="#FEFECE" filter="url(#feui4fgs91ucg)" style="stroke:#000000;stroke-width:1.5;"/><path d="M159,570 C159,580 233,580 233,580 C233,580 307,580 307,570 " fill="none" style="stroke:#000000;stroke-width:1.5;"/><text fill="#000000" font-family="sans-serif" font-size="14" lengthAdjust="spacing" textLength="128" x="169" y="597.5352">dbvolume: Volume</text><!--MD5=[d540f4518f540eba253709c515814f24]
link node_api to node_mongodb--><path d="M233,331.5098 C233,331.7643 233,332.0196 233,332.2759 C233,334.3261 233,336.4354 233,338.5955 C233,342.9157 233,347.4387 233,352.0967 C233,356.7547 233,361.5478 233,366.4081 C233,367.6232 233,368.8425 233,370.0649 C233,370.6761 233,371.2881 233,371.9008 " fill="none" id="node_api-to-node_mongodb" style="stroke:#A80036;stroke-width:1.0;stroke-dasharray:7.0,7.0;"/><polygon fill="#A80036" points="233,371.9008,237,362.9008,233,366.9008,229,362.9008,233,371.9008" style="stroke:#A80036;stroke-width:1.0;"/><text fill="#000000" font-family="sans-serif" font-size="13" lengthAdjust="spacing" textLength="89" x="234" y="360.5684">«ConnectsTo»</text><!--MD5=[18b52e7b085de60621302b303e266e54]
link node_gui to node_api--><path codeLine="27" d="M233,122.1006 C233,134.5461 233,150.991 233,168.8226 C233,177.7385 233,187.001 233,196.2836 C233,198.6043 233,200.9262 233,203.2443 C233,204.4033 233,205.5614 233,206.7179 C233,207.2961 233,207.874 233,208.4513 " fill="none" id="node_gui-to-node_api" style="stroke:#A80036;stroke-width:1.0;stroke-dasharray:7.0,7.0;"/><polygon fill="#A80036" points="233,208.4513,237,199.4513,233,203.4513,229,199.4513,233,208.4513" style="stroke:#A80036;stroke-width:1.0;"/><text fill="#000000" font-family="sans-serif" font-size="13" lengthAdjust="spacing" textLength="87" x="234" y="165.5684">«DependsOn»</text><!--MD5=[2c34875409e5eba70099b7438e8fca8b]
link node_mongodb to node_dbvolume--><path codeLine="28" d="M233,499.0488 C233,499.5857 233,500.126 233,500.6694 C233,518.0584 233,538.655 233,554.8343 " fill="none" id="node_mongodb-to-node_dbvolume" style="stroke:#A80036;stroke-width:1.0;stroke-dasharray:7.0,7.0;"/><polygon fill="#A80036" points="233,559.8666,237,550.8666,233,554.8666,229,550.8666,233,559.8666" style="stroke:#A80036;stroke-width:1.0;"/><text fill="#000000" font-family="sans-serif" font-size="13" lengthAdjust="spacing" textLength="85" x="234" y="526.5684">«AttachesTo»</text><!--MD5=[c2190c6ec77417467d71ff775b397dc7]
@startuml
skinparam componentStyle uml2
allowmixing

node "maven: Container" as node_maven {
component "api: APISoftware" as node_api {
artifact "default_data: Artifact" <<artifact>> as node_api_artifact_default_data {
label "file: artifacts/default_data.csv" as node_api_artifact_default_data_label
}
}
artifact "my_image: Image" <<artifact>> as node_maven_artifact_my_image {
label "file: maven:3.3-jdk-8" as node_maven_artifact_my_image_label
}
}
node "node: Container" as node_node {
component "gui: Software" as node_gui
artifact "my_image: Image" <<artifact>> as node_node_artifact_my_image {
label "file: node:6" as node_node_artifact_my_image_label
}
}
node "mongodb: Container" as node_mongodb {
artifact "my_image: Service" <<artifact>> as node_mongodb_artifact_my_image {
label "file: mongo:3.4" as node_mongodb_artifact_my_image_label
}
}
database "dbvolume: Volume" as node_dbvolume
node_api ..> node_mongodb : <<ConnectsTo>>
node_gui ..> node_api : <<DependsOn>>
node_mongodb ..> node_dbvolume : <<AttachesTo>>
@enduml

PlantUML version 1.2021.13(Mon Nov 01 12:38:45 CET 2021)
(GPL source distribution)
Java Runtime: Java(TM) SE Runtime Environment
JVM: Java HotSpot(TM) 64-Bit Server VM
Default Encoding: UTF-8
Language: fr
Country: FR
--></g></svg>