<?xml version="1.0" encoding="UTF-8" standalone="no"?><svg xmlns="http://www.w3.org/2000/svg" xmlns:xlink="http://www.w3.org/1999/xlink" contentScriptType="application/ecmascript" contentStyleType="text/css" height="335px" preserveAspectRatio="none" style="width:345px;height:335px;background:#FFFFFF;" version="1.1" viewBox="0 0 345 335" width="345px" zoomAndPan="magnify"><defs><filter height="300%" id="f1lizu27ehth2f" width="300%" x="-1" y="-1"><feGaussianBlur result="blurOut" stdDeviation="2.0"/><feColorMatrix in="blurOut" result="blurOut2" type="matrix" values="0 0 0 0 0 0 0 0 0 0 0 0 0 0 0 0 0 0 .4 0"/><feOffset dx="4.0" dy="4.0" in="blurOut2" result="blurOut3"/><feBlend in="SourceGraphic" in2="blurOut3" mode="normal"/></filter></defs><g><!--MD5=[9c58e51676e75b1133dd58a2a1b0a3e9]
class tosca_interfaces_Root_IT--><rect codeLine="2" fill="#DDDDDD" filter="url(#f1lizu27ehth2f)" height="48" id="tosca_interfaces_Root_IT" style="stroke:#A80036;stroke-width:1.5;" width="152" x="7" y="7"/><ellipse cx="22" cy="23" fill="#008000" rx="11" ry="11" style="stroke:#A80036;stroke-width:1.0;"/><path d="M17.9277,18.7651 L17.9277,16.6069 L25.3071,16.6069 L25.3071,18.7651 L22.8418,18.7651 L22.8418,26.8418 L25.3071,26.8418 L25.3071,29 L17.9277,29 L17.9277,26.8418 L20.3931,26.8418 L20.3931,18.7651 Z " fill="#000000"/><text fill="#000000" font-family="sans-serif" font-size="12" lengthAdjust="spacing" textLength="120" x="36" y="27.5352">tosca.interfaces.Root</text><line style="stroke:#A80036;stroke-width:1.5;" x1="8" x2="158" y1="39" y2="39"/><line style="stroke:#A80036;stroke-width:1.5;" x1="8" x2="158" y1="47" y2="47"/><!--MD5=[7748fd4aa4d79e8a2c46bf5e3192df5e]
class api_interface_IT--><rect codeLine="3" fill="#FEFECE" filter="url(#f1lizu27ehth2f)" height="60.9551" id="api_interface_IT" style="stroke:#A80036;stroke-width:1.5;" width="106" x="30" y="116"/><ellipse cx="45" cy="132" fill="#008000" rx="11" ry="11" style="stroke:#A80036;stroke-width:1.0;"/><path d="M40.9277,127.7651 L40.9277,125.6069 L48.3071,125.6069 L48.3071,127.7651 L45.8418,127.7651 L45.8418,135.8418 L48.3071,135.8418 L48.3071,138 L40.9277,138 L40.9277,135.8418 L43.3931,135.8418 L43.3931,127.7651 Z " fill="#000000"/><text fill="#000000" font-family="sans-serif" font-size="12" lengthAdjust="spacing" textLength="74" x="59" y="136.5352">api_interface</text><line style="stroke:#A80036;stroke-width:1.5;" x1="31" x2="135" y1="148" y2="148"/><line style="stroke:#A80036;stroke-width:1.5;" x1="31" x2="135" y1="156" y2="156"/><ellipse cx="41" cy="167" fill="#84BE84" rx="3" ry="3" style="stroke:#038048;stroke-width:1.0;"/><text fill="#000000" font-family="sans-serif" font-size="11" lengthAdjust="spacing" textLength="78" x="50" y="170.6348">push_default()</text><!--MD5=[22872057fcc915de863156db51af3bdc]
class tosker_nodes_Software_NT--><rect codeLine="6" fill="#DDDDDD" filter="url(#f1lizu27ehth2f)" height="48" id="tosker_nodes_Software_NT" style="stroke:#A80036;stroke-width:1.5;" width="160" x="171" y="122.5"/><ellipse cx="186" cy="138.5" fill="#008000" rx="11" ry="11" style="stroke:#A80036;stroke-width:1.0;"/><path d="M181.9878,132.1069 L184.6191,132.1069 L188.0723,141.1133 L188.0723,132.1069 L190.2305,132.1069 L190.2305,144.5 L187.6157,144.5 L184.146,135.4937 L184.146,144.5 L181.9878,144.5 Z " fill="#000000"/><text fill="#000000" font-family="sans-serif" font-size="12" lengthAdjust="spacing" textLength="128" x="200" y="143.0352">tosker.nodes.Software</text><line style="stroke:#A80036;stroke-width:1.5;" x1="172" x2="330" y1="154.5" y2="154.5"/><line style="stroke:#A80036;stroke-width:1.5;" x1="172" x2="330" y1="162.5" y2="162.5"/><!--MD5=[c7b2f9957ae6cf93ff30207cef884bae]
class APISoftware_NT--><rect codeLine="7" fill="#FEFECE" filter="url(#f1lizu27ehth2f)" height="67.4326" id="APISoftware_NT" style="stroke:#A80036;stroke-width:1.5;" width="127" x="118.5" y="254"/><ellipse cx="146.1" cy="270" fill="#008000" rx="11" ry="11" style="stroke:#A80036;stroke-width:1.0;"/><path d="M142.0878,263.6069 L144.7191,263.6069 L148.1723,272.6133 L148.1723,263.6069 L150.3305,263.6069 L150.3305,276 L147.7157,276 L144.246,266.9937 L144.246,276 L142.0878,276 Z " fill="#000000"/><text fill="#000000" font-family="sans-serif" font-size="12" lengthAdjust="spacing" textLength="67" x="162.9" y="274.5352">APISoftware</text><line style="stroke:#A80036;stroke-width:1.5;" x1="119.5" x2="244.5" y1="286" y2="286"/><line style="stroke:#A80036;stroke-width:1.0;" x1="119.5" x2="244.5" y1="294" y2="294"/><line style="stroke:#A80036;stroke-width:1.0;stroke-dasharray:1.0,2.0;" x1="119.5" x2="122.5" y1="308.4775" y2="308.4775"/><text fill="#000000" font-family="sans-serif" font-size="11" lengthAdjust="spacing" textLength="119" x="122.5" y="312.1348">interface api_interface</text><line style="stroke:#A80036;stroke-width:1.0;stroke-dasharray:1.0,2.0;" x1="241.5" x2="244.5" y1="308.4775" y2="308.4775"/><!--MD5=[dad4463641774f4ec5210923653682b1]
reverse link tosca_interfaces_Root_IT to api_interface_IT--><path codeLine="11" d="M83,75.6341 C83,89.032 83,103.4243 83,115.7152 " fill="none" id="tosca_interfaces_Root_IT-backto-api_interface_IT" style="stroke:#A80036;stroke-width:1.0;"/><polygon fill="none" points="76.0001,75.2126,83,55.2126,90.0001,75.2126,76.0001,75.2126" style="stroke:#A80036;stroke-width:1.0;"/><!--MD5=[7e7ae739803a7d7c4d5007ccd432559d]
reverse link tosker_nodes_Software_NT to APISoftware_NT--><path codeLine="12" d="M230.2871,188.8264 C220.1102,209.6227 208.0176,234.3337 198.4796,253.8243 " fill="none" id="tosker_nodes_Software_NT-backto-APISoftware_NT" style="stroke:#A80036;stroke-width:1.0;"/><polygon fill="none" points="224.0598,185.6262,239.1385,170.7388,236.6349,191.78,224.0598,185.6262" style="stroke:#A80036;stroke-width:1.0;"/><!--MD5=[9b1cf4433cd33bec4d2c5b6e6009cde4]
reverse link api_interface_IT to APISoftware_NT--><path codeLine="13" d="M105.3921,194.8952 C110.6895,204.8169 116.6597,214.9779 123,224 C130.1816,234.2191 138.9083,244.4868 147.4233,253.6972 " fill="none" id="api_interface_IT-backto-APISoftware_NT" style="stroke:#A80036;stroke-width:1.0;stroke-dasharray:7.0,7.0;"/><polygon fill="none" points="99.1421,198.0476,96.3834,177.0383,111.6416,191.7417,99.1421,198.0476" style="stroke:#A80036;stroke-width:1.0;"/><text fill="#000000" font-family="sans-serif" font-size="13" lengthAdjust="spacing" textLength="81" x="124" y="220.5684">api_interface</text><!--MD5=[d4af9acca242c1b3558faff888bae63a]
@startuml
set namespaceSeparator none
class "tosca.interfaces.Root" as tosca_interfaces_Root_IT << (I,green) >> #DDDDDD
class "api_interface" as api_interface_IT << (I,green) >> {
+push_default()
}
class "tosker.nodes.Software" as tosker_nodes_Software_NT << (N,green) >> #DDDDDD
class "APISoftware" as APISoftware_NT << (N,green) >> {
- -
.. interface api_interface ..
}
tosca_interfaces_Root_IT <|- - api_interface_IT
tosker_nodes_Software_NT <|- - APISoftware_NT
api_interface_IT <|.. APISoftware_NT : api_interface
@enduml

PlantUML version 1.2021.13(Mon Nov 01 12:38:45 CET 2021)
(GPL source distribution)
Java Runtime: Java(TM) SE Runtime Environment
JVM: Java HotSpot(TM) 64-Bit Server VM
Default Encoding: UTF-8
Language: fr
Country: FR
--></g></svg>