<?xml version="1.0" encoding="UTF-8" standalone="no"?><svg xmlns="http://www.w3.org/2000/svg" xmlns:xlink="http://www.w3.org/1999/xlink" contentScriptType="application/ecmascript" contentStyleType="text/css" height="412px" preserveAspectRatio="none" style="width:358px;height:412px;background:#FFFFFF;" version="1.1" viewBox="0 0 358 412" width="358px" zoomAndPan="magnify"><defs><filter height="300%" id="f1bwydcpbxyeyq" width="300%" x="-1" y="-1"><feGaussianBlur result="blurOut" stdDeviation="2.0"/><feColorMatrix in="blurOut" result="blurOut2" type="matrix" values="0 0 0 0 0 0 0 0 0 0 0 0 0 0 0 0 0 0 .4 0"/><feOffset dx="4.0" dy="4.0" in="blurOut2" result="blurOut3"/><feBlend in="SourceGraphic" in2="blurOut3" mode="normal"/></filter></defs><g><!--MD5=[8c54a8a49a7e4da92fd08897cc67ac85]
cluster node_wp_container--><polygon fill="#FFFFFF" filter="url(#f1bwydcpbxyeyq)" points="52.5,16,62.5,6,301.5,6,301.5,123,291.5,133,52.5,133,52.5,16" style="stroke:#000000;stroke-width:1.5;"/><line style="stroke:#000000;stroke-width:1.5;" x1="291.5" x2="301.5" y1="16" y2="6"/><line style="stroke:#000000;stroke-width:1.5;" x1="52.5" x2="291.5" y1="16" y2="16"/><line style="stroke:#000000;stroke-width:1.5;" x1="291.5" x2="291.5" y1="16" y2="133"/><text fill="#000000" font-family="sans-serif" font-size="14" font-weight="bold" lengthAdjust="spacing" textLength="173" x="86.5" y="32.5352">wp_container: Container</text><!--MD5=[efb8e49ef29652a843df186f3b3899d2]
cluster node_wp_container_artifact_my_image--><rect fill="#FFFFFF" filter="url(#f1bwydcpbxyeyq)" height="87" style="stroke:#000000;stroke-width:1.5;" width="147" x="133.5" y="38"/><polygon fill="#FFFFFF" points="263.5,43,263.5,57,275.5,57,275.5,49,269.5,43,263.5,43" style="stroke:#000000;stroke-width:1.5;"/><line style="stroke:#000000;stroke-width:1.5;" x1="269.5" x2="269.5" y1="43" y2="49"/><line style="stroke:#000000;stroke-width:1.5;" x1="275.5" x2="269.5" y1="49" y2="49"/><text fill="#000000" font-family="sans-serif" font-size="14" font-style="italic" lengthAdjust="spacing" textLength="62" x="176" y="53.5352">«artifact»</text><text fill="#000000" font-family="sans-serif" font-size="14" font-weight="bold" lengthAdjust="spacing" textLength="131" x="141.5" y="70.0234">my_image: Service</text><!--MD5=[09d44a14d580b355706211a93fdf210d]
cluster node_mysql_container--><polygon fill="#FFFFFF" filter="url(#f1bwydcpbxyeyq)" points="69.5,182,79.5,172,341.5,172,341.5,289,331.5,299,69.5,299,69.5,182" style="stroke:#000000;stroke-width:1.5;"/><line style="stroke:#000000;stroke-width:1.5;" x1="331.5" x2="341.5" y1="182" y2="172"/><line style="stroke:#000000;stroke-width:1.5;" x1="69.5" x2="331.5" y1="182" y2="182"/><line style="stroke:#000000;stroke-width:1.5;" x1="331.5" x2="331.5" y1="182" y2="299"/><text fill="#000000" font-family="sans-serif" font-size="14" font-weight="bold" lengthAdjust="spacing" textLength="196" x="103.5" y="198.5352">mysql_container: Container</text><!--MD5=[c29845a89e0ada095dde9b39a0f88a15]
cluster node_mysql_container_artifact_my_image--><rect fill="#FFFFFF" filter="url(#f1bwydcpbxyeyq)" height="87" style="stroke:#000000;stroke-width:1.5;" width="147" x="117.5" y="204"/><polygon fill="#FFFFFF" points="247.5,209,247.5,223,259.5,223,259.5,215,253.5,209,247.5,209" style="stroke:#000000;stroke-width:1.5;"/><line style="stroke:#000000;stroke-width:1.5;" x1="253.5" x2="253.5" y1="209" y2="215"/><line style="stroke:#000000;stroke-width:1.5;" x1="259.5" x2="253.5" y1="215" y2="215"/><text fill="#000000" font-family="sans-serif" font-size="14" font-style="italic" lengthAdjust="spacing" textLength="62" x="160" y="219.5352">«artifact»</text><text fill="#000000" font-family="sans-serif" font-size="14" font-weight="bold" lengthAdjust="spacing" textLength="131" x="125.5" y="236.0234">my_image: Service</text><!--MD5=[81091a6b76516b4455309040c35303b1]
entity node_wp_container_artifact_my_image_label--><text fill="#000000" font-family="sans-serif" font-size="14" lengthAdjust="spacing" textLength="101" x="157" y="104.5352">file: wordpress</text><!--MD5=[374278895a4fca4469405908cbf355cc]
entity node_mysql_container_artifact_my_image_label--><text fill="#000000" font-family="sans-serif" font-size="14" lengthAdjust="spacing" textLength="69" x="151" y="270.5352">file: mysql</text><!--MD5=[14b66136619b78d40cf23df1e9e97b0b]
entity node_mysql_volume--><path d="M6,370 C6,360 94.5,360 94.5,360 C94.5,360 183,360 183,370 L183,395.4883 C183,405.4883 94.5,405.4883 94.5,405.4883 C94.5,405.4883 6,405.4883 6,395.4883 L6,370 " fill="#FEFECE" filter="url(#f1bwydcpbxyeyq)" style="stroke:#000000;stroke-width:1.5;"/><path d="M6,370 C6,380 94.5,380 94.5,380 C94.5,380 183,380 183,370 " fill="none" style="stroke:#000000;stroke-width:1.5;"/><text fill="#000000" font-family="sans-serif" font-size="14" lengthAdjust="spacing" textLength="157" x="16" y="397.5352">mysql_volume: Volume</text><!--MD5=[a0db597e77bec9000d6d246739e2e15e]
link node_wp_container to node_mysql_container--><path d="M94.5,133.099 C94.5,133.3504 94.5,133.6027 94.5,133.8559 C94.5,135.8817 94.5,137.966 94.5,140.1003 C94.5,144.369 94.5,148.8382 94.5,153.4408 C94.5,158.0434 94.5,162.7794 94.5,167.5819 C94.5,168.7825 94.5,169.9872 94.5,171.1951 C94.5,171.3461 94.5,171.4971 94.5,171.6482 C94.5,171.7238 94.5,171.7993 94.5,171.8749 C94.5,171.9126 94.5,171.9504 94.5,171.9882 " fill="none" id="node_wp_container-to-node_mysql_container" style="stroke:#A80036;stroke-width:1.0;stroke-dasharray:7.0,7.0;"/><polygon fill="#A80036" points="94.5,171.9882,98.5,162.9882,94.5,166.9882,90.5,162.9882,94.5,171.9882" style="stroke:#A80036;stroke-width:1.0;"/><text fill="#000000" font-family="sans-serif" font-size="13" lengthAdjust="spacing" textLength="89" x="95.5" y="160.5684">«ConnectsTo»</text><!--MD5=[1f6a1e56c783ac0d337553364f4ab831]
link node_mysql_container to node_mysql_volume--><path codeLine="16" d="M94.5,299.0488 C94.5,299.5857 94.5,300.126 94.5,300.6694 C94.5,318.0584 94.5,338.655 94.5,354.8343 " fill="none" id="node_mysql_container-to-node_mysql_volume" style="stroke:#A80036;stroke-width:1.0;stroke-dasharray:7.0,7.0;"/><polygon fill="#A80036" points="94.5,359.8666,98.5,350.8666,94.5,354.8666,90.5,350.8666,94.5,359.8666" style="stroke:#A80036;stroke-width:1.0;"/><text fill="#000000" font-family="sans-serif" font-size="13" lengthAdjust="spacing" textLength="85" x="95.5" y="326.5684">«AttachesTo»</text><!--MD5=[9b2b79ea06389477b0a3981a2177d68a]
@startuml
skinparam componentStyle uml2
allowmixing

node "wp_container: Container" as node_wp_container {
artifact "my_image: Service" <<artifact>> as node_wp_container_artifact_my_image {
label "file: wordpress" as node_wp_container_artifact_my_image_label
}
}
node "mysql_container: Container" as node_mysql_container {
artifact "my_image: Service" <<artifact>> as node_mysql_container_artifact_my_image {
label "file: mysql" as node_mysql_container_artifact_my_image_label
}
}
database "mysql_volume: Volume" as node_mysql_volume
node_wp_container ..> node_mysql_container : <<ConnectsTo>>
node_mysql_container ..> node_mysql_volume : <<AttachesTo>>
@enduml

PlantUML version 1.2021.13(Mon Nov 01 12:38:45 CET 2021)
(GPL source distribution)
Java Runtime: Java(TM) SE Runtime Environment
JVM: Java HotSpot(TM) 64-Bit Server VM
Default Encoding: UTF-8
Language: fr
Country: FR
--></g></svg>