<?xml version="1.0" encoding="UTF-8" standalone="no"?><svg xmlns="http://www.w3.org/2000/svg" xmlns:xlink="http://www.w3.org/1999/xlink" contentScriptType="application/ecmascript" contentStyleType="text/css" height="2788px" preserveAspectRatio="none" style="width:551px;height:2788px;background:#FFFFFF;" version="1.1" viewBox="0 0 551 2788" width="551px" zoomAndPan="magnify"><defs/><g><rect fill="#FF8C00" height="8" style="stroke:none;stroke-width:1.0;" width="80" x="226" y="2394"/><rect fill="#006400" height="8" style="stroke:none;stroke-width:1.0;" width="80" x="234" y="86"/><ellipse cx="274" cy="16" fill="#008000" rx="10" ry="10" style="stroke:none;stroke-width:1.0;"/><ellipse cx="266" cy="2772" rx="10" ry="10" style="stroke:#000000;stroke-width:1.0;fill:none;"/><ellipse cx="266.5" cy="2772.5" fill="#000000" rx="6" ry="6" style="stroke:none;stroke-width:1.0;"/><rect fill="#FFFFFF" height="240.4883" rx="12.5" ry="12.5" style="stroke:#000000;stroke-width:1.5;" width="234" x="27" y="454"/><rect fill="#FFFFFF" height="208" rx="12.5" ry="12.5" style="stroke:#FFFFFF;stroke-width:1.0;" width="228" x="30" y="483.4883"/><line style="stroke:#000000;stroke-width:1.5;" x1="27" x2="261" y1="480.4883" y2="480.4883"/><text fill="#000000" font-family="sans-serif" font-size="14" lengthAdjust="spacing" textLength="141" x="73.5" y="472.5352">create_wp_container</text><rect fill="#FFFFFF" height="40" rx="12.5" ry="12.5" style="stroke:#0000FF;stroke-width:1.5;" width="162" x="65" y="492.4883"/><text fill="#000000" font-family="sans-serif" font-size="14" lengthAdjust="spacing" textLength="152" x="70" y="517.7793">wp_container creating</text><rect fill="#ADD8E6" height="40" rx="12.5" ry="12.5" style="stroke:#0000FF;stroke-width:1.5;" width="214" x="39" y="568.4883"/><text fill="#000000" font-family="sans-serif" font-size="14" lengthAdjust="spacing" textLength="204" x="44" y="593.7793">wp_container Standard.create</text><rect fill="#FFFFFF" height="40" rx="12.5" ry="12.5" style="stroke:#0000FF;stroke-width:1.5;" width="157" x="67.5" y="644.4883"/><text fill="#000000" font-family="sans-serif" font-size="14" lengthAdjust="spacing" textLength="147" x="72.5" y="669.7793">wp_container created</text><!--MD5=[36cd8395d50fbbbf461a507ad128b61b]
link step_parallel_deploy_create_wp_container_wp_container_creating to step_parallel_deploy_create_wp_container_wp_container_Standard.create--><path d="M146,532.8549 C146,542.2155 146,553.4103 146,563.2956 " fill="none" id="step_parallel_deploy_create_wp_container_wp_container_creating-to-step_parallel_deploy_create_wp_container_wp_container_Standard.create" style="stroke:#0000FF;stroke-width:1.0;"/><polygon fill="#0000FF" points="146,568.329,150,559.329,146,563.329,142,559.329,146,568.329" style="stroke:#0000FF;stroke-width:1.0;"/><!--MD5=[023268c7e260a87199f5fc586137d071]
link step_parallel_deploy_create_wp_container_wp_container_Standard.create to step_parallel_deploy_create_wp_container_wp_container_created--><path d="M146,608.8549 C146,618.2155 146,629.4103 146,639.2956 " fill="none" id="step_parallel_deploy_create_wp_container_wp_container_Standard.create-to-step_parallel_deploy_create_wp_container_wp_container_created" style="stroke:#0000FF;stroke-width:1.0;"/><polygon fill="#0000FF" points="146,644.329,150,635.329,146,639.329,142,635.329,146,644.329" style="stroke:#0000FF;stroke-width:1.0;"/><rect fill="#FFFFFF" height="88.4883" rx="12.5" ry="12.5" style="stroke:#000000;stroke-width:1.5;" width="215" x="30.5" y="754"/><rect fill="#FFFFFF" height="56" rx="12.5" ry="12.5" style="stroke:#FFFFFF;stroke-width:1.0;" width="209" x="33.5" y="783.4883"/><line style="stroke:#000000;stroke-width:1.5;" x1="30.5" x2="245.5" y1="780.4883" y2="780.4883"/><text fill="#000000" font-family="sans-serif" font-size="14" lengthAdjust="spacing" textLength="195" x="40.5" y="772.5352">pre_configure_wp_container</text><rect fill="#FFFFFF" height="40" rx="12.5" ry="12.5" style="stroke:#0000FF;stroke-width:1.5;" width="186" x="42.5" y="792.4883"/><text fill="#000000" font-family="sans-serif" font-size="14" lengthAdjust="spacing" textLength="176" x="47.5" y="817.7793">wp_container configuring</text><rect fill="#FFFFFF" height="88.4883" rx="12.5" ry="12.5" style="stroke:#000000;stroke-width:1.5;" width="258" x="7" y="902"/><rect fill="#FFFFFF" height="56" rx="12.5" ry="12.5" style="stroke:#FFFFFF;stroke-width:1.0;" width="252" x="10" y="931.4883"/><line style="stroke:#000000;stroke-width:1.5;" x1="7" x2="265" y1="928.4883" y2="928.4883"/><text fill="#000000" font-family="sans-serif" font-size="14" lengthAdjust="spacing" textLength="165" x="53.5" y="920.5352">configure_wp_container</text><rect fill="#ADD8E6" height="40" rx="12.5" ry="12.5" style="stroke:#0000FF;stroke-width:1.5;" width="238" x="19" y="940.4883"/><text fill="#000000" font-family="sans-serif" font-size="14" lengthAdjust="spacing" textLength="228" x="24" y="965.7793">wp_container Standard.configure</text><rect fill="#FFFFFF" height="88.4883" rx="12.5" ry="12.5" style="stroke:#000000;stroke-width:1.5;" width="222" x="34" y="1126"/><rect fill="#FFFFFF" height="56" rx="12.5" ry="12.5" style="stroke:#FFFFFF;stroke-width:1.0;" width="216" x="37" y="1155.4883"/><line style="stroke:#000000;stroke-width:1.5;" x1="34" x2="256" y1="1152.4883" y2="1152.4883"/><text fill="#000000" font-family="sans-serif" font-size="14" lengthAdjust="spacing" textLength="202" x="44" y="1144.5352">post_configure_wp_container</text><rect fill="#FFFFFF" height="40" rx="12.5" ry="12.5" style="stroke:#0000FF;stroke-width:1.5;" width="181" x="46" y="1164.4883"/><text fill="#000000" font-family="sans-serif" font-size="14" lengthAdjust="spacing" textLength="171" x="51" y="1189.7793">wp_container configured</text><rect fill="#FFFFFF" height="240.4883" rx="12.5" ry="12.5" style="stroke:#000000;stroke-width:1.5;" width="223" x="154.5" y="2462"/><rect fill="#FFFFFF" height="208" rx="12.5" ry="12.5" style="stroke:#FFFFFF;stroke-width:1.0;" width="217" x="157.5" y="2491.4883"/><line style="stroke:#000000;stroke-width:1.5;" x1="154.5" x2="377.5" y1="2488.4883" y2="2488.4883"/><text fill="#000000" font-family="sans-serif" font-size="14" lengthAdjust="spacing" textLength="130" x="201" y="2480.5352">start_wp_container</text><rect fill="#FFFFFF" height="40" rx="12.5" ry="12.5" style="stroke:#0000FF;stroke-width:1.5;" width="159" x="188.5" y="2500.4883"/><text fill="#000000" font-family="sans-serif" font-size="14" lengthAdjust="spacing" textLength="149" x="193.5" y="2525.7793">wp_container starting</text><rect fill="#ADD8E6" height="40" rx="12.5" ry="12.5" style="stroke:#0000FF;stroke-width:1.5;" width="203" x="166.5" y="2576.4883"/><text fill="#000000" font-family="sans-serif" font-size="14" lengthAdjust="spacing" textLength="193" x="171.5" y="2601.7793">wp_container Standard.start</text><rect fill="#FFFFFF" height="40" rx="12.5" ry="12.5" style="stroke:#0000FF;stroke-width:1.5;" width="154" x="191" y="2652.4883"/><text fill="#000000" font-family="sans-serif" font-size="14" lengthAdjust="spacing" textLength="144" x="196" y="2677.7793">wp_container started</text><!--MD5=[8ee33b2ae91169324f87c67d7ec5b3e5]
link step_parallel_deploy_start_wp_container_wp_container_starting to step_parallel_deploy_start_wp_container_wp_container_Standard.start--><path d="M268,2540.8549 C268,2550.2155 268,2561.4103 268,2571.2956 " fill="none" id="step_parallel_deploy_start_wp_container_wp_container_starting-to-step_parallel_deploy_start_wp_container_wp_container_Standard.start" style="stroke:#0000FF;stroke-width:1.0;"/><polygon fill="#0000FF" points="268,2576.329,272,2567.329,268,2571.329,264,2567.329,268,2576.329" style="stroke:#0000FF;stroke-width:1.0;"/><!--MD5=[c6db29301599d1871d8c83a764189fac]
link step_parallel_deploy_start_wp_container_wp_container_Standard.start to step_parallel_deploy_start_wp_container_wp_container_started--><path d="M268,2616.8549 C268,2626.2155 268,2637.4103 268,2647.2956 " fill="none" id="step_parallel_deploy_start_wp_container_wp_container_Standard.start-to-step_parallel_deploy_start_wp_container_wp_container_started" style="stroke:#0000FF;stroke-width:1.0;"/><polygon fill="#0000FF" points="268,2652.329,272,2643.329,268,2647.329,264,2643.329,268,2652.329" style="stroke:#0000FF;stroke-width:1.0;"/><rect fill="#FFFFFF" height="240.4883" rx="12.5" ry="12.5" style="stroke:#000000;stroke-width:1.5;" width="254" x="275" y="1350"/><rect fill="#FFFFFF" height="208" rx="12.5" ry="12.5" style="stroke:#FFFFFF;stroke-width:1.0;" width="248" x="278" y="1379.4883"/><line style="stroke:#000000;stroke-width:1.5;" x1="275" x2="529" y1="1376.4883" y2="1376.4883"/><text fill="#000000" font-family="sans-serif" font-size="14" lengthAdjust="spacing" textLength="161" x="321.5" y="1368.5352">create_mysql_container</text><rect fill="#FFFFFF" height="40" rx="12.5" ry="12.5" style="stroke:#0000FF;stroke-width:1.5;" width="182" x="313" y="1388.4883"/><text fill="#000000" font-family="sans-serif" font-size="14" lengthAdjust="spacing" textLength="172" x="318" y="1413.7793">mysql_container creating</text><rect fill="#ADD8E6" height="40" rx="12.5" ry="12.5" style="stroke:#0000FF;stroke-width:1.5;" width="234" x="287" y="1464.4883"/><text fill="#000000" font-family="sans-serif" font-size="14" lengthAdjust="spacing" textLength="224" x="292" y="1489.7793">mysql_container Standard.create</text><rect fill="#FFFFFF" height="40" rx="12.5" ry="12.5" style="stroke:#0000FF;stroke-width:1.5;" width="177" x="315.5" y="1540.4883"/><text fill="#000000" font-family="sans-serif" font-size="14" lengthAdjust="spacing" textLength="167" x="320.5" y="1565.7793">mysql_container created</text><!--MD5=[177944d756b532999b743d9dc76b6fd9]
link step_parallel_deploy_create_mysql_container_mysql_container_creating to step_parallel_deploy_create_mysql_container_mysql_container_Standard.create--><path d="M404,1428.8549 C404,1438.2155 404,1449.4103 404,1459.2956 " fill="none" id="step_parallel_deploy_create_mysql_container_mysql_container_creating-to-step_parallel_deploy_create_mysql_container_mysql_container_Standard.create" style="stroke:#0000FF;stroke-width:1.0;"/><polygon fill="#0000FF" points="404,1464.329,408,1455.329,404,1459.329,400,1455.329,404,1464.329" style="stroke:#0000FF;stroke-width:1.0;"/><!--MD5=[466727db3531f89d058663e3dca1f75a]
link step_parallel_deploy_create_mysql_container_mysql_container_Standard.create to step_parallel_deploy_create_mysql_container_mysql_container_created--><path d="M404,1504.8549 C404,1514.2155 404,1525.4103 404,1535.2956 " fill="none" id="step_parallel_deploy_create_mysql_container_mysql_container_Standard.create-to-step_parallel_deploy_create_mysql_container_mysql_container_created" style="stroke:#0000FF;stroke-width:1.0;"/><polygon fill="#0000FF" points="404,1540.329,408,1531.329,404,1535.329,400,1531.329,404,1540.329" style="stroke:#0000FF;stroke-width:1.0;"/><rect fill="#FFFFFF" height="88.4883" rx="12.5" ry="12.5" style="stroke:#000000;stroke-width:1.5;" width="235" x="276.5" y="1650"/><rect fill="#FFFFFF" height="56" rx="12.5" ry="12.5" style="stroke:#FFFFFF;stroke-width:1.0;" width="229" x="279.5" y="1679.4883"/><line style="stroke:#000000;stroke-width:1.5;" x1="276.5" x2="511.5" y1="1676.4883" y2="1676.4883"/><text fill="#000000" font-family="sans-serif" font-size="14" lengthAdjust="spacing" textLength="215" x="286.5" y="1668.5352">pre_configure_mysql_container</text><rect fill="#FFFFFF" height="40" rx="12.5" ry="12.5" style="stroke:#0000FF;stroke-width:1.5;" width="206" x="288.5" y="1688.4883"/><text fill="#000000" font-family="sans-serif" font-size="14" lengthAdjust="spacing" textLength="196" x="293.5" y="1713.7793">mysql_container configuring</text><rect fill="#FFFFFF" height="88.4883" rx="12.5" ry="12.5" style="stroke:#000000;stroke-width:1.5;" width="278" x="249" y="1798"/><rect fill="#FFFFFF" height="56" rx="12.5" ry="12.5" style="stroke:#FFFFFF;stroke-width:1.0;" width="272" x="252" y="1827.4883"/><line style="stroke:#000000;stroke-width:1.5;" x1="249" x2="527" y1="1824.4883" y2="1824.4883"/><text fill="#000000" font-family="sans-serif" font-size="14" lengthAdjust="spacing" textLength="185" x="295.5" y="1816.5352">configure_mysql_container</text><rect fill="#ADD8E6" height="40" rx="12.5" ry="12.5" style="stroke:#0000FF;stroke-width:1.5;" width="258" x="261" y="1836.4883"/><text fill="#000000" font-family="sans-serif" font-size="14" lengthAdjust="spacing" textLength="248" x="266" y="1861.7793">mysql_container Standard.configure</text><rect fill="#FFFFFF" height="88.4883" rx="12.5" ry="12.5" style="stroke:#000000;stroke-width:1.5;" width="242" x="254" y="1946"/><rect fill="#FFFFFF" height="56" rx="12.5" ry="12.5" style="stroke:#FFFFFF;stroke-width:1.0;" width="236" x="257" y="1975.4883"/><line style="stroke:#000000;stroke-width:1.5;" x1="254" x2="496" y1="1972.4883" y2="1972.4883"/><text fill="#000000" font-family="sans-serif" font-size="14" lengthAdjust="spacing" textLength="222" x="264" y="1964.5352">post_configure_mysql_container</text><rect fill="#FFFFFF" height="40" rx="12.5" ry="12.5" style="stroke:#0000FF;stroke-width:1.5;" width="201" x="266" y="1984.4883"/><text fill="#000000" font-family="sans-serif" font-size="14" lengthAdjust="spacing" textLength="191" x="271" y="2009.7793">mysql_container configured</text><rect fill="#FFFFFF" height="240.4883" rx="12.5" ry="12.5" style="stroke:#000000;stroke-width:1.5;" width="243" x="240.5" y="2094"/><rect fill="#FFFFFF" height="208" rx="12.5" ry="12.5" style="stroke:#FFFFFF;stroke-width:1.0;" width="237" x="243.5" y="2123.4883"/><line style="stroke:#000000;stroke-width:1.5;" x1="240.5" x2="483.5" y1="2120.4883" y2="2120.4883"/><text fill="#000000" font-family="sans-serif" font-size="14" lengthAdjust="spacing" textLength="150" x="287" y="2112.5352">start_mysql_container</text><rect fill="#FFFFFF" height="40" rx="12.5" ry="12.5" style="stroke:#0000FF;stroke-width:1.5;" width="179" x="274.5" y="2132.4883"/><text fill="#000000" font-family="sans-serif" font-size="14" lengthAdjust="spacing" textLength="169" x="279.5" y="2157.7793">mysql_container starting</text><rect fill="#ADD8E6" height="40" rx="12.5" ry="12.5" style="stroke:#0000FF;stroke-width:1.5;" width="223" x="252.5" y="2208.4883"/><text fill="#000000" font-family="sans-serif" font-size="14" lengthAdjust="spacing" textLength="213" x="257.5" y="2233.7793">mysql_container Standard.start</text><rect fill="#FFFFFF" height="40" rx="12.5" ry="12.5" style="stroke:#0000FF;stroke-width:1.5;" width="174" x="277" y="2284.4883"/><text fill="#000000" font-family="sans-serif" font-size="14" lengthAdjust="spacing" textLength="164" x="282" y="2309.7793">mysql_container started</text><!--MD5=[559b6617443462e00330e10ab25a5421]
link step_parallel_deploy_start_mysql_container_mysql_container_starting to step_parallel_deploy_start_mysql_container_mysql_container_Standard.start--><path d="M364,2172.8549 C364,2182.2155 364,2193.4103 364,2203.2956 " fill="none" id="step_parallel_deploy_start_mysql_container_mysql_container_starting-to-step_parallel_deploy_start_mysql_container_mysql_container_Standard.start" style="stroke:#0000FF;stroke-width:1.0;"/><polygon fill="#0000FF" points="364,2208.329,368,2199.329,364,2203.329,360,2199.329,364,2208.329" style="stroke:#0000FF;stroke-width:1.0;"/><!--MD5=[a78105ab63875330e8482cb37ab7aaaf]
link step_parallel_deploy_start_mysql_container_mysql_container_Standard.start to step_parallel_deploy_start_mysql_container_mysql_container_started--><path d="M364,2248.8549 C364,2258.2155 364,2269.4103 364,2279.2956 " fill="none" id="step_parallel_deploy_start_mysql_container_mysql_container_Standard.start-to-step_parallel_deploy_start_mysql_container_mysql_container_started" style="stroke:#0000FF;stroke-width:1.0;"/><polygon fill="#0000FF" points="364,2284.329,368,2275.329,364,2279.329,360,2275.329,364,2284.329" style="stroke:#0000FF;stroke-width:1.0;"/><rect fill="#FFFFFF" height="240.4883" rx="12.5" ry="12.5" style="stroke:#000000;stroke-width:1.5;" width="239" x="265.5" y="154"/><rect fill="#FFFFFF" height="208" rx="12.5" ry="12.5" style="stroke:#FFFFFF;stroke-width:1.0;" width="233" x="268.5" y="183.4883"/><line style="stroke:#000000;stroke-width:1.5;" x1="265.5" x2="504.5" y1="180.4883" y2="180.4883"/><text fill="#000000" font-family="sans-serif" font-size="14" lengthAdjust="spacing" textLength="146" x="312" y="172.5352">create_mysql_volume</text><rect fill="#FFFFFF" height="40" rx="12.5" ry="12.5" style="stroke:#0000FF;stroke-width:1.5;" width="167" x="303.5" y="192.4883"/><text fill="#000000" font-family="sans-serif" font-size="14" lengthAdjust="spacing" textLength="157" x="308.5" y="217.7793">mysql_volume creating</text><rect fill="#ADD8E6" height="40" rx="12.5" ry="12.5" style="stroke:#0000FF;stroke-width:1.5;" width="219" x="277.5" y="268.4883"/><text fill="#000000" font-family="sans-serif" font-size="14" lengthAdjust="spacing" textLength="209" x="282.5" y="293.7793">mysql_volume Standard.create</text><rect fill="#FFFFFF" height="40" rx="12.5" ry="12.5" style="stroke:#0000FF;stroke-width:1.5;" width="162" x="306" y="344.4883"/><text fill="#000000" font-family="sans-serif" font-size="14" lengthAdjust="spacing" textLength="152" x="311" y="369.7793">mysql_volume created</text><!--MD5=[3830466ca3dcb3fc8dd7acac806091b6]
link step_parallel_deploy_create_mysql_volume_mysql_volume_creating to step_parallel_deploy_create_mysql_volume_mysql_volume_Standard.create--><path d="M387,232.8549 C387,242.2155 387,253.4103 387,263.2956 " fill="none" id="step_parallel_deploy_create_mysql_volume_mysql_volume_creating-to-step_parallel_deploy_create_mysql_volume_mysql_volume_Standard.create" style="stroke:#0000FF;stroke-width:1.0;"/><polygon fill="#0000FF" points="387,268.329,391,259.329,387,263.329,383,259.329,387,268.329" style="stroke:#0000FF;stroke-width:1.0;"/><!--MD5=[9d67af593bf042eb4adbc81d6dcb5d8c]
link step_parallel_deploy_create_mysql_volume_mysql_volume_Standard.create to step_parallel_deploy_create_mysql_volume_mysql_volume_created--><path d="M387,308.8549 C387,318.2155 387,329.4103 387,339.2956 " fill="none" id="step_parallel_deploy_create_mysql_volume_mysql_volume_Standard.create-to-step_parallel_deploy_create_mysql_volume_mysql_volume_created" style="stroke:#0000FF;stroke-width:1.0;"/><polygon fill="#0000FF" points="387,344.329,391,335.329,387,339.329,383,335.329,387,344.329" style="stroke:#0000FF;stroke-width:1.0;"/><rect fill="#FFFFFF" height="88.4883" rx="12.5" ry="12.5" style="stroke:#000000;stroke-width:1.5;" width="220" x="299" y="530"/><rect fill="#FFFFFF" height="56" rx="12.5" ry="12.5" style="stroke:#FFFFFF;stroke-width:1.0;" width="214" x="302" y="559.4883"/><line style="stroke:#000000;stroke-width:1.5;" x1="299" x2="519" y1="556.4883" y2="556.4883"/><text fill="#000000" font-family="sans-serif" font-size="14" lengthAdjust="spacing" textLength="200" x="309" y="548.5352">pre_configure_mysql_volume</text><rect fill="#FFFFFF" height="40" rx="12.5" ry="12.5" style="stroke:#0000FF;stroke-width:1.5;" width="191" x="311" y="568.4883"/><text fill="#000000" font-family="sans-serif" font-size="14" lengthAdjust="spacing" textLength="181" x="316" y="593.7793">mysql_volume configuring</text><rect fill="#FFFFFF" height="88.4883" rx="12.5" ry="12.5" style="stroke:#000000;stroke-width:1.5;" width="263" x="281.5" y="754"/><rect fill="#FFFFFF" height="56" rx="12.5" ry="12.5" style="stroke:#FFFFFF;stroke-width:1.0;" width="257" x="284.5" y="783.4883"/><line style="stroke:#000000;stroke-width:1.5;" x1="281.5" x2="544.5" y1="780.4883" y2="780.4883"/><text fill="#000000" font-family="sans-serif" font-size="14" lengthAdjust="spacing" textLength="170" x="328" y="772.5352">configure_mysql_volume</text><rect fill="#ADD8E6" height="40" rx="12.5" ry="12.5" style="stroke:#0000FF;stroke-width:1.5;" width="243" x="293.5" y="792.4883"/><text fill="#000000" font-family="sans-serif" font-size="14" lengthAdjust="spacing" textLength="233" x="298.5" y="817.7793">mysql_volume Standard.configure</text><rect fill="#FFFFFF" height="88.4883" rx="12.5" ry="12.5" style="stroke:#000000;stroke-width:1.5;" width="227" x="300.5" y="902"/><rect fill="#FFFFFF" height="56" rx="12.5" ry="12.5" style="stroke:#FFFFFF;stroke-width:1.0;" width="221" x="303.5" y="931.4883"/><line style="stroke:#000000;stroke-width:1.5;" x1="300.5" x2="527.5" y1="928.4883" y2="928.4883"/><text fill="#000000" font-family="sans-serif" font-size="14" lengthAdjust="spacing" textLength="207" x="310.5" y="920.5352">post_configure_mysql_volume</text><rect fill="#FFFFFF" height="40" rx="12.5" ry="12.5" style="stroke:#0000FF;stroke-width:1.5;" width="186" x="312.5" y="940.4883"/><text fill="#000000" font-family="sans-serif" font-size="14" lengthAdjust="spacing" textLength="176" x="317.5" y="965.7793">mysql_volume configured</text><rect fill="#FFFFFF" height="240.4883" rx="12.5" ry="12.5" style="stroke:#000000;stroke-width:1.5;" width="228" x="295" y="1050"/><rect fill="#FFFFFF" height="208" rx="12.5" ry="12.5" style="stroke:#FFFFFF;stroke-width:1.0;" width="222" x="298" y="1079.4883"/><line style="stroke:#000000;stroke-width:1.5;" x1="295" x2="523" y1="1076.4883" y2="1076.4883"/><text fill="#000000" font-family="sans-serif" font-size="14" lengthAdjust="spacing" textLength="135" x="341.5" y="1068.5352">start_mysql_volume</text><rect fill="#FFFFFF" height="40" rx="12.5" ry="12.5" style="stroke:#0000FF;stroke-width:1.5;" width="164" x="329" y="1088.4883"/><text fill="#000000" font-family="sans-serif" font-size="14" lengthAdjust="spacing" textLength="154" x="334" y="1113.7793">mysql_volume starting</text><rect fill="#ADD8E6" height="40" rx="12.5" ry="12.5" style="stroke:#0000FF;stroke-width:1.5;" width="208" x="307" y="1164.4883"/><text fill="#000000" font-family="sans-serif" font-size="14" lengthAdjust="spacing" textLength="198" x="312" y="1189.7793">mysql_volume Standard.start</text><rect fill="#FFFFFF" height="40" rx="12.5" ry="12.5" style="stroke:#0000FF;stroke-width:1.5;" width="159" x="331.5" y="1240.4883"/><text fill="#000000" font-family="sans-serif" font-size="14" lengthAdjust="spacing" textLength="149" x="336.5" y="1265.7793">mysql_volume started</text><!--MD5=[6f2d80f7f05a8c4153d33cbdfb5916a0]
link step_parallel_deploy_start_mysql_volume_mysql_volume_starting to step_parallel_deploy_start_mysql_volume_mysql_volume_Standard.start--><path d="M411,1128.8549 C411,1138.2155 411,1149.4103 411,1159.2956 " fill="none" id="step_parallel_deploy_start_mysql_volume_mysql_volume_starting-to-step_parallel_deploy_start_mysql_volume_mysql_volume_Standard.start" style="stroke:#0000FF;stroke-width:1.0;"/><polygon fill="#0000FF" points="411,1164.329,415,1155.329,411,1159.329,407,1155.329,411,1164.329" style="stroke:#0000FF;stroke-width:1.0;"/><!--MD5=[f1771e3acc7d6318abf48bd0b9e25572]
link step_parallel_deploy_start_mysql_volume_mysql_volume_Standard.start to step_parallel_deploy_start_mysql_volume_mysql_volume_started--><path d="M411,1204.8549 C411,1214.2155 411,1225.4103 411,1235.2956 " fill="none" id="step_parallel_deploy_start_mysql_volume_mysql_volume_Standard.start-to-step_parallel_deploy_start_mysql_volume_mysql_volume_started" style="stroke:#0000FF;stroke-width:1.0;"/><polygon fill="#0000FF" points="411,1240.329,415,1231.329,411,1235.329,407,1231.329,411,1240.329" style="stroke:#0000FF;stroke-width:1.0;"/><!--MD5=[1624099e3cde5770686d5b66e25321b4]
link step_parallel_deploy_start_wp_container_join to step_parallel_deploy_start_wp_container--><path d="M266,2402.1888 C266,2410.7786 266,2431.6672 266,2456.2952 " fill="none" id="step_parallel_deploy_start_wp_container_join-to-step_parallel_deploy_start_wp_container" style="stroke:#0000FF;stroke-width:1.0;"/><polygon fill="#0000FF" points="266,2461.6042,270,2452.6042,266,2456.6042,262,2452.6042,266,2461.6042" style="stroke:#0000FF;stroke-width:1.0;"/><!--MD5=[269249d1ec02f11ce36f9e375ee0e938]
link step_parallel_deploy_create_wp_container to step_parallel_deploy_pre_configure_wp_container--><path d="M140.7804,694.1966 C140.2659,713.4052 139.7601,732.2905 139.3238,748.5764 " fill="none" id="step_parallel_deploy_create_wp_container-to-step_parallel_deploy_pre_configure_wp_container" style="stroke:#0000FF;stroke-width:1.0;"/><polygon fill="#0000FF" points="139.1787,753.9964,143.4185,745.1068,139.3127,748.9982,135.4213,744.8924,139.1787,753.9964" style="stroke:#0000FF;stroke-width:1.0;"/><!--MD5=[de3e0f4862954e1dc5de52862e6f36ec]
link step_parallel_deploy_pre_configure_wp_container to step_parallel_deploy_configure_wp_container--><path d="M137.4053,842.0042 C137.1737,859.1469 136.9071,878.8749 136.6688,896.5094 " fill="none" id="step_parallel_deploy_pre_configure_wp_container-to-step_parallel_deploy_configure_wp_container" style="stroke:#0000FF;stroke-width:1.0;"/><polygon fill="#0000FF" points="136.5958,901.9098,140.7173,892.9648,136.6635,896.9103,132.7181,892.8565,136.5958,901.9098" style="stroke:#0000FF;stroke-width:1.0;"/><!--MD5=[8c82c942b57f0bc2e33e2a7a94f8afd8]
link step_parallel_deploy_configure_wp_container to step_parallel_deploy_post_configure_wp_container--><path d="M137.7781,990.2552 C139.2881,1027.8381 141.4531,1081.7228 143.0185,1120.6822 " fill="none" id="step_parallel_deploy_configure_wp_container-to-step_parallel_deploy_post_configure_wp_container" style="stroke:#0000FF;stroke-width:1.0;"/><polygon fill="#0000FF" points="143.2256,1125.8367,146.8608,1116.6833,143.0247,1120.8407,138.8673,1117.0047,143.2256,1125.8367" style="stroke:#0000FF;stroke-width:1.0;"/><!--MD5=[2602a56519c5e98800bbb4854d59b9a7]
link step_parallel_deploy_post_configure_wp_container to step_parallel_deploy_start_wp_container_join--><path d="M149.7993,1214.103 C159.1714,1304.1669 179,1515.7753 179,1694 C179,1694 179,1694 179,1990 C179,2144.1345 168.7878,2189.7139 223,2334 C231.3128,2356.1247 248.6133,2378.1744 258.5497,2389.7282 " fill="none" id="step_parallel_deploy_post_configure_wp_container-to-step_parallel_deploy_start_wp_container_join" style="stroke:#0000FF;stroke-width:1.0;"/><polygon fill="#0000FF" points="262.0791,2393.75,259.1492,2384.347,258.7811,2389.9919,253.1363,2389.6238,262.0791,2393.75" style="stroke:#0000FF;stroke-width:1.0;"/><!--MD5=[7fb9422fbcf4c415491ef126e7903465]
link step_parallel_deploy_create_mysql_container to step_parallel_deploy_pre_configure_mysql_container--><path d="M397.7073,1590.1966 C397.0212,1609.4052 396.3468,1628.2905 395.7651,1644.5764 " fill="none" id="step_parallel_deploy_create_mysql_container-to-step_parallel_deploy_pre_configure_mysql_container" style="stroke:#0000FF;stroke-width:1.0;"/><polygon fill="#0000FF" points="395.5716,1649.9964,399.8905,1641.145,395.7502,1644.9996,391.8956,1640.8593,395.5716,1649.9964" style="stroke:#0000FF;stroke-width:1.0;"/><!--MD5=[076dfea01052b51189945fefe6351439]
link step_parallel_deploy_pre_configure_mysql_container to step_parallel_deploy_configure_mysql_container--><path d="M392.216,1738.0042 C391.5211,1755.1469 390.7213,1774.8749 390.0064,1792.5094 " fill="none" id="step_parallel_deploy_pre_configure_mysql_container-to-step_parallel_deploy_configure_mysql_container" style="stroke:#0000FF;stroke-width:1.0;"/><polygon fill="#0000FF" points="389.7874,1797.9098,394.1487,1789.0792,389.99,1792.9139,386.1553,1788.7551,389.7874,1797.9098" style="stroke:#0000FF;stroke-width:1.0;"/><!--MD5=[54942f844600542fd99822ec07202bbb]
link step_parallel_deploy_configure_mysql_container to step_parallel_deploy_post_configure_mysql_container--><path d="M384.1348,1886.0042 C382.629,1903.1469 380.8961,1922.8749 379.3471,1940.5094 " fill="none" id="step_parallel_deploy_configure_mysql_container-to-step_parallel_deploy_post_configure_mysql_container" style="stroke:#0000FF;stroke-width:1.0;"/><polygon fill="#0000FF" points="378.8728,1945.9098,383.6453,1937.2945,379.3105,1940.929,375.676,1936.5942,378.8728,1945.9098" style="stroke:#0000FF;stroke-width:1.0;"/><!--MD5=[ea58b39f7a8dd50f292b315475a7bc53]
link step_parallel_deploy_post_configure_mysql_container to step_parallel_deploy_start_mysql_container--><path d="M372.4316,2034.2552 C371.5118,2050.1051 370.4236,2068.8545 369.3032,2088.161 " fill="none" id="step_parallel_deploy_post_configure_mysql_container-to-step_parallel_deploy_start_mysql_container" style="stroke:#0000FF;stroke-width:1.0;"/><polygon fill="#0000FF" points="368.9864,2093.6193,373.5012,2084.8662,369.2761,2088.6277,365.5146,2084.4026,368.9864,2093.6193" style="stroke:#0000FF;stroke-width:1.0;"/><!--MD5=[18cb31fade58611a6b2ce9bc38c95c08]
link step_parallel_deploy_start_mysql_container to step_parallel_deploy_start_wp_container_join--><path d="M299.3067,2334.1621 C287.1993,2357.3679 276.4723,2377.9281 270.6395,2389.1076 " fill="none" id="step_parallel_deploy_start_mysql_container-to-step_parallel_deploy_start_wp_container_join" style="stroke:#0000FF;stroke-width:1.0;"/><polygon fill="#0000FF" points="268.1847,2393.8126,275.8941,2387.6836,270.4975,2389.3797,268.8014,2383.9831,268.1847,2393.8126" style="stroke:#0000FF;stroke-width:1.0;"/><!--MD5=[762d55e3b5ce7cc6776d8cfe95b66f88]
link step_parallel_deploy_create_mysql_volume to step_parallel_deploy_pre_configure_mysql_volume--><path d="M394.6234,394.2929 C398.2653,439.8166 402.2115,489.1432 405.0465,524.5807 " fill="none" id="step_parallel_deploy_create_mysql_volume-to-step_parallel_deploy_pre_configure_mysql_volume" style="stroke:#0000FF;stroke-width:1.0;"/><polygon fill="#0000FF" points="405.4565,529.7062,408.7261,520.4159,405.0578,524.7221,400.7515,521.0538,405.4565,529.7062" style="stroke:#0000FF;stroke-width:1.0;"/><!--MD5=[83d44a05cfee66f83987c59b432222c5]
link step_parallel_deploy_pre_configure_mysql_volume to step_parallel_deploy_configure_mysql_volume--><path d="M409.7903,618.2552 C410.4614,655.8381 411.4236,709.7228 412.1193,748.6822 " fill="none" id="step_parallel_deploy_pre_configure_mysql_volume-to-step_parallel_deploy_configure_mysql_volume" style="stroke:#0000FF;stroke-width:1.0;"/><polygon fill="#0000FF" points="412.2114,753.8367,416.05,744.7667,412.1221,748.8375,408.0513,744.9096,412.2114,753.8367" style="stroke:#0000FF;stroke-width:1.0;"/><!--MD5=[d8e40e3efbd1d65910e99e5033edf187]
link step_parallel_deploy_configure_mysql_volume to step_parallel_deploy_post_configure_mysql_volume--><path d="M413.2973,842.0042 C413.4132,859.1469 413.5465,878.8749 413.6656,896.5094 " fill="none" id="step_parallel_deploy_configure_mysql_volume-to-step_parallel_deploy_post_configure_mysql_volume" style="stroke:#0000FF;stroke-width:1.0;"/><polygon fill="#0000FF" points="413.7021,901.9098,417.6411,892.8829,413.6682,896.9099,409.6412,892.9371,413.7021,901.9098" style="stroke:#0000FF;stroke-width:1.0;"/><!--MD5=[683963333eb46547fedc88796d10bae0]
link step_parallel_deploy_post_configure_mysql_volume to step_parallel_deploy_start_mysql_volume--><path d="M413.0122,990.2552 C412.6584,1006.1051 412.2399,1024.8545 411.8089,1044.161 " fill="none" id="step_parallel_deploy_post_configure_mysql_volume-to-step_parallel_deploy_start_mysql_volume" style="stroke:#0000FF;stroke-width:1.0;"/><polygon fill="#0000FF" points="411.6871,1049.6193,415.8872,1040.7109,411.7988,1044.6205,407.8892,1040.5322,411.6871,1049.6193" style="stroke:#0000FF;stroke-width:1.0;"/><!--MD5=[356b57b535f763b3c3ab281aa8380c8f]
link step_parallel_deploy_start_mysql_volume to step_parallel_deploy_create_mysql_container--><path d="M406.1932,1290.2929 C405.776,1308.1733 405.3451,1326.6404 404.9255,1344.6221 " fill="none" id="step_parallel_deploy_start_mysql_volume-to-step_parallel_deploy_create_mysql_container" style="stroke:#0000FF;stroke-width:1.0;"/><polygon fill="#0000FF" points="404.8075,1349.6801,409.0165,1340.7759,404.9242,1344.6815,401.0187,1340.5892,404.8075,1349.6801" style="stroke:#0000FF;stroke-width:1.0;"/><!--MD5=[30fe4767625141ea303a23356d448521]
link *start to parallel_deploy_fork--><path d="M274,26.2894 C274,40.745 274,66.8479 274,80.7308 " fill="none" id="*start-to-parallel_deploy_fork" style="stroke:#0000FF;stroke-width:1.0;"/><polygon fill="#0000FF" points="274,85.8629,278,76.8629,274,80.8629,270,76.8629,274,85.8629" style="stroke:#0000FF;stroke-width:1.0;"/><!--MD5=[f0a31e3b045070b438976d5c998f19b1]
link parallel_deploy_fork to step_parallel_deploy_create_wp_container--><path d="M272.0172,94.2663 C267.3478,104.4328 255.4897,130.961 248,154 C216.2926,251.5356 188.8247,364.4969 170.093,448.6879 " fill="none" id="parallel_deploy_fork-to-step_parallel_deploy_create_wp_container" style="stroke:#0000FF;stroke-width:1.0;"/><polygon fill="#0000FF" points="168.984,453.6846,174.8392,445.7652,170.0674,448.8034,167.0292,444.0317,168.984,453.6846" style="stroke:#0000FF;stroke-width:1.0;"/><!--MD5=[2a95ab97a338ca99f449a755d4ec7779]
link parallel_deploy_fork to step_parallel_deploy_create_mysql_volume--><path d="M276.5269,94.1888 C281.7739,102.8865 294.6276,124.1936 309.7277,149.2243 " fill="none" id="parallel_deploy_fork-to-step_parallel_deploy_create_mysql_volume" style="stroke:#0000FF;stroke-width:1.0;"/><polygon fill="#0000FF" points="312.3699,153.6042,311.146,143.8317,309.7872,149.3229,304.296,147.964,312.3699,153.6042" style="stroke:#0000FF;stroke-width:1.0;"/><!--MD5=[499f9531100e65576a73c350c234ed49]
link step_parallel_deploy_start_wp_container to *end--><path d="M266,2702.0605 C266,2723.7796 266,2743.6166 266,2756.5716 " fill="none" id="step_parallel_deploy_start_wp_container-to-*end" style="stroke:#0000FF;stroke-width:1.0;"/><polygon fill="#0000FF" points="266,2761.6879,270,2752.6879,266,2756.6879,262,2752.6879,266,2761.6879" style="stroke:#0000FF;stroke-width:1.0;"/><!--MD5=[2c7c2c386bfe2005b37d591e52f80746]
@startuml
hide empty description
skinparam shadowing false
skinparam state {
  ArrowColor blue
  BorderColor blue
  EndColor black
  StartColor green
  BackGroundColor<< step >> white
  BorderColor<< step >> black
  BackGroundColor<< delegate >> lightgrey
  BackGroundColor<< set_state >> white
  BackGroundColor<< call_operation >> lightblue
  BackGroundColor<< inline >> white
}
skinparam ActivityBarColor<<fork>> DarkGreen
skinparam ActivityBarColor<<join>> DarkOrange

state "create_wp_container" as step_parallel_deploy_create_wp_container << step >> {
  state "wp_container creating" as step_parallel_deploy_create_wp_container_wp_container_creating << set_state >>
  state "wp_container Standard.create" as step_parallel_deploy_create_wp_container_wp_container_Standard.create << call_operation >>
  state "wp_container created" as step_parallel_deploy_create_wp_container_wp_container_created << set_state >>
  step_parallel_deploy_create_wp_container_wp_container_creating - -> step_parallel_deploy_create_wp_container_wp_container_Standard.create
  step_parallel_deploy_create_wp_container_wp_container_Standard.create - -> step_parallel_deploy_create_wp_container_wp_container_created
}
state "pre_configure_wp_container" as step_parallel_deploy_pre_configure_wp_container << step >> {
  state "wp_container configuring" as step_parallel_deploy_pre_configure_wp_container_wp_container_configuring << set_state >>
}
state "configure_wp_container" as step_parallel_deploy_configure_wp_container << step >> {
  state "wp_container Standard.configure" as step_parallel_deploy_configure_wp_container_wp_container_Standard.configure << call_operation >>
}
state "post_configure_wp_container" as step_parallel_deploy_post_configure_wp_container << step >> {
  state "wp_container configured" as step_parallel_deploy_post_configure_wp_container_wp_container_configured << set_state >>
}
state "start_wp_container" as step_parallel_deploy_start_wp_container << step >> {
  state "wp_container starting" as step_parallel_deploy_start_wp_container_wp_container_starting << set_state >>
  state "wp_container Standard.start" as step_parallel_deploy_start_wp_container_wp_container_Standard.start << call_operation >>
  state "wp_container started" as step_parallel_deploy_start_wp_container_wp_container_started << set_state >>
  step_parallel_deploy_start_wp_container_wp_container_starting - -> step_parallel_deploy_start_wp_container_wp_container_Standard.start
  step_parallel_deploy_start_wp_container_wp_container_Standard.start - -> step_parallel_deploy_start_wp_container_wp_container_started
}
state "create_mysql_container" as step_parallel_deploy_create_mysql_container << step >> {
  state "mysql_container creating" as step_parallel_deploy_create_mysql_container_mysql_container_creating << set_state >>
  state "mysql_container Standard.create" as step_parallel_deploy_create_mysql_container_mysql_container_Standard.create << call_operation >>
  state "mysql_container created" as step_parallel_deploy_create_mysql_container_mysql_container_created << set_state >>
  step_parallel_deploy_create_mysql_container_mysql_container_creating - -> step_parallel_deploy_create_mysql_container_mysql_container_Standard.create
  step_parallel_deploy_create_mysql_container_mysql_container_Standard.create - -> step_parallel_deploy_create_mysql_container_mysql_container_created
}
state "pre_configure_mysql_container" as step_parallel_deploy_pre_configure_mysql_container << step >> {
  state "mysql_container configuring" as step_parallel_deploy_pre_configure_mysql_container_mysql_container_configuring << set_state >>
}
state "configure_mysql_container" as step_parallel_deploy_configure_mysql_container << step >> {
  state "mysql_container Standard.configure" as step_parallel_deploy_configure_mysql_container_mysql_container_Standard.configure << call_operation >>
}
state "post_configure_mysql_container" as step_parallel_deploy_post_configure_mysql_container << step >> {
  state "mysql_container configured" as step_parallel_deploy_post_configure_mysql_container_mysql_container_configured << set_state >>
}
state "start_mysql_container" as step_parallel_deploy_start_mysql_container << step >> {
  state "mysql_container starting" as step_parallel_deploy_start_mysql_container_mysql_container_starting << set_state >>
  state "mysql_container Standard.start" as step_parallel_deploy_start_mysql_container_mysql_container_Standard.start << call_operation >>
  state "mysql_container started" as step_parallel_deploy_start_mysql_container_mysql_container_started << set_state >>
  step_parallel_deploy_start_mysql_container_mysql_container_starting - -> step_parallel_deploy_start_mysql_container_mysql_container_Standard.start
  step_parallel_deploy_start_mysql_container_mysql_container_Standard.start - -> step_parallel_deploy_start_mysql_container_mysql_container_started
}
state "create_mysql_volume" as step_parallel_deploy_create_mysql_volume << step >> {
  state "mysql_volume creating" as step_parallel_deploy_create_mysql_volume_mysql_volume_creating << set_state >>
  state "mysql_volume Standard.create" as step_parallel_deploy_create_mysql_volume_mysql_volume_Standard.create << call_operation >>
  state "mysql_volume created" as step_parallel_deploy_create_mysql_volume_mysql_volume_created << set_state >>
  step_parallel_deploy_create_mysql_volume_mysql_volume_creating - -> step_parallel_deploy_create_mysql_volume_mysql_volume_Standard.create
  step_parallel_deploy_create_mysql_volume_mysql_volume_Standard.create - -> step_parallel_deploy_create_mysql_volume_mysql_volume_created
}
state "pre_configure_mysql_volume" as step_parallel_deploy_pre_configure_mysql_volume << step >> {
  state "mysql_volume configuring" as step_parallel_deploy_pre_configure_mysql_volume_mysql_volume_configuring << set_state >>
}
state "configure_mysql_volume" as step_parallel_deploy_configure_mysql_volume << step >> {
  state "mysql_volume Standard.configure" as step_parallel_deploy_configure_mysql_volume_mysql_volume_Standard.configure << call_operation >>
}
state "post_configure_mysql_volume" as step_parallel_deploy_post_configure_mysql_volume << step >> {
  state "mysql_volume configured" as step_parallel_deploy_post_configure_mysql_volume_mysql_volume_configured << set_state >>
}
state "start_mysql_volume" as step_parallel_deploy_start_mysql_volume << step >> {
  state "mysql_volume starting" as step_parallel_deploy_start_mysql_volume_mysql_volume_starting << set_state >>
  state "mysql_volume Standard.start" as step_parallel_deploy_start_mysql_volume_mysql_volume_Standard.start << call_operation >>
  state "mysql_volume started" as step_parallel_deploy_start_mysql_volume_mysql_volume_started << set_state >>
  step_parallel_deploy_start_mysql_volume_mysql_volume_starting - -> step_parallel_deploy_start_mysql_volume_mysql_volume_Standard.start
  step_parallel_deploy_start_mysql_volume_mysql_volume_Standard.start - -> step_parallel_deploy_start_mysql_volume_mysql_volume_started
}
  state step_parallel_deploy_start_wp_container_join <<join>>
  step_parallel_deploy_start_wp_container_join - -> step_parallel_deploy_start_wp_container
step_parallel_deploy_create_wp_container - -> step_parallel_deploy_pre_configure_wp_container
step_parallel_deploy_pre_configure_wp_container - -> step_parallel_deploy_configure_wp_container
step_parallel_deploy_configure_wp_container - -> step_parallel_deploy_post_configure_wp_container
step_parallel_deploy_post_configure_wp_container - -> step_parallel_deploy_start_wp_container_join
step_parallel_deploy_create_mysql_container - -> step_parallel_deploy_pre_configure_mysql_container
step_parallel_deploy_pre_configure_mysql_container - -> step_parallel_deploy_configure_mysql_container
step_parallel_deploy_configure_mysql_container - -> step_parallel_deploy_post_configure_mysql_container
step_parallel_deploy_post_configure_mysql_container - -> step_parallel_deploy_start_mysql_container
step_parallel_deploy_start_mysql_container - -> step_parallel_deploy_start_wp_container_join
step_parallel_deploy_create_mysql_volume - -> step_parallel_deploy_pre_configure_mysql_volume
step_parallel_deploy_pre_configure_mysql_volume - -> step_parallel_deploy_configure_mysql_volume
step_parallel_deploy_configure_mysql_volume - -> step_parallel_deploy_post_configure_mysql_volume
step_parallel_deploy_post_configure_mysql_volume - -> step_parallel_deploy_start_mysql_volume
step_parallel_deploy_start_mysql_volume - -> step_parallel_deploy_create_mysql_container
state parallel_deploy_fork <<fork>>
[*] - -> parallel_deploy_fork
parallel_deploy_fork - -> step_parallel_deploy_create_wp_container
parallel_deploy_fork - -> step_parallel_deploy_create_mysql_volume
step_parallel_deploy_start_wp_container - -> [*]
@enduml

PlantUML version 1.2021.13(Mon Nov 01 12:38:45 CET 2021)
(GPL source distribution)
Java Runtime: Java(TM) SE Runtime Environment
JVM: Java HotSpot(TM) 64-Bit Server VM
Default Encoding: UTF-8
Language: fr
Country: FR
--></g></svg>