<?xml version="1.0" encoding="UTF-8" standalone="no"?><svg xmlns="http://www.w3.org/2000/svg" xmlns:xlink="http://www.w3.org/1999/xlink" contentScriptType="application/ecmascript" contentStyleType="text/css" height="1156px" preserveAspectRatio="none" style="width:249px;height:1156px;background:#FFFFFF;" version="1.1" viewBox="0 0 249 1156" width="249px" zoomAndPan="magnify"><defs/><g><ellipse cx="124.5" cy="16" fill="#008000" rx="10" ry="10" style="stroke:none;stroke-width:1.0;"/><ellipse cx="124.5" cy="1140" rx="10" ry="10" style="stroke:#000000;stroke-width:1.0;fill:none;"/><ellipse cx="125" cy="1140.5" fill="#000000" rx="6" ry="6" style="stroke:none;stroke-width:1.0;"/><rect fill="#FFFFFF" height="240.4883" rx="12.5" ry="12.5" style="stroke:#000000;stroke-width:1.5;" width="211" x="19" y="86"/><rect fill="#FFFFFF" height="208" rx="12.5" ry="12.5" style="stroke:#FFFFFF;stroke-width:1.0;" width="205" x="22" y="115.4883"/><line style="stroke:#000000;stroke-width:1.5;" x1="19" x2="230" y1="112.4883" y2="112.4883"/><text fill="#000000" font-family="sans-serif" font-size="14" lengthAdjust="spacing" textLength="118" x="65.5" y="104.5352">create_my_server</text><rect fill="#FFFFFF" height="40" rx="12.5" ry="12.5" style="stroke:#0000FF;stroke-width:1.5;" width="139" x="57" y="124.4883"/><text fill="#000000" font-family="sans-serif" font-size="14" lengthAdjust="spacing" textLength="129" x="62" y="149.7793">my_server creating</text><rect fill="#ADD8E6" height="40" rx="12.5" ry="12.5" style="stroke:#0000FF;stroke-width:1.5;" width="191" x="31" y="200.4883"/><text fill="#000000" font-family="sans-serif" font-size="14" lengthAdjust="spacing" textLength="181" x="36" y="225.7793">my_server Standard.create</text><rect fill="#FFFFFF" height="40" rx="12.5" ry="12.5" style="stroke:#0000FF;stroke-width:1.5;" width="134" x="59.5" y="276.4883"/><text fill="#000000" font-family="sans-serif" font-size="14" lengthAdjust="spacing" textLength="124" x="64.5" y="301.7793">my_server created</text><!--MD5=[e83a82e35b7659981510b9af326f9704]
link step_parallel_deploy_create_my_server_my_server_creating to step_parallel_deploy_create_my_server_my_server_Standard.create--><path d="M126.5,164.8549 C126.5,174.2155 126.5,185.4103 126.5,195.2956 " fill="none" id="step_parallel_deploy_create_my_server_my_server_creating-to-step_parallel_deploy_create_my_server_my_server_Standard.create" style="stroke:#0000FF;stroke-width:1.0;"/><polygon fill="#0000FF" points="126.5,200.329,130.5,191.329,126.5,195.329,122.5,191.329,126.5,200.329" style="stroke:#0000FF;stroke-width:1.0;"/><!--MD5=[549320005cf2dee781b0d91f3469cf11]
link step_parallel_deploy_create_my_server_my_server_Standard.create to step_parallel_deploy_create_my_server_my_server_created--><path d="M126.5,240.8549 C126.5,250.2155 126.5,261.4103 126.5,271.2956 " fill="none" id="step_parallel_deploy_create_my_server_my_server_Standard.create-to-step_parallel_deploy_create_my_server_my_server_created" style="stroke:#0000FF;stroke-width:1.0;"/><polygon fill="#0000FF" points="126.5,276.329,130.5,267.329,126.5,271.329,122.5,267.329,126.5,276.329" style="stroke:#0000FF;stroke-width:1.0;"/><rect fill="#FFFFFF" height="88.4883" rx="12.5" ry="12.5" style="stroke:#000000;stroke-width:1.5;" width="192" x="28.5" y="386"/><rect fill="#FFFFFF" height="56" rx="12.5" ry="12.5" style="stroke:#FFFFFF;stroke-width:1.0;" width="186" x="31.5" y="415.4883"/><line style="stroke:#000000;stroke-width:1.5;" x1="28.5" x2="220.5" y1="412.4883" y2="412.4883"/><text fill="#000000" font-family="sans-serif" font-size="14" lengthAdjust="spacing" textLength="172" x="38.5" y="404.5352">pre_configure_my_server</text><rect fill="#FFFFFF" height="40" rx="12.5" ry="12.5" style="stroke:#0000FF;stroke-width:1.5;" width="163" x="40.5" y="424.4883"/><text fill="#000000" font-family="sans-serif" font-size="14" lengthAdjust="spacing" textLength="153" x="45.5" y="449.7793">my_server configuring</text><rect fill="#FFFFFF" height="88.4883" rx="12.5" ry="12.5" style="stroke:#000000;stroke-width:1.5;" width="235" x="7" y="534"/><rect fill="#FFFFFF" height="56" rx="12.5" ry="12.5" style="stroke:#FFFFFF;stroke-width:1.0;" width="229" x="10" y="563.4883"/><line style="stroke:#000000;stroke-width:1.5;" x1="7" x2="242" y1="560.4883" y2="560.4883"/><text fill="#000000" font-family="sans-serif" font-size="14" lengthAdjust="spacing" textLength="142" x="53.5" y="552.5352">configure_my_server</text><rect fill="#ADD8E6" height="40" rx="12.5" ry="12.5" style="stroke:#0000FF;stroke-width:1.5;" width="215" x="19" y="572.4883"/><text fill="#000000" font-family="sans-serif" font-size="14" lengthAdjust="spacing" textLength="205" x="24" y="597.7793">my_server Standard.configure</text><rect fill="#FFFFFF" height="88.4883" rx="12.5" ry="12.5" style="stroke:#000000;stroke-width:1.5;" width="199" x="25" y="682"/><rect fill="#FFFFFF" height="56" rx="12.5" ry="12.5" style="stroke:#FFFFFF;stroke-width:1.0;" width="193" x="28" y="711.4883"/><line style="stroke:#000000;stroke-width:1.5;" x1="25" x2="224" y1="708.4883" y2="708.4883"/><text fill="#000000" font-family="sans-serif" font-size="14" lengthAdjust="spacing" textLength="179" x="35" y="700.5352">post_configure_my_server</text><rect fill="#FFFFFF" height="40" rx="12.5" ry="12.5" style="stroke:#0000FF;stroke-width:1.5;" width="158" x="37" y="720.4883"/><text fill="#000000" font-family="sans-serif" font-size="14" lengthAdjust="spacing" textLength="148" x="42" y="745.7793">my_server configured</text><rect fill="#FFFFFF" height="240.4883" rx="12.5" ry="12.5" style="stroke:#000000;stroke-width:1.5;" width="200" x="24.5" y="830"/><rect fill="#FFFFFF" height="208" rx="12.5" ry="12.5" style="stroke:#FFFFFF;stroke-width:1.0;" width="194" x="27.5" y="859.4883"/><line style="stroke:#000000;stroke-width:1.5;" x1="24.5" x2="224.5" y1="856.4883" y2="856.4883"/><text fill="#000000" font-family="sans-serif" font-size="14" lengthAdjust="spacing" textLength="107" x="71" y="848.5352">start_my_server</text><rect fill="#FFFFFF" height="40" rx="12.5" ry="12.5" style="stroke:#0000FF;stroke-width:1.5;" width="136" x="58.5" y="868.4883"/><text fill="#000000" font-family="sans-serif" font-size="14" lengthAdjust="spacing" textLength="126" x="63.5" y="893.7793">my_server starting</text><rect fill="#ADD8E6" height="40" rx="12.5" ry="12.5" style="stroke:#0000FF;stroke-width:1.5;" width="180" x="36.5" y="944.4883"/><text fill="#000000" font-family="sans-serif" font-size="14" lengthAdjust="spacing" textLength="170" x="41.5" y="969.7793">my_server Standard.start</text><rect fill="#FFFFFF" height="40" rx="12.5" ry="12.5" style="stroke:#0000FF;stroke-width:1.5;" width="131" x="61" y="1020.4883"/><text fill="#000000" font-family="sans-serif" font-size="14" lengthAdjust="spacing" textLength="121" x="66" y="1045.7793">my_server started</text><!--MD5=[37116e874def27dbe2e8dae70381e7ac]
link step_parallel_deploy_start_my_server_my_server_starting to step_parallel_deploy_start_my_server_my_server_Standard.start--><path d="M126.5,908.8549 C126.5,918.2155 126.5,929.4103 126.5,939.2956 " fill="none" id="step_parallel_deploy_start_my_server_my_server_starting-to-step_parallel_deploy_start_my_server_my_server_Standard.start" style="stroke:#0000FF;stroke-width:1.0;"/><polygon fill="#0000FF" points="126.5,944.329,130.5,935.329,126.5,939.329,122.5,935.329,126.5,944.329" style="stroke:#0000FF;stroke-width:1.0;"/><!--MD5=[1e727238b517f6662f60c9c05d1c9973]
link step_parallel_deploy_start_my_server_my_server_Standard.start to step_parallel_deploy_start_my_server_my_server_started--><path d="M126.5,984.8549 C126.5,994.2155 126.5,1005.4103 126.5,1015.2956 " fill="none" id="step_parallel_deploy_start_my_server_my_server_Standard.start-to-step_parallel_deploy_start_my_server_my_server_started" style="stroke:#0000FF;stroke-width:1.0;"/><polygon fill="#0000FF" points="126.5,1020.329,130.5,1011.329,126.5,1015.329,122.5,1011.329,126.5,1020.329" style="stroke:#0000FF;stroke-width:1.0;"/><!--MD5=[097fd57af6d3c74ef807d568187d8751]
link step_parallel_deploy_create_my_server to step_parallel_deploy_pre_configure_my_server--><path d="M124.5,326.1966 C124.5,345.4052 124.5,364.2905 124.5,380.5764 " fill="none" id="step_parallel_deploy_create_my_server-to-step_parallel_deploy_pre_configure_my_server" style="stroke:#0000FF;stroke-width:1.0;"/><polygon fill="#0000FF" points="124.5,385.9964,128.5,376.9964,124.5,380.9964,120.5,376.9964,124.5,385.9964" style="stroke:#0000FF;stroke-width:1.0;"/><!--MD5=[710eca944572edc91fa45544c9b9ad70]
link step_parallel_deploy_pre_configure_my_server to step_parallel_deploy_configure_my_server--><path d="M124.5,474.0042 C124.5,491.1469 124.5,510.8749 124.5,528.5094 " fill="none" id="step_parallel_deploy_pre_configure_my_server-to-step_parallel_deploy_configure_my_server" style="stroke:#0000FF;stroke-width:1.0;"/><polygon fill="#0000FF" points="124.5,533.9098,128.5,524.9098,124.5,528.9098,120.5,524.9098,124.5,533.9098" style="stroke:#0000FF;stroke-width:1.0;"/><!--MD5=[1c13b77739414070d3db9e053ea77d14]
link step_parallel_deploy_configure_my_server to step_parallel_deploy_post_configure_my_server--><path d="M124.5,622.0042 C124.5,639.1469 124.5,658.8749 124.5,676.5094 " fill="none" id="step_parallel_deploy_configure_my_server-to-step_parallel_deploy_post_configure_my_server" style="stroke:#0000FF;stroke-width:1.0;"/><polygon fill="#0000FF" points="124.5,681.9098,128.5,672.9098,124.5,676.9098,120.5,672.9098,124.5,681.9098" style="stroke:#0000FF;stroke-width:1.0;"/><!--MD5=[8dc010e5369cfb0ea1de981ec4662ade]
link step_parallel_deploy_post_configure_my_server to step_parallel_deploy_start_my_server--><path d="M124.5,770.2552 C124.5,786.1051 124.5,804.8545 124.5,824.161 " fill="none" id="step_parallel_deploy_post_configure_my_server-to-step_parallel_deploy_start_my_server" style="stroke:#0000FF;stroke-width:1.0;"/><polygon fill="#0000FF" points="124.5,829.6193,128.5,820.6193,124.5,824.6193,120.5,820.6193,124.5,829.6193" style="stroke:#0000FF;stroke-width:1.0;"/><!--MD5=[04c26c5c5785bd263b543e34885e48e6]
link *start to step_parallel_deploy_create_my_server--><path d="M124.5,26.2152 C124.5,37.7525 124.5,57.9094 124.5,80.6599 " fill="none" id="*start-to-step_parallel_deploy_create_my_server" style="stroke:#0000FF;stroke-width:1.0;"/><polygon fill="#0000FF" points="124.5,85.8637,128.5,76.8637,124.5,80.8637,120.5,76.8637,124.5,85.8637" style="stroke:#0000FF;stroke-width:1.0;"/><!--MD5=[eeadca4a25f18c487458ec496d84b2e6]
link step_parallel_deploy_start_my_server to *end--><path d="M124.5,1070.0605 C124.5,1091.7796 124.5,1111.6166 124.5,1124.5716 " fill="none" id="step_parallel_deploy_start_my_server-to-*end" style="stroke:#0000FF;stroke-width:1.0;"/><polygon fill="#0000FF" points="124.5,1129.6879,128.5,1120.6879,124.5,1124.6879,120.5,1120.6879,124.5,1129.6879" style="stroke:#0000FF;stroke-width:1.0;"/><!--MD5=[da831b84136f3689c0aa191ef6e87078]
@startuml
hide empty description
skinparam shadowing false
skinparam state {
  ArrowColor blue
  BorderColor blue
  EndColor black
  StartColor green
  BackGroundColor<< step >> white
  BorderColor<< step >> black
  BackGroundColor<< delegate >> lightgrey
  BackGroundColor<< set_state >> white
  BackGroundColor<< call_operation >> lightblue
  BackGroundColor<< inline >> white
}
skinparam ActivityBarColor<<fork>> DarkGreen
skinparam ActivityBarColor<<join>> DarkOrange

state "create_my_server" as step_parallel_deploy_create_my_server << step >> {
  state "my_server creating" as step_parallel_deploy_create_my_server_my_server_creating << set_state >>
  state "my_server Standard.create" as step_parallel_deploy_create_my_server_my_server_Standard.create << call_operation >>
  state "my_server created" as step_parallel_deploy_create_my_server_my_server_created << set_state >>
  step_parallel_deploy_create_my_server_my_server_creating - -> step_parallel_deploy_create_my_server_my_server_Standard.create
  step_parallel_deploy_create_my_server_my_server_Standard.create - -> step_parallel_deploy_create_my_server_my_server_created
}
state "pre_configure_my_server" as step_parallel_deploy_pre_configure_my_server << step >> {
  state "my_server configuring" as step_parallel_deploy_pre_configure_my_server_my_server_configuring << set_state >>
}
state "configure_my_server" as step_parallel_deploy_configure_my_server << step >> {
  state "my_server Standard.configure" as step_parallel_deploy_configure_my_server_my_server_Standard.configure << call_operation >>
}
state "post_configure_my_server" as step_parallel_deploy_post_configure_my_server << step >> {
  state "my_server configured" as step_parallel_deploy_post_configure_my_server_my_server_configured << set_state >>
}
state "start_my_server" as step_parallel_deploy_start_my_server << step >> {
  state "my_server starting" as step_parallel_deploy_start_my_server_my_server_starting << set_state >>
  state "my_server Standard.start" as step_parallel_deploy_start_my_server_my_server_Standard.start << call_operation >>
  state "my_server started" as step_parallel_deploy_start_my_server_my_server_started << set_state >>
  step_parallel_deploy_start_my_server_my_server_starting - -> step_parallel_deploy_start_my_server_my_server_Standard.start
  step_parallel_deploy_start_my_server_my_server_Standard.start - -> step_parallel_deploy_start_my_server_my_server_started
}
step_parallel_deploy_create_my_server - -> step_parallel_deploy_pre_configure_my_server
step_parallel_deploy_pre_configure_my_server - -> step_parallel_deploy_configure_my_server
step_parallel_deploy_configure_my_server - -> step_parallel_deploy_post_configure_my_server
step_parallel_deploy_post_configure_my_server - -> step_parallel_deploy_start_my_server
[*] - -> step_parallel_deploy_create_my_server
step_parallel_deploy_start_my_server - -> [*]
@enduml

PlantUML version 1.2021.13(Mon Nov 01 12:38:45 CET 2021)
(GPL source distribution)
Java Runtime: Java(TM) SE Runtime Environment
JVM: Java HotSpot(TM) 64-Bit Server VM
Default Encoding: UTF-8
Language: fr
Country: FR
--></g></svg>