<?xml version="1.0" encoding="UTF-8" standalone="no"?><svg xmlns="http://www.w3.org/2000/svg" xmlns:xlink="http://www.w3.org/1999/xlink" contentScriptType="application/ecmascript" contentStyleType="text/css" height="2948px" preserveAspectRatio="none" style="width:579px;height:2948px;background:#FFFFFF;" version="1.1" viewBox="0 0 579 2948" width="579px" zoomAndPan="magnify"><defs/><g><rect fill="#006400" height="8" style="stroke:none;stroke-width:1.0;" width="80" x="244.5" y="1470"/><rect fill="#006400" height="8" style="stroke:none;stroke-width:1.0;" width="80" x="343.5" y="686"/><ellipse cx="383.5" cy="16" fill="#008000" rx="10" ry="10" style="stroke:none;stroke-width:1.0;"/><rect fill="#FF8C00" height="8" style="stroke:none;stroke-width:1.0;" width="80" x="285.5" y="2854"/><ellipse cx="325.5" cy="2932" rx="10" ry="10" style="stroke:#000000;stroke-width:1.0;fill:none;"/><ellipse cx="326" cy="2932.5" fill="#000000" rx="6" ry="6" style="stroke:none;stroke-width:1.0;"/><rect fill="#FFFFFF" height="240.4883" rx="12.5" ry="12.5" style="stroke:#000000;stroke-width:1.5;" width="151" x="244" y="754"/><rect fill="#FFFFFF" height="208" rx="12.5" ry="12.5" style="stroke:#FFFFFF;stroke-width:1.0;" width="145" x="247" y="783.4883"/><line style="stroke:#000000;stroke-width:1.5;" x1="244" x2="395" y1="780.4883" y2="780.4883"/><text fill="#000000" font-family="sans-serif" font-size="14" lengthAdjust="spacing" textLength="58" x="290.5" y="772.5352">stop_api</text><rect fill="#FFFFFF" height="40" rx="12.5" ry="12.5" style="stroke:#0000FF;stroke-width:1.5;" width="96" x="273.5" y="792.4883"/><text fill="#000000" font-family="sans-serif" font-size="14" lengthAdjust="spacing" textLength="86" x="278.5" y="817.7793">api stopping</text><rect fill="#ADD8E6" height="40" rx="12.5" ry="12.5" style="stroke:#0000FF;stroke-width:1.5;" width="131" x="256" y="868.4883"/><text fill="#000000" font-family="sans-serif" font-size="14" lengthAdjust="spacing" textLength="121" x="261" y="893.7793">api Standard.stop</text><rect fill="#FFFFFF" height="40" rx="12.5" ry="12.5" style="stroke:#0000FF;stroke-width:1.5;" width="91" x="276" y="944.4883"/><text fill="#000000" font-family="sans-serif" font-size="14" lengthAdjust="spacing" textLength="81" x="281" y="969.7793">api stopped</text><!--MD5=[8f11c6e06bb2a78e3bd654c8a26bf3b8]
link step_declarative_undeploy_stop_api_api_stopping to step_declarative_undeploy_stop_api_api_Standard.stop--><path d="M321.5,832.8549 C321.5,842.2155 321.5,853.4103 321.5,863.2956 " fill="none" id="step_declarative_undeploy_stop_api_api_stopping-to-step_declarative_undeploy_stop_api_api_Standard.stop" style="stroke:#0000FF;stroke-width:1.0;"/><polygon fill="#0000FF" points="321.5,868.329,325.5,859.329,321.5,863.329,317.5,859.329,321.5,868.329" style="stroke:#0000FF;stroke-width:1.0;"/><!--MD5=[8eb36393502af15592e821072d3f78e6]
link step_declarative_undeploy_stop_api_api_Standard.stop to step_declarative_undeploy_stop_api_api_stopped--><path d="M321.5,908.8549 C321.5,918.2155 321.5,929.4103 321.5,939.2956 " fill="none" id="step_declarative_undeploy_stop_api_api_Standard.stop-to-step_declarative_undeploy_stop_api_api_stopped" style="stroke:#0000FF;stroke-width:1.0;"/><polygon fill="#0000FF" points="321.5,944.329,325.5,935.329,321.5,939.329,317.5,935.329,321.5,944.329" style="stroke:#0000FF;stroke-width:1.0;"/><rect fill="#FFFFFF" height="240.4883" rx="12.5" ry="12.5" style="stroke:#000000;stroke-width:1.5;" width="163" x="203" y="1054"/><rect fill="#FFFFFF" height="208" rx="12.5" ry="12.5" style="stroke:#FFFFFF;stroke-width:1.0;" width="157" x="206" y="1083.4883"/><line style="stroke:#000000;stroke-width:1.5;" x1="203" x2="366" y1="1080.4883" y2="1080.4883"/><text fill="#000000" font-family="sans-serif" font-size="14" lengthAdjust="spacing" textLength="70" x="249.5" y="1072.5352">delete_api</text><rect fill="#FFFFFF" height="40" rx="12.5" ry="12.5" style="stroke:#0000FF;stroke-width:1.5;" width="91" x="241" y="1092.4883"/><text fill="#000000" font-family="sans-serif" font-size="14" lengthAdjust="spacing" textLength="81" x="246" y="1117.7793">api deleting</text><rect fill="#ADD8E6" height="40" rx="12.5" ry="12.5" style="stroke:#0000FF;stroke-width:1.5;" width="143" x="215" y="1168.4883"/><text fill="#000000" font-family="sans-serif" font-size="14" lengthAdjust="spacing" textLength="133" x="220" y="1193.7793">api Standard.delete</text><rect fill="#FFFFFF" height="40" rx="12.5" ry="12.5" style="stroke:#0000FF;stroke-width:1.5;" width="73" x="250" y="1244.4883"/><text fill="#000000" font-family="sans-serif" font-size="14" lengthAdjust="spacing" textLength="63" x="255" y="1269.7793">api initial</text><!--MD5=[626911b7a8d99125fe1335f99aad3ae4]
link step_declarative_undeploy_delete_api_api_deleting to step_declarative_undeploy_delete_api_api_Standard.delete--><path d="M286.5,1132.8549 C286.5,1142.2155 286.5,1153.4103 286.5,1163.2956 " fill="none" id="step_declarative_undeploy_delete_api_api_deleting-to-step_declarative_undeploy_delete_api_api_Standard.delete" style="stroke:#0000FF;stroke-width:1.0;"/><polygon fill="#0000FF" points="286.5,1168.329,290.5,1159.329,286.5,1163.329,282.5,1159.329,286.5,1168.329" style="stroke:#0000FF;stroke-width:1.0;"/><!--MD5=[6352ad9cf347feb6363d4394f2b5c18a]
link step_declarative_undeploy_delete_api_api_Standard.delete to step_declarative_undeploy_delete_api_api_initial--><path d="M286.5,1208.8549 C286.5,1218.2155 286.5,1229.4103 286.5,1239.2956 " fill="none" id="step_declarative_undeploy_delete_api_api_Standard.delete-to-step_declarative_undeploy_delete_api_api_initial" style="stroke:#0000FF;stroke-width:1.0;"/><polygon fill="#0000FF" points="286.5,1244.329,290.5,1235.329,286.5,1239.329,282.5,1235.329,286.5,1244.329" style="stroke:#0000FF;stroke-width:1.0;"/><rect fill="#FFFFFF" height="240.4883" rx="12.5" ry="12.5" style="stroke:#000000;stroke-width:1.5;" width="152" x="307.5" y="86"/><rect fill="#FFFFFF" height="208" rx="12.5" ry="12.5" style="stroke:#FFFFFF;stroke-width:1.0;" width="146" x="310.5" y="115.4883"/><line style="stroke:#000000;stroke-width:1.5;" x1="307.5" x2="459.5" y1="112.4883" y2="112.4883"/><text fill="#000000" font-family="sans-serif" font-size="14" lengthAdjust="spacing" textLength="59" x="354" y="104.5352">stop_gui</text><rect fill="#FFFFFF" height="40" rx="12.5" ry="12.5" style="stroke:#0000FF;stroke-width:1.5;" width="97" x="337" y="124.4883"/><text fill="#000000" font-family="sans-serif" font-size="14" lengthAdjust="spacing" textLength="87" x="342" y="149.7793">gui stopping</text><rect fill="#ADD8E6" height="40" rx="12.5" ry="12.5" style="stroke:#0000FF;stroke-width:1.5;" width="132" x="319.5" y="200.4883"/><text fill="#000000" font-family="sans-serif" font-size="14" lengthAdjust="spacing" textLength="122" x="324.5" y="225.7793">gui Standard.stop</text><rect fill="#FFFFFF" height="40" rx="12.5" ry="12.5" style="stroke:#0000FF;stroke-width:1.5;" width="92" x="339.5" y="276.4883"/><text fill="#000000" font-family="sans-serif" font-size="14" lengthAdjust="spacing" textLength="82" x="344.5" y="301.7793">gui stopped</text><!--MD5=[cfef05b7b4acb590658e0de7cbff99a8]
link step_declarative_undeploy_stop_gui_gui_stopping to step_declarative_undeploy_stop_gui_gui_Standard.stop--><path d="M385.5,164.8549 C385.5,174.2155 385.5,185.4103 385.5,195.2956 " fill="none" id="step_declarative_undeploy_stop_gui_gui_stopping-to-step_declarative_undeploy_stop_gui_gui_Standard.stop" style="stroke:#0000FF;stroke-width:1.0;"/><polygon fill="#0000FF" points="385.5,200.329,389.5,191.329,385.5,195.329,381.5,191.329,385.5,200.329" style="stroke:#0000FF;stroke-width:1.0;"/><!--MD5=[66d530612c13d35cfda20c11f9bedf47]
link step_declarative_undeploy_stop_gui_gui_Standard.stop to step_declarative_undeploy_stop_gui_gui_stopped--><path d="M385.5,240.8549 C385.5,250.2155 385.5,261.4103 385.5,271.2956 " fill="none" id="step_declarative_undeploy_stop_gui_gui_Standard.stop-to-step_declarative_undeploy_stop_gui_gui_stopped" style="stroke:#0000FF;stroke-width:1.0;"/><polygon fill="#0000FF" points="385.5,276.329,389.5,267.329,385.5,271.329,381.5,267.329,385.5,276.329" style="stroke:#0000FF;stroke-width:1.0;"/><rect fill="#FFFFFF" height="240.4883" rx="12.5" ry="12.5" style="stroke:#000000;stroke-width:1.5;" width="164" x="301.5" y="386"/><rect fill="#FFFFFF" height="208" rx="12.5" ry="12.5" style="stroke:#FFFFFF;stroke-width:1.0;" width="158" x="304.5" y="415.4883"/><line style="stroke:#000000;stroke-width:1.5;" x1="301.5" x2="465.5" y1="412.4883" y2="412.4883"/><text fill="#000000" font-family="sans-serif" font-size="14" lengthAdjust="spacing" textLength="71" x="348" y="404.5352">delete_gui</text><rect fill="#FFFFFF" height="40" rx="12.5" ry="12.5" style="stroke:#0000FF;stroke-width:1.5;" width="92" x="339.5" y="424.4883"/><text fill="#000000" font-family="sans-serif" font-size="14" lengthAdjust="spacing" textLength="82" x="344.5" y="449.7793">gui deleting</text><rect fill="#ADD8E6" height="40" rx="12.5" ry="12.5" style="stroke:#0000FF;stroke-width:1.5;" width="144" x="313.5" y="500.4883"/><text fill="#000000" font-family="sans-serif" font-size="14" lengthAdjust="spacing" textLength="134" x="318.5" y="525.7793">gui Standard.delete</text><rect fill="#FFFFFF" height="40" rx="12.5" ry="12.5" style="stroke:#0000FF;stroke-width:1.5;" width="74" x="348.5" y="576.4883"/><text fill="#000000" font-family="sans-serif" font-size="14" lengthAdjust="spacing" textLength="64" x="353.5" y="601.7793">gui initial</text><!--MD5=[4fabccb219e698dac93bbe10cece3fb8]
link step_declarative_undeploy_delete_gui_gui_deleting to step_declarative_undeploy_delete_gui_gui_Standard.delete--><path d="M385.5,464.8549 C385.5,474.2155 385.5,485.4103 385.5,495.2956 " fill="none" id="step_declarative_undeploy_delete_gui_gui_deleting-to-step_declarative_undeploy_delete_gui_gui_Standard.delete" style="stroke:#0000FF;stroke-width:1.0;"/><polygon fill="#0000FF" points="385.5,500.329,389.5,491.329,385.5,495.329,381.5,491.329,385.5,500.329" style="stroke:#0000FF;stroke-width:1.0;"/><!--MD5=[7251c65bc2a6e8fda49710d1b3cddf01]
link step_declarative_undeploy_delete_gui_gui_Standard.delete to step_declarative_undeploy_delete_gui_gui_initial--><path d="M385.5,540.8549 C385.5,550.2155 385.5,561.4103 385.5,571.2956 " fill="none" id="step_declarative_undeploy_delete_gui_gui_Standard.delete-to-step_declarative_undeploy_delete_gui_gui_initial" style="stroke:#0000FF;stroke-width:1.0;"/><polygon fill="#0000FF" points="385.5,576.329,389.5,567.329,385.5,571.329,381.5,567.329,385.5,576.329" style="stroke:#0000FF;stroke-width:1.0;"/><rect fill="#FFFFFF" height="240.4883" rx="12.5" ry="12.5" style="stroke:#000000;stroke-width:1.5;" width="175" x="15" y="1654"/><rect fill="#FFFFFF" height="208" rx="12.5" ry="12.5" style="stroke:#FFFFFF;stroke-width:1.0;" width="169" x="18" y="1683.4883"/><line style="stroke:#000000;stroke-width:1.5;" x1="15" x2="190" y1="1680.4883" y2="1680.4883"/><text fill="#000000" font-family="sans-serif" font-size="14" lengthAdjust="spacing" textLength="82" x="61.5" y="1672.5352">stop_maven</text><rect fill="#FFFFFF" height="40" rx="12.5" ry="12.5" style="stroke:#0000FF;stroke-width:1.5;" width="120" x="44.5" y="1692.4883"/><text fill="#000000" font-family="sans-serif" font-size="14" lengthAdjust="spacing" textLength="110" x="49.5" y="1717.7793">maven stopping</text><rect fill="#ADD8E6" height="40" rx="12.5" ry="12.5" style="stroke:#0000FF;stroke-width:1.5;" width="155" x="27" y="1768.4883"/><text fill="#000000" font-family="sans-serif" font-size="14" lengthAdjust="spacing" textLength="145" x="32" y="1793.7793">maven Standard.stop</text><rect fill="#FFFFFF" height="40" rx="12.5" ry="12.5" style="stroke:#0000FF;stroke-width:1.5;" width="115" x="47" y="1844.4883"/><text fill="#000000" font-family="sans-serif" font-size="14" lengthAdjust="spacing" textLength="105" x="52" y="1869.7793">maven stopped</text><!--MD5=[058050ad761dc3c5eeb023b754eea642]
link step_declarative_undeploy_stop_maven_maven_stopping to step_declarative_undeploy_stop_maven_maven_Standard.stop--><path d="M104.5,1732.8549 C104.5,1742.2155 104.5,1753.4103 104.5,1763.2956 " fill="none" id="step_declarative_undeploy_stop_maven_maven_stopping-to-step_declarative_undeploy_stop_maven_maven_Standard.stop" style="stroke:#0000FF;stroke-width:1.0;"/><polygon fill="#0000FF" points="104.5,1768.329,108.5,1759.329,104.5,1763.329,100.5,1759.329,104.5,1768.329" style="stroke:#0000FF;stroke-width:1.0;"/><!--MD5=[db1e9a7b94a34e19cb2edb3c91beb2b2]
link step_declarative_undeploy_stop_maven_maven_Standard.stop to step_declarative_undeploy_stop_maven_maven_stopped--><path d="M104.5,1808.8549 C104.5,1818.2155 104.5,1829.4103 104.5,1839.2956 " fill="none" id="step_declarative_undeploy_stop_maven_maven_Standard.stop-to-step_declarative_undeploy_stop_maven_maven_stopped" style="stroke:#0000FF;stroke-width:1.0;"/><polygon fill="#0000FF" points="104.5,1844.329,108.5,1835.329,104.5,1839.329,100.5,1835.329,104.5,1844.329" style="stroke:#0000FF;stroke-width:1.0;"/><rect fill="#FFFFFF" height="240.4883" rx="12.5" ry="12.5" style="stroke:#000000;stroke-width:1.5;" width="187" x="7" y="2254"/><rect fill="#FFFFFF" height="208" rx="12.5" ry="12.5" style="stroke:#FFFFFF;stroke-width:1.0;" width="181" x="10" y="2283.4883"/><line style="stroke:#000000;stroke-width:1.5;" x1="7" x2="194" y1="2280.4883" y2="2280.4883"/><text fill="#000000" font-family="sans-serif" font-size="14" lengthAdjust="spacing" textLength="94" x="53.5" y="2272.5352">delete_maven</text><rect fill="#FFFFFF" height="40" rx="12.5" ry="12.5" style="stroke:#0000FF;stroke-width:1.5;" width="115" x="45" y="2292.4883"/><text fill="#000000" font-family="sans-serif" font-size="14" lengthAdjust="spacing" textLength="105" x="50" y="2317.7793">maven deleting</text><rect fill="#ADD8E6" height="40" rx="12.5" ry="12.5" style="stroke:#0000FF;stroke-width:1.5;" width="167" x="19" y="2368.4883"/><text fill="#000000" font-family="sans-serif" font-size="14" lengthAdjust="spacing" textLength="157" x="24" y="2393.7793">maven Standard.delete</text><rect fill="#FFFFFF" height="40" rx="12.5" ry="12.5" style="stroke:#0000FF;stroke-width:1.5;" width="97" x="54" y="2444.4883"/><text fill="#000000" font-family="sans-serif" font-size="14" lengthAdjust="spacing" textLength="87" x="59" y="2469.7793">maven initial</text><!--MD5=[d145536be3d21ebc6f475b294009cd19]
link step_declarative_undeploy_delete_maven_maven_deleting to step_declarative_undeploy_delete_maven_maven_Standard.delete--><path d="M102.5,2332.8549 C102.5,2342.2155 102.5,2353.4103 102.5,2363.2956 " fill="none" id="step_declarative_undeploy_delete_maven_maven_deleting-to-step_declarative_undeploy_delete_maven_maven_Standard.delete" style="stroke:#0000FF;stroke-width:1.0;"/><polygon fill="#0000FF" points="102.5,2368.329,106.5,2359.329,102.5,2363.329,98.5,2359.329,102.5,2368.329" style="stroke:#0000FF;stroke-width:1.0;"/><!--MD5=[a02a6a2dc3534e5f62573100b787e296]
link step_declarative_undeploy_delete_maven_maven_Standard.delete to step_declarative_undeploy_delete_maven_maven_initial--><path d="M102.5,2408.8549 C102.5,2418.2155 102.5,2429.4103 102.5,2439.2956 " fill="none" id="step_declarative_undeploy_delete_maven_maven_Standard.delete-to-step_declarative_undeploy_delete_maven_maven_initial" style="stroke:#0000FF;stroke-width:1.0;"/><polygon fill="#0000FF" points="102.5,2444.329,106.5,2435.329,102.5,2439.329,98.5,2435.329,102.5,2444.329" style="stroke:#0000FF;stroke-width:1.0;"/><rect fill="#FFFFFF" height="240.4883" rx="12.5" ry="12.5" style="stroke:#000000;stroke-width:1.5;" width="165" x="401" y="1054"/><rect fill="#FFFFFF" height="208" rx="12.5" ry="12.5" style="stroke:#FFFFFF;stroke-width:1.0;" width="159" x="404" y="1083.4883"/><line style="stroke:#000000;stroke-width:1.5;" x1="401" x2="566" y1="1080.4883" y2="1080.4883"/><text fill="#000000" font-family="sans-serif" font-size="14" lengthAdjust="spacing" textLength="72" x="447.5" y="1072.5352">stop_node</text><rect fill="#FFFFFF" height="40" rx="12.5" ry="12.5" style="stroke:#0000FF;stroke-width:1.5;" width="110" x="430.5" y="1092.4883"/><text fill="#000000" font-family="sans-serif" font-size="14" lengthAdjust="spacing" textLength="100" x="435.5" y="1117.7793">node stopping</text><rect fill="#ADD8E6" height="40" rx="12.5" ry="12.5" style="stroke:#0000FF;stroke-width:1.5;" width="145" x="413" y="1168.4883"/><text fill="#000000" font-family="sans-serif" font-size="14" lengthAdjust="spacing" textLength="135" x="418" y="1193.7793">node Standard.stop</text><rect fill="#FFFFFF" height="40" rx="12.5" ry="12.5" style="stroke:#0000FF;stroke-width:1.5;" width="105" x="433" y="1244.4883"/><text fill="#000000" font-family="sans-serif" font-size="14" lengthAdjust="spacing" textLength="95" x="438" y="1269.7793">node stopped</text><!--MD5=[3a8dc8485137c8cc04d5ac101361b083]
link step_declarative_undeploy_stop_node_node_stopping to step_declarative_undeploy_stop_node_node_Standard.stop--><path d="M485.5,1132.8549 C485.5,1142.2155 485.5,1153.4103 485.5,1163.2956 " fill="none" id="step_declarative_undeploy_stop_node_node_stopping-to-step_declarative_undeploy_stop_node_node_Standard.stop" style="stroke:#0000FF;stroke-width:1.0;"/><polygon fill="#0000FF" points="485.5,1168.329,489.5,1159.329,485.5,1163.329,481.5,1159.329,485.5,1168.329" style="stroke:#0000FF;stroke-width:1.0;"/><!--MD5=[da05e4e631c606b29123926f65fe7ad7]
link step_declarative_undeploy_stop_node_node_Standard.stop to step_declarative_undeploy_stop_node_node_stopped--><path d="M485.5,1208.8549 C485.5,1218.2155 485.5,1229.4103 485.5,1239.2956 " fill="none" id="step_declarative_undeploy_stop_node_node_Standard.stop-to-step_declarative_undeploy_stop_node_node_stopped" style="stroke:#0000FF;stroke-width:1.0;"/><polygon fill="#0000FF" points="485.5,1244.329,489.5,1235.329,485.5,1239.329,481.5,1235.329,485.5,1244.329" style="stroke:#0000FF;stroke-width:1.0;"/><rect fill="#FFFFFF" height="240.4883" rx="12.5" ry="12.5" style="stroke:#000000;stroke-width:1.5;" width="177" x="395" y="1354"/><rect fill="#FFFFFF" height="208" rx="12.5" ry="12.5" style="stroke:#FFFFFF;stroke-width:1.0;" width="171" x="398" y="1383.4883"/><line style="stroke:#000000;stroke-width:1.5;" x1="395" x2="572" y1="1380.4883" y2="1380.4883"/><text fill="#000000" font-family="sans-serif" font-size="14" lengthAdjust="spacing" textLength="84" x="441.5" y="1372.5352">delete_node</text><rect fill="#FFFFFF" height="40" rx="12.5" ry="12.5" style="stroke:#0000FF;stroke-width:1.5;" width="105" x="433" y="1392.4883"/><text fill="#000000" font-family="sans-serif" font-size="14" lengthAdjust="spacing" textLength="95" x="438" y="1417.7793">node deleting</text><rect fill="#ADD8E6" height="40" rx="12.5" ry="12.5" style="stroke:#0000FF;stroke-width:1.5;" width="157" x="407" y="1468.4883"/><text fill="#000000" font-family="sans-serif" font-size="14" lengthAdjust="spacing" textLength="147" x="412" y="1493.7793">node Standard.delete</text><rect fill="#FFFFFF" height="40" rx="12.5" ry="12.5" style="stroke:#0000FF;stroke-width:1.5;" width="87" x="442" y="1544.4883"/><text fill="#000000" font-family="sans-serif" font-size="14" lengthAdjust="spacing" textLength="77" x="447" y="1569.7793">node initial</text><!--MD5=[df02d23471deddc7daca9c0a801b17f5]
link step_declarative_undeploy_delete_node_node_deleting to step_declarative_undeploy_delete_node_node_Standard.delete--><path d="M485.5,1432.8549 C485.5,1442.2155 485.5,1453.4103 485.5,1463.2956 " fill="none" id="step_declarative_undeploy_delete_node_node_deleting-to-step_declarative_undeploy_delete_node_node_Standard.delete" style="stroke:#0000FF;stroke-width:1.0;"/><polygon fill="#0000FF" points="485.5,1468.329,489.5,1459.329,485.5,1463.329,481.5,1459.329,485.5,1468.329" style="stroke:#0000FF;stroke-width:1.0;"/><!--MD5=[f93c2131372bd803351be0aab2b0c360]
link step_declarative_undeploy_delete_node_node_Standard.delete to step_declarative_undeploy_delete_node_node_initial--><path d="M485.5,1508.8549 C485.5,1518.2155 485.5,1529.4103 485.5,1539.2956 " fill="none" id="step_declarative_undeploy_delete_node_node_Standard.delete-to-step_declarative_undeploy_delete_node_node_initial" style="stroke:#0000FF;stroke-width:1.0;"/><polygon fill="#0000FF" points="485.5,1544.329,489.5,1535.329,485.5,1539.329,481.5,1535.329,485.5,1544.329" style="stroke:#0000FF;stroke-width:1.0;"/><rect fill="#FFFFFF" height="240.4883" rx="12.5" ry="12.5" style="stroke:#000000;stroke-width:1.5;" width="197" x="225" y="1654"/><rect fill="#FFFFFF" height="208" rx="12.5" ry="12.5" style="stroke:#FFFFFF;stroke-width:1.0;" width="191" x="228" y="1683.4883"/><line style="stroke:#000000;stroke-width:1.5;" x1="225" x2="422" y1="1680.4883" y2="1680.4883"/><text fill="#000000" font-family="sans-serif" font-size="14" lengthAdjust="spacing" textLength="104" x="271.5" y="1672.5352">stop_mongodb</text><rect fill="#FFFFFF" height="40" rx="12.5" ry="12.5" style="stroke:#0000FF;stroke-width:1.5;" width="142" x="254.5" y="1692.4883"/><text fill="#000000" font-family="sans-serif" font-size="14" lengthAdjust="spacing" textLength="132" x="259.5" y="1717.7793">mongodb stopping</text><rect fill="#ADD8E6" height="40" rx="12.5" ry="12.5" style="stroke:#0000FF;stroke-width:1.5;" width="177" x="237" y="1768.4883"/><text fill="#000000" font-family="sans-serif" font-size="14" lengthAdjust="spacing" textLength="167" x="242" y="1793.7793">mongodb Standard.stop</text><rect fill="#FFFFFF" height="40" rx="12.5" ry="12.5" style="stroke:#0000FF;stroke-width:1.5;" width="137" x="257" y="1844.4883"/><text fill="#000000" font-family="sans-serif" font-size="14" lengthAdjust="spacing" textLength="127" x="262" y="1869.7793">mongodb stopped</text><!--MD5=[df65b04a8b5e2e235d24177999f01c5a]
link step_declarative_undeploy_stop_mongodb_mongodb_stopping to step_declarative_undeploy_stop_mongodb_mongodb_Standard.stop--><path d="M325.5,1732.8549 C325.5,1742.2155 325.5,1753.4103 325.5,1763.2956 " fill="none" id="step_declarative_undeploy_stop_mongodb_mongodb_stopping-to-step_declarative_undeploy_stop_mongodb_mongodb_Standard.stop" style="stroke:#0000FF;stroke-width:1.0;"/><polygon fill="#0000FF" points="325.5,1768.329,329.5,1759.329,325.5,1763.329,321.5,1759.329,325.5,1768.329" style="stroke:#0000FF;stroke-width:1.0;"/><!--MD5=[fc76aef67f53356b5aacf49c7765155d]
link step_declarative_undeploy_stop_mongodb_mongodb_Standard.stop to step_declarative_undeploy_stop_mongodb_mongodb_stopped--><path d="M325.5,1808.8549 C325.5,1818.2155 325.5,1829.4103 325.5,1839.2956 " fill="none" id="step_declarative_undeploy_stop_mongodb_mongodb_Standard.stop-to-step_declarative_undeploy_stop_mongodb_mongodb_stopped" style="stroke:#0000FF;stroke-width:1.0;"/><polygon fill="#0000FF" points="325.5,1844.329,329.5,1835.329,325.5,1839.329,321.5,1835.329,325.5,1844.329" style="stroke:#0000FF;stroke-width:1.0;"/><rect fill="#FFFFFF" height="240.4883" rx="12.5" ry="12.5" style="stroke:#000000;stroke-width:1.5;" width="209" x="221" y="1954"/><rect fill="#FFFFFF" height="208" rx="12.5" ry="12.5" style="stroke:#FFFFFF;stroke-width:1.0;" width="203" x="224" y="1983.4883"/><line style="stroke:#000000;stroke-width:1.5;" x1="221" x2="430" y1="1980.4883" y2="1980.4883"/><text fill="#000000" font-family="sans-serif" font-size="14" lengthAdjust="spacing" textLength="116" x="267.5" y="1972.5352">delete_mongodb</text><rect fill="#FFFFFF" height="40" rx="12.5" ry="12.5" style="stroke:#0000FF;stroke-width:1.5;" width="137" x="259" y="1992.4883"/><text fill="#000000" font-family="sans-serif" font-size="14" lengthAdjust="spacing" textLength="127" x="264" y="2017.7793">mongodb deleting</text><rect fill="#ADD8E6" height="40" rx="12.5" ry="12.5" style="stroke:#0000FF;stroke-width:1.5;" width="189" x="233" y="2068.4883"/><text fill="#000000" font-family="sans-serif" font-size="14" lengthAdjust="spacing" textLength="179" x="238" y="2093.7793">mongodb Standard.delete</text><rect fill="#FFFFFF" height="40" rx="12.5" ry="12.5" style="stroke:#0000FF;stroke-width:1.5;" width="119" x="268" y="2144.4883"/><text fill="#000000" font-family="sans-serif" font-size="14" lengthAdjust="spacing" textLength="109" x="273" y="2169.7793">mongodb initial</text><!--MD5=[7fb89d49fdd9c67ed0e0a061327c4da5]
link step_declarative_undeploy_delete_mongodb_mongodb_deleting to step_declarative_undeploy_delete_mongodb_mongodb_Standard.delete--><path d="M327.5,2032.8549 C327.5,2042.2155 327.5,2053.4103 327.5,2063.2956 " fill="none" id="step_declarative_undeploy_delete_mongodb_mongodb_deleting-to-step_declarative_undeploy_delete_mongodb_mongodb_Standard.delete" style="stroke:#0000FF;stroke-width:1.0;"/><polygon fill="#0000FF" points="327.5,2068.329,331.5,2059.329,327.5,2063.329,323.5,2059.329,327.5,2068.329" style="stroke:#0000FF;stroke-width:1.0;"/><!--MD5=[00dbf98eadb7ee0b000fca046383b45d]
link step_declarative_undeploy_delete_mongodb_mongodb_Standard.delete to step_declarative_undeploy_delete_mongodb_mongodb_initial--><path d="M327.5,2108.8549 C327.5,2118.2155 327.5,2129.4103 327.5,2139.2956 " fill="none" id="step_declarative_undeploy_delete_mongodb_mongodb_Standard.delete-to-step_declarative_undeploy_delete_mongodb_mongodb_initial" style="stroke:#0000FF;stroke-width:1.0;"/><polygon fill="#0000FF" points="327.5,2144.329,331.5,2135.329,327.5,2139.329,323.5,2135.329,327.5,2144.329" style="stroke:#0000FF;stroke-width:1.0;"/><rect fill="#FFFFFF" height="240.4883" rx="12.5" ry="12.5" style="stroke:#000000;stroke-width:1.5;" width="198" x="229.5" y="2254"/><rect fill="#FFFFFF" height="208" rx="12.5" ry="12.5" style="stroke:#FFFFFF;stroke-width:1.0;" width="192" x="232.5" y="2283.4883"/><line style="stroke:#000000;stroke-width:1.5;" x1="229.5" x2="427.5" y1="2280.4883" y2="2280.4883"/><text fill="#000000" font-family="sans-serif" font-size="14" lengthAdjust="spacing" textLength="105" x="276" y="2272.5352">stop_dbvolume</text><rect fill="#FFFFFF" height="40" rx="12.5" ry="12.5" style="stroke:#0000FF;stroke-width:1.5;" width="143" x="259" y="2292.4883"/><text fill="#000000" font-family="sans-serif" font-size="14" lengthAdjust="spacing" textLength="133" x="264" y="2317.7793">dbvolume stopping</text><rect fill="#ADD8E6" height="40" rx="12.5" ry="12.5" style="stroke:#0000FF;stroke-width:1.5;" width="178" x="241.5" y="2368.4883"/><text fill="#000000" font-family="sans-serif" font-size="14" lengthAdjust="spacing" textLength="168" x="246.5" y="2393.7793">dbvolume Standard.stop</text><rect fill="#FFFFFF" height="40" rx="12.5" ry="12.5" style="stroke:#0000FF;stroke-width:1.5;" width="138" x="261.5" y="2444.4883"/><text fill="#000000" font-family="sans-serif" font-size="14" lengthAdjust="spacing" textLength="128" x="266.5" y="2469.7793">dbvolume stopped</text><!--MD5=[4be0785c4f97b5309c6f44133825e12a]
link step_declarative_undeploy_stop_dbvolume_dbvolume_stopping to step_declarative_undeploy_stop_dbvolume_dbvolume_Standard.stop--><path d="M330.5,2332.8549 C330.5,2342.2155 330.5,2353.4103 330.5,2363.2956 " fill="none" id="step_declarative_undeploy_stop_dbvolume_dbvolume_stopping-to-step_declarative_undeploy_stop_dbvolume_dbvolume_Standard.stop" style="stroke:#0000FF;stroke-width:1.0;"/><polygon fill="#0000FF" points="330.5,2368.329,334.5,2359.329,330.5,2363.329,326.5,2359.329,330.5,2368.329" style="stroke:#0000FF;stroke-width:1.0;"/><!--MD5=[9f3cdf0b78808d1861258a7a13c6f6a9]
link step_declarative_undeploy_stop_dbvolume_dbvolume_Standard.stop to step_declarative_undeploy_stop_dbvolume_dbvolume_stopped--><path d="M330.5,2408.8549 C330.5,2418.2155 330.5,2429.4103 330.5,2439.2956 " fill="none" id="step_declarative_undeploy_stop_dbvolume_dbvolume_Standard.stop-to-step_declarative_undeploy_stop_dbvolume_dbvolume_stopped" style="stroke:#0000FF;stroke-width:1.0;"/><polygon fill="#0000FF" points="330.5,2444.329,334.5,2435.329,330.5,2439.329,326.5,2435.329,330.5,2444.329" style="stroke:#0000FF;stroke-width:1.0;"/><rect fill="#FFFFFF" height="240.4883" rx="12.5" ry="12.5" style="stroke:#000000;stroke-width:1.5;" width="210" x="220.5" y="2554"/><rect fill="#FFFFFF" height="208" rx="12.5" ry="12.5" style="stroke:#FFFFFF;stroke-width:1.0;" width="204" x="223.5" y="2583.4883"/><line style="stroke:#000000;stroke-width:1.5;" x1="220.5" x2="430.5" y1="2580.4883" y2="2580.4883"/><text fill="#000000" font-family="sans-serif" font-size="14" lengthAdjust="spacing" textLength="117" x="267" y="2572.5352">delete_dbvolume</text><rect fill="#FFFFFF" height="40" rx="12.5" ry="12.5" style="stroke:#0000FF;stroke-width:1.5;" width="138" x="258.5" y="2592.4883"/><text fill="#000000" font-family="sans-serif" font-size="14" lengthAdjust="spacing" textLength="128" x="263.5" y="2617.7793">dbvolume deleting</text><rect fill="#ADD8E6" height="40" rx="12.5" ry="12.5" style="stroke:#0000FF;stroke-width:1.5;" width="190" x="232.5" y="2668.4883"/><text fill="#000000" font-family="sans-serif" font-size="14" lengthAdjust="spacing" textLength="180" x="237.5" y="2693.7793">dbvolume Standard.delete</text><rect fill="#FFFFFF" height="40" rx="12.5" ry="12.5" style="stroke:#0000FF;stroke-width:1.5;" width="120" x="267.5" y="2744.4883"/><text fill="#000000" font-family="sans-serif" font-size="14" lengthAdjust="spacing" textLength="110" x="272.5" y="2769.7793">dbvolume initial</text><!--MD5=[d0356693b2faed49850cc6271ccebe51]
link step_declarative_undeploy_delete_dbvolume_dbvolume_deleting to step_declarative_undeploy_delete_dbvolume_dbvolume_Standard.delete--><path d="M327.5,2632.8549 C327.5,2642.2155 327.5,2653.4103 327.5,2663.2956 " fill="none" id="step_declarative_undeploy_delete_dbvolume_dbvolume_deleting-to-step_declarative_undeploy_delete_dbvolume_dbvolume_Standard.delete" style="stroke:#0000FF;stroke-width:1.0;"/><polygon fill="#0000FF" points="327.5,2668.329,331.5,2659.329,327.5,2663.329,323.5,2659.329,327.5,2668.329" style="stroke:#0000FF;stroke-width:1.0;"/><!--MD5=[e8cd0cf4a19d62928f94973a9c7c546f]
link step_declarative_undeploy_delete_dbvolume_dbvolume_Standard.delete to step_declarative_undeploy_delete_dbvolume_dbvolume_initial--><path d="M327.5,2708.8549 C327.5,2718.2155 327.5,2729.4103 327.5,2739.2956 " fill="none" id="step_declarative_undeploy_delete_dbvolume_dbvolume_Standard.delete-to-step_declarative_undeploy_delete_dbvolume_dbvolume_initial" style="stroke:#0000FF;stroke-width:1.0;"/><polygon fill="#0000FF" points="327.5,2744.329,331.5,2735.329,327.5,2739.329,323.5,2735.329,327.5,2744.329" style="stroke:#0000FF;stroke-width:1.0;"/><!--MD5=[67fb2e6cf2fb153cfc85ba50e3be9c92]
link step_declarative_undeploy_stop_api to step_declarative_undeploy_delete_api--><path d="M305.4658,994.2929 C303.3798,1012.1733 301.2253,1030.6404 299.1274,1048.6221 " fill="none" id="step_declarative_undeploy_stop_api-to-step_declarative_undeploy_delete_api" style="stroke:#0000FF;stroke-width:1.0;"/><polygon fill="#0000FF" points="298.5373,1053.6801,303.5533,1045.2043,299.1167,1048.7138,295.6072,1044.2772,298.5373,1053.6801" style="stroke:#0000FF;stroke-width:1.0;"/><!--MD5=[d90f8873a2066385e64190c6ccb06378]
link step_declarative_undeploy_delete_api to step_declarative_undeploy_delete_api_fork--><path d="M284.5,1294.2929 C284.5,1362.1875 284.5,1438.5409 284.5,1464.6622 " fill="none" id="step_declarative_undeploy_delete_api-to-step_declarative_undeploy_delete_api_fork" style="stroke:#0000FF;stroke-width:1.0;"/><polygon fill="#0000FF" points="284.5,1469.7015,288.5,1460.7015,284.5,1464.7015,280.5,1460.7015,284.5,1469.7015" style="stroke:#0000FF;stroke-width:1.0;"/><!--MD5=[d89de45c632616648b09a311124bf349]
link step_declarative_undeploy_delete_api_fork to step_declarative_undeploy_stop_maven--><path d="M281.9272,1478.2409 C270.3413,1497.3385 221.6728,1577.5613 177.9436,1649.6424 " fill="none" id="step_declarative_undeploy_delete_api_fork-to-step_declarative_undeploy_stop_maven" style="stroke:#0000FF;stroke-width:1.0;"/><polygon fill="#0000FF" points="175.3365,1653.9398,183.4245,1648.3198,177.9299,1649.665,176.5848,1644.1704,175.3365,1653.9398" style="stroke:#0000FF;stroke-width:1.0;"/><!--MD5=[f46d4c2cea95066ccc43b321a74584b8]
link step_declarative_undeploy_delete_api_fork to step_declarative_undeploy_stop_mongodb--><path d="M285.0513,1478.2409 C287.5241,1497.2624 297.88,1576.923 307.2215,1648.7805 " fill="none" id="step_declarative_undeploy_delete_api_fork-to-step_declarative_undeploy_stop_mongodb" style="stroke:#0000FF;stroke-width:1.0;"/><polygon fill="#0000FF" points="307.8922,1653.9398,310.6986,1644.4992,307.2476,1648.9815,302.7653,1645.5306,307.8922,1653.9398" style="stroke:#0000FF;stroke-width:1.0;"/><!--MD5=[715080719e6100c0629a4202a5b8bfc1]
link step_declarative_undeploy_stop_gui to step_declarative_undeploy_delete_gui--><path d="M383.5,326.2929 C383.5,344.1733 383.5,362.6404 383.5,380.6221 " fill="none" id="step_declarative_undeploy_stop_gui-to-step_declarative_undeploy_delete_gui" style="stroke:#0000FF;stroke-width:1.0;"/><polygon fill="#0000FF" points="383.5,385.6801,387.5,376.6801,383.5,380.6801,379.5,376.6801,383.5,385.6801" style="stroke:#0000FF;stroke-width:1.0;"/><!--MD5=[a5b49bc8c04a47ee8dca4a01f23ef9f6]
link step_declarative_undeploy_delete_gui to step_declarative_undeploy_delete_gui_fork--><path d="M383.5,626.1621 C383.5,649.157 383.5,669.5541 383.5,680.8003 " fill="none" id="step_declarative_undeploy_delete_gui-to-step_declarative_undeploy_delete_gui_fork" style="stroke:#0000FF;stroke-width:1.0;"/><polygon fill="#0000FF" points="383.5,685.8126,387.5,676.8126,383.5,680.8126,379.5,676.8126,383.5,685.8126" style="stroke:#0000FF;stroke-width:1.0;"/><!--MD5=[cce0cca0fd113f50afbabfd5dfab6ebf]
link step_declarative_undeploy_delete_gui_fork to step_declarative_undeploy_stop_node--><path d="M385.8658,694.1959 C391.4072,704.2103 405.3015,730.4338 412.5,754 C442.1014,850.9081 460.3552,964.3995 470.9286,1048.9601 " fill="none" id="step_declarative_undeploy_delete_gui_fork-to-step_declarative_undeploy_stop_node" style="stroke:#0000FF;stroke-width:1.0;"/><polygon fill="#0000FF" points="471.5514,1053.9788,474.4124,1044.5547,470.9356,1049.0169,466.4733,1045.54,471.5514,1053.9788" style="stroke:#0000FF;stroke-width:1.0;"/><!--MD5=[1956ebaf2826a43b45defc9302994e8d]
link step_declarative_undeploy_delete_gui_fork to step_declarative_undeploy_stop_api--><path d="M382.043,694.1888 C379.0428,702.8146 371.7288,723.8422 363.1158,748.6045 " fill="none" id="step_declarative_undeploy_delete_gui_fork-to-step_declarative_undeploy_stop_api" style="stroke:#0000FF;stroke-width:1.0;"/><polygon fill="#0000FF" points="361.3768,753.6042,368.1115,746.4178,363.0194,748.8817,360.5555,743.7896,361.3768,753.6042" style="stroke:#0000FF;stroke-width:1.0;"/><!--MD5=[4b608e37d035d815c82a4b0a3488f962]
link step_declarative_undeploy_stop_maven to step_declarative_undeploy_delete_maven--><path d="M102.0989,1894.3369 C101.7563,1997.112 101.2652,2144.4253 100.9179,2248.6233 " fill="none" id="step_declarative_undeploy_stop_maven-to-step_declarative_undeploy_delete_maven" style="stroke:#0000FF;stroke-width:1.0;"/><polygon fill="#0000FF" points="100.9005,2253.8632,104.9306,2244.8766,100.9172,2248.8632,96.9306,2244.8499,100.9005,2253.8632" style="stroke:#0000FF;stroke-width:1.0;"/><!--MD5=[4353f4f7a9f22b9ef0436c1a35153a65]
link step_declarative_undeploy_stop_node to step_declarative_undeploy_delete_node--><path d="M483.5,1294.2929 C483.5,1312.1733 483.5,1330.6404 483.5,1348.6221 " fill="none" id="step_declarative_undeploy_stop_node-to-step_declarative_undeploy_delete_node" style="stroke:#0000FF;stroke-width:1.0;"/><polygon fill="#0000FF" points="483.5,1353.6801,487.5,1344.6801,483.5,1348.6801,479.5,1344.6801,483.5,1353.6801" style="stroke:#0000FF;stroke-width:1.0;"/><!--MD5=[9a00cdb3254f30dbd6c7745b3308fd20]
link step_declarative_undeploy_stop_mongodb to step_declarative_undeploy_delete_mongodb--><path d="M324.302,1894.2929 C324.4212,1912.1733 324.5443,1930.6404 324.6641,1948.6221 " fill="none" id="step_declarative_undeploy_stop_mongodb-to-step_declarative_undeploy_delete_mongodb" style="stroke:#0000FF;stroke-width:1.0;"/><polygon fill="#0000FF" points="324.6979,1953.6801,328.6376,1944.6536,324.6645,1948.6802,320.6378,1944.707,324.6979,1953.6801" style="stroke:#0000FF;stroke-width:1.0;"/><!--MD5=[e6e6a4cf809537bb308dbf1f3493b300]
link step_declarative_undeploy_delete_mongodb to step_declarative_undeploy_stop_dbvolume--><path d="M326.7029,2194.2929 C326.8817,2212.1733 327.0664,2230.6404 327.2462,2248.6221 " fill="none" id="step_declarative_undeploy_delete_mongodb-to-step_declarative_undeploy_stop_dbvolume" style="stroke:#0000FF;stroke-width:1.0;"/><polygon fill="#0000FF" points="327.2968,2253.6801,331.2063,2244.6404,327.2467,2248.6804,323.2067,2244.7207,327.2968,2253.6801" style="stroke:#0000FF;stroke-width:1.0;"/><!--MD5=[2f1b95ca2a2ced38d624e2db628e077b]
link step_declarative_undeploy_stop_dbvolume to step_declarative_undeploy_delete_dbvolume--><path d="M327.2971,2494.2929 C327.1183,2512.1733 326.9336,2530.6404 326.7538,2548.6221 " fill="none" id="step_declarative_undeploy_stop_dbvolume-to-step_declarative_undeploy_delete_dbvolume" style="stroke:#0000FF;stroke-width:1.0;"/><polygon fill="#0000FF" points="326.7032,2553.6801,330.7933,2544.7207,326.7533,2548.6804,322.7937,2544.6404,326.7032,2553.6801" style="stroke:#0000FF;stroke-width:1.0;"/><!--MD5=[1e7a9ba51e2a19ba254fbb87361b9bba]
link *start to step_declarative_undeploy_stop_gui--><path d="M383.5,26.2152 C383.5,37.7525 383.5,57.9094 383.5,80.6599 " fill="none" id="*start-to-step_declarative_undeploy_stop_gui" style="stroke:#0000FF;stroke-width:1.0;"/><polygon fill="#0000FF" points="383.5,85.8637,387.5,76.8637,383.5,80.8637,379.5,76.8637,383.5,85.8637" style="stroke:#0000FF;stroke-width:1.0;"/><!--MD5=[d304f95394e26b0967c056ac947717c1]
link declarative_undeploy_join to *end--><path d="M325.5,2862.4074 C325.5,2872.8066 325.5,2899.2833 325.5,2916.4165 " fill="none" id="declarative_undeploy_join-to-*end" style="stroke:#0000FF;stroke-width:1.0;"/><polygon fill="#0000FF" points="325.5,2921.8319,329.5,2912.8319,325.5,2916.8319,321.5,2912.8319,325.5,2921.8319" style="stroke:#0000FF;stroke-width:1.0;"/><!--MD5=[fa8df9ee35b86a1843e17808ed3a2956]
link step_declarative_undeploy_delete_maven to declarative_undeploy_join--><path d="M103.551,2494.1064 C111.5832,2584.9886 135.3939,2708.3569 202.5,2794 C228.2175,2826.8216 275.4461,2844.5281 303.301,2852.5475 " fill="none" id="step_declarative_undeploy_delete_maven-to-declarative_undeploy_join" style="stroke:#0000FF;stroke-width:1.0;"/><polygon fill="#0000FF" points="308.2671,2853.9336,300.6739,2847.6611,303.4512,2852.5893,298.523,2855.3666,308.2671,2853.9336" style="stroke:#0000FF;stroke-width:1.0;"/><!--MD5=[2dbc41e253d24fa74481a1741956f901]
link step_declarative_undeploy_delete_node to declarative_undeploy_join--><path d="M483.5,1594.0994 C483.5,1715.2271 483.5,1907.5937 483.5,2074 C483.5,2074 483.5,2074 483.5,2374 C483.5,2561.3137 552.2593,2638.0499 448.5,2794 C425.9047,2827.9607 379.3303,2845.0038 350.4215,2852.646 " fill="none" id="step_declarative_undeploy_delete_node-to-declarative_undeploy_join" style="stroke:#0000FF;stroke-width:1.0;"/><polygon fill="#0000FF" points="345.239,2853.9655,354.9477,2855.6211,350.0844,2852.7318,352.9738,2847.8685,345.239,2853.9655" style="stroke:#0000FF;stroke-width:1.0;"/><!--MD5=[bf300a2585222320aa6223ccd998ec6b]
link step_declarative_undeploy_delete_dbvolume to declarative_undeploy_join--><path d="M325.5,2794.1621 C325.5,2817.157 325.5,2837.5541 325.5,2848.8003 " fill="none" id="step_declarative_undeploy_delete_dbvolume-to-declarative_undeploy_join" style="stroke:#0000FF;stroke-width:1.0;"/><polygon fill="#0000FF" points="325.5,2853.8126,329.5,2844.8126,325.5,2848.8126,321.5,2844.8126,325.5,2853.8126" style="stroke:#0000FF;stroke-width:1.0;"/><!--MD5=[80eb71e20d0cc210ec2ebe9febb83d0d]
@startuml
hide empty description
skinparam shadowing false
skinparam state {
  ArrowColor blue
  BorderColor blue
  EndColor black
  StartColor green
  BackGroundColor<< step >> white
  BorderColor<< step >> black
  BackGroundColor<< delegate >> lightgrey
  BackGroundColor<< set_state >> white
  BackGroundColor<< call_operation >> lightblue
  BackGroundColor<< inline >> white
}
skinparam ActivityBarColor<<fork>> DarkGreen
skinparam ActivityBarColor<<join>> DarkOrange

state "stop_api" as step_declarative_undeploy_stop_api << step >> {
  state "api stopping" as step_declarative_undeploy_stop_api_api_stopping << set_state >>
  state "api Standard.stop" as step_declarative_undeploy_stop_api_api_Standard.stop << call_operation >>
  state "api stopped" as step_declarative_undeploy_stop_api_api_stopped << set_state >>
  step_declarative_undeploy_stop_api_api_stopping - -> step_declarative_undeploy_stop_api_api_Standard.stop
  step_declarative_undeploy_stop_api_api_Standard.stop - -> step_declarative_undeploy_stop_api_api_stopped
}
state "delete_api" as step_declarative_undeploy_delete_api << step >> {
  state "api deleting" as step_declarative_undeploy_delete_api_api_deleting << set_state >>
  state "api Standard.delete" as step_declarative_undeploy_delete_api_api_Standard.delete << call_operation >>
  state "api initial" as step_declarative_undeploy_delete_api_api_initial << set_state >>
  step_declarative_undeploy_delete_api_api_deleting - -> step_declarative_undeploy_delete_api_api_Standard.delete
  step_declarative_undeploy_delete_api_api_Standard.delete - -> step_declarative_undeploy_delete_api_api_initial
}
state "stop_gui" as step_declarative_undeploy_stop_gui << step >> {
  state "gui stopping" as step_declarative_undeploy_stop_gui_gui_stopping << set_state >>
  state "gui Standard.stop" as step_declarative_undeploy_stop_gui_gui_Standard.stop << call_operation >>
  state "gui stopped" as step_declarative_undeploy_stop_gui_gui_stopped << set_state >>
  step_declarative_undeploy_stop_gui_gui_stopping - -> step_declarative_undeploy_stop_gui_gui_Standard.stop
  step_declarative_undeploy_stop_gui_gui_Standard.stop - -> step_declarative_undeploy_stop_gui_gui_stopped
}
state "delete_gui" as step_declarative_undeploy_delete_gui << step >> {
  state "gui deleting" as step_declarative_undeploy_delete_gui_gui_deleting << set_state >>
  state "gui Standard.delete" as step_declarative_undeploy_delete_gui_gui_Standard.delete << call_operation >>
  state "gui initial" as step_declarative_undeploy_delete_gui_gui_initial << set_state >>
  step_declarative_undeploy_delete_gui_gui_deleting - -> step_declarative_undeploy_delete_gui_gui_Standard.delete
  step_declarative_undeploy_delete_gui_gui_Standard.delete - -> step_declarative_undeploy_delete_gui_gui_initial
}
state "stop_maven" as step_declarative_undeploy_stop_maven << step >> {
  state "maven stopping" as step_declarative_undeploy_stop_maven_maven_stopping << set_state >>
  state "maven Standard.stop" as step_declarative_undeploy_stop_maven_maven_Standard.stop << call_operation >>
  state "maven stopped" as step_declarative_undeploy_stop_maven_maven_stopped << set_state >>
  step_declarative_undeploy_stop_maven_maven_stopping - -> step_declarative_undeploy_stop_maven_maven_Standard.stop
  step_declarative_undeploy_stop_maven_maven_Standard.stop - -> step_declarative_undeploy_stop_maven_maven_stopped
}
state "delete_maven" as step_declarative_undeploy_delete_maven << step >> {
  state "maven deleting" as step_declarative_undeploy_delete_maven_maven_deleting << set_state >>
  state "maven Standard.delete" as step_declarative_undeploy_delete_maven_maven_Standard.delete << call_operation >>
  state "maven initial" as step_declarative_undeploy_delete_maven_maven_initial << set_state >>
  step_declarative_undeploy_delete_maven_maven_deleting - -> step_declarative_undeploy_delete_maven_maven_Standard.delete
  step_declarative_undeploy_delete_maven_maven_Standard.delete - -> step_declarative_undeploy_delete_maven_maven_initial
}
state "stop_node" as step_declarative_undeploy_stop_node << step >> {
  state "node stopping" as step_declarative_undeploy_stop_node_node_stopping << set_state >>
  state "node Standard.stop" as step_declarative_undeploy_stop_node_node_Standard.stop << call_operation >>
  state "node stopped" as step_declarative_undeploy_stop_node_node_stopped << set_state >>
  step_declarative_undeploy_stop_node_node_stopping - -> step_declarative_undeploy_stop_node_node_Standard.stop
  step_declarative_undeploy_stop_node_node_Standard.stop - -> step_declarative_undeploy_stop_node_node_stopped
}
state "delete_node" as step_declarative_undeploy_delete_node << step >> {
  state "node deleting" as step_declarative_undeploy_delete_node_node_deleting << set_state >>
  state "node Standard.delete" as step_declarative_undeploy_delete_node_node_Standard.delete << call_operation >>
  state "node initial" as step_declarative_undeploy_delete_node_node_initial << set_state >>
  step_declarative_undeploy_delete_node_node_deleting - -> step_declarative_undeploy_delete_node_node_Standard.delete
  step_declarative_undeploy_delete_node_node_Standard.delete - -> step_declarative_undeploy_delete_node_node_initial
}
state "stop_mongodb" as step_declarative_undeploy_stop_mongodb << step >> {
  state "mongodb stopping" as step_declarative_undeploy_stop_mongodb_mongodb_stopping << set_state >>
  state "mongodb Standard.stop" as step_declarative_undeploy_stop_mongodb_mongodb_Standard.stop << call_operation >>
  state "mongodb stopped" as step_declarative_undeploy_stop_mongodb_mongodb_stopped << set_state >>
  step_declarative_undeploy_stop_mongodb_mongodb_stopping - -> step_declarative_undeploy_stop_mongodb_mongodb_Standard.stop
  step_declarative_undeploy_stop_mongodb_mongodb_Standard.stop - -> step_declarative_undeploy_stop_mongodb_mongodb_stopped
}
state "delete_mongodb" as step_declarative_undeploy_delete_mongodb << step >> {
  state "mongodb deleting" as step_declarative_undeploy_delete_mongodb_mongodb_deleting << set_state >>
  state "mongodb Standard.delete" as step_declarative_undeploy_delete_mongodb_mongodb_Standard.delete << call_operation >>
  state "mongodb initial" as step_declarative_undeploy_delete_mongodb_mongodb_initial << set_state >>
  step_declarative_undeploy_delete_mongodb_mongodb_deleting - -> step_declarative_undeploy_delete_mongodb_mongodb_Standard.delete
  step_declarative_undeploy_delete_mongodb_mongodb_Standard.delete - -> step_declarative_undeploy_delete_mongodb_mongodb_initial
}
state "stop_dbvolume" as step_declarative_undeploy_stop_dbvolume << step >> {
  state "dbvolume stopping" as step_declarative_undeploy_stop_dbvolume_dbvolume_stopping << set_state >>
  state "dbvolume Standard.stop" as step_declarative_undeploy_stop_dbvolume_dbvolume_Standard.stop << call_operation >>
  state "dbvolume stopped" as step_declarative_undeploy_stop_dbvolume_dbvolume_stopped << set_state >>
  step_declarative_undeploy_stop_dbvolume_dbvolume_stopping - -> step_declarative_undeploy_stop_dbvolume_dbvolume_Standard.stop
  step_declarative_undeploy_stop_dbvolume_dbvolume_Standard.stop - -> step_declarative_undeploy_stop_dbvolume_dbvolume_stopped
}
state "delete_dbvolume" as step_declarative_undeploy_delete_dbvolume << step >> {
  state "dbvolume deleting" as step_declarative_undeploy_delete_dbvolume_dbvolume_deleting << set_state >>
  state "dbvolume Standard.delete" as step_declarative_undeploy_delete_dbvolume_dbvolume_Standard.delete << call_operation >>
  state "dbvolume initial" as step_declarative_undeploy_delete_dbvolume_dbvolume_initial << set_state >>
  step_declarative_undeploy_delete_dbvolume_dbvolume_deleting - -> step_declarative_undeploy_delete_dbvolume_dbvolume_Standard.delete
  step_declarative_undeploy_delete_dbvolume_dbvolume_Standard.delete - -> step_declarative_undeploy_delete_dbvolume_dbvolume_initial
}
step_declarative_undeploy_stop_api - -> step_declarative_undeploy_delete_api
state step_declarative_undeploy_delete_api_fork <<fork>>
step_declarative_undeploy_delete_api - -> step_declarative_undeploy_delete_api_fork
step_declarative_undeploy_delete_api_fork - -> step_declarative_undeploy_stop_maven
step_declarative_undeploy_delete_api_fork - -> step_declarative_undeploy_stop_mongodb
step_declarative_undeploy_stop_gui - -> step_declarative_undeploy_delete_gui
state step_declarative_undeploy_delete_gui_fork <<fork>>
step_declarative_undeploy_delete_gui - -> step_declarative_undeploy_delete_gui_fork
step_declarative_undeploy_delete_gui_fork - -> step_declarative_undeploy_stop_node
step_declarative_undeploy_delete_gui_fork - -> step_declarative_undeploy_stop_api
step_declarative_undeploy_stop_maven - -> step_declarative_undeploy_delete_maven
step_declarative_undeploy_stop_node - -> step_declarative_undeploy_delete_node
step_declarative_undeploy_stop_mongodb - -> step_declarative_undeploy_delete_mongodb
step_declarative_undeploy_delete_mongodb - -> step_declarative_undeploy_stop_dbvolume
step_declarative_undeploy_stop_dbvolume - -> step_declarative_undeploy_delete_dbvolume
[*] - -> step_declarative_undeploy_stop_gui
state declarative_undeploy_join <<join>>
declarative_undeploy_join - -> [*]
step_declarative_undeploy_delete_maven - -> declarative_undeploy_join
step_declarative_undeploy_delete_node - -> declarative_undeploy_join
step_declarative_undeploy_delete_dbvolume - -> declarative_undeploy_join
@enduml

PlantUML version 1.2021.13(Mon Nov 01 12:38:45 CET 2021)
(GPL source distribution)
Java Runtime: Java(TM) SE Runtime Environment
JVM: Java HotSpot(TM) 64-Bit Server VM
Default Encoding: UTF-8
Language: fr
Country: FR
--></g></svg>