<?xml version="1.0" encoding="UTF-8" standalone="no"?><svg xmlns="http://www.w3.org/2000/svg" xmlns:xlink="http://www.w3.org/1999/xlink" contentScriptType="application/ecmascript" contentStyleType="text/css" height="2648px" preserveAspectRatio="none" style="width:631px;height:2648px;background:#FFFFFF;" version="1.1" viewBox="0 0 631 2648" width="631px" zoomAndPan="magnify"><defs/><g><rect fill="#006400" height="8" style="stroke:none;stroke-width:1.0;" width="80" x="287.5" y="1170"/><rect fill="#006400" height="8" style="stroke:none;stroke-width:1.0;" width="80" x="365.5" y="686"/><ellipse cx="405.5" cy="16" fill="#008000" rx="10" ry="10" style="stroke:none;stroke-width:1.0;"/><rect fill="#FF8C00" height="8" style="stroke:none;stroke-width:1.0;" width="80" x="294.5" y="2554"/><ellipse cx="334.5" cy="2632" rx="10" ry="10" style="stroke:#000000;stroke-width:1.0;fill:none;"/><ellipse cx="335" cy="2632.5" fill="#000000" rx="6" ry="6" style="stroke:none;stroke-width:1.0;"/><rect fill="#FFFFFF" height="240.4883" rx="12.5" ry="12.5" style="stroke:#000000;stroke-width:1.5;" width="151" x="266" y="754"/><rect fill="#FFFFFF" height="208" rx="12.5" ry="12.5" style="stroke:#FFFFFF;stroke-width:1.0;" width="145" x="269" y="783.4883"/><line style="stroke:#000000;stroke-width:1.5;" x1="266" x2="417" y1="780.4883" y2="780.4883"/><text fill="#000000" font-family="sans-serif" font-size="14" lengthAdjust="spacing" textLength="58" x="312.5" y="772.5352">stop_api</text><rect fill="#FFFFFF" height="40" rx="12.5" ry="12.5" style="stroke:#0000FF;stroke-width:1.5;" width="96" x="295.5" y="792.4883"/><text fill="#000000" font-family="sans-serif" font-size="14" lengthAdjust="spacing" textLength="86" x="300.5" y="817.7793">api stopping</text><rect fill="#ADD8E6" height="40" rx="12.5" ry="12.5" style="stroke:#0000FF;stroke-width:1.5;" width="131" x="278" y="868.4883"/><text fill="#000000" font-family="sans-serif" font-size="14" lengthAdjust="spacing" textLength="121" x="283" y="893.7793">api Standard.stop</text><rect fill="#FFFFFF" height="40" rx="12.5" ry="12.5" style="stroke:#0000FF;stroke-width:1.5;" width="91" x="298" y="944.4883"/><text fill="#000000" font-family="sans-serif" font-size="14" lengthAdjust="spacing" textLength="81" x="303" y="969.7793">api stopped</text><!--MD5=[47bb45b967a3f5f7c8d5c83437f7871f]
link step_parallel_undeploy_stop_api_api_stopping to step_parallel_undeploy_stop_api_api_Standard.stop--><path d="M343.5,832.8549 C343.5,842.2155 343.5,853.4103 343.5,863.2956 " fill="none" id="step_parallel_undeploy_stop_api_api_stopping-to-step_parallel_undeploy_stop_api_api_Standard.stop" style="stroke:#0000FF;stroke-width:1.0;"/><polygon fill="#0000FF" points="343.5,868.329,347.5,859.329,343.5,863.329,339.5,859.329,343.5,868.329" style="stroke:#0000FF;stroke-width:1.0;"/><!--MD5=[c15a3921c604f7dc04a9eabf7cd76a44]
link step_parallel_undeploy_stop_api_api_Standard.stop to step_parallel_undeploy_stop_api_api_stopped--><path d="M343.5,908.8549 C343.5,918.2155 343.5,929.4103 343.5,939.2956 " fill="none" id="step_parallel_undeploy_stop_api_api_Standard.stop-to-step_parallel_undeploy_stop_api_api_stopped" style="stroke:#0000FF;stroke-width:1.0;"/><polygon fill="#0000FF" points="343.5,944.329,347.5,935.329,343.5,939.329,339.5,935.329,343.5,944.329" style="stroke:#0000FF;stroke-width:1.0;"/><rect fill="#FFFFFF" height="240.4883" rx="12.5" ry="12.5" style="stroke:#000000;stroke-width:1.5;" width="163" x="25" y="1354"/><rect fill="#FFFFFF" height="208" rx="12.5" ry="12.5" style="stroke:#FFFFFF;stroke-width:1.0;" width="157" x="28" y="1383.4883"/><line style="stroke:#000000;stroke-width:1.5;" x1="25" x2="188" y1="1380.4883" y2="1380.4883"/><text fill="#000000" font-family="sans-serif" font-size="14" lengthAdjust="spacing" textLength="70" x="71.5" y="1372.5352">delete_api</text><rect fill="#FFFFFF" height="40" rx="12.5" ry="12.5" style="stroke:#0000FF;stroke-width:1.5;" width="91" x="63" y="1392.4883"/><text fill="#000000" font-family="sans-serif" font-size="14" lengthAdjust="spacing" textLength="81" x="68" y="1417.7793">api deleting</text><rect fill="#ADD8E6" height="40" rx="12.5" ry="12.5" style="stroke:#0000FF;stroke-width:1.5;" width="143" x="37" y="1468.4883"/><text fill="#000000" font-family="sans-serif" font-size="14" lengthAdjust="spacing" textLength="133" x="42" y="1493.7793">api Standard.delete</text><rect fill="#FFFFFF" height="40" rx="12.5" ry="12.5" style="stroke:#0000FF;stroke-width:1.5;" width="73" x="72" y="1544.4883"/><text fill="#000000" font-family="sans-serif" font-size="14" lengthAdjust="spacing" textLength="63" x="77" y="1569.7793">api initial</text><!--MD5=[d1e3e665fbb83fd51a96731a82725a20]
link step_parallel_undeploy_delete_api_api_deleting to step_parallel_undeploy_delete_api_api_Standard.delete--><path d="M108.5,1432.8549 C108.5,1442.2155 108.5,1453.4103 108.5,1463.2956 " fill="none" id="step_parallel_undeploy_delete_api_api_deleting-to-step_parallel_undeploy_delete_api_api_Standard.delete" style="stroke:#0000FF;stroke-width:1.0;"/><polygon fill="#0000FF" points="108.5,1468.329,112.5,1459.329,108.5,1463.329,104.5,1459.329,108.5,1468.329" style="stroke:#0000FF;stroke-width:1.0;"/><!--MD5=[95824d73c075a49393190409fcb591d1]
link step_parallel_undeploy_delete_api_api_Standard.delete to step_parallel_undeploy_delete_api_api_initial--><path d="M108.5,1508.8549 C108.5,1518.2155 108.5,1529.4103 108.5,1539.2956 " fill="none" id="step_parallel_undeploy_delete_api_api_Standard.delete-to-step_parallel_undeploy_delete_api_api_initial" style="stroke:#0000FF;stroke-width:1.0;"/><polygon fill="#0000FF" points="108.5,1544.329,112.5,1535.329,108.5,1539.329,104.5,1535.329,108.5,1544.329" style="stroke:#0000FF;stroke-width:1.0;"/><rect fill="#FFFFFF" height="240.4883" rx="12.5" ry="12.5" style="stroke:#000000;stroke-width:1.5;" width="152" x="329.5" y="86"/><rect fill="#FFFFFF" height="208" rx="12.5" ry="12.5" style="stroke:#FFFFFF;stroke-width:1.0;" width="146" x="332.5" y="115.4883"/><line style="stroke:#000000;stroke-width:1.5;" x1="329.5" x2="481.5" y1="112.4883" y2="112.4883"/><text fill="#000000" font-family="sans-serif" font-size="14" lengthAdjust="spacing" textLength="59" x="376" y="104.5352">stop_gui</text><rect fill="#FFFFFF" height="40" rx="12.5" ry="12.5" style="stroke:#0000FF;stroke-width:1.5;" width="97" x="359" y="124.4883"/><text fill="#000000" font-family="sans-serif" font-size="14" lengthAdjust="spacing" textLength="87" x="364" y="149.7793">gui stopping</text><rect fill="#ADD8E6" height="40" rx="12.5" ry="12.5" style="stroke:#0000FF;stroke-width:1.5;" width="132" x="341.5" y="200.4883"/><text fill="#000000" font-family="sans-serif" font-size="14" lengthAdjust="spacing" textLength="122" x="346.5" y="225.7793">gui Standard.stop</text><rect fill="#FFFFFF" height="40" rx="12.5" ry="12.5" style="stroke:#0000FF;stroke-width:1.5;" width="92" x="361.5" y="276.4883"/><text fill="#000000" font-family="sans-serif" font-size="14" lengthAdjust="spacing" textLength="82" x="366.5" y="301.7793">gui stopped</text><!--MD5=[b8927e6fef4c87ae20ac8f4d8be8c9f3]
link step_parallel_undeploy_stop_gui_gui_stopping to step_parallel_undeploy_stop_gui_gui_Standard.stop--><path d="M407.5,164.8549 C407.5,174.2155 407.5,185.4103 407.5,195.2956 " fill="none" id="step_parallel_undeploy_stop_gui_gui_stopping-to-step_parallel_undeploy_stop_gui_gui_Standard.stop" style="stroke:#0000FF;stroke-width:1.0;"/><polygon fill="#0000FF" points="407.5,200.329,411.5,191.329,407.5,195.329,403.5,191.329,407.5,200.329" style="stroke:#0000FF;stroke-width:1.0;"/><!--MD5=[982ce18b71898828df10b17d64efe8c5]
link step_parallel_undeploy_stop_gui_gui_Standard.stop to step_parallel_undeploy_stop_gui_gui_stopped--><path d="M407.5,240.8549 C407.5,250.2155 407.5,261.4103 407.5,271.2956 " fill="none" id="step_parallel_undeploy_stop_gui_gui_Standard.stop-to-step_parallel_undeploy_stop_gui_gui_stopped" style="stroke:#0000FF;stroke-width:1.0;"/><polygon fill="#0000FF" points="407.5,276.329,411.5,267.329,407.5,271.329,403.5,267.329,407.5,276.329" style="stroke:#0000FF;stroke-width:1.0;"/><rect fill="#FFFFFF" height="240.4883" rx="12.5" ry="12.5" style="stroke:#000000;stroke-width:1.5;" width="164" x="323.5" y="386"/><rect fill="#FFFFFF" height="208" rx="12.5" ry="12.5" style="stroke:#FFFFFF;stroke-width:1.0;" width="158" x="326.5" y="415.4883"/><line style="stroke:#000000;stroke-width:1.5;" x1="323.5" x2="487.5" y1="412.4883" y2="412.4883"/><text fill="#000000" font-family="sans-serif" font-size="14" lengthAdjust="spacing" textLength="71" x="370" y="404.5352">delete_gui</text><rect fill="#FFFFFF" height="40" rx="12.5" ry="12.5" style="stroke:#0000FF;stroke-width:1.5;" width="92" x="361.5" y="424.4883"/><text fill="#000000" font-family="sans-serif" font-size="14" lengthAdjust="spacing" textLength="82" x="366.5" y="449.7793">gui deleting</text><rect fill="#ADD8E6" height="40" rx="12.5" ry="12.5" style="stroke:#0000FF;stroke-width:1.5;" width="144" x="335.5" y="500.4883"/><text fill="#000000" font-family="sans-serif" font-size="14" lengthAdjust="spacing" textLength="134" x="340.5" y="525.7793">gui Standard.delete</text><rect fill="#FFFFFF" height="40" rx="12.5" ry="12.5" style="stroke:#0000FF;stroke-width:1.5;" width="74" x="370.5" y="576.4883"/><text fill="#000000" font-family="sans-serif" font-size="14" lengthAdjust="spacing" textLength="64" x="375.5" y="601.7793">gui initial</text><!--MD5=[2af7e5106472b755cb7c2e49ed7d5f10]
link step_parallel_undeploy_delete_gui_gui_deleting to step_parallel_undeploy_delete_gui_gui_Standard.delete--><path d="M407.5,464.8549 C407.5,474.2155 407.5,485.4103 407.5,495.2956 " fill="none" id="step_parallel_undeploy_delete_gui_gui_deleting-to-step_parallel_undeploy_delete_gui_gui_Standard.delete" style="stroke:#0000FF;stroke-width:1.0;"/><polygon fill="#0000FF" points="407.5,500.329,411.5,491.329,407.5,495.329,403.5,491.329,407.5,500.329" style="stroke:#0000FF;stroke-width:1.0;"/><!--MD5=[f3ea99f2c69ad06237be6a52c69ca477]
link step_parallel_undeploy_delete_gui_gui_Standard.delete to step_parallel_undeploy_delete_gui_gui_initial--><path d="M407.5,540.8549 C407.5,550.2155 407.5,561.4103 407.5,571.2956 " fill="none" id="step_parallel_undeploy_delete_gui_gui_Standard.delete-to-step_parallel_undeploy_delete_gui_gui_initial" style="stroke:#0000FF;stroke-width:1.0;"/><polygon fill="#0000FF" points="407.5,576.329,411.5,567.329,407.5,571.329,403.5,567.329,407.5,576.329" style="stroke:#0000FF;stroke-width:1.0;"/><rect fill="#FFFFFF" height="240.4883" rx="12.5" ry="12.5" style="stroke:#000000;stroke-width:1.5;" width="175" x="13" y="1654"/><rect fill="#FFFFFF" height="208" rx="12.5" ry="12.5" style="stroke:#FFFFFF;stroke-width:1.0;" width="169" x="16" y="1683.4883"/><line style="stroke:#000000;stroke-width:1.5;" x1="13" x2="188" y1="1680.4883" y2="1680.4883"/><text fill="#000000" font-family="sans-serif" font-size="14" lengthAdjust="spacing" textLength="82" x="59.5" y="1672.5352">stop_maven</text><rect fill="#FFFFFF" height="40" rx="12.5" ry="12.5" style="stroke:#0000FF;stroke-width:1.5;" width="120" x="42.5" y="1692.4883"/><text fill="#000000" font-family="sans-serif" font-size="14" lengthAdjust="spacing" textLength="110" x="47.5" y="1717.7793">maven stopping</text><rect fill="#ADD8E6" height="40" rx="12.5" ry="12.5" style="stroke:#0000FF;stroke-width:1.5;" width="155" x="25" y="1768.4883"/><text fill="#000000" font-family="sans-serif" font-size="14" lengthAdjust="spacing" textLength="145" x="30" y="1793.7793">maven Standard.stop</text><rect fill="#FFFFFF" height="40" rx="12.5" ry="12.5" style="stroke:#0000FF;stroke-width:1.5;" width="115" x="45" y="1844.4883"/><text fill="#000000" font-family="sans-serif" font-size="14" lengthAdjust="spacing" textLength="105" x="50" y="1869.7793">maven stopped</text><!--MD5=[dbe7884d1df0fbaba886321315603b1f]
link step_parallel_undeploy_stop_maven_maven_stopping to step_parallel_undeploy_stop_maven_maven_Standard.stop--><path d="M102.5,1732.8549 C102.5,1742.2155 102.5,1753.4103 102.5,1763.2956 " fill="none" id="step_parallel_undeploy_stop_maven_maven_stopping-to-step_parallel_undeploy_stop_maven_maven_Standard.stop" style="stroke:#0000FF;stroke-width:1.0;"/><polygon fill="#0000FF" points="102.5,1768.329,106.5,1759.329,102.5,1763.329,98.5,1759.329,102.5,1768.329" style="stroke:#0000FF;stroke-width:1.0;"/><!--MD5=[90d0adbba11726a31ba1bbb6c02915ad]
link step_parallel_undeploy_stop_maven_maven_Standard.stop to step_parallel_undeploy_stop_maven_maven_stopped--><path d="M102.5,1808.8549 C102.5,1818.2155 102.5,1829.4103 102.5,1839.2956 " fill="none" id="step_parallel_undeploy_stop_maven_maven_Standard.stop-to-step_parallel_undeploy_stop_maven_maven_stopped" style="stroke:#0000FF;stroke-width:1.0;"/><polygon fill="#0000FF" points="102.5,1844.329,106.5,1835.329,102.5,1839.329,98.5,1835.329,102.5,1844.329" style="stroke:#0000FF;stroke-width:1.0;"/><rect fill="#FFFFFF" height="240.4883" rx="12.5" ry="12.5" style="stroke:#000000;stroke-width:1.5;" width="187" x="7" y="2254"/><rect fill="#FFFFFF" height="208" rx="12.5" ry="12.5" style="stroke:#FFFFFF;stroke-width:1.0;" width="181" x="10" y="2283.4883"/><line style="stroke:#000000;stroke-width:1.5;" x1="7" x2="194" y1="2280.4883" y2="2280.4883"/><text fill="#000000" font-family="sans-serif" font-size="14" lengthAdjust="spacing" textLength="94" x="53.5" y="2272.5352">delete_maven</text><rect fill="#FFFFFF" height="40" rx="12.5" ry="12.5" style="stroke:#0000FF;stroke-width:1.5;" width="115" x="45" y="2292.4883"/><text fill="#000000" font-family="sans-serif" font-size="14" lengthAdjust="spacing" textLength="105" x="50" y="2317.7793">maven deleting</text><rect fill="#ADD8E6" height="40" rx="12.5" ry="12.5" style="stroke:#0000FF;stroke-width:1.5;" width="167" x="19" y="2368.4883"/><text fill="#000000" font-family="sans-serif" font-size="14" lengthAdjust="spacing" textLength="157" x="24" y="2393.7793">maven Standard.delete</text><rect fill="#FFFFFF" height="40" rx="12.5" ry="12.5" style="stroke:#0000FF;stroke-width:1.5;" width="97" x="54" y="2444.4883"/><text fill="#000000" font-family="sans-serif" font-size="14" lengthAdjust="spacing" textLength="87" x="59" y="2469.7793">maven initial</text><!--MD5=[eb87770c970ed37f424380e1355d3d7e]
link step_parallel_undeploy_delete_maven_maven_deleting to step_parallel_undeploy_delete_maven_maven_Standard.delete--><path d="M102.5,2332.8549 C102.5,2342.2155 102.5,2353.4103 102.5,2363.2956 " fill="none" id="step_parallel_undeploy_delete_maven_maven_deleting-to-step_parallel_undeploy_delete_maven_maven_Standard.delete" style="stroke:#0000FF;stroke-width:1.0;"/><polygon fill="#0000FF" points="102.5,2368.329,106.5,2359.329,102.5,2363.329,98.5,2359.329,102.5,2368.329" style="stroke:#0000FF;stroke-width:1.0;"/><!--MD5=[7ecd5977bdeab0ff619f95b9ff07c283]
link step_parallel_undeploy_delete_maven_maven_Standard.delete to step_parallel_undeploy_delete_maven_maven_initial--><path d="M102.5,2408.8549 C102.5,2418.2155 102.5,2429.4103 102.5,2439.2956 " fill="none" id="step_parallel_undeploy_delete_maven_maven_Standard.delete-to-step_parallel_undeploy_delete_maven_maven_initial" style="stroke:#0000FF;stroke-width:1.0;"/><polygon fill="#0000FF" points="102.5,2444.329,106.5,2435.329,102.5,2439.329,98.5,2435.329,102.5,2444.329" style="stroke:#0000FF;stroke-width:1.0;"/><rect fill="#FFFFFF" height="240.4883" rx="12.5" ry="12.5" style="stroke:#000000;stroke-width:1.5;" width="165" x="406" y="1054"/><rect fill="#FFFFFF" height="208" rx="12.5" ry="12.5" style="stroke:#FFFFFF;stroke-width:1.0;" width="159" x="409" y="1083.4883"/><line style="stroke:#000000;stroke-width:1.5;" x1="406" x2="571" y1="1080.4883" y2="1080.4883"/><text fill="#000000" font-family="sans-serif" font-size="14" lengthAdjust="spacing" textLength="72" x="452.5" y="1072.5352">stop_node</text><rect fill="#FFFFFF" height="40" rx="12.5" ry="12.5" style="stroke:#0000FF;stroke-width:1.5;" width="110" x="435.5" y="1092.4883"/><text fill="#000000" font-family="sans-serif" font-size="14" lengthAdjust="spacing" textLength="100" x="440.5" y="1117.7793">node stopping</text><rect fill="#ADD8E6" height="40" rx="12.5" ry="12.5" style="stroke:#0000FF;stroke-width:1.5;" width="145" x="418" y="1168.4883"/><text fill="#000000" font-family="sans-serif" font-size="14" lengthAdjust="spacing" textLength="135" x="423" y="1193.7793">node Standard.stop</text><rect fill="#FFFFFF" height="40" rx="12.5" ry="12.5" style="stroke:#0000FF;stroke-width:1.5;" width="105" x="438" y="1244.4883"/><text fill="#000000" font-family="sans-serif" font-size="14" lengthAdjust="spacing" textLength="95" x="443" y="1269.7793">node stopped</text><!--MD5=[6640a0a37fa2d293a2ae4cb8955da274]
link step_parallel_undeploy_stop_node_node_stopping to step_parallel_undeploy_stop_node_node_Standard.stop--><path d="M490.5,1132.8549 C490.5,1142.2155 490.5,1153.4103 490.5,1163.2956 " fill="none" id="step_parallel_undeploy_stop_node_node_stopping-to-step_parallel_undeploy_stop_node_node_Standard.stop" style="stroke:#0000FF;stroke-width:1.0;"/><polygon fill="#0000FF" points="490.5,1168.329,494.5,1159.329,490.5,1163.329,486.5,1159.329,490.5,1168.329" style="stroke:#0000FF;stroke-width:1.0;"/><!--MD5=[0d658201e704a66eb61924f9fa925b8e]
link step_parallel_undeploy_stop_node_node_Standard.stop to step_parallel_undeploy_stop_node_node_stopped--><path d="M490.5,1208.8549 C490.5,1218.2155 490.5,1229.4103 490.5,1239.2956 " fill="none" id="step_parallel_undeploy_stop_node_node_Standard.stop-to-step_parallel_undeploy_stop_node_node_stopped" style="stroke:#0000FF;stroke-width:1.0;"/><polygon fill="#0000FF" points="490.5,1244.329,494.5,1235.329,490.5,1239.329,486.5,1235.329,490.5,1244.329" style="stroke:#0000FF;stroke-width:1.0;"/><rect fill="#FFFFFF" height="240.4883" rx="12.5" ry="12.5" style="stroke:#000000;stroke-width:1.5;" width="177" x="447" y="1954"/><rect fill="#FFFFFF" height="208" rx="12.5" ry="12.5" style="stroke:#FFFFFF;stroke-width:1.0;" width="171" x="450" y="1983.4883"/><line style="stroke:#000000;stroke-width:1.5;" x1="447" x2="624" y1="1980.4883" y2="1980.4883"/><text fill="#000000" font-family="sans-serif" font-size="14" lengthAdjust="spacing" textLength="84" x="493.5" y="1972.5352">delete_node</text><rect fill="#FFFFFF" height="40" rx="12.5" ry="12.5" style="stroke:#0000FF;stroke-width:1.5;" width="105" x="485" y="1992.4883"/><text fill="#000000" font-family="sans-serif" font-size="14" lengthAdjust="spacing" textLength="95" x="490" y="2017.7793">node deleting</text><rect fill="#ADD8E6" height="40" rx="12.5" ry="12.5" style="stroke:#0000FF;stroke-width:1.5;" width="157" x="459" y="2068.4883"/><text fill="#000000" font-family="sans-serif" font-size="14" lengthAdjust="spacing" textLength="147" x="464" y="2093.7793">node Standard.delete</text><rect fill="#FFFFFF" height="40" rx="12.5" ry="12.5" style="stroke:#0000FF;stroke-width:1.5;" width="87" x="494" y="2144.4883"/><text fill="#000000" font-family="sans-serif" font-size="14" lengthAdjust="spacing" textLength="77" x="499" y="2169.7793">node initial</text><!--MD5=[031dfa6d1694c38b58dc00eb6fb39a0e]
link step_parallel_undeploy_delete_node_node_deleting to step_parallel_undeploy_delete_node_node_Standard.delete--><path d="M537.5,2032.8549 C537.5,2042.2155 537.5,2053.4103 537.5,2063.2956 " fill="none" id="step_parallel_undeploy_delete_node_node_deleting-to-step_parallel_undeploy_delete_node_node_Standard.delete" style="stroke:#0000FF;stroke-width:1.0;"/><polygon fill="#0000FF" points="537.5,2068.329,541.5,2059.329,537.5,2063.329,533.5,2059.329,537.5,2068.329" style="stroke:#0000FF;stroke-width:1.0;"/><!--MD5=[92907bac27d3cb74284549f47e3b1aeb]
link step_parallel_undeploy_delete_node_node_Standard.delete to step_parallel_undeploy_delete_node_node_initial--><path d="M537.5,2108.8549 C537.5,2118.2155 537.5,2129.4103 537.5,2139.2956 " fill="none" id="step_parallel_undeploy_delete_node_node_Standard.delete-to-step_parallel_undeploy_delete_node_node_initial" style="stroke:#0000FF;stroke-width:1.0;"/><polygon fill="#0000FF" points="537.5,2144.329,541.5,2135.329,537.5,2139.329,533.5,2135.329,537.5,2144.329" style="stroke:#0000FF;stroke-width:1.0;"/><rect fill="#FFFFFF" height="240.4883" rx="12.5" ry="12.5" style="stroke:#000000;stroke-width:1.5;" width="197" x="229" y="1354"/><rect fill="#FFFFFF" height="208" rx="12.5" ry="12.5" style="stroke:#FFFFFF;stroke-width:1.0;" width="191" x="232" y="1383.4883"/><line style="stroke:#000000;stroke-width:1.5;" x1="229" x2="426" y1="1380.4883" y2="1380.4883"/><text fill="#000000" font-family="sans-serif" font-size="14" lengthAdjust="spacing" textLength="104" x="275.5" y="1372.5352">stop_mongodb</text><rect fill="#FFFFFF" height="40" rx="12.5" ry="12.5" style="stroke:#0000FF;stroke-width:1.5;" width="142" x="258.5" y="1392.4883"/><text fill="#000000" font-family="sans-serif" font-size="14" lengthAdjust="spacing" textLength="132" x="263.5" y="1417.7793">mongodb stopping</text><rect fill="#ADD8E6" height="40" rx="12.5" ry="12.5" style="stroke:#0000FF;stroke-width:1.5;" width="177" x="241" y="1468.4883"/><text fill="#000000" font-family="sans-serif" font-size="14" lengthAdjust="spacing" textLength="167" x="246" y="1493.7793">mongodb Standard.stop</text><rect fill="#FFFFFF" height="40" rx="12.5" ry="12.5" style="stroke:#0000FF;stroke-width:1.5;" width="137" x="261" y="1544.4883"/><text fill="#000000" font-family="sans-serif" font-size="14" lengthAdjust="spacing" textLength="127" x="266" y="1569.7793">mongodb stopped</text><!--MD5=[58418e9af60ddae3ad6bf14ea3625861]
link step_parallel_undeploy_stop_mongodb_mongodb_stopping to step_parallel_undeploy_stop_mongodb_mongodb_Standard.stop--><path d="M329.5,1432.8549 C329.5,1442.2155 329.5,1453.4103 329.5,1463.2956 " fill="none" id="step_parallel_undeploy_stop_mongodb_mongodb_stopping-to-step_parallel_undeploy_stop_mongodb_mongodb_Standard.stop" style="stroke:#0000FF;stroke-width:1.0;"/><polygon fill="#0000FF" points="329.5,1468.329,333.5,1459.329,329.5,1463.329,325.5,1459.329,329.5,1468.329" style="stroke:#0000FF;stroke-width:1.0;"/><!--MD5=[dcabed20858820edfa1ba0011ca9cb2a]
link step_parallel_undeploy_stop_mongodb_mongodb_Standard.stop to step_parallel_undeploy_stop_mongodb_mongodb_stopped--><path d="M329.5,1508.8549 C329.5,1518.2155 329.5,1529.4103 329.5,1539.2956 " fill="none" id="step_parallel_undeploy_stop_mongodb_mongodb_Standard.stop-to-step_parallel_undeploy_stop_mongodb_mongodb_stopped" style="stroke:#0000FF;stroke-width:1.0;"/><polygon fill="#0000FF" points="329.5,1544.329,333.5,1535.329,329.5,1539.329,325.5,1535.329,329.5,1544.329" style="stroke:#0000FF;stroke-width:1.0;"/><rect fill="#FFFFFF" height="240.4883" rx="12.5" ry="12.5" style="stroke:#000000;stroke-width:1.5;" width="209" x="223" y="1654"/><rect fill="#FFFFFF" height="208" rx="12.5" ry="12.5" style="stroke:#FFFFFF;stroke-width:1.0;" width="203" x="226" y="1683.4883"/><line style="stroke:#000000;stroke-width:1.5;" x1="223" x2="432" y1="1680.4883" y2="1680.4883"/><text fill="#000000" font-family="sans-serif" font-size="14" lengthAdjust="spacing" textLength="116" x="269.5" y="1672.5352">delete_mongodb</text><rect fill="#FFFFFF" height="40" rx="12.5" ry="12.5" style="stroke:#0000FF;stroke-width:1.5;" width="137" x="261" y="1692.4883"/><text fill="#000000" font-family="sans-serif" font-size="14" lengthAdjust="spacing" textLength="127" x="266" y="1717.7793">mongodb deleting</text><rect fill="#ADD8E6" height="40" rx="12.5" ry="12.5" style="stroke:#0000FF;stroke-width:1.5;" width="189" x="235" y="1768.4883"/><text fill="#000000" font-family="sans-serif" font-size="14" lengthAdjust="spacing" textLength="179" x="240" y="1793.7793">mongodb Standard.delete</text><rect fill="#FFFFFF" height="40" rx="12.5" ry="12.5" style="stroke:#0000FF;stroke-width:1.5;" width="119" x="270" y="1844.4883"/><text fill="#000000" font-family="sans-serif" font-size="14" lengthAdjust="spacing" textLength="109" x="275" y="1869.7793">mongodb initial</text><!--MD5=[0eba4f976c532c49aacf84e9f1670c5a]
link step_parallel_undeploy_delete_mongodb_mongodb_deleting to step_parallel_undeploy_delete_mongodb_mongodb_Standard.delete--><path d="M329.5,1732.8549 C329.5,1742.2155 329.5,1753.4103 329.5,1763.2956 " fill="none" id="step_parallel_undeploy_delete_mongodb_mongodb_deleting-to-step_parallel_undeploy_delete_mongodb_mongodb_Standard.delete" style="stroke:#0000FF;stroke-width:1.0;"/><polygon fill="#0000FF" points="329.5,1768.329,333.5,1759.329,329.5,1763.329,325.5,1759.329,329.5,1768.329" style="stroke:#0000FF;stroke-width:1.0;"/><!--MD5=[ab9e083650fab12c47e1fae63c81bd9f]
link step_parallel_undeploy_delete_mongodb_mongodb_Standard.delete to step_parallel_undeploy_delete_mongodb_mongodb_initial--><path d="M329.5,1808.8549 C329.5,1818.2155 329.5,1829.4103 329.5,1839.2956 " fill="none" id="step_parallel_undeploy_delete_mongodb_mongodb_Standard.delete-to-step_parallel_undeploy_delete_mongodb_mongodb_initial" style="stroke:#0000FF;stroke-width:1.0;"/><polygon fill="#0000FF" points="329.5,1844.329,333.5,1835.329,329.5,1839.329,325.5,1835.329,329.5,1844.329" style="stroke:#0000FF;stroke-width:1.0;"/><rect fill="#FFFFFF" height="240.4883" rx="12.5" ry="12.5" style="stroke:#000000;stroke-width:1.5;" width="198" x="213.5" y="1954"/><rect fill="#FFFFFF" height="208" rx="12.5" ry="12.5" style="stroke:#FFFFFF;stroke-width:1.0;" width="192" x="216.5" y="1983.4883"/><line style="stroke:#000000;stroke-width:1.5;" x1="213.5" x2="411.5" y1="1980.4883" y2="1980.4883"/><text fill="#000000" font-family="sans-serif" font-size="14" lengthAdjust="spacing" textLength="105" x="260" y="1972.5352">stop_dbvolume</text><rect fill="#FFFFFF" height="40" rx="12.5" ry="12.5" style="stroke:#0000FF;stroke-width:1.5;" width="143" x="243" y="1992.4883"/><text fill="#000000" font-family="sans-serif" font-size="14" lengthAdjust="spacing" textLength="133" x="248" y="2017.7793">dbvolume stopping</text><rect fill="#ADD8E6" height="40" rx="12.5" ry="12.5" style="stroke:#0000FF;stroke-width:1.5;" width="178" x="225.5" y="2068.4883"/><text fill="#000000" font-family="sans-serif" font-size="14" lengthAdjust="spacing" textLength="168" x="230.5" y="2093.7793">dbvolume Standard.stop</text><rect fill="#FFFFFF" height="40" rx="12.5" ry="12.5" style="stroke:#0000FF;stroke-width:1.5;" width="138" x="245.5" y="2144.4883"/><text fill="#000000" font-family="sans-serif" font-size="14" lengthAdjust="spacing" textLength="128" x="250.5" y="2169.7793">dbvolume stopped</text><!--MD5=[6b5102f68af9395ed897c8129a66e2f1]
link step_parallel_undeploy_stop_dbvolume_dbvolume_stopping to step_parallel_undeploy_stop_dbvolume_dbvolume_Standard.stop--><path d="M314.5,2032.8549 C314.5,2042.2155 314.5,2053.4103 314.5,2063.2956 " fill="none" id="step_parallel_undeploy_stop_dbvolume_dbvolume_stopping-to-step_parallel_undeploy_stop_dbvolume_dbvolume_Standard.stop" style="stroke:#0000FF;stroke-width:1.0;"/><polygon fill="#0000FF" points="314.5,2068.329,318.5,2059.329,314.5,2063.329,310.5,2059.329,314.5,2068.329" style="stroke:#0000FF;stroke-width:1.0;"/><!--MD5=[f17035d45f1e614f36552f604acb1827]
link step_parallel_undeploy_stop_dbvolume_dbvolume_Standard.stop to step_parallel_undeploy_stop_dbvolume_dbvolume_stopped--><path d="M314.5,2108.8549 C314.5,2118.2155 314.5,2129.4103 314.5,2139.2956 " fill="none" id="step_parallel_undeploy_stop_dbvolume_dbvolume_Standard.stop-to-step_parallel_undeploy_stop_dbvolume_dbvolume_stopped" style="stroke:#0000FF;stroke-width:1.0;"/><polygon fill="#0000FF" points="314.5,2144.329,318.5,2135.329,314.5,2139.329,310.5,2135.329,314.5,2144.329" style="stroke:#0000FF;stroke-width:1.0;"/><rect fill="#FFFFFF" height="240.4883" rx="12.5" ry="12.5" style="stroke:#000000;stroke-width:1.5;" width="210" x="229.5" y="2254"/><rect fill="#FFFFFF" height="208" rx="12.5" ry="12.5" style="stroke:#FFFFFF;stroke-width:1.0;" width="204" x="232.5" y="2283.4883"/><line style="stroke:#000000;stroke-width:1.5;" x1="229.5" x2="439.5" y1="2280.4883" y2="2280.4883"/><text fill="#000000" font-family="sans-serif" font-size="14" lengthAdjust="spacing" textLength="117" x="276" y="2272.5352">delete_dbvolume</text><rect fill="#FFFFFF" height="40" rx="12.5" ry="12.5" style="stroke:#0000FF;stroke-width:1.5;" width="138" x="267.5" y="2292.4883"/><text fill="#000000" font-family="sans-serif" font-size="14" lengthAdjust="spacing" textLength="128" x="272.5" y="2317.7793">dbvolume deleting</text><rect fill="#ADD8E6" height="40" rx="12.5" ry="12.5" style="stroke:#0000FF;stroke-width:1.5;" width="190" x="241.5" y="2368.4883"/><text fill="#000000" font-family="sans-serif" font-size="14" lengthAdjust="spacing" textLength="180" x="246.5" y="2393.7793">dbvolume Standard.delete</text><rect fill="#FFFFFF" height="40" rx="12.5" ry="12.5" style="stroke:#0000FF;stroke-width:1.5;" width="120" x="276.5" y="2444.4883"/><text fill="#000000" font-family="sans-serif" font-size="14" lengthAdjust="spacing" textLength="110" x="281.5" y="2469.7793">dbvolume initial</text><!--MD5=[d1bcf3f0835fc74b527acee98d525d64]
link step_parallel_undeploy_delete_dbvolume_dbvolume_deleting to step_parallel_undeploy_delete_dbvolume_dbvolume_Standard.delete--><path d="M336.5,2332.8549 C336.5,2342.2155 336.5,2353.4103 336.5,2363.2956 " fill="none" id="step_parallel_undeploy_delete_dbvolume_dbvolume_deleting-to-step_parallel_undeploy_delete_dbvolume_dbvolume_Standard.delete" style="stroke:#0000FF;stroke-width:1.0;"/><polygon fill="#0000FF" points="336.5,2368.329,340.5,2359.329,336.5,2363.329,332.5,2359.329,336.5,2368.329" style="stroke:#0000FF;stroke-width:1.0;"/><!--MD5=[0485557c6a9263edbd3b3d72bbfb5d04]
link step_parallel_undeploy_delete_dbvolume_dbvolume_Standard.delete to step_parallel_undeploy_delete_dbvolume_dbvolume_initial--><path d="M336.5,2408.8549 C336.5,2418.2155 336.5,2429.4103 336.5,2439.2956 " fill="none" id="step_parallel_undeploy_delete_dbvolume_dbvolume_Standard.delete-to-step_parallel_undeploy_delete_dbvolume_dbvolume_initial" style="stroke:#0000FF;stroke-width:1.0;"/><polygon fill="#0000FF" points="336.5,2444.329,340.5,2435.329,336.5,2439.329,332.5,2435.329,336.5,2444.329" style="stroke:#0000FF;stroke-width:1.0;"/><!--MD5=[cb8d9ee031dd1d79484aebcfda7440fb]
link step_parallel_undeploy_stop_api to step_parallel_undeploy_stop_api_fork--><path d="M335.8863,994.2929 C332.7179,1062.1875 329.1548,1138.5409 327.9358,1164.6622 " fill="none" id="step_parallel_undeploy_stop_api-to-step_parallel_undeploy_stop_api_fork" style="stroke:#0000FF;stroke-width:1.0;"/><polygon fill="#0000FF" points="327.7006,1169.7015,332.1159,1160.8978,327.9337,1164.7069,324.1246,1160.5248,327.7006,1169.7015" style="stroke:#0000FF;stroke-width:1.0;"/><!--MD5=[9029cda104de0571a25402ff56bcfee5]
link step_parallel_undeploy_stop_api_fork to step_parallel_undeploy_delete_api--><path d="M324.3759,1178.2409 C309.7158,1198.1415 246.1604,1284.4157 191.4476,1358.6866 " fill="none" id="step_parallel_undeploy_stop_api_fork-to-step_parallel_undeploy_delete_api" style="stroke:#0000FF;stroke-width:1.0;"/><polygon fill="#0000FF" points="188.1889,1363.1101,196.7474,1358.2365,191.1545,1359.0845,190.3065,1353.4916,188.1889,1363.1101" style="stroke:#0000FF;stroke-width:1.0;"/><!--MD5=[a1e347eed5cc4af57455800eb6791a4e]
link step_parallel_undeploy_stop_api_fork to step_parallel_undeploy_stop_mongodb--><path d="M327.5,1178.2409 C327.5,1197.2624 327.5,1276.923 327.5,1348.7805 " fill="none" id="step_parallel_undeploy_stop_api_fork-to-step_parallel_undeploy_stop_mongodb" style="stroke:#0000FF;stroke-width:1.0;"/><polygon fill="#0000FF" points="327.5,1353.9398,331.5,1344.9398,327.5,1348.9398,323.5,1344.9398,327.5,1353.9398" style="stroke:#0000FF;stroke-width:1.0;"/><!--MD5=[b9e63905b123dd1366c511c49c8558c7]
link step_parallel_undeploy_delete_api to step_parallel_undeploy_stop_maven--><path d="M104.0941,1594.2929 C103.7365,1612.1733 103.3672,1630.6404 103.0076,1648.6221 " fill="none" id="step_parallel_undeploy_delete_api-to-step_parallel_undeploy_stop_maven" style="stroke:#0000FF;stroke-width:1.0;"/><polygon fill="#0000FF" points="102.9064,1653.6801,107.0859,1644.762,103.0065,1648.6811,99.0875,1644.6018,102.9064,1653.6801" style="stroke:#0000FF;stroke-width:1.0;"/><!--MD5=[6e030e330744206a8c9328ce68a2b398]
link step_parallel_undeploy_stop_gui to step_parallel_undeploy_delete_gui--><path d="M405.5,326.2929 C405.5,344.1733 405.5,362.6404 405.5,380.6221 " fill="none" id="step_parallel_undeploy_stop_gui-to-step_parallel_undeploy_delete_gui" style="stroke:#0000FF;stroke-width:1.0;"/><polygon fill="#0000FF" points="405.5,385.6801,409.5,376.6801,405.5,380.6801,401.5,376.6801,405.5,385.6801" style="stroke:#0000FF;stroke-width:1.0;"/><!--MD5=[1c4e1060e72331b57b397f1351b3f8cd]
link step_parallel_undeploy_delete_gui to step_parallel_undeploy_delete_gui_fork--><path d="M405.5,626.1621 C405.5,649.157 405.5,669.5541 405.5,680.8003 " fill="none" id="step_parallel_undeploy_delete_gui-to-step_parallel_undeploy_delete_gui_fork" style="stroke:#0000FF;stroke-width:1.0;"/><polygon fill="#0000FF" points="405.5,685.8126,409.5,676.8126,405.5,680.8126,401.5,676.8126,405.5,685.8126" style="stroke:#0000FF;stroke-width:1.0;"/><!--MD5=[aa5a15f9920f188b224d75571c483df8]
link step_parallel_undeploy_delete_gui_fork to step_parallel_undeploy_stop_node--><path d="M407.9282,694.1775 C413.6046,704.1522 427.7694,730.2959 434.5,754 C462.0147,850.9026 475.5454,964.3944 482.1794,1048.9566 " fill="none" id="step_parallel_undeploy_delete_gui_fork-to-step_parallel_undeploy_stop_node" style="stroke:#0000FF;stroke-width:1.0;"/><polygon fill="#0000FF" points="482.5677,1053.9753,485.8615,1044.6936,482.182,1048.9902,477.8853,1045.3107,482.5677,1053.9753" style="stroke:#0000FF;stroke-width:1.0;"/><!--MD5=[4cab3f8c5f5ed4e9b618203bc12c6997]
link step_parallel_undeploy_delete_gui_fork to step_parallel_undeploy_stop_api--><path d="M404.043,694.1888 C401.0428,702.8146 393.7288,723.8422 385.1158,748.6045 " fill="none" id="step_parallel_undeploy_delete_gui_fork-to-step_parallel_undeploy_stop_api" style="stroke:#0000FF;stroke-width:1.0;"/><polygon fill="#0000FF" points="383.3768,753.6042,390.1115,746.4178,385.0194,748.8817,382.5555,743.7896,383.3768,753.6042" style="stroke:#0000FF;stroke-width:1.0;"/><!--MD5=[d5f18f6658f537a972c6692096c88c56]
link step_parallel_undeploy_stop_maven to step_parallel_undeploy_delete_maven--><path d="M100.5,1894.3369 C100.5,1997.112 100.5,2144.4253 100.5,2248.6233 " fill="none" id="step_parallel_undeploy_stop_maven-to-step_parallel_undeploy_delete_maven" style="stroke:#0000FF;stroke-width:1.0;"/><polygon fill="#0000FF" points="100.5,2253.8632,104.5,2244.8632,100.5,2248.8632,96.5,2244.8632,100.5,2253.8632" style="stroke:#0000FF;stroke-width:1.0;"/><!--MD5=[def9cb364b7a1e083fface716610b2c4]
link step_parallel_undeploy_stop_node to step_parallel_undeploy_delete_node--><path d="M494.7899,1294.4441 C503.7007,1465.0773 519.9196,1775.6511 528.9632,1948.8272 " fill="none" id="step_parallel_undeploy_stop_node-to-step_parallel_undeploy_delete_node" style="stroke:#0000FF;stroke-width:1.0;"/><polygon fill="#0000FF" points="529.2287,1953.9104,532.7537,1944.714,528.9678,1948.9172,524.7646,1945.1313,529.2287,1953.9104" style="stroke:#0000FF;stroke-width:1.0;"/><!--MD5=[09c6fd55e6faf35a7c3b4a5e54d95137]
link step_parallel_undeploy_stop_mongodb to step_parallel_undeploy_delete_mongodb--><path d="M327.5,1594.2929 C327.5,1612.1733 327.5,1630.6404 327.5,1648.6221 " fill="none" id="step_parallel_undeploy_stop_mongodb-to-step_parallel_undeploy_delete_mongodb" style="stroke:#0000FF;stroke-width:1.0;"/><polygon fill="#0000FF" points="327.5,1653.6801,331.5,1644.6801,327.5,1648.6801,323.5,1644.6801,327.5,1653.6801" style="stroke:#0000FF;stroke-width:1.0;"/><!--MD5=[57e3054b7ef9e1a588d9f12fdd069f61]
link step_parallel_undeploy_delete_mongodb to step_parallel_undeploy_stop_dbvolume--><path d="M321.4854,1894.2929 C320.5913,1912.1733 319.668,1930.6404 318.7689,1948.6221 " fill="none" id="step_parallel_undeploy_delete_mongodb-to-step_parallel_undeploy_stop_dbvolume" style="stroke:#0000FF;stroke-width:1.0;"/><polygon fill="#0000FF" points="318.516,1953.6801,322.9607,1944.8912,318.7659,1948.6863,314.9707,1944.4915,318.516,1953.6801" style="stroke:#0000FF;stroke-width:1.0;"/><!--MD5=[ebf9b9640aa80e0236b4ad52dfe31aa7]
link step_parallel_undeploy_stop_dbvolume to step_parallel_undeploy_delete_dbvolume--><path d="M321.3215,2194.2929 C322.6327,2212.1733 323.987,2230.6404 325.3056,2248.6221 " fill="none" id="step_parallel_undeploy_stop_dbvolume-to-step_parallel_undeploy_delete_dbvolume" style="stroke:#0000FF;stroke-width:1.0;"/><polygon fill="#0000FF" points="325.6765,2253.6801,329.0075,2244.4116,325.3108,2248.6935,321.0289,2244.9968,325.6765,2253.6801" style="stroke:#0000FF;stroke-width:1.0;"/><!--MD5=[ffdb119412f0b5a28c619918200c21d1]
link *start to step_parallel_undeploy_stop_gui--><path d="M405.5,26.2152 C405.5,37.7525 405.5,57.9094 405.5,80.6599 " fill="none" id="*start-to-step_parallel_undeploy_stop_gui" style="stroke:#0000FF;stroke-width:1.0;"/><polygon fill="#0000FF" points="405.5,85.8637,409.5,76.8637,405.5,80.8637,401.5,76.8637,405.5,85.8637" style="stroke:#0000FF;stroke-width:1.0;"/><!--MD5=[b5726277a51be5274253853891e80363]
link parallel_undeploy_join to *end--><path d="M334.5,2562.4074 C334.5,2572.8066 334.5,2599.2833 334.5,2616.4165 " fill="none" id="parallel_undeploy_join-to-*end" style="stroke:#0000FF;stroke-width:1.0;"/><polygon fill="#0000FF" points="334.5,2621.8319,338.5,2612.8319,334.5,2616.8319,330.5,2612.8319,334.5,2621.8319" style="stroke:#0000FF;stroke-width:1.0;"/><!--MD5=[35d07ac0d01beba55072cb7daf70fddd]
link step_parallel_undeploy_delete_maven to parallel_undeploy_join--><path d="M194.0956,2479.6954 C199.8167,2484.7166 205.6352,2489.5225 211.5,2494 C246.6895,2520.8656 294.802,2542.1622 319.1062,2552.0251 " fill="none" id="step_parallel_undeploy_delete_maven-to-parallel_undeploy_join" style="stroke:#0000FF;stroke-width:1.0;"/><polygon fill="#0000FF" points="323.9179,2553.9541,317.0526,2546.8924,319.277,2552.0936,314.0758,2554.3179,323.9179,2553.9541" style="stroke:#0000FF;stroke-width:1.0;"/><!--MD5=[26f7a23470507ce2f78b168759a35349]
link step_parallel_undeploy_delete_node to parallel_undeploy_join--><path d="M540.3025,2194.1336 C537.9573,2284.7341 521.379,2407.7223 457.5,2494 C432.8232,2527.3295 385.6559,2544.7841 357.444,2552.6361 " fill="none" id="step_parallel_undeploy_delete_node-to-parallel_undeploy_join" style="stroke:#0000FF;stroke-width:1.0;"/><polygon fill="#0000FF" points="352.4065,2553.9922,362.1369,2555.5152,357.2346,2552.6925,360.0574,2547.7902,352.4065,2553.9922" style="stroke:#0000FF;stroke-width:1.0;"/><!--MD5=[f00c93d87a7f956718cb9e9449fef16a]
link step_parallel_undeploy_delete_dbvolume to parallel_undeploy_join--><path d="M334.5,2494.1621 C334.5,2517.157 334.5,2537.5541 334.5,2548.8003 " fill="none" id="step_parallel_undeploy_delete_dbvolume-to-parallel_undeploy_join" style="stroke:#0000FF;stroke-width:1.0;"/><polygon fill="#0000FF" points="334.5,2553.8126,338.5,2544.8126,334.5,2548.8126,330.5,2544.8126,334.5,2553.8126" style="stroke:#0000FF;stroke-width:1.0;"/><!--MD5=[c3eb072ebfc8c7cc89efa59b4c0049b7]
@startuml
hide empty description
skinparam shadowing false
skinparam state {
  ArrowColor blue
  BorderColor blue
  EndColor black
  StartColor green
  BackGroundColor<< step >> white
  BorderColor<< step >> black
  BackGroundColor<< delegate >> lightgrey
  BackGroundColor<< set_state >> white
  BackGroundColor<< call_operation >> lightblue
  BackGroundColor<< inline >> white
}
skinparam ActivityBarColor<<fork>> DarkGreen
skinparam ActivityBarColor<<join>> DarkOrange

state "stop_api" as step_parallel_undeploy_stop_api << step >> {
  state "api stopping" as step_parallel_undeploy_stop_api_api_stopping << set_state >>
  state "api Standard.stop" as step_parallel_undeploy_stop_api_api_Standard.stop << call_operation >>
  state "api stopped" as step_parallel_undeploy_stop_api_api_stopped << set_state >>
  step_parallel_undeploy_stop_api_api_stopping - -> step_parallel_undeploy_stop_api_api_Standard.stop
  step_parallel_undeploy_stop_api_api_Standard.stop - -> step_parallel_undeploy_stop_api_api_stopped
}
state "delete_api" as step_parallel_undeploy_delete_api << step >> {
  state "api deleting" as step_parallel_undeploy_delete_api_api_deleting << set_state >>
  state "api Standard.delete" as step_parallel_undeploy_delete_api_api_Standard.delete << call_operation >>
  state "api initial" as step_parallel_undeploy_delete_api_api_initial << set_state >>
  step_parallel_undeploy_delete_api_api_deleting - -> step_parallel_undeploy_delete_api_api_Standard.delete
  step_parallel_undeploy_delete_api_api_Standard.delete - -> step_parallel_undeploy_delete_api_api_initial
}
state "stop_gui" as step_parallel_undeploy_stop_gui << step >> {
  state "gui stopping" as step_parallel_undeploy_stop_gui_gui_stopping << set_state >>
  state "gui Standard.stop" as step_parallel_undeploy_stop_gui_gui_Standard.stop << call_operation >>
  state "gui stopped" as step_parallel_undeploy_stop_gui_gui_stopped << set_state >>
  step_parallel_undeploy_stop_gui_gui_stopping - -> step_parallel_undeploy_stop_gui_gui_Standard.stop
  step_parallel_undeploy_stop_gui_gui_Standard.stop - -> step_parallel_undeploy_stop_gui_gui_stopped
}
state "delete_gui" as step_parallel_undeploy_delete_gui << step >> {
  state "gui deleting" as step_parallel_undeploy_delete_gui_gui_deleting << set_state >>
  state "gui Standard.delete" as step_parallel_undeploy_delete_gui_gui_Standard.delete << call_operation >>
  state "gui initial" as step_parallel_undeploy_delete_gui_gui_initial << set_state >>
  step_parallel_undeploy_delete_gui_gui_deleting - -> step_parallel_undeploy_delete_gui_gui_Standard.delete
  step_parallel_undeploy_delete_gui_gui_Standard.delete - -> step_parallel_undeploy_delete_gui_gui_initial
}
state "stop_maven" as step_parallel_undeploy_stop_maven << step >> {
  state "maven stopping" as step_parallel_undeploy_stop_maven_maven_stopping << set_state >>
  state "maven Standard.stop" as step_parallel_undeploy_stop_maven_maven_Standard.stop << call_operation >>
  state "maven stopped" as step_parallel_undeploy_stop_maven_maven_stopped << set_state >>
  step_parallel_undeploy_stop_maven_maven_stopping - -> step_parallel_undeploy_stop_maven_maven_Standard.stop
  step_parallel_undeploy_stop_maven_maven_Standard.stop - -> step_parallel_undeploy_stop_maven_maven_stopped
}
state "delete_maven" as step_parallel_undeploy_delete_maven << step >> {
  state "maven deleting" as step_parallel_undeploy_delete_maven_maven_deleting << set_state >>
  state "maven Standard.delete" as step_parallel_undeploy_delete_maven_maven_Standard.delete << call_operation >>
  state "maven initial" as step_parallel_undeploy_delete_maven_maven_initial << set_state >>
  step_parallel_undeploy_delete_maven_maven_deleting - -> step_parallel_undeploy_delete_maven_maven_Standard.delete
  step_parallel_undeploy_delete_maven_maven_Standard.delete - -> step_parallel_undeploy_delete_maven_maven_initial
}
state "stop_node" as step_parallel_undeploy_stop_node << step >> {
  state "node stopping" as step_parallel_undeploy_stop_node_node_stopping << set_state >>
  state "node Standard.stop" as step_parallel_undeploy_stop_node_node_Standard.stop << call_operation >>
  state "node stopped" as step_parallel_undeploy_stop_node_node_stopped << set_state >>
  step_parallel_undeploy_stop_node_node_stopping - -> step_parallel_undeploy_stop_node_node_Standard.stop
  step_parallel_undeploy_stop_node_node_Standard.stop - -> step_parallel_undeploy_stop_node_node_stopped
}
state "delete_node" as step_parallel_undeploy_delete_node << step >> {
  state "node deleting" as step_parallel_undeploy_delete_node_node_deleting << set_state >>
  state "node Standard.delete" as step_parallel_undeploy_delete_node_node_Standard.delete << call_operation >>
  state "node initial" as step_parallel_undeploy_delete_node_node_initial << set_state >>
  step_parallel_undeploy_delete_node_node_deleting - -> step_parallel_undeploy_delete_node_node_Standard.delete
  step_parallel_undeploy_delete_node_node_Standard.delete - -> step_parallel_undeploy_delete_node_node_initial
}
state "stop_mongodb" as step_parallel_undeploy_stop_mongodb << step >> {
  state "mongodb stopping" as step_parallel_undeploy_stop_mongodb_mongodb_stopping << set_state >>
  state "mongodb Standard.stop" as step_parallel_undeploy_stop_mongodb_mongodb_Standard.stop << call_operation >>
  state "mongodb stopped" as step_parallel_undeploy_stop_mongodb_mongodb_stopped << set_state >>
  step_parallel_undeploy_stop_mongodb_mongodb_stopping - -> step_parallel_undeploy_stop_mongodb_mongodb_Standard.stop
  step_parallel_undeploy_stop_mongodb_mongodb_Standard.stop - -> step_parallel_undeploy_stop_mongodb_mongodb_stopped
}
state "delete_mongodb" as step_parallel_undeploy_delete_mongodb << step >> {
  state "mongodb deleting" as step_parallel_undeploy_delete_mongodb_mongodb_deleting << set_state >>
  state "mongodb Standard.delete" as step_parallel_undeploy_delete_mongodb_mongodb_Standard.delete << call_operation >>
  state "mongodb initial" as step_parallel_undeploy_delete_mongodb_mongodb_initial << set_state >>
  step_parallel_undeploy_delete_mongodb_mongodb_deleting - -> step_parallel_undeploy_delete_mongodb_mongodb_Standard.delete
  step_parallel_undeploy_delete_mongodb_mongodb_Standard.delete - -> step_parallel_undeploy_delete_mongodb_mongodb_initial
}
state "stop_dbvolume" as step_parallel_undeploy_stop_dbvolume << step >> {
  state "dbvolume stopping" as step_parallel_undeploy_stop_dbvolume_dbvolume_stopping << set_state >>
  state "dbvolume Standard.stop" as step_parallel_undeploy_stop_dbvolume_dbvolume_Standard.stop << call_operation >>
  state "dbvolume stopped" as step_parallel_undeploy_stop_dbvolume_dbvolume_stopped << set_state >>
  step_parallel_undeploy_stop_dbvolume_dbvolume_stopping - -> step_parallel_undeploy_stop_dbvolume_dbvolume_Standard.stop
  step_parallel_undeploy_stop_dbvolume_dbvolume_Standard.stop - -> step_parallel_undeploy_stop_dbvolume_dbvolume_stopped
}
state "delete_dbvolume" as step_parallel_undeploy_delete_dbvolume << step >> {
  state "dbvolume deleting" as step_parallel_undeploy_delete_dbvolume_dbvolume_deleting << set_state >>
  state "dbvolume Standard.delete" as step_parallel_undeploy_delete_dbvolume_dbvolume_Standard.delete << call_operation >>
  state "dbvolume initial" as step_parallel_undeploy_delete_dbvolume_dbvolume_initial << set_state >>
  step_parallel_undeploy_delete_dbvolume_dbvolume_deleting - -> step_parallel_undeploy_delete_dbvolume_dbvolume_Standard.delete
  step_parallel_undeploy_delete_dbvolume_dbvolume_Standard.delete - -> step_parallel_undeploy_delete_dbvolume_dbvolume_initial
}
state step_parallel_undeploy_stop_api_fork <<fork>>
step_parallel_undeploy_stop_api - -> step_parallel_undeploy_stop_api_fork
step_parallel_undeploy_stop_api_fork - -> step_parallel_undeploy_delete_api
step_parallel_undeploy_stop_api_fork - -> step_parallel_undeploy_stop_mongodb
step_parallel_undeploy_delete_api - -> step_parallel_undeploy_stop_maven
step_parallel_undeploy_stop_gui - -> step_parallel_undeploy_delete_gui
state step_parallel_undeploy_delete_gui_fork <<fork>>
step_parallel_undeploy_delete_gui - -> step_parallel_undeploy_delete_gui_fork
step_parallel_undeploy_delete_gui_fork - -> step_parallel_undeploy_stop_node
step_parallel_undeploy_delete_gui_fork - -> step_parallel_undeploy_stop_api
step_parallel_undeploy_stop_maven - -> step_parallel_undeploy_delete_maven
step_parallel_undeploy_stop_node - -> step_parallel_undeploy_delete_node
step_parallel_undeploy_stop_mongodb - -> step_parallel_undeploy_delete_mongodb
step_parallel_undeploy_delete_mongodb - -> step_parallel_undeploy_stop_dbvolume
step_parallel_undeploy_stop_dbvolume - -> step_parallel_undeploy_delete_dbvolume
[*] - -> step_parallel_undeploy_stop_gui
state parallel_undeploy_join <<join>>
parallel_undeploy_join - -> [*]
step_parallel_undeploy_delete_maven - -> parallel_undeploy_join
step_parallel_undeploy_delete_node - -> parallel_undeploy_join
step_parallel_undeploy_delete_dbvolume - -> parallel_undeploy_join
@enduml

PlantUML version 1.2021.13(Mon Nov 01 12:38:45 CET 2021)
(GPL source distribution)
Java Runtime: Java(TM) SE Runtime Environment
JVM: Java HotSpot(TM) 64-Bit Server VM
Default Encoding: UTF-8
Language: fr
Country: FR
--></g></svg>