<?xml version="1.0" encoding="UTF-8" standalone="no"?>
<!DOCTYPE svg PUBLIC "-//W3C//DTD SVG 1.1//EN"
 "http://www.w3.org/Graphics/SVG/1.1/DTD/svg11.dtd">
<!-- Generated by graphviz version 2.38.0 (20140413.2041)
 -->
<!-- Title: ToscaDiagram Pages: 1 -->
<svg width="1846pt" height="190pt"
 viewBox="0.00 0.00 1846.00 190.00" xmlns="http://www.w3.org/2000/svg" xmlns:xlink="http://www.w3.org/1999/xlink">
<g id="graph0" class="graph" transform="scale(1 1) rotate(0) translate(4 186)">
<title>ToscaDiagram</title>
<polygon fill="white" stroke="none" points="-4,4 -4,-186 1842,-186 1842,4 -4,4"/>
<g id="clust1" class="cluster"><title>clusterendpoint</title>
<polygon fill="none" stroke="white" points="8,-8 8,-120 277,-120 277,-8 8,-8"/>
</g>
<g id="clust2" class="cluster"><title>clusterfrontend</title>
<polygon fill="none" stroke="white" points="297,-8 297,-120 709,-120 709,-8 297,-8"/>
</g>
<g id="clust3" class="cluster"><title>clusterweb_server</title>
<polygon fill="none" stroke="white" points="729,-35 729,-147 1134,-147 1134,-35 729,-35"/>
</g>
<g id="clust4" class="cluster"><title>clusterdatabase</title>
<polygon fill="none" stroke="white" points="1154,-62 1154,-174 1524,-174 1524,-62 1154,-62"/>
</g>
<g id="clust5" class="cluster"><title>clusterdirectory</title>
<polygon fill="none" stroke="white" points="1544,-62 1544,-174 1830,-174 1830,-62 1544,-62"/>
</g>
<!-- endpoint -->
<g id="node1" class="node"><title>endpoint</title>
<path fill="none" stroke="black" d="M28,-16.5C28,-16.5 145,-16.5 145,-16.5 151,-16.5 157,-22.5 157,-28.5 157,-28.5 157,-99.5 157,-99.5 157,-105.5 151,-111.5 145,-111.5 145,-111.5 28,-111.5 28,-111.5 22,-111.5 16,-105.5 16,-99.5 16,-99.5 16,-28.5 16,-28.5 16,-22.5 22,-16.5 28,-16.5"/>
<text text-anchor="middle" x="86.5" y="-96.3" font-family="Times,serif" font-size="14.00">endpoint: kh:Endpoint</text>
<polyline fill="none" stroke="black" points="16,-88.5 157,-88.5 "/>
</g>
<!-- endpoint_requirement_connection -->
<g id="node2" class="node"><title>endpoint_requirement_connection</title>
<polygon fill="turquoise" stroke="black" points="257,-76 193,-76 193,-52 257,-52 269,-64 257,-76"/>
<text text-anchor="middle" x="231" y="-60.3" font-family="Times,serif" font-size="14.00">connection</text>
</g>
<!-- endpoint&#45;&#45;endpoint_requirement_connection -->
<g id="edge1" class="edge"><title>endpoint&#45;&#45;endpoint_requirement_connection</title>
<path fill="none" stroke="black" d="M157.08,-64C169.373,-64 181.733,-64 192.694,-64"/>
</g>
<!-- frontend_capability_connectable -->
<g id="node4" class="node"><title>frontend_capability_connectable</title>
<polygon fill="orange" stroke="black" points="375,-76 305,-76 305,-52 375,-52 387,-64 375,-76"/>
<text text-anchor="middle" x="346" y="-60.3" font-family="Times,serif" font-size="14.00">connectable</text>
</g>
<!-- endpoint_requirement_connection&#45;&#45;frontend_capability_connectable -->
<g id="edge11" class="edge"><title>endpoint_requirement_connection&#45;&#45;frontend_capability_connectable</title>
<path fill="none" stroke="black" stroke-dasharray="1,5" d="M269,-64C280.458,-64 293.134,-64 304.797,-64"/>
</g>
<!-- frontend -->
<g id="node3" class="node"><title>frontend</title>
<path fill="none" stroke="black" d="M435,-16.5C435,-16.5 577,-16.5 577,-16.5 583,-16.5 589,-22.5 589,-28.5 589,-28.5 589,-99.5 589,-99.5 589,-105.5 583,-111.5 577,-111.5 577,-111.5 435,-111.5 435,-111.5 429,-111.5 423,-105.5 423,-99.5 423,-99.5 423,-28.5 423,-28.5 423,-22.5 429,-16.5 435,-16.5"/>
<text text-anchor="middle" x="506" y="-96.3" font-family="Times,serif" font-size="14.00">frontend: kh:LoadBalancer</text>
<polyline fill="none" stroke="black" points="423,-88.5 589,-88.5 "/>
</g>
<!-- frontend_requirement_connection -->
<g id="node5" class="node"><title>frontend_requirement_connection</title>
<polygon fill="turquoise" stroke="black" points="689,-76 625,-76 625,-52 689,-52 701,-64 689,-76"/>
<text text-anchor="middle" x="663" y="-60.3" font-family="Times,serif" font-size="14.00">connection</text>
</g>
<!-- frontend&#45;&#45;frontend_requirement_connection -->
<g id="edge3" class="edge"><title>frontend&#45;&#45;frontend_requirement_connection</title>
<path fill="none" stroke="black" d="M589.039,-64C601.529,-64 613.861,-64 624.732,-64"/>
</g>
<!-- frontend_capability_connectable&#45;&#45;frontend -->
<g id="edge2" class="edge"><title>frontend_capability_connectable&#45;&#45;frontend</title>
<path fill="none" stroke="black" d="M387.279,-64C398.25,-64 410.546,-64 422.941,-64"/>
</g>
<!-- web_server_capability_connectable -->
<g id="node8" class="node"><title>web_server_capability_connectable</title>
<polygon fill="orange" stroke="black" points="807,-76 737,-76 737,-52 807,-52 819,-64 807,-76"/>
<text text-anchor="middle" x="778" y="-60.3" font-family="Times,serif" font-size="14.00">connectable</text>
</g>
<!-- frontend_requirement_connection&#45;&#45;web_server_capability_connectable -->
<g id="edge12" class="edge"><title>frontend_requirement_connection&#45;&#45;web_server_capability_connectable</title>
<path fill="none" stroke="black" stroke-dasharray="1,5" d="M701,-64C712.458,-64 725.134,-64 736.797,-64"/>
</g>
<!-- web_server -->
<g id="node6" class="node"><title>web_server</title>
<path fill="none" stroke="black" d="M867,-43.5C867,-43.5 1002,-43.5 1002,-43.5 1008,-43.5 1014,-49.5 1014,-55.5 1014,-55.5 1014,-126.5 1014,-126.5 1014,-132.5 1008,-138.5 1002,-138.5 1002,-138.5 867,-138.5 867,-138.5 861,-138.5 855,-132.5 855,-126.5 855,-126.5 855,-55.5 855,-55.5 855,-49.5 861,-43.5 867,-43.5"/>
<text text-anchor="middle" x="934.5" y="-123.3" font-family="Times,serif" font-size="14.00">web&#45;server: kh:Container</text>
<polyline fill="none" stroke="black" points="855,-115.5 1014,-115.5 "/>
</g>
<!-- web_server_requirement_connection -->
<g id="node9" class="node"><title>web_server_requirement_connection</title>
<polygon fill="turquoise" stroke="black" points="1114,-103 1050,-103 1050,-79 1114,-79 1126,-91 1114,-103"/>
<text text-anchor="middle" x="1088" y="-87.3" font-family="Times,serif" font-size="14.00">connection</text>
</g>
<!-- web_server&#45;&#45;web_server_requirement_connection -->
<g id="edge6" class="edge"><title>web_server&#45;&#45;web_server_requirement_connection</title>
<path fill="none" stroke="black" d="M1014.36,-91C1026.72,-91 1038.98,-91 1049.8,-91"/>
</g>
<!-- web_server_capability_runnable -->
<g id="node7" class="node"><title>web_server_capability_runnable</title>
<polygon fill="orange" stroke="black" points="798.5,-130 745.5,-130 745.5,-106 798.5,-106 810.5,-118 798.5,-130"/>
<text text-anchor="middle" x="778" y="-114.3" font-family="Times,serif" font-size="14.00">runnable</text>
</g>
<!-- web_server_capability_runnable&#45;&#45;web_server -->
<g id="edge4" class="edge"><title>web_server_capability_runnable&#45;&#45;web_server</title>
<path fill="none" stroke="black" d="M810.638,-112.471C823.616,-110.203 839.269,-107.468 854.992,-104.72"/>
</g>
<!-- web_server_capability_connectable&#45;&#45;web_server -->
<g id="edge5" class="edge"><title>web_server_capability_connectable&#45;&#45;web_server</title>
<path fill="none" stroke="black" d="M819.19,-71.0234C830.187,-72.9453 842.498,-75.0967 854.856,-77.2564"/>
</g>
<!-- database_capability_connectable -->
<g id="node12" class="node"><title>database_capability_connectable</title>
<polygon fill="orange" stroke="black" points="1232,-103 1162,-103 1162,-79 1232,-79 1244,-91 1232,-103"/>
<text text-anchor="middle" x="1203" y="-87.3" font-family="Times,serif" font-size="14.00">connectable</text>
</g>
<!-- web_server_requirement_connection&#45;&#45;database_capability_connectable -->
<g id="edge13" class="edge"><title>web_server_requirement_connection&#45;&#45;database_capability_connectable</title>
<path fill="none" stroke="black" stroke-dasharray="1,5" d="M1126,-91C1137.46,-91 1150.13,-91 1161.8,-91"/>
</g>
<!-- database -->
<g id="node10" class="node"><title>database</title>
<path fill="none" stroke="black" d="M1292,-70.5C1292,-70.5 1412,-70.5 1412,-70.5 1418,-70.5 1424,-76.5 1424,-82.5 1424,-82.5 1424,-153.5 1424,-153.5 1424,-159.5 1418,-165.5 1412,-165.5 1412,-165.5 1292,-165.5 1292,-165.5 1286,-165.5 1280,-159.5 1280,-153.5 1280,-153.5 1280,-82.5 1280,-82.5 1280,-76.5 1286,-70.5 1292,-70.5"/>
<text text-anchor="middle" x="1352" y="-150.3" font-family="Times,serif" font-size="14.00">database: kh:Container</text>
<polyline fill="none" stroke="black" points="1280,-142.5 1424,-142.5 "/>
</g>
<!-- database_requirement_storage -->
<g id="node13" class="node"><title>database_requirement_storage</title>
<polygon fill="turquoise" stroke="black" points="1504,-130 1460,-130 1460,-106 1504,-106 1516,-118 1504,-130"/>
<text text-anchor="middle" x="1488" y="-114.3" font-family="Times,serif" font-size="14.00">storage</text>
</g>
<!-- database&#45;&#45;database_requirement_storage -->
<g id="edge9" class="edge"><title>database&#45;&#45;database_requirement_storage</title>
<path fill="none" stroke="black" d="M1424.32,-118C1436.94,-118 1449.36,-118 1459.77,-118"/>
</g>
<!-- database_capability_runnable -->
<g id="node11" class="node"><title>database_capability_runnable</title>
<polygon fill="orange" stroke="black" points="1223.5,-157 1170.5,-157 1170.5,-133 1223.5,-133 1235.5,-145 1223.5,-157"/>
<text text-anchor="middle" x="1203" y="-141.3" font-family="Times,serif" font-size="14.00">runnable</text>
</g>
<!-- database_capability_runnable&#45;&#45;database -->
<g id="edge7" class="edge"><title>database_capability_runnable&#45;&#45;database</title>
<path fill="none" stroke="black" d="M1235.54,-139.208C1248.61,-136.806 1264.35,-133.915 1279.95,-131.051"/>
</g>
<!-- database_capability_connectable&#45;&#45;database -->
<g id="edge8" class="edge"><title>database_capability_connectable&#45;&#45;database</title>
<path fill="none" stroke="black" d="M1244.17,-98.3779C1255.22,-100.408 1267.55,-102.672 1279.79,-104.92"/>
</g>
<!-- directory_capability_storage -->
<g id="node15" class="node"><title>directory_capability_storage</title>
<polygon fill="orange" stroke="black" points="1596,-130 1552,-130 1552,-106 1596,-106 1608,-118 1596,-130"/>
<text text-anchor="middle" x="1580" y="-114.3" font-family="Times,serif" font-size="14.00">storage</text>
</g>
<!-- database_requirement_storage&#45;&#45;directory_capability_storage -->
<g id="edge14" class="edge"><title>database_requirement_storage&#45;&#45;directory_capability_storage</title>
<path fill="none" stroke="black" stroke-dasharray="1,5" d="M1516,-118C1527.29,-118 1540.39,-118 1551.71,-118"/>
</g>
<!-- directory -->
<g id="node14" class="node"><title>directory</title>
<path fill="none" stroke="black" d="M1656,-70.5C1656,-70.5 1810,-70.5 1810,-70.5 1816,-70.5 1822,-76.5 1822,-82.5 1822,-82.5 1822,-153.5 1822,-153.5 1822,-159.5 1816,-165.5 1810,-165.5 1810,-165.5 1656,-165.5 1656,-165.5 1650,-165.5 1644,-159.5 1644,-153.5 1644,-153.5 1644,-82.5 1644,-82.5 1644,-76.5 1650,-70.5 1656,-70.5"/>
<text text-anchor="middle" x="1733" y="-150.3" font-family="Times,serif" font-size="14.00">directory: kh:LocalDirectory</text>
<polyline fill="none" stroke="black" points="1644,-142.5 1822,-142.5 "/>
</g>
<!-- directory_capability_storage&#45;&#45;directory -->
<g id="edge10" class="edge"><title>directory_capability_storage&#45;&#45;directory</title>
<path fill="none" stroke="black" d="M1608.34,-118C1618.63,-118 1630.96,-118 1643.79,-118"/>
</g>
</g>
</svg>
