<?xml version="1.0" encoding="UTF-8" standalone="no"?>
<!DOCTYPE svg PUBLIC "-//W3C//DTD SVG 1.1//EN"
 "http://www.w3.org/Graphics/SVG/1.1/DTD/svg11.dtd">
<!-- Generated by graphviz version 2.38.0 (20140413.2041)
 -->
<!-- Title: ToscaDiagram Pages: 1 -->
<svg width="1551pt" height="190pt"
 viewBox="0.00 0.00 1551.00 190.00" xmlns="http://www.w3.org/2000/svg" xmlns:xlink="http://www.w3.org/1999/xlink">
<g id="graph0" class="graph" transform="scale(1 1) rotate(0) translate(4 186)">
<title>ToscaDiagram</title>
<polygon fill="white" stroke="none" points="-4,4 -4,-186 1547,-186 1547,4 -4,4"/>
<g id="clust1" class="cluster"><title>clusterfrontend</title>
<polygon fill="none" stroke="white" points="8,-8 8,-120 418,-120 418,-8 8,-8"/>
</g>
<g id="clust2" class="cluster"><title>clusterweb_server</title>
<polygon fill="none" stroke="white" points="438,-35 438,-147 841,-147 841,-35 438,-35"/>
</g>
<g id="clust3" class="cluster"><title>clusterdatabase</title>
<polygon fill="none" stroke="white" points="861,-62 861,-174 1229,-174 1229,-62 861,-62"/>
</g>
<g id="clust4" class="cluster"><title>clusterdirectory</title>
<polygon fill="none" stroke="white" points="1249,-62 1249,-174 1535,-174 1535,-62 1249,-62"/>
</g>
<!-- frontend -->
<g id="node1" class="node"><title>frontend</title>
<path fill="none" stroke="black" d="M144,-16.5C144,-16.5 286,-16.5 286,-16.5 292,-16.5 298,-22.5 298,-28.5 298,-28.5 298,-99.5 298,-99.5 298,-105.5 292,-111.5 286,-111.5 286,-111.5 144,-111.5 144,-111.5 138,-111.5 132,-105.5 132,-99.5 132,-99.5 132,-28.5 132,-28.5 132,-22.5 138,-16.5 144,-16.5"/>
<text text-anchor="middle" x="215" y="-96.3" font-family="Times,serif" font-size="14.00">frontend: kh:LoadBalancer</text>
<polyline fill="none" stroke="black" points="132,-88.5 298,-88.5 "/>
</g>
<!-- frontend_requirement_connection -->
<g id="node3" class="node"><title>frontend_requirement_connection</title>
<polygon fill="turquoise" stroke="black" points="398,-76 334,-76 334,-52 398,-52 410,-64 398,-76"/>
<text text-anchor="middle" x="372" y="-60.3" font-family="Times,serif" font-size="14.00">connection</text>
</g>
<!-- frontend&#45;&#45;frontend_requirement_connection -->
<g id="edge2" class="edge"><title>frontend&#45;&#45;frontend_requirement_connection</title>
<path fill="none" stroke="black" d="M298.039,-64C310.529,-64 322.861,-64 333.732,-64"/>
</g>
<!-- frontend_capability_connectible -->
<g id="node2" class="node"><title>frontend_capability_connectible</title>
<polygon fill="orange" stroke="black" points="84,-76 16,-76 16,-52 84,-52 96,-64 84,-76"/>
<text text-anchor="middle" x="56" y="-60.3" font-family="Times,serif" font-size="14.00">connectible</text>
</g>
<!-- frontend_capability_connectible&#45;&#45;frontend -->
<g id="edge1" class="edge"><title>frontend_capability_connectible&#45;&#45;frontend</title>
<path fill="none" stroke="black" d="M96.2127,-64C107.112,-64 119.372,-64 131.757,-64"/>
</g>
<!-- web_server_capability_connectible -->
<g id="node6" class="node"><title>web_server_capability_connectible</title>
<polygon fill="orange" stroke="black" points="514,-76 446,-76 446,-52 514,-52 526,-64 514,-76"/>
<text text-anchor="middle" x="486" y="-60.3" font-family="Times,serif" font-size="14.00">connectible</text>
</g>
<!-- frontend_requirement_connection&#45;&#45;web_server_capability_connectible -->
<g id="edge10" class="edge"><title>frontend_requirement_connection&#45;&#45;web_server_capability_connectible</title>
<path fill="none" stroke="black" stroke-dasharray="1,5" d="M410.294,-64C421.749,-64 434.382,-64 445.951,-64"/>
</g>
<!-- web_server -->
<g id="node4" class="node"><title>web_server</title>
<path fill="none" stroke="black" d="M574,-43.5C574,-43.5 709,-43.5 709,-43.5 715,-43.5 721,-49.5 721,-55.5 721,-55.5 721,-126.5 721,-126.5 721,-132.5 715,-138.5 709,-138.5 709,-138.5 574,-138.5 574,-138.5 568,-138.5 562,-132.5 562,-126.5 562,-126.5 562,-55.5 562,-55.5 562,-49.5 568,-43.5 574,-43.5"/>
<text text-anchor="middle" x="641.5" y="-123.3" font-family="Times,serif" font-size="14.00">web&#45;server: kh:Container</text>
<polyline fill="none" stroke="black" points="562,-115.5 721,-115.5 "/>
</g>
<!-- web_server_requirement_connection -->
<g id="node7" class="node"><title>web_server_requirement_connection</title>
<polygon fill="turquoise" stroke="black" points="821,-103 757,-103 757,-79 821,-79 833,-91 821,-103"/>
<text text-anchor="middle" x="795" y="-87.3" font-family="Times,serif" font-size="14.00">connection</text>
</g>
<!-- web_server&#45;&#45;web_server_requirement_connection -->
<g id="edge5" class="edge"><title>web_server&#45;&#45;web_server_requirement_connection</title>
<path fill="none" stroke="black" d="M721.356,-91C733.723,-91 745.979,-91 756.803,-91"/>
</g>
<!-- web_server_capability_runnable -->
<g id="node5" class="node"><title>web_server_capability_runnable</title>
<polygon fill="orange" stroke="black" points="506.5,-130 453.5,-130 453.5,-106 506.5,-106 518.5,-118 506.5,-130"/>
<text text-anchor="middle" x="486" y="-114.3" font-family="Times,serif" font-size="14.00">runnable</text>
</g>
<!-- web_server_capability_runnable&#45;&#45;web_server -->
<g id="edge3" class="edge"><title>web_server_capability_runnable&#45;&#45;web_server</title>
<path fill="none" stroke="black" d="M518.805,-112.406C531.451,-110.181 546.609,-107.515 561.867,-104.831"/>
</g>
<!-- web_server_capability_connectible&#45;&#45;web_server -->
<g id="edge4" class="edge"><title>web_server_capability_connectible&#45;&#45;web_server</title>
<path fill="none" stroke="black" d="M526.132,-70.8831C537.146,-72.8205 549.533,-74.9994 561.983,-77.1892"/>
</g>
<!-- database_capability_connectible -->
<g id="node10" class="node"><title>database_capability_connectible</title>
<polygon fill="orange" stroke="black" points="937,-103 869,-103 869,-79 937,-79 949,-91 937,-103"/>
<text text-anchor="middle" x="909" y="-87.3" font-family="Times,serif" font-size="14.00">connectible</text>
</g>
<!-- web_server_requirement_connection&#45;&#45;database_capability_connectible -->
<g id="edge11" class="edge"><title>web_server_requirement_connection&#45;&#45;database_capability_connectible</title>
<path fill="none" stroke="black" stroke-dasharray="1,5" d="M833.294,-91C844.749,-91 857.382,-91 868.951,-91"/>
</g>
<!-- database -->
<g id="node8" class="node"><title>database</title>
<path fill="none" stroke="black" d="M997,-70.5C997,-70.5 1117,-70.5 1117,-70.5 1123,-70.5 1129,-76.5 1129,-82.5 1129,-82.5 1129,-153.5 1129,-153.5 1129,-159.5 1123,-165.5 1117,-165.5 1117,-165.5 997,-165.5 997,-165.5 991,-165.5 985,-159.5 985,-153.5 985,-153.5 985,-82.5 985,-82.5 985,-76.5 991,-70.5 997,-70.5"/>
<text text-anchor="middle" x="1057" y="-150.3" font-family="Times,serif" font-size="14.00">database: kh:Container</text>
<polyline fill="none" stroke="black" points="985,-142.5 1129,-142.5 "/>
</g>
<!-- database_requirement_storage -->
<g id="node11" class="node"><title>database_requirement_storage</title>
<polygon fill="turquoise" stroke="black" points="1209,-130 1165,-130 1165,-106 1209,-106 1221,-118 1209,-130"/>
<text text-anchor="middle" x="1193" y="-114.3" font-family="Times,serif" font-size="14.00">storage</text>
</g>
<!-- database&#45;&#45;database_requirement_storage -->
<g id="edge8" class="edge"><title>database&#45;&#45;database_requirement_storage</title>
<path fill="none" stroke="black" d="M1129.32,-118C1141.94,-118 1154.36,-118 1164.77,-118"/>
</g>
<!-- database_capability_runnable -->
<g id="node9" class="node"><title>database_capability_runnable</title>
<polygon fill="orange" stroke="black" points="929.5,-157 876.5,-157 876.5,-133 929.5,-133 941.5,-145 929.5,-157"/>
<text text-anchor="middle" x="909" y="-141.3" font-family="Times,serif" font-size="14.00">runnable</text>
</g>
<!-- database_capability_runnable&#45;&#45;database -->
<g id="edge6" class="edge"><title>database_capability_runnable&#45;&#45;database</title>
<path fill="none" stroke="black" d="M941.68,-139.141C954.428,-136.784 969.682,-133.963 984.831,-131.161"/>
</g>
<!-- database_capability_connectible&#45;&#45;database -->
<g id="edge7" class="edge"><title>database_capability_connectible&#45;&#45;database</title>
<path fill="none" stroke="black" d="M949.125,-98.2355C960.19,-100.282 972.59,-102.575 984.916,-104.854"/>
</g>
<!-- directory_capability_storage -->
<g id="node13" class="node"><title>directory_capability_storage</title>
<polygon fill="orange" stroke="black" points="1301,-130 1257,-130 1257,-106 1301,-106 1313,-118 1301,-130"/>
<text text-anchor="middle" x="1285" y="-114.3" font-family="Times,serif" font-size="14.00">storage</text>
</g>
<!-- database_requirement_storage&#45;&#45;directory_capability_storage -->
<g id="edge12" class="edge"><title>database_requirement_storage&#45;&#45;directory_capability_storage</title>
<path fill="none" stroke="black" stroke-dasharray="1,5" d="M1221,-118C1232.29,-118 1245.39,-118 1256.71,-118"/>
</g>
<!-- directory -->
<g id="node12" class="node"><title>directory</title>
<path fill="none" stroke="black" d="M1361,-70.5C1361,-70.5 1515,-70.5 1515,-70.5 1521,-70.5 1527,-76.5 1527,-82.5 1527,-82.5 1527,-153.5 1527,-153.5 1527,-159.5 1521,-165.5 1515,-165.5 1515,-165.5 1361,-165.5 1361,-165.5 1355,-165.5 1349,-159.5 1349,-153.5 1349,-153.5 1349,-82.5 1349,-82.5 1349,-76.5 1355,-70.5 1361,-70.5"/>
<text text-anchor="middle" x="1438" y="-150.3" font-family="Times,serif" font-size="14.00">directory: kh:LocalDirectory</text>
<polyline fill="none" stroke="black" points="1349,-142.5 1527,-142.5 "/>
</g>
<!-- directory_capability_storage&#45;&#45;directory -->
<g id="edge9" class="edge"><title>directory_capability_storage&#45;&#45;directory</title>
<path fill="none" stroke="black" d="M1313.34,-118C1323.63,-118 1335.96,-118 1348.79,-118"/>
</g>
</g>
</svg>
